<?xml version="1.0" encoding="utf-8" standalone="no"?>
<!DOCTYPE svg PUBLIC "-//W3C//DTD SVG 1.1//EN"
  "http://www.w3.org/Graphics/SVG/1.1/DTD/svg11.dtd">
<!-- Created with matplotlib (https://matplotlib.org/) -->
<svg height="720pt" version="1.1" viewBox="0 0 1152 720" width="1152pt" xmlns="http://www.w3.org/2000/svg" xmlns:xlink="http://www.w3.org/1999/xlink">
 <defs>
  <style type="text/css">
*{stroke-linecap:butt;stroke-linejoin:round;}
  </style>
 </defs>
 <g id="figure_1">
  <g id="patch_1">
   <path d="M 0 720 
L 1152 720 
L 1152 0 
L 0 0 
z
" style="fill:#ffffff;"/>
  </g>
  <g id="axes_1">
   <g id="patch_2">
    <path d="M 84.55 652.7 
L 1135.2 652.7 
L 1135.2 16.8 
L 84.55 16.8 
z
" style="fill:#ffffff;"/>
   </g>
   <g id="matplotlib.axis_1">
    <g id="xtick_1">
     <g id="line2d_1">
      <path clip-path="url(#p2255da4343)" d="M 260.919011 652.7 
L 260.919011 16.8 
" style="fill:none;stroke:#cccccc;stroke-linecap:round;"/>
     </g>
     <g id="text_1">
      <!-- −5 -->
      <defs>
       <path d="M 52.828125 31.203125 
L 5.5625 31.203125 
L 5.5625 39.40625 
L 52.828125 39.40625 
z
" id="ArialMT-8722"/>
       <path d="M 4.15625 18.75 
L 13.375 19.53125 
Q 14.40625 12.796875 18.140625 9.390625 
Q 21.875 6 27.15625 6 
Q 33.5 6 37.890625 10.78125 
Q 42.28125 15.578125 42.28125 23.484375 
Q 42.28125 31 38.0625 35.34375 
Q 33.84375 39.703125 27 39.703125 
Q 22.75 39.703125 19.328125 37.765625 
Q 15.921875 35.84375 13.96875 32.765625 
L 5.71875 33.84375 
L 12.640625 70.609375 
L 48.25 70.609375 
L 48.25 62.203125 
L 19.671875 62.203125 
L 15.828125 42.96875 
Q 22.265625 47.46875 29.34375 47.46875 
Q 38.71875 47.46875 45.15625 40.96875 
Q 51.609375 34.46875 51.609375 24.265625 
Q 51.609375 14.546875 45.953125 7.46875 
Q 39.0625 -1.21875 27.15625 -1.21875 
Q 17.390625 -1.21875 11.203125 4.25 
Q 5.03125 9.71875 4.15625 18.75 
z
" id="ArialMT-53"/>
      </defs>
      <g style="fill:#262626;" transform="translate(248.377293 677.947188)scale(0.22 -0.22)">
       <use xlink:href="#ArialMT-8722"/>
       <use x="58.398438" xlink:href="#ArialMT-53"/>
      </g>
     </g>
    </g>
    <g id="xtick_2">
     <g id="line2d_2">
      <path clip-path="url(#p2255da4343)" d="M 455.744893 652.7 
L 455.744893 16.8 
" style="fill:none;stroke:#cccccc;stroke-linecap:round;"/>
     </g>
     <g id="text_2">
      <!-- 0 -->
      <defs>
       <path d="M 4.15625 35.296875 
Q 4.15625 48 6.765625 55.734375 
Q 9.375 63.484375 14.515625 67.671875 
Q 19.671875 71.875 27.484375 71.875 
Q 33.25 71.875 37.59375 69.546875 
Q 41.9375 67.234375 44.765625 62.859375 
Q 47.609375 58.5 49.21875 52.21875 
Q 50.828125 45.953125 50.828125 35.296875 
Q 50.828125 22.703125 48.234375 14.96875 
Q 45.65625 7.234375 40.5 3 
Q 35.359375 -1.21875 27.484375 -1.21875 
Q 17.140625 -1.21875 11.234375 6.203125 
Q 4.15625 15.140625 4.15625 35.296875 
z
M 13.1875 35.296875 
Q 13.1875 17.671875 17.3125 11.828125 
Q 21.4375 6 27.484375 6 
Q 33.546875 6 37.671875 11.859375 
Q 41.796875 17.71875 41.796875 35.296875 
Q 41.796875 52.984375 37.671875 58.78125 
Q 33.546875 64.59375 27.390625 64.59375 
Q 21.34375 64.59375 17.71875 59.46875 
Q 13.1875 52.9375 13.1875 35.296875 
z
" id="ArialMT-48"/>
      </defs>
      <g style="fill:#262626;" transform="translate(449.627861 677.947188)scale(0.22 -0.22)">
       <use xlink:href="#ArialMT-48"/>
      </g>
     </g>
    </g>
    <g id="xtick_3">
     <g id="line2d_3">
      <path clip-path="url(#p2255da4343)" d="M 650.570774 652.7 
L 650.570774 16.8 
" style="fill:none;stroke:#cccccc;stroke-linecap:round;"/>
     </g>
     <g id="text_3">
      <!-- 5 -->
      <g style="fill:#262626;" transform="translate(644.453743 677.947188)scale(0.22 -0.22)">
       <use xlink:href="#ArialMT-53"/>
      </g>
     </g>
    </g>
    <g id="xtick_4">
     <g id="line2d_4">
      <path clip-path="url(#p2255da4343)" d="M 845.396655 652.7 
L 845.396655 16.8 
" style="fill:none;stroke:#cccccc;stroke-linecap:round;"/>
     </g>
     <g id="text_4">
      <!-- 10 -->
      <defs>
       <path d="M 37.25 0 
L 28.46875 0 
L 28.46875 56 
Q 25.296875 52.984375 20.140625 49.953125 
Q 14.984375 46.921875 10.890625 45.40625 
L 10.890625 53.90625 
Q 18.265625 57.375 23.78125 62.296875 
Q 29.296875 67.234375 31.59375 71.875 
L 37.25 71.875 
z
" id="ArialMT-49"/>
      </defs>
      <g style="fill:#262626;" transform="translate(833.162593 677.947188)scale(0.22 -0.22)">
       <use xlink:href="#ArialMT-49"/>
       <use x="55.615234" xlink:href="#ArialMT-48"/>
      </g>
     </g>
    </g>
    <g id="xtick_5">
     <g id="line2d_5">
      <path clip-path="url(#p2255da4343)" d="M 1040.222537 652.7 
L 1040.222537 16.8 
" style="fill:none;stroke:#cccccc;stroke-linecap:round;"/>
     </g>
     <g id="text_5">
      <!-- 15 -->
      <g style="fill:#262626;" transform="translate(1027.988474 677.947188)scale(0.22 -0.22)">
       <use xlink:href="#ArialMT-49"/>
       <use x="55.615234" xlink:href="#ArialMT-53"/>
      </g>
     </g>
    </g>
    <g id="text_6">
     <!-- Yerr -->
     <defs>
      <path d="M 27.875 0 
L 27.875 30.328125 
L 0.296875 71.578125 
L 11.8125 71.578125 
L 25.921875 50 
Q 29.828125 43.953125 33.203125 37.890625 
Q 36.421875 43.5 41.015625 50.53125 
L 54.890625 71.578125 
L 65.921875 71.578125 
L 37.359375 30.328125 
L 37.359375 0 
z
" id="ArialMT-89"/>
      <path d="M 42.09375 16.703125 
L 51.171875 15.578125 
Q 49.03125 7.625 43.21875 3.21875 
Q 37.40625 -1.171875 28.375 -1.171875 
Q 17 -1.171875 10.328125 5.828125 
Q 3.65625 12.84375 3.65625 25.484375 
Q 3.65625 38.578125 10.390625 45.796875 
Q 17.140625 53.03125 27.875 53.03125 
Q 38.28125 53.03125 44.875 45.953125 
Q 51.46875 38.875 51.46875 26.03125 
Q 51.46875 25.25 51.421875 23.6875 
L 12.75 23.6875 
Q 13.234375 15.140625 17.578125 10.59375 
Q 21.921875 6.0625 28.421875 6.0625 
Q 33.25 6.0625 36.671875 8.59375 
Q 40.09375 11.140625 42.09375 16.703125 
z
M 13.234375 30.90625 
L 42.1875 30.90625 
Q 41.609375 37.453125 38.875 40.71875 
Q 34.671875 45.796875 27.984375 45.796875 
Q 21.921875 45.796875 17.796875 41.75 
Q 13.671875 37.703125 13.234375 30.90625 
z
" id="ArialMT-101"/>
      <path d="M 6.5 0 
L 6.5 51.859375 
L 14.40625 51.859375 
L 14.40625 44 
Q 17.4375 49.515625 20 51.265625 
Q 22.5625 53.03125 25.640625 53.03125 
Q 30.078125 53.03125 34.671875 50.203125 
L 31.640625 42.046875 
Q 28.421875 43.953125 25.203125 43.953125 
Q 22.3125 43.953125 20.015625 42.21875 
Q 17.71875 40.484375 16.75 37.40625 
Q 15.28125 32.71875 15.28125 27.15625 
L 15.28125 0 
z
" id="ArialMT-114"/>
     </defs>
     <g style="fill:#262626;" transform="translate(587.223125 703.498438)scale(0.24 -0.24)">
      <use xlink:href="#ArialMT-89"/>
      <use x="66.558594" xlink:href="#ArialMT-101"/>
      <use x="122.173828" xlink:href="#ArialMT-114"/>
      <use x="155.474609" xlink:href="#ArialMT-114"/>
     </g>
    </g>
   </g>
   <g id="matplotlib.axis_2">
    <g id="ytick_1">
     <g id="line2d_6">
      <path clip-path="url(#p2255da4343)" d="M 84.55 627.451725 
L 1135.2 627.451725 
" style="fill:none;stroke:#cccccc;stroke-linecap:round;"/>
     </g>
     <g id="text_7">
      <!-- −15 -->
      <g style="fill:#262626;" transform="translate(37.7325 635.325319)scale(0.22 -0.22)">
       <use xlink:href="#ArialMT-8722"/>
       <use x="58.398438" xlink:href="#ArialMT-49"/>
       <use x="114.013672" xlink:href="#ArialMT-53"/>
      </g>
     </g>
    </g>
    <g id="ytick_2">
     <g id="line2d_7">
      <path clip-path="url(#p2255da4343)" d="M 84.55 543.038107 
L 1135.2 543.038107 
" style="fill:none;stroke:#cccccc;stroke-linecap:round;"/>
     </g>
     <g id="text_8">
      <!-- −10 -->
      <g style="fill:#262626;" transform="translate(37.7325 550.911701)scale(0.22 -0.22)">
       <use xlink:href="#ArialMT-8722"/>
       <use x="58.398438" xlink:href="#ArialMT-49"/>
       <use x="114.013672" xlink:href="#ArialMT-48"/>
      </g>
     </g>
    </g>
    <g id="ytick_3">
     <g id="line2d_8">
      <path clip-path="url(#p2255da4343)" d="M 84.55 458.62449 
L 1135.2 458.62449 
" style="fill:none;stroke:#cccccc;stroke-linecap:round;"/>
     </g>
     <g id="text_9">
      <!-- −5 -->
      <g style="fill:#262626;" transform="translate(49.966563 466.498084)scale(0.22 -0.22)">
       <use xlink:href="#ArialMT-8722"/>
       <use x="58.398438" xlink:href="#ArialMT-53"/>
      </g>
     </g>
    </g>
    <g id="ytick_4">
     <g id="line2d_9">
      <path clip-path="url(#p2255da4343)" d="M 84.55 374.210873 
L 1135.2 374.210873 
" style="fill:none;stroke:#cccccc;stroke-linecap:round;"/>
     </g>
     <g id="text_10">
      <!-- 0 -->
      <g style="fill:#262626;" transform="translate(62.815938 382.084466)scale(0.22 -0.22)">
       <use xlink:href="#ArialMT-48"/>
      </g>
     </g>
    </g>
    <g id="ytick_5">
     <g id="line2d_10">
      <path clip-path="url(#p2255da4343)" d="M 84.55 289.797255 
L 1135.2 289.797255 
" style="fill:none;stroke:#cccccc;stroke-linecap:round;"/>
     </g>
     <g id="text_11">
      <!-- 5 -->
      <g style="fill:#262626;" transform="translate(62.815938 297.670849)scale(0.22 -0.22)">
       <use xlink:href="#ArialMT-53"/>
      </g>
     </g>
    </g>
    <g id="ytick_6">
     <g id="line2d_11">
      <path clip-path="url(#p2255da4343)" d="M 84.55 205.383638 
L 1135.2 205.383638 
" style="fill:none;stroke:#cccccc;stroke-linecap:round;"/>
     </g>
     <g id="text_12">
      <!-- 10 -->
      <g style="fill:#262626;" transform="translate(50.581875 213.257231)scale(0.22 -0.22)">
       <use xlink:href="#ArialMT-49"/>
       <use x="55.615234" xlink:href="#ArialMT-48"/>
      </g>
     </g>
    </g>
    <g id="ytick_7">
     <g id="line2d_12">
      <path clip-path="url(#p2255da4343)" d="M 84.55 120.97002 
L 1135.2 120.97002 
" style="fill:none;stroke:#cccccc;stroke-linecap:round;"/>
     </g>
     <g id="text_13">
      <!-- 15 -->
      <g style="fill:#262626;" transform="translate(50.581875 128.843614)scale(0.22 -0.22)">
       <use xlink:href="#ArialMT-49"/>
       <use x="55.615234" xlink:href="#ArialMT-53"/>
      </g>
     </g>
    </g>
    <g id="ytick_8">
     <g id="line2d_13">
      <path clip-path="url(#p2255da4343)" d="M 84.55 36.556403 
L 1135.2 36.556403 
" style="fill:none;stroke:#cccccc;stroke-linecap:round;"/>
     </g>
     <g id="text_14">
      <!-- 20 -->
      <defs>
       <path d="M 50.34375 8.453125 
L 50.34375 0 
L 3.03125 0 
Q 2.9375 3.171875 4.046875 6.109375 
Q 5.859375 10.9375 9.828125 15.625 
Q 13.8125 20.3125 21.34375 26.46875 
Q 33.015625 36.03125 37.109375 41.625 
Q 41.21875 47.21875 41.21875 52.203125 
Q 41.21875 57.421875 37.46875 61 
Q 33.734375 64.59375 27.734375 64.59375 
Q 21.390625 64.59375 17.578125 60.78125 
Q 13.765625 56.984375 13.71875 50.25 
L 4.6875 51.171875 
Q 5.609375 61.28125 11.65625 66.578125 
Q 17.71875 71.875 27.9375 71.875 
Q 38.234375 71.875 44.234375 66.15625 
Q 50.25 60.453125 50.25 52 
Q 50.25 47.703125 48.484375 43.546875 
Q 46.734375 39.40625 42.65625 34.8125 
Q 38.578125 30.21875 29.109375 22.21875 
Q 21.1875 15.578125 18.9375 13.203125 
Q 16.703125 10.84375 15.234375 8.453125 
z
" id="ArialMT-50"/>
      </defs>
      <g style="fill:#262626;" transform="translate(50.581875 44.429996)scale(0.22 -0.22)">
       <use xlink:href="#ArialMT-50"/>
       <use x="55.615234" xlink:href="#ArialMT-48"/>
      </g>
     </g>
    </g>
    <g id="text_15">
     <!-- Predicted -->
     <defs>
      <path d="M 7.71875 0 
L 7.71875 71.578125 
L 34.71875 71.578125 
Q 41.84375 71.578125 45.609375 70.90625 
Q 50.875 70.015625 54.4375 67.546875 
Q 58.015625 65.09375 60.1875 60.640625 
Q 62.359375 56.203125 62.359375 50.875 
Q 62.359375 41.75 56.546875 35.421875 
Q 50.734375 29.109375 35.546875 29.109375 
L 17.1875 29.109375 
L 17.1875 0 
z
M 17.1875 37.546875 
L 35.6875 37.546875 
Q 44.875 37.546875 48.734375 40.96875 
Q 52.59375 44.390625 52.59375 50.59375 
Q 52.59375 55.078125 50.3125 58.265625 
Q 48.046875 61.46875 44.34375 62.5 
Q 41.9375 63.140625 35.5 63.140625 
L 17.1875 63.140625 
z
" id="ArialMT-80"/>
      <path d="M 40.234375 0 
L 40.234375 6.546875 
Q 35.296875 -1.171875 25.734375 -1.171875 
Q 19.53125 -1.171875 14.328125 2.25 
Q 9.125 5.671875 6.265625 11.796875 
Q 3.421875 17.921875 3.421875 25.875 
Q 3.421875 33.640625 6 39.96875 
Q 8.59375 46.296875 13.765625 49.65625 
Q 18.953125 53.03125 25.34375 53.03125 
Q 30.03125 53.03125 33.6875 51.046875 
Q 37.359375 49.078125 39.65625 45.90625 
L 39.65625 71.578125 
L 48.390625 71.578125 
L 48.390625 0 
z
M 12.453125 25.875 
Q 12.453125 15.921875 16.640625 10.984375 
Q 20.84375 6.0625 26.5625 6.0625 
Q 32.328125 6.0625 36.34375 10.765625 
Q 40.375 15.484375 40.375 25.140625 
Q 40.375 35.796875 36.265625 40.765625 
Q 32.171875 45.75 26.171875 45.75 
Q 20.3125 45.75 16.375 40.96875 
Q 12.453125 36.1875 12.453125 25.875 
z
" id="ArialMT-100"/>
      <path d="M 6.640625 61.46875 
L 6.640625 71.578125 
L 15.4375 71.578125 
L 15.4375 61.46875 
z
M 6.640625 0 
L 6.640625 51.859375 
L 15.4375 51.859375 
L 15.4375 0 
z
" id="ArialMT-105"/>
      <path d="M 40.4375 19 
L 49.078125 17.875 
Q 47.65625 8.9375 41.8125 3.875 
Q 35.984375 -1.171875 27.484375 -1.171875 
Q 16.84375 -1.171875 10.375 5.78125 
Q 3.90625 12.75 3.90625 25.734375 
Q 3.90625 34.125 6.6875 40.421875 
Q 9.46875 46.734375 15.15625 49.875 
Q 20.84375 53.03125 27.546875 53.03125 
Q 35.984375 53.03125 41.359375 48.75 
Q 46.734375 44.484375 48.25 36.625 
L 39.703125 35.296875 
Q 38.484375 40.53125 35.375 43.15625 
Q 32.28125 45.796875 27.875 45.796875 
Q 21.234375 45.796875 17.078125 41.03125 
Q 12.9375 36.28125 12.9375 25.984375 
Q 12.9375 15.53125 16.9375 10.796875 
Q 20.953125 6.0625 27.390625 6.0625 
Q 32.5625 6.0625 36.03125 9.234375 
Q 39.5 12.40625 40.4375 19 
z
" id="ArialMT-99"/>
      <path d="M 25.78125 7.859375 
L 27.046875 0.09375 
Q 23.34375 -0.6875 20.40625 -0.6875 
Q 15.625 -0.6875 12.984375 0.828125 
Q 10.359375 2.34375 9.28125 4.8125 
Q 8.203125 7.28125 8.203125 15.1875 
L 8.203125 45.015625 
L 1.765625 45.015625 
L 1.765625 51.859375 
L 8.203125 51.859375 
L 8.203125 64.703125 
L 16.9375 69.96875 
L 16.9375 51.859375 
L 25.78125 51.859375 
L 25.78125 45.015625 
L 16.9375 45.015625 
L 16.9375 14.703125 
Q 16.9375 10.9375 17.40625 9.859375 
Q 17.875 8.796875 18.921875 8.15625 
Q 19.96875 7.515625 21.921875 7.515625 
Q 23.390625 7.515625 25.78125 7.859375 
z
" id="ArialMT-116"/>
     </defs>
     <g style="fill:#262626;" transform="translate(28.9625 385.4425)rotate(-90)scale(0.24 -0.24)">
      <use xlink:href="#ArialMT-80"/>
      <use x="66.699219" xlink:href="#ArialMT-114"/>
      <use x="100" xlink:href="#ArialMT-101"/>
      <use x="155.615234" xlink:href="#ArialMT-100"/>
      <use x="211.230469" xlink:href="#ArialMT-105"/>
      <use x="233.447266" xlink:href="#ArialMT-99"/>
      <use x="283.447266" xlink:href="#ArialMT-116"/>
      <use x="311.230469" xlink:href="#ArialMT-101"/>
      <use x="366.845703" xlink:href="#ArialMT-100"/>
     </g>
    </g>
   </g>
   <g id="LineCollection_1">
    <path clip-path="url(#p2255da4343)" d="M 841.174877 517.882189 
L 841.174877 252.099977 
" style="fill:none;stroke:#8172b3;stroke-width:0.5;"/>
    <path clip-path="url(#p2255da4343)" d="M 633.362849 490.517798 
L 633.362849 210.346814 
" style="fill:none;stroke:#8172b3;stroke-width:0.5;"/>
    <path clip-path="url(#p2255da4343)" d="M 449.776812 533.502858 
L 449.776812 276.010636 
" style="fill:none;stroke:#8172b3;stroke-width:0.5;"/>
    <path clip-path="url(#p2255da4343)" d="M 860.048109 503.747655 
L 860.048109 206.897727 
" style="fill:none;stroke:#8172b3;stroke-width:0.5;"/>
    <path clip-path="url(#p2255da4343)" d="M 1094.576617 588.155964 
L 1094.576617 285.133047 
" style="fill:none;stroke:#8172b3;stroke-width:0.5;"/>
    <path clip-path="url(#p2255da4343)" d="M 280.5301 623.795455 
L 280.5301 310.921101 
" style="fill:none;stroke:#8172b3;stroke-width:0.5;"/>
    <path clip-path="url(#p2255da4343)" d="M 784.581363 507.803991 
L 784.581363 231.603419 
" style="fill:none;stroke:#8172b3;stroke-width:0.5;"/>
    <path clip-path="url(#p2255da4343)" d="M 362.995811 488.144165 
L 362.995811 202.534641 
" style="fill:none;stroke:#8172b3;stroke-width:0.5;"/>
    <path clip-path="url(#p2255da4343)" d="M 168.008158 507.930635 
L 168.008158 248.643779 
" style="fill:none;stroke:#8172b3;stroke-width:0.5;"/>
    <path clip-path="url(#p2255da4343)" d="M 508.356953 500.755615 
L 508.356953 238.723634 
" style="fill:none;stroke:#8172b3;stroke-width:0.5;"/>
    <path clip-path="url(#p2255da4343)" d="M 581.780627 512.982381 
L 581.780627 253.335993 
" style="fill:none;stroke:#8172b3;stroke-width:0.5;"/>
    <path clip-path="url(#p2255da4343)" d="M 117.137535 546.622625 
L 117.137535 257.865847 
" style="fill:none;stroke:#8172b3;stroke-width:0.5;"/>
    <path clip-path="url(#p2255da4343)" d="M 510.122909 446.95834 
L 510.122909 167.424578 
" style="fill:none;stroke:#8172b3;stroke-width:0.5;"/>
    <path clip-path="url(#p2255da4343)" d="M 590.894266 428.471112 
L 590.894266 145.457735 
" style="fill:none;stroke:#8172b3;stroke-width:0.5;"/>
    <path clip-path="url(#p2255da4343)" d="M 594.256175 562.677381 
L 594.256175 210.094913 
" style="fill:none;stroke:#8172b3;stroke-width:0.5;"/>
    <path clip-path="url(#p2255da4343)" d="M 504.947982 579.259055 
L 504.947982 280.328636 
" style="fill:none;stroke:#8172b3;stroke-width:0.5;"/>
    <path clip-path="url(#p2255da4343)" d="M 692.780361 480.358463 
L 692.780361 217.248439 
" style="fill:none;stroke:#8172b3;stroke-width:0.5;"/>
    <path clip-path="url(#p2255da4343)" d="M 813.688301 481.489825 
L 813.688301 202.719731 
" style="fill:none;stroke:#8172b3;stroke-width:0.5;"/>
    <path clip-path="url(#p2255da4343)" d="M 154.140232 576.320242 
L 154.140232 313.206627 
" style="fill:none;stroke:#8172b3;stroke-width:0.5;"/>
    <path clip-path="url(#p2255da4343)" d="M 427.036259 523.135449 
L 427.036259 245.407674 
" style="fill:none;stroke:#8172b3;stroke-width:0.5;"/>
    <path clip-path="url(#p2255da4343)" d="M 579.654302 500.358573 
L 579.654302 248.543145 
" style="fill:none;stroke:#8172b3;stroke-width:0.5;"/>
    <path clip-path="url(#p2255da4343)" d="M 694.978443 454.517325 
L 694.978443 154.305196 
" style="fill:none;stroke:#8172b3;stroke-width:0.5;"/>
    <path clip-path="url(#p2255da4343)" d="M 777.511178 536.39968 
L 777.511178 260.694283 
" style="fill:none;stroke:#8172b3;stroke-width:0.5;"/>
    <path clip-path="url(#p2255da4343)" d="M 444.645678 558.609654 
L 444.645678 260.116587 
" style="fill:none;stroke:#8172b3;stroke-width:0.5;"/>
    <path clip-path="url(#p2255da4343)" d="M 867.470042 527.7137 
L 867.470042 261.978903 
" style="fill:none;stroke:#8172b3;stroke-width:0.5;"/>
    <path clip-path="url(#p2255da4343)" d="M 96.413315 585.812089 
L 96.413315 286.000675 
" style="fill:none;stroke:#8172b3;stroke-width:0.5;"/>
    <path clip-path="url(#p2255da4343)" d="M 792.415679 503.985035 
L 792.415679 236.732653 
" style="fill:none;stroke:#8172b3;stroke-width:0.5;"/>
    <path clip-path="url(#p2255da4343)" d="M 622.079516 478.356619 
L 622.079516 199.027124 
" style="fill:none;stroke:#8172b3;stroke-width:0.5;"/>
    <path clip-path="url(#p2255da4343)" d="M 461.784181 425.391863 
L 461.784181 160.727204 
" style="fill:none;stroke:#8172b3;stroke-width:0.5;"/>
    <path clip-path="url(#p2255da4343)" d="M 313.864332 472.03658 
L 313.864332 213.528383 
" style="fill:none;stroke:#8172b3;stroke-width:0.5;"/>
    <path clip-path="url(#p2255da4343)" d="M 437.630075 535.320328 
L 437.630075 250.033737 
" style="fill:none;stroke:#8172b3;stroke-width:0.5;"/>
    <path clip-path="url(#p2255da4343)" d="M 536.024317 577.710036 
L 536.024317 253.611974 
" style="fill:none;stroke:#8172b3;stroke-width:0.5;"/>
   </g>
   <g id="LineCollection_2">
    <path clip-path="url(#p2255da4343)" d="M 425.167782 494.622195 
L 425.167782 240.950931 
" style="fill:none;stroke:#64b5cd;stroke-width:0.5;"/>
    <path clip-path="url(#p2255da4343)" d="M 403.39331 511.757422 
L 403.39331 259.140476 
" style="fill:none;stroke:#64b5cd;stroke-width:0.5;"/>
    <path clip-path="url(#p2255da4343)" d="M 453.322876 506.758502 
L 453.322876 260.664595 
" style="fill:none;stroke:#64b5cd;stroke-width:0.5;"/>
    <path clip-path="url(#p2255da4343)" d="M 590.10285 487.054241 
L 590.10285 239.846521 
" style="fill:none;stroke:#64b5cd;stroke-width:0.5;"/>
    <path clip-path="url(#p2255da4343)" d="M 100.077823 620.653056 
L 100.077823 354.415922 
" style="fill:none;stroke:#64b5cd;stroke-width:0.5;"/>
    <path clip-path="url(#p2255da4343)" d="M 377.160631 497.060836 
L 377.160631 243.330046 
" style="fill:none;stroke:#64b5cd;stroke-width:0.5;"/>
    <path clip-path="url(#p2255da4343)" d="M 516.345189 515.762098 
L 516.345189 248.274275 
" style="fill:none;stroke:#64b5cd;stroke-width:0.5;"/>
    <path clip-path="url(#p2255da4343)" d="M 599.027811 502.258788 
L 599.027811 239.584314 
" style="fill:none;stroke:#64b5cd;stroke-width:0.5;"/>
    <path clip-path="url(#p2255da4343)" d="M 674.969251 425.486022 
L 674.969251 170.036039 
" style="fill:none;stroke:#64b5cd;stroke-width:0.5;"/>
    <path clip-path="url(#p2255da4343)" d="M 430.143117 519.677494 
L 430.143117 276.633535 
" style="fill:none;stroke:#64b5cd;stroke-width:0.5;"/>
    <path clip-path="url(#p2255da4343)" d="M 293.238328 556.678856 
L 293.238328 299.73559 
" style="fill:none;stroke:#64b5cd;stroke-width:0.5;"/>
    <path clip-path="url(#p2255da4343)" d="M 636.974971 461.658065 
L 636.974971 212.281626 
" style="fill:none;stroke:#64b5cd;stroke-width:0.5;"/>
    <path clip-path="url(#p2255da4343)" d="M 249.45242 533.403785 
L 249.45242 278.170145 
" style="fill:none;stroke:#64b5cd;stroke-width:0.5;"/>
    <path clip-path="url(#p2255da4343)" d="M 482.51035 488.500339 
L 482.51035 235.759746 
" style="fill:none;stroke:#64b5cd;stroke-width:0.5;"/>
    <path clip-path="url(#p2255da4343)" d="M 637.475999 452.694131 
L 637.475999 201.390177 
" style="fill:none;stroke:#64b5cd;stroke-width:0.5;"/>
    <path clip-path="url(#p2255da4343)" d="M 447.046968 515.112434 
L 447.046968 262.534108 
" style="fill:none;stroke:#64b5cd;stroke-width:0.5;"/>
    <path clip-path="url(#p2255da4343)" d="M 1135.2 309.712859 
L 1135.2 45.704545 
" style="fill:none;stroke:#64b5cd;stroke-width:0.5;"/>
    <path clip-path="url(#p2255da4343)" d="M 248.170921 545.988139 
L 248.170921 299.70771 
" style="fill:none;stroke:#64b5cd;stroke-width:0.5;"/>
    <path clip-path="url(#p2255da4343)" d="M 558.600924 445.837915 
L 558.600924 198.264297 
" style="fill:none;stroke:#64b5cd;stroke-width:0.5;"/>
    <path clip-path="url(#p2255da4343)" d="M 728.647372 455.919712 
L 728.647372 205.381065 
" style="fill:none;stroke:#64b5cd;stroke-width:0.5;"/>
    <path clip-path="url(#p2255da4343)" d="M 542.721106 485.973733 
L 542.721106 221.438003 
" style="fill:none;stroke:#64b5cd;stroke-width:0.5;"/>
    <path clip-path="url(#p2255da4343)" d="M 506.837114 485.028174 
L 506.837114 232.909959 
" style="fill:none;stroke:#64b5cd;stroke-width:0.5;"/>
    <path clip-path="url(#p2255da4343)" d="M 700.434836 433.48735 
L 700.434836 170.477205 
" style="fill:none;stroke:#64b5cd;stroke-width:0.5;"/>
    <path clip-path="url(#p2255da4343)" d="M 857.171759 406.315097 
L 857.171759 141.379479 
" style="fill:none;stroke:#64b5cd;stroke-width:0.5;"/>
    <path clip-path="url(#p2255da4343)" d="M 469.779201 518.144374 
L 469.779201 272.772535 
" style="fill:none;stroke:#64b5cd;stroke-width:0.5;"/>
    <path clip-path="url(#p2255da4343)" d="M 480.428041 512.454502 
L 480.428041 260.073793 
" style="fill:none;stroke:#64b5cd;stroke-width:0.5;"/>
    <path clip-path="url(#p2255da4343)" d="M 751.628318 428.839233 
L 751.628318 178.085854 
" style="fill:none;stroke:#64b5cd;stroke-width:0.5;"/>
    <path clip-path="url(#p2255da4343)" d="M 389.578855 522.426785 
L 389.578855 258.058263 
" style="fill:none;stroke:#64b5cd;stroke-width:0.5;"/>
    <path clip-path="url(#p2255da4343)" d="M 469.81175 509.052905 
L 469.81175 252.859902 
" style="fill:none;stroke:#64b5cd;stroke-width:0.5;"/>
    <path clip-path="url(#p2255da4343)" d="M 351.835709 533.231684 
L 351.835709 265.912935 
" style="fill:none;stroke:#64b5cd;stroke-width:0.5;"/>
    <path clip-path="url(#p2255da4343)" d="M 424.01231 547.538539 
L 424.01231 303.666351 
" style="fill:none;stroke:#64b5cd;stroke-width:0.5;"/>
    <path clip-path="url(#p2255da4343)" d="M 261.179408 556.540201 
L 261.179408 293.354918 
" style="fill:none;stroke:#64b5cd;stroke-width:0.5;"/>
    <path clip-path="url(#p2255da4343)" d="M 503.305645 523.535723 
L 503.305645 250.612483 
" style="fill:none;stroke:#64b5cd;stroke-width:0.5;"/>
    <path clip-path="url(#p2255da4343)" d="M 114.918962 555.179175 
L 114.918962 301.779978 
" style="fill:none;stroke:#64b5cd;stroke-width:0.5;"/>
    <path clip-path="url(#p2255da4343)" d="M 113.694539 574.636166 
L 113.694539 318.172452 
" style="fill:none;stroke:#64b5cd;stroke-width:0.5;"/>
    <path clip-path="url(#p2255da4343)" d="M 741.397165 428.422291 
L 741.397165 179.596889 
" style="fill:none;stroke:#64b5cd;stroke-width:0.5;"/>
    <path clip-path="url(#p2255da4343)" d="M 636.903575 478.738621 
L 636.903575 219.415381 
" style="fill:none;stroke:#64b5cd;stroke-width:0.5;"/>
    <path clip-path="url(#p2255da4343)" d="M 467.832822 503.14752 
L 467.832822 244.795443 
" style="fill:none;stroke:#64b5cd;stroke-width:0.5;"/>
    <path clip-path="url(#p2255da4343)" d="M 417.262658 516.4545 
L 417.262658 265.121427 
" style="fill:none;stroke:#64b5cd;stroke-width:0.5;"/>
    <path clip-path="url(#p2255da4343)" d="M 485.649314 477.113554 
L 485.649314 233.924074 
" style="fill:none;stroke:#64b5cd;stroke-width:0.5;"/>
    <path clip-path="url(#p2255da4343)" d="M 629.048687 457.692858 
L 629.048687 196.735268 
" style="fill:none;stroke:#64b5cd;stroke-width:0.5;"/>
    <path clip-path="url(#p2255da4343)" d="M 485.224925 514.356538 
L 485.224925 257.548138 
" style="fill:none;stroke:#64b5cd;stroke-width:0.5;"/>
    <path clip-path="url(#p2255da4343)" d="M 399.602526 520.322944 
L 399.602526 272.820641 
" style="fill:none;stroke:#64b5cd;stroke-width:0.5;"/>
    <path clip-path="url(#p2255da4343)" d="M 397.029576 533.488899 
L 397.029576 274.984237 
" style="fill:none;stroke:#64b5cd;stroke-width:0.5;"/>
    <path clip-path="url(#p2255da4343)" d="M 453.753086 479.030654 
L 453.753086 230.584358 
" style="fill:none;stroke:#64b5cd;stroke-width:0.5;"/>
    <path clip-path="url(#p2255da4343)" d="M 714.725677 441.019318 
L 714.725677 185.280734 
" style="fill:none;stroke:#64b5cd;stroke-width:0.5;"/>
    <path clip-path="url(#p2255da4343)" d="M 565.278864 494.766124 
L 565.278864 230.355727 
" style="fill:none;stroke:#64b5cd;stroke-width:0.5;"/>
    <path clip-path="url(#p2255da4343)" d="M 447.322132 512.63078 
L 447.322132 256.187001 
" style="fill:none;stroke:#64b5cd;stroke-width:0.5;"/>
    <path clip-path="url(#p2255da4343)" d="M 410.552353 502.716169 
L 410.552353 243.998917 
" style="fill:none;stroke:#64b5cd;stroke-width:0.5;"/>
    <path clip-path="url(#p2255da4343)" d="M 95.117298 602.607491 
L 95.117298 342.442199 
" style="fill:none;stroke:#64b5cd;stroke-width:0.5;"/>
    <path clip-path="url(#p2255da4343)" d="M 338.165335 519.750685 
L 338.165335 269.747322 
" style="fill:none;stroke:#64b5cd;stroke-width:0.5;"/>
    <path clip-path="url(#p2255da4343)" d="M 540.743496 477.396891 
L 540.743496 217.613961 
" style="fill:none;stroke:#64b5cd;stroke-width:0.5;"/>
    <path clip-path="url(#p2255da4343)" d="M 670.417875 439.521109 
L 670.417875 190.585724 
" style="fill:none;stroke:#64b5cd;stroke-width:0.5;"/>
    <path clip-path="url(#p2255da4343)" d="M 631.174134 420.776048 
L 631.174134 160.453445 
" style="fill:none;stroke:#64b5cd;stroke-width:0.5;"/>
    <path clip-path="url(#p2255da4343)" d="M 329.286804 504.91018 
L 329.286804 254.115337 
" style="fill:none;stroke:#64b5cd;stroke-width:0.5;"/>
    <path clip-path="url(#p2255da4343)" d="M 244.504332 570.270664 
L 244.504332 306.866797 
" style="fill:none;stroke:#64b5cd;stroke-width:0.5;"/>
    <path clip-path="url(#p2255da4343)" d="M 747.007902 407.296644 
L 747.007902 150.149287 
" style="fill:none;stroke:#64b5cd;stroke-width:0.5;"/>
    <path clip-path="url(#p2255da4343)" d="M 381.421588 554.817362 
L 381.421588 298.99244 
" style="fill:none;stroke:#64b5cd;stroke-width:0.5;"/>
    <path clip-path="url(#p2255da4343)" d="M 638.544816 461.408311 
L 638.544816 208.914044 
" style="fill:none;stroke:#64b5cd;stroke-width:0.5;"/>
    <path clip-path="url(#p2255da4343)" d="M 398.507607 492.106382 
L 398.507607 242.898975 
" style="fill:none;stroke:#64b5cd;stroke-width:0.5;"/>
    <path clip-path="url(#p2255da4343)" d="M 222.927525 557.989662 
L 222.927525 297.168259 
" style="fill:none;stroke:#64b5cd;stroke-width:0.5;"/>
    <path clip-path="url(#p2255da4343)" d="M 242.525104 587.622854 
L 242.525104 329.590491 
" style="fill:none;stroke:#64b5cd;stroke-width:0.5;"/>
    <path clip-path="url(#p2255da4343)" d="M 379.657744 515.339423 
L 379.657744 258.464875 
" style="fill:none;stroke:#64b5cd;stroke-width:0.5;"/>
    <path clip-path="url(#p2255da4343)" d="M 563.997245 487.089863 
L 563.997245 218.680513 
" style="fill:none;stroke:#64b5cd;stroke-width:0.5;"/>
    <path clip-path="url(#p2255da4343)" d="M 374.196887 526.768706 
L 374.196887 258.532545 
" style="fill:none;stroke:#64b5cd;stroke-width:0.5;"/>
    <path clip-path="url(#p2255da4343)" d="M 513.784211 530.950632 
L 513.784211 282.424075 
" style="fill:none;stroke:#64b5cd;stroke-width:0.5;"/>
    <path clip-path="url(#p2255da4343)" d="M 439.876938 529.151573 
L 439.876938 259.01636 
" style="fill:none;stroke:#64b5cd;stroke-width:0.5;"/>
    <path clip-path="url(#p2255da4343)" d="M 293.646253 538.229295 
L 293.646253 290.532374 
" style="fill:none;stroke:#64b5cd;stroke-width:0.5;"/>
    <path clip-path="url(#p2255da4343)" d="M 614.308645 455.291276 
L 614.308645 211.618163 
" style="fill:none;stroke:#64b5cd;stroke-width:0.5;"/>
    <path clip-path="url(#p2255da4343)" d="M 301.426286 521.012047 
L 301.426286 271.940754 
" style="fill:none;stroke:#64b5cd;stroke-width:0.5;"/>
    <path clip-path="url(#p2255da4343)" d="M 531.741291 478.433751 
L 531.741291 224.044565 
" style="fill:none;stroke:#64b5cd;stroke-width:0.5;"/>
    <path clip-path="url(#p2255da4343)" d="M 380.281417 505.80422 
L 380.281417 246.122599 
" style="fill:none;stroke:#64b5cd;stroke-width:0.5;"/>
    <path clip-path="url(#p2255da4343)" d="M 561.305623 454.779799 
L 561.305623 209.602871 
" style="fill:none;stroke:#64b5cd;stroke-width:0.5;"/>
    <path clip-path="url(#p2255da4343)" d="M 498.27784 540.254617 
L 498.27784 287.823045 
" style="fill:none;stroke:#64b5cd;stroke-width:0.5;"/>
    <path clip-path="url(#p2255da4343)" d="M 232.707149 578.852982 
L 232.707149 316.304708 
" style="fill:none;stroke:#64b5cd;stroke-width:0.5;"/>
    <path clip-path="url(#p2255da4343)" d="M 189.271031 573.053395 
L 189.271031 307.995386 
" style="fill:none;stroke:#64b5cd;stroke-width:0.5;"/>
    <path clip-path="url(#p2255da4343)" d="M 84.55 542.268065 
L 84.55 295.874428 
" style="fill:none;stroke:#64b5cd;stroke-width:0.5;"/>
    <path clip-path="url(#p2255da4343)" d="M 401.577574 461.135908 
L 401.577574 222.733885 
" style="fill:none;stroke:#64b5cd;stroke-width:0.5;"/>
    <path clip-path="url(#p2255da4343)" d="M 412.812651 510.436998 
L 412.812651 254.391826 
" style="fill:none;stroke:#64b5cd;stroke-width:0.5;"/>
    <path clip-path="url(#p2255da4343)" d="M 654.744642 431.285996 
L 654.744642 169.141268 
" style="fill:none;stroke:#64b5cd;stroke-width:0.5;"/>
    <path clip-path="url(#p2255da4343)" d="M 249.086888 550.935462 
L 249.086888 299.331739 
" style="fill:none;stroke:#64b5cd;stroke-width:0.5;"/>
    <path clip-path="url(#p2255da4343)" d="M 467.13732 518.110474 
L 467.13732 261.465994 
" style="fill:none;stroke:#64b5cd;stroke-width:0.5;"/>
    <path clip-path="url(#p2255da4343)" d="M 631.082033 452.700877 
L 631.082033 189.482424 
" style="fill:none;stroke:#64b5cd;stroke-width:0.5;"/>
    <path clip-path="url(#p2255da4343)" d="M 654.465065 436.332708 
L 654.465065 183.254482 
" style="fill:none;stroke:#64b5cd;stroke-width:0.5;"/>
    <path clip-path="url(#p2255da4343)" d="M 320.99909 535.204738 
L 320.99909 292.03129 
" style="fill:none;stroke:#64b5cd;stroke-width:0.5;"/>
    <path clip-path="url(#p2255da4343)" d="M 322.328966 474.307771 
L 322.328966 225.463569 
" style="fill:none;stroke:#64b5cd;stroke-width:0.5;"/>
    <path clip-path="url(#p2255da4343)" d="M 380.80652 565.781223 
L 380.80652 315.533204 
" style="fill:none;stroke:#64b5cd;stroke-width:0.5;"/>
    <path clip-path="url(#p2255da4343)" d="M 291.020695 553.471564 
L 291.020695 293.097454 
" style="fill:none;stroke:#64b5cd;stroke-width:0.5;"/>
    <path clip-path="url(#p2255da4343)" d="M 651.922197 460.37019 
L 651.922197 205.608863 
" style="fill:none;stroke:#64b5cd;stroke-width:0.5;"/>
    <path clip-path="url(#p2255da4343)" d="M 446.166724 499.314133 
L 446.166724 245.591534 
" style="fill:none;stroke:#64b5cd;stroke-width:0.5;"/>
    <path clip-path="url(#p2255da4343)" d="M 669.895177 461.045509 
L 669.895177 218.49212 
" style="fill:none;stroke:#64b5cd;stroke-width:0.5;"/>
    <path clip-path="url(#p2255da4343)" d="M 270.001963 511.12421 
L 270.001963 262.642984 
" style="fill:none;stroke:#64b5cd;stroke-width:0.5;"/>
    <path clip-path="url(#p2255da4343)" d="M 390.342822 511.104686 
L 390.342822 263.245409 
" style="fill:none;stroke:#64b5cd;stroke-width:0.5;"/>
    <path clip-path="url(#p2255da4343)" d="M 317.92847 539.273189 
L 317.92847 283.603492 
" style="fill:none;stroke:#64b5cd;stroke-width:0.5;"/>
    <path clip-path="url(#p2255da4343)" d="M 405.057505 495.613602 
L 405.057505 252.169762 
" style="fill:none;stroke:#64b5cd;stroke-width:0.5;"/>
    <path clip-path="url(#p2255da4343)" d="M 198.81121 561.268462 
L 198.81121 307.363212 
" style="fill:none;stroke:#64b5cd;stroke-width:0.5;"/>
   </g>
   <g id="line2d_14">
    <path clip-path="url(#p2255da4343)" d="M 84.55 535.041166 
L 1135.2 79.818448 
" style="fill:none;stroke:#c44e52;stroke-linecap:round;stroke-width:1.5;"/>
   </g>
   <g id="line2d_15">
    <defs>
     <path d="M 0 3 
C 0.795609 3 1.55874 2.683901 2.12132 2.12132 
C 2.683901 1.55874 3 0.795609 3 0 
C 3 -0.795609 2.683901 -1.55874 2.12132 -2.12132 
C 1.55874 -2.683901 0.795609 -3 0 -3 
C -0.795609 -3 -1.55874 -2.683901 -2.12132 -2.12132 
C -2.683901 -1.55874 -3 -0.795609 -3 0 
C -3 0.795609 -2.683901 1.55874 -2.12132 2.12132 
C -1.55874 2.683901 -0.795609 3 0 3 
z
" id="m1656bc26ac" style="stroke:#8172b3;"/>
    </defs>
    <g clip-path="url(#p2255da4343)">
     <use style="fill:#8172b3;stroke:#8172b3;" x="841.174877" xlink:href="#m1656bc26ac" y="384.991083"/>
     <use style="fill:#8172b3;stroke:#8172b3;" x="633.362849" xlink:href="#m1656bc26ac" y="350.432306"/>
     <use style="fill:#8172b3;stroke:#8172b3;" x="449.776812" xlink:href="#m1656bc26ac" y="404.756747"/>
     <use style="fill:#8172b3;stroke:#8172b3;" x="860.048109" xlink:href="#m1656bc26ac" y="355.322691"/>
     <use style="fill:#8172b3;stroke:#8172b3;" x="1094.576617" xlink:href="#m1656bc26ac" y="436.644505"/>
     <use style="fill:#8172b3;stroke:#8172b3;" x="280.5301" xlink:href="#m1656bc26ac" y="467.358278"/>
     <use style="fill:#8172b3;stroke:#8172b3;" x="784.581363" xlink:href="#m1656bc26ac" y="369.703705"/>
     <use style="fill:#8172b3;stroke:#8172b3;" x="362.995811" xlink:href="#m1656bc26ac" y="345.339403"/>
     <use style="fill:#8172b3;stroke:#8172b3;" x="168.008158" xlink:href="#m1656bc26ac" y="378.287207"/>
     <use style="fill:#8172b3;stroke:#8172b3;" x="508.356953" xlink:href="#m1656bc26ac" y="369.739624"/>
     <use style="fill:#8172b3;stroke:#8172b3;" x="581.780627" xlink:href="#m1656bc26ac" y="383.159187"/>
     <use style="fill:#8172b3;stroke:#8172b3;" x="117.137535" xlink:href="#m1656bc26ac" y="402.244236"/>
     <use style="fill:#8172b3;stroke:#8172b3;" x="510.122909" xlink:href="#m1656bc26ac" y="307.191459"/>
     <use style="fill:#8172b3;stroke:#8172b3;" x="590.894266" xlink:href="#m1656bc26ac" y="286.964423"/>
     <use style="fill:#8172b3;stroke:#8172b3;" x="594.256175" xlink:href="#m1656bc26ac" y="386.386147"/>
     <use style="fill:#8172b3;stroke:#8172b3;" x="504.947982" xlink:href="#m1656bc26ac" y="429.793846"/>
     <use style="fill:#8172b3;stroke:#8172b3;" x="692.780361" xlink:href="#m1656bc26ac" y="348.803451"/>
     <use style="fill:#8172b3;stroke:#8172b3;" x="813.688301" xlink:href="#m1656bc26ac" y="342.104778"/>
     <use style="fill:#8172b3;stroke:#8172b3;" x="154.140232" xlink:href="#m1656bc26ac" y="444.763435"/>
     <use style="fill:#8172b3;stroke:#8172b3;" x="427.036259" xlink:href="#m1656bc26ac" y="384.271561"/>
     <use style="fill:#8172b3;stroke:#8172b3;" x="579.654302" xlink:href="#m1656bc26ac" y="374.450859"/>
     <use style="fill:#8172b3;stroke:#8172b3;" x="694.978443" xlink:href="#m1656bc26ac" y="304.411261"/>
     <use style="fill:#8172b3;stroke:#8172b3;" x="777.511178" xlink:href="#m1656bc26ac" y="398.546981"/>
     <use style="fill:#8172b3;stroke:#8172b3;" x="444.645678" xlink:href="#m1656bc26ac" y="409.36312"/>
     <use style="fill:#8172b3;stroke:#8172b3;" x="867.470042" xlink:href="#m1656bc26ac" y="394.846302"/>
     <use style="fill:#8172b3;stroke:#8172b3;" x="96.413315" xlink:href="#m1656bc26ac" y="435.906382"/>
     <use style="fill:#8172b3;stroke:#8172b3;" x="792.415679" xlink:href="#m1656bc26ac" y="370.358844"/>
     <use style="fill:#8172b3;stroke:#8172b3;" x="622.079516" xlink:href="#m1656bc26ac" y="338.691872"/>
     <use style="fill:#8172b3;stroke:#8172b3;" x="461.784181" xlink:href="#m1656bc26ac" y="293.059533"/>
     <use style="fill:#8172b3;stroke:#8172b3;" x="313.864332" xlink:href="#m1656bc26ac" y="342.782482"/>
     <use style="fill:#8172b3;stroke:#8172b3;" x="437.630075" xlink:href="#m1656bc26ac" y="392.677033"/>
     <use style="fill:#8172b3;stroke:#8172b3;" x="536.024317" xlink:href="#m1656bc26ac" y="415.661005"/>
    </g>
   </g>
   <g id="line2d_16">
    <defs>
     <path d="M 0 3 
C 0.795609 3 1.55874 2.683901 2.12132 2.12132 
C 2.683901 1.55874 3 0.795609 3 0 
C 3 -0.795609 2.683901 -1.55874 2.12132 -2.12132 
C 1.55874 -2.683901 0.795609 -3 0 -3 
C -0.795609 -3 -1.55874 -2.683901 -2.12132 -2.12132 
C -2.683901 -1.55874 -3 -0.795609 -3 0 
C -3 0.795609 -2.683901 1.55874 -2.12132 2.12132 
C -1.55874 2.683901 -0.795609 3 0 3 
z
" id="mef854ee11f" style="stroke:#64b5cd;"/>
    </defs>
    <g clip-path="url(#p2255da4343)">
     <use style="fill:#64b5cd;stroke:#64b5cd;" x="425.167782" xlink:href="#mef854ee11f" y="367.786563"/>
     <use style="fill:#64b5cd;stroke:#64b5cd;" x="403.39331" xlink:href="#mef854ee11f" y="385.448949"/>
     <use style="fill:#64b5cd;stroke:#64b5cd;" x="453.322876" xlink:href="#mef854ee11f" y="383.711548"/>
     <use style="fill:#64b5cd;stroke:#64b5cd;" x="590.10285" xlink:href="#mef854ee11f" y="363.450381"/>
     <use style="fill:#64b5cd;stroke:#64b5cd;" x="100.077823" xlink:href="#mef854ee11f" y="487.534489"/>
     <use style="fill:#64b5cd;stroke:#64b5cd;" x="377.160631" xlink:href="#mef854ee11f" y="370.195441"/>
     <use style="fill:#64b5cd;stroke:#64b5cd;" x="516.345189" xlink:href="#mef854ee11f" y="382.018187"/>
     <use style="fill:#64b5cd;stroke:#64b5cd;" x="599.027811" xlink:href="#mef854ee11f" y="370.921551"/>
     <use style="fill:#64b5cd;stroke:#64b5cd;" x="674.969251" xlink:href="#mef854ee11f" y="297.761031"/>
     <use style="fill:#64b5cd;stroke:#64b5cd;" x="430.143117" xlink:href="#mef854ee11f" y="398.155515"/>
     <use style="fill:#64b5cd;stroke:#64b5cd;" x="293.238328" xlink:href="#mef854ee11f" y="428.207223"/>
     <use style="fill:#64b5cd;stroke:#64b5cd;" x="636.974971" xlink:href="#mef854ee11f" y="336.969845"/>
     <use style="fill:#64b5cd;stroke:#64b5cd;" x="249.45242" xlink:href="#mef854ee11f" y="405.786965"/>
     <use style="fill:#64b5cd;stroke:#64b5cd;" x="482.51035" xlink:href="#mef854ee11f" y="362.130043"/>
     <use style="fill:#64b5cd;stroke:#64b5cd;" x="637.475999" xlink:href="#mef854ee11f" y="327.042154"/>
     <use style="fill:#64b5cd;stroke:#64b5cd;" x="447.046968" xlink:href="#mef854ee11f" y="388.823271"/>
     <use style="fill:#64b5cd;stroke:#64b5cd;" x="1135.2" xlink:href="#mef854ee11f" y="177.708702"/>
     <use style="fill:#64b5cd;stroke:#64b5cd;" x="248.170921" xlink:href="#mef854ee11f" y="422.847924"/>
     <use style="fill:#64b5cd;stroke:#64b5cd;" x="558.600924" xlink:href="#mef854ee11f" y="322.051106"/>
     <use style="fill:#64b5cd;stroke:#64b5cd;" x="728.647372" xlink:href="#mef854ee11f" y="330.650388"/>
     <use style="fill:#64b5cd;stroke:#64b5cd;" x="542.721106" xlink:href="#mef854ee11f" y="353.705868"/>
     <use style="fill:#64b5cd;stroke:#64b5cd;" x="506.837114" xlink:href="#mef854ee11f" y="358.969066"/>
     <use style="fill:#64b5cd;stroke:#64b5cd;" x="700.434836" xlink:href="#mef854ee11f" y="301.982277"/>
     <use style="fill:#64b5cd;stroke:#64b5cd;" x="857.171759" xlink:href="#mef854ee11f" y="273.847288"/>
     <use style="fill:#64b5cd;stroke:#64b5cd;" x="469.779201" xlink:href="#mef854ee11f" y="395.458454"/>
     <use style="fill:#64b5cd;stroke:#64b5cd;" x="480.428041" xlink:href="#mef854ee11f" y="386.264147"/>
     <use style="fill:#64b5cd;stroke:#64b5cd;" x="751.628318" xlink:href="#mef854ee11f" y="303.462544"/>
     <use style="fill:#64b5cd;stroke:#64b5cd;" x="389.578855" xlink:href="#mef854ee11f" y="390.242524"/>
     <use style="fill:#64b5cd;stroke:#64b5cd;" x="469.81175" xlink:href="#mef854ee11f" y="380.956403"/>
     <use style="fill:#64b5cd;stroke:#64b5cd;" x="351.835709" xlink:href="#mef854ee11f" y="399.572309"/>
     <use style="fill:#64b5cd;stroke:#64b5cd;" x="424.01231" xlink:href="#mef854ee11f" y="425.602445"/>
     <use style="fill:#64b5cd;stroke:#64b5cd;" x="261.179408" xlink:href="#mef854ee11f" y="424.94756"/>
     <use style="fill:#64b5cd;stroke:#64b5cd;" x="503.305645" xlink:href="#mef854ee11f" y="387.074103"/>
     <use style="fill:#64b5cd;stroke:#64b5cd;" x="114.918962" xlink:href="#mef854ee11f" y="428.479576"/>
     <use style="fill:#64b5cd;stroke:#64b5cd;" x="113.694539" xlink:href="#mef854ee11f" y="446.404309"/>
     <use style="fill:#64b5cd;stroke:#64b5cd;" x="741.397165" xlink:href="#mef854ee11f" y="304.00959"/>
     <use style="fill:#64b5cd;stroke:#64b5cd;" x="636.903575" xlink:href="#mef854ee11f" y="349.077001"/>
     <use style="fill:#64b5cd;stroke:#64b5cd;" x="467.832822" xlink:href="#mef854ee11f" y="373.971482"/>
     <use style="fill:#64b5cd;stroke:#64b5cd;" x="417.262658" xlink:href="#mef854ee11f" y="390.787963"/>
     <use style="fill:#64b5cd;stroke:#64b5cd;" x="485.649314" xlink:href="#mef854ee11f" y="355.518814"/>
     <use style="fill:#64b5cd;stroke:#64b5cd;" x="629.048687" xlink:href="#mef854ee11f" y="327.214063"/>
     <use style="fill:#64b5cd;stroke:#64b5cd;" x="485.224925" xlink:href="#mef854ee11f" y="385.952338"/>
     <use style="fill:#64b5cd;stroke:#64b5cd;" x="399.602526" xlink:href="#mef854ee11f" y="396.571792"/>
     <use style="fill:#64b5cd;stroke:#64b5cd;" x="397.029576" xlink:href="#mef854ee11f" y="404.236568"/>
     <use style="fill:#64b5cd;stroke:#64b5cd;" x="453.753086" xlink:href="#mef854ee11f" y="354.807506"/>
     <use style="fill:#64b5cd;stroke:#64b5cd;" x="714.725677" xlink:href="#mef854ee11f" y="313.150026"/>
     <use style="fill:#64b5cd;stroke:#64b5cd;" x="565.278864" xlink:href="#mef854ee11f" y="362.560925"/>
     <use style="fill:#64b5cd;stroke:#64b5cd;" x="447.322132" xlink:href="#mef854ee11f" y="384.40889"/>
     <use style="fill:#64b5cd;stroke:#64b5cd;" x="410.552353" xlink:href="#mef854ee11f" y="373.357543"/>
     <use style="fill:#64b5cd;stroke:#64b5cd;" x="95.117298" xlink:href="#mef854ee11f" y="472.524845"/>
     <use style="fill:#64b5cd;stroke:#64b5cd;" x="338.165335" xlink:href="#mef854ee11f" y="394.749004"/>
     <use style="fill:#64b5cd;stroke:#64b5cd;" x="540.743496" xlink:href="#mef854ee11f" y="347.505426"/>
     <use style="fill:#64b5cd;stroke:#64b5cd;" x="670.417875" xlink:href="#mef854ee11f" y="315.053417"/>
     <use style="fill:#64b5cd;stroke:#64b5cd;" x="631.174134" xlink:href="#mef854ee11f" y="290.614746"/>
     <use style="fill:#64b5cd;stroke:#64b5cd;" x="329.286804" xlink:href="#mef854ee11f" y="379.512758"/>
     <use style="fill:#64b5cd;stroke:#64b5cd;" x="244.504332" xlink:href="#mef854ee11f" y="438.56873"/>
     <use style="fill:#64b5cd;stroke:#64b5cd;" x="747.007902" xlink:href="#mef854ee11f" y="278.722966"/>
     <use style="fill:#64b5cd;stroke:#64b5cd;" x="381.421588" xlink:href="#mef854ee11f" y="426.904901"/>
     <use style="fill:#64b5cd;stroke:#64b5cd;" x="638.544816" xlink:href="#mef854ee11f" y="335.161178"/>
     <use style="fill:#64b5cd;stroke:#64b5cd;" x="398.507607" xlink:href="#mef854ee11f" y="367.502678"/>
     <use style="fill:#64b5cd;stroke:#64b5cd;" x="222.927525" xlink:href="#mef854ee11f" y="427.57896"/>
     <use style="fill:#64b5cd;stroke:#64b5cd;" x="242.525104" xlink:href="#mef854ee11f" y="458.606672"/>
     <use style="fill:#64b5cd;stroke:#64b5cd;" x="379.657744" xlink:href="#mef854ee11f" y="386.902149"/>
     <use style="fill:#64b5cd;stroke:#64b5cd;" x="563.997245" xlink:href="#mef854ee11f" y="352.885188"/>
     <use style="fill:#64b5cd;stroke:#64b5cd;" x="374.196887" xlink:href="#mef854ee11f" y="392.650625"/>
     <use style="fill:#64b5cd;stroke:#64b5cd;" x="513.784211" xlink:href="#mef854ee11f" y="406.687354"/>
     <use style="fill:#64b5cd;stroke:#64b5cd;" x="439.876938" xlink:href="#mef854ee11f" y="394.083967"/>
     <use style="fill:#64b5cd;stroke:#64b5cd;" x="293.646253" xlink:href="#mef854ee11f" y="414.380835"/>
     <use style="fill:#64b5cd;stroke:#64b5cd;" x="614.308645" xlink:href="#mef854ee11f" y="333.454719"/>
     <use style="fill:#64b5cd;stroke:#64b5cd;" x="301.426286" xlink:href="#mef854ee11f" y="396.476401"/>
     <use style="fill:#64b5cd;stroke:#64b5cd;" x="531.741291" xlink:href="#mef854ee11f" y="351.239158"/>
     <use style="fill:#64b5cd;stroke:#64b5cd;" x="380.281417" xlink:href="#mef854ee11f" y="375.96341"/>
     <use style="fill:#64b5cd;stroke:#64b5cd;" x="561.305623" xlink:href="#mef854ee11f" y="332.191335"/>
     <use style="fill:#64b5cd;stroke:#64b5cd;" x="498.27784" xlink:href="#mef854ee11f" y="414.038831"/>
     <use style="fill:#64b5cd;stroke:#64b5cd;" x="232.707149" xlink:href="#mef854ee11f" y="447.578845"/>
     <use style="fill:#64b5cd;stroke:#64b5cd;" x="189.271031" xlink:href="#mef854ee11f" y="440.52439"/>
     <use style="fill:#64b5cd;stroke:#64b5cd;" x="84.55" xlink:href="#mef854ee11f" y="419.071246"/>
     <use style="fill:#64b5cd;stroke:#64b5cd;" x="401.577574" xlink:href="#mef854ee11f" y="341.934896"/>
     <use style="fill:#64b5cd;stroke:#64b5cd;" x="412.812651" xlink:href="#mef854ee11f" y="382.414412"/>
     <use style="fill:#64b5cd;stroke:#64b5cd;" x="654.744642" xlink:href="#mef854ee11f" y="300.213632"/>
     <use style="fill:#64b5cd;stroke:#64b5cd;" x="249.086888" xlink:href="#mef854ee11f" y="425.133601"/>
     <use style="fill:#64b5cd;stroke:#64b5cd;" x="467.13732" xlink:href="#mef854ee11f" y="389.788234"/>
     <use style="fill:#64b5cd;stroke:#64b5cd;" x="631.082033" xlink:href="#mef854ee11f" y="321.091651"/>
     <use style="fill:#64b5cd;stroke:#64b5cd;" x="654.465065" xlink:href="#mef854ee11f" y="309.793595"/>
     <use style="fill:#64b5cd;stroke:#64b5cd;" x="320.99909" xlink:href="#mef854ee11f" y="413.618014"/>
     <use style="fill:#64b5cd;stroke:#64b5cd;" x="322.328966" xlink:href="#mef854ee11f" y="349.88567"/>
     <use style="fill:#64b5cd;stroke:#64b5cd;" x="380.80652" xlink:href="#mef854ee11f" y="440.657214"/>
     <use style="fill:#64b5cd;stroke:#64b5cd;" x="291.020695" xlink:href="#mef854ee11f" y="423.284509"/>
     <use style="fill:#64b5cd;stroke:#64b5cd;" x="651.922197" xlink:href="#mef854ee11f" y="332.989526"/>
     <use style="fill:#64b5cd;stroke:#64b5cd;" x="446.166724" xlink:href="#mef854ee11f" y="372.452833"/>
     <use style="fill:#64b5cd;stroke:#64b5cd;" x="669.895177" xlink:href="#mef854ee11f" y="339.768814"/>
     <use style="fill:#64b5cd;stroke:#64b5cd;" x="270.001963" xlink:href="#mef854ee11f" y="386.883597"/>
     <use style="fill:#64b5cd;stroke:#64b5cd;" x="390.342822" xlink:href="#mef854ee11f" y="387.175048"/>
     <use style="fill:#64b5cd;stroke:#64b5cd;" x="317.92847" xlink:href="#mef854ee11f" y="411.43834"/>
     <use style="fill:#64b5cd;stroke:#64b5cd;" x="405.057505" xlink:href="#mef854ee11f" y="373.891682"/>
     <use style="fill:#64b5cd;stroke:#64b5cd;" x="198.81121" xlink:href="#mef854ee11f" y="434.315837"/>
    </g>
   </g>
   <g id="patch_3">
    <path d="M 84.55 652.7 
L 84.55 16.8 
" style="fill:none;stroke:#cccccc;stroke-linecap:square;stroke-linejoin:miter;stroke-width:1.25;"/>
   </g>
   <g id="patch_4">
    <path d="M 1135.2 652.7 
L 1135.2 16.8 
" style="fill:none;stroke:#cccccc;stroke-linecap:square;stroke-linejoin:miter;stroke-width:1.25;"/>
   </g>
   <g id="patch_5">
    <path d="M 84.55 652.7 
L 1135.2 652.7 
" style="fill:none;stroke:#cccccc;stroke-linecap:square;stroke-linejoin:miter;stroke-width:1.25;"/>
   </g>
   <g id="patch_6">
    <path d="M 84.55 16.8 
L 1135.2 16.8 
" style="fill:none;stroke:#cccccc;stroke-linecap:square;stroke-linejoin:miter;stroke-width:1.25;"/>
   </g>
  </g>
 </g>
 <defs>
  <clipPath id="p2255da4343">
   <rect height="635.9" width="1050.65" x="84.55" y="16.8"/>
  </clipPath>
 </defs>
</svg>
