<?xml version="1.0" encoding="utf-8" standalone="no"?>
<!DOCTYPE svg PUBLIC "-//W3C//DTD SVG 1.1//EN"
  "http://www.w3.org/Graphics/SVG/1.1/DTD/svg11.dtd">
<!-- Created with matplotlib (https://matplotlib.org/) -->
<svg height="288pt" version="1.1" viewBox="0 0 432 288" width="432pt" xmlns="http://www.w3.org/2000/svg" xmlns:xlink="http://www.w3.org/1999/xlink">
 <defs>
  <style type="text/css">
*{stroke-linecap:butt;stroke-linejoin:round;}
  </style>
 </defs>
 <g id="figure_1">
  <g id="patch_1">
   <path d="M 0 288 
L 432 288 
L 432 0 
L 0 0 
z
" style="fill:#ffffff;"/>
  </g>
  <g id="axes_1">
   <g id="patch_2">
    <path d="M 54 252 
L 388.8 252 
L 388.8 34.56 
L 54 34.56 
z
" style="fill:#ffffff;"/>
   </g>
   <g id="matplotlib.axis_1">
    <g id="xtick_1">
     <g id="line2d_1">
      <path clip-path="url(#pfab4faebaa)" d="M 117.38932 252 
L 117.38932 34.56 
" style="fill:none;stroke:#cccccc;stroke-linecap:round;"/>
     </g>
     <g id="text_1">
      <!-- −4 -->
      <defs>
       <path d="M 52.828125 31.203125 
L 5.5625 31.203125 
L 5.5625 39.40625 
L 52.828125 39.40625 
z
" id="ArialMT-8722"/>
       <path d="M 32.328125 0 
L 32.328125 17.140625 
L 1.265625 17.140625 
L 1.265625 25.203125 
L 33.9375 71.578125 
L 41.109375 71.578125 
L 41.109375 25.203125 
L 50.78125 25.203125 
L 50.78125 17.140625 
L 41.109375 17.140625 
L 41.109375 0 
z
M 32.328125 25.203125 
L 32.328125 57.46875 
L 9.90625 25.203125 
z
" id="ArialMT-52"/>
      </defs>
      <g style="fill:#262626;" transform="translate(104.847601 277.247187)scale(0.22 -0.22)">
       <use xlink:href="#ArialMT-8722"/>
       <use x="58.398438" xlink:href="#ArialMT-52"/>
      </g>
     </g>
    </g>
    <g id="xtick_2">
     <g id="line2d_2">
      <path clip-path="url(#pfab4faebaa)" d="M 186.538183 252 
L 186.538183 34.56 
" style="fill:none;stroke:#cccccc;stroke-linecap:round;"/>
     </g>
     <g id="text_2">
      <!-- −2 -->
      <defs>
       <path d="M 50.34375 8.453125 
L 50.34375 0 
L 3.03125 0 
Q 2.9375 3.171875 4.046875 6.109375 
Q 5.859375 10.9375 9.828125 15.625 
Q 13.8125 20.3125 21.34375 26.46875 
Q 33.015625 36.03125 37.109375 41.625 
Q 41.21875 47.21875 41.21875 52.203125 
Q 41.21875 57.421875 37.46875 61 
Q 33.734375 64.59375 27.734375 64.59375 
Q 21.390625 64.59375 17.578125 60.78125 
Q 13.765625 56.984375 13.71875 50.25 
L 4.6875 51.171875 
Q 5.609375 61.28125 11.65625 66.578125 
Q 17.71875 71.875 27.9375 71.875 
Q 38.234375 71.875 44.234375 66.15625 
Q 50.25 60.453125 50.25 52 
Q 50.25 47.703125 48.484375 43.546875 
Q 46.734375 39.40625 42.65625 34.8125 
Q 38.578125 30.21875 29.109375 22.21875 
Q 21.1875 15.578125 18.9375 13.203125 
Q 16.703125 10.84375 15.234375 8.453125 
z
" id="ArialMT-50"/>
      </defs>
      <g style="fill:#262626;" transform="translate(173.996465 277.247187)scale(0.22 -0.22)">
       <use xlink:href="#ArialMT-8722"/>
       <use x="58.398438" xlink:href="#ArialMT-50"/>
      </g>
     </g>
    </g>
    <g id="xtick_3">
     <g id="line2d_3">
      <path clip-path="url(#pfab4faebaa)" d="M 255.687047 252 
L 255.687047 34.56 
" style="fill:none;stroke:#cccccc;stroke-linecap:round;"/>
     </g>
     <g id="text_3">
      <!-- 0 -->
      <defs>
       <path d="M 4.15625 35.296875 
Q 4.15625 48 6.765625 55.734375 
Q 9.375 63.484375 14.515625 67.671875 
Q 19.671875 71.875 27.484375 71.875 
Q 33.25 71.875 37.59375 69.546875 
Q 41.9375 67.234375 44.765625 62.859375 
Q 47.609375 58.5 49.21875 52.21875 
Q 50.828125 45.953125 50.828125 35.296875 
Q 50.828125 22.703125 48.234375 14.96875 
Q 45.65625 7.234375 40.5 3 
Q 35.359375 -1.21875 27.484375 -1.21875 
Q 17.140625 -1.21875 11.234375 6.203125 
Q 4.15625 15.140625 4.15625 35.296875 
z
M 13.1875 35.296875 
Q 13.1875 17.671875 17.3125 11.828125 
Q 21.4375 6 27.484375 6 
Q 33.546875 6 37.671875 11.859375 
Q 41.796875 17.71875 41.796875 35.296875 
Q 41.796875 52.984375 37.671875 58.78125 
Q 33.546875 64.59375 27.390625 64.59375 
Q 21.34375 64.59375 17.71875 59.46875 
Q 13.1875 52.9375 13.1875 35.296875 
z
" id="ArialMT-48"/>
      </defs>
      <g style="fill:#262626;" transform="translate(249.570015 277.247187)scale(0.22 -0.22)">
       <use xlink:href="#ArialMT-48"/>
      </g>
     </g>
    </g>
    <g id="xtick_4">
     <g id="line2d_4">
      <path clip-path="url(#pfab4faebaa)" d="M 324.83591 252 
L 324.83591 34.56 
" style="fill:none;stroke:#cccccc;stroke-linecap:round;"/>
     </g>
     <g id="text_4">
      <!-- 2 -->
      <g style="fill:#262626;" transform="translate(318.718879 277.247187)scale(0.22 -0.22)">
       <use xlink:href="#ArialMT-50"/>
      </g>
     </g>
    </g>
    <g id="text_5">
     <!-- Yerr_normalized -->
     <defs>
      <path d="M 27.875 0 
L 27.875 30.328125 
L 0.296875 71.578125 
L 11.8125 71.578125 
L 25.921875 50 
Q 29.828125 43.953125 33.203125 37.890625 
Q 36.421875 43.5 41.015625 50.53125 
L 54.890625 71.578125 
L 65.921875 71.578125 
L 37.359375 30.328125 
L 37.359375 0 
z
" id="ArialMT-89"/>
      <path d="M 42.09375 16.703125 
L 51.171875 15.578125 
Q 49.03125 7.625 43.21875 3.21875 
Q 37.40625 -1.171875 28.375 -1.171875 
Q 17 -1.171875 10.328125 5.828125 
Q 3.65625 12.84375 3.65625 25.484375 
Q 3.65625 38.578125 10.390625 45.796875 
Q 17.140625 53.03125 27.875 53.03125 
Q 38.28125 53.03125 44.875 45.953125 
Q 51.46875 38.875 51.46875 26.03125 
Q 51.46875 25.25 51.421875 23.6875 
L 12.75 23.6875 
Q 13.234375 15.140625 17.578125 10.59375 
Q 21.921875 6.0625 28.421875 6.0625 
Q 33.25 6.0625 36.671875 8.59375 
Q 40.09375 11.140625 42.09375 16.703125 
z
M 13.234375 30.90625 
L 42.1875 30.90625 
Q 41.609375 37.453125 38.875 40.71875 
Q 34.671875 45.796875 27.984375 45.796875 
Q 21.921875 45.796875 17.796875 41.75 
Q 13.671875 37.703125 13.234375 30.90625 
z
" id="ArialMT-101"/>
      <path d="M 6.5 0 
L 6.5 51.859375 
L 14.40625 51.859375 
L 14.40625 44 
Q 17.4375 49.515625 20 51.265625 
Q 22.5625 53.03125 25.640625 53.03125 
Q 30.078125 53.03125 34.671875 50.203125 
L 31.640625 42.046875 
Q 28.421875 43.953125 25.203125 43.953125 
Q 22.3125 43.953125 20.015625 42.21875 
Q 17.71875 40.484375 16.75 37.40625 
Q 15.28125 32.71875 15.28125 27.15625 
L 15.28125 0 
z
" id="ArialMT-114"/>
      <path d="M -1.515625 -19.875 
L -1.515625 -13.53125 
L 56.734375 -13.53125 
L 56.734375 -19.875 
z
" id="ArialMT-95"/>
      <path d="M 6.59375 0 
L 6.59375 51.859375 
L 14.5 51.859375 
L 14.5 44.484375 
Q 20.21875 53.03125 31 53.03125 
Q 35.6875 53.03125 39.625 51.34375 
Q 43.5625 49.65625 45.515625 46.921875 
Q 47.46875 44.1875 48.25 40.4375 
Q 48.734375 37.984375 48.734375 31.890625 
L 48.734375 0 
L 39.9375 0 
L 39.9375 31.546875 
Q 39.9375 36.921875 38.90625 39.578125 
Q 37.890625 42.234375 35.28125 43.8125 
Q 32.671875 45.40625 29.15625 45.40625 
Q 23.53125 45.40625 19.453125 41.84375 
Q 15.375 38.28125 15.375 28.328125 
L 15.375 0 
z
" id="ArialMT-110"/>
      <path d="M 3.328125 25.921875 
Q 3.328125 40.328125 11.328125 47.265625 
Q 18.015625 53.03125 27.640625 53.03125 
Q 38.328125 53.03125 45.109375 46.015625 
Q 51.90625 39.015625 51.90625 26.65625 
Q 51.90625 16.65625 48.90625 10.90625 
Q 45.90625 5.171875 40.15625 2 
Q 34.421875 -1.171875 27.640625 -1.171875 
Q 16.75 -1.171875 10.03125 5.8125 
Q 3.328125 12.796875 3.328125 25.921875 
z
M 12.359375 25.921875 
Q 12.359375 15.96875 16.703125 11.015625 
Q 21.046875 6.0625 27.640625 6.0625 
Q 34.1875 6.0625 38.53125 11.03125 
Q 42.875 16.015625 42.875 26.21875 
Q 42.875 35.84375 38.5 40.796875 
Q 34.125 45.75 27.640625 45.75 
Q 21.046875 45.75 16.703125 40.8125 
Q 12.359375 35.890625 12.359375 25.921875 
z
" id="ArialMT-111"/>
      <path d="M 6.59375 0 
L 6.59375 51.859375 
L 14.453125 51.859375 
L 14.453125 44.578125 
Q 16.890625 48.390625 20.9375 50.703125 
Q 25 53.03125 30.171875 53.03125 
Q 35.9375 53.03125 39.625 50.640625 
Q 43.3125 48.25 44.828125 43.953125 
Q 50.984375 53.03125 60.84375 53.03125 
Q 68.5625 53.03125 72.703125 48.75 
Q 76.859375 44.484375 76.859375 35.59375 
L 76.859375 0 
L 68.109375 0 
L 68.109375 32.671875 
Q 68.109375 37.9375 67.25 40.25 
Q 66.40625 42.578125 64.15625 43.984375 
Q 61.921875 45.40625 58.890625 45.40625 
Q 53.421875 45.40625 49.796875 41.765625 
Q 46.1875 38.140625 46.1875 30.125 
L 46.1875 0 
L 37.40625 0 
L 37.40625 33.6875 
Q 37.40625 39.546875 35.25 42.46875 
Q 33.109375 45.40625 28.21875 45.40625 
Q 24.515625 45.40625 21.359375 43.453125 
Q 18.21875 41.5 16.796875 37.734375 
Q 15.375 33.984375 15.375 26.90625 
L 15.375 0 
z
" id="ArialMT-109"/>
      <path d="M 40.4375 6.390625 
Q 35.546875 2.25 31.03125 0.53125 
Q 26.515625 -1.171875 21.34375 -1.171875 
Q 12.796875 -1.171875 8.203125 3 
Q 3.609375 7.171875 3.609375 13.671875 
Q 3.609375 17.484375 5.34375 20.625 
Q 7.078125 23.78125 9.890625 25.6875 
Q 12.703125 27.59375 16.21875 28.5625 
Q 18.796875 29.25 24.03125 29.890625 
Q 34.671875 31.15625 39.703125 32.90625 
Q 39.75 34.71875 39.75 35.203125 
Q 39.75 40.578125 37.25 42.78125 
Q 33.890625 45.75 27.25 45.75 
Q 21.046875 45.75 18.09375 43.578125 
Q 15.140625 41.40625 13.71875 35.890625 
L 5.125 37.0625 
Q 6.296875 42.578125 8.984375 45.96875 
Q 11.671875 49.359375 16.75 51.1875 
Q 21.828125 53.03125 28.515625 53.03125 
Q 35.15625 53.03125 39.296875 51.46875 
Q 43.453125 49.90625 45.40625 47.53125 
Q 47.359375 45.171875 48.140625 41.546875 
Q 48.578125 39.3125 48.578125 33.453125 
L 48.578125 21.734375 
Q 48.578125 9.46875 49.140625 6.21875 
Q 49.703125 2.984375 51.375 0 
L 42.1875 0 
Q 40.828125 2.734375 40.4375 6.390625 
z
M 39.703125 26.03125 
Q 34.90625 24.078125 25.34375 22.703125 
Q 19.921875 21.921875 17.671875 20.9375 
Q 15.4375 19.96875 14.203125 18.09375 
Q 12.984375 16.21875 12.984375 13.921875 
Q 12.984375 10.40625 15.640625 8.0625 
Q 18.3125 5.71875 23.4375 5.71875 
Q 28.515625 5.71875 32.46875 7.9375 
Q 36.421875 10.15625 38.28125 14.015625 
Q 39.703125 17 39.703125 22.796875 
z
" id="ArialMT-97"/>
      <path d="M 6.390625 0 
L 6.390625 71.578125 
L 15.1875 71.578125 
L 15.1875 0 
z
" id="ArialMT-108"/>
      <path d="M 6.640625 61.46875 
L 6.640625 71.578125 
L 15.4375 71.578125 
L 15.4375 61.46875 
z
M 6.640625 0 
L 6.640625 51.859375 
L 15.4375 51.859375 
L 15.4375 0 
z
" id="ArialMT-105"/>
      <path d="M 1.953125 0 
L 1.953125 7.125 
L 34.96875 45.015625 
Q 29.34375 44.734375 25.046875 44.734375 
L 3.90625 44.734375 
L 3.90625 51.859375 
L 46.296875 51.859375 
L 46.296875 46.046875 
L 18.21875 13.140625 
L 12.796875 7.125 
Q 18.703125 7.5625 23.875 7.5625 
L 47.859375 7.5625 
L 47.859375 0 
z
" id="ArialMT-122"/>
      <path d="M 40.234375 0 
L 40.234375 6.546875 
Q 35.296875 -1.171875 25.734375 -1.171875 
Q 19.53125 -1.171875 14.328125 2.25 
Q 9.125 5.671875 6.265625 11.796875 
Q 3.421875 17.921875 3.421875 25.875 
Q 3.421875 33.640625 6 39.96875 
Q 8.59375 46.296875 13.765625 49.65625 
Q 18.953125 53.03125 25.34375 53.03125 
Q 30.03125 53.03125 33.6875 51.046875 
Q 37.359375 49.078125 39.65625 45.90625 
L 39.65625 71.578125 
L 48.390625 71.578125 
L 48.390625 0 
z
M 12.453125 25.875 
Q 12.453125 15.921875 16.640625 10.984375 
Q 20.84375 6.0625 26.5625 6.0625 
Q 32.328125 6.0625 36.34375 10.765625 
Q 40.375 15.484375 40.375 25.140625 
Q 40.375 35.796875 36.265625 40.765625 
Q 32.171875 45.75 26.171875 45.75 
Q 20.3125 45.75 16.375 40.96875 
Q 12.453125 36.1875 12.453125 25.875 
z
" id="ArialMT-100"/>
     </defs>
     <g style="fill:#262626;" transform="translate(133.385625 302.798437)scale(0.24 -0.24)">
      <use xlink:href="#ArialMT-89"/>
      <use x="66.558594" xlink:href="#ArialMT-101"/>
      <use x="122.173828" xlink:href="#ArialMT-114"/>
      <use x="155.474609" xlink:href="#ArialMT-114"/>
      <use x="188.775391" xlink:href="#ArialMT-95"/>
      <use x="244.390625" xlink:href="#ArialMT-110"/>
      <use x="300.005859" xlink:href="#ArialMT-111"/>
      <use x="355.621094" xlink:href="#ArialMT-114"/>
      <use x="388.921875" xlink:href="#ArialMT-109"/>
      <use x="472.222656" xlink:href="#ArialMT-97"/>
      <use x="527.837891" xlink:href="#ArialMT-108"/>
      <use x="550.054688" xlink:href="#ArialMT-105"/>
      <use x="572.271484" xlink:href="#ArialMT-122"/>
      <use x="622.271484" xlink:href="#ArialMT-101"/>
      <use x="677.886719" xlink:href="#ArialMT-100"/>
     </g>
    </g>
   </g>
   <g id="matplotlib.axis_2">
    <g id="ytick_1">
     <g id="line2d_5">
      <path clip-path="url(#pfab4faebaa)" d="M 54 252 
L 388.8 252 
" style="fill:none;stroke:#cccccc;stroke-linecap:round;"/>
     </g>
     <g id="text_6">
      <!-- 0.0 -->
      <defs>
       <path d="M 9.078125 0 
L 9.078125 10.015625 
L 19.09375 10.015625 
L 19.09375 0 
z
" id="ArialMT-46"/>
      </defs>
      <g style="fill:#262626;" transform="translate(13.92 259.873594)scale(0.22 -0.22)">
       <use xlink:href="#ArialMT-48"/>
       <use x="55.615234" xlink:href="#ArialMT-46"/>
       <use x="83.398438" xlink:href="#ArialMT-48"/>
      </g>
     </g>
    </g>
    <g id="ytick_2">
     <g id="line2d_6">
      <path clip-path="url(#pfab4faebaa)" d="M 54 164.034129 
L 388.8 164.034129 
" style="fill:none;stroke:#cccccc;stroke-linecap:round;"/>
     </g>
     <g id="text_7">
      <!-- 0.2 -->
      <g style="fill:#262626;" transform="translate(13.92 171.907723)scale(0.22 -0.22)">
       <use xlink:href="#ArialMT-48"/>
       <use x="55.615234" xlink:href="#ArialMT-46"/>
       <use x="83.398438" xlink:href="#ArialMT-50"/>
      </g>
     </g>
    </g>
    <g id="ytick_3">
     <g id="line2d_7">
      <path clip-path="url(#pfab4faebaa)" d="M 54 76.068258 
L 388.8 76.068258 
" style="fill:none;stroke:#cccccc;stroke-linecap:round;"/>
     </g>
     <g id="text_8">
      <!-- 0.4 -->
      <g style="fill:#262626;" transform="translate(13.92 83.941852)scale(0.22 -0.22)">
       <use xlink:href="#ArialMT-48"/>
       <use x="55.615234" xlink:href="#ArialMT-46"/>
       <use x="83.398438" xlink:href="#ArialMT-52"/>
      </g>
     </g>
    </g>
   </g>
   <g id="patch_3">
    <path clip-path="url(#pfab4faebaa)" d="M 102.806292 252 
L 116.758493 252 
L 116.758493 246.550376 
L 102.806292 246.550376 
z
" style="fill:#4c72b0;opacity:0.4;stroke:#ffffff;stroke-linejoin:miter;"/>
   </g>
   <g id="patch_4">
    <path clip-path="url(#pfab4faebaa)" d="M 116.758493 252 
L 130.710694 252 
L 130.710694 252 
L 116.758493 252 
z
" style="fill:#4c72b0;opacity:0.4;stroke:#ffffff;stroke-linejoin:miter;"/>
   </g>
   <g id="patch_5">
    <path clip-path="url(#pfab4faebaa)" d="M 130.710694 252 
L 144.662895 252 
L 144.662895 252 
L 130.710694 252 
z
" style="fill:#4c72b0;opacity:0.4;stroke:#ffffff;stroke-linejoin:miter;"/>
   </g>
   <g id="patch_6">
    <path clip-path="url(#pfab4faebaa)" d="M 144.662895 252 
L 158.615096 252 
L 158.615096 246.550376 
L 144.662895 246.550376 
z
" style="fill:#4c72b0;opacity:0.4;stroke:#ffffff;stroke-linejoin:miter;"/>
   </g>
   <g id="patch_7">
    <path clip-path="url(#pfab4faebaa)" d="M 158.615096 252 
L 172.567297 252 
L 172.567297 241.100752 
L 158.615096 241.100752 
z
" style="fill:#4c72b0;opacity:0.4;stroke:#ffffff;stroke-linejoin:miter;"/>
   </g>
   <g id="patch_8">
    <path clip-path="url(#pfab4faebaa)" d="M 172.567297 252 
L 186.519498 252 
L 186.519498 246.550376 
L 172.567297 246.550376 
z
" style="fill:#4c72b0;opacity:0.4;stroke:#ffffff;stroke-linejoin:miter;"/>
   </g>
   <g id="patch_9">
    <path clip-path="url(#pfab4faebaa)" d="M 186.519498 252 
L 200.471699 252 
L 200.471699 224.75188 
L 186.519498 224.75188 
z
" style="fill:#4c72b0;opacity:0.4;stroke:#ffffff;stroke-linejoin:miter;"/>
   </g>
   <g id="patch_10">
    <path clip-path="url(#pfab4faebaa)" d="M 200.471699 252 
L 214.4239 252 
L 214.4239 186.604511 
L 200.471699 186.604511 
z
" style="fill:#4c72b0;opacity:0.4;stroke:#ffffff;stroke-linejoin:miter;"/>
   </g>
   <g id="patch_11">
    <path clip-path="url(#pfab4faebaa)" d="M 214.4239 252 
L 228.3761 252 
L 228.3761 175.705263 
L 214.4239 175.705263 
z
" style="fill:#4c72b0;opacity:0.4;stroke:#ffffff;stroke-linejoin:miter;"/>
   </g>
   <g id="patch_12">
    <path clip-path="url(#pfab4faebaa)" d="M 228.3761 252 
L 242.328301 252 
L 242.328301 93.960902 
L 228.3761 93.960902 
z
" style="fill:#4c72b0;opacity:0.4;stroke:#ffffff;stroke-linejoin:miter;"/>
   </g>
   <g id="patch_13">
    <path clip-path="url(#pfab4faebaa)" d="M 242.328301 252 
L 256.280502 252 
L 256.280502 77.61203 
L 242.328301 77.61203 
z
" style="fill:#4c72b0;opacity:0.4;stroke:#ffffff;stroke-linejoin:miter;"/>
   </g>
   <g id="patch_14">
    <path clip-path="url(#pfab4faebaa)" d="M 256.280502 252 
L 270.232703 252 
L 270.232703 44.914286 
L 256.280502 44.914286 
z
" style="fill:#4c72b0;opacity:0.4;stroke:#ffffff;stroke-linejoin:miter;"/>
   </g>
   <g id="patch_15">
    <path clip-path="url(#pfab4faebaa)" d="M 270.232703 252 
L 284.184904 252 
L 284.184904 110.309774 
L 270.232703 110.309774 
z
" style="fill:#4c72b0;opacity:0.4;stroke:#ffffff;stroke-linejoin:miter;"/>
   </g>
   <g id="patch_16">
    <path clip-path="url(#pfab4faebaa)" d="M 284.184904 252 
L 298.137105 252 
L 298.137105 148.457143 
L 284.184904 148.457143 
z
" style="fill:#4c72b0;opacity:0.4;stroke:#ffffff;stroke-linejoin:miter;"/>
   </g>
   <g id="patch_17">
    <path clip-path="url(#pfab4faebaa)" d="M 298.137105 252 
L 312.089306 252 
L 312.089306 202.953383 
L 298.137105 202.953383 
z
" style="fill:#4c72b0;opacity:0.4;stroke:#ffffff;stroke-linejoin:miter;"/>
   </g>
   <g id="patch_18">
    <path clip-path="url(#pfab4faebaa)" d="M 312.089306 252 
L 326.041507 252 
L 326.041507 208.403008 
L 312.089306 208.403008 
z
" style="fill:#4c72b0;opacity:0.4;stroke:#ffffff;stroke-linejoin:miter;"/>
   </g>
   <g id="patch_19">
    <path clip-path="url(#pfab4faebaa)" d="M 326.041507 252 
L 339.993708 252 
L 339.993708 235.651128 
L 326.041507 235.651128 
z
" style="fill:#4c72b0;opacity:0.4;stroke:#ffffff;stroke-linejoin:miter;"/>
   </g>
   <g id="LineCollection_1">
    <path clip-path="url(#pfab4faebaa)" d="M 231.445295 252 
L 231.445295 241.128 
" style="fill:none;stroke:#4c72b0;"/>
    <path clip-path="url(#pfab4faebaa)" d="M 194.463476 252 
L 194.463476 241.128 
" style="fill:none;stroke:#4c72b0;"/>
    <path clip-path="url(#pfab4faebaa)" d="M 193.592164 252 
L 193.592164 241.128 
" style="fill:none;stroke:#4c72b0;"/>
    <path clip-path="url(#pfab4faebaa)" d="M 275.566276 252 
L 275.566276 241.128 
" style="fill:none;stroke:#4c72b0;"/>
    <path clip-path="url(#pfab4faebaa)" d="M 318.928791 252 
L 318.928791 241.128 
" style="fill:none;stroke:#4c72b0;"/>
    <path clip-path="url(#pfab4faebaa)" d="M 217.18741 252 
L 217.18741 241.128 
" style="fill:none;stroke:#4c72b0;"/>
    <path clip-path="url(#pfab4faebaa)" d="M 276.424521 252 
L 276.424521 241.128 
" style="fill:none;stroke:#4c72b0;"/>
    <path clip-path="url(#pfab4faebaa)" d="M 222.606768 252 
L 222.606768 241.128 
" style="fill:none;stroke:#4c72b0;"/>
    <path clip-path="url(#pfab4faebaa)" d="M 260.252093 252 
L 260.252093 241.128 
" style="fill:none;stroke:#4c72b0;"/>
    <path clip-path="url(#pfab4faebaa)" d="M 256.583871 252 
L 256.583871 241.128 
" style="fill:none;stroke:#4c72b0;"/>
    <path clip-path="url(#pfab4faebaa)" d="M 202.264803 252 
L 202.264803 241.128 
" style="fill:none;stroke:#4c72b0;"/>
    <path clip-path="url(#pfab4faebaa)" d="M 259.07046 252 
L 259.07046 241.128 
" style="fill:none;stroke:#4c72b0;"/>
    <path clip-path="url(#pfab4faebaa)" d="M 241.598356 252 
L 241.598356 241.128 
" style="fill:none;stroke:#4c72b0;"/>
    <path clip-path="url(#pfab4faebaa)" d="M 224.408617 252 
L 224.408617 241.128 
" style="fill:none;stroke:#4c72b0;"/>
    <path clip-path="url(#pfab4faebaa)" d="M 267.37763 252 
L 267.37763 241.128 
" style="fill:none;stroke:#4c72b0;"/>
    <path clip-path="url(#pfab4faebaa)" d="M 271.977332 252 
L 271.977332 241.128 
" style="fill:none;stroke:#4c72b0;"/>
    <path clip-path="url(#pfab4faebaa)" d="M 218.846439 252 
L 218.846439 241.128 
" style="fill:none;stroke:#4c72b0;"/>
    <path clip-path="url(#pfab4faebaa)" d="M 293.573393 252 
L 293.573393 241.128 
" style="fill:none;stroke:#4c72b0;"/>
    <path clip-path="url(#pfab4faebaa)" d="M 263.057195 252 
L 263.057195 241.128 
" style="fill:none;stroke:#4c72b0;"/>
    <path clip-path="url(#pfab4faebaa)" d="M 281.658878 252 
L 281.658878 241.128 
" style="fill:none;stroke:#4c72b0;"/>
    <path clip-path="url(#pfab4faebaa)" d="M 278.974529 252 
L 278.974529 241.128 
" style="fill:none;stroke:#4c72b0;"/>
    <path clip-path="url(#pfab4faebaa)" d="M 317.810504 252 
L 317.810504 241.128 
" style="fill:none;stroke:#4c72b0;"/>
    <path clip-path="url(#pfab4faebaa)" d="M 246.724776 252 
L 246.724776 241.128 
" style="fill:none;stroke:#4c72b0;"/>
    <path clip-path="url(#pfab4faebaa)" d="M 302.335061 252 
L 302.335061 241.128 
" style="fill:none;stroke:#4c72b0;"/>
    <path clip-path="url(#pfab4faebaa)" d="M 248.786589 252 
L 248.786589 241.128 
" style="fill:none;stroke:#4c72b0;"/>
    <path clip-path="url(#pfab4faebaa)" d="M 286.355779 252 
L 286.355779 241.128 
" style="fill:none;stroke:#4c72b0;"/>
    <path clip-path="url(#pfab4faebaa)" d="M 271.663152 252 
L 271.663152 241.128 
" style="fill:none;stroke:#4c72b0;"/>
    <path clip-path="url(#pfab4faebaa)" d="M 271.00412 252 
L 271.00412 241.128 
" style="fill:none;stroke:#4c72b0;"/>
    <path clip-path="url(#pfab4faebaa)" d="M 261.767587 252 
L 261.767587 241.128 
" style="fill:none;stroke:#4c72b0;"/>
    <path clip-path="url(#pfab4faebaa)" d="M 259.663971 252 
L 259.663971 241.128 
" style="fill:none;stroke:#4c72b0;"/>
    <path clip-path="url(#pfab4faebaa)" d="M 248.120913 252 
L 248.120913 241.128 
" style="fill:none;stroke:#4c72b0;"/>
    <path clip-path="url(#pfab4faebaa)" d="M 230.20983 252 
L 230.20983 241.128 
" style="fill:none;stroke:#4c72b0;"/>
    <path clip-path="url(#pfab4faebaa)" d="M 242.397452 252 
L 242.397452 241.128 
" style="fill:none;stroke:#4c72b0;"/>
    <path clip-path="url(#pfab4faebaa)" d="M 233.487525 252 
L 233.487525 241.128 
" style="fill:none;stroke:#4c72b0;"/>
    <path clip-path="url(#pfab4faebaa)" d="M 266.358404 252 
L 266.358404 241.128 
" style="fill:none;stroke:#4c72b0;"/>
    <path clip-path="url(#pfab4faebaa)" d="M 246.041082 252 
L 246.041082 241.128 
" style="fill:none;stroke:#4c72b0;"/>
    <path clip-path="url(#pfab4faebaa)" d="M 241.83222 252 
L 241.83222 241.128 
" style="fill:none;stroke:#4c72b0;"/>
    <path clip-path="url(#pfab4faebaa)" d="M 212.517568 252 
L 212.517568 241.128 
" style="fill:none;stroke:#4c72b0;"/>
    <path clip-path="url(#pfab4faebaa)" d="M 290.241986 252 
L 290.241986 241.128 
" style="fill:none;stroke:#4c72b0;"/>
    <path clip-path="url(#pfab4faebaa)" d="M 250.734964 252 
L 250.734964 241.128 
" style="fill:none;stroke:#4c72b0;"/>
    <path clip-path="url(#pfab4faebaa)" d="M 273.581326 252 
L 273.581326 241.128 
" style="fill:none;stroke:#4c72b0;"/>
    <path clip-path="url(#pfab4faebaa)" d="M 261.37501 252 
L 261.37501 241.128 
" style="fill:none;stroke:#4c72b0;"/>
    <path clip-path="url(#pfab4faebaa)" d="M 236.046797 252 
L 236.046797 241.128 
" style="fill:none;stroke:#4c72b0;"/>
    <path clip-path="url(#pfab4faebaa)" d="M 247.317325 252 
L 247.317325 241.128 
" style="fill:none;stroke:#4c72b0;"/>
    <path clip-path="url(#pfab4faebaa)" d="M 240.917869 252 
L 240.917869 241.128 
" style="fill:none;stroke:#4c72b0;"/>
    <path clip-path="url(#pfab4faebaa)" d="M 242.189493 252 
L 242.189493 241.128 
" style="fill:none;stroke:#4c72b0;"/>
    <path clip-path="url(#pfab4faebaa)" d="M 290.66382 252 
L 290.66382 241.128 
" style="fill:none;stroke:#4c72b0;"/>
    <path clip-path="url(#pfab4faebaa)" d="M 274.918935 252 
L 274.918935 241.128 
" style="fill:none;stroke:#4c72b0;"/>
    <path clip-path="url(#pfab4faebaa)" d="M 246.365627 252 
L 246.365627 241.128 
" style="fill:none;stroke:#4c72b0;"/>
    <path clip-path="url(#pfab4faebaa)" d="M 299.44927 252 
L 299.44927 241.128 
" style="fill:none;stroke:#4c72b0;"/>
    <path clip-path="url(#pfab4faebaa)" d="M 264.918501 252 
L 264.918501 241.128 
" style="fill:none;stroke:#4c72b0;"/>
    <path clip-path="url(#pfab4faebaa)" d="M 283.01348 252 
L 283.01348 241.128 
" style="fill:none;stroke:#4c72b0;"/>
    <path clip-path="url(#pfab4faebaa)" d="M 237.953261 252 
L 237.953261 241.128 
" style="fill:none;stroke:#4c72b0;"/>
    <path clip-path="url(#pfab4faebaa)" d="M 269.306509 252 
L 269.306509 241.128 
" style="fill:none;stroke:#4c72b0;"/>
    <path clip-path="url(#pfab4faebaa)" d="M 202.153659 252 
L 202.153659 241.128 
" style="fill:none;stroke:#4c72b0;"/>
    <path clip-path="url(#pfab4faebaa)" d="M 251.36488 252 
L 251.36488 241.128 
" style="fill:none;stroke:#4c72b0;"/>
    <path clip-path="url(#pfab4faebaa)" d="M 266.704806 252 
L 266.704806 241.128 
" style="fill:none;stroke:#4c72b0;"/>
    <path clip-path="url(#pfab4faebaa)" d="M 296.097887 252 
L 296.097887 241.128 
" style="fill:none;stroke:#4c72b0;"/>
    <path clip-path="url(#pfab4faebaa)" d="M 172.019756 252 
L 172.019756 241.128 
" style="fill:none;stroke:#4c72b0;"/>
    <path clip-path="url(#pfab4faebaa)" d="M 261.322505 252 
L 261.322505 241.128 
" style="fill:none;stroke:#4c72b0;"/>
    <path clip-path="url(#pfab4faebaa)" d="M 339.993708 252 
L 339.993708 241.128 
" style="fill:none;stroke:#4c72b0;"/>
    <path clip-path="url(#pfab4faebaa)" d="M 233.888863 252 
L 233.888863 241.128 
" style="fill:none;stroke:#4c72b0;"/>
    <path clip-path="url(#pfab4faebaa)" d="M 255.308789 252 
L 255.308789 241.128 
" style="fill:none;stroke:#4c72b0;"/>
    <path clip-path="url(#pfab4faebaa)" d="M 243.729921 252 
L 243.729921 241.128 
" style="fill:none;stroke:#4c72b0;"/>
    <path clip-path="url(#pfab4faebaa)" d="M 195.745665 252 
L 195.745665 241.128 
" style="fill:none;stroke:#4c72b0;"/>
    <path clip-path="url(#pfab4faebaa)" d="M 232.096328 252 
L 232.096328 241.128 
" style="fill:none;stroke:#4c72b0;"/>
    <path clip-path="url(#pfab4faebaa)" d="M 271.98794 252 
L 271.98794 241.128 
" style="fill:none;stroke:#4c72b0;"/>
    <path clip-path="url(#pfab4faebaa)" d="M 229.434204 252 
L 229.434204 241.128 
" style="fill:none;stroke:#4c72b0;"/>
    <path clip-path="url(#pfab4faebaa)" d="M 258.816043 252 
L 258.816043 241.128 
" style="fill:none;stroke:#4c72b0;"/>
    <path clip-path="url(#pfab4faebaa)" d="M 223.208261 252 
L 223.208261 241.128 
" style="fill:none;stroke:#4c72b0;"/>
    <path clip-path="url(#pfab4faebaa)" d="M 328.655632 252 
L 328.655632 241.128 
" style="fill:none;stroke:#4c72b0;"/>
    <path clip-path="url(#pfab4faebaa)" d="M 262.382277 252 
L 262.382277 241.128 
" style="fill:none;stroke:#4c72b0;"/>
    <path clip-path="url(#pfab4faebaa)" d="M 319.091207 252 
L 319.091207 241.128 
" style="fill:none;stroke:#4c72b0;"/>
    <path clip-path="url(#pfab4faebaa)" d="M 287.153346 252 
L 287.153346 241.128 
" style="fill:none;stroke:#4c72b0;"/>
    <path clip-path="url(#pfab4faebaa)" d="M 231.392251 252 
L 231.392251 241.128 
" style="fill:none;stroke:#4c72b0;"/>
    <path clip-path="url(#pfab4faebaa)" d="M 211.539677 252 
L 211.539677 241.128 
" style="fill:none;stroke:#4c72b0;"/>
    <path clip-path="url(#pfab4faebaa)" d="M 218.860817 252 
L 218.860817 241.128 
" style="fill:none;stroke:#4c72b0;"/>
    <path clip-path="url(#pfab4faebaa)" d="M 243.16888 252 
L 243.16888 241.128 
" style="fill:none;stroke:#4c72b0;"/>
    <path clip-path="url(#pfab4faebaa)" d="M 102.806292 252 
L 102.806292 241.128 
" style="fill:none;stroke:#4c72b0;"/>
    <path clip-path="url(#pfab4faebaa)" d="M 282.497956 252 
L 282.497956 241.128 
" style="fill:none;stroke:#4c72b0;"/>
    <path clip-path="url(#pfab4faebaa)" d="M 267.467537 252 
L 267.467537 241.128 
" style="fill:none;stroke:#4c72b0;"/>
    <path clip-path="url(#pfab4faebaa)" d="M 290.59698 252 
L 290.59698 241.128 
" style="fill:none;stroke:#4c72b0;"/>
    <path clip-path="url(#pfab4faebaa)" d="M 281.236522 252 
L 281.236522 241.128 
" style="fill:none;stroke:#4c72b0;"/>
    <path clip-path="url(#pfab4faebaa)" d="M 285.508178 252 
L 285.508178 241.128 
" style="fill:none;stroke:#4c72b0;"/>
    <path clip-path="url(#pfab4faebaa)" d="M 303.376591 252 
L 303.376591 241.128 
" style="fill:none;stroke:#4c72b0;"/>
    <path clip-path="url(#pfab4faebaa)" d="M 261.892892 252 
L 261.892892 241.128 
" style="fill:none;stroke:#4c72b0;"/>
    <path clip-path="url(#pfab4faebaa)" d="M 254.981653 252 
L 254.981653 241.128 
" style="fill:none;stroke:#4c72b0;"/>
    <path clip-path="url(#pfab4faebaa)" d="M 293.265264 252 
L 293.265264 241.128 
" style="fill:none;stroke:#4c72b0;"/>
    <path clip-path="url(#pfab4faebaa)" d="M 247.629583 252 
L 247.629583 241.128 
" style="fill:none;stroke:#4c72b0;"/>
    <path clip-path="url(#pfab4faebaa)" d="M 241.094626 252 
L 241.094626 241.128 
" style="fill:none;stroke:#4c72b0;"/>
    <path clip-path="url(#pfab4faebaa)" d="M 273.006844 252 
L 273.006844 241.128 
" style="fill:none;stroke:#4c72b0;"/>
    <path clip-path="url(#pfab4faebaa)" d="M 259.639391 252 
L 259.639391 241.128 
" style="fill:none;stroke:#4c72b0;"/>
    <path clip-path="url(#pfab4faebaa)" d="M 274.2696 252 
L 274.2696 241.128 
" style="fill:none;stroke:#4c72b0;"/>
    <path clip-path="url(#pfab4faebaa)" d="M 258.494729 252 
L 258.494729 241.128 
" style="fill:none;stroke:#4c72b0;"/>
    <path clip-path="url(#pfab4faebaa)" d="M 229.657418 252 
L 229.657418 241.128 
" style="fill:none;stroke:#4c72b0;"/>
    <path clip-path="url(#pfab4faebaa)" d="M 309.680606 252 
L 309.680606 241.128 
" style="fill:none;stroke:#4c72b0;"/>
    <path clip-path="url(#pfab4faebaa)" d="M 307.909306 252 
L 307.909306 241.128 
" style="fill:none;stroke:#4c72b0;"/>
    <path clip-path="url(#pfab4faebaa)" d="M 268.662414 252 
L 268.662414 241.128 
" style="fill:none;stroke:#4c72b0;"/>
    <path clip-path="url(#pfab4faebaa)" d="M 229.979388 252 
L 229.979388 241.128 
" style="fill:none;stroke:#4c72b0;"/>
    <path clip-path="url(#pfab4faebaa)" d="M 241.360309 252 
L 241.360309 241.128 
" style="fill:none;stroke:#4c72b0;"/>
    <path clip-path="url(#pfab4faebaa)" d="M 333.946983 252 
L 333.946983 241.128 
" style="fill:none;stroke:#4c72b0;"/>
    <path clip-path="url(#pfab4faebaa)" d="M 247.676559 252 
L 247.676559 241.128 
" style="fill:none;stroke:#4c72b0;"/>
    <path clip-path="url(#pfab4faebaa)" d="M 251.557426 252 
L 251.557426 241.128 
" style="fill:none;stroke:#4c72b0;"/>
    <path clip-path="url(#pfab4faebaa)" d="M 264.066758 252 
L 264.066758 241.128 
" style="fill:none;stroke:#4c72b0;"/>
    <path clip-path="url(#pfab4faebaa)" d="M 290.545889 252 
L 290.545889 241.128 
" style="fill:none;stroke:#4c72b0;"/>
    <path clip-path="url(#pfab4faebaa)" d="M 270.226114 252 
L 270.226114 241.128 
" style="fill:none;stroke:#4c72b0;"/>
    <path clip-path="url(#pfab4faebaa)" d="M 280.089564 252 
L 280.089564 241.128 
" style="fill:none;stroke:#4c72b0;"/>
    <path clip-path="url(#pfab4faebaa)" d="M 300.135411 252 
L 300.135411 241.128 
" style="fill:none;stroke:#4c72b0;"/>
    <path clip-path="url(#pfab4faebaa)" d="M 308.14494 252 
L 308.14494 241.128 
" style="fill:none;stroke:#4c72b0;"/>
    <path clip-path="url(#pfab4faebaa)" d="M 220.525729 252 
L 220.525729 241.128 
" style="fill:none;stroke:#4c72b0;"/>
    <path clip-path="url(#pfab4faebaa)" d="M 262.930464 252 
L 262.930464 241.128 
" style="fill:none;stroke:#4c72b0;"/>
    <path clip-path="url(#pfab4faebaa)" d="M 265.151716 252 
L 265.151716 241.128 
" style="fill:none;stroke:#4c72b0;"/>
    <path clip-path="url(#pfab4faebaa)" d="M 254.456208 252 
L 254.456208 241.128 
" style="fill:none;stroke:#4c72b0;"/>
    <path clip-path="url(#pfab4faebaa)" d="M 290.501254 252 
L 290.501254 241.128 
" style="fill:none;stroke:#4c72b0;"/>
    <path clip-path="url(#pfab4faebaa)" d="M 265.942648 252 
L 265.942648 241.128 
" style="fill:none;stroke:#4c72b0;"/>
    <path clip-path="url(#pfab4faebaa)" d="M 268.360359 252 
L 268.360359 241.128 
" style="fill:none;stroke:#4c72b0;"/>
    <path clip-path="url(#pfab4faebaa)" d="M 237.166061 252 
L 237.166061 241.128 
" style="fill:none;stroke:#4c72b0;"/>
    <path clip-path="url(#pfab4faebaa)" d="M 285.13076 252 
L 285.13076 241.128 
" style="fill:none;stroke:#4c72b0;"/>
    <path clip-path="url(#pfab4faebaa)" d="M 239.752629 252 
L 239.752629 241.128 
" style="fill:none;stroke:#4c72b0;"/>
    <path clip-path="url(#pfab4faebaa)" d="M 219.468575 252 
L 219.468575 241.128 
" style="fill:none;stroke:#4c72b0;"/>
    <path clip-path="url(#pfab4faebaa)" d="M 264.152372 252 
L 264.152372 241.128 
" style="fill:none;stroke:#4c72b0;"/>
    <path clip-path="url(#pfab4faebaa)" d="M 232.711438 252 
L 232.711438 241.128 
" style="fill:none;stroke:#4c72b0;"/>
    <path clip-path="url(#pfab4faebaa)" d="M 262.839753 252 
L 262.839753 241.128 
" style="fill:none;stroke:#4c72b0;"/>
    <path clip-path="url(#pfab4faebaa)" d="M 257.415805 252 
L 257.415805 241.128 
" style="fill:none;stroke:#4c72b0;"/>
    <path clip-path="url(#pfab4faebaa)" d="M 315.97179 252 
L 315.97179 241.128 
" style="fill:none;stroke:#4c72b0;"/>
    <path clip-path="url(#pfab4faebaa)" d="M 226.010363 252 
L 226.010363 241.128 
" style="fill:none;stroke:#4c72b0;"/>
    <path clip-path="url(#pfab4faebaa)" d="M 226.449563 252 
L 226.449563 241.128 
" style="fill:none;stroke:#4c72b0;"/>
    <path clip-path="url(#pfab4faebaa)" d="M 267.709489 252 
L 267.709489 241.128 
" style="fill:none;stroke:#4c72b0;"/>
    <path clip-path="url(#pfab4faebaa)" d="M 215.669275 252 
L 215.669275 241.128 
" style="fill:none;stroke:#4c72b0;"/>
    <path clip-path="url(#pfab4faebaa)" d="M 236.7621 252 
L 236.7621 241.128 
" style="fill:none;stroke:#4c72b0;"/>
    <path clip-path="url(#pfab4faebaa)" d="M 267.72389 252 
L 267.72389 241.128 
" style="fill:none;stroke:#4c72b0;"/>
    <path clip-path="url(#pfab4faebaa)" d="M 248.356251 252 
L 248.356251 241.128 
" style="fill:none;stroke:#4c72b0;"/>
    <path clip-path="url(#pfab4faebaa)" d="M 191.987196 252 
L 191.987196 241.128 
" style="fill:none;stroke:#4c72b0;"/>
    <path clip-path="url(#pfab4faebaa)" d="M 276.699342 252 
L 276.699342 241.128 
" style="fill:none;stroke:#4c72b0;"/>
    <path clip-path="url(#pfab4faebaa)" d="M 297.390118 252 
L 297.390118 241.128 
" style="fill:none;stroke:#4c72b0;"/>
    <path clip-path="url(#pfab4faebaa)" d="M 252.028987 252 
L 252.028987 241.128 
" style="fill:none;stroke:#4c72b0;"/>
    <path clip-path="url(#pfab4faebaa)" d="M 159.689153 252 
L 159.689153 241.128 
" style="fill:none;stroke:#4c72b0;"/>
    <path clip-path="url(#pfab4faebaa)" d="M 242.178346 252 
L 242.178346 241.128 
" style="fill:none;stroke:#4c72b0;"/>
    <path clip-path="url(#pfab4faebaa)" d="M 253.149457 252 
L 253.149457 241.128 
" style="fill:none;stroke:#4c72b0;"/>
    <path clip-path="url(#pfab4faebaa)" d="M 270.745893 252 
L 270.745893 241.128 
" style="fill:none;stroke:#4c72b0;"/>
    <path clip-path="url(#pfab4faebaa)" d="M 255.006569 252 
L 255.006569 241.128 
" style="fill:none;stroke:#4c72b0;"/>
    <path clip-path="url(#pfab4faebaa)" d="M 255.690526 252 
L 255.690526 241.128 
" style="fill:none;stroke:#4c72b0;"/>
    <path clip-path="url(#pfab4faebaa)" d="M 177.456538 252 
L 177.456538 241.128 
" style="fill:none;stroke:#4c72b0;"/>
    <path clip-path="url(#pfab4faebaa)" d="M 247.481637 252 
L 247.481637 241.128 
" style="fill:none;stroke:#4c72b0;"/>
    <path clip-path="url(#pfab4faebaa)" d="M 196.272177 252 
L 196.272177 241.128 
" style="fill:none;stroke:#4c72b0;"/>
    <path clip-path="url(#pfab4faebaa)" d="M 279.043288 252 
L 279.043288 241.128 
" style="fill:none;stroke:#4c72b0;"/>
    <path clip-path="url(#pfab4faebaa)" d="M 258.632382 252 
L 258.632382 241.128 
" style="fill:none;stroke:#4c72b0;"/>
    <path clip-path="url(#pfab4faebaa)" d="M 220.044273 252 
L 220.044273 241.128 
" style="fill:none;stroke:#4c72b0;"/>
    <path clip-path="url(#pfab4faebaa)" d="M 208.834326 252 
L 208.834326 241.128 
" style="fill:none;stroke:#4c72b0;"/>
    <path clip-path="url(#pfab4faebaa)" d="M 286.118272 252 
L 286.118272 241.128 
" style="fill:none;stroke:#4c72b0;"/>
    <path clip-path="url(#pfab4faebaa)" d="M 267.610782 252 
L 267.610782 241.128 
" style="fill:none;stroke:#4c72b0;"/>
    <path clip-path="url(#pfab4faebaa)" d="M 289.338808 252 
L 289.338808 241.128 
" style="fill:none;stroke:#4c72b0;"/>
    <path clip-path="url(#pfab4faebaa)" d="M 247.975742 252 
L 247.975742 241.128 
" style="fill:none;stroke:#4c72b0;"/>
    <path clip-path="url(#pfab4faebaa)" d="M 259.535084 252 
L 259.535084 241.128 
" style="fill:none;stroke:#4c72b0;"/>
    <path clip-path="url(#pfab4faebaa)" d="M 273.819283 252 
L 273.819283 241.128 
" style="fill:none;stroke:#4c72b0;"/>
    <path clip-path="url(#pfab4faebaa)" d="M 236.675674 252 
L 236.675674 241.128 
" style="fill:none;stroke:#4c72b0;"/>
    <path clip-path="url(#pfab4faebaa)" d="M 217.894922 252 
L 217.894922 241.128 
" style="fill:none;stroke:#4c72b0;"/>
    <path clip-path="url(#pfab4faebaa)" d="M 278.328356 252 
L 278.328356 241.128 
" style="fill:none;stroke:#4c72b0;"/>
    <path clip-path="url(#pfab4faebaa)" d="M 273.64794 252 
L 273.64794 241.128 
" style="fill:none;stroke:#4c72b0;"/>
    <path clip-path="url(#pfab4faebaa)" d="M 262.191073 252 
L 262.191073 241.128 
" style="fill:none;stroke:#4c72b0;"/>
    <path clip-path="url(#pfab4faebaa)" d="M 213.995765 252 
L 213.995765 241.128 
" style="fill:none;stroke:#4c72b0;"/>
    <path clip-path="url(#pfab4faebaa)" d="M 201.224157 252 
L 201.224157 241.128 
" style="fill:none;stroke:#4c72b0;"/>
    <path clip-path="url(#pfab4faebaa)" d="M 288.258952 252 
L 288.258952 241.128 
" style="fill:none;stroke:#4c72b0;"/>
    <path clip-path="url(#pfab4faebaa)" d="M 231.763279 252 
L 231.763279 241.128 
" style="fill:none;stroke:#4c72b0;"/>
    <path clip-path="url(#pfab4faebaa)" d="M 288.002436 252 
L 288.002436 241.128 
" style="fill:none;stroke:#4c72b0;"/>
    <path clip-path="url(#pfab4faebaa)" d="M 252.649043 252 
L 252.649043 241.128 
" style="fill:none;stroke:#4c72b0;"/>
    <path clip-path="url(#pfab4faebaa)" d="M 206.631578 252 
L 206.631578 241.128 
" style="fill:none;stroke:#4c72b0;"/>
    <path clip-path="url(#pfab4faebaa)" d="M 314.724368 252 
L 314.724368 241.128 
" style="fill:none;stroke:#4c72b0;"/>
    <path clip-path="url(#pfab4faebaa)" d="M 252.563244 252 
L 252.563244 241.128 
" style="fill:none;stroke:#4c72b0;"/>
    <path clip-path="url(#pfab4faebaa)" d="M 248.492054 252 
L 248.492054 241.128 
" style="fill:none;stroke:#4c72b0;"/>
    <path clip-path="url(#pfab4faebaa)" d="M 252.888185 252 
L 252.888185 241.128 
" style="fill:none;stroke:#4c72b0;"/>
    <path clip-path="url(#pfab4faebaa)" d="M 235.679749 252 
L 235.679749 241.128 
" style="fill:none;stroke:#4c72b0;"/>
    <path clip-path="url(#pfab4faebaa)" d="M 204.665172 252 
L 204.665172 241.128 
" style="fill:none;stroke:#4c72b0;"/>
    <path clip-path="url(#pfab4faebaa)" d="M 239.267893 252 
L 239.267893 241.128 
" style="fill:none;stroke:#4c72b0;"/>
    <path clip-path="url(#pfab4faebaa)" d="M 306.865134 252 
L 306.865134 241.128 
" style="fill:none;stroke:#4c72b0;"/>
    <path clip-path="url(#pfab4faebaa)" d="M 270.257954 252 
L 270.257954 241.128 
" style="fill:none;stroke:#4c72b0;"/>
    <path clip-path="url(#pfab4faebaa)" d="M 241.611788 252 
L 241.611788 241.128 
" style="fill:none;stroke:#4c72b0;"/>
    <path clip-path="url(#pfab4faebaa)" d="M 245.451582 252 
L 245.451582 241.128 
" style="fill:none;stroke:#4c72b0;"/>
    <path clip-path="url(#pfab4faebaa)" d="M 244.123336 252 
L 244.123336 241.128 
" style="fill:none;stroke:#4c72b0;"/>
    <path clip-path="url(#pfab4faebaa)" d="M 262.883822 252 
L 262.883822 241.128 
" style="fill:none;stroke:#4c72b0;"/>
    <path clip-path="url(#pfab4faebaa)" d="M 233.145233 252 
L 233.145233 241.128 
" style="fill:none;stroke:#4c72b0;"/>
    <path clip-path="url(#pfab4faebaa)" d="M 155.878118 252 
L 155.878118 241.128 
" style="fill:none;stroke:#4c72b0;"/>
    <path clip-path="url(#pfab4faebaa)" d="M 293.835661 252 
L 293.835661 241.128 
" style="fill:none;stroke:#4c72b0;"/>
    <path clip-path="url(#pfab4faebaa)" d="M 209.584839 252 
L 209.584839 241.128 
" style="fill:none;stroke:#4c72b0;"/>
    <path clip-path="url(#pfab4faebaa)" d="M 280.273647 252 
L 280.273647 241.128 
" style="fill:none;stroke:#4c72b0;"/>
    <path clip-path="url(#pfab4faebaa)" d="M 280.097595 252 
L 280.097595 241.128 
" style="fill:none;stroke:#4c72b0;"/>
    <path clip-path="url(#pfab4faebaa)" d="M 317.979715 252 
L 317.979715 241.128 
" style="fill:none;stroke:#4c72b0;"/>
    <path clip-path="url(#pfab4faebaa)" d="M 201.957413 252 
L 201.957413 241.128 
" style="fill:none;stroke:#4c72b0;"/>
    <path clip-path="url(#pfab4faebaa)" d="M 265.174981 252 
L 265.174981 241.128 
" style="fill:none;stroke:#4c72b0;"/>
    <path clip-path="url(#pfab4faebaa)" d="M 255.631557 252 
L 255.631557 241.128 
" style="fill:none;stroke:#4c72b0;"/>
    <path clip-path="url(#pfab4faebaa)" d="M 293.330187 252 
L 293.330187 241.128 
" style="fill:none;stroke:#4c72b0;"/>
    <path clip-path="url(#pfab4faebaa)" d="M 317.829852 252 
L 317.829852 241.128 
" style="fill:none;stroke:#4c72b0;"/>
    <path clip-path="url(#pfab4faebaa)" d="M 203.634115 252 
L 203.634115 241.128 
" style="fill:none;stroke:#4c72b0;"/>
    <path clip-path="url(#pfab4faebaa)" d="M 255.042902 252 
L 255.042902 241.128 
" style="fill:none;stroke:#4c72b0;"/>
    <path clip-path="url(#pfab4faebaa)" d="M 257.111632 252 
L 257.111632 241.128 
" style="fill:none;stroke:#4c72b0;"/>
    <path clip-path="url(#pfab4faebaa)" d="M 232.33092 252 
L 232.33092 241.128 
" style="fill:none;stroke:#4c72b0;"/>
    <path clip-path="url(#pfab4faebaa)" d="M 282.960129 252 
L 282.960129 241.128 
" style="fill:none;stroke:#4c72b0;"/>
    <path clip-path="url(#pfab4faebaa)" d="M 310.546107 252 
L 310.546107 241.128 
" style="fill:none;stroke:#4c72b0;"/>
    <path clip-path="url(#pfab4faebaa)" d="M 324.60203 252 
L 324.60203 241.128 
" style="fill:none;stroke:#4c72b0;"/>
    <path clip-path="url(#pfab4faebaa)" d="M 214.719175 252 
L 214.719175 241.128 
" style="fill:none;stroke:#4c72b0;"/>
   </g>
   <g id="line2d_8">
    <path clip-path="url(#pfab4faebaa)" d="M 69.218182 251.9495 
L 76.407874 251.826563 
L 81.201002 251.573691 
L 85.99413 251.117695 
L 100.373515 249.364899 
L 102.770079 249.302526 
L 105.166643 249.361242 
L 109.959771 249.79594 
L 121.942591 251.326752 
L 126.735719 251.585427 
L 131.528848 251.510637 
L 133.925412 251.327768 
L 136.321976 251.033453 
L 138.71854 250.618103 
L 141.115104 250.078071 
L 145.908232 248.664083 
L 155.494488 245.4408 
L 160.287616 244.250522 
L 165.080744 243.418772 
L 169.873873 242.588951 
L 172.270437 241.98148 
L 174.667001 241.114735 
L 177.063565 239.882895 
L 179.460129 238.186406 
L 181.856693 235.946661 
L 184.253257 233.121737 
L 186.649821 229.718778 
L 189.046385 225.798438 
L 191.442949 221.468476 
L 196.236077 212.136822 
L 201.029205 202.749894 
L 208.218898 189.34737 
L 213.012026 180.19717 
L 215.40859 175.230082 
L 217.805154 169.852228 
L 220.201718 163.975583 
L 222.598282 157.546656 
L 224.994846 150.557897 
L 227.39141 143.055163 
L 232.184538 126.953107 
L 236.977666 110.490707 
L 239.37423 102.574595 
L 241.770795 95.079572 
L 244.167359 88.131836 
L 246.563923 81.838812 
L 248.960487 76.304356 
L 251.357051 71.645568 
L 253.753615 68.003702 
L 256.150179 65.542766 
L 258.546743 64.4329 
L 260.943307 64.82081 
L 263.339871 66.794632 
L 265.736435 70.353709 
L 268.132999 75.393538 
L 270.529563 81.712185 
L 272.926127 89.038046 
L 275.322691 97.072004 
L 280.11582 114.189762 
L 287.305512 140.024761 
L 292.09864 156.456794 
L 294.495204 164.210511 
L 296.891768 171.500617 
L 299.288332 178.20434 
L 301.684896 184.229163 
L 304.08146 189.540673 
L 306.478024 194.177979 
L 308.874588 198.251221 
L 311.271152 201.921374 
L 320.857409 215.735841 
L 330.443665 230.123714 
L 332.840229 233.363949 
L 335.236793 236.328393 
L 337.633357 238.993069 
L 340.029921 241.355087 
L 342.426485 243.424228 
L 344.823049 245.215387 
L 347.219613 246.74405 
L 349.616178 248.025174 
L 352.012742 249.074436 
L 354.409306 249.910203 
L 356.80587 250.554825 
L 359.202434 251.034514 
L 363.995562 251.613617 
L 368.78869 251.864463 
L 373.581818 251.945651 
L 373.581818 251.945651 
" style="fill:none;stroke:#4c72b0;stroke-linecap:round;stroke-width:1.5;"/>
   </g>
   <g id="patch_20">
    <path d="M 54 252 
L 54 34.56 
" style="fill:none;stroke:#cccccc;stroke-linecap:square;stroke-linejoin:miter;stroke-width:1.25;"/>
   </g>
   <g id="patch_21">
    <path d="M 388.8 252 
L 388.8 34.56 
" style="fill:none;stroke:#cccccc;stroke-linecap:square;stroke-linejoin:miter;stroke-width:1.25;"/>
   </g>
   <g id="patch_22">
    <path d="M 54 252 
L 388.8 252 
" style="fill:none;stroke:#cccccc;stroke-linecap:square;stroke-linejoin:miter;stroke-width:1.25;"/>
   </g>
   <g id="patch_23">
    <path d="M 54 34.56 
L 388.8 34.56 
" style="fill:none;stroke:#cccccc;stroke-linecap:square;stroke-linejoin:miter;stroke-width:1.25;"/>
   </g>
  </g>
 </g>
 <defs>
  <clipPath id="pfab4faebaa">
   <rect height="217.44" width="334.8" x="54" y="34.56"/>
  </clipPath>
 </defs>
</svg>
