<?xml version="1.0" encoding="utf-8" standalone="no"?>
<!DOCTYPE svg PUBLIC "-//W3C//DTD SVG 1.1//EN"
  "http://www.w3.org/Graphics/SVG/1.1/DTD/svg11.dtd">
<!-- Created with matplotlib (https://matplotlib.org/) -->
<svg height="432pt" version="1.1" viewBox="0 0 1152 432" width="1152pt" xmlns="http://www.w3.org/2000/svg" xmlns:xlink="http://www.w3.org/1999/xlink">
 <defs>
  <style type="text/css">
*{stroke-linecap:butt;stroke-linejoin:round;}
  </style>
 </defs>
 <g id="figure_1">
  <g id="patch_1">
   <path d="M 0 432 
L 1152 432 
L 1152 0 
L 0 0 
z
" style="fill:#ffffff;"/>
  </g>
  <g id="axes_1">
   <g id="patch_2">
    <path d="M 144 378 
L 1036.8 378 
L 1036.8 51.84 
L 144 51.84 
z
" style="fill:#ffffff;"/>
   </g>
   <g id="matplotlib.axis_1">
    <g id="xtick_1">
     <g id="line2d_1">
      <path clip-path="url(#p5d645f1b8e)" d="M 223.799973 378 
L 223.799973 51.84 
" style="fill:none;stroke:#cccccc;stroke-linecap:round;"/>
     </g>
     <g id="text_1">
      <!-- 0.35 -->
      <defs>
       <path d="M 4.15625 35.296875 
Q 4.15625 48 6.765625 55.734375 
Q 9.375 63.484375 14.515625 67.671875 
Q 19.671875 71.875 27.484375 71.875 
Q 33.25 71.875 37.59375 69.546875 
Q 41.9375 67.234375 44.765625 62.859375 
Q 47.609375 58.5 49.21875 52.21875 
Q 50.828125 45.953125 50.828125 35.296875 
Q 50.828125 22.703125 48.234375 14.96875 
Q 45.65625 7.234375 40.5 3 
Q 35.359375 -1.21875 27.484375 -1.21875 
Q 17.140625 -1.21875 11.234375 6.203125 
Q 4.15625 15.140625 4.15625 35.296875 
z
M 13.1875 35.296875 
Q 13.1875 17.671875 17.3125 11.828125 
Q 21.4375 6 27.484375 6 
Q 33.546875 6 37.671875 11.859375 
Q 41.796875 17.71875 41.796875 35.296875 
Q 41.796875 52.984375 37.671875 58.78125 
Q 33.546875 64.59375 27.390625 64.59375 
Q 21.34375 64.59375 17.71875 59.46875 
Q 13.1875 52.9375 13.1875 35.296875 
z
" id="ArialMT-48"/>
       <path d="M 9.078125 0 
L 9.078125 10.015625 
L 19.09375 10.015625 
L 19.09375 0 
z
" id="ArialMT-46"/>
       <path d="M 4.203125 18.890625 
L 12.984375 20.0625 
Q 14.5 12.59375 18.140625 9.296875 
Q 21.78125 6 27 6 
Q 33.203125 6 37.46875 10.296875 
Q 41.75 14.59375 41.75 20.953125 
Q 41.75 27 37.796875 30.921875 
Q 33.84375 34.859375 27.734375 34.859375 
Q 25.25 34.859375 21.53125 33.890625 
L 22.515625 41.609375 
Q 23.390625 41.5 23.921875 41.5 
Q 29.546875 41.5 34.03125 44.421875 
Q 38.53125 47.359375 38.53125 53.46875 
Q 38.53125 58.296875 35.25 61.46875 
Q 31.984375 64.65625 26.8125 64.65625 
Q 21.6875 64.65625 18.265625 61.421875 
Q 14.84375 58.203125 13.875 51.765625 
L 5.078125 53.328125 
Q 6.6875 62.15625 12.390625 67.015625 
Q 18.109375 71.875 26.609375 71.875 
Q 32.46875 71.875 37.390625 69.359375 
Q 42.328125 66.84375 44.9375 62.5 
Q 47.5625 58.15625 47.5625 53.265625 
Q 47.5625 48.640625 45.0625 44.828125 
Q 42.578125 41.015625 37.703125 38.765625 
Q 44.046875 37.3125 47.5625 32.6875 
Q 51.078125 28.078125 51.078125 21.140625 
Q 51.078125 11.765625 44.234375 5.25 
Q 37.40625 -1.265625 26.953125 -1.265625 
Q 17.53125 -1.265625 11.296875 4.34375 
Q 5.078125 9.96875 4.203125 18.890625 
z
" id="ArialMT-51"/>
       <path d="M 4.15625 18.75 
L 13.375 19.53125 
Q 14.40625 12.796875 18.140625 9.390625 
Q 21.875 6 27.15625 6 
Q 33.5 6 37.890625 10.78125 
Q 42.28125 15.578125 42.28125 23.484375 
Q 42.28125 31 38.0625 35.34375 
Q 33.84375 39.703125 27 39.703125 
Q 22.75 39.703125 19.328125 37.765625 
Q 15.921875 35.84375 13.96875 32.765625 
L 5.71875 33.84375 
L 12.640625 70.609375 
L 48.25 70.609375 
L 48.25 62.203125 
L 19.671875 62.203125 
L 15.828125 42.96875 
Q 22.265625 47.46875 29.34375 47.46875 
Q 38.71875 47.46875 45.15625 40.96875 
Q 51.609375 34.46875 51.609375 24.265625 
Q 51.609375 14.546875 45.953125 7.46875 
Q 39.0625 -1.21875 27.15625 -1.21875 
Q 17.390625 -1.21875 11.203125 4.25 
Q 5.03125 9.71875 4.15625 18.75 
z
" id="ArialMT-53"/>
      </defs>
      <g style="fill:#262626;" transform="translate(202.392942 403.247187)scale(0.22 -0.22)">
       <use xlink:href="#ArialMT-48"/>
       <use x="55.615234" xlink:href="#ArialMT-46"/>
       <use x="83.398438" xlink:href="#ArialMT-51"/>
       <use x="139.013672" xlink:href="#ArialMT-53"/>
      </g>
     </g>
    </g>
    <g id="xtick_2">
     <g id="line2d_2">
      <path clip-path="url(#p5d645f1b8e)" d="M 334.02033 378 
L 334.02033 51.84 
" style="fill:none;stroke:#cccccc;stroke-linecap:round;"/>
     </g>
     <g id="text_2">
      <!-- 0.40 -->
      <defs>
       <path d="M 32.328125 0 
L 32.328125 17.140625 
L 1.265625 17.140625 
L 1.265625 25.203125 
L 33.9375 71.578125 
L 41.109375 71.578125 
L 41.109375 25.203125 
L 50.78125 25.203125 
L 50.78125 17.140625 
L 41.109375 17.140625 
L 41.109375 0 
z
M 32.328125 25.203125 
L 32.328125 57.46875 
L 9.90625 25.203125 
z
" id="ArialMT-52"/>
      </defs>
      <g style="fill:#262626;" transform="translate(312.613299 403.247187)scale(0.22 -0.22)">
       <use xlink:href="#ArialMT-48"/>
       <use x="55.615234" xlink:href="#ArialMT-46"/>
       <use x="83.398438" xlink:href="#ArialMT-52"/>
       <use x="139.013672" xlink:href="#ArialMT-48"/>
      </g>
     </g>
    </g>
    <g id="xtick_3">
     <g id="line2d_3">
      <path clip-path="url(#p5d645f1b8e)" d="M 444.240687 378 
L 444.240687 51.84 
" style="fill:none;stroke:#cccccc;stroke-linecap:round;"/>
     </g>
     <g id="text_3">
      <!-- 0.45 -->
      <g style="fill:#262626;" transform="translate(422.833656 403.247187)scale(0.22 -0.22)">
       <use xlink:href="#ArialMT-48"/>
       <use x="55.615234" xlink:href="#ArialMT-46"/>
       <use x="83.398438" xlink:href="#ArialMT-52"/>
       <use x="139.013672" xlink:href="#ArialMT-53"/>
      </g>
     </g>
    </g>
    <g id="xtick_4">
     <g id="line2d_4">
      <path clip-path="url(#p5d645f1b8e)" d="M 554.461044 378 
L 554.461044 51.84 
" style="fill:none;stroke:#cccccc;stroke-linecap:round;"/>
     </g>
     <g id="text_4">
      <!-- 0.50 -->
      <g style="fill:#262626;" transform="translate(533.054013 403.247187)scale(0.22 -0.22)">
       <use xlink:href="#ArialMT-48"/>
       <use x="55.615234" xlink:href="#ArialMT-46"/>
       <use x="83.398438" xlink:href="#ArialMT-53"/>
       <use x="139.013672" xlink:href="#ArialMT-48"/>
      </g>
     </g>
    </g>
    <g id="xtick_5">
     <g id="line2d_5">
      <path clip-path="url(#p5d645f1b8e)" d="M 664.681401 378 
L 664.681401 51.84 
" style="fill:none;stroke:#cccccc;stroke-linecap:round;"/>
     </g>
     <g id="text_5">
      <!-- 0.55 -->
      <g style="fill:#262626;" transform="translate(643.274369 403.247187)scale(0.22 -0.22)">
       <use xlink:href="#ArialMT-48"/>
       <use x="55.615234" xlink:href="#ArialMT-46"/>
       <use x="83.398438" xlink:href="#ArialMT-53"/>
       <use x="139.013672" xlink:href="#ArialMT-53"/>
      </g>
     </g>
    </g>
    <g id="xtick_6">
     <g id="line2d_6">
      <path clip-path="url(#p5d645f1b8e)" d="M 774.901757 378 
L 774.901757 51.84 
" style="fill:none;stroke:#cccccc;stroke-linecap:round;"/>
     </g>
     <g id="text_6">
      <!-- 0.60 -->
      <defs>
       <path d="M 49.75 54.046875 
L 41.015625 53.375 
Q 39.84375 58.546875 37.703125 60.890625 
Q 34.125 64.65625 28.90625 64.65625 
Q 24.703125 64.65625 21.53125 62.3125 
Q 17.390625 59.28125 14.984375 53.46875 
Q 12.59375 47.65625 12.5 36.921875 
Q 15.671875 41.75 20.265625 44.09375 
Q 24.859375 46.4375 29.890625 46.4375 
Q 38.671875 46.4375 44.84375 39.96875 
Q 51.03125 33.5 51.03125 23.25 
Q 51.03125 16.5 48.125 10.71875 
Q 45.21875 4.9375 40.140625 1.859375 
Q 35.0625 -1.21875 28.609375 -1.21875 
Q 17.625 -1.21875 10.6875 6.859375 
Q 3.765625 14.9375 3.765625 33.5 
Q 3.765625 54.25 11.421875 63.671875 
Q 18.109375 71.875 29.4375 71.875 
Q 37.890625 71.875 43.28125 67.140625 
Q 48.6875 62.40625 49.75 54.046875 
z
M 13.875 23.1875 
Q 13.875 18.65625 15.796875 14.5 
Q 17.71875 10.359375 21.1875 8.171875 
Q 24.65625 6 28.46875 6 
Q 34.03125 6 38.03125 10.484375 
Q 42.046875 14.984375 42.046875 22.703125 
Q 42.046875 30.125 38.078125 34.390625 
Q 34.125 38.671875 28.125 38.671875 
Q 22.171875 38.671875 18.015625 34.390625 
Q 13.875 30.125 13.875 23.1875 
z
" id="ArialMT-54"/>
      </defs>
      <g style="fill:#262626;" transform="translate(753.494726 403.247187)scale(0.22 -0.22)">
       <use xlink:href="#ArialMT-48"/>
       <use x="55.615234" xlink:href="#ArialMT-46"/>
       <use x="83.398438" xlink:href="#ArialMT-54"/>
       <use x="139.013672" xlink:href="#ArialMT-48"/>
      </g>
     </g>
    </g>
    <g id="xtick_7">
     <g id="line2d_7">
      <path clip-path="url(#p5d645f1b8e)" d="M 885.122114 378 
L 885.122114 51.84 
" style="fill:none;stroke:#cccccc;stroke-linecap:round;"/>
     </g>
     <g id="text_7">
      <!-- 0.65 -->
      <g style="fill:#262626;" transform="translate(863.715083 403.247187)scale(0.22 -0.22)">
       <use xlink:href="#ArialMT-48"/>
       <use x="55.615234" xlink:href="#ArialMT-46"/>
       <use x="83.398438" xlink:href="#ArialMT-54"/>
       <use x="139.013672" xlink:href="#ArialMT-53"/>
      </g>
     </g>
    </g>
    <g id="xtick_8">
     <g id="line2d_8">
      <path clip-path="url(#p5d645f1b8e)" d="M 995.342471 378 
L 995.342471 51.84 
" style="fill:none;stroke:#cccccc;stroke-linecap:round;"/>
     </g>
     <g id="text_8">
      <!-- 0.70 -->
      <defs>
       <path d="M 4.734375 62.203125 
L 4.734375 70.65625 
L 51.078125 70.65625 
L 51.078125 63.8125 
Q 44.234375 56.546875 37.515625 44.484375 
Q 30.8125 32.421875 27.15625 19.671875 
Q 24.515625 10.6875 23.78125 0 
L 14.75 0 
Q 14.890625 8.453125 18.0625 20.40625 
Q 21.234375 32.375 27.171875 43.484375 
Q 33.109375 54.59375 39.796875 62.203125 
z
" id="ArialMT-55"/>
      </defs>
      <g style="fill:#262626;" transform="translate(973.93544 403.247187)scale(0.22 -0.22)">
       <use xlink:href="#ArialMT-48"/>
       <use x="55.615234" xlink:href="#ArialMT-46"/>
       <use x="83.398438" xlink:href="#ArialMT-55"/>
       <use x="139.013672" xlink:href="#ArialMT-48"/>
      </g>
     </g>
    </g>
    <g id="text_9">
     <!-- Observed values -->
     <defs>
      <path d="M 4.828125 34.859375 
Q 4.828125 52.6875 14.390625 62.765625 
Q 23.96875 72.859375 39.109375 72.859375 
Q 49.03125 72.859375 56.984375 68.109375 
Q 64.9375 63.375 69.109375 54.90625 
Q 73.296875 46.4375 73.296875 35.6875 
Q 73.296875 24.8125 68.890625 16.21875 
Q 64.5 7.625 56.4375 3.203125 
Q 48.390625 -1.21875 39.0625 -1.21875 
Q 28.953125 -1.21875 20.984375 3.65625 
Q 13.03125 8.546875 8.921875 16.984375 
Q 4.828125 25.4375 4.828125 34.859375 
z
M 14.59375 34.71875 
Q 14.59375 21.78125 21.546875 14.328125 
Q 28.515625 6.890625 39.015625 6.890625 
Q 49.703125 6.890625 56.609375 14.40625 
Q 63.53125 21.921875 63.53125 35.75 
Q 63.53125 44.484375 60.578125 51 
Q 57.625 57.515625 51.921875 61.109375 
Q 46.234375 64.703125 39.15625 64.703125 
Q 29.109375 64.703125 21.84375 57.78125 
Q 14.59375 50.875 14.59375 34.71875 
z
" id="ArialMT-79"/>
      <path d="M 14.703125 0 
L 6.546875 0 
L 6.546875 71.578125 
L 15.328125 71.578125 
L 15.328125 46.046875 
Q 20.90625 53.03125 29.546875 53.03125 
Q 34.328125 53.03125 38.59375 51.09375 
Q 42.875 49.171875 45.625 45.671875 
Q 48.390625 42.1875 49.953125 37.25 
Q 51.515625 32.328125 51.515625 26.703125 
Q 51.515625 13.375 44.921875 6.09375 
Q 38.328125 -1.171875 29.109375 -1.171875 
Q 19.921875 -1.171875 14.703125 6.5 
z
M 14.59375 26.3125 
Q 14.59375 17 17.140625 12.84375 
Q 21.296875 6.0625 28.375 6.0625 
Q 34.125 6.0625 38.328125 11.0625 
Q 42.53125 16.0625 42.53125 25.984375 
Q 42.53125 36.140625 38.5 40.96875 
Q 34.46875 45.796875 28.765625 45.796875 
Q 23 45.796875 18.796875 40.796875 
Q 14.59375 35.796875 14.59375 26.3125 
z
" id="ArialMT-98"/>
      <path d="M 3.078125 15.484375 
L 11.765625 16.84375 
Q 12.5 11.625 15.84375 8.84375 
Q 19.1875 6.0625 25.203125 6.0625 
Q 31.25 6.0625 34.171875 8.515625 
Q 37.109375 10.984375 37.109375 14.3125 
Q 37.109375 17.28125 34.515625 19 
Q 32.71875 20.171875 25.53125 21.96875 
Q 15.875 24.421875 12.140625 26.203125 
Q 8.40625 27.984375 6.46875 31.125 
Q 4.546875 34.28125 4.546875 38.09375 
Q 4.546875 41.546875 6.125 44.5 
Q 7.71875 47.46875 10.453125 49.421875 
Q 12.5 50.921875 16.03125 51.96875 
Q 19.578125 53.03125 23.640625 53.03125 
Q 29.734375 53.03125 34.34375 51.265625 
Q 38.96875 49.515625 41.15625 46.5 
Q 43.359375 43.5 44.1875 38.484375 
L 35.59375 37.3125 
Q 35.015625 41.3125 32.203125 43.546875 
Q 29.390625 45.796875 24.265625 45.796875 
Q 18.21875 45.796875 15.625 43.796875 
Q 13.03125 41.796875 13.03125 39.109375 
Q 13.03125 37.40625 14.109375 36.03125 
Q 15.1875 34.625 17.484375 33.6875 
Q 18.796875 33.203125 25.25 31.453125 
Q 34.578125 28.953125 38.25 27.359375 
Q 41.9375 25.78125 44.03125 22.75 
Q 46.140625 19.734375 46.140625 15.234375 
Q 46.140625 10.84375 43.578125 6.953125 
Q 41.015625 3.078125 36.171875 0.953125 
Q 31.34375 -1.171875 25.25 -1.171875 
Q 15.140625 -1.171875 9.84375 3.03125 
Q 4.546875 7.234375 3.078125 15.484375 
z
" id="ArialMT-115"/>
      <path d="M 42.09375 16.703125 
L 51.171875 15.578125 
Q 49.03125 7.625 43.21875 3.21875 
Q 37.40625 -1.171875 28.375 -1.171875 
Q 17 -1.171875 10.328125 5.828125 
Q 3.65625 12.84375 3.65625 25.484375 
Q 3.65625 38.578125 10.390625 45.796875 
Q 17.140625 53.03125 27.875 53.03125 
Q 38.28125 53.03125 44.875 45.953125 
Q 51.46875 38.875 51.46875 26.03125 
Q 51.46875 25.25 51.421875 23.6875 
L 12.75 23.6875 
Q 13.234375 15.140625 17.578125 10.59375 
Q 21.921875 6.0625 28.421875 6.0625 
Q 33.25 6.0625 36.671875 8.59375 
Q 40.09375 11.140625 42.09375 16.703125 
z
M 13.234375 30.90625 
L 42.1875 30.90625 
Q 41.609375 37.453125 38.875 40.71875 
Q 34.671875 45.796875 27.984375 45.796875 
Q 21.921875 45.796875 17.796875 41.75 
Q 13.671875 37.703125 13.234375 30.90625 
z
" id="ArialMT-101"/>
      <path d="M 6.5 0 
L 6.5 51.859375 
L 14.40625 51.859375 
L 14.40625 44 
Q 17.4375 49.515625 20 51.265625 
Q 22.5625 53.03125 25.640625 53.03125 
Q 30.078125 53.03125 34.671875 50.203125 
L 31.640625 42.046875 
Q 28.421875 43.953125 25.203125 43.953125 
Q 22.3125 43.953125 20.015625 42.21875 
Q 17.71875 40.484375 16.75 37.40625 
Q 15.28125 32.71875 15.28125 27.15625 
L 15.28125 0 
z
" id="ArialMT-114"/>
      <path d="M 21 0 
L 1.265625 51.859375 
L 10.546875 51.859375 
L 21.6875 20.796875 
Q 23.484375 15.765625 25 10.359375 
Q 26.171875 14.453125 28.265625 20.21875 
L 39.796875 51.859375 
L 48.828125 51.859375 
L 29.203125 0 
z
" id="ArialMT-118"/>
      <path d="M 40.234375 0 
L 40.234375 6.546875 
Q 35.296875 -1.171875 25.734375 -1.171875 
Q 19.53125 -1.171875 14.328125 2.25 
Q 9.125 5.671875 6.265625 11.796875 
Q 3.421875 17.921875 3.421875 25.875 
Q 3.421875 33.640625 6 39.96875 
Q 8.59375 46.296875 13.765625 49.65625 
Q 18.953125 53.03125 25.34375 53.03125 
Q 30.03125 53.03125 33.6875 51.046875 
Q 37.359375 49.078125 39.65625 45.90625 
L 39.65625 71.578125 
L 48.390625 71.578125 
L 48.390625 0 
z
M 12.453125 25.875 
Q 12.453125 15.921875 16.640625 10.984375 
Q 20.84375 6.0625 26.5625 6.0625 
Q 32.328125 6.0625 36.34375 10.765625 
Q 40.375 15.484375 40.375 25.140625 
Q 40.375 35.796875 36.265625 40.765625 
Q 32.171875 45.75 26.171875 45.75 
Q 20.3125 45.75 16.375 40.96875 
Q 12.453125 36.1875 12.453125 25.875 
z
" id="ArialMT-100"/>
      <path id="ArialMT-32"/>
      <path d="M 40.4375 6.390625 
Q 35.546875 2.25 31.03125 0.53125 
Q 26.515625 -1.171875 21.34375 -1.171875 
Q 12.796875 -1.171875 8.203125 3 
Q 3.609375 7.171875 3.609375 13.671875 
Q 3.609375 17.484375 5.34375 20.625 
Q 7.078125 23.78125 9.890625 25.6875 
Q 12.703125 27.59375 16.21875 28.5625 
Q 18.796875 29.25 24.03125 29.890625 
Q 34.671875 31.15625 39.703125 32.90625 
Q 39.75 34.71875 39.75 35.203125 
Q 39.75 40.578125 37.25 42.78125 
Q 33.890625 45.75 27.25 45.75 
Q 21.046875 45.75 18.09375 43.578125 
Q 15.140625 41.40625 13.71875 35.890625 
L 5.125 37.0625 
Q 6.296875 42.578125 8.984375 45.96875 
Q 11.671875 49.359375 16.75 51.1875 
Q 21.828125 53.03125 28.515625 53.03125 
Q 35.15625 53.03125 39.296875 51.46875 
Q 43.453125 49.90625 45.40625 47.53125 
Q 47.359375 45.171875 48.140625 41.546875 
Q 48.578125 39.3125 48.578125 33.453125 
L 48.578125 21.734375 
Q 48.578125 9.46875 49.140625 6.21875 
Q 49.703125 2.984375 51.375 0 
L 42.1875 0 
Q 40.828125 2.734375 40.4375 6.390625 
z
M 39.703125 26.03125 
Q 34.90625 24.078125 25.34375 22.703125 
Q 19.921875 21.921875 17.671875 20.9375 
Q 15.4375 19.96875 14.203125 18.09375 
Q 12.984375 16.21875 12.984375 13.921875 
Q 12.984375 10.40625 15.640625 8.0625 
Q 18.3125 5.71875 23.4375 5.71875 
Q 28.515625 5.71875 32.46875 7.9375 
Q 36.421875 10.15625 38.28125 14.015625 
Q 39.703125 17 39.703125 22.796875 
z
" id="ArialMT-97"/>
      <path d="M 6.390625 0 
L 6.390625 71.578125 
L 15.1875 71.578125 
L 15.1875 0 
z
" id="ArialMT-108"/>
      <path d="M 40.578125 0 
L 40.578125 7.625 
Q 34.515625 -1.171875 24.125 -1.171875 
Q 19.53125 -1.171875 15.546875 0.578125 
Q 11.578125 2.34375 9.640625 5 
Q 7.71875 7.671875 6.9375 11.53125 
Q 6.390625 14.109375 6.390625 19.734375 
L 6.390625 51.859375 
L 15.1875 51.859375 
L 15.1875 23.09375 
Q 15.1875 16.21875 15.71875 13.8125 
Q 16.546875 10.359375 19.234375 8.375 
Q 21.921875 6.390625 25.875 6.390625 
Q 29.828125 6.390625 33.296875 8.421875 
Q 36.765625 10.453125 38.203125 13.9375 
Q 39.65625 17.4375 39.65625 24.078125 
L 39.65625 51.859375 
L 48.4375 51.859375 
L 48.4375 0 
z
" id="ArialMT-117"/>
     </defs>
     <g style="fill:#262626;" transform="translate(500.35875 428.798437)scale(0.24 -0.24)">
      <use xlink:href="#ArialMT-79"/>
      <use x="77.783203" xlink:href="#ArialMT-98"/>
      <use x="133.398438" xlink:href="#ArialMT-115"/>
      <use x="183.398438" xlink:href="#ArialMT-101"/>
      <use x="239.013672" xlink:href="#ArialMT-114"/>
      <use x="272.314453" xlink:href="#ArialMT-118"/>
      <use x="322.314453" xlink:href="#ArialMT-101"/>
      <use x="377.929688" xlink:href="#ArialMT-100"/>
      <use x="433.544922" xlink:href="#ArialMT-32"/>
      <use x="461.328125" xlink:href="#ArialMT-118"/>
      <use x="511.328125" xlink:href="#ArialMT-97"/>
      <use x="566.943359" xlink:href="#ArialMT-108"/>
      <use x="589.160156" xlink:href="#ArialMT-117"/>
      <use x="644.775391" xlink:href="#ArialMT-101"/>
      <use x="700.390625" xlink:href="#ArialMT-115"/>
     </g>
    </g>
   </g>
   <g id="matplotlib.axis_2">
    <g id="ytick_1">
     <g id="line2d_9">
      <path clip-path="url(#p5d645f1b8e)" d="M 144 341.528355 
L 1036.8 341.528355 
" style="fill:none;stroke:#cccccc;stroke-linecap:round;"/>
     </g>
     <g id="text_10">
      <!-- 0.3 -->
      <g style="fill:#262626;" transform="translate(103.92 349.401948)scale(0.22 -0.22)">
       <use xlink:href="#ArialMT-48"/>
       <use x="55.615234" xlink:href="#ArialMT-46"/>
       <use x="83.398438" xlink:href="#ArialMT-51"/>
      </g>
     </g>
    </g>
    <g id="ytick_2">
     <g id="line2d_10">
      <path clip-path="url(#p5d645f1b8e)" d="M 144 280.838773 
L 1036.8 280.838773 
" style="fill:none;stroke:#cccccc;stroke-linecap:round;"/>
     </g>
     <g id="text_11">
      <!-- 0.4 -->
      <g style="fill:#262626;" transform="translate(103.92 288.712367)scale(0.22 -0.22)">
       <use xlink:href="#ArialMT-48"/>
       <use x="55.615234" xlink:href="#ArialMT-46"/>
       <use x="83.398438" xlink:href="#ArialMT-52"/>
      </g>
     </g>
    </g>
    <g id="ytick_3">
     <g id="line2d_11">
      <path clip-path="url(#p5d645f1b8e)" d="M 144 220.149191 
L 1036.8 220.149191 
" style="fill:none;stroke:#cccccc;stroke-linecap:round;"/>
     </g>
     <g id="text_12">
      <!-- 0.5 -->
      <g style="fill:#262626;" transform="translate(103.92 228.022785)scale(0.22 -0.22)">
       <use xlink:href="#ArialMT-48"/>
       <use x="55.615234" xlink:href="#ArialMT-46"/>
       <use x="83.398438" xlink:href="#ArialMT-53"/>
      </g>
     </g>
    </g>
    <g id="ytick_4">
     <g id="line2d_12">
      <path clip-path="url(#p5d645f1b8e)" d="M 144 159.45961 
L 1036.8 159.45961 
" style="fill:none;stroke:#cccccc;stroke-linecap:round;"/>
     </g>
     <g id="text_13">
      <!-- 0.6 -->
      <g style="fill:#262626;" transform="translate(103.92 167.333204)scale(0.22 -0.22)">
       <use xlink:href="#ArialMT-48"/>
       <use x="55.615234" xlink:href="#ArialMT-46"/>
       <use x="83.398438" xlink:href="#ArialMT-54"/>
      </g>
     </g>
    </g>
    <g id="ytick_5">
     <g id="line2d_13">
      <path clip-path="url(#p5d645f1b8e)" d="M 144 98.770028 
L 1036.8 98.770028 
" style="fill:none;stroke:#cccccc;stroke-linecap:round;"/>
     </g>
     <g id="text_14">
      <!-- 0.7 -->
      <g style="fill:#262626;" transform="translate(103.92 106.643622)scale(0.22 -0.22)">
       <use xlink:href="#ArialMT-48"/>
       <use x="55.615234" xlink:href="#ArialMT-46"/>
       <use x="83.398438" xlink:href="#ArialMT-55"/>
      </g>
     </g>
    </g>
    <g id="text_15">
     <!-- Fitted values -->
     <defs>
      <path d="M 8.203125 0 
L 8.203125 71.578125 
L 56.5 71.578125 
L 56.5 63.140625 
L 17.671875 63.140625 
L 17.671875 40.96875 
L 51.265625 40.96875 
L 51.265625 32.515625 
L 17.671875 32.515625 
L 17.671875 0 
z
" id="ArialMT-70"/>
      <path d="M 6.640625 61.46875 
L 6.640625 71.578125 
L 15.4375 71.578125 
L 15.4375 61.46875 
z
M 6.640625 0 
L 6.640625 51.859375 
L 15.4375 51.859375 
L 15.4375 0 
z
" id="ArialMT-105"/>
      <path d="M 25.78125 7.859375 
L 27.046875 0.09375 
Q 23.34375 -0.6875 20.40625 -0.6875 
Q 15.625 -0.6875 12.984375 0.828125 
Q 10.359375 2.34375 9.28125 4.8125 
Q 8.203125 7.28125 8.203125 15.1875 
L 8.203125 45.015625 
L 1.765625 45.015625 
L 1.765625 51.859375 
L 8.203125 51.859375 
L 8.203125 64.703125 
L 16.9375 69.96875 
L 16.9375 51.859375 
L 25.78125 51.859375 
L 25.78125 45.015625 
L 16.9375 45.015625 
L 16.9375 14.703125 
Q 16.9375 10.9375 17.40625 9.859375 
Q 17.875 8.796875 18.921875 8.15625 
Q 19.96875 7.515625 21.921875 7.515625 
Q 23.390625 7.515625 25.78125 7.859375 
z
" id="ArialMT-116"/>
     </defs>
     <g style="fill:#262626;" transform="translate(95.15 282.94875)rotate(-90)scale(0.24 -0.24)">
      <use xlink:href="#ArialMT-70"/>
      <use x="61.083984" xlink:href="#ArialMT-105"/>
      <use x="83.300781" xlink:href="#ArialMT-116"/>
      <use x="111.083984" xlink:href="#ArialMT-116"/>
      <use x="138.867188" xlink:href="#ArialMT-101"/>
      <use x="194.482422" xlink:href="#ArialMT-100"/>
      <use x="250.097656" xlink:href="#ArialMT-32"/>
      <use x="277.880859" xlink:href="#ArialMT-118"/>
      <use x="327.880859" xlink:href="#ArialMT-97"/>
      <use x="383.496094" xlink:href="#ArialMT-108"/>
      <use x="405.712891" xlink:href="#ArialMT-117"/>
      <use x="461.328125" xlink:href="#ArialMT-101"/>
      <use x="516.943359" xlink:href="#ArialMT-115"/>
     </g>
    </g>
   </g>
   <g id="PathCollection_1">
    <defs>
     <path d="M -3 0 
L 3 0 
M 0 3 
L 0 -3 
" id="m842ed5105d" style="stroke:#4c72b0;stroke-width:1.5;"/>
    </defs>
    <g clip-path="url(#p5d645f1b8e)">
     <use style="fill:#4c72b0;stroke:#4c72b0;stroke-width:1.5;" x="221.223975" xlink:href="#m842ed5105d" y="321.602129"/>
     <use style="fill:#4c72b0;stroke:#4c72b0;stroke-width:1.5;" x="871.502875" xlink:href="#m842ed5105d" y="137.176063"/>
     <use style="fill:#4c72b0;stroke:#4c72b0;stroke-width:1.5;" x="359.65589" xlink:href="#m842ed5105d" y="269.453469"/>
     <use style="fill:#4c72b0;stroke:#4c72b0;stroke-width:1.5;" x="257.03415" xlink:href="#m842ed5105d" y="304.168684"/>
     <use style="fill:#4c72b0;stroke:#4c72b0;stroke-width:1.5;" x="231.394194" xlink:href="#m842ed5105d" y="287.674868"/>
     <use style="fill:#4c72b0;stroke:#4c72b0;stroke-width:1.5;" x="883.920662" xlink:href="#m842ed5105d" y="128.374701"/>
     <use style="fill:#4c72b0;stroke:#4c72b0;stroke-width:1.5;" x="881.85852" xlink:href="#m842ed5105d" y="137.135752"/>
     <use style="fill:#4c72b0;stroke:#4c72b0;stroke-width:1.5;" x="887.023674" xlink:href="#m842ed5105d" y="170.545211"/>
     <use style="fill:#4c72b0;stroke:#4c72b0;stroke-width:1.5;" x="227.455529" xlink:href="#m842ed5105d" y="306.22335"/>
     <use style="fill:#4c72b0;stroke:#4c72b0;stroke-width:1.5;" x="885.481345" xlink:href="#m842ed5105d" y="160.670101"/>
     <use style="fill:#4c72b0;stroke:#4c72b0;stroke-width:1.5;" x="873.770178" xlink:href="#m842ed5105d" y="134.306312"/>
     <use style="fill:#4c72b0;stroke:#4c72b0;stroke-width:1.5;" x="906.960806" xlink:href="#m842ed5105d" y="145.385117"/>
     <use style="fill:#4c72b0;stroke:#4c72b0;stroke-width:1.5;" x="749.875008" xlink:href="#m842ed5105d" y="213.603218"/>
     <use style="fill:#4c72b0;stroke:#4c72b0;stroke-width:1.5;" x="326.096835" xlink:href="#m842ed5105d" y="250.792922"/>
     <use style="fill:#4c72b0;stroke:#4c72b0;stroke-width:1.5;" x="226.917334" xlink:href="#m842ed5105d" y="255.739085"/>
     <use style="fill:#4c72b0;stroke:#4c72b0;stroke-width:1.5;" x="887.446557" xlink:href="#m842ed5105d" y="151.188059"/>
     <use style="fill:#4c72b0;stroke:#4c72b0;stroke-width:1.5;" x="841.655192" xlink:href="#m842ed5105d" y="161.830874"/>
     <use style="fill:#4c72b0;stroke:#4c72b0;stroke-width:1.5;" x="861.368628" xlink:href="#m842ed5105d" y="151.709891"/>
     <use style="fill:#4c72b0;stroke:#4c72b0;stroke-width:1.5;" x="216.47103" xlink:href="#m842ed5105d" y="307.948268"/>
     <use style="fill:#4c72b0;stroke:#4c72b0;stroke-width:1.5;" x="887.930776" xlink:href="#m842ed5105d" y="134.42016"/>
     <use style="fill:#4c72b0;stroke:#4c72b0;stroke-width:1.5;" x="848.700372" xlink:href="#m842ed5105d" y="157.539441"/>
     <use style="fill:#4c72b0;stroke:#4c72b0;stroke-width:1.5;" x="858.288561" xlink:href="#m842ed5105d" y="197.802474"/>
     <use style="fill:#4c72b0;stroke:#4c72b0;stroke-width:1.5;" x="887.189603" xlink:href="#m842ed5105d" y="134.263692"/>
     <use style="fill:#4c72b0;stroke:#4c72b0;stroke-width:1.5;" x="203.442196" xlink:href="#m842ed5105d" y="357.592354"/>
     <use style="fill:#4c72b0;stroke:#4c72b0;stroke-width:1.5;" x="224.320322" xlink:href="#m842ed5105d" y="287.892893"/>
     <use style="fill:#4c72b0;stroke:#4c72b0;stroke-width:1.5;" x="219.524082" xlink:href="#m842ed5105d" y="303.501388"/>
     <use style="fill:#4c72b0;stroke:#4c72b0;stroke-width:1.5;" x="245.705915" xlink:href="#m842ed5105d" y="319.665325"/>
     <use style="fill:#4c72b0;stroke:#4c72b0;stroke-width:1.5;" x="866.331408" xlink:href="#m842ed5105d" y="105.968039"/>
     <use style="fill:#4c72b0;stroke:#4c72b0;stroke-width:1.5;" x="871.162848" xlink:href="#m842ed5105d" y="94.660306"/>
     <use style="fill:#4c72b0;stroke:#4c72b0;stroke-width:1.5;" x="384.442032" xlink:href="#m842ed5105d" y="252.309688"/>
     <use style="fill:#4c72b0;stroke:#4c72b0;stroke-width:1.5;" x="883.14478" xlink:href="#m842ed5105d" y="127.971062"/>
     <use style="fill:#4c72b0;stroke:#4c72b0;stroke-width:1.5;" x="219.832157" xlink:href="#m842ed5105d" y="265.528901"/>
     <use style="fill:#4c72b0;stroke:#4c72b0;stroke-width:1.5;" x="233.147184" xlink:href="#m842ed5105d" y="308.455873"/>
     <use style="fill:#4c72b0;stroke:#4c72b0;stroke-width:1.5;" x="218.856232" xlink:href="#m842ed5105d" y="277.162858"/>
     <use style="fill:#4c72b0;stroke:#4c72b0;stroke-width:1.5;" x="237.383404" xlink:href="#m842ed5105d" y="262.094351"/>
     <use style="fill:#4c72b0;stroke:#4c72b0;stroke-width:1.5;" x="222.239461" xlink:href="#m842ed5105d" y="259.079932"/>
     <use style="fill:#4c72b0;stroke:#4c72b0;stroke-width:1.5;" x="881.299614" xlink:href="#m842ed5105d" y="115.28671"/>
     <use style="fill:#4c72b0;stroke:#4c72b0;stroke-width:1.5;" x="891.130794" xlink:href="#m842ed5105d" y="121.691924"/>
     <use style="fill:#4c72b0;stroke:#4c72b0;stroke-width:1.5;" x="588.100569" xlink:href="#m842ed5105d" y="223.882153"/>
     <use style="fill:#4c72b0;stroke:#4c72b0;stroke-width:1.5;" x="265.442126" xlink:href="#m842ed5105d" y="275.568231"/>
     <use style="fill:#4c72b0;stroke:#4c72b0;stroke-width:1.5;" x="267.621173" xlink:href="#m842ed5105d" y="306.07559"/>
     <use style="fill:#4c72b0;stroke:#4c72b0;stroke-width:1.5;" x="878.740612" xlink:href="#m842ed5105d" y="128.207833"/>
     <use style="fill:#4c72b0;stroke:#4c72b0;stroke-width:1.5;" x="215.4764" xlink:href="#m842ed5105d" y="334.156927"/>
     <use style="fill:#4c72b0;stroke:#4c72b0;stroke-width:1.5;" x="873.354001" xlink:href="#m842ed5105d" y="102.565058"/>
     <use style="fill:#4c72b0;stroke:#4c72b0;stroke-width:1.5;" x="894.645903" xlink:href="#m842ed5105d" y="127.441246"/>
     <use style="fill:#4c72b0;stroke:#4c72b0;stroke-width:1.5;" x="848.084808" xlink:href="#m842ed5105d" y="152.084157"/>
     <use style="fill:#4c72b0;stroke:#4c72b0;stroke-width:1.5;" x="841.104626" xlink:href="#m842ed5105d" y="120.707563"/>
     <use style="fill:#4c72b0;stroke:#4c72b0;stroke-width:1.5;" x="191.9891" xlink:href="#m842ed5105d" y="294.912082"/>
     <use style="fill:#4c72b0;stroke:#4c72b0;stroke-width:1.5;" x="229.553094" xlink:href="#m842ed5105d" y="267.935538"/>
     <use style="fill:#4c72b0;stroke:#4c72b0;stroke-width:1.5;" x="737.256916" xlink:href="#m842ed5105d" y="182.243411"/>
     <use style="fill:#4c72b0;stroke:#4c72b0;stroke-width:1.5;" x="803.349708" xlink:href="#m842ed5105d" y="159.214057"/>
     <use style="fill:#4c72b0;stroke:#4c72b0;stroke-width:1.5;" x="234.06675" xlink:href="#m842ed5105d" y="300.679613"/>
     <use style="fill:#4c72b0;stroke:#4c72b0;stroke-width:1.5;" x="885.760112" xlink:href="#m842ed5105d" y="102.777379"/>
     <use style="fill:#4c72b0;stroke:#4c72b0;stroke-width:1.5;" x="872.595786" xlink:href="#m842ed5105d" y="123.64782"/>
     <use style="fill:#4c72b0;stroke:#4c72b0;stroke-width:1.5;" x="956.894907" xlink:href="#m842ed5105d" y="136.005688"/>
     <use style="fill:#4c72b0;stroke:#4c72b0;stroke-width:1.5;" x="880.270144" xlink:href="#m842ed5105d" y="129.687521"/>
     <use style="fill:#4c72b0;stroke:#4c72b0;stroke-width:1.5;" x="233.085396" xlink:href="#m842ed5105d" y="332.331781"/>
     <use style="fill:#4c72b0;stroke:#4c72b0;stroke-width:1.5;" x="844.429498" xlink:href="#m842ed5105d" y="169.475033"/>
     <use style="fill:#4c72b0;stroke:#4c72b0;stroke-width:1.5;" x="250.236522" xlink:href="#m842ed5105d" y="334.810093"/>
     <use style="fill:#4c72b0;stroke:#4c72b0;stroke-width:1.5;" x="825.41954" xlink:href="#m842ed5105d" y="199.547761"/>
     <use style="fill:#4c72b0;stroke:#4c72b0;stroke-width:1.5;" x="447.400907" xlink:href="#m842ed5105d" y="196.862174"/>
     <use style="fill:#4c72b0;stroke:#4c72b0;stroke-width:1.5;" x="892.662189" xlink:href="#m842ed5105d" y="126.926202"/>
     <use style="fill:#4c72b0;stroke:#4c72b0;stroke-width:1.5;" x="223.302246" xlink:href="#m842ed5105d" y="300.62441"/>
     <use style="fill:#4c72b0;stroke:#4c72b0;stroke-width:1.5;" x="231.376391" xlink:href="#m842ed5105d" y="319.86746"/>
     <use style="fill:#4c72b0;stroke:#4c72b0;stroke-width:1.5;" x="883.92831" xlink:href="#m842ed5105d" y="142.496017"/>
     <use style="fill:#4c72b0;stroke:#4c72b0;stroke-width:1.5;" x="228.723799" xlink:href="#m842ed5105d" y="327.341381"/>
     <use style="fill:#4c72b0;stroke:#4c72b0;stroke-width:1.5;" x="864.168182" xlink:href="#m842ed5105d" y="123.366363"/>
     <use style="fill:#4c72b0;stroke:#4c72b0;stroke-width:1.5;" x="802.507129" xlink:href="#m842ed5105d" y="195.688562"/>
     <use style="fill:#4c72b0;stroke:#4c72b0;stroke-width:1.5;" x="263.952062" xlink:href="#m842ed5105d" y="249.990796"/>
     <use style="fill:#4c72b0;stroke:#4c72b0;stroke-width:1.5;" x="666.906772" xlink:href="#m842ed5105d" y="203.041554"/>
     <use style="fill:#4c72b0;stroke:#4c72b0;stroke-width:1.5;" x="248.552768" xlink:href="#m842ed5105d" y="288.935882"/>
     <use style="fill:#4c72b0;stroke:#4c72b0;stroke-width:1.5;" x="882.363395" xlink:href="#m842ed5105d" y="167.902466"/>
     <use style="fill:#4c72b0;stroke:#4c72b0;stroke-width:1.5;" x="242.069361" xlink:href="#m842ed5105d" y="332.893113"/>
     <use style="fill:#4c72b0;stroke:#4c72b0;stroke-width:1.5;" x="246.186438" xlink:href="#m842ed5105d" y="283.16205"/>
     <use style="fill:#4c72b0;stroke:#4c72b0;stroke-width:1.5;" x="988.8109" xlink:href="#m842ed5105d" y="72.247646"/>
     <use style="fill:#4c72b0;stroke:#4c72b0;stroke-width:1.5;" x="878.56024" xlink:href="#m842ed5105d" y="164.05643"/>
     <use style="fill:#4c72b0;stroke:#4c72b0;stroke-width:1.5;" x="235.070675" xlink:href="#m842ed5105d" y="285.148378"/>
     <use style="fill:#4c72b0;stroke:#4c72b0;stroke-width:1.5;" x="865.713219" xlink:href="#m842ed5105d" y="104.886327"/>
     <use style="fill:#4c72b0;stroke:#4c72b0;stroke-width:1.5;" x="218.2086" xlink:href="#m842ed5105d" y="306.981965"/>
     <use style="fill:#4c72b0;stroke:#4c72b0;stroke-width:1.5;" x="867.023134" xlink:href="#m842ed5105d" y="120.220665"/>
     <use style="fill:#4c72b0;stroke:#4c72b0;stroke-width:1.5;" x="890.195627" xlink:href="#m842ed5105d" y="137.18105"/>
     <use style="fill:#4c72b0;stroke:#4c72b0;stroke-width:1.5;" x="871.788993" xlink:href="#m842ed5105d" y="161.744386"/>
     <use style="fill:#4c72b0;stroke:#4c72b0;stroke-width:1.5;" x="225.145317" xlink:href="#m842ed5105d" y="293.371317"/>
     <use style="fill:#4c72b0;stroke:#4c72b0;stroke-width:1.5;" x="208.836998" xlink:href="#m842ed5105d" y="308.786819"/>
     <use style="fill:#4c72b0;stroke:#4c72b0;stroke-width:1.5;" x="288.081603" xlink:href="#m842ed5105d" y="271.521858"/>
     <use style="fill:#4c72b0;stroke:#4c72b0;stroke-width:1.5;" x="863.997832" xlink:href="#m842ed5105d" y="145.175358"/>
     <use style="fill:#4c72b0;stroke:#4c72b0;stroke-width:1.5;" x="885.049632" xlink:href="#m842ed5105d" y="109.741548"/>
     <use style="fill:#4c72b0;stroke:#4c72b0;stroke-width:1.5;" x="871.205876" xlink:href="#m842ed5105d" y="111.458565"/>
     <use style="fill:#4c72b0;stroke:#4c72b0;stroke-width:1.5;" x="219.698154" xlink:href="#m842ed5105d" y="299.758971"/>
     <use style="fill:#4c72b0;stroke:#4c72b0;stroke-width:1.5;" x="228.355588" xlink:href="#m842ed5105d" y="352.844829"/>
     <use style="fill:#4c72b0;stroke:#4c72b0;stroke-width:1.5;" x="247.725579" xlink:href="#m842ed5105d" y="287.622567"/>
     <use style="fill:#4c72b0;stroke:#4c72b0;stroke-width:1.5;" x="883.080493" xlink:href="#m842ed5105d" y="180.995344"/>
     <use style="fill:#4c72b0;stroke:#4c72b0;stroke-width:1.5;" x="878.61368" xlink:href="#m842ed5105d" y="120.854563"/>
     <use style="fill:#4c72b0;stroke:#4c72b0;stroke-width:1.5;" x="909.64805" xlink:href="#m842ed5105d" y="142.475991"/>
     <use style="fill:#4c72b0;stroke:#4c72b0;stroke-width:1.5;" x="672.21196" xlink:href="#m842ed5105d" y="204.163804"/>
     <use style="fill:#4c72b0;stroke:#4c72b0;stroke-width:1.5;" x="537.012595" xlink:href="#m842ed5105d" y="250.295559"/>
    </g>
   </g>
   <g id="patch_3">
    <path d="M 144 378 
L 144 51.84 
" style="fill:none;stroke:#cccccc;stroke-linecap:square;stroke-linejoin:miter;stroke-width:1.25;"/>
   </g>
   <g id="patch_4">
    <path d="M 1036.8 378 
L 1036.8 51.84 
" style="fill:none;stroke:#cccccc;stroke-linecap:square;stroke-linejoin:miter;stroke-width:1.25;"/>
   </g>
   <g id="patch_5">
    <path d="M 144 378 
L 1036.8 378 
" style="fill:none;stroke:#cccccc;stroke-linecap:square;stroke-linejoin:miter;stroke-width:1.25;"/>
   </g>
   <g id="patch_6">
    <path d="M 144 51.84 
L 1036.8 51.84 
" style="fill:none;stroke:#cccccc;stroke-linecap:square;stroke-linejoin:miter;stroke-width:1.25;"/>
   </g>
   <g id="text_16">
    <!-- Model Fit Plot -->
    <defs>
     <path d="M 7.421875 0 
L 7.421875 71.578125 
L 21.6875 71.578125 
L 38.625 20.90625 
Q 40.96875 13.8125 42.046875 10.296875 
Q 43.265625 14.203125 45.84375 21.78125 
L 62.984375 71.578125 
L 75.734375 71.578125 
L 75.734375 0 
L 66.609375 0 
L 66.609375 59.90625 
L 45.796875 0 
L 37.25 0 
L 16.546875 60.9375 
L 16.546875 0 
z
" id="ArialMT-77"/>
     <path d="M 3.328125 25.921875 
Q 3.328125 40.328125 11.328125 47.265625 
Q 18.015625 53.03125 27.640625 53.03125 
Q 38.328125 53.03125 45.109375 46.015625 
Q 51.90625 39.015625 51.90625 26.65625 
Q 51.90625 16.65625 48.90625 10.90625 
Q 45.90625 5.171875 40.15625 2 
Q 34.421875 -1.171875 27.640625 -1.171875 
Q 16.75 -1.171875 10.03125 5.8125 
Q 3.328125 12.796875 3.328125 25.921875 
z
M 12.359375 25.921875 
Q 12.359375 15.96875 16.703125 11.015625 
Q 21.046875 6.0625 27.640625 6.0625 
Q 34.1875 6.0625 38.53125 11.03125 
Q 42.875 16.015625 42.875 26.21875 
Q 42.875 35.84375 38.5 40.796875 
Q 34.125 45.75 27.640625 45.75 
Q 21.046875 45.75 16.703125 40.8125 
Q 12.359375 35.890625 12.359375 25.921875 
z
" id="ArialMT-111"/>
     <path d="M 7.71875 0 
L 7.71875 71.578125 
L 34.71875 71.578125 
Q 41.84375 71.578125 45.609375 70.90625 
Q 50.875 70.015625 54.4375 67.546875 
Q 58.015625 65.09375 60.1875 60.640625 
Q 62.359375 56.203125 62.359375 50.875 
Q 62.359375 41.75 56.546875 35.421875 
Q 50.734375 29.109375 35.546875 29.109375 
L 17.1875 29.109375 
L 17.1875 0 
z
M 17.1875 37.546875 
L 35.6875 37.546875 
Q 44.875 37.546875 48.734375 40.96875 
Q 52.59375 44.390625 52.59375 50.59375 
Q 52.59375 55.078125 50.3125 58.265625 
Q 48.046875 61.46875 44.34375 62.5 
Q 41.9375 63.140625 35.5 63.140625 
L 17.1875 63.140625 
z
" id="ArialMT-80"/>
    </defs>
    <g style="fill:#262626;" transform="translate(517.044375 45.84)scale(0.24 -0.24)">
     <use xlink:href="#ArialMT-77"/>
     <use x="83.300781" xlink:href="#ArialMT-111"/>
     <use x="138.916016" xlink:href="#ArialMT-100"/>
     <use x="194.53125" xlink:href="#ArialMT-101"/>
     <use x="250.146484" xlink:href="#ArialMT-108"/>
     <use x="272.363281" xlink:href="#ArialMT-32"/>
     <use x="300.146484" xlink:href="#ArialMT-70"/>
     <use x="361.230469" xlink:href="#ArialMT-105"/>
     <use x="383.447266" xlink:href="#ArialMT-116"/>
     <use x="411.230469" xlink:href="#ArialMT-32"/>
     <use x="439.013672" xlink:href="#ArialMT-80"/>
     <use x="505.712891" xlink:href="#ArialMT-108"/>
     <use x="527.929688" xlink:href="#ArialMT-111"/>
     <use x="583.544922" xlink:href="#ArialMT-116"/>
    </g>
   </g>
  </g>
 </g>
 <defs>
  <clipPath id="p5d645f1b8e">
   <rect height="326.16" width="892.8" x="144" y="51.84"/>
  </clipPath>
 </defs>
</svg>
