<?xml version="1.0" encoding="utf-8" standalone="no"?>
<!DOCTYPE svg PUBLIC "-//W3C//DTD SVG 1.1//EN"
  "http://www.w3.org/Graphics/SVG/1.1/DTD/svg11.dtd">
<!-- Created with matplotlib (https://matplotlib.org/) -->
<svg height="288pt" version="1.1" viewBox="0 0 432 288" width="432pt" xmlns="http://www.w3.org/2000/svg" xmlns:xlink="http://www.w3.org/1999/xlink">
 <defs>
  <style type="text/css">
*{stroke-linecap:butt;stroke-linejoin:round;}
  </style>
 </defs>
 <g id="figure_1">
  <g id="patch_1">
   <path d="M 0 288 
L 432 288 
L 432 0 
L 0 0 
z
" style="fill:#ffffff;"/>
  </g>
  <g id="axes_1">
   <g id="patch_2">
    <path d="M 54 252 
L 388.8 252 
L 388.8 34.56 
L 54 34.56 
z
" style="fill:#ffffff;"/>
   </g>
   <g id="matplotlib.axis_1">
    <g id="xtick_1">
     <g id="line2d_1">
      <path clip-path="url(#p813807b6d2)" d="M 153.669221 252 
L 153.669221 34.56 
" style="fill:none;stroke:#cccccc;stroke-linecap:round;"/>
     </g>
     <g id="text_1">
      <!-- 0.4 -->
      <defs>
       <path d="M 4.15625 35.296875 
Q 4.15625 48 6.765625 55.734375 
Q 9.375 63.484375 14.515625 67.671875 
Q 19.671875 71.875 27.484375 71.875 
Q 33.25 71.875 37.59375 69.546875 
Q 41.9375 67.234375 44.765625 62.859375 
Q 47.609375 58.5 49.21875 52.21875 
Q 50.828125 45.953125 50.828125 35.296875 
Q 50.828125 22.703125 48.234375 14.96875 
Q 45.65625 7.234375 40.5 3 
Q 35.359375 -1.21875 27.484375 -1.21875 
Q 17.140625 -1.21875 11.234375 6.203125 
Q 4.15625 15.140625 4.15625 35.296875 
z
M 13.1875 35.296875 
Q 13.1875 17.671875 17.3125 11.828125 
Q 21.4375 6 27.484375 6 
Q 33.546875 6 37.671875 11.859375 
Q 41.796875 17.71875 41.796875 35.296875 
Q 41.796875 52.984375 37.671875 58.78125 
Q 33.546875 64.59375 27.390625 64.59375 
Q 21.34375 64.59375 17.71875 59.46875 
Q 13.1875 52.9375 13.1875 35.296875 
z
" id="ArialMT-48"/>
       <path d="M 9.078125 0 
L 9.078125 10.015625 
L 19.09375 10.015625 
L 19.09375 0 
z
" id="ArialMT-46"/>
       <path d="M 32.328125 0 
L 32.328125 17.140625 
L 1.265625 17.140625 
L 1.265625 25.203125 
L 33.9375 71.578125 
L 41.109375 71.578125 
L 41.109375 25.203125 
L 50.78125 25.203125 
L 50.78125 17.140625 
L 41.109375 17.140625 
L 41.109375 0 
z
M 32.328125 25.203125 
L 32.328125 57.46875 
L 9.90625 25.203125 
z
" id="ArialMT-52"/>
      </defs>
      <g style="fill:#262626;" transform="translate(138.379221 277.247187)scale(0.22 -0.22)">
       <use xlink:href="#ArialMT-48"/>
       <use x="55.615234" xlink:href="#ArialMT-46"/>
       <use x="83.398438" xlink:href="#ArialMT-52"/>
      </g>
     </g>
    </g>
    <g id="xtick_2">
     <g id="line2d_2">
      <path clip-path="url(#p813807b6d2)" d="M 278.384911 252 
L 278.384911 34.56 
" style="fill:none;stroke:#cccccc;stroke-linecap:round;"/>
     </g>
     <g id="text_2">
      <!-- 0.6 -->
      <defs>
       <path d="M 49.75 54.046875 
L 41.015625 53.375 
Q 39.84375 58.546875 37.703125 60.890625 
Q 34.125 64.65625 28.90625 64.65625 
Q 24.703125 64.65625 21.53125 62.3125 
Q 17.390625 59.28125 14.984375 53.46875 
Q 12.59375 47.65625 12.5 36.921875 
Q 15.671875 41.75 20.265625 44.09375 
Q 24.859375 46.4375 29.890625 46.4375 
Q 38.671875 46.4375 44.84375 39.96875 
Q 51.03125 33.5 51.03125 23.25 
Q 51.03125 16.5 48.125 10.71875 
Q 45.21875 4.9375 40.140625 1.859375 
Q 35.0625 -1.21875 28.609375 -1.21875 
Q 17.625 -1.21875 10.6875 6.859375 
Q 3.765625 14.9375 3.765625 33.5 
Q 3.765625 54.25 11.421875 63.671875 
Q 18.109375 71.875 29.4375 71.875 
Q 37.890625 71.875 43.28125 67.140625 
Q 48.6875 62.40625 49.75 54.046875 
z
M 13.875 23.1875 
Q 13.875 18.65625 15.796875 14.5 
Q 17.71875 10.359375 21.1875 8.171875 
Q 24.65625 6 28.46875 6 
Q 34.03125 6 38.03125 10.484375 
Q 42.046875 14.984375 42.046875 22.703125 
Q 42.046875 30.125 38.078125 34.390625 
Q 34.125 38.671875 28.125 38.671875 
Q 22.171875 38.671875 18.015625 34.390625 
Q 13.875 30.125 13.875 23.1875 
z
" id="ArialMT-54"/>
      </defs>
      <g style="fill:#262626;" transform="translate(263.094911 277.247187)scale(0.22 -0.22)">
       <use xlink:href="#ArialMT-48"/>
       <use x="55.615234" xlink:href="#ArialMT-46"/>
       <use x="83.398438" xlink:href="#ArialMT-54"/>
      </g>
     </g>
    </g>
    <g id="text_3">
     <!-- Fitted values -->
     <defs>
      <path d="M 8.203125 0 
L 8.203125 71.578125 
L 56.5 71.578125 
L 56.5 63.140625 
L 17.671875 63.140625 
L 17.671875 40.96875 
L 51.265625 40.96875 
L 51.265625 32.515625 
L 17.671875 32.515625 
L 17.671875 0 
z
" id="ArialMT-70"/>
      <path d="M 6.640625 61.46875 
L 6.640625 71.578125 
L 15.4375 71.578125 
L 15.4375 61.46875 
z
M 6.640625 0 
L 6.640625 51.859375 
L 15.4375 51.859375 
L 15.4375 0 
z
" id="ArialMT-105"/>
      <path d="M 25.78125 7.859375 
L 27.046875 0.09375 
Q 23.34375 -0.6875 20.40625 -0.6875 
Q 15.625 -0.6875 12.984375 0.828125 
Q 10.359375 2.34375 9.28125 4.8125 
Q 8.203125 7.28125 8.203125 15.1875 
L 8.203125 45.015625 
L 1.765625 45.015625 
L 1.765625 51.859375 
L 8.203125 51.859375 
L 8.203125 64.703125 
L 16.9375 69.96875 
L 16.9375 51.859375 
L 25.78125 51.859375 
L 25.78125 45.015625 
L 16.9375 45.015625 
L 16.9375 14.703125 
Q 16.9375 10.9375 17.40625 9.859375 
Q 17.875 8.796875 18.921875 8.15625 
Q 19.96875 7.515625 21.921875 7.515625 
Q 23.390625 7.515625 25.78125 7.859375 
z
" id="ArialMT-116"/>
      <path d="M 42.09375 16.703125 
L 51.171875 15.578125 
Q 49.03125 7.625 43.21875 3.21875 
Q 37.40625 -1.171875 28.375 -1.171875 
Q 17 -1.171875 10.328125 5.828125 
Q 3.65625 12.84375 3.65625 25.484375 
Q 3.65625 38.578125 10.390625 45.796875 
Q 17.140625 53.03125 27.875 53.03125 
Q 38.28125 53.03125 44.875 45.953125 
Q 51.46875 38.875 51.46875 26.03125 
Q 51.46875 25.25 51.421875 23.6875 
L 12.75 23.6875 
Q 13.234375 15.140625 17.578125 10.59375 
Q 21.921875 6.0625 28.421875 6.0625 
Q 33.25 6.0625 36.671875 8.59375 
Q 40.09375 11.140625 42.09375 16.703125 
z
M 13.234375 30.90625 
L 42.1875 30.90625 
Q 41.609375 37.453125 38.875 40.71875 
Q 34.671875 45.796875 27.984375 45.796875 
Q 21.921875 45.796875 17.796875 41.75 
Q 13.671875 37.703125 13.234375 30.90625 
z
" id="ArialMT-101"/>
      <path d="M 40.234375 0 
L 40.234375 6.546875 
Q 35.296875 -1.171875 25.734375 -1.171875 
Q 19.53125 -1.171875 14.328125 2.25 
Q 9.125 5.671875 6.265625 11.796875 
Q 3.421875 17.921875 3.421875 25.875 
Q 3.421875 33.640625 6 39.96875 
Q 8.59375 46.296875 13.765625 49.65625 
Q 18.953125 53.03125 25.34375 53.03125 
Q 30.03125 53.03125 33.6875 51.046875 
Q 37.359375 49.078125 39.65625 45.90625 
L 39.65625 71.578125 
L 48.390625 71.578125 
L 48.390625 0 
z
M 12.453125 25.875 
Q 12.453125 15.921875 16.640625 10.984375 
Q 20.84375 6.0625 26.5625 6.0625 
Q 32.328125 6.0625 36.34375 10.765625 
Q 40.375 15.484375 40.375 25.140625 
Q 40.375 35.796875 36.265625 40.765625 
Q 32.171875 45.75 26.171875 45.75 
Q 20.3125 45.75 16.375 40.96875 
Q 12.453125 36.1875 12.453125 25.875 
z
" id="ArialMT-100"/>
      <path id="ArialMT-32"/>
      <path d="M 21 0 
L 1.265625 51.859375 
L 10.546875 51.859375 
L 21.6875 20.796875 
Q 23.484375 15.765625 25 10.359375 
Q 26.171875 14.453125 28.265625 20.21875 
L 39.796875 51.859375 
L 48.828125 51.859375 
L 29.203125 0 
z
" id="ArialMT-118"/>
      <path d="M 40.4375 6.390625 
Q 35.546875 2.25 31.03125 0.53125 
Q 26.515625 -1.171875 21.34375 -1.171875 
Q 12.796875 -1.171875 8.203125 3 
Q 3.609375 7.171875 3.609375 13.671875 
Q 3.609375 17.484375 5.34375 20.625 
Q 7.078125 23.78125 9.890625 25.6875 
Q 12.703125 27.59375 16.21875 28.5625 
Q 18.796875 29.25 24.03125 29.890625 
Q 34.671875 31.15625 39.703125 32.90625 
Q 39.75 34.71875 39.75 35.203125 
Q 39.75 40.578125 37.25 42.78125 
Q 33.890625 45.75 27.25 45.75 
Q 21.046875 45.75 18.09375 43.578125 
Q 15.140625 41.40625 13.71875 35.890625 
L 5.125 37.0625 
Q 6.296875 42.578125 8.984375 45.96875 
Q 11.671875 49.359375 16.75 51.1875 
Q 21.828125 53.03125 28.515625 53.03125 
Q 35.15625 53.03125 39.296875 51.46875 
Q 43.453125 49.90625 45.40625 47.53125 
Q 47.359375 45.171875 48.140625 41.546875 
Q 48.578125 39.3125 48.578125 33.453125 
L 48.578125 21.734375 
Q 48.578125 9.46875 49.140625 6.21875 
Q 49.703125 2.984375 51.375 0 
L 42.1875 0 
Q 40.828125 2.734375 40.4375 6.390625 
z
M 39.703125 26.03125 
Q 34.90625 24.078125 25.34375 22.703125 
Q 19.921875 21.921875 17.671875 20.9375 
Q 15.4375 19.96875 14.203125 18.09375 
Q 12.984375 16.21875 12.984375 13.921875 
Q 12.984375 10.40625 15.640625 8.0625 
Q 18.3125 5.71875 23.4375 5.71875 
Q 28.515625 5.71875 32.46875 7.9375 
Q 36.421875 10.15625 38.28125 14.015625 
Q 39.703125 17 39.703125 22.796875 
z
" id="ArialMT-97"/>
      <path d="M 6.390625 0 
L 6.390625 71.578125 
L 15.1875 71.578125 
L 15.1875 0 
z
" id="ArialMT-108"/>
      <path d="M 40.578125 0 
L 40.578125 7.625 
Q 34.515625 -1.171875 24.125 -1.171875 
Q 19.53125 -1.171875 15.546875 0.578125 
Q 11.578125 2.34375 9.640625 5 
Q 7.71875 7.671875 6.9375 11.53125 
Q 6.390625 14.109375 6.390625 19.734375 
L 6.390625 51.859375 
L 15.1875 51.859375 
L 15.1875 23.09375 
Q 15.1875 16.21875 15.71875 13.8125 
Q 16.546875 10.359375 19.234375 8.375 
Q 21.921875 6.390625 25.875 6.390625 
Q 29.828125 6.390625 33.296875 8.421875 
Q 36.765625 10.453125 38.203125 13.9375 
Q 39.65625 17.4375 39.65625 24.078125 
L 39.65625 51.859375 
L 48.4375 51.859375 
L 48.4375 0 
z
" id="ArialMT-117"/>
      <path d="M 3.078125 15.484375 
L 11.765625 16.84375 
Q 12.5 11.625 15.84375 8.84375 
Q 19.1875 6.0625 25.203125 6.0625 
Q 31.25 6.0625 34.171875 8.515625 
Q 37.109375 10.984375 37.109375 14.3125 
Q 37.109375 17.28125 34.515625 19 
Q 32.71875 20.171875 25.53125 21.96875 
Q 15.875 24.421875 12.140625 26.203125 
Q 8.40625 27.984375 6.46875 31.125 
Q 4.546875 34.28125 4.546875 38.09375 
Q 4.546875 41.546875 6.125 44.5 
Q 7.71875 47.46875 10.453125 49.421875 
Q 12.5 50.921875 16.03125 51.96875 
Q 19.578125 53.03125 23.640625 53.03125 
Q 29.734375 53.03125 34.34375 51.265625 
Q 38.96875 49.515625 41.15625 46.5 
Q 43.359375 43.5 44.1875 38.484375 
L 35.59375 37.3125 
Q 35.015625 41.3125 32.203125 43.546875 
Q 29.390625 45.796875 24.265625 45.796875 
Q 18.21875 45.796875 15.625 43.796875 
Q 13.03125 41.796875 13.03125 39.109375 
Q 13.03125 37.40625 14.109375 36.03125 
Q 15.1875 34.625 17.484375 33.6875 
Q 18.796875 33.203125 25.25 31.453125 
Q 34.578125 28.953125 38.25 27.359375 
Q 41.9375 25.78125 44.03125 22.75 
Q 46.140625 19.734375 46.140625 15.234375 
Q 46.140625 10.84375 43.578125 6.953125 
Q 41.015625 3.078125 36.171875 0.953125 
Q 31.34375 -1.171875 25.25 -1.171875 
Q 15.140625 -1.171875 9.84375 3.03125 
Q 4.546875 7.234375 3.078125 15.484375 
z
" id="ArialMT-115"/>
     </defs>
     <g style="fill:#262626;" transform="translate(153.37125 302.798437)scale(0.24 -0.24)">
      <use xlink:href="#ArialMT-70"/>
      <use x="61.083984" xlink:href="#ArialMT-105"/>
      <use x="83.300781" xlink:href="#ArialMT-116"/>
      <use x="111.083984" xlink:href="#ArialMT-116"/>
      <use x="138.867188" xlink:href="#ArialMT-101"/>
      <use x="194.482422" xlink:href="#ArialMT-100"/>
      <use x="250.097656" xlink:href="#ArialMT-32"/>
      <use x="277.880859" xlink:href="#ArialMT-118"/>
      <use x="327.880859" xlink:href="#ArialMT-97"/>
      <use x="383.496094" xlink:href="#ArialMT-108"/>
      <use x="405.712891" xlink:href="#ArialMT-117"/>
      <use x="461.328125" xlink:href="#ArialMT-101"/>
      <use x="516.943359" xlink:href="#ArialMT-115"/>
     </g>
    </g>
   </g>
   <g id="matplotlib.axis_2">
    <g id="ytick_1">
     <g id="line2d_3">
      <path clip-path="url(#p813807b6d2)" d="M 54 209.799555 
L 388.8 209.799555 
" style="fill:none;stroke:#cccccc;stroke-linecap:round;"/>
     </g>
     <g id="text_4">
      <!-- −0.1 -->
      <defs>
       <path d="M 52.828125 31.203125 
L 5.5625 31.203125 
L 5.5625 39.40625 
L 52.828125 39.40625 
z
" id="ArialMT-8722"/>
       <path d="M 37.25 0 
L 28.46875 0 
L 28.46875 56 
Q 25.296875 52.984375 20.140625 49.953125 
Q 14.984375 46.921875 10.890625 45.40625 
L 10.890625 53.90625 
Q 18.265625 57.375 23.78125 62.296875 
Q 29.296875 67.234375 31.59375 71.875 
L 37.25 71.875 
z
" id="ArialMT-49"/>
      </defs>
      <g style="fill:#262626;" transform="translate(1.070625 217.673149)scale(0.22 -0.22)">
       <use xlink:href="#ArialMT-8722"/>
       <use x="58.398438" xlink:href="#ArialMT-48"/>
       <use x="114.013672" xlink:href="#ArialMT-46"/>
       <use x="141.796875" xlink:href="#ArialMT-49"/>
      </g>
     </g>
    </g>
    <g id="ytick_2">
     <g id="line2d_4">
      <path clip-path="url(#p813807b6d2)" d="M 54 144.092164 
L 388.8 144.092164 
" style="fill:none;stroke:#cccccc;stroke-linecap:round;"/>
     </g>
     <g id="text_5">
      <!-- 0.0 -->
      <g style="fill:#262626;" transform="translate(13.92 151.965758)scale(0.22 -0.22)">
       <use xlink:href="#ArialMT-48"/>
       <use x="55.615234" xlink:href="#ArialMT-46"/>
       <use x="83.398438" xlink:href="#ArialMT-48"/>
      </g>
     </g>
    </g>
    <g id="ytick_3">
     <g id="line2d_5">
      <path clip-path="url(#p813807b6d2)" d="M 54 78.384773 
L 388.8 78.384773 
" style="fill:none;stroke:#cccccc;stroke-linecap:round;"/>
     </g>
     <g id="text_6">
      <!-- 0.1 -->
      <g style="fill:#262626;" transform="translate(13.92 86.258367)scale(0.22 -0.22)">
       <use xlink:href="#ArialMT-48"/>
       <use x="55.615234" xlink:href="#ArialMT-46"/>
       <use x="83.398438" xlink:href="#ArialMT-49"/>
      </g>
     </g>
    </g>
    <g id="text_7">
     <!-- Pearson Residuals -->
     <defs>
      <path d="M 7.71875 0 
L 7.71875 71.578125 
L 34.71875 71.578125 
Q 41.84375 71.578125 45.609375 70.90625 
Q 50.875 70.015625 54.4375 67.546875 
Q 58.015625 65.09375 60.1875 60.640625 
Q 62.359375 56.203125 62.359375 50.875 
Q 62.359375 41.75 56.546875 35.421875 
Q 50.734375 29.109375 35.546875 29.109375 
L 17.1875 29.109375 
L 17.1875 0 
z
M 17.1875 37.546875 
L 35.6875 37.546875 
Q 44.875 37.546875 48.734375 40.96875 
Q 52.59375 44.390625 52.59375 50.59375 
Q 52.59375 55.078125 50.3125 58.265625 
Q 48.046875 61.46875 44.34375 62.5 
Q 41.9375 63.140625 35.5 63.140625 
L 17.1875 63.140625 
z
" id="ArialMT-80"/>
      <path d="M 6.5 0 
L 6.5 51.859375 
L 14.40625 51.859375 
L 14.40625 44 
Q 17.4375 49.515625 20 51.265625 
Q 22.5625 53.03125 25.640625 53.03125 
Q 30.078125 53.03125 34.671875 50.203125 
L 31.640625 42.046875 
Q 28.421875 43.953125 25.203125 43.953125 
Q 22.3125 43.953125 20.015625 42.21875 
Q 17.71875 40.484375 16.75 37.40625 
Q 15.28125 32.71875 15.28125 27.15625 
L 15.28125 0 
z
" id="ArialMT-114"/>
      <path d="M 3.328125 25.921875 
Q 3.328125 40.328125 11.328125 47.265625 
Q 18.015625 53.03125 27.640625 53.03125 
Q 38.328125 53.03125 45.109375 46.015625 
Q 51.90625 39.015625 51.90625 26.65625 
Q 51.90625 16.65625 48.90625 10.90625 
Q 45.90625 5.171875 40.15625 2 
Q 34.421875 -1.171875 27.640625 -1.171875 
Q 16.75 -1.171875 10.03125 5.8125 
Q 3.328125 12.796875 3.328125 25.921875 
z
M 12.359375 25.921875 
Q 12.359375 15.96875 16.703125 11.015625 
Q 21.046875 6.0625 27.640625 6.0625 
Q 34.1875 6.0625 38.53125 11.03125 
Q 42.875 16.015625 42.875 26.21875 
Q 42.875 35.84375 38.5 40.796875 
Q 34.125 45.75 27.640625 45.75 
Q 21.046875 45.75 16.703125 40.8125 
Q 12.359375 35.890625 12.359375 25.921875 
z
" id="ArialMT-111"/>
      <path d="M 6.59375 0 
L 6.59375 51.859375 
L 14.5 51.859375 
L 14.5 44.484375 
Q 20.21875 53.03125 31 53.03125 
Q 35.6875 53.03125 39.625 51.34375 
Q 43.5625 49.65625 45.515625 46.921875 
Q 47.46875 44.1875 48.25 40.4375 
Q 48.734375 37.984375 48.734375 31.890625 
L 48.734375 0 
L 39.9375 0 
L 39.9375 31.546875 
Q 39.9375 36.921875 38.90625 39.578125 
Q 37.890625 42.234375 35.28125 43.8125 
Q 32.671875 45.40625 29.15625 45.40625 
Q 23.53125 45.40625 19.453125 41.84375 
Q 15.375 38.28125 15.375 28.328125 
L 15.375 0 
z
" id="ArialMT-110"/>
      <path d="M 7.859375 0 
L 7.859375 71.578125 
L 39.59375 71.578125 
Q 49.171875 71.578125 54.140625 69.640625 
Q 59.125 67.71875 62.109375 62.828125 
Q 65.09375 57.953125 65.09375 52.046875 
Q 65.09375 44.4375 60.15625 39.203125 
Q 55.21875 33.984375 44.921875 32.5625 
Q 48.6875 30.765625 50.640625 29 
Q 54.78125 25.203125 58.5 19.484375 
L 70.953125 0 
L 59.03125 0 
L 49.5625 14.890625 
Q 45.40625 21.34375 42.71875 24.75 
Q 40.046875 28.171875 37.921875 29.53125 
Q 35.796875 30.90625 33.59375 31.453125 
Q 31.984375 31.78125 28.328125 31.78125 
L 17.328125 31.78125 
L 17.328125 0 
z
M 17.328125 39.984375 
L 37.703125 39.984375 
Q 44.1875 39.984375 47.84375 41.328125 
Q 51.515625 42.671875 53.421875 45.625 
Q 55.328125 48.578125 55.328125 52.046875 
Q 55.328125 57.125 51.640625 60.390625 
Q 47.953125 63.671875 39.984375 63.671875 
L 17.328125 63.671875 
z
" id="ArialMT-82"/>
     </defs>
     <g style="fill:#262626;" transform="translate(-7.699375 243.9975)rotate(-90)scale(0.24 -0.24)">
      <use xlink:href="#ArialMT-80"/>
      <use x="66.699219" xlink:href="#ArialMT-101"/>
      <use x="122.314453" xlink:href="#ArialMT-97"/>
      <use x="177.929688" xlink:href="#ArialMT-114"/>
      <use x="211.230469" xlink:href="#ArialMT-115"/>
      <use x="261.230469" xlink:href="#ArialMT-111"/>
      <use x="316.845703" xlink:href="#ArialMT-110"/>
      <use x="372.460938" xlink:href="#ArialMT-32"/>
      <use x="400.244141" xlink:href="#ArialMT-82"/>
      <use x="472.460938" xlink:href="#ArialMT-101"/>
      <use x="528.076172" xlink:href="#ArialMT-115"/>
      <use x="578.076172" xlink:href="#ArialMT-105"/>
      <use x="600.292969" xlink:href="#ArialMT-100"/>
      <use x="655.908203" xlink:href="#ArialMT-117"/>
      <use x="711.523438" xlink:href="#ArialMT-97"/>
      <use x="767.138672" xlink:href="#ArialMT-108"/>
      <use x="789.355469" xlink:href="#ArialMT-115"/>
     </g>
    </g>
   </g>
   <g id="PathCollection_1">
    <defs>
     <path d="M -3 0 
L 3 0 
M 0 3 
L 0 -3 
" id="m6d4253c3ac" style="stroke:#4c72b0;stroke-width:1.5;"/>
    </defs>
    <g clip-path="url(#p813807b6d2)">
     <use style="fill:#4c72b0;stroke:#4c72b0;stroke-width:1.5;" x="111.785343" xlink:href="#m6d4253c3ac" y="125.87093"/>
     <use style="fill:#4c72b0;stroke:#4c72b0;stroke-width:1.5;" x="301.280998" xlink:href="#m6d4253c3ac" y="138.241864"/>
     <use style="fill:#4c72b0;stroke:#4c72b0;stroke-width:1.5;" x="165.36749" xlink:href="#m6d4253c3ac" y="151.332552"/>
     <use style="fill:#4c72b0;stroke:#4c72b0;stroke-width:1.5;" x="129.698008" xlink:href="#m6d4253c3ac" y="140.24825"/>
     <use style="fill:#4c72b0;stroke:#4c72b0;stroke-width:1.5;" x="146.645213" xlink:href="#m6d4253c3ac" y="181.284221"/>
     <use style="fill:#4c72b0;stroke:#4c72b0;stroke-width:1.5;" x="310.324296" xlink:href="#m6d4253c3ac" y="145.528914"/>
     <use style="fill:#4c72b0;stroke:#4c72b0;stroke-width:1.5;" x="301.322417" xlink:href="#m6d4253c3ac" y="134.428708"/>
     <use style="fill:#4c72b0;stroke:#4c72b0;stroke-width:1.5;" x="266.994583" xlink:href="#m6d4253c3ac" y="84.538246"/>
     <use style="fill:#4c72b0;stroke:#4c72b0;stroke-width:1.5;" x="127.586861" xlink:href="#m6d4253c3ac" y="151.244839"/>
     <use style="fill:#4c72b0;stroke:#4c72b0;stroke-width:1.5;" x="277.141145" xlink:href="#m6d4253c3ac" y="99.774321"/>
     <use style="fill:#4c72b0;stroke:#4c72b0;stroke-width:1.5;" x="304.229634" xlink:href="#m6d4253c3ac" y="141.299041"/>
     <use style="fill:#4c72b0;stroke:#4c72b0;stroke-width:1.5;" x="292.84629" xlink:href="#m6d4253c3ac" y="113.531866"/>
     <use style="fill:#4c72b0;stroke:#4c72b0;stroke-width:1.5;" x="222.752978" xlink:href="#m6d4253c3ac" y="72.508411"/>
     <use style="fill:#4c72b0;stroke:#4c72b0;stroke-width:1.5;" x="184.540986" xlink:href="#m6d4253c3ac" y="196.134306"/>
     <use style="fill:#4c72b0;stroke:#4c72b0;stroke-width:1.5;" x="179.458861" xlink:href="#m6d4253c3ac" y="233.050774"/>
     <use style="fill:#4c72b0;stroke:#4c72b0;stroke-width:1.5;" x="286.883834" xlink:href="#m6d4253c3ac" y="112.699726"/>
     <use style="fill:#4c72b0;stroke:#4c72b0;stroke-width:1.5;" x="275.948465" xlink:href="#m6d4253c3ac" y="114.995459"/>
     <use style="fill:#4c72b0;stroke:#4c72b0;stroke-width:1.5;" x="286.347658" xlink:href="#m6d4253c3ac" y="121.885915"/>
     <use style="fill:#4c72b0;stroke:#4c72b0;stroke-width:1.5;" x="125.814528" xlink:href="#m6d4253c3ac" y="153.633153"/>
     <use style="fill:#4c72b0;stroke:#4c72b0;stroke-width:1.5;" x="304.112656" xlink:href="#m6d4253c3ac" y="135.873773"/>
     <use style="fill:#4c72b0;stroke:#4c72b0;stroke-width:1.5;" x="280.357862" xlink:href="#m6d4253c3ac" y="118.445106"/>
     <use style="fill:#4c72b0;stroke:#4c72b0;stroke-width:1.5;" x="238.98806" xlink:href="#m6d4253c3ac" y="53.509226"/>
     <use style="fill:#4c72b0;stroke:#4c72b0;stroke-width:1.5;" x="304.273425" xlink:href="#m6d4253c3ac" y="136.362758"/>
     <use style="fill:#4c72b0;stroke:#4c72b0;stroke-width:1.5;" x="74.805802" xlink:href="#m6d4253c3ac" y="59.622541"/>
     <use style="fill:#4c72b0;stroke:#4c72b0;stroke-width:1.5;" x="146.421195" xlink:href="#m6d4253c3ac" y="184.306042"/>
     <use style="fill:#4c72b0;stroke:#4c72b0;stroke-width:1.5;" x="130.383646" xlink:href="#m6d4253c3ac" y="160.01991"/>
     <use style="fill:#4c72b0;stroke:#4c72b0;stroke-width:1.5;" x="113.775388" xlink:href="#m6d4253c3ac" y="116.986338"/>
     <use style="fill:#4c72b0;stroke:#4c72b0;stroke-width:1.5;" x="333.346882" xlink:href="#m6d4253c3ac" y="181.054198"/>
     <use style="fill:#4c72b0;stroke:#4c72b0;stroke-width:1.5;" x="344.965448" xlink:href="#m6d4253c3ac" y="193.413239"/>
     <use style="fill:#4c72b0;stroke:#4c72b0;stroke-width:1.5;" x="182.982527" xlink:href="#m6d4253c3ac" y="167.811641"/>
     <use style="fill:#4c72b0;stroke:#4c72b0;stroke-width:1.5;" x="310.73903" xlink:href="#m6d4253c3ac" y="146.355882"/>
     <use style="fill:#4c72b0;stroke:#4c72b0;stroke-width:1.5;" x="169.399938" xlink:href="#m6d4253c3ac" y="221.706876"/>
     <use style="fill:#4c72b0;stroke:#4c72b0;stroke-width:1.5;" x="125.292969" xlink:href="#m6d4253c3ac" y="144.372761"/>
     <use style="fill:#4c72b0;stroke:#4c72b0;stroke-width:1.5;" x="157.446182" xlink:href="#m6d4253c3ac" y="204.207623"/>
     <use style="fill:#4c72b0;stroke:#4c72b0;stroke-width:1.5;" x="172.928899" xlink:href="#m6d4253c3ac" y="218.890521"/>
     <use style="fill:#4c72b0;stroke:#4c72b0;stroke-width:1.5;" x="176.026179" xlink:href="#m6d4253c3ac" y="230.244001"/>
     <use style="fill:#4c72b0;stroke:#4c72b0;stroke-width:1.5;" x="323.772055" xlink:href="#m6d4253c3ac" y="163.733857"/>
     <use style="fill:#4c72b0;stroke:#4c72b0;stroke-width:1.5;" x="317.190772" xlink:href="#m6d4253c3ac" y="151.766999"/>
     <use style="fill:#4c72b0;stroke:#4c72b0;stroke-width:1.5;" x="212.191492" xlink:href="#m6d4253c3ac" y="124.072595"/>
     <use style="fill:#4c72b0;stroke:#4c72b0;stroke-width:1.5;" x="159.084642" xlink:href="#m6d4253c3ac" y="184.993544"/>
     <use style="fill:#4c72b0;stroke:#4c72b0;stroke-width:1.5;" x="127.738683" xlink:href="#m6d4253c3ac" y="131.511785"/>
     <use style="fill:#4c72b0;stroke:#4c72b0;stroke-width:1.5;" x="310.49575" xlink:href="#m6d4253c3ac" y="147.665378"/>
     <use style="fill:#4c72b0;stroke:#4c72b0;stroke-width:1.5;" x="98.885434" xlink:href="#m6d4253c3ac" y="104.013854"/>
     <use style="fill:#4c72b0;stroke:#4c72b0;stroke-width:1.5;" x="336.843407" xlink:href="#m6d4253c3ac" y="182.814797"/>
     <use style="fill:#4c72b0;stroke:#4c72b0;stroke-width:1.5;" x="311.283411" xlink:href="#m6d4253c3ac" y="142.82122"/>
     <use style="fill:#4c72b0;stroke:#4c72b0;stroke-width:1.5;" x="285.963103" xlink:href="#m6d4253c3ac" y="126.417583"/>
     <use style="fill:#4c72b0;stroke:#4c72b0;stroke-width:1.5;" x="318.202192" xlink:href="#m6d4253c3ac" y="171.367027"/>
     <use style="fill:#4c72b0;stroke:#4c72b0;stroke-width:1.5;" x="139.209059" xlink:href="#m6d4253c3ac" y="188.237792"/>
     <use style="fill:#4c72b0;stroke:#4c72b0;stroke-width:1.5;" x="166.927147" xlink:href="#m6d4253c3ac" y="213.592481"/>
     <use style="fill:#4c72b0;stroke:#4c72b0;stroke-width:1.5;" x="254.974818" xlink:href="#m6d4253c3ac" y="126.162623"/>
     <use style="fill:#4c72b0;stroke:#4c72b0;stroke-width:1.5;" x="278.637213" xlink:href="#m6d4253c3ac" y="133.491887"/>
     <use style="fill:#4c72b0;stroke:#4c72b0;stroke-width:1.5;" x="133.282988" xlink:href="#m6d4253c3ac" y="157.807277"/>
     <use style="fill:#4c72b0;stroke:#4c72b0;stroke-width:1.5;" x="336.625249" xlink:href="#m6d4253c3ac" y="178.107644"/>
     <use style="fill:#4c72b0;stroke:#4c72b0;stroke-width:1.5;" x="315.181112" xlink:href="#m6d4253c3ac" y="155.982839"/>
     <use style="fill:#4c72b0;stroke:#4c72b0;stroke-width:1.5;" x="302.483544" xlink:href="#m6d4253c3ac" y="107.986284"/>
     <use style="fill:#4c72b0;stroke:#4c72b0;stroke-width:1.5;" x="308.975389" xlink:href="#m6d4253c3ac" y="145.117669"/>
     <use style="fill:#4c72b0;stroke:#4c72b0;stroke-width:1.5;" x="100.76075" xlink:href="#m6d4253c3ac" y="98.375822"/>
     <use style="fill:#4c72b0;stroke:#4c72b0;stroke-width:1.5;" x="268.094179" xlink:href="#m6d4253c3ac" y="102.765981"/>
     <use style="fill:#4c72b0;stroke:#4c72b0;stroke-width:1.5;" x="98.214313" xlink:href="#m6d4253c3ac" y="84.099689"/>
     <use style="fill:#4c72b0;stroke:#4c72b0;stroke-width:1.5;" x="237.194798" xlink:href="#m6d4253c3ac" y="64.087577"/>
     <use style="fill:#4c72b0;stroke:#4c72b0;stroke-width:1.5;" x="239.954208" xlink:href="#m6d4253c3ac" y="221.945765"/>
     <use style="fill:#4c72b0;stroke:#4c72b0;stroke-width:1.5;" x="311.812612" xlink:href="#m6d4253c3ac" y="144.243167"/>
     <use style="fill:#4c72b0;stroke:#4c72b0;stroke-width:1.5;" x="133.339708" xlink:href="#m6d4253c3ac" y="163.197741"/>
     <use style="fill:#4c72b0;stroke:#4c72b0;stroke-width:1.5;" x="113.567696" xlink:href="#m6d4253c3ac" y="123.967152"/>
     <use style="fill:#4c72b0;stroke:#4c72b0;stroke-width:1.5;" x="295.814807" xlink:href="#m6d4253c3ac" y="126.258861"/>
     <use style="fill:#4c72b0;stroke:#4c72b0;stroke-width:1.5;" x="105.888329" xlink:href="#m6d4253c3ac" y="110.748266"/>
     <use style="fill:#4c72b0;stroke:#4c72b0;stroke-width:1.5;" x="315.470306" xlink:href="#m6d4253c3ac" y="159.447247"/>
     <use style="fill:#4c72b0;stroke:#4c72b0;stroke-width:1.5;" x="241.160081" xlink:href="#m6d4253c3ac" y="79.535321"/>
     <use style="fill:#4c72b0;stroke:#4c72b0;stroke-width:1.5;" x="185.365162" xlink:href="#m6d4253c3ac" y="224.939429"/>
     <use style="fill:#4c72b0;stroke:#4c72b0;stroke-width:1.5;" x="233.604966" xlink:href="#m6d4253c3ac" y="123.459768"/>
     <use style="fill:#4c72b0;stroke:#4c72b0;stroke-width:1.5;" x="145.349535" xlink:href="#m6d4253c3ac" y="170.963323"/>
     <use style="fill:#4c72b0;stroke:#4c72b0;stroke-width:1.5;" x="269.709974" xlink:href="#m6d4253c3ac" y="90.311815"/>
     <use style="fill:#4c72b0;stroke:#4c72b0;stroke-width:1.5;" x="100.183987" xlink:href="#m6d4253c3ac" y="92.447283"/>
     <use style="fill:#4c72b0;stroke:#4c72b0;stroke-width:1.5;" x="151.282081" xlink:href="#m6d4253c3ac" y="181.691006"/>
     <use style="fill:#4c72b0;stroke:#4c72b0;stroke-width:1.5;" x="367.994198" xlink:href="#m6d4253c3ac" y="179.647354"/>
     <use style="fill:#4c72b0;stroke:#4c72b0;stroke-width:1.5;" x="273.661731" xlink:href="#m6d4253c3ac" y="97.483044"/>
     <use style="fill:#4c72b0;stroke:#4c72b0;stroke-width:1.5;" x="149.241152" xlink:href="#m6d4253c3ac" y="183.702292"/>
     <use style="fill:#4c72b0;stroke:#4c72b0;stroke-width:1.5;" x="334.458329" xlink:href="#m6d4253c3ac" y="182.63824"/>
     <use style="fill:#4c72b0;stroke:#4c72b0;stroke-width:1.5;" x="126.807393" xlink:href="#m6d4253c3ac" y="154.496092"/>
     <use style="fill:#4c72b0;stroke:#4c72b0;stroke-width:1.5;" x="318.702474" xlink:href="#m6d4253c3ac" y="162.520966"/>
     <use style="fill:#4c72b0;stroke:#4c72b0;stroke-width:1.5;" x="301.275874" xlink:href="#m6d4253c3ac" y="131.252331"/>
     <use style="fill:#4c72b0;stroke:#4c72b0;stroke-width:1.5;" x="276.03733" xlink:href="#m6d4253c3ac" y="103.487855"/>
     <use style="fill:#4c72b0;stroke:#4c72b0;stroke-width:1.5;" x="140.792177" xlink:href="#m6d4253c3ac" y="174.752221"/>
     <use style="fill:#4c72b0;stroke:#4c72b0;stroke-width:1.5;" x="124.952926" xlink:href="#m6d4253c3ac" y="155.950516"/>
     <use style="fill:#4c72b0;stroke:#4c72b0;stroke-width:1.5;" x="163.242244" xlink:href="#m6d4253c3ac" y="180.990752"/>
     <use style="fill:#4c72b0;stroke:#4c72b0;stroke-width:1.5;" x="293.061815" xlink:href="#m6d4253c3ac" y="130.045508"/>
     <use style="fill:#4c72b0;stroke:#4c72b0;stroke-width:1.5;" x="329.469646" xlink:href="#m6d4253c3ac" y="169.518444"/>
     <use style="fill:#4c72b0;stroke:#4c72b0;stroke-width:1.5;" x="327.705431" xlink:href="#m6d4253c3ac" y="172.322899"/>
     <use style="fill:#4c72b0;stroke:#4c72b0;stroke-width:1.5;" x="134.228937" xlink:href="#m6d4253c3ac" y="166.472552"/>
     <use style="fill:#4c72b0;stroke:#4c72b0;stroke-width:1.5;" x="79.68383" xlink:href="#m6d4253c3ac" y="56.495452"/>
     <use style="fill:#4c72b0;stroke:#4c72b0;stroke-width:1.5;" x="146.698951" xlink:href="#m6d4253c3ac" y="173.564165"/>
     <use style="fill:#4c72b0;stroke:#4c72b0;stroke-width:1.5;" x="256.257192" xlink:href="#m6d4253c3ac" y="70.142559"/>
     <use style="fill:#4c72b0;stroke:#4c72b0;stroke-width:1.5;" x="318.051151" xlink:href="#m6d4253c3ac" y="157.451963"/>
     <use style="fill:#4c72b0;stroke:#4c72b0;stroke-width:1.5;" x="295.835383" xlink:href="#m6d4253c3ac" y="116.612499"/>
     <use style="fill:#4c72b0;stroke:#4c72b0;stroke-width:1.5;" x="232.451868" xlink:href="#m6d4253c3ac" y="119.569114"/>
     <use style="fill:#4c72b0;stroke:#4c72b0;stroke-width:1.5;" x="185.052021" xlink:href="#m6d4253c3ac" y="103.204921"/>
    </g>
   </g>
   <g id="patch_3">
    <path d="M 54 252 
L 54 34.56 
" style="fill:none;stroke:#cccccc;stroke-linecap:square;stroke-linejoin:miter;stroke-width:1.25;"/>
   </g>
   <g id="patch_4">
    <path d="M 388.8 252 
L 388.8 34.56 
" style="fill:none;stroke:#cccccc;stroke-linecap:square;stroke-linejoin:miter;stroke-width:1.25;"/>
   </g>
   <g id="patch_5">
    <path d="M 54 252 
L 388.8 252 
" style="fill:none;stroke:#cccccc;stroke-linecap:square;stroke-linejoin:miter;stroke-width:1.25;"/>
   </g>
   <g id="patch_6">
    <path d="M 54 34.56 
L 388.8 34.56 
" style="fill:none;stroke:#cccccc;stroke-linecap:square;stroke-linejoin:miter;stroke-width:1.25;"/>
   </g>
   <g id="text_8">
    <!-- Residual Dependence Plot -->
    <defs>
     <path d="M 7.71875 0 
L 7.71875 71.578125 
L 32.375 71.578125 
Q 40.71875 71.578125 45.125 70.5625 
Q 51.265625 69.140625 55.609375 65.4375 
Q 61.28125 60.640625 64.078125 53.1875 
Q 66.890625 45.75 66.890625 36.1875 
Q 66.890625 28.03125 64.984375 21.734375 
Q 63.09375 15.4375 60.109375 11.296875 
Q 57.125 7.171875 53.578125 4.796875 
Q 50.046875 2.4375 45.046875 1.21875 
Q 40.046875 0 33.546875 0 
z
M 17.1875 8.453125 
L 32.46875 8.453125 
Q 39.546875 8.453125 43.578125 9.765625 
Q 47.609375 11.078125 50 13.484375 
Q 53.375 16.84375 55.25 22.53125 
Q 57.125 28.21875 57.125 36.328125 
Q 57.125 47.5625 53.4375 53.59375 
Q 49.75 59.625 44.484375 61.671875 
Q 40.671875 63.140625 32.234375 63.140625 
L 17.1875 63.140625 
z
" id="ArialMT-68"/>
     <path d="M 6.59375 -19.875 
L 6.59375 51.859375 
L 14.59375 51.859375 
L 14.59375 45.125 
Q 17.4375 49.078125 21 51.046875 
Q 24.5625 53.03125 29.640625 53.03125 
Q 36.28125 53.03125 41.359375 49.609375 
Q 46.4375 46.1875 49.015625 39.953125 
Q 51.609375 33.734375 51.609375 26.3125 
Q 51.609375 18.359375 48.75 11.984375 
Q 45.90625 5.609375 40.453125 2.21875 
Q 35.015625 -1.171875 29 -1.171875 
Q 24.609375 -1.171875 21.109375 0.6875 
Q 17.625 2.546875 15.375 5.375 
L 15.375 -19.875 
z
M 14.546875 25.640625 
Q 14.546875 15.625 18.59375 10.84375 
Q 22.65625 6.0625 28.421875 6.0625 
Q 34.28125 6.0625 38.453125 11.015625 
Q 42.625 15.96875 42.625 26.375 
Q 42.625 36.28125 38.546875 41.203125 
Q 34.46875 46.140625 28.8125 46.140625 
Q 23.1875 46.140625 18.859375 40.890625 
Q 14.546875 35.640625 14.546875 25.640625 
z
" id="ArialMT-112"/>
     <path d="M 40.4375 19 
L 49.078125 17.875 
Q 47.65625 8.9375 41.8125 3.875 
Q 35.984375 -1.171875 27.484375 -1.171875 
Q 16.84375 -1.171875 10.375 5.78125 
Q 3.90625 12.75 3.90625 25.734375 
Q 3.90625 34.125 6.6875 40.421875 
Q 9.46875 46.734375 15.15625 49.875 
Q 20.84375 53.03125 27.546875 53.03125 
Q 35.984375 53.03125 41.359375 48.75 
Q 46.734375 44.484375 48.25 36.625 
L 39.703125 35.296875 
Q 38.484375 40.53125 35.375 43.15625 
Q 32.28125 45.796875 27.875 45.796875 
Q 21.234375 45.796875 17.078125 41.03125 
Q 12.9375 36.28125 12.9375 25.984375 
Q 12.9375 15.53125 16.9375 10.796875 
Q 20.953125 6.0625 27.390625 6.0625 
Q 32.5625 6.0625 36.03125 9.234375 
Q 39.5 12.40625 40.4375 19 
z
" id="ArialMT-99"/>
    </defs>
    <g style="fill:#262626;" transform="translate(79.3125 28.56)scale(0.24 -0.24)">
     <use xlink:href="#ArialMT-82"/>
     <use x="72.216797" xlink:href="#ArialMT-101"/>
     <use x="127.832031" xlink:href="#ArialMT-115"/>
     <use x="177.832031" xlink:href="#ArialMT-105"/>
     <use x="200.048828" xlink:href="#ArialMT-100"/>
     <use x="255.664062" xlink:href="#ArialMT-117"/>
     <use x="311.279297" xlink:href="#ArialMT-97"/>
     <use x="366.894531" xlink:href="#ArialMT-108"/>
     <use x="389.111328" xlink:href="#ArialMT-32"/>
     <use x="416.894531" xlink:href="#ArialMT-68"/>
     <use x="489.111328" xlink:href="#ArialMT-101"/>
     <use x="544.726562" xlink:href="#ArialMT-112"/>
     <use x="600.341797" xlink:href="#ArialMT-101"/>
     <use x="655.957031" xlink:href="#ArialMT-110"/>
     <use x="711.572266" xlink:href="#ArialMT-100"/>
     <use x="767.1875" xlink:href="#ArialMT-101"/>
     <use x="822.802734" xlink:href="#ArialMT-110"/>
     <use x="878.417969" xlink:href="#ArialMT-99"/>
     <use x="928.417969" xlink:href="#ArialMT-101"/>
     <use x="984.033203" xlink:href="#ArialMT-32"/>
     <use x="1011.816406" xlink:href="#ArialMT-80"/>
     <use x="1078.515625" xlink:href="#ArialMT-108"/>
     <use x="1100.732422" xlink:href="#ArialMT-111"/>
     <use x="1156.347656" xlink:href="#ArialMT-116"/>
    </g>
   </g>
  </g>
 </g>
 <defs>
  <clipPath id="p813807b6d2">
   <rect height="217.44" width="334.8" x="54" y="34.56"/>
  </clipPath>
 </defs>
</svg>
