<?xml version="1.0" encoding="utf-8" standalone="no"?>
<!DOCTYPE svg PUBLIC "-//W3C//DTD SVG 1.1//EN"
  "http://www.w3.org/Graphics/SVG/1.1/DTD/svg11.dtd">
<!-- Created with matplotlib (https://matplotlib.org/) -->
<svg height="720pt" version="1.1" viewBox="0 0 1152 720" width="1152pt" xmlns="http://www.w3.org/2000/svg" xmlns:xlink="http://www.w3.org/1999/xlink">
 <defs>
  <style type="text/css">
*{stroke-linecap:butt;stroke-linejoin:round;}
  </style>
 </defs>
 <g id="figure_1">
  <g id="patch_1">
   <path d="M 0 720 
L 1152 720 
L 1152 0 
L 0 0 
z
" style="fill:#ffffff;"/>
  </g>
  <g id="axes_1">
   <g id="patch_2">
    <path d="M 144 630 
L 1036.8 630 
L 1036.8 86.4 
L 144 86.4 
z
" style="fill:#ffffff;"/>
   </g>
   <g id="matplotlib.axis_1">
    <g id="xtick_1">
     <g id="line2d_1">
      <path clip-path="url(#pb8afb11c26)" d="M 144 630 
L 144 86.4 
" style="fill:none;stroke:#cccccc;stroke-linecap:round;"/>
     </g>
     <g id="text_1">
      <!-- 0.0 -->
      <defs>
       <path d="M 4.15625 35.296875 
Q 4.15625 48 6.765625 55.734375 
Q 9.375 63.484375 14.515625 67.671875 
Q 19.671875 71.875 27.484375 71.875 
Q 33.25 71.875 37.59375 69.546875 
Q 41.9375 67.234375 44.765625 62.859375 
Q 47.609375 58.5 49.21875 52.21875 
Q 50.828125 45.953125 50.828125 35.296875 
Q 50.828125 22.703125 48.234375 14.96875 
Q 45.65625 7.234375 40.5 3 
Q 35.359375 -1.21875 27.484375 -1.21875 
Q 17.140625 -1.21875 11.234375 6.203125 
Q 4.15625 15.140625 4.15625 35.296875 
z
M 13.1875 35.296875 
Q 13.1875 17.671875 17.3125 11.828125 
Q 21.4375 6 27.484375 6 
Q 33.546875 6 37.671875 11.859375 
Q 41.796875 17.71875 41.796875 35.296875 
Q 41.796875 52.984375 37.671875 58.78125 
Q 33.546875 64.59375 27.390625 64.59375 
Q 21.34375 64.59375 17.71875 59.46875 
Q 13.1875 52.9375 13.1875 35.296875 
z
" id="ArialMT-48"/>
       <path d="M 9.078125 0 
L 9.078125 10.015625 
L 19.09375 10.015625 
L 19.09375 0 
z
" id="ArialMT-46"/>
      </defs>
      <g style="fill:#262626;" transform="translate(128.71 655.247187)scale(0.22 -0.22)">
       <use xlink:href="#ArialMT-48"/>
       <use x="55.615234" xlink:href="#ArialMT-46"/>
       <use x="83.398438" xlink:href="#ArialMT-48"/>
      </g>
     </g>
    </g>
    <g id="xtick_2">
     <g id="line2d_2">
      <path clip-path="url(#pb8afb11c26)" d="M 322.56 630 
L 322.56 86.4 
" style="fill:none;stroke:#cccccc;stroke-linecap:round;"/>
     </g>
     <g id="text_2">
      <!-- 0.2 -->
      <defs>
       <path d="M 50.34375 8.453125 
L 50.34375 0 
L 3.03125 0 
Q 2.9375 3.171875 4.046875 6.109375 
Q 5.859375 10.9375 9.828125 15.625 
Q 13.8125 20.3125 21.34375 26.46875 
Q 33.015625 36.03125 37.109375 41.625 
Q 41.21875 47.21875 41.21875 52.203125 
Q 41.21875 57.421875 37.46875 61 
Q 33.734375 64.59375 27.734375 64.59375 
Q 21.390625 64.59375 17.578125 60.78125 
Q 13.765625 56.984375 13.71875 50.25 
L 4.6875 51.171875 
Q 5.609375 61.28125 11.65625 66.578125 
Q 17.71875 71.875 27.9375 71.875 
Q 38.234375 71.875 44.234375 66.15625 
Q 50.25 60.453125 50.25 52 
Q 50.25 47.703125 48.484375 43.546875 
Q 46.734375 39.40625 42.65625 34.8125 
Q 38.578125 30.21875 29.109375 22.21875 
Q 21.1875 15.578125 18.9375 13.203125 
Q 16.703125 10.84375 15.234375 8.453125 
z
" id="ArialMT-50"/>
      </defs>
      <g style="fill:#262626;" transform="translate(307.27 655.247187)scale(0.22 -0.22)">
       <use xlink:href="#ArialMT-48"/>
       <use x="55.615234" xlink:href="#ArialMT-46"/>
       <use x="83.398438" xlink:href="#ArialMT-50"/>
      </g>
     </g>
    </g>
    <g id="xtick_3">
     <g id="line2d_3">
      <path clip-path="url(#pb8afb11c26)" d="M 501.12 630 
L 501.12 86.4 
" style="fill:none;stroke:#cccccc;stroke-linecap:round;"/>
     </g>
     <g id="text_3">
      <!-- 0.4 -->
      <defs>
       <path d="M 32.328125 0 
L 32.328125 17.140625 
L 1.265625 17.140625 
L 1.265625 25.203125 
L 33.9375 71.578125 
L 41.109375 71.578125 
L 41.109375 25.203125 
L 50.78125 25.203125 
L 50.78125 17.140625 
L 41.109375 17.140625 
L 41.109375 0 
z
M 32.328125 25.203125 
L 32.328125 57.46875 
L 9.90625 25.203125 
z
" id="ArialMT-52"/>
      </defs>
      <g style="fill:#262626;" transform="translate(485.83 655.247187)scale(0.22 -0.22)">
       <use xlink:href="#ArialMT-48"/>
       <use x="55.615234" xlink:href="#ArialMT-46"/>
       <use x="83.398438" xlink:href="#ArialMT-52"/>
      </g>
     </g>
    </g>
    <g id="xtick_4">
     <g id="line2d_4">
      <path clip-path="url(#pb8afb11c26)" d="M 679.68 630 
L 679.68 86.4 
" style="fill:none;stroke:#cccccc;stroke-linecap:round;"/>
     </g>
     <g id="text_4">
      <!-- 0.6 -->
      <defs>
       <path d="M 49.75 54.046875 
L 41.015625 53.375 
Q 39.84375 58.546875 37.703125 60.890625 
Q 34.125 64.65625 28.90625 64.65625 
Q 24.703125 64.65625 21.53125 62.3125 
Q 17.390625 59.28125 14.984375 53.46875 
Q 12.59375 47.65625 12.5 36.921875 
Q 15.671875 41.75 20.265625 44.09375 
Q 24.859375 46.4375 29.890625 46.4375 
Q 38.671875 46.4375 44.84375 39.96875 
Q 51.03125 33.5 51.03125 23.25 
Q 51.03125 16.5 48.125 10.71875 
Q 45.21875 4.9375 40.140625 1.859375 
Q 35.0625 -1.21875 28.609375 -1.21875 
Q 17.625 -1.21875 10.6875 6.859375 
Q 3.765625 14.9375 3.765625 33.5 
Q 3.765625 54.25 11.421875 63.671875 
Q 18.109375 71.875 29.4375 71.875 
Q 37.890625 71.875 43.28125 67.140625 
Q 48.6875 62.40625 49.75 54.046875 
z
M 13.875 23.1875 
Q 13.875 18.65625 15.796875 14.5 
Q 17.71875 10.359375 21.1875 8.171875 
Q 24.65625 6 28.46875 6 
Q 34.03125 6 38.03125 10.484375 
Q 42.046875 14.984375 42.046875 22.703125 
Q 42.046875 30.125 38.078125 34.390625 
Q 34.125 38.671875 28.125 38.671875 
Q 22.171875 38.671875 18.015625 34.390625 
Q 13.875 30.125 13.875 23.1875 
z
" id="ArialMT-54"/>
      </defs>
      <g style="fill:#262626;" transform="translate(664.39 655.247187)scale(0.22 -0.22)">
       <use xlink:href="#ArialMT-48"/>
       <use x="55.615234" xlink:href="#ArialMT-46"/>
       <use x="83.398438" xlink:href="#ArialMT-54"/>
      </g>
     </g>
    </g>
    <g id="xtick_5">
     <g id="line2d_5">
      <path clip-path="url(#pb8afb11c26)" d="M 858.24 630 
L 858.24 86.4 
" style="fill:none;stroke:#cccccc;stroke-linecap:round;"/>
     </g>
     <g id="text_5">
      <!-- 0.8 -->
      <defs>
       <path d="M 17.671875 38.8125 
Q 12.203125 40.828125 9.5625 44.53125 
Q 6.9375 48.25 6.9375 53.421875 
Q 6.9375 61.234375 12.546875 66.546875 
Q 18.171875 71.875 27.484375 71.875 
Q 36.859375 71.875 42.578125 66.421875 
Q 48.296875 60.984375 48.296875 53.171875 
Q 48.296875 48.1875 45.671875 44.5 
Q 43.0625 40.828125 37.75 38.8125 
Q 44.34375 36.671875 47.78125 31.875 
Q 51.21875 27.09375 51.21875 20.453125 
Q 51.21875 11.28125 44.71875 5.03125 
Q 38.234375 -1.21875 27.640625 -1.21875 
Q 17.046875 -1.21875 10.546875 5.046875 
Q 4.046875 11.328125 4.046875 20.703125 
Q 4.046875 27.6875 7.59375 32.390625 
Q 11.140625 37.109375 17.671875 38.8125 
z
M 15.921875 53.71875 
Q 15.921875 48.640625 19.1875 45.40625 
Q 22.46875 42.1875 27.6875 42.1875 
Q 32.765625 42.1875 36.015625 45.375 
Q 39.265625 48.578125 39.265625 53.21875 
Q 39.265625 58.0625 35.90625 61.359375 
Q 32.5625 64.65625 27.59375 64.65625 
Q 22.5625 64.65625 19.234375 61.421875 
Q 15.921875 58.203125 15.921875 53.71875 
z
M 13.09375 20.65625 
Q 13.09375 16.890625 14.875 13.375 
Q 16.65625 9.859375 20.171875 7.921875 
Q 23.6875 6 27.734375 6 
Q 34.03125 6 38.125 10.046875 
Q 42.234375 14.109375 42.234375 20.359375 
Q 42.234375 26.703125 38.015625 30.859375 
Q 33.796875 35.015625 27.4375 35.015625 
Q 21.234375 35.015625 17.15625 30.90625 
Q 13.09375 26.8125 13.09375 20.65625 
z
" id="ArialMT-56"/>
      </defs>
      <g style="fill:#262626;" transform="translate(842.95 655.247187)scale(0.22 -0.22)">
       <use xlink:href="#ArialMT-48"/>
       <use x="55.615234" xlink:href="#ArialMT-46"/>
       <use x="83.398438" xlink:href="#ArialMT-56"/>
      </g>
     </g>
    </g>
    <g id="xtick_6">
     <g id="line2d_6">
      <path clip-path="url(#pb8afb11c26)" d="M 1036.8 630 
L 1036.8 86.4 
" style="fill:none;stroke:#cccccc;stroke-linecap:round;"/>
     </g>
     <g id="text_6">
      <!-- 1.0 -->
      <defs>
       <path d="M 37.25 0 
L 28.46875 0 
L 28.46875 56 
Q 25.296875 52.984375 20.140625 49.953125 
Q 14.984375 46.921875 10.890625 45.40625 
L 10.890625 53.90625 
Q 18.265625 57.375 23.78125 62.296875 
Q 29.296875 67.234375 31.59375 71.875 
L 37.25 71.875 
z
" id="ArialMT-49"/>
      </defs>
      <g style="fill:#262626;" transform="translate(1021.51 655.247187)scale(0.22 -0.22)">
       <use xlink:href="#ArialMT-49"/>
       <use x="55.615234" xlink:href="#ArialMT-46"/>
       <use x="83.398438" xlink:href="#ArialMT-48"/>
      </g>
     </g>
    </g>
    <g id="text_7">
     <!-- Simulation Result -->
     <defs>
      <path d="M 4.5 23 
L 13.421875 23.78125 
Q 14.0625 18.40625 16.375 14.96875 
Q 18.703125 11.53125 23.578125 9.40625 
Q 28.46875 7.28125 34.578125 7.28125 
Q 39.984375 7.28125 44.140625 8.890625 
Q 48.296875 10.5 50.3125 13.296875 
Q 52.34375 16.109375 52.34375 19.4375 
Q 52.34375 22.796875 50.390625 25.3125 
Q 48.4375 27.828125 43.953125 29.546875 
Q 41.0625 30.671875 31.203125 33.03125 
Q 21.34375 35.40625 17.390625 37.5 
Q 12.25 40.1875 9.734375 44.15625 
Q 7.234375 48.140625 7.234375 53.078125 
Q 7.234375 58.5 10.296875 63.203125 
Q 13.375 67.921875 19.28125 70.359375 
Q 25.203125 72.796875 32.421875 72.796875 
Q 40.375 72.796875 46.453125 70.234375 
Q 52.546875 67.671875 55.8125 62.6875 
Q 59.078125 57.71875 59.328125 51.421875 
L 50.25 50.734375 
Q 49.515625 57.515625 45.28125 60.984375 
Q 41.0625 64.453125 32.8125 64.453125 
Q 24.21875 64.453125 20.28125 61.296875 
Q 16.359375 58.15625 16.359375 53.71875 
Q 16.359375 49.859375 19.140625 47.359375 
Q 21.875 44.875 33.421875 42.265625 
Q 44.96875 39.65625 49.265625 37.703125 
Q 55.515625 34.8125 58.484375 30.390625 
Q 61.46875 25.984375 61.46875 20.21875 
Q 61.46875 14.5 58.203125 9.4375 
Q 54.9375 4.390625 48.796875 1.578125 
Q 42.671875 -1.21875 35.015625 -1.21875 
Q 25.296875 -1.21875 18.71875 1.609375 
Q 12.15625 4.4375 8.421875 10.125 
Q 4.6875 15.828125 4.5 23 
z
" id="ArialMT-83"/>
      <path d="M 6.640625 61.46875 
L 6.640625 71.578125 
L 15.4375 71.578125 
L 15.4375 61.46875 
z
M 6.640625 0 
L 6.640625 51.859375 
L 15.4375 51.859375 
L 15.4375 0 
z
" id="ArialMT-105"/>
      <path d="M 6.59375 0 
L 6.59375 51.859375 
L 14.453125 51.859375 
L 14.453125 44.578125 
Q 16.890625 48.390625 20.9375 50.703125 
Q 25 53.03125 30.171875 53.03125 
Q 35.9375 53.03125 39.625 50.640625 
Q 43.3125 48.25 44.828125 43.953125 
Q 50.984375 53.03125 60.84375 53.03125 
Q 68.5625 53.03125 72.703125 48.75 
Q 76.859375 44.484375 76.859375 35.59375 
L 76.859375 0 
L 68.109375 0 
L 68.109375 32.671875 
Q 68.109375 37.9375 67.25 40.25 
Q 66.40625 42.578125 64.15625 43.984375 
Q 61.921875 45.40625 58.890625 45.40625 
Q 53.421875 45.40625 49.796875 41.765625 
Q 46.1875 38.140625 46.1875 30.125 
L 46.1875 0 
L 37.40625 0 
L 37.40625 33.6875 
Q 37.40625 39.546875 35.25 42.46875 
Q 33.109375 45.40625 28.21875 45.40625 
Q 24.515625 45.40625 21.359375 43.453125 
Q 18.21875 41.5 16.796875 37.734375 
Q 15.375 33.984375 15.375 26.90625 
L 15.375 0 
z
" id="ArialMT-109"/>
      <path d="M 40.578125 0 
L 40.578125 7.625 
Q 34.515625 -1.171875 24.125 -1.171875 
Q 19.53125 -1.171875 15.546875 0.578125 
Q 11.578125 2.34375 9.640625 5 
Q 7.71875 7.671875 6.9375 11.53125 
Q 6.390625 14.109375 6.390625 19.734375 
L 6.390625 51.859375 
L 15.1875 51.859375 
L 15.1875 23.09375 
Q 15.1875 16.21875 15.71875 13.8125 
Q 16.546875 10.359375 19.234375 8.375 
Q 21.921875 6.390625 25.875 6.390625 
Q 29.828125 6.390625 33.296875 8.421875 
Q 36.765625 10.453125 38.203125 13.9375 
Q 39.65625 17.4375 39.65625 24.078125 
L 39.65625 51.859375 
L 48.4375 51.859375 
L 48.4375 0 
z
" id="ArialMT-117"/>
      <path d="M 6.390625 0 
L 6.390625 71.578125 
L 15.1875 71.578125 
L 15.1875 0 
z
" id="ArialMT-108"/>
      <path d="M 40.4375 6.390625 
Q 35.546875 2.25 31.03125 0.53125 
Q 26.515625 -1.171875 21.34375 -1.171875 
Q 12.796875 -1.171875 8.203125 3 
Q 3.609375 7.171875 3.609375 13.671875 
Q 3.609375 17.484375 5.34375 20.625 
Q 7.078125 23.78125 9.890625 25.6875 
Q 12.703125 27.59375 16.21875 28.5625 
Q 18.796875 29.25 24.03125 29.890625 
Q 34.671875 31.15625 39.703125 32.90625 
Q 39.75 34.71875 39.75 35.203125 
Q 39.75 40.578125 37.25 42.78125 
Q 33.890625 45.75 27.25 45.75 
Q 21.046875 45.75 18.09375 43.578125 
Q 15.140625 41.40625 13.71875 35.890625 
L 5.125 37.0625 
Q 6.296875 42.578125 8.984375 45.96875 
Q 11.671875 49.359375 16.75 51.1875 
Q 21.828125 53.03125 28.515625 53.03125 
Q 35.15625 53.03125 39.296875 51.46875 
Q 43.453125 49.90625 45.40625 47.53125 
Q 47.359375 45.171875 48.140625 41.546875 
Q 48.578125 39.3125 48.578125 33.453125 
L 48.578125 21.734375 
Q 48.578125 9.46875 49.140625 6.21875 
Q 49.703125 2.984375 51.375 0 
L 42.1875 0 
Q 40.828125 2.734375 40.4375 6.390625 
z
M 39.703125 26.03125 
Q 34.90625 24.078125 25.34375 22.703125 
Q 19.921875 21.921875 17.671875 20.9375 
Q 15.4375 19.96875 14.203125 18.09375 
Q 12.984375 16.21875 12.984375 13.921875 
Q 12.984375 10.40625 15.640625 8.0625 
Q 18.3125 5.71875 23.4375 5.71875 
Q 28.515625 5.71875 32.46875 7.9375 
Q 36.421875 10.15625 38.28125 14.015625 
Q 39.703125 17 39.703125 22.796875 
z
" id="ArialMT-97"/>
      <path d="M 25.78125 7.859375 
L 27.046875 0.09375 
Q 23.34375 -0.6875 20.40625 -0.6875 
Q 15.625 -0.6875 12.984375 0.828125 
Q 10.359375 2.34375 9.28125 4.8125 
Q 8.203125 7.28125 8.203125 15.1875 
L 8.203125 45.015625 
L 1.765625 45.015625 
L 1.765625 51.859375 
L 8.203125 51.859375 
L 8.203125 64.703125 
L 16.9375 69.96875 
L 16.9375 51.859375 
L 25.78125 51.859375 
L 25.78125 45.015625 
L 16.9375 45.015625 
L 16.9375 14.703125 
Q 16.9375 10.9375 17.40625 9.859375 
Q 17.875 8.796875 18.921875 8.15625 
Q 19.96875 7.515625 21.921875 7.515625 
Q 23.390625 7.515625 25.78125 7.859375 
z
" id="ArialMT-116"/>
      <path d="M 3.328125 25.921875 
Q 3.328125 40.328125 11.328125 47.265625 
Q 18.015625 53.03125 27.640625 53.03125 
Q 38.328125 53.03125 45.109375 46.015625 
Q 51.90625 39.015625 51.90625 26.65625 
Q 51.90625 16.65625 48.90625 10.90625 
Q 45.90625 5.171875 40.15625 2 
Q 34.421875 -1.171875 27.640625 -1.171875 
Q 16.75 -1.171875 10.03125 5.8125 
Q 3.328125 12.796875 3.328125 25.921875 
z
M 12.359375 25.921875 
Q 12.359375 15.96875 16.703125 11.015625 
Q 21.046875 6.0625 27.640625 6.0625 
Q 34.1875 6.0625 38.53125 11.03125 
Q 42.875 16.015625 42.875 26.21875 
Q 42.875 35.84375 38.5 40.796875 
Q 34.125 45.75 27.640625 45.75 
Q 21.046875 45.75 16.703125 40.8125 
Q 12.359375 35.890625 12.359375 25.921875 
z
" id="ArialMT-111"/>
      <path d="M 6.59375 0 
L 6.59375 51.859375 
L 14.5 51.859375 
L 14.5 44.484375 
Q 20.21875 53.03125 31 53.03125 
Q 35.6875 53.03125 39.625 51.34375 
Q 43.5625 49.65625 45.515625 46.921875 
Q 47.46875 44.1875 48.25 40.4375 
Q 48.734375 37.984375 48.734375 31.890625 
L 48.734375 0 
L 39.9375 0 
L 39.9375 31.546875 
Q 39.9375 36.921875 38.90625 39.578125 
Q 37.890625 42.234375 35.28125 43.8125 
Q 32.671875 45.40625 29.15625 45.40625 
Q 23.53125 45.40625 19.453125 41.84375 
Q 15.375 38.28125 15.375 28.328125 
L 15.375 0 
z
" id="ArialMT-110"/>
      <path id="ArialMT-32"/>
      <path d="M 7.859375 0 
L 7.859375 71.578125 
L 39.59375 71.578125 
Q 49.171875 71.578125 54.140625 69.640625 
Q 59.125 67.71875 62.109375 62.828125 
Q 65.09375 57.953125 65.09375 52.046875 
Q 65.09375 44.4375 60.15625 39.203125 
Q 55.21875 33.984375 44.921875 32.5625 
Q 48.6875 30.765625 50.640625 29 
Q 54.78125 25.203125 58.5 19.484375 
L 70.953125 0 
L 59.03125 0 
L 49.5625 14.890625 
Q 45.40625 21.34375 42.71875 24.75 
Q 40.046875 28.171875 37.921875 29.53125 
Q 35.796875 30.90625 33.59375 31.453125 
Q 31.984375 31.78125 28.328125 31.78125 
L 17.328125 31.78125 
L 17.328125 0 
z
M 17.328125 39.984375 
L 37.703125 39.984375 
Q 44.1875 39.984375 47.84375 41.328125 
Q 51.515625 42.671875 53.421875 45.625 
Q 55.328125 48.578125 55.328125 52.046875 
Q 55.328125 57.125 51.640625 60.390625 
Q 47.953125 63.671875 39.984375 63.671875 
L 17.328125 63.671875 
z
" id="ArialMT-82"/>
      <path d="M 42.09375 16.703125 
L 51.171875 15.578125 
Q 49.03125 7.625 43.21875 3.21875 
Q 37.40625 -1.171875 28.375 -1.171875 
Q 17 -1.171875 10.328125 5.828125 
Q 3.65625 12.84375 3.65625 25.484375 
Q 3.65625 38.578125 10.390625 45.796875 
Q 17.140625 53.03125 27.875 53.03125 
Q 38.28125 53.03125 44.875 45.953125 
Q 51.46875 38.875 51.46875 26.03125 
Q 51.46875 25.25 51.421875 23.6875 
L 12.75 23.6875 
Q 13.234375 15.140625 17.578125 10.59375 
Q 21.921875 6.0625 28.421875 6.0625 
Q 33.25 6.0625 36.671875 8.59375 
Q 40.09375 11.140625 42.09375 16.703125 
z
M 13.234375 30.90625 
L 42.1875 30.90625 
Q 41.609375 37.453125 38.875 40.71875 
Q 34.671875 45.796875 27.984375 45.796875 
Q 21.921875 45.796875 17.796875 41.75 
Q 13.671875 37.703125 13.234375 30.90625 
z
" id="ArialMT-101"/>
      <path d="M 3.078125 15.484375 
L 11.765625 16.84375 
Q 12.5 11.625 15.84375 8.84375 
Q 19.1875 6.0625 25.203125 6.0625 
Q 31.25 6.0625 34.171875 8.515625 
Q 37.109375 10.984375 37.109375 14.3125 
Q 37.109375 17.28125 34.515625 19 
Q 32.71875 20.171875 25.53125 21.96875 
Q 15.875 24.421875 12.140625 26.203125 
Q 8.40625 27.984375 6.46875 31.125 
Q 4.546875 34.28125 4.546875 38.09375 
Q 4.546875 41.546875 6.125 44.5 
Q 7.71875 47.46875 10.453125 49.421875 
Q 12.5 50.921875 16.03125 51.96875 
Q 19.578125 53.03125 23.640625 53.03125 
Q 29.734375 53.03125 34.34375 51.265625 
Q 38.96875 49.515625 41.15625 46.5 
Q 43.359375 43.5 44.1875 38.484375 
L 35.59375 37.3125 
Q 35.015625 41.3125 32.203125 43.546875 
Q 29.390625 45.796875 24.265625 45.796875 
Q 18.21875 45.796875 15.625 43.796875 
Q 13.03125 41.796875 13.03125 39.109375 
Q 13.03125 37.40625 14.109375 36.03125 
Q 15.1875 34.625 17.484375 33.6875 
Q 18.796875 33.203125 25.25 31.453125 
Q 34.578125 28.953125 38.25 27.359375 
Q 41.9375 25.78125 44.03125 22.75 
Q 46.140625 19.734375 46.140625 15.234375 
Q 46.140625 10.84375 43.578125 6.953125 
Q 41.015625 3.078125 36.171875 0.953125 
Q 31.34375 -1.171875 25.25 -1.171875 
Q 15.140625 -1.171875 9.84375 3.03125 
Q 4.546875 7.234375 3.078125 15.484375 
z
" id="ArialMT-115"/>
     </defs>
     <g style="fill:#262626;" transform="translate(497.02875 680.798437)scale(0.24 -0.24)">
      <use xlink:href="#ArialMT-83"/>
      <use x="66.699219" xlink:href="#ArialMT-105"/>
      <use x="88.916016" xlink:href="#ArialMT-109"/>
      <use x="172.216797" xlink:href="#ArialMT-117"/>
      <use x="227.832031" xlink:href="#ArialMT-108"/>
      <use x="250.048828" xlink:href="#ArialMT-97"/>
      <use x="305.664062" xlink:href="#ArialMT-116"/>
      <use x="333.447266" xlink:href="#ArialMT-105"/>
      <use x="355.664062" xlink:href="#ArialMT-111"/>
      <use x="411.279297" xlink:href="#ArialMT-110"/>
      <use x="466.894531" xlink:href="#ArialMT-32"/>
      <use x="494.677734" xlink:href="#ArialMT-82"/>
      <use x="566.894531" xlink:href="#ArialMT-101"/>
      <use x="622.509766" xlink:href="#ArialMT-115"/>
      <use x="672.509766" xlink:href="#ArialMT-117"/>
      <use x="728.125" xlink:href="#ArialMT-108"/>
      <use x="750.341797" xlink:href="#ArialMT-116"/>
     </g>
    </g>
   </g>
   <g id="matplotlib.axis_2">
    <g id="ytick_1">
     <g id="line2d_7">
      <path clip-path="url(#pb8afb11c26)" d="M 144 605.290909 
L 1036.8 605.290909 
" style="fill:none;stroke:#cccccc;stroke-linecap:round;"/>
     </g>
     <g id="text_8">
      <!-- 0.0 -->
      <g style="fill:#262626;" transform="translate(103.92 613.164503)scale(0.22 -0.22)">
       <use xlink:href="#ArialMT-48"/>
       <use x="55.615234" xlink:href="#ArialMT-46"/>
       <use x="83.398438" xlink:href="#ArialMT-48"/>
      </g>
     </g>
    </g>
    <g id="ytick_2">
     <g id="line2d_8">
      <path clip-path="url(#pb8afb11c26)" d="M 144 525.922886 
L 1036.8 525.922886 
" style="fill:none;stroke:#cccccc;stroke-linecap:round;"/>
     </g>
     <g id="text_9">
      <!-- 0.2 -->
      <g style="fill:#262626;" transform="translate(103.92 533.796479)scale(0.22 -0.22)">
       <use xlink:href="#ArialMT-48"/>
       <use x="55.615234" xlink:href="#ArialMT-46"/>
       <use x="83.398438" xlink:href="#ArialMT-50"/>
      </g>
     </g>
    </g>
    <g id="ytick_3">
     <g id="line2d_9">
      <path clip-path="url(#pb8afb11c26)" d="M 144 446.554862 
L 1036.8 446.554862 
" style="fill:none;stroke:#cccccc;stroke-linecap:round;"/>
     </g>
     <g id="text_10">
      <!-- 0.4 -->
      <g style="fill:#262626;" transform="translate(103.92 454.428456)scale(0.22 -0.22)">
       <use xlink:href="#ArialMT-48"/>
       <use x="55.615234" xlink:href="#ArialMT-46"/>
       <use x="83.398438" xlink:href="#ArialMT-52"/>
      </g>
     </g>
    </g>
    <g id="ytick_4">
     <g id="line2d_10">
      <path clip-path="url(#pb8afb11c26)" d="M 144 367.186838 
L 1036.8 367.186838 
" style="fill:none;stroke:#cccccc;stroke-linecap:round;"/>
     </g>
     <g id="text_11">
      <!-- 0.6 -->
      <g style="fill:#262626;" transform="translate(103.92 375.060432)scale(0.22 -0.22)">
       <use xlink:href="#ArialMT-48"/>
       <use x="55.615234" xlink:href="#ArialMT-46"/>
       <use x="83.398438" xlink:href="#ArialMT-54"/>
      </g>
     </g>
    </g>
    <g id="ytick_5">
     <g id="line2d_11">
      <path clip-path="url(#pb8afb11c26)" d="M 144 287.818815 
L 1036.8 287.818815 
" style="fill:none;stroke:#cccccc;stroke-linecap:round;"/>
     </g>
     <g id="text_12">
      <!-- 0.8 -->
      <g style="fill:#262626;" transform="translate(103.92 295.692409)scale(0.22 -0.22)">
       <use xlink:href="#ArialMT-48"/>
       <use x="55.615234" xlink:href="#ArialMT-46"/>
       <use x="83.398438" xlink:href="#ArialMT-56"/>
      </g>
     </g>
    </g>
    <g id="ytick_6">
     <g id="line2d_12">
      <path clip-path="url(#pb8afb11c26)" d="M 144 208.450791 
L 1036.8 208.450791 
" style="fill:none;stroke:#cccccc;stroke-linecap:round;"/>
     </g>
     <g id="text_13">
      <!-- 1.0 -->
      <g style="fill:#262626;" transform="translate(103.92 216.324385)scale(0.22 -0.22)">
       <use xlink:href="#ArialMT-49"/>
       <use x="55.615234" xlink:href="#ArialMT-46"/>
       <use x="83.398438" xlink:href="#ArialMT-48"/>
      </g>
     </g>
    </g>
    <g id="ytick_7">
     <g id="line2d_13">
      <path clip-path="url(#pb8afb11c26)" d="M 144 129.082768 
L 1036.8 129.082768 
" style="fill:none;stroke:#cccccc;stroke-linecap:round;"/>
     </g>
     <g id="text_14">
      <!-- 1.2 -->
      <g style="fill:#262626;" transform="translate(103.92 136.956362)scale(0.22 -0.22)">
       <use xlink:href="#ArialMT-49"/>
       <use x="55.615234" xlink:href="#ArialMT-46"/>
       <use x="83.398438" xlink:href="#ArialMT-50"/>
      </g>
     </g>
    </g>
    <g id="text_15">
     <!-- Predicted -->
     <defs>
      <path d="M 7.71875 0 
L 7.71875 71.578125 
L 34.71875 71.578125 
Q 41.84375 71.578125 45.609375 70.90625 
Q 50.875 70.015625 54.4375 67.546875 
Q 58.015625 65.09375 60.1875 60.640625 
Q 62.359375 56.203125 62.359375 50.875 
Q 62.359375 41.75 56.546875 35.421875 
Q 50.734375 29.109375 35.546875 29.109375 
L 17.1875 29.109375 
L 17.1875 0 
z
M 17.1875 37.546875 
L 35.6875 37.546875 
Q 44.875 37.546875 48.734375 40.96875 
Q 52.59375 44.390625 52.59375 50.59375 
Q 52.59375 55.078125 50.3125 58.265625 
Q 48.046875 61.46875 44.34375 62.5 
Q 41.9375 63.140625 35.5 63.140625 
L 17.1875 63.140625 
z
" id="ArialMT-80"/>
      <path d="M 6.5 0 
L 6.5 51.859375 
L 14.40625 51.859375 
L 14.40625 44 
Q 17.4375 49.515625 20 51.265625 
Q 22.5625 53.03125 25.640625 53.03125 
Q 30.078125 53.03125 34.671875 50.203125 
L 31.640625 42.046875 
Q 28.421875 43.953125 25.203125 43.953125 
Q 22.3125 43.953125 20.015625 42.21875 
Q 17.71875 40.484375 16.75 37.40625 
Q 15.28125 32.71875 15.28125 27.15625 
L 15.28125 0 
z
" id="ArialMT-114"/>
      <path d="M 40.234375 0 
L 40.234375 6.546875 
Q 35.296875 -1.171875 25.734375 -1.171875 
Q 19.53125 -1.171875 14.328125 2.25 
Q 9.125 5.671875 6.265625 11.796875 
Q 3.421875 17.921875 3.421875 25.875 
Q 3.421875 33.640625 6 39.96875 
Q 8.59375 46.296875 13.765625 49.65625 
Q 18.953125 53.03125 25.34375 53.03125 
Q 30.03125 53.03125 33.6875 51.046875 
Q 37.359375 49.078125 39.65625 45.90625 
L 39.65625 71.578125 
L 48.390625 71.578125 
L 48.390625 0 
z
M 12.453125 25.875 
Q 12.453125 15.921875 16.640625 10.984375 
Q 20.84375 6.0625 26.5625 6.0625 
Q 32.328125 6.0625 36.34375 10.765625 
Q 40.375 15.484375 40.375 25.140625 
Q 40.375 35.796875 36.265625 40.765625 
Q 32.171875 45.75 26.171875 45.75 
Q 20.3125 45.75 16.375 40.96875 
Q 12.453125 36.1875 12.453125 25.875 
z
" id="ArialMT-100"/>
      <path d="M 40.4375 19 
L 49.078125 17.875 
Q 47.65625 8.9375 41.8125 3.875 
Q 35.984375 -1.171875 27.484375 -1.171875 
Q 16.84375 -1.171875 10.375 5.78125 
Q 3.90625 12.75 3.90625 25.734375 
Q 3.90625 34.125 6.6875 40.421875 
Q 9.46875 46.734375 15.15625 49.875 
Q 20.84375 53.03125 27.546875 53.03125 
Q 35.984375 53.03125 41.359375 48.75 
Q 46.734375 44.484375 48.25 36.625 
L 39.703125 35.296875 
Q 38.484375 40.53125 35.375 43.15625 
Q 32.28125 45.796875 27.875 45.796875 
Q 21.234375 45.796875 17.078125 41.03125 
Q 12.9375 36.28125 12.9375 25.984375 
Q 12.9375 15.53125 16.9375 10.796875 
Q 20.953125 6.0625 27.390625 6.0625 
Q 32.5625 6.0625 36.03125 9.234375 
Q 39.5 12.40625 40.4375 19 
z
" id="ArialMT-99"/>
     </defs>
     <g style="fill:#262626;" transform="translate(95.15 408.8925)rotate(-90)scale(0.24 -0.24)">
      <use xlink:href="#ArialMT-80"/>
      <use x="66.699219" xlink:href="#ArialMT-114"/>
      <use x="100" xlink:href="#ArialMT-101"/>
      <use x="155.615234" xlink:href="#ArialMT-100"/>
      <use x="211.230469" xlink:href="#ArialMT-105"/>
      <use x="233.447266" xlink:href="#ArialMT-99"/>
      <use x="283.447266" xlink:href="#ArialMT-116"/>
      <use x="311.230469" xlink:href="#ArialMT-101"/>
      <use x="366.845703" xlink:href="#ArialMT-100"/>
     </g>
    </g>
   </g>
   <g id="LineCollection_1">
    <path clip-path="url(#pb8afb11c26)" d="M 586.148571 494.129723 
L 586.148571 232.604264 
" style="fill:none;stroke:#64b5cd;stroke-width:0.5;"/>
    <path clip-path="url(#pb8afb11c26)" d="M 511.04 458.131984 
L 511.04 196.524956 
" style="fill:none;stroke:#64b5cd;stroke-width:0.5;"/>
    <path clip-path="url(#pb8afb11c26)" d="M 352.32 526.975386 
L 352.32 265.425975 
" style="fill:none;stroke:#64b5cd;stroke-width:0.5;"/>
    <path clip-path="url(#pb8afb11c26)" d="M 906.780583 434.362727 
L 906.780583 172.800551 
" style="fill:none;stroke:#64b5cd;stroke-width:0.5;"/>
    <path clip-path="url(#pb8afb11c26)" d="M 1036.8 457.835774 
L 1036.8 196.23705 
" style="fill:none;stroke:#64b5cd;stroke-width:0.5;"/>
    <path clip-path="url(#pb8afb11c26)" d="M 669.176471 430.448989 
L 669.176471 168.903144 
" style="fill:none;stroke:#64b5cd;stroke-width:0.5;"/>
    <path clip-path="url(#pb8afb11c26)" d="M 954.96 414.486128 
L 954.96 152.883443 
" style="fill:none;stroke:#64b5cd;stroke-width:0.5;"/>
    <path clip-path="url(#pb8afb11c26)" d="M 585.44 477.798705 
L 585.44 216.172761 
" style="fill:none;stroke:#64b5cd;stroke-width:0.5;"/>
    <path clip-path="url(#pb8afb11c26)" d="M 798.72 453.553844 
L 798.72 192.010822 
" style="fill:none;stroke:#64b5cd;stroke-width:0.5;"/>
    <path clip-path="url(#pb8afb11c26)" d="M 715.392 483.792283 
L 715.392 222.282624 
" style="fill:none;stroke:#64b5cd;stroke-width:0.5;"/>
    <path clip-path="url(#pb8afb11c26)" d="M 548.736 455.985214 
L 548.736 194.34447 
" style="fill:none;stroke:#64b5cd;stroke-width:0.5;"/>
    <path clip-path="url(#pb8afb11c26)" d="M 847.597351 429.742723 
L 847.597351 168.109435 
" style="fill:none;stroke:#64b5cd;stroke-width:0.5;"/>
    <path clip-path="url(#pb8afb11c26)" d="M 787.489811 423.657194 
L 787.489811 162.084657 
" style="fill:none;stroke:#64b5cd;stroke-width:0.5;"/>
    <path clip-path="url(#pb8afb11c26)" d="M 663.982418 446.30617 
L 663.982418 184.761722 
" style="fill:none;stroke:#64b5cd;stroke-width:0.5;"/>
    <path clip-path="url(#pb8afb11c26)" d="M 910.32 417.395162 
L 910.32 155.822325 
" style="fill:none;stroke:#64b5cd;stroke-width:0.5;"/>
    <path clip-path="url(#pb8afb11c26)" d="M 1030.137313 372.730255 
L 1030.137313 111.109091 
" style="fill:none;stroke:#64b5cd;stroke-width:0.5;"/>
    <path clip-path="url(#pb8afb11c26)" d="M 659.772973 437.756873 
L 659.772973 176.216084 
" style="fill:none;stroke:#64b5cd;stroke-width:0.5;"/>
    <path clip-path="url(#pb8afb11c26)" d="M 717.942857 551.928361 
L 717.942857 290.388161 
" style="fill:none;stroke:#64b5cd;stroke-width:0.5;"/>
    <path clip-path="url(#pb8afb11c26)" d="M 862.980531 430.302209 
L 862.980531 168.627527 
" style="fill:none;stroke:#64b5cd;stroke-width:0.5;"/>
    <path clip-path="url(#pb8afb11c26)" d="M 840.384 475.329134 
L 840.384 213.694009 
" style="fill:none;stroke:#64b5cd;stroke-width:0.5;"/>
    <path clip-path="url(#pb8afb11c26)" d="M 964.525714 415.022269 
L 964.525714 153.55677 
" style="fill:none;stroke:#64b5cd;stroke-width:0.5;"/>
    <path clip-path="url(#pb8afb11c26)" d="M 762.475978 577.692659 
L 762.475978 316.192714 
" style="fill:none;stroke:#64b5cd;stroke-width:0.5;"/>
    <path clip-path="url(#pb8afb11c26)" d="M 609 512.617275 
L 609 251.027083 
" style="fill:none;stroke:#64b5cd;stroke-width:0.5;"/>
    <path clip-path="url(#pb8afb11c26)" d="M 750.36 553.977088 
L 750.36 292.48372 
" style="fill:none;stroke:#64b5cd;stroke-width:0.5;"/>
    <path clip-path="url(#pb8afb11c26)" d="M 739.2 458.502086 
L 739.2 197.014894 
" style="fill:none;stroke:#64b5cd;stroke-width:0.5;"/>
    <path clip-path="url(#pb8afb11c26)" d="M 888 462.872529 
L 888 201.355024 
" style="fill:none;stroke:#64b5cd;stroke-width:0.5;"/>
    <path clip-path="url(#pb8afb11c26)" d="M 754.268354 494.758038 
L 754.268354 233.176157 
" style="fill:none;stroke:#64b5cd;stroke-width:0.5;"/>
    <path clip-path="url(#pb8afb11c26)" d="M 894.584071 431.178972 
L 894.584071 169.530473 
" style="fill:none;stroke:#64b5cd;stroke-width:0.5;"/>
    <path clip-path="url(#pb8afb11c26)" d="M 759.04 474.115865 
L 759.04 212.530803 
" style="fill:none;stroke:#64b5cd;stroke-width:0.5;"/>
    <path clip-path="url(#pb8afb11c26)" d="M 699.52 496.56356 
L 699.52 234.992474 
" style="fill:none;stroke:#64b5cd;stroke-width:0.5;"/>
    <path clip-path="url(#pb8afb11c26)" d="M 882.048 393.83759 
L 882.048 132.239942 
" style="fill:none;stroke:#64b5cd;stroke-width:0.5;"/>
    <path clip-path="url(#pb8afb11c26)" d="M 435.648 558.683921 
L 435.648 297.089046 
" style="fill:none;stroke:#64b5cd;stroke-width:0.5;"/>
    <path clip-path="url(#pb8afb11c26)" d="M 835.92 403.554834 
L 835.92 142.029552 
" style="fill:none;stroke:#64b5cd;stroke-width:0.5;"/>
    <path clip-path="url(#pb8afb11c26)" d="M 499.466667 536.459737 
L 499.466667 274.852227 
" style="fill:none;stroke:#64b5cd;stroke-width:0.5;"/>
    <path clip-path="url(#pb8afb11c26)" d="M 967.36 390.104013 
L 967.36 128.509533 
" style="fill:none;stroke:#64b5cd;stroke-width:0.5;"/>
    <path clip-path="url(#pb8afb11c26)" d="M 637.665882 498.52212 
L 637.665882 237.020728 
" style="fill:none;stroke:#64b5cd;stroke-width:0.5;"/>
    <path clip-path="url(#pb8afb11c26)" d="M 749.391781 441.001564 
L 749.391781 179.450544 
" style="fill:none;stroke:#64b5cd;stroke-width:0.5;"/>
    <path clip-path="url(#pb8afb11c26)" d="M 411.84 536.05435 
L 411.84 274.573489 
" style="fill:none;stroke:#64b5cd;stroke-width:0.5;"/>
    <path clip-path="url(#pb8afb11c26)" d="M 932.64 450.295538 
L 932.64 188.753589 
" style="fill:none;stroke:#64b5cd;stroke-width:0.5;"/>
    <path clip-path="url(#pb8afb11c26)" d="M 544.705512 548.6952 
L 544.705512 287.121638 
" style="fill:none;stroke:#64b5cd;stroke-width:0.5;"/>
    <path clip-path="url(#pb8afb11c26)" d="M 781.714286 486.13771 
L 781.714286 224.509479 
" style="fill:none;stroke:#64b5cd;stroke-width:0.5;"/>
    <path clip-path="url(#pb8afb11c26)" d="M 617.832402 536.070523 
L 617.832402 274.569635 
" style="fill:none;stroke:#64b5cd;stroke-width:0.5;"/>
    <path clip-path="url(#pb8afb11c26)" d="M 864 379.208897 
L 864 117.651238 
" style="fill:none;stroke:#64b5cd;stroke-width:0.5;"/>
    <path clip-path="url(#pb8afb11c26)" d="M 614.102655 511.380506 
L 614.102655 249.880999 
" style="fill:none;stroke:#64b5cd;stroke-width:0.5;"/>
    <path clip-path="url(#pb8afb11c26)" d="M 519.12605 541.588027 
L 519.12605 279.992025 
" style="fill:none;stroke:#64b5cd;stroke-width:0.5;"/>
    <path clip-path="url(#pb8afb11c26)" d="M 545.76 532.162788 
L 545.76 270.606001 
" style="fill:none;stroke:#64b5cd;stroke-width:0.5;"/>
    <path clip-path="url(#pb8afb11c26)" d="M 888 470.932453 
L 888 209.432306 
" style="fill:none;stroke:#64b5cd;stroke-width:0.5;"/>
    <path clip-path="url(#pb8afb11c26)" d="M 910.643478 431.305087 
L 910.643478 169.744621 
" style="fill:none;stroke:#64b5cd;stroke-width:0.5;"/>
    <path clip-path="url(#pb8afb11c26)" d="M 642.48 497.105587 
L 642.48 235.508472 
" style="fill:none;stroke:#64b5cd;stroke-width:0.5;"/>
    <path clip-path="url(#pb8afb11c26)" d="M 947.52 461.012412 
L 947.52 199.422638 
" style="fill:none;stroke:#64b5cd;stroke-width:0.5;"/>
    <path clip-path="url(#pb8afb11c26)" d="M 679.68 515.247281 
L 679.68 253.712927 
" style="fill:none;stroke:#64b5cd;stroke-width:0.5;"/>
    <path clip-path="url(#pb8afb11c26)" d="M 970.048598 420.150899 
L 970.048598 158.634442 
" style="fill:none;stroke:#64b5cd;stroke-width:0.5;"/>
    <path clip-path="url(#pb8afb11c26)" d="M 471.36 557.290309 
L 471.36 295.730545 
" style="fill:none;stroke:#64b5cd;stroke-width:0.5;"/>
    <path clip-path="url(#pb8afb11c26)" d="M 896.266667 427.254035 
L 896.266667 165.706638 
" style="fill:none;stroke:#64b5cd;stroke-width:0.5;"/>
    <path clip-path="url(#pb8afb11c26)" d="M 401.834483 520.983667 
L 401.834483 259.497558 
" style="fill:none;stroke:#64b5cd;stroke-width:0.5;"/>
    <path clip-path="url(#pb8afb11c26)" d="M 900.530526 391.732263 
L 900.530526 130.217292 
" style="fill:none;stroke:#64b5cd;stroke-width:0.5;"/>
    <path clip-path="url(#pb8afb11c26)" d="M 956.847761 395.382376 
L 956.847761 133.798714 
" style="fill:none;stroke:#64b5cd;stroke-width:0.5;"/>
    <path clip-path="url(#pb8afb11c26)" d="M 962.4 448.134484 
L 962.4 186.545288 
" style="fill:none;stroke:#64b5cd;stroke-width:0.5;"/>
    <path clip-path="url(#pb8afb11c26)" d="M 144 579.163183 
L 144 317.598612 
" style="fill:none;stroke:#64b5cd;stroke-width:0.5;"/>
    <path clip-path="url(#pb8afb11c26)" d="M 850.8 432.504588 
L 850.8 170.984047 
" style="fill:none;stroke:#64b5cd;stroke-width:0.5;"/>
    <path clip-path="url(#pb8afb11c26)" d="M 923.428571 547.733581 
L 923.428571 286.122034 
" style="fill:none;stroke:#64b5cd;stroke-width:0.5;"/>
    <path clip-path="url(#pb8afb11c26)" d="M 694.256327 450.544069 
L 694.256327 189.091894 
" style="fill:none;stroke:#64b5cd;stroke-width:0.5;"/>
    <path clip-path="url(#pb8afb11c26)" d="M 511.623529 571.94411 
L 511.623529 310.3532 
" style="fill:none;stroke:#64b5cd;stroke-width:0.5;"/>
    <path clip-path="url(#pb8afb11c26)" d="M 694.56 468.890412 
L 694.56 207.350299 
" style="fill:none;stroke:#64b5cd;stroke-width:0.5;"/>
    <path clip-path="url(#pb8afb11c26)" d="M 447.552 488.654082 
L 447.552 227.159328 
" style="fill:none;stroke:#64b5cd;stroke-width:0.5;"/>
    <path clip-path="url(#pb8afb11c26)" d="M 477.312 543.609906 
L 477.312 282.099257 
" style="fill:none;stroke:#64b5cd;stroke-width:0.5;"/>
    <path clip-path="url(#pb8afb11c26)" d="M 771.84 487.619183 
L 771.84 226.049338 
" style="fill:none;stroke:#64b5cd;stroke-width:0.5;"/>
    <path clip-path="url(#pb8afb11c26)" d="M 620.16 475.165177 
L 620.16 213.683127 
" style="fill:none;stroke:#64b5cd;stroke-width:0.5;"/>
    <path clip-path="url(#pb8afb11c26)" d="M 590.4 543.556206 
L 590.4 282.010125 
" style="fill:none;stroke:#64b5cd;stroke-width:0.5;"/>
    <path clip-path="url(#pb8afb11c26)" d="M 605.28 470.134965 
L 605.28 208.649806 
" style="fill:none;stroke:#64b5cd;stroke-width:0.5;"/>
    <path clip-path="url(#pb8afb11c26)" d="M 955.636364 512.135021 
L 955.636364 250.587939 
" style="fill:none;stroke:#64b5cd;stroke-width:0.5;"/>
    <path clip-path="url(#pb8afb11c26)" d="M 954.228902 388.473024 
L 954.228902 126.982852 
" style="fill:none;stroke:#64b5cd;stroke-width:0.5;"/>
    <path clip-path="url(#pb8afb11c26)" d="M 1036.8 458.096835 
L 1036.8 196.530079 
" style="fill:none;stroke:#64b5cd;stroke-width:0.5;"/>
    <path clip-path="url(#pb8afb11c26)" d="M 594.12 594.917427 
L 594.12 333.423267 
" style="fill:none;stroke:#64b5cd;stroke-width:0.5;"/>
    <path clip-path="url(#pb8afb11c26)" d="M 471.36 545.037528 
L 471.36 283.477791 
" style="fill:none;stroke:#64b5cd;stroke-width:0.5;"/>
    <path clip-path="url(#pb8afb11c26)" d="M 548.736 473.359341 
L 548.736 211.804327 
" style="fill:none;stroke:#64b5cd;stroke-width:0.5;"/>
    <path clip-path="url(#pb8afb11c26)" d="M 742.47033 400.935292 
L 742.47033 139.458446 
" style="fill:none;stroke:#64b5cd;stroke-width:0.5;"/>
    <path clip-path="url(#pb8afb11c26)" d="M 601.729949 509.109198 
L 601.729949 247.559185 
" style="fill:none;stroke:#64b5cd;stroke-width:0.5;"/>
    <path clip-path="url(#pb8afb11c26)" d="M 144 449.337323 
L 144 187.813874 
" style="fill:none;stroke:#64b5cd;stroke-width:0.5;"/>
    <path clip-path="url(#pb8afb11c26)" d="M 700.550649 538.86762 
L 700.550649 277.368438 
" style="fill:none;stroke:#64b5cd;stroke-width:0.5;"/>
    <path clip-path="url(#pb8afb11c26)" d="M 926.512941 410.356587 
L 926.512941 148.883004 
" style="fill:none;stroke:#64b5cd;stroke-width:0.5;"/>
    <path clip-path="url(#pb8afb11c26)" d="M 844.162656 490.306231 
L 844.162656 228.772934 
" style="fill:none;stroke:#64b5cd;stroke-width:0.5;"/>
    <path clip-path="url(#pb8afb11c26)" d="M 927.68 435.572245 
L 927.68 174.037195 
" style="fill:none;stroke:#64b5cd;stroke-width:0.5;"/>
    <path clip-path="url(#pb8afb11c26)" d="M 935.616 440.101195 
L 935.616 178.566044 
" style="fill:none;stroke:#64b5cd;stroke-width:0.5;"/>
    <path clip-path="url(#pb8afb11c26)" d="M 694.44812 580.797809 
L 694.44812 319.19955 
" style="fill:none;stroke:#64b5cd;stroke-width:0.5;"/>
    <path clip-path="url(#pb8afb11c26)" d="M 590.4 549.326294 
L 590.4 287.731132 
" style="fill:none;stroke:#64b5cd;stroke-width:0.5;"/>
    <path clip-path="url(#pb8afb11c26)" d="M 544.447059 556.77141 
L 544.447059 295.242976 
" style="fill:none;stroke:#64b5cd;stroke-width:0.5;"/>
    <path clip-path="url(#pb8afb11c26)" d="M 749.551304 537.314884 
L 749.551304 275.778291 
" style="fill:none;stroke:#64b5cd;stroke-width:0.5;"/>
    <path clip-path="url(#pb8afb11c26)" d="M 503.736264 561.169771 
L 503.736264 299.514992 
" style="fill:none;stroke:#64b5cd;stroke-width:0.5;"/>
    <path clip-path="url(#pb8afb11c26)" d="M 709.44 457.399574 
L 709.44 195.880878 
" style="fill:none;stroke:#64b5cd;stroke-width:0.5;"/>
    <path clip-path="url(#pb8afb11c26)" d="M 645.668571 545.582095 
L 645.668571 284.084015 
" style="fill:none;stroke:#64b5cd;stroke-width:0.5;"/>
    <path clip-path="url(#pb8afb11c26)" d="M 835.2 436.20683 
L 835.2 174.767226 
" style="fill:none;stroke:#64b5cd;stroke-width:0.5;"/>
    <path clip-path="url(#pb8afb11c26)" d="M 934.4 419.650412 
L 934.4 158.061344 
" style="fill:none;stroke:#64b5cd;stroke-width:0.5;"/>
    <path clip-path="url(#pb8afb11c26)" d="M 922.95302 395.131074 
L 922.95302 133.615705 
" style="fill:none;stroke:#64b5cd;stroke-width:0.5;"/>
    <path clip-path="url(#pb8afb11c26)" d="M 687.12 445.834838 
L 687.12 184.248794 
" style="fill:none;stroke:#64b5cd;stroke-width:0.5;"/>
    <path clip-path="url(#pb8afb11c26)" d="M 879.497143 510.421241 
L 879.497143 248.861355 
" style="fill:none;stroke:#64b5cd;stroke-width:0.5;"/>
    <path clip-path="url(#pb8afb11c26)" d="M 813.6 536.308777 
L 813.6 274.736996 
" style="fill:none;stroke:#64b5cd;stroke-width:0.5;"/>
    <path clip-path="url(#pb8afb11c26)" d="M 663.281633 529.631286 
L 663.281633 268.068975 
" style="fill:none;stroke:#64b5cd;stroke-width:0.5;"/>
    <path clip-path="url(#pb8afb11c26)" d="M 687.12 446.48608 
L 687.12 185.000475 
" style="fill:none;stroke:#64b5cd;stroke-width:0.5;"/>
    <path clip-path="url(#pb8afb11c26)" d="M 571.404255 519.1751 
L 571.404255 257.692708 
" style="fill:none;stroke:#64b5cd;stroke-width:0.5;"/>
    <path clip-path="url(#pb8afb11c26)" d="M 866.973913 561.422156 
L 866.973913 299.84581 
" style="fill:none;stroke:#64b5cd;stroke-width:0.5;"/>
    <path clip-path="url(#pb8afb11c26)" d="M 812.27929 424.047329 
L 812.27929 162.542658 
" style="fill:none;stroke:#64b5cd;stroke-width:0.5;"/>
    <path clip-path="url(#pb8afb11c26)" d="M 941.568 373.743314 
L 941.568 112.270647 
" style="fill:none;stroke:#64b5cd;stroke-width:0.5;"/>
    <path clip-path="url(#pb8afb11c26)" d="M 719.36 496.06543 
L 719.36 234.505174 
" style="fill:none;stroke:#64b5cd;stroke-width:0.5;"/>
    <path clip-path="url(#pb8afb11c26)" d="M 893.952 468.033109 
L 893.952 206.553064 
" style="fill:none;stroke:#64b5cd;stroke-width:0.5;"/>
    <path clip-path="url(#pb8afb11c26)" d="M 883.748571 434.522566 
L 883.748571 172.964919 
" style="fill:none;stroke:#64b5cd;stroke-width:0.5;"/>
    <path clip-path="url(#pb8afb11c26)" d="M 801.852632 489.382528 
L 801.852632 227.86692 
" style="fill:none;stroke:#64b5cd;stroke-width:0.5;"/>
    <path clip-path="url(#pb8afb11c26)" d="M 940.08 465.488042 
L 940.08 203.966679 
" style="fill:none;stroke:#64b5cd;stroke-width:0.5;"/>
    <path clip-path="url(#pb8afb11c26)" d="M 748.218182 565.914457 
L 748.218182 304.353373 
" style="fill:none;stroke:#64b5cd;stroke-width:0.5;"/>
    <path clip-path="url(#pb8afb11c26)" d="M 382.08 564.308817 
L 382.08 302.817132 
" style="fill:none;stroke:#64b5cd;stroke-width:0.5;"/>
    <path clip-path="url(#pb8afb11c26)" d="M 706.133333 499.829042 
L 706.133333 238.304993 
" style="fill:none;stroke:#64b5cd;stroke-width:0.5;"/>
    <path clip-path="url(#pb8afb11c26)" d="M 673.066667 518.579782 
L 673.066667 257.066766 
" style="fill:none;stroke:#64b5cd;stroke-width:0.5;"/>
    <path clip-path="url(#pb8afb11c26)" d="M 739.2 469.251209 
L 739.2 207.627133 
" style="fill:none;stroke:#64b5cd;stroke-width:0.5;"/>
    <path clip-path="url(#pb8afb11c26)" d="M 921.48 455.742752 
L 921.48 194.214264 
" style="fill:none;stroke:#64b5cd;stroke-width:0.5;"/>
    <path clip-path="url(#pb8afb11c26)" d="M 698.352941 508.85655 
L 698.352941 247.316922 
" style="fill:none;stroke:#64b5cd;stroke-width:0.5;"/>
    <path clip-path="url(#pb8afb11c26)" d="M 596.869565 558.573197 
L 596.869565 297.034104 
" style="fill:none;stroke:#64b5cd;stroke-width:0.5;"/>
    <path clip-path="url(#pb8afb11c26)" d="M 731.290365 440.258051 
L 731.290365 178.641851 
" style="fill:none;stroke:#64b5cd;stroke-width:0.5;"/>
    <path clip-path="url(#pb8afb11c26)" d="M 963.510448 426.947889 
L 963.510448 165.449691 
" style="fill:none;stroke:#64b5cd;stroke-width:0.5;"/>
    <path clip-path="url(#pb8afb11c26)" d="M 693.776842 461.899252 
L 693.776842 200.31341 
" style="fill:none;stroke:#64b5cd;stroke-width:0.5;"/>
    <path clip-path="url(#pb8afb11c26)" d="M 422.4 544.518235 
L 422.4 282.835107 
" style="fill:none;stroke:#64b5cd;stroke-width:0.5;"/>
    <path clip-path="url(#pb8afb11c26)" d="M 858.24 434.480536 
L 858.24 172.903992 
" style="fill:none;stroke:#64b5cd;stroke-width:0.5;"/>
    <path clip-path="url(#pb8afb11c26)" d="M 525.3 523.427121 
L 525.3 261.924181 
" style="fill:none;stroke:#64b5cd;stroke-width:0.5;"/>
    <path clip-path="url(#pb8afb11c26)" d="M 751.104 479.669745 
L 751.104 218.037584 
" style="fill:none;stroke:#64b5cd;stroke-width:0.5;"/>
    <path clip-path="url(#pb8afb11c26)" d="M 525.92 569.608335 
L 525.92 308.044878 
" style="fill:none;stroke:#64b5cd;stroke-width:0.5;"/>
    <path clip-path="url(#pb8afb11c26)" d="M 873.329577 524.964847 
L 873.329577 263.428599 
" style="fill:none;stroke:#64b5cd;stroke-width:0.5;"/>
    <path clip-path="url(#pb8afb11c26)" d="M 392.708571 569.926632 
L 392.708571 308.280824 
" style="fill:none;stroke:#64b5cd;stroke-width:0.5;"/>
    <path clip-path="url(#pb8afb11c26)" d="M 471.36 535.724861 
L 471.36 274.186417 
" style="fill:none;stroke:#64b5cd;stroke-width:0.5;"/>
    <path clip-path="url(#pb8afb11c26)" d="M 973.267416 389.985453 
L 973.267416 128.492306 
" style="fill:none;stroke:#64b5cd;stroke-width:0.5;"/>
    <path clip-path="url(#pb8afb11c26)" d="M 653.388957 434.712229 
L 653.388957 173.063111 
" style="fill:none;stroke:#64b5cd;stroke-width:0.5;"/>
    <path clip-path="url(#pb8afb11c26)" d="M 516 535.295808 
L 516 273.689092 
" style="fill:none;stroke:#64b5cd;stroke-width:0.5;"/>
    <path clip-path="url(#pb8afb11c26)" d="M 700.937143 511.106895 
L 700.937143 249.570317 
" style="fill:none;stroke:#64b5cd;stroke-width:0.5;"/>
    <path clip-path="url(#pb8afb11c26)" d="M 603.725373 517.956199 
L 603.725373 256.390522 
" style="fill:none;stroke:#64b5cd;stroke-width:0.5;"/>
    <path clip-path="url(#pb8afb11c26)" d="M 292.8 550.551609 
L 292.8 288.993687 
" style="fill:none;stroke:#64b5cd;stroke-width:0.5;"/>
    <path clip-path="url(#pb8afb11c26)" d="M 600.175182 572.667352 
L 600.175182 311.089975 
" style="fill:none;stroke:#64b5cd;stroke-width:0.5;"/>
    <path clip-path="url(#pb8afb11c26)" d="M 921.351724 468.875241 
L 921.351724 207.195619 
" style="fill:none;stroke:#64b5cd;stroke-width:0.5;"/>
    <path clip-path="url(#pb8afb11c26)" d="M 508.56 567.102871 
L 508.56 305.6598 
" style="fill:none;stroke:#64b5cd;stroke-width:0.5;"/>
    <path clip-path="url(#pb8afb11c26)" d="M 149.952 553.465439 
L 149.952 291.852099 
" style="fill:none;stroke:#64b5cd;stroke-width:0.5;"/>
    <path clip-path="url(#pb8afb11c26)" d="M 557.736585 526.762446 
L 557.736585 265.278671 
" style="fill:none;stroke:#64b5cd;stroke-width:0.5;"/>
    <path clip-path="url(#pb8afb11c26)" d="M 599.268874 528.991568 
L 599.268874 267.483611 
" style="fill:none;stroke:#64b5cd;stroke-width:0.5;"/>
    <path clip-path="url(#pb8afb11c26)" d="M 864.192 444.252074 
L 864.192 182.6543 
" style="fill:none;stroke:#64b5cd;stroke-width:0.5;"/>
    <path clip-path="url(#pb8afb11c26)" d="M 878.08 408.534204 
L 878.08 147.012533 
" style="fill:none;stroke:#64b5cd;stroke-width:0.5;"/>
    <path clip-path="url(#pb8afb11c26)" d="M 754.08 464.891558 
L 754.08 203.279218 
" style="fill:none;stroke:#64b5cd;stroke-width:0.5;"/>
    <path clip-path="url(#pb8afb11c26)" d="M 417.306122 467.893786 
L 417.306122 206.416245 
" style="fill:none;stroke:#64b5cd;stroke-width:0.5;"/>
    <path clip-path="url(#pb8afb11c26)" d="M 543.574825 543.063916 
L 543.574825 281.431859 
" style="fill:none;stroke:#64b5cd;stroke-width:0.5;"/>
    <path clip-path="url(#pb8afb11c26)" d="M 490.085393 470.897004 
L 490.085393 209.323808 
" style="fill:none;stroke:#64b5cd;stroke-width:0.5;"/>
    <path clip-path="url(#pb8afb11c26)" d="M 988.893659 404.317646 
L 988.893659 142.841699 
" style="fill:none;stroke:#64b5cd;stroke-width:0.5;"/>
    <path clip-path="url(#pb8afb11c26)" d="M 831.697297 435.872458 
L 831.697297 174.326977 
" style="fill:none;stroke:#64b5cd;stroke-width:0.5;"/>
    <path clip-path="url(#pb8afb11c26)" d="M 568.08 480.812151 
L 568.08 219.186018 
" style="fill:none;stroke:#64b5cd;stroke-width:0.5;"/>
    <path clip-path="url(#pb8afb11c26)" d="M 391.68 538.108986 
L 391.68 276.568069 
" style="fill:none;stroke:#64b5cd;stroke-width:0.5;"/>
    <path clip-path="url(#pb8afb11c26)" d="M 849.312 479.589499 
L 849.312 218.055786 
" style="fill:none;stroke:#64b5cd;stroke-width:0.5;"/>
   </g>
   <g id="LineCollection_2">
    <path clip-path="url(#pb8afb11c26)" d="M 835.2 451.196144 
L 835.2 189.7128 
" style="fill:none;stroke:#8172b3;stroke-width:0.5;"/>
    <path clip-path="url(#pb8afb11c26)" d="M 768.96 521.37597 
L 768.96 259.715852 
" style="fill:none;stroke:#8172b3;stroke-width:0.5;"/>
    <path clip-path="url(#pb8afb11c26)" d="M 673.728 486.125352 
L 673.728 224.611442 
" style="fill:none;stroke:#8172b3;stroke-width:0.5;"/>
    <path clip-path="url(#pb8afb11c26)" d="M 840.624215 433.664023 
L 840.624215 172.149229 
" style="fill:none;stroke:#8172b3;stroke-width:0.5;"/>
    <path clip-path="url(#pb8afb11c26)" d="M 610.05283 562.99765 
L 610.05283 301.326679 
" style="fill:none;stroke:#8172b3;stroke-width:0.5;"/>
    <path clip-path="url(#pb8afb11c26)" d="M 590.4 502.008626 
L 590.4 240.470927 
" style="fill:none;stroke:#8172b3;stroke-width:0.5;"/>
    <path clip-path="url(#pb8afb11c26)" d="M 471.36 519.692523 
L 471.36 258.095065 
" style="fill:none;stroke:#8172b3;stroke-width:0.5;"/>
    <path clip-path="url(#pb8afb11c26)" d="M 689.6 535.994488 
L 689.6 274.406435 
" style="fill:none;stroke:#8172b3;stroke-width:0.5;"/>
    <path clip-path="url(#pb8afb11c26)" d="M 843.36 458.878954 
L 843.36 197.303923 
" style="fill:none;stroke:#8172b3;stroke-width:0.5;"/>
    <path clip-path="url(#pb8afb11c26)" d="M 616.658824 538.26004 
L 616.658824 276.633176 
" style="fill:none;stroke:#8172b3;stroke-width:0.5;"/>
    <path clip-path="url(#pb8afb11c26)" d="M 703.488 409.211292 
L 703.488 147.660599 
" style="fill:none;stroke:#8172b3;stroke-width:0.5;"/>
    <path clip-path="url(#pb8afb11c26)" d="M 530.246809 462.239502 
L 530.246809 200.702889 
" style="fill:none;stroke:#8172b3;stroke-width:0.5;"/>
    <path clip-path="url(#pb8afb11c26)" d="M 888 466.40882 
L 888 204.920812 
" style="fill:none;stroke:#8172b3;stroke-width:0.5;"/>
    <path clip-path="url(#pb8afb11c26)" d="M 605.28 486.168687 
L 605.28 224.545488 
" style="fill:none;stroke:#8172b3;stroke-width:0.5;"/>
    <path clip-path="url(#pb8afb11c26)" d="M 852.417391 481.710119 
L 852.417391 220.221386 
" style="fill:none;stroke:#8172b3;stroke-width:0.5;"/>
    <path clip-path="url(#pb8afb11c26)" d="M 503.785075 570.416595 
L 503.785075 308.887231 
" style="fill:none;stroke:#8172b3;stroke-width:0.5;"/>
    <path clip-path="url(#pb8afb11c26)" d="M 332.785903 560.231905 
L 332.785903 298.645155 
" style="fill:none;stroke:#8172b3;stroke-width:0.5;"/>
    <path clip-path="url(#pb8afb11c26)" d="M 942.622785 491.876366 
L 942.622785 230.25205 
" style="fill:none;stroke:#8172b3;stroke-width:0.5;"/>
    <path clip-path="url(#pb8afb11c26)" d="M 788.8 443.618024 
L 788.8 182.108251 
" style="fill:none;stroke:#8172b3;stroke-width:0.5;"/>
    <path clip-path="url(#pb8afb11c26)" d="M 606.590674 517.010838 
L 606.590674 255.428998 
" style="fill:none;stroke:#8172b3;stroke-width:0.5;"/>
    <path clip-path="url(#pb8afb11c26)" d="M 676.8 493.946609 
L 676.8 232.383713 
" style="fill:none;stroke:#8172b3;stroke-width:0.5;"/>
    <path clip-path="url(#pb8afb11c26)" d="M 630.08 482.476558 
L 630.08 220.933502 
" style="fill:none;stroke:#8172b3;stroke-width:0.5;"/>
    <path clip-path="url(#pb8afb11c26)" d="M 367.2 541.092534 
L 367.2 279.598088 
" style="fill:none;stroke:#8172b3;stroke-width:0.5;"/>
    <path clip-path="url(#pb8afb11c26)" d="M 689.6 462.701562 
L 689.6 201.139032 
" style="fill:none;stroke:#8172b3;stroke-width:0.5;"/>
    <path clip-path="url(#pb8afb11c26)" d="M 835.92 524.50873 
L 835.92 262.894061 
" style="fill:none;stroke:#8172b3;stroke-width:0.5;"/>
    <path clip-path="url(#pb8afb11c26)" d="M 941.568 408.833518 
L 941.568 147.25781 
" style="fill:none;stroke:#8172b3;stroke-width:0.5;"/>
    <path clip-path="url(#pb8afb11c26)" d="M 430.738686 582.195965 
L 430.738686 320.695093 
" style="fill:none;stroke:#8172b3;stroke-width:0.5;"/>
    <path clip-path="url(#pb8afb11c26)" d="M 575.52 525.115282 
L 575.52 263.524174 
" style="fill:none;stroke:#8172b3;stroke-width:0.5;"/>
    <path clip-path="url(#pb8afb11c26)" d="M 672.24 479.602082 
L 672.24 217.986813 
" style="fill:none;stroke:#8172b3;stroke-width:0.5;"/>
    <path clip-path="url(#pb8afb11c26)" d="M 932.64 399.054983 
L 932.64 137.506357 
" style="fill:none;stroke:#8172b3;stroke-width:0.5;"/>
    <path clip-path="url(#pb8afb11c26)" d="M 471.536095 548.22889 
L 471.536095 286.601145 
" style="fill:none;stroke:#8172b3;stroke-width:0.5;"/>
    <path clip-path="url(#pb8afb11c26)" d="M 352.32 456.240752 
L 352.32 194.753728 
" style="fill:none;stroke:#8172b3;stroke-width:0.5;"/>
    <path clip-path="url(#pb8afb11c26)" d="M 1003.361798 425.628599 
L 1003.361798 163.96971 
" style="fill:none;stroke:#8172b3;stroke-width:0.5;"/>
    <path clip-path="url(#pb8afb11c26)" d="M 342.4 561.404806 
L 342.4 299.866666 
" style="fill:none;stroke:#8172b3;stroke-width:0.5;"/>
    <path clip-path="url(#pb8afb11c26)" d="M 685.917904 541.251177 
L 685.917904 279.659426 
" style="fill:none;stroke:#8172b3;stroke-width:0.5;"/>
    <path clip-path="url(#pb8afb11c26)" d="M 679.68 543.711651 
L 679.68 282.127332 
" style="fill:none;stroke:#8172b3;stroke-width:0.5;"/>
    <path clip-path="url(#pb8afb11c26)" d="M 1036.8 456.059102 
L 1036.8 194.479231 
" style="fill:none;stroke:#8172b3;stroke-width:0.5;"/>
    <path clip-path="url(#pb8afb11c26)" d="M 347.539896 544.901301 
L 347.539896 283.331716 
" style="fill:none;stroke:#8172b3;stroke-width:0.5;"/>
    <path clip-path="url(#pb8afb11c26)" d="M 798.72 462.872887 
L 798.72 201.325805 
" style="fill:none;stroke:#8172b3;stroke-width:0.5;"/>
    <path clip-path="url(#pb8afb11c26)" d="M 667.365517 503.330518 
L 667.365517 241.848119 
" style="fill:none;stroke:#8172b3;stroke-width:0.5;"/>
    <path clip-path="url(#pb8afb11c26)" d="M 873.924324 482.205783 
L 873.924324 220.53386 
" style="fill:none;stroke:#8172b3;stroke-width:0.5;"/>
    <path clip-path="url(#pb8afb11c26)" d="M 888 521.840267 
L 888 260.292891 
" style="fill:none;stroke:#8172b3;stroke-width:0.5;"/>
    <path clip-path="url(#pb8afb11c26)" d="M 679.68 400.313232 
L 679.68 138.826687 
" style="fill:none;stroke:#8172b3;stroke-width:0.5;"/>
    <path clip-path="url(#pb8afb11c26)" d="M 549.426087 554.608579 
L 549.426087 293.071529 
" style="fill:none;stroke:#8172b3;stroke-width:0.5;"/>
    <path clip-path="url(#pb8afb11c26)" d="M 526.628571 568.660824 
L 526.628571 307.017055 
" style="fill:none;stroke:#8172b3;stroke-width:0.5;"/>
    <path clip-path="url(#pb8afb11c26)" d="M 560.64 507.139228 
L 560.64 245.599497 
" style="fill:none;stroke:#8172b3;stroke-width:0.5;"/>
    <path clip-path="url(#pb8afb11c26)" d="M 836.689655 479.347393 
L 836.689655 217.704747 
" style="fill:none;stroke:#8172b3;stroke-width:0.5;"/>
    <path clip-path="url(#pb8afb11c26)" d="M 1007.04 455.37045 
L 1007.04 193.7873 
" style="fill:none;stroke:#8172b3;stroke-width:0.5;"/>
    <path clip-path="url(#pb8afb11c26)" d="M 912.223256 523.869528 
L 912.223256 262.297941 
" style="fill:none;stroke:#8172b3;stroke-width:0.5;"/>
    <path clip-path="url(#pb8afb11c26)" d="M 381.026549 553.881151 
L 381.026549 292.368908 
" style="fill:none;stroke:#8172b3;stroke-width:0.5;"/>
   </g>
   <g id="line2d_14">
    <path clip-path="url(#pb8afb11c26)" d="M 144 605.290909 
L 1036.8 208.450791 
" style="fill:none;stroke:#c44e52;stroke-linecap:round;stroke-width:1.5;"/>
   </g>
   <g id="line2d_15">
    <defs>
     <path d="M 0 3 
C 0.795609 3 1.55874 2.683901 2.12132 2.12132 
C 2.683901 1.55874 3 0.795609 3 0 
C 3 -0.795609 2.683901 -1.55874 2.12132 -2.12132 
C 1.55874 -2.683901 0.795609 -3 0 -3 
C -0.795609 -3 -1.55874 -2.683901 -2.12132 -2.12132 
C -2.683901 -1.55874 -3 -0.795609 -3 0 
C -3 0.795609 -2.683901 1.55874 -2.12132 2.12132 
C -1.55874 2.683901 -0.795609 3 0 3 
z
" id="md15696b5f5" style="stroke:#64b5cd;"/>
    </defs>
    <g clip-path="url(#pb8afb11c26)">
     <use style="fill:#64b5cd;stroke:#64b5cd;" x="586.148571" xlink:href="#md15696b5f5" y="363.366993"/>
     <use style="fill:#64b5cd;stroke:#64b5cd;" x="511.04" xlink:href="#md15696b5f5" y="327.32847"/>
     <use style="fill:#64b5cd;stroke:#64b5cd;" x="352.32" xlink:href="#md15696b5f5" y="396.20068"/>
     <use style="fill:#64b5cd;stroke:#64b5cd;" x="906.780583" xlink:href="#md15696b5f5" y="303.581639"/>
     <use style="fill:#64b5cd;stroke:#64b5cd;" x="1036.8" xlink:href="#md15696b5f5" y="327.036412"/>
     <use style="fill:#64b5cd;stroke:#64b5cd;" x="669.176471" xlink:href="#md15696b5f5" y="299.676066"/>
     <use style="fill:#64b5cd;stroke:#64b5cd;" x="954.96" xlink:href="#md15696b5f5" y="283.684786"/>
     <use style="fill:#64b5cd;stroke:#64b5cd;" x="585.44" xlink:href="#md15696b5f5" y="346.985733"/>
     <use style="fill:#64b5cd;stroke:#64b5cd;" x="798.72" xlink:href="#md15696b5f5" y="322.782333"/>
     <use style="fill:#64b5cd;stroke:#64b5cd;" x="715.392" xlink:href="#md15696b5f5" y="353.037453"/>
     <use style="fill:#64b5cd;stroke:#64b5cd;" x="548.736" xlink:href="#md15696b5f5" y="325.164842"/>
     <use style="fill:#64b5cd;stroke:#64b5cd;" x="847.597351" xlink:href="#md15696b5f5" y="298.926079"/>
     <use style="fill:#64b5cd;stroke:#64b5cd;" x="787.489811" xlink:href="#md15696b5f5" y="292.870925"/>
     <use style="fill:#64b5cd;stroke:#64b5cd;" x="663.982418" xlink:href="#md15696b5f5" y="315.533946"/>
     <use style="fill:#64b5cd;stroke:#64b5cd;" x="910.32" xlink:href="#md15696b5f5" y="286.608743"/>
     <use style="fill:#64b5cd;stroke:#64b5cd;" x="1030.137313" xlink:href="#md15696b5f5" y="241.919673"/>
     <use style="fill:#64b5cd;stroke:#64b5cd;" x="659.772973" xlink:href="#md15696b5f5" y="306.986479"/>
     <use style="fill:#64b5cd;stroke:#64b5cd;" x="717.942857" xlink:href="#md15696b5f5" y="421.158261"/>
     <use style="fill:#64b5cd;stroke:#64b5cd;" x="862.980531" xlink:href="#md15696b5f5" y="299.464868"/>
     <use style="fill:#64b5cd;stroke:#64b5cd;" x="840.384" xlink:href="#md15696b5f5" y="344.511572"/>
     <use style="fill:#64b5cd;stroke:#64b5cd;" x="964.525714" xlink:href="#md15696b5f5" y="284.289519"/>
     <use style="fill:#64b5cd;stroke:#64b5cd;" x="762.475978" xlink:href="#md15696b5f5" y="446.942686"/>
     <use style="fill:#64b5cd;stroke:#64b5cd;" x="609" xlink:href="#md15696b5f5" y="381.822179"/>
     <use style="fill:#64b5cd;stroke:#64b5cd;" x="750.36" xlink:href="#md15696b5f5" y="423.230404"/>
     <use style="fill:#64b5cd;stroke:#64b5cd;" x="739.2" xlink:href="#md15696b5f5" y="327.75849"/>
     <use style="fill:#64b5cd;stroke:#64b5cd;" x="888" xlink:href="#md15696b5f5" y="332.113776"/>
     <use style="fill:#64b5cd;stroke:#64b5cd;" x="754.268354" xlink:href="#md15696b5f5" y="363.967098"/>
     <use style="fill:#64b5cd;stroke:#64b5cd;" x="894.584071" xlink:href="#md15696b5f5" y="300.354722"/>
     <use style="fill:#64b5cd;stroke:#64b5cd;" x="759.04" xlink:href="#md15696b5f5" y="343.323334"/>
     <use style="fill:#64b5cd;stroke:#64b5cd;" x="699.52" xlink:href="#md15696b5f5" y="365.778017"/>
     <use style="fill:#64b5cd;stroke:#64b5cd;" x="882.048" xlink:href="#md15696b5f5" y="263.038766"/>
     <use style="fill:#64b5cd;stroke:#64b5cd;" x="435.648" xlink:href="#md15696b5f5" y="427.886483"/>
     <use style="fill:#64b5cd;stroke:#64b5cd;" x="835.92" xlink:href="#md15696b5f5" y="272.792193"/>
     <use style="fill:#64b5cd;stroke:#64b5cd;" x="499.466667" xlink:href="#md15696b5f5" y="405.655982"/>
     <use style="fill:#64b5cd;stroke:#64b5cd;" x="967.36" xlink:href="#md15696b5f5" y="259.306773"/>
     <use style="fill:#64b5cd;stroke:#64b5cd;" x="637.665882" xlink:href="#md15696b5f5" y="367.771424"/>
     <use style="fill:#64b5cd;stroke:#64b5cd;" x="749.391781" xlink:href="#md15696b5f5" y="310.226054"/>
     <use style="fill:#64b5cd;stroke:#64b5cd;" x="411.84" xlink:href="#md15696b5f5" y="405.313919"/>
     <use style="fill:#64b5cd;stroke:#64b5cd;" x="932.64" xlink:href="#md15696b5f5" y="319.524564"/>
     <use style="fill:#64b5cd;stroke:#64b5cd;" x="544.705512" xlink:href="#md15696b5f5" y="417.908419"/>
     <use style="fill:#64b5cd;stroke:#64b5cd;" x="781.714286" xlink:href="#md15696b5f5" y="355.323594"/>
     <use style="fill:#64b5cd;stroke:#64b5cd;" x="617.832402" xlink:href="#md15696b5f5" y="405.320079"/>
     <use style="fill:#64b5cd;stroke:#64b5cd;" x="864" xlink:href="#md15696b5f5" y="248.430067"/>
     <use style="fill:#64b5cd;stroke:#64b5cd;" x="614.102655" xlink:href="#md15696b5f5" y="380.630752"/>
     <use style="fill:#64b5cd;stroke:#64b5cd;" x="519.12605" xlink:href="#md15696b5f5" y="410.790026"/>
     <use style="fill:#64b5cd;stroke:#64b5cd;" x="545.76" xlink:href="#md15696b5f5" y="401.384395"/>
     <use style="fill:#64b5cd;stroke:#64b5cd;" x="888" xlink:href="#md15696b5f5" y="340.182379"/>
     <use style="fill:#64b5cd;stroke:#64b5cd;" x="910.643478" xlink:href="#md15696b5f5" y="300.524854"/>
     <use style="fill:#64b5cd;stroke:#64b5cd;" x="642.48" xlink:href="#md15696b5f5" y="366.30703"/>
     <use style="fill:#64b5cd;stroke:#64b5cd;" x="947.52" xlink:href="#md15696b5f5" y="330.217525"/>
     <use style="fill:#64b5cd;stroke:#64b5cd;" x="679.68" xlink:href="#md15696b5f5" y="384.480104"/>
     <use style="fill:#64b5cd;stroke:#64b5cd;" x="970.048598" xlink:href="#md15696b5f5" y="289.392671"/>
     <use style="fill:#64b5cd;stroke:#64b5cd;" x="471.36" xlink:href="#md15696b5f5" y="426.510427"/>
     <use style="fill:#64b5cd;stroke:#64b5cd;" x="896.266667" xlink:href="#md15696b5f5" y="296.480336"/>
     <use style="fill:#64b5cd;stroke:#64b5cd;" x="401.834483" xlink:href="#md15696b5f5" y="390.240612"/>
     <use style="fill:#64b5cd;stroke:#64b5cd;" x="900.530526" xlink:href="#md15696b5f5" y="260.974777"/>
     <use style="fill:#64b5cd;stroke:#64b5cd;" x="956.847761" xlink:href="#md15696b5f5" y="264.590545"/>
     <use style="fill:#64b5cd;stroke:#64b5cd;" x="962.4" xlink:href="#md15696b5f5" y="317.339886"/>
     <use style="fill:#64b5cd;stroke:#64b5cd;" x="144" xlink:href="#md15696b5f5" y="448.380898"/>
     <use style="fill:#64b5cd;stroke:#64b5cd;" x="850.8" xlink:href="#md15696b5f5" y="301.744318"/>
     <use style="fill:#64b5cd;stroke:#64b5cd;" x="923.428571" xlink:href="#md15696b5f5" y="416.927807"/>
     <use style="fill:#64b5cd;stroke:#64b5cd;" x="694.256327" xlink:href="#md15696b5f5" y="319.817982"/>
     <use style="fill:#64b5cd;stroke:#64b5cd;" x="511.623529" xlink:href="#md15696b5f5" y="441.148655"/>
     <use style="fill:#64b5cd;stroke:#64b5cd;" x="694.56" xlink:href="#md15696b5f5" y="338.120356"/>
     <use style="fill:#64b5cd;stroke:#64b5cd;" x="447.552" xlink:href="#md15696b5f5" y="357.906705"/>
     <use style="fill:#64b5cd;stroke:#64b5cd;" x="477.312" xlink:href="#md15696b5f5" y="412.854582"/>
     <use style="fill:#64b5cd;stroke:#64b5cd;" x="771.84" xlink:href="#md15696b5f5" y="356.83426"/>
     <use style="fill:#64b5cd;stroke:#64b5cd;" x="620.16" xlink:href="#md15696b5f5" y="344.424152"/>
     <use style="fill:#64b5cd;stroke:#64b5cd;" x="590.4" xlink:href="#md15696b5f5" y="412.783166"/>
     <use style="fill:#64b5cd;stroke:#64b5cd;" x="605.28" xlink:href="#md15696b5f5" y="339.392386"/>
     <use style="fill:#64b5cd;stroke:#64b5cd;" x="955.636364" xlink:href="#md15696b5f5" y="381.36148"/>
     <use style="fill:#64b5cd;stroke:#64b5cd;" x="954.228902" xlink:href="#md15696b5f5" y="257.727938"/>
     <use style="fill:#64b5cd;stroke:#64b5cd;" x="1036.8" xlink:href="#md15696b5f5" y="327.313457"/>
     <use style="fill:#64b5cd;stroke:#64b5cd;" x="594.12" xlink:href="#md15696b5f5" y="464.170347"/>
     <use style="fill:#64b5cd;stroke:#64b5cd;" x="471.36" xlink:href="#md15696b5f5" y="414.257659"/>
     <use style="fill:#64b5cd;stroke:#64b5cd;" x="548.736" xlink:href="#md15696b5f5" y="342.581834"/>
     <use style="fill:#64b5cd;stroke:#64b5cd;" x="742.47033" xlink:href="#md15696b5f5" y="270.196869"/>
     <use style="fill:#64b5cd;stroke:#64b5cd;" x="601.729949" xlink:href="#md15696b5f5" y="378.334192"/>
     <use style="fill:#64b5cd;stroke:#64b5cd;" x="144" xlink:href="#md15696b5f5" y="318.575598"/>
     <use style="fill:#64b5cd;stroke:#64b5cd;" x="700.550649" xlink:href="#md15696b5f5" y="408.118029"/>
     <use style="fill:#64b5cd;stroke:#64b5cd;" x="926.512941" xlink:href="#md15696b5f5" y="279.619796"/>
     <use style="fill:#64b5cd;stroke:#64b5cd;" x="844.162656" xlink:href="#md15696b5f5" y="359.539582"/>
     <use style="fill:#64b5cd;stroke:#64b5cd;" x="927.68" xlink:href="#md15696b5f5" y="304.80472"/>
     <use style="fill:#64b5cd;stroke:#64b5cd;" x="935.616" xlink:href="#md15696b5f5" y="309.33362"/>
     <use style="fill:#64b5cd;stroke:#64b5cd;" x="694.44812" xlink:href="#md15696b5f5" y="449.998679"/>
     <use style="fill:#64b5cd;stroke:#64b5cd;" x="590.4" xlink:href="#md15696b5f5" y="418.528713"/>
     <use style="fill:#64b5cd;stroke:#64b5cd;" x="544.447059" xlink:href="#md15696b5f5" y="426.007193"/>
     <use style="fill:#64b5cd;stroke:#64b5cd;" x="749.551304" xlink:href="#md15696b5f5" y="406.546588"/>
     <use style="fill:#64b5cd;stroke:#64b5cd;" x="503.736264" xlink:href="#md15696b5f5" y="430.342382"/>
     <use style="fill:#64b5cd;stroke:#64b5cd;" x="709.44" xlink:href="#md15696b5f5" y="326.640226"/>
     <use style="fill:#64b5cd;stroke:#64b5cd;" x="645.668571" xlink:href="#md15696b5f5" y="414.833055"/>
     <use style="fill:#64b5cd;stroke:#64b5cd;" x="835.2" xlink:href="#md15696b5f5" y="305.487028"/>
     <use style="fill:#64b5cd;stroke:#64b5cd;" x="934.4" xlink:href="#md15696b5f5" y="288.855878"/>
     <use style="fill:#64b5cd;stroke:#64b5cd;" x="922.95302" xlink:href="#md15696b5f5" y="264.373389"/>
     <use style="fill:#64b5cd;stroke:#64b5cd;" x="687.12" xlink:href="#md15696b5f5" y="315.041816"/>
     <use style="fill:#64b5cd;stroke:#64b5cd;" x="879.497143" xlink:href="#md15696b5f5" y="379.641298"/>
     <use style="fill:#64b5cd;stroke:#64b5cd;" x="813.6" xlink:href="#md15696b5f5" y="405.522887"/>
     <use style="fill:#64b5cd;stroke:#64b5cd;" x="663.281633" xlink:href="#md15696b5f5" y="398.85013"/>
     <use style="fill:#64b5cd;stroke:#64b5cd;" x="687.12" xlink:href="#md15696b5f5" y="315.743278"/>
     <use style="fill:#64b5cd;stroke:#64b5cd;" x="571.404255" xlink:href="#md15696b5f5" y="388.433904"/>
     <use style="fill:#64b5cd;stroke:#64b5cd;" x="866.973913" xlink:href="#md15696b5f5" y="430.633983"/>
     <use style="fill:#64b5cd;stroke:#64b5cd;" x="812.27929" xlink:href="#md15696b5f5" y="293.294993"/>
     <use style="fill:#64b5cd;stroke:#64b5cd;" x="941.568" xlink:href="#md15696b5f5" y="243.00698"/>
     <use style="fill:#64b5cd;stroke:#64b5cd;" x="719.36" xlink:href="#md15696b5f5" y="365.285302"/>
     <use style="fill:#64b5cd;stroke:#64b5cd;" x="893.952" xlink:href="#md15696b5f5" y="337.293087"/>
     <use style="fill:#64b5cd;stroke:#64b5cd;" x="883.748571" xlink:href="#md15696b5f5" y="303.743743"/>
     <use style="fill:#64b5cd;stroke:#64b5cd;" x="801.852632" xlink:href="#md15696b5f5" y="358.624724"/>
     <use style="fill:#64b5cd;stroke:#64b5cd;" x="940.08" xlink:href="#md15696b5f5" y="334.727361"/>
     <use style="fill:#64b5cd;stroke:#64b5cd;" x="748.218182" xlink:href="#md15696b5f5" y="435.133915"/>
     <use style="fill:#64b5cd;stroke:#64b5cd;" x="382.08" xlink:href="#md15696b5f5" y="433.562974"/>
     <use style="fill:#64b5cd;stroke:#64b5cd;" x="706.133333" xlink:href="#md15696b5f5" y="369.067018"/>
     <use style="fill:#64b5cd;stroke:#64b5cd;" x="673.066667" xlink:href="#md15696b5f5" y="387.823274"/>
     <use style="fill:#64b5cd;stroke:#64b5cd;" x="739.2" xlink:href="#md15696b5f5" y="338.439171"/>
     <use style="fill:#64b5cd;stroke:#64b5cd;" x="921.48" xlink:href="#md15696b5f5" y="324.978508"/>
     <use style="fill:#64b5cd;stroke:#64b5cd;" x="698.352941" xlink:href="#md15696b5f5" y="378.086736"/>
     <use style="fill:#64b5cd;stroke:#64b5cd;" x="596.869565" xlink:href="#md15696b5f5" y="427.80365"/>
     <use style="fill:#64b5cd;stroke:#64b5cd;" x="731.290365" xlink:href="#md15696b5f5" y="309.449951"/>
     <use style="fill:#64b5cd;stroke:#64b5cd;" x="963.510448" xlink:href="#md15696b5f5" y="296.19879"/>
     <use style="fill:#64b5cd;stroke:#64b5cd;" x="693.776842" xlink:href="#md15696b5f5" y="331.106331"/>
     <use style="fill:#64b5cd;stroke:#64b5cd;" x="422.4" xlink:href="#md15696b5f5" y="413.676671"/>
     <use style="fill:#64b5cd;stroke:#64b5cd;" x="858.24" xlink:href="#md15696b5f5" y="303.692264"/>
     <use style="fill:#64b5cd;stroke:#64b5cd;" x="525.3" xlink:href="#md15696b5f5" y="392.675651"/>
     <use style="fill:#64b5cd;stroke:#64b5cd;" x="751.104" xlink:href="#md15696b5f5" y="348.853665"/>
     <use style="fill:#64b5cd;stroke:#64b5cd;" x="525.92" xlink:href="#md15696b5f5" y="438.826606"/>
     <use style="fill:#64b5cd;stroke:#64b5cd;" x="873.329577" xlink:href="#md15696b5f5" y="394.196723"/>
     <use style="fill:#64b5cd;stroke:#64b5cd;" x="392.708571" xlink:href="#md15696b5f5" y="439.103728"/>
     <use style="fill:#64b5cd;stroke:#64b5cd;" x="471.36" xlink:href="#md15696b5f5" y="404.955639"/>
     <use style="fill:#64b5cd;stroke:#64b5cd;" x="973.267416" xlink:href="#md15696b5f5" y="259.238879"/>
     <use style="fill:#64b5cd;stroke:#64b5cd;" x="653.388957" xlink:href="#md15696b5f5" y="303.88767"/>
     <use style="fill:#64b5cd;stroke:#64b5cd;" x="516" xlink:href="#md15696b5f5" y="404.49245"/>
     <use style="fill:#64b5cd;stroke:#64b5cd;" x="700.937143" xlink:href="#md15696b5f5" y="380.338606"/>
     <use style="fill:#64b5cd;stroke:#64b5cd;" x="603.725373" xlink:href="#md15696b5f5" y="387.17336"/>
     <use style="fill:#64b5cd;stroke:#64b5cd;" x="292.8" xlink:href="#md15696b5f5" y="419.772648"/>
     <use style="fill:#64b5cd;stroke:#64b5cd;" x="600.175182" xlink:href="#md15696b5f5" y="441.878664"/>
     <use style="fill:#64b5cd;stroke:#64b5cd;" x="921.351724" xlink:href="#md15696b5f5" y="338.03543"/>
     <use style="fill:#64b5cd;stroke:#64b5cd;" x="508.56" xlink:href="#md15696b5f5" y="436.381336"/>
     <use style="fill:#64b5cd;stroke:#64b5cd;" x="149.952" xlink:href="#md15696b5f5" y="422.658769"/>
     <use style="fill:#64b5cd;stroke:#64b5cd;" x="557.736585" xlink:href="#md15696b5f5" y="396.020558"/>
     <use style="fill:#64b5cd;stroke:#64b5cd;" x="599.268874" xlink:href="#md15696b5f5" y="398.237589"/>
     <use style="fill:#64b5cd;stroke:#64b5cd;" x="864.192" xlink:href="#md15696b5f5" y="313.453187"/>
     <use style="fill:#64b5cd;stroke:#64b5cd;" x="878.08" xlink:href="#md15696b5f5" y="277.773368"/>
     <use style="fill:#64b5cd;stroke:#64b5cd;" x="754.08" xlink:href="#md15696b5f5" y="334.085388"/>
     <use style="fill:#64b5cd;stroke:#64b5cd;" x="417.306122" xlink:href="#md15696b5f5" y="337.155016"/>
     <use style="fill:#64b5cd;stroke:#64b5cd;" x="543.574825" xlink:href="#md15696b5f5" y="412.247887"/>
     <use style="fill:#64b5cd;stroke:#64b5cd;" x="490.085393" xlink:href="#md15696b5f5" y="340.110406"/>
     <use style="fill:#64b5cd;stroke:#64b5cd;" x="988.893659" xlink:href="#md15696b5f5" y="273.579673"/>
     <use style="fill:#64b5cd;stroke:#64b5cd;" x="831.697297" xlink:href="#md15696b5f5" y="305.099717"/>
     <use style="fill:#64b5cd;stroke:#64b5cd;" x="568.08" xlink:href="#md15696b5f5" y="349.999084"/>
     <use style="fill:#64b5cd;stroke:#64b5cd;" x="391.68" xlink:href="#md15696b5f5" y="407.338527"/>
     <use style="fill:#64b5cd;stroke:#64b5cd;" x="849.312" xlink:href="#md15696b5f5" y="348.822643"/>
    </g>
   </g>
   <g id="line2d_16">
    <defs>
     <path d="M 0 3 
C 0.795609 3 1.55874 2.683901 2.12132 2.12132 
C 2.683901 1.55874 3 0.795609 3 0 
C 3 -0.795609 2.683901 -1.55874 2.12132 -2.12132 
C 1.55874 -2.683901 0.795609 -3 0 -3 
C -0.795609 -3 -1.55874 -2.683901 -2.12132 -2.12132 
C -2.683901 -1.55874 -3 -0.795609 -3 0 
C -3 0.795609 -2.683901 1.55874 -2.12132 2.12132 
C -1.55874 2.683901 -0.795609 3 0 3 
z
" id="m630a1799b5" style="stroke:#8172b3;"/>
    </defs>
    <g clip-path="url(#pb8afb11c26)">
     <use style="fill:#8172b3;stroke:#8172b3;" x="835.2" xlink:href="#m630a1799b5" y="320.454472"/>
     <use style="fill:#8172b3;stroke:#8172b3;" x="768.96" xlink:href="#m630a1799b5" y="390.545911"/>
     <use style="fill:#8172b3;stroke:#8172b3;" x="673.728" xlink:href="#m630a1799b5" y="355.368397"/>
     <use style="fill:#8172b3;stroke:#8172b3;" x="840.624215" xlink:href="#m630a1799b5" y="302.906626"/>
     <use style="fill:#8172b3;stroke:#8172b3;" x="610.05283" xlink:href="#m630a1799b5" y="432.162165"/>
     <use style="fill:#8172b3;stroke:#8172b3;" x="590.4" xlink:href="#m630a1799b5" y="371.239776"/>
     <use style="fill:#8172b3;stroke:#8172b3;" x="471.36" xlink:href="#m630a1799b5" y="388.893794"/>
     <use style="fill:#8172b3;stroke:#8172b3;" x="689.6" xlink:href="#m630a1799b5" y="405.200461"/>
     <use style="fill:#8172b3;stroke:#8172b3;" x="843.36" xlink:href="#m630a1799b5" y="328.091438"/>
     <use style="fill:#8172b3;stroke:#8172b3;" x="616.658824" xlink:href="#m630a1799b5" y="407.446608"/>
     <use style="fill:#8172b3;stroke:#8172b3;" x="703.488" xlink:href="#m630a1799b5" y="278.435945"/>
     <use style="fill:#8172b3;stroke:#8172b3;" x="530.246809" xlink:href="#m630a1799b5" y="331.471196"/>
     <use style="fill:#8172b3;stroke:#8172b3;" x="888" xlink:href="#m630a1799b5" y="335.664816"/>
     <use style="fill:#8172b3;stroke:#8172b3;" x="605.28" xlink:href="#m630a1799b5" y="355.357088"/>
     <use style="fill:#8172b3;stroke:#8172b3;" x="852.417391" xlink:href="#m630a1799b5" y="350.965752"/>
     <use style="fill:#8172b3;stroke:#8172b3;" x="503.785075" xlink:href="#m630a1799b5" y="439.651913"/>
     <use style="fill:#8172b3;stroke:#8172b3;" x="332.785903" xlink:href="#m630a1799b5" y="429.43853"/>
     <use style="fill:#8172b3;stroke:#8172b3;" x="942.622785" xlink:href="#m630a1799b5" y="361.064208"/>
     <use style="fill:#8172b3;stroke:#8172b3;" x="788.8" xlink:href="#m630a1799b5" y="312.863138"/>
     <use style="fill:#8172b3;stroke:#8172b3;" x="606.590674" xlink:href="#m630a1799b5" y="386.219918"/>
     <use style="fill:#8172b3;stroke:#8172b3;" x="676.8" xlink:href="#m630a1799b5" y="363.165161"/>
     <use style="fill:#8172b3;stroke:#8172b3;" x="630.08" xlink:href="#m630a1799b5" y="351.70503"/>
     <use style="fill:#8172b3;stroke:#8172b3;" x="367.2" xlink:href="#m630a1799b5" y="410.345311"/>
     <use style="fill:#8172b3;stroke:#8172b3;" x="689.6" xlink:href="#m630a1799b5" y="331.920297"/>
     <use style="fill:#8172b3;stroke:#8172b3;" x="835.92" xlink:href="#m630a1799b5" y="393.701395"/>
     <use style="fill:#8172b3;stroke:#8172b3;" x="941.568" xlink:href="#m630a1799b5" y="278.045664"/>
     <use style="fill:#8172b3;stroke:#8172b3;" x="430.738686" xlink:href="#m630a1799b5" y="451.445529"/>
     <use style="fill:#8172b3;stroke:#8172b3;" x="575.52" xlink:href="#m630a1799b5" y="394.319728"/>
     <use style="fill:#8172b3;stroke:#8172b3;" x="672.24" xlink:href="#m630a1799b5" y="348.794447"/>
     <use style="fill:#8172b3;stroke:#8172b3;" x="932.64" xlink:href="#m630a1799b5" y="268.28067"/>
     <use style="fill:#8172b3;stroke:#8172b3;" x="471.536095" xlink:href="#m630a1799b5" y="417.415018"/>
     <use style="fill:#8172b3;stroke:#8172b3;" x="352.32" xlink:href="#m630a1799b5" y="325.49724"/>
     <use style="fill:#8172b3;stroke:#8172b3;" x="1003.361798" xlink:href="#m630a1799b5" y="294.799154"/>
     <use style="fill:#8172b3;stroke:#8172b3;" x="342.4" xlink:href="#m630a1799b5" y="430.635736"/>
     <use style="fill:#8172b3;stroke:#8172b3;" x="685.917904" xlink:href="#m630a1799b5" y="410.455301"/>
     <use style="fill:#8172b3;stroke:#8172b3;" x="679.68" xlink:href="#m630a1799b5" y="412.919492"/>
     <use style="fill:#8172b3;stroke:#8172b3;" x="1036.8" xlink:href="#m630a1799b5" y="325.269166"/>
     <use style="fill:#8172b3;stroke:#8172b3;" x="347.539896" xlink:href="#m630a1799b5" y="414.116508"/>
     <use style="fill:#8172b3;stroke:#8172b3;" x="798.72" xlink:href="#m630a1799b5" y="332.099346"/>
     <use style="fill:#8172b3;stroke:#8172b3;" x="667.365517" xlink:href="#m630a1799b5" y="372.589318"/>
     <use style="fill:#8172b3;stroke:#8172b3;" x="873.924324" xlink:href="#m630a1799b5" y="351.369822"/>
     <use style="fill:#8172b3;stroke:#8172b3;" x="888" xlink:href="#m630a1799b5" y="391.066579"/>
     <use style="fill:#8172b3;stroke:#8172b3;" x="679.68" xlink:href="#m630a1799b5" y="269.56996"/>
     <use style="fill:#8172b3;stroke:#8172b3;" x="549.426087" xlink:href="#m630a1799b5" y="423.840054"/>
     <use style="fill:#8172b3;stroke:#8172b3;" x="526.628571" xlink:href="#m630a1799b5" y="437.838939"/>
     <use style="fill:#8172b3;stroke:#8172b3;" x="560.64" xlink:href="#m630a1799b5" y="376.369363"/>
     <use style="fill:#8172b3;stroke:#8172b3;" x="836.689655" xlink:href="#m630a1799b5" y="348.52607"/>
     <use style="fill:#8172b3;stroke:#8172b3;" x="1007.04" xlink:href="#m630a1799b5" y="324.578875"/>
     <use style="fill:#8172b3;stroke:#8172b3;" x="912.223256" xlink:href="#m630a1799b5" y="393.083735"/>
     <use style="fill:#8172b3;stroke:#8172b3;" x="381.026549" xlink:href="#m630a1799b5" y="423.125029"/>
    </g>
   </g>
   <g id="patch_3">
    <path d="M 144 630 
L 144 86.4 
" style="fill:none;stroke:#cccccc;stroke-linecap:square;stroke-linejoin:miter;stroke-width:1.25;"/>
   </g>
   <g id="patch_4">
    <path d="M 1036.8 630 
L 1036.8 86.4 
" style="fill:none;stroke:#cccccc;stroke-linecap:square;stroke-linejoin:miter;stroke-width:1.25;"/>
   </g>
   <g id="patch_5">
    <path d="M 144 630 
L 1036.8 630 
" style="fill:none;stroke:#cccccc;stroke-linecap:square;stroke-linejoin:miter;stroke-width:1.25;"/>
   </g>
   <g id="patch_6">
    <path d="M 144 86.4 
L 1036.8 86.4 
" style="fill:none;stroke:#cccccc;stroke-linecap:square;stroke-linejoin:miter;stroke-width:1.25;"/>
   </g>
  </g>
 </g>
 <defs>
  <clipPath id="pb8afb11c26">
   <rect height="543.6" width="892.8" x="144" y="86.4"/>
  </clipPath>
 </defs>
</svg>
