<?xml version="1.0" encoding="utf-8" standalone="no"?>
<!DOCTYPE svg PUBLIC "-//W3C//DTD SVG 1.1//EN"
  "http://www.w3.org/Graphics/SVG/1.1/DTD/svg11.dtd">
<!-- Created with matplotlib (https://matplotlib.org/) -->
<svg height="432pt" version="1.1" viewBox="0 0 1152 432" width="1152pt" xmlns="http://www.w3.org/2000/svg" xmlns:xlink="http://www.w3.org/1999/xlink">
 <defs>
  <style type="text/css">
*{stroke-linecap:butt;stroke-linejoin:round;}
  </style>
 </defs>
 <g id="figure_1">
  <g id="patch_1">
   <path d="M 0 432 
L 1152 432 
L 1152 0 
L 0 0 
z
" style="fill:#ffffff;"/>
  </g>
  <g id="axes_1">
   <g id="patch_2">
    <path d="M 144 378 
L 1036.8 378 
L 1036.8 51.84 
L 144 51.84 
z
" style="fill:#ffffff;"/>
   </g>
   <g id="matplotlib.axis_1">
    <g id="xtick_1">
     <g id="line2d_1">
      <path clip-path="url(#pbb1db2aaa8)" d="M 189.75258 378 
L 189.75258 51.84 
" style="fill:none;stroke:#cccccc;stroke-linecap:round;"/>
     </g>
     <g id="text_1">
      <!-- 0.0 -->
      <defs>
       <path d="M 4.15625 35.296875 
Q 4.15625 48 6.765625 55.734375 
Q 9.375 63.484375 14.515625 67.671875 
Q 19.671875 71.875 27.484375 71.875 
Q 33.25 71.875 37.59375 69.546875 
Q 41.9375 67.234375 44.765625 62.859375 
Q 47.609375 58.5 49.21875 52.21875 
Q 50.828125 45.953125 50.828125 35.296875 
Q 50.828125 22.703125 48.234375 14.96875 
Q 45.65625 7.234375 40.5 3 
Q 35.359375 -1.21875 27.484375 -1.21875 
Q 17.140625 -1.21875 11.234375 6.203125 
Q 4.15625 15.140625 4.15625 35.296875 
z
M 13.1875 35.296875 
Q 13.1875 17.671875 17.3125 11.828125 
Q 21.4375 6 27.484375 6 
Q 33.546875 6 37.671875 11.859375 
Q 41.796875 17.71875 41.796875 35.296875 
Q 41.796875 52.984375 37.671875 58.78125 
Q 33.546875 64.59375 27.390625 64.59375 
Q 21.34375 64.59375 17.71875 59.46875 
Q 13.1875 52.9375 13.1875 35.296875 
z
" id="ArialMT-48"/>
       <path d="M 9.078125 0 
L 9.078125 10.015625 
L 19.09375 10.015625 
L 19.09375 0 
z
" id="ArialMT-46"/>
      </defs>
      <g style="fill:#262626;" transform="translate(174.46258 403.247187)scale(0.22 -0.22)">
       <use xlink:href="#ArialMT-48"/>
       <use x="55.615234" xlink:href="#ArialMT-46"/>
       <use x="83.398438" xlink:href="#ArialMT-48"/>
      </g>
     </g>
    </g>
    <g id="xtick_2">
     <g id="line2d_2">
      <path clip-path="url(#pbb1db2aaa8)" d="M 343.634461 378 
L 343.634461 51.84 
" style="fill:none;stroke:#cccccc;stroke-linecap:round;"/>
     </g>
     <g id="text_2">
      <!-- 0.1 -->
      <defs>
       <path d="M 37.25 0 
L 28.46875 0 
L 28.46875 56 
Q 25.296875 52.984375 20.140625 49.953125 
Q 14.984375 46.921875 10.890625 45.40625 
L 10.890625 53.90625 
Q 18.265625 57.375 23.78125 62.296875 
Q 29.296875 67.234375 31.59375 71.875 
L 37.25 71.875 
z
" id="ArialMT-49"/>
      </defs>
      <g style="fill:#262626;" transform="translate(328.344461 403.247187)scale(0.22 -0.22)">
       <use xlink:href="#ArialMT-48"/>
       <use x="55.615234" xlink:href="#ArialMT-46"/>
       <use x="83.398438" xlink:href="#ArialMT-49"/>
      </g>
     </g>
    </g>
    <g id="xtick_3">
     <g id="line2d_3">
      <path clip-path="url(#pbb1db2aaa8)" d="M 497.516342 378 
L 497.516342 51.84 
" style="fill:none;stroke:#cccccc;stroke-linecap:round;"/>
     </g>
     <g id="text_3">
      <!-- 0.2 -->
      <defs>
       <path d="M 50.34375 8.453125 
L 50.34375 0 
L 3.03125 0 
Q 2.9375 3.171875 4.046875 6.109375 
Q 5.859375 10.9375 9.828125 15.625 
Q 13.8125 20.3125 21.34375 26.46875 
Q 33.015625 36.03125 37.109375 41.625 
Q 41.21875 47.21875 41.21875 52.203125 
Q 41.21875 57.421875 37.46875 61 
Q 33.734375 64.59375 27.734375 64.59375 
Q 21.390625 64.59375 17.578125 60.78125 
Q 13.765625 56.984375 13.71875 50.25 
L 4.6875 51.171875 
Q 5.609375 61.28125 11.65625 66.578125 
Q 17.71875 71.875 27.9375 71.875 
Q 38.234375 71.875 44.234375 66.15625 
Q 50.25 60.453125 50.25 52 
Q 50.25 47.703125 48.484375 43.546875 
Q 46.734375 39.40625 42.65625 34.8125 
Q 38.578125 30.21875 29.109375 22.21875 
Q 21.1875 15.578125 18.9375 13.203125 
Q 16.703125 10.84375 15.234375 8.453125 
z
" id="ArialMT-50"/>
      </defs>
      <g style="fill:#262626;" transform="translate(482.226342 403.247187)scale(0.22 -0.22)">
       <use xlink:href="#ArialMT-48"/>
       <use x="55.615234" xlink:href="#ArialMT-46"/>
       <use x="83.398438" xlink:href="#ArialMT-50"/>
      </g>
     </g>
    </g>
    <g id="xtick_4">
     <g id="line2d_4">
      <path clip-path="url(#pbb1db2aaa8)" d="M 651.398223 378 
L 651.398223 51.84 
" style="fill:none;stroke:#cccccc;stroke-linecap:round;"/>
     </g>
     <g id="text_4">
      <!-- 0.3 -->
      <defs>
       <path d="M 4.203125 18.890625 
L 12.984375 20.0625 
Q 14.5 12.59375 18.140625 9.296875 
Q 21.78125 6 27 6 
Q 33.203125 6 37.46875 10.296875 
Q 41.75 14.59375 41.75 20.953125 
Q 41.75 27 37.796875 30.921875 
Q 33.84375 34.859375 27.734375 34.859375 
Q 25.25 34.859375 21.53125 33.890625 
L 22.515625 41.609375 
Q 23.390625 41.5 23.921875 41.5 
Q 29.546875 41.5 34.03125 44.421875 
Q 38.53125 47.359375 38.53125 53.46875 
Q 38.53125 58.296875 35.25 61.46875 
Q 31.984375 64.65625 26.8125 64.65625 
Q 21.6875 64.65625 18.265625 61.421875 
Q 14.84375 58.203125 13.875 51.765625 
L 5.078125 53.328125 
Q 6.6875 62.15625 12.390625 67.015625 
Q 18.109375 71.875 26.609375 71.875 
Q 32.46875 71.875 37.390625 69.359375 
Q 42.328125 66.84375 44.9375 62.5 
Q 47.5625 58.15625 47.5625 53.265625 
Q 47.5625 48.640625 45.0625 44.828125 
Q 42.578125 41.015625 37.703125 38.765625 
Q 44.046875 37.3125 47.5625 32.6875 
Q 51.078125 28.078125 51.078125 21.140625 
Q 51.078125 11.765625 44.234375 5.25 
Q 37.40625 -1.265625 26.953125 -1.265625 
Q 17.53125 -1.265625 11.296875 4.34375 
Q 5.078125 9.96875 4.203125 18.890625 
z
" id="ArialMT-51"/>
      </defs>
      <g style="fill:#262626;" transform="translate(636.108223 403.247187)scale(0.22 -0.22)">
       <use xlink:href="#ArialMT-48"/>
       <use x="55.615234" xlink:href="#ArialMT-46"/>
       <use x="83.398438" xlink:href="#ArialMT-51"/>
      </g>
     </g>
    </g>
    <g id="xtick_5">
     <g id="line2d_5">
      <path clip-path="url(#pbb1db2aaa8)" d="M 805.280104 378 
L 805.280104 51.84 
" style="fill:none;stroke:#cccccc;stroke-linecap:round;"/>
     </g>
     <g id="text_5">
      <!-- 0.4 -->
      <defs>
       <path d="M 32.328125 0 
L 32.328125 17.140625 
L 1.265625 17.140625 
L 1.265625 25.203125 
L 33.9375 71.578125 
L 41.109375 71.578125 
L 41.109375 25.203125 
L 50.78125 25.203125 
L 50.78125 17.140625 
L 41.109375 17.140625 
L 41.109375 0 
z
M 32.328125 25.203125 
L 32.328125 57.46875 
L 9.90625 25.203125 
z
" id="ArialMT-52"/>
      </defs>
      <g style="fill:#262626;" transform="translate(789.990104 403.247187)scale(0.22 -0.22)">
       <use xlink:href="#ArialMT-48"/>
       <use x="55.615234" xlink:href="#ArialMT-46"/>
       <use x="83.398438" xlink:href="#ArialMT-52"/>
      </g>
     </g>
    </g>
    <g id="xtick_6">
     <g id="line2d_6">
      <path clip-path="url(#pbb1db2aaa8)" d="M 959.161985 378 
L 959.161985 51.84 
" style="fill:none;stroke:#cccccc;stroke-linecap:round;"/>
     </g>
     <g id="text_6">
      <!-- 0.5 -->
      <defs>
       <path d="M 4.15625 18.75 
L 13.375 19.53125 
Q 14.40625 12.796875 18.140625 9.390625 
Q 21.875 6 27.15625 6 
Q 33.5 6 37.890625 10.78125 
Q 42.28125 15.578125 42.28125 23.484375 
Q 42.28125 31 38.0625 35.34375 
Q 33.84375 39.703125 27 39.703125 
Q 22.75 39.703125 19.328125 37.765625 
Q 15.921875 35.84375 13.96875 32.765625 
L 5.71875 33.84375 
L 12.640625 70.609375 
L 48.25 70.609375 
L 48.25 62.203125 
L 19.671875 62.203125 
L 15.828125 42.96875 
Q 22.265625 47.46875 29.34375 47.46875 
Q 38.71875 47.46875 45.15625 40.96875 
Q 51.609375 34.46875 51.609375 24.265625 
Q 51.609375 14.546875 45.953125 7.46875 
Q 39.0625 -1.21875 27.15625 -1.21875 
Q 17.390625 -1.21875 11.203125 4.25 
Q 5.03125 9.71875 4.15625 18.75 
z
" id="ArialMT-53"/>
      </defs>
      <g style="fill:#262626;" transform="translate(943.871985 403.247187)scale(0.22 -0.22)">
       <use xlink:href="#ArialMT-48"/>
       <use x="55.615234" xlink:href="#ArialMT-46"/>
       <use x="83.398438" xlink:href="#ArialMT-53"/>
      </g>
     </g>
    </g>
    <g id="text_7">
     <!-- Observed values -->
     <defs>
      <path d="M 4.828125 34.859375 
Q 4.828125 52.6875 14.390625 62.765625 
Q 23.96875 72.859375 39.109375 72.859375 
Q 49.03125 72.859375 56.984375 68.109375 
Q 64.9375 63.375 69.109375 54.90625 
Q 73.296875 46.4375 73.296875 35.6875 
Q 73.296875 24.8125 68.890625 16.21875 
Q 64.5 7.625 56.4375 3.203125 
Q 48.390625 -1.21875 39.0625 -1.21875 
Q 28.953125 -1.21875 20.984375 3.65625 
Q 13.03125 8.546875 8.921875 16.984375 
Q 4.828125 25.4375 4.828125 34.859375 
z
M 14.59375 34.71875 
Q 14.59375 21.78125 21.546875 14.328125 
Q 28.515625 6.890625 39.015625 6.890625 
Q 49.703125 6.890625 56.609375 14.40625 
Q 63.53125 21.921875 63.53125 35.75 
Q 63.53125 44.484375 60.578125 51 
Q 57.625 57.515625 51.921875 61.109375 
Q 46.234375 64.703125 39.15625 64.703125 
Q 29.109375 64.703125 21.84375 57.78125 
Q 14.59375 50.875 14.59375 34.71875 
z
" id="ArialMT-79"/>
      <path d="M 14.703125 0 
L 6.546875 0 
L 6.546875 71.578125 
L 15.328125 71.578125 
L 15.328125 46.046875 
Q 20.90625 53.03125 29.546875 53.03125 
Q 34.328125 53.03125 38.59375 51.09375 
Q 42.875 49.171875 45.625 45.671875 
Q 48.390625 42.1875 49.953125 37.25 
Q 51.515625 32.328125 51.515625 26.703125 
Q 51.515625 13.375 44.921875 6.09375 
Q 38.328125 -1.171875 29.109375 -1.171875 
Q 19.921875 -1.171875 14.703125 6.5 
z
M 14.59375 26.3125 
Q 14.59375 17 17.140625 12.84375 
Q 21.296875 6.0625 28.375 6.0625 
Q 34.125 6.0625 38.328125 11.0625 
Q 42.53125 16.0625 42.53125 25.984375 
Q 42.53125 36.140625 38.5 40.96875 
Q 34.46875 45.796875 28.765625 45.796875 
Q 23 45.796875 18.796875 40.796875 
Q 14.59375 35.796875 14.59375 26.3125 
z
" id="ArialMT-98"/>
      <path d="M 3.078125 15.484375 
L 11.765625 16.84375 
Q 12.5 11.625 15.84375 8.84375 
Q 19.1875 6.0625 25.203125 6.0625 
Q 31.25 6.0625 34.171875 8.515625 
Q 37.109375 10.984375 37.109375 14.3125 
Q 37.109375 17.28125 34.515625 19 
Q 32.71875 20.171875 25.53125 21.96875 
Q 15.875 24.421875 12.140625 26.203125 
Q 8.40625 27.984375 6.46875 31.125 
Q 4.546875 34.28125 4.546875 38.09375 
Q 4.546875 41.546875 6.125 44.5 
Q 7.71875 47.46875 10.453125 49.421875 
Q 12.5 50.921875 16.03125 51.96875 
Q 19.578125 53.03125 23.640625 53.03125 
Q 29.734375 53.03125 34.34375 51.265625 
Q 38.96875 49.515625 41.15625 46.5 
Q 43.359375 43.5 44.1875 38.484375 
L 35.59375 37.3125 
Q 35.015625 41.3125 32.203125 43.546875 
Q 29.390625 45.796875 24.265625 45.796875 
Q 18.21875 45.796875 15.625 43.796875 
Q 13.03125 41.796875 13.03125 39.109375 
Q 13.03125 37.40625 14.109375 36.03125 
Q 15.1875 34.625 17.484375 33.6875 
Q 18.796875 33.203125 25.25 31.453125 
Q 34.578125 28.953125 38.25 27.359375 
Q 41.9375 25.78125 44.03125 22.75 
Q 46.140625 19.734375 46.140625 15.234375 
Q 46.140625 10.84375 43.578125 6.953125 
Q 41.015625 3.078125 36.171875 0.953125 
Q 31.34375 -1.171875 25.25 -1.171875 
Q 15.140625 -1.171875 9.84375 3.03125 
Q 4.546875 7.234375 3.078125 15.484375 
z
" id="ArialMT-115"/>
      <path d="M 42.09375 16.703125 
L 51.171875 15.578125 
Q 49.03125 7.625 43.21875 3.21875 
Q 37.40625 -1.171875 28.375 -1.171875 
Q 17 -1.171875 10.328125 5.828125 
Q 3.65625 12.84375 3.65625 25.484375 
Q 3.65625 38.578125 10.390625 45.796875 
Q 17.140625 53.03125 27.875 53.03125 
Q 38.28125 53.03125 44.875 45.953125 
Q 51.46875 38.875 51.46875 26.03125 
Q 51.46875 25.25 51.421875 23.6875 
L 12.75 23.6875 
Q 13.234375 15.140625 17.578125 10.59375 
Q 21.921875 6.0625 28.421875 6.0625 
Q 33.25 6.0625 36.671875 8.59375 
Q 40.09375 11.140625 42.09375 16.703125 
z
M 13.234375 30.90625 
L 42.1875 30.90625 
Q 41.609375 37.453125 38.875 40.71875 
Q 34.671875 45.796875 27.984375 45.796875 
Q 21.921875 45.796875 17.796875 41.75 
Q 13.671875 37.703125 13.234375 30.90625 
z
" id="ArialMT-101"/>
      <path d="M 6.5 0 
L 6.5 51.859375 
L 14.40625 51.859375 
L 14.40625 44 
Q 17.4375 49.515625 20 51.265625 
Q 22.5625 53.03125 25.640625 53.03125 
Q 30.078125 53.03125 34.671875 50.203125 
L 31.640625 42.046875 
Q 28.421875 43.953125 25.203125 43.953125 
Q 22.3125 43.953125 20.015625 42.21875 
Q 17.71875 40.484375 16.75 37.40625 
Q 15.28125 32.71875 15.28125 27.15625 
L 15.28125 0 
z
" id="ArialMT-114"/>
      <path d="M 21 0 
L 1.265625 51.859375 
L 10.546875 51.859375 
L 21.6875 20.796875 
Q 23.484375 15.765625 25 10.359375 
Q 26.171875 14.453125 28.265625 20.21875 
L 39.796875 51.859375 
L 48.828125 51.859375 
L 29.203125 0 
z
" id="ArialMT-118"/>
      <path d="M 40.234375 0 
L 40.234375 6.546875 
Q 35.296875 -1.171875 25.734375 -1.171875 
Q 19.53125 -1.171875 14.328125 2.25 
Q 9.125 5.671875 6.265625 11.796875 
Q 3.421875 17.921875 3.421875 25.875 
Q 3.421875 33.640625 6 39.96875 
Q 8.59375 46.296875 13.765625 49.65625 
Q 18.953125 53.03125 25.34375 53.03125 
Q 30.03125 53.03125 33.6875 51.046875 
Q 37.359375 49.078125 39.65625 45.90625 
L 39.65625 71.578125 
L 48.390625 71.578125 
L 48.390625 0 
z
M 12.453125 25.875 
Q 12.453125 15.921875 16.640625 10.984375 
Q 20.84375 6.0625 26.5625 6.0625 
Q 32.328125 6.0625 36.34375 10.765625 
Q 40.375 15.484375 40.375 25.140625 
Q 40.375 35.796875 36.265625 40.765625 
Q 32.171875 45.75 26.171875 45.75 
Q 20.3125 45.75 16.375 40.96875 
Q 12.453125 36.1875 12.453125 25.875 
z
" id="ArialMT-100"/>
      <path id="ArialMT-32"/>
      <path d="M 40.4375 6.390625 
Q 35.546875 2.25 31.03125 0.53125 
Q 26.515625 -1.171875 21.34375 -1.171875 
Q 12.796875 -1.171875 8.203125 3 
Q 3.609375 7.171875 3.609375 13.671875 
Q 3.609375 17.484375 5.34375 20.625 
Q 7.078125 23.78125 9.890625 25.6875 
Q 12.703125 27.59375 16.21875 28.5625 
Q 18.796875 29.25 24.03125 29.890625 
Q 34.671875 31.15625 39.703125 32.90625 
Q 39.75 34.71875 39.75 35.203125 
Q 39.75 40.578125 37.25 42.78125 
Q 33.890625 45.75 27.25 45.75 
Q 21.046875 45.75 18.09375 43.578125 
Q 15.140625 41.40625 13.71875 35.890625 
L 5.125 37.0625 
Q 6.296875 42.578125 8.984375 45.96875 
Q 11.671875 49.359375 16.75 51.1875 
Q 21.828125 53.03125 28.515625 53.03125 
Q 35.15625 53.03125 39.296875 51.46875 
Q 43.453125 49.90625 45.40625 47.53125 
Q 47.359375 45.171875 48.140625 41.546875 
Q 48.578125 39.3125 48.578125 33.453125 
L 48.578125 21.734375 
Q 48.578125 9.46875 49.140625 6.21875 
Q 49.703125 2.984375 51.375 0 
L 42.1875 0 
Q 40.828125 2.734375 40.4375 6.390625 
z
M 39.703125 26.03125 
Q 34.90625 24.078125 25.34375 22.703125 
Q 19.921875 21.921875 17.671875 20.9375 
Q 15.4375 19.96875 14.203125 18.09375 
Q 12.984375 16.21875 12.984375 13.921875 
Q 12.984375 10.40625 15.640625 8.0625 
Q 18.3125 5.71875 23.4375 5.71875 
Q 28.515625 5.71875 32.46875 7.9375 
Q 36.421875 10.15625 38.28125 14.015625 
Q 39.703125 17 39.703125 22.796875 
z
" id="ArialMT-97"/>
      <path d="M 6.390625 0 
L 6.390625 71.578125 
L 15.1875 71.578125 
L 15.1875 0 
z
" id="ArialMT-108"/>
      <path d="M 40.578125 0 
L 40.578125 7.625 
Q 34.515625 -1.171875 24.125 -1.171875 
Q 19.53125 -1.171875 15.546875 0.578125 
Q 11.578125 2.34375 9.640625 5 
Q 7.71875 7.671875 6.9375 11.53125 
Q 6.390625 14.109375 6.390625 19.734375 
L 6.390625 51.859375 
L 15.1875 51.859375 
L 15.1875 23.09375 
Q 15.1875 16.21875 15.71875 13.8125 
Q 16.546875 10.359375 19.234375 8.375 
Q 21.921875 6.390625 25.875 6.390625 
Q 29.828125 6.390625 33.296875 8.421875 
Q 36.765625 10.453125 38.203125 13.9375 
Q 39.65625 17.4375 39.65625 24.078125 
L 39.65625 51.859375 
L 48.4375 51.859375 
L 48.4375 0 
z
" id="ArialMT-117"/>
     </defs>
     <g style="fill:#262626;" transform="translate(500.35875 428.798437)scale(0.24 -0.24)">
      <use xlink:href="#ArialMT-79"/>
      <use x="77.783203" xlink:href="#ArialMT-98"/>
      <use x="133.398438" xlink:href="#ArialMT-115"/>
      <use x="183.398438" xlink:href="#ArialMT-101"/>
      <use x="239.013672" xlink:href="#ArialMT-114"/>
      <use x="272.314453" xlink:href="#ArialMT-118"/>
      <use x="322.314453" xlink:href="#ArialMT-101"/>
      <use x="377.929688" xlink:href="#ArialMT-100"/>
      <use x="433.544922" xlink:href="#ArialMT-32"/>
      <use x="461.328125" xlink:href="#ArialMT-118"/>
      <use x="511.328125" xlink:href="#ArialMT-97"/>
      <use x="566.943359" xlink:href="#ArialMT-108"/>
      <use x="589.160156" xlink:href="#ArialMT-117"/>
      <use x="644.775391" xlink:href="#ArialMT-101"/>
      <use x="700.390625" xlink:href="#ArialMT-115"/>
     </g>
    </g>
   </g>
   <g id="matplotlib.axis_2">
    <g id="ytick_1">
     <g id="line2d_7">
      <path clip-path="url(#pbb1db2aaa8)" d="M 144 370.840244 
L 1036.8 370.840244 
" style="fill:none;stroke:#cccccc;stroke-linecap:round;"/>
     </g>
     <g id="text_8">
      <!-- 0.0 -->
      <g style="fill:#262626;" transform="translate(103.92 378.713838)scale(0.22 -0.22)">
       <use xlink:href="#ArialMT-48"/>
       <use x="55.615234" xlink:href="#ArialMT-46"/>
       <use x="83.398438" xlink:href="#ArialMT-48"/>
      </g>
     </g>
    </g>
    <g id="ytick_2">
     <g id="line2d_8">
      <path clip-path="url(#pbb1db2aaa8)" d="M 144 317.878514 
L 1036.8 317.878514 
" style="fill:none;stroke:#cccccc;stroke-linecap:round;"/>
     </g>
     <g id="text_9">
      <!-- 0.1 -->
      <g style="fill:#262626;" transform="translate(103.92 325.752108)scale(0.22 -0.22)">
       <use xlink:href="#ArialMT-48"/>
       <use x="55.615234" xlink:href="#ArialMT-46"/>
       <use x="83.398438" xlink:href="#ArialMT-49"/>
      </g>
     </g>
    </g>
    <g id="ytick_3">
     <g id="line2d_9">
      <path clip-path="url(#pbb1db2aaa8)" d="M 144 264.916784 
L 1036.8 264.916784 
" style="fill:none;stroke:#cccccc;stroke-linecap:round;"/>
     </g>
     <g id="text_10">
      <!-- 0.2 -->
      <g style="fill:#262626;" transform="translate(103.92 272.790378)scale(0.22 -0.22)">
       <use xlink:href="#ArialMT-48"/>
       <use x="55.615234" xlink:href="#ArialMT-46"/>
       <use x="83.398438" xlink:href="#ArialMT-50"/>
      </g>
     </g>
    </g>
    <g id="ytick_4">
     <g id="line2d_10">
      <path clip-path="url(#pbb1db2aaa8)" d="M 144 211.955054 
L 1036.8 211.955054 
" style="fill:none;stroke:#cccccc;stroke-linecap:round;"/>
     </g>
     <g id="text_11">
      <!-- 0.3 -->
      <g style="fill:#262626;" transform="translate(103.92 219.828648)scale(0.22 -0.22)">
       <use xlink:href="#ArialMT-48"/>
       <use x="55.615234" xlink:href="#ArialMT-46"/>
       <use x="83.398438" xlink:href="#ArialMT-51"/>
      </g>
     </g>
    </g>
    <g id="ytick_5">
     <g id="line2d_11">
      <path clip-path="url(#pbb1db2aaa8)" d="M 144 158.993324 
L 1036.8 158.993324 
" style="fill:none;stroke:#cccccc;stroke-linecap:round;"/>
     </g>
     <g id="text_12">
      <!-- 0.4 -->
      <g style="fill:#262626;" transform="translate(103.92 166.866918)scale(0.22 -0.22)">
       <use xlink:href="#ArialMT-48"/>
       <use x="55.615234" xlink:href="#ArialMT-46"/>
       <use x="83.398438" xlink:href="#ArialMT-52"/>
      </g>
     </g>
    </g>
    <g id="ytick_6">
     <g id="line2d_12">
      <path clip-path="url(#pbb1db2aaa8)" d="M 144 106.031594 
L 1036.8 106.031594 
" style="fill:none;stroke:#cccccc;stroke-linecap:round;"/>
     </g>
     <g id="text_13">
      <!-- 0.5 -->
      <g style="fill:#262626;" transform="translate(103.92 113.905188)scale(0.22 -0.22)">
       <use xlink:href="#ArialMT-48"/>
       <use x="55.615234" xlink:href="#ArialMT-46"/>
       <use x="83.398438" xlink:href="#ArialMT-53"/>
      </g>
     </g>
    </g>
    <g id="ytick_7">
     <g id="line2d_13">
      <path clip-path="url(#pbb1db2aaa8)" d="M 144 53.069864 
L 1036.8 53.069864 
" style="fill:none;stroke:#cccccc;stroke-linecap:round;"/>
     </g>
     <g id="text_14">
      <!-- 0.6 -->
      <defs>
       <path d="M 49.75 54.046875 
L 41.015625 53.375 
Q 39.84375 58.546875 37.703125 60.890625 
Q 34.125 64.65625 28.90625 64.65625 
Q 24.703125 64.65625 21.53125 62.3125 
Q 17.390625 59.28125 14.984375 53.46875 
Q 12.59375 47.65625 12.5 36.921875 
Q 15.671875 41.75 20.265625 44.09375 
Q 24.859375 46.4375 29.890625 46.4375 
Q 38.671875 46.4375 44.84375 39.96875 
Q 51.03125 33.5 51.03125 23.25 
Q 51.03125 16.5 48.125 10.71875 
Q 45.21875 4.9375 40.140625 1.859375 
Q 35.0625 -1.21875 28.609375 -1.21875 
Q 17.625 -1.21875 10.6875 6.859375 
Q 3.765625 14.9375 3.765625 33.5 
Q 3.765625 54.25 11.421875 63.671875 
Q 18.109375 71.875 29.4375 71.875 
Q 37.890625 71.875 43.28125 67.140625 
Q 48.6875 62.40625 49.75 54.046875 
z
M 13.875 23.1875 
Q 13.875 18.65625 15.796875 14.5 
Q 17.71875 10.359375 21.1875 8.171875 
Q 24.65625 6 28.46875 6 
Q 34.03125 6 38.03125 10.484375 
Q 42.046875 14.984375 42.046875 22.703125 
Q 42.046875 30.125 38.078125 34.390625 
Q 34.125 38.671875 28.125 38.671875 
Q 22.171875 38.671875 18.015625 34.390625 
Q 13.875 30.125 13.875 23.1875 
z
" id="ArialMT-54"/>
      </defs>
      <g style="fill:#262626;" transform="translate(103.92 60.943458)scale(0.22 -0.22)">
       <use xlink:href="#ArialMT-48"/>
       <use x="55.615234" xlink:href="#ArialMT-46"/>
       <use x="83.398438" xlink:href="#ArialMT-54"/>
      </g>
     </g>
    </g>
    <g id="text_15">
     <!-- Fitted values -->
     <defs>
      <path d="M 8.203125 0 
L 8.203125 71.578125 
L 56.5 71.578125 
L 56.5 63.140625 
L 17.671875 63.140625 
L 17.671875 40.96875 
L 51.265625 40.96875 
L 51.265625 32.515625 
L 17.671875 32.515625 
L 17.671875 0 
z
" id="ArialMT-70"/>
      <path d="M 6.640625 61.46875 
L 6.640625 71.578125 
L 15.4375 71.578125 
L 15.4375 61.46875 
z
M 6.640625 0 
L 6.640625 51.859375 
L 15.4375 51.859375 
L 15.4375 0 
z
" id="ArialMT-105"/>
      <path d="M 25.78125 7.859375 
L 27.046875 0.09375 
Q 23.34375 -0.6875 20.40625 -0.6875 
Q 15.625 -0.6875 12.984375 0.828125 
Q 10.359375 2.34375 9.28125 4.8125 
Q 8.203125 7.28125 8.203125 15.1875 
L 8.203125 45.015625 
L 1.765625 45.015625 
L 1.765625 51.859375 
L 8.203125 51.859375 
L 8.203125 64.703125 
L 16.9375 69.96875 
L 16.9375 51.859375 
L 25.78125 51.859375 
L 25.78125 45.015625 
L 16.9375 45.015625 
L 16.9375 14.703125 
Q 16.9375 10.9375 17.40625 9.859375 
Q 17.875 8.796875 18.921875 8.15625 
Q 19.96875 7.515625 21.921875 7.515625 
Q 23.390625 7.515625 25.78125 7.859375 
z
" id="ArialMT-116"/>
     </defs>
     <g style="fill:#262626;" transform="translate(95.15 282.94875)rotate(-90)scale(0.24 -0.24)">
      <use xlink:href="#ArialMT-70"/>
      <use x="61.083984" xlink:href="#ArialMT-105"/>
      <use x="83.300781" xlink:href="#ArialMT-116"/>
      <use x="111.083984" xlink:href="#ArialMT-116"/>
      <use x="138.867188" xlink:href="#ArialMT-101"/>
      <use x="194.482422" xlink:href="#ArialMT-100"/>
      <use x="250.097656" xlink:href="#ArialMT-32"/>
      <use x="277.880859" xlink:href="#ArialMT-118"/>
      <use x="327.880859" xlink:href="#ArialMT-97"/>
      <use x="383.496094" xlink:href="#ArialMT-108"/>
      <use x="405.712891" xlink:href="#ArialMT-117"/>
      <use x="461.328125" xlink:href="#ArialMT-101"/>
      <use x="516.943359" xlink:href="#ArialMT-115"/>
     </g>
    </g>
   </g>
   <g id="PathCollection_1">
    <defs>
     <path d="M -3 0 
L 3 0 
M 0 3 
L 0 -3 
" id="m49c57559b8" style="stroke:#4c72b0;stroke-width:1.5;"/>
    </defs>
    <g clip-path="url(#pbb1db2aaa8)">
     <use style="fill:#4c72b0;stroke:#4c72b0;stroke-width:1.5;" x="819.528426" xlink:href="#m49c57559b8" y="71.536843"/>
     <use style="fill:#4c72b0;stroke:#4c72b0;stroke-width:1.5;" x="734.597518" xlink:href="#m49c57559b8" y="247.097136"/>
     <use style="fill:#4c72b0;stroke:#4c72b0;stroke-width:1.5;" x="719.40712" xlink:href="#m49c57559b8" y="164.498619"/>
     <use style="fill:#4c72b0;stroke:#4c72b0;stroke-width:1.5;" x="319.53248" xlink:href="#m49c57559b8" y="327.012983"/>
     <use style="fill:#4c72b0;stroke:#4c72b0;stroke-width:1.5;" x="793.844617" xlink:href="#m49c57559b8" y="206.302316"/>
     <use style="fill:#4c72b0;stroke:#4c72b0;stroke-width:1.5;" x="335.267361" xlink:href="#m49c57559b8" y="272.113708"/>
     <use style="fill:#4c72b0;stroke:#4c72b0;stroke-width:1.5;" x="493.241845" xlink:href="#m49c57559b8" y="283.931701"/>
     <use style="fill:#4c72b0;stroke:#4c72b0;stroke-width:1.5;" x="350.046206" xlink:href="#m49c57559b8" y="263.993627"/>
     <use style="fill:#4c72b0;stroke:#4c72b0;stroke-width:1.5;" x="352.183455" xlink:href="#m49c57559b8" y="324.330766"/>
     <use style="fill:#4c72b0;stroke:#4c72b0;stroke-width:1.5;" x="728.339164" xlink:href="#m49c57559b8" y="163.050067"/>
     <use style="fill:#4c72b0;stroke:#4c72b0;stroke-width:1.5;" x="437.498919" xlink:href="#m49c57559b8" y="339.155925"/>
     <use style="fill:#4c72b0;stroke:#4c72b0;stroke-width:1.5;" x="343.634461" xlink:href="#m49c57559b8" y="269.211389"/>
     <use style="fill:#4c72b0;stroke:#4c72b0;stroke-width:1.5;" x="370.16582" xlink:href="#m49c57559b8" y="283.657186"/>
     <use style="fill:#4c72b0;stroke:#4c72b0;stroke-width:1.5;" x="368.972442" xlink:href="#m49c57559b8" y="324.779339"/>
     <use style="fill:#4c72b0;stroke:#4c72b0;stroke-width:1.5;" x="718.080371" xlink:href="#m49c57559b8" y="124.905664"/>
     <use style="fill:#4c72b0;stroke:#4c72b0;stroke-width:1.5;" x="605.649556" xlink:href="#m49c57559b8" y="188.417118"/>
     <use style="fill:#4c72b0;stroke:#4c72b0;stroke-width:1.5;" x="440.187798" xlink:href="#m49c57559b8" y="299.787116"/>
     <use style="fill:#4c72b0;stroke:#4c72b0;stroke-width:1.5;" x="319.01336" xlink:href="#m49c57559b8" y="320.785782"/>
     <use style="fill:#4c72b0;stroke:#4c72b0;stroke-width:1.5;" x="670.633458" xlink:href="#m49c57559b8" y="208.646454"/>
     <use style="fill:#4c72b0;stroke:#4c72b0;stroke-width:1.5;" x="559.221453" xlink:href="#m49c57559b8" y="249.665003"/>
     <use style="fill:#4c72b0;stroke:#4c72b0;stroke-width:1.5;" x="354.482531" xlink:href="#m49c57559b8" y="299.864823"/>
     <use style="fill:#4c72b0;stroke:#4c72b0;stroke-width:1.5;" x="743.187415" xlink:href="#m49c57559b8" y="167.751598"/>
     <use style="fill:#4c72b0;stroke:#4c72b0;stroke-width:1.5;" x="506.065336" xlink:href="#m49c57559b8" y="199.526291"/>
     <use style="fill:#4c72b0;stroke:#4c72b0;stroke-width:1.5;" x="231.276262" xlink:href="#m49c57559b8" y="350.49585"/>
     <use style="fill:#4c72b0;stroke:#4c72b0;stroke-width:1.5;" x="527.979131" xlink:href="#m49c57559b8" y="285.04547"/>
     <use style="fill:#4c72b0;stroke:#4c72b0;stroke-width:1.5;" x="243.166126" xlink:href="#m49c57559b8" y="287.201659"/>
     <use style="fill:#4c72b0;stroke:#4c72b0;stroke-width:1.5;" x="514.614329" xlink:href="#m49c57559b8" y="232.000732"/>
     <use style="fill:#4c72b0;stroke:#4c72b0;stroke-width:1.5;" x="486.47549" xlink:href="#m49c57559b8" y="288.955077"/>
     <use style="fill:#4c72b0;stroke:#4c72b0;stroke-width:1.5;" x="330.136051" xlink:href="#m49c57559b8" y="328.635223"/>
     <use style="fill:#4c72b0;stroke:#4c72b0;stroke-width:1.5;" x="274.23675" xlink:href="#m49c57559b8" y="300.422805"/>
     <use style="fill:#4c72b0;stroke:#4c72b0;stroke-width:1.5;" x="238.219314" xlink:href="#m49c57559b8" y="293.236545"/>
     <use style="fill:#4c72b0;stroke:#4c72b0;stroke-width:1.5;" x="508.507905" xlink:href="#m49c57559b8" y="259.122221"/>
     <use style="fill:#4c72b0;stroke:#4c72b0;stroke-width:1.5;" x="578.98322" xlink:href="#m49c57559b8" y="287.464286"/>
     <use style="fill:#4c72b0;stroke:#4c72b0;stroke-width:1.5;" x="625.751243" xlink:href="#m49c57559b8" y="195.493429"/>
     <use style="fill:#4c72b0;stroke:#4c72b0;stroke-width:1.5;" x="291.569163" xlink:href="#m49c57559b8" y="311.964153"/>
     <use style="fill:#4c72b0;stroke:#4c72b0;stroke-width:1.5;" x="710.769972" xlink:href="#m49c57559b8" y="257.945166"/>
     <use style="fill:#4c72b0;stroke:#4c72b0;stroke-width:1.5;" x="211.426085" xlink:href="#m49c57559b8" y="309.478054"/>
     <use style="fill:#4c72b0;stroke:#4c72b0;stroke-width:1.5;" x="563.46572" xlink:href="#m49c57559b8" y="193.934439"/>
     <use style="fill:#4c72b0;stroke:#4c72b0;stroke-width:1.5;" x="747.008656" xlink:href="#m49c57559b8" y="175.792937"/>
     <use style="fill:#4c72b0;stroke:#4c72b0;stroke-width:1.5;" x="605.139253" xlink:href="#m49c57559b8" y="215.625781"/>
     <use style="fill:#4c72b0;stroke:#4c72b0;stroke-width:1.5;" x="275.242514" xlink:href="#m49c57559b8" y="310.538186"/>
     <use style="fill:#4c72b0;stroke:#4c72b0;stroke-width:1.5;" x="306.624895" xlink:href="#m49c57559b8" y="312.287468"/>
     <use style="fill:#4c72b0;stroke:#4c72b0;stroke-width:1.5;" x="565.405407" xlink:href="#m49c57559b8" y="250.431086"/>
     <use style="fill:#4c72b0;stroke:#4c72b0;stroke-width:1.5;" x="643.704129" xlink:href="#m49c57559b8" y="277.087788"/>
     <use style="fill:#4c72b0;stroke:#4c72b0;stroke-width:1.5;" x="346.651753" xlink:href="#m49c57559b8" y="255.580539"/>
     <use style="fill:#4c72b0;stroke:#4c72b0;stroke-width:1.5;" x="517.00437" xlink:href="#m49c57559b8" y="290.231162"/>
     <use style="fill:#4c72b0;stroke:#4c72b0;stroke-width:1.5;" x="415.117349" xlink:href="#m49c57559b8" y="303.173354"/>
     <use style="fill:#4c72b0;stroke:#4c72b0;stroke-width:1.5;" x="691.541322" xlink:href="#m49c57559b8" y="242.17316"/>
     <use style="fill:#4c72b0;stroke:#4c72b0;stroke-width:1.5;" x="576.371236" xlink:href="#m49c57559b8" y="246.564588"/>
     <use style="fill:#4c72b0;stroke:#4c72b0;stroke-width:1.5;" x="615.492451" xlink:href="#m49c57559b8" y="262.108815"/>
     <use style="fill:#4c72b0;stroke:#4c72b0;stroke-width:1.5;" x="252.722148" xlink:href="#m49c57559b8" y="334.047272"/>
     <use style="fill:#4c72b0;stroke:#4c72b0;stroke-width:1.5;" x="814.897722" xlink:href="#m49c57559b8" y="203.677495"/>
     <use style="fill:#4c72b0;stroke:#4c72b0;stroke-width:1.5;" x="718.47494" xlink:href="#m49c57559b8" y="199.861917"/>
     <use style="fill:#4c72b0;stroke:#4c72b0;stroke-width:1.5;" x="201.109177" xlink:href="#m49c57559b8" y="345.704134"/>
     <use style="fill:#4c72b0;stroke:#4c72b0;stroke-width:1.5;" x="243.378084" xlink:href="#m49c57559b8" y="294.792419"/>
     <use style="fill:#4c72b0;stroke:#4c72b0;stroke-width:1.5;" x="352.018184" xlink:href="#m49c57559b8" y="286.286831"/>
     <use style="fill:#4c72b0;stroke:#4c72b0;stroke-width:1.5;" x="643.982229" xlink:href="#m49c57559b8" y="336.398843"/>
     <use style="fill:#4c72b0;stroke:#4c72b0;stroke-width:1.5;" x="405.187214" xlink:href="#m49c57559b8" y="264.964409"/>
     <use style="fill:#4c72b0;stroke:#4c72b0;stroke-width:1.5;" x="726.629365" xlink:href="#m49c57559b8" y="262.206565"/>
     <use style="fill:#4c72b0;stroke:#4c72b0;stroke-width:1.5;" x="424.897926" xlink:href="#m49c57559b8" y="320.515343"/>
     <use style="fill:#4c72b0;stroke:#4c72b0;stroke-width:1.5;" x="837.921715" xlink:href="#m49c57559b8" y="138.522776"/>
     <use style="fill:#4c72b0;stroke:#4c72b0;stroke-width:1.5;" x="529.234347" xlink:href="#m49c57559b8" y="297.720559"/>
     <use style="fill:#4c72b0;stroke:#4c72b0;stroke-width:1.5;" x="641.575975" xlink:href="#m49c57559b8" y="228.63964"/>
     <use style="fill:#4c72b0;stroke:#4c72b0;stroke-width:1.5;" x="231.54159" xlink:href="#m49c57559b8" y="324.705391"/>
     <use style="fill:#4c72b0;stroke:#4c72b0;stroke-width:1.5;" x="820.262518" xlink:href="#m49c57559b8" y="240.834965"/>
     <use style="fill:#4c72b0;stroke:#4c72b0;stroke-width:1.5;" x="234.207346" xlink:href="#m49c57559b8" y="348.155189"/>
     <use style="fill:#4c72b0;stroke:#4c72b0;stroke-width:1.5;" x="250.372715" xlink:href="#m49c57559b8" y="334.257859"/>
     <use style="fill:#4c72b0;stroke:#4c72b0;stroke-width:1.5;" x="795.551939" xlink:href="#m49c57559b8" y="274.813793"/>
     <use style="fill:#4c72b0;stroke:#4c72b0;stroke-width:1.5;" x="255.035803" xlink:href="#m49c57559b8" y="298.56948"/>
     <use style="fill:#4c72b0;stroke:#4c72b0;stroke-width:1.5;" x="380.993068" xlink:href="#m49c57559b8" y="269.463196"/>
     <use style="fill:#4c72b0;stroke:#4c72b0;stroke-width:1.5;" x="317.987481" xlink:href="#m49c57559b8" y="313.076705"/>
     <use style="fill:#4c72b0;stroke:#4c72b0;stroke-width:1.5;" x="260.631507" xlink:href="#m49c57559b8" y="297.866091"/>
     <use style="fill:#4c72b0;stroke:#4c72b0;stroke-width:1.5;" x="189.75258" xlink:href="#m49c57559b8" y="337.529835"/>
     <use style="fill:#4c72b0;stroke:#4c72b0;stroke-width:1.5;" x="767.975406" xlink:href="#m49c57559b8" y="284.155444"/>
     <use style="fill:#4c72b0;stroke:#4c72b0;stroke-width:1.5;" x="523.591321" xlink:href="#m49c57559b8" y="270.239217"/>
     <use style="fill:#4c72b0;stroke:#4c72b0;stroke-width:1.5;" x="523.163322" xlink:href="#m49c57559b8" y="272.481527"/>
     <use style="fill:#4c72b0;stroke:#4c72b0;stroke-width:1.5;" x="295.760098" xlink:href="#m49c57559b8" y="269.508048"/>
     <use style="fill:#4c72b0;stroke:#4c72b0;stroke-width:1.5;" x="574.457283" xlink:href="#m49c57559b8" y="273.059067"/>
     <use style="fill:#4c72b0;stroke:#4c72b0;stroke-width:1.5;" x="738.899685" xlink:href="#m49c57559b8" y="217.292236"/>
     <use style="fill:#4c72b0;stroke:#4c72b0;stroke-width:1.5;" x="710.915664" xlink:href="#m49c57559b8" y="238.286801"/>
     <use style="fill:#4c72b0;stroke:#4c72b0;stroke-width:1.5;" x="774.393418" xlink:href="#m49c57559b8" y="78.092222"/>
     <use style="fill:#4c72b0;stroke:#4c72b0;stroke-width:1.5;" x="350.45898" xlink:href="#m49c57559b8" y="275.855104"/>
     <use style="fill:#4c72b0;stroke:#4c72b0;stroke-width:1.5;" x="680.251076" xlink:href="#m49c57559b8" y="147.584898"/>
     <use style="fill:#4c72b0;stroke:#4c72b0;stroke-width:1.5;" x="209.700232" xlink:href="#m49c57559b8" y="331.749107"/>
     <use style="fill:#4c72b0;stroke:#4c72b0;stroke-width:1.5;" x="213.112259" xlink:href="#m49c57559b8" y="325.347902"/>
     <use style="fill:#4c72b0;stroke:#4c72b0;stroke-width:1.5;" x="512.171759" xlink:href="#m49c57559b8" y="246.679195"/>
     <use style="fill:#4c72b0;stroke:#4c72b0;stroke-width:1.5;" x="254.72493" xlink:href="#m49c57559b8" y="312.688096"/>
     <use style="fill:#4c72b0;stroke:#4c72b0;stroke-width:1.5;" x="976.517084" xlink:href="#m49c57559b8" y="179.037508"/>
     <use style="fill:#4c72b0;stroke:#4c72b0;stroke-width:1.5;" x="506.568217" xlink:href="#m49c57559b8" y="290.92683"/>
     <use style="fill:#4c72b0;stroke:#4c72b0;stroke-width:1.5;" x="273.442726" xlink:href="#m49c57559b8" y="289.612793"/>
     <use style="fill:#4c72b0;stroke:#4c72b0;stroke-width:1.5;" x="814.309848" xlink:href="#m49c57559b8" y="182.578022"/>
     <use style="fill:#4c72b0;stroke:#4c72b0;stroke-width:1.5;" x="497.516342" xlink:href="#m49c57559b8" y="323.173534"/>
     <use style="fill:#4c72b0;stroke:#4c72b0;stroke-width:1.5;" x="310.149162" xlink:href="#m49c57559b8" y="276.498182"/>
     <use style="fill:#4c72b0;stroke:#4c72b0;stroke-width:1.5;" x="252.038104" xlink:href="#m49c57559b8" y="306.614457"/>
     <use style="fill:#4c72b0;stroke:#4c72b0;stroke-width:1.5;" x="874.677815" xlink:href="#m49c57559b8" y="230.602856"/>
     <use style="fill:#4c72b0;stroke:#4c72b0;stroke-width:1.5;" x="753.368144" xlink:href="#m49c57559b8" y="283.533437"/>
     <use style="fill:#4c72b0;stroke:#4c72b0;stroke-width:1.5;" x="399.591509" xlink:href="#m49c57559b8" y="282.758484"/>
     <use style="fill:#4c72b0;stroke:#4c72b0;stroke-width:1.5;" x="446.732262" xlink:href="#m49c57559b8" y="253.032121"/>
     <use style="fill:#4c72b0;stroke:#4c72b0;stroke-width:1.5;" x="357.659639" xlink:href="#m49c57559b8" y="293.170271"/>
     <use style="fill:#4c72b0;stroke:#4c72b0;stroke-width:1.5;" x="548.810302" xlink:href="#m49c57559b8" y="232.520604"/>
     <use style="fill:#4c72b0;stroke:#4c72b0;stroke-width:1.5;" x="412.615994" xlink:href="#m49c57559b8" y="299.030555"/>
     <use style="fill:#4c72b0;stroke:#4c72b0;stroke-width:1.5;" x="349.033825" xlink:href="#m49c57559b8" y="317.472368"/>
     <use style="fill:#4c72b0;stroke:#4c72b0;stroke-width:1.5;" x="213.317953" xlink:href="#m49c57559b8" y="307.934377"/>
     <use style="fill:#4c72b0;stroke:#4c72b0;stroke-width:1.5;" x="634.364394" xlink:href="#m49c57559b8" y="249.272871"/>
     <use style="fill:#4c72b0;stroke:#4c72b0;stroke-width:1.5;" x="313.699992" xlink:href="#m49c57559b8" y="304.716167"/>
     <use style="fill:#4c72b0;stroke:#4c72b0;stroke-width:1.5;" x="659.947216" xlink:href="#m49c57559b8" y="260.755293"/>
     <use style="fill:#4c72b0;stroke:#4c72b0;stroke-width:1.5;" x="943.297873" xlink:href="#m49c57559b8" y="99.149277"/>
     <use style="fill:#4c72b0;stroke:#4c72b0;stroke-width:1.5;" x="453.721499" xlink:href="#m49c57559b8" y="273.765627"/>
     <use style="fill:#4c72b0;stroke:#4c72b0;stroke-width:1.5;" x="795.953929" xlink:href="#m49c57559b8" y="198.888458"/>
     <use style="fill:#4c72b0;stroke:#4c72b0;stroke-width:1.5;" x="209.700232" xlink:href="#m49c57559b8" y="326.193148"/>
     <use style="fill:#4c72b0;stroke:#4c72b0;stroke-width:1.5;" x="660.759858" xlink:href="#m49c57559b8" y="228.530866"/>
     <use style="fill:#4c72b0;stroke:#4c72b0;stroke-width:1.5;" x="550.796629" xlink:href="#m49c57559b8" y="108.566653"/>
     <use style="fill:#4c72b0;stroke:#4c72b0;stroke-width:1.5;" x="392.596878" xlink:href="#m49c57559b8" y="271.846741"/>
     <use style="fill:#4c72b0;stroke:#4c72b0;stroke-width:1.5;" x="906.948543" xlink:href="#m49c57559b8" y="202.613577"/>
     <use style="fill:#4c72b0;stroke:#4c72b0;stroke-width:1.5;" x="195.451909" xlink:href="#m49c57559b8" y="335.614076"/>
     <use style="fill:#4c72b0;stroke:#4c72b0;stroke-width:1.5;" x="440.326524" xlink:href="#m49c57559b8" y="278.956178"/>
     <use style="fill:#4c72b0;stroke:#4c72b0;stroke-width:1.5;" x="245.709628" xlink:href="#m49c57559b8" y="303.415834"/>
     <use style="fill:#4c72b0;stroke:#4c72b0;stroke-width:1.5;" x="262.643998" xlink:href="#m49c57559b8" y="279.911237"/>
     <use style="fill:#4c72b0;stroke:#4c72b0;stroke-width:1.5;" x="690.332193" xlink:href="#m49c57559b8" y="181.767105"/>
     <use style="fill:#4c72b0;stroke:#4c72b0;stroke-width:1.5;" x="846.287658" xlink:href="#m49c57559b8" y="240.662881"/>
     <use style="fill:#4c72b0;stroke:#4c72b0;stroke-width:1.5;" x="724.064667" xlink:href="#m49c57559b8" y="298.134619"/>
     <use style="fill:#4c72b0;stroke:#4c72b0;stroke-width:1.5;" x="623.419699" xlink:href="#m49c57559b8" y="281.483529"/>
     <use style="fill:#4c72b0;stroke:#4c72b0;stroke-width:1.5;" x="189.75258" xlink:href="#m49c57559b8" y="358.303157"/>
     <use style="fill:#4c72b0;stroke:#4c72b0;stroke-width:1.5;" x="540.261309" xlink:href="#m49c57559b8" y="257.114803"/>
     <use style="fill:#4c72b0;stroke:#4c72b0;stroke-width:1.5;" x="228.851425" xlink:href="#m49c57559b8" y="334.372226"/>
     <use style="fill:#4c72b0;stroke:#4c72b0;stroke-width:1.5;" x="315.439768" xlink:href="#m49c57559b8" y="277.246895"/>
     <use style="fill:#4c72b0;stroke:#4c72b0;stroke-width:1.5;" x="345.655424" xlink:href="#m49c57559b8" y="314.849993"/>
     <use style="fill:#4c72b0;stroke:#4c72b0;stroke-width:1.5;" x="324.399226" xlink:href="#m49c57559b8" y="309.033643"/>
     <use style="fill:#4c72b0;stroke:#4c72b0;stroke-width:1.5;" x="489.624964" xlink:href="#m49c57559b8" y="268.210293"/>
     <use style="fill:#4c72b0;stroke:#4c72b0;stroke-width:1.5;" x="671.223496" xlink:href="#m49c57559b8" y="192.954315"/>
     <use style="fill:#4c72b0;stroke:#4c72b0;stroke-width:1.5;" x="942.12709" xlink:href="#m49c57559b8" y="244.151052"/>
     <use style="fill:#4c72b0;stroke:#4c72b0;stroke-width:1.5;" x="348.80362" xlink:href="#m49c57559b8" y="306.06583"/>
     <use style="fill:#4c72b0;stroke:#4c72b0;stroke-width:1.5;" x="323.116877" xlink:href="#m49c57559b8" y="288.150723"/>
     <use style="fill:#4c72b0;stroke:#4c72b0;stroke-width:1.5;" x="261.955222" xlink:href="#m49c57559b8" y="349.304495"/>
     <use style="fill:#4c72b0;stroke:#4c72b0;stroke-width:1.5;" x="377.733287" xlink:href="#m49c57559b8" y="289.978585"/>
     <use style="fill:#4c72b0;stroke:#4c72b0;stroke-width:1.5;" x="991.04742" xlink:href="#m49c57559b8" y="107.312518"/>
     <use style="fill:#4c72b0;stroke:#4c72b0;stroke-width:1.5;" x="280.941843" xlink:href="#m49c57559b8" y="337.874201"/>
     <use style="fill:#4c72b0;stroke:#4c72b0;stroke-width:1.5;" x="525.494866" xlink:href="#m49c57559b8" y="260.037686"/>
     <use style="fill:#4c72b0;stroke:#4c72b0;stroke-width:1.5;" x="249.145587" xlink:href="#m49c57559b8" y="352.286292"/>
     <use style="fill:#4c72b0;stroke:#4c72b0;stroke-width:1.5;" x="216.676732" xlink:href="#m49c57559b8" y="345.879948"/>
     <use style="fill:#4c72b0;stroke:#4c72b0;stroke-width:1.5;" x="221.923008" xlink:href="#m49c57559b8" y="285.536491"/>
     <use style="fill:#4c72b0;stroke:#4c72b0;stroke-width:1.5;" x="771.08413" xlink:href="#m49c57559b8" y="161.159951"/>
     <use style="fill:#4c72b0;stroke:#4c72b0;stroke-width:1.5;" x="294.172428" xlink:href="#m49c57559b8" y="310.695861"/>
     <use style="fill:#4c72b0;stroke:#4c72b0;stroke-width:1.5;" x="576.137216" xlink:href="#m49c57559b8" y="227.214966"/>
     <use style="fill:#4c72b0;stroke:#4c72b0;stroke-width:1.5;" x="419.055922" xlink:href="#m49c57559b8" y="306.889888"/>
     <use style="fill:#4c72b0;stroke:#4c72b0;stroke-width:1.5;" x="702.692183" xlink:href="#m49c57559b8" y="272.287269"/>
     <use style="fill:#4c72b0;stroke:#4c72b0;stroke-width:1.5;" x="585.231549" xlink:href="#m49c57559b8" y="285.380366"/>
     <use style="fill:#4c72b0;stroke:#4c72b0;stroke-width:1.5;" x="542.153834" xlink:href="#m49c57559b8" y="220.807063"/>
     <use style="fill:#4c72b0;stroke:#4c72b0;stroke-width:1.5;" x="974.77319" xlink:href="#m49c57559b8" y="254.243191"/>
     <use style="fill:#4c72b0;stroke:#4c72b0;stroke-width:1.5;" x="554.209667" xlink:href="#m49c57559b8" y="281.87937"/>
    </g>
   </g>
   <g id="patch_3">
    <path d="M 144 378 
L 144 51.84 
" style="fill:none;stroke:#cccccc;stroke-linecap:square;stroke-linejoin:miter;stroke-width:1.25;"/>
   </g>
   <g id="patch_4">
    <path d="M 1036.8 378 
L 1036.8 51.84 
" style="fill:none;stroke:#cccccc;stroke-linecap:square;stroke-linejoin:miter;stroke-width:1.25;"/>
   </g>
   <g id="patch_5">
    <path d="M 144 378 
L 1036.8 378 
" style="fill:none;stroke:#cccccc;stroke-linecap:square;stroke-linejoin:miter;stroke-width:1.25;"/>
   </g>
   <g id="patch_6">
    <path d="M 144 51.84 
L 1036.8 51.84 
" style="fill:none;stroke:#cccccc;stroke-linecap:square;stroke-linejoin:miter;stroke-width:1.25;"/>
   </g>
   <g id="text_16">
    <!-- Model Fit Plot -->
    <defs>
     <path d="M 7.421875 0 
L 7.421875 71.578125 
L 21.6875 71.578125 
L 38.625 20.90625 
Q 40.96875 13.8125 42.046875 10.296875 
Q 43.265625 14.203125 45.84375 21.78125 
L 62.984375 71.578125 
L 75.734375 71.578125 
L 75.734375 0 
L 66.609375 0 
L 66.609375 59.90625 
L 45.796875 0 
L 37.25 0 
L 16.546875 60.9375 
L 16.546875 0 
z
" id="ArialMT-77"/>
     <path d="M 3.328125 25.921875 
Q 3.328125 40.328125 11.328125 47.265625 
Q 18.015625 53.03125 27.640625 53.03125 
Q 38.328125 53.03125 45.109375 46.015625 
Q 51.90625 39.015625 51.90625 26.65625 
Q 51.90625 16.65625 48.90625 10.90625 
Q 45.90625 5.171875 40.15625 2 
Q 34.421875 -1.171875 27.640625 -1.171875 
Q 16.75 -1.171875 10.03125 5.8125 
Q 3.328125 12.796875 3.328125 25.921875 
z
M 12.359375 25.921875 
Q 12.359375 15.96875 16.703125 11.015625 
Q 21.046875 6.0625 27.640625 6.0625 
Q 34.1875 6.0625 38.53125 11.03125 
Q 42.875 16.015625 42.875 26.21875 
Q 42.875 35.84375 38.5 40.796875 
Q 34.125 45.75 27.640625 45.75 
Q 21.046875 45.75 16.703125 40.8125 
Q 12.359375 35.890625 12.359375 25.921875 
z
" id="ArialMT-111"/>
     <path d="M 7.71875 0 
L 7.71875 71.578125 
L 34.71875 71.578125 
Q 41.84375 71.578125 45.609375 70.90625 
Q 50.875 70.015625 54.4375 67.546875 
Q 58.015625 65.09375 60.1875 60.640625 
Q 62.359375 56.203125 62.359375 50.875 
Q 62.359375 41.75 56.546875 35.421875 
Q 50.734375 29.109375 35.546875 29.109375 
L 17.1875 29.109375 
L 17.1875 0 
z
M 17.1875 37.546875 
L 35.6875 37.546875 
Q 44.875 37.546875 48.734375 40.96875 
Q 52.59375 44.390625 52.59375 50.59375 
Q 52.59375 55.078125 50.3125 58.265625 
Q 48.046875 61.46875 44.34375 62.5 
Q 41.9375 63.140625 35.5 63.140625 
L 17.1875 63.140625 
z
" id="ArialMT-80"/>
    </defs>
    <g style="fill:#262626;" transform="translate(517.044375 45.84)scale(0.24 -0.24)">
     <use xlink:href="#ArialMT-77"/>
     <use x="83.300781" xlink:href="#ArialMT-111"/>
     <use x="138.916016" xlink:href="#ArialMT-100"/>
     <use x="194.53125" xlink:href="#ArialMT-101"/>
     <use x="250.146484" xlink:href="#ArialMT-108"/>
     <use x="272.363281" xlink:href="#ArialMT-32"/>
     <use x="300.146484" xlink:href="#ArialMT-70"/>
     <use x="361.230469" xlink:href="#ArialMT-105"/>
     <use x="383.447266" xlink:href="#ArialMT-116"/>
     <use x="411.230469" xlink:href="#ArialMT-32"/>
     <use x="439.013672" xlink:href="#ArialMT-80"/>
     <use x="505.712891" xlink:href="#ArialMT-108"/>
     <use x="527.929688" xlink:href="#ArialMT-111"/>
     <use x="583.544922" xlink:href="#ArialMT-116"/>
    </g>
   </g>
  </g>
 </g>
 <defs>
  <clipPath id="pbb1db2aaa8">
   <rect height="326.16" width="892.8" x="144" y="51.84"/>
  </clipPath>
 </defs>
</svg>
