<?xml version="1.0" encoding="utf-8" standalone="no"?>
<!DOCTYPE svg PUBLIC "-//W3C//DTD SVG 1.1//EN"
  "http://www.w3.org/Graphics/SVG/1.1/DTD/svg11.dtd">
<!-- Created with matplotlib (https://matplotlib.org/) -->
<svg height="288pt" version="1.1" viewBox="0 0 432 288" width="432pt" xmlns="http://www.w3.org/2000/svg" xmlns:xlink="http://www.w3.org/1999/xlink">
 <defs>
  <style type="text/css">
*{stroke-linecap:butt;stroke-linejoin:round;}
  </style>
 </defs>
 <g id="figure_1">
  <g id="patch_1">
   <path d="M 0 288 
L 432 288 
L 432 0 
L 0 0 
z
" style="fill:#ffffff;"/>
  </g>
  <g id="axes_1">
   <g id="patch_2">
    <path d="M 54 252 
L 388.8 252 
L 388.8 34.56 
L 54 34.56 
z
" style="fill:#ffffff;"/>
   </g>
   <g id="matplotlib.axis_1">
    <g id="xtick_1">
     <g id="line2d_1">
      <path clip-path="url(#pcd80e1e931)" d="M 97.380335 252 
L 97.380335 34.56 
" style="fill:none;stroke:#cccccc;stroke-linecap:round;"/>
     </g>
     <g id="text_1">
      <!-- 0.4 -->
      <defs>
       <path d="M 4.15625 35.296875 
Q 4.15625 48 6.765625 55.734375 
Q 9.375 63.484375 14.515625 67.671875 
Q 19.671875 71.875 27.484375 71.875 
Q 33.25 71.875 37.59375 69.546875 
Q 41.9375 67.234375 44.765625 62.859375 
Q 47.609375 58.5 49.21875 52.21875 
Q 50.828125 45.953125 50.828125 35.296875 
Q 50.828125 22.703125 48.234375 14.96875 
Q 45.65625 7.234375 40.5 3 
Q 35.359375 -1.21875 27.484375 -1.21875 
Q 17.140625 -1.21875 11.234375 6.203125 
Q 4.15625 15.140625 4.15625 35.296875 
z
M 13.1875 35.296875 
Q 13.1875 17.671875 17.3125 11.828125 
Q 21.4375 6 27.484375 6 
Q 33.546875 6 37.671875 11.859375 
Q 41.796875 17.71875 41.796875 35.296875 
Q 41.796875 52.984375 37.671875 58.78125 
Q 33.546875 64.59375 27.390625 64.59375 
Q 21.34375 64.59375 17.71875 59.46875 
Q 13.1875 52.9375 13.1875 35.296875 
z
" id="ArialMT-48"/>
       <path d="M 9.078125 0 
L 9.078125 10.015625 
L 19.09375 10.015625 
L 19.09375 0 
z
" id="ArialMT-46"/>
       <path d="M 32.328125 0 
L 32.328125 17.140625 
L 1.265625 17.140625 
L 1.265625 25.203125 
L 33.9375 71.578125 
L 41.109375 71.578125 
L 41.109375 25.203125 
L 50.78125 25.203125 
L 50.78125 17.140625 
L 41.109375 17.140625 
L 41.109375 0 
z
M 32.328125 25.203125 
L 32.328125 57.46875 
L 9.90625 25.203125 
z
" id="ArialMT-52"/>
      </defs>
      <g style="fill:#262626;" transform="translate(82.090335 277.247187)scale(0.22 -0.22)">
       <use xlink:href="#ArialMT-48"/>
       <use x="55.615234" xlink:href="#ArialMT-46"/>
       <use x="83.398438" xlink:href="#ArialMT-52"/>
      </g>
     </g>
    </g>
    <g id="xtick_2">
     <g id="line2d_2">
      <path clip-path="url(#pcd80e1e931)" d="M 202.695938 252 
L 202.695938 34.56 
" style="fill:none;stroke:#cccccc;stroke-linecap:round;"/>
     </g>
     <g id="text_2">
      <!-- 0.6 -->
      <defs>
       <path d="M 49.75 54.046875 
L 41.015625 53.375 
Q 39.84375 58.546875 37.703125 60.890625 
Q 34.125 64.65625 28.90625 64.65625 
Q 24.703125 64.65625 21.53125 62.3125 
Q 17.390625 59.28125 14.984375 53.46875 
Q 12.59375 47.65625 12.5 36.921875 
Q 15.671875 41.75 20.265625 44.09375 
Q 24.859375 46.4375 29.890625 46.4375 
Q 38.671875 46.4375 44.84375 39.96875 
Q 51.03125 33.5 51.03125 23.25 
Q 51.03125 16.5 48.125 10.71875 
Q 45.21875 4.9375 40.140625 1.859375 
Q 35.0625 -1.21875 28.609375 -1.21875 
Q 17.625 -1.21875 10.6875 6.859375 
Q 3.765625 14.9375 3.765625 33.5 
Q 3.765625 54.25 11.421875 63.671875 
Q 18.109375 71.875 29.4375 71.875 
Q 37.890625 71.875 43.28125 67.140625 
Q 48.6875 62.40625 49.75 54.046875 
z
M 13.875 23.1875 
Q 13.875 18.65625 15.796875 14.5 
Q 17.71875 10.359375 21.1875 8.171875 
Q 24.65625 6 28.46875 6 
Q 34.03125 6 38.03125 10.484375 
Q 42.046875 14.984375 42.046875 22.703125 
Q 42.046875 30.125 38.078125 34.390625 
Q 34.125 38.671875 28.125 38.671875 
Q 22.171875 38.671875 18.015625 34.390625 
Q 13.875 30.125 13.875 23.1875 
z
" id="ArialMT-54"/>
      </defs>
      <g style="fill:#262626;" transform="translate(187.405938 277.247187)scale(0.22 -0.22)">
       <use xlink:href="#ArialMT-48"/>
       <use x="55.615234" xlink:href="#ArialMT-46"/>
       <use x="83.398438" xlink:href="#ArialMT-54"/>
      </g>
     </g>
    </g>
    <g id="xtick_3">
     <g id="line2d_3">
      <path clip-path="url(#pcd80e1e931)" d="M 308.011541 252 
L 308.011541 34.56 
" style="fill:none;stroke:#cccccc;stroke-linecap:round;"/>
     </g>
     <g id="text_3">
      <!-- 0.8 -->
      <defs>
       <path d="M 17.671875 38.8125 
Q 12.203125 40.828125 9.5625 44.53125 
Q 6.9375 48.25 6.9375 53.421875 
Q 6.9375 61.234375 12.546875 66.546875 
Q 18.171875 71.875 27.484375 71.875 
Q 36.859375 71.875 42.578125 66.421875 
Q 48.296875 60.984375 48.296875 53.171875 
Q 48.296875 48.1875 45.671875 44.5 
Q 43.0625 40.828125 37.75 38.8125 
Q 44.34375 36.671875 47.78125 31.875 
Q 51.21875 27.09375 51.21875 20.453125 
Q 51.21875 11.28125 44.71875 5.03125 
Q 38.234375 -1.21875 27.640625 -1.21875 
Q 17.046875 -1.21875 10.546875 5.046875 
Q 4.046875 11.328125 4.046875 20.703125 
Q 4.046875 27.6875 7.59375 32.390625 
Q 11.140625 37.109375 17.671875 38.8125 
z
M 15.921875 53.71875 
Q 15.921875 48.640625 19.1875 45.40625 
Q 22.46875 42.1875 27.6875 42.1875 
Q 32.765625 42.1875 36.015625 45.375 
Q 39.265625 48.578125 39.265625 53.21875 
Q 39.265625 58.0625 35.90625 61.359375 
Q 32.5625 64.65625 27.59375 64.65625 
Q 22.5625 64.65625 19.234375 61.421875 
Q 15.921875 58.203125 15.921875 53.71875 
z
M 13.09375 20.65625 
Q 13.09375 16.890625 14.875 13.375 
Q 16.65625 9.859375 20.171875 7.921875 
Q 23.6875 6 27.734375 6 
Q 34.03125 6 38.125 10.046875 
Q 42.234375 14.109375 42.234375 20.359375 
Q 42.234375 26.703125 38.015625 30.859375 
Q 33.796875 35.015625 27.4375 35.015625 
Q 21.234375 35.015625 17.15625 30.90625 
Q 13.09375 26.8125 13.09375 20.65625 
z
" id="ArialMT-56"/>
      </defs>
      <g style="fill:#262626;" transform="translate(292.721541 277.247187)scale(0.22 -0.22)">
       <use xlink:href="#ArialMT-48"/>
       <use x="55.615234" xlink:href="#ArialMT-46"/>
       <use x="83.398438" xlink:href="#ArialMT-56"/>
      </g>
     </g>
    </g>
    <g id="text_4">
     <!-- Fitted values -->
     <defs>
      <path d="M 8.203125 0 
L 8.203125 71.578125 
L 56.5 71.578125 
L 56.5 63.140625 
L 17.671875 63.140625 
L 17.671875 40.96875 
L 51.265625 40.96875 
L 51.265625 32.515625 
L 17.671875 32.515625 
L 17.671875 0 
z
" id="ArialMT-70"/>
      <path d="M 6.640625 61.46875 
L 6.640625 71.578125 
L 15.4375 71.578125 
L 15.4375 61.46875 
z
M 6.640625 0 
L 6.640625 51.859375 
L 15.4375 51.859375 
L 15.4375 0 
z
" id="ArialMT-105"/>
      <path d="M 25.78125 7.859375 
L 27.046875 0.09375 
Q 23.34375 -0.6875 20.40625 -0.6875 
Q 15.625 -0.6875 12.984375 0.828125 
Q 10.359375 2.34375 9.28125 4.8125 
Q 8.203125 7.28125 8.203125 15.1875 
L 8.203125 45.015625 
L 1.765625 45.015625 
L 1.765625 51.859375 
L 8.203125 51.859375 
L 8.203125 64.703125 
L 16.9375 69.96875 
L 16.9375 51.859375 
L 25.78125 51.859375 
L 25.78125 45.015625 
L 16.9375 45.015625 
L 16.9375 14.703125 
Q 16.9375 10.9375 17.40625 9.859375 
Q 17.875 8.796875 18.921875 8.15625 
Q 19.96875 7.515625 21.921875 7.515625 
Q 23.390625 7.515625 25.78125 7.859375 
z
" id="ArialMT-116"/>
      <path d="M 42.09375 16.703125 
L 51.171875 15.578125 
Q 49.03125 7.625 43.21875 3.21875 
Q 37.40625 -1.171875 28.375 -1.171875 
Q 17 -1.171875 10.328125 5.828125 
Q 3.65625 12.84375 3.65625 25.484375 
Q 3.65625 38.578125 10.390625 45.796875 
Q 17.140625 53.03125 27.875 53.03125 
Q 38.28125 53.03125 44.875 45.953125 
Q 51.46875 38.875 51.46875 26.03125 
Q 51.46875 25.25 51.421875 23.6875 
L 12.75 23.6875 
Q 13.234375 15.140625 17.578125 10.59375 
Q 21.921875 6.0625 28.421875 6.0625 
Q 33.25 6.0625 36.671875 8.59375 
Q 40.09375 11.140625 42.09375 16.703125 
z
M 13.234375 30.90625 
L 42.1875 30.90625 
Q 41.609375 37.453125 38.875 40.71875 
Q 34.671875 45.796875 27.984375 45.796875 
Q 21.921875 45.796875 17.796875 41.75 
Q 13.671875 37.703125 13.234375 30.90625 
z
" id="ArialMT-101"/>
      <path d="M 40.234375 0 
L 40.234375 6.546875 
Q 35.296875 -1.171875 25.734375 -1.171875 
Q 19.53125 -1.171875 14.328125 2.25 
Q 9.125 5.671875 6.265625 11.796875 
Q 3.421875 17.921875 3.421875 25.875 
Q 3.421875 33.640625 6 39.96875 
Q 8.59375 46.296875 13.765625 49.65625 
Q 18.953125 53.03125 25.34375 53.03125 
Q 30.03125 53.03125 33.6875 51.046875 
Q 37.359375 49.078125 39.65625 45.90625 
L 39.65625 71.578125 
L 48.390625 71.578125 
L 48.390625 0 
z
M 12.453125 25.875 
Q 12.453125 15.921875 16.640625 10.984375 
Q 20.84375 6.0625 26.5625 6.0625 
Q 32.328125 6.0625 36.34375 10.765625 
Q 40.375 15.484375 40.375 25.140625 
Q 40.375 35.796875 36.265625 40.765625 
Q 32.171875 45.75 26.171875 45.75 
Q 20.3125 45.75 16.375 40.96875 
Q 12.453125 36.1875 12.453125 25.875 
z
" id="ArialMT-100"/>
      <path id="ArialMT-32"/>
      <path d="M 21 0 
L 1.265625 51.859375 
L 10.546875 51.859375 
L 21.6875 20.796875 
Q 23.484375 15.765625 25 10.359375 
Q 26.171875 14.453125 28.265625 20.21875 
L 39.796875 51.859375 
L 48.828125 51.859375 
L 29.203125 0 
z
" id="ArialMT-118"/>
      <path d="M 40.4375 6.390625 
Q 35.546875 2.25 31.03125 0.53125 
Q 26.515625 -1.171875 21.34375 -1.171875 
Q 12.796875 -1.171875 8.203125 3 
Q 3.609375 7.171875 3.609375 13.671875 
Q 3.609375 17.484375 5.34375 20.625 
Q 7.078125 23.78125 9.890625 25.6875 
Q 12.703125 27.59375 16.21875 28.5625 
Q 18.796875 29.25 24.03125 29.890625 
Q 34.671875 31.15625 39.703125 32.90625 
Q 39.75 34.71875 39.75 35.203125 
Q 39.75 40.578125 37.25 42.78125 
Q 33.890625 45.75 27.25 45.75 
Q 21.046875 45.75 18.09375 43.578125 
Q 15.140625 41.40625 13.71875 35.890625 
L 5.125 37.0625 
Q 6.296875 42.578125 8.984375 45.96875 
Q 11.671875 49.359375 16.75 51.1875 
Q 21.828125 53.03125 28.515625 53.03125 
Q 35.15625 53.03125 39.296875 51.46875 
Q 43.453125 49.90625 45.40625 47.53125 
Q 47.359375 45.171875 48.140625 41.546875 
Q 48.578125 39.3125 48.578125 33.453125 
L 48.578125 21.734375 
Q 48.578125 9.46875 49.140625 6.21875 
Q 49.703125 2.984375 51.375 0 
L 42.1875 0 
Q 40.828125 2.734375 40.4375 6.390625 
z
M 39.703125 26.03125 
Q 34.90625 24.078125 25.34375 22.703125 
Q 19.921875 21.921875 17.671875 20.9375 
Q 15.4375 19.96875 14.203125 18.09375 
Q 12.984375 16.21875 12.984375 13.921875 
Q 12.984375 10.40625 15.640625 8.0625 
Q 18.3125 5.71875 23.4375 5.71875 
Q 28.515625 5.71875 32.46875 7.9375 
Q 36.421875 10.15625 38.28125 14.015625 
Q 39.703125 17 39.703125 22.796875 
z
" id="ArialMT-97"/>
      <path d="M 6.390625 0 
L 6.390625 71.578125 
L 15.1875 71.578125 
L 15.1875 0 
z
" id="ArialMT-108"/>
      <path d="M 40.578125 0 
L 40.578125 7.625 
Q 34.515625 -1.171875 24.125 -1.171875 
Q 19.53125 -1.171875 15.546875 0.578125 
Q 11.578125 2.34375 9.640625 5 
Q 7.71875 7.671875 6.9375 11.53125 
Q 6.390625 14.109375 6.390625 19.734375 
L 6.390625 51.859375 
L 15.1875 51.859375 
L 15.1875 23.09375 
Q 15.1875 16.21875 15.71875 13.8125 
Q 16.546875 10.359375 19.234375 8.375 
Q 21.921875 6.390625 25.875 6.390625 
Q 29.828125 6.390625 33.296875 8.421875 
Q 36.765625 10.453125 38.203125 13.9375 
Q 39.65625 17.4375 39.65625 24.078125 
L 39.65625 51.859375 
L 48.4375 51.859375 
L 48.4375 0 
z
" id="ArialMT-117"/>
      <path d="M 3.078125 15.484375 
L 11.765625 16.84375 
Q 12.5 11.625 15.84375 8.84375 
Q 19.1875 6.0625 25.203125 6.0625 
Q 31.25 6.0625 34.171875 8.515625 
Q 37.109375 10.984375 37.109375 14.3125 
Q 37.109375 17.28125 34.515625 19 
Q 32.71875 20.171875 25.53125 21.96875 
Q 15.875 24.421875 12.140625 26.203125 
Q 8.40625 27.984375 6.46875 31.125 
Q 4.546875 34.28125 4.546875 38.09375 
Q 4.546875 41.546875 6.125 44.5 
Q 7.71875 47.46875 10.453125 49.421875 
Q 12.5 50.921875 16.03125 51.96875 
Q 19.578125 53.03125 23.640625 53.03125 
Q 29.734375 53.03125 34.34375 51.265625 
Q 38.96875 49.515625 41.15625 46.5 
Q 43.359375 43.5 44.1875 38.484375 
L 35.59375 37.3125 
Q 35.015625 41.3125 32.203125 43.546875 
Q 29.390625 45.796875 24.265625 45.796875 
Q 18.21875 45.796875 15.625 43.796875 
Q 13.03125 41.796875 13.03125 39.109375 
Q 13.03125 37.40625 14.109375 36.03125 
Q 15.1875 34.625 17.484375 33.6875 
Q 18.796875 33.203125 25.25 31.453125 
Q 34.578125 28.953125 38.25 27.359375 
Q 41.9375 25.78125 44.03125 22.75 
Q 46.140625 19.734375 46.140625 15.234375 
Q 46.140625 10.84375 43.578125 6.953125 
Q 41.015625 3.078125 36.171875 0.953125 
Q 31.34375 -1.171875 25.25 -1.171875 
Q 15.140625 -1.171875 9.84375 3.03125 
Q 4.546875 7.234375 3.078125 15.484375 
z
" id="ArialMT-115"/>
     </defs>
     <g style="fill:#262626;" transform="translate(153.37125 302.798437)scale(0.24 -0.24)">
      <use xlink:href="#ArialMT-70"/>
      <use x="61.083984" xlink:href="#ArialMT-105"/>
      <use x="83.300781" xlink:href="#ArialMT-116"/>
      <use x="111.083984" xlink:href="#ArialMT-116"/>
      <use x="138.867188" xlink:href="#ArialMT-101"/>
      <use x="194.482422" xlink:href="#ArialMT-100"/>
      <use x="250.097656" xlink:href="#ArialMT-32"/>
      <use x="277.880859" xlink:href="#ArialMT-118"/>
      <use x="327.880859" xlink:href="#ArialMT-97"/>
      <use x="383.496094" xlink:href="#ArialMT-108"/>
      <use x="405.712891" xlink:href="#ArialMT-117"/>
      <use x="461.328125" xlink:href="#ArialMT-101"/>
      <use x="516.943359" xlink:href="#ArialMT-115"/>
     </g>
    </g>
   </g>
   <g id="matplotlib.axis_2">
    <g id="ytick_1">
     <g id="line2d_4">
      <path clip-path="url(#pcd80e1e931)" d="M 54 192.725691 
L 388.8 192.725691 
" style="fill:none;stroke:#cccccc;stroke-linecap:round;"/>
     </g>
     <g id="text_5">
      <!-- −0.5 -->
      <defs>
       <path d="M 52.828125 31.203125 
L 5.5625 31.203125 
L 5.5625 39.40625 
L 52.828125 39.40625 
z
" id="ArialMT-8722"/>
       <path d="M 4.15625 18.75 
L 13.375 19.53125 
Q 14.40625 12.796875 18.140625 9.390625 
Q 21.875 6 27.15625 6 
Q 33.5 6 37.890625 10.78125 
Q 42.28125 15.578125 42.28125 23.484375 
Q 42.28125 31 38.0625 35.34375 
Q 33.84375 39.703125 27 39.703125 
Q 22.75 39.703125 19.328125 37.765625 
Q 15.921875 35.84375 13.96875 32.765625 
L 5.71875 33.84375 
L 12.640625 70.609375 
L 48.25 70.609375 
L 48.25 62.203125 
L 19.671875 62.203125 
L 15.828125 42.96875 
Q 22.265625 47.46875 29.34375 47.46875 
Q 38.71875 47.46875 45.15625 40.96875 
Q 51.609375 34.46875 51.609375 24.265625 
Q 51.609375 14.546875 45.953125 7.46875 
Q 39.0625 -1.21875 27.15625 -1.21875 
Q 17.390625 -1.21875 11.203125 4.25 
Q 5.03125 9.71875 4.15625 18.75 
z
" id="ArialMT-53"/>
      </defs>
      <g style="fill:#262626;" transform="translate(1.070625 200.599285)scale(0.22 -0.22)">
       <use xlink:href="#ArialMT-8722"/>
       <use x="58.398438" xlink:href="#ArialMT-48"/>
       <use x="114.013672" xlink:href="#ArialMT-46"/>
       <use x="141.796875" xlink:href="#ArialMT-53"/>
      </g>
     </g>
    </g>
    <g id="ytick_2">
     <g id="line2d_5">
      <path clip-path="url(#pcd80e1e931)" d="M 54 124.833236 
L 388.8 124.833236 
" style="fill:none;stroke:#cccccc;stroke-linecap:round;"/>
     </g>
     <g id="text_6">
      <!-- 0.0 -->
      <g style="fill:#262626;" transform="translate(13.92 132.706829)scale(0.22 -0.22)">
       <use xlink:href="#ArialMT-48"/>
       <use x="55.615234" xlink:href="#ArialMT-46"/>
       <use x="83.398438" xlink:href="#ArialMT-48"/>
      </g>
     </g>
    </g>
    <g id="ytick_3">
     <g id="line2d_6">
      <path clip-path="url(#pcd80e1e931)" d="M 54 56.940781 
L 388.8 56.940781 
" style="fill:none;stroke:#cccccc;stroke-linecap:round;"/>
     </g>
     <g id="text_7">
      <!-- 0.5 -->
      <g style="fill:#262626;" transform="translate(13.92 64.814374)scale(0.22 -0.22)">
       <use xlink:href="#ArialMT-48"/>
       <use x="55.615234" xlink:href="#ArialMT-46"/>
       <use x="83.398438" xlink:href="#ArialMT-53"/>
      </g>
     </g>
    </g>
    <g id="text_8">
     <!-- Pearson Residuals -->
     <defs>
      <path d="M 7.71875 0 
L 7.71875 71.578125 
L 34.71875 71.578125 
Q 41.84375 71.578125 45.609375 70.90625 
Q 50.875 70.015625 54.4375 67.546875 
Q 58.015625 65.09375 60.1875 60.640625 
Q 62.359375 56.203125 62.359375 50.875 
Q 62.359375 41.75 56.546875 35.421875 
Q 50.734375 29.109375 35.546875 29.109375 
L 17.1875 29.109375 
L 17.1875 0 
z
M 17.1875 37.546875 
L 35.6875 37.546875 
Q 44.875 37.546875 48.734375 40.96875 
Q 52.59375 44.390625 52.59375 50.59375 
Q 52.59375 55.078125 50.3125 58.265625 
Q 48.046875 61.46875 44.34375 62.5 
Q 41.9375 63.140625 35.5 63.140625 
L 17.1875 63.140625 
z
" id="ArialMT-80"/>
      <path d="M 6.5 0 
L 6.5 51.859375 
L 14.40625 51.859375 
L 14.40625 44 
Q 17.4375 49.515625 20 51.265625 
Q 22.5625 53.03125 25.640625 53.03125 
Q 30.078125 53.03125 34.671875 50.203125 
L 31.640625 42.046875 
Q 28.421875 43.953125 25.203125 43.953125 
Q 22.3125 43.953125 20.015625 42.21875 
Q 17.71875 40.484375 16.75 37.40625 
Q 15.28125 32.71875 15.28125 27.15625 
L 15.28125 0 
z
" id="ArialMT-114"/>
      <path d="M 3.328125 25.921875 
Q 3.328125 40.328125 11.328125 47.265625 
Q 18.015625 53.03125 27.640625 53.03125 
Q 38.328125 53.03125 45.109375 46.015625 
Q 51.90625 39.015625 51.90625 26.65625 
Q 51.90625 16.65625 48.90625 10.90625 
Q 45.90625 5.171875 40.15625 2 
Q 34.421875 -1.171875 27.640625 -1.171875 
Q 16.75 -1.171875 10.03125 5.8125 
Q 3.328125 12.796875 3.328125 25.921875 
z
M 12.359375 25.921875 
Q 12.359375 15.96875 16.703125 11.015625 
Q 21.046875 6.0625 27.640625 6.0625 
Q 34.1875 6.0625 38.53125 11.03125 
Q 42.875 16.015625 42.875 26.21875 
Q 42.875 35.84375 38.5 40.796875 
Q 34.125 45.75 27.640625 45.75 
Q 21.046875 45.75 16.703125 40.8125 
Q 12.359375 35.890625 12.359375 25.921875 
z
" id="ArialMT-111"/>
      <path d="M 6.59375 0 
L 6.59375 51.859375 
L 14.5 51.859375 
L 14.5 44.484375 
Q 20.21875 53.03125 31 53.03125 
Q 35.6875 53.03125 39.625 51.34375 
Q 43.5625 49.65625 45.515625 46.921875 
Q 47.46875 44.1875 48.25 40.4375 
Q 48.734375 37.984375 48.734375 31.890625 
L 48.734375 0 
L 39.9375 0 
L 39.9375 31.546875 
Q 39.9375 36.921875 38.90625 39.578125 
Q 37.890625 42.234375 35.28125 43.8125 
Q 32.671875 45.40625 29.15625 45.40625 
Q 23.53125 45.40625 19.453125 41.84375 
Q 15.375 38.28125 15.375 28.328125 
L 15.375 0 
z
" id="ArialMT-110"/>
      <path d="M 7.859375 0 
L 7.859375 71.578125 
L 39.59375 71.578125 
Q 49.171875 71.578125 54.140625 69.640625 
Q 59.125 67.71875 62.109375 62.828125 
Q 65.09375 57.953125 65.09375 52.046875 
Q 65.09375 44.4375 60.15625 39.203125 
Q 55.21875 33.984375 44.921875 32.5625 
Q 48.6875 30.765625 50.640625 29 
Q 54.78125 25.203125 58.5 19.484375 
L 70.953125 0 
L 59.03125 0 
L 49.5625 14.890625 
Q 45.40625 21.34375 42.71875 24.75 
Q 40.046875 28.171875 37.921875 29.53125 
Q 35.796875 30.90625 33.59375 31.453125 
Q 31.984375 31.78125 28.328125 31.78125 
L 17.328125 31.78125 
L 17.328125 0 
z
M 17.328125 39.984375 
L 37.703125 39.984375 
Q 44.1875 39.984375 47.84375 41.328125 
Q 51.515625 42.671875 53.421875 45.625 
Q 55.328125 48.578125 55.328125 52.046875 
Q 55.328125 57.125 51.640625 60.390625 
Q 47.953125 63.671875 39.984375 63.671875 
L 17.328125 63.671875 
z
" id="ArialMT-82"/>
     </defs>
     <g style="fill:#262626;" transform="translate(-7.699375 243.9975)rotate(-90)scale(0.24 -0.24)">
      <use xlink:href="#ArialMT-80"/>
      <use x="66.699219" xlink:href="#ArialMT-101"/>
      <use x="122.314453" xlink:href="#ArialMT-97"/>
      <use x="177.929688" xlink:href="#ArialMT-114"/>
      <use x="211.230469" xlink:href="#ArialMT-115"/>
      <use x="261.230469" xlink:href="#ArialMT-111"/>
      <use x="316.845703" xlink:href="#ArialMT-110"/>
      <use x="372.460938" xlink:href="#ArialMT-32"/>
      <use x="400.244141" xlink:href="#ArialMT-82"/>
      <use x="472.460938" xlink:href="#ArialMT-101"/>
      <use x="528.076172" xlink:href="#ArialMT-115"/>
      <use x="578.076172" xlink:href="#ArialMT-105"/>
      <use x="600.292969" xlink:href="#ArialMT-100"/>
      <use x="655.908203" xlink:href="#ArialMT-117"/>
      <use x="711.523438" xlink:href="#ArialMT-97"/>
      <use x="767.138672" xlink:href="#ArialMT-108"/>
      <use x="789.355469" xlink:href="#ArialMT-115"/>
     </g>
    </g>
   </g>
   <g id="PathCollection_1">
    <defs>
     <path d="M -3 0 
L 3 0 
M 0 3 
L 0 -3 
" id="mcb8cbb7e5e" style="stroke:#4c72b0;stroke-width:1.5;"/>
    </defs>
    <g clip-path="url(#pcd80e1e931)">
     <use style="fill:#4c72b0;stroke:#4c72b0;stroke-width:1.5;" x="207.84983" xlink:href="#mcb8cbb7e5e" y="144.751668"/>
     <use style="fill:#4c72b0;stroke:#4c72b0;stroke-width:1.5;" x="255.569915" xlink:href="#mcb8cbb7e5e" y="171.771036"/>
     <use style="fill:#4c72b0;stroke:#4c72b0;stroke-width:1.5;" x="164.124076" xlink:href="#mcb8cbb7e5e" y="179.728385"/>
     <use style="fill:#4c72b0;stroke:#4c72b0;stroke-width:1.5;" x="287.176804" xlink:href="#mcb8cbb7e5e" y="110.206437"/>
     <use style="fill:#4c72b0;stroke:#4c72b0;stroke-width:1.5;" x="255.966737" xlink:href="#mcb8cbb7e5e" y="76.374239"/>
     <use style="fill:#4c72b0;stroke:#4c72b0;stroke-width:1.5;" x="292.297099" xlink:href="#mcb8cbb7e5e" y="152.98122"/>
     <use style="fill:#4c72b0;stroke:#4c72b0;stroke-width:1.5;" x="313.457755" xlink:href="#mcb8cbb7e5e" y="110.0523"/>
     <use style="fill:#4c72b0;stroke:#4c72b0;stroke-width:1.5;" x="229.424255" xlink:href="#mcb8cbb7e5e" y="151.144375"/>
     <use style="fill:#4c72b0;stroke:#4c72b0;stroke-width:1.5;" x="261.547427" xlink:href="#mcb8cbb7e5e" y="121.361408"/>
     <use style="fill:#4c72b0;stroke:#4c72b0;stroke-width:1.5;" x="221.527549" xlink:href="#mcb8cbb7e5e" y="124.111563"/>
     <use style="fill:#4c72b0;stroke:#4c72b0;stroke-width:1.5;" x="258.391664" xlink:href="#mcb8cbb7e5e" y="165.634272"/>
     <use style="fill:#4c72b0;stroke:#4c72b0;stroke-width:1.5;" x="293.315721" xlink:href="#mcb8cbb7e5e" y="122.362644"/>
     <use style="fill:#4c72b0;stroke:#4c72b0;stroke-width:1.5;" x="301.33871" xlink:href="#mcb8cbb7e5e" y="135.020867"/>
     <use style="fill:#4c72b0;stroke:#4c72b0;stroke-width:1.5;" x="271.265548" xlink:href="#mcb8cbb7e5e" y="148.318706"/>
     <use style="fill:#4c72b0;stroke:#4c72b0;stroke-width:1.5;" x="309.639658" xlink:href="#mcb8cbb7e5e" y="116.463072"/>
     <use style="fill:#4c72b0;stroke:#4c72b0;stroke-width:1.5;" x="368.863377" xlink:href="#mcb8cbb7e5e" y="113.909643"/>
     <use style="fill:#4c72b0;stroke:#4c72b0;stroke-width:1.5;" x="282.622811" xlink:href="#mcb8cbb7e5e" y="152.095395"/>
     <use style="fill:#4c72b0;stroke:#4c72b0;stroke-width:1.5;" x="130.993383" xlink:href="#mcb8cbb7e5e" y="89.140295"/>
     <use style="fill:#4c72b0;stroke:#4c72b0;stroke-width:1.5;" x="292.46886" xlink:href="#mcb8cbb7e5e" y="119.445889"/>
     <use style="fill:#4c72b0;stroke:#4c72b0;stroke-width:1.5;" x="232.855926" xlink:href="#mcb8cbb7e5e" y="104.278623"/>
     <use style="fill:#4c72b0;stroke:#4c72b0;stroke-width:1.5;" x="312.754639" xlink:href="#mcb8cbb7e5e" y="108.221052"/>
     <use style="fill:#4c72b0;stroke:#4c72b0;stroke-width:1.5;" x="96.951585" xlink:href="#mcb8cbb7e5e" y="61.744983"/>
     <use style="fill:#4c72b0;stroke:#4c72b0;stroke-width:1.5;" x="183.308761" xlink:href="#mcb8cbb7e5e" y="132.495795"/>
     <use style="fill:#4c72b0;stroke:#4c72b0;stroke-width:1.5;" x="128.31208" xlink:href="#mcb8cbb7e5e" y="80.642648"/>
     <use style="fill:#4c72b0;stroke:#4c72b0;stroke-width:1.5;" x="254.97111" xlink:href="#mcb8cbb7e5e" y="130.127856"/>
     <use style="fill:#4c72b0;stroke:#4c72b0;stroke-width:1.5;" x="249.253087" xlink:href="#mcb8cbb7e5e" y="101.116701"/>
     <use style="fill:#4c72b0;stroke:#4c72b0;stroke-width:1.5;" x="206.936206" xlink:href="#mcb8cbb7e5e" y="111.687624"/>
     <use style="fill:#4c72b0;stroke:#4c72b0;stroke-width:1.5;" x="291.334961" xlink:href="#mcb8cbb7e5e" y="113.621257"/>
     <use style="fill:#4c72b0;stroke:#4c72b0;stroke-width:1.5;" x="234.373051" xlink:href="#mcb8cbb7e5e" y="120.03149"/>
     <use style="fill:#4c72b0;stroke:#4c72b0;stroke-width:1.5;" x="204.502145" xlink:href="#mcb8cbb7e5e" y="121.548396"/>
     <use style="fill:#4c72b0;stroke:#4c72b0;stroke-width:1.5;" x="340.879952" xlink:href="#mcb8cbb7e5e" y="130.060751"/>
     <use style="fill:#4c72b0;stroke:#4c72b0;stroke-width:1.5;" x="122.157951" xlink:href="#mcb8cbb7e5e" y="149.281746"/>
     <use style="fill:#4c72b0;stroke:#4c72b0;stroke-width:1.5;" x="327.914743" xlink:href="#mcb8cbb7e5e" y="134.14909"/>
     <use style="fill:#4c72b0;stroke:#4c72b0;stroke-width:1.5;" x="151.642848" xlink:href="#mcb8cbb7e5e" y="144.915819"/>
     <use style="fill:#4c72b0;stroke:#4c72b0;stroke-width:1.5;" x="345.818217" xlink:href="#mcb8cbb7e5e" y="117.500055"/>
     <use style="fill:#4c72b0;stroke:#4c72b0;stroke-width:1.5;" x="201.917236" xlink:href="#mcb8cbb7e5e" y="132.833168"/>
     <use style="fill:#4c72b0;stroke:#4c72b0;stroke-width:1.5;" x="278.286388" xlink:href="#mcb8cbb7e5e" y="135.142468"/>
     <use style="fill:#4c72b0;stroke:#4c72b0;stroke-width:1.5;" x="152.138399" xlink:href="#mcb8cbb7e5e" y="163.849609"/>
     <use style="fill:#4c72b0;stroke:#4c72b0;stroke-width:1.5;" x="265.912187" xlink:href="#mcb8cbb7e5e" y="98.705071"/>
     <use style="fill:#4c72b0;stroke:#4c72b0;stroke-width:1.5;" x="135.409246" xlink:href="#mcb8cbb7e5e" y="129.45701"/>
     <use style="fill:#4c72b0;stroke:#4c72b0;stroke-width:1.5;" x="218.351086" xlink:href="#mcb8cbb7e5e" y="110.364937"/>
     <use style="fill:#4c72b0;stroke:#4c72b0;stroke-width:1.5;" x="152.064911" xlink:href="#mcb8cbb7e5e" y="119.691769"/>
     <use style="fill:#4c72b0;stroke:#4c72b0;stroke-width:1.5;" x="360.278402" xlink:href="#mcb8cbb7e5e" y="138.122023"/>
     <use style="fill:#4c72b0;stroke:#4c72b0;stroke-width:1.5;" x="184.843931" xlink:href="#mcb8cbb7e5e" y="131.970727"/>
     <use style="fill:#4c72b0;stroke:#4c72b0;stroke-width:1.5;" x="144.749601" xlink:href="#mcb8cbb7e5e" y="138.37134"/>
     <use style="fill:#4c72b0;stroke:#4c72b0;stroke-width:1.5;" x="157.29434" xlink:href="#mcb8cbb7e5e" y="136.915461"/>
     <use style="fill:#4c72b0;stroke:#4c72b0;stroke-width:1.5;" x="238.533662" xlink:href="#mcb8cbb7e5e" y="97.376231"/>
     <use style="fill:#4c72b0;stroke:#4c72b0;stroke-width:1.5;" x="291.065897" xlink:href="#mcb8cbb7e5e" y="110.75096"/>
     <use style="fill:#4c72b0;stroke:#4c72b0;stroke-width:1.5;" x="203.949082" xlink:href="#mcb8cbb7e5e" y="132.539205"/>
     <use style="fill:#4c72b0;stroke:#4c72b0;stroke-width:1.5;" x="251.778587" xlink:href="#mcb8cbb7e5e" y="91.108605"/>
     <use style="fill:#4c72b0;stroke:#4c72b0;stroke-width:1.5;" x="179.725897" xlink:href="#mcb8cbb7e5e" y="116.892416"/>
     <use style="fill:#4c72b0;stroke:#4c72b0;stroke-width:1.5;" x="305.962201" xlink:href="#mcb8cbb7e5e" y="105.182568"/>
     <use style="fill:#4c72b0;stroke:#4c72b0;stroke-width:1.5;" x="123.953585" xlink:href="#mcb8cbb7e5e" y="141.786441"/>
     <use style="fill:#4c72b0;stroke:#4c72b0;stroke-width:1.5;" x="296.551423" xlink:href="#mcb8cbb7e5e" y="114.92755"/>
     <use style="fill:#4c72b0;stroke:#4c72b0;stroke-width:1.5;" x="172.02495" xlink:href="#mcb8cbb7e5e" y="171.499606"/>
     <use style="fill:#4c72b0;stroke:#4c72b0;stroke-width:1.5;" x="343.709282" xlink:href="#mcb8cbb7e5e" y="127.810203"/>
     <use style="fill:#4c72b0;stroke:#4c72b0;stroke-width:1.5;" x="338.756116" xlink:href="#mcb8cbb7e5e" y="117.203096"/>
     <use style="fill:#4c72b0;stroke:#4c72b0;stroke-width:1.5;" x="268.89392" xlink:href="#mcb8cbb7e5e" y="94.396667"/>
     <use style="fill:#4c72b0;stroke:#4c72b0;stroke-width:1.5;" x="94.933123" xlink:href="#mcb8cbb7e5e" y="210.210811"/>
     <use style="fill:#4c72b0;stroke:#4c72b0;stroke-width:1.5;" x="289.601038" xlink:href="#mcb8cbb7e5e" y="120.699256"/>
     <use style="fill:#4c72b0;stroke:#4c72b0;stroke-width:1.5;" x="136.685196" xlink:href="#mcb8cbb7e5e" y="46.317048"/>
     <use style="fill:#4c72b0;stroke:#4c72b0;stroke-width:1.5;" x="265.532164" xlink:href="#mcb8cbb7e5e" y="141.32385"/>
     <use style="fill:#4c72b0;stroke:#4c72b0;stroke-width:1.5;" x="104.516566" xlink:href="#mcb8cbb7e5e" y="125.210637"/>
     <use style="fill:#4c72b0;stroke:#4c72b0;stroke-width:1.5;" x="241.224394" xlink:href="#mcb8cbb7e5e" y="134.183968"/>
     <use style="fill:#4c72b0;stroke:#4c72b0;stroke-width:1.5;" x="214.93398" xlink:href="#mcb8cbb7e5e" y="173.550093"/>
     <use style="fill:#4c72b0;stroke:#4c72b0;stroke-width:1.5;" x="142.037538" xlink:href="#mcb8cbb7e5e" y="146.572127"/>
     <use style="fill:#4c72b0;stroke:#4c72b0;stroke-width:1.5;" x="216.491903" xlink:href="#mcb8cbb7e5e" y="111.616155"/>
     <use style="fill:#4c72b0;stroke:#4c72b0;stroke-width:1.5;" x="232.914015" xlink:href="#mcb8cbb7e5e" y="145.608503"/>
     <use style="fill:#4c72b0;stroke:#4c72b0;stroke-width:1.5;" x="142.252455" xlink:href="#mcb8cbb7e5e" y="121.951073"/>
     <use style="fill:#4c72b0;stroke:#4c72b0;stroke-width:1.5;" x="239.629331" xlink:href="#mcb8cbb7e5e" y="150.28969"/>
     <use style="fill:#4c72b0;stroke:#4c72b0;stroke-width:1.5;" x="183.893328" xlink:href="#mcb8cbb7e5e" y="62.507978"/>
     <use style="fill:#4c72b0;stroke:#4c72b0;stroke-width:1.5;" x="347.966971" xlink:href="#mcb8cbb7e5e" y="120.243113"/>
     <use style="fill:#4c72b0;stroke:#4c72b0;stroke-width:1.5;" x="255.562607" xlink:href="#mcb8cbb7e5e" y="76.223177"/>
     <use style="fill:#4c72b0;stroke:#4c72b0;stroke-width:1.5;" x="73.936623" xlink:href="#mcb8cbb7e5e" y="90.970735"/>
     <use style="fill:#4c72b0;stroke:#4c72b0;stroke-width:1.5;" x="140.278929" xlink:href="#mcb8cbb7e5e" y="147.298448"/>
     <use style="fill:#4c72b0;stroke:#4c72b0;stroke-width:1.5;" x="235.313585" xlink:href="#mcb8cbb7e5e" y="159.64893"/>
     <use style="fill:#4c72b0;stroke:#4c72b0;stroke-width:1.5;" x="331.362359" xlink:href="#mcb8cbb7e5e" y="150.547721"/>
     <use style="fill:#4c72b0;stroke:#4c72b0;stroke-width:1.5;" x="187.868755" xlink:href="#mcb8cbb7e5e" y="135.454665"/>
     <use style="fill:#4c72b0;stroke:#4c72b0;stroke-width:1.5;" x="267.15258" xlink:href="#mcb8cbb7e5e" y="240.242952"/>
     <use style="fill:#4c72b0;stroke:#4c72b0;stroke-width:1.5;" x="148.293675" xlink:href="#mcb8cbb7e5e" y="100.424208"/>
     <use style="fill:#4c72b0;stroke:#4c72b0;stroke-width:1.5;" x="318.966628" xlink:href="#mcb8cbb7e5e" y="116.490203"/>
     <use style="fill:#4c72b0;stroke:#4c72b0;stroke-width:1.5;" x="212.844487" xlink:href="#mcb8cbb7e5e" y="96.369724"/>
     <use style="fill:#4c72b0;stroke:#4c72b0;stroke-width:1.5;" x="285.394475" xlink:href="#mcb8cbb7e5e" y="105.992389"/>
     <use style="fill:#4c72b0;stroke:#4c72b0;stroke-width:1.5;" x="279.44628" xlink:href="#mcb8cbb7e5e" y="102.676437"/>
     <use style="fill:#4c72b0;stroke:#4c72b0;stroke-width:1.5;" x="92.743393" xlink:href="#mcb8cbb7e5e" y="75.910877"/>
     <use style="fill:#4c72b0;stroke:#4c72b0;stroke-width:1.5;" x="134.596527" xlink:href="#mcb8cbb7e5e" y="119.029328"/>
     <use style="fill:#4c72b0;stroke:#4c72b0;stroke-width:1.5;" x="124.690043" xlink:href="#mcb8cbb7e5e" y="125.506536"/>
     <use style="fill:#4c72b0;stroke:#4c72b0;stroke-width:1.5;" x="150.402906" xlink:href="#mcb8cbb7e5e" y="90.758621"/>
     <use style="fill:#4c72b0;stroke:#4c72b0;stroke-width:1.5;" x="118.972294" xlink:href="#mcb8cbb7e5e" y="132.618213"/>
     <use style="fill:#4c72b0;stroke:#4c72b0;stroke-width:1.5;" x="256.55793" xlink:href="#mcb8cbb7e5e" y="136.005739"/>
     <use style="fill:#4c72b0;stroke:#4c72b0;stroke-width:1.5;" x="139.540075" xlink:href="#mcb8cbb7e5e" y="108.794364"/>
     <use style="fill:#4c72b0;stroke:#4c72b0;stroke-width:1.5;" x="284.588064" xlink:href="#mcb8cbb7e5e" y="121.915722"/>
     <use style="fill:#4c72b0;stroke:#4c72b0;stroke-width:1.5;" x="306.693315" xlink:href="#mcb8cbb7e5e" y="111.482003"/>
     <use style="fill:#4c72b0;stroke:#4c72b0;stroke-width:1.5;" x="339.193436" xlink:href="#mcb8cbb7e5e" y="122.889769"/>
     <use style="fill:#4c72b0;stroke:#4c72b0;stroke-width:1.5;" x="271.851955" xlink:href="#mcb8cbb7e5e" y="144.362748"/>
     <use style="fill:#4c72b0;stroke:#4c72b0;stroke-width:1.5;" x="186.200376" xlink:href="#mcb8cbb7e5e" y="78.89327"/>
     <use style="fill:#4c72b0;stroke:#4c72b0;stroke-width:1.5;" x="151.741316" xlink:href="#mcb8cbb7e5e" y="77.599651"/>
     <use style="fill:#4c72b0;stroke:#4c72b0;stroke-width:1.5;" x="160.738316" xlink:href="#mcb8cbb7e5e" y="113.29167"/>
     <use style="fill:#4c72b0;stroke:#4c72b0;stroke-width:1.5;" x="271.050819" xlink:href="#mcb8cbb7e5e" y="144.141274"/>
     <use style="fill:#4c72b0;stroke:#4c72b0;stroke-width:1.5;" x="174.482658" xlink:href="#mcb8cbb7e5e" y="137.268753"/>
     <use style="fill:#4c72b0;stroke:#4c72b0;stroke-width:1.5;" x="118.43363" xlink:href="#mcb8cbb7e5e" y="49.132033"/>
     <use style="fill:#4c72b0;stroke:#4c72b0;stroke-width:1.5;" x="300.835666" xlink:href="#mcb8cbb7e5e" y="130.629193"/>
     <use style="fill:#4c72b0;stroke:#4c72b0;stroke-width:1.5;" x="367.434294" xlink:href="#mcb8cbb7e5e" y="127.606502"/>
     <use style="fill:#4c72b0;stroke:#4c72b0;stroke-width:1.5;" x="205.248704" xlink:href="#mcb8cbb7e5e" y="117.91992"/>
     <use style="fill:#4c72b0;stroke:#4c72b0;stroke-width:1.5;" x="242.337624" xlink:href="#mcb8cbb7e5e" y="97.615569"/>
     <use style="fill:#4c72b0;stroke:#4c72b0;stroke-width:1.5;" x="286.879991" xlink:href="#mcb8cbb7e5e" y="114.13167"/>
     <use style="fill:#4c72b0;stroke:#4c72b0;stroke-width:1.5;" x="214.034751" xlink:href="#mcb8cbb7e5e" y="104.973066"/>
     <use style="fill:#4c72b0;stroke:#4c72b0;stroke-width:1.5;" x="245.683156" xlink:href="#mcb8cbb7e5e" y="90.29022"/>
     <use style="fill:#4c72b0;stroke:#4c72b0;stroke-width:1.5;" x="112.592472" xlink:href="#mcb8cbb7e5e" y="73.43846"/>
     <use style="fill:#4c72b0;stroke:#4c72b0;stroke-width:1.5;" x="114.659603" xlink:href="#mcb8cbb7e5e" y="159.125391"/>
     <use style="fill:#4c72b0;stroke:#4c72b0;stroke-width:1.5;" x="200.274914" xlink:href="#mcb8cbb7e5e" y="118.810155"/>
     <use style="fill:#4c72b0;stroke:#4c72b0;stroke-width:1.5;" x="175.245025" xlink:href="#mcb8cbb7e5e" y="116.628824"/>
     <use style="fill:#4c72b0;stroke:#4c72b0;stroke-width:1.5;" x="240.863755" xlink:href="#mcb8cbb7e5e" y="125.796268"/>
     <use style="fill:#4c72b0;stroke:#4c72b0;stroke-width:1.5;" x="258.684841" xlink:href="#mcb8cbb7e5e" y="98.254498"/>
     <use style="fill:#4c72b0;stroke:#4c72b0;stroke-width:1.5;" x="188.190974" xlink:href="#mcb8cbb7e5e" y="116.136202"/>
     <use style="fill:#4c72b0;stroke:#4c72b0;stroke-width:1.5;" x="122.319723" xlink:href="#mcb8cbb7e5e" y="112.675817"/>
     <use style="fill:#4c72b0;stroke:#4c72b0;stroke-width:1.5;" x="279.220585" xlink:href="#mcb8cbb7e5e" y="138.598097"/>
     <use style="fill:#4c72b0;stroke:#4c72b0;stroke-width:1.5;" x="296.837672" xlink:href="#mcb8cbb7e5e" y="103.425756"/>
     <use style="fill:#4c72b0;stroke:#4c72b0;stroke-width:1.5;" x="250.658926" xlink:href="#mcb8cbb7e5e" y="137.131706"/>
     <use style="fill:#4c72b0;stroke:#4c72b0;stroke-width:1.5;" x="141.070992" xlink:href="#mcb8cbb7e5e" y="158.271987"/>
     <use style="fill:#4c72b0;stroke:#4c72b0;stroke-width:1.5;" x="286.947811" xlink:href="#mcb8cbb7e5e" y="118.602812"/>
     <use style="fill:#4c72b0;stroke:#4c72b0;stroke-width:1.5;" x="168.810567" xlink:href="#mcb8cbb7e5e" y="144.975438"/>
     <use style="fill:#4c72b0;stroke:#4c72b0;stroke-width:1.5;" x="227.024556" xlink:href="#mcb8cbb7e5e" y="119.124146"/>
     <use style="fill:#4c72b0;stroke:#4c72b0;stroke-width:1.5;" x="107.705944" xlink:href="#mcb8cbb7e5e" y="123.120887"/>
     <use style="fill:#4c72b0;stroke:#4c72b0;stroke-width:1.5;" x="166.908761" xlink:href="#mcb8cbb7e5e" y="71.803872"/>
     <use style="fill:#4c72b0;stroke:#4c72b0;stroke-width:1.5;" x="107.281322" xlink:href="#mcb8cbb7e5e" y="154.25652"/>
     <use style="fill:#4c72b0;stroke:#4c72b0;stroke-width:1.5;" x="152.577505" xlink:href="#mcb8cbb7e5e" y="151.236104"/>
     <use style="fill:#4c72b0;stroke:#4c72b0;stroke-width:1.5;" x="345.940623" xlink:href="#mcb8cbb7e5e" y="116.572713"/>
     <use style="fill:#4c72b0;stroke:#4c72b0;stroke-width:1.5;" x="286.763022" xlink:href="#mcb8cbb7e5e" y="154.292856"/>
     <use style="fill:#4c72b0;stroke:#4c72b0;stroke-width:1.5;" x="153.246377" xlink:href="#mcb8cbb7e5e" y="141.901922"/>
     <use style="fill:#4c72b0;stroke:#4c72b0;stroke-width:1.5;" x="185.283" xlink:href="#mcb8cbb7e5e" y="114.576065"/>
     <use style="fill:#4c72b0;stroke:#4c72b0;stroke-width:1.5;" x="176.138261" xlink:href="#mcb8cbb7e5e" y="131.178092"/>
     <use style="fill:#4c72b0;stroke:#4c72b0;stroke-width:1.5;" x="133.012417" xlink:href="#mcb8cbb7e5e" y="184.598708"/>
     <use style="fill:#4c72b0;stroke:#4c72b0;stroke-width:1.5;" x="103.520032" xlink:href="#mcb8cbb7e5e" y="103.820394"/>
     <use style="fill:#4c72b0;stroke:#4c72b0;stroke-width:1.5;" x="241.468062" xlink:href="#mcb8cbb7e5e" y="92.231732"/>
     <use style="fill:#4c72b0;stroke:#4c72b0;stroke-width:1.5;" x="110.870601" xlink:href="#mcb8cbb7e5e" y="128.430901"/>
     <use style="fill:#4c72b0;stroke:#4c72b0;stroke-width:1.5;" x="129.125098" xlink:href="#mcb8cbb7e5e" y="215.621289"/>
     <use style="fill:#4c72b0;stroke:#4c72b0;stroke-width:1.5;" x="164.385928" xlink:href="#mcb8cbb7e5e" y="136.770006"/>
     <use style="fill:#4c72b0;stroke:#4c72b0;stroke-width:1.5;" x="161.583167" xlink:href="#mcb8cbb7e5e" y="127.086945"/>
     <use style="fill:#4c72b0;stroke:#4c72b0;stroke-width:1.5;" x="274.052092" xlink:href="#mcb8cbb7e5e" y="113.567019"/>
     <use style="fill:#4c72b0;stroke:#4c72b0;stroke-width:1.5;" x="321.406465" xlink:href="#mcb8cbb7e5e" y="125.313801"/>
     <use style="fill:#4c72b0;stroke:#4c72b0;stroke-width:1.5;" x="246.568783" xlink:href="#mcb8cbb7e5e" y="124.830535"/>
     <use style="fill:#4c72b0;stroke:#4c72b0;stroke-width:1.5;" x="242.602475" xlink:href="#mcb8cbb7e5e" y="185.892618"/>
     <use style="fill:#4c72b0;stroke:#4c72b0;stroke-width:1.5;" x="142.837408" xlink:href="#mcb8cbb7e5e" y="132.382719"/>
     <use style="fill:#4c72b0;stroke:#4c72b0;stroke-width:1.5;" x="238.710307" xlink:href="#mcb8cbb7e5e" y="171.462606"/>
     <use style="fill:#4c72b0;stroke:#4c72b0;stroke-width:1.5;" x="326.95589" xlink:href="#mcb8cbb7e5e" y="108.442956"/>
     <use style="fill:#4c72b0;stroke:#4c72b0;stroke-width:1.5;" x="285.02783" xlink:href="#mcb8cbb7e5e" y="122.66027"/>
     <use style="fill:#4c72b0;stroke:#4c72b0;stroke-width:1.5;" x="225.561332" xlink:href="#mcb8cbb7e5e" y="153.343665"/>
     <use style="fill:#4c72b0;stroke:#4c72b0;stroke-width:1.5;" x="149.412705" xlink:href="#mcb8cbb7e5e" y="167.39765"/>
     <use style="fill:#4c72b0;stroke:#4c72b0;stroke-width:1.5;" x="227.025681" xlink:href="#mcb8cbb7e5e" y="100.543924"/>
    </g>
   </g>
   <g id="patch_3">
    <path d="M 54 252 
L 54 34.56 
" style="fill:none;stroke:#cccccc;stroke-linecap:square;stroke-linejoin:miter;stroke-width:1.25;"/>
   </g>
   <g id="patch_4">
    <path d="M 388.8 252 
L 388.8 34.56 
" style="fill:none;stroke:#cccccc;stroke-linecap:square;stroke-linejoin:miter;stroke-width:1.25;"/>
   </g>
   <g id="patch_5">
    <path d="M 54 252 
L 388.8 252 
" style="fill:none;stroke:#cccccc;stroke-linecap:square;stroke-linejoin:miter;stroke-width:1.25;"/>
   </g>
   <g id="patch_6">
    <path d="M 54 34.56 
L 388.8 34.56 
" style="fill:none;stroke:#cccccc;stroke-linecap:square;stroke-linejoin:miter;stroke-width:1.25;"/>
   </g>
   <g id="text_9">
    <!-- Residual Dependence Plot -->
    <defs>
     <path d="M 7.71875 0 
L 7.71875 71.578125 
L 32.375 71.578125 
Q 40.71875 71.578125 45.125 70.5625 
Q 51.265625 69.140625 55.609375 65.4375 
Q 61.28125 60.640625 64.078125 53.1875 
Q 66.890625 45.75 66.890625 36.1875 
Q 66.890625 28.03125 64.984375 21.734375 
Q 63.09375 15.4375 60.109375 11.296875 
Q 57.125 7.171875 53.578125 4.796875 
Q 50.046875 2.4375 45.046875 1.21875 
Q 40.046875 0 33.546875 0 
z
M 17.1875 8.453125 
L 32.46875 8.453125 
Q 39.546875 8.453125 43.578125 9.765625 
Q 47.609375 11.078125 50 13.484375 
Q 53.375 16.84375 55.25 22.53125 
Q 57.125 28.21875 57.125 36.328125 
Q 57.125 47.5625 53.4375 53.59375 
Q 49.75 59.625 44.484375 61.671875 
Q 40.671875 63.140625 32.234375 63.140625 
L 17.1875 63.140625 
z
" id="ArialMT-68"/>
     <path d="M 6.59375 -19.875 
L 6.59375 51.859375 
L 14.59375 51.859375 
L 14.59375 45.125 
Q 17.4375 49.078125 21 51.046875 
Q 24.5625 53.03125 29.640625 53.03125 
Q 36.28125 53.03125 41.359375 49.609375 
Q 46.4375 46.1875 49.015625 39.953125 
Q 51.609375 33.734375 51.609375 26.3125 
Q 51.609375 18.359375 48.75 11.984375 
Q 45.90625 5.609375 40.453125 2.21875 
Q 35.015625 -1.171875 29 -1.171875 
Q 24.609375 -1.171875 21.109375 0.6875 
Q 17.625 2.546875 15.375 5.375 
L 15.375 -19.875 
z
M 14.546875 25.640625 
Q 14.546875 15.625 18.59375 10.84375 
Q 22.65625 6.0625 28.421875 6.0625 
Q 34.28125 6.0625 38.453125 11.015625 
Q 42.625 15.96875 42.625 26.375 
Q 42.625 36.28125 38.546875 41.203125 
Q 34.46875 46.140625 28.8125 46.140625 
Q 23.1875 46.140625 18.859375 40.890625 
Q 14.546875 35.640625 14.546875 25.640625 
z
" id="ArialMT-112"/>
     <path d="M 40.4375 19 
L 49.078125 17.875 
Q 47.65625 8.9375 41.8125 3.875 
Q 35.984375 -1.171875 27.484375 -1.171875 
Q 16.84375 -1.171875 10.375 5.78125 
Q 3.90625 12.75 3.90625 25.734375 
Q 3.90625 34.125 6.6875 40.421875 
Q 9.46875 46.734375 15.15625 49.875 
Q 20.84375 53.03125 27.546875 53.03125 
Q 35.984375 53.03125 41.359375 48.75 
Q 46.734375 44.484375 48.25 36.625 
L 39.703125 35.296875 
Q 38.484375 40.53125 35.375 43.15625 
Q 32.28125 45.796875 27.875 45.796875 
Q 21.234375 45.796875 17.078125 41.03125 
Q 12.9375 36.28125 12.9375 25.984375 
Q 12.9375 15.53125 16.9375 10.796875 
Q 20.953125 6.0625 27.390625 6.0625 
Q 32.5625 6.0625 36.03125 9.234375 
Q 39.5 12.40625 40.4375 19 
z
" id="ArialMT-99"/>
    </defs>
    <g style="fill:#262626;" transform="translate(79.3125 28.56)scale(0.24 -0.24)">
     <use xlink:href="#ArialMT-82"/>
     <use x="72.216797" xlink:href="#ArialMT-101"/>
     <use x="127.832031" xlink:href="#ArialMT-115"/>
     <use x="177.832031" xlink:href="#ArialMT-105"/>
     <use x="200.048828" xlink:href="#ArialMT-100"/>
     <use x="255.664062" xlink:href="#ArialMT-117"/>
     <use x="311.279297" xlink:href="#ArialMT-97"/>
     <use x="366.894531" xlink:href="#ArialMT-108"/>
     <use x="389.111328" xlink:href="#ArialMT-32"/>
     <use x="416.894531" xlink:href="#ArialMT-68"/>
     <use x="489.111328" xlink:href="#ArialMT-101"/>
     <use x="544.726562" xlink:href="#ArialMT-112"/>
     <use x="600.341797" xlink:href="#ArialMT-101"/>
     <use x="655.957031" xlink:href="#ArialMT-110"/>
     <use x="711.572266" xlink:href="#ArialMT-100"/>
     <use x="767.1875" xlink:href="#ArialMT-101"/>
     <use x="822.802734" xlink:href="#ArialMT-110"/>
     <use x="878.417969" xlink:href="#ArialMT-99"/>
     <use x="928.417969" xlink:href="#ArialMT-101"/>
     <use x="984.033203" xlink:href="#ArialMT-32"/>
     <use x="1011.816406" xlink:href="#ArialMT-80"/>
     <use x="1078.515625" xlink:href="#ArialMT-108"/>
     <use x="1100.732422" xlink:href="#ArialMT-111"/>
     <use x="1156.347656" xlink:href="#ArialMT-116"/>
    </g>
   </g>
  </g>
 </g>
 <defs>
  <clipPath id="pcd80e1e931">
   <rect height="217.44" width="334.8" x="54" y="34.56"/>
  </clipPath>
 </defs>
</svg>
