<?xml version="1.0" encoding="utf-8" standalone="no"?>
<!DOCTYPE svg PUBLIC "-//W3C//DTD SVG 1.1//EN"
  "http://www.w3.org/Graphics/SVG/1.1/DTD/svg11.dtd">
<!-- Created with matplotlib (https://matplotlib.org/) -->
<svg height="720pt" version="1.1" viewBox="0 0 1152 720" width="1152pt" xmlns="http://www.w3.org/2000/svg" xmlns:xlink="http://www.w3.org/1999/xlink">
 <defs>
  <style type="text/css">
*{stroke-linecap:butt;stroke-linejoin:round;}
  </style>
 </defs>
 <g id="figure_1">
  <g id="patch_1">
   <path d="M 0 720 
L 1152 720 
L 1152 0 
L 0 0 
z
" style="fill:#ffffff;"/>
  </g>
  <g id="axes_1">
   <g id="patch_2">
    <path d="M 144 630 
L 1036.8 630 
L 1036.8 86.4 
L 144 86.4 
z
" style="fill:#ffffff;"/>
   </g>
   <g id="matplotlib.axis_1">
    <g id="xtick_1">
     <g id="line2d_1">
      <path clip-path="url(#p9c13246bbc)" d="M 144 630 
L 144 86.4 
" style="fill:none;stroke:#cccccc;stroke-linecap:round;"/>
     </g>
     <g id="text_1">
      <!-- 0.0 -->
      <defs>
       <path d="M 4.15625 35.296875 
Q 4.15625 48 6.765625 55.734375 
Q 9.375 63.484375 14.515625 67.671875 
Q 19.671875 71.875 27.484375 71.875 
Q 33.25 71.875 37.59375 69.546875 
Q 41.9375 67.234375 44.765625 62.859375 
Q 47.609375 58.5 49.21875 52.21875 
Q 50.828125 45.953125 50.828125 35.296875 
Q 50.828125 22.703125 48.234375 14.96875 
Q 45.65625 7.234375 40.5 3 
Q 35.359375 -1.21875 27.484375 -1.21875 
Q 17.140625 -1.21875 11.234375 6.203125 
Q 4.15625 15.140625 4.15625 35.296875 
z
M 13.1875 35.296875 
Q 13.1875 17.671875 17.3125 11.828125 
Q 21.4375 6 27.484375 6 
Q 33.546875 6 37.671875 11.859375 
Q 41.796875 17.71875 41.796875 35.296875 
Q 41.796875 52.984375 37.671875 58.78125 
Q 33.546875 64.59375 27.390625 64.59375 
Q 21.34375 64.59375 17.71875 59.46875 
Q 13.1875 52.9375 13.1875 35.296875 
z
" id="ArialMT-48"/>
       <path d="M 9.078125 0 
L 9.078125 10.015625 
L 19.09375 10.015625 
L 19.09375 0 
z
" id="ArialMT-46"/>
      </defs>
      <g style="fill:#262626;" transform="translate(128.71 655.247187)scale(0.22 -0.22)">
       <use xlink:href="#ArialMT-48"/>
       <use x="55.615234" xlink:href="#ArialMT-46"/>
       <use x="83.398438" xlink:href="#ArialMT-48"/>
      </g>
     </g>
    </g>
    <g id="xtick_2">
     <g id="line2d_2">
      <path clip-path="url(#p9c13246bbc)" d="M 324.905066 630 
L 324.905066 86.4 
" style="fill:none;stroke:#cccccc;stroke-linecap:round;"/>
     </g>
     <g id="text_2">
      <!-- 0.2 -->
      <defs>
       <path d="M 50.34375 8.453125 
L 50.34375 0 
L 3.03125 0 
Q 2.9375 3.171875 4.046875 6.109375 
Q 5.859375 10.9375 9.828125 15.625 
Q 13.8125 20.3125 21.34375 26.46875 
Q 33.015625 36.03125 37.109375 41.625 
Q 41.21875 47.21875 41.21875 52.203125 
Q 41.21875 57.421875 37.46875 61 
Q 33.734375 64.59375 27.734375 64.59375 
Q 21.390625 64.59375 17.578125 60.78125 
Q 13.765625 56.984375 13.71875 50.25 
L 4.6875 51.171875 
Q 5.609375 61.28125 11.65625 66.578125 
Q 17.71875 71.875 27.9375 71.875 
Q 38.234375 71.875 44.234375 66.15625 
Q 50.25 60.453125 50.25 52 
Q 50.25 47.703125 48.484375 43.546875 
Q 46.734375 39.40625 42.65625 34.8125 
Q 38.578125 30.21875 29.109375 22.21875 
Q 21.1875 15.578125 18.9375 13.203125 
Q 16.703125 10.84375 15.234375 8.453125 
z
" id="ArialMT-50"/>
      </defs>
      <g style="fill:#262626;" transform="translate(309.615066 655.247187)scale(0.22 -0.22)">
       <use xlink:href="#ArialMT-48"/>
       <use x="55.615234" xlink:href="#ArialMT-46"/>
       <use x="83.398438" xlink:href="#ArialMT-50"/>
      </g>
     </g>
    </g>
    <g id="xtick_3">
     <g id="line2d_3">
      <path clip-path="url(#p9c13246bbc)" d="M 505.810131 630 
L 505.810131 86.4 
" style="fill:none;stroke:#cccccc;stroke-linecap:round;"/>
     </g>
     <g id="text_3">
      <!-- 0.4 -->
      <defs>
       <path d="M 32.328125 0 
L 32.328125 17.140625 
L 1.265625 17.140625 
L 1.265625 25.203125 
L 33.9375 71.578125 
L 41.109375 71.578125 
L 41.109375 25.203125 
L 50.78125 25.203125 
L 50.78125 17.140625 
L 41.109375 17.140625 
L 41.109375 0 
z
M 32.328125 25.203125 
L 32.328125 57.46875 
L 9.90625 25.203125 
z
" id="ArialMT-52"/>
      </defs>
      <g style="fill:#262626;" transform="translate(490.520131 655.247187)scale(0.22 -0.22)">
       <use xlink:href="#ArialMT-48"/>
       <use x="55.615234" xlink:href="#ArialMT-46"/>
       <use x="83.398438" xlink:href="#ArialMT-52"/>
      </g>
     </g>
    </g>
    <g id="xtick_4">
     <g id="line2d_4">
      <path clip-path="url(#p9c13246bbc)" d="M 686.715197 630 
L 686.715197 86.4 
" style="fill:none;stroke:#cccccc;stroke-linecap:round;"/>
     </g>
     <g id="text_4">
      <!-- 0.6 -->
      <defs>
       <path d="M 49.75 54.046875 
L 41.015625 53.375 
Q 39.84375 58.546875 37.703125 60.890625 
Q 34.125 64.65625 28.90625 64.65625 
Q 24.703125 64.65625 21.53125 62.3125 
Q 17.390625 59.28125 14.984375 53.46875 
Q 12.59375 47.65625 12.5 36.921875 
Q 15.671875 41.75 20.265625 44.09375 
Q 24.859375 46.4375 29.890625 46.4375 
Q 38.671875 46.4375 44.84375 39.96875 
Q 51.03125 33.5 51.03125 23.25 
Q 51.03125 16.5 48.125 10.71875 
Q 45.21875 4.9375 40.140625 1.859375 
Q 35.0625 -1.21875 28.609375 -1.21875 
Q 17.625 -1.21875 10.6875 6.859375 
Q 3.765625 14.9375 3.765625 33.5 
Q 3.765625 54.25 11.421875 63.671875 
Q 18.109375 71.875 29.4375 71.875 
Q 37.890625 71.875 43.28125 67.140625 
Q 48.6875 62.40625 49.75 54.046875 
z
M 13.875 23.1875 
Q 13.875 18.65625 15.796875 14.5 
Q 17.71875 10.359375 21.1875 8.171875 
Q 24.65625 6 28.46875 6 
Q 34.03125 6 38.03125 10.484375 
Q 42.046875 14.984375 42.046875 22.703125 
Q 42.046875 30.125 38.078125 34.390625 
Q 34.125 38.671875 28.125 38.671875 
Q 22.171875 38.671875 18.015625 34.390625 
Q 13.875 30.125 13.875 23.1875 
z
" id="ArialMT-54"/>
      </defs>
      <g style="fill:#262626;" transform="translate(671.425197 655.247187)scale(0.22 -0.22)">
       <use xlink:href="#ArialMT-48"/>
       <use x="55.615234" xlink:href="#ArialMT-46"/>
       <use x="83.398438" xlink:href="#ArialMT-54"/>
      </g>
     </g>
    </g>
    <g id="xtick_5">
     <g id="line2d_5">
      <path clip-path="url(#p9c13246bbc)" d="M 867.620263 630 
L 867.620263 86.4 
" style="fill:none;stroke:#cccccc;stroke-linecap:round;"/>
     </g>
     <g id="text_5">
      <!-- 0.8 -->
      <defs>
       <path d="M 17.671875 38.8125 
Q 12.203125 40.828125 9.5625 44.53125 
Q 6.9375 48.25 6.9375 53.421875 
Q 6.9375 61.234375 12.546875 66.546875 
Q 18.171875 71.875 27.484375 71.875 
Q 36.859375 71.875 42.578125 66.421875 
Q 48.296875 60.984375 48.296875 53.171875 
Q 48.296875 48.1875 45.671875 44.5 
Q 43.0625 40.828125 37.75 38.8125 
Q 44.34375 36.671875 47.78125 31.875 
Q 51.21875 27.09375 51.21875 20.453125 
Q 51.21875 11.28125 44.71875 5.03125 
Q 38.234375 -1.21875 27.640625 -1.21875 
Q 17.046875 -1.21875 10.546875 5.046875 
Q 4.046875 11.328125 4.046875 20.703125 
Q 4.046875 27.6875 7.59375 32.390625 
Q 11.140625 37.109375 17.671875 38.8125 
z
M 15.921875 53.71875 
Q 15.921875 48.640625 19.1875 45.40625 
Q 22.46875 42.1875 27.6875 42.1875 
Q 32.765625 42.1875 36.015625 45.375 
Q 39.265625 48.578125 39.265625 53.21875 
Q 39.265625 58.0625 35.90625 61.359375 
Q 32.5625 64.65625 27.59375 64.65625 
Q 22.5625 64.65625 19.234375 61.421875 
Q 15.921875 58.203125 15.921875 53.71875 
z
M 13.09375 20.65625 
Q 13.09375 16.890625 14.875 13.375 
Q 16.65625 9.859375 20.171875 7.921875 
Q 23.6875 6 27.734375 6 
Q 34.03125 6 38.125 10.046875 
Q 42.234375 14.109375 42.234375 20.359375 
Q 42.234375 26.703125 38.015625 30.859375 
Q 33.796875 35.015625 27.4375 35.015625 
Q 21.234375 35.015625 17.15625 30.90625 
Q 13.09375 26.8125 13.09375 20.65625 
z
" id="ArialMT-56"/>
      </defs>
      <g style="fill:#262626;" transform="translate(852.330263 655.247187)scale(0.22 -0.22)">
       <use xlink:href="#ArialMT-48"/>
       <use x="55.615234" xlink:href="#ArialMT-46"/>
       <use x="83.398438" xlink:href="#ArialMT-56"/>
      </g>
     </g>
    </g>
    <g id="text_6">
     <!-- Simulation Result -->
     <defs>
      <path d="M 4.5 23 
L 13.421875 23.78125 
Q 14.0625 18.40625 16.375 14.96875 
Q 18.703125 11.53125 23.578125 9.40625 
Q 28.46875 7.28125 34.578125 7.28125 
Q 39.984375 7.28125 44.140625 8.890625 
Q 48.296875 10.5 50.3125 13.296875 
Q 52.34375 16.109375 52.34375 19.4375 
Q 52.34375 22.796875 50.390625 25.3125 
Q 48.4375 27.828125 43.953125 29.546875 
Q 41.0625 30.671875 31.203125 33.03125 
Q 21.34375 35.40625 17.390625 37.5 
Q 12.25 40.1875 9.734375 44.15625 
Q 7.234375 48.140625 7.234375 53.078125 
Q 7.234375 58.5 10.296875 63.203125 
Q 13.375 67.921875 19.28125 70.359375 
Q 25.203125 72.796875 32.421875 72.796875 
Q 40.375 72.796875 46.453125 70.234375 
Q 52.546875 67.671875 55.8125 62.6875 
Q 59.078125 57.71875 59.328125 51.421875 
L 50.25 50.734375 
Q 49.515625 57.515625 45.28125 60.984375 
Q 41.0625 64.453125 32.8125 64.453125 
Q 24.21875 64.453125 20.28125 61.296875 
Q 16.359375 58.15625 16.359375 53.71875 
Q 16.359375 49.859375 19.140625 47.359375 
Q 21.875 44.875 33.421875 42.265625 
Q 44.96875 39.65625 49.265625 37.703125 
Q 55.515625 34.8125 58.484375 30.390625 
Q 61.46875 25.984375 61.46875 20.21875 
Q 61.46875 14.5 58.203125 9.4375 
Q 54.9375 4.390625 48.796875 1.578125 
Q 42.671875 -1.21875 35.015625 -1.21875 
Q 25.296875 -1.21875 18.71875 1.609375 
Q 12.15625 4.4375 8.421875 10.125 
Q 4.6875 15.828125 4.5 23 
z
" id="ArialMT-83"/>
      <path d="M 6.640625 61.46875 
L 6.640625 71.578125 
L 15.4375 71.578125 
L 15.4375 61.46875 
z
M 6.640625 0 
L 6.640625 51.859375 
L 15.4375 51.859375 
L 15.4375 0 
z
" id="ArialMT-105"/>
      <path d="M 6.59375 0 
L 6.59375 51.859375 
L 14.453125 51.859375 
L 14.453125 44.578125 
Q 16.890625 48.390625 20.9375 50.703125 
Q 25 53.03125 30.171875 53.03125 
Q 35.9375 53.03125 39.625 50.640625 
Q 43.3125 48.25 44.828125 43.953125 
Q 50.984375 53.03125 60.84375 53.03125 
Q 68.5625 53.03125 72.703125 48.75 
Q 76.859375 44.484375 76.859375 35.59375 
L 76.859375 0 
L 68.109375 0 
L 68.109375 32.671875 
Q 68.109375 37.9375 67.25 40.25 
Q 66.40625 42.578125 64.15625 43.984375 
Q 61.921875 45.40625 58.890625 45.40625 
Q 53.421875 45.40625 49.796875 41.765625 
Q 46.1875 38.140625 46.1875 30.125 
L 46.1875 0 
L 37.40625 0 
L 37.40625 33.6875 
Q 37.40625 39.546875 35.25 42.46875 
Q 33.109375 45.40625 28.21875 45.40625 
Q 24.515625 45.40625 21.359375 43.453125 
Q 18.21875 41.5 16.796875 37.734375 
Q 15.375 33.984375 15.375 26.90625 
L 15.375 0 
z
" id="ArialMT-109"/>
      <path d="M 40.578125 0 
L 40.578125 7.625 
Q 34.515625 -1.171875 24.125 -1.171875 
Q 19.53125 -1.171875 15.546875 0.578125 
Q 11.578125 2.34375 9.640625 5 
Q 7.71875 7.671875 6.9375 11.53125 
Q 6.390625 14.109375 6.390625 19.734375 
L 6.390625 51.859375 
L 15.1875 51.859375 
L 15.1875 23.09375 
Q 15.1875 16.21875 15.71875 13.8125 
Q 16.546875 10.359375 19.234375 8.375 
Q 21.921875 6.390625 25.875 6.390625 
Q 29.828125 6.390625 33.296875 8.421875 
Q 36.765625 10.453125 38.203125 13.9375 
Q 39.65625 17.4375 39.65625 24.078125 
L 39.65625 51.859375 
L 48.4375 51.859375 
L 48.4375 0 
z
" id="ArialMT-117"/>
      <path d="M 6.390625 0 
L 6.390625 71.578125 
L 15.1875 71.578125 
L 15.1875 0 
z
" id="ArialMT-108"/>
      <path d="M 40.4375 6.390625 
Q 35.546875 2.25 31.03125 0.53125 
Q 26.515625 -1.171875 21.34375 -1.171875 
Q 12.796875 -1.171875 8.203125 3 
Q 3.609375 7.171875 3.609375 13.671875 
Q 3.609375 17.484375 5.34375 20.625 
Q 7.078125 23.78125 9.890625 25.6875 
Q 12.703125 27.59375 16.21875 28.5625 
Q 18.796875 29.25 24.03125 29.890625 
Q 34.671875 31.15625 39.703125 32.90625 
Q 39.75 34.71875 39.75 35.203125 
Q 39.75 40.578125 37.25 42.78125 
Q 33.890625 45.75 27.25 45.75 
Q 21.046875 45.75 18.09375 43.578125 
Q 15.140625 41.40625 13.71875 35.890625 
L 5.125 37.0625 
Q 6.296875 42.578125 8.984375 45.96875 
Q 11.671875 49.359375 16.75 51.1875 
Q 21.828125 53.03125 28.515625 53.03125 
Q 35.15625 53.03125 39.296875 51.46875 
Q 43.453125 49.90625 45.40625 47.53125 
Q 47.359375 45.171875 48.140625 41.546875 
Q 48.578125 39.3125 48.578125 33.453125 
L 48.578125 21.734375 
Q 48.578125 9.46875 49.140625 6.21875 
Q 49.703125 2.984375 51.375 0 
L 42.1875 0 
Q 40.828125 2.734375 40.4375 6.390625 
z
M 39.703125 26.03125 
Q 34.90625 24.078125 25.34375 22.703125 
Q 19.921875 21.921875 17.671875 20.9375 
Q 15.4375 19.96875 14.203125 18.09375 
Q 12.984375 16.21875 12.984375 13.921875 
Q 12.984375 10.40625 15.640625 8.0625 
Q 18.3125 5.71875 23.4375 5.71875 
Q 28.515625 5.71875 32.46875 7.9375 
Q 36.421875 10.15625 38.28125 14.015625 
Q 39.703125 17 39.703125 22.796875 
z
" id="ArialMT-97"/>
      <path d="M 25.78125 7.859375 
L 27.046875 0.09375 
Q 23.34375 -0.6875 20.40625 -0.6875 
Q 15.625 -0.6875 12.984375 0.828125 
Q 10.359375 2.34375 9.28125 4.8125 
Q 8.203125 7.28125 8.203125 15.1875 
L 8.203125 45.015625 
L 1.765625 45.015625 
L 1.765625 51.859375 
L 8.203125 51.859375 
L 8.203125 64.703125 
L 16.9375 69.96875 
L 16.9375 51.859375 
L 25.78125 51.859375 
L 25.78125 45.015625 
L 16.9375 45.015625 
L 16.9375 14.703125 
Q 16.9375 10.9375 17.40625 9.859375 
Q 17.875 8.796875 18.921875 8.15625 
Q 19.96875 7.515625 21.921875 7.515625 
Q 23.390625 7.515625 25.78125 7.859375 
z
" id="ArialMT-116"/>
      <path d="M 3.328125 25.921875 
Q 3.328125 40.328125 11.328125 47.265625 
Q 18.015625 53.03125 27.640625 53.03125 
Q 38.328125 53.03125 45.109375 46.015625 
Q 51.90625 39.015625 51.90625 26.65625 
Q 51.90625 16.65625 48.90625 10.90625 
Q 45.90625 5.171875 40.15625 2 
Q 34.421875 -1.171875 27.640625 -1.171875 
Q 16.75 -1.171875 10.03125 5.8125 
Q 3.328125 12.796875 3.328125 25.921875 
z
M 12.359375 25.921875 
Q 12.359375 15.96875 16.703125 11.015625 
Q 21.046875 6.0625 27.640625 6.0625 
Q 34.1875 6.0625 38.53125 11.03125 
Q 42.875 16.015625 42.875 26.21875 
Q 42.875 35.84375 38.5 40.796875 
Q 34.125 45.75 27.640625 45.75 
Q 21.046875 45.75 16.703125 40.8125 
Q 12.359375 35.890625 12.359375 25.921875 
z
" id="ArialMT-111"/>
      <path d="M 6.59375 0 
L 6.59375 51.859375 
L 14.5 51.859375 
L 14.5 44.484375 
Q 20.21875 53.03125 31 53.03125 
Q 35.6875 53.03125 39.625 51.34375 
Q 43.5625 49.65625 45.515625 46.921875 
Q 47.46875 44.1875 48.25 40.4375 
Q 48.734375 37.984375 48.734375 31.890625 
L 48.734375 0 
L 39.9375 0 
L 39.9375 31.546875 
Q 39.9375 36.921875 38.90625 39.578125 
Q 37.890625 42.234375 35.28125 43.8125 
Q 32.671875 45.40625 29.15625 45.40625 
Q 23.53125 45.40625 19.453125 41.84375 
Q 15.375 38.28125 15.375 28.328125 
L 15.375 0 
z
" id="ArialMT-110"/>
      <path id="ArialMT-32"/>
      <path d="M 7.859375 0 
L 7.859375 71.578125 
L 39.59375 71.578125 
Q 49.171875 71.578125 54.140625 69.640625 
Q 59.125 67.71875 62.109375 62.828125 
Q 65.09375 57.953125 65.09375 52.046875 
Q 65.09375 44.4375 60.15625 39.203125 
Q 55.21875 33.984375 44.921875 32.5625 
Q 48.6875 30.765625 50.640625 29 
Q 54.78125 25.203125 58.5 19.484375 
L 70.953125 0 
L 59.03125 0 
L 49.5625 14.890625 
Q 45.40625 21.34375 42.71875 24.75 
Q 40.046875 28.171875 37.921875 29.53125 
Q 35.796875 30.90625 33.59375 31.453125 
Q 31.984375 31.78125 28.328125 31.78125 
L 17.328125 31.78125 
L 17.328125 0 
z
M 17.328125 39.984375 
L 37.703125 39.984375 
Q 44.1875 39.984375 47.84375 41.328125 
Q 51.515625 42.671875 53.421875 45.625 
Q 55.328125 48.578125 55.328125 52.046875 
Q 55.328125 57.125 51.640625 60.390625 
Q 47.953125 63.671875 39.984375 63.671875 
L 17.328125 63.671875 
z
" id="ArialMT-82"/>
      <path d="M 42.09375 16.703125 
L 51.171875 15.578125 
Q 49.03125 7.625 43.21875 3.21875 
Q 37.40625 -1.171875 28.375 -1.171875 
Q 17 -1.171875 10.328125 5.828125 
Q 3.65625 12.84375 3.65625 25.484375 
Q 3.65625 38.578125 10.390625 45.796875 
Q 17.140625 53.03125 27.875 53.03125 
Q 38.28125 53.03125 44.875 45.953125 
Q 51.46875 38.875 51.46875 26.03125 
Q 51.46875 25.25 51.421875 23.6875 
L 12.75 23.6875 
Q 13.234375 15.140625 17.578125 10.59375 
Q 21.921875 6.0625 28.421875 6.0625 
Q 33.25 6.0625 36.671875 8.59375 
Q 40.09375 11.140625 42.09375 16.703125 
z
M 13.234375 30.90625 
L 42.1875 30.90625 
Q 41.609375 37.453125 38.875 40.71875 
Q 34.671875 45.796875 27.984375 45.796875 
Q 21.921875 45.796875 17.796875 41.75 
Q 13.671875 37.703125 13.234375 30.90625 
z
" id="ArialMT-101"/>
      <path d="M 3.078125 15.484375 
L 11.765625 16.84375 
Q 12.5 11.625 15.84375 8.84375 
Q 19.1875 6.0625 25.203125 6.0625 
Q 31.25 6.0625 34.171875 8.515625 
Q 37.109375 10.984375 37.109375 14.3125 
Q 37.109375 17.28125 34.515625 19 
Q 32.71875 20.171875 25.53125 21.96875 
Q 15.875 24.421875 12.140625 26.203125 
Q 8.40625 27.984375 6.46875 31.125 
Q 4.546875 34.28125 4.546875 38.09375 
Q 4.546875 41.546875 6.125 44.5 
Q 7.71875 47.46875 10.453125 49.421875 
Q 12.5 50.921875 16.03125 51.96875 
Q 19.578125 53.03125 23.640625 53.03125 
Q 29.734375 53.03125 34.34375 51.265625 
Q 38.96875 49.515625 41.15625 46.5 
Q 43.359375 43.5 44.1875 38.484375 
L 35.59375 37.3125 
Q 35.015625 41.3125 32.203125 43.546875 
Q 29.390625 45.796875 24.265625 45.796875 
Q 18.21875 45.796875 15.625 43.796875 
Q 13.03125 41.796875 13.03125 39.109375 
Q 13.03125 37.40625 14.109375 36.03125 
Q 15.1875 34.625 17.484375 33.6875 
Q 18.796875 33.203125 25.25 31.453125 
Q 34.578125 28.953125 38.25 27.359375 
Q 41.9375 25.78125 44.03125 22.75 
Q 46.140625 19.734375 46.140625 15.234375 
Q 46.140625 10.84375 43.578125 6.953125 
Q 41.015625 3.078125 36.171875 0.953125 
Q 31.34375 -1.171875 25.25 -1.171875 
Q 15.140625 -1.171875 9.84375 3.03125 
Q 4.546875 7.234375 3.078125 15.484375 
z
" id="ArialMT-115"/>
     </defs>
     <g style="fill:#262626;" transform="translate(497.02875 680.798437)scale(0.24 -0.24)">
      <use xlink:href="#ArialMT-83"/>
      <use x="66.699219" xlink:href="#ArialMT-105"/>
      <use x="88.916016" xlink:href="#ArialMT-109"/>
      <use x="172.216797" xlink:href="#ArialMT-117"/>
      <use x="227.832031" xlink:href="#ArialMT-108"/>
      <use x="250.048828" xlink:href="#ArialMT-97"/>
      <use x="305.664062" xlink:href="#ArialMT-116"/>
      <use x="333.447266" xlink:href="#ArialMT-105"/>
      <use x="355.664062" xlink:href="#ArialMT-111"/>
      <use x="411.279297" xlink:href="#ArialMT-110"/>
      <use x="466.894531" xlink:href="#ArialMT-32"/>
      <use x="494.677734" xlink:href="#ArialMT-82"/>
      <use x="566.894531" xlink:href="#ArialMT-101"/>
      <use x="622.509766" xlink:href="#ArialMT-115"/>
      <use x="672.509766" xlink:href="#ArialMT-117"/>
      <use x="728.125" xlink:href="#ArialMT-108"/>
      <use x="750.341797" xlink:href="#ArialMT-116"/>
     </g>
    </g>
   </g>
   <g id="matplotlib.axis_2">
    <g id="ytick_1">
     <g id="line2d_6">
      <path clip-path="url(#p9c13246bbc)" d="M 144 605.335437 
L 1036.8 605.335437 
" style="fill:none;stroke:#cccccc;stroke-linecap:round;"/>
     </g>
     <g id="text_7">
      <!-- −0.25 -->
      <defs>
       <path d="M 52.828125 31.203125 
L 5.5625 31.203125 
L 5.5625 39.40625 
L 52.828125 39.40625 
z
" id="ArialMT-8722"/>
       <path d="M 4.15625 18.75 
L 13.375 19.53125 
Q 14.40625 12.796875 18.140625 9.390625 
Q 21.875 6 27.15625 6 
Q 33.5 6 37.890625 10.78125 
Q 42.28125 15.578125 42.28125 23.484375 
Q 42.28125 31 38.0625 35.34375 
Q 33.84375 39.703125 27 39.703125 
Q 22.75 39.703125 19.328125 37.765625 
Q 15.921875 35.84375 13.96875 32.765625 
L 5.71875 33.84375 
L 12.640625 70.609375 
L 48.25 70.609375 
L 48.25 62.203125 
L 19.671875 62.203125 
L 15.828125 42.96875 
Q 22.265625 47.46875 29.34375 47.46875 
Q 38.71875 47.46875 45.15625 40.96875 
Q 51.609375 34.46875 51.609375 24.265625 
Q 51.609375 14.546875 45.953125 7.46875 
Q 39.0625 -1.21875 27.15625 -1.21875 
Q 17.390625 -1.21875 11.203125 4.25 
Q 5.03125 9.71875 4.15625 18.75 
z
" id="ArialMT-53"/>
      </defs>
      <g style="fill:#262626;" transform="translate(78.836562 613.209031)scale(0.22 -0.22)">
       <use xlink:href="#ArialMT-8722"/>
       <use x="58.398438" xlink:href="#ArialMT-48"/>
       <use x="114.013672" xlink:href="#ArialMT-46"/>
       <use x="141.796875" xlink:href="#ArialMT-50"/>
       <use x="197.412109" xlink:href="#ArialMT-53"/>
      </g>
     </g>
    </g>
    <g id="ytick_2">
     <g id="line2d_7">
      <path clip-path="url(#p9c13246bbc)" d="M 144 543.701155 
L 1036.8 543.701155 
" style="fill:none;stroke:#cccccc;stroke-linecap:round;"/>
     </g>
     <g id="text_8">
      <!-- 0.00 -->
      <g style="fill:#262626;" transform="translate(91.685937 551.574749)scale(0.22 -0.22)">
       <use xlink:href="#ArialMT-48"/>
       <use x="55.615234" xlink:href="#ArialMT-46"/>
       <use x="83.398438" xlink:href="#ArialMT-48"/>
       <use x="139.013672" xlink:href="#ArialMT-48"/>
      </g>
     </g>
    </g>
    <g id="ytick_3">
     <g id="line2d_8">
      <path clip-path="url(#p9c13246bbc)" d="M 144 482.066873 
L 1036.8 482.066873 
" style="fill:none;stroke:#cccccc;stroke-linecap:round;"/>
     </g>
     <g id="text_9">
      <!-- 0.25 -->
      <g style="fill:#262626;" transform="translate(91.685937 489.940467)scale(0.22 -0.22)">
       <use xlink:href="#ArialMT-48"/>
       <use x="55.615234" xlink:href="#ArialMT-46"/>
       <use x="83.398438" xlink:href="#ArialMT-50"/>
       <use x="139.013672" xlink:href="#ArialMT-53"/>
      </g>
     </g>
    </g>
    <g id="ytick_4">
     <g id="line2d_9">
      <path clip-path="url(#p9c13246bbc)" d="M 144 420.432591 
L 1036.8 420.432591 
" style="fill:none;stroke:#cccccc;stroke-linecap:round;"/>
     </g>
     <g id="text_10">
      <!-- 0.50 -->
      <g style="fill:#262626;" transform="translate(91.685937 428.306185)scale(0.22 -0.22)">
       <use xlink:href="#ArialMT-48"/>
       <use x="55.615234" xlink:href="#ArialMT-46"/>
       <use x="83.398438" xlink:href="#ArialMT-53"/>
       <use x="139.013672" xlink:href="#ArialMT-48"/>
      </g>
     </g>
    </g>
    <g id="ytick_5">
     <g id="line2d_10">
      <path clip-path="url(#p9c13246bbc)" d="M 144 358.798309 
L 1036.8 358.798309 
" style="fill:none;stroke:#cccccc;stroke-linecap:round;"/>
     </g>
     <g id="text_11">
      <!-- 0.75 -->
      <defs>
       <path d="M 4.734375 62.203125 
L 4.734375 70.65625 
L 51.078125 70.65625 
L 51.078125 63.8125 
Q 44.234375 56.546875 37.515625 44.484375 
Q 30.8125 32.421875 27.15625 19.671875 
Q 24.515625 10.6875 23.78125 0 
L 14.75 0 
Q 14.890625 8.453125 18.0625 20.40625 
Q 21.234375 32.375 27.171875 43.484375 
Q 33.109375 54.59375 39.796875 62.203125 
z
" id="ArialMT-55"/>
      </defs>
      <g style="fill:#262626;" transform="translate(91.685937 366.671903)scale(0.22 -0.22)">
       <use xlink:href="#ArialMT-48"/>
       <use x="55.615234" xlink:href="#ArialMT-46"/>
       <use x="83.398438" xlink:href="#ArialMT-55"/>
       <use x="139.013672" xlink:href="#ArialMT-53"/>
      </g>
     </g>
    </g>
    <g id="ytick_6">
     <g id="line2d_11">
      <path clip-path="url(#p9c13246bbc)" d="M 144 297.164027 
L 1036.8 297.164027 
" style="fill:none;stroke:#cccccc;stroke-linecap:round;"/>
     </g>
     <g id="text_12">
      <!-- 1.00 -->
      <defs>
       <path d="M 37.25 0 
L 28.46875 0 
L 28.46875 56 
Q 25.296875 52.984375 20.140625 49.953125 
Q 14.984375 46.921875 10.890625 45.40625 
L 10.890625 53.90625 
Q 18.265625 57.375 23.78125 62.296875 
Q 29.296875 67.234375 31.59375 71.875 
L 37.25 71.875 
z
" id="ArialMT-49"/>
      </defs>
      <g style="fill:#262626;" transform="translate(91.685937 305.037621)scale(0.22 -0.22)">
       <use xlink:href="#ArialMT-49"/>
       <use x="55.615234" xlink:href="#ArialMT-46"/>
       <use x="83.398438" xlink:href="#ArialMT-48"/>
       <use x="139.013672" xlink:href="#ArialMT-48"/>
      </g>
     </g>
    </g>
    <g id="ytick_7">
     <g id="line2d_12">
      <path clip-path="url(#p9c13246bbc)" d="M 144 235.529745 
L 1036.8 235.529745 
" style="fill:none;stroke:#cccccc;stroke-linecap:round;"/>
     </g>
     <g id="text_13">
      <!-- 1.25 -->
      <g style="fill:#262626;" transform="translate(91.685937 243.403339)scale(0.22 -0.22)">
       <use xlink:href="#ArialMT-49"/>
       <use x="55.615234" xlink:href="#ArialMT-46"/>
       <use x="83.398438" xlink:href="#ArialMT-50"/>
       <use x="139.013672" xlink:href="#ArialMT-53"/>
      </g>
     </g>
    </g>
    <g id="ytick_8">
     <g id="line2d_13">
      <path clip-path="url(#p9c13246bbc)" d="M 144 173.895463 
L 1036.8 173.895463 
" style="fill:none;stroke:#cccccc;stroke-linecap:round;"/>
     </g>
     <g id="text_14">
      <!-- 1.50 -->
      <g style="fill:#262626;" transform="translate(91.685937 181.769056)scale(0.22 -0.22)">
       <use xlink:href="#ArialMT-49"/>
       <use x="55.615234" xlink:href="#ArialMT-46"/>
       <use x="83.398438" xlink:href="#ArialMT-53"/>
       <use x="139.013672" xlink:href="#ArialMT-48"/>
      </g>
     </g>
    </g>
    <g id="ytick_9">
     <g id="line2d_14">
      <path clip-path="url(#p9c13246bbc)" d="M 144 112.261181 
L 1036.8 112.261181 
" style="fill:none;stroke:#cccccc;stroke-linecap:round;"/>
     </g>
     <g id="text_15">
      <!-- 1.75 -->
      <g style="fill:#262626;" transform="translate(91.685937 120.134774)scale(0.22 -0.22)">
       <use xlink:href="#ArialMT-49"/>
       <use x="55.615234" xlink:href="#ArialMT-46"/>
       <use x="83.398438" xlink:href="#ArialMT-55"/>
       <use x="139.013672" xlink:href="#ArialMT-53"/>
      </g>
     </g>
    </g>
    <g id="text_16">
     <!-- Predicted -->
     <defs>
      <path d="M 7.71875 0 
L 7.71875 71.578125 
L 34.71875 71.578125 
Q 41.84375 71.578125 45.609375 70.90625 
Q 50.875 70.015625 54.4375 67.546875 
Q 58.015625 65.09375 60.1875 60.640625 
Q 62.359375 56.203125 62.359375 50.875 
Q 62.359375 41.75 56.546875 35.421875 
Q 50.734375 29.109375 35.546875 29.109375 
L 17.1875 29.109375 
L 17.1875 0 
z
M 17.1875 37.546875 
L 35.6875 37.546875 
Q 44.875 37.546875 48.734375 40.96875 
Q 52.59375 44.390625 52.59375 50.59375 
Q 52.59375 55.078125 50.3125 58.265625 
Q 48.046875 61.46875 44.34375 62.5 
Q 41.9375 63.140625 35.5 63.140625 
L 17.1875 63.140625 
z
" id="ArialMT-80"/>
      <path d="M 6.5 0 
L 6.5 51.859375 
L 14.40625 51.859375 
L 14.40625 44 
Q 17.4375 49.515625 20 51.265625 
Q 22.5625 53.03125 25.640625 53.03125 
Q 30.078125 53.03125 34.671875 50.203125 
L 31.640625 42.046875 
Q 28.421875 43.953125 25.203125 43.953125 
Q 22.3125 43.953125 20.015625 42.21875 
Q 17.71875 40.484375 16.75 37.40625 
Q 15.28125 32.71875 15.28125 27.15625 
L 15.28125 0 
z
" id="ArialMT-114"/>
      <path d="M 40.234375 0 
L 40.234375 6.546875 
Q 35.296875 -1.171875 25.734375 -1.171875 
Q 19.53125 -1.171875 14.328125 2.25 
Q 9.125 5.671875 6.265625 11.796875 
Q 3.421875 17.921875 3.421875 25.875 
Q 3.421875 33.640625 6 39.96875 
Q 8.59375 46.296875 13.765625 49.65625 
Q 18.953125 53.03125 25.34375 53.03125 
Q 30.03125 53.03125 33.6875 51.046875 
Q 37.359375 49.078125 39.65625 45.90625 
L 39.65625 71.578125 
L 48.390625 71.578125 
L 48.390625 0 
z
M 12.453125 25.875 
Q 12.453125 15.921875 16.640625 10.984375 
Q 20.84375 6.0625 26.5625 6.0625 
Q 32.328125 6.0625 36.34375 10.765625 
Q 40.375 15.484375 40.375 25.140625 
Q 40.375 35.796875 36.265625 40.765625 
Q 32.171875 45.75 26.171875 45.75 
Q 20.3125 45.75 16.375 40.96875 
Q 12.453125 36.1875 12.453125 25.875 
z
" id="ArialMT-100"/>
      <path d="M 40.4375 19 
L 49.078125 17.875 
Q 47.65625 8.9375 41.8125 3.875 
Q 35.984375 -1.171875 27.484375 -1.171875 
Q 16.84375 -1.171875 10.375 5.78125 
Q 3.90625 12.75 3.90625 25.734375 
Q 3.90625 34.125 6.6875 40.421875 
Q 9.46875 46.734375 15.15625 49.875 
Q 20.84375 53.03125 27.546875 53.03125 
Q 35.984375 53.03125 41.359375 48.75 
Q 46.734375 44.484375 48.25 36.625 
L 39.703125 35.296875 
Q 38.484375 40.53125 35.375 43.15625 
Q 32.28125 45.796875 27.875 45.796875 
Q 21.234375 45.796875 17.078125 41.03125 
Q 12.9375 36.28125 12.9375 25.984375 
Q 12.9375 15.53125 16.9375 10.796875 
Q 20.953125 6.0625 27.390625 6.0625 
Q 32.5625 6.0625 36.03125 9.234375 
Q 39.5 12.40625 40.4375 19 
z
" id="ArialMT-99"/>
     </defs>
     <g style="fill:#262626;" transform="translate(70.066563 408.8925)rotate(-90)scale(0.24 -0.24)">
      <use xlink:href="#ArialMT-80"/>
      <use x="66.699219" xlink:href="#ArialMT-114"/>
      <use x="100" xlink:href="#ArialMT-101"/>
      <use x="155.615234" xlink:href="#ArialMT-100"/>
      <use x="211.230469" xlink:href="#ArialMT-105"/>
      <use x="233.447266" xlink:href="#ArialMT-99"/>
      <use x="283.447266" xlink:href="#ArialMT-116"/>
      <use x="311.230469" xlink:href="#ArialMT-101"/>
      <use x="366.845703" xlink:href="#ArialMT-100"/>
     </g>
    </g>
   </g>
   <g id="LineCollection_1">
    <path clip-path="url(#p9c13246bbc)" d="M 289.729081 568.99108 
L 289.729081 465.429138 
" style="fill:none;stroke:#64b5cd;stroke-width:0.5;"/>
    <path clip-path="url(#p9c13246bbc)" d="M 535.672451 496.934287 
L 535.672451 390.454722 
" style="fill:none;stroke:#64b5cd;stroke-width:0.5;"/>
    <path clip-path="url(#p9c13246bbc)" d="M 729.822921 472.486177 
L 729.822921 367.486902 
" style="fill:none;stroke:#64b5cd;stroke-width:0.5;"/>
    <path clip-path="url(#p9c13246bbc)" d="M 972.24006 355.106087 
L 972.24006 245.684401 
" style="fill:none;stroke:#64b5cd;stroke-width:0.5;"/>
    <path clip-path="url(#p9c13246bbc)" d="M 633.525016 455.916884 
L 633.525016 352.294818 
" style="fill:none;stroke:#64b5cd;stroke-width:0.5;"/>
    <path clip-path="url(#p9c13246bbc)" d="M 956.575945 395.343559 
L 956.575945 291.543287 
" style="fill:none;stroke:#64b5cd;stroke-width:0.5;"/>
    <path clip-path="url(#p9c13246bbc)" d="M 782.192871 432.10807 
L 782.192871 326.450013 
" style="fill:none;stroke:#64b5cd;stroke-width:0.5;"/>
    <path clip-path="url(#p9c13246bbc)" d="M 202.417261 575.816498 
L 202.417261 469.567982 
" style="fill:none;stroke:#64b5cd;stroke-width:0.5;"/>
    <path clip-path="url(#p9c13246bbc)" d="M 927.921951 389.665027 
L 927.921951 284.242546 
" style="fill:none;stroke:#64b5cd;stroke-width:0.5;"/>
    <path clip-path="url(#p9c13246bbc)" d="M 531.849497 499.231554 
L 531.849497 392.085021 
" style="fill:none;stroke:#64b5cd;stroke-width:0.5;"/>
    <path clip-path="url(#p9c13246bbc)" d="M 747.016886 432.222338 
L 747.016886 324.453083 
" style="fill:none;stroke:#64b5cd;stroke-width:0.5;"/>
    <path clip-path="url(#p9c13246bbc)" d="M 941.62688 386.025456 
L 941.62688 278.966488 
" style="fill:none;stroke:#64b5cd;stroke-width:0.5;"/>
    <path clip-path="url(#p9c13246bbc)" d="M 942.477531 395.22432 
L 942.477531 291.705954 
" style="fill:none;stroke:#64b5cd;stroke-width:0.5;"/>
    <path clip-path="url(#p9c13246bbc)" d="M 943.179005 365.125299 
L 943.179005 258.930422 
" style="fill:none;stroke:#64b5cd;stroke-width:0.5;"/>
    <path clip-path="url(#p9c13246bbc)" d="M 728.926379 454.546522 
L 728.926379 348.923548 
" style="fill:none;stroke:#64b5cd;stroke-width:0.5;"/>
    <path clip-path="url(#p9c13246bbc)" d="M 784.501719 438.456303 
L 784.501719 331.364516 
" style="fill:none;stroke:#64b5cd;stroke-width:0.5;"/>
    <path clip-path="url(#p9c13246bbc)" d="M 303.622117 539.391263 
L 303.622117 433.224431 
" style="fill:none;stroke:#64b5cd;stroke-width:0.5;"/>
    <path clip-path="url(#p9c13246bbc)" d="M 305.005508 562.273174 
L 305.005508 460.473212 
" style="fill:none;stroke:#64b5cd;stroke-width:0.5;"/>
    <path clip-path="url(#p9c13246bbc)" d="M 765.861163 451.484287 
L 765.861163 342.262922 
" style="fill:none;stroke:#64b5cd;stroke-width:0.5;"/>
    <path clip-path="url(#p9c13246bbc)" d="M 222.362343 569.352813 
L 222.362343 460.861099 
" style="fill:none;stroke:#64b5cd;stroke-width:0.5;"/>
    <path clip-path="url(#p9c13246bbc)" d="M 336.477322 548.35085 
L 336.477322 438.451535 
" style="fill:none;stroke:#64b5cd;stroke-width:0.5;"/>
    <path clip-path="url(#p9c13246bbc)" d="M 637.521714 479.113119 
L 637.521714 369.373906 
" style="fill:none;stroke:#64b5cd;stroke-width:0.5;"/>
    <path clip-path="url(#p9c13246bbc)" d="M 839.144465 422.785169 
L 839.144465 315.006692 
" style="fill:none;stroke:#64b5cd;stroke-width:0.5;"/>
    <path clip-path="url(#p9c13246bbc)" d="M 1015.502975 357.391949 
L 1015.502975 245.438944 
" style="fill:none;stroke:#64b5cd;stroke-width:0.5;"/>
    <path clip-path="url(#p9c13246bbc)" d="M 849.714084 412.696655 
L 849.714084 304.389201 
" style="fill:none;stroke:#64b5cd;stroke-width:0.5;"/>
    <path clip-path="url(#p9c13246bbc)" d="M 1017.128581 376.730655 
L 1017.128581 266.37809 
" style="fill:none;stroke:#64b5cd;stroke-width:0.5;"/>
    <path clip-path="url(#p9c13246bbc)" d="M 837.469418 416.140889 
L 837.469418 306.068649 
" style="fill:none;stroke:#64b5cd;stroke-width:0.5;"/>
    <path clip-path="url(#p9c13246bbc)" d="M 868.025879 398.453871 
L 868.025879 291.728693 
" style="fill:none;stroke:#64b5cd;stroke-width:0.5;"/>
    <path clip-path="url(#p9c13246bbc)" d="M 466.137968 527.257627 
L 466.137968 416.771794 
" style="fill:none;stroke:#64b5cd;stroke-width:0.5;"/>
    <path clip-path="url(#p9c13246bbc)" d="M 183.01874 579.577328 
L 183.01874 470.607664 
" style="fill:none;stroke:#64b5cd;stroke-width:0.5;"/>
    <path clip-path="url(#p9c13246bbc)" d="M 651.460076 487.727475 
L 651.460076 380.621481 
" style="fill:none;stroke:#64b5cd;stroke-width:0.5;"/>
    <path clip-path="url(#p9c13246bbc)" d="M 785.782257 423.071003 
L 785.782257 320.578796 
" style="fill:none;stroke:#64b5cd;stroke-width:0.5;"/>
    <path clip-path="url(#p9c13246bbc)" d="M 590.941927 479.833986 
L 590.941927 367.168382 
" style="fill:none;stroke:#64b5cd;stroke-width:0.5;"/>
    <path clip-path="url(#p9c13246bbc)" d="M 753.717073 418.618092 
L 753.717073 310.059388 
" style="fill:none;stroke:#64b5cd;stroke-width:0.5;"/>
    <path clip-path="url(#p9c13246bbc)" d="M 988.677036 349.360085 
L 988.677036 237.685503 
" style="fill:none;stroke:#64b5cd;stroke-width:0.5;"/>
    <path clip-path="url(#p9c13246bbc)" d="M 695.974118 458.788223 
L 695.974118 352.328065 
" style="fill:none;stroke:#64b5cd;stroke-width:0.5;"/>
    <path clip-path="url(#p9c13246bbc)" d="M 1025.362068 343.334745 
L 1025.362068 234.278952 
" style="fill:none;stroke:#64b5cd;stroke-width:0.5;"/>
    <path clip-path="url(#p9c13246bbc)" d="M 828.854891 428.536022 
L 828.854891 320.562121 
" style="fill:none;stroke:#64b5cd;stroke-width:0.5;"/>
    <path clip-path="url(#p9c13246bbc)" d="M 720.967443 464.308058 
L 720.967443 354.373729 
" style="fill:none;stroke:#64b5cd;stroke-width:0.5;"/>
    <path clip-path="url(#p9c13246bbc)" d="M 599.037282 479.770178 
L 599.037282 370.982017 
" style="fill:none;stroke:#64b5cd;stroke-width:0.5;"/>
    <path clip-path="url(#p9c13246bbc)" d="M 234.452533 563.289058 
L 234.452533 455.638886 
" style="fill:none;stroke:#64b5cd;stroke-width:0.5;"/>
    <path clip-path="url(#p9c13246bbc)" d="M 979.827202 364.794199 
L 979.827202 262.887859 
" style="fill:none;stroke:#64b5cd;stroke-width:0.5;"/>
    <path clip-path="url(#p9c13246bbc)" d="M 807.761969 427.60084 
L 807.761969 317.387479 
" style="fill:none;stroke:#64b5cd;stroke-width:0.5;"/>
    <path clip-path="url(#p9c13246bbc)" d="M 668.62469 454.908377 
L 668.62469 346.703987 
" style="fill:none;stroke:#64b5cd;stroke-width:0.5;"/>
    <path clip-path="url(#p9c13246bbc)" d="M 947.431321 393.948008 
L 947.431321 292.080663 
" style="fill:none;stroke:#64b5cd;stroke-width:0.5;"/>
    <path clip-path="url(#p9c13246bbc)" d="M 285.56848 548.254592 
L 285.56848 445.378137 
" style="fill:none;stroke:#64b5cd;stroke-width:0.5;"/>
    <path clip-path="url(#p9c13246bbc)" d="M 895.35628 401.373894 
L 895.35628 292.497198 
" style="fill:none;stroke:#64b5cd;stroke-width:0.5;"/>
    <path clip-path="url(#p9c13246bbc)" d="M 278.06996 554.641013 
L 278.06996 447.637562 
" style="fill:none;stroke:#64b5cd;stroke-width:0.5;"/>
    <path clip-path="url(#p9c13246bbc)" d="M 819.018902 434.608908 
L 819.018902 325.262743 
" style="fill:none;stroke:#64b5cd;stroke-width:0.5;"/>
    <path clip-path="url(#p9c13246bbc)" d="M 798.273321 414.287017 
L 798.273321 302.43944 
" style="fill:none;stroke:#64b5cd;stroke-width:0.5;"/>
    <path clip-path="url(#p9c13246bbc)" d="M 1011.511504 332.075894 
L 1011.511504 227.189956 
" style="fill:none;stroke:#64b5cd;stroke-width:0.5;"/>
    <path clip-path="url(#p9c13246bbc)" d="M 451.161726 486.539216 
L 451.161726 384.736565 
" style="fill:none;stroke:#64b5cd;stroke-width:0.5;"/>
    <path clip-path="url(#p9c13246bbc)" d="M 686.715197 447.976856 
L 686.715197 340.316645 
" style="fill:none;stroke:#64b5cd;stroke-width:0.5;"/>
    <path clip-path="url(#p9c13246bbc)" d="M 144 597.246045 
L 144 485.083015 
" style="fill:none;stroke:#64b5cd;stroke-width:0.5;"/>
    <path clip-path="url(#p9c13246bbc)" d="M 170.039366 593.391259 
L 170.039366 486.285151 
" style="fill:none;stroke:#64b5cd;stroke-width:0.5;"/>
    <path clip-path="url(#p9c13246bbc)" d="M 267.994685 569.115952 
L 267.994685 465.797224 
" style="fill:none;stroke:#64b5cd;stroke-width:0.5;"/>
    <path clip-path="url(#p9c13246bbc)" d="M 423.712652 498.622564 
L 423.712652 387.207108 
" style="fill:none;stroke:#64b5cd;stroke-width:0.5;"/>
    <path clip-path="url(#p9c13246bbc)" d="M 881.690657 413.791205 
L 881.690657 307.717481 
" style="fill:none;stroke:#64b5cd;stroke-width:0.5;"/>
    <path clip-path="url(#p9c13246bbc)" d="M 668.62469 456.996626 
L 668.62469 348.328133 
" style="fill:none;stroke:#64b5cd;stroke-width:0.5;"/>
    <path clip-path="url(#p9c13246bbc)" d="M 855.424416 402.326224 
L 855.424416 293.425139 
" style="fill:none;stroke:#64b5cd;stroke-width:0.5;"/>
    <path clip-path="url(#p9c13246bbc)" d="M 366.019853 532.579219 
L 366.019853 427.087613 
" style="fill:none;stroke:#64b5cd;stroke-width:0.5;"/>
    <path clip-path="url(#p9c13246bbc)" d="M 774.691574 431.128277 
L 774.691574 326.650795 
" style="fill:none;stroke:#64b5cd;stroke-width:0.5;"/>
    <path clip-path="url(#p9c13246bbc)" d="M 332.603154 547.923221 
L 332.603154 440.469193 
" style="fill:none;stroke:#64b5cd;stroke-width:0.5;"/>
    <path clip-path="url(#p9c13246bbc)" d="M 1023.961541 370.376961 
L 1023.961541 261.960954 
" style="fill:none;stroke:#64b5cd;stroke-width:0.5;"/>
    <path clip-path="url(#p9c13246bbc)" d="M 274.266325 553.505351 
L 274.266325 440.559482 
" style="fill:none;stroke:#64b5cd;stroke-width:0.5;"/>
    <path clip-path="url(#p9c13246bbc)" d="M 1016.364428 335.757657 
L 1016.364428 227.479526 
" style="fill:none;stroke:#64b5cd;stroke-width:0.5;"/>
    <path clip-path="url(#p9c13246bbc)" d="M 1007.410541 294.812048 
L 1007.410541 191.007368 
" style="fill:none;stroke:#64b5cd;stroke-width:0.5;"/>
    <path clip-path="url(#p9c13246bbc)" d="M 533.881607 499.91921 
L 533.881607 392.658824 
" style="fill:none;stroke:#64b5cd;stroke-width:0.5;"/>
    <path clip-path="url(#p9c13246bbc)" d="M 1001.928569 362.959142 
L 1001.928569 252.092913 
" style="fill:none;stroke:#64b5cd;stroke-width:0.5;"/>
    <path clip-path="url(#p9c13246bbc)" d="M 907.356635 400.481114 
L 907.356635 301.136758 
" style="fill:none;stroke:#64b5cd;stroke-width:0.5;"/>
    <path clip-path="url(#p9c13246bbc)" d="M 951.220331 381.659323 
L 951.220331 275.809666 
" style="fill:none;stroke:#64b5cd;stroke-width:0.5;"/>
    <path clip-path="url(#p9c13246bbc)" d="M 1006.862344 361.378001 
L 1006.862344 255.343063 
" style="fill:none;stroke:#64b5cd;stroke-width:0.5;"/>
    <path clip-path="url(#p9c13246bbc)" d="M 162.844278 579.920769 
L 162.844278 471.910557 
" style="fill:none;stroke:#64b5cd;stroke-width:0.5;"/>
    <path clip-path="url(#p9c13246bbc)" d="M 411.24612 498.046704 
L 411.24612 391.514368 
" style="fill:none;stroke:#64b5cd;stroke-width:0.5;"/>
    <path clip-path="url(#p9c13246bbc)" d="M 796.558709 430.963577 
L 796.558709 323.632894 
" style="fill:none;stroke:#64b5cd;stroke-width:0.5;"/>
    <path clip-path="url(#p9c13246bbc)" d="M 725.911295 452.135853 
L 725.911295 341.576539 
" style="fill:none;stroke:#64b5cd;stroke-width:0.5;"/>
    <path clip-path="url(#p9c13246bbc)" d="M 190.231295 586.602706 
L 190.231295 478.74354 
" style="fill:none;stroke:#64b5cd;stroke-width:0.5;"/>
    <path clip-path="url(#p9c13246bbc)" d="M 518.530019 505.666918 
L 518.530019 404.826353 
" style="fill:none;stroke:#64b5cd;stroke-width:0.5;"/>
    <path clip-path="url(#p9c13246bbc)" d="M 237.999691 570.49322 
L 237.999691 466.965226 
" style="fill:none;stroke:#64b5cd;stroke-width:0.5;"/>
    <path clip-path="url(#p9c13246bbc)" d="M 653.361958 466.668857 
L 653.361958 362.462432 
" style="fill:none;stroke:#64b5cd;stroke-width:0.5;"/>
    <path clip-path="url(#p9c13246bbc)" d="M 656.24015 455.989838 
L 656.24015 346.150649 
" style="fill:none;stroke:#64b5cd;stroke-width:0.5;"/>
    <path clip-path="url(#p9c13246bbc)" d="M 946.297144 365.517985 
L 946.297144 262.958442 
" style="fill:none;stroke:#64b5cd;stroke-width:0.5;"/>
    <path clip-path="url(#p9c13246bbc)" d="M 737.594747 465.170735 
L 737.594747 357.661871 
" style="fill:none;stroke:#64b5cd;stroke-width:0.5;"/>
    <path clip-path="url(#p9c13246bbc)" d="M 170.80075 575.308102 
L 170.80075 473.011901 
" style="fill:none;stroke:#64b5cd;stroke-width:0.5;"/>
    <path clip-path="url(#p9c13246bbc)" d="M 150.865467 589.438589 
L 150.865467 483.240396 
" style="fill:none;stroke:#64b5cd;stroke-width:0.5;"/>
    <path clip-path="url(#p9c13246bbc)" d="M 859.005736 427.891962 
L 859.005736 326.103986 
" style="fill:none;stroke:#64b5cd;stroke-width:0.5;"/>
    <path clip-path="url(#p9c13246bbc)" d="M 224.402251 580.517275 
L 224.402251 468.529889 
" style="fill:none;stroke:#64b5cd;stroke-width:0.5;"/>
    <path clip-path="url(#p9c13246bbc)" d="M 529.386731 487.08583 
L 529.386731 384.93454 
" style="fill:none;stroke:#64b5cd;stroke-width:0.5;"/>
    <path clip-path="url(#p9c13246bbc)" d="M 674.743538 448.853185 
L 674.743538 342.993895 
" style="fill:none;stroke:#64b5cd;stroke-width:0.5;"/>
    <path clip-path="url(#p9c13246bbc)" d="M 988.22364 366.430797 
L 988.22364 264.790501 
" style="fill:none;stroke:#64b5cd;stroke-width:0.5;"/>
    <path clip-path="url(#p9c13246bbc)" d="M 438.136598 492.127015 
L 438.136598 387.377359 
" style="fill:none;stroke:#64b5cd;stroke-width:0.5;"/>
    <path clip-path="url(#p9c13246bbc)" d="M 757.067167 410.448617 
L 757.067167 305.122037 
" style="fill:none;stroke:#64b5cd;stroke-width:0.5;"/>
    <path clip-path="url(#p9c13246bbc)" d="M 951.21698 393.677256 
L 951.21698 285.439082 
" style="fill:none;stroke:#64b5cd;stroke-width:0.5;"/>
    <path clip-path="url(#p9c13246bbc)" d="M 1011.913589 317.600941 
L 1011.913589 210.630739 
" style="fill:none;stroke:#64b5cd;stroke-width:0.5;"/>
    <path clip-path="url(#p9c13246bbc)" d="M 285.886326 533.21825 
L 285.886326 431.967003 
" style="fill:none;stroke:#64b5cd;stroke-width:0.5;"/>
    <path clip-path="url(#p9c13246bbc)" d="M 619.148245 468.291226 
L 619.148245 362.323581 
" style="fill:none;stroke:#64b5cd;stroke-width:0.5;"/>
    <path clip-path="url(#p9c13246bbc)" d="M 426.321542 517.130564 
L 426.321542 407.416959 
" style="fill:none;stroke:#64b5cd;stroke-width:0.5;"/>
    <path clip-path="url(#p9c13246bbc)" d="M 318.431326 548.713359 
L 318.431326 439.306964 
" style="fill:none;stroke:#64b5cd;stroke-width:0.5;"/>
    <path clip-path="url(#p9c13246bbc)" d="M 639.805283 484.719145 
L 639.805283 376.980662 
" style="fill:none;stroke:#64b5cd;stroke-width:0.5;"/>
    <path clip-path="url(#p9c13246bbc)" d="M 164.100563 573.990094 
L 164.100563 464.345297 
" style="fill:none;stroke:#64b5cd;stroke-width:0.5;"/>
    <path clip-path="url(#p9c13246bbc)" d="M 566.631662 498.206278 
L 566.631662 390.967304 
" style="fill:none;stroke:#64b5cd;stroke-width:0.5;"/>
    <path clip-path="url(#p9c13246bbc)" d="M 508.983904 519.254768 
L 508.983904 409.622658 
" style="fill:none;stroke:#64b5cd;stroke-width:0.5;"/>
    <path clip-path="url(#p9c13246bbc)" d="M 220.185135 571.887727 
L 220.185135 462.479245 
" style="fill:none;stroke:#64b5cd;stroke-width:0.5;"/>
    <path clip-path="url(#p9c13246bbc)" d="M 749.845295 453.511718 
L 749.845295 348.83259 
" style="fill:none;stroke:#64b5cd;stroke-width:0.5;"/>
    <path clip-path="url(#p9c13246bbc)" d="M 938.552644 368.185799 
L 938.552644 257.386632 
" style="fill:none;stroke:#64b5cd;stroke-width:0.5;"/>
    <path clip-path="url(#p9c13246bbc)" d="M 219.377111 558.39328 
L 219.377111 455.249972 
" style="fill:none;stroke:#64b5cd;stroke-width:0.5;"/>
    <path clip-path="url(#p9c13246bbc)" d="M 555.854316 479.716187 
L 555.854316 373.397518 
" style="fill:none;stroke:#64b5cd;stroke-width:0.5;"/>
    <path clip-path="url(#p9c13246bbc)" d="M 819.308384 409.207356 
L 819.308384 302.961506 
" style="fill:none;stroke:#64b5cd;stroke-width:0.5;"/>
    <path clip-path="url(#p9c13246bbc)" d="M 609.967593 464.551245 
L 609.967593 352.129083 
" style="fill:none;stroke:#64b5cd;stroke-width:0.5;"/>
    <path clip-path="url(#p9c13246bbc)" d="M 1036.8 354.204161 
L 1036.8 253.27396 
" style="fill:none;stroke:#64b5cd;stroke-width:0.5;"/>
    <path clip-path="url(#p9c13246bbc)" d="M 575.627105 492.556888 
L 575.627105 380.663915 
" style="fill:none;stroke:#64b5cd;stroke-width:0.5;"/>
    <path clip-path="url(#p9c13246bbc)" d="M 360.344327 536.013101 
L 360.344327 425.047187 
" style="fill:none;stroke:#64b5cd;stroke-width:0.5;"/>
    <path clip-path="url(#p9c13246bbc)" d="M 249.527955 550.965422 
L 249.527955 439.45429 
" style="fill:none;stroke:#64b5cd;stroke-width:0.5;"/>
    <path clip-path="url(#p9c13246bbc)" d="M 507.663192 511.430158 
L 507.663192 398.541829 
" style="fill:none;stroke:#64b5cd;stroke-width:0.5;"/>
    <path clip-path="url(#p9c13246bbc)" d="M 150.700188 590.843819 
L 150.700188 479.618447 
" style="fill:none;stroke:#64b5cd;stroke-width:0.5;"/>
    <path clip-path="url(#p9c13246bbc)" d="M 818.061978 408.461832 
L 818.061978 306.977937 
" style="fill:none;stroke:#64b5cd;stroke-width:0.5;"/>
    <path clip-path="url(#p9c13246bbc)" d="M 212.524646 574.094271 
L 212.524646 462.737413 
" style="fill:none;stroke:#64b5cd;stroke-width:0.5;"/>
    <path clip-path="url(#p9c13246bbc)" d="M 158.281979 589.303345 
L 158.281979 481.846475 
" style="fill:none;stroke:#64b5cd;stroke-width:0.5;"/>
    <path clip-path="url(#p9c13246bbc)" d="M 642.57872 469.726698 
L 642.57872 364.65113 
" style="fill:none;stroke:#64b5cd;stroke-width:0.5;"/>
    <path clip-path="url(#p9c13246bbc)" d="M 593.219174 474.466921 
L 593.219174 368.440768 
" style="fill:none;stroke:#64b5cd;stroke-width:0.5;"/>
    <path clip-path="url(#p9c13246bbc)" d="M 279.678799 561.843052 
L 279.678799 457.753674 
" style="fill:none;stroke:#64b5cd;stroke-width:0.5;"/>
    <path clip-path="url(#p9c13246bbc)" d="M 519.515061 489.136086 
L 519.515061 382.854782 
" style="fill:none;stroke:#64b5cd;stroke-width:0.5;"/>
    <path clip-path="url(#p9c13246bbc)" d="M 196.048891 586.832587 
L 196.048891 473.105736 
" style="fill:none;stroke:#64b5cd;stroke-width:0.5;"/>
    <path clip-path="url(#p9c13246bbc)" d="M 347.518199 525.943608 
L 347.518199 422.478669 
" style="fill:none;stroke:#64b5cd;stroke-width:0.5;"/>
    <path clip-path="url(#p9c13246bbc)" d="M 198.173023 568.86898 
L 198.173023 464.635381 
" style="fill:none;stroke:#64b5cd;stroke-width:0.5;"/>
    <path clip-path="url(#p9c13246bbc)" d="M 144 576.070094 
L 144 473.66458 
" style="fill:none;stroke:#64b5cd;stroke-width:0.5;"/>
    <path clip-path="url(#p9c13246bbc)" d="M 941.611453 401.867213 
L 941.611453 292.773864 
" style="fill:none;stroke:#64b5cd;stroke-width:0.5;"/>
    <path clip-path="url(#p9c13246bbc)" d="M 961.841651 349.508464 
L 961.841651 244.645518 
" style="fill:none;stroke:#64b5cd;stroke-width:0.5;"/>
    <path clip-path="url(#p9c13246bbc)" d="M 661.202944 474.369186 
L 661.202944 371.99852 
" style="fill:none;stroke:#64b5cd;stroke-width:0.5;"/>
    <path clip-path="url(#p9c13246bbc)" d="M 591.638302 464.991742 
L 591.638302 356.305099 
" style="fill:none;stroke:#64b5cd;stroke-width:0.5;"/>
    <path clip-path="url(#p9c13246bbc)" d="M 489.455245 477.545943 
L 489.455245 375.735987 
" style="fill:none;stroke:#64b5cd;stroke-width:0.5;"/>
    <path clip-path="url(#p9c13246bbc)" d="M 955.034338 349.181451 
L 955.034338 240.997704 
" style="fill:none;stroke:#64b5cd;stroke-width:0.5;"/>
    <path clip-path="url(#p9c13246bbc)" d="M 157.56788 583.449982 
L 157.56788 477.780281 
" style="fill:none;stroke:#64b5cd;stroke-width:0.5;"/>
    <path clip-path="url(#p9c13246bbc)" d="M 169.199386 586.489847 
L 169.199386 475.162347 
" style="fill:none;stroke:#64b5cd;stroke-width:0.5;"/>
    <path clip-path="url(#p9c13246bbc)" d="M 909.76292 392.930833 
L 909.76292 285.473744 
" style="fill:none;stroke:#64b5cd;stroke-width:0.5;"/>
    <path clip-path="url(#p9c13246bbc)" d="M 531.886537 480.540863 
L 531.886537 376.486857 
" style="fill:none;stroke:#64b5cd;stroke-width:0.5;"/>
    <path clip-path="url(#p9c13246bbc)" d="M 180.851032 578.292204 
L 180.851032 471.555165 
" style="fill:none;stroke:#64b5cd;stroke-width:0.5;"/>
    <path clip-path="url(#p9c13246bbc)" d="M 200.19021 556.909084 
L 200.19021 451.490881 
" style="fill:none;stroke:#64b5cd;stroke-width:0.5;"/>
    <path clip-path="url(#p9c13246bbc)" d="M 1013.613824 336.751909 
L 1013.613824 227.436246 
" style="fill:none;stroke:#64b5cd;stroke-width:0.5;"/>
    <path clip-path="url(#p9c13246bbc)" d="M 167.130527 587.778791 
L 167.130527 479.760488 
" style="fill:none;stroke:#64b5cd;stroke-width:0.5;"/>
    <path clip-path="url(#p9c13246bbc)" d="M 159.758281 598.093002 
L 159.758281 489.575003 
" style="fill:none;stroke:#64b5cd;stroke-width:0.5;"/>
    <path clip-path="url(#p9c13246bbc)" d="M 706.81576 472.261885 
L 706.81576 370.201382 
" style="fill:none;stroke:#64b5cd;stroke-width:0.5;"/>
    <path clip-path="url(#p9c13246bbc)" d="M 235.529349 559.336611 
L 235.529349 458.848697 
" style="fill:none;stroke:#64b5cd;stroke-width:0.5;"/>
    <path clip-path="url(#p9c13246bbc)" d="M 821.406523 437.989177 
L 821.406523 330.749699 
" style="fill:none;stroke:#64b5cd;stroke-width:0.5;"/>
    <path clip-path="url(#p9c13246bbc)" d="M 842.287058 417.96806 
L 842.287058 311.426382 
" style="fill:none;stroke:#64b5cd;stroke-width:0.5;"/>
    <path clip-path="url(#p9c13246bbc)" d="M 283.790278 543.190673 
L 283.790278 435.487491 
" style="fill:none;stroke:#64b5cd;stroke-width:0.5;"/>
    <path clip-path="url(#p9c13246bbc)" d="M 678.96638 436.182595 
L 678.96638 334.730138 
" style="fill:none;stroke:#64b5cd;stroke-width:0.5;"/>
    <path clip-path="url(#p9c13246bbc)" d="M 831.024963 428.070341 
L 831.024963 326.505074 
" style="fill:none;stroke:#64b5cd;stroke-width:0.5;"/>
    <path clip-path="url(#p9c13246bbc)" d="M 455.995693 506.480173 
L 455.995693 399.951179 
" style="fill:none;stroke:#64b5cd;stroke-width:0.5;"/>
    <path clip-path="url(#p9c13246bbc)" d="M 269.508299 549.841897 
L 269.508299 442.982083 
" style="fill:none;stroke:#64b5cd;stroke-width:0.5;"/>
   </g>
   <g id="LineCollection_2">
    <path clip-path="url(#p9c13246bbc)" d="M 940.879339 464.442461 
L 940.879339 310.753284 
" style="fill:none;stroke:#8172b3;stroke-width:0.5;"/>
    <path clip-path="url(#p9c13246bbc)" d="M 992.821422 399.535167 
L 992.821422 272.918148 
" style="fill:none;stroke:#8172b3;stroke-width:0.5;"/>
    <path clip-path="url(#p9c13246bbc)" d="M 655.128598 524.934521 
L 655.128598 393.786887 
" style="fill:none;stroke:#8172b3;stroke-width:0.5;"/>
    <path clip-path="url(#p9c13246bbc)" d="M 652.679888 458.059189 
L 652.679888 348.903134 
" style="fill:none;stroke:#8172b3;stroke-width:0.5;"/>
    <path clip-path="url(#p9c13246bbc)" d="M 799.278349 419.104828 
L 799.278349 288.452971 
" style="fill:none;stroke:#8172b3;stroke-width:0.5;"/>
    <path clip-path="url(#p9c13246bbc)" d="M 445.508443 480.295071 
L 445.508443 355.064471 
" style="fill:none;stroke:#8172b3;stroke-width:0.5;"/>
    <path clip-path="url(#p9c13246bbc)" d="M 166.613133 596.910618 
L 166.613133 475.133306 
" style="fill:none;stroke:#8172b3;stroke-width:0.5;"/>
    <path clip-path="url(#p9c13246bbc)" d="M 752.072667 512.039388 
L 752.072667 392.076183 
" style="fill:none;stroke:#8172b3;stroke-width:0.5;"/>
    <path clip-path="url(#p9c13246bbc)" d="M 700.534334 489.479867 
L 700.534334 375.985363 
" style="fill:none;stroke:#8172b3;stroke-width:0.5;"/>
    <path clip-path="url(#p9c13246bbc)" d="M 910.456883 364.642903 
L 910.456883 242.169531 
" style="fill:none;stroke:#8172b3;stroke-width:0.5;"/>
    <path clip-path="url(#p9c13246bbc)" d="M 200.951595 535.106131 
L 200.951595 405.029577 
" style="fill:none;stroke:#8172b3;stroke-width:0.5;"/>
    <path clip-path="url(#p9c13246bbc)" d="M 385.206754 539.072773 
L 385.206754 420.157588 
" style="fill:none;stroke:#8172b3;stroke-width:0.5;"/>
    <path clip-path="url(#p9c13246bbc)" d="M 788.05992 440.522885 
L 788.05992 282.509676 
" style="fill:none;stroke:#8172b3;stroke-width:0.5;"/>
    <path clip-path="url(#p9c13246bbc)" d="M 981.700238 339.624701 
L 981.700238 231.547813 
" style="fill:none;stroke:#8172b3;stroke-width:0.5;"/>
    <path clip-path="url(#p9c13246bbc)" d="M 944.821788 425.75525 
L 944.821788 300.41713 
" style="fill:none;stroke:#8172b3;stroke-width:0.5;"/>
    <path clip-path="url(#p9c13246bbc)" d="M 364.101163 522.768598 
L 364.101163 402.610329 
" style="fill:none;stroke:#8172b3;stroke-width:0.5;"/>
    <path clip-path="url(#p9c13246bbc)" d="M 144 600.252817 
L 144 473.620739 
" style="fill:none;stroke:#8172b3;stroke-width:0.5;"/>
    <path clip-path="url(#p9c13246bbc)" d="M 1030.888344 234.248795 
L 1030.888344 111.109091 
" style="fill:none;stroke:#8172b3;stroke-width:0.5;"/>
    <path clip-path="url(#p9c13246bbc)" d="M 421.91213 513.688433 
L 421.91213 394.625826 
" style="fill:none;stroke:#8172b3;stroke-width:0.5;"/>
    <path clip-path="url(#p9c13246bbc)" d="M 861.831301 351.250347 
L 861.831301 221.678212 
" style="fill:none;stroke:#8172b3;stroke-width:0.5;"/>
    <path clip-path="url(#p9c13246bbc)" d="M 910.88017 391.218261 
L 910.88017 281.447663 
" style="fill:none;stroke:#8172b3;stroke-width:0.5;"/>
    <path clip-path="url(#p9c13246bbc)" d="M 176.304476 550.979567 
L 176.304476 432.193155 
" style="fill:none;stroke:#8172b3;stroke-width:0.5;"/>
    <path clip-path="url(#p9c13246bbc)" d="M 451.538612 532.309318 
L 451.538612 398.474897 
" style="fill:none;stroke:#8172b3;stroke-width:0.5;"/>
    <path clip-path="url(#p9c13246bbc)" d="M 1004.974109 345.755557 
L 1004.974109 239.549022 
" style="fill:none;stroke:#8172b3;stroke-width:0.5;"/>
    <path clip-path="url(#p9c13246bbc)" d="M 970.994586 356.64457 
L 970.994586 227.120838 
" style="fill:none;stroke:#8172b3;stroke-width:0.5;"/>
    <path clip-path="url(#p9c13246bbc)" d="M 508.68164 539.800474 
L 508.68164 419.610343 
" style="fill:none;stroke:#8172b3;stroke-width:0.5;"/>
    <path clip-path="url(#p9c13246bbc)" d="M 895.761051 376.665327 
L 895.761051 272.549526 
" style="fill:none;stroke:#8172b3;stroke-width:0.5;"/>
    <path clip-path="url(#p9c13246bbc)" d="M 341.978435 533.416993 
L 341.978435 402.869534 
" style="fill:none;stroke:#8172b3;stroke-width:0.5;"/>
    <path clip-path="url(#p9c13246bbc)" d="M 891.165896 413.877801 
L 891.165896 297.58169 
" style="fill:none;stroke:#8172b3;stroke-width:0.5;"/>
    <path clip-path="url(#p9c13246bbc)" d="M 265.652932 585.063697 
L 265.652932 454.309559 
" style="fill:none;stroke:#8172b3;stroke-width:0.5;"/>
    <path clip-path="url(#p9c13246bbc)" d="M 1020.518237 303.899048 
L 1020.518237 173.210195 
" style="fill:none;stroke:#8172b3;stroke-width:0.5;"/>
    <path clip-path="url(#p9c13246bbc)" d="M 723.420573 457.96669 
L 723.420573 344.055147 
" style="fill:none;stroke:#8172b3;stroke-width:0.5;"/>
    <path clip-path="url(#p9c13246bbc)" d="M 893.824661 380.46949 
L 893.824661 265.962913 
" style="fill:none;stroke:#8172b3;stroke-width:0.5;"/>
    <path clip-path="url(#p9c13246bbc)" d="M 735.522429 509.839629 
L 735.522429 372.632442 
" style="fill:none;stroke:#8172b3;stroke-width:0.5;"/>
    <path clip-path="url(#p9c13246bbc)" d="M 169.925885 605.290909 
L 169.925885 465.605151 
" style="fill:none;stroke:#8172b3;stroke-width:0.5;"/>
    <path clip-path="url(#p9c13246bbc)" d="M 886.484695 379.369769 
L 886.484695 248.9308 
" style="fill:none;stroke:#8172b3;stroke-width:0.5;"/>
    <path clip-path="url(#p9c13246bbc)" d="M 708.589339 464.825377 
L 708.589339 344.620383 
" style="fill:none;stroke:#8172b3;stroke-width:0.5;"/>
    <path clip-path="url(#p9c13246bbc)" d="M 791.101671 455.014711 
L 791.101671 322.344761 
" style="fill:none;stroke:#8172b3;stroke-width:0.5;"/>
    <path clip-path="url(#p9c13246bbc)" d="M 792.822976 476.470924 
L 792.822976 350.82016 
" style="fill:none;stroke:#8172b3;stroke-width:0.5;"/>
    <path clip-path="url(#p9c13246bbc)" d="M 890.505843 429.937499 
L 890.505843 300.31268 
" style="fill:none;stroke:#8172b3;stroke-width:0.5;"/>
    <path clip-path="url(#p9c13246bbc)" d="M 825.409081 446.835261 
L 825.409081 318.381039 
" style="fill:none;stroke:#8172b3;stroke-width:0.5;"/>
    <path clip-path="url(#p9c13246bbc)" d="M 144 549.720247 
L 144 432.649857 
" style="fill:none;stroke:#8172b3;stroke-width:0.5;"/>
    <path clip-path="url(#p9c13246bbc)" d="M 462.920784 511.565395 
L 462.920784 379.699058 
" style="fill:none;stroke:#8172b3;stroke-width:0.5;"/>
    <path clip-path="url(#p9c13246bbc)" d="M 369.185176 537.765722 
L 369.185176 427.374033 
" style="fill:none;stroke:#8172b3;stroke-width:0.5;"/>
    <path clip-path="url(#p9c13246bbc)" d="M 571.765103 549.927795 
L 571.765103 424.660739 
" style="fill:none;stroke:#8172b3;stroke-width:0.5;"/>
    <path clip-path="url(#p9c13246bbc)" d="M 267.22519 551.974754 
L 267.22519 427.321196 
" style="fill:none;stroke:#8172b3;stroke-width:0.5;"/>
    <path clip-path="url(#p9c13246bbc)" d="M 188.570813 584.461396 
L 188.570813 470.973835 
" style="fill:none;stroke:#8172b3;stroke-width:0.5;"/>
    <path clip-path="url(#p9c13246bbc)" d="M 261.132776 576.881997 
L 261.132776 447.112248 
" style="fill:none;stroke:#8172b3;stroke-width:0.5;"/>
    <path clip-path="url(#p9c13246bbc)" d="M 240.09276 587.744015 
L 240.09276 433.879114 
" style="fill:none;stroke:#8172b3;stroke-width:0.5;"/>
    <path clip-path="url(#p9c13246bbc)" d="M 186.100615 595.966386 
L 186.100615 434.642868 
" style="fill:none;stroke:#8172b3;stroke-width:0.5;"/>
   </g>
   <g id="line2d_15">
    <path clip-path="url(#p9c13246bbc)" d="M 144 543.701155 
L 1036.8 300.359878 
" style="fill:none;stroke:#c44e52;stroke-linecap:round;stroke-width:1.5;"/>
   </g>
   <g id="line2d_16">
    <defs>
     <path d="M 0 3 
C 0.795609 3 1.55874 2.683901 2.12132 2.12132 
C 2.683901 1.55874 3 0.795609 3 0 
C 3 -0.795609 2.683901 -1.55874 2.12132 -2.12132 
C 1.55874 -2.683901 0.795609 -3 0 -3 
C -0.795609 -3 -1.55874 -2.683901 -2.12132 -2.12132 
C -2.683901 -1.55874 -3 -0.795609 -3 0 
C -3 0.795609 -2.683901 1.55874 -2.12132 2.12132 
C -1.55874 2.683901 -0.795609 3 0 3 
z
" id="m6ea00355b5" style="stroke:#64b5cd;"/>
    </defs>
    <g clip-path="url(#p9c13246bbc)">
     <use style="fill:#64b5cd;stroke:#64b5cd;" x="289.729081" xlink:href="#m6ea00355b5" y="517.210109"/>
     <use style="fill:#64b5cd;stroke:#64b5cd;" x="535.672451" xlink:href="#m6ea00355b5" y="443.694505"/>
     <use style="fill:#64b5cd;stroke:#64b5cd;" x="729.822921" xlink:href="#m6ea00355b5" y="419.98654"/>
     <use style="fill:#64b5cd;stroke:#64b5cd;" x="972.24006" xlink:href="#m6ea00355b5" y="300.395244"/>
     <use style="fill:#64b5cd;stroke:#64b5cd;" x="633.525016" xlink:href="#m6ea00355b5" y="404.105851"/>
     <use style="fill:#64b5cd;stroke:#64b5cd;" x="956.575945" xlink:href="#m6ea00355b5" y="343.443423"/>
     <use style="fill:#64b5cd;stroke:#64b5cd;" x="782.192871" xlink:href="#m6ea00355b5" y="379.279041"/>
     <use style="fill:#64b5cd;stroke:#64b5cd;" x="202.417261" xlink:href="#m6ea00355b5" y="522.69224"/>
     <use style="fill:#64b5cd;stroke:#64b5cd;" x="927.921951" xlink:href="#m6ea00355b5" y="336.953787"/>
     <use style="fill:#64b5cd;stroke:#64b5cd;" x="531.849497" xlink:href="#m6ea00355b5" y="445.658287"/>
     <use style="fill:#64b5cd;stroke:#64b5cd;" x="747.016886" xlink:href="#m6ea00355b5" y="378.337711"/>
     <use style="fill:#64b5cd;stroke:#64b5cd;" x="941.62688" xlink:href="#m6ea00355b5" y="332.495972"/>
     <use style="fill:#64b5cd;stroke:#64b5cd;" x="942.477531" xlink:href="#m6ea00355b5" y="343.465137"/>
     <use style="fill:#64b5cd;stroke:#64b5cd;" x="943.179005" xlink:href="#m6ea00355b5" y="312.027861"/>
     <use style="fill:#64b5cd;stroke:#64b5cd;" x="728.926379" xlink:href="#m6ea00355b5" y="401.735035"/>
     <use style="fill:#64b5cd;stroke:#64b5cd;" x="784.501719" xlink:href="#m6ea00355b5" y="384.910409"/>
     <use style="fill:#64b5cd;stroke:#64b5cd;" x="303.622117" xlink:href="#m6ea00355b5" y="486.307847"/>
     <use style="fill:#64b5cd;stroke:#64b5cd;" x="305.005508" xlink:href="#m6ea00355b5" y="511.373193"/>
     <use style="fill:#64b5cd;stroke:#64b5cd;" x="765.861163" xlink:href="#m6ea00355b5" y="396.873604"/>
     <use style="fill:#64b5cd;stroke:#64b5cd;" x="222.362343" xlink:href="#m6ea00355b5" y="515.106956"/>
     <use style="fill:#64b5cd;stroke:#64b5cd;" x="336.477322" xlink:href="#m6ea00355b5" y="493.401193"/>
     <use style="fill:#64b5cd;stroke:#64b5cd;" x="637.521714" xlink:href="#m6ea00355b5" y="424.243512"/>
     <use style="fill:#64b5cd;stroke:#64b5cd;" x="839.144465" xlink:href="#m6ea00355b5" y="368.895931"/>
     <use style="fill:#64b5cd;stroke:#64b5cd;" x="1015.502975" xlink:href="#m6ea00355b5" y="301.415447"/>
     <use style="fill:#64b5cd;stroke:#64b5cd;" x="849.714084" xlink:href="#m6ea00355b5" y="358.542928"/>
     <use style="fill:#64b5cd;stroke:#64b5cd;" x="1017.128581" xlink:href="#m6ea00355b5" y="321.554373"/>
     <use style="fill:#64b5cd;stroke:#64b5cd;" x="837.469418" xlink:href="#m6ea00355b5" y="361.104769"/>
     <use style="fill:#64b5cd;stroke:#64b5cd;" x="868.025879" xlink:href="#m6ea00355b5" y="345.091282"/>
     <use style="fill:#64b5cd;stroke:#64b5cd;" x="466.137968" xlink:href="#m6ea00355b5" y="472.014711"/>
     <use style="fill:#64b5cd;stroke:#64b5cd;" x="183.01874" xlink:href="#m6ea00355b5" y="525.092496"/>
     <use style="fill:#64b5cd;stroke:#64b5cd;" x="651.460076" xlink:href="#m6ea00355b5" y="434.174478"/>
     <use style="fill:#64b5cd;stroke:#64b5cd;" x="785.782257" xlink:href="#m6ea00355b5" y="371.8249"/>
     <use style="fill:#64b5cd;stroke:#64b5cd;" x="590.941927" xlink:href="#m6ea00355b5" y="423.501184"/>
     <use style="fill:#64b5cd;stroke:#64b5cd;" x="753.717073" xlink:href="#m6ea00355b5" y="364.33874"/>
     <use style="fill:#64b5cd;stroke:#64b5cd;" x="988.677036" xlink:href="#m6ea00355b5" y="293.522794"/>
     <use style="fill:#64b5cd;stroke:#64b5cd;" x="695.974118" xlink:href="#m6ea00355b5" y="405.558144"/>
     <use style="fill:#64b5cd;stroke:#64b5cd;" x="1025.362068" xlink:href="#m6ea00355b5" y="288.806848"/>
     <use style="fill:#64b5cd;stroke:#64b5cd;" x="828.854891" xlink:href="#m6ea00355b5" y="374.549072"/>
     <use style="fill:#64b5cd;stroke:#64b5cd;" x="720.967443" xlink:href="#m6ea00355b5" y="409.340893"/>
     <use style="fill:#64b5cd;stroke:#64b5cd;" x="599.037282" xlink:href="#m6ea00355b5" y="425.376097"/>
     <use style="fill:#64b5cd;stroke:#64b5cd;" x="234.452533" xlink:href="#m6ea00355b5" y="509.463972"/>
     <use style="fill:#64b5cd;stroke:#64b5cd;" x="979.827202" xlink:href="#m6ea00355b5" y="313.841029"/>
     <use style="fill:#64b5cd;stroke:#64b5cd;" x="807.761969" xlink:href="#m6ea00355b5" y="372.494159"/>
     <use style="fill:#64b5cd;stroke:#64b5cd;" x="668.62469" xlink:href="#m6ea00355b5" y="400.806182"/>
     <use style="fill:#64b5cd;stroke:#64b5cd;" x="947.431321" xlink:href="#m6ea00355b5" y="343.014336"/>
     <use style="fill:#64b5cd;stroke:#64b5cd;" x="285.56848" xlink:href="#m6ea00355b5" y="496.816365"/>
     <use style="fill:#64b5cd;stroke:#64b5cd;" x="895.35628" xlink:href="#m6ea00355b5" y="346.935546"/>
     <use style="fill:#64b5cd;stroke:#64b5cd;" x="278.06996" xlink:href="#m6ea00355b5" y="501.139287"/>
     <use style="fill:#64b5cd;stroke:#64b5cd;" x="819.018902" xlink:href="#m6ea00355b5" y="379.935826"/>
     <use style="fill:#64b5cd;stroke:#64b5cd;" x="798.273321" xlink:href="#m6ea00355b5" y="358.363228"/>
     <use style="fill:#64b5cd;stroke:#64b5cd;" x="1011.511504" xlink:href="#m6ea00355b5" y="279.632925"/>
     <use style="fill:#64b5cd;stroke:#64b5cd;" x="451.161726" xlink:href="#m6ea00355b5" y="435.63789"/>
     <use style="fill:#64b5cd;stroke:#64b5cd;" x="686.715197" xlink:href="#m6ea00355b5" y="394.14675"/>
     <use style="fill:#64b5cd;stroke:#64b5cd;" x="144" xlink:href="#m6ea00355b5" y="541.16453"/>
     <use style="fill:#64b5cd;stroke:#64b5cd;" x="170.039366" xlink:href="#m6ea00355b5" y="539.838205"/>
     <use style="fill:#64b5cd;stroke:#64b5cd;" x="267.994685" xlink:href="#m6ea00355b5" y="517.456588"/>
     <use style="fill:#64b5cd;stroke:#64b5cd;" x="423.712652" xlink:href="#m6ea00355b5" y="442.914836"/>
     <use style="fill:#64b5cd;stroke:#64b5cd;" x="881.690657" xlink:href="#m6ea00355b5" y="360.754343"/>
     <use style="fill:#64b5cd;stroke:#64b5cd;" x="668.62469" xlink:href="#m6ea00355b5" y="402.662379"/>
     <use style="fill:#64b5cd;stroke:#64b5cd;" x="855.424416" xlink:href="#m6ea00355b5" y="347.875681"/>
     <use style="fill:#64b5cd;stroke:#64b5cd;" x="366.019853" xlink:href="#m6ea00355b5" y="479.833416"/>
     <use style="fill:#64b5cd;stroke:#64b5cd;" x="774.691574" xlink:href="#m6ea00355b5" y="378.889536"/>
     <use style="fill:#64b5cd;stroke:#64b5cd;" x="332.603154" xlink:href="#m6ea00355b5" y="494.196207"/>
     <use style="fill:#64b5cd;stroke:#64b5cd;" x="1023.961541" xlink:href="#m6ea00355b5" y="316.168957"/>
     <use style="fill:#64b5cd;stroke:#64b5cd;" x="274.266325" xlink:href="#m6ea00355b5" y="497.032417"/>
     <use style="fill:#64b5cd;stroke:#64b5cd;" x="1016.364428" xlink:href="#m6ea00355b5" y="281.618592"/>
     <use style="fill:#64b5cd;stroke:#64b5cd;" x="1007.410541" xlink:href="#m6ea00355b5" y="242.909708"/>
     <use style="fill:#64b5cd;stroke:#64b5cd;" x="533.881607" xlink:href="#m6ea00355b5" y="446.289017"/>
     <use style="fill:#64b5cd;stroke:#64b5cd;" x="1001.928569" xlink:href="#m6ea00355b5" y="307.526027"/>
     <use style="fill:#64b5cd;stroke:#64b5cd;" x="907.356635" xlink:href="#m6ea00355b5" y="350.808936"/>
     <use style="fill:#64b5cd;stroke:#64b5cd;" x="951.220331" xlink:href="#m6ea00355b5" y="328.734495"/>
     <use style="fill:#64b5cd;stroke:#64b5cd;" x="1006.862344" xlink:href="#m6ea00355b5" y="308.360532"/>
     <use style="fill:#64b5cd;stroke:#64b5cd;" x="162.844278" xlink:href="#m6ea00355b5" y="525.915663"/>
     <use style="fill:#64b5cd;stroke:#64b5cd;" x="411.24612" xlink:href="#m6ea00355b5" y="444.780536"/>
     <use style="fill:#64b5cd;stroke:#64b5cd;" x="796.558709" xlink:href="#m6ea00355b5" y="377.298235"/>
     <use style="fill:#64b5cd;stroke:#64b5cd;" x="725.911295" xlink:href="#m6ea00355b5" y="396.856196"/>
     <use style="fill:#64b5cd;stroke:#64b5cd;" x="190.231295" xlink:href="#m6ea00355b5" y="532.673123"/>
     <use style="fill:#64b5cd;stroke:#64b5cd;" x="518.530019" xlink:href="#m6ea00355b5" y="455.246635"/>
     <use style="fill:#64b5cd;stroke:#64b5cd;" x="237.999691" xlink:href="#m6ea00355b5" y="518.729223"/>
     <use style="fill:#64b5cd;stroke:#64b5cd;" x="653.361958" xlink:href="#m6ea00355b5" y="414.565645"/>
     <use style="fill:#64b5cd;stroke:#64b5cd;" x="656.24015" xlink:href="#m6ea00355b5" y="401.070243"/>
     <use style="fill:#64b5cd;stroke:#64b5cd;" x="946.297144" xlink:href="#m6ea00355b5" y="314.238213"/>
     <use style="fill:#64b5cd;stroke:#64b5cd;" x="737.594747" xlink:href="#m6ea00355b5" y="411.416303"/>
     <use style="fill:#64b5cd;stroke:#64b5cd;" x="170.80075" xlink:href="#m6ea00355b5" y="524.160001"/>
     <use style="fill:#64b5cd;stroke:#64b5cd;" x="150.865467" xlink:href="#m6ea00355b5" y="536.339492"/>
     <use style="fill:#64b5cd;stroke:#64b5cd;" x="859.005736" xlink:href="#m6ea00355b5" y="376.997974"/>
     <use style="fill:#64b5cd;stroke:#64b5cd;" x="224.402251" xlink:href="#m6ea00355b5" y="524.523582"/>
     <use style="fill:#64b5cd;stroke:#64b5cd;" x="529.386731" xlink:href="#m6ea00355b5" y="436.010185"/>
     <use style="fill:#64b5cd;stroke:#64b5cd;" x="674.743538" xlink:href="#m6ea00355b5" y="395.92354"/>
     <use style="fill:#64b5cd;stroke:#64b5cd;" x="988.22364" xlink:href="#m6ea00355b5" y="315.610649"/>
     <use style="fill:#64b5cd;stroke:#64b5cd;" x="438.136598" xlink:href="#m6ea00355b5" y="439.752187"/>
     <use style="fill:#64b5cd;stroke:#64b5cd;" x="757.067167" xlink:href="#m6ea00355b5" y="357.785327"/>
     <use style="fill:#64b5cd;stroke:#64b5cd;" x="951.21698" xlink:href="#m6ea00355b5" y="339.558169"/>
     <use style="fill:#64b5cd;stroke:#64b5cd;" x="1011.913589" xlink:href="#m6ea00355b5" y="264.11584"/>
     <use style="fill:#64b5cd;stroke:#64b5cd;" x="285.886326" xlink:href="#m6ea00355b5" y="482.592626"/>
     <use style="fill:#64b5cd;stroke:#64b5cd;" x="619.148245" xlink:href="#m6ea00355b5" y="415.307404"/>
     <use style="fill:#64b5cd;stroke:#64b5cd;" x="426.321542" xlink:href="#m6ea00355b5" y="462.273761"/>
     <use style="fill:#64b5cd;stroke:#64b5cd;" x="318.431326" xlink:href="#m6ea00355b5" y="494.010162"/>
     <use style="fill:#64b5cd;stroke:#64b5cd;" x="639.805283" xlink:href="#m6ea00355b5" y="430.849904"/>
     <use style="fill:#64b5cd;stroke:#64b5cd;" x="164.100563" xlink:href="#m6ea00355b5" y="519.167696"/>
     <use style="fill:#64b5cd;stroke:#64b5cd;" x="566.631662" xlink:href="#m6ea00355b5" y="444.586791"/>
     <use style="fill:#64b5cd;stroke:#64b5cd;" x="508.983904" xlink:href="#m6ea00355b5" y="464.438713"/>
     <use style="fill:#64b5cd;stroke:#64b5cd;" x="220.185135" xlink:href="#m6ea00355b5" y="517.183486"/>
     <use style="fill:#64b5cd;stroke:#64b5cd;" x="749.845295" xlink:href="#m6ea00355b5" y="401.172154"/>
     <use style="fill:#64b5cd;stroke:#64b5cd;" x="938.552644" xlink:href="#m6ea00355b5" y="312.786216"/>
     <use style="fill:#64b5cd;stroke:#64b5cd;" x="219.377111" xlink:href="#m6ea00355b5" y="506.821626"/>
     <use style="fill:#64b5cd;stroke:#64b5cd;" x="555.854316" xlink:href="#m6ea00355b5" y="426.556852"/>
     <use style="fill:#64b5cd;stroke:#64b5cd;" x="819.308384" xlink:href="#m6ea00355b5" y="356.084431"/>
     <use style="fill:#64b5cd;stroke:#64b5cd;" x="609.967593" xlink:href="#m6ea00355b5" y="408.340164"/>
     <use style="fill:#64b5cd;stroke:#64b5cd;" x="1036.8" xlink:href="#m6ea00355b5" y="303.73906"/>
     <use style="fill:#64b5cd;stroke:#64b5cd;" x="575.627105" xlink:href="#m6ea00355b5" y="436.610402"/>
     <use style="fill:#64b5cd;stroke:#64b5cd;" x="360.344327" xlink:href="#m6ea00355b5" y="480.530144"/>
     <use style="fill:#64b5cd;stroke:#64b5cd;" x="249.527955" xlink:href="#m6ea00355b5" y="495.209856"/>
     <use style="fill:#64b5cd;stroke:#64b5cd;" x="507.663192" xlink:href="#m6ea00355b5" y="454.985994"/>
     <use style="fill:#64b5cd;stroke:#64b5cd;" x="150.700188" xlink:href="#m6ea00355b5" y="535.231133"/>
     <use style="fill:#64b5cd;stroke:#64b5cd;" x="818.061978" xlink:href="#m6ea00355b5" y="357.719885"/>
     <use style="fill:#64b5cd;stroke:#64b5cd;" x="212.524646" xlink:href="#m6ea00355b5" y="518.415842"/>
     <use style="fill:#64b5cd;stroke:#64b5cd;" x="158.281979" xlink:href="#m6ea00355b5" y="535.57491"/>
     <use style="fill:#64b5cd;stroke:#64b5cd;" x="642.57872" xlink:href="#m6ea00355b5" y="417.188914"/>
     <use style="fill:#64b5cd;stroke:#64b5cd;" x="593.219174" xlink:href="#m6ea00355b5" y="421.453845"/>
     <use style="fill:#64b5cd;stroke:#64b5cd;" x="279.678799" xlink:href="#m6ea00355b5" y="509.798363"/>
     <use style="fill:#64b5cd;stroke:#64b5cd;" x="519.515061" xlink:href="#m6ea00355b5" y="435.995434"/>
     <use style="fill:#64b5cd;stroke:#64b5cd;" x="196.048891" xlink:href="#m6ea00355b5" y="529.969162"/>
     <use style="fill:#64b5cd;stroke:#64b5cd;" x="347.518199" xlink:href="#m6ea00355b5" y="474.211138"/>
     <use style="fill:#64b5cd;stroke:#64b5cd;" x="198.173023" xlink:href="#m6ea00355b5" y="516.752181"/>
     <use style="fill:#64b5cd;stroke:#64b5cd;" x="144" xlink:href="#m6ea00355b5" y="524.867337"/>
     <use style="fill:#64b5cd;stroke:#64b5cd;" x="941.611453" xlink:href="#m6ea00355b5" y="347.320539"/>
     <use style="fill:#64b5cd;stroke:#64b5cd;" x="961.841651" xlink:href="#m6ea00355b5" y="297.076991"/>
     <use style="fill:#64b5cd;stroke:#64b5cd;" x="661.202944" xlink:href="#m6ea00355b5" y="423.183853"/>
     <use style="fill:#64b5cd;stroke:#64b5cd;" x="591.638302" xlink:href="#m6ea00355b5" y="410.64842"/>
     <use style="fill:#64b5cd;stroke:#64b5cd;" x="489.455245" xlink:href="#m6ea00355b5" y="426.640965"/>
     <use style="fill:#64b5cd;stroke:#64b5cd;" x="955.034338" xlink:href="#m6ea00355b5" y="295.089578"/>
     <use style="fill:#64b5cd;stroke:#64b5cd;" x="157.56788" xlink:href="#m6ea00355b5" y="530.615132"/>
     <use style="fill:#64b5cd;stroke:#64b5cd;" x="169.199386" xlink:href="#m6ea00355b5" y="530.826097"/>
     <use style="fill:#64b5cd;stroke:#64b5cd;" x="909.76292" xlink:href="#m6ea00355b5" y="339.202288"/>
     <use style="fill:#64b5cd;stroke:#64b5cd;" x="531.886537" xlink:href="#m6ea00355b5" y="428.51386"/>
     <use style="fill:#64b5cd;stroke:#64b5cd;" x="180.851032" xlink:href="#m6ea00355b5" y="524.923685"/>
     <use style="fill:#64b5cd;stroke:#64b5cd;" x="200.19021" xlink:href="#m6ea00355b5" y="504.199982"/>
     <use style="fill:#64b5cd;stroke:#64b5cd;" x="1013.613824" xlink:href="#m6ea00355b5" y="282.094077"/>
     <use style="fill:#64b5cd;stroke:#64b5cd;" x="167.130527" xlink:href="#m6ea00355b5" y="533.76964"/>
     <use style="fill:#64b5cd;stroke:#64b5cd;" x="159.758281" xlink:href="#m6ea00355b5" y="543.834003"/>
     <use style="fill:#64b5cd;stroke:#64b5cd;" x="706.81576" xlink:href="#m6ea00355b5" y="421.231633"/>
     <use style="fill:#64b5cd;stroke:#64b5cd;" x="235.529349" xlink:href="#m6ea00355b5" y="509.092654"/>
     <use style="fill:#64b5cd;stroke:#64b5cd;" x="821.406523" xlink:href="#m6ea00355b5" y="384.369438"/>
     <use style="fill:#64b5cd;stroke:#64b5cd;" x="842.287058" xlink:href="#m6ea00355b5" y="364.697221"/>
     <use style="fill:#64b5cd;stroke:#64b5cd;" x="283.790278" xlink:href="#m6ea00355b5" y="489.339082"/>
     <use style="fill:#64b5cd;stroke:#64b5cd;" x="678.96638" xlink:href="#m6ea00355b5" y="385.456367"/>
     <use style="fill:#64b5cd;stroke:#64b5cd;" x="831.024963" xlink:href="#m6ea00355b5" y="377.287707"/>
     <use style="fill:#64b5cd;stroke:#64b5cd;" x="455.995693" xlink:href="#m6ea00355b5" y="453.215676"/>
     <use style="fill:#64b5cd;stroke:#64b5cd;" x="269.508299" xlink:href="#m6ea00355b5" y="496.41199"/>
    </g>
   </g>
   <g id="line2d_17">
    <defs>
     <path d="M 0 3 
C 0.795609 3 1.55874 2.683901 2.12132 2.12132 
C 2.683901 1.55874 3 0.795609 3 0 
C 3 -0.795609 2.683901 -1.55874 2.12132 -2.12132 
C 1.55874 -2.683901 0.795609 -3 0 -3 
C -0.795609 -3 -1.55874 -2.683901 -2.12132 -2.12132 
C -2.683901 -1.55874 -3 -0.795609 -3 0 
C -3 0.795609 -2.683901 1.55874 -2.12132 2.12132 
C -1.55874 2.683901 -0.795609 3 0 3 
z
" id="mb14bcb27d7" style="stroke:#8172b3;"/>
    </defs>
    <g clip-path="url(#p9c13246bbc)">
     <use style="fill:#8172b3;stroke:#8172b3;" x="940.879339" xlink:href="#mb14bcb27d7" y="387.597873"/>
     <use style="fill:#8172b3;stroke:#8172b3;" x="992.821422" xlink:href="#mb14bcb27d7" y="336.226658"/>
     <use style="fill:#8172b3;stroke:#8172b3;" x="655.128598" xlink:href="#mb14bcb27d7" y="459.360704"/>
     <use style="fill:#8172b3;stroke:#8172b3;" x="652.679888" xlink:href="#mb14bcb27d7" y="403.481161"/>
     <use style="fill:#8172b3;stroke:#8172b3;" x="799.278349" xlink:href="#mb14bcb27d7" y="353.7789"/>
     <use style="fill:#8172b3;stroke:#8172b3;" x="445.508443" xlink:href="#mb14bcb27d7" y="417.679771"/>
     <use style="fill:#8172b3;stroke:#8172b3;" x="166.613133" xlink:href="#mb14bcb27d7" y="536.021962"/>
     <use style="fill:#8172b3;stroke:#8172b3;" x="752.072667" xlink:href="#mb14bcb27d7" y="452.057785"/>
     <use style="fill:#8172b3;stroke:#8172b3;" x="700.534334" xlink:href="#mb14bcb27d7" y="432.732615"/>
     <use style="fill:#8172b3;stroke:#8172b3;" x="910.456883" xlink:href="#mb14bcb27d7" y="303.406217"/>
     <use style="fill:#8172b3;stroke:#8172b3;" x="200.951595" xlink:href="#mb14bcb27d7" y="470.067854"/>
     <use style="fill:#8172b3;stroke:#8172b3;" x="385.206754" xlink:href="#mb14bcb27d7" y="479.615181"/>
     <use style="fill:#8172b3;stroke:#8172b3;" x="788.05992" xlink:href="#mb14bcb27d7" y="361.51628"/>
     <use style="fill:#8172b3;stroke:#8172b3;" x="981.700238" xlink:href="#mb14bcb27d7" y="285.586257"/>
     <use style="fill:#8172b3;stroke:#8172b3;" x="944.821788" xlink:href="#mb14bcb27d7" y="363.08619"/>
     <use style="fill:#8172b3;stroke:#8172b3;" x="364.101163" xlink:href="#mb14bcb27d7" y="462.689464"/>
     <use style="fill:#8172b3;stroke:#8172b3;" x="144" xlink:href="#mb14bcb27d7" y="536.936778"/>
     <use style="fill:#8172b3;stroke:#8172b3;" x="1030.888344" xlink:href="#mb14bcb27d7" y="172.678943"/>
     <use style="fill:#8172b3;stroke:#8172b3;" x="421.91213" xlink:href="#mb14bcb27d7" y="454.15713"/>
     <use style="fill:#8172b3;stroke:#8172b3;" x="861.831301" xlink:href="#mb14bcb27d7" y="286.464279"/>
     <use style="fill:#8172b3;stroke:#8172b3;" x="910.88017" xlink:href="#mb14bcb27d7" y="336.332962"/>
     <use style="fill:#8172b3;stroke:#8172b3;" x="176.304476" xlink:href="#mb14bcb27d7" y="491.586361"/>
     <use style="fill:#8172b3;stroke:#8172b3;" x="451.538612" xlink:href="#mb14bcb27d7" y="465.392107"/>
     <use style="fill:#8172b3;stroke:#8172b3;" x="1004.974109" xlink:href="#mb14bcb27d7" y="292.652289"/>
     <use style="fill:#8172b3;stroke:#8172b3;" x="970.994586" xlink:href="#mb14bcb27d7" y="291.882704"/>
     <use style="fill:#8172b3;stroke:#8172b3;" x="508.68164" xlink:href="#mb14bcb27d7" y="479.705409"/>
     <use style="fill:#8172b3;stroke:#8172b3;" x="895.761051" xlink:href="#mb14bcb27d7" y="324.607426"/>
     <use style="fill:#8172b3;stroke:#8172b3;" x="341.978435" xlink:href="#mb14bcb27d7" y="468.143264"/>
     <use style="fill:#8172b3;stroke:#8172b3;" x="891.165896" xlink:href="#mb14bcb27d7" y="355.729746"/>
     <use style="fill:#8172b3;stroke:#8172b3;" x="265.652932" xlink:href="#mb14bcb27d7" y="519.686628"/>
     <use style="fill:#8172b3;stroke:#8172b3;" x="1020.518237" xlink:href="#mb14bcb27d7" y="238.554622"/>
     <use style="fill:#8172b3;stroke:#8172b3;" x="723.420573" xlink:href="#mb14bcb27d7" y="401.010919"/>
     <use style="fill:#8172b3;stroke:#8172b3;" x="893.824661" xlink:href="#mb14bcb27d7" y="323.216202"/>
     <use style="fill:#8172b3;stroke:#8172b3;" x="735.522429" xlink:href="#mb14bcb27d7" y="441.236036"/>
     <use style="fill:#8172b3;stroke:#8172b3;" x="169.925885" xlink:href="#mb14bcb27d7" y="535.44803"/>
     <use style="fill:#8172b3;stroke:#8172b3;" x="886.484695" xlink:href="#mb14bcb27d7" y="314.150284"/>
     <use style="fill:#8172b3;stroke:#8172b3;" x="708.589339" xlink:href="#mb14bcb27d7" y="404.72288"/>
     <use style="fill:#8172b3;stroke:#8172b3;" x="791.101671" xlink:href="#mb14bcb27d7" y="388.679736"/>
     <use style="fill:#8172b3;stroke:#8172b3;" x="792.822976" xlink:href="#mb14bcb27d7" y="413.645542"/>
     <use style="fill:#8172b3;stroke:#8172b3;" x="890.505843" xlink:href="#mb14bcb27d7" y="365.12509"/>
     <use style="fill:#8172b3;stroke:#8172b3;" x="825.409081" xlink:href="#mb14bcb27d7" y="382.60815"/>
     <use style="fill:#8172b3;stroke:#8172b3;" x="144" xlink:href="#mb14bcb27d7" y="491.185052"/>
     <use style="fill:#8172b3;stroke:#8172b3;" x="462.920784" xlink:href="#mb14bcb27d7" y="445.632226"/>
     <use style="fill:#8172b3;stroke:#8172b3;" x="369.185176" xlink:href="#mb14bcb27d7" y="482.569877"/>
     <use style="fill:#8172b3;stroke:#8172b3;" x="571.765103" xlink:href="#mb14bcb27d7" y="487.294267"/>
     <use style="fill:#8172b3;stroke:#8172b3;" x="267.22519" xlink:href="#mb14bcb27d7" y="489.647975"/>
     <use style="fill:#8172b3;stroke:#8172b3;" x="188.570813" xlink:href="#mb14bcb27d7" y="527.717616"/>
     <use style="fill:#8172b3;stroke:#8172b3;" x="261.132776" xlink:href="#mb14bcb27d7" y="511.997122"/>
     <use style="fill:#8172b3;stroke:#8172b3;" x="240.09276" xlink:href="#mb14bcb27d7" y="510.811565"/>
     <use style="fill:#8172b3;stroke:#8172b3;" x="186.100615" xlink:href="#mb14bcb27d7" y="515.304627"/>
    </g>
   </g>
   <g id="patch_3">
    <path d="M 144 630 
L 144 86.4 
" style="fill:none;stroke:#cccccc;stroke-linecap:square;stroke-linejoin:miter;stroke-width:1.25;"/>
   </g>
   <g id="patch_4">
    <path d="M 1036.8 630 
L 1036.8 86.4 
" style="fill:none;stroke:#cccccc;stroke-linecap:square;stroke-linejoin:miter;stroke-width:1.25;"/>
   </g>
   <g id="patch_5">
    <path d="M 144 630 
L 1036.8 630 
" style="fill:none;stroke:#cccccc;stroke-linecap:square;stroke-linejoin:miter;stroke-width:1.25;"/>
   </g>
   <g id="patch_6">
    <path d="M 144 86.4 
L 1036.8 86.4 
" style="fill:none;stroke:#cccccc;stroke-linecap:square;stroke-linejoin:miter;stroke-width:1.25;"/>
   </g>
  </g>
 </g>
 <defs>
  <clipPath id="p9c13246bbc">
   <rect height="543.6" width="892.8" x="144" y="86.4"/>
  </clipPath>
 </defs>
</svg>
