<?xml version="1.0" encoding="utf-8" standalone="no"?>
<!DOCTYPE svg PUBLIC "-//W3C//DTD SVG 1.1//EN"
  "http://www.w3.org/Graphics/SVG/1.1/DTD/svg11.dtd">
<!-- Created with matplotlib (https://matplotlib.org/) -->
<svg height="288pt" version="1.1" viewBox="0 0 432 288" width="432pt" xmlns="http://www.w3.org/2000/svg" xmlns:xlink="http://www.w3.org/1999/xlink">
 <defs>
  <style type="text/css">
*{stroke-linecap:butt;stroke-linejoin:round;}
  </style>
 </defs>
 <g id="figure_1">
  <g id="patch_1">
   <path d="M 0 288 
L 432 288 
L 432 0 
L 0 0 
z
" style="fill:#ffffff;"/>
  </g>
  <g id="axes_1">
   <g id="patch_2">
    <path d="M 54 252 
L 388.8 252 
L 388.8 34.56 
L 54 34.56 
z
" style="fill:#ffffff;"/>
   </g>
   <g id="matplotlib.axis_1">
    <g id="xtick_1">
     <g id="line2d_1">
      <path clip-path="url(#p77ed0fbddc)" d="M 97.702771 252 
L 97.702771 34.56 
" style="fill:none;stroke:#cccccc;stroke-linecap:round;"/>
     </g>
     <g id="text_1">
      <!-- −4 -->
      <defs>
       <path d="M 52.828125 31.203125 
L 5.5625 31.203125 
L 5.5625 39.40625 
L 52.828125 39.40625 
z
" id="ArialMT-8722"/>
       <path d="M 32.328125 0 
L 32.328125 17.140625 
L 1.265625 17.140625 
L 1.265625 25.203125 
L 33.9375 71.578125 
L 41.109375 71.578125 
L 41.109375 25.203125 
L 50.78125 25.203125 
L 50.78125 17.140625 
L 41.109375 17.140625 
L 41.109375 0 
z
M 32.328125 25.203125 
L 32.328125 57.46875 
L 9.90625 25.203125 
z
" id="ArialMT-52"/>
      </defs>
      <g style="fill:#262626;" transform="translate(85.161052 277.247187)scale(0.22 -0.22)">
       <use xlink:href="#ArialMT-8722"/>
       <use x="58.398438" xlink:href="#ArialMT-52"/>
      </g>
     </g>
    </g>
    <g id="xtick_2">
     <g id="line2d_2">
      <path clip-path="url(#p77ed0fbddc)" d="M 173.287859 252 
L 173.287859 34.56 
" style="fill:none;stroke:#cccccc;stroke-linecap:round;"/>
     </g>
     <g id="text_2">
      <!-- −2 -->
      <defs>
       <path d="M 50.34375 8.453125 
L 50.34375 0 
L 3.03125 0 
Q 2.9375 3.171875 4.046875 6.109375 
Q 5.859375 10.9375 9.828125 15.625 
Q 13.8125 20.3125 21.34375 26.46875 
Q 33.015625 36.03125 37.109375 41.625 
Q 41.21875 47.21875 41.21875 52.203125 
Q 41.21875 57.421875 37.46875 61 
Q 33.734375 64.59375 27.734375 64.59375 
Q 21.390625 64.59375 17.578125 60.78125 
Q 13.765625 56.984375 13.71875 50.25 
L 4.6875 51.171875 
Q 5.609375 61.28125 11.65625 66.578125 
Q 17.71875 71.875 27.9375 71.875 
Q 38.234375 71.875 44.234375 66.15625 
Q 50.25 60.453125 50.25 52 
Q 50.25 47.703125 48.484375 43.546875 
Q 46.734375 39.40625 42.65625 34.8125 
Q 38.578125 30.21875 29.109375 22.21875 
Q 21.1875 15.578125 18.9375 13.203125 
Q 16.703125 10.84375 15.234375 8.453125 
z
" id="ArialMT-50"/>
      </defs>
      <g style="fill:#262626;" transform="translate(160.746141 277.247187)scale(0.22 -0.22)">
       <use xlink:href="#ArialMT-8722"/>
       <use x="58.398438" xlink:href="#ArialMT-50"/>
      </g>
     </g>
    </g>
    <g id="xtick_3">
     <g id="line2d_3">
      <path clip-path="url(#p77ed0fbddc)" d="M 248.872948 252 
L 248.872948 34.56 
" style="fill:none;stroke:#cccccc;stroke-linecap:round;"/>
     </g>
     <g id="text_3">
      <!-- 0 -->
      <defs>
       <path d="M 4.15625 35.296875 
Q 4.15625 48 6.765625 55.734375 
Q 9.375 63.484375 14.515625 67.671875 
Q 19.671875 71.875 27.484375 71.875 
Q 33.25 71.875 37.59375 69.546875 
Q 41.9375 67.234375 44.765625 62.859375 
Q 47.609375 58.5 49.21875 52.21875 
Q 50.828125 45.953125 50.828125 35.296875 
Q 50.828125 22.703125 48.234375 14.96875 
Q 45.65625 7.234375 40.5 3 
Q 35.359375 -1.21875 27.484375 -1.21875 
Q 17.140625 -1.21875 11.234375 6.203125 
Q 4.15625 15.140625 4.15625 35.296875 
z
M 13.1875 35.296875 
Q 13.1875 17.671875 17.3125 11.828125 
Q 21.4375 6 27.484375 6 
Q 33.546875 6 37.671875 11.859375 
Q 41.796875 17.71875 41.796875 35.296875 
Q 41.796875 52.984375 37.671875 58.78125 
Q 33.546875 64.59375 27.390625 64.59375 
Q 21.34375 64.59375 17.71875 59.46875 
Q 13.1875 52.9375 13.1875 35.296875 
z
" id="ArialMT-48"/>
      </defs>
      <g style="fill:#262626;" transform="translate(242.755916 277.247187)scale(0.22 -0.22)">
       <use xlink:href="#ArialMT-48"/>
      </g>
     </g>
    </g>
    <g id="xtick_4">
     <g id="line2d_4">
      <path clip-path="url(#p77ed0fbddc)" d="M 324.458036 252 
L 324.458036 34.56 
" style="fill:none;stroke:#cccccc;stroke-linecap:round;"/>
     </g>
     <g id="text_4">
      <!-- 2 -->
      <g style="fill:#262626;" transform="translate(318.341005 277.247187)scale(0.22 -0.22)">
       <use xlink:href="#ArialMT-50"/>
      </g>
     </g>
    </g>
    <g id="text_5">
     <!-- Yerr_normalized -->
     <defs>
      <path d="M 27.875 0 
L 27.875 30.328125 
L 0.296875 71.578125 
L 11.8125 71.578125 
L 25.921875 50 
Q 29.828125 43.953125 33.203125 37.890625 
Q 36.421875 43.5 41.015625 50.53125 
L 54.890625 71.578125 
L 65.921875 71.578125 
L 37.359375 30.328125 
L 37.359375 0 
z
" id="ArialMT-89"/>
      <path d="M 42.09375 16.703125 
L 51.171875 15.578125 
Q 49.03125 7.625 43.21875 3.21875 
Q 37.40625 -1.171875 28.375 -1.171875 
Q 17 -1.171875 10.328125 5.828125 
Q 3.65625 12.84375 3.65625 25.484375 
Q 3.65625 38.578125 10.390625 45.796875 
Q 17.140625 53.03125 27.875 53.03125 
Q 38.28125 53.03125 44.875 45.953125 
Q 51.46875 38.875 51.46875 26.03125 
Q 51.46875 25.25 51.421875 23.6875 
L 12.75 23.6875 
Q 13.234375 15.140625 17.578125 10.59375 
Q 21.921875 6.0625 28.421875 6.0625 
Q 33.25 6.0625 36.671875 8.59375 
Q 40.09375 11.140625 42.09375 16.703125 
z
M 13.234375 30.90625 
L 42.1875 30.90625 
Q 41.609375 37.453125 38.875 40.71875 
Q 34.671875 45.796875 27.984375 45.796875 
Q 21.921875 45.796875 17.796875 41.75 
Q 13.671875 37.703125 13.234375 30.90625 
z
" id="ArialMT-101"/>
      <path d="M 6.5 0 
L 6.5 51.859375 
L 14.40625 51.859375 
L 14.40625 44 
Q 17.4375 49.515625 20 51.265625 
Q 22.5625 53.03125 25.640625 53.03125 
Q 30.078125 53.03125 34.671875 50.203125 
L 31.640625 42.046875 
Q 28.421875 43.953125 25.203125 43.953125 
Q 22.3125 43.953125 20.015625 42.21875 
Q 17.71875 40.484375 16.75 37.40625 
Q 15.28125 32.71875 15.28125 27.15625 
L 15.28125 0 
z
" id="ArialMT-114"/>
      <path d="M -1.515625 -19.875 
L -1.515625 -13.53125 
L 56.734375 -13.53125 
L 56.734375 -19.875 
z
" id="ArialMT-95"/>
      <path d="M 6.59375 0 
L 6.59375 51.859375 
L 14.5 51.859375 
L 14.5 44.484375 
Q 20.21875 53.03125 31 53.03125 
Q 35.6875 53.03125 39.625 51.34375 
Q 43.5625 49.65625 45.515625 46.921875 
Q 47.46875 44.1875 48.25 40.4375 
Q 48.734375 37.984375 48.734375 31.890625 
L 48.734375 0 
L 39.9375 0 
L 39.9375 31.546875 
Q 39.9375 36.921875 38.90625 39.578125 
Q 37.890625 42.234375 35.28125 43.8125 
Q 32.671875 45.40625 29.15625 45.40625 
Q 23.53125 45.40625 19.453125 41.84375 
Q 15.375 38.28125 15.375 28.328125 
L 15.375 0 
z
" id="ArialMT-110"/>
      <path d="M 3.328125 25.921875 
Q 3.328125 40.328125 11.328125 47.265625 
Q 18.015625 53.03125 27.640625 53.03125 
Q 38.328125 53.03125 45.109375 46.015625 
Q 51.90625 39.015625 51.90625 26.65625 
Q 51.90625 16.65625 48.90625 10.90625 
Q 45.90625 5.171875 40.15625 2 
Q 34.421875 -1.171875 27.640625 -1.171875 
Q 16.75 -1.171875 10.03125 5.8125 
Q 3.328125 12.796875 3.328125 25.921875 
z
M 12.359375 25.921875 
Q 12.359375 15.96875 16.703125 11.015625 
Q 21.046875 6.0625 27.640625 6.0625 
Q 34.1875 6.0625 38.53125 11.03125 
Q 42.875 16.015625 42.875 26.21875 
Q 42.875 35.84375 38.5 40.796875 
Q 34.125 45.75 27.640625 45.75 
Q 21.046875 45.75 16.703125 40.8125 
Q 12.359375 35.890625 12.359375 25.921875 
z
" id="ArialMT-111"/>
      <path d="M 6.59375 0 
L 6.59375 51.859375 
L 14.453125 51.859375 
L 14.453125 44.578125 
Q 16.890625 48.390625 20.9375 50.703125 
Q 25 53.03125 30.171875 53.03125 
Q 35.9375 53.03125 39.625 50.640625 
Q 43.3125 48.25 44.828125 43.953125 
Q 50.984375 53.03125 60.84375 53.03125 
Q 68.5625 53.03125 72.703125 48.75 
Q 76.859375 44.484375 76.859375 35.59375 
L 76.859375 0 
L 68.109375 0 
L 68.109375 32.671875 
Q 68.109375 37.9375 67.25 40.25 
Q 66.40625 42.578125 64.15625 43.984375 
Q 61.921875 45.40625 58.890625 45.40625 
Q 53.421875 45.40625 49.796875 41.765625 
Q 46.1875 38.140625 46.1875 30.125 
L 46.1875 0 
L 37.40625 0 
L 37.40625 33.6875 
Q 37.40625 39.546875 35.25 42.46875 
Q 33.109375 45.40625 28.21875 45.40625 
Q 24.515625 45.40625 21.359375 43.453125 
Q 18.21875 41.5 16.796875 37.734375 
Q 15.375 33.984375 15.375 26.90625 
L 15.375 0 
z
" id="ArialMT-109"/>
      <path d="M 40.4375 6.390625 
Q 35.546875 2.25 31.03125 0.53125 
Q 26.515625 -1.171875 21.34375 -1.171875 
Q 12.796875 -1.171875 8.203125 3 
Q 3.609375 7.171875 3.609375 13.671875 
Q 3.609375 17.484375 5.34375 20.625 
Q 7.078125 23.78125 9.890625 25.6875 
Q 12.703125 27.59375 16.21875 28.5625 
Q 18.796875 29.25 24.03125 29.890625 
Q 34.671875 31.15625 39.703125 32.90625 
Q 39.75 34.71875 39.75 35.203125 
Q 39.75 40.578125 37.25 42.78125 
Q 33.890625 45.75 27.25 45.75 
Q 21.046875 45.75 18.09375 43.578125 
Q 15.140625 41.40625 13.71875 35.890625 
L 5.125 37.0625 
Q 6.296875 42.578125 8.984375 45.96875 
Q 11.671875 49.359375 16.75 51.1875 
Q 21.828125 53.03125 28.515625 53.03125 
Q 35.15625 53.03125 39.296875 51.46875 
Q 43.453125 49.90625 45.40625 47.53125 
Q 47.359375 45.171875 48.140625 41.546875 
Q 48.578125 39.3125 48.578125 33.453125 
L 48.578125 21.734375 
Q 48.578125 9.46875 49.140625 6.21875 
Q 49.703125 2.984375 51.375 0 
L 42.1875 0 
Q 40.828125 2.734375 40.4375 6.390625 
z
M 39.703125 26.03125 
Q 34.90625 24.078125 25.34375 22.703125 
Q 19.921875 21.921875 17.671875 20.9375 
Q 15.4375 19.96875 14.203125 18.09375 
Q 12.984375 16.21875 12.984375 13.921875 
Q 12.984375 10.40625 15.640625 8.0625 
Q 18.3125 5.71875 23.4375 5.71875 
Q 28.515625 5.71875 32.46875 7.9375 
Q 36.421875 10.15625 38.28125 14.015625 
Q 39.703125 17 39.703125 22.796875 
z
" id="ArialMT-97"/>
      <path d="M 6.390625 0 
L 6.390625 71.578125 
L 15.1875 71.578125 
L 15.1875 0 
z
" id="ArialMT-108"/>
      <path d="M 6.640625 61.46875 
L 6.640625 71.578125 
L 15.4375 71.578125 
L 15.4375 61.46875 
z
M 6.640625 0 
L 6.640625 51.859375 
L 15.4375 51.859375 
L 15.4375 0 
z
" id="ArialMT-105"/>
      <path d="M 1.953125 0 
L 1.953125 7.125 
L 34.96875 45.015625 
Q 29.34375 44.734375 25.046875 44.734375 
L 3.90625 44.734375 
L 3.90625 51.859375 
L 46.296875 51.859375 
L 46.296875 46.046875 
L 18.21875 13.140625 
L 12.796875 7.125 
Q 18.703125 7.5625 23.875 7.5625 
L 47.859375 7.5625 
L 47.859375 0 
z
" id="ArialMT-122"/>
      <path d="M 40.234375 0 
L 40.234375 6.546875 
Q 35.296875 -1.171875 25.734375 -1.171875 
Q 19.53125 -1.171875 14.328125 2.25 
Q 9.125 5.671875 6.265625 11.796875 
Q 3.421875 17.921875 3.421875 25.875 
Q 3.421875 33.640625 6 39.96875 
Q 8.59375 46.296875 13.765625 49.65625 
Q 18.953125 53.03125 25.34375 53.03125 
Q 30.03125 53.03125 33.6875 51.046875 
Q 37.359375 49.078125 39.65625 45.90625 
L 39.65625 71.578125 
L 48.390625 71.578125 
L 48.390625 0 
z
M 12.453125 25.875 
Q 12.453125 15.921875 16.640625 10.984375 
Q 20.84375 6.0625 26.5625 6.0625 
Q 32.328125 6.0625 36.34375 10.765625 
Q 40.375 15.484375 40.375 25.140625 
Q 40.375 35.796875 36.265625 40.765625 
Q 32.171875 45.75 26.171875 45.75 
Q 20.3125 45.75 16.375 40.96875 
Q 12.453125 36.1875 12.453125 25.875 
z
" id="ArialMT-100"/>
     </defs>
     <g style="fill:#262626;" transform="translate(133.385625 302.798437)scale(0.24 -0.24)">
      <use xlink:href="#ArialMT-89"/>
      <use x="66.558594" xlink:href="#ArialMT-101"/>
      <use x="122.173828" xlink:href="#ArialMT-114"/>
      <use x="155.474609" xlink:href="#ArialMT-114"/>
      <use x="188.775391" xlink:href="#ArialMT-95"/>
      <use x="244.390625" xlink:href="#ArialMT-110"/>
      <use x="300.005859" xlink:href="#ArialMT-111"/>
      <use x="355.621094" xlink:href="#ArialMT-114"/>
      <use x="388.921875" xlink:href="#ArialMT-109"/>
      <use x="472.222656" xlink:href="#ArialMT-97"/>
      <use x="527.837891" xlink:href="#ArialMT-108"/>
      <use x="550.054688" xlink:href="#ArialMT-105"/>
      <use x="572.271484" xlink:href="#ArialMT-122"/>
      <use x="622.271484" xlink:href="#ArialMT-101"/>
      <use x="677.886719" xlink:href="#ArialMT-100"/>
     </g>
    </g>
   </g>
   <g id="matplotlib.axis_2">
    <g id="ytick_1">
     <g id="line2d_5">
      <path clip-path="url(#p77ed0fbddc)" d="M 54 252 
L 388.8 252 
" style="fill:none;stroke:#cccccc;stroke-linecap:round;"/>
     </g>
     <g id="text_6">
      <!-- 0.0 -->
      <defs>
       <path d="M 9.078125 0 
L 9.078125 10.015625 
L 19.09375 10.015625 
L 19.09375 0 
z
" id="ArialMT-46"/>
      </defs>
      <g style="fill:#262626;" transform="translate(13.92 259.873594)scale(0.22 -0.22)">
       <use xlink:href="#ArialMT-48"/>
       <use x="55.615234" xlink:href="#ArialMT-46"/>
       <use x="83.398438" xlink:href="#ArialMT-48"/>
      </g>
     </g>
    </g>
    <g id="ytick_2">
     <g id="line2d_6">
      <path clip-path="url(#p77ed0fbddc)" d="M 54 175.263229 
L 388.8 175.263229 
" style="fill:none;stroke:#cccccc;stroke-linecap:round;"/>
     </g>
     <g id="text_7">
      <!-- 0.2 -->
      <g style="fill:#262626;" transform="translate(13.92 183.136823)scale(0.22 -0.22)">
       <use xlink:href="#ArialMT-48"/>
       <use x="55.615234" xlink:href="#ArialMT-46"/>
       <use x="83.398438" xlink:href="#ArialMT-50"/>
      </g>
     </g>
    </g>
    <g id="ytick_3">
     <g id="line2d_7">
      <path clip-path="url(#p77ed0fbddc)" d="M 54 98.526459 
L 388.8 98.526459 
" style="fill:none;stroke:#cccccc;stroke-linecap:round;"/>
     </g>
     <g id="text_8">
      <!-- 0.4 -->
      <g style="fill:#262626;" transform="translate(13.92 106.400053)scale(0.22 -0.22)">
       <use xlink:href="#ArialMT-48"/>
       <use x="55.615234" xlink:href="#ArialMT-46"/>
       <use x="83.398438" xlink:href="#ArialMT-52"/>
      </g>
     </g>
    </g>
   </g>
   <g id="patch_3">
    <path clip-path="url(#p77ed0fbddc)" d="M 112.166938 252 
L 130.372448 252 
L 130.372448 248.017582 
L 112.166938 248.017582 
z
" style="fill:#4c72b0;opacity:0.4;stroke:#ffffff;stroke-linejoin:miter;"/>
   </g>
   <g id="patch_4">
    <path clip-path="url(#p77ed0fbddc)" d="M 130.372448 252 
L 148.577958 252 
L 148.577958 248.017582 
L 130.372448 248.017582 
z
" style="fill:#4c72b0;opacity:0.4;stroke:#ffffff;stroke-linejoin:miter;"/>
   </g>
   <g id="patch_5">
    <path clip-path="url(#p77ed0fbddc)" d="M 148.577958 252 
L 166.783469 252 
L 166.783469 248.017582 
L 148.577958 248.017582 
z
" style="fill:#4c72b0;opacity:0.4;stroke:#ffffff;stroke-linejoin:miter;"/>
   </g>
   <g id="patch_6">
    <path clip-path="url(#p77ed0fbddc)" d="M 166.783469 252 
L 184.988979 252 
L 184.988979 228.105495 
L 166.783469 228.105495 
z
" style="fill:#4c72b0;opacity:0.4;stroke:#ffffff;stroke-linejoin:miter;"/>
   </g>
   <g id="patch_7">
    <path clip-path="url(#p77ed0fbddc)" d="M 184.988979 252 
L 203.19449 252 
L 203.19449 228.105495 
L 184.988979 228.105495 
z
" style="fill:#4c72b0;opacity:0.4;stroke:#ffffff;stroke-linejoin:miter;"/>
   </g>
   <g id="patch_8">
    <path clip-path="url(#p77ed0fbddc)" d="M 203.19449 252 
L 221.4 252 
L 221.4 132.527473 
L 203.19449 132.527473 
z
" style="fill:#4c72b0;opacity:0.4;stroke:#ffffff;stroke-linejoin:miter;"/>
   </g>
   <g id="patch_9">
    <path clip-path="url(#p77ed0fbddc)" d="M 221.4 252 
L 239.60551 252 
L 239.60551 44.914286 
L 221.4 44.914286 
z
" style="fill:#4c72b0;opacity:0.4;stroke:#ffffff;stroke-linejoin:miter;"/>
   </g>
   <g id="patch_10">
    <path clip-path="url(#p77ed0fbddc)" d="M 239.60551 252 
L 257.811021 252 
L 257.811021 140.492308 
L 239.60551 140.492308 
z
" style="fill:#4c72b0;opacity:0.4;stroke:#ffffff;stroke-linejoin:miter;"/>
   </g>
   <g id="patch_11">
    <path clip-path="url(#p77ed0fbddc)" d="M 257.811021 252 
L 276.016531 252 
L 276.016531 164.386813 
L 257.811021 164.386813 
z
" style="fill:#4c72b0;opacity:0.4;stroke:#ffffff;stroke-linejoin:miter;"/>
   </g>
   <g id="patch_12">
    <path clip-path="url(#p77ed0fbddc)" d="M 276.016531 252 
L 294.222042 252 
L 294.222042 160.404396 
L 276.016531 160.404396 
z
" style="fill:#4c72b0;opacity:0.4;stroke:#ffffff;stroke-linejoin:miter;"/>
   </g>
   <g id="patch_13">
    <path clip-path="url(#p77ed0fbddc)" d="M 294.222042 252 
L 312.427552 252 
L 312.427552 184.298901 
L 294.222042 184.298901 
z
" style="fill:#4c72b0;opacity:0.4;stroke:#ffffff;stroke-linejoin:miter;"/>
   </g>
   <g id="patch_14">
    <path clip-path="url(#p77ed0fbddc)" d="M 312.427552 252 
L 330.633062 252 
L 330.633062 200.228571 
L 312.427552 200.228571 
z
" style="fill:#4c72b0;opacity:0.4;stroke:#ffffff;stroke-linejoin:miter;"/>
   </g>
   <g id="LineCollection_1">
    <path clip-path="url(#p77ed0fbddc)" d="M 219.559296 252 
L 219.559296 241.128 
" style="fill:none;stroke:#4c72b0;"/>
    <path clip-path="url(#p77ed0fbddc)" d="M 261.772333 252 
L 261.772333 241.128 
" style="fill:none;stroke:#4c72b0;"/>
    <path clip-path="url(#p77ed0fbddc)" d="M 294.458658 252 
L 294.458658 241.128 
" style="fill:none;stroke:#4c72b0;"/>
    <path clip-path="url(#p77ed0fbddc)" d="M 166.161409 252 
L 166.161409 241.128 
" style="fill:none;stroke:#4c72b0;"/>
    <path clip-path="url(#p77ed0fbddc)" d="M 302.82175 252 
L 302.82175 241.128 
" style="fill:none;stroke:#4c72b0;"/>
    <path clip-path="url(#p77ed0fbddc)" d="M 298.834888 252 
L 298.834888 241.128 
" style="fill:none;stroke:#4c72b0;"/>
    <path clip-path="url(#p77ed0fbddc)" d="M 290.956123 252 
L 290.956123 241.128 
" style="fill:none;stroke:#4c72b0;"/>
    <path clip-path="url(#p77ed0fbddc)" d="M 209.798049 252 
L 209.798049 241.128 
" style="fill:none;stroke:#4c72b0;"/>
    <path clip-path="url(#p77ed0fbddc)" d="M 225.630086 252 
L 225.630086 241.128 
" style="fill:none;stroke:#4c72b0;"/>
    <path clip-path="url(#p77ed0fbddc)" d="M 268.371287 252 
L 268.371287 241.128 
" style="fill:none;stroke:#4c72b0;"/>
    <path clip-path="url(#p77ed0fbddc)" d="M 243.919687 252 
L 243.919687 241.128 
" style="fill:none;stroke:#4c72b0;"/>
    <path clip-path="url(#p77ed0fbddc)" d="M 310.390328 252 
L 310.390328 241.128 
" style="fill:none;stroke:#4c72b0;"/>
    <path clip-path="url(#p77ed0fbddc)" d="M 298.439556 252 
L 298.439556 241.128 
" style="fill:none;stroke:#4c72b0;"/>
    <path clip-path="url(#p77ed0fbddc)" d="M 226.880635 252 
L 226.880635 241.128 
" style="fill:none;stroke:#4c72b0;"/>
    <path clip-path="url(#p77ed0fbddc)" d="M 259.517179 252 
L 259.517179 241.128 
" style="fill:none;stroke:#4c72b0;"/>
    <path clip-path="url(#p77ed0fbddc)" d="M 309.410911 252 
L 309.410911 241.128 
" style="fill:none;stroke:#4c72b0;"/>
    <path clip-path="url(#p77ed0fbddc)" d="M 223.079814 252 
L 223.079814 241.128 
" style="fill:none;stroke:#4c72b0;"/>
    <path clip-path="url(#p77ed0fbddc)" d="M 237.535241 252 
L 237.535241 241.128 
" style="fill:none;stroke:#4c72b0;"/>
    <path clip-path="url(#p77ed0fbddc)" d="M 280.007294 252 
L 280.007294 241.128 
" style="fill:none;stroke:#4c72b0;"/>
    <path clip-path="url(#p77ed0fbddc)" d="M 230.701669 252 
L 230.701669 241.128 
" style="fill:none;stroke:#4c72b0;"/>
    <path clip-path="url(#p77ed0fbddc)" d="M 225.546852 252 
L 225.546852 241.128 
" style="fill:none;stroke:#4c72b0;"/>
    <path clip-path="url(#p77ed0fbddc)" d="M 286.245313 252 
L 286.245313 241.128 
" style="fill:none;stroke:#4c72b0;"/>
    <path clip-path="url(#p77ed0fbddc)" d="M 310.766358 252 
L 310.766358 241.128 
" style="fill:none;stroke:#4c72b0;"/>
    <path clip-path="url(#p77ed0fbddc)" d="M 242.313752 252 
L 242.313752 241.128 
" style="fill:none;stroke:#4c72b0;"/>
    <path clip-path="url(#p77ed0fbddc)" d="M 217.546517 252 
L 217.546517 241.128 
" style="fill:none;stroke:#4c72b0;"/>
    <path clip-path="url(#p77ed0fbddc)" d="M 299.469533 252 
L 299.469533 241.128 
" style="fill:none;stroke:#4c72b0;"/>
    <path clip-path="url(#p77ed0fbddc)" d="M 280.533034 252 
L 280.533034 241.128 
" style="fill:none;stroke:#4c72b0;"/>
    <path clip-path="url(#p77ed0fbddc)" d="M 214.163304 252 
L 214.163304 241.128 
" style="fill:none;stroke:#4c72b0;"/>
    <path clip-path="url(#p77ed0fbddc)" d="M 265.124757 252 
L 265.124757 241.128 
" style="fill:none;stroke:#4c72b0;"/>
    <path clip-path="url(#p77ed0fbddc)" d="M 209.572091 252 
L 209.572091 241.128 
" style="fill:none;stroke:#4c72b0;"/>
    <path clip-path="url(#p77ed0fbddc)" d="M 280.422487 252 
L 280.422487 241.128 
" style="fill:none;stroke:#4c72b0;"/>
    <path clip-path="url(#p77ed0fbddc)" d="M 313.507628 252 
L 313.507628 241.128 
" style="fill:none;stroke:#4c72b0;"/>
    <path clip-path="url(#p77ed0fbddc)" d="M 241.517927 252 
L 241.517927 241.128 
" style="fill:none;stroke:#4c72b0;"/>
    <path clip-path="url(#p77ed0fbddc)" d="M 214.260679 252 
L 214.260679 241.128 
" style="fill:none;stroke:#4c72b0;"/>
    <path clip-path="url(#p77ed0fbddc)" d="M 207.849806 252 
L 207.849806 241.128 
" style="fill:none;stroke:#4c72b0;"/>
    <path clip-path="url(#p77ed0fbddc)" d="M 240.571033 252 
L 240.571033 241.128 
" style="fill:none;stroke:#4c72b0;"/>
    <path clip-path="url(#p77ed0fbddc)" d="M 260.410734 252 
L 260.410734 241.128 
" style="fill:none;stroke:#4c72b0;"/>
    <path clip-path="url(#p77ed0fbddc)" d="M 324.316867 252 
L 324.316867 241.128 
" style="fill:none;stroke:#4c72b0;"/>
    <path clip-path="url(#p77ed0fbddc)" d="M 329.349701 252 
L 329.349701 241.128 
" style="fill:none;stroke:#4c72b0;"/>
    <path clip-path="url(#p77ed0fbddc)" d="M 295.049388 252 
L 295.049388 241.128 
" style="fill:none;stroke:#4c72b0;"/>
    <path clip-path="url(#p77ed0fbddc)" d="M 232.508353 252 
L 232.508353 241.128 
" style="fill:none;stroke:#4c72b0;"/>
    <path clip-path="url(#p77ed0fbddc)" d="M 275.159927 252 
L 275.159927 241.128 
" style="fill:none;stroke:#4c72b0;"/>
    <path clip-path="url(#p77ed0fbddc)" d="M 274.544954 252 
L 274.544954 241.128 
" style="fill:none;stroke:#4c72b0;"/>
    <path clip-path="url(#p77ed0fbddc)" d="M 267.285016 252 
L 267.285016 241.128 
" style="fill:none;stroke:#4c72b0;"/>
    <path clip-path="url(#p77ed0fbddc)" d="M 330.473636 252 
L 330.473636 241.128 
" style="fill:none;stroke:#4c72b0;"/>
    <path clip-path="url(#p77ed0fbddc)" d="M 224.245732 252 
L 224.245732 241.128 
" style="fill:none;stroke:#4c72b0;"/>
    <path clip-path="url(#p77ed0fbddc)" d="M 249.395735 252 
L 249.395735 241.128 
" style="fill:none;stroke:#4c72b0;"/>
    <path clip-path="url(#p77ed0fbddc)" d="M 231.803354 252 
L 231.803354 241.128 
" style="fill:none;stroke:#4c72b0;"/>
    <path clip-path="url(#p77ed0fbddc)" d="M 330.633062 252 
L 330.633062 241.128 
" style="fill:none;stroke:#4c72b0;"/>
    <path clip-path="url(#p77ed0fbddc)" d="M 226.951685 252 
L 226.951685 241.128 
" style="fill:none;stroke:#4c72b0;"/>
    <path clip-path="url(#p77ed0fbddc)" d="M 172.269244 252 
L 172.269244 241.128 
" style="fill:none;stroke:#4c72b0;"/>
    <path clip-path="url(#p77ed0fbddc)" d="M 250.878415 252 
L 250.878415 241.128 
" style="fill:none;stroke:#4c72b0;"/>
    <path clip-path="url(#p77ed0fbddc)" d="M 234.263517 252 
L 234.263517 241.128 
" style="fill:none;stroke:#4c72b0;"/>
    <path clip-path="url(#p77ed0fbddc)" d="M 226.807567 252 
L 226.807567 241.128 
" style="fill:none;stroke:#4c72b0;"/>
    <path clip-path="url(#p77ed0fbddc)" d="M 228.205009 252 
L 228.205009 241.128 
" style="fill:none;stroke:#4c72b0;"/>
    <path clip-path="url(#p77ed0fbddc)" d="M 226.467735 252 
L 226.467735 241.128 
" style="fill:none;stroke:#4c72b0;"/>
    <path clip-path="url(#p77ed0fbddc)" d="M 167.642322 252 
L 167.642322 241.128 
" style="fill:none;stroke:#4c72b0;"/>
    <path clip-path="url(#p77ed0fbddc)" d="M 297.484988 252 
L 297.484988 241.128 
" style="fill:none;stroke:#4c72b0;"/>
    <path clip-path="url(#p77ed0fbddc)" d="M 260.488638 252 
L 260.488638 241.128 
" style="fill:none;stroke:#4c72b0;"/>
    <path clip-path="url(#p77ed0fbddc)" d="M 211.015727 252 
L 211.015727 241.128 
" style="fill:none;stroke:#4c72b0;"/>
    <path clip-path="url(#p77ed0fbddc)" d="M 213.382403 252 
L 213.382403 241.128 
" style="fill:none;stroke:#4c72b0;"/>
    <path clip-path="url(#p77ed0fbddc)" d="M 288.021387 252 
L 288.021387 241.128 
" style="fill:none;stroke:#4c72b0;"/>
    <path clip-path="url(#p77ed0fbddc)" d="M 242.494468 252 
L 242.494468 241.128 
" style="fill:none;stroke:#4c72b0;"/>
    <path clip-path="url(#p77ed0fbddc)" d="M 277.785428 252 
L 277.785428 241.128 
" style="fill:none;stroke:#4c72b0;"/>
    <path clip-path="url(#p77ed0fbddc)" d="M 207.590429 252 
L 207.590429 241.128 
" style="fill:none;stroke:#4c72b0;"/>
    <path clip-path="url(#p77ed0fbddc)" d="M 228.48082 252 
L 228.48082 241.128 
" style="fill:none;stroke:#4c72b0;"/>
    <path clip-path="url(#p77ed0fbddc)" d="M 134.543661 252 
L 134.543661 241.128 
" style="fill:none;stroke:#4c72b0;"/>
    <path clip-path="url(#p77ed0fbddc)" d="M 263.642391 252 
L 263.642391 241.128 
" style="fill:none;stroke:#4c72b0;"/>
    <path clip-path="url(#p77ed0fbddc)" d="M 241.531091 252 
L 241.531091 241.128 
" style="fill:none;stroke:#4c72b0;"/>
    <path clip-path="url(#p77ed0fbddc)" d="M 289.395895 252 
L 289.395895 241.128 
" style="fill:none;stroke:#4c72b0;"/>
    <path clip-path="url(#p77ed0fbddc)" d="M 287.887501 252 
L 287.887501 241.128 
" style="fill:none;stroke:#4c72b0;"/>
    <path clip-path="url(#p77ed0fbddc)" d="M 272.763535 252 
L 272.763535 241.128 
" style="fill:none;stroke:#4c72b0;"/>
    <path clip-path="url(#p77ed0fbddc)" d="M 228.690628 252 
L 228.690628 241.128 
" style="fill:none;stroke:#4c72b0;"/>
    <path clip-path="url(#p77ed0fbddc)" d="M 235.280494 252 
L 235.280494 241.128 
" style="fill:none;stroke:#4c72b0;"/>
    <path clip-path="url(#p77ed0fbddc)" d="M 325.063571 252 
L 325.063571 241.128 
" style="fill:none;stroke:#4c72b0;"/>
    <path clip-path="url(#p77ed0fbddc)" d="M 286.389159 252 
L 286.389159 241.128 
" style="fill:none;stroke:#4c72b0;"/>
    <path clip-path="url(#p77ed0fbddc)" d="M 224.332125 252 
L 224.332125 241.128 
" style="fill:none;stroke:#4c72b0;"/>
    <path clip-path="url(#p77ed0fbddc)" d="M 239.123844 252 
L 239.123844 241.128 
" style="fill:none;stroke:#4c72b0;"/>
    <path clip-path="url(#p77ed0fbddc)" d="M 232.619738 252 
L 232.619738 241.128 
" style="fill:none;stroke:#4c72b0;"/>
    <path clip-path="url(#p77ed0fbddc)" d="M 285.438402 252 
L 285.438402 241.128 
" style="fill:none;stroke:#4c72b0;"/>
    <path clip-path="url(#p77ed0fbddc)" d="M 221.364837 252 
L 221.364837 241.128 
" style="fill:none;stroke:#4c72b0;"/>
    <path clip-path="url(#p77ed0fbddc)" d="M 264.127994 252 
L 264.127994 241.128 
" style="fill:none;stroke:#4c72b0;"/>
    <path clip-path="url(#p77ed0fbddc)" d="M 313.133169 252 
L 313.133169 241.128 
" style="fill:none;stroke:#4c72b0;"/>
    <path clip-path="url(#p77ed0fbddc)" d="M 216.787754 252 
L 216.787754 241.128 
" style="fill:none;stroke:#4c72b0;"/>
    <path clip-path="url(#p77ed0fbddc)" d="M 225.802834 252 
L 225.802834 241.128 
" style="fill:none;stroke:#4c72b0;"/>
    <path clip-path="url(#p77ed0fbddc)" d="M 305.895929 252 
L 305.895929 241.128 
" style="fill:none;stroke:#4c72b0;"/>
    <path clip-path="url(#p77ed0fbddc)" d="M 227.981784 252 
L 227.981784 241.128 
" style="fill:none;stroke:#4c72b0;"/>
    <path clip-path="url(#p77ed0fbddc)" d="M 272.606998 252 
L 272.606998 241.128 
" style="fill:none;stroke:#4c72b0;"/>
    <path clip-path="url(#p77ed0fbddc)" d="M 264.919358 252 
L 264.919358 241.128 
" style="fill:none;stroke:#4c72b0;"/>
    <path clip-path="url(#p77ed0fbddc)" d="M 230.91844 252 
L 230.91844 241.128 
" style="fill:none;stroke:#4c72b0;"/>
    <path clip-path="url(#p77ed0fbddc)" d="M 250.809406 252 
L 250.809406 241.128 
" style="fill:none;stroke:#4c72b0;"/>
    <path clip-path="url(#p77ed0fbddc)" d="M 201.862492 252 
L 201.862492 241.128 
" style="fill:none;stroke:#4c72b0;"/>
    <path clip-path="url(#p77ed0fbddc)" d="M 316.484205 252 
L 316.484205 241.128 
" style="fill:none;stroke:#4c72b0;"/>
    <path clip-path="url(#p77ed0fbddc)" d="M 218.528407 252 
L 218.528407 241.128 
" style="fill:none;stroke:#4c72b0;"/>
    <path clip-path="url(#p77ed0fbddc)" d="M 236.254494 252 
L 236.254494 241.128 
" style="fill:none;stroke:#4c72b0;"/>
    <path clip-path="url(#p77ed0fbddc)" d="M 260.463925 252 
L 260.463925 241.128 
" style="fill:none;stroke:#4c72b0;"/>
    <path clip-path="url(#p77ed0fbddc)" d="M 235.317072 252 
L 235.317072 241.128 
" style="fill:none;stroke:#4c72b0;"/>
    <path clip-path="url(#p77ed0fbddc)" d="M 232.541751 252 
L 232.541751 241.128 
" style="fill:none;stroke:#4c72b0;"/>
    <path clip-path="url(#p77ed0fbddc)" d="M 282.523095 252 
L 282.523095 241.128 
" style="fill:none;stroke:#4c72b0;"/>
    <path clip-path="url(#p77ed0fbddc)" d="M 199.492789 252 
L 199.492789 241.128 
" style="fill:none;stroke:#4c72b0;"/>
    <path clip-path="url(#p77ed0fbddc)" d="M 256.378629 252 
L 256.378629 241.128 
" style="fill:none;stroke:#4c72b0;"/>
    <path clip-path="url(#p77ed0fbddc)" d="M 269.95118 252 
L 269.95118 241.128 
" style="fill:none;stroke:#4c72b0;"/>
    <path clip-path="url(#p77ed0fbddc)" d="M 241.363816 252 
L 241.363816 241.128 
" style="fill:none;stroke:#4c72b0;"/>
    <path clip-path="url(#p77ed0fbddc)" d="M 282.779238 252 
L 282.779238 241.128 
" style="fill:none;stroke:#4c72b0;"/>
    <path clip-path="url(#p77ed0fbddc)" d="M 195.335331 252 
L 195.335331 241.128 
" style="fill:none;stroke:#4c72b0;"/>
    <path clip-path="url(#p77ed0fbddc)" d="M 211.927112 252 
L 211.927112 241.128 
" style="fill:none;stroke:#4c72b0;"/>
    <path clip-path="url(#p77ed0fbddc)" d="M 272.488286 252 
L 272.488286 241.128 
" style="fill:none;stroke:#4c72b0;"/>
    <path clip-path="url(#p77ed0fbddc)" d="M 251.768977 252 
L 251.768977 241.128 
" style="fill:none;stroke:#4c72b0;"/>
    <path clip-path="url(#p77ed0fbddc)" d="M 238.758262 252 
L 238.758262 241.128 
" style="fill:none;stroke:#4c72b0;"/>
    <path clip-path="url(#p77ed0fbddc)" d="M 242.895579 252 
L 242.895579 241.128 
" style="fill:none;stroke:#4c72b0;"/>
    <path clip-path="url(#p77ed0fbddc)" d="M 281.639992 252 
L 281.639992 241.128 
" style="fill:none;stroke:#4c72b0;"/>
    <path clip-path="url(#p77ed0fbddc)" d="M 241.184698 252 
L 241.184698 241.128 
" style="fill:none;stroke:#4c72b0;"/>
    <path clip-path="url(#p77ed0fbddc)" d="M 196.215108 252 
L 196.215108 241.128 
" style="fill:none;stroke:#4c72b0;"/>
    <path clip-path="url(#p77ed0fbddc)" d="M 254.869555 252 
L 254.869555 241.128 
" style="fill:none;stroke:#4c72b0;"/>
    <path clip-path="url(#p77ed0fbddc)" d="M 216.581752 252 
L 216.581752 241.128 
" style="fill:none;stroke:#4c72b0;"/>
    <path clip-path="url(#p77ed0fbddc)" d="M 278.292977 252 
L 278.292977 241.128 
" style="fill:none;stroke:#4c72b0;"/>
    <path clip-path="url(#p77ed0fbddc)" d="M 235.717631 252 
L 235.717631 241.128 
" style="fill:none;stroke:#4c72b0;"/>
    <path clip-path="url(#p77ed0fbddc)" d="M 210.290563 252 
L 210.290563 241.128 
" style="fill:none;stroke:#4c72b0;"/>
    <path clip-path="url(#p77ed0fbddc)" d="M 310.054005 252 
L 310.054005 241.128 
" style="fill:none;stroke:#4c72b0;"/>
    <path clip-path="url(#p77ed0fbddc)" d="M 274.54578 252 
L 274.54578 241.128 
" style="fill:none;stroke:#4c72b0;"/>
    <path clip-path="url(#p77ed0fbddc)" d="M 219.153491 252 
L 219.153491 241.128 
" style="fill:none;stroke:#4c72b0;"/>
    <path clip-path="url(#p77ed0fbddc)" d="M 234.419921 252 
L 234.419921 241.128 
" style="fill:none;stroke:#4c72b0;"/>
    <path clip-path="url(#p77ed0fbddc)" d="M 239.807993 252 
L 239.807993 241.128 
" style="fill:none;stroke:#4c72b0;"/>
    <path clip-path="url(#p77ed0fbddc)" d="M 209.772564 252 
L 209.772564 241.128 
" style="fill:none;stroke:#4c72b0;"/>
    <path clip-path="url(#p77ed0fbddc)" d="M 224.862205 252 
L 224.862205 241.128 
" style="fill:none;stroke:#4c72b0;"/>
    <path clip-path="url(#p77ed0fbddc)" d="M 202.186389 252 
L 202.186389 241.128 
" style="fill:none;stroke:#4c72b0;"/>
    <path clip-path="url(#p77ed0fbddc)" d="M 225.166629 252 
L 225.166629 241.128 
" style="fill:none;stroke:#4c72b0;"/>
    <path clip-path="url(#p77ed0fbddc)" d="M 245.028668 252 
L 245.028668 241.128 
" style="fill:none;stroke:#4c72b0;"/>
    <path clip-path="url(#p77ed0fbddc)" d="M 249.304922 252 
L 249.304922 241.128 
" style="fill:none;stroke:#4c72b0;"/>
    <path clip-path="url(#p77ed0fbddc)" d="M 274.339493 252 
L 274.339493 241.128 
" style="fill:none;stroke:#4c72b0;"/>
    <path clip-path="url(#p77ed0fbddc)" d="M 245.97757 252 
L 245.97757 241.128 
" style="fill:none;stroke:#4c72b0;"/>
    <path clip-path="url(#p77ed0fbddc)" d="M 169.678731 252 
L 169.678731 241.128 
" style="fill:none;stroke:#4c72b0;"/>
    <path clip-path="url(#p77ed0fbddc)" d="M 213.475429 252 
L 213.475429 241.128 
" style="fill:none;stroke:#4c72b0;"/>
    <path clip-path="url(#p77ed0fbddc)" d="M 229.931517 252 
L 229.931517 241.128 
" style="fill:none;stroke:#4c72b0;"/>
    <path clip-path="url(#p77ed0fbddc)" d="M 291.568223 252 
L 291.568223 241.128 
" style="fill:none;stroke:#4c72b0;"/>
    <path clip-path="url(#p77ed0fbddc)" d="M 229.043342 252 
L 229.043342 241.128 
" style="fill:none;stroke:#4c72b0;"/>
    <path clip-path="url(#p77ed0fbddc)" d="M 228.336571 252 
L 228.336571 241.128 
" style="fill:none;stroke:#4c72b0;"/>
    <path clip-path="url(#p77ed0fbddc)" d="M 223.077718 252 
L 223.077718 241.128 
" style="fill:none;stroke:#4c72b0;"/>
    <path clip-path="url(#p77ed0fbddc)" d="M 183.115077 252 
L 183.115077 241.128 
" style="fill:none;stroke:#4c72b0;"/>
    <path clip-path="url(#p77ed0fbddc)" d="M 225.31884 252 
L 225.31884 241.128 
" style="fill:none;stroke:#4c72b0;"/>
    <path clip-path="url(#p77ed0fbddc)" d="M 222.621681 252 
L 222.621681 241.128 
" style="fill:none;stroke:#4c72b0;"/>
    <path clip-path="url(#p77ed0fbddc)" d="M 300.125457 252 
L 300.125457 241.128 
" style="fill:none;stroke:#4c72b0;"/>
    <path clip-path="url(#p77ed0fbddc)" d="M 216.379117 252 
L 216.379117 241.128 
" style="fill:none;stroke:#4c72b0;"/>
    <path clip-path="url(#p77ed0fbddc)" d="M 277.376018 252 
L 277.376018 241.128 
" style="fill:none;stroke:#4c72b0;"/>
    <path clip-path="url(#p77ed0fbddc)" d="M 270.263855 252 
L 270.263855 241.128 
" style="fill:none;stroke:#4c72b0;"/>
    <path clip-path="url(#p77ed0fbddc)" d="M 218.489932 252 
L 218.489932 241.128 
" style="fill:none;stroke:#4c72b0;"/>
    <path clip-path="url(#p77ed0fbddc)" d="M 219.570472 252 
L 219.570472 241.128 
" style="fill:none;stroke:#4c72b0;"/>
    <path clip-path="url(#p77ed0fbddc)" d="M 313.130147 252 
L 313.130147 241.128 
" style="fill:none;stroke:#4c72b0;"/>
    <path clip-path="url(#p77ed0fbddc)" d="M 244.282134 252 
L 244.282134 241.128 
" style="fill:none;stroke:#4c72b0;"/>
    <path clip-path="url(#p77ed0fbddc)" d="M 204.517298 252 
L 204.517298 241.128 
" style="fill:none;stroke:#4c72b0;"/>
    <path clip-path="url(#p77ed0fbddc)" d="M 325.903329 252 
L 325.903329 241.128 
" style="fill:none;stroke:#4c72b0;"/>
    <path clip-path="url(#p77ed0fbddc)" d="M 291.618308 252 
L 291.618308 241.128 
" style="fill:none;stroke:#4c72b0;"/>
    <path clip-path="url(#p77ed0fbddc)" d="M 322.464504 252 
L 322.464504 241.128 
" style="fill:none;stroke:#4c72b0;"/>
    <path clip-path="url(#p77ed0fbddc)" d="M 253.450325 252 
L 253.450325 241.128 
" style="fill:none;stroke:#4c72b0;"/>
    <path clip-path="url(#p77ed0fbddc)" d="M 284.377768 252 
L 284.377768 241.128 
" style="fill:none;stroke:#4c72b0;"/>
    <path clip-path="url(#p77ed0fbddc)" d="M 213.395514 252 
L 213.395514 241.128 
" style="fill:none;stroke:#4c72b0;"/>
    <path clip-path="url(#p77ed0fbddc)" d="M 227.674922 252 
L 227.674922 241.128 
" style="fill:none;stroke:#4c72b0;"/>
    <path clip-path="url(#p77ed0fbddc)" d="M 283.8677 252 
L 283.8677 241.128 
" style="fill:none;stroke:#4c72b0;"/>
    <path clip-path="url(#p77ed0fbddc)" d="M 275.276895 252 
L 275.276895 241.128 
" style="fill:none;stroke:#4c72b0;"/>
    <path clip-path="url(#p77ed0fbddc)" d="M 279.675504 252 
L 279.675504 241.128 
" style="fill:none;stroke:#4c72b0;"/>
    <path clip-path="url(#p77ed0fbddc)" d="M 206.630211 252 
L 206.630211 241.128 
" style="fill:none;stroke:#4c72b0;"/>
    <path clip-path="url(#p77ed0fbddc)" d="M 221.222312 252 
L 221.222312 241.128 
" style="fill:none;stroke:#4c72b0;"/>
    <path clip-path="url(#p77ed0fbddc)" d="M 225.016559 252 
L 225.016559 241.128 
" style="fill:none;stroke:#4c72b0;"/>
    <path clip-path="url(#p77ed0fbddc)" d="M 183.547358 252 
L 183.547358 241.128 
" style="fill:none;stroke:#4c72b0;"/>
    <path clip-path="url(#p77ed0fbddc)" d="M 313.776866 252 
L 313.776866 241.128 
" style="fill:none;stroke:#4c72b0;"/>
    <path clip-path="url(#p77ed0fbddc)" d="M 225.4817 252 
L 225.4817 241.128 
" style="fill:none;stroke:#4c72b0;"/>
    <path clip-path="url(#p77ed0fbddc)" d="M 209.189671 252 
L 209.189671 241.128 
" style="fill:none;stroke:#4c72b0;"/>
    <path clip-path="url(#p77ed0fbddc)" d="M 112.166938 252 
L 112.166938 241.128 
" style="fill:none;stroke:#4c72b0;"/>
    <path clip-path="url(#p77ed0fbddc)" d="M 247.968352 252 
L 247.968352 241.128 
" style="fill:none;stroke:#4c72b0;"/>
    <path clip-path="url(#p77ed0fbddc)" d="M 194.702101 252 
L 194.702101 241.128 
" style="fill:none;stroke:#4c72b0;"/>
    <path clip-path="url(#p77ed0fbddc)" d="M 275.824241 252 
L 275.824241 241.128 
" style="fill:none;stroke:#4c72b0;"/>
    <path clip-path="url(#p77ed0fbddc)" d="M 210.70827 252 
L 210.70827 241.128 
" style="fill:none;stroke:#4c72b0;"/>
    <path clip-path="url(#p77ed0fbddc)" d="M 241.891955 252 
L 241.891955 241.128 
" style="fill:none;stroke:#4c72b0;"/>
    <path clip-path="url(#p77ed0fbddc)" d="M 300.478574 252 
L 300.478574 241.128 
" style="fill:none;stroke:#4c72b0;"/>
    <path clip-path="url(#p77ed0fbddc)" d="M 235.288411 252 
L 235.288411 241.128 
" style="fill:none;stroke:#4c72b0;"/>
    <path clip-path="url(#p77ed0fbddc)" d="M 251.428185 252 
L 251.428185 241.128 
" style="fill:none;stroke:#4c72b0;"/>
    <path clip-path="url(#p77ed0fbddc)" d="M 237.953555 252 
L 237.953555 241.128 
" style="fill:none;stroke:#4c72b0;"/>
    <path clip-path="url(#p77ed0fbddc)" d="M 241.740982 252 
L 241.740982 241.128 
" style="fill:none;stroke:#4c72b0;"/>
    <path clip-path="url(#p77ed0fbddc)" d="M 233.606175 252 
L 233.606175 241.128 
" style="fill:none;stroke:#4c72b0;"/>
    <path clip-path="url(#p77ed0fbddc)" d="M 230.60828 252 
L 230.60828 241.128 
" style="fill:none;stroke:#4c72b0;"/>
    <path clip-path="url(#p77ed0fbddc)" d="M 180.733448 252 
L 180.733448 241.128 
" style="fill:none;stroke:#4c72b0;"/>
    <path clip-path="url(#p77ed0fbddc)" d="M 222.630675 252 
L 222.630675 241.128 
" style="fill:none;stroke:#4c72b0;"/>
    <path clip-path="url(#p77ed0fbddc)" d="M 293.228305 252 
L 293.228305 241.128 
" style="fill:none;stroke:#4c72b0;"/>
    <path clip-path="url(#p77ed0fbddc)" d="M 296.301024 252 
L 296.301024 241.128 
" style="fill:none;stroke:#4c72b0;"/>
    <path clip-path="url(#p77ed0fbddc)" d="M 224.345645 252 
L 224.345645 241.128 
" style="fill:none;stroke:#4c72b0;"/>
    <path clip-path="url(#p77ed0fbddc)" d="M 228.283089 252 
L 228.283089 241.128 
" style="fill:none;stroke:#4c72b0;"/>
    <path clip-path="url(#p77ed0fbddc)" d="M 311.782987 252 
L 311.782987 241.128 
" style="fill:none;stroke:#4c72b0;"/>
    <path clip-path="url(#p77ed0fbddc)" d="M 255.960614 252 
L 255.960614 241.128 
" style="fill:none;stroke:#4c72b0;"/>
    <path clip-path="url(#p77ed0fbddc)" d="M 305.792666 252 
L 305.792666 241.128 
" style="fill:none;stroke:#4c72b0;"/>
    <path clip-path="url(#p77ed0fbddc)" d="M 316.091989 252 
L 316.091989 241.128 
" style="fill:none;stroke:#4c72b0;"/>
    <path clip-path="url(#p77ed0fbddc)" d="M 228.708273 252 
L 228.708273 241.128 
" style="fill:none;stroke:#4c72b0;"/>
    <path clip-path="url(#p77ed0fbddc)" d="M 204.403766 252 
L 204.403766 241.128 
" style="fill:none;stroke:#4c72b0;"/>
    <path clip-path="url(#p77ed0fbddc)" d="M 246.925817 252 
L 246.925817 241.128 
" style="fill:none;stroke:#4c72b0;"/>
    <path clip-path="url(#p77ed0fbddc)" d="M 226.882305 252 
L 226.882305 241.128 
" style="fill:none;stroke:#4c72b0;"/>
    <path clip-path="url(#p77ed0fbddc)" d="M 280.494704 252 
L 280.494704 241.128 
" style="fill:none;stroke:#4c72b0;"/>
    <path clip-path="url(#p77ed0fbddc)" d="M 226.066345 252 
L 226.066345 241.128 
" style="fill:none;stroke:#4c72b0;"/>
    <path clip-path="url(#p77ed0fbddc)" d="M 218.901644 252 
L 218.901644 241.128 
" style="fill:none;stroke:#4c72b0;"/>
    <path clip-path="url(#p77ed0fbddc)" d="M 248.671636 252 
L 248.671636 241.128 
" style="fill:none;stroke:#4c72b0;"/>
    <path clip-path="url(#p77ed0fbddc)" d="M 235.360106 252 
L 235.360106 241.128 
" style="fill:none;stroke:#4c72b0;"/>
    <path clip-path="url(#p77ed0fbddc)" d="M 224.64489 252 
L 224.64489 241.128 
" style="fill:none;stroke:#4c72b0;"/>
   </g>
   <g id="line2d_8">
    <path clip-path="url(#p77ed0fbddc)" d="M 69.218182 251.921478 
L 78.804438 251.856266 
L 85.99413 251.606685 
L 93.183822 251.124148 
L 105.166643 249.963224 
L 112.356335 249.373703 
L 119.546027 249.044901 
L 129.132283 248.928831 
L 136.321976 248.826293 
L 141.115104 248.52861 
L 143.511668 248.24588 
L 145.908232 247.844457 
L 148.304796 247.306961 
L 150.70136 246.622982 
L 153.097924 245.790991 
L 155.494488 244.818946 
L 160.287616 242.525697 
L 165.080744 239.912107 
L 169.873873 237.069074 
L 172.270437 235.524563 
L 174.667001 233.835352 
L 177.063565 231.925597 
L 179.460129 229.699107 
L 181.856693 227.044522 
L 184.253257 223.842582 
L 186.649821 219.974904 
L 189.046385 215.333612 
L 191.442949 209.831133 
L 193.839513 203.409545 
L 196.236077 196.04897 
L 198.632641 187.774586 
L 201.029205 178.661894 
L 203.42577 168.839851 
L 208.218898 147.850935 
L 213.012026 126.84621 
L 215.40859 117.129721 
L 217.805154 108.383088 
L 220.201718 100.920347 
L 222.598282 95.012266 
L 224.994846 90.865071 
L 227.39141 88.603036 
L 229.787974 88.257195 
L 232.184538 89.76171 
L 234.581102 92.958414 
L 236.977666 97.608952 
L 239.37423 103.413006 
L 241.770795 110.030442 
L 248.960487 131.25809 
L 251.357051 137.74048 
L 253.753615 143.51903 
L 256.150179 148.445645 
L 258.546743 152.444326 
L 260.943307 155.510537 
L 263.339871 157.705884 
L 265.736435 159.148379 
L 268.132999 159.998897 
L 270.529563 160.444833 
L 277.719256 161.257872 
L 280.11582 161.886818 
L 282.512384 162.870656 
L 284.908948 164.250177 
L 287.305512 166.025733 
L 289.702076 168.165155 
L 292.09864 170.61442 
L 294.495204 173.309318 
L 299.288332 179.191635 
L 304.08146 185.448253 
L 308.874588 191.964249 
L 313.667717 198.806665 
L 318.460845 206.058091 
L 325.650537 217.533944 
L 330.443665 225.159128 
L 335.236793 232.257502 
L 337.633357 235.470391 
L 340.029921 238.398605 
L 342.426485 241.011084 
L 344.823049 243.290586 
L 347.219613 245.234153 
L 349.616178 246.852251 
L 352.012742 248.166769 
L 354.409306 249.208192 
L 356.80587 250.012378 
L 359.202434 250.617351 
L 361.598998 251.060473 
L 366.392126 251.594826 
L 371.185254 251.835413 
L 373.581818 251.892026 
L 373.581818 251.892026 
" style="fill:none;stroke:#4c72b0;stroke-linecap:round;stroke-width:1.5;"/>
   </g>
   <g id="patch_15">
    <path d="M 54 252 
L 54 34.56 
" style="fill:none;stroke:#cccccc;stroke-linecap:square;stroke-linejoin:miter;stroke-width:1.25;"/>
   </g>
   <g id="patch_16">
    <path d="M 388.8 252 
L 388.8 34.56 
" style="fill:none;stroke:#cccccc;stroke-linecap:square;stroke-linejoin:miter;stroke-width:1.25;"/>
   </g>
   <g id="patch_17">
    <path d="M 54 252 
L 388.8 252 
" style="fill:none;stroke:#cccccc;stroke-linecap:square;stroke-linejoin:miter;stroke-width:1.25;"/>
   </g>
   <g id="patch_18">
    <path d="M 54 34.56 
L 388.8 34.56 
" style="fill:none;stroke:#cccccc;stroke-linecap:square;stroke-linejoin:miter;stroke-width:1.25;"/>
   </g>
  </g>
 </g>
 <defs>
  <clipPath id="p77ed0fbddc">
   <rect height="217.44" width="334.8" x="54" y="34.56"/>
  </clipPath>
 </defs>
</svg>
