<?xml version="1.0" encoding="utf-8" standalone="no"?>
<!DOCTYPE svg PUBLIC "-//W3C//DTD SVG 1.1//EN"
  "http://www.w3.org/Graphics/SVG/1.1/DTD/svg11.dtd">
<!-- Created with matplotlib (https://matplotlib.org/) -->
<svg height="720pt" version="1.1" viewBox="0 0 1152 720" width="1152pt" xmlns="http://www.w3.org/2000/svg" xmlns:xlink="http://www.w3.org/1999/xlink">
 <defs>
  <style type="text/css">
*{stroke-linecap:butt;stroke-linejoin:round;}
  </style>
 </defs>
 <g id="figure_1">
  <g id="patch_1">
   <path d="M 0 720 
L 1152 720 
L 1152 0 
L 0 0 
z
" style="fill:#ffffff;"/>
  </g>
  <g id="axes_1">
   <g id="patch_2">
    <path d="M 144 630 
L 1036.8 630 
L 1036.8 86.4 
L 144 86.4 
z
" style="fill:#ffffff;"/>
   </g>
   <g id="matplotlib.axis_1">
    <g id="xtick_1">
     <g id="line2d_1">
      <path clip-path="url(#p951cbb02c9)" d="M 144 630 
L 144 86.4 
" style="fill:none;stroke:#cccccc;stroke-linecap:round;"/>
     </g>
     <g id="text_1">
      <!-- 0.0 -->
      <defs>
       <path d="M 4.15625 35.296875 
Q 4.15625 48 6.765625 55.734375 
Q 9.375 63.484375 14.515625 67.671875 
Q 19.671875 71.875 27.484375 71.875 
Q 33.25 71.875 37.59375 69.546875 
Q 41.9375 67.234375 44.765625 62.859375 
Q 47.609375 58.5 49.21875 52.21875 
Q 50.828125 45.953125 50.828125 35.296875 
Q 50.828125 22.703125 48.234375 14.96875 
Q 45.65625 7.234375 40.5 3 
Q 35.359375 -1.21875 27.484375 -1.21875 
Q 17.140625 -1.21875 11.234375 6.203125 
Q 4.15625 15.140625 4.15625 35.296875 
z
M 13.1875 35.296875 
Q 13.1875 17.671875 17.3125 11.828125 
Q 21.4375 6 27.484375 6 
Q 33.546875 6 37.671875 11.859375 
Q 41.796875 17.71875 41.796875 35.296875 
Q 41.796875 52.984375 37.671875 58.78125 
Q 33.546875 64.59375 27.390625 64.59375 
Q 21.34375 64.59375 17.71875 59.46875 
Q 13.1875 52.9375 13.1875 35.296875 
z
" id="ArialMT-48"/>
       <path d="M 9.078125 0 
L 9.078125 10.015625 
L 19.09375 10.015625 
L 19.09375 0 
z
" id="ArialMT-46"/>
      </defs>
      <g style="fill:#262626;" transform="translate(128.71 655.247187)scale(0.22 -0.22)">
       <use xlink:href="#ArialMT-48"/>
       <use x="55.615234" xlink:href="#ArialMT-46"/>
       <use x="83.398438" xlink:href="#ArialMT-48"/>
      </g>
     </g>
    </g>
    <g id="xtick_2">
     <g id="line2d_2">
      <path clip-path="url(#p951cbb02c9)" d="M 297.845813 630 
L 297.845813 86.4 
" style="fill:none;stroke:#cccccc;stroke-linecap:round;"/>
     </g>
     <g id="text_2">
      <!-- 0.1 -->
      <defs>
       <path d="M 37.25 0 
L 28.46875 0 
L 28.46875 56 
Q 25.296875 52.984375 20.140625 49.953125 
Q 14.984375 46.921875 10.890625 45.40625 
L 10.890625 53.90625 
Q 18.265625 57.375 23.78125 62.296875 
Q 29.296875 67.234375 31.59375 71.875 
L 37.25 71.875 
z
" id="ArialMT-49"/>
      </defs>
      <g style="fill:#262626;" transform="translate(282.555813 655.247187)scale(0.22 -0.22)">
       <use xlink:href="#ArialMT-48"/>
       <use x="55.615234" xlink:href="#ArialMT-46"/>
       <use x="83.398438" xlink:href="#ArialMT-49"/>
      </g>
     </g>
    </g>
    <g id="xtick_3">
     <g id="line2d_3">
      <path clip-path="url(#p951cbb02c9)" d="M 451.691626 630 
L 451.691626 86.4 
" style="fill:none;stroke:#cccccc;stroke-linecap:round;"/>
     </g>
     <g id="text_3">
      <!-- 0.2 -->
      <defs>
       <path d="M 50.34375 8.453125 
L 50.34375 0 
L 3.03125 0 
Q 2.9375 3.171875 4.046875 6.109375 
Q 5.859375 10.9375 9.828125 15.625 
Q 13.8125 20.3125 21.34375 26.46875 
Q 33.015625 36.03125 37.109375 41.625 
Q 41.21875 47.21875 41.21875 52.203125 
Q 41.21875 57.421875 37.46875 61 
Q 33.734375 64.59375 27.734375 64.59375 
Q 21.390625 64.59375 17.578125 60.78125 
Q 13.765625 56.984375 13.71875 50.25 
L 4.6875 51.171875 
Q 5.609375 61.28125 11.65625 66.578125 
Q 17.71875 71.875 27.9375 71.875 
Q 38.234375 71.875 44.234375 66.15625 
Q 50.25 60.453125 50.25 52 
Q 50.25 47.703125 48.484375 43.546875 
Q 46.734375 39.40625 42.65625 34.8125 
Q 38.578125 30.21875 29.109375 22.21875 
Q 21.1875 15.578125 18.9375 13.203125 
Q 16.703125 10.84375 15.234375 8.453125 
z
" id="ArialMT-50"/>
      </defs>
      <g style="fill:#262626;" transform="translate(436.401626 655.247187)scale(0.22 -0.22)">
       <use xlink:href="#ArialMT-48"/>
       <use x="55.615234" xlink:href="#ArialMT-46"/>
       <use x="83.398438" xlink:href="#ArialMT-50"/>
      </g>
     </g>
    </g>
    <g id="xtick_4">
     <g id="line2d_4">
      <path clip-path="url(#p951cbb02c9)" d="M 605.537439 630 
L 605.537439 86.4 
" style="fill:none;stroke:#cccccc;stroke-linecap:round;"/>
     </g>
     <g id="text_4">
      <!-- 0.3 -->
      <defs>
       <path d="M 4.203125 18.890625 
L 12.984375 20.0625 
Q 14.5 12.59375 18.140625 9.296875 
Q 21.78125 6 27 6 
Q 33.203125 6 37.46875 10.296875 
Q 41.75 14.59375 41.75 20.953125 
Q 41.75 27 37.796875 30.921875 
Q 33.84375 34.859375 27.734375 34.859375 
Q 25.25 34.859375 21.53125 33.890625 
L 22.515625 41.609375 
Q 23.390625 41.5 23.921875 41.5 
Q 29.546875 41.5 34.03125 44.421875 
Q 38.53125 47.359375 38.53125 53.46875 
Q 38.53125 58.296875 35.25 61.46875 
Q 31.984375 64.65625 26.8125 64.65625 
Q 21.6875 64.65625 18.265625 61.421875 
Q 14.84375 58.203125 13.875 51.765625 
L 5.078125 53.328125 
Q 6.6875 62.15625 12.390625 67.015625 
Q 18.109375 71.875 26.609375 71.875 
Q 32.46875 71.875 37.390625 69.359375 
Q 42.328125 66.84375 44.9375 62.5 
Q 47.5625 58.15625 47.5625 53.265625 
Q 47.5625 48.640625 45.0625 44.828125 
Q 42.578125 41.015625 37.703125 38.765625 
Q 44.046875 37.3125 47.5625 32.6875 
Q 51.078125 28.078125 51.078125 21.140625 
Q 51.078125 11.765625 44.234375 5.25 
Q 37.40625 -1.265625 26.953125 -1.265625 
Q 17.53125 -1.265625 11.296875 4.34375 
Q 5.078125 9.96875 4.203125 18.890625 
z
" id="ArialMT-51"/>
      </defs>
      <g style="fill:#262626;" transform="translate(590.247439 655.247187)scale(0.22 -0.22)">
       <use xlink:href="#ArialMT-48"/>
       <use x="55.615234" xlink:href="#ArialMT-46"/>
       <use x="83.398438" xlink:href="#ArialMT-51"/>
      </g>
     </g>
    </g>
    <g id="xtick_5">
     <g id="line2d_5">
      <path clip-path="url(#p951cbb02c9)" d="M 759.383253 630 
L 759.383253 86.4 
" style="fill:none;stroke:#cccccc;stroke-linecap:round;"/>
     </g>
     <g id="text_5">
      <!-- 0.4 -->
      <defs>
       <path d="M 32.328125 0 
L 32.328125 17.140625 
L 1.265625 17.140625 
L 1.265625 25.203125 
L 33.9375 71.578125 
L 41.109375 71.578125 
L 41.109375 25.203125 
L 50.78125 25.203125 
L 50.78125 17.140625 
L 41.109375 17.140625 
L 41.109375 0 
z
M 32.328125 25.203125 
L 32.328125 57.46875 
L 9.90625 25.203125 
z
" id="ArialMT-52"/>
      </defs>
      <g style="fill:#262626;" transform="translate(744.093253 655.247187)scale(0.22 -0.22)">
       <use xlink:href="#ArialMT-48"/>
       <use x="55.615234" xlink:href="#ArialMT-46"/>
       <use x="83.398438" xlink:href="#ArialMT-52"/>
      </g>
     </g>
    </g>
    <g id="xtick_6">
     <g id="line2d_6">
      <path clip-path="url(#p951cbb02c9)" d="M 913.229066 630 
L 913.229066 86.4 
" style="fill:none;stroke:#cccccc;stroke-linecap:round;"/>
     </g>
     <g id="text_6">
      <!-- 0.5 -->
      <defs>
       <path d="M 4.15625 18.75 
L 13.375 19.53125 
Q 14.40625 12.796875 18.140625 9.390625 
Q 21.875 6 27.15625 6 
Q 33.5 6 37.890625 10.78125 
Q 42.28125 15.578125 42.28125 23.484375 
Q 42.28125 31 38.0625 35.34375 
Q 33.84375 39.703125 27 39.703125 
Q 22.75 39.703125 19.328125 37.765625 
Q 15.921875 35.84375 13.96875 32.765625 
L 5.71875 33.84375 
L 12.640625 70.609375 
L 48.25 70.609375 
L 48.25 62.203125 
L 19.671875 62.203125 
L 15.828125 42.96875 
Q 22.265625 47.46875 29.34375 47.46875 
Q 38.71875 47.46875 45.15625 40.96875 
Q 51.609375 34.46875 51.609375 24.265625 
Q 51.609375 14.546875 45.953125 7.46875 
Q 39.0625 -1.21875 27.15625 -1.21875 
Q 17.390625 -1.21875 11.203125 4.25 
Q 5.03125 9.71875 4.15625 18.75 
z
" id="ArialMT-53"/>
      </defs>
      <g style="fill:#262626;" transform="translate(897.939066 655.247187)scale(0.22 -0.22)">
       <use xlink:href="#ArialMT-48"/>
       <use x="55.615234" xlink:href="#ArialMT-46"/>
       <use x="83.398438" xlink:href="#ArialMT-53"/>
      </g>
     </g>
    </g>
    <g id="text_7">
     <!-- Simulation Result -->
     <defs>
      <path d="M 4.5 23 
L 13.421875 23.78125 
Q 14.0625 18.40625 16.375 14.96875 
Q 18.703125 11.53125 23.578125 9.40625 
Q 28.46875 7.28125 34.578125 7.28125 
Q 39.984375 7.28125 44.140625 8.890625 
Q 48.296875 10.5 50.3125 13.296875 
Q 52.34375 16.109375 52.34375 19.4375 
Q 52.34375 22.796875 50.390625 25.3125 
Q 48.4375 27.828125 43.953125 29.546875 
Q 41.0625 30.671875 31.203125 33.03125 
Q 21.34375 35.40625 17.390625 37.5 
Q 12.25 40.1875 9.734375 44.15625 
Q 7.234375 48.140625 7.234375 53.078125 
Q 7.234375 58.5 10.296875 63.203125 
Q 13.375 67.921875 19.28125 70.359375 
Q 25.203125 72.796875 32.421875 72.796875 
Q 40.375 72.796875 46.453125 70.234375 
Q 52.546875 67.671875 55.8125 62.6875 
Q 59.078125 57.71875 59.328125 51.421875 
L 50.25 50.734375 
Q 49.515625 57.515625 45.28125 60.984375 
Q 41.0625 64.453125 32.8125 64.453125 
Q 24.21875 64.453125 20.28125 61.296875 
Q 16.359375 58.15625 16.359375 53.71875 
Q 16.359375 49.859375 19.140625 47.359375 
Q 21.875 44.875 33.421875 42.265625 
Q 44.96875 39.65625 49.265625 37.703125 
Q 55.515625 34.8125 58.484375 30.390625 
Q 61.46875 25.984375 61.46875 20.21875 
Q 61.46875 14.5 58.203125 9.4375 
Q 54.9375 4.390625 48.796875 1.578125 
Q 42.671875 -1.21875 35.015625 -1.21875 
Q 25.296875 -1.21875 18.71875 1.609375 
Q 12.15625 4.4375 8.421875 10.125 
Q 4.6875 15.828125 4.5 23 
z
" id="ArialMT-83"/>
      <path d="M 6.640625 61.46875 
L 6.640625 71.578125 
L 15.4375 71.578125 
L 15.4375 61.46875 
z
M 6.640625 0 
L 6.640625 51.859375 
L 15.4375 51.859375 
L 15.4375 0 
z
" id="ArialMT-105"/>
      <path d="M 6.59375 0 
L 6.59375 51.859375 
L 14.453125 51.859375 
L 14.453125 44.578125 
Q 16.890625 48.390625 20.9375 50.703125 
Q 25 53.03125 30.171875 53.03125 
Q 35.9375 53.03125 39.625 50.640625 
Q 43.3125 48.25 44.828125 43.953125 
Q 50.984375 53.03125 60.84375 53.03125 
Q 68.5625 53.03125 72.703125 48.75 
Q 76.859375 44.484375 76.859375 35.59375 
L 76.859375 0 
L 68.109375 0 
L 68.109375 32.671875 
Q 68.109375 37.9375 67.25 40.25 
Q 66.40625 42.578125 64.15625 43.984375 
Q 61.921875 45.40625 58.890625 45.40625 
Q 53.421875 45.40625 49.796875 41.765625 
Q 46.1875 38.140625 46.1875 30.125 
L 46.1875 0 
L 37.40625 0 
L 37.40625 33.6875 
Q 37.40625 39.546875 35.25 42.46875 
Q 33.109375 45.40625 28.21875 45.40625 
Q 24.515625 45.40625 21.359375 43.453125 
Q 18.21875 41.5 16.796875 37.734375 
Q 15.375 33.984375 15.375 26.90625 
L 15.375 0 
z
" id="ArialMT-109"/>
      <path d="M 40.578125 0 
L 40.578125 7.625 
Q 34.515625 -1.171875 24.125 -1.171875 
Q 19.53125 -1.171875 15.546875 0.578125 
Q 11.578125 2.34375 9.640625 5 
Q 7.71875 7.671875 6.9375 11.53125 
Q 6.390625 14.109375 6.390625 19.734375 
L 6.390625 51.859375 
L 15.1875 51.859375 
L 15.1875 23.09375 
Q 15.1875 16.21875 15.71875 13.8125 
Q 16.546875 10.359375 19.234375 8.375 
Q 21.921875 6.390625 25.875 6.390625 
Q 29.828125 6.390625 33.296875 8.421875 
Q 36.765625 10.453125 38.203125 13.9375 
Q 39.65625 17.4375 39.65625 24.078125 
L 39.65625 51.859375 
L 48.4375 51.859375 
L 48.4375 0 
z
" id="ArialMT-117"/>
      <path d="M 6.390625 0 
L 6.390625 71.578125 
L 15.1875 71.578125 
L 15.1875 0 
z
" id="ArialMT-108"/>
      <path d="M 40.4375 6.390625 
Q 35.546875 2.25 31.03125 0.53125 
Q 26.515625 -1.171875 21.34375 -1.171875 
Q 12.796875 -1.171875 8.203125 3 
Q 3.609375 7.171875 3.609375 13.671875 
Q 3.609375 17.484375 5.34375 20.625 
Q 7.078125 23.78125 9.890625 25.6875 
Q 12.703125 27.59375 16.21875 28.5625 
Q 18.796875 29.25 24.03125 29.890625 
Q 34.671875 31.15625 39.703125 32.90625 
Q 39.75 34.71875 39.75 35.203125 
Q 39.75 40.578125 37.25 42.78125 
Q 33.890625 45.75 27.25 45.75 
Q 21.046875 45.75 18.09375 43.578125 
Q 15.140625 41.40625 13.71875 35.890625 
L 5.125 37.0625 
Q 6.296875 42.578125 8.984375 45.96875 
Q 11.671875 49.359375 16.75 51.1875 
Q 21.828125 53.03125 28.515625 53.03125 
Q 35.15625 53.03125 39.296875 51.46875 
Q 43.453125 49.90625 45.40625 47.53125 
Q 47.359375 45.171875 48.140625 41.546875 
Q 48.578125 39.3125 48.578125 33.453125 
L 48.578125 21.734375 
Q 48.578125 9.46875 49.140625 6.21875 
Q 49.703125 2.984375 51.375 0 
L 42.1875 0 
Q 40.828125 2.734375 40.4375 6.390625 
z
M 39.703125 26.03125 
Q 34.90625 24.078125 25.34375 22.703125 
Q 19.921875 21.921875 17.671875 20.9375 
Q 15.4375 19.96875 14.203125 18.09375 
Q 12.984375 16.21875 12.984375 13.921875 
Q 12.984375 10.40625 15.640625 8.0625 
Q 18.3125 5.71875 23.4375 5.71875 
Q 28.515625 5.71875 32.46875 7.9375 
Q 36.421875 10.15625 38.28125 14.015625 
Q 39.703125 17 39.703125 22.796875 
z
" id="ArialMT-97"/>
      <path d="M 25.78125 7.859375 
L 27.046875 0.09375 
Q 23.34375 -0.6875 20.40625 -0.6875 
Q 15.625 -0.6875 12.984375 0.828125 
Q 10.359375 2.34375 9.28125 4.8125 
Q 8.203125 7.28125 8.203125 15.1875 
L 8.203125 45.015625 
L 1.765625 45.015625 
L 1.765625 51.859375 
L 8.203125 51.859375 
L 8.203125 64.703125 
L 16.9375 69.96875 
L 16.9375 51.859375 
L 25.78125 51.859375 
L 25.78125 45.015625 
L 16.9375 45.015625 
L 16.9375 14.703125 
Q 16.9375 10.9375 17.40625 9.859375 
Q 17.875 8.796875 18.921875 8.15625 
Q 19.96875 7.515625 21.921875 7.515625 
Q 23.390625 7.515625 25.78125 7.859375 
z
" id="ArialMT-116"/>
      <path d="M 3.328125 25.921875 
Q 3.328125 40.328125 11.328125 47.265625 
Q 18.015625 53.03125 27.640625 53.03125 
Q 38.328125 53.03125 45.109375 46.015625 
Q 51.90625 39.015625 51.90625 26.65625 
Q 51.90625 16.65625 48.90625 10.90625 
Q 45.90625 5.171875 40.15625 2 
Q 34.421875 -1.171875 27.640625 -1.171875 
Q 16.75 -1.171875 10.03125 5.8125 
Q 3.328125 12.796875 3.328125 25.921875 
z
M 12.359375 25.921875 
Q 12.359375 15.96875 16.703125 11.015625 
Q 21.046875 6.0625 27.640625 6.0625 
Q 34.1875 6.0625 38.53125 11.03125 
Q 42.875 16.015625 42.875 26.21875 
Q 42.875 35.84375 38.5 40.796875 
Q 34.125 45.75 27.640625 45.75 
Q 21.046875 45.75 16.703125 40.8125 
Q 12.359375 35.890625 12.359375 25.921875 
z
" id="ArialMT-111"/>
      <path d="M 6.59375 0 
L 6.59375 51.859375 
L 14.5 51.859375 
L 14.5 44.484375 
Q 20.21875 53.03125 31 53.03125 
Q 35.6875 53.03125 39.625 51.34375 
Q 43.5625 49.65625 45.515625 46.921875 
Q 47.46875 44.1875 48.25 40.4375 
Q 48.734375 37.984375 48.734375 31.890625 
L 48.734375 0 
L 39.9375 0 
L 39.9375 31.546875 
Q 39.9375 36.921875 38.90625 39.578125 
Q 37.890625 42.234375 35.28125 43.8125 
Q 32.671875 45.40625 29.15625 45.40625 
Q 23.53125 45.40625 19.453125 41.84375 
Q 15.375 38.28125 15.375 28.328125 
L 15.375 0 
z
" id="ArialMT-110"/>
      <path id="ArialMT-32"/>
      <path d="M 7.859375 0 
L 7.859375 71.578125 
L 39.59375 71.578125 
Q 49.171875 71.578125 54.140625 69.640625 
Q 59.125 67.71875 62.109375 62.828125 
Q 65.09375 57.953125 65.09375 52.046875 
Q 65.09375 44.4375 60.15625 39.203125 
Q 55.21875 33.984375 44.921875 32.5625 
Q 48.6875 30.765625 50.640625 29 
Q 54.78125 25.203125 58.5 19.484375 
L 70.953125 0 
L 59.03125 0 
L 49.5625 14.890625 
Q 45.40625 21.34375 42.71875 24.75 
Q 40.046875 28.171875 37.921875 29.53125 
Q 35.796875 30.90625 33.59375 31.453125 
Q 31.984375 31.78125 28.328125 31.78125 
L 17.328125 31.78125 
L 17.328125 0 
z
M 17.328125 39.984375 
L 37.703125 39.984375 
Q 44.1875 39.984375 47.84375 41.328125 
Q 51.515625 42.671875 53.421875 45.625 
Q 55.328125 48.578125 55.328125 52.046875 
Q 55.328125 57.125 51.640625 60.390625 
Q 47.953125 63.671875 39.984375 63.671875 
L 17.328125 63.671875 
z
" id="ArialMT-82"/>
      <path d="M 42.09375 16.703125 
L 51.171875 15.578125 
Q 49.03125 7.625 43.21875 3.21875 
Q 37.40625 -1.171875 28.375 -1.171875 
Q 17 -1.171875 10.328125 5.828125 
Q 3.65625 12.84375 3.65625 25.484375 
Q 3.65625 38.578125 10.390625 45.796875 
Q 17.140625 53.03125 27.875 53.03125 
Q 38.28125 53.03125 44.875 45.953125 
Q 51.46875 38.875 51.46875 26.03125 
Q 51.46875 25.25 51.421875 23.6875 
L 12.75 23.6875 
Q 13.234375 15.140625 17.578125 10.59375 
Q 21.921875 6.0625 28.421875 6.0625 
Q 33.25 6.0625 36.671875 8.59375 
Q 40.09375 11.140625 42.09375 16.703125 
z
M 13.234375 30.90625 
L 42.1875 30.90625 
Q 41.609375 37.453125 38.875 40.71875 
Q 34.671875 45.796875 27.984375 45.796875 
Q 21.921875 45.796875 17.796875 41.75 
Q 13.671875 37.703125 13.234375 30.90625 
z
" id="ArialMT-101"/>
      <path d="M 3.078125 15.484375 
L 11.765625 16.84375 
Q 12.5 11.625 15.84375 8.84375 
Q 19.1875 6.0625 25.203125 6.0625 
Q 31.25 6.0625 34.171875 8.515625 
Q 37.109375 10.984375 37.109375 14.3125 
Q 37.109375 17.28125 34.515625 19 
Q 32.71875 20.171875 25.53125 21.96875 
Q 15.875 24.421875 12.140625 26.203125 
Q 8.40625 27.984375 6.46875 31.125 
Q 4.546875 34.28125 4.546875 38.09375 
Q 4.546875 41.546875 6.125 44.5 
Q 7.71875 47.46875 10.453125 49.421875 
Q 12.5 50.921875 16.03125 51.96875 
Q 19.578125 53.03125 23.640625 53.03125 
Q 29.734375 53.03125 34.34375 51.265625 
Q 38.96875 49.515625 41.15625 46.5 
Q 43.359375 43.5 44.1875 38.484375 
L 35.59375 37.3125 
Q 35.015625 41.3125 32.203125 43.546875 
Q 29.390625 45.796875 24.265625 45.796875 
Q 18.21875 45.796875 15.625 43.796875 
Q 13.03125 41.796875 13.03125 39.109375 
Q 13.03125 37.40625 14.109375 36.03125 
Q 15.1875 34.625 17.484375 33.6875 
Q 18.796875 33.203125 25.25 31.453125 
Q 34.578125 28.953125 38.25 27.359375 
Q 41.9375 25.78125 44.03125 22.75 
Q 46.140625 19.734375 46.140625 15.234375 
Q 46.140625 10.84375 43.578125 6.953125 
Q 41.015625 3.078125 36.171875 0.953125 
Q 31.34375 -1.171875 25.25 -1.171875 
Q 15.140625 -1.171875 9.84375 3.03125 
Q 4.546875 7.234375 3.078125 15.484375 
z
" id="ArialMT-115"/>
     </defs>
     <g style="fill:#262626;" transform="translate(497.02875 680.798437)scale(0.24 -0.24)">
      <use xlink:href="#ArialMT-83"/>
      <use x="66.699219" xlink:href="#ArialMT-105"/>
      <use x="88.916016" xlink:href="#ArialMT-109"/>
      <use x="172.216797" xlink:href="#ArialMT-117"/>
      <use x="227.832031" xlink:href="#ArialMT-108"/>
      <use x="250.048828" xlink:href="#ArialMT-97"/>
      <use x="305.664062" xlink:href="#ArialMT-116"/>
      <use x="333.447266" xlink:href="#ArialMT-105"/>
      <use x="355.664062" xlink:href="#ArialMT-111"/>
      <use x="411.279297" xlink:href="#ArialMT-110"/>
      <use x="466.894531" xlink:href="#ArialMT-32"/>
      <use x="494.677734" xlink:href="#ArialMT-82"/>
      <use x="566.894531" xlink:href="#ArialMT-101"/>
      <use x="622.509766" xlink:href="#ArialMT-115"/>
      <use x="672.509766" xlink:href="#ArialMT-117"/>
      <use x="728.125" xlink:href="#ArialMT-108"/>
      <use x="750.341797" xlink:href="#ArialMT-116"/>
     </g>
    </g>
   </g>
   <g id="matplotlib.axis_2">
    <g id="ytick_1">
     <g id="line2d_7">
      <path clip-path="url(#p951cbb02c9)" d="M 144 615.769992 
L 1036.8 615.769992 
" style="fill:none;stroke:#cccccc;stroke-linecap:round;"/>
     </g>
     <g id="text_8">
      <!-- −0.2 -->
      <defs>
       <path d="M 52.828125 31.203125 
L 5.5625 31.203125 
L 5.5625 39.40625 
L 52.828125 39.40625 
z
" id="ArialMT-8722"/>
      </defs>
      <g style="fill:#262626;" transform="translate(91.070625 623.643586)scale(0.22 -0.22)">
       <use xlink:href="#ArialMT-8722"/>
       <use x="58.398438" xlink:href="#ArialMT-48"/>
       <use x="114.013672" xlink:href="#ArialMT-46"/>
       <use x="141.796875" xlink:href="#ArialMT-50"/>
      </g>
     </g>
    </g>
    <g id="ytick_2">
     <g id="line2d_8">
      <path clip-path="url(#p951cbb02c9)" d="M 144 505.887112 
L 1036.8 505.887112 
" style="fill:none;stroke:#cccccc;stroke-linecap:round;"/>
     </g>
     <g id="text_9">
      <!-- 0.0 -->
      <g style="fill:#262626;" transform="translate(103.92 513.760706)scale(0.22 -0.22)">
       <use xlink:href="#ArialMT-48"/>
       <use x="55.615234" xlink:href="#ArialMT-46"/>
       <use x="83.398438" xlink:href="#ArialMT-48"/>
      </g>
     </g>
    </g>
    <g id="ytick_3">
     <g id="line2d_9">
      <path clip-path="url(#p951cbb02c9)" d="M 144 396.004232 
L 1036.8 396.004232 
" style="fill:none;stroke:#cccccc;stroke-linecap:round;"/>
     </g>
     <g id="text_10">
      <!-- 0.2 -->
      <g style="fill:#262626;" transform="translate(103.92 403.877826)scale(0.22 -0.22)">
       <use xlink:href="#ArialMT-48"/>
       <use x="55.615234" xlink:href="#ArialMT-46"/>
       <use x="83.398438" xlink:href="#ArialMT-50"/>
      </g>
     </g>
    </g>
    <g id="ytick_4">
     <g id="line2d_10">
      <path clip-path="url(#p951cbb02c9)" d="M 144 286.121352 
L 1036.8 286.121352 
" style="fill:none;stroke:#cccccc;stroke-linecap:round;"/>
     </g>
     <g id="text_11">
      <!-- 0.4 -->
      <g style="fill:#262626;" transform="translate(103.92 293.994945)scale(0.22 -0.22)">
       <use xlink:href="#ArialMT-48"/>
       <use x="55.615234" xlink:href="#ArialMT-46"/>
       <use x="83.398438" xlink:href="#ArialMT-52"/>
      </g>
     </g>
    </g>
    <g id="ytick_5">
     <g id="line2d_11">
      <path clip-path="url(#p951cbb02c9)" d="M 144 176.238471 
L 1036.8 176.238471 
" style="fill:none;stroke:#cccccc;stroke-linecap:round;"/>
     </g>
     <g id="text_12">
      <!-- 0.6 -->
      <defs>
       <path d="M 49.75 54.046875 
L 41.015625 53.375 
Q 39.84375 58.546875 37.703125 60.890625 
Q 34.125 64.65625 28.90625 64.65625 
Q 24.703125 64.65625 21.53125 62.3125 
Q 17.390625 59.28125 14.984375 53.46875 
Q 12.59375 47.65625 12.5 36.921875 
Q 15.671875 41.75 20.265625 44.09375 
Q 24.859375 46.4375 29.890625 46.4375 
Q 38.671875 46.4375 44.84375 39.96875 
Q 51.03125 33.5 51.03125 23.25 
Q 51.03125 16.5 48.125 10.71875 
Q 45.21875 4.9375 40.140625 1.859375 
Q 35.0625 -1.21875 28.609375 -1.21875 
Q 17.625 -1.21875 10.6875 6.859375 
Q 3.765625 14.9375 3.765625 33.5 
Q 3.765625 54.25 11.421875 63.671875 
Q 18.109375 71.875 29.4375 71.875 
Q 37.890625 71.875 43.28125 67.140625 
Q 48.6875 62.40625 49.75 54.046875 
z
M 13.875 23.1875 
Q 13.875 18.65625 15.796875 14.5 
Q 17.71875 10.359375 21.1875 8.171875 
Q 24.65625 6 28.46875 6 
Q 34.03125 6 38.03125 10.484375 
Q 42.046875 14.984375 42.046875 22.703125 
Q 42.046875 30.125 38.078125 34.390625 
Q 34.125 38.671875 28.125 38.671875 
Q 22.171875 38.671875 18.015625 34.390625 
Q 13.875 30.125 13.875 23.1875 
z
" id="ArialMT-54"/>
      </defs>
      <g style="fill:#262626;" transform="translate(103.92 184.112065)scale(0.22 -0.22)">
       <use xlink:href="#ArialMT-48"/>
       <use x="55.615234" xlink:href="#ArialMT-46"/>
       <use x="83.398438" xlink:href="#ArialMT-54"/>
      </g>
     </g>
    </g>
    <g id="text_13">
     <!-- Predicted -->
     <defs>
      <path d="M 7.71875 0 
L 7.71875 71.578125 
L 34.71875 71.578125 
Q 41.84375 71.578125 45.609375 70.90625 
Q 50.875 70.015625 54.4375 67.546875 
Q 58.015625 65.09375 60.1875 60.640625 
Q 62.359375 56.203125 62.359375 50.875 
Q 62.359375 41.75 56.546875 35.421875 
Q 50.734375 29.109375 35.546875 29.109375 
L 17.1875 29.109375 
L 17.1875 0 
z
M 17.1875 37.546875 
L 35.6875 37.546875 
Q 44.875 37.546875 48.734375 40.96875 
Q 52.59375 44.390625 52.59375 50.59375 
Q 52.59375 55.078125 50.3125 58.265625 
Q 48.046875 61.46875 44.34375 62.5 
Q 41.9375 63.140625 35.5 63.140625 
L 17.1875 63.140625 
z
" id="ArialMT-80"/>
      <path d="M 6.5 0 
L 6.5 51.859375 
L 14.40625 51.859375 
L 14.40625 44 
Q 17.4375 49.515625 20 51.265625 
Q 22.5625 53.03125 25.640625 53.03125 
Q 30.078125 53.03125 34.671875 50.203125 
L 31.640625 42.046875 
Q 28.421875 43.953125 25.203125 43.953125 
Q 22.3125 43.953125 20.015625 42.21875 
Q 17.71875 40.484375 16.75 37.40625 
Q 15.28125 32.71875 15.28125 27.15625 
L 15.28125 0 
z
" id="ArialMT-114"/>
      <path d="M 40.234375 0 
L 40.234375 6.546875 
Q 35.296875 -1.171875 25.734375 -1.171875 
Q 19.53125 -1.171875 14.328125 2.25 
Q 9.125 5.671875 6.265625 11.796875 
Q 3.421875 17.921875 3.421875 25.875 
Q 3.421875 33.640625 6 39.96875 
Q 8.59375 46.296875 13.765625 49.65625 
Q 18.953125 53.03125 25.34375 53.03125 
Q 30.03125 53.03125 33.6875 51.046875 
Q 37.359375 49.078125 39.65625 45.90625 
L 39.65625 71.578125 
L 48.390625 71.578125 
L 48.390625 0 
z
M 12.453125 25.875 
Q 12.453125 15.921875 16.640625 10.984375 
Q 20.84375 6.0625 26.5625 6.0625 
Q 32.328125 6.0625 36.34375 10.765625 
Q 40.375 15.484375 40.375 25.140625 
Q 40.375 35.796875 36.265625 40.765625 
Q 32.171875 45.75 26.171875 45.75 
Q 20.3125 45.75 16.375 40.96875 
Q 12.453125 36.1875 12.453125 25.875 
z
" id="ArialMT-100"/>
      <path d="M 40.4375 19 
L 49.078125 17.875 
Q 47.65625 8.9375 41.8125 3.875 
Q 35.984375 -1.171875 27.484375 -1.171875 
Q 16.84375 -1.171875 10.375 5.78125 
Q 3.90625 12.75 3.90625 25.734375 
Q 3.90625 34.125 6.6875 40.421875 
Q 9.46875 46.734375 15.15625 49.875 
Q 20.84375 53.03125 27.546875 53.03125 
Q 35.984375 53.03125 41.359375 48.75 
Q 46.734375 44.484375 48.25 36.625 
L 39.703125 35.296875 
Q 38.484375 40.53125 35.375 43.15625 
Q 32.28125 45.796875 27.875 45.796875 
Q 21.234375 45.796875 17.078125 41.03125 
Q 12.9375 36.28125 12.9375 25.984375 
Q 12.9375 15.53125 16.9375 10.796875 
Q 20.953125 6.0625 27.390625 6.0625 
Q 32.5625 6.0625 36.03125 9.234375 
Q 39.5 12.40625 40.4375 19 
z
" id="ArialMT-99"/>
     </defs>
     <g style="fill:#262626;" transform="translate(82.300625 408.8925)rotate(-90)scale(0.24 -0.24)">
      <use xlink:href="#ArialMT-80"/>
      <use x="66.699219" xlink:href="#ArialMT-114"/>
      <use x="100" xlink:href="#ArialMT-101"/>
      <use x="155.615234" xlink:href="#ArialMT-100"/>
      <use x="211.230469" xlink:href="#ArialMT-105"/>
      <use x="233.447266" xlink:href="#ArialMT-99"/>
      <use x="283.447266" xlink:href="#ArialMT-116"/>
      <use x="311.230469" xlink:href="#ArialMT-101"/>
      <use x="366.845703" xlink:href="#ArialMT-100"/>
     </g>
    </g>
   </g>
   <g id="LineCollection_1">
    <path clip-path="url(#p951cbb02c9)" d="M 773.628235 279.569633 
L 773.628235 111.109091 
" style="fill:none;stroke:#64b5cd;stroke-width:0.5;"/>
    <path clip-path="url(#p951cbb02c9)" d="M 688.717233 421.926064 
L 688.717233 254.769724 
" style="fill:none;stroke:#64b5cd;stroke-width:0.5;"/>
    <path clip-path="url(#p951cbb02c9)" d="M 673.530396 377.286016 
L 673.530396 208.576781 
" style="fill:none;stroke:#64b5cd;stroke-width:0.5;"/>
    <path clip-path="url(#p951cbb02c9)" d="M 273.749481 540.599271 
L 273.749481 365.542144 
" style="fill:none;stroke:#64b5cd;stroke-width:0.5;"/>
    <path clip-path="url(#p951cbb02c9)" d="M 747.950446 407.511833 
L 747.950446 240.843193 
" style="fill:none;stroke:#64b5cd;stroke-width:0.5;"/>
    <path clip-path="url(#p951cbb02c9)" d="M 289.480674 461.201429 
L 289.480674 293.447037 
" style="fill:none;stroke:#64b5cd;stroke-width:0.5;"/>
    <path clip-path="url(#p951cbb02c9)" d="M 447.418131 463.622595 
L 447.418131 294.328524 
" style="fill:none;stroke:#64b5cd;stroke-width:0.5;"/>
    <path clip-path="url(#p951cbb02c9)" d="M 304.256055 524.042522 
L 304.256055 353.202135 
" style="fill:none;stroke:#64b5cd;stroke-width:0.5;"/>
    <path clip-path="url(#p951cbb02c9)" d="M 306.392803 539.002426 
L 306.392803 363.811164 
" style="fill:none;stroke:#64b5cd;stroke-width:0.5;"/>
    <path clip-path="url(#p951cbb02c9)" d="M 682.460346 394.72688 
L 682.460346 228.234528 
" style="fill:none;stroke:#64b5cd;stroke-width:0.5;"/>
    <path clip-path="url(#p951cbb02c9)" d="M 391.688271 548.285635 
L 391.688271 375.818256 
" style="fill:none;stroke:#64b5cd;stroke-width:0.5;"/>
    <path clip-path="url(#p951cbb02c9)" d="M 297.845813 487.50161 
L 297.845813 317.832685 
" style="fill:none;stroke:#64b5cd;stroke-width:0.5;"/>
    <path clip-path="url(#p951cbb02c9)" d="M 324.370953 454.181544 
L 324.370953 284.258632 
" style="fill:none;stroke:#64b5cd;stroke-width:0.5;"/>
    <path clip-path="url(#p951cbb02c9)" d="M 323.177855 546.247915 
L 323.177855 379.628554 
" style="fill:none;stroke:#64b5cd;stroke-width:0.5;"/>
    <path clip-path="url(#p951cbb02c9)" d="M 672.203958 334.619326 
L 672.203958 168.185214 
" style="fill:none;stroke:#64b5cd;stroke-width:0.5;"/>
    <path clip-path="url(#p951cbb02c9)" d="M 559.799495 447.97154 
L 559.799495 274.793453 
" style="fill:none;stroke:#64b5cd;stroke-width:0.5;"/>
    <path clip-path="url(#p951cbb02c9)" d="M 394.376519 484.634852 
L 394.376519 314.336536 
" style="fill:none;stroke:#64b5cd;stroke-width:0.5;"/>
    <path clip-path="url(#p951cbb02c9)" d="M 273.230483 557.968629 
L 273.230483 389.732949 
" style="fill:none;stroke:#64b5cd;stroke-width:0.5;"/>
    <path clip-path="url(#p951cbb02c9)" d="M 624.768166 438.772989 
L 624.768166 262.551466 
" style="fill:none;stroke:#64b5cd;stroke-width:0.5;"/>
    <path clip-path="url(#p951cbb02c9)" d="M 513.382274 458.196715 
L 513.382274 288.732945 
" style="fill:none;stroke:#64b5cd;stroke-width:0.5;"/>
    <path clip-path="url(#p951cbb02c9)" d="M 308.69134 548.793698 
L 308.69134 376.838308 
" style="fill:none;stroke:#64b5cd;stroke-width:0.5;"/>
    <path clip-path="url(#p951cbb02c9)" d="M 697.305117 408.096918 
L 697.305117 233.158764 
" style="fill:none;stroke:#64b5cd;stroke-width:0.5;"/>
    <path clip-path="url(#p951cbb02c9)" d="M 460.238616 453.30463 
L 460.238616 280.495266 
" style="fill:none;stroke:#64b5cd;stroke-width:0.5;"/>
    <path clip-path="url(#p951cbb02c9)" d="M 185.51395 578.202789 
L 185.51395 406.164011 
" style="fill:none;stroke:#64b5cd;stroke-width:0.5;"/>
    <path clip-path="url(#p951cbb02c9)" d="M 482.147275 499.169071 
L 482.147275 326.06147 
" style="fill:none;stroke:#64b5cd;stroke-width:0.5;"/>
    <path clip-path="url(#p951cbb02c9)" d="M 197.401026 501.154471 
L 197.401026 325.24005 
" style="fill:none;stroke:#64b5cd;stroke-width:0.5;"/>
    <path clip-path="url(#p951cbb02c9)" d="M 468.785606 466.00352 
L 468.785606 299.464377 
" style="fill:none;stroke:#64b5cd;stroke-width:0.5;"/>
    <path clip-path="url(#p951cbb02c9)" d="M 440.653362 507.100854 
L 440.653362 334.98631 
" style="fill:none;stroke:#64b5cd;stroke-width:0.5;"/>
    <path clip-path="url(#p951cbb02c9)" d="M 284.350566 557.515667 
L 284.350566 382.33444 
" style="fill:none;stroke:#64b5cd;stroke-width:0.5;"/>
    <path clip-path="url(#p951cbb02c9)" d="M 228.464368 562.549175 
L 228.464368 391.264704 
" style="fill:none;stroke:#64b5cd;stroke-width:0.5;"/>
    <path clip-path="url(#p951cbb02c9)" d="M 192.455374 549.143939 
L 192.455374 377.917909 
" style="fill:none;stroke:#64b5cd;stroke-width:0.5;"/>
    <path clip-path="url(#p951cbb02c9)" d="M 462.680613 476.402741 
L 462.680613 307.912593 
" style="fill:none;stroke:#64b5cd;stroke-width:0.5;"/>
    <path clip-path="url(#p951cbb02c9)" d="M 533.13941 481.489893 
L 533.13941 311.658798 
" style="fill:none;stroke:#64b5cd;stroke-width:0.5;"/>
    <path clip-path="url(#p951cbb02c9)" d="M 579.896471 433.106636 
L 579.896471 252.427016 
" style="fill:none;stroke:#64b5cd;stroke-width:0.5;"/>
    <path clip-path="url(#p951cbb02c9)" d="M 245.792718 539.072005 
L 245.792718 361.528091 
" style="fill:none;stroke:#64b5cd;stroke-width:0.5;"/>
    <path clip-path="url(#p951cbb02c9)" d="M 664.895273 472.680799 
L 664.895273 302.150388 
" style="fill:none;stroke:#64b5cd;stroke-width:0.5;"/>
    <path clip-path="url(#p951cbb02c9)" d="M 165.668424 547.349558 
L 165.668424 377.762281 
" style="fill:none;stroke:#64b5cd;stroke-width:0.5;"/>
    <path clip-path="url(#p951cbb02c9)" d="M 517.625546 414.597039 
L 517.625546 244.803397 
" style="fill:none;stroke:#64b5cd;stroke-width:0.5;"/>
    <path clip-path="url(#p951cbb02c9)" d="M 701.125463 395.530425 
L 701.125463 219.695766 
" style="fill:none;stroke:#64b5cd;stroke-width:0.5;"/>
    <path clip-path="url(#p951cbb02c9)" d="M 559.289312 449.646247 
L 559.289312 279.563326 
" style="fill:none;stroke:#64b5cd;stroke-width:0.5;"/>
    <path clip-path="url(#p951cbb02c9)" d="M 229.469896 514.114207 
L 229.469896 346.816784 
" style="fill:none;stroke:#64b5cd;stroke-width:0.5;"/>
    <path clip-path="url(#p951cbb02c9)" d="M 260.844921 566.365206 
L 260.844921 396.429374 
" style="fill:none;stroke:#64b5cd;stroke-width:0.5;"/>
    <path clip-path="url(#p951cbb02c9)" d="M 519.564779 441.61418 
L 519.564779 269.921698 
" style="fill:none;stroke:#64b5cd;stroke-width:0.5;"/>
    <path clip-path="url(#p951cbb02c9)" d="M 597.845149 473.81461 
L 597.845149 299.363684 
" style="fill:none;stroke:#64b5cd;stroke-width:0.5;"/>
    <path clip-path="url(#p951cbb02c9)" d="M 300.862398 475.487922 
L 300.862398 305.701822 
" style="fill:none;stroke:#64b5cd;stroke-width:0.5;"/>
    <path clip-path="url(#p951cbb02c9)" d="M 471.175087 479.099298 
L 471.175087 307.70513 
" style="fill:none;stroke:#64b5cd;stroke-width:0.5;"/>
    <path clip-path="url(#p951cbb02c9)" d="M 369.311946 516.604398 
L 369.311946 340.410498 
" style="fill:none;stroke:#64b5cd;stroke-width:0.5;"/>
    <path clip-path="url(#p951cbb02c9)" d="M 645.67113 427.213953 
L 645.67113 258.667767 
" style="fill:none;stroke:#64b5cd;stroke-width:0.5;"/>
    <path clip-path="url(#p951cbb02c9)" d="M 530.528038 456.512001 
L 530.528038 290.217533 
" style="fill:none;stroke:#64b5cd;stroke-width:0.5;"/>
    <path clip-path="url(#p951cbb02c9)" d="M 569.640083 459.466796 
L 569.640083 289.193972 
" style="fill:none;stroke:#64b5cd;stroke-width:0.5;"/>
    <path clip-path="url(#p951cbb02c9)" d="M 206.954808 570.128621 
L 206.954808 395.352145 
" style="fill:none;stroke:#64b5cd;stroke-width:0.5;"/>
    <path clip-path="url(#p951cbb02c9)" d="M 768.998616 433.320128 
L 768.998616 265.156563 
" style="fill:none;stroke:#64b5cd;stroke-width:0.5;"/>
    <path clip-path="url(#p951cbb02c9)" d="M 672.598435 389.399106 
L 672.598435 214.20224 
" style="fill:none;stroke:#64b5cd;stroke-width:0.5;"/>
    <path clip-path="url(#p951cbb02c9)" d="M 155.353935 593.741727 
L 155.353935 418.112559 
" style="fill:none;stroke:#64b5cd;stroke-width:0.5;"/>
    <path clip-path="url(#p951cbb02c9)" d="M 197.612935 549.107515 
L 197.612935 380.401232 
" style="fill:none;stroke:#64b5cd;stroke-width:0.5;"/>
    <path clip-path="url(#p951cbb02c9)" d="M 306.227571 500.045834 
L 306.227571 332.144594 
" style="fill:none;stroke:#64b5cd;stroke-width:0.5;"/>
    <path clip-path="url(#p951cbb02c9)" d="M 598.123183 521.95875 
L 598.123183 347.111414 
" style="fill:none;stroke:#64b5cd;stroke-width:0.5;"/>
    <path clip-path="url(#p951cbb02c9)" d="M 359.384138 496.290098 
L 359.384138 326.692196 
" style="fill:none;stroke:#64b5cd;stroke-width:0.5;"/>
    <path clip-path="url(#p951cbb02c9)" d="M 680.750948 427.39844 
L 680.750948 259.812196 
" style="fill:none;stroke:#64b5cd;stroke-width:0.5;"/>
    <path clip-path="url(#p951cbb02c9)" d="M 379.090231 535.676888 
L 379.090231 369.614752 
" style="fill:none;stroke:#64b5cd;stroke-width:0.5;"/>
    <path clip-path="url(#p951cbb02c9)" d="M 792.017213 338.416101 
L 792.017213 168.559709 
" style="fill:none;stroke:#64b5cd;stroke-width:0.5;"/>
    <path clip-path="url(#p951cbb02c9)" d="M 483.402196 500.796643 
L 483.402196 328.642851 
" style="fill:none;stroke:#64b5cd;stroke-width:0.5;"/>
    <path clip-path="url(#p951cbb02c9)" d="M 595.717494 417.584249 
L 595.717494 248.975742 
" style="fill:none;stroke:#64b5cd;stroke-width:0.5;"/>
    <path clip-path="url(#p951cbb02c9)" d="M 185.779214 567.839556 
L 185.779214 401.213119 
" style="fill:none;stroke:#64b5cd;stroke-width:0.5;"/>
    <path clip-path="url(#p951cbb02c9)" d="M 774.362155 401.291971 
L 774.362155 228.241652 
" style="fill:none;stroke:#64b5cd;stroke-width:0.5;"/>
    <path clip-path="url(#p951cbb02c9)" d="M 188.444346 568.234109 
L 188.444346 392.79425 
" style="fill:none;stroke:#64b5cd;stroke-width:0.5;"/>
    <path clip-path="url(#p951cbb02c9)" d="M 204.605926 572.123933 
L 204.605926 401.186759 
" style="fill:none;stroke:#64b5cd;stroke-width:0.5;"/>
    <path clip-path="url(#p951cbb02c9)" d="M 749.657368 432.175885 
L 749.657368 256.154277 
" style="fill:none;stroke:#64b5cd;stroke-width:0.5;"/>
    <path clip-path="url(#p951cbb02c9)" d="M 209.267921 526.021968 
L 209.267921 352.28057 
" style="fill:none;stroke:#64b5cd;stroke-width:0.5;"/>
    <path clip-path="url(#p951cbb02c9)" d="M 335.195664 516.901479 
L 335.195664 349.469826 
" style="fill:none;stroke:#64b5cd;stroke-width:0.5;"/>
    <path clip-path="url(#p951cbb02c9)" d="M 272.204844 534.296483 
L 272.204844 364.016964 
" style="fill:none;stroke:#64b5cd;stroke-width:0.5;"/>
    <path clip-path="url(#p951cbb02c9)" d="M 214.862314 551.270178 
L 214.862314 376.809308 
" style="fill:none;stroke:#64b5cd;stroke-width:0.5;"/>
    <path clip-path="url(#p951cbb02c9)" d="M 144 581.863213 
L 144 415.334388 
" style="fill:none;stroke:#64b5cd;stroke-width:0.5;"/>
    <path clip-path="url(#p951cbb02c9)" d="M 722.087298 442.965894 
L 722.087298 273.413794 
" style="fill:none;stroke:#64b5cd;stroke-width:0.5;"/>
    <path clip-path="url(#p951cbb02c9)" d="M 477.760493 486.546933 
L 477.760493 316.12751 
" style="fill:none;stroke:#64b5cd;stroke-width:0.5;"/>
    <path clip-path="url(#p951cbb02c9)" d="M 477.332595 496.339146 
L 477.332595 315.511724 
" style="fill:none;stroke:#64b5cd;stroke-width:0.5;"/>
    <path clip-path="url(#p951cbb02c9)" d="M 249.982671 536.074301 
L 249.982671 356.185298 
" style="fill:none;stroke:#64b5cd;stroke-width:0.5;"/>
    <path clip-path="url(#p951cbb02c9)" d="M 528.614533 472.943181 
L 528.614533 304.601709 
" style="fill:none;stroke:#64b5cd;stroke-width:0.5;"/>
    <path clip-path="url(#p951cbb02c9)" d="M 693.018392 389.140068 
L 693.018392 220.266082 
" style="fill:none;stroke:#64b5cd;stroke-width:0.5;"/>
    <path clip-path="url(#p951cbb02c9)" d="M 665.04093 389.473284 
L 665.04093 220.346917 
" style="fill:none;stroke:#64b5cd;stroke-width:0.5;"/>
    <path clip-path="url(#p951cbb02c9)" d="M 728.503806 297.965244 
L 728.503806 129.341205 
" style="fill:none;stroke:#64b5cd;stroke-width:0.5;"/>
    <path clip-path="url(#p951cbb02c9)" d="M 304.668732 505.341165 
L 304.668732 334.922301 
" style="fill:none;stroke:#64b5cd;stroke-width:0.5;"/>
    <path clip-path="url(#p951cbb02c9)" d="M 634.383529 375.07107 
L 634.383529 207.27195 
" style="fill:none;stroke:#64b5cd;stroke-width:0.5;"/>
    <path clip-path="url(#p951cbb02c9)" d="M 163.942976 568.463356 
L 163.942976 398.098977 
" style="fill:none;stroke:#64b5cd;stroke-width:0.5;"/>
    <path clip-path="url(#p951cbb02c9)" d="M 167.354203 580.321286 
L 167.354203 403.55297 
" style="fill:none;stroke:#64b5cd;stroke-width:0.5;"/>
    <path clip-path="url(#p951cbb02c9)" d="M 466.343609 473.665891 
L 466.343609 305.903037 
" style="fill:none;stroke:#64b5cd;stroke-width:0.5;"/>
    <path clip-path="url(#p951cbb02c9)" d="M 208.957121 574.334383 
L 208.957121 399.11204 
" style="fill:none;stroke:#64b5cd;stroke-width:0.5;"/>
    <path clip-path="url(#p951cbb02c9)" d="M 930.580097 400.907391 
L 930.580097 231.94411 
" style="fill:none;stroke:#64b5cd;stroke-width:0.5;"/>
    <path clip-path="url(#p951cbb02c9)" d="M 460.74138 444.494295 
L 460.74138 274.421914 
" style="fill:none;stroke:#64b5cd;stroke-width:0.5;"/>
    <path clip-path="url(#p951cbb02c9)" d="M 227.67053 548.152487 
L 227.67053 377.719773 
" style="fill:none;stroke:#64b5cd;stroke-width:0.5;"/>
    <path clip-path="url(#p951cbb02c9)" d="M 768.41088 390.970608 
L 768.41088 216.643182 
" style="fill:none;stroke:#64b5cd;stroke-width:0.5;"/>
    <path clip-path="url(#p951cbb02c9)" d="M 451.691626 544.349234 
L 451.691626 375.264987 
" style="fill:none;stroke:#64b5cd;stroke-width:0.5;"/>
    <path clip-path="url(#p951cbb02c9)" d="M 264.368362 488.698519 
L 264.368362 320.782302 
" style="fill:none;stroke:#64b5cd;stroke-width:0.5;"/>
    <path clip-path="url(#p951cbb02c9)" d="M 206.270924 557.244874 
L 206.270924 389.036977 
" style="fill:none;stroke:#64b5cd;stroke-width:0.5;"/>
    <path clip-path="url(#p951cbb02c9)" d="M 828.764698 384.779356 
L 828.764698 217.479858 
" style="fill:none;stroke:#64b5cd;stroke-width:0.5;"/>
    <path clip-path="url(#p951cbb02c9)" d="M 707.48346 450.579746 
L 707.48346 281.741587 
" style="fill:none;stroke:#64b5cd;stroke-width:0.5;"/>
    <path clip-path="url(#p951cbb02c9)" d="M 353.789745 463.583966 
L 353.789745 287.529159 
" style="fill:none;stroke:#64b5cd;stroke-width:0.5;"/>
    <path clip-path="url(#p951cbb02c9)" d="M 400.919449 480.47419 
L 400.919449 307.133687 
" style="fill:none;stroke:#64b5cd;stroke-width:0.5;"/>
    <path clip-path="url(#p951cbb02c9)" d="M 311.867704 531.355666 
L 311.867704 361.933461 
" style="fill:none;stroke:#64b5cd;stroke-width:0.5;"/>
    <path clip-path="url(#p951cbb02c9)" d="M 502.973564 458.979788 
L 502.973564 286.197184 
" style="fill:none;stroke:#64b5cd;stroke-width:0.5;"/>
    <path clip-path="url(#p951cbb02c9)" d="M 366.811178 518.877498 
L 366.811178 343.584587 
" style="fill:none;stroke:#64b5cd;stroke-width:0.5;"/>
    <path clip-path="url(#p951cbb02c9)" d="M 303.243912 553.285156 
L 303.243912 385.733215 
" style="fill:none;stroke:#64b5cd;stroke-width:0.5;"/>
    <path clip-path="url(#p951cbb02c9)" d="M 167.559849 574.527153 
L 167.559849 400.61808 
" style="fill:none;stroke:#64b5cd;stroke-width:0.5;"/>
    <path clip-path="url(#p951cbb02c9)" d="M 588.507603 428.500958 
L 588.507603 257.467957 
" style="fill:none;stroke:#64b5cd;stroke-width:0.5;"/>
    <path clip-path="url(#p951cbb02c9)" d="M 267.91836 546.595289 
L 267.91836 373.178622 
" style="fill:none;stroke:#64b5cd;stroke-width:0.5;"/>
    <path clip-path="url(#p951cbb02c9)" d="M 614.084429 441.369535 
L 614.084429 273.205725 
" style="fill:none;stroke:#64b5cd;stroke-width:0.5;"/>
    <path clip-path="url(#p951cbb02c9)" d="M 897.368673 352.735889 
L 897.368673 173.634236 
" style="fill:none;stroke:#64b5cd;stroke-width:0.5;"/>
    <path clip-path="url(#p951cbb02c9)" d="M 407.907048 509.820598 
L 407.907048 341.998254 
" style="fill:none;stroke:#64b5cd;stroke-width:0.5;"/>
    <path clip-path="url(#p951cbb02c9)" d="M 750.059264 421.377264 
L 750.059264 245.921531 
" style="fill:none;stroke:#64b5cd;stroke-width:0.5;"/>
    <path clip-path="url(#p951cbb02c9)" d="M 163.942976 567.970542 
L 163.942976 399.707932 
" style="fill:none;stroke:#64b5cd;stroke-width:0.5;"/>
    <path clip-path="url(#p951cbb02c9)" d="M 614.896881 439.533709 
L 614.896881 257.479931 
" style="fill:none;stroke:#64b5cd;stroke-width:0.5;"/>
    <path clip-path="url(#p951cbb02c9)" d="M 504.959425 359.833799 
L 504.959425 184.413885 
" style="fill:none;stroke:#64b5cd;stroke-width:0.5;"/>
    <path clip-path="url(#p951cbb02c9)" d="M 346.796754 481.873959 
L 346.796754 304.509953 
" style="fill:none;stroke:#64b5cd;stroke-width:0.5;"/>
    <path clip-path="url(#p951cbb02c9)" d="M 861.027862 393.485756 
L 861.027862 220.847059 
" style="fill:none;stroke:#64b5cd;stroke-width:0.5;"/>
    <path clip-path="url(#p951cbb02c9)" d="M 149.697993 574.287846 
L 149.697993 396.301368 
" style="fill:none;stroke:#64b5cd;stroke-width:0.5;"/>
    <path clip-path="url(#p951cbb02c9)" d="M 394.515213 496.014392 
L 394.515213 325.134644 
" style="fill:none;stroke:#64b5cd;stroke-width:0.5;"/>
    <path clip-path="url(#p951cbb02c9)" d="M 199.943932 561.042585 
L 199.943932 390.034578 
" style="fill:none;stroke:#64b5cd;stroke-width:0.5;"/>
    <path clip-path="url(#p951cbb02c9)" d="M 216.874333 549.466141 
L 216.874333 377.617374 
" style="fill:none;stroke:#64b5cd;stroke-width:0.5;"/>
    <path clip-path="url(#p951cbb02c9)" d="M 644.462284 395.965611 
L 644.462284 229.369831 
" style="fill:none;stroke:#64b5cd;stroke-width:0.5;"/>
    <path clip-path="url(#p951cbb02c9)" d="M 800.381195 419.631841 
L 800.381195 249.863648 
" style="fill:none;stroke:#64b5cd;stroke-width:0.5;"/>
    <path clip-path="url(#p951cbb02c9)" d="M 678.186851 481.877123 
L 678.186851 311.168533 
" style="fill:none;stroke:#64b5cd;stroke-width:0.5;"/>
    <path clip-path="url(#p951cbb02c9)" d="M 577.565473 493.82196 
L 577.565473 323.876983 
" style="fill:none;stroke:#64b5cd;stroke-width:0.5;"/>
    <path clip-path="url(#p951cbb02c9)" d="M 144 590.556539 
L 144 414.182687 
" style="fill:none;stroke:#64b5cd;stroke-width:0.5;"/>
    <path clip-path="url(#p951cbb02c9)" d="M 494.426574 437.887952 
L 494.426574 270.461557 
" style="fill:none;stroke:#64b5cd;stroke-width:0.5;"/>
    <path clip-path="url(#p951cbb02c9)" d="M 183.08968 571.985923 
L 183.08968 403.686424 
" style="fill:none;stroke:#64b5cd;stroke-width:0.5;"/>
    <path clip-path="url(#p951cbb02c9)" d="M 269.657728 481.50412 
L 269.657728 313.177372 
" style="fill:none;stroke:#64b5cd;stroke-width:0.5;"/>
    <path clip-path="url(#p951cbb02c9)" d="M 299.866302 541.234985 
L 299.866302 374.320593 
" style="fill:none;stroke:#64b5cd;stroke-width:0.5;"/>
    <path clip-path="url(#p951cbb02c9)" d="M 278.615087 531.290723 
L 278.615087 364.400703 
" style="fill:none;stroke:#64b5cd;stroke-width:0.5;"/>
    <path clip-path="url(#p951cbb02c9)" d="M 443.802097 476.629413 
L 443.802097 308.149069 
" style="fill:none;stroke:#64b5cd;stroke-width:0.5;"/>
    <path clip-path="url(#p951cbb02c9)" d="M 625.358066 416.241329 
L 625.358066 246.616377 
" style="fill:none;stroke:#64b5cd;stroke-width:0.5;"/>
    <path clip-path="url(#p951cbb02c9)" d="M 896.198164 404.778976 
L 896.198164 234.872731 
" style="fill:none;stroke:#64b5cd;stroke-width:0.5;"/>
    <path clip-path="url(#p951cbb02c9)" d="M 303.01376 526.531474 
L 303.01376 357.32238 
" style="fill:none;stroke:#64b5cd;stroke-width:0.5;"/>
    <path clip-path="url(#p951cbb02c9)" d="M 277.333038 509.447663 
L 277.333038 341.871651 
" style="fill:none;stroke:#64b5cd;stroke-width:0.5;"/>
    <path clip-path="url(#p951cbb02c9)" d="M 216.185719 578.062699 
L 216.185719 402.903017 
" style="fill:none;stroke:#64b5cd;stroke-width:0.5;"/>
    <path clip-path="url(#p951cbb02c9)" d="M 331.936647 526.20183 
L 331.936647 358.545719 
" style="fill:none;stroke:#64b5cd;stroke-width:0.5;"/>
    <path clip-path="url(#p951cbb02c9)" d="M 945.107027 306.866823 
L 945.107027 139.398204 
" style="fill:none;stroke:#64b5cd;stroke-width:0.5;"/>
    <path clip-path="url(#p951cbb02c9)" d="M 235.167889 575.139123 
L 235.167889 407.351081 
" style="fill:none;stroke:#64b5cd;stroke-width:0.5;"/>
    <path clip-path="url(#p951cbb02c9)" d="M 479.663592 458.756664 
L 479.663592 287.684189 
" style="fill:none;stroke:#64b5cd;stroke-width:0.5;"/>
    <path clip-path="url(#p951cbb02c9)" d="M 203.379086 573.875524 
L 203.379086 397.270765 
" style="fill:none;stroke:#64b5cd;stroke-width:0.5;"/>
    <path clip-path="url(#p951cbb02c9)" d="M 170.917841 579.738168 
L 170.917841 404.644387 
" style="fill:none;stroke:#64b5cd;stroke-width:0.5;"/>
    <path clip-path="url(#p951cbb02c9)" d="M 176.162888 541.493232 
L 176.162888 372.12356 
" style="fill:none;stroke:#64b5cd;stroke-width:0.5;"/>
    <path clip-path="url(#p951cbb02c9)" d="M 725.195294 377.36435 
L 725.195294 209.084678 
" style="fill:none;stroke:#64b5cd;stroke-width:0.5;"/>
    <path clip-path="url(#p951cbb02c9)" d="M 248.395373 545.479133 
L 248.395373 376.988781 
" style="fill:none;stroke:#64b5cd;stroke-width:0.5;"/>
    <path clip-path="url(#p951cbb02c9)" d="M 530.294072 411.591616 
L 530.294072 239.752278 
" style="fill:none;stroke:#64b5cd;stroke-width:0.5;"/>
    <path clip-path="url(#p951cbb02c9)" d="M 373.249596 522.434577 
L 373.249596 350.680524 
" style="fill:none;stroke:#64b5cd;stroke-width:0.5;"/>
    <path clip-path="url(#p951cbb02c9)" d="M 656.819377 437.17392 
L 656.819377 267.901505 
" style="fill:none;stroke:#64b5cd;stroke-width:0.5;"/>
    <path clip-path="url(#p951cbb02c9)" d="M 539.386274 495.105634 
L 539.386274 327.630942 
" style="fill:none;stroke:#64b5cd;stroke-width:0.5;"/>
    <path clip-path="url(#p951cbb02c9)" d="M 496.318656 433.543275 
L 496.318656 264.323495 
" style="fill:none;stroke:#64b5cd;stroke-width:0.5;"/>
    <path clip-path="url(#p951cbb02c9)" d="M 928.836612 428.440093 
L 928.836612 256.250051 
" style="fill:none;stroke:#64b5cd;stroke-width:0.5;"/>
    <path clip-path="url(#p951cbb02c9)" d="M 508.371663 479.958029 
L 508.371663 307.014838 
" style="fill:none;stroke:#64b5cd;stroke-width:0.5;"/>
   </g>
   <g id="LineCollection_2">
    <path clip-path="url(#p951cbb02c9)" d="M 327.089232 541.589864 
L 327.089232 363.269721 
" style="fill:none;stroke:#8172b3;stroke-width:0.5;"/>
    <path clip-path="url(#p951cbb02c9)" d="M 238.743756 458.448454 
L 238.743756 284.594502 
" style="fill:none;stroke:#8172b3;stroke-width:0.5;"/>
    <path clip-path="url(#p951cbb02c9)" d="M 754.499259 318.896666 
L 754.499259 135.607299 
" style="fill:none;stroke:#8172b3;stroke-width:0.5;"/>
    <path clip-path="url(#p951cbb02c9)" d="M 502.658951 449.627568 
L 502.658951 272.119154 
" style="fill:none;stroke:#8172b3;stroke-width:0.5;"/>
    <path clip-path="url(#p951cbb02c9)" d="M 287.589426 478.6685 
L 287.589426 301.587584 
" style="fill:none;stroke:#8172b3;stroke-width:0.5;"/>
    <path clip-path="url(#p951cbb02c9)" d="M 578.388178 534.845835 
L 578.388178 365.272225 
" style="fill:none;stroke:#8172b3;stroke-width:0.5;"/>
    <path clip-path="url(#p951cbb02c9)" d="M 182.461453 578.942486 
L 182.461453 403.703589 
" style="fill:none;stroke:#8172b3;stroke-width:0.5;"/>
    <path clip-path="url(#p951cbb02c9)" d="M 519.233691 454.63323 
L 519.233691 281.405373 
" style="fill:none;stroke:#8172b3;stroke-width:0.5;"/>
    <path clip-path="url(#p951cbb02c9)" d="M 669.639862 326.819937 
L 669.639862 154.716641 
" style="fill:none;stroke:#8172b3;stroke-width:0.5;"/>
    <path clip-path="url(#p951cbb02c9)" d="M 327.651558 473.989499 
L 327.651558 299.716669 
" style="fill:none;stroke:#8172b3;stroke-width:0.5;"/>
    <path clip-path="url(#p951cbb02c9)" d="M 343.429758 405.943339 
L 343.429758 232.123052 
" style="fill:none;stroke:#8172b3;stroke-width:0.5;"/>
    <path clip-path="url(#p951cbb02c9)" d="M 622.631419 465.791426 
L 622.631419 297.346593 
" style="fill:none;stroke:#8172b3;stroke-width:0.5;"/>
    <path clip-path="url(#p951cbb02c9)" d="M 587.011504 487.819241 
L 587.011504 303.917195 
" style="fill:none;stroke:#8172b3;stroke-width:0.5;"/>
    <path clip-path="url(#p951cbb02c9)" d="M 257.659176 543.668724 
L 257.659176 372.590272 
" style="fill:none;stroke:#8172b3;stroke-width:0.5;"/>
    <path clip-path="url(#p951cbb02c9)" d="M 290.986446 511.275199 
L 290.986446 333.541507 
" style="fill:none;stroke:#8172b3;stroke-width:0.5;"/>
    <path clip-path="url(#p951cbb02c9)" d="M 446.563433 491.471041 
L 446.563433 313.114504 
" style="fill:none;stroke:#8172b3;stroke-width:0.5;"/>
    <path clip-path="url(#p951cbb02c9)" d="M 203.904564 525.712072 
L 203.904564 346.92741 
" style="fill:none;stroke:#8172b3;stroke-width:0.5;"/>
    <path clip-path="url(#p951cbb02c9)" d="M 173.997791 567.541486 
L 173.997791 395.959531 
" style="fill:none;stroke:#8172b3;stroke-width:0.5;"/>
    <path clip-path="url(#p951cbb02c9)" d="M 1031.400487 402.059228 
L 1031.400487 221.280883 
" style="fill:none;stroke:#8172b3;stroke-width:0.5;"/>
    <path clip-path="url(#p951cbb02c9)" d="M 323.69191 561.043323 
L 323.69191 390.941744 
" style="fill:none;stroke:#8172b3;stroke-width:0.5;"/>
    <path clip-path="url(#p951cbb02c9)" d="M 342.701114 491.351559 
L 342.701114 320.396509 
" style="fill:none;stroke:#8172b3;stroke-width:0.5;"/>
    <path clip-path="url(#p951cbb02c9)" d="M 308.8348 465.412492 
L 308.8348 295.946487 
" style="fill:none;stroke:#8172b3;stroke-width:0.5;"/>
    <path clip-path="url(#p951cbb02c9)" d="M 618.357924 484.794065 
L 618.357924 303.594597 
" style="fill:none;stroke:#8172b3;stroke-width:0.5;"/>
    <path clip-path="url(#p951cbb02c9)" d="M 206.677924 526.618002 
L 206.677924 360.054895 
" style="fill:none;stroke:#8172b3;stroke-width:0.5;"/>
    <path clip-path="url(#p951cbb02c9)" d="M 229.469896 594.287654 
L 229.469896 413.232997 
" style="fill:none;stroke:#8172b3;stroke-width:0.5;"/>
    <path clip-path="url(#p951cbb02c9)" d="M 571.349481 483.681966 
L 571.349481 313.145339 
" style="fill:none;stroke:#8172b3;stroke-width:0.5;"/>
    <path clip-path="url(#p951cbb02c9)" d="M 376.478118 528.709159 
L 376.478118 359.826513 
" style="fill:none;stroke:#8172b3;stroke-width:0.5;"/>
    <path clip-path="url(#p951cbb02c9)" d="M 1036.8 331.801062 
L 1036.8 152.638787 
" style="fill:none;stroke:#8172b3;stroke-width:0.5;"/>
    <path clip-path="url(#p951cbb02c9)" d="M 340.272365 516.490916 
L 340.272365 344.469506 
" style="fill:none;stroke:#8172b3;stroke-width:0.5;"/>
    <path clip-path="url(#p951cbb02c9)" d="M 307.096036 582.554171 
L 307.096036 398.837138 
" style="fill:none;stroke:#8172b3;stroke-width:0.5;"/>
    <path clip-path="url(#p951cbb02c9)" d="M 191.635745 605.290909 
L 191.635745 425.644618 
" style="fill:none;stroke:#8172b3;stroke-width:0.5;"/>
    <path clip-path="url(#p951cbb02c9)" d="M 411.557936 532.984132 
L 411.557936 360.206449 
" style="fill:none;stroke:#8172b3;stroke-width:0.5;"/>
    <path clip-path="url(#p951cbb02c9)" d="M 369.533129 526.966112 
L 369.533129 356.876421 
" style="fill:none;stroke:#8172b3;stroke-width:0.5;"/>
    <path clip-path="url(#p951cbb02c9)" d="M 658.323246 423.064376 
L 658.323246 250.621751 
" style="fill:none;stroke:#8172b3;stroke-width:0.5;"/>
    <path clip-path="url(#p951cbb02c9)" d="M 202.794578 588.708401 
L 202.794578 397.328549 
" style="fill:none;stroke:#8172b3;stroke-width:0.5;"/>
    <path clip-path="url(#p951cbb02c9)" d="M 316.768025 542.79106 
L 316.768025 373.382872 
" style="fill:none;stroke:#8172b3;stroke-width:0.5;"/>
    <path clip-path="url(#p951cbb02c9)" d="M 681.957582 391.661137 
L 681.957582 218.680068 
" style="fill:none;stroke:#8172b3;stroke-width:0.5;"/>
    <path clip-path="url(#p951cbb02c9)" d="M 525.601886 502.429642 
L 525.601886 318.502688 
" style="fill:none;stroke:#8172b3;stroke-width:0.5;"/>
    <path clip-path="url(#p951cbb02c9)" d="M 546.365973 385.167873 
L 546.365973 214.675803 
" style="fill:none;stroke:#8172b3;stroke-width:0.5;"/>
    <path clip-path="url(#p951cbb02c9)" d="M 361.793772 446.632736 
L 361.793772 273.233445 
" style="fill:none;stroke:#8172b3;stroke-width:0.5;"/>
    <path clip-path="url(#p951cbb02c9)" d="M 502.973564 514.691752 
L 502.973564 336.654843 
" style="fill:none;stroke:#8172b3;stroke-width:0.5;"/>
    <path clip-path="url(#p951cbb02c9)" d="M 154.256388 498.195087 
L 154.256388 314.827811 
" style="fill:none;stroke:#8172b3;stroke-width:0.5;"/>
    <path clip-path="url(#p951cbb02c9)" d="M 611.616453 402.674538 
L 611.616453 231.857622 
" style="fill:none;stroke:#8172b3;stroke-width:0.5;"/>
    <path clip-path="url(#p951cbb02c9)" d="M 707.24304 322.113866 
L 707.24304 149.473731 
" style="fill:none;stroke:#8172b3;stroke-width:0.5;"/>
    <path clip-path="url(#p951cbb02c9)" d="M 317.07654 569.636535 
L 317.07654 384.350974 
" style="fill:none;stroke:#8172b3;stroke-width:0.5;"/>
    <path clip-path="url(#p951cbb02c9)" d="M 204.200536 580.676904 
L 204.200536 407.477322 
" style="fill:none;stroke:#8172b3;stroke-width:0.5;"/>
    <path clip-path="url(#p951cbb02c9)" d="M 206.430185 526.054059 
L 206.430185 352.102447 
" style="fill:none;stroke:#8172b3;stroke-width:0.5;"/>
    <path clip-path="url(#p951cbb02c9)" d="M 144 596.853671 
L 144 415.025295 
" style="fill:none;stroke:#8172b3;stroke-width:0.5;"/>
    <path clip-path="url(#p951cbb02c9)" d="M 222.166464 546.440484 
L 222.166464 369.797672 
" style="fill:none;stroke:#8172b3;stroke-width:0.5;"/>
    <path clip-path="url(#p951cbb02c9)" d="M 219.946452 573.003788 
L 219.946452 391.074637 
" style="fill:none;stroke:#8172b3;stroke-width:0.5;"/>
   </g>
   <g id="line2d_12">
    <path clip-path="url(#p951cbb02c9)" d="M 144 505.887112 
L 1036.8 187.050241 
" style="fill:none;stroke:#c44e52;stroke-linecap:round;stroke-width:1.5;"/>
   </g>
   <g id="line2d_13">
    <defs>
     <path d="M 0 3 
C 0.795609 3 1.55874 2.683901 2.12132 2.12132 
C 2.683901 1.55874 3 0.795609 3 0 
C 3 -0.795609 2.683901 -1.55874 2.12132 -2.12132 
C 1.55874 -2.683901 0.795609 -3 0 -3 
C -0.795609 -3 -1.55874 -2.683901 -2.12132 -2.12132 
C -2.683901 -1.55874 -3 -0.795609 -3 0 
C -3 0.795609 -2.683901 1.55874 -2.12132 2.12132 
C -1.55874 2.683901 -0.795609 3 0 3 
z
" id="m06ea85cc61" style="stroke:#64b5cd;"/>
    </defs>
    <g clip-path="url(#p951cbb02c9)">
     <use style="fill:#64b5cd;stroke:#64b5cd;" x="773.628235" xlink:href="#m06ea85cc61" y="195.339362"/>
     <use style="fill:#64b5cd;stroke:#64b5cd;" x="688.717233" xlink:href="#m06ea85cc61" y="338.347894"/>
     <use style="fill:#64b5cd;stroke:#64b5cd;" x="673.530396" xlink:href="#m06ea85cc61" y="292.931398"/>
     <use style="fill:#64b5cd;stroke:#64b5cd;" x="273.749481" xlink:href="#m06ea85cc61" y="453.070707"/>
     <use style="fill:#64b5cd;stroke:#64b5cd;" x="747.950446" xlink:href="#m06ea85cc61" y="324.177513"/>
     <use style="fill:#64b5cd;stroke:#64b5cd;" x="289.480674" xlink:href="#m06ea85cc61" y="377.324233"/>
     <use style="fill:#64b5cd;stroke:#64b5cd;" x="447.418131" xlink:href="#m06ea85cc61" y="378.97556"/>
     <use style="fill:#64b5cd;stroke:#64b5cd;" x="304.256055" xlink:href="#m06ea85cc61" y="438.622328"/>
     <use style="fill:#64b5cd;stroke:#64b5cd;" x="306.392803" xlink:href="#m06ea85cc61" y="451.406795"/>
     <use style="fill:#64b5cd;stroke:#64b5cd;" x="682.460346" xlink:href="#m06ea85cc61" y="311.480704"/>
     <use style="fill:#64b5cd;stroke:#64b5cd;" x="391.688271" xlink:href="#m06ea85cc61" y="462.051946"/>
     <use style="fill:#64b5cd;stroke:#64b5cd;" x="297.845813" xlink:href="#m06ea85cc61" y="402.667148"/>
     <use style="fill:#64b5cd;stroke:#64b5cd;" x="324.370953" xlink:href="#m06ea85cc61" y="369.220088"/>
     <use style="fill:#64b5cd;stroke:#64b5cd;" x="323.177855" xlink:href="#m06ea85cc61" y="462.938235"/>
     <use style="fill:#64b5cd;stroke:#64b5cd;" x="672.203958" xlink:href="#m06ea85cc61" y="251.40227"/>
     <use style="fill:#64b5cd;stroke:#64b5cd;" x="559.799495" xlink:href="#m06ea85cc61" y="361.382496"/>
     <use style="fill:#64b5cd;stroke:#64b5cd;" x="394.376519" xlink:href="#m06ea85cc61" y="399.485694"/>
     <use style="fill:#64b5cd;stroke:#64b5cd;" x="273.230483" xlink:href="#m06ea85cc61" y="473.850789"/>
     <use style="fill:#64b5cd;stroke:#64b5cd;" x="624.768166" xlink:href="#m06ea85cc61" y="350.662228"/>
     <use style="fill:#64b5cd;stroke:#64b5cd;" x="513.382274" xlink:href="#m06ea85cc61" y="373.46483"/>
     <use style="fill:#64b5cd;stroke:#64b5cd;" x="308.69134" xlink:href="#m06ea85cc61" y="462.816003"/>
     <use style="fill:#64b5cd;stroke:#64b5cd;" x="697.305117" xlink:href="#m06ea85cc61" y="320.627841"/>
     <use style="fill:#64b5cd;stroke:#64b5cd;" x="460.238616" xlink:href="#m06ea85cc61" y="366.899948"/>
     <use style="fill:#64b5cd;stroke:#64b5cd;" x="185.51395" xlink:href="#m06ea85cc61" y="492.1834"/>
     <use style="fill:#64b5cd;stroke:#64b5cd;" x="482.147275" xlink:href="#m06ea85cc61" y="412.615271"/>
     <use style="fill:#64b5cd;stroke:#64b5cd;" x="197.401026" xlink:href="#m06ea85cc61" y="413.19726"/>
     <use style="fill:#64b5cd;stroke:#64b5cd;" x="468.785606" xlink:href="#m06ea85cc61" y="382.733948"/>
     <use style="fill:#64b5cd;stroke:#64b5cd;" x="440.653362" xlink:href="#m06ea85cc61" y="421.043582"/>
     <use style="fill:#64b5cd;stroke:#64b5cd;" x="284.350566" xlink:href="#m06ea85cc61" y="469.925053"/>
     <use style="fill:#64b5cd;stroke:#64b5cd;" x="228.464368" xlink:href="#m06ea85cc61" y="476.906939"/>
     <use style="fill:#64b5cd;stroke:#64b5cd;" x="192.455374" xlink:href="#m06ea85cc61" y="463.530924"/>
     <use style="fill:#64b5cd;stroke:#64b5cd;" x="462.680613" xlink:href="#m06ea85cc61" y="392.157667"/>
     <use style="fill:#64b5cd;stroke:#64b5cd;" x="533.13941" xlink:href="#m06ea85cc61" y="396.574346"/>
     <use style="fill:#64b5cd;stroke:#64b5cd;" x="579.896471" xlink:href="#m06ea85cc61" y="342.766826"/>
     <use style="fill:#64b5cd;stroke:#64b5cd;" x="245.792718" xlink:href="#m06ea85cc61" y="450.300048"/>
     <use style="fill:#64b5cd;stroke:#64b5cd;" x="664.895273" xlink:href="#m06ea85cc61" y="387.415594"/>
     <use style="fill:#64b5cd;stroke:#64b5cd;" x="165.668424" xlink:href="#m06ea85cc61" y="462.555919"/>
     <use style="fill:#64b5cd;stroke:#64b5cd;" x="517.625546" xlink:href="#m06ea85cc61" y="329.700218"/>
     <use style="fill:#64b5cd;stroke:#64b5cd;" x="701.125463" xlink:href="#m06ea85cc61" y="307.613096"/>
     <use style="fill:#64b5cd;stroke:#64b5cd;" x="559.289312" xlink:href="#m06ea85cc61" y="364.604786"/>
     <use style="fill:#64b5cd;stroke:#64b5cd;" x="229.469896" xlink:href="#m06ea85cc61" y="430.465495"/>
     <use style="fill:#64b5cd;stroke:#64b5cd;" x="260.844921" xlink:href="#m06ea85cc61" y="481.39729"/>
     <use style="fill:#64b5cd;stroke:#64b5cd;" x="519.564779" xlink:href="#m06ea85cc61" y="355.767939"/>
     <use style="fill:#64b5cd;stroke:#64b5cd;" x="597.845149" xlink:href="#m06ea85cc61" y="386.589147"/>
     <use style="fill:#64b5cd;stroke:#64b5cd;" x="300.862398" xlink:href="#m06ea85cc61" y="390.594872"/>
     <use style="fill:#64b5cd;stroke:#64b5cd;" x="471.175087" xlink:href="#m06ea85cc61" y="393.402214"/>
     <use style="fill:#64b5cd;stroke:#64b5cd;" x="369.311946" xlink:href="#m06ea85cc61" y="428.507448"/>
     <use style="fill:#64b5cd;stroke:#64b5cd;" x="645.67113" xlink:href="#m06ea85cc61" y="342.94086"/>
     <use style="fill:#64b5cd;stroke:#64b5cd;" x="530.528038" xlink:href="#m06ea85cc61" y="373.364767"/>
     <use style="fill:#64b5cd;stroke:#64b5cd;" x="569.640083" xlink:href="#m06ea85cc61" y="374.330384"/>
     <use style="fill:#64b5cd;stroke:#64b5cd;" x="206.954808" xlink:href="#m06ea85cc61" y="482.740383"/>
     <use style="fill:#64b5cd;stroke:#64b5cd;" x="768.998616" xlink:href="#m06ea85cc61" y="349.238345"/>
     <use style="fill:#64b5cd;stroke:#64b5cd;" x="672.598435" xlink:href="#m06ea85cc61" y="301.800673"/>
     <use style="fill:#64b5cd;stroke:#64b5cd;" x="155.353935" xlink:href="#m06ea85cc61" y="505.927143"/>
     <use style="fill:#64b5cd;stroke:#64b5cd;" x="197.612935" xlink:href="#m06ea85cc61" y="464.754374"/>
     <use style="fill:#64b5cd;stroke:#64b5cd;" x="306.227571" xlink:href="#m06ea85cc61" y="416.095214"/>
     <use style="fill:#64b5cd;stroke:#64b5cd;" x="598.123183" xlink:href="#m06ea85cc61" y="434.535082"/>
     <use style="fill:#64b5cd;stroke:#64b5cd;" x="359.384138" xlink:href="#m06ea85cc61" y="411.491147"/>
     <use style="fill:#64b5cd;stroke:#64b5cd;" x="680.750948" xlink:href="#m06ea85cc61" y="343.605318"/>
     <use style="fill:#64b5cd;stroke:#64b5cd;" x="379.090231" xlink:href="#m06ea85cc61" y="452.64582"/>
     <use style="fill:#64b5cd;stroke:#64b5cd;" x="792.017213" xlink:href="#m06ea85cc61" y="253.487905"/>
     <use style="fill:#64b5cd;stroke:#64b5cd;" x="483.402196" xlink:href="#m06ea85cc61" y="414.719747"/>
     <use style="fill:#64b5cd;stroke:#64b5cd;" x="595.717494" xlink:href="#m06ea85cc61" y="333.279996"/>
     <use style="fill:#64b5cd;stroke:#64b5cd;" x="185.779214" xlink:href="#m06ea85cc61" y="484.526337"/>
     <use style="fill:#64b5cd;stroke:#64b5cd;" x="774.362155" xlink:href="#m06ea85cc61" y="314.766811"/>
     <use style="fill:#64b5cd;stroke:#64b5cd;" x="188.444346" xlink:href="#m06ea85cc61" y="480.51418"/>
     <use style="fill:#64b5cd;stroke:#64b5cd;" x="204.605926" xlink:href="#m06ea85cc61" y="486.655346"/>
     <use style="fill:#64b5cd;stroke:#64b5cd;" x="749.657368" xlink:href="#m06ea85cc61" y="344.165081"/>
     <use style="fill:#64b5cd;stroke:#64b5cd;" x="209.267921" xlink:href="#m06ea85cc61" y="439.151269"/>
     <use style="fill:#64b5cd;stroke:#64b5cd;" x="335.195664" xlink:href="#m06ea85cc61" y="433.185653"/>
     <use style="fill:#64b5cd;stroke:#64b5cd;" x="272.204844" xlink:href="#m06ea85cc61" y="449.156724"/>
     <use style="fill:#64b5cd;stroke:#64b5cd;" x="214.862314" xlink:href="#m06ea85cc61" y="464.039743"/>
     <use style="fill:#64b5cd;stroke:#64b5cd;" x="144" xlink:href="#m06ea85cc61" y="498.598801"/>
     <use style="fill:#64b5cd;stroke:#64b5cd;" x="722.087298" xlink:href="#m06ea85cc61" y="358.189844"/>
     <use style="fill:#64b5cd;stroke:#64b5cd;" x="477.760493" xlink:href="#m06ea85cc61" y="401.337222"/>
     <use style="fill:#64b5cd;stroke:#64b5cd;" x="477.332595" xlink:href="#m06ea85cc61" y="405.925435"/>
     <use style="fill:#64b5cd;stroke:#64b5cd;" x="249.982671" xlink:href="#m06ea85cc61" y="446.1298"/>
     <use style="fill:#64b5cd;stroke:#64b5cd;" x="528.614533" xlink:href="#m06ea85cc61" y="388.772445"/>
     <use style="fill:#64b5cd;stroke:#64b5cd;" x="693.018392" xlink:href="#m06ea85cc61" y="304.703075"/>
     <use style="fill:#64b5cd;stroke:#64b5cd;" x="665.04093" xlink:href="#m06ea85cc61" y="304.910101"/>
     <use style="fill:#64b5cd;stroke:#64b5cd;" x="728.503806" xlink:href="#m06ea85cc61" y="213.653224"/>
     <use style="fill:#64b5cd;stroke:#64b5cd;" x="304.668732" xlink:href="#m06ea85cc61" y="420.131733"/>
     <use style="fill:#64b5cd;stroke:#64b5cd;" x="634.383529" xlink:href="#m06ea85cc61" y="291.17151"/>
     <use style="fill:#64b5cd;stroke:#64b5cd;" x="163.942976" xlink:href="#m06ea85cc61" y="483.281167"/>
     <use style="fill:#64b5cd;stroke:#64b5cd;" x="167.354203" xlink:href="#m06ea85cc61" y="491.937128"/>
     <use style="fill:#64b5cd;stroke:#64b5cd;" x="466.343609" xlink:href="#m06ea85cc61" y="389.784464"/>
     <use style="fill:#64b5cd;stroke:#64b5cd;" x="208.957121" xlink:href="#m06ea85cc61" y="486.723211"/>
     <use style="fill:#64b5cd;stroke:#64b5cd;" x="930.580097" xlink:href="#m06ea85cc61" y="316.425751"/>
     <use style="fill:#64b5cd;stroke:#64b5cd;" x="460.74138" xlink:href="#m06ea85cc61" y="359.458104"/>
     <use style="fill:#64b5cd;stroke:#64b5cd;" x="227.67053" xlink:href="#m06ea85cc61" y="462.93613"/>
     <use style="fill:#64b5cd;stroke:#64b5cd;" x="768.41088" xlink:href="#m06ea85cc61" y="303.806895"/>
     <use style="fill:#64b5cd;stroke:#64b5cd;" x="451.691626" xlink:href="#m06ea85cc61" y="459.807111"/>
     <use style="fill:#64b5cd;stroke:#64b5cd;" x="264.368362" xlink:href="#m06ea85cc61" y="404.74041"/>
     <use style="fill:#64b5cd;stroke:#64b5cd;" x="206.270924" xlink:href="#m06ea85cc61" y="473.140925"/>
     <use style="fill:#64b5cd;stroke:#64b5cd;" x="828.764698" xlink:href="#m06ea85cc61" y="301.129607"/>
     <use style="fill:#64b5cd;stroke:#64b5cd;" x="707.48346" xlink:href="#m06ea85cc61" y="366.160666"/>
     <use style="fill:#64b5cd;stroke:#64b5cd;" x="353.789745" xlink:href="#m06ea85cc61" y="375.556563"/>
     <use style="fill:#64b5cd;stroke:#64b5cd;" x="400.919449" xlink:href="#m06ea85cc61" y="393.803938"/>
     <use style="fill:#64b5cd;stroke:#64b5cd;" x="311.867704" xlink:href="#m06ea85cc61" y="446.644564"/>
     <use style="fill:#64b5cd;stroke:#64b5cd;" x="502.973564" xlink:href="#m06ea85cc61" y="372.588486"/>
     <use style="fill:#64b5cd;stroke:#64b5cd;" x="366.811178" xlink:href="#m06ea85cc61" y="431.231043"/>
     <use style="fill:#64b5cd;stroke:#64b5cd;" x="303.243912" xlink:href="#m06ea85cc61" y="469.509185"/>
     <use style="fill:#64b5cd;stroke:#64b5cd;" x="167.559849" xlink:href="#m06ea85cc61" y="487.572616"/>
     <use style="fill:#64b5cd;stroke:#64b5cd;" x="588.507603" xlink:href="#m06ea85cc61" y="342.984458"/>
     <use style="fill:#64b5cd;stroke:#64b5cd;" x="267.91836" xlink:href="#m06ea85cc61" y="459.886955"/>
     <use style="fill:#64b5cd;stroke:#64b5cd;" x="614.084429" xlink:href="#m06ea85cc61" y="357.28763"/>
     <use style="fill:#64b5cd;stroke:#64b5cd;" x="897.368673" xlink:href="#m06ea85cc61" y="263.185062"/>
     <use style="fill:#64b5cd;stroke:#64b5cd;" x="407.907048" xlink:href="#m06ea85cc61" y="425.909426"/>
     <use style="fill:#64b5cd;stroke:#64b5cd;" x="750.059264" xlink:href="#m06ea85cc61" y="333.649397"/>
     <use style="fill:#64b5cd;stroke:#64b5cd;" x="163.942976" xlink:href="#m06ea85cc61" y="483.839237"/>
     <use style="fill:#64b5cd;stroke:#64b5cd;" x="614.896881" xlink:href="#m06ea85cc61" y="348.50682"/>
     <use style="fill:#64b5cd;stroke:#64b5cd;" x="504.959425" xlink:href="#m06ea85cc61" y="272.123842"/>
     <use style="fill:#64b5cd;stroke:#64b5cd;" x="346.796754" xlink:href="#m06ea85cc61" y="393.191956"/>
     <use style="fill:#64b5cd;stroke:#64b5cd;" x="861.027862" xlink:href="#m06ea85cc61" y="307.166408"/>
     <use style="fill:#64b5cd;stroke:#64b5cd;" x="149.697993" xlink:href="#m06ea85cc61" y="485.294607"/>
     <use style="fill:#64b5cd;stroke:#64b5cd;" x="394.515213" xlink:href="#m06ea85cc61" y="410.574518"/>
     <use style="fill:#64b5cd;stroke:#64b5cd;" x="199.943932" xlink:href="#m06ea85cc61" y="475.538581"/>
     <use style="fill:#64b5cd;stroke:#64b5cd;" x="216.874333" xlink:href="#m06ea85cc61" y="463.541758"/>
     <use style="fill:#64b5cd;stroke:#64b5cd;" x="644.462284" xlink:href="#m06ea85cc61" y="312.667721"/>
     <use style="fill:#64b5cd;stroke:#64b5cd;" x="800.381195" xlink:href="#m06ea85cc61" y="334.747744"/>
     <use style="fill:#64b5cd;stroke:#64b5cd;" x="678.186851" xlink:href="#m06ea85cc61" y="396.522828"/>
     <use style="fill:#64b5cd;stroke:#64b5cd;" x="577.565473" xlink:href="#m06ea85cc61" y="408.849472"/>
     <use style="fill:#64b5cd;stroke:#64b5cd;" x="144" xlink:href="#m06ea85cc61" y="502.369613"/>
     <use style="fill:#64b5cd;stroke:#64b5cd;" x="494.426574" xlink:href="#m06ea85cc61" y="354.174754"/>
     <use style="fill:#64b5cd;stroke:#64b5cd;" x="183.08968" xlink:href="#m06ea85cc61" y="487.836174"/>
     <use style="fill:#64b5cd;stroke:#64b5cd;" x="269.657728" xlink:href="#m06ea85cc61" y="397.340746"/>
     <use style="fill:#64b5cd;stroke:#64b5cd;" x="299.866302" xlink:href="#m06ea85cc61" y="457.777789"/>
     <use style="fill:#64b5cd;stroke:#64b5cd;" x="278.615087" xlink:href="#m06ea85cc61" y="447.845713"/>
     <use style="fill:#64b5cd;stroke:#64b5cd;" x="443.802097" xlink:href="#m06ea85cc61" y="392.389241"/>
     <use style="fill:#64b5cd;stroke:#64b5cd;" x="625.358066" xlink:href="#m06ea85cc61" y="331.428853"/>
     <use style="fill:#64b5cd;stroke:#64b5cd;" x="896.198164" xlink:href="#m06ea85cc61" y="319.825854"/>
     <use style="fill:#64b5cd;stroke:#64b5cd;" x="303.01376" xlink:href="#m06ea85cc61" y="441.926927"/>
     <use style="fill:#64b5cd;stroke:#64b5cd;" x="277.333038" xlink:href="#m06ea85cc61" y="425.659657"/>
     <use style="fill:#64b5cd;stroke:#64b5cd;" x="216.185719" xlink:href="#m06ea85cc61" y="490.482858"/>
     <use style="fill:#64b5cd;stroke:#64b5cd;" x="331.936647" xlink:href="#m06ea85cc61" y="442.373774"/>
     <use style="fill:#64b5cd;stroke:#64b5cd;" x="945.107027" xlink:href="#m06ea85cc61" y="223.132514"/>
     <use style="fill:#64b5cd;stroke:#64b5cd;" x="235.167889" xlink:href="#m06ea85cc61" y="491.245102"/>
     <use style="fill:#64b5cd;stroke:#64b5cd;" x="479.663592" xlink:href="#m06ea85cc61" y="373.220427"/>
     <use style="fill:#64b5cd;stroke:#64b5cd;" x="203.379086" xlink:href="#m06ea85cc61" y="485.573145"/>
     <use style="fill:#64b5cd;stroke:#64b5cd;" x="170.917841" xlink:href="#m06ea85cc61" y="492.191277"/>
     <use style="fill:#64b5cd;stroke:#64b5cd;" x="176.162888" xlink:href="#m06ea85cc61" y="456.808396"/>
     <use style="fill:#64b5cd;stroke:#64b5cd;" x="725.195294" xlink:href="#m06ea85cc61" y="293.224514"/>
     <use style="fill:#64b5cd;stroke:#64b5cd;" x="248.395373" xlink:href="#m06ea85cc61" y="461.233957"/>
     <use style="fill:#64b5cd;stroke:#64b5cd;" x="530.294072" xlink:href="#m06ea85cc61" y="325.671947"/>
     <use style="fill:#64b5cd;stroke:#64b5cd;" x="373.249596" xlink:href="#m06ea85cc61" y="436.55755"/>
     <use style="fill:#64b5cd;stroke:#64b5cd;" x="656.819377" xlink:href="#m06ea85cc61" y="352.537712"/>
     <use style="fill:#64b5cd;stroke:#64b5cd;" x="539.386274" xlink:href="#m06ea85cc61" y="411.368288"/>
     <use style="fill:#64b5cd;stroke:#64b5cd;" x="496.318656" xlink:href="#m06ea85cc61" y="348.933385"/>
     <use style="fill:#64b5cd;stroke:#64b5cd;" x="928.836612" xlink:href="#m06ea85cc61" y="342.345072"/>
     <use style="fill:#64b5cd;stroke:#64b5cd;" x="508.371663" xlink:href="#m06ea85cc61" y="393.486433"/>
    </g>
   </g>
   <g id="line2d_14">
    <defs>
     <path d="M 0 3 
C 0.795609 3 1.55874 2.683901 2.12132 2.12132 
C 2.683901 1.55874 3 0.795609 3 0 
C 3 -0.795609 2.683901 -1.55874 2.12132 -2.12132 
C 1.55874 -2.683901 0.795609 -3 0 -3 
C -0.795609 -3 -1.55874 -2.683901 -2.12132 -2.12132 
C -2.683901 -1.55874 -3 -0.795609 -3 0 
C -3 0.795609 -2.683901 1.55874 -2.12132 2.12132 
C -1.55874 2.683901 -0.795609 3 0 3 
z
" id="m21270ea8c5" style="stroke:#8172b3;"/>
    </defs>
    <g clip-path="url(#p951cbb02c9)">
     <use style="fill:#8172b3;stroke:#8172b3;" x="327.089232" xlink:href="#m21270ea8c5" y="452.429793"/>
     <use style="fill:#8172b3;stroke:#8172b3;" x="238.743756" xlink:href="#m21270ea8c5" y="371.521478"/>
     <use style="fill:#8172b3;stroke:#8172b3;" x="754.499259" xlink:href="#m21270ea8c5" y="227.251983"/>
     <use style="fill:#8172b3;stroke:#8172b3;" x="502.658951" xlink:href="#m21270ea8c5" y="360.873361"/>
     <use style="fill:#8172b3;stroke:#8172b3;" x="287.589426" xlink:href="#m21270ea8c5" y="390.128042"/>
     <use style="fill:#8172b3;stroke:#8172b3;" x="578.388178" xlink:href="#m21270ea8c5" y="450.05903"/>
     <use style="fill:#8172b3;stroke:#8172b3;" x="182.461453" xlink:href="#m21270ea8c5" y="491.323038"/>
     <use style="fill:#8172b3;stroke:#8172b3;" x="519.233691" xlink:href="#m21270ea8c5" y="368.019302"/>
     <use style="fill:#8172b3;stroke:#8172b3;" x="669.639862" xlink:href="#m21270ea8c5" y="240.768289"/>
     <use style="fill:#8172b3;stroke:#8172b3;" x="327.651558" xlink:href="#m21270ea8c5" y="386.853084"/>
     <use style="fill:#8172b3;stroke:#8172b3;" x="343.429758" xlink:href="#m21270ea8c5" y="319.033196"/>
     <use style="fill:#8172b3;stroke:#8172b3;" x="622.631419" xlink:href="#m21270ea8c5" y="381.569009"/>
     <use style="fill:#8172b3;stroke:#8172b3;" x="587.011504" xlink:href="#m21270ea8c5" y="395.868218"/>
     <use style="fill:#8172b3;stroke:#8172b3;" x="257.659176" xlink:href="#m21270ea8c5" y="458.129498"/>
     <use style="fill:#8172b3;stroke:#8172b3;" x="290.986446" xlink:href="#m21270ea8c5" y="422.408353"/>
     <use style="fill:#8172b3;stroke:#8172b3;" x="446.563433" xlink:href="#m21270ea8c5" y="402.292772"/>
     <use style="fill:#8172b3;stroke:#8172b3;" x="203.904564" xlink:href="#m21270ea8c5" y="436.319741"/>
     <use style="fill:#8172b3;stroke:#8172b3;" x="173.997791" xlink:href="#m21270ea8c5" y="481.750508"/>
     <use style="fill:#8172b3;stroke:#8172b3;" x="1031.400487" xlink:href="#m21270ea8c5" y="311.670056"/>
     <use style="fill:#8172b3;stroke:#8172b3;" x="323.69191" xlink:href="#m21270ea8c5" y="475.992534"/>
     <use style="fill:#8172b3;stroke:#8172b3;" x="342.701114" xlink:href="#m21270ea8c5" y="405.874034"/>
     <use style="fill:#8172b3;stroke:#8172b3;" x="308.8348" xlink:href="#m21270ea8c5" y="380.679489"/>
     <use style="fill:#8172b3;stroke:#8172b3;" x="618.357924" xlink:href="#m21270ea8c5" y="394.194331"/>
     <use style="fill:#8172b3;stroke:#8172b3;" x="206.677924" xlink:href="#m21270ea8c5" y="443.336449"/>
     <use style="fill:#8172b3;stroke:#8172b3;" x="229.469896" xlink:href="#m21270ea8c5" y="503.760325"/>
     <use style="fill:#8172b3;stroke:#8172b3;" x="571.349481" xlink:href="#m21270ea8c5" y="398.413652"/>
     <use style="fill:#8172b3;stroke:#8172b3;" x="376.478118" xlink:href="#m21270ea8c5" y="444.267836"/>
     <use style="fill:#8172b3;stroke:#8172b3;" x="1036.8" xlink:href="#m21270ea8c5" y="242.219924"/>
     <use style="fill:#8172b3;stroke:#8172b3;" x="340.272365" xlink:href="#m21270ea8c5" y="430.480211"/>
     <use style="fill:#8172b3;stroke:#8172b3;" x="307.096036" xlink:href="#m21270ea8c5" y="490.695654"/>
     <use style="fill:#8172b3;stroke:#8172b3;" x="191.635745" xlink:href="#m21270ea8c5" y="515.467763"/>
     <use style="fill:#8172b3;stroke:#8172b3;" x="411.557936" xlink:href="#m21270ea8c5" y="446.595291"/>
     <use style="fill:#8172b3;stroke:#8172b3;" x="369.533129" xlink:href="#m21270ea8c5" y="441.921266"/>
     <use style="fill:#8172b3;stroke:#8172b3;" x="658.323246" xlink:href="#m21270ea8c5" y="336.843064"/>
     <use style="fill:#8172b3;stroke:#8172b3;" x="202.794578" xlink:href="#m21270ea8c5" y="493.018475"/>
     <use style="fill:#8172b3;stroke:#8172b3;" x="316.768025" xlink:href="#m21270ea8c5" y="458.086966"/>
     <use style="fill:#8172b3;stroke:#8172b3;" x="681.957582" xlink:href="#m21270ea8c5" y="305.170603"/>
     <use style="fill:#8172b3;stroke:#8172b3;" x="525.601886" xlink:href="#m21270ea8c5" y="410.466165"/>
     <use style="fill:#8172b3;stroke:#8172b3;" x="546.365973" xlink:href="#m21270ea8c5" y="299.921838"/>
     <use style="fill:#8172b3;stroke:#8172b3;" x="361.793772" xlink:href="#m21270ea8c5" y="359.933091"/>
     <use style="fill:#8172b3;stroke:#8172b3;" x="502.973564" xlink:href="#m21270ea8c5" y="425.673297"/>
     <use style="fill:#8172b3;stroke:#8172b3;" x="154.256388" xlink:href="#m21270ea8c5" y="406.511449"/>
     <use style="fill:#8172b3;stroke:#8172b3;" x="611.616453" xlink:href="#m21270ea8c5" y="317.26608"/>
     <use style="fill:#8172b3;stroke:#8172b3;" x="707.24304" xlink:href="#m21270ea8c5" y="235.793799"/>
     <use style="fill:#8172b3;stroke:#8172b3;" x="317.07654" xlink:href="#m21270ea8c5" y="476.993754"/>
     <use style="fill:#8172b3;stroke:#8172b3;" x="204.200536" xlink:href="#m21270ea8c5" y="494.077113"/>
     <use style="fill:#8172b3;stroke:#8172b3;" x="206.430185" xlink:href="#m21270ea8c5" y="439.078253"/>
     <use style="fill:#8172b3;stroke:#8172b3;" x="144" xlink:href="#m21270ea8c5" y="505.939483"/>
     <use style="fill:#8172b3;stroke:#8172b3;" x="222.166464" xlink:href="#m21270ea8c5" y="458.119078"/>
     <use style="fill:#8172b3;stroke:#8172b3;" x="219.946452" xlink:href="#m21270ea8c5" y="482.039213"/>
    </g>
   </g>
   <g id="patch_3">
    <path d="M 144 630 
L 144 86.4 
" style="fill:none;stroke:#cccccc;stroke-linecap:square;stroke-linejoin:miter;stroke-width:1.25;"/>
   </g>
   <g id="patch_4">
    <path d="M 1036.8 630 
L 1036.8 86.4 
" style="fill:none;stroke:#cccccc;stroke-linecap:square;stroke-linejoin:miter;stroke-width:1.25;"/>
   </g>
   <g id="patch_5">
    <path d="M 144 630 
L 1036.8 630 
" style="fill:none;stroke:#cccccc;stroke-linecap:square;stroke-linejoin:miter;stroke-width:1.25;"/>
   </g>
   <g id="patch_6">
    <path d="M 144 86.4 
L 1036.8 86.4 
" style="fill:none;stroke:#cccccc;stroke-linecap:square;stroke-linejoin:miter;stroke-width:1.25;"/>
   </g>
  </g>
 </g>
 <defs>
  <clipPath id="p951cbb02c9">
   <rect height="543.6" width="892.8" x="144" y="86.4"/>
  </clipPath>
 </defs>
</svg>
