<?xml version="1.0" encoding="utf-8" standalone="no"?>
<!DOCTYPE svg PUBLIC "-//W3C//DTD SVG 1.1//EN"
  "http://www.w3.org/Graphics/SVG/1.1/DTD/svg11.dtd">
<!-- Created with matplotlib (https://matplotlib.org/) -->
<svg height="288pt" version="1.1" viewBox="0 0 432 288" width="432pt" xmlns="http://www.w3.org/2000/svg" xmlns:xlink="http://www.w3.org/1999/xlink">
 <defs>
  <style type="text/css">
*{stroke-linecap:butt;stroke-linejoin:round;}
  </style>
 </defs>
 <g id="figure_1">
  <g id="patch_1">
   <path d="M 0 288 
L 432 288 
L 432 0 
L 0 0 
z
" style="fill:#ffffff;"/>
  </g>
  <g id="axes_1">
   <g id="patch_2">
    <path d="M 54 252 
L 388.8 252 
L 388.8 34.56 
L 54 34.56 
z
" style="fill:#ffffff;"/>
   </g>
   <g id="matplotlib.axis_1">
    <g id="xtick_1">
     <g id="line2d_1">
      <path clip-path="url(#p36433e1857)" d="M 62.680204 252 
L 62.680204 34.56 
" style="fill:none;stroke:#cccccc;stroke-linecap:round;"/>
     </g>
     <g id="text_1">
      <!-- −4 -->
      <defs>
       <path d="M 52.828125 31.203125 
L 5.5625 31.203125 
L 5.5625 39.40625 
L 52.828125 39.40625 
z
" id="ArialMT-8722"/>
       <path d="M 32.328125 0 
L 32.328125 17.140625 
L 1.265625 17.140625 
L 1.265625 25.203125 
L 33.9375 71.578125 
L 41.109375 71.578125 
L 41.109375 25.203125 
L 50.78125 25.203125 
L 50.78125 17.140625 
L 41.109375 17.140625 
L 41.109375 0 
z
M 32.328125 25.203125 
L 32.328125 57.46875 
L 9.90625 25.203125 
z
" id="ArialMT-52"/>
      </defs>
      <g style="fill:#262626;" transform="translate(50.138486 277.247187)scale(0.22 -0.22)">
       <use xlink:href="#ArialMT-8722"/>
       <use x="58.398438" xlink:href="#ArialMT-52"/>
      </g>
     </g>
    </g>
    <g id="xtick_2">
     <g id="line2d_2">
      <path clip-path="url(#p36433e1857)" d="M 138.178025 252 
L 138.178025 34.56 
" style="fill:none;stroke:#cccccc;stroke-linecap:round;"/>
     </g>
     <g id="text_2">
      <!-- −2 -->
      <defs>
       <path d="M 50.34375 8.453125 
L 50.34375 0 
L 3.03125 0 
Q 2.9375 3.171875 4.046875 6.109375 
Q 5.859375 10.9375 9.828125 15.625 
Q 13.8125 20.3125 21.34375 26.46875 
Q 33.015625 36.03125 37.109375 41.625 
Q 41.21875 47.21875 41.21875 52.203125 
Q 41.21875 57.421875 37.46875 61 
Q 33.734375 64.59375 27.734375 64.59375 
Q 21.390625 64.59375 17.578125 60.78125 
Q 13.765625 56.984375 13.71875 50.25 
L 4.6875 51.171875 
Q 5.609375 61.28125 11.65625 66.578125 
Q 17.71875 71.875 27.9375 71.875 
Q 38.234375 71.875 44.234375 66.15625 
Q 50.25 60.453125 50.25 52 
Q 50.25 47.703125 48.484375 43.546875 
Q 46.734375 39.40625 42.65625 34.8125 
Q 38.578125 30.21875 29.109375 22.21875 
Q 21.1875 15.578125 18.9375 13.203125 
Q 16.703125 10.84375 15.234375 8.453125 
z
" id="ArialMT-50"/>
      </defs>
      <g style="fill:#262626;" transform="translate(125.636306 277.247187)scale(0.22 -0.22)">
       <use xlink:href="#ArialMT-8722"/>
       <use x="58.398438" xlink:href="#ArialMT-50"/>
      </g>
     </g>
    </g>
    <g id="xtick_3">
     <g id="line2d_3">
      <path clip-path="url(#p36433e1857)" d="M 213.675845 252 
L 213.675845 34.56 
" style="fill:none;stroke:#cccccc;stroke-linecap:round;"/>
     </g>
     <g id="text_3">
      <!-- 0 -->
      <defs>
       <path d="M 4.15625 35.296875 
Q 4.15625 48 6.765625 55.734375 
Q 9.375 63.484375 14.515625 67.671875 
Q 19.671875 71.875 27.484375 71.875 
Q 33.25 71.875 37.59375 69.546875 
Q 41.9375 67.234375 44.765625 62.859375 
Q 47.609375 58.5 49.21875 52.21875 
Q 50.828125 45.953125 50.828125 35.296875 
Q 50.828125 22.703125 48.234375 14.96875 
Q 45.65625 7.234375 40.5 3 
Q 35.359375 -1.21875 27.484375 -1.21875 
Q 17.140625 -1.21875 11.234375 6.203125 
Q 4.15625 15.140625 4.15625 35.296875 
z
M 13.1875 35.296875 
Q 13.1875 17.671875 17.3125 11.828125 
Q 21.4375 6 27.484375 6 
Q 33.546875 6 37.671875 11.859375 
Q 41.796875 17.71875 41.796875 35.296875 
Q 41.796875 52.984375 37.671875 58.78125 
Q 33.546875 64.59375 27.390625 64.59375 
Q 21.34375 64.59375 17.71875 59.46875 
Q 13.1875 52.9375 13.1875 35.296875 
z
" id="ArialMT-48"/>
      </defs>
      <g style="fill:#262626;" transform="translate(207.558814 277.247187)scale(0.22 -0.22)">
       <use xlink:href="#ArialMT-48"/>
      </g>
     </g>
    </g>
    <g id="xtick_4">
     <g id="line2d_4">
      <path clip-path="url(#p36433e1857)" d="M 289.173666 252 
L 289.173666 34.56 
" style="fill:none;stroke:#cccccc;stroke-linecap:round;"/>
     </g>
     <g id="text_4">
      <!-- 2 -->
      <g style="fill:#262626;" transform="translate(283.056634 277.247187)scale(0.22 -0.22)">
       <use xlink:href="#ArialMT-50"/>
      </g>
     </g>
    </g>
    <g id="xtick_5">
     <g id="line2d_5">
      <path clip-path="url(#p36433e1857)" d="M 364.671486 252 
L 364.671486 34.56 
" style="fill:none;stroke:#cccccc;stroke-linecap:round;"/>
     </g>
     <g id="text_5">
      <!-- 4 -->
      <g style="fill:#262626;" transform="translate(358.554455 277.247187)scale(0.22 -0.22)">
       <use xlink:href="#ArialMT-52"/>
      </g>
     </g>
    </g>
    <g id="text_6">
     <!-- Yerr_normalized -->
     <defs>
      <path d="M 27.875 0 
L 27.875 30.328125 
L 0.296875 71.578125 
L 11.8125 71.578125 
L 25.921875 50 
Q 29.828125 43.953125 33.203125 37.890625 
Q 36.421875 43.5 41.015625 50.53125 
L 54.890625 71.578125 
L 65.921875 71.578125 
L 37.359375 30.328125 
L 37.359375 0 
z
" id="ArialMT-89"/>
      <path d="M 42.09375 16.703125 
L 51.171875 15.578125 
Q 49.03125 7.625 43.21875 3.21875 
Q 37.40625 -1.171875 28.375 -1.171875 
Q 17 -1.171875 10.328125 5.828125 
Q 3.65625 12.84375 3.65625 25.484375 
Q 3.65625 38.578125 10.390625 45.796875 
Q 17.140625 53.03125 27.875 53.03125 
Q 38.28125 53.03125 44.875 45.953125 
Q 51.46875 38.875 51.46875 26.03125 
Q 51.46875 25.25 51.421875 23.6875 
L 12.75 23.6875 
Q 13.234375 15.140625 17.578125 10.59375 
Q 21.921875 6.0625 28.421875 6.0625 
Q 33.25 6.0625 36.671875 8.59375 
Q 40.09375 11.140625 42.09375 16.703125 
z
M 13.234375 30.90625 
L 42.1875 30.90625 
Q 41.609375 37.453125 38.875 40.71875 
Q 34.671875 45.796875 27.984375 45.796875 
Q 21.921875 45.796875 17.796875 41.75 
Q 13.671875 37.703125 13.234375 30.90625 
z
" id="ArialMT-101"/>
      <path d="M 6.5 0 
L 6.5 51.859375 
L 14.40625 51.859375 
L 14.40625 44 
Q 17.4375 49.515625 20 51.265625 
Q 22.5625 53.03125 25.640625 53.03125 
Q 30.078125 53.03125 34.671875 50.203125 
L 31.640625 42.046875 
Q 28.421875 43.953125 25.203125 43.953125 
Q 22.3125 43.953125 20.015625 42.21875 
Q 17.71875 40.484375 16.75 37.40625 
Q 15.28125 32.71875 15.28125 27.15625 
L 15.28125 0 
z
" id="ArialMT-114"/>
      <path d="M -1.515625 -19.875 
L -1.515625 -13.53125 
L 56.734375 -13.53125 
L 56.734375 -19.875 
z
" id="ArialMT-95"/>
      <path d="M 6.59375 0 
L 6.59375 51.859375 
L 14.5 51.859375 
L 14.5 44.484375 
Q 20.21875 53.03125 31 53.03125 
Q 35.6875 53.03125 39.625 51.34375 
Q 43.5625 49.65625 45.515625 46.921875 
Q 47.46875 44.1875 48.25 40.4375 
Q 48.734375 37.984375 48.734375 31.890625 
L 48.734375 0 
L 39.9375 0 
L 39.9375 31.546875 
Q 39.9375 36.921875 38.90625 39.578125 
Q 37.890625 42.234375 35.28125 43.8125 
Q 32.671875 45.40625 29.15625 45.40625 
Q 23.53125 45.40625 19.453125 41.84375 
Q 15.375 38.28125 15.375 28.328125 
L 15.375 0 
z
" id="ArialMT-110"/>
      <path d="M 3.328125 25.921875 
Q 3.328125 40.328125 11.328125 47.265625 
Q 18.015625 53.03125 27.640625 53.03125 
Q 38.328125 53.03125 45.109375 46.015625 
Q 51.90625 39.015625 51.90625 26.65625 
Q 51.90625 16.65625 48.90625 10.90625 
Q 45.90625 5.171875 40.15625 2 
Q 34.421875 -1.171875 27.640625 -1.171875 
Q 16.75 -1.171875 10.03125 5.8125 
Q 3.328125 12.796875 3.328125 25.921875 
z
M 12.359375 25.921875 
Q 12.359375 15.96875 16.703125 11.015625 
Q 21.046875 6.0625 27.640625 6.0625 
Q 34.1875 6.0625 38.53125 11.03125 
Q 42.875 16.015625 42.875 26.21875 
Q 42.875 35.84375 38.5 40.796875 
Q 34.125 45.75 27.640625 45.75 
Q 21.046875 45.75 16.703125 40.8125 
Q 12.359375 35.890625 12.359375 25.921875 
z
" id="ArialMT-111"/>
      <path d="M 6.59375 0 
L 6.59375 51.859375 
L 14.453125 51.859375 
L 14.453125 44.578125 
Q 16.890625 48.390625 20.9375 50.703125 
Q 25 53.03125 30.171875 53.03125 
Q 35.9375 53.03125 39.625 50.640625 
Q 43.3125 48.25 44.828125 43.953125 
Q 50.984375 53.03125 60.84375 53.03125 
Q 68.5625 53.03125 72.703125 48.75 
Q 76.859375 44.484375 76.859375 35.59375 
L 76.859375 0 
L 68.109375 0 
L 68.109375 32.671875 
Q 68.109375 37.9375 67.25 40.25 
Q 66.40625 42.578125 64.15625 43.984375 
Q 61.921875 45.40625 58.890625 45.40625 
Q 53.421875 45.40625 49.796875 41.765625 
Q 46.1875 38.140625 46.1875 30.125 
L 46.1875 0 
L 37.40625 0 
L 37.40625 33.6875 
Q 37.40625 39.546875 35.25 42.46875 
Q 33.109375 45.40625 28.21875 45.40625 
Q 24.515625 45.40625 21.359375 43.453125 
Q 18.21875 41.5 16.796875 37.734375 
Q 15.375 33.984375 15.375 26.90625 
L 15.375 0 
z
" id="ArialMT-109"/>
      <path d="M 40.4375 6.390625 
Q 35.546875 2.25 31.03125 0.53125 
Q 26.515625 -1.171875 21.34375 -1.171875 
Q 12.796875 -1.171875 8.203125 3 
Q 3.609375 7.171875 3.609375 13.671875 
Q 3.609375 17.484375 5.34375 20.625 
Q 7.078125 23.78125 9.890625 25.6875 
Q 12.703125 27.59375 16.21875 28.5625 
Q 18.796875 29.25 24.03125 29.890625 
Q 34.671875 31.15625 39.703125 32.90625 
Q 39.75 34.71875 39.75 35.203125 
Q 39.75 40.578125 37.25 42.78125 
Q 33.890625 45.75 27.25 45.75 
Q 21.046875 45.75 18.09375 43.578125 
Q 15.140625 41.40625 13.71875 35.890625 
L 5.125 37.0625 
Q 6.296875 42.578125 8.984375 45.96875 
Q 11.671875 49.359375 16.75 51.1875 
Q 21.828125 53.03125 28.515625 53.03125 
Q 35.15625 53.03125 39.296875 51.46875 
Q 43.453125 49.90625 45.40625 47.53125 
Q 47.359375 45.171875 48.140625 41.546875 
Q 48.578125 39.3125 48.578125 33.453125 
L 48.578125 21.734375 
Q 48.578125 9.46875 49.140625 6.21875 
Q 49.703125 2.984375 51.375 0 
L 42.1875 0 
Q 40.828125 2.734375 40.4375 6.390625 
z
M 39.703125 26.03125 
Q 34.90625 24.078125 25.34375 22.703125 
Q 19.921875 21.921875 17.671875 20.9375 
Q 15.4375 19.96875 14.203125 18.09375 
Q 12.984375 16.21875 12.984375 13.921875 
Q 12.984375 10.40625 15.640625 8.0625 
Q 18.3125 5.71875 23.4375 5.71875 
Q 28.515625 5.71875 32.46875 7.9375 
Q 36.421875 10.15625 38.28125 14.015625 
Q 39.703125 17 39.703125 22.796875 
z
" id="ArialMT-97"/>
      <path d="M 6.390625 0 
L 6.390625 71.578125 
L 15.1875 71.578125 
L 15.1875 0 
z
" id="ArialMT-108"/>
      <path d="M 6.640625 61.46875 
L 6.640625 71.578125 
L 15.4375 71.578125 
L 15.4375 61.46875 
z
M 6.640625 0 
L 6.640625 51.859375 
L 15.4375 51.859375 
L 15.4375 0 
z
" id="ArialMT-105"/>
      <path d="M 1.953125 0 
L 1.953125 7.125 
L 34.96875 45.015625 
Q 29.34375 44.734375 25.046875 44.734375 
L 3.90625 44.734375 
L 3.90625 51.859375 
L 46.296875 51.859375 
L 46.296875 46.046875 
L 18.21875 13.140625 
L 12.796875 7.125 
Q 18.703125 7.5625 23.875 7.5625 
L 47.859375 7.5625 
L 47.859375 0 
z
" id="ArialMT-122"/>
      <path d="M 40.234375 0 
L 40.234375 6.546875 
Q 35.296875 -1.171875 25.734375 -1.171875 
Q 19.53125 -1.171875 14.328125 2.25 
Q 9.125 5.671875 6.265625 11.796875 
Q 3.421875 17.921875 3.421875 25.875 
Q 3.421875 33.640625 6 39.96875 
Q 8.59375 46.296875 13.765625 49.65625 
Q 18.953125 53.03125 25.34375 53.03125 
Q 30.03125 53.03125 33.6875 51.046875 
Q 37.359375 49.078125 39.65625 45.90625 
L 39.65625 71.578125 
L 48.390625 71.578125 
L 48.390625 0 
z
M 12.453125 25.875 
Q 12.453125 15.921875 16.640625 10.984375 
Q 20.84375 6.0625 26.5625 6.0625 
Q 32.328125 6.0625 36.34375 10.765625 
Q 40.375 15.484375 40.375 25.140625 
Q 40.375 35.796875 36.265625 40.765625 
Q 32.171875 45.75 26.171875 45.75 
Q 20.3125 45.75 16.375 40.96875 
Q 12.453125 36.1875 12.453125 25.875 
z
" id="ArialMT-100"/>
     </defs>
     <g style="fill:#262626;" transform="translate(133.385625 302.798437)scale(0.24 -0.24)">
      <use xlink:href="#ArialMT-89"/>
      <use x="66.558594" xlink:href="#ArialMT-101"/>
      <use x="122.173828" xlink:href="#ArialMT-114"/>
      <use x="155.474609" xlink:href="#ArialMT-114"/>
      <use x="188.775391" xlink:href="#ArialMT-95"/>
      <use x="244.390625" xlink:href="#ArialMT-110"/>
      <use x="300.005859" xlink:href="#ArialMT-111"/>
      <use x="355.621094" xlink:href="#ArialMT-114"/>
      <use x="388.921875" xlink:href="#ArialMT-109"/>
      <use x="472.222656" xlink:href="#ArialMT-97"/>
      <use x="527.837891" xlink:href="#ArialMT-108"/>
      <use x="550.054688" xlink:href="#ArialMT-105"/>
      <use x="572.271484" xlink:href="#ArialMT-122"/>
      <use x="622.271484" xlink:href="#ArialMT-101"/>
      <use x="677.886719" xlink:href="#ArialMT-100"/>
     </g>
    </g>
   </g>
   <g id="matplotlib.axis_2">
    <g id="ytick_1">
     <g id="line2d_6">
      <path clip-path="url(#p36433e1857)" d="M 54 252 
L 388.8 252 
" style="fill:none;stroke:#cccccc;stroke-linecap:round;"/>
     </g>
     <g id="text_7">
      <!-- 0.0 -->
      <defs>
       <path d="M 9.078125 0 
L 9.078125 10.015625 
L 19.09375 10.015625 
L 19.09375 0 
z
" id="ArialMT-46"/>
      </defs>
      <g style="fill:#262626;" transform="translate(13.92 259.873594)scale(0.22 -0.22)">
       <use xlink:href="#ArialMT-48"/>
       <use x="55.615234" xlink:href="#ArialMT-46"/>
       <use x="83.398438" xlink:href="#ArialMT-48"/>
      </g>
     </g>
    </g>
    <g id="ytick_2">
     <g id="line2d_7">
      <path clip-path="url(#p36433e1857)" d="M 54 181.476869 
L 388.8 181.476869 
" style="fill:none;stroke:#cccccc;stroke-linecap:round;"/>
     </g>
     <g id="text_8">
      <!-- 0.2 -->
      <g style="fill:#262626;" transform="translate(13.92 189.350463)scale(0.22 -0.22)">
       <use xlink:href="#ArialMT-48"/>
       <use x="55.615234" xlink:href="#ArialMT-46"/>
       <use x="83.398438" xlink:href="#ArialMT-50"/>
      </g>
     </g>
    </g>
    <g id="ytick_3">
     <g id="line2d_8">
      <path clip-path="url(#p36433e1857)" d="M 54 110.953739 
L 388.8 110.953739 
" style="fill:none;stroke:#cccccc;stroke-linecap:round;"/>
     </g>
     <g id="text_9">
      <!-- 0.4 -->
      <g style="fill:#262626;" transform="translate(13.92 118.827333)scale(0.22 -0.22)">
       <use xlink:href="#ArialMT-48"/>
       <use x="55.615234" xlink:href="#ArialMT-46"/>
       <use x="83.398438" xlink:href="#ArialMT-52"/>
      </g>
     </g>
    </g>
    <g id="ytick_4">
     <g id="line2d_9">
      <path clip-path="url(#p36433e1857)" d="M 54 40.430608 
L 388.8 40.430608 
" style="fill:none;stroke:#cccccc;stroke-linecap:round;"/>
     </g>
     <g id="text_10">
      <!-- 0.6 -->
      <defs>
       <path d="M 49.75 54.046875 
L 41.015625 53.375 
Q 39.84375 58.546875 37.703125 60.890625 
Q 34.125 64.65625 28.90625 64.65625 
Q 24.703125 64.65625 21.53125 62.3125 
Q 17.390625 59.28125 14.984375 53.46875 
Q 12.59375 47.65625 12.5 36.921875 
Q 15.671875 41.75 20.265625 44.09375 
Q 24.859375 46.4375 29.890625 46.4375 
Q 38.671875 46.4375 44.84375 39.96875 
Q 51.03125 33.5 51.03125 23.25 
Q 51.03125 16.5 48.125 10.71875 
Q 45.21875 4.9375 40.140625 1.859375 
Q 35.0625 -1.21875 28.609375 -1.21875 
Q 17.625 -1.21875 10.6875 6.859375 
Q 3.765625 14.9375 3.765625 33.5 
Q 3.765625 54.25 11.421875 63.671875 
Q 18.109375 71.875 29.4375 71.875 
Q 37.890625 71.875 43.28125 67.140625 
Q 48.6875 62.40625 49.75 54.046875 
z
M 13.875 23.1875 
Q 13.875 18.65625 15.796875 14.5 
Q 17.71875 10.359375 21.1875 8.171875 
Q 24.65625 6 28.46875 6 
Q 34.03125 6 38.03125 10.484375 
Q 42.046875 14.984375 42.046875 22.703125 
Q 42.046875 30.125 38.078125 34.390625 
Q 34.125 38.671875 28.125 38.671875 
Q 22.171875 38.671875 18.015625 34.390625 
Q 13.875 30.125 13.875 23.1875 
z
" id="ArialMT-54"/>
      </defs>
      <g style="fill:#262626;" transform="translate(13.92 48.304202)scale(0.22 -0.22)">
       <use xlink:href="#ArialMT-48"/>
       <use x="55.615234" xlink:href="#ArialMT-46"/>
       <use x="83.398438" xlink:href="#ArialMT-54"/>
      </g>
     </g>
    </g>
   </g>
   <g id="patch_3">
    <path clip-path="url(#p36433e1857)" d="M 105.701329 252 
L 120.163663 252 
L 120.163663 247.398095 
L 105.701329 247.398095 
z
" style="fill:#4c72b0;opacity:0.4;stroke:#ffffff;stroke-linejoin:miter;"/>
   </g>
   <g id="patch_4">
    <path clip-path="url(#p36433e1857)" d="M 120.163663 252 
L 134.625997 252 
L 134.625997 247.398095 
L 120.163663 247.398095 
z
" style="fill:#4c72b0;opacity:0.4;stroke:#ffffff;stroke-linejoin:miter;"/>
   </g>
   <g id="patch_5">
    <path clip-path="url(#p36433e1857)" d="M 134.625997 252 
L 149.088331 252 
L 149.088331 247.398095 
L 134.625997 247.398095 
z
" style="fill:#4c72b0;opacity:0.4;stroke:#ffffff;stroke-linejoin:miter;"/>
   </g>
   <g id="patch_6">
    <path clip-path="url(#p36433e1857)" d="M 149.088331 252 
L 163.550665 252 
L 163.550665 201.379048 
L 149.088331 201.379048 
z
" style="fill:#4c72b0;opacity:0.4;stroke:#ffffff;stroke-linejoin:miter;"/>
   </g>
   <g id="patch_7">
    <path clip-path="url(#p36433e1857)" d="M 163.550665 252 
L 178.012998 252 
L 178.012998 141.554286 
L 163.550665 141.554286 
z
" style="fill:#4c72b0;opacity:0.4;stroke:#ffffff;stroke-linejoin:miter;"/>
   </g>
   <g id="patch_8">
    <path clip-path="url(#p36433e1857)" d="M 178.012998 252 
L 192.475332 252 
L 192.475332 141.554286 
L 178.012998 141.554286 
z
" style="fill:#4c72b0;opacity:0.4;stroke:#ffffff;stroke-linejoin:miter;"/>
   </g>
   <g id="patch_9">
    <path clip-path="url(#p36433e1857)" d="M 192.475332 252 
L 206.937666 252 
L 206.937666 44.914286 
L 192.475332 44.914286 
z
" style="fill:#4c72b0;opacity:0.4;stroke:#ffffff;stroke-linejoin:miter;"/>
   </g>
   <g id="patch_10">
    <path clip-path="url(#p36433e1857)" d="M 206.937666 252 
L 221.4 252 
L 221.4 123.146667 
L 206.937666 123.146667 
z
" style="fill:#4c72b0;opacity:0.4;stroke:#ffffff;stroke-linejoin:miter;"/>
   </g>
   <g id="patch_11">
    <path clip-path="url(#p36433e1857)" d="M 221.4 252 
L 235.862334 252 
L 235.862334 178.369524 
L 221.4 178.369524 
z
" style="fill:#4c72b0;opacity:0.4;stroke:#ffffff;stroke-linejoin:miter;"/>
   </g>
   <g id="patch_12">
    <path clip-path="url(#p36433e1857)" d="M 235.862334 252 
L 250.324668 252 
L 250.324668 173.767619 
L 235.862334 173.767619 
z
" style="fill:#4c72b0;opacity:0.4;stroke:#ffffff;stroke-linejoin:miter;"/>
   </g>
   <g id="patch_13">
    <path clip-path="url(#p36433e1857)" d="M 250.324668 252 
L 264.787002 252 
L 264.787002 192.175238 
L 250.324668 192.175238 
z
" style="fill:#4c72b0;opacity:0.4;stroke:#ffffff;stroke-linejoin:miter;"/>
   </g>
   <g id="patch_14">
    <path clip-path="url(#p36433e1857)" d="M 264.787002 252 
L 279.249335 252 
L 279.249335 219.786667 
L 264.787002 219.786667 
z
" style="fill:#4c72b0;opacity:0.4;stroke:#ffffff;stroke-linejoin:miter;"/>
   </g>
   <g id="patch_15">
    <path clip-path="url(#p36433e1857)" d="M 279.249335 252 
L 293.711669 252 
L 293.711669 233.592381 
L 279.249335 233.592381 
z
" style="fill:#4c72b0;opacity:0.4;stroke:#ffffff;stroke-linejoin:miter;"/>
   </g>
   <g id="patch_16">
    <path clip-path="url(#p36433e1857)" d="M 293.711669 252 
L 308.174003 252 
L 308.174003 233.592381 
L 293.711669 233.592381 
z
" style="fill:#4c72b0;opacity:0.4;stroke:#ffffff;stroke-linejoin:miter;"/>
   </g>
   <g id="patch_17">
    <path clip-path="url(#p36433e1857)" d="M 308.174003 252 
L 322.636337 252 
L 322.636337 242.79619 
L 308.174003 242.79619 
z
" style="fill:#4c72b0;opacity:0.4;stroke:#ffffff;stroke-linejoin:miter;"/>
   </g>
   <g id="patch_18">
    <path clip-path="url(#p36433e1857)" d="M 322.636337 252 
L 337.098671 252 
L 337.098671 242.79619 
L 322.636337 242.79619 
z
" style="fill:#4c72b0;opacity:0.4;stroke:#ffffff;stroke-linejoin:miter;"/>
   </g>
   <g id="LineCollection_1">
    <path clip-path="url(#p36433e1857)" d="M 149.090583 252 
L 149.090583 241.128 
" style="fill:none;stroke:#4c72b0;"/>
    <path clip-path="url(#p36433e1857)" d="M 263.571869 252 
L 263.571869 241.128 
" style="fill:none;stroke:#4c72b0;"/>
    <path clip-path="url(#p36433e1857)" d="M 194.86048 252 
L 194.86048 241.128 
" style="fill:none;stroke:#4c72b0;"/>
    <path clip-path="url(#p36433e1857)" d="M 214.332441 252 
L 214.332441 241.128 
" style="fill:none;stroke:#4c72b0;"/>
    <path clip-path="url(#p36433e1857)" d="M 247.609005 252 
L 247.609005 241.128 
" style="fill:none;stroke:#4c72b0;"/>
    <path clip-path="url(#p36433e1857)" d="M 175.618673 252 
L 175.618673 241.128 
" style="fill:none;stroke:#4c72b0;"/>
    <path clip-path="url(#p36433e1857)" d="M 227.401251 252 
L 227.401251 241.128 
" style="fill:none;stroke:#4c72b0;"/>
    <path clip-path="url(#p36433e1857)" d="M 173.245307 252 
L 173.245307 241.128 
" style="fill:none;stroke:#4c72b0;"/>
    <path clip-path="url(#p36433e1857)" d="M 221.025712 252 
L 221.025712 241.128 
" style="fill:none;stroke:#4c72b0;"/>
    <path clip-path="url(#p36433e1857)" d="M 196.132273 252 
L 196.132273 241.128 
" style="fill:none;stroke:#4c72b0;"/>
    <path clip-path="url(#p36433e1857)" d="M 255.596544 252 
L 255.596544 241.128 
" style="fill:none;stroke:#4c72b0;"/>
    <path clip-path="url(#p36433e1857)" d="M 175.60099 252 
L 175.60099 241.128 
" style="fill:none;stroke:#4c72b0;"/>
    <path clip-path="url(#p36433e1857)" d="M 194.04662 252 
L 194.04662 241.128 
" style="fill:none;stroke:#4c72b0;"/>
    <path clip-path="url(#p36433e1857)" d="M 225.897314 252 
L 225.897314 241.128 
" style="fill:none;stroke:#4c72b0;"/>
    <path clip-path="url(#p36433e1857)" d="M 163.52758 252 
L 163.52758 241.128 
" style="fill:none;stroke:#4c72b0;"/>
    <path clip-path="url(#p36433e1857)" d="M 182.942438 252 
L 182.942438 241.128 
" style="fill:none;stroke:#4c72b0;"/>
    <path clip-path="url(#p36433e1857)" d="M 225.520267 252 
L 225.520267 241.128 
" style="fill:none;stroke:#4c72b0;"/>
    <path clip-path="url(#p36433e1857)" d="M 209.320794 252 
L 209.320794 241.128 
" style="fill:none;stroke:#4c72b0;"/>
    <path clip-path="url(#p36433e1857)" d="M 216.266697 252 
L 216.266697 241.128 
" style="fill:none;stroke:#4c72b0;"/>
    <path clip-path="url(#p36433e1857)" d="M 218.358499 252 
L 218.358499 241.128 
" style="fill:none;stroke:#4c72b0;"/>
    <path clip-path="url(#p36433e1857)" d="M 202.503774 252 
L 202.503774 241.128 
" style="fill:none;stroke:#4c72b0;"/>
    <path clip-path="url(#p36433e1857)" d="M 203.808618 252 
L 203.808618 241.128 
" style="fill:none;stroke:#4c72b0;"/>
    <path clip-path="url(#p36433e1857)" d="M 164.819348 252 
L 164.819348 241.128 
" style="fill:none;stroke:#4c72b0;"/>
    <path clip-path="url(#p36433e1857)" d="M 208.94016 252 
L 208.94016 241.128 
" style="fill:none;stroke:#4c72b0;"/>
    <path clip-path="url(#p36433e1857)" d="M 237.626089 252 
L 237.626089 241.128 
" style="fill:none;stroke:#4c72b0;"/>
    <path clip-path="url(#p36433e1857)" d="M 162.623284 252 
L 162.623284 241.128 
" style="fill:none;stroke:#4c72b0;"/>
    <path clip-path="url(#p36433e1857)" d="M 192.527745 252 
L 192.527745 241.128 
" style="fill:none;stroke:#4c72b0;"/>
    <path clip-path="url(#p36433e1857)" d="M 229.509371 252 
L 229.509371 241.128 
" style="fill:none;stroke:#4c72b0;"/>
    <path clip-path="url(#p36433e1857)" d="M 218.456758 252 
L 218.456758 241.128 
" style="fill:none;stroke:#4c72b0;"/>
    <path clip-path="url(#p36433e1857)" d="M 181.333064 252 
L 181.333064 241.128 
" style="fill:none;stroke:#4c72b0;"/>
    <path clip-path="url(#p36433e1857)" d="M 166.012698 252 
L 166.012698 241.128 
" style="fill:none;stroke:#4c72b0;"/>
    <path clip-path="url(#p36433e1857)" d="M 212.102079 252 
L 212.102079 241.128 
" style="fill:none;stroke:#4c72b0;"/>
    <path clip-path="url(#p36433e1857)" d="M 253.251989 252 
L 253.251989 241.128 
" style="fill:none;stroke:#4c72b0;"/>
    <path clip-path="url(#p36433e1857)" d="M 193.891257 252 
L 193.891257 241.128 
" style="fill:none;stroke:#4c72b0;"/>
    <path clip-path="url(#p36433e1857)" d="M 195.029452 252 
L 195.029452 241.128 
" style="fill:none;stroke:#4c72b0;"/>
    <path clip-path="url(#p36433e1857)" d="M 265.642969 252 
L 265.642969 241.128 
" style="fill:none;stroke:#4c72b0;"/>
    <path clip-path="url(#p36433e1857)" d="M 171.504851 252 
L 171.504851 241.128 
" style="fill:none;stroke:#4c72b0;"/>
    <path clip-path="url(#p36433e1857)" d="M 175.900368 252 
L 175.900368 241.128 
" style="fill:none;stroke:#4c72b0;"/>
    <path clip-path="url(#p36433e1857)" d="M 211.128702 252 
L 211.128702 241.128 
" style="fill:none;stroke:#4c72b0;"/>
    <path clip-path="url(#p36433e1857)" d="M 204.091803 252 
L 204.091803 241.128 
" style="fill:none;stroke:#4c72b0;"/>
    <path clip-path="url(#p36433e1857)" d="M 189.517675 252 
L 189.517675 241.128 
" style="fill:none;stroke:#4c72b0;"/>
    <path clip-path="url(#p36433e1857)" d="M 199.336355 252 
L 199.336355 241.128 
" style="fill:none;stroke:#4c72b0;"/>
    <path clip-path="url(#p36433e1857)" d="M 220.622958 252 
L 220.622958 241.128 
" style="fill:none;stroke:#4c72b0;"/>
    <path clip-path="url(#p36433e1857)" d="M 262.560877 252 
L 262.560877 241.128 
" style="fill:none;stroke:#4c72b0;"/>
    <path clip-path="url(#p36433e1857)" d="M 165.749303 252 
L 165.749303 241.128 
" style="fill:none;stroke:#4c72b0;"/>
    <path clip-path="url(#p36433e1857)" d="M 238.728029 252 
L 238.728029 241.128 
" style="fill:none;stroke:#4c72b0;"/>
    <path clip-path="url(#p36433e1857)" d="M 221.418946 252 
L 221.418946 241.128 
" style="fill:none;stroke:#4c72b0;"/>
    <path clip-path="url(#p36433e1857)" d="M 248.126128 252 
L 248.126128 241.128 
" style="fill:none;stroke:#4c72b0;"/>
    <path clip-path="url(#p36433e1857)" d="M 220.550689 252 
L 220.550689 241.128 
" style="fill:none;stroke:#4c72b0;"/>
    <path clip-path="url(#p36433e1857)" d="M 243.245666 252 
L 243.245666 241.128 
" style="fill:none;stroke:#4c72b0;"/>
    <path clip-path="url(#p36433e1857)" d="M 201.846162 252 
L 201.846162 241.128 
" style="fill:none;stroke:#4c72b0;"/>
    <path clip-path="url(#p36433e1857)" d="M 251.224299 252 
L 251.224299 241.128 
" style="fill:none;stroke:#4c72b0;"/>
    <path clip-path="url(#p36433e1857)" d="M 222.276049 252 
L 222.276049 241.128 
" style="fill:none;stroke:#4c72b0;"/>
    <path clip-path="url(#p36433e1857)" d="M 197.068458 252 
L 197.068458 241.128 
" style="fill:none;stroke:#4c72b0;"/>
    <path clip-path="url(#p36433e1857)" d="M 168.619009 252 
L 168.619009 241.128 
" style="fill:none;stroke:#4c72b0;"/>
    <path clip-path="url(#p36433e1857)" d="M 191.217437 252 
L 191.217437 241.128 
" style="fill:none;stroke:#4c72b0;"/>
    <path clip-path="url(#p36433e1857)" d="M 309.037922 252 
L 309.037922 241.128 
" style="fill:none;stroke:#4c72b0;"/>
    <path clip-path="url(#p36433e1857)" d="M 188.852254 252 
L 188.852254 241.128 
" style="fill:none;stroke:#4c72b0;"/>
    <path clip-path="url(#p36433e1857)" d="M 273.24724 252 
L 273.24724 241.128 
" style="fill:none;stroke:#4c72b0;"/>
    <path clip-path="url(#p36433e1857)" d="M 237.620049 252 
L 237.620049 241.128 
" style="fill:none;stroke:#4c72b0;"/>
    <path clip-path="url(#p36433e1857)" d="M 206.449847 252 
L 206.449847 241.128 
" style="fill:none;stroke:#4c72b0;"/>
    <path clip-path="url(#p36433e1857)" d="M 247.880463 252 
L 247.880463 241.128 
" style="fill:none;stroke:#4c72b0;"/>
    <path clip-path="url(#p36433e1857)" d="M 224.084305 252 
L 224.084305 241.128 
" style="fill:none;stroke:#4c72b0;"/>
    <path clip-path="url(#p36433e1857)" d="M 188.834368 252 
L 188.834368 241.128 
" style="fill:none;stroke:#4c72b0;"/>
    <path clip-path="url(#p36433e1857)" d="M 281.739088 252 
L 281.739088 241.128 
" style="fill:none;stroke:#4c72b0;"/>
    <path clip-path="url(#p36433e1857)" d="M 207.89817 252 
L 207.89817 241.128 
" style="fill:none;stroke:#4c72b0;"/>
    <path clip-path="url(#p36433e1857)" d="M 201.378299 252 
L 201.378299 241.128 
" style="fill:none;stroke:#4c72b0;"/>
    <path clip-path="url(#p36433e1857)" d="M 301.668862 252 
L 301.668862 241.128 
" style="fill:none;stroke:#4c72b0;"/>
    <path clip-path="url(#p36433e1857)" d="M 174.712999 252 
L 174.712999 241.128 
" style="fill:none;stroke:#4c72b0;"/>
    <path clip-path="url(#p36433e1857)" d="M 185.857295 252 
L 185.857295 241.128 
" style="fill:none;stroke:#4c72b0;"/>
    <path clip-path="url(#p36433e1857)" d="M 203.013345 252 
L 203.013345 241.128 
" style="fill:none;stroke:#4c72b0;"/>
    <path clip-path="url(#p36433e1857)" d="M 175.669418 252 
L 175.669418 241.128 
" style="fill:none;stroke:#4c72b0;"/>
    <path clip-path="url(#p36433e1857)" d="M 187.615357 252 
L 187.615357 241.128 
" style="fill:none;stroke:#4c72b0;"/>
    <path clip-path="url(#p36433e1857)" d="M 301.551978 252 
L 301.551978 241.128 
" style="fill:none;stroke:#4c72b0;"/>
    <path clip-path="url(#p36433e1857)" d="M 224.860901 252 
L 224.860901 241.128 
" style="fill:none;stroke:#4c72b0;"/>
    <path clip-path="url(#p36433e1857)" d="M 226.499934 252 
L 226.499934 241.128 
" style="fill:none;stroke:#4c72b0;"/>
    <path clip-path="url(#p36433e1857)" d="M 162.942269 252 
L 162.942269 241.128 
" style="fill:none;stroke:#4c72b0;"/>
    <path clip-path="url(#p36433e1857)" d="M 240.763358 252 
L 240.763358 241.128 
" style="fill:none;stroke:#4c72b0;"/>
    <path clip-path="url(#p36433e1857)" d="M 241.412342 252 
L 241.412342 241.128 
" style="fill:none;stroke:#4c72b0;"/>
    <path clip-path="url(#p36433e1857)" d="M 250.302424 252 
L 250.302424 241.128 
" style="fill:none;stroke:#4c72b0;"/>
    <path clip-path="url(#p36433e1857)" d="M 142.065998 252 
L 142.065998 241.128 
" style="fill:none;stroke:#4c72b0;"/>
    <path clip-path="url(#p36433e1857)" d="M 182.63631 252 
L 182.63631 241.128 
" style="fill:none;stroke:#4c72b0;"/>
    <path clip-path="url(#p36433e1857)" d="M 171.084697 252 
L 171.084697 241.128 
" style="fill:none;stroke:#4c72b0;"/>
    <path clip-path="url(#p36433e1857)" d="M 188.463961 252 
L 188.463961 241.128 
" style="fill:none;stroke:#4c72b0;"/>
    <path clip-path="url(#p36433e1857)" d="M 184.374694 252 
L 184.374694 241.128 
" style="fill:none;stroke:#4c72b0;"/>
    <path clip-path="url(#p36433e1857)" d="M 203.353785 252 
L 203.353785 241.128 
" style="fill:none;stroke:#4c72b0;"/>
    <path clip-path="url(#p36433e1857)" d="M 185.675029 252 
L 185.675029 241.128 
" style="fill:none;stroke:#4c72b0;"/>
    <path clip-path="url(#p36433e1857)" d="M 275.465311 252 
L 275.465311 241.128 
" style="fill:none;stroke:#4c72b0;"/>
    <path clip-path="url(#p36433e1857)" d="M 236.462213 252 
L 236.462213 241.128 
" style="fill:none;stroke:#4c72b0;"/>
    <path clip-path="url(#p36433e1857)" d="M 172.662021 252 
L 172.662021 241.128 
" style="fill:none;stroke:#4c72b0;"/>
    <path clip-path="url(#p36433e1857)" d="M 234.558776 252 
L 234.558776 241.128 
" style="fill:none;stroke:#4c72b0;"/>
    <path clip-path="url(#p36433e1857)" d="M 259.25317 252 
L 259.25317 241.128 
" style="fill:none;stroke:#4c72b0;"/>
    <path clip-path="url(#p36433e1857)" d="M 172.285468 252 
L 172.285468 241.128 
" style="fill:none;stroke:#4c72b0;"/>
    <path clip-path="url(#p36433e1857)" d="M 180.199837 252 
L 180.199837 241.128 
" style="fill:none;stroke:#4c72b0;"/>
    <path clip-path="url(#p36433e1857)" d="M 288.386016 252 
L 288.386016 241.128 
" style="fill:none;stroke:#4c72b0;"/>
    <path clip-path="url(#p36433e1857)" d="M 297.132148 252 
L 297.132148 241.128 
" style="fill:none;stroke:#4c72b0;"/>
    <path clip-path="url(#p36433e1857)" d="M 201.266778 252 
L 201.266778 241.128 
" style="fill:none;stroke:#4c72b0;"/>
    <path clip-path="url(#p36433e1857)" d="M 190.703556 252 
L 190.703556 241.128 
" style="fill:none;stroke:#4c72b0;"/>
    <path clip-path="url(#p36433e1857)" d="M 198.121751 252 
L 198.121751 241.128 
" style="fill:none;stroke:#4c72b0;"/>
    <path clip-path="url(#p36433e1857)" d="M 202.142191 252 
L 202.142191 241.128 
" style="fill:none;stroke:#4c72b0;"/>
    <path clip-path="url(#p36433e1857)" d="M 217.504293 252 
L 217.504293 241.128 
" style="fill:none;stroke:#4c72b0;"/>
    <path clip-path="url(#p36433e1857)" d="M 214.811947 252 
L 214.811947 241.128 
" style="fill:none;stroke:#4c72b0;"/>
    <path clip-path="url(#p36433e1857)" d="M 170.806562 252 
L 170.806562 241.128 
" style="fill:none;stroke:#4c72b0;"/>
    <path clip-path="url(#p36433e1857)" d="M 238.284954 252 
L 238.284954 241.128 
" style="fill:none;stroke:#4c72b0;"/>
    <path clip-path="url(#p36433e1857)" d="M 195.317992 252 
L 195.317992 241.128 
" style="fill:none;stroke:#4c72b0;"/>
    <path clip-path="url(#p36433e1857)" d="M 254.156774 252 
L 254.156774 241.128 
" style="fill:none;stroke:#4c72b0;"/>
    <path clip-path="url(#p36433e1857)" d="M 204.019822 252 
L 204.019822 241.128 
" style="fill:none;stroke:#4c72b0;"/>
    <path clip-path="url(#p36433e1857)" d="M 208.806415 252 
L 208.806415 241.128 
" style="fill:none;stroke:#4c72b0;"/>
    <path clip-path="url(#p36433e1857)" d="M 242.376713 252 
L 242.376713 241.128 
" style="fill:none;stroke:#4c72b0;"/>
    <path clip-path="url(#p36433e1857)" d="M 184.117241 252 
L 184.117241 241.128 
" style="fill:none;stroke:#4c72b0;"/>
    <path clip-path="url(#p36433e1857)" d="M 229.164722 252 
L 229.164722 241.128 
" style="fill:none;stroke:#4c72b0;"/>
    <path clip-path="url(#p36433e1857)" d="M 105.701329 252 
L 105.701329 241.128 
" style="fill:none;stroke:#4c72b0;"/>
    <path clip-path="url(#p36433e1857)" d="M 190.846549 252 
L 190.846549 241.128 
" style="fill:none;stroke:#4c72b0;"/>
    <path clip-path="url(#p36433e1857)" d="M 275.177853 252 
L 275.177853 241.128 
" style="fill:none;stroke:#4c72b0;"/>
    <path clip-path="url(#p36433e1857)" d="M 187.651178 252 
L 187.651178 241.128 
" style="fill:none;stroke:#4c72b0;"/>
    <path clip-path="url(#p36433e1857)" d="M 209.26048 252 
L 209.26048 241.128 
" style="fill:none;stroke:#4c72b0;"/>
    <path clip-path="url(#p36433e1857)" d="M 175.993359 252 
L 175.993359 241.128 
" style="fill:none;stroke:#4c72b0;"/>
    <path clip-path="url(#p36433e1857)" d="M 162.16428 252 
L 162.16428 241.128 
" style="fill:none;stroke:#4c72b0;"/>
    <path clip-path="url(#p36433e1857)" d="M 200.541714 252 
L 200.541714 241.128 
" style="fill:none;stroke:#4c72b0;"/>
    <path clip-path="url(#p36433e1857)" d="M 288.612074 252 
L 288.612074 241.128 
" style="fill:none;stroke:#4c72b0;"/>
    <path clip-path="url(#p36433e1857)" d="M 300.66507 252 
L 300.66507 241.128 
" style="fill:none;stroke:#4c72b0;"/>
    <path clip-path="url(#p36433e1857)" d="M 260.538043 252 
L 260.538043 241.128 
" style="fill:none;stroke:#4c72b0;"/>
    <path clip-path="url(#p36433e1857)" d="M 203.867422 252 
L 203.867422 241.128 
" style="fill:none;stroke:#4c72b0;"/>
    <path clip-path="url(#p36433e1857)" d="M 219.081598 252 
L 219.081598 241.128 
" style="fill:none;stroke:#4c72b0;"/>
    <path clip-path="url(#p36433e1857)" d="M 195.672879 252 
L 195.672879 241.128 
" style="fill:none;stroke:#4c72b0;"/>
    <path clip-path="url(#p36433e1857)" d="M 174.295791 252 
L 174.295791 241.128 
" style="fill:none;stroke:#4c72b0;"/>
    <path clip-path="url(#p36433e1857)" d="M 211.850645 252 
L 211.850645 241.128 
" style="fill:none;stroke:#4c72b0;"/>
    <path clip-path="url(#p36433e1857)" d="M 201.576692 252 
L 201.576692 241.128 
" style="fill:none;stroke:#4c72b0;"/>
    <path clip-path="url(#p36433e1857)" d="M 214.127672 252 
L 214.127672 241.128 
" style="fill:none;stroke:#4c72b0;"/>
    <path clip-path="url(#p36433e1857)" d="M 204.148786 252 
L 204.148786 241.128 
" style="fill:none;stroke:#4c72b0;"/>
    <path clip-path="url(#p36433e1857)" d="M 317.147101 252 
L 317.147101 241.128 
" style="fill:none;stroke:#4c72b0;"/>
    <path clip-path="url(#p36433e1857)" d="M 205.826025 252 
L 205.826025 241.128 
" style="fill:none;stroke:#4c72b0;"/>
    <path clip-path="url(#p36433e1857)" d="M 184.893594 252 
L 184.893594 241.128 
" style="fill:none;stroke:#4c72b0;"/>
    <path clip-path="url(#p36433e1857)" d="M 216.26882 252 
L 216.26882 241.128 
" style="fill:none;stroke:#4c72b0;"/>
    <path clip-path="url(#p36433e1857)" d="M 201.029825 252 
L 201.029825 241.128 
" style="fill:none;stroke:#4c72b0;"/>
    <path clip-path="url(#p36433e1857)" d="M 223.263558 252 
L 223.263558 241.128 
" style="fill:none;stroke:#4c72b0;"/>
    <path clip-path="url(#p36433e1857)" d="M 212.4387 252 
L 212.4387 241.128 
" style="fill:none;stroke:#4c72b0;"/>
    <path clip-path="url(#p36433e1857)" d="M 217.392261 252 
L 217.392261 241.128 
" style="fill:none;stroke:#4c72b0;"/>
    <path clip-path="url(#p36433e1857)" d="M 215.152471 252 
L 215.152471 241.128 
" style="fill:none;stroke:#4c72b0;"/>
    <path clip-path="url(#p36433e1857)" d="M 201.397778 252 
L 201.397778 241.128 
" style="fill:none;stroke:#4c72b0;"/>
    <path clip-path="url(#p36433e1857)" d="M 155.600542 252 
L 155.600542 241.128 
" style="fill:none;stroke:#4c72b0;"/>
    <path clip-path="url(#p36433e1857)" d="M 206.163189 252 
L 206.163189 241.128 
" style="fill:none;stroke:#4c72b0;"/>
    <path clip-path="url(#p36433e1857)" d="M 194.738164 252 
L 194.738164 241.128 
" style="fill:none;stroke:#4c72b0;"/>
    <path clip-path="url(#p36433e1857)" d="M 205.349447 252 
L 205.349447 241.128 
" style="fill:none;stroke:#4c72b0;"/>
    <path clip-path="url(#p36433e1857)" d="M 225.3871 252 
L 225.3871 241.128 
" style="fill:none;stroke:#4c72b0;"/>
    <path clip-path="url(#p36433e1857)" d="M 274.6885 252 
L 274.6885 241.128 
" style="fill:none;stroke:#4c72b0;"/>
    <path clip-path="url(#p36433e1857)" d="M 253.304075 252 
L 253.304075 241.128 
" style="fill:none;stroke:#4c72b0;"/>
    <path clip-path="url(#p36433e1857)" d="M 191.185728 252 
L 191.185728 241.128 
" style="fill:none;stroke:#4c72b0;"/>
    <path clip-path="url(#p36433e1857)" d="M 333.833112 252 
L 333.833112 241.128 
" style="fill:none;stroke:#4c72b0;"/>
    <path clip-path="url(#p36433e1857)" d="M 242.212005 252 
L 242.212005 241.128 
" style="fill:none;stroke:#4c72b0;"/>
    <path clip-path="url(#p36433e1857)" d="M 207.072886 252 
L 207.072886 241.128 
" style="fill:none;stroke:#4c72b0;"/>
    <path clip-path="url(#p36433e1857)" d="M 161.674389 252 
L 161.674389 241.128 
" style="fill:none;stroke:#4c72b0;"/>
    <path clip-path="url(#p36433e1857)" d="M 167.254432 252 
L 167.254432 241.128 
" style="fill:none;stroke:#4c72b0;"/>
    <path clip-path="url(#p36433e1857)" d="M 243.067524 252 
L 243.067524 241.128 
" style="fill:none;stroke:#4c72b0;"/>
    <path clip-path="url(#p36433e1857)" d="M 188.795222 252 
L 188.795222 241.128 
" style="fill:none;stroke:#4c72b0;"/>
    <path clip-path="url(#p36433e1857)" d="M 263.309354 252 
L 263.309354 241.128 
" style="fill:none;stroke:#4c72b0;"/>
    <path clip-path="url(#p36433e1857)" d="M 201.610842 252 
L 201.610842 241.128 
" style="fill:none;stroke:#4c72b0;"/>
    <path clip-path="url(#p36433e1857)" d="M 214.82677 252 
L 214.82677 241.128 
" style="fill:none;stroke:#4c72b0;"/>
    <path clip-path="url(#p36433e1857)" d="M 154.736473 252 
L 154.736473 241.128 
" style="fill:none;stroke:#4c72b0;"/>
    <path clip-path="url(#p36433e1857)" d="M 160.675093 252 
L 160.675093 241.128 
" style="fill:none;stroke:#4c72b0;"/>
    <path clip-path="url(#p36433e1857)" d="M 127.790891 252 
L 127.790891 241.128 
" style="fill:none;stroke:#4c72b0;"/>
    <path clip-path="url(#p36433e1857)" d="M 265.05231 252 
L 265.05231 241.128 
" style="fill:none;stroke:#4c72b0;"/>
    <path clip-path="url(#p36433e1857)" d="M 269.422795 252 
L 269.422795 241.128 
" style="fill:none;stroke:#4c72b0;"/>
    <path clip-path="url(#p36433e1857)" d="M 204.569731 252 
L 204.569731 241.128 
" style="fill:none;stroke:#4c72b0;"/>
    <path clip-path="url(#p36433e1857)" d="M 182.807437 252 
L 182.807437 241.128 
" style="fill:none;stroke:#4c72b0;"/>
    <path clip-path="url(#p36433e1857)" d="M 229.294606 252 
L 229.294606 241.128 
" style="fill:none;stroke:#4c72b0;"/>
    <path clip-path="url(#p36433e1857)" d="M 170.157975 252 
L 170.157975 241.128 
" style="fill:none;stroke:#4c72b0;"/>
    <path clip-path="url(#p36433e1857)" d="M 200.57138 252 
L 200.57138 241.128 
" style="fill:none;stroke:#4c72b0;"/>
    <path clip-path="url(#p36433e1857)" d="M 337.098671 252 
L 337.098671 241.128 
" style="fill:none;stroke:#4c72b0;"/>
    <path clip-path="url(#p36433e1857)" d="M 230.453563 252 
L 230.453563 241.128 
" style="fill:none;stroke:#4c72b0;"/>
    <path clip-path="url(#p36433e1857)" d="M 193.620074 252 
L 193.620074 241.128 
" style="fill:none;stroke:#4c72b0;"/>
    <path clip-path="url(#p36433e1857)" d="M 195.622289 252 
L 195.622289 241.128 
" style="fill:none;stroke:#4c72b0;"/>
    <path clip-path="url(#p36433e1857)" d="M 282.615219 252 
L 282.615219 241.128 
" style="fill:none;stroke:#4c72b0;"/>
    <path clip-path="url(#p36433e1857)" d="M 174.799885 252 
L 174.799885 241.128 
" style="fill:none;stroke:#4c72b0;"/>
    <path clip-path="url(#p36433e1857)" d="M 212.681244 252 
L 212.681244 241.128 
" style="fill:none;stroke:#4c72b0;"/>
    <path clip-path="url(#p36433e1857)" d="M 262.287042 252 
L 262.287042 241.128 
" style="fill:none;stroke:#4c72b0;"/>
    <path clip-path="url(#p36433e1857)" d="M 247.123995 252 
L 247.123995 241.128 
" style="fill:none;stroke:#4c72b0;"/>
    <path clip-path="url(#p36433e1857)" d="M 261.747725 252 
L 261.747725 241.128 
" style="fill:none;stroke:#4c72b0;"/>
    <path clip-path="url(#p36433e1857)" d="M 205.462204 252 
L 205.462204 241.128 
" style="fill:none;stroke:#4c72b0;"/>
    <path clip-path="url(#p36433e1857)" d="M 206.751133 252 
L 206.751133 241.128 
" style="fill:none;stroke:#4c72b0;"/>
    <path clip-path="url(#p36433e1857)" d="M 204.523935 252 
L 204.523935 241.128 
" style="fill:none;stroke:#4c72b0;"/>
    <path clip-path="url(#p36433e1857)" d="M 223.594631 252 
L 223.594631 241.128 
" style="fill:none;stroke:#4c72b0;"/>
    <path clip-path="url(#p36433e1857)" d="M 202.049555 252 
L 202.049555 241.128 
" style="fill:none;stroke:#4c72b0;"/>
    <path clip-path="url(#p36433e1857)" d="M 205.383922 252 
L 205.383922 241.128 
" style="fill:none;stroke:#4c72b0;"/>
    <path clip-path="url(#p36433e1857)" d="M 183.646243 252 
L 183.646243 241.128 
" style="fill:none;stroke:#4c72b0;"/>
    <path clip-path="url(#p36433e1857)" d="M 218.842902 252 
L 218.842902 241.128 
" style="fill:none;stroke:#4c72b0;"/>
    <path clip-path="url(#p36433e1857)" d="M 201.314745 252 
L 201.314745 241.128 
" style="fill:none;stroke:#4c72b0;"/>
    <path clip-path="url(#p36433e1857)" d="M 255.335712 252 
L 255.335712 241.128 
" style="fill:none;stroke:#4c72b0;"/>
    <path clip-path="url(#p36433e1857)" d="M 154.430619 252 
L 154.430619 241.128 
" style="fill:none;stroke:#4c72b0;"/>
    <path clip-path="url(#p36433e1857)" d="M 176.094229 252 
L 176.094229 241.128 
" style="fill:none;stroke:#4c72b0;"/>
    <path clip-path="url(#p36433e1857)" d="M 248.7903 252 
L 248.7903 241.128 
" style="fill:none;stroke:#4c72b0;"/>
    <path clip-path="url(#p36433e1857)" d="M 159.012113 252 
L 159.012113 241.128 
" style="fill:none;stroke:#4c72b0;"/>
    <path clip-path="url(#p36433e1857)" d="M 203.821925 252 
L 203.821925 241.128 
" style="fill:none;stroke:#4c72b0;"/>
    <path clip-path="url(#p36433e1857)" d="M 167.712862 252 
L 167.712862 241.128 
" style="fill:none;stroke:#4c72b0;"/>
    <path clip-path="url(#p36433e1857)" d="M 198.21414 252 
L 198.21414 241.128 
" style="fill:none;stroke:#4c72b0;"/>
    <path clip-path="url(#p36433e1857)" d="M 187.025072 252 
L 187.025072 241.128 
" style="fill:none;stroke:#4c72b0;"/>
    <path clip-path="url(#p36433e1857)" d="M 172.795131 252 
L 172.795131 241.128 
" style="fill:none;stroke:#4c72b0;"/>
    <path clip-path="url(#p36433e1857)" d="M 186.050216 252 
L 186.050216 241.128 
" style="fill:none;stroke:#4c72b0;"/>
    <path clip-path="url(#p36433e1857)" d="M 174.968656 252 
L 174.968656 241.128 
" style="fill:none;stroke:#4c72b0;"/>
    <path clip-path="url(#p36433e1857)" d="M 209.926595 252 
L 209.926595 241.128 
" style="fill:none;stroke:#4c72b0;"/>
   </g>
   <g id="line2d_10">
    <path clip-path="url(#p36433e1857)" d="M 69.218182 251.954069 
L 76.407874 251.872602 
L 83.597566 251.57026 
L 88.390694 251.188015 
L 97.976951 250.106503 
L 105.166643 249.410937 
L 119.546027 248.452297 
L 121.942591 248.136178 
L 124.339155 247.703494 
L 126.735719 247.117513 
L 129.132283 246.331589 
L 131.528848 245.286562 
L 133.925412 243.910021 
L 136.321976 242.118196 
L 138.71854 239.820779 
L 141.115104 236.928549 
L 143.511668 233.363161 
L 145.908232 229.068119 
L 148.304796 224.019547 
L 150.70136 218.23509 
L 153.097924 211.779139 
L 155.494488 204.76268 
L 160.287616 189.678127 
L 165.080744 174.386263 
L 169.873873 160.050151 
L 174.667001 147.027661 
L 184.253257 122.66859 
L 189.046385 110.545565 
L 191.442949 104.839214 
L 193.839513 99.716256 
L 196.236077 95.495253 
L 198.632641 92.492848 
L 201.029205 90.978461 
L 203.42577 91.134477 
L 205.822334 93.029414 
L 208.218898 96.60876 
L 210.615462 101.704019 
L 213.012026 108.056432 
L 215.40859 115.348948 
L 220.201718 131.389668 
L 224.994846 147.260429 
L 227.39141 154.48908 
L 229.787974 161.011062 
L 232.184538 166.727766 
L 234.581102 171.606433 
L 236.977666 175.678336 
L 239.37423 179.0314 
L 241.770795 181.79716 
L 244.167359 184.1335 
L 248.960487 188.169822 
L 253.753615 192.27044 
L 256.150179 194.573174 
L 258.546743 197.096652 
L 260.943307 199.839841 
L 265.736435 205.851964 
L 272.926127 215.256716 
L 275.322691 218.205498 
L 277.719256 220.952433 
L 280.11582 223.450966 
L 282.512384 225.672251 
L 284.908948 227.607216 
L 287.305512 229.267198 
L 289.702076 230.682832 
L 292.09864 231.900919 
L 296.891768 233.978646 
L 304.08146 237.003552 
L 316.064281 242.474878 
L 318.460845 243.365221 
L 320.857409 244.115508 
L 323.253973 244.723282 
L 328.047101 245.591546 
L 337.633357 247.00515 
L 342.426485 247.99846 
L 352.012742 250.199962 
L 356.80587 251.016604 
L 361.598998 251.53492 
L 366.392126 251.808692 
L 373.581818 251.948575 
L 373.581818 251.948575 
" style="fill:none;stroke:#4c72b0;stroke-linecap:round;stroke-width:1.5;"/>
   </g>
   <g id="patch_19">
    <path d="M 54 252 
L 54 34.56 
" style="fill:none;stroke:#cccccc;stroke-linecap:square;stroke-linejoin:miter;stroke-width:1.25;"/>
   </g>
   <g id="patch_20">
    <path d="M 388.8 252 
L 388.8 34.56 
" style="fill:none;stroke:#cccccc;stroke-linecap:square;stroke-linejoin:miter;stroke-width:1.25;"/>
   </g>
   <g id="patch_21">
    <path d="M 54 252 
L 388.8 252 
" style="fill:none;stroke:#cccccc;stroke-linecap:square;stroke-linejoin:miter;stroke-width:1.25;"/>
   </g>
   <g id="patch_22">
    <path d="M 54 34.56 
L 388.8 34.56 
" style="fill:none;stroke:#cccccc;stroke-linecap:square;stroke-linejoin:miter;stroke-width:1.25;"/>
   </g>
  </g>
 </g>
 <defs>
  <clipPath id="p36433e1857">
   <rect height="217.44" width="334.8" x="54" y="34.56"/>
  </clipPath>
 </defs>
</svg>
