<?xml version="1.0" encoding="utf-8" standalone="no"?>
<!DOCTYPE svg PUBLIC "-//W3C//DTD SVG 1.1//EN"
  "http://www.w3.org/Graphics/SVG/1.1/DTD/svg11.dtd">
<!-- Created with matplotlib (https://matplotlib.org/) -->
<svg height="432pt" version="1.1" viewBox="0 0 1152 432" width="1152pt" xmlns="http://www.w3.org/2000/svg" xmlns:xlink="http://www.w3.org/1999/xlink">
 <defs>
  <style type="text/css">
*{stroke-linecap:butt;stroke-linejoin:round;}
  </style>
 </defs>
 <g id="figure_1">
  <g id="patch_1">
   <path d="M 0 432 
L 1152 432 
L 1152 0 
L 0 0 
z
" style="fill:#ffffff;"/>
  </g>
  <g id="axes_1">
   <g id="patch_2">
    <path d="M 144 378 
L 1036.8 378 
L 1036.8 51.84 
L 144 51.84 
z
" style="fill:#ffffff;"/>
   </g>
   <g id="matplotlib.axis_1">
    <g id="xtick_1">
     <g id="line2d_1">
      <path clip-path="url(#p78eaf7ce70)" d="M 187.426003 378 
L 187.426003 51.84 
" style="fill:none;stroke:#cccccc;stroke-linecap:round;"/>
     </g>
     <g id="text_1">
      <!-- 0.0 -->
      <defs>
       <path d="M 4.15625 35.296875 
Q 4.15625 48 6.765625 55.734375 
Q 9.375 63.484375 14.515625 67.671875 
Q 19.671875 71.875 27.484375 71.875 
Q 33.25 71.875 37.59375 69.546875 
Q 41.9375 67.234375 44.765625 62.859375 
Q 47.609375 58.5 49.21875 52.21875 
Q 50.828125 45.953125 50.828125 35.296875 
Q 50.828125 22.703125 48.234375 14.96875 
Q 45.65625 7.234375 40.5 3 
Q 35.359375 -1.21875 27.484375 -1.21875 
Q 17.140625 -1.21875 11.234375 6.203125 
Q 4.15625 15.140625 4.15625 35.296875 
z
M 13.1875 35.296875 
Q 13.1875 17.671875 17.3125 11.828125 
Q 21.4375 6 27.484375 6 
Q 33.546875 6 37.671875 11.859375 
Q 41.796875 17.71875 41.796875 35.296875 
Q 41.796875 52.984375 37.671875 58.78125 
Q 33.546875 64.59375 27.390625 64.59375 
Q 21.34375 64.59375 17.71875 59.46875 
Q 13.1875 52.9375 13.1875 35.296875 
z
" id="ArialMT-48"/>
       <path d="M 9.078125 0 
L 9.078125 10.015625 
L 19.09375 10.015625 
L 19.09375 0 
z
" id="ArialMT-46"/>
      </defs>
      <g style="fill:#262626;" transform="translate(172.136003 403.247187)scale(0.22 -0.22)">
       <use xlink:href="#ArialMT-48"/>
       <use x="55.615234" xlink:href="#ArialMT-46"/>
       <use x="83.398438" xlink:href="#ArialMT-48"/>
      </g>
     </g>
    </g>
    <g id="xtick_2">
     <g id="line2d_2">
      <path clip-path="url(#p78eaf7ce70)" d="M 356.711883 378 
L 356.711883 51.84 
" style="fill:none;stroke:#cccccc;stroke-linecap:round;"/>
     </g>
     <g id="text_2">
      <!-- 0.2 -->
      <defs>
       <path d="M 50.34375 8.453125 
L 50.34375 0 
L 3.03125 0 
Q 2.9375 3.171875 4.046875 6.109375 
Q 5.859375 10.9375 9.828125 15.625 
Q 13.8125 20.3125 21.34375 26.46875 
Q 33.015625 36.03125 37.109375 41.625 
Q 41.21875 47.21875 41.21875 52.203125 
Q 41.21875 57.421875 37.46875 61 
Q 33.734375 64.59375 27.734375 64.59375 
Q 21.390625 64.59375 17.578125 60.78125 
Q 13.765625 56.984375 13.71875 50.25 
L 4.6875 51.171875 
Q 5.609375 61.28125 11.65625 66.578125 
Q 17.71875 71.875 27.9375 71.875 
Q 38.234375 71.875 44.234375 66.15625 
Q 50.25 60.453125 50.25 52 
Q 50.25 47.703125 48.484375 43.546875 
Q 46.734375 39.40625 42.65625 34.8125 
Q 38.578125 30.21875 29.109375 22.21875 
Q 21.1875 15.578125 18.9375 13.203125 
Q 16.703125 10.84375 15.234375 8.453125 
z
" id="ArialMT-50"/>
      </defs>
      <g style="fill:#262626;" transform="translate(341.421883 403.247187)scale(0.22 -0.22)">
       <use xlink:href="#ArialMT-48"/>
       <use x="55.615234" xlink:href="#ArialMT-46"/>
       <use x="83.398438" xlink:href="#ArialMT-50"/>
      </g>
     </g>
    </g>
    <g id="xtick_3">
     <g id="line2d_3">
      <path clip-path="url(#p78eaf7ce70)" d="M 525.997763 378 
L 525.997763 51.84 
" style="fill:none;stroke:#cccccc;stroke-linecap:round;"/>
     </g>
     <g id="text_3">
      <!-- 0.4 -->
      <defs>
       <path d="M 32.328125 0 
L 32.328125 17.140625 
L 1.265625 17.140625 
L 1.265625 25.203125 
L 33.9375 71.578125 
L 41.109375 71.578125 
L 41.109375 25.203125 
L 50.78125 25.203125 
L 50.78125 17.140625 
L 41.109375 17.140625 
L 41.109375 0 
z
M 32.328125 25.203125 
L 32.328125 57.46875 
L 9.90625 25.203125 
z
" id="ArialMT-52"/>
      </defs>
      <g style="fill:#262626;" transform="translate(510.707763 403.247187)scale(0.22 -0.22)">
       <use xlink:href="#ArialMT-48"/>
       <use x="55.615234" xlink:href="#ArialMT-46"/>
       <use x="83.398438" xlink:href="#ArialMT-52"/>
      </g>
     </g>
    </g>
    <g id="xtick_4">
     <g id="line2d_4">
      <path clip-path="url(#p78eaf7ce70)" d="M 695.283643 378 
L 695.283643 51.84 
" style="fill:none;stroke:#cccccc;stroke-linecap:round;"/>
     </g>
     <g id="text_4">
      <!-- 0.6 -->
      <defs>
       <path d="M 49.75 54.046875 
L 41.015625 53.375 
Q 39.84375 58.546875 37.703125 60.890625 
Q 34.125 64.65625 28.90625 64.65625 
Q 24.703125 64.65625 21.53125 62.3125 
Q 17.390625 59.28125 14.984375 53.46875 
Q 12.59375 47.65625 12.5 36.921875 
Q 15.671875 41.75 20.265625 44.09375 
Q 24.859375 46.4375 29.890625 46.4375 
Q 38.671875 46.4375 44.84375 39.96875 
Q 51.03125 33.5 51.03125 23.25 
Q 51.03125 16.5 48.125 10.71875 
Q 45.21875 4.9375 40.140625 1.859375 
Q 35.0625 -1.21875 28.609375 -1.21875 
Q 17.625 -1.21875 10.6875 6.859375 
Q 3.765625 14.9375 3.765625 33.5 
Q 3.765625 54.25 11.421875 63.671875 
Q 18.109375 71.875 29.4375 71.875 
Q 37.890625 71.875 43.28125 67.140625 
Q 48.6875 62.40625 49.75 54.046875 
z
M 13.875 23.1875 
Q 13.875 18.65625 15.796875 14.5 
Q 17.71875 10.359375 21.1875 8.171875 
Q 24.65625 6 28.46875 6 
Q 34.03125 6 38.03125 10.484375 
Q 42.046875 14.984375 42.046875 22.703125 
Q 42.046875 30.125 38.078125 34.390625 
Q 34.125 38.671875 28.125 38.671875 
Q 22.171875 38.671875 18.015625 34.390625 
Q 13.875 30.125 13.875 23.1875 
z
" id="ArialMT-54"/>
      </defs>
      <g style="fill:#262626;" transform="translate(679.993643 403.247187)scale(0.22 -0.22)">
       <use xlink:href="#ArialMT-48"/>
       <use x="55.615234" xlink:href="#ArialMT-46"/>
       <use x="83.398438" xlink:href="#ArialMT-54"/>
      </g>
     </g>
    </g>
    <g id="xtick_5">
     <g id="line2d_5">
      <path clip-path="url(#p78eaf7ce70)" d="M 864.569523 378 
L 864.569523 51.84 
" style="fill:none;stroke:#cccccc;stroke-linecap:round;"/>
     </g>
     <g id="text_5">
      <!-- 0.8 -->
      <defs>
       <path d="M 17.671875 38.8125 
Q 12.203125 40.828125 9.5625 44.53125 
Q 6.9375 48.25 6.9375 53.421875 
Q 6.9375 61.234375 12.546875 66.546875 
Q 18.171875 71.875 27.484375 71.875 
Q 36.859375 71.875 42.578125 66.421875 
Q 48.296875 60.984375 48.296875 53.171875 
Q 48.296875 48.1875 45.671875 44.5 
Q 43.0625 40.828125 37.75 38.8125 
Q 44.34375 36.671875 47.78125 31.875 
Q 51.21875 27.09375 51.21875 20.453125 
Q 51.21875 11.28125 44.71875 5.03125 
Q 38.234375 -1.21875 27.640625 -1.21875 
Q 17.046875 -1.21875 10.546875 5.046875 
Q 4.046875 11.328125 4.046875 20.703125 
Q 4.046875 27.6875 7.59375 32.390625 
Q 11.140625 37.109375 17.671875 38.8125 
z
M 15.921875 53.71875 
Q 15.921875 48.640625 19.1875 45.40625 
Q 22.46875 42.1875 27.6875 42.1875 
Q 32.765625 42.1875 36.015625 45.375 
Q 39.265625 48.578125 39.265625 53.21875 
Q 39.265625 58.0625 35.90625 61.359375 
Q 32.5625 64.65625 27.59375 64.65625 
Q 22.5625 64.65625 19.234375 61.421875 
Q 15.921875 58.203125 15.921875 53.71875 
z
M 13.09375 20.65625 
Q 13.09375 16.890625 14.875 13.375 
Q 16.65625 9.859375 20.171875 7.921875 
Q 23.6875 6 27.734375 6 
Q 34.03125 6 38.125 10.046875 
Q 42.234375 14.109375 42.234375 20.359375 
Q 42.234375 26.703125 38.015625 30.859375 
Q 33.796875 35.015625 27.4375 35.015625 
Q 21.234375 35.015625 17.15625 30.90625 
Q 13.09375 26.8125 13.09375 20.65625 
z
" id="ArialMT-56"/>
      </defs>
      <g style="fill:#262626;" transform="translate(849.279523 403.247187)scale(0.22 -0.22)">
       <use xlink:href="#ArialMT-48"/>
       <use x="55.615234" xlink:href="#ArialMT-46"/>
       <use x="83.398438" xlink:href="#ArialMT-56"/>
      </g>
     </g>
    </g>
    <g id="xtick_6">
     <g id="line2d_6">
      <path clip-path="url(#p78eaf7ce70)" d="M 1033.855403 378 
L 1033.855403 51.84 
" style="fill:none;stroke:#cccccc;stroke-linecap:round;"/>
     </g>
     <g id="text_6">
      <!-- 1.0 -->
      <defs>
       <path d="M 37.25 0 
L 28.46875 0 
L 28.46875 56 
Q 25.296875 52.984375 20.140625 49.953125 
Q 14.984375 46.921875 10.890625 45.40625 
L 10.890625 53.90625 
Q 18.265625 57.375 23.78125 62.296875 
Q 29.296875 67.234375 31.59375 71.875 
L 37.25 71.875 
z
" id="ArialMT-49"/>
      </defs>
      <g style="fill:#262626;" transform="translate(1018.565403 403.247187)scale(0.22 -0.22)">
       <use xlink:href="#ArialMT-49"/>
       <use x="55.615234" xlink:href="#ArialMT-46"/>
       <use x="83.398438" xlink:href="#ArialMT-48"/>
      </g>
     </g>
    </g>
    <g id="text_7">
     <!-- Observed values -->
     <defs>
      <path d="M 4.828125 34.859375 
Q 4.828125 52.6875 14.390625 62.765625 
Q 23.96875 72.859375 39.109375 72.859375 
Q 49.03125 72.859375 56.984375 68.109375 
Q 64.9375 63.375 69.109375 54.90625 
Q 73.296875 46.4375 73.296875 35.6875 
Q 73.296875 24.8125 68.890625 16.21875 
Q 64.5 7.625 56.4375 3.203125 
Q 48.390625 -1.21875 39.0625 -1.21875 
Q 28.953125 -1.21875 20.984375 3.65625 
Q 13.03125 8.546875 8.921875 16.984375 
Q 4.828125 25.4375 4.828125 34.859375 
z
M 14.59375 34.71875 
Q 14.59375 21.78125 21.546875 14.328125 
Q 28.515625 6.890625 39.015625 6.890625 
Q 49.703125 6.890625 56.609375 14.40625 
Q 63.53125 21.921875 63.53125 35.75 
Q 63.53125 44.484375 60.578125 51 
Q 57.625 57.515625 51.921875 61.109375 
Q 46.234375 64.703125 39.15625 64.703125 
Q 29.109375 64.703125 21.84375 57.78125 
Q 14.59375 50.875 14.59375 34.71875 
z
" id="ArialMT-79"/>
      <path d="M 14.703125 0 
L 6.546875 0 
L 6.546875 71.578125 
L 15.328125 71.578125 
L 15.328125 46.046875 
Q 20.90625 53.03125 29.546875 53.03125 
Q 34.328125 53.03125 38.59375 51.09375 
Q 42.875 49.171875 45.625 45.671875 
Q 48.390625 42.1875 49.953125 37.25 
Q 51.515625 32.328125 51.515625 26.703125 
Q 51.515625 13.375 44.921875 6.09375 
Q 38.328125 -1.171875 29.109375 -1.171875 
Q 19.921875 -1.171875 14.703125 6.5 
z
M 14.59375 26.3125 
Q 14.59375 17 17.140625 12.84375 
Q 21.296875 6.0625 28.375 6.0625 
Q 34.125 6.0625 38.328125 11.0625 
Q 42.53125 16.0625 42.53125 25.984375 
Q 42.53125 36.140625 38.5 40.96875 
Q 34.46875 45.796875 28.765625 45.796875 
Q 23 45.796875 18.796875 40.796875 
Q 14.59375 35.796875 14.59375 26.3125 
z
" id="ArialMT-98"/>
      <path d="M 3.078125 15.484375 
L 11.765625 16.84375 
Q 12.5 11.625 15.84375 8.84375 
Q 19.1875 6.0625 25.203125 6.0625 
Q 31.25 6.0625 34.171875 8.515625 
Q 37.109375 10.984375 37.109375 14.3125 
Q 37.109375 17.28125 34.515625 19 
Q 32.71875 20.171875 25.53125 21.96875 
Q 15.875 24.421875 12.140625 26.203125 
Q 8.40625 27.984375 6.46875 31.125 
Q 4.546875 34.28125 4.546875 38.09375 
Q 4.546875 41.546875 6.125 44.5 
Q 7.71875 47.46875 10.453125 49.421875 
Q 12.5 50.921875 16.03125 51.96875 
Q 19.578125 53.03125 23.640625 53.03125 
Q 29.734375 53.03125 34.34375 51.265625 
Q 38.96875 49.515625 41.15625 46.5 
Q 43.359375 43.5 44.1875 38.484375 
L 35.59375 37.3125 
Q 35.015625 41.3125 32.203125 43.546875 
Q 29.390625 45.796875 24.265625 45.796875 
Q 18.21875 45.796875 15.625 43.796875 
Q 13.03125 41.796875 13.03125 39.109375 
Q 13.03125 37.40625 14.109375 36.03125 
Q 15.1875 34.625 17.484375 33.6875 
Q 18.796875 33.203125 25.25 31.453125 
Q 34.578125 28.953125 38.25 27.359375 
Q 41.9375 25.78125 44.03125 22.75 
Q 46.140625 19.734375 46.140625 15.234375 
Q 46.140625 10.84375 43.578125 6.953125 
Q 41.015625 3.078125 36.171875 0.953125 
Q 31.34375 -1.171875 25.25 -1.171875 
Q 15.140625 -1.171875 9.84375 3.03125 
Q 4.546875 7.234375 3.078125 15.484375 
z
" id="ArialMT-115"/>
      <path d="M 42.09375 16.703125 
L 51.171875 15.578125 
Q 49.03125 7.625 43.21875 3.21875 
Q 37.40625 -1.171875 28.375 -1.171875 
Q 17 -1.171875 10.328125 5.828125 
Q 3.65625 12.84375 3.65625 25.484375 
Q 3.65625 38.578125 10.390625 45.796875 
Q 17.140625 53.03125 27.875 53.03125 
Q 38.28125 53.03125 44.875 45.953125 
Q 51.46875 38.875 51.46875 26.03125 
Q 51.46875 25.25 51.421875 23.6875 
L 12.75 23.6875 
Q 13.234375 15.140625 17.578125 10.59375 
Q 21.921875 6.0625 28.421875 6.0625 
Q 33.25 6.0625 36.671875 8.59375 
Q 40.09375 11.140625 42.09375 16.703125 
z
M 13.234375 30.90625 
L 42.1875 30.90625 
Q 41.609375 37.453125 38.875 40.71875 
Q 34.671875 45.796875 27.984375 45.796875 
Q 21.921875 45.796875 17.796875 41.75 
Q 13.671875 37.703125 13.234375 30.90625 
z
" id="ArialMT-101"/>
      <path d="M 6.5 0 
L 6.5 51.859375 
L 14.40625 51.859375 
L 14.40625 44 
Q 17.4375 49.515625 20 51.265625 
Q 22.5625 53.03125 25.640625 53.03125 
Q 30.078125 53.03125 34.671875 50.203125 
L 31.640625 42.046875 
Q 28.421875 43.953125 25.203125 43.953125 
Q 22.3125 43.953125 20.015625 42.21875 
Q 17.71875 40.484375 16.75 37.40625 
Q 15.28125 32.71875 15.28125 27.15625 
L 15.28125 0 
z
" id="ArialMT-114"/>
      <path d="M 21 0 
L 1.265625 51.859375 
L 10.546875 51.859375 
L 21.6875 20.796875 
Q 23.484375 15.765625 25 10.359375 
Q 26.171875 14.453125 28.265625 20.21875 
L 39.796875 51.859375 
L 48.828125 51.859375 
L 29.203125 0 
z
" id="ArialMT-118"/>
      <path d="M 40.234375 0 
L 40.234375 6.546875 
Q 35.296875 -1.171875 25.734375 -1.171875 
Q 19.53125 -1.171875 14.328125 2.25 
Q 9.125 5.671875 6.265625 11.796875 
Q 3.421875 17.921875 3.421875 25.875 
Q 3.421875 33.640625 6 39.96875 
Q 8.59375 46.296875 13.765625 49.65625 
Q 18.953125 53.03125 25.34375 53.03125 
Q 30.03125 53.03125 33.6875 51.046875 
Q 37.359375 49.078125 39.65625 45.90625 
L 39.65625 71.578125 
L 48.390625 71.578125 
L 48.390625 0 
z
M 12.453125 25.875 
Q 12.453125 15.921875 16.640625 10.984375 
Q 20.84375 6.0625 26.5625 6.0625 
Q 32.328125 6.0625 36.34375 10.765625 
Q 40.375 15.484375 40.375 25.140625 
Q 40.375 35.796875 36.265625 40.765625 
Q 32.171875 45.75 26.171875 45.75 
Q 20.3125 45.75 16.375 40.96875 
Q 12.453125 36.1875 12.453125 25.875 
z
" id="ArialMT-100"/>
      <path id="ArialMT-32"/>
      <path d="M 40.4375 6.390625 
Q 35.546875 2.25 31.03125 0.53125 
Q 26.515625 -1.171875 21.34375 -1.171875 
Q 12.796875 -1.171875 8.203125 3 
Q 3.609375 7.171875 3.609375 13.671875 
Q 3.609375 17.484375 5.34375 20.625 
Q 7.078125 23.78125 9.890625 25.6875 
Q 12.703125 27.59375 16.21875 28.5625 
Q 18.796875 29.25 24.03125 29.890625 
Q 34.671875 31.15625 39.703125 32.90625 
Q 39.75 34.71875 39.75 35.203125 
Q 39.75 40.578125 37.25 42.78125 
Q 33.890625 45.75 27.25 45.75 
Q 21.046875 45.75 18.09375 43.578125 
Q 15.140625 41.40625 13.71875 35.890625 
L 5.125 37.0625 
Q 6.296875 42.578125 8.984375 45.96875 
Q 11.671875 49.359375 16.75 51.1875 
Q 21.828125 53.03125 28.515625 53.03125 
Q 35.15625 53.03125 39.296875 51.46875 
Q 43.453125 49.90625 45.40625 47.53125 
Q 47.359375 45.171875 48.140625 41.546875 
Q 48.578125 39.3125 48.578125 33.453125 
L 48.578125 21.734375 
Q 48.578125 9.46875 49.140625 6.21875 
Q 49.703125 2.984375 51.375 0 
L 42.1875 0 
Q 40.828125 2.734375 40.4375 6.390625 
z
M 39.703125 26.03125 
Q 34.90625 24.078125 25.34375 22.703125 
Q 19.921875 21.921875 17.671875 20.9375 
Q 15.4375 19.96875 14.203125 18.09375 
Q 12.984375 16.21875 12.984375 13.921875 
Q 12.984375 10.40625 15.640625 8.0625 
Q 18.3125 5.71875 23.4375 5.71875 
Q 28.515625 5.71875 32.46875 7.9375 
Q 36.421875 10.15625 38.28125 14.015625 
Q 39.703125 17 39.703125 22.796875 
z
" id="ArialMT-97"/>
      <path d="M 6.390625 0 
L 6.390625 71.578125 
L 15.1875 71.578125 
L 15.1875 0 
z
" id="ArialMT-108"/>
      <path d="M 40.578125 0 
L 40.578125 7.625 
Q 34.515625 -1.171875 24.125 -1.171875 
Q 19.53125 -1.171875 15.546875 0.578125 
Q 11.578125 2.34375 9.640625 5 
Q 7.71875 7.671875 6.9375 11.53125 
Q 6.390625 14.109375 6.390625 19.734375 
L 6.390625 51.859375 
L 15.1875 51.859375 
L 15.1875 23.09375 
Q 15.1875 16.21875 15.71875 13.8125 
Q 16.546875 10.359375 19.234375 8.375 
Q 21.921875 6.390625 25.875 6.390625 
Q 29.828125 6.390625 33.296875 8.421875 
Q 36.765625 10.453125 38.203125 13.9375 
Q 39.65625 17.4375 39.65625 24.078125 
L 39.65625 51.859375 
L 48.4375 51.859375 
L 48.4375 0 
z
" id="ArialMT-117"/>
     </defs>
     <g style="fill:#262626;" transform="translate(500.35875 428.798437)scale(0.24 -0.24)">
      <use xlink:href="#ArialMT-79"/>
      <use x="77.783203" xlink:href="#ArialMT-98"/>
      <use x="133.398438" xlink:href="#ArialMT-115"/>
      <use x="183.398438" xlink:href="#ArialMT-101"/>
      <use x="239.013672" xlink:href="#ArialMT-114"/>
      <use x="272.314453" xlink:href="#ArialMT-118"/>
      <use x="322.314453" xlink:href="#ArialMT-101"/>
      <use x="377.929688" xlink:href="#ArialMT-100"/>
      <use x="433.544922" xlink:href="#ArialMT-32"/>
      <use x="461.328125" xlink:href="#ArialMT-118"/>
      <use x="511.328125" xlink:href="#ArialMT-97"/>
      <use x="566.943359" xlink:href="#ArialMT-108"/>
      <use x="589.160156" xlink:href="#ArialMT-117"/>
      <use x="644.775391" xlink:href="#ArialMT-101"/>
      <use x="700.390625" xlink:href="#ArialMT-115"/>
     </g>
    </g>
   </g>
   <g id="matplotlib.axis_2">
    <g id="ytick_1">
     <g id="line2d_7">
      <path clip-path="url(#p78eaf7ce70)" d="M 144 370.121242 
L 1036.8 370.121242 
" style="fill:none;stroke:#cccccc;stroke-linecap:round;"/>
     </g>
     <g id="text_8">
      <!-- 0.2 -->
      <g style="fill:#262626;" transform="translate(103.92 377.994835)scale(0.22 -0.22)">
       <use xlink:href="#ArialMT-48"/>
       <use x="55.615234" xlink:href="#ArialMT-46"/>
       <use x="83.398438" xlink:href="#ArialMT-50"/>
      </g>
     </g>
    </g>
    <g id="ytick_2">
     <g id="line2d_8">
      <path clip-path="url(#p78eaf7ce70)" d="M 144 300.143116 
L 1036.8 300.143116 
" style="fill:none;stroke:#cccccc;stroke-linecap:round;"/>
     </g>
     <g id="text_9">
      <!-- 0.4 -->
      <g style="fill:#262626;" transform="translate(103.92 308.01671)scale(0.22 -0.22)">
       <use xlink:href="#ArialMT-48"/>
       <use x="55.615234" xlink:href="#ArialMT-46"/>
       <use x="83.398438" xlink:href="#ArialMT-52"/>
      </g>
     </g>
    </g>
    <g id="ytick_3">
     <g id="line2d_9">
      <path clip-path="url(#p78eaf7ce70)" d="M 144 230.16499 
L 1036.8 230.16499 
" style="fill:none;stroke:#cccccc;stroke-linecap:round;"/>
     </g>
     <g id="text_10">
      <!-- 0.6 -->
      <g style="fill:#262626;" transform="translate(103.92 238.038584)scale(0.22 -0.22)">
       <use xlink:href="#ArialMT-48"/>
       <use x="55.615234" xlink:href="#ArialMT-46"/>
       <use x="83.398438" xlink:href="#ArialMT-54"/>
      </g>
     </g>
    </g>
    <g id="ytick_4">
     <g id="line2d_10">
      <path clip-path="url(#p78eaf7ce70)" d="M 144 160.186864 
L 1036.8 160.186864 
" style="fill:none;stroke:#cccccc;stroke-linecap:round;"/>
     </g>
     <g id="text_11">
      <!-- 0.8 -->
      <g style="fill:#262626;" transform="translate(103.92 168.060458)scale(0.22 -0.22)">
       <use xlink:href="#ArialMT-48"/>
       <use x="55.615234" xlink:href="#ArialMT-46"/>
       <use x="83.398438" xlink:href="#ArialMT-56"/>
      </g>
     </g>
    </g>
    <g id="ytick_5">
     <g id="line2d_11">
      <path clip-path="url(#p78eaf7ce70)" d="M 144 90.208739 
L 1036.8 90.208739 
" style="fill:none;stroke:#cccccc;stroke-linecap:round;"/>
     </g>
     <g id="text_12">
      <!-- 1.0 -->
      <g style="fill:#262626;" transform="translate(103.92 98.082332)scale(0.22 -0.22)">
       <use xlink:href="#ArialMT-49"/>
       <use x="55.615234" xlink:href="#ArialMT-46"/>
       <use x="83.398438" xlink:href="#ArialMT-48"/>
      </g>
     </g>
    </g>
    <g id="text_13">
     <!-- Fitted values -->
     <defs>
      <path d="M 8.203125 0 
L 8.203125 71.578125 
L 56.5 71.578125 
L 56.5 63.140625 
L 17.671875 63.140625 
L 17.671875 40.96875 
L 51.265625 40.96875 
L 51.265625 32.515625 
L 17.671875 32.515625 
L 17.671875 0 
z
" id="ArialMT-70"/>
      <path d="M 6.640625 61.46875 
L 6.640625 71.578125 
L 15.4375 71.578125 
L 15.4375 61.46875 
z
M 6.640625 0 
L 6.640625 51.859375 
L 15.4375 51.859375 
L 15.4375 0 
z
" id="ArialMT-105"/>
      <path d="M 25.78125 7.859375 
L 27.046875 0.09375 
Q 23.34375 -0.6875 20.40625 -0.6875 
Q 15.625 -0.6875 12.984375 0.828125 
Q 10.359375 2.34375 9.28125 4.8125 
Q 8.203125 7.28125 8.203125 15.1875 
L 8.203125 45.015625 
L 1.765625 45.015625 
L 1.765625 51.859375 
L 8.203125 51.859375 
L 8.203125 64.703125 
L 16.9375 69.96875 
L 16.9375 51.859375 
L 25.78125 51.859375 
L 25.78125 45.015625 
L 16.9375 45.015625 
L 16.9375 14.703125 
Q 16.9375 10.9375 17.40625 9.859375 
Q 17.875 8.796875 18.921875 8.15625 
Q 19.96875 7.515625 21.921875 7.515625 
Q 23.390625 7.515625 25.78125 7.859375 
z
" id="ArialMT-116"/>
     </defs>
     <g style="fill:#262626;" transform="translate(95.15 282.94875)rotate(-90)scale(0.24 -0.24)">
      <use xlink:href="#ArialMT-70"/>
      <use x="61.083984" xlink:href="#ArialMT-105"/>
      <use x="83.300781" xlink:href="#ArialMT-116"/>
      <use x="111.083984" xlink:href="#ArialMT-116"/>
      <use x="138.867188" xlink:href="#ArialMT-101"/>
      <use x="194.482422" xlink:href="#ArialMT-100"/>
      <use x="250.097656" xlink:href="#ArialMT-32"/>
      <use x="277.880859" xlink:href="#ArialMT-118"/>
      <use x="327.880859" xlink:href="#ArialMT-97"/>
      <use x="383.496094" xlink:href="#ArialMT-108"/>
      <use x="405.712891" xlink:href="#ArialMT-117"/>
      <use x="461.328125" xlink:href="#ArialMT-101"/>
      <use x="516.943359" xlink:href="#ArialMT-115"/>
     </g>
    </g>
   </g>
   <g id="PathCollection_1">
    <defs>
     <path d="M -3 0 
L 3 0 
M 0 3 
L 0 -3 
" id="m90bb91c248" style="stroke:#4c72b0;stroke-width:1.5;"/>
    </defs>
    <g clip-path="url(#p78eaf7ce70)">
     <use style="fill:#4c72b0;stroke:#4c72b0;stroke-width:1.5;" x="531.937618" xlink:href="#m90bb91c248" y="314.912957"/>
     <use style="fill:#4c72b0;stroke:#4c72b0;stroke-width:1.5;" x="403.735739" xlink:href="#m90bb91c248" y="308.394425"/>
     <use style="fill:#4c72b0;stroke:#4c72b0;stroke-width:1.5;" x="441.354823" xlink:href="#m90bb91c248" y="339.517367"/>
     <use style="fill:#4c72b0;stroke:#4c72b0;stroke-width:1.5;" x="670.547807" xlink:href="#m90bb91c248" y="304.748654"/>
     <use style="fill:#4c72b0;stroke:#4c72b0;stroke-width:1.5;" x="824.599246" xlink:href="#m90bb91c248" y="224.190725"/>
     <use style="fill:#4c72b0;stroke:#4c72b0;stroke-width:1.5;" x="445.732906" xlink:href="#m90bb91c248" y="282.529433"/>
     <use style="fill:#4c72b0;stroke:#4c72b0;stroke-width:1.5;" x="520.3549" xlink:href="#m90bb91c248" y="312.429689"/>
     <use style="fill:#4c72b0;stroke:#4c72b0;stroke-width:1.5;" x="815.194475" xlink:href="#m90bb91c248" y="187.150982"/>
     <use style="fill:#4c72b0;stroke:#4c72b0;stroke-width:1.5;" x="410.005586" xlink:href="#m90bb91c248" y="323.968827"/>
     <use style="fill:#4c72b0;stroke:#4c72b0;stroke-width:1.5;" x="521.569357" xlink:href="#m90bb91c248" y="311.108427"/>
     <use style="fill:#4c72b0;stroke:#4c72b0;stroke-width:1.5;" x="700.321913" xlink:href="#m90bb91c248" y="264.422362"/>
     <use style="fill:#4c72b0;stroke:#4c72b0;stroke-width:1.5;" x="617.895812" xlink:href="#m90bb91c248" y="284.604332"/>
     <use style="fill:#4c72b0;stroke:#4c72b0;stroke-width:1.5;" x="960.830122" xlink:href="#m90bb91c248" y="97.714557"/>
     <use style="fill:#4c72b0;stroke:#4c72b0;stroke-width:1.5;" x="755.106473" xlink:href="#m90bb91c248" y="246.442591"/>
     <use style="fill:#4c72b0;stroke:#4c72b0;stroke-width:1.5;" x="555.122216" xlink:href="#m90bb91c248" y="321.700644"/>
     <use style="fill:#4c72b0;stroke:#4c72b0;stroke-width:1.5;" x="535.490429" xlink:href="#m90bb91c248" y="322.111106"/>
     <use style="fill:#4c72b0;stroke:#4c72b0;stroke-width:1.5;" x="954.1193" xlink:href="#m90bb91c248" y="101.357545"/>
     <use style="fill:#4c72b0;stroke:#4c72b0;stroke-width:1.5;" x="554.212076" xlink:href="#m90bb91c248" y="336.260104"/>
     <use style="fill:#4c72b0;stroke:#4c72b0;stroke-width:1.5;" x="187.426003" xlink:href="#m90bb91c248" y="328.417284"/>
     <use style="fill:#4c72b0;stroke:#4c72b0;stroke-width:1.5;" x="876.26682" xlink:href="#m90bb91c248" y="69.883727"/>
     <use style="fill:#4c72b0;stroke:#4c72b0;stroke-width:1.5;" x="746.180051" xlink:href="#m90bb91c248" y="301.802244"/>
     <use style="fill:#4c72b0;stroke:#4c72b0;stroke-width:1.5;" x="321.61603" xlink:href="#m90bb91c248" y="298.80474"/>
     <use style="fill:#4c72b0;stroke:#4c72b0;stroke-width:1.5;" x="665.501868" xlink:href="#m90bb91c248" y="329.15845"/>
     <use style="fill:#4c72b0;stroke:#4c72b0;stroke-width:1.5;" x="833.081194" xlink:href="#m90bb91c248" y="189.051419"/>
     <use style="fill:#4c72b0;stroke:#4c72b0;stroke-width:1.5;" x="889.103709" xlink:href="#m90bb91c248" y="226.328971"/>
     <use style="fill:#4c72b0;stroke:#4c72b0;stroke-width:1.5;" x="629.877735" xlink:href="#m90bb91c248" y="304.658945"/>
     <use style="fill:#4c72b0;stroke:#4c72b0;stroke-width:1.5;" x="519.281637" xlink:href="#m90bb91c248" y="305.73337"/>
     <use style="fill:#4c72b0;stroke:#4c72b0;stroke-width:1.5;" x="475.508992" xlink:href="#m90bb91c248" y="312.750134"/>
     <use style="fill:#4c72b0;stroke:#4c72b0;stroke-width:1.5;" x="887.771141" xlink:href="#m90bb91c248" y="187.233127"/>
     <use style="fill:#4c72b0;stroke:#4c72b0;stroke-width:1.5;" x="730.551535" xlink:href="#m90bb91c248" y="283.722497"/>
     <use style="fill:#4c72b0;stroke:#4c72b0;stroke-width:1.5;" x="396.152164" xlink:href="#m90bb91c248" y="325.809471"/>
     <use style="fill:#4c72b0;stroke:#4c72b0;stroke-width:1.5;" x="632.748934" xlink:href="#m90bb91c248" y="260.250322"/>
     <use style="fill:#4c72b0;stroke:#4c72b0;stroke-width:1.5;" x="187.426003" xlink:href="#m90bb91c248" y="354.824688"/>
     <use style="fill:#4c72b0;stroke:#4c72b0;stroke-width:1.5;" x="728.200342" xlink:href="#m90bb91c248" y="262.682778"/>
     <use style="fill:#4c72b0;stroke:#4c72b0;stroke-width:1.5;" x="717.855094" xlink:href="#m90bb91c248" y="239.205558"/>
     <use style="fill:#4c72b0;stroke:#4c72b0;stroke-width:1.5;" x="733.311631" xlink:href="#m90bb91c248" y="314.527578"/>
     <use style="fill:#4c72b0;stroke:#4c72b0;stroke-width:1.5;" x="506.600423" xlink:href="#m90bb91c248" y="317.578283"/>
     <use style="fill:#4c72b0;stroke:#4c72b0;stroke-width:1.5;" x="530.65515" xlink:href="#m90bb91c248" y="303.798632"/>
     <use style="fill:#4c72b0;stroke:#4c72b0;stroke-width:1.5;" x="607.995611" xlink:href="#m90bb91c248" y="280.607241"/>
     <use style="fill:#4c72b0;stroke:#4c72b0;stroke-width:1.5;" x="701.55349" xlink:href="#m90bb91c248" y="288.357003"/>
     <use style="fill:#4c72b0;stroke:#4c72b0;stroke-width:1.5;" x="884.485509" xlink:href="#m90bb91c248" y="108.753068"/>
     <use style="fill:#4c72b0;stroke:#4c72b0;stroke-width:1.5;" x="909.242186" xlink:href="#m90bb91c248" y="93.785735"/>
     <use style="fill:#4c72b0;stroke:#4c72b0;stroke-width:1.5;" x="461.972975" xlink:href="#m90bb91c248" y="332.481471"/>
     <use style="fill:#4c72b0;stroke:#4c72b0;stroke-width:1.5;" x="419.186434" xlink:href="#m90bb91c248" y="309.472767"/>
     <use style="fill:#4c72b0;stroke:#4c72b0;stroke-width:1.5;" x="307.422854" xlink:href="#m90bb91c248" y="308.111885"/>
     <use style="fill:#4c72b0;stroke:#4c72b0;stroke-width:1.5;" x="475.874011" xlink:href="#m90bb91c248" y="300.690375"/>
     <use style="fill:#4c72b0;stroke:#4c72b0;stroke-width:1.5;" x="582.194173" xlink:href="#m90bb91c248" y="282.618274"/>
     <use style="fill:#4c72b0;stroke:#4c72b0;stroke-width:1.5;" x="454.545931" xlink:href="#m90bb91c248" y="301.938777"/>
     <use style="fill:#4c72b0;stroke:#4c72b0;stroke-width:1.5;" x="597.883248" xlink:href="#m90bb91c248" y="308.585128"/>
     <use style="fill:#4c72b0;stroke:#4c72b0;stroke-width:1.5;" x="848.234921" xlink:href="#m90bb91c248" y="74.045876"/>
     <use style="fill:#4c72b0;stroke:#4c72b0;stroke-width:1.5;" x="454.897693" xlink:href="#m90bb91c248" y="295.687153"/>
     <use style="fill:#4c72b0;stroke:#4c72b0;stroke-width:1.5;" x="716.986961" xlink:href="#m90bb91c248" y="175.005646"/>
     <use style="fill:#4c72b0;stroke:#4c72b0;stroke-width:1.5;" x="993.373997" xlink:href="#m90bb91c248" y="96.10983"/>
     <use style="fill:#4c72b0;stroke:#4c72b0;stroke-width:1.5;" x="716.986961" xlink:href="#m90bb91c248" y="248.346395"/>
     <use style="fill:#4c72b0;stroke:#4c72b0;stroke-width:1.5;" x="759.269675" xlink:href="#m90bb91c248" y="233.631513"/>
     <use style="fill:#4c72b0;stroke:#4c72b0;stroke-width:1.5;" x="304.313873" xlink:href="#m90bb91c248" y="313.811962"/>
     <use style="fill:#4c72b0;stroke:#4c72b0;stroke-width:1.5;" x="563.280963" xlink:href="#m90bb91c248" y="283.461804"/>
     <use style="fill:#4c72b0;stroke:#4c72b0;stroke-width:1.5;" x="647.441981" xlink:href="#m90bb91c248" y="286.742915"/>
     <use style="fill:#4c72b0;stroke:#4c72b0;stroke-width:1.5;" x="402.305632" xlink:href="#m90bb91c248" y="330.207068"/>
     <use style="fill:#4c72b0;stroke:#4c72b0;stroke-width:1.5;" x="700.657798" xlink:href="#m90bb91c248" y="241.209153"/>
     <use style="fill:#4c72b0;stroke:#4c72b0;stroke-width:1.5;" x="753.245656" xlink:href="#m90bb91c248" y="178.092429"/>
     <use style="fill:#4c72b0;stroke:#4c72b0;stroke-width:1.5;" x="487.597452" xlink:href="#m90bb91c248" y="304.926451"/>
     <use style="fill:#4c72b0;stroke:#4c72b0;stroke-width:1.5;" x="810.705834" xlink:href="#m90bb91c248" y="147.552111"/>
     <use style="fill:#4c72b0;stroke:#4c72b0;stroke-width:1.5;" x="684.24326" xlink:href="#m90bb91c248" y="269.500997"/>
     <use style="fill:#4c72b0;stroke:#4c72b0;stroke-width:1.5;" x="935.935139" xlink:href="#m90bb91c248" y="196.859639"/>
     <use style="fill:#4c72b0;stroke:#4c72b0;stroke-width:1.5;" x="312.03922" xlink:href="#m90bb91c248" y="314.631951"/>
     <use style="fill:#4c72b0;stroke:#4c72b0;stroke-width:1.5;" x="303.810046" xlink:href="#m90bb91c248" y="278.904218"/>
     <use style="fill:#4c72b0;stroke:#4c72b0;stroke-width:1.5;" x="649.012169" xlink:href="#m90bb91c248" y="236.772622"/>
     <use style="fill:#4c72b0;stroke:#4c72b0;stroke-width:1.5;" x="486.027486" xlink:href="#m90bb91c248" y="295.591897"/>
     <use style="fill:#4c72b0;stroke:#4c72b0;stroke-width:1.5;" x="528.270057" xlink:href="#m90bb91c248" y="344.120623"/>
     <use style="fill:#4c72b0;stroke:#4c72b0;stroke-width:1.5;" x="655.081665" xlink:href="#m90bb91c248" y="267.765636"/>
     <use style="fill:#4c72b0;stroke:#4c72b0;stroke-width:1.5;" x="509.753158" xlink:href="#m90bb91c248" y="320.944993"/>
     <use style="fill:#4c72b0;stroke:#4c72b0;stroke-width:1.5;" x="401.711927" xlink:href="#m90bb91c248" y="332.046498"/>
     <use style="fill:#4c72b0;stroke:#4c72b0;stroke-width:1.5;" x="684.24326" xlink:href="#m90bb91c248" y="287.281727"/>
     <use style="fill:#4c72b0;stroke:#4c72b0;stroke-width:1.5;" x="839.674541" xlink:href="#m90bb91c248" y="245.761447"/>
     <use style="fill:#4c72b0;stroke:#4c72b0;stroke-width:1.5;" x="703.183651" xlink:href="#m90bb91c248" y="287.430028"/>
     <use style="fill:#4c72b0;stroke:#4c72b0;stroke-width:1.5;" x="713.238206" xlink:href="#m90bb91c248" y="257.648994"/>
     <use style="fill:#4c72b0;stroke:#4c72b0;stroke-width:1.5;" x="933.740098" xlink:href="#m90bb91c248" y="108.001207"/>
     <use style="fill:#4c72b0;stroke:#4c72b0;stroke-width:1.5;" x="368.386771" xlink:href="#m90bb91c248" y="356.259174"/>
     <use style="fill:#4c72b0;stroke:#4c72b0;stroke-width:1.5;" x="604.859081" xlink:href="#m90bb91c248" y="265.182399"/>
     <use style="fill:#4c72b0;stroke:#4c72b0;stroke-width:1.5;" x="578.53476" xlink:href="#m90bb91c248" y="314.456741"/>
     <use style="fill:#4c72b0;stroke:#4c72b0;stroke-width:1.5;" x="370.254753" xlink:href="#m90bb91c248" y="286.751511"/>
     <use style="fill:#4c72b0;stroke:#4c72b0;stroke-width:1.5;" x="421.233859" xlink:href="#m90bb91c248" y="327.457655"/>
     <use style="fill:#4c72b0;stroke:#4c72b0;stroke-width:1.5;" x="687.58883" xlink:href="#m90bb91c248" y="239.578124"/>
     <use style="fill:#4c72b0;stroke:#4c72b0;stroke-width:1.5;" x="308.183264" xlink:href="#m90bb91c248" y="334.28622"/>
     <use style="fill:#4c72b0;stroke:#4c72b0;stroke-width:1.5;" x="583.216983" xlink:href="#m90bb91c248" y="304.448506"/>
     <use style="fill:#4c72b0;stroke:#4c72b0;stroke-width:1.5;" x="920.293892" xlink:href="#m90bb91c248" y="130.589509"/>
     <use style="fill:#4c72b0;stroke:#4c72b0;stroke-width:1.5;" x="462.797701" xlink:href="#m90bb91c248" y="323.808278"/>
     <use style="fill:#4c72b0;stroke:#4c72b0;stroke-width:1.5;" x="367.276529" xlink:href="#m90bb91c248" y="316.87575"/>
     <use style="fill:#4c72b0;stroke:#4c72b0;stroke-width:1.5;" x="761.78881" xlink:href="#m90bb91c248" y="259.520285"/>
     <use style="fill:#4c72b0;stroke:#4c72b0;stroke-width:1.5;" x="570.159297" xlink:href="#m90bb91c248" y="289.788261"/>
     <use style="fill:#4c72b0;stroke:#4c72b0;stroke-width:1.5;" x="604.99784" xlink:href="#m90bb91c248" y="288.306825"/>
     <use style="fill:#4c72b0;stroke:#4c72b0;stroke-width:1.5;" x="359.967381" xlink:href="#m90bb91c248" y="359.956273"/>
     <use style="fill:#4c72b0;stroke:#4c72b0;stroke-width:1.5;" x="625.755514" xlink:href="#m90bb91c248" y="250.310615"/>
     <use style="fill:#4c72b0;stroke:#4c72b0;stroke-width:1.5;" x="325.932632" xlink:href="#m90bb91c248" y="344.151456"/>
     <use style="fill:#4c72b0;stroke:#4c72b0;stroke-width:1.5;" x="877.591514" xlink:href="#m90bb91c248" y="142.662689"/>
     <use style="fill:#4c72b0;stroke:#4c72b0;stroke-width:1.5;" x="781.102179" xlink:href="#m90bb91c248" y="175.02329"/>
     <use style="fill:#4c72b0;stroke:#4c72b0;stroke-width:1.5;" x="474.649276" xlink:href="#m90bb91c248" y="315.964914"/>
     <use style="fill:#4c72b0;stroke:#4c72b0;stroke-width:1.5;" x="531.924621" xlink:href="#m90bb91c248" y="301.663552"/>
     <use style="fill:#4c72b0;stroke:#4c72b0;stroke-width:1.5;" x="873.546805" xlink:href="#m90bb91c248" y="142.456268"/>
     <use style="fill:#4c72b0;stroke:#4c72b0;stroke-width:1.5;" x="373.170232" xlink:href="#m90bb91c248" y="326.243368"/>
     <use style="fill:#4c72b0;stroke:#4c72b0;stroke-width:1.5;" x="666.096422" xlink:href="#m90bb91c248" y="292.391053"/>
     <use style="fill:#4c72b0;stroke:#4c72b0;stroke-width:1.5;" x="937.920076" xlink:href="#m90bb91c248" y="137.242637"/>
     <use style="fill:#4c72b0;stroke:#4c72b0;stroke-width:1.5;" x="190.952792" xlink:href="#m90bb91c248" y="334.980938"/>
     <use style="fill:#4c72b0;stroke:#4c72b0;stroke-width:1.5;" x="552.76949" xlink:href="#m90bb91c248" y="312.244242"/>
     <use style="fill:#4c72b0;stroke:#4c72b0;stroke-width:1.5;" x="619.014814" xlink:href="#m90bb91c248" y="316.851177"/>
     <use style="fill:#4c72b0;stroke:#4c72b0;stroke-width:1.5;" x="878.063325" xlink:href="#m90bb91c248" y="215.30333"/>
     <use style="fill:#4c72b0;stroke:#4c72b0;stroke-width:1.5;" x="409.109893" xlink:href="#m90bb91c248" y="326.39053"/>
     <use style="fill:#4c72b0;stroke:#4c72b0;stroke-width:1.5;" x="472.390568" xlink:href="#m90bb91c248" y="296.418217"/>
     <use style="fill:#4c72b0;stroke:#4c72b0;stroke-width:1.5;" x="455.917049" xlink:href="#m90bb91c248" y="319.666012"/>
     <use style="fill:#4c72b0;stroke:#4c72b0;stroke-width:1.5;" x="622.660254" xlink:href="#m90bb91c248" y="310.748852"/>
     <use style="fill:#4c72b0;stroke:#4c72b0;stroke-width:1.5;" x="539.762513" xlink:href="#m90bb91c248" y="310.948012"/>
     <use style="fill:#4c72b0;stroke:#4c72b0;stroke-width:1.5;" x="420.194088" xlink:href="#m90bb91c248" y="329.424708"/>
     <use style="fill:#4c72b0;stroke:#4c72b0;stroke-width:1.5;" x="730.570754" xlink:href="#m90bb91c248" y="188.048376"/>
     <use style="fill:#4c72b0;stroke:#4c72b0;stroke-width:1.5;" x="729.9103" xlink:href="#m90bb91c248" y="188.356888"/>
     <use style="fill:#4c72b0;stroke:#4c72b0;stroke-width:1.5;" x="584.283031" xlink:href="#m90bb91c248" y="271.741344"/>
     <use style="fill:#4c72b0;stroke:#4c72b0;stroke-width:1.5;" x="677.586632" xlink:href="#m90bb91c248" y="324.097035"/>
     <use style="fill:#4c72b0;stroke:#4c72b0;stroke-width:1.5;" x="448.686101" xlink:href="#m90bb91c248" y="327.15851"/>
     <use style="fill:#4c72b0;stroke:#4c72b0;stroke-width:1.5;" x="703.996887" xlink:href="#m90bb91c248" y="279.58211"/>
     <use style="fill:#4c72b0;stroke:#4c72b0;stroke-width:1.5;" x="752.683503" xlink:href="#m90bb91c248" y="185.196203"/>
     <use style="fill:#4c72b0;stroke:#4c72b0;stroke-width:1.5;" x="556.302026" xlink:href="#m90bb91c248" y="299.377705"/>
     <use style="fill:#4c72b0;stroke:#4c72b0;stroke-width:1.5;" x="198.475995" xlink:href="#m90bb91c248" y="337.850522"/>
     <use style="fill:#4c72b0;stroke:#4c72b0;stroke-width:1.5;" x="492.140587" xlink:href="#m90bb91c248" y="289.136359"/>
     <use style="fill:#4c72b0;stroke:#4c72b0;stroke-width:1.5;" x="875.541756" xlink:href="#m90bb91c248" y="183.55702"/>
     <use style="fill:#4c72b0;stroke:#4c72b0;stroke-width:1.5;" x="394.624867" xlink:href="#m90bb91c248" y="307.939741"/>
     <use style="fill:#4c72b0;stroke:#4c72b0;stroke-width:1.5;" x="768.046872" xlink:href="#m90bb91c248" y="261.182903"/>
     <use style="fill:#4c72b0;stroke:#4c72b0;stroke-width:1.5;" x="845.759981" xlink:href="#m90bb91c248" y="177.971569"/>
     <use style="fill:#4c72b0;stroke:#4c72b0;stroke-width:1.5;" x="633.623223" xlink:href="#m90bb91c248" y="255.005064"/>
     <use style="fill:#4c72b0;stroke:#4c72b0;stroke-width:1.5;" x="697.614029" xlink:href="#m90bb91c248" y="270.794295"/>
     <use style="fill:#4c72b0;stroke:#4c72b0;stroke-width:1.5;" x="902.233606" xlink:href="#m90bb91c248" y="101.277083"/>
     <use style="fill:#4c72b0;stroke:#4c72b0;stroke-width:1.5;" x="187.426003" xlink:href="#m90bb91c248" y="305.442517"/>
     <use style="fill:#4c72b0;stroke:#4c72b0;stroke-width:1.5;" x="190.952792" xlink:href="#m90bb91c248" y="337.713994"/>
     <use style="fill:#4c72b0;stroke:#4c72b0;stroke-width:1.5;" x="635.174889" xlink:href="#m90bb91c248" y="292.294119"/>
     <use style="fill:#4c72b0;stroke:#4c72b0;stroke-width:1.5;" x="583.256222" xlink:href="#m90bb91c248" y="309.578154"/>
     <use style="fill:#4c72b0;stroke:#4c72b0;stroke-width:1.5;" x="612.051419" xlink:href="#m90bb91c248" y="289.854359"/>
     <use style="fill:#4c72b0;stroke:#4c72b0;stroke-width:1.5;" x="721.734562" xlink:href="#m90bb91c248" y="260.29723"/>
     <use style="fill:#4c72b0;stroke:#4c72b0;stroke-width:1.5;" x="795.316209" xlink:href="#m90bb91c248" y="151.463897"/>
     <use style="fill:#4c72b0;stroke:#4c72b0;stroke-width:1.5;" x="222.693895" xlink:href="#m90bb91c248" y="341.038883"/>
     <use style="fill:#4c72b0;stroke:#4c72b0;stroke-width:1.5;" x="767.675631" xlink:href="#m90bb91c248" y="203.514226"/>
     <use style="fill:#4c72b0;stroke:#4c72b0;stroke-width:1.5;" x="524.683772" xlink:href="#m90bb91c248" y="340.387638"/>
     <use style="fill:#4c72b0;stroke:#4c72b0;stroke-width:1.5;" x="781.209052" xlink:href="#m90bb91c248" y="166.218093"/>
     <use style="fill:#4c72b0;stroke:#4c72b0;stroke-width:1.5;" x="403.374017" xlink:href="#m90bb91c248" y="324.668727"/>
     <use style="fill:#4c72b0;stroke:#4c72b0;stroke-width:1.5;" x="454.006081" xlink:href="#m90bb91c248" y="308.073305"/>
     <use style="fill:#4c72b0;stroke:#4c72b0;stroke-width:1.5;" x="935.860682" xlink:href="#m90bb91c248" y="102.143121"/>
     <use style="fill:#4c72b0;stroke:#4c72b0;stroke-width:1.5;" x="809.269469" xlink:href="#m90bb91c248" y="257.94366"/>
     <use style="fill:#4c72b0;stroke:#4c72b0;stroke-width:1.5;" x="668.197902" xlink:href="#m90bb91c248" y="293.775717"/>
     <use style="fill:#4c72b0;stroke:#4c72b0;stroke-width:1.5;" x="596.533546" xlink:href="#m90bb91c248" y="253.887876"/>
     <use style="fill:#4c72b0;stroke:#4c72b0;stroke-width:1.5;" x="801.087318" xlink:href="#m90bb91c248" y="270.728709"/>
     <use style="fill:#4c72b0;stroke:#4c72b0;stroke-width:1.5;" x="947.985754" xlink:href="#m90bb91c248" y="152.11864"/>
     <use style="fill:#4c72b0;stroke:#4c72b0;stroke-width:1.5;" x="864.569523" xlink:href="#m90bb91c248" y="175.788369"/>
    </g>
   </g>
   <g id="patch_3">
    <path d="M 144 378 
L 144 51.84 
" style="fill:none;stroke:#cccccc;stroke-linecap:square;stroke-linejoin:miter;stroke-width:1.25;"/>
   </g>
   <g id="patch_4">
    <path d="M 1036.8 378 
L 1036.8 51.84 
" style="fill:none;stroke:#cccccc;stroke-linecap:square;stroke-linejoin:miter;stroke-width:1.25;"/>
   </g>
   <g id="patch_5">
    <path d="M 144 378 
L 1036.8 378 
" style="fill:none;stroke:#cccccc;stroke-linecap:square;stroke-linejoin:miter;stroke-width:1.25;"/>
   </g>
   <g id="patch_6">
    <path d="M 144 51.84 
L 1036.8 51.84 
" style="fill:none;stroke:#cccccc;stroke-linecap:square;stroke-linejoin:miter;stroke-width:1.25;"/>
   </g>
   <g id="text_14">
    <!-- Model Fit Plot -->
    <defs>
     <path d="M 7.421875 0 
L 7.421875 71.578125 
L 21.6875 71.578125 
L 38.625 20.90625 
Q 40.96875 13.8125 42.046875 10.296875 
Q 43.265625 14.203125 45.84375 21.78125 
L 62.984375 71.578125 
L 75.734375 71.578125 
L 75.734375 0 
L 66.609375 0 
L 66.609375 59.90625 
L 45.796875 0 
L 37.25 0 
L 16.546875 60.9375 
L 16.546875 0 
z
" id="ArialMT-77"/>
     <path d="M 3.328125 25.921875 
Q 3.328125 40.328125 11.328125 47.265625 
Q 18.015625 53.03125 27.640625 53.03125 
Q 38.328125 53.03125 45.109375 46.015625 
Q 51.90625 39.015625 51.90625 26.65625 
Q 51.90625 16.65625 48.90625 10.90625 
Q 45.90625 5.171875 40.15625 2 
Q 34.421875 -1.171875 27.640625 -1.171875 
Q 16.75 -1.171875 10.03125 5.8125 
Q 3.328125 12.796875 3.328125 25.921875 
z
M 12.359375 25.921875 
Q 12.359375 15.96875 16.703125 11.015625 
Q 21.046875 6.0625 27.640625 6.0625 
Q 34.1875 6.0625 38.53125 11.03125 
Q 42.875 16.015625 42.875 26.21875 
Q 42.875 35.84375 38.5 40.796875 
Q 34.125 45.75 27.640625 45.75 
Q 21.046875 45.75 16.703125 40.8125 
Q 12.359375 35.890625 12.359375 25.921875 
z
" id="ArialMT-111"/>
     <path d="M 7.71875 0 
L 7.71875 71.578125 
L 34.71875 71.578125 
Q 41.84375 71.578125 45.609375 70.90625 
Q 50.875 70.015625 54.4375 67.546875 
Q 58.015625 65.09375 60.1875 60.640625 
Q 62.359375 56.203125 62.359375 50.875 
Q 62.359375 41.75 56.546875 35.421875 
Q 50.734375 29.109375 35.546875 29.109375 
L 17.1875 29.109375 
L 17.1875 0 
z
M 17.1875 37.546875 
L 35.6875 37.546875 
Q 44.875 37.546875 48.734375 40.96875 
Q 52.59375 44.390625 52.59375 50.59375 
Q 52.59375 55.078125 50.3125 58.265625 
Q 48.046875 61.46875 44.34375 62.5 
Q 41.9375 63.140625 35.5 63.140625 
L 17.1875 63.140625 
z
" id="ArialMT-80"/>
    </defs>
    <g style="fill:#262626;" transform="translate(517.044375 45.84)scale(0.24 -0.24)">
     <use xlink:href="#ArialMT-77"/>
     <use x="83.300781" xlink:href="#ArialMT-111"/>
     <use x="138.916016" xlink:href="#ArialMT-100"/>
     <use x="194.53125" xlink:href="#ArialMT-101"/>
     <use x="250.146484" xlink:href="#ArialMT-108"/>
     <use x="272.363281" xlink:href="#ArialMT-32"/>
     <use x="300.146484" xlink:href="#ArialMT-70"/>
     <use x="361.230469" xlink:href="#ArialMT-105"/>
     <use x="383.447266" xlink:href="#ArialMT-116"/>
     <use x="411.230469" xlink:href="#ArialMT-32"/>
     <use x="439.013672" xlink:href="#ArialMT-80"/>
     <use x="505.712891" xlink:href="#ArialMT-108"/>
     <use x="527.929688" xlink:href="#ArialMT-111"/>
     <use x="583.544922" xlink:href="#ArialMT-116"/>
    </g>
   </g>
  </g>
 </g>
 <defs>
  <clipPath id="p78eaf7ce70">
   <rect height="326.16" width="892.8" x="144" y="51.84"/>
  </clipPath>
 </defs>
</svg>
