<?xml version="1.0" encoding="utf-8" standalone="no"?>
<!DOCTYPE svg PUBLIC "-//W3C//DTD SVG 1.1//EN"
  "http://www.w3.org/Graphics/SVG/1.1/DTD/svg11.dtd">
<!-- Created with matplotlib (https://matplotlib.org/) -->
<svg height="720pt" version="1.1" viewBox="0 0 1152 720" width="1152pt" xmlns="http://www.w3.org/2000/svg" xmlns:xlink="http://www.w3.org/1999/xlink">
 <defs>
  <style type="text/css">
*{stroke-linecap:butt;stroke-linejoin:round;}
  </style>
 </defs>
 <g id="figure_1">
  <g id="patch_1">
   <path d="M 0 720 
L 1152 720 
L 1152 0 
L 0 0 
z
" style="fill:#ffffff;"/>
  </g>
  <g id="axes_1">
   <g id="patch_2">
    <path d="M 144 630 
L 1036.8 630 
L 1036.8 86.4 
L 144 86.4 
z
" style="fill:#ffffff;"/>
   </g>
   <g id="matplotlib.axis_1">
    <g id="xtick_1">
     <g id="line2d_1">
      <path clip-path="url(#peb37f10551)" d="M 144 630 
L 144 86.4 
" style="fill:none;stroke:#cccccc;stroke-linecap:round;"/>
     </g>
     <g id="text_1">
      <!-- 0.0 -->
      <defs>
       <path d="M 4.15625 35.296875 
Q 4.15625 48 6.765625 55.734375 
Q 9.375 63.484375 14.515625 67.671875 
Q 19.671875 71.875 27.484375 71.875 
Q 33.25 71.875 37.59375 69.546875 
Q 41.9375 67.234375 44.765625 62.859375 
Q 47.609375 58.5 49.21875 52.21875 
Q 50.828125 45.953125 50.828125 35.296875 
Q 50.828125 22.703125 48.234375 14.96875 
Q 45.65625 7.234375 40.5 3 
Q 35.359375 -1.21875 27.484375 -1.21875 
Q 17.140625 -1.21875 11.234375 6.203125 
Q 4.15625 15.140625 4.15625 35.296875 
z
M 13.1875 35.296875 
Q 13.1875 17.671875 17.3125 11.828125 
Q 21.4375 6 27.484375 6 
Q 33.546875 6 37.671875 11.859375 
Q 41.796875 17.71875 41.796875 35.296875 
Q 41.796875 52.984375 37.671875 58.78125 
Q 33.546875 64.59375 27.390625 64.59375 
Q 21.34375 64.59375 17.71875 59.46875 
Q 13.1875 52.9375 13.1875 35.296875 
z
" id="ArialMT-48"/>
       <path d="M 9.078125 0 
L 9.078125 10.015625 
L 19.09375 10.015625 
L 19.09375 0 
z
" id="ArialMT-46"/>
      </defs>
      <g style="fill:#262626;" transform="translate(128.71 655.247187)scale(0.22 -0.22)">
       <use xlink:href="#ArialMT-48"/>
       <use x="55.615234" xlink:href="#ArialMT-46"/>
       <use x="83.398438" xlink:href="#ArialMT-48"/>
      </g>
     </g>
    </g>
    <g id="xtick_2">
     <g id="line2d_2">
      <path clip-path="url(#peb37f10551)" d="M 331.528767 630 
L 331.528767 86.4 
" style="fill:none;stroke:#cccccc;stroke-linecap:round;"/>
     </g>
     <g id="text_2">
      <!-- 0.2 -->
      <defs>
       <path d="M 50.34375 8.453125 
L 50.34375 0 
L 3.03125 0 
Q 2.9375 3.171875 4.046875 6.109375 
Q 5.859375 10.9375 9.828125 15.625 
Q 13.8125 20.3125 21.34375 26.46875 
Q 33.015625 36.03125 37.109375 41.625 
Q 41.21875 47.21875 41.21875 52.203125 
Q 41.21875 57.421875 37.46875 61 
Q 33.734375 64.59375 27.734375 64.59375 
Q 21.390625 64.59375 17.578125 60.78125 
Q 13.765625 56.984375 13.71875 50.25 
L 4.6875 51.171875 
Q 5.609375 61.28125 11.65625 66.578125 
Q 17.71875 71.875 27.9375 71.875 
Q 38.234375 71.875 44.234375 66.15625 
Q 50.25 60.453125 50.25 52 
Q 50.25 47.703125 48.484375 43.546875 
Q 46.734375 39.40625 42.65625 34.8125 
Q 38.578125 30.21875 29.109375 22.21875 
Q 21.1875 15.578125 18.9375 13.203125 
Q 16.703125 10.84375 15.234375 8.453125 
z
" id="ArialMT-50"/>
      </defs>
      <g style="fill:#262626;" transform="translate(316.238767 655.247187)scale(0.22 -0.22)">
       <use xlink:href="#ArialMT-48"/>
       <use x="55.615234" xlink:href="#ArialMT-46"/>
       <use x="83.398438" xlink:href="#ArialMT-50"/>
      </g>
     </g>
    </g>
    <g id="xtick_3">
     <g id="line2d_3">
      <path clip-path="url(#peb37f10551)" d="M 519.057534 630 
L 519.057534 86.4 
" style="fill:none;stroke:#cccccc;stroke-linecap:round;"/>
     </g>
     <g id="text_3">
      <!-- 0.4 -->
      <defs>
       <path d="M 32.328125 0 
L 32.328125 17.140625 
L 1.265625 17.140625 
L 1.265625 25.203125 
L 33.9375 71.578125 
L 41.109375 71.578125 
L 41.109375 25.203125 
L 50.78125 25.203125 
L 50.78125 17.140625 
L 41.109375 17.140625 
L 41.109375 0 
z
M 32.328125 25.203125 
L 32.328125 57.46875 
L 9.90625 25.203125 
z
" id="ArialMT-52"/>
      </defs>
      <g style="fill:#262626;" transform="translate(503.767534 655.247187)scale(0.22 -0.22)">
       <use xlink:href="#ArialMT-48"/>
       <use x="55.615234" xlink:href="#ArialMT-46"/>
       <use x="83.398438" xlink:href="#ArialMT-52"/>
      </g>
     </g>
    </g>
    <g id="xtick_4">
     <g id="line2d_4">
      <path clip-path="url(#peb37f10551)" d="M 706.586301 630 
L 706.586301 86.4 
" style="fill:none;stroke:#cccccc;stroke-linecap:round;"/>
     </g>
     <g id="text_4">
      <!-- 0.6 -->
      <defs>
       <path d="M 49.75 54.046875 
L 41.015625 53.375 
Q 39.84375 58.546875 37.703125 60.890625 
Q 34.125 64.65625 28.90625 64.65625 
Q 24.703125 64.65625 21.53125 62.3125 
Q 17.390625 59.28125 14.984375 53.46875 
Q 12.59375 47.65625 12.5 36.921875 
Q 15.671875 41.75 20.265625 44.09375 
Q 24.859375 46.4375 29.890625 46.4375 
Q 38.671875 46.4375 44.84375 39.96875 
Q 51.03125 33.5 51.03125 23.25 
Q 51.03125 16.5 48.125 10.71875 
Q 45.21875 4.9375 40.140625 1.859375 
Q 35.0625 -1.21875 28.609375 -1.21875 
Q 17.625 -1.21875 10.6875 6.859375 
Q 3.765625 14.9375 3.765625 33.5 
Q 3.765625 54.25 11.421875 63.671875 
Q 18.109375 71.875 29.4375 71.875 
Q 37.890625 71.875 43.28125 67.140625 
Q 48.6875 62.40625 49.75 54.046875 
z
M 13.875 23.1875 
Q 13.875 18.65625 15.796875 14.5 
Q 17.71875 10.359375 21.1875 8.171875 
Q 24.65625 6 28.46875 6 
Q 34.03125 6 38.03125 10.484375 
Q 42.046875 14.984375 42.046875 22.703125 
Q 42.046875 30.125 38.078125 34.390625 
Q 34.125 38.671875 28.125 38.671875 
Q 22.171875 38.671875 18.015625 34.390625 
Q 13.875 30.125 13.875 23.1875 
z
" id="ArialMT-54"/>
      </defs>
      <g style="fill:#262626;" transform="translate(691.296301 655.247187)scale(0.22 -0.22)">
       <use xlink:href="#ArialMT-48"/>
       <use x="55.615234" xlink:href="#ArialMT-46"/>
       <use x="83.398438" xlink:href="#ArialMT-54"/>
      </g>
     </g>
    </g>
    <g id="xtick_5">
     <g id="line2d_5">
      <path clip-path="url(#peb37f10551)" d="M 894.115068 630 
L 894.115068 86.4 
" style="fill:none;stroke:#cccccc;stroke-linecap:round;"/>
     </g>
     <g id="text_5">
      <!-- 0.8 -->
      <defs>
       <path d="M 17.671875 38.8125 
Q 12.203125 40.828125 9.5625 44.53125 
Q 6.9375 48.25 6.9375 53.421875 
Q 6.9375 61.234375 12.546875 66.546875 
Q 18.171875 71.875 27.484375 71.875 
Q 36.859375 71.875 42.578125 66.421875 
Q 48.296875 60.984375 48.296875 53.171875 
Q 48.296875 48.1875 45.671875 44.5 
Q 43.0625 40.828125 37.75 38.8125 
Q 44.34375 36.671875 47.78125 31.875 
Q 51.21875 27.09375 51.21875 20.453125 
Q 51.21875 11.28125 44.71875 5.03125 
Q 38.234375 -1.21875 27.640625 -1.21875 
Q 17.046875 -1.21875 10.546875 5.046875 
Q 4.046875 11.328125 4.046875 20.703125 
Q 4.046875 27.6875 7.59375 32.390625 
Q 11.140625 37.109375 17.671875 38.8125 
z
M 15.921875 53.71875 
Q 15.921875 48.640625 19.1875 45.40625 
Q 22.46875 42.1875 27.6875 42.1875 
Q 32.765625 42.1875 36.015625 45.375 
Q 39.265625 48.578125 39.265625 53.21875 
Q 39.265625 58.0625 35.90625 61.359375 
Q 32.5625 64.65625 27.59375 64.65625 
Q 22.5625 64.65625 19.234375 61.421875 
Q 15.921875 58.203125 15.921875 53.71875 
z
M 13.09375 20.65625 
Q 13.09375 16.890625 14.875 13.375 
Q 16.65625 9.859375 20.171875 7.921875 
Q 23.6875 6 27.734375 6 
Q 34.03125 6 38.125 10.046875 
Q 42.234375 14.109375 42.234375 20.359375 
Q 42.234375 26.703125 38.015625 30.859375 
Q 33.796875 35.015625 27.4375 35.015625 
Q 21.234375 35.015625 17.15625 30.90625 
Q 13.09375 26.8125 13.09375 20.65625 
z
" id="ArialMT-56"/>
      </defs>
      <g style="fill:#262626;" transform="translate(878.825068 655.247187)scale(0.22 -0.22)">
       <use xlink:href="#ArialMT-48"/>
       <use x="55.615234" xlink:href="#ArialMT-46"/>
       <use x="83.398438" xlink:href="#ArialMT-56"/>
      </g>
     </g>
    </g>
    <g id="text_6">
     <!-- Simulation Result -->
     <defs>
      <path d="M 4.5 23 
L 13.421875 23.78125 
Q 14.0625 18.40625 16.375 14.96875 
Q 18.703125 11.53125 23.578125 9.40625 
Q 28.46875 7.28125 34.578125 7.28125 
Q 39.984375 7.28125 44.140625 8.890625 
Q 48.296875 10.5 50.3125 13.296875 
Q 52.34375 16.109375 52.34375 19.4375 
Q 52.34375 22.796875 50.390625 25.3125 
Q 48.4375 27.828125 43.953125 29.546875 
Q 41.0625 30.671875 31.203125 33.03125 
Q 21.34375 35.40625 17.390625 37.5 
Q 12.25 40.1875 9.734375 44.15625 
Q 7.234375 48.140625 7.234375 53.078125 
Q 7.234375 58.5 10.296875 63.203125 
Q 13.375 67.921875 19.28125 70.359375 
Q 25.203125 72.796875 32.421875 72.796875 
Q 40.375 72.796875 46.453125 70.234375 
Q 52.546875 67.671875 55.8125 62.6875 
Q 59.078125 57.71875 59.328125 51.421875 
L 50.25 50.734375 
Q 49.515625 57.515625 45.28125 60.984375 
Q 41.0625 64.453125 32.8125 64.453125 
Q 24.21875 64.453125 20.28125 61.296875 
Q 16.359375 58.15625 16.359375 53.71875 
Q 16.359375 49.859375 19.140625 47.359375 
Q 21.875 44.875 33.421875 42.265625 
Q 44.96875 39.65625 49.265625 37.703125 
Q 55.515625 34.8125 58.484375 30.390625 
Q 61.46875 25.984375 61.46875 20.21875 
Q 61.46875 14.5 58.203125 9.4375 
Q 54.9375 4.390625 48.796875 1.578125 
Q 42.671875 -1.21875 35.015625 -1.21875 
Q 25.296875 -1.21875 18.71875 1.609375 
Q 12.15625 4.4375 8.421875 10.125 
Q 4.6875 15.828125 4.5 23 
z
" id="ArialMT-83"/>
      <path d="M 6.640625 61.46875 
L 6.640625 71.578125 
L 15.4375 71.578125 
L 15.4375 61.46875 
z
M 6.640625 0 
L 6.640625 51.859375 
L 15.4375 51.859375 
L 15.4375 0 
z
" id="ArialMT-105"/>
      <path d="M 6.59375 0 
L 6.59375 51.859375 
L 14.453125 51.859375 
L 14.453125 44.578125 
Q 16.890625 48.390625 20.9375 50.703125 
Q 25 53.03125 30.171875 53.03125 
Q 35.9375 53.03125 39.625 50.640625 
Q 43.3125 48.25 44.828125 43.953125 
Q 50.984375 53.03125 60.84375 53.03125 
Q 68.5625 53.03125 72.703125 48.75 
Q 76.859375 44.484375 76.859375 35.59375 
L 76.859375 0 
L 68.109375 0 
L 68.109375 32.671875 
Q 68.109375 37.9375 67.25 40.25 
Q 66.40625 42.578125 64.15625 43.984375 
Q 61.921875 45.40625 58.890625 45.40625 
Q 53.421875 45.40625 49.796875 41.765625 
Q 46.1875 38.140625 46.1875 30.125 
L 46.1875 0 
L 37.40625 0 
L 37.40625 33.6875 
Q 37.40625 39.546875 35.25 42.46875 
Q 33.109375 45.40625 28.21875 45.40625 
Q 24.515625 45.40625 21.359375 43.453125 
Q 18.21875 41.5 16.796875 37.734375 
Q 15.375 33.984375 15.375 26.90625 
L 15.375 0 
z
" id="ArialMT-109"/>
      <path d="M 40.578125 0 
L 40.578125 7.625 
Q 34.515625 -1.171875 24.125 -1.171875 
Q 19.53125 -1.171875 15.546875 0.578125 
Q 11.578125 2.34375 9.640625 5 
Q 7.71875 7.671875 6.9375 11.53125 
Q 6.390625 14.109375 6.390625 19.734375 
L 6.390625 51.859375 
L 15.1875 51.859375 
L 15.1875 23.09375 
Q 15.1875 16.21875 15.71875 13.8125 
Q 16.546875 10.359375 19.234375 8.375 
Q 21.921875 6.390625 25.875 6.390625 
Q 29.828125 6.390625 33.296875 8.421875 
Q 36.765625 10.453125 38.203125 13.9375 
Q 39.65625 17.4375 39.65625 24.078125 
L 39.65625 51.859375 
L 48.4375 51.859375 
L 48.4375 0 
z
" id="ArialMT-117"/>
      <path d="M 6.390625 0 
L 6.390625 71.578125 
L 15.1875 71.578125 
L 15.1875 0 
z
" id="ArialMT-108"/>
      <path d="M 40.4375 6.390625 
Q 35.546875 2.25 31.03125 0.53125 
Q 26.515625 -1.171875 21.34375 -1.171875 
Q 12.796875 -1.171875 8.203125 3 
Q 3.609375 7.171875 3.609375 13.671875 
Q 3.609375 17.484375 5.34375 20.625 
Q 7.078125 23.78125 9.890625 25.6875 
Q 12.703125 27.59375 16.21875 28.5625 
Q 18.796875 29.25 24.03125 29.890625 
Q 34.671875 31.15625 39.703125 32.90625 
Q 39.75 34.71875 39.75 35.203125 
Q 39.75 40.578125 37.25 42.78125 
Q 33.890625 45.75 27.25 45.75 
Q 21.046875 45.75 18.09375 43.578125 
Q 15.140625 41.40625 13.71875 35.890625 
L 5.125 37.0625 
Q 6.296875 42.578125 8.984375 45.96875 
Q 11.671875 49.359375 16.75 51.1875 
Q 21.828125 53.03125 28.515625 53.03125 
Q 35.15625 53.03125 39.296875 51.46875 
Q 43.453125 49.90625 45.40625 47.53125 
Q 47.359375 45.171875 48.140625 41.546875 
Q 48.578125 39.3125 48.578125 33.453125 
L 48.578125 21.734375 
Q 48.578125 9.46875 49.140625 6.21875 
Q 49.703125 2.984375 51.375 0 
L 42.1875 0 
Q 40.828125 2.734375 40.4375 6.390625 
z
M 39.703125 26.03125 
Q 34.90625 24.078125 25.34375 22.703125 
Q 19.921875 21.921875 17.671875 20.9375 
Q 15.4375 19.96875 14.203125 18.09375 
Q 12.984375 16.21875 12.984375 13.921875 
Q 12.984375 10.40625 15.640625 8.0625 
Q 18.3125 5.71875 23.4375 5.71875 
Q 28.515625 5.71875 32.46875 7.9375 
Q 36.421875 10.15625 38.28125 14.015625 
Q 39.703125 17 39.703125 22.796875 
z
" id="ArialMT-97"/>
      <path d="M 25.78125 7.859375 
L 27.046875 0.09375 
Q 23.34375 -0.6875 20.40625 -0.6875 
Q 15.625 -0.6875 12.984375 0.828125 
Q 10.359375 2.34375 9.28125 4.8125 
Q 8.203125 7.28125 8.203125 15.1875 
L 8.203125 45.015625 
L 1.765625 45.015625 
L 1.765625 51.859375 
L 8.203125 51.859375 
L 8.203125 64.703125 
L 16.9375 69.96875 
L 16.9375 51.859375 
L 25.78125 51.859375 
L 25.78125 45.015625 
L 16.9375 45.015625 
L 16.9375 14.703125 
Q 16.9375 10.9375 17.40625 9.859375 
Q 17.875 8.796875 18.921875 8.15625 
Q 19.96875 7.515625 21.921875 7.515625 
Q 23.390625 7.515625 25.78125 7.859375 
z
" id="ArialMT-116"/>
      <path d="M 3.328125 25.921875 
Q 3.328125 40.328125 11.328125 47.265625 
Q 18.015625 53.03125 27.640625 53.03125 
Q 38.328125 53.03125 45.109375 46.015625 
Q 51.90625 39.015625 51.90625 26.65625 
Q 51.90625 16.65625 48.90625 10.90625 
Q 45.90625 5.171875 40.15625 2 
Q 34.421875 -1.171875 27.640625 -1.171875 
Q 16.75 -1.171875 10.03125 5.8125 
Q 3.328125 12.796875 3.328125 25.921875 
z
M 12.359375 25.921875 
Q 12.359375 15.96875 16.703125 11.015625 
Q 21.046875 6.0625 27.640625 6.0625 
Q 34.1875 6.0625 38.53125 11.03125 
Q 42.875 16.015625 42.875 26.21875 
Q 42.875 35.84375 38.5 40.796875 
Q 34.125 45.75 27.640625 45.75 
Q 21.046875 45.75 16.703125 40.8125 
Q 12.359375 35.890625 12.359375 25.921875 
z
" id="ArialMT-111"/>
      <path d="M 6.59375 0 
L 6.59375 51.859375 
L 14.5 51.859375 
L 14.5 44.484375 
Q 20.21875 53.03125 31 53.03125 
Q 35.6875 53.03125 39.625 51.34375 
Q 43.5625 49.65625 45.515625 46.921875 
Q 47.46875 44.1875 48.25 40.4375 
Q 48.734375 37.984375 48.734375 31.890625 
L 48.734375 0 
L 39.9375 0 
L 39.9375 31.546875 
Q 39.9375 36.921875 38.90625 39.578125 
Q 37.890625 42.234375 35.28125 43.8125 
Q 32.671875 45.40625 29.15625 45.40625 
Q 23.53125 45.40625 19.453125 41.84375 
Q 15.375 38.28125 15.375 28.328125 
L 15.375 0 
z
" id="ArialMT-110"/>
      <path id="ArialMT-32"/>
      <path d="M 7.859375 0 
L 7.859375 71.578125 
L 39.59375 71.578125 
Q 49.171875 71.578125 54.140625 69.640625 
Q 59.125 67.71875 62.109375 62.828125 
Q 65.09375 57.953125 65.09375 52.046875 
Q 65.09375 44.4375 60.15625 39.203125 
Q 55.21875 33.984375 44.921875 32.5625 
Q 48.6875 30.765625 50.640625 29 
Q 54.78125 25.203125 58.5 19.484375 
L 70.953125 0 
L 59.03125 0 
L 49.5625 14.890625 
Q 45.40625 21.34375 42.71875 24.75 
Q 40.046875 28.171875 37.921875 29.53125 
Q 35.796875 30.90625 33.59375 31.453125 
Q 31.984375 31.78125 28.328125 31.78125 
L 17.328125 31.78125 
L 17.328125 0 
z
M 17.328125 39.984375 
L 37.703125 39.984375 
Q 44.1875 39.984375 47.84375 41.328125 
Q 51.515625 42.671875 53.421875 45.625 
Q 55.328125 48.578125 55.328125 52.046875 
Q 55.328125 57.125 51.640625 60.390625 
Q 47.953125 63.671875 39.984375 63.671875 
L 17.328125 63.671875 
z
" id="ArialMT-82"/>
      <path d="M 42.09375 16.703125 
L 51.171875 15.578125 
Q 49.03125 7.625 43.21875 3.21875 
Q 37.40625 -1.171875 28.375 -1.171875 
Q 17 -1.171875 10.328125 5.828125 
Q 3.65625 12.84375 3.65625 25.484375 
Q 3.65625 38.578125 10.390625 45.796875 
Q 17.140625 53.03125 27.875 53.03125 
Q 38.28125 53.03125 44.875 45.953125 
Q 51.46875 38.875 51.46875 26.03125 
Q 51.46875 25.25 51.421875 23.6875 
L 12.75 23.6875 
Q 13.234375 15.140625 17.578125 10.59375 
Q 21.921875 6.0625 28.421875 6.0625 
Q 33.25 6.0625 36.671875 8.59375 
Q 40.09375 11.140625 42.09375 16.703125 
z
M 13.234375 30.90625 
L 42.1875 30.90625 
Q 41.609375 37.453125 38.875 40.71875 
Q 34.671875 45.796875 27.984375 45.796875 
Q 21.921875 45.796875 17.796875 41.75 
Q 13.671875 37.703125 13.234375 30.90625 
z
" id="ArialMT-101"/>
      <path d="M 3.078125 15.484375 
L 11.765625 16.84375 
Q 12.5 11.625 15.84375 8.84375 
Q 19.1875 6.0625 25.203125 6.0625 
Q 31.25 6.0625 34.171875 8.515625 
Q 37.109375 10.984375 37.109375 14.3125 
Q 37.109375 17.28125 34.515625 19 
Q 32.71875 20.171875 25.53125 21.96875 
Q 15.875 24.421875 12.140625 26.203125 
Q 8.40625 27.984375 6.46875 31.125 
Q 4.546875 34.28125 4.546875 38.09375 
Q 4.546875 41.546875 6.125 44.5 
Q 7.71875 47.46875 10.453125 49.421875 
Q 12.5 50.921875 16.03125 51.96875 
Q 19.578125 53.03125 23.640625 53.03125 
Q 29.734375 53.03125 34.34375 51.265625 
Q 38.96875 49.515625 41.15625 46.5 
Q 43.359375 43.5 44.1875 38.484375 
L 35.59375 37.3125 
Q 35.015625 41.3125 32.203125 43.546875 
Q 29.390625 45.796875 24.265625 45.796875 
Q 18.21875 45.796875 15.625 43.796875 
Q 13.03125 41.796875 13.03125 39.109375 
Q 13.03125 37.40625 14.109375 36.03125 
Q 15.1875 34.625 17.484375 33.6875 
Q 18.796875 33.203125 25.25 31.453125 
Q 34.578125 28.953125 38.25 27.359375 
Q 41.9375 25.78125 44.03125 22.75 
Q 46.140625 19.734375 46.140625 15.234375 
Q 46.140625 10.84375 43.578125 6.953125 
Q 41.015625 3.078125 36.171875 0.953125 
Q 31.34375 -1.171875 25.25 -1.171875 
Q 15.140625 -1.171875 9.84375 3.03125 
Q 4.546875 7.234375 3.078125 15.484375 
z
" id="ArialMT-115"/>
     </defs>
     <g style="fill:#262626;" transform="translate(497.02875 680.798437)scale(0.24 -0.24)">
      <use xlink:href="#ArialMT-83"/>
      <use x="66.699219" xlink:href="#ArialMT-105"/>
      <use x="88.916016" xlink:href="#ArialMT-109"/>
      <use x="172.216797" xlink:href="#ArialMT-117"/>
      <use x="227.832031" xlink:href="#ArialMT-108"/>
      <use x="250.048828" xlink:href="#ArialMT-97"/>
      <use x="305.664062" xlink:href="#ArialMT-116"/>
      <use x="333.447266" xlink:href="#ArialMT-105"/>
      <use x="355.664062" xlink:href="#ArialMT-111"/>
      <use x="411.279297" xlink:href="#ArialMT-110"/>
      <use x="466.894531" xlink:href="#ArialMT-32"/>
      <use x="494.677734" xlink:href="#ArialMT-82"/>
      <use x="566.894531" xlink:href="#ArialMT-101"/>
      <use x="622.509766" xlink:href="#ArialMT-115"/>
      <use x="672.509766" xlink:href="#ArialMT-117"/>
      <use x="728.125" xlink:href="#ArialMT-108"/>
      <use x="750.341797" xlink:href="#ArialMT-116"/>
     </g>
    </g>
   </g>
   <g id="matplotlib.axis_2">
    <g id="ytick_1">
     <g id="line2d_6">
      <path clip-path="url(#peb37f10551)" d="M 144 605.290909 
L 1036.8 605.290909 
" style="fill:none;stroke:#cccccc;stroke-linecap:round;"/>
     </g>
     <g id="text_7">
      <!-- 0.0 -->
      <g style="fill:#262626;" transform="translate(103.92 613.164503)scale(0.22 -0.22)">
       <use xlink:href="#ArialMT-48"/>
       <use x="55.615234" xlink:href="#ArialMT-46"/>
       <use x="83.398438" xlink:href="#ArialMT-48"/>
      </g>
     </g>
    </g>
    <g id="ytick_2">
     <g id="line2d_7">
      <path clip-path="url(#peb37f10551)" d="M 144 511.880708 
L 1036.8 511.880708 
" style="fill:none;stroke:#cccccc;stroke-linecap:round;"/>
     </g>
     <g id="text_8">
      <!-- 0.2 -->
      <g style="fill:#262626;" transform="translate(103.92 519.754302)scale(0.22 -0.22)">
       <use xlink:href="#ArialMT-48"/>
       <use x="55.615234" xlink:href="#ArialMT-46"/>
       <use x="83.398438" xlink:href="#ArialMT-50"/>
      </g>
     </g>
    </g>
    <g id="ytick_3">
     <g id="line2d_8">
      <path clip-path="url(#peb37f10551)" d="M 144 418.470507 
L 1036.8 418.470507 
" style="fill:none;stroke:#cccccc;stroke-linecap:round;"/>
     </g>
     <g id="text_9">
      <!-- 0.4 -->
      <g style="fill:#262626;" transform="translate(103.92 426.3441)scale(0.22 -0.22)">
       <use xlink:href="#ArialMT-48"/>
       <use x="55.615234" xlink:href="#ArialMT-46"/>
       <use x="83.398438" xlink:href="#ArialMT-52"/>
      </g>
     </g>
    </g>
    <g id="ytick_4">
     <g id="line2d_9">
      <path clip-path="url(#peb37f10551)" d="M 144 325.060305 
L 1036.8 325.060305 
" style="fill:none;stroke:#cccccc;stroke-linecap:round;"/>
     </g>
     <g id="text_10">
      <!-- 0.6 -->
      <g style="fill:#262626;" transform="translate(103.92 332.933899)scale(0.22 -0.22)">
       <use xlink:href="#ArialMT-48"/>
       <use x="55.615234" xlink:href="#ArialMT-46"/>
       <use x="83.398438" xlink:href="#ArialMT-54"/>
      </g>
     </g>
    </g>
    <g id="ytick_5">
     <g id="line2d_10">
      <path clip-path="url(#peb37f10551)" d="M 144 231.650104 
L 1036.8 231.650104 
" style="fill:none;stroke:#cccccc;stroke-linecap:round;"/>
     </g>
     <g id="text_11">
      <!-- 0.8 -->
      <g style="fill:#262626;" transform="translate(103.92 239.523698)scale(0.22 -0.22)">
       <use xlink:href="#ArialMT-48"/>
       <use x="55.615234" xlink:href="#ArialMT-46"/>
       <use x="83.398438" xlink:href="#ArialMT-56"/>
      </g>
     </g>
    </g>
    <g id="ytick_6">
     <g id="line2d_11">
      <path clip-path="url(#peb37f10551)" d="M 144 138.239903 
L 1036.8 138.239903 
" style="fill:none;stroke:#cccccc;stroke-linecap:round;"/>
     </g>
     <g id="text_12">
      <!-- 1.0 -->
      <defs>
       <path d="M 37.25 0 
L 28.46875 0 
L 28.46875 56 
Q 25.296875 52.984375 20.140625 49.953125 
Q 14.984375 46.921875 10.890625 45.40625 
L 10.890625 53.90625 
Q 18.265625 57.375 23.78125 62.296875 
Q 29.296875 67.234375 31.59375 71.875 
L 37.25 71.875 
z
" id="ArialMT-49"/>
      </defs>
      <g style="fill:#262626;" transform="translate(103.92 146.113497)scale(0.22 -0.22)">
       <use xlink:href="#ArialMT-49"/>
       <use x="55.615234" xlink:href="#ArialMT-46"/>
       <use x="83.398438" xlink:href="#ArialMT-48"/>
      </g>
     </g>
    </g>
    <g id="text_13">
     <!-- Predicted -->
     <defs>
      <path d="M 7.71875 0 
L 7.71875 71.578125 
L 34.71875 71.578125 
Q 41.84375 71.578125 45.609375 70.90625 
Q 50.875 70.015625 54.4375 67.546875 
Q 58.015625 65.09375 60.1875 60.640625 
Q 62.359375 56.203125 62.359375 50.875 
Q 62.359375 41.75 56.546875 35.421875 
Q 50.734375 29.109375 35.546875 29.109375 
L 17.1875 29.109375 
L 17.1875 0 
z
M 17.1875 37.546875 
L 35.6875 37.546875 
Q 44.875 37.546875 48.734375 40.96875 
Q 52.59375 44.390625 52.59375 50.59375 
Q 52.59375 55.078125 50.3125 58.265625 
Q 48.046875 61.46875 44.34375 62.5 
Q 41.9375 63.140625 35.5 63.140625 
L 17.1875 63.140625 
z
" id="ArialMT-80"/>
      <path d="M 6.5 0 
L 6.5 51.859375 
L 14.40625 51.859375 
L 14.40625 44 
Q 17.4375 49.515625 20 51.265625 
Q 22.5625 53.03125 25.640625 53.03125 
Q 30.078125 53.03125 34.671875 50.203125 
L 31.640625 42.046875 
Q 28.421875 43.953125 25.203125 43.953125 
Q 22.3125 43.953125 20.015625 42.21875 
Q 17.71875 40.484375 16.75 37.40625 
Q 15.28125 32.71875 15.28125 27.15625 
L 15.28125 0 
z
" id="ArialMT-114"/>
      <path d="M 40.234375 0 
L 40.234375 6.546875 
Q 35.296875 -1.171875 25.734375 -1.171875 
Q 19.53125 -1.171875 14.328125 2.25 
Q 9.125 5.671875 6.265625 11.796875 
Q 3.421875 17.921875 3.421875 25.875 
Q 3.421875 33.640625 6 39.96875 
Q 8.59375 46.296875 13.765625 49.65625 
Q 18.953125 53.03125 25.34375 53.03125 
Q 30.03125 53.03125 33.6875 51.046875 
Q 37.359375 49.078125 39.65625 45.90625 
L 39.65625 71.578125 
L 48.390625 71.578125 
L 48.390625 0 
z
M 12.453125 25.875 
Q 12.453125 15.921875 16.640625 10.984375 
Q 20.84375 6.0625 26.5625 6.0625 
Q 32.328125 6.0625 36.34375 10.765625 
Q 40.375 15.484375 40.375 25.140625 
Q 40.375 35.796875 36.265625 40.765625 
Q 32.171875 45.75 26.171875 45.75 
Q 20.3125 45.75 16.375 40.96875 
Q 12.453125 36.1875 12.453125 25.875 
z
" id="ArialMT-100"/>
      <path d="M 40.4375 19 
L 49.078125 17.875 
Q 47.65625 8.9375 41.8125 3.875 
Q 35.984375 -1.171875 27.484375 -1.171875 
Q 16.84375 -1.171875 10.375 5.78125 
Q 3.90625 12.75 3.90625 25.734375 
Q 3.90625 34.125 6.6875 40.421875 
Q 9.46875 46.734375 15.15625 49.875 
Q 20.84375 53.03125 27.546875 53.03125 
Q 35.984375 53.03125 41.359375 48.75 
Q 46.734375 44.484375 48.25 36.625 
L 39.703125 35.296875 
Q 38.484375 40.53125 35.375 43.15625 
Q 32.28125 45.796875 27.875 45.796875 
Q 21.234375 45.796875 17.078125 41.03125 
Q 12.9375 36.28125 12.9375 25.984375 
Q 12.9375 15.53125 16.9375 10.796875 
Q 20.953125 6.0625 27.390625 6.0625 
Q 32.5625 6.0625 36.03125 9.234375 
Q 39.5 12.40625 40.4375 19 
z
" id="ArialMT-99"/>
     </defs>
     <g style="fill:#262626;" transform="translate(95.15 408.8925)rotate(-90)scale(0.24 -0.24)">
      <use xlink:href="#ArialMT-80"/>
      <use x="66.699219" xlink:href="#ArialMT-114"/>
      <use x="100" xlink:href="#ArialMT-101"/>
      <use x="155.615234" xlink:href="#ArialMT-100"/>
      <use x="211.230469" xlink:href="#ArialMT-105"/>
      <use x="233.447266" xlink:href="#ArialMT-99"/>
      <use x="283.447266" xlink:href="#ArialMT-116"/>
      <use x="311.230469" xlink:href="#ArialMT-101"/>
      <use x="366.845703" xlink:href="#ArialMT-100"/>
     </g>
    </g>
   </g>
   <g id="line2d_12">
    <defs>
     <path d="M -5 0 
L 5 0 
M 0 5 
L 0 -5 
" id="mcf391b5b57" style="stroke:#64b5cd;"/>
    </defs>
    <g clip-path="url(#peb37f10551)">
     <use style="fill:#64b5cd;stroke:#64b5cd;" x="525.637491" xlink:href="#mcf391b5b57" y="438.186008"/>
     <use style="fill:#64b5cd;stroke:#64b5cd;" x="383.620091" xlink:href="#mcf391b5b57" y="429.484754"/>
     <use style="fill:#64b5cd;stroke:#64b5cd;" x="425.293151" xlink:href="#mcf391b5b57" y="471.029169"/>
     <use style="fill:#64b5cd;stroke:#64b5cd;" x="679.184838" xlink:href="#mcf391b5b57" y="424.618203"/>
     <use style="fill:#64b5cd;stroke:#64b5cd;" x="849.837443" xlink:href="#mcf391b5b57" y="317.085566"/>
     <use style="fill:#64b5cd;stroke:#64b5cd;" x="430.143033" xlink:href="#mcf391b5b57" y="394.958907"/>
     <use style="fill:#64b5cd;stroke:#64b5cd;" x="512.806575" xlink:href="#mcf391b5b57" y="434.871221"/>
     <use style="fill:#64b5cd;stroke:#64b5cd;" x="839.419178" xlink:href="#mcf391b5b57" y="267.643118"/>
     <use style="fill:#64b5cd;stroke:#64b5cd;" x="390.565601" xlink:href="#mcf391b5b57" y="450.274223"/>
     <use style="fill:#64b5cd;stroke:#64b5cd;" x="514.151907" xlink:href="#mcf391b5b57" y="433.107536"/>
     <use style="fill:#64b5cd;stroke:#64b5cd;" x="712.167515" xlink:href="#mcf391b5b57" y="370.788709"/>
     <use style="fill:#64b5cd;stroke:#64b5cd;" x="620.858865" xlink:href="#mcf391b5b57" y="397.728583"/>
     <use style="fill:#64b5cd;stroke:#64b5cd;" x="1000.749073" xlink:href="#mcf391b5b57" y="148.259034"/>
     <use style="fill:#64b5cd;stroke:#64b5cd;" x="772.855866" xlink:href="#mcf391b5b57" y="346.788437"/>
     <use style="fill:#64b5cd;stroke:#64b5cd;" x="551.320548" xlink:href="#mcf391b5b57" y="447.246542"/>
     <use style="fill:#64b5cd;stroke:#64b5cd;" x="529.573166" xlink:href="#mcf391b5b57" y="447.794447"/>
     <use style="fill:#64b5cd;stroke:#64b5cd;" x="993.315068" xlink:href="#mcf391b5b57" y="153.121871"/>
     <use style="fill:#64b5cd;stroke:#64b5cd;" x="550.312329" xlink:href="#mcf391b5b57" y="466.681217"/>
     <use style="fill:#64b5cd;stroke:#64b5cd;" x="144" xlink:href="#mcf391b5b57" y="456.21224"/>
     <use style="fill:#64b5cd;stroke:#64b5cd;" x="907.07291" xlink:href="#mcf391b5b57" y="111.109091"/>
     <use style="fill:#64b5cd;stroke:#64b5cd;" x="762.967499" xlink:href="#mcf391b5b57" y="420.685191"/>
     <use style="fill:#64b5cd;stroke:#64b5cd;" x="292.650852" xlink:href="#mcf391b5b57" y="416.683977"/>
     <use style="fill:#64b5cd;stroke:#64b5cd;" x="673.595129" xlink:href="#mcf391b5b57" y="457.201584"/>
     <use style="fill:#64b5cd;stroke:#64b5cd;" x="859.233438" xlink:href="#mcf391b5b57" y="270.179914"/>
     <use style="fill:#64b5cd;stroke:#64b5cd;" x="921.293151" xlink:href="#mcf391b5b57" y="319.939801"/>
     <use style="fill:#64b5cd;stroke:#64b5cd;" x="634.132005" xlink:href="#mcf391b5b57" y="424.498455"/>
     <use style="fill:#64b5cd;stroke:#64b5cd;" x="511.617653" xlink:href="#mcf391b5b57" y="425.93265"/>
     <use style="fill:#64b5cd;stroke:#64b5cd;" x="463.127902" xlink:href="#mcf391b5b57" y="435.298966"/>
     <use style="fill:#64b5cd;stroke:#64b5cd;" x="919.816981" xlink:href="#mcf391b5b57" y="267.752769"/>
     <use style="fill:#64b5cd;stroke:#64b5cd;" x="745.654795" xlink:href="#mcf391b5b57" y="396.551467"/>
     <use style="fill:#64b5cd;stroke:#64b5cd;" x="375.219282" xlink:href="#mcf391b5b57" y="452.731204"/>
     <use style="fill:#64b5cd;stroke:#64b5cd;" x="637.312615" xlink:href="#mcf391b5b57" y="365.219667"/>
     <use style="fill:#64b5cd;stroke:#64b5cd;" x="144" xlink:href="#mcf391b5b57" y="491.462125"/>
     <use style="fill:#64b5cd;stroke:#64b5cd;" x="743.050228" xlink:href="#mcf391b5b57" y="368.466628"/>
     <use style="fill:#64b5cd;stroke:#64b5cd;" x="731.590137" xlink:href="#mcf391b5b57" y="337.128095"/>
     <use style="fill:#64b5cd;stroke:#64b5cd;" x="748.712329" xlink:href="#mcf391b5b57" y="437.671585"/>
     <use style="fill:#64b5cd;stroke:#64b5cd;" x="497.569863" xlink:href="#mcf391b5b57" y="441.743815"/>
     <use style="fill:#64b5cd;stroke:#64b5cd;" x="524.216819" xlink:href="#mcf391b5b57" y="423.350067"/>
     <use style="fill:#64b5cd;stroke:#64b5cd;" x="609.891781" xlink:href="#mcf391b5b57" y="392.393072"/>
     <use style="fill:#64b5cd;stroke:#64b5cd;" x="713.531811" xlink:href="#mcf391b5b57" y="402.737831"/>
     <use style="fill:#64b5cd;stroke:#64b5cd;" x="916.177276" xlink:href="#mcf391b5b57" y="162.993774"/>
     <use style="fill:#64b5cd;stroke:#64b5cd;" x="943.601826" xlink:href="#mcf391b5b57" y="143.014652"/>
     <use style="fill:#64b5cd;stroke:#64b5cd;" x="448.133193" xlink:href="#mcf391b5b57" y="461.637314"/>
     <use style="fill:#64b5cd;stroke:#64b5cd;" x="400.735812" xlink:href="#mcf391b5b57" y="430.924178"/>
     <use style="fill:#64b5cd;stroke:#64b5cd;" x="276.928166" xlink:href="#mcf391b5b57" y="429.107607"/>
     <use style="fill:#64b5cd;stroke:#64b5cd;" x="463.532257" xlink:href="#mcf391b5b57" y="419.201015"/>
     <use style="fill:#64b5cd;stroke:#64b5cd;" x="581.309882" xlink:href="#mcf391b5b57" y="395.077496"/>
     <use style="fill:#64b5cd;stroke:#64b5cd;" x="439.905782" xlink:href="#mcf391b5b57" y="420.867442"/>
     <use style="fill:#64b5cd;stroke:#64b5cd;" x="598.689671" xlink:href="#mcf391b5b57" y="429.739314"/>
     <use style="fill:#64b5cd;stroke:#64b5cd;" x="876.020187" xlink:href="#mcf391b5b57" y="116.664929"/>
     <use style="fill:#64b5cd;stroke:#64b5cd;" x="440.295452" xlink:href="#mcf391b5b57" y="412.52247"/>
     <use style="fill:#64b5cd;stroke:#64b5cd;" x="730.628451" xlink:href="#mcf391b5b57" y="251.430934"/>
     <use style="fill:#64b5cd;stroke:#64b5cd;" x="1036.8" xlink:href="#mcf391b5b57" y="146.116966"/>
     <use style="fill:#64b5cd;stroke:#64b5cd;" x="730.628451" xlink:href="#mcf391b5b57" y="349.329728"/>
     <use style="fill:#64b5cd;stroke:#64b5cd;" x="777.46771" xlink:href="#mcf391b5b57" y="329.687589"/>
     <use style="fill:#64b5cd;stroke:#64b5cd;" x="273.484149" xlink:href="#mcf391b5b57" y="436.716346"/>
     <use style="fill:#64b5cd;stroke:#64b5cd;" x="560.358513" xlink:href="#mcf391b5b57" y="396.203481"/>
     <use style="fill:#64b5cd;stroke:#64b5cd;" x="653.589041" xlink:href="#mcf391b5b57" y="400.583267"/>
     <use style="fill:#64b5cd;stroke:#64b5cd;" x="382.035871" xlink:href="#mcf391b5b57" y="458.60133"/>
     <use style="fill:#64b5cd;stroke:#64b5cd;" x="712.539596" xlink:href="#mcf391b5b57" y="339.802591"/>
     <use style="fill:#64b5cd;stroke:#64b5cd;" x="770.794521" xlink:href="#mcf391b5b57" y="255.551322"/>
     <use style="fill:#64b5cd;stroke:#64b5cd;" x="476.51906" xlink:href="#mcf391b5b57" y="424.855535"/>
     <use style="fill:#64b5cd;stroke:#64b5cd;" x="834.446824" xlink:href="#mcf391b5b57" y="214.784622"/>
     <use style="fill:#64b5cd;stroke:#64b5cd;" x="694.356164" xlink:href="#mcf391b5b57" y="377.567917"/>
     <use style="fill:#64b5cd;stroke:#64b5cd;" x="973.171313" xlink:href="#mcf391b5b57" y="280.602705"/>
     <use style="fill:#64b5cd;stroke:#64b5cd;" x="282.042009" xlink:href="#mcf391b5b57" y="437.810907"/>
     <use style="fill:#64b5cd;stroke:#64b5cd;" x="272.926027" xlink:href="#mcf391b5b57" y="390.119794"/>
     <use style="fill:#64b5cd;stroke:#64b5cd;" x="655.328438" xlink:href="#mcf391b5b57" y="333.880493"/>
     <use style="fill:#64b5cd;stroke:#64b5cd;" x="474.779909" xlink:href="#mcf391b5b57" y="412.395319"/>
     <use style="fill:#64b5cd;stroke:#64b5cd;" x="521.574699" xlink:href="#mcf391b5b57" y="477.17382"/>
     <use style="fill:#64b5cd;stroke:#64b5cd;" x="662.052006" xlink:href="#mcf391b5b57" y="375.251474"/>
     <use style="fill:#64b5cd;stroke:#64b5cd;" x="501.06235" xlink:href="#mcf391b5b57" y="446.237863"/>
     <use style="fill:#64b5cd;stroke:#64b5cd;" x="381.378186" xlink:href="#mcf391b5b57" y="461.056691"/>
     <use style="fill:#64b5cd;stroke:#64b5cd;" x="694.356164" xlink:href="#mcf391b5b57" y="401.302501"/>
     <use style="fill:#64b5cd;stroke:#64b5cd;" x="866.537309" xlink:href="#mcf391b5b57" y="345.879214"/>
     <use style="fill:#64b5cd;stroke:#64b5cd;" x="715.337644" xlink:href="#mcf391b5b57" y="401.500459"/>
     <use style="fill:#64b5cd;stroke:#64b5cd;" x="726.475716" xlink:href="#mcf391b5b57" y="361.747289"/>
     <use style="fill:#64b5cd;stroke:#64b5cd;" x="970.739726" xlink:href="#mcf391b5b57" y="161.990154"/>
     <use style="fill:#64b5cd;stroke:#64b5cd;" x="344.461786" xlink:href="#mcf391b5b57" y="493.376946"/>
     <use style="fill:#64b5cd;stroke:#64b5cd;" x="606.417247" xlink:href="#mcf391b5b57" y="371.803243"/>
     <use style="fill:#64b5cd;stroke:#64b5cd;" x="577.256117" xlink:href="#mcf391b5b57" y="437.577029"/>
     <use style="fill:#64b5cd;stroke:#64b5cd;" x="346.531068" xlink:href="#mcf391b5b57" y="400.594742"/>
     <use style="fill:#64b5cd;stroke:#64b5cd;" x="403.003875" xlink:href="#mcf391b5b57" y="454.93128"/>
     <use style="fill:#64b5cd;stroke:#64b5cd;" x="698.062267" xlink:href="#mcf391b5b57" y="337.625414"/>
     <use style="fill:#64b5cd;stroke:#64b5cd;" x="277.770521" xlink:href="#mcf391b5b57" y="464.04638"/>
     <use style="fill:#64b5cd;stroke:#64b5cd;" x="582.442914" xlink:href="#mcf391b5b57" y="424.217551"/>
     <use style="fill:#64b5cd;stroke:#64b5cd;" x="955.844507" xlink:href="#mcf391b5b57" y="192.142117"/>
     <use style="fill:#64b5cd;stroke:#64b5cd;" x="449.046795" xlink:href="#mcf391b5b57" y="450.059915"/>
     <use style="fill:#64b5cd;stroke:#64b5cd;" x="343.2319" xlink:href="#mcf391b5b57" y="440.806039"/>
     <use style="fill:#64b5cd;stroke:#64b5cd;" x="780.258317" xlink:href="#mcf391b5b57" y="364.245179"/>
     <use style="fill:#64b5cd;stroke:#64b5cd;" x="567.978082" xlink:href="#mcf391b5b57" y="404.648343"/>
     <use style="fill:#64b5cd;stroke:#64b5cd;" x="606.570959" xlink:href="#mcf391b5b57" y="402.67085"/>
     <use style="fill:#64b5cd;stroke:#64b5cd;" x="335.13509" xlink:href="#mcf391b5b57" y="498.312013"/>
     <use style="fill:#64b5cd;stroke:#64b5cd;" x="629.565558" xlink:href="#mcf391b5b57" y="351.951664"/>
     <use style="fill:#64b5cd;stroke:#64b5cd;" x="297.432628" xlink:href="#mcf391b5b57" y="477.214977"/>
     <use style="fill:#64b5cd;stroke:#64b5cd;" x="908.540358" xlink:href="#mcf391b5b57" y="208.257984"/>
     <use style="fill:#64b5cd;stroke:#64b5cd;" x="801.652968" xlink:href="#mcf391b5b57" y="251.454485"/>
     <use style="fill:#64b5cd;stroke:#64b5cd;" x="462.17554" xlink:href="#mcf391b5b57" y="439.590212"/>
     <use style="fill:#64b5cd;stroke:#64b5cd;" x="525.623093" xlink:href="#mcf391b5b57" y="420.500058"/>
     <use style="fill:#64b5cd;stroke:#64b5cd;" x="904.059776" xlink:href="#mcf391b5b57" y="207.982444"/>
     <use style="fill:#64b5cd;stroke:#64b5cd;" x="349.760731" xlink:href="#mcf391b5b57" y="453.310391"/>
     <use style="fill:#64b5cd;stroke:#64b5cd;" x="674.253755" xlink:href="#mcf391b5b57" y="408.122676"/>
     <use style="fill:#64b5cd;stroke:#64b5cd;" x="975.370154" xlink:href="#mcf391b5b57" y="201.023035"/>
     <use style="fill:#64b5cd;stroke:#64b5cd;" x="147.906849" xlink:href="#mcf391b5b57" y="464.973723"/>
     <use style="fill:#64b5cd;stroke:#64b5cd;" x="548.714283" xlink:href="#mcf391b5b57" y="434.623677"/>
     <use style="fill:#64b5cd;stroke:#64b5cd;" x="622.098455" xlink:href="#mcf391b5b57" y="440.773238"/>
     <use style="fill:#64b5cd;stroke:#64b5cd;" x="909.063014" xlink:href="#mcf391b5b57" y="305.22224"/>
     <use style="fill:#64b5cd;stroke:#64b5cd;" x="389.573386" xlink:href="#mcf391b5b57" y="453.506829"/>
     <use style="fill:#64b5cd;stroke:#64b5cd;" x="459.673425" xlink:href="#mcf391b5b57" y="413.49833"/>
     <use style="fill:#64b5cd;stroke:#64b5cd;" x="441.424658" xlink:href="#mcf391b5b57" y="444.530617"/>
     <use style="fill:#64b5cd;stroke:#64b5cd;" x="626.136741" xlink:href="#mcf391b5b57" y="432.627558"/>
     <use style="fill:#64b5cd;stroke:#64b5cd;" x="534.305626" xlink:href="#mcf391b5b57" y="432.893406"/>
     <use style="fill:#64b5cd;stroke:#64b5cd;" x="401.852055" xlink:href="#mcf391b5b57" y="457.556999"/>
     <use style="fill:#64b5cd;stroke:#64b5cd;" x="745.676085" xlink:href="#mcf391b5b57" y="268.841003"/>
     <use style="fill:#64b5cd;stroke:#64b5cd;" x="744.944458" xlink:href="#mcf391b5b57" y="269.25282"/>
     <use style="fill:#64b5cd;stroke:#64b5cd;" x="583.623843" xlink:href="#mcf391b5b57" y="380.558442"/>
     <use style="fill:#64b5cd;stroke:#64b5cd;" x="686.982194" xlink:href="#mcf391b5b57" y="450.445362"/>
     <use style="fill:#64b5cd;stroke:#64b5cd;" x="433.414475" xlink:href="#mcf391b5b57" y="454.531967"/>
     <use style="fill:#64b5cd;stroke:#64b5cd;" x="716.238517" xlink:href="#mcf391b5b57" y="391.024677"/>
     <use style="fill:#64b5cd;stroke:#64b5cd;" x="770.171787" xlink:href="#mcf391b5b57" y="265.033784"/>
     <use style="fill:#64b5cd;stroke:#64b5cd;" x="552.627499" xlink:href="#mcf391b5b57" y="417.448799"/>
     <use style="fill:#64b5cd;stroke:#64b5cd;" x="156.240781" xlink:href="#mcf391b5b57" y="468.804184"/>
     <use style="fill:#64b5cd;stroke:#64b5cd;" x="481.551781" xlink:href="#mcf391b5b57" y="403.778152"/>
     <use style="fill:#64b5cd;stroke:#64b5cd;" x="906.269711" xlink:href="#mcf391b5b57" y="262.845723"/>
     <use style="fill:#64b5cd;stroke:#64b5cd;" x="373.527397" xlink:href="#mcf391b5b57" y="428.87782"/>
     <use style="fill:#64b5cd;stroke:#64b5cd;" x="787.190771" xlink:href="#mcf391b5b57" y="366.464522"/>
     <use style="fill:#64b5cd;stroke:#64b5cd;" x="873.278539" xlink:href="#mcf391b5b57" y="255.389992"/>
     <use style="fill:#64b5cd;stroke:#64b5cd;" x="638.281121" xlink:href="#mcf391b5b57" y="358.218043"/>
     <use style="fill:#64b5cd;stroke:#64b5cd;" x="709.167818" xlink:href="#mcf391b5b57" y="379.294275"/>
     <use style="fill:#64b5cd;stroke:#64b5cd;" x="935.837976" xlink:href="#mcf391b5b57" y="153.014467"/>
     <use style="fill:#64b5cd;stroke:#64b5cd;" x="144" xlink:href="#mcf391b5b57" y="425.544405"/>
     <use style="fill:#64b5cd;stroke:#64b5cd;" x="147.906849" xlink:href="#mcf391b5b57" y="468.62194"/>
     <use style="fill:#64b5cd;stroke:#64b5cd;" x="640" xlink:href="#mcf391b5b57" y="407.993284"/>
     <use style="fill:#64b5cd;stroke:#64b5cd;" x="582.486382" xlink:href="#mcf391b5b57" y="431.064854"/>
     <use style="fill:#64b5cd;stroke:#64b5cd;" x="614.384658" xlink:href="#mcf391b5b57" y="404.736574"/>
     <use style="fill:#64b5cd;stroke:#64b5cd;" x="735.887671" xlink:href="#mcf391b5b57" y="365.282283"/>
     <use style="fill:#64b5cd;stroke:#64b5cd;" x="817.398755" xlink:href="#mcf391b5b57" y="220.006264"/>
     <use style="fill:#64b5cd;stroke:#64b5cd;" x="183.068493" xlink:href="#mcf391b5b57" y="473.060163"/>
     <use style="fill:#64b5cd;stroke:#64b5cd;" x="786.779524" xlink:href="#mcf391b5b57" y="289.485571"/>
     <use style="fill:#64b5cd;stroke:#64b5cd;" x="517.601942" xlink:href="#mcf391b5b57" y="472.19085"/>
     <use style="fill:#64b5cd;stroke:#64b5cd;" x="801.771357" xlink:href="#mcf391b5b57" y="239.700881"/>
     <use style="fill:#64b5cd;stroke:#64b5cd;" x="383.219389" xlink:href="#mcf391b5b57" y="451.208483"/>
     <use style="fill:#64b5cd;stroke:#64b5cd;" x="439.307756" xlink:href="#mcf391b5b57" y="429.056108"/>
     <use style="fill:#64b5cd;stroke:#64b5cd;" x="973.088833" xlink:href="#mcf391b5b57" y="154.170496"/>
     <use style="fill:#64b5cd;stroke:#64b5cd;" x="832.855671" xlink:href="#mcf391b5b57" y="362.140623"/>
     <use style="fill:#64b5cd;stroke:#64b5cd;" x="676.581699" xlink:href="#mcf391b5b57" y="409.970993"/>
     <use style="fill:#64b5cd;stroke:#64b5cd;" x="597.194521" xlink:href="#mcf391b5b57" y="356.726765"/>
     <use style="fill:#64b5cd;stroke:#64b5cd;" x="823.791781" xlink:href="#mcf391b5b57" y="379.206728"/>
     <use style="fill:#64b5cd;stroke:#64b5cd;" x="986.520548" xlink:href="#mcf391b5b57" y="220.880247"/>
     <use style="fill:#64b5cd;stroke:#64b5cd;" x="894.115068" xlink:href="#mcf391b5b57" y="252.47575"/>
    </g>
   </g>
   <g id="line2d_13">
    <defs>
     <path d="M -5 0 
L 5 0 
M 0 5 
L 0 -5 
" id="m036612ca32" style="stroke:#8172b3;"/>
    </defs>
    <g clip-path="url(#peb37f10551)">
     <use style="fill:#8172b3;stroke:#8172b3;" x="494.906102" xlink:href="#m036612ca32" y="407.32177"/>
     <use style="fill:#8172b3;stroke:#8172b3;" x="534.684932" xlink:href="#m036612ca32" y="417.573919"/>
     <use style="fill:#8172b3;stroke:#8172b3;" x="879.026547" xlink:href="#m036612ca32" y="211.711714"/>
     <use style="fill:#8172b3;stroke:#8172b3;" x="284.646575" xlink:href="#m036612ca32" y="470.246049"/>
     <use style="fill:#8172b3;stroke:#8172b3;" x="309.765667" xlink:href="#m036612ca32" y="473.56654"/>
     <use style="fill:#8172b3;stroke:#8172b3;" x="782.490802" xlink:href="#m036612ca32" y="344.928019"/>
     <use style="fill:#8172b3;stroke:#8172b3;" x="830.303196" xlink:href="#m036612ca32" y="258.976835"/>
     <use style="fill:#8172b3;stroke:#8172b3;" x="272.144658" xlink:href="#m036612ca32" y="475.009275"/>
     <use style="fill:#8172b3;stroke:#8172b3;" x="525.894521" xlink:href="#m036612ca32" y="442.257709"/>
     <use style="fill:#8172b3;stroke:#8172b3;" x="810.596033" xlink:href="#m036612ca32" y="253.711993"/>
     <use style="fill:#8172b3;stroke:#8172b3;" x="621.620184" xlink:href="#m036612ca32" y="413.229354"/>
     <use style="fill:#8172b3;stroke:#8172b3;" x="633.658447" xlink:href="#m036612ca32" y="402.229983"/>
     <use style="fill:#8172b3;stroke:#8172b3;" x="475.896151" xlink:href="#m036612ca32" y="454.975925"/>
     <use style="fill:#8172b3;stroke:#8172b3;" x="561.677709" xlink:href="#m036612ca32" y="416.811248"/>
     <use style="fill:#8172b3;stroke:#8172b3;" x="608.292237" xlink:href="#m036612ca32" y="394.610238"/>
     <use style="fill:#8172b3;stroke:#8172b3;" x="983.617435" xlink:href="#m036612ca32" y="176.66004"/>
     <use style="fill:#8172b3;stroke:#8172b3;" x="326.67448" xlink:href="#m036612ca32" y="476.698048"/>
     <use style="fill:#8172b3;stroke:#8172b3;" x="668.228144" xlink:href="#m036612ca32" y="394.720327"/>
     <use style="fill:#8172b3;stroke:#8172b3;" x="774.512666" xlink:href="#m036612ca32" y="385.820353"/>
     <use style="fill:#8172b3;stroke:#8172b3;" x="666.787031" xlink:href="#m036612ca32" y="379.540272"/>
     <use style="fill:#8172b3;stroke:#8172b3;" x="725.339178" xlink:href="#m036612ca32" y="378.640473"/>
     <use style="fill:#8172b3;stroke:#8172b3;" x="745.944191" xlink:href="#m036612ca32" y="431.029406"/>
     <use style="fill:#8172b3;stroke:#8172b3;" x="697.534789" xlink:href="#m036612ca32" y="447.71505"/>
     <use style="fill:#8172b3;stroke:#8172b3;" x="337.044319" xlink:href="#m036612ca32" y="441.118868"/>
     <use style="fill:#8172b3;stroke:#8172b3;" x="380.643444" xlink:href="#m036612ca32" y="440.780416"/>
     <use style="fill:#8172b3;stroke:#8172b3;" x="765.30743" xlink:href="#m036612ca32" y="274.899464"/>
     <use style="fill:#8172b3;stroke:#8172b3;" x="651.890411" xlink:href="#m036612ca32" y="374.811385"/>
     <use style="fill:#8172b3;stroke:#8172b3;" x="168.261713" xlink:href="#m036612ca32" y="482.087616"/>
     <use style="fill:#8172b3;stroke:#8172b3;" x="394.038356" xlink:href="#m036612ca32" y="428.13999"/>
     <use style="fill:#8172b3;stroke:#8172b3;" x="403.299036" xlink:href="#m036612ca32" y="453.414654"/>
     <use style="fill:#8172b3;stroke:#8172b3;" x="411.541041" xlink:href="#m036612ca32" y="464.292428"/>
     <use style="fill:#8172b3;stroke:#8172b3;" x="552.262918" xlink:href="#m036612ca32" y="404.486944"/>
     <use style="fill:#8172b3;stroke:#8172b3;" x="183.778829" xlink:href="#m036612ca32" y="459.759546"/>
     <use style="fill:#8172b3;stroke:#8172b3;" x="657.299895" xlink:href="#m036612ca32" y="422.72084"/>
     <use style="fill:#8172b3;stroke:#8172b3;" x="312.77589" xlink:href="#m036612ca32" y="427.008246"/>
     <use style="fill:#8172b3;stroke:#8172b3;" x="736.632347" xlink:href="#m036612ca32" y="262.493102"/>
     <use style="fill:#8172b3;stroke:#8172b3;" x="465.808625" xlink:href="#m036612ca32" y="451.218142"/>
     <use style="fill:#8172b3;stroke:#8172b3;" x="632.561788" xlink:href="#m036612ca32" y="404.366373"/>
     <use style="fill:#8172b3;stroke:#8172b3;" x="498.607761" xlink:href="#m036612ca32" y="414.419159"/>
     <use style="fill:#8172b3;stroke:#8172b3;" x="417.479452" xlink:href="#m036612ca32" y="461.446555"/>
     <use style="fill:#8172b3;stroke:#8172b3;" x="431.081076" xlink:href="#m036612ca32" y="446.448638"/>
     <use style="fill:#8172b3;stroke:#8172b3;" x="694.084384" xlink:href="#m036612ca32" y="371.36611"/>
     <use style="fill:#8172b3;stroke:#8172b3;" x="272.926027" xlink:href="#m036612ca32" y="459.978263"/>
     <use style="fill:#8172b3;stroke:#8172b3;" x="457.850228" xlink:href="#m036612ca32" y="367.801107"/>
     <use style="fill:#8172b3;stroke:#8172b3;" x="795.912134" xlink:href="#m036612ca32" y="332.406536"/>
     <use style="fill:#8172b3;stroke:#8172b3;" x="305.844715" xlink:href="#m036612ca32" y="431.855306"/>
     <use style="fill:#8172b3;stroke:#8172b3;" x="371.534904" xlink:href="#m036612ca32" y="437.490476"/>
     <use style="fill:#8172b3;stroke:#8172b3;" x="423.060665" xlink:href="#m036612ca32" y="429.305902"/>
     <use style="fill:#8172b3;stroke:#8172b3;" x="346.652055" xlink:href="#m036612ca32" y="461.570216"/>
     <use style="fill:#8172b3;stroke:#8172b3;" x="332.94944" xlink:href="#m036612ca32" y="430.653201"/>
    </g>
   </g>
   <g id="line2d_14">
    <path clip-path="url(#peb37f10551)" d="M 144 605.290909 
L 1036.8 160.577125 
" style="fill:none;stroke:#c44e52;stroke-linecap:round;stroke-width:1.5;"/>
   </g>
   <g id="patch_3">
    <path d="M 144 630 
L 144 86.4 
" style="fill:none;stroke:#cccccc;stroke-linecap:square;stroke-linejoin:miter;stroke-width:1.25;"/>
   </g>
   <g id="patch_4">
    <path d="M 1036.8 630 
L 1036.8 86.4 
" style="fill:none;stroke:#cccccc;stroke-linecap:square;stroke-linejoin:miter;stroke-width:1.25;"/>
   </g>
   <g id="patch_5">
    <path d="M 144 630 
L 1036.8 630 
" style="fill:none;stroke:#cccccc;stroke-linecap:square;stroke-linejoin:miter;stroke-width:1.25;"/>
   </g>
   <g id="patch_6">
    <path d="M 144 86.4 
L 1036.8 86.4 
" style="fill:none;stroke:#cccccc;stroke-linecap:square;stroke-linejoin:miter;stroke-width:1.25;"/>
   </g>
  </g>
 </g>
 <defs>
  <clipPath id="peb37f10551">
   <rect height="543.6" width="892.8" x="144" y="86.4"/>
  </clipPath>
 </defs>
</svg>
