<?xml version="1.0" encoding="utf-8" standalone="no"?>
<!DOCTYPE svg PUBLIC "-//W3C//DTD SVG 1.1//EN"
  "http://www.w3.org/Graphics/SVG/1.1/DTD/svg11.dtd">
<!-- Created with matplotlib (https://matplotlib.org/) -->
<svg height="288pt" version="1.1" viewBox="0 0 432 288" width="432pt" xmlns="http://www.w3.org/2000/svg" xmlns:xlink="http://www.w3.org/1999/xlink">
 <defs>
  <style type="text/css">
*{stroke-linecap:butt;stroke-linejoin:round;}
  </style>
 </defs>
 <g id="figure_1">
  <g id="patch_1">
   <path d="M 0 288 
L 432 288 
L 432 0 
L 0 0 
z
" style="fill:#ffffff;"/>
  </g>
  <g id="axes_1">
   <g id="patch_2">
    <path d="M 54 252 
L 388.8 252 
L 388.8 34.56 
L 54 34.56 
z
" style="fill:#ffffff;"/>
   </g>
   <g id="matplotlib.axis_1">
    <g id="xtick_1">
     <g id="line2d_1">
      <path clip-path="url(#p3fe98002c3)" d="M 152.960207 252 
L 152.960207 34.56 
" style="fill:none;stroke:#cccccc;stroke-linecap:round;"/>
     </g>
     <g id="text_1">
      <!-- −2 -->
      <defs>
       <path d="M 52.828125 31.203125 
L 5.5625 31.203125 
L 5.5625 39.40625 
L 52.828125 39.40625 
z
" id="ArialMT-8722"/>
       <path d="M 50.34375 8.453125 
L 50.34375 0 
L 3.03125 0 
Q 2.9375 3.171875 4.046875 6.109375 
Q 5.859375 10.9375 9.828125 15.625 
Q 13.8125 20.3125 21.34375 26.46875 
Q 33.015625 36.03125 37.109375 41.625 
Q 41.21875 47.21875 41.21875 52.203125 
Q 41.21875 57.421875 37.46875 61 
Q 33.734375 64.59375 27.734375 64.59375 
Q 21.390625 64.59375 17.578125 60.78125 
Q 13.765625 56.984375 13.71875 50.25 
L 4.6875 51.171875 
Q 5.609375 61.28125 11.65625 66.578125 
Q 17.71875 71.875 27.9375 71.875 
Q 38.234375 71.875 44.234375 66.15625 
Q 50.25 60.453125 50.25 52 
Q 50.25 47.703125 48.484375 43.546875 
Q 46.734375 39.40625 42.65625 34.8125 
Q 38.578125 30.21875 29.109375 22.21875 
Q 21.1875 15.578125 18.9375 13.203125 
Q 16.703125 10.84375 15.234375 8.453125 
z
" id="ArialMT-50"/>
      </defs>
      <g style="fill:#262626;" transform="translate(140.418488 277.247187)scale(0.22 -0.22)">
       <use xlink:href="#ArialMT-8722"/>
       <use x="58.398438" xlink:href="#ArialMT-50"/>
      </g>
     </g>
    </g>
    <g id="xtick_2">
     <g id="line2d_2">
      <path clip-path="url(#p3fe98002c3)" d="M 256.032614 252 
L 256.032614 34.56 
" style="fill:none;stroke:#cccccc;stroke-linecap:round;"/>
     </g>
     <g id="text_2">
      <!-- 0 -->
      <defs>
       <path d="M 4.15625 35.296875 
Q 4.15625 48 6.765625 55.734375 
Q 9.375 63.484375 14.515625 67.671875 
Q 19.671875 71.875 27.484375 71.875 
Q 33.25 71.875 37.59375 69.546875 
Q 41.9375 67.234375 44.765625 62.859375 
Q 47.609375 58.5 49.21875 52.21875 
Q 50.828125 45.953125 50.828125 35.296875 
Q 50.828125 22.703125 48.234375 14.96875 
Q 45.65625 7.234375 40.5 3 
Q 35.359375 -1.21875 27.484375 -1.21875 
Q 17.140625 -1.21875 11.234375 6.203125 
Q 4.15625 15.140625 4.15625 35.296875 
z
M 13.1875 35.296875 
Q 13.1875 17.671875 17.3125 11.828125 
Q 21.4375 6 27.484375 6 
Q 33.546875 6 37.671875 11.859375 
Q 41.796875 17.71875 41.796875 35.296875 
Q 41.796875 52.984375 37.671875 58.78125 
Q 33.546875 64.59375 27.390625 64.59375 
Q 21.34375 64.59375 17.71875 59.46875 
Q 13.1875 52.9375 13.1875 35.296875 
z
" id="ArialMT-48"/>
      </defs>
      <g style="fill:#262626;" transform="translate(249.915583 277.247187)scale(0.22 -0.22)">
       <use xlink:href="#ArialMT-48"/>
      </g>
     </g>
    </g>
    <g id="xtick_3">
     <g id="line2d_3">
      <path clip-path="url(#p3fe98002c3)" d="M 359.105021 252 
L 359.105021 34.56 
" style="fill:none;stroke:#cccccc;stroke-linecap:round;"/>
     </g>
     <g id="text_3">
      <!-- 2 -->
      <g style="fill:#262626;" transform="translate(352.98799 277.247187)scale(0.22 -0.22)">
       <use xlink:href="#ArialMT-50"/>
      </g>
     </g>
    </g>
    <g id="text_4">
     <!-- Theoretical Quantiles -->
     <defs>
      <path d="M 25.921875 0 
L 25.921875 63.140625 
L 2.34375 63.140625 
L 2.34375 71.578125 
L 59.078125 71.578125 
L 59.078125 63.140625 
L 35.40625 63.140625 
L 35.40625 0 
z
" id="ArialMT-84"/>
      <path d="M 6.59375 0 
L 6.59375 71.578125 
L 15.375 71.578125 
L 15.375 45.90625 
Q 21.53125 53.03125 30.90625 53.03125 
Q 36.671875 53.03125 40.921875 50.75 
Q 45.171875 48.484375 47 44.484375 
Q 48.828125 40.484375 48.828125 32.859375 
L 48.828125 0 
L 40.046875 0 
L 40.046875 32.859375 
Q 40.046875 39.453125 37.1875 42.453125 
Q 34.328125 45.453125 29.109375 45.453125 
Q 25.203125 45.453125 21.75 43.421875 
Q 18.3125 41.40625 16.84375 37.9375 
Q 15.375 34.46875 15.375 28.375 
L 15.375 0 
z
" id="ArialMT-104"/>
      <path d="M 42.09375 16.703125 
L 51.171875 15.578125 
Q 49.03125 7.625 43.21875 3.21875 
Q 37.40625 -1.171875 28.375 -1.171875 
Q 17 -1.171875 10.328125 5.828125 
Q 3.65625 12.84375 3.65625 25.484375 
Q 3.65625 38.578125 10.390625 45.796875 
Q 17.140625 53.03125 27.875 53.03125 
Q 38.28125 53.03125 44.875 45.953125 
Q 51.46875 38.875 51.46875 26.03125 
Q 51.46875 25.25 51.421875 23.6875 
L 12.75 23.6875 
Q 13.234375 15.140625 17.578125 10.59375 
Q 21.921875 6.0625 28.421875 6.0625 
Q 33.25 6.0625 36.671875 8.59375 
Q 40.09375 11.140625 42.09375 16.703125 
z
M 13.234375 30.90625 
L 42.1875 30.90625 
Q 41.609375 37.453125 38.875 40.71875 
Q 34.671875 45.796875 27.984375 45.796875 
Q 21.921875 45.796875 17.796875 41.75 
Q 13.671875 37.703125 13.234375 30.90625 
z
" id="ArialMT-101"/>
      <path d="M 3.328125 25.921875 
Q 3.328125 40.328125 11.328125 47.265625 
Q 18.015625 53.03125 27.640625 53.03125 
Q 38.328125 53.03125 45.109375 46.015625 
Q 51.90625 39.015625 51.90625 26.65625 
Q 51.90625 16.65625 48.90625 10.90625 
Q 45.90625 5.171875 40.15625 2 
Q 34.421875 -1.171875 27.640625 -1.171875 
Q 16.75 -1.171875 10.03125 5.8125 
Q 3.328125 12.796875 3.328125 25.921875 
z
M 12.359375 25.921875 
Q 12.359375 15.96875 16.703125 11.015625 
Q 21.046875 6.0625 27.640625 6.0625 
Q 34.1875 6.0625 38.53125 11.03125 
Q 42.875 16.015625 42.875 26.21875 
Q 42.875 35.84375 38.5 40.796875 
Q 34.125 45.75 27.640625 45.75 
Q 21.046875 45.75 16.703125 40.8125 
Q 12.359375 35.890625 12.359375 25.921875 
z
" id="ArialMT-111"/>
      <path d="M 6.5 0 
L 6.5 51.859375 
L 14.40625 51.859375 
L 14.40625 44 
Q 17.4375 49.515625 20 51.265625 
Q 22.5625 53.03125 25.640625 53.03125 
Q 30.078125 53.03125 34.671875 50.203125 
L 31.640625 42.046875 
Q 28.421875 43.953125 25.203125 43.953125 
Q 22.3125 43.953125 20.015625 42.21875 
Q 17.71875 40.484375 16.75 37.40625 
Q 15.28125 32.71875 15.28125 27.15625 
L 15.28125 0 
z
" id="ArialMT-114"/>
      <path d="M 25.78125 7.859375 
L 27.046875 0.09375 
Q 23.34375 -0.6875 20.40625 -0.6875 
Q 15.625 -0.6875 12.984375 0.828125 
Q 10.359375 2.34375 9.28125 4.8125 
Q 8.203125 7.28125 8.203125 15.1875 
L 8.203125 45.015625 
L 1.765625 45.015625 
L 1.765625 51.859375 
L 8.203125 51.859375 
L 8.203125 64.703125 
L 16.9375 69.96875 
L 16.9375 51.859375 
L 25.78125 51.859375 
L 25.78125 45.015625 
L 16.9375 45.015625 
L 16.9375 14.703125 
Q 16.9375 10.9375 17.40625 9.859375 
Q 17.875 8.796875 18.921875 8.15625 
Q 19.96875 7.515625 21.921875 7.515625 
Q 23.390625 7.515625 25.78125 7.859375 
z
" id="ArialMT-116"/>
      <path d="M 6.640625 61.46875 
L 6.640625 71.578125 
L 15.4375 71.578125 
L 15.4375 61.46875 
z
M 6.640625 0 
L 6.640625 51.859375 
L 15.4375 51.859375 
L 15.4375 0 
z
" id="ArialMT-105"/>
      <path d="M 40.4375 19 
L 49.078125 17.875 
Q 47.65625 8.9375 41.8125 3.875 
Q 35.984375 -1.171875 27.484375 -1.171875 
Q 16.84375 -1.171875 10.375 5.78125 
Q 3.90625 12.75 3.90625 25.734375 
Q 3.90625 34.125 6.6875 40.421875 
Q 9.46875 46.734375 15.15625 49.875 
Q 20.84375 53.03125 27.546875 53.03125 
Q 35.984375 53.03125 41.359375 48.75 
Q 46.734375 44.484375 48.25 36.625 
L 39.703125 35.296875 
Q 38.484375 40.53125 35.375 43.15625 
Q 32.28125 45.796875 27.875 45.796875 
Q 21.234375 45.796875 17.078125 41.03125 
Q 12.9375 36.28125 12.9375 25.984375 
Q 12.9375 15.53125 16.9375 10.796875 
Q 20.953125 6.0625 27.390625 6.0625 
Q 32.5625 6.0625 36.03125 9.234375 
Q 39.5 12.40625 40.4375 19 
z
" id="ArialMT-99"/>
      <path d="M 40.4375 6.390625 
Q 35.546875 2.25 31.03125 0.53125 
Q 26.515625 -1.171875 21.34375 -1.171875 
Q 12.796875 -1.171875 8.203125 3 
Q 3.609375 7.171875 3.609375 13.671875 
Q 3.609375 17.484375 5.34375 20.625 
Q 7.078125 23.78125 9.890625 25.6875 
Q 12.703125 27.59375 16.21875 28.5625 
Q 18.796875 29.25 24.03125 29.890625 
Q 34.671875 31.15625 39.703125 32.90625 
Q 39.75 34.71875 39.75 35.203125 
Q 39.75 40.578125 37.25 42.78125 
Q 33.890625 45.75 27.25 45.75 
Q 21.046875 45.75 18.09375 43.578125 
Q 15.140625 41.40625 13.71875 35.890625 
L 5.125 37.0625 
Q 6.296875 42.578125 8.984375 45.96875 
Q 11.671875 49.359375 16.75 51.1875 
Q 21.828125 53.03125 28.515625 53.03125 
Q 35.15625 53.03125 39.296875 51.46875 
Q 43.453125 49.90625 45.40625 47.53125 
Q 47.359375 45.171875 48.140625 41.546875 
Q 48.578125 39.3125 48.578125 33.453125 
L 48.578125 21.734375 
Q 48.578125 9.46875 49.140625 6.21875 
Q 49.703125 2.984375 51.375 0 
L 42.1875 0 
Q 40.828125 2.734375 40.4375 6.390625 
z
M 39.703125 26.03125 
Q 34.90625 24.078125 25.34375 22.703125 
Q 19.921875 21.921875 17.671875 20.9375 
Q 15.4375 19.96875 14.203125 18.09375 
Q 12.984375 16.21875 12.984375 13.921875 
Q 12.984375 10.40625 15.640625 8.0625 
Q 18.3125 5.71875 23.4375 5.71875 
Q 28.515625 5.71875 32.46875 7.9375 
Q 36.421875 10.15625 38.28125 14.015625 
Q 39.703125 17 39.703125 22.796875 
z
" id="ArialMT-97"/>
      <path d="M 6.390625 0 
L 6.390625 71.578125 
L 15.1875 71.578125 
L 15.1875 0 
z
" id="ArialMT-108"/>
      <path id="ArialMT-32"/>
      <path d="M 61.96875 7.671875 
Q 68.5625 3.125 74.125 1.03125 
L 71.34375 -5.5625 
Q 63.625 -2.78125 55.953125 3.21875 
Q 48 -1.21875 38.375 -1.21875 
Q 28.65625 -1.21875 20.75 3.46875 
Q 12.84375 8.15625 8.5625 16.640625 
Q 4.296875 25.140625 4.296875 35.796875 
Q 4.296875 46.390625 8.59375 55.078125 
Q 12.890625 63.765625 20.828125 68.3125 
Q 28.765625 72.859375 38.578125 72.859375 
Q 48.484375 72.859375 56.4375 68.140625 
Q 64.40625 63.421875 68.578125 54.953125 
Q 72.75 46.484375 72.75 35.84375 
Q 72.75 27 70.0625 19.9375 
Q 67.390625 12.890625 61.96875 7.671875 
z
M 41.109375 19.78125 
Q 49.3125 17.484375 54.640625 12.9375 
Q 62.984375 20.5625 62.984375 35.84375 
Q 62.984375 44.53125 60.03125 51.015625 
Q 57.078125 57.515625 51.390625 61.109375 
Q 45.703125 64.703125 38.625 64.703125 
Q 28.03125 64.703125 21.046875 57.453125 
Q 14.0625 50.203125 14.0625 35.796875 
Q 14.0625 21.828125 20.96875 14.359375 
Q 27.875 6.890625 38.625 6.890625 
Q 43.703125 6.890625 48.1875 8.796875 
Q 43.75 11.671875 38.8125 12.890625 
z
" id="ArialMT-81"/>
      <path d="M 40.578125 0 
L 40.578125 7.625 
Q 34.515625 -1.171875 24.125 -1.171875 
Q 19.53125 -1.171875 15.546875 0.578125 
Q 11.578125 2.34375 9.640625 5 
Q 7.71875 7.671875 6.9375 11.53125 
Q 6.390625 14.109375 6.390625 19.734375 
L 6.390625 51.859375 
L 15.1875 51.859375 
L 15.1875 23.09375 
Q 15.1875 16.21875 15.71875 13.8125 
Q 16.546875 10.359375 19.234375 8.375 
Q 21.921875 6.390625 25.875 6.390625 
Q 29.828125 6.390625 33.296875 8.421875 
Q 36.765625 10.453125 38.203125 13.9375 
Q 39.65625 17.4375 39.65625 24.078125 
L 39.65625 51.859375 
L 48.4375 51.859375 
L 48.4375 0 
z
" id="ArialMT-117"/>
      <path d="M 6.59375 0 
L 6.59375 51.859375 
L 14.5 51.859375 
L 14.5 44.484375 
Q 20.21875 53.03125 31 53.03125 
Q 35.6875 53.03125 39.625 51.34375 
Q 43.5625 49.65625 45.515625 46.921875 
Q 47.46875 44.1875 48.25 40.4375 
Q 48.734375 37.984375 48.734375 31.890625 
L 48.734375 0 
L 39.9375 0 
L 39.9375 31.546875 
Q 39.9375 36.921875 38.90625 39.578125 
Q 37.890625 42.234375 35.28125 43.8125 
Q 32.671875 45.40625 29.15625 45.40625 
Q 23.53125 45.40625 19.453125 41.84375 
Q 15.375 38.28125 15.375 28.328125 
L 15.375 0 
z
" id="ArialMT-110"/>
      <path d="M 3.078125 15.484375 
L 11.765625 16.84375 
Q 12.5 11.625 15.84375 8.84375 
Q 19.1875 6.0625 25.203125 6.0625 
Q 31.25 6.0625 34.171875 8.515625 
Q 37.109375 10.984375 37.109375 14.3125 
Q 37.109375 17.28125 34.515625 19 
Q 32.71875 20.171875 25.53125 21.96875 
Q 15.875 24.421875 12.140625 26.203125 
Q 8.40625 27.984375 6.46875 31.125 
Q 4.546875 34.28125 4.546875 38.09375 
Q 4.546875 41.546875 6.125 44.5 
Q 7.71875 47.46875 10.453125 49.421875 
Q 12.5 50.921875 16.03125 51.96875 
Q 19.578125 53.03125 23.640625 53.03125 
Q 29.734375 53.03125 34.34375 51.265625 
Q 38.96875 49.515625 41.15625 46.5 
Q 43.359375 43.5 44.1875 38.484375 
L 35.59375 37.3125 
Q 35.015625 41.3125 32.203125 43.546875 
Q 29.390625 45.796875 24.265625 45.796875 
Q 18.21875 45.796875 15.625 43.796875 
Q 13.03125 41.796875 13.03125 39.109375 
Q 13.03125 37.40625 14.109375 36.03125 
Q 15.1875 34.625 17.484375 33.6875 
Q 18.796875 33.203125 25.25 31.453125 
Q 34.578125 28.953125 38.25 27.359375 
Q 41.9375 25.78125 44.03125 22.75 
Q 46.140625 19.734375 46.140625 15.234375 
Q 46.140625 10.84375 43.578125 6.953125 
Q 41.015625 3.078125 36.171875 0.953125 
Q 31.34375 -1.171875 25.25 -1.171875 
Q 15.140625 -1.171875 9.84375 3.03125 
Q 4.546875 7.234375 3.078125 15.484375 
z
" id="ArialMT-115"/>
     </defs>
     <g style="fill:#262626;" transform="translate(108.016875 302.798437)scale(0.24 -0.24)">
      <use xlink:href="#ArialMT-84"/>
      <use x="61.083984" xlink:href="#ArialMT-104"/>
      <use x="116.699219" xlink:href="#ArialMT-101"/>
      <use x="172.314453" xlink:href="#ArialMT-111"/>
      <use x="227.929688" xlink:href="#ArialMT-114"/>
      <use x="261.230469" xlink:href="#ArialMT-101"/>
      <use x="316.845703" xlink:href="#ArialMT-116"/>
      <use x="344.628906" xlink:href="#ArialMT-105"/>
      <use x="366.845703" xlink:href="#ArialMT-99"/>
      <use x="416.845703" xlink:href="#ArialMT-97"/>
      <use x="472.460938" xlink:href="#ArialMT-108"/>
      <use x="494.677734" xlink:href="#ArialMT-32"/>
      <use x="522.460938" xlink:href="#ArialMT-81"/>
      <use x="600.244141" xlink:href="#ArialMT-117"/>
      <use x="655.859375" xlink:href="#ArialMT-97"/>
      <use x="711.474609" xlink:href="#ArialMT-110"/>
      <use x="767.089844" xlink:href="#ArialMT-116"/>
      <use x="794.873047" xlink:href="#ArialMT-105"/>
      <use x="817.089844" xlink:href="#ArialMT-108"/>
      <use x="839.306641" xlink:href="#ArialMT-101"/>
      <use x="894.921875" xlink:href="#ArialMT-115"/>
     </g>
    </g>
   </g>
   <g id="matplotlib.axis_2">
    <g id="ytick_1">
     <g id="line2d_4">
      <path clip-path="url(#p3fe98002c3)" d="M 54 187.72907 
L 388.8 187.72907 
" style="fill:none;stroke:#cccccc;stroke-linecap:round;"/>
     </g>
     <g id="text_5">
      <!-- −2 -->
      <g style="fill:#262626;" transform="translate(19.416563 195.602664)scale(0.22 -0.22)">
       <use xlink:href="#ArialMT-8722"/>
       <use x="58.398438" xlink:href="#ArialMT-50"/>
      </g>
     </g>
    </g>
    <g id="ytick_2">
     <g id="line2d_5">
      <path clip-path="url(#p3fe98002c3)" d="M 54 120.787421 
L 388.8 120.787421 
" style="fill:none;stroke:#cccccc;stroke-linecap:round;"/>
     </g>
     <g id="text_6">
      <!-- 0 -->
      <g style="fill:#262626;" transform="translate(32.265937 128.661014)scale(0.22 -0.22)">
       <use xlink:href="#ArialMT-48"/>
      </g>
     </g>
    </g>
    <g id="ytick_3">
     <g id="line2d_6">
      <path clip-path="url(#p3fe98002c3)" d="M 54 53.845771 
L 388.8 53.845771 
" style="fill:none;stroke:#cccccc;stroke-linecap:round;"/>
     </g>
     <g id="text_7">
      <!-- 2 -->
      <g style="fill:#262626;" transform="translate(32.265937 61.719365)scale(0.22 -0.22)">
       <use xlink:href="#ArialMT-50"/>
      </g>
     </g>
    </g>
    <g id="text_8">
     <!-- Sample Quantiles -->
     <defs>
      <path d="M 4.5 23 
L 13.421875 23.78125 
Q 14.0625 18.40625 16.375 14.96875 
Q 18.703125 11.53125 23.578125 9.40625 
Q 28.46875 7.28125 34.578125 7.28125 
Q 39.984375 7.28125 44.140625 8.890625 
Q 48.296875 10.5 50.3125 13.296875 
Q 52.34375 16.109375 52.34375 19.4375 
Q 52.34375 22.796875 50.390625 25.3125 
Q 48.4375 27.828125 43.953125 29.546875 
Q 41.0625 30.671875 31.203125 33.03125 
Q 21.34375 35.40625 17.390625 37.5 
Q 12.25 40.1875 9.734375 44.15625 
Q 7.234375 48.140625 7.234375 53.078125 
Q 7.234375 58.5 10.296875 63.203125 
Q 13.375 67.921875 19.28125 70.359375 
Q 25.203125 72.796875 32.421875 72.796875 
Q 40.375 72.796875 46.453125 70.234375 
Q 52.546875 67.671875 55.8125 62.6875 
Q 59.078125 57.71875 59.328125 51.421875 
L 50.25 50.734375 
Q 49.515625 57.515625 45.28125 60.984375 
Q 41.0625 64.453125 32.8125 64.453125 
Q 24.21875 64.453125 20.28125 61.296875 
Q 16.359375 58.15625 16.359375 53.71875 
Q 16.359375 49.859375 19.140625 47.359375 
Q 21.875 44.875 33.421875 42.265625 
Q 44.96875 39.65625 49.265625 37.703125 
Q 55.515625 34.8125 58.484375 30.390625 
Q 61.46875 25.984375 61.46875 20.21875 
Q 61.46875 14.5 58.203125 9.4375 
Q 54.9375 4.390625 48.796875 1.578125 
Q 42.671875 -1.21875 35.015625 -1.21875 
Q 25.296875 -1.21875 18.71875 1.609375 
Q 12.15625 4.4375 8.421875 10.125 
Q 4.6875 15.828125 4.5 23 
z
" id="ArialMT-83"/>
      <path d="M 6.59375 0 
L 6.59375 51.859375 
L 14.453125 51.859375 
L 14.453125 44.578125 
Q 16.890625 48.390625 20.9375 50.703125 
Q 25 53.03125 30.171875 53.03125 
Q 35.9375 53.03125 39.625 50.640625 
Q 43.3125 48.25 44.828125 43.953125 
Q 50.984375 53.03125 60.84375 53.03125 
Q 68.5625 53.03125 72.703125 48.75 
Q 76.859375 44.484375 76.859375 35.59375 
L 76.859375 0 
L 68.109375 0 
L 68.109375 32.671875 
Q 68.109375 37.9375 67.25 40.25 
Q 66.40625 42.578125 64.15625 43.984375 
Q 61.921875 45.40625 58.890625 45.40625 
Q 53.421875 45.40625 49.796875 41.765625 
Q 46.1875 38.140625 46.1875 30.125 
L 46.1875 0 
L 37.40625 0 
L 37.40625 33.6875 
Q 37.40625 39.546875 35.25 42.46875 
Q 33.109375 45.40625 28.21875 45.40625 
Q 24.515625 45.40625 21.359375 43.453125 
Q 18.21875 41.5 16.796875 37.734375 
Q 15.375 33.984375 15.375 26.90625 
L 15.375 0 
z
" id="ArialMT-109"/>
      <path d="M 6.59375 -19.875 
L 6.59375 51.859375 
L 14.59375 51.859375 
L 14.59375 45.125 
Q 17.4375 49.078125 21 51.046875 
Q 24.5625 53.03125 29.640625 53.03125 
Q 36.28125 53.03125 41.359375 49.609375 
Q 46.4375 46.1875 49.015625 39.953125 
Q 51.609375 33.734375 51.609375 26.3125 
Q 51.609375 18.359375 48.75 11.984375 
Q 45.90625 5.609375 40.453125 2.21875 
Q 35.015625 -1.171875 29 -1.171875 
Q 24.609375 -1.171875 21.109375 0.6875 
Q 17.625 2.546875 15.375 5.375 
L 15.375 -19.875 
z
M 14.546875 25.640625 
Q 14.546875 15.625 18.59375 10.84375 
Q 22.65625 6.0625 28.421875 6.0625 
Q 34.28125 6.0625 38.453125 11.015625 
Q 42.625 15.96875 42.625 26.375 
Q 42.625 36.28125 38.546875 41.203125 
Q 34.46875 46.140625 28.8125 46.140625 
Q 23.1875 46.140625 18.859375 40.890625 
Q 14.546875 35.640625 14.546875 25.640625 
z
" id="ArialMT-112"/>
     </defs>
     <g style="fill:#262626;" transform="translate(10.646562 237.991875)rotate(-90)scale(0.24 -0.24)">
      <use xlink:href="#ArialMT-83"/>
      <use x="66.699219" xlink:href="#ArialMT-97"/>
      <use x="122.314453" xlink:href="#ArialMT-109"/>
      <use x="205.615234" xlink:href="#ArialMT-112"/>
      <use x="261.230469" xlink:href="#ArialMT-108"/>
      <use x="283.447266" xlink:href="#ArialMT-101"/>
      <use x="339.0625" xlink:href="#ArialMT-32"/>
      <use x="366.845703" xlink:href="#ArialMT-81"/>
      <use x="444.628906" xlink:href="#ArialMT-117"/>
      <use x="500.244141" xlink:href="#ArialMT-97"/>
      <use x="555.859375" xlink:href="#ArialMT-110"/>
      <use x="611.474609" xlink:href="#ArialMT-116"/>
      <use x="639.257812" xlink:href="#ArialMT-105"/>
      <use x="661.474609" xlink:href="#ArialMT-108"/>
      <use x="683.691406" xlink:href="#ArialMT-101"/>
      <use x="739.306641" xlink:href="#ArialMT-115"/>
     </g>
    </g>
   </g>
   <g id="line2d_7">
    <defs>
     <path d="M 0 3 
C 0.795609 3 1.55874 2.683901 2.12132 2.12132 
C 2.683901 1.55874 3 0.795609 3 0 
C 3 -0.795609 2.683901 -1.55874 2.12132 -2.12132 
C 1.55874 -2.683901 0.795609 -3 0 -3 
C -0.795609 -3 -1.55874 -2.683901 -2.12132 -2.12132 
C -2.683901 -1.55874 -3 -0.795609 -3 0 
C -3 0.795609 -2.683901 1.55874 -2.12132 2.12132 
C -1.55874 2.683901 -0.795609 3 0 3 
z
" id="m52da8da66d" style="stroke:#4c72b0;"/>
    </defs>
    <g clip-path="url(#p3fe98002c3)">
     <use style="fill:#4c72b0;stroke:#4c72b0;" x="128.371666" xlink:href="#m52da8da66d" y="242.726789"/>
     <use style="fill:#4c72b0;stroke:#4c72b0;" x="141.676309" xlink:href="#m52da8da66d" y="231.603359"/>
     <use style="fill:#4c72b0;stroke:#4c72b0;" x="150.048814" xlink:href="#m52da8da66d" y="224.114361"/>
     <use style="fill:#4c72b0;stroke:#4c72b0;" x="156.305791" xlink:href="#m52da8da66d" y="222.638755"/>
     <use style="fill:#4c72b0;stroke:#4c72b0;" x="161.365938" xlink:href="#m52da8da66d" y="217.28797"/>
     <use style="fill:#4c72b0;stroke:#4c72b0;" x="165.650048" xlink:href="#m52da8da66d" y="216.240878"/>
     <use style="fill:#4c72b0;stroke:#4c72b0;" x="169.387602" xlink:href="#m52da8da66d" y="198.880992"/>
     <use style="fill:#4c72b0;stroke:#4c72b0;" x="172.71814" xlink:href="#m52da8da66d" y="197.707415"/>
     <use style="fill:#4c72b0;stroke:#4c72b0;" x="175.733132" xlink:href="#m52da8da66d" y="180.714885"/>
     <use style="fill:#4c72b0;stroke:#4c72b0;" x="178.495926" xlink:href="#m52da8da66d" y="180.604595"/>
     <use style="fill:#4c72b0;stroke:#4c72b0;" x="181.052297" xlink:href="#m52da8da66d" y="178.452295"/>
     <use style="fill:#4c72b0;stroke:#4c72b0;" x="183.436439" xlink:href="#m52da8da66d" y="175.060737"/>
     <use style="fill:#4c72b0;stroke:#4c72b0;" x="185.674607" xlink:href="#m52da8da66d" y="171.071238"/>
     <use style="fill:#4c72b0;stroke:#4c72b0;" x="187.787416" xlink:href="#m52da8da66d" y="164.195576"/>
     <use style="fill:#4c72b0;stroke:#4c72b0;" x="189.791365" xlink:href="#m52da8da66d" y="156.763843"/>
     <use style="fill:#4c72b0;stroke:#4c72b0;" x="191.699875" xlink:href="#m52da8da66d" y="154.264503"/>
     <use style="fill:#4c72b0;stroke:#4c72b0;" x="193.524017" xlink:href="#m52da8da66d" y="153.316281"/>
     <use style="fill:#4c72b0;stroke:#4c72b0;" x="195.273037" xlink:href="#m52da8da66d" y="150.999395"/>
     <use style="fill:#4c72b0;stroke:#4c72b0;" x="196.954743" xlink:href="#m52da8da66d" y="150.794535"/>
     <use style="fill:#4c72b0;stroke:#4c72b0;" x="198.575789" xlink:href="#m52da8da66d" y="150.59911"/>
     <use style="fill:#4c72b0;stroke:#4c72b0;" x="200.141895" xlink:href="#m52da8da66d" y="147.870535"/>
     <use style="fill:#4c72b0;stroke:#4c72b0;" x="201.65802" xlink:href="#m52da8da66d" y="146.201948"/>
     <use style="fill:#4c72b0;stroke:#4c72b0;" x="203.128491" xlink:href="#m52da8da66d" y="142.447746"/>
     <use style="fill:#4c72b0;stroke:#4c72b0;" x="204.557106" xlink:href="#m52da8da66d" y="140.466474"/>
     <use style="fill:#4c72b0;stroke:#4c72b0;" x="205.947222" xlink:href="#m52da8da66d" y="140.366681"/>
     <use style="fill:#4c72b0;stroke:#4c72b0;" x="207.30182" xlink:href="#m52da8da66d" y="138.95314"/>
     <use style="fill:#4c72b0;stroke:#4c72b0;" x="208.62356" xlink:href="#m52da8da66d" y="138.189339"/>
     <use style="fill:#4c72b0;stroke:#4c72b0;" x="209.91483" xlink:href="#m52da8da66d" y="137.416808"/>
     <use style="fill:#4c72b0;stroke:#4c72b0;" x="211.177777" xlink:href="#m52da8da66d" y="136.7284"/>
     <use style="fill:#4c72b0;stroke:#4c72b0;" x="212.414345" xlink:href="#m52da8da66d" y="136.587291"/>
     <use style="fill:#4c72b0;stroke:#4c72b0;" x="213.626296" xlink:href="#m52da8da66d" y="136.433421"/>
     <use style="fill:#4c72b0;stroke:#4c72b0;" x="214.815237" xlink:href="#m52da8da66d" y="135.795042"/>
     <use style="fill:#4c72b0;stroke:#4c72b0;" x="215.982635" xlink:href="#m52da8da66d" y="135.226589"/>
     <use style="fill:#4c72b0;stroke:#4c72b0;" x="217.129835" xlink:href="#m52da8da66d" y="135.082826"/>
     <use style="fill:#4c72b0;stroke:#4c72b0;" x="218.258075" xlink:href="#m52da8da66d" y="134.423219"/>
     <use style="fill:#4c72b0;stroke:#4c72b0;" x="219.368494" xlink:href="#m52da8da66d" y="134.063083"/>
     <use style="fill:#4c72b0;stroke:#4c72b0;" x="220.462146" xlink:href="#m52da8da66d" y="133.97094"/>
     <use style="fill:#4c72b0;stroke:#4c72b0;" x="221.540009" xlink:href="#m52da8da66d" y="133.943473"/>
     <use style="fill:#4c72b0;stroke:#4c72b0;" x="222.602991" xlink:href="#m52da8da66d" y="133.006229"/>
     <use style="fill:#4c72b0;stroke:#4c72b0;" x="223.651937" xlink:href="#m52da8da66d" y="132.840525"/>
     <use style="fill:#4c72b0;stroke:#4c72b0;" x="224.687636" xlink:href="#m52da8da66d" y="131.809689"/>
     <use style="fill:#4c72b0;stroke:#4c72b0;" x="225.710828" xlink:href="#m52da8da66d" y="131.588222"/>
     <use style="fill:#4c72b0;stroke:#4c72b0;" x="226.722204" xlink:href="#m52da8da66d" y="131.571693"/>
     <use style="fill:#4c72b0;stroke:#4c72b0;" x="227.722415" xlink:href="#m52da8da66d" y="131.562586"/>
     <use style="fill:#4c72b0;stroke:#4c72b0;" x="228.712075" xlink:href="#m52da8da66d" y="131.459844"/>
     <use style="fill:#4c72b0;stroke:#4c72b0;" x="229.69176" xlink:href="#m52da8da66d" y="131.432716"/>
     <use style="fill:#4c72b0;stroke:#4c72b0;" x="230.662017" xlink:href="#m52da8da66d" y="130.128625"/>
     <use style="fill:#4c72b0;stroke:#4c72b0;" x="231.623364" xlink:href="#m52da8da66d" y="129.883476"/>
     <use style="fill:#4c72b0;stroke:#4c72b0;" x="232.57629" xlink:href="#m52da8da66d" y="128.827826"/>
     <use style="fill:#4c72b0;stroke:#4c72b0;" x="233.521263" xlink:href="#m52da8da66d" y="128.402142"/>
     <use style="fill:#4c72b0;stroke:#4c72b0;" x="234.458727" xlink:href="#m52da8da66d" y="128.104818"/>
     <use style="fill:#4c72b0;stroke:#4c72b0;" x="235.389106" xlink:href="#m52da8da66d" y="127.820057"/>
     <use style="fill:#4c72b0;stroke:#4c72b0;" x="236.312804" xlink:href="#m52da8da66d" y="127.567831"/>
     <use style="fill:#4c72b0;stroke:#4c72b0;" x="237.23021" xlink:href="#m52da8da66d" y="127.444023"/>
     <use style="fill:#4c72b0;stroke:#4c72b0;" x="238.141697" xlink:href="#m52da8da66d" y="127.252922"/>
     <use style="fill:#4c72b0;stroke:#4c72b0;" x="239.04762" xlink:href="#m52da8da66d" y="125.789716"/>
     <use style="fill:#4c72b0;stroke:#4c72b0;" x="239.948325" xlink:href="#m52da8da66d" y="125.779625"/>
     <use style="fill:#4c72b0;stroke:#4c72b0;" x="240.844143" xlink:href="#m52da8da66d" y="125.501126"/>
     <use style="fill:#4c72b0;stroke:#4c72b0;" x="241.735395" xlink:href="#m52da8da66d" y="124.892769"/>
     <use style="fill:#4c72b0;stroke:#4c72b0;" x="242.622391" xlink:href="#m52da8da66d" y="124.780249"/>
     <use style="fill:#4c72b0;stroke:#4c72b0;" x="243.505433" xlink:href="#m52da8da66d" y="124.375651"/>
     <use style="fill:#4c72b0;stroke:#4c72b0;" x="244.384811" xlink:href="#m52da8da66d" y="123.778156"/>
     <use style="fill:#4c72b0;stroke:#4c72b0;" x="245.260811" xlink:href="#m52da8da66d" y="123.538638"/>
     <use style="fill:#4c72b0;stroke:#4c72b0;" x="246.133709" xlink:href="#m52da8da66d" y="122.93033"/>
     <use style="fill:#4c72b0;stroke:#4c72b0;" x="247.003777" xlink:href="#m52da8da66d" y="122.615001"/>
     <use style="fill:#4c72b0;stroke:#4c72b0;" x="247.871279" xlink:href="#m52da8da66d" y="121.866994"/>
     <use style="fill:#4c72b0;stroke:#4c72b0;" x="248.736474" xlink:href="#m52da8da66d" y="121.714796"/>
     <use style="fill:#4c72b0;stroke:#4c72b0;" x="249.599617" xlink:href="#m52da8da66d" y="120.999439"/>
     <use style="fill:#4c72b0;stroke:#4c72b0;" x="250.46096" xlink:href="#m52da8da66d" y="120.689133"/>
     <use style="fill:#4c72b0;stroke:#4c72b0;" x="251.320749" xlink:href="#m52da8da66d" y="119.895641"/>
     <use style="fill:#4c72b0;stroke:#4c72b0;" x="252.179229" xlink:href="#m52da8da66d" y="119.516387"/>
     <use style="fill:#4c72b0;stroke:#4c72b0;" x="253.03664" xlink:href="#m52da8da66d" y="118.928875"/>
     <use style="fill:#4c72b0;stroke:#4c72b0;" x="253.893223" xlink:href="#m52da8da66d" y="118.520014"/>
     <use style="fill:#4c72b0;stroke:#4c72b0;" x="254.749215" xlink:href="#m52da8da66d" y="116.545842"/>
     <use style="fill:#4c72b0;stroke:#4c72b0;" x="255.604854" xlink:href="#m52da8da66d" y="116.321559"/>
     <use style="fill:#4c72b0;stroke:#4c72b0;" x="256.460374" xlink:href="#m52da8da66d" y="115.770037"/>
     <use style="fill:#4c72b0;stroke:#4c72b0;" x="257.316012" xlink:href="#m52da8da66d" y="115.6085"/>
     <use style="fill:#4c72b0;stroke:#4c72b0;" x="258.172005" xlink:href="#m52da8da66d" y="115.043314"/>
     <use style="fill:#4c72b0;stroke:#4c72b0;" x="259.028588" xlink:href="#m52da8da66d" y="114.953216"/>
     <use style="fill:#4c72b0;stroke:#4c72b0;" x="259.885999" xlink:href="#m52da8da66d" y="114.86258"/>
     <use style="fill:#4c72b0;stroke:#4c72b0;" x="260.744479" xlink:href="#m52da8da66d" y="114.834194"/>
     <use style="fill:#4c72b0;stroke:#4c72b0;" x="261.604268" xlink:href="#m52da8da66d" y="114.727486"/>
     <use style="fill:#4c72b0;stroke:#4c72b0;" x="262.46561" xlink:href="#m52da8da66d" y="114.553774"/>
     <use style="fill:#4c72b0;stroke:#4c72b0;" x="263.328754" xlink:href="#m52da8da66d" y="113.899324"/>
     <use style="fill:#4c72b0;stroke:#4c72b0;" x="264.193949" xlink:href="#m52da8da66d" y="113.494522"/>
     <use style="fill:#4c72b0;stroke:#4c72b0;" x="265.061451" xlink:href="#m52da8da66d" y="113.308484"/>
     <use style="fill:#4c72b0;stroke:#4c72b0;" x="265.931518" xlink:href="#m52da8da66d" y="112.122759"/>
     <use style="fill:#4c72b0;stroke:#4c72b0;" x="266.804417" xlink:href="#m52da8da66d" y="111.780346"/>
     <use style="fill:#4c72b0;stroke:#4c72b0;" x="267.680417" xlink:href="#m52da8da66d" y="111.555065"/>
     <use style="fill:#4c72b0;stroke:#4c72b0;" x="268.559795" xlink:href="#m52da8da66d" y="111.095056"/>
     <use style="fill:#4c72b0;stroke:#4c72b0;" x="269.442836" xlink:href="#m52da8da66d" y="110.943531"/>
     <use style="fill:#4c72b0;stroke:#4c72b0;" x="270.329833" xlink:href="#m52da8da66d" y="110.73325"/>
     <use style="fill:#4c72b0;stroke:#4c72b0;" x="271.221085" xlink:href="#m52da8da66d" y="110.643327"/>
     <use style="fill:#4c72b0;stroke:#4c72b0;" x="272.116903" xlink:href="#m52da8da66d" y="109.651835"/>
     <use style="fill:#4c72b0;stroke:#4c72b0;" x="273.017608" xlink:href="#m52da8da66d" y="108.54623"/>
     <use style="fill:#4c72b0;stroke:#4c72b0;" x="273.923531" xlink:href="#m52da8da66d" y="108.463894"/>
     <use style="fill:#4c72b0;stroke:#4c72b0;" x="274.835017" xlink:href="#m52da8da66d" y="107.363341"/>
     <use style="fill:#4c72b0;stroke:#4c72b0;" x="275.752423" xlink:href="#m52da8da66d" y="106.72559"/>
     <use style="fill:#4c72b0;stroke:#4c72b0;" x="276.676122" xlink:href="#m52da8da66d" y="106.517075"/>
     <use style="fill:#4c72b0;stroke:#4c72b0;" x="277.606501" xlink:href="#m52da8da66d" y="106.259967"/>
     <use style="fill:#4c72b0;stroke:#4c72b0;" x="278.543965" xlink:href="#m52da8da66d" y="105.608128"/>
     <use style="fill:#4c72b0;stroke:#4c72b0;" x="279.488938" xlink:href="#m52da8da66d" y="105.162429"/>
     <use style="fill:#4c72b0;stroke:#4c72b0;" x="280.441864" xlink:href="#m52da8da66d" y="104.802883"/>
     <use style="fill:#4c72b0;stroke:#4c72b0;" x="281.40321" xlink:href="#m52da8da66d" y="103.605707"/>
     <use style="fill:#4c72b0;stroke:#4c72b0;" x="282.373468" xlink:href="#m52da8da66d" y="103.042604"/>
     <use style="fill:#4c72b0;stroke:#4c72b0;" x="283.353153" xlink:href="#m52da8da66d" y="102.911541"/>
     <use style="fill:#4c72b0;stroke:#4c72b0;" x="284.342812" xlink:href="#m52da8da66d" y="102.714237"/>
     <use style="fill:#4c72b0;stroke:#4c72b0;" x="285.343024" xlink:href="#m52da8da66d" y="101.067917"/>
     <use style="fill:#4c72b0;stroke:#4c72b0;" x="286.3544" xlink:href="#m52da8da66d" y="100.671943"/>
     <use style="fill:#4c72b0;stroke:#4c72b0;" x="287.377592" xlink:href="#m52da8da66d" y="100.514204"/>
     <use style="fill:#4c72b0;stroke:#4c72b0;" x="288.413291" xlink:href="#m52da8da66d" y="99.122373"/>
     <use style="fill:#4c72b0;stroke:#4c72b0;" x="289.462237" xlink:href="#m52da8da66d" y="98.583819"/>
     <use style="fill:#4c72b0;stroke:#4c72b0;" x="290.525219" xlink:href="#m52da8da66d" y="98.008084"/>
     <use style="fill:#4c72b0;stroke:#4c72b0;" x="291.603082" xlink:href="#m52da8da66d" y="97.006407"/>
     <use style="fill:#4c72b0;stroke:#4c72b0;" x="292.696734" xlink:href="#m52da8da66d" y="96.51726"/>
     <use style="fill:#4c72b0;stroke:#4c72b0;" x="293.807153" xlink:href="#m52da8da66d" y="96.422601"/>
     <use style="fill:#4c72b0;stroke:#4c72b0;" x="294.935392" xlink:href="#m52da8da66d" y="95.768704"/>
     <use style="fill:#4c72b0;stroke:#4c72b0;" x="296.082593" xlink:href="#m52da8da66d" y="95.720819"/>
     <use style="fill:#4c72b0;stroke:#4c72b0;" x="297.249991" xlink:href="#m52da8da66d" y="95.715595"/>
     <use style="fill:#4c72b0;stroke:#4c72b0;" x="298.438932" xlink:href="#m52da8da66d" y="94.8036"/>
     <use style="fill:#4c72b0;stroke:#4c72b0;" x="299.650883" xlink:href="#m52da8da66d" y="94.797692"/>
     <use style="fill:#4c72b0;stroke:#4c72b0;" x="300.887451" xlink:href="#m52da8da66d" y="94.455041"/>
     <use style="fill:#4c72b0;stroke:#4c72b0;" x="302.150398" xlink:href="#m52da8da66d" y="93.995081"/>
     <use style="fill:#4c72b0;stroke:#4c72b0;" x="303.441667" xlink:href="#m52da8da66d" y="92.903219"/>
     <use style="fill:#4c72b0;stroke:#4c72b0;" x="304.763408" xlink:href="#m52da8da66d" y="89.707426"/>
     <use style="fill:#4c72b0;stroke:#4c72b0;" x="306.118006" xlink:href="#m52da8da66d" y="88.790323"/>
     <use style="fill:#4c72b0;stroke:#4c72b0;" x="307.508122" xlink:href="#m52da8da66d" y="88.676914"/>
     <use style="fill:#4c72b0;stroke:#4c72b0;" x="308.936737" xlink:href="#m52da8da66d" y="88.390298"/>
     <use style="fill:#4c72b0;stroke:#4c72b0;" x="310.407207" xlink:href="#m52da8da66d" y="87.937221"/>
     <use style="fill:#4c72b0;stroke:#4c72b0;" x="311.923333" xlink:href="#m52da8da66d" y="87.542955"/>
     <use style="fill:#4c72b0;stroke:#4c72b0;" x="313.489439" xlink:href="#m52da8da66d" y="87.514513"/>
     <use style="fill:#4c72b0;stroke:#4c72b0;" x="315.110484" xlink:href="#m52da8da66d" y="87.267245"/>
     <use style="fill:#4c72b0;stroke:#4c72b0;" x="316.79219" xlink:href="#m52da8da66d" y="86.985234"/>
     <use style="fill:#4c72b0;stroke:#4c72b0;" x="318.541211" xlink:href="#m52da8da66d" y="86.313872"/>
     <use style="fill:#4c72b0;stroke:#4c72b0;" x="320.365353" xlink:href="#m52da8da66d" y="85.647328"/>
     <use style="fill:#4c72b0;stroke:#4c72b0;" x="322.273863" xlink:href="#m52da8da66d" y="85.22282"/>
     <use style="fill:#4c72b0;stroke:#4c72b0;" x="324.277812" xlink:href="#m52da8da66d" y="84.876109"/>
     <use style="fill:#4c72b0;stroke:#4c72b0;" x="326.390621" xlink:href="#m52da8da66d" y="83.094524"/>
     <use style="fill:#4c72b0;stroke:#4c72b0;" x="328.628789" xlink:href="#m52da8da66d" y="82.859672"/>
     <use style="fill:#4c72b0;stroke:#4c72b0;" x="331.012931" xlink:href="#m52da8da66d" y="82.833786"/>
     <use style="fill:#4c72b0;stroke:#4c72b0;" x="333.569301" xlink:href="#m52da8da66d" y="80.615609"/>
     <use style="fill:#4c72b0;stroke:#4c72b0;" x="336.332096" xlink:href="#m52da8da66d" y="79.458718"/>
     <use style="fill:#4c72b0;stroke:#4c72b0;" x="339.347087" xlink:href="#m52da8da66d" y="79.360197"/>
     <use style="fill:#4c72b0;stroke:#4c72b0;" x="342.677626" xlink:href="#m52da8da66d" y="78.969102"/>
     <use style="fill:#4c72b0;stroke:#4c72b0;" x="346.415179" xlink:href="#m52da8da66d" y="78.51596"/>
     <use style="fill:#4c72b0;stroke:#4c72b0;" x="350.699289" xlink:href="#m52da8da66d" y="72.399813"/>
     <use style="fill:#4c72b0;stroke:#4c72b0;" x="355.759436" xlink:href="#m52da8da66d" y="63.642668"/>
     <use style="fill:#4c72b0;stroke:#4c72b0;" x="362.016413" xlink:href="#m52da8da66d" y="63.014522"/>
     <use style="fill:#4c72b0;stroke:#4c72b0;" x="370.388918" xlink:href="#m52da8da66d" y="61.947491"/>
     <use style="fill:#4c72b0;stroke:#4c72b0;" x="383.693562" xlink:href="#m52da8da66d" y="57.262567"/>
    </g>
   </g>
   <g id="line2d_8">
    <path clip-path="url(#p3fe98002c3)" d="M 54 252 
L 388.8 34.56 
" style="fill:none;stroke:#c44e52;stroke-linecap:round;stroke-width:1.5;"/>
   </g>
   <g id="patch_3">
    <path d="M 54 252 
L 54 34.56 
" style="fill:none;stroke:#cccccc;stroke-linecap:square;stroke-linejoin:miter;stroke-width:1.25;"/>
   </g>
   <g id="patch_4">
    <path d="M 388.8 252 
L 388.8 34.56 
" style="fill:none;stroke:#cccccc;stroke-linecap:square;stroke-linejoin:miter;stroke-width:1.25;"/>
   </g>
   <g id="patch_5">
    <path d="M 54 252 
L 388.8 252 
" style="fill:none;stroke:#cccccc;stroke-linecap:square;stroke-linejoin:miter;stroke-width:1.25;"/>
   </g>
   <g id="patch_6">
    <path d="M 54 34.56 
L 388.8 34.56 
" style="fill:none;stroke:#cccccc;stroke-linecap:square;stroke-linejoin:miter;stroke-width:1.25;"/>
   </g>
  </g>
 </g>
 <defs>
  <clipPath id="p3fe98002c3">
   <rect height="217.44" width="334.8" x="54" y="34.56"/>
  </clipPath>
 </defs>
</svg>
