<?xml version="1.0" encoding="utf-8" standalone="no"?>
<!DOCTYPE svg PUBLIC "-//W3C//DTD SVG 1.1//EN"
  "http://www.w3.org/Graphics/SVG/1.1/DTD/svg11.dtd">
<!-- Created with matplotlib (https://matplotlib.org/) -->
<svg height="720pt" version="1.1" viewBox="0 0 1152 720" width="1152pt" xmlns="http://www.w3.org/2000/svg" xmlns:xlink="http://www.w3.org/1999/xlink">
 <defs>
  <style type="text/css">
*{stroke-linecap:butt;stroke-linejoin:round;}
  </style>
 </defs>
 <g id="figure_1">
  <g id="patch_1">
   <path d="M 0 720 
L 1152 720 
L 1152 0 
L 0 0 
z
" style="fill:#ffffff;"/>
  </g>
  <g id="axes_1">
   <g id="patch_2">
    <path d="M 144 630 
L 1036.8 630 
L 1036.8 86.4 
L 144 86.4 
z
" style="fill:#ffffff;"/>
   </g>
   <g id="matplotlib.axis_1">
    <g id="xtick_1">
     <g id="line2d_1">
      <path clip-path="url(#p2c147b39c4)" d="M 144 630 
L 144 86.4 
" style="fill:none;stroke:#cccccc;stroke-linecap:round;"/>
     </g>
     <g id="text_1">
      <!-- 0.0 -->
      <defs>
       <path d="M 4.15625 35.296875 
Q 4.15625 48 6.765625 55.734375 
Q 9.375 63.484375 14.515625 67.671875 
Q 19.671875 71.875 27.484375 71.875 
Q 33.25 71.875 37.59375 69.546875 
Q 41.9375 67.234375 44.765625 62.859375 
Q 47.609375 58.5 49.21875 52.21875 
Q 50.828125 45.953125 50.828125 35.296875 
Q 50.828125 22.703125 48.234375 14.96875 
Q 45.65625 7.234375 40.5 3 
Q 35.359375 -1.21875 27.484375 -1.21875 
Q 17.140625 -1.21875 11.234375 6.203125 
Q 4.15625 15.140625 4.15625 35.296875 
z
M 13.1875 35.296875 
Q 13.1875 17.671875 17.3125 11.828125 
Q 21.4375 6 27.484375 6 
Q 33.546875 6 37.671875 11.859375 
Q 41.796875 17.71875 41.796875 35.296875 
Q 41.796875 52.984375 37.671875 58.78125 
Q 33.546875 64.59375 27.390625 64.59375 
Q 21.34375 64.59375 17.71875 59.46875 
Q 13.1875 52.9375 13.1875 35.296875 
z
" id="ArialMT-48"/>
       <path d="M 9.078125 0 
L 9.078125 10.015625 
L 19.09375 10.015625 
L 19.09375 0 
z
" id="ArialMT-46"/>
      </defs>
      <g style="fill:#262626;" transform="translate(128.71 655.247187)scale(0.22 -0.22)">
       <use xlink:href="#ArialMT-48"/>
       <use x="55.615234" xlink:href="#ArialMT-46"/>
       <use x="83.398438" xlink:href="#ArialMT-48"/>
      </g>
     </g>
    </g>
    <g id="xtick_2">
     <g id="line2d_2">
      <path clip-path="url(#p2c147b39c4)" d="M 295.607547 630 
L 295.607547 86.4 
" style="fill:none;stroke:#cccccc;stroke-linecap:round;"/>
     </g>
     <g id="text_2">
      <!-- 0.1 -->
      <defs>
       <path d="M 37.25 0 
L 28.46875 0 
L 28.46875 56 
Q 25.296875 52.984375 20.140625 49.953125 
Q 14.984375 46.921875 10.890625 45.40625 
L 10.890625 53.90625 
Q 18.265625 57.375 23.78125 62.296875 
Q 29.296875 67.234375 31.59375 71.875 
L 37.25 71.875 
z
" id="ArialMT-49"/>
      </defs>
      <g style="fill:#262626;" transform="translate(280.317547 655.247187)scale(0.22 -0.22)">
       <use xlink:href="#ArialMT-48"/>
       <use x="55.615234" xlink:href="#ArialMT-46"/>
       <use x="83.398438" xlink:href="#ArialMT-49"/>
      </g>
     </g>
    </g>
    <g id="xtick_3">
     <g id="line2d_3">
      <path clip-path="url(#p2c147b39c4)" d="M 447.215094 630 
L 447.215094 86.4 
" style="fill:none;stroke:#cccccc;stroke-linecap:round;"/>
     </g>
     <g id="text_3">
      <!-- 0.2 -->
      <defs>
       <path d="M 50.34375 8.453125 
L 50.34375 0 
L 3.03125 0 
Q 2.9375 3.171875 4.046875 6.109375 
Q 5.859375 10.9375 9.828125 15.625 
Q 13.8125 20.3125 21.34375 26.46875 
Q 33.015625 36.03125 37.109375 41.625 
Q 41.21875 47.21875 41.21875 52.203125 
Q 41.21875 57.421875 37.46875 61 
Q 33.734375 64.59375 27.734375 64.59375 
Q 21.390625 64.59375 17.578125 60.78125 
Q 13.765625 56.984375 13.71875 50.25 
L 4.6875 51.171875 
Q 5.609375 61.28125 11.65625 66.578125 
Q 17.71875 71.875 27.9375 71.875 
Q 38.234375 71.875 44.234375 66.15625 
Q 50.25 60.453125 50.25 52 
Q 50.25 47.703125 48.484375 43.546875 
Q 46.734375 39.40625 42.65625 34.8125 
Q 38.578125 30.21875 29.109375 22.21875 
Q 21.1875 15.578125 18.9375 13.203125 
Q 16.703125 10.84375 15.234375 8.453125 
z
" id="ArialMT-50"/>
      </defs>
      <g style="fill:#262626;" transform="translate(431.925094 655.247187)scale(0.22 -0.22)">
       <use xlink:href="#ArialMT-48"/>
       <use x="55.615234" xlink:href="#ArialMT-46"/>
       <use x="83.398438" xlink:href="#ArialMT-50"/>
      </g>
     </g>
    </g>
    <g id="xtick_4">
     <g id="line2d_4">
      <path clip-path="url(#p2c147b39c4)" d="M 598.822642 630 
L 598.822642 86.4 
" style="fill:none;stroke:#cccccc;stroke-linecap:round;"/>
     </g>
     <g id="text_4">
      <!-- 0.3 -->
      <defs>
       <path d="M 4.203125 18.890625 
L 12.984375 20.0625 
Q 14.5 12.59375 18.140625 9.296875 
Q 21.78125 6 27 6 
Q 33.203125 6 37.46875 10.296875 
Q 41.75 14.59375 41.75 20.953125 
Q 41.75 27 37.796875 30.921875 
Q 33.84375 34.859375 27.734375 34.859375 
Q 25.25 34.859375 21.53125 33.890625 
L 22.515625 41.609375 
Q 23.390625 41.5 23.921875 41.5 
Q 29.546875 41.5 34.03125 44.421875 
Q 38.53125 47.359375 38.53125 53.46875 
Q 38.53125 58.296875 35.25 61.46875 
Q 31.984375 64.65625 26.8125 64.65625 
Q 21.6875 64.65625 18.265625 61.421875 
Q 14.84375 58.203125 13.875 51.765625 
L 5.078125 53.328125 
Q 6.6875 62.15625 12.390625 67.015625 
Q 18.109375 71.875 26.609375 71.875 
Q 32.46875 71.875 37.390625 69.359375 
Q 42.328125 66.84375 44.9375 62.5 
Q 47.5625 58.15625 47.5625 53.265625 
Q 47.5625 48.640625 45.0625 44.828125 
Q 42.578125 41.015625 37.703125 38.765625 
Q 44.046875 37.3125 47.5625 32.6875 
Q 51.078125 28.078125 51.078125 21.140625 
Q 51.078125 11.765625 44.234375 5.25 
Q 37.40625 -1.265625 26.953125 -1.265625 
Q 17.53125 -1.265625 11.296875 4.34375 
Q 5.078125 9.96875 4.203125 18.890625 
z
" id="ArialMT-51"/>
      </defs>
      <g style="fill:#262626;" transform="translate(583.532642 655.247187)scale(0.22 -0.22)">
       <use xlink:href="#ArialMT-48"/>
       <use x="55.615234" xlink:href="#ArialMT-46"/>
       <use x="83.398438" xlink:href="#ArialMT-51"/>
      </g>
     </g>
    </g>
    <g id="xtick_5">
     <g id="line2d_5">
      <path clip-path="url(#p2c147b39c4)" d="M 750.430189 630 
L 750.430189 86.4 
" style="fill:none;stroke:#cccccc;stroke-linecap:round;"/>
     </g>
     <g id="text_5">
      <!-- 0.4 -->
      <defs>
       <path d="M 32.328125 0 
L 32.328125 17.140625 
L 1.265625 17.140625 
L 1.265625 25.203125 
L 33.9375 71.578125 
L 41.109375 71.578125 
L 41.109375 25.203125 
L 50.78125 25.203125 
L 50.78125 17.140625 
L 41.109375 17.140625 
L 41.109375 0 
z
M 32.328125 25.203125 
L 32.328125 57.46875 
L 9.90625 25.203125 
z
" id="ArialMT-52"/>
      </defs>
      <g style="fill:#262626;" transform="translate(735.140189 655.247187)scale(0.22 -0.22)">
       <use xlink:href="#ArialMT-48"/>
       <use x="55.615234" xlink:href="#ArialMT-46"/>
       <use x="83.398438" xlink:href="#ArialMT-52"/>
      </g>
     </g>
    </g>
    <g id="xtick_6">
     <g id="line2d_6">
      <path clip-path="url(#p2c147b39c4)" d="M 902.037736 630 
L 902.037736 86.4 
" style="fill:none;stroke:#cccccc;stroke-linecap:round;"/>
     </g>
     <g id="text_6">
      <!-- 0.5 -->
      <defs>
       <path d="M 4.15625 18.75 
L 13.375 19.53125 
Q 14.40625 12.796875 18.140625 9.390625 
Q 21.875 6 27.15625 6 
Q 33.5 6 37.890625 10.78125 
Q 42.28125 15.578125 42.28125 23.484375 
Q 42.28125 31 38.0625 35.34375 
Q 33.84375 39.703125 27 39.703125 
Q 22.75 39.703125 19.328125 37.765625 
Q 15.921875 35.84375 13.96875 32.765625 
L 5.71875 33.84375 
L 12.640625 70.609375 
L 48.25 70.609375 
L 48.25 62.203125 
L 19.671875 62.203125 
L 15.828125 42.96875 
Q 22.265625 47.46875 29.34375 47.46875 
Q 38.71875 47.46875 45.15625 40.96875 
Q 51.609375 34.46875 51.609375 24.265625 
Q 51.609375 14.546875 45.953125 7.46875 
Q 39.0625 -1.21875 27.15625 -1.21875 
Q 17.390625 -1.21875 11.203125 4.25 
Q 5.03125 9.71875 4.15625 18.75 
z
" id="ArialMT-53"/>
      </defs>
      <g style="fill:#262626;" transform="translate(886.747736 655.247187)scale(0.22 -0.22)">
       <use xlink:href="#ArialMT-48"/>
       <use x="55.615234" xlink:href="#ArialMT-46"/>
       <use x="83.398438" xlink:href="#ArialMT-53"/>
      </g>
     </g>
    </g>
    <g id="text_7">
     <!-- Simulation Result -->
     <defs>
      <path d="M 4.5 23 
L 13.421875 23.78125 
Q 14.0625 18.40625 16.375 14.96875 
Q 18.703125 11.53125 23.578125 9.40625 
Q 28.46875 7.28125 34.578125 7.28125 
Q 39.984375 7.28125 44.140625 8.890625 
Q 48.296875 10.5 50.3125 13.296875 
Q 52.34375 16.109375 52.34375 19.4375 
Q 52.34375 22.796875 50.390625 25.3125 
Q 48.4375 27.828125 43.953125 29.546875 
Q 41.0625 30.671875 31.203125 33.03125 
Q 21.34375 35.40625 17.390625 37.5 
Q 12.25 40.1875 9.734375 44.15625 
Q 7.234375 48.140625 7.234375 53.078125 
Q 7.234375 58.5 10.296875 63.203125 
Q 13.375 67.921875 19.28125 70.359375 
Q 25.203125 72.796875 32.421875 72.796875 
Q 40.375 72.796875 46.453125 70.234375 
Q 52.546875 67.671875 55.8125 62.6875 
Q 59.078125 57.71875 59.328125 51.421875 
L 50.25 50.734375 
Q 49.515625 57.515625 45.28125 60.984375 
Q 41.0625 64.453125 32.8125 64.453125 
Q 24.21875 64.453125 20.28125 61.296875 
Q 16.359375 58.15625 16.359375 53.71875 
Q 16.359375 49.859375 19.140625 47.359375 
Q 21.875 44.875 33.421875 42.265625 
Q 44.96875 39.65625 49.265625 37.703125 
Q 55.515625 34.8125 58.484375 30.390625 
Q 61.46875 25.984375 61.46875 20.21875 
Q 61.46875 14.5 58.203125 9.4375 
Q 54.9375 4.390625 48.796875 1.578125 
Q 42.671875 -1.21875 35.015625 -1.21875 
Q 25.296875 -1.21875 18.71875 1.609375 
Q 12.15625 4.4375 8.421875 10.125 
Q 4.6875 15.828125 4.5 23 
z
" id="ArialMT-83"/>
      <path d="M 6.640625 61.46875 
L 6.640625 71.578125 
L 15.4375 71.578125 
L 15.4375 61.46875 
z
M 6.640625 0 
L 6.640625 51.859375 
L 15.4375 51.859375 
L 15.4375 0 
z
" id="ArialMT-105"/>
      <path d="M 6.59375 0 
L 6.59375 51.859375 
L 14.453125 51.859375 
L 14.453125 44.578125 
Q 16.890625 48.390625 20.9375 50.703125 
Q 25 53.03125 30.171875 53.03125 
Q 35.9375 53.03125 39.625 50.640625 
Q 43.3125 48.25 44.828125 43.953125 
Q 50.984375 53.03125 60.84375 53.03125 
Q 68.5625 53.03125 72.703125 48.75 
Q 76.859375 44.484375 76.859375 35.59375 
L 76.859375 0 
L 68.109375 0 
L 68.109375 32.671875 
Q 68.109375 37.9375 67.25 40.25 
Q 66.40625 42.578125 64.15625 43.984375 
Q 61.921875 45.40625 58.890625 45.40625 
Q 53.421875 45.40625 49.796875 41.765625 
Q 46.1875 38.140625 46.1875 30.125 
L 46.1875 0 
L 37.40625 0 
L 37.40625 33.6875 
Q 37.40625 39.546875 35.25 42.46875 
Q 33.109375 45.40625 28.21875 45.40625 
Q 24.515625 45.40625 21.359375 43.453125 
Q 18.21875 41.5 16.796875 37.734375 
Q 15.375 33.984375 15.375 26.90625 
L 15.375 0 
z
" id="ArialMT-109"/>
      <path d="M 40.578125 0 
L 40.578125 7.625 
Q 34.515625 -1.171875 24.125 -1.171875 
Q 19.53125 -1.171875 15.546875 0.578125 
Q 11.578125 2.34375 9.640625 5 
Q 7.71875 7.671875 6.9375 11.53125 
Q 6.390625 14.109375 6.390625 19.734375 
L 6.390625 51.859375 
L 15.1875 51.859375 
L 15.1875 23.09375 
Q 15.1875 16.21875 15.71875 13.8125 
Q 16.546875 10.359375 19.234375 8.375 
Q 21.921875 6.390625 25.875 6.390625 
Q 29.828125 6.390625 33.296875 8.421875 
Q 36.765625 10.453125 38.203125 13.9375 
Q 39.65625 17.4375 39.65625 24.078125 
L 39.65625 51.859375 
L 48.4375 51.859375 
L 48.4375 0 
z
" id="ArialMT-117"/>
      <path d="M 6.390625 0 
L 6.390625 71.578125 
L 15.1875 71.578125 
L 15.1875 0 
z
" id="ArialMT-108"/>
      <path d="M 40.4375 6.390625 
Q 35.546875 2.25 31.03125 0.53125 
Q 26.515625 -1.171875 21.34375 -1.171875 
Q 12.796875 -1.171875 8.203125 3 
Q 3.609375 7.171875 3.609375 13.671875 
Q 3.609375 17.484375 5.34375 20.625 
Q 7.078125 23.78125 9.890625 25.6875 
Q 12.703125 27.59375 16.21875 28.5625 
Q 18.796875 29.25 24.03125 29.890625 
Q 34.671875 31.15625 39.703125 32.90625 
Q 39.75 34.71875 39.75 35.203125 
Q 39.75 40.578125 37.25 42.78125 
Q 33.890625 45.75 27.25 45.75 
Q 21.046875 45.75 18.09375 43.578125 
Q 15.140625 41.40625 13.71875 35.890625 
L 5.125 37.0625 
Q 6.296875 42.578125 8.984375 45.96875 
Q 11.671875 49.359375 16.75 51.1875 
Q 21.828125 53.03125 28.515625 53.03125 
Q 35.15625 53.03125 39.296875 51.46875 
Q 43.453125 49.90625 45.40625 47.53125 
Q 47.359375 45.171875 48.140625 41.546875 
Q 48.578125 39.3125 48.578125 33.453125 
L 48.578125 21.734375 
Q 48.578125 9.46875 49.140625 6.21875 
Q 49.703125 2.984375 51.375 0 
L 42.1875 0 
Q 40.828125 2.734375 40.4375 6.390625 
z
M 39.703125 26.03125 
Q 34.90625 24.078125 25.34375 22.703125 
Q 19.921875 21.921875 17.671875 20.9375 
Q 15.4375 19.96875 14.203125 18.09375 
Q 12.984375 16.21875 12.984375 13.921875 
Q 12.984375 10.40625 15.640625 8.0625 
Q 18.3125 5.71875 23.4375 5.71875 
Q 28.515625 5.71875 32.46875 7.9375 
Q 36.421875 10.15625 38.28125 14.015625 
Q 39.703125 17 39.703125 22.796875 
z
" id="ArialMT-97"/>
      <path d="M 25.78125 7.859375 
L 27.046875 0.09375 
Q 23.34375 -0.6875 20.40625 -0.6875 
Q 15.625 -0.6875 12.984375 0.828125 
Q 10.359375 2.34375 9.28125 4.8125 
Q 8.203125 7.28125 8.203125 15.1875 
L 8.203125 45.015625 
L 1.765625 45.015625 
L 1.765625 51.859375 
L 8.203125 51.859375 
L 8.203125 64.703125 
L 16.9375 69.96875 
L 16.9375 51.859375 
L 25.78125 51.859375 
L 25.78125 45.015625 
L 16.9375 45.015625 
L 16.9375 14.703125 
Q 16.9375 10.9375 17.40625 9.859375 
Q 17.875 8.796875 18.921875 8.15625 
Q 19.96875 7.515625 21.921875 7.515625 
Q 23.390625 7.515625 25.78125 7.859375 
z
" id="ArialMT-116"/>
      <path d="M 3.328125 25.921875 
Q 3.328125 40.328125 11.328125 47.265625 
Q 18.015625 53.03125 27.640625 53.03125 
Q 38.328125 53.03125 45.109375 46.015625 
Q 51.90625 39.015625 51.90625 26.65625 
Q 51.90625 16.65625 48.90625 10.90625 
Q 45.90625 5.171875 40.15625 2 
Q 34.421875 -1.171875 27.640625 -1.171875 
Q 16.75 -1.171875 10.03125 5.8125 
Q 3.328125 12.796875 3.328125 25.921875 
z
M 12.359375 25.921875 
Q 12.359375 15.96875 16.703125 11.015625 
Q 21.046875 6.0625 27.640625 6.0625 
Q 34.1875 6.0625 38.53125 11.03125 
Q 42.875 16.015625 42.875 26.21875 
Q 42.875 35.84375 38.5 40.796875 
Q 34.125 45.75 27.640625 45.75 
Q 21.046875 45.75 16.703125 40.8125 
Q 12.359375 35.890625 12.359375 25.921875 
z
" id="ArialMT-111"/>
      <path d="M 6.59375 0 
L 6.59375 51.859375 
L 14.5 51.859375 
L 14.5 44.484375 
Q 20.21875 53.03125 31 53.03125 
Q 35.6875 53.03125 39.625 51.34375 
Q 43.5625 49.65625 45.515625 46.921875 
Q 47.46875 44.1875 48.25 40.4375 
Q 48.734375 37.984375 48.734375 31.890625 
L 48.734375 0 
L 39.9375 0 
L 39.9375 31.546875 
Q 39.9375 36.921875 38.90625 39.578125 
Q 37.890625 42.234375 35.28125 43.8125 
Q 32.671875 45.40625 29.15625 45.40625 
Q 23.53125 45.40625 19.453125 41.84375 
Q 15.375 38.28125 15.375 28.328125 
L 15.375 0 
z
" id="ArialMT-110"/>
      <path id="ArialMT-32"/>
      <path d="M 7.859375 0 
L 7.859375 71.578125 
L 39.59375 71.578125 
Q 49.171875 71.578125 54.140625 69.640625 
Q 59.125 67.71875 62.109375 62.828125 
Q 65.09375 57.953125 65.09375 52.046875 
Q 65.09375 44.4375 60.15625 39.203125 
Q 55.21875 33.984375 44.921875 32.5625 
Q 48.6875 30.765625 50.640625 29 
Q 54.78125 25.203125 58.5 19.484375 
L 70.953125 0 
L 59.03125 0 
L 49.5625 14.890625 
Q 45.40625 21.34375 42.71875 24.75 
Q 40.046875 28.171875 37.921875 29.53125 
Q 35.796875 30.90625 33.59375 31.453125 
Q 31.984375 31.78125 28.328125 31.78125 
L 17.328125 31.78125 
L 17.328125 0 
z
M 17.328125 39.984375 
L 37.703125 39.984375 
Q 44.1875 39.984375 47.84375 41.328125 
Q 51.515625 42.671875 53.421875 45.625 
Q 55.328125 48.578125 55.328125 52.046875 
Q 55.328125 57.125 51.640625 60.390625 
Q 47.953125 63.671875 39.984375 63.671875 
L 17.328125 63.671875 
z
" id="ArialMT-82"/>
      <path d="M 42.09375 16.703125 
L 51.171875 15.578125 
Q 49.03125 7.625 43.21875 3.21875 
Q 37.40625 -1.171875 28.375 -1.171875 
Q 17 -1.171875 10.328125 5.828125 
Q 3.65625 12.84375 3.65625 25.484375 
Q 3.65625 38.578125 10.390625 45.796875 
Q 17.140625 53.03125 27.875 53.03125 
Q 38.28125 53.03125 44.875 45.953125 
Q 51.46875 38.875 51.46875 26.03125 
Q 51.46875 25.25 51.421875 23.6875 
L 12.75 23.6875 
Q 13.234375 15.140625 17.578125 10.59375 
Q 21.921875 6.0625 28.421875 6.0625 
Q 33.25 6.0625 36.671875 8.59375 
Q 40.09375 11.140625 42.09375 16.703125 
z
M 13.234375 30.90625 
L 42.1875 30.90625 
Q 41.609375 37.453125 38.875 40.71875 
Q 34.671875 45.796875 27.984375 45.796875 
Q 21.921875 45.796875 17.796875 41.75 
Q 13.671875 37.703125 13.234375 30.90625 
z
" id="ArialMT-101"/>
      <path d="M 3.078125 15.484375 
L 11.765625 16.84375 
Q 12.5 11.625 15.84375 8.84375 
Q 19.1875 6.0625 25.203125 6.0625 
Q 31.25 6.0625 34.171875 8.515625 
Q 37.109375 10.984375 37.109375 14.3125 
Q 37.109375 17.28125 34.515625 19 
Q 32.71875 20.171875 25.53125 21.96875 
Q 15.875 24.421875 12.140625 26.203125 
Q 8.40625 27.984375 6.46875 31.125 
Q 4.546875 34.28125 4.546875 38.09375 
Q 4.546875 41.546875 6.125 44.5 
Q 7.71875 47.46875 10.453125 49.421875 
Q 12.5 50.921875 16.03125 51.96875 
Q 19.578125 53.03125 23.640625 53.03125 
Q 29.734375 53.03125 34.34375 51.265625 
Q 38.96875 49.515625 41.15625 46.5 
Q 43.359375 43.5 44.1875 38.484375 
L 35.59375 37.3125 
Q 35.015625 41.3125 32.203125 43.546875 
Q 29.390625 45.796875 24.265625 45.796875 
Q 18.21875 45.796875 15.625 43.796875 
Q 13.03125 41.796875 13.03125 39.109375 
Q 13.03125 37.40625 14.109375 36.03125 
Q 15.1875 34.625 17.484375 33.6875 
Q 18.796875 33.203125 25.25 31.453125 
Q 34.578125 28.953125 38.25 27.359375 
Q 41.9375 25.78125 44.03125 22.75 
Q 46.140625 19.734375 46.140625 15.234375 
Q 46.140625 10.84375 43.578125 6.953125 
Q 41.015625 3.078125 36.171875 0.953125 
Q 31.34375 -1.171875 25.25 -1.171875 
Q 15.140625 -1.171875 9.84375 3.03125 
Q 4.546875 7.234375 3.078125 15.484375 
z
" id="ArialMT-115"/>
     </defs>
     <g style="fill:#262626;" transform="translate(497.02875 680.798437)scale(0.24 -0.24)">
      <use xlink:href="#ArialMT-83"/>
      <use x="66.699219" xlink:href="#ArialMT-105"/>
      <use x="88.916016" xlink:href="#ArialMT-109"/>
      <use x="172.216797" xlink:href="#ArialMT-117"/>
      <use x="227.832031" xlink:href="#ArialMT-108"/>
      <use x="250.048828" xlink:href="#ArialMT-97"/>
      <use x="305.664062" xlink:href="#ArialMT-116"/>
      <use x="333.447266" xlink:href="#ArialMT-105"/>
      <use x="355.664062" xlink:href="#ArialMT-111"/>
      <use x="411.279297" xlink:href="#ArialMT-110"/>
      <use x="466.894531" xlink:href="#ArialMT-32"/>
      <use x="494.677734" xlink:href="#ArialMT-82"/>
      <use x="566.894531" xlink:href="#ArialMT-101"/>
      <use x="622.509766" xlink:href="#ArialMT-115"/>
      <use x="672.509766" xlink:href="#ArialMT-117"/>
      <use x="728.125" xlink:href="#ArialMT-108"/>
      <use x="750.341797" xlink:href="#ArialMT-116"/>
     </g>
    </g>
   </g>
   <g id="matplotlib.axis_2">
    <g id="ytick_1">
     <g id="line2d_7">
      <path clip-path="url(#p2c147b39c4)" d="M 144 525.695106 
L 1036.8 525.695106 
" style="fill:none;stroke:#cccccc;stroke-linecap:round;"/>
     </g>
     <g id="text_8">
      <!-- 0.0 -->
      <g style="fill:#262626;" transform="translate(103.92 533.568699)scale(0.22 -0.22)">
       <use xlink:href="#ArialMT-48"/>
       <use x="55.615234" xlink:href="#ArialMT-46"/>
       <use x="83.398438" xlink:href="#ArialMT-48"/>
      </g>
     </g>
    </g>
    <g id="ytick_2">
     <g id="line2d_8">
      <path clip-path="url(#p2c147b39c4)" d="M 144 413.966786 
L 1036.8 413.966786 
" style="fill:none;stroke:#cccccc;stroke-linecap:round;"/>
     </g>
     <g id="text_9">
      <!-- 0.2 -->
      <g style="fill:#262626;" transform="translate(103.92 421.84038)scale(0.22 -0.22)">
       <use xlink:href="#ArialMT-48"/>
       <use x="55.615234" xlink:href="#ArialMT-46"/>
       <use x="83.398438" xlink:href="#ArialMT-50"/>
      </g>
     </g>
    </g>
    <g id="ytick_3">
     <g id="line2d_9">
      <path clip-path="url(#p2c147b39c4)" d="M 144 302.238467 
L 1036.8 302.238467 
" style="fill:none;stroke:#cccccc;stroke-linecap:round;"/>
     </g>
     <g id="text_10">
      <!-- 0.4 -->
      <g style="fill:#262626;" transform="translate(103.92 310.11206)scale(0.22 -0.22)">
       <use xlink:href="#ArialMT-48"/>
       <use x="55.615234" xlink:href="#ArialMT-46"/>
       <use x="83.398438" xlink:href="#ArialMT-52"/>
      </g>
     </g>
    </g>
    <g id="ytick_4">
     <g id="line2d_10">
      <path clip-path="url(#p2c147b39c4)" d="M 144 190.510147 
L 1036.8 190.510147 
" style="fill:none;stroke:#cccccc;stroke-linecap:round;"/>
     </g>
     <g id="text_11">
      <!-- 0.6 -->
      <defs>
       <path d="M 49.75 54.046875 
L 41.015625 53.375 
Q 39.84375 58.546875 37.703125 60.890625 
Q 34.125 64.65625 28.90625 64.65625 
Q 24.703125 64.65625 21.53125 62.3125 
Q 17.390625 59.28125 14.984375 53.46875 
Q 12.59375 47.65625 12.5 36.921875 
Q 15.671875 41.75 20.265625 44.09375 
Q 24.859375 46.4375 29.890625 46.4375 
Q 38.671875 46.4375 44.84375 39.96875 
Q 51.03125 33.5 51.03125 23.25 
Q 51.03125 16.5 48.125 10.71875 
Q 45.21875 4.9375 40.140625 1.859375 
Q 35.0625 -1.21875 28.609375 -1.21875 
Q 17.625 -1.21875 10.6875 6.859375 
Q 3.765625 14.9375 3.765625 33.5 
Q 3.765625 54.25 11.421875 63.671875 
Q 18.109375 71.875 29.4375 71.875 
Q 37.890625 71.875 43.28125 67.140625 
Q 48.6875 62.40625 49.75 54.046875 
z
M 13.875 23.1875 
Q 13.875 18.65625 15.796875 14.5 
Q 17.71875 10.359375 21.1875 8.171875 
Q 24.65625 6 28.46875 6 
Q 34.03125 6 38.03125 10.484375 
Q 42.046875 14.984375 42.046875 22.703125 
Q 42.046875 30.125 38.078125 34.390625 
Q 34.125 38.671875 28.125 38.671875 
Q 22.171875 38.671875 18.015625 34.390625 
Q 13.875 30.125 13.875 23.1875 
z
" id="ArialMT-54"/>
      </defs>
      <g style="fill:#262626;" transform="translate(103.92 198.383741)scale(0.22 -0.22)">
       <use xlink:href="#ArialMT-48"/>
       <use x="55.615234" xlink:href="#ArialMT-46"/>
       <use x="83.398438" xlink:href="#ArialMT-54"/>
      </g>
     </g>
    </g>
    <g id="text_12">
     <!-- Predicted -->
     <defs>
      <path d="M 7.71875 0 
L 7.71875 71.578125 
L 34.71875 71.578125 
Q 41.84375 71.578125 45.609375 70.90625 
Q 50.875 70.015625 54.4375 67.546875 
Q 58.015625 65.09375 60.1875 60.640625 
Q 62.359375 56.203125 62.359375 50.875 
Q 62.359375 41.75 56.546875 35.421875 
Q 50.734375 29.109375 35.546875 29.109375 
L 17.1875 29.109375 
L 17.1875 0 
z
M 17.1875 37.546875 
L 35.6875 37.546875 
Q 44.875 37.546875 48.734375 40.96875 
Q 52.59375 44.390625 52.59375 50.59375 
Q 52.59375 55.078125 50.3125 58.265625 
Q 48.046875 61.46875 44.34375 62.5 
Q 41.9375 63.140625 35.5 63.140625 
L 17.1875 63.140625 
z
" id="ArialMT-80"/>
      <path d="M 6.5 0 
L 6.5 51.859375 
L 14.40625 51.859375 
L 14.40625 44 
Q 17.4375 49.515625 20 51.265625 
Q 22.5625 53.03125 25.640625 53.03125 
Q 30.078125 53.03125 34.671875 50.203125 
L 31.640625 42.046875 
Q 28.421875 43.953125 25.203125 43.953125 
Q 22.3125 43.953125 20.015625 42.21875 
Q 17.71875 40.484375 16.75 37.40625 
Q 15.28125 32.71875 15.28125 27.15625 
L 15.28125 0 
z
" id="ArialMT-114"/>
      <path d="M 40.234375 0 
L 40.234375 6.546875 
Q 35.296875 -1.171875 25.734375 -1.171875 
Q 19.53125 -1.171875 14.328125 2.25 
Q 9.125 5.671875 6.265625 11.796875 
Q 3.421875 17.921875 3.421875 25.875 
Q 3.421875 33.640625 6 39.96875 
Q 8.59375 46.296875 13.765625 49.65625 
Q 18.953125 53.03125 25.34375 53.03125 
Q 30.03125 53.03125 33.6875 51.046875 
Q 37.359375 49.078125 39.65625 45.90625 
L 39.65625 71.578125 
L 48.390625 71.578125 
L 48.390625 0 
z
M 12.453125 25.875 
Q 12.453125 15.921875 16.640625 10.984375 
Q 20.84375 6.0625 26.5625 6.0625 
Q 32.328125 6.0625 36.34375 10.765625 
Q 40.375 15.484375 40.375 25.140625 
Q 40.375 35.796875 36.265625 40.765625 
Q 32.171875 45.75 26.171875 45.75 
Q 20.3125 45.75 16.375 40.96875 
Q 12.453125 36.1875 12.453125 25.875 
z
" id="ArialMT-100"/>
      <path d="M 40.4375 19 
L 49.078125 17.875 
Q 47.65625 8.9375 41.8125 3.875 
Q 35.984375 -1.171875 27.484375 -1.171875 
Q 16.84375 -1.171875 10.375 5.78125 
Q 3.90625 12.75 3.90625 25.734375 
Q 3.90625 34.125 6.6875 40.421875 
Q 9.46875 46.734375 15.15625 49.875 
Q 20.84375 53.03125 27.546875 53.03125 
Q 35.984375 53.03125 41.359375 48.75 
Q 46.734375 44.484375 48.25 36.625 
L 39.703125 35.296875 
Q 38.484375 40.53125 35.375 43.15625 
Q 32.28125 45.796875 27.875 45.796875 
Q 21.234375 45.796875 17.078125 41.03125 
Q 12.9375 36.28125 12.9375 25.984375 
Q 12.9375 15.53125 16.9375 10.796875 
Q 20.953125 6.0625 27.390625 6.0625 
Q 32.5625 6.0625 36.03125 9.234375 
Q 39.5 12.40625 40.4375 19 
z
" id="ArialMT-99"/>
     </defs>
     <g style="fill:#262626;" transform="translate(95.15 408.8925)rotate(-90)scale(0.24 -0.24)">
      <use xlink:href="#ArialMT-80"/>
      <use x="66.699219" xlink:href="#ArialMT-114"/>
      <use x="100" xlink:href="#ArialMT-101"/>
      <use x="155.615234" xlink:href="#ArialMT-100"/>
      <use x="211.230469" xlink:href="#ArialMT-105"/>
      <use x="233.447266" xlink:href="#ArialMT-99"/>
      <use x="283.447266" xlink:href="#ArialMT-116"/>
      <use x="311.230469" xlink:href="#ArialMT-101"/>
      <use x="366.845703" xlink:href="#ArialMT-100"/>
     </g>
    </g>
   </g>
   <g id="LineCollection_1">
    <path clip-path="url(#p2c147b39c4)" d="M 437.107925 486.401468 
L 437.107925 240.182025 
" style="fill:none;stroke:#64b5cd;stroke-width:0.5;"/>
    <path clip-path="url(#p2c147b39c4)" d="M 267.955856 589.891007 
L 267.955856 343.580156 
" style="fill:none;stroke:#64b5cd;stroke-width:0.5;"/>
    <path clip-path="url(#p2c147b39c4)" d="M 144 565.689035 
L 144 319.568869 
" style="fill:none;stroke:#64b5cd;stroke-width:0.5;"/>
    <path clip-path="url(#p2c147b39c4)" d="M 663.016828 553.317671 
L 663.016828 307.385929 
" style="fill:none;stroke:#64b5cd;stroke-width:0.5;"/>
    <path clip-path="url(#p2c147b39c4)" d="M 843.079245 494.51753 
L 843.079245 248.557465 
" style="fill:none;stroke:#64b5cd;stroke-width:0.5;"/>
    <path clip-path="url(#p2c147b39c4)" d="M 317.716981 580.986459 
L 317.716981 335.101007 
" style="fill:none;stroke:#64b5cd;stroke-width:0.5;"/>
    <path clip-path="url(#p2c147b39c4)" d="M 329.298113 560.158786 
L 329.298113 314.262572 
" style="fill:none;stroke:#64b5cd;stroke-width:0.5;"/>
    <path clip-path="url(#p2c147b39c4)" d="M 339.622642 560.96916 
L 339.622642 314.540912 
" style="fill:none;stroke:#64b5cd;stroke-width:0.5;"/>
    <path clip-path="url(#p2c147b39c4)" d="M 506.173585 575.216087 
L 506.173585 328.784126 
" style="fill:none;stroke:#64b5cd;stroke-width:0.5;"/>
    <path clip-path="url(#p2c147b39c4)" d="M 440.068611 508.179716 
L 440.068611 261.146312 
" style="fill:none;stroke:#64b5cd;stroke-width:0.5;"/>
    <path clip-path="url(#p2c147b39c4)" d="M 204.643019 574.505245 
L 204.643019 327.878647 
" style="fill:none;stroke:#64b5cd;stroke-width:0.5;"/>
    <path clip-path="url(#p2c147b39c4)" d="M 278.762264 566.50823 
L 278.762264 320.581223 
" style="fill:none;stroke:#64b5cd;stroke-width:0.5;"/>
    <path clip-path="url(#p2c147b39c4)" d="M 144 588.390838 
L 144 341.503557 
" style="fill:none;stroke:#64b5cd;stroke-width:0.5;"/>
    <path clip-path="url(#p2c147b39c4)" d="M 817.811321 552.664087 
L 817.811321 306.621658 
" style="fill:none;stroke:#64b5cd;stroke-width:0.5;"/>
    <path clip-path="url(#p2c147b39c4)" d="M 434.581132 495.351048 
L 434.581132 248.998611 
" style="fill:none;stroke:#64b5cd;stroke-width:0.5;"/>
    <path clip-path="url(#p2c147b39c4)" d="M 473.398013 513.133169 
L 473.398013 267.2129 
" style="fill:none;stroke:#64b5cd;stroke-width:0.5;"/>
    <path clip-path="url(#p2c147b39c4)" d="M 393.069542 555.317275 
L 393.069542 309.393404 
" style="fill:none;stroke:#64b5cd;stroke-width:0.5;"/>
    <path clip-path="url(#p2c147b39c4)" d="M 376.57976 581.198762 
L 376.57976 335.271699 
" style="fill:none;stroke:#64b5cd;stroke-width:0.5;"/>
    <path clip-path="url(#p2c147b39c4)" d="M 144 506.633856 
L 144 260.711615 
" style="fill:none;stroke:#64b5cd;stroke-width:0.5;"/>
    <path clip-path="url(#p2c147b39c4)" d="M 189.121294 568.232386 
L 189.121294 322.308234 
" style="fill:none;stroke:#64b5cd;stroke-width:0.5;"/>
    <path clip-path="url(#p2c147b39c4)" d="M 342.080212 556.375597 
L 342.080212 309.716076 
" style="fill:none;stroke:#64b5cd;stroke-width:0.5;"/>
    <path clip-path="url(#p2c147b39c4)" d="M 672.491098 559.150964 
L 672.491098 312.239653 
" style="fill:none;stroke:#64b5cd;stroke-width:0.5;"/>
    <path clip-path="url(#p2c147b39c4)" d="M 463.975728 564.263669 
L 463.975728 318.199343 
" style="fill:none;stroke:#64b5cd;stroke-width:0.5;"/>
    <path clip-path="url(#p2c147b39c4)" d="M 165.453898 591.786082 
L 165.453898 345.848831 
" style="fill:none;stroke:#64b5cd;stroke-width:0.5;"/>
    <path clip-path="url(#p2c147b39c4)" d="M 484.567678 583.996628 
L 484.567678 337.048057 
" style="fill:none;stroke:#64b5cd;stroke-width:0.5;"/>
    <path clip-path="url(#p2c147b39c4)" d="M 278.762264 527.652956 
L 278.762264 281.696949 
" style="fill:none;stroke:#64b5cd;stroke-width:0.5;"/>
    <path clip-path="url(#p2c147b39c4)" d="M 245.071698 542.060547 
L 245.071698 296.137673 
" style="fill:none;stroke:#64b5cd;stroke-width:0.5;"/>
    <path clip-path="url(#p2c147b39c4)" d="M 699.89434 435.405767 
L 699.89434 189.372703 
" style="fill:none;stroke:#64b5cd;stroke-width:0.5;"/>
    <path clip-path="url(#p2c147b39c4)" d="M 384.045283 563.396934 
L 384.045283 317.450492 
" style="fill:none;stroke:#64b5cd;stroke-width:0.5;"/>
    <path clip-path="url(#p2c147b39c4)" d="M 649.358491 547.578968 
L 649.358491 301.33684 
" style="fill:none;stroke:#64b5cd;stroke-width:0.5;"/>
    <path clip-path="url(#p2c147b39c4)" d="M 263.44837 602.856292 
L 263.44837 356.802403 
" style="fill:none;stroke:#64b5cd;stroke-width:0.5;"/>
    <path clip-path="url(#p2c147b39c4)" d="M 608.298113 541.110154 
L 608.298113 295.175911 
" style="fill:none;stroke:#64b5cd;stroke-width:0.5;"/>
    <path clip-path="url(#p2c147b39c4)" d="M 252.660699 605.290909 
L 252.660699 357.850665 
" style="fill:none;stroke:#64b5cd;stroke-width:0.5;"/>
    <path clip-path="url(#p2c147b39c4)" d="M 649.358491 524.939691 
L 649.358491 278.694775 
" style="fill:none;stroke:#64b5cd;stroke-width:0.5;"/>
    <path clip-path="url(#p2c147b39c4)" d="M 388.528302 567.003407 
L 388.528302 320.89983 
" style="fill:none;stroke:#64b5cd;stroke-width:0.5;"/>
    <path clip-path="url(#p2c147b39c4)" d="M 568.501132 546.37484 
L 568.501132 300.449499 
" style="fill:none;stroke:#64b5cd;stroke-width:0.5;"/>
    <path clip-path="url(#p2c147b39c4)" d="M 176.958162 591.151665 
L 176.958162 345.231264 
" style="fill:none;stroke:#64b5cd;stroke-width:0.5;"/>
    <path clip-path="url(#p2c147b39c4)" d="M 181.901887 547.362912 
L 181.901887 301.444547 
" style="fill:none;stroke:#64b5cd;stroke-width:0.5;"/>
    <path clip-path="url(#p2c147b39c4)" d="M 144 595.141492 
L 144 348.315484 
" style="fill:none;stroke:#64b5cd;stroke-width:0.5;"/>
    <path clip-path="url(#p2c147b39c4)" d="M 317.425607 566.595912 
L 317.425607 320.658052 
" style="fill:none;stroke:#64b5cd;stroke-width:0.5;"/>
    <path clip-path="url(#p2c147b39c4)" d="M 223.625813 571.080249 
L 223.625813 325.121071 
" style="fill:none;stroke:#64b5cd;stroke-width:0.5;"/>
    <path clip-path="url(#p2c147b39c4)" d="M 228.226415 557.671434 
L 228.226415 311.770234 
" style="fill:none;stroke:#64b5cd;stroke-width:0.5;"/>
    <path clip-path="url(#p2c147b39c4)" d="M 389.376377 581.982795 
L 389.376377 336.007202 
" style="fill:none;stroke:#64b5cd;stroke-width:0.5;"/>
    <path clip-path="url(#p2c147b39c4)" d="M 657.223992 547.610203 
L 657.223992 301.68639 
" style="fill:none;stroke:#64b5cd;stroke-width:0.5;"/>
    <path clip-path="url(#p2c147b39c4)" d="M 496.698113 543.293733 
L 496.698113 297.310267 
" style="fill:none;stroke:#64b5cd;stroke-width:0.5;"/>
    <path clip-path="url(#p2c147b39c4)" d="M 406.214311 513.504293 
L 406.214311 267.572945 
" style="fill:none;stroke:#64b5cd;stroke-width:0.5;"/>
    <path clip-path="url(#p2c147b39c4)" d="M 481.739585 563.444197 
L 481.739585 316.971534 
" style="fill:none;stroke:#64b5cd;stroke-width:0.5;"/>
    <path clip-path="url(#p2c147b39c4)" d="M 487.0035 535.289613 
L 487.0035 289.045656 
" style="fill:none;stroke:#64b5cd;stroke-width:0.5;"/>
    <path clip-path="url(#p2c147b39c4)" d="M 497.524325 556.720111 
L 497.524325 309.636122 
" style="fill:none;stroke:#64b5cd;stroke-width:0.5;"/>
    <path clip-path="url(#p2c147b39c4)" d="M 364.075472 539.806725 
L 364.075472 292.20495 
" style="fill:none;stroke:#64b5cd;stroke-width:0.5;"/>
    <path clip-path="url(#p2c147b39c4)" d="M 355.099116 564.091328 
L 355.099116 317.52661 
" style="fill:none;stroke:#64b5cd;stroke-width:0.5;"/>
    <path clip-path="url(#p2c147b39c4)" d="M 144 543.640209 
L 144 296.960334 
" style="fill:none;stroke:#64b5cd;stroke-width:0.5;"/>
    <path clip-path="url(#p2c147b39c4)" d="M 649.358491 543.272187 
L 649.358491 296.602039 
" style="fill:none;stroke:#64b5cd;stroke-width:0.5;"/>
    <path clip-path="url(#p2c147b39c4)" d="M 199.130017 563.916808 
L 199.130017 317.971793 
" style="fill:none;stroke:#64b5cd;stroke-width:0.5;"/>
    <path clip-path="url(#p2c147b39c4)" d="M 144 565.083152 
L 144 319.153244 
" style="fill:none;stroke:#64b5cd;stroke-width:0.5;"/>
    <path clip-path="url(#p2c147b39c4)" d="M 548.286792 544.22338 
L 548.286792 298.180166 
" style="fill:none;stroke:#64b5cd;stroke-width:0.5;"/>
    <path clip-path="url(#p2c147b39c4)" d="M 510.384906 510.903148 
L 510.384906 264.425524 
" style="fill:none;stroke:#64b5cd;stroke-width:0.5;"/>
    <path clip-path="url(#p2c147b39c4)" d="M 537.056604 541.684406 
L 537.056604 295.315484 
" style="fill:none;stroke:#64b5cd;stroke-width:0.5;"/>
    <path clip-path="url(#p2c147b39c4)" d="M 312.45283 572.222326 
L 312.45283 325.20227 
" style="fill:none;stroke:#64b5cd;stroke-width:0.5;"/>
    <path clip-path="url(#p2c147b39c4)" d="M 540.160425 536.975123 
L 540.160425 291.03158 
" style="fill:none;stroke:#64b5cd;stroke-width:0.5;"/>
    <path clip-path="url(#p2c147b39c4)" d="M 548.286792 483.293239 
L 548.286792 236.2728 
" style="fill:none;stroke:#64b5cd;stroke-width:0.5;"/>
    <path clip-path="url(#p2c147b39c4)" d="M 413.524528 558.959072 
L 413.524528 312.658867 
" style="fill:none;stroke:#64b5cd;stroke-width:0.5;"/>
    <path clip-path="url(#p2c147b39c4)" d="M 380.886792 460.093685 
L 380.886792 213.34099 
" style="fill:none;stroke:#64b5cd;stroke-width:0.5;"/>
    <path clip-path="url(#p2c147b39c4)" d="M 248.556929 583.556831 
L 248.556929 336.59885 
" style="fill:none;stroke:#64b5cd;stroke-width:0.5;"/>
    <path clip-path="url(#p2c147b39c4)" d="M 466.166038 570.020498 
L 466.166038 322.240842 
" style="fill:none;stroke:#64b5cd;stroke-width:0.5;"/>
    <path clip-path="url(#p2c147b39c4)" d="M 264.482819 580.353526 
L 264.482819 334.378503 
" style="fill:none;stroke:#64b5cd;stroke-width:0.5;"/>
    <path clip-path="url(#p2c147b39c4)" d="M 243.306254 588.963789 
L 243.306254 342.192323 
" style="fill:none;stroke:#64b5cd;stroke-width:0.5;"/>
    <path clip-path="url(#p2c147b39c4)" d="M 559.91451 575.056411 
L 559.91451 329.104345 
" style="fill:none;stroke:#64b5cd;stroke-width:0.5;"/>
    <path clip-path="url(#p2c147b39c4)" d="M 318.067925 581.724998 
L 318.067925 335.806854 
" style="fill:none;stroke:#64b5cd;stroke-width:0.5;"/>
    <path clip-path="url(#p2c147b39c4)" d="M 144 558.073143 
L 144 311.977024 
" style="fill:none;stroke:#64b5cd;stroke-width:0.5;"/>
    <path clip-path="url(#p2c147b39c4)" d="M 348.702173 556.240772 
L 348.702173 310.335164 
" style="fill:none;stroke:#64b5cd;stroke-width:0.5;"/>
    <path clip-path="url(#p2c147b39c4)" d="M 333.509434 582.269868 
L 333.509434 336.264493 
" style="fill:none;stroke:#64b5cd;stroke-width:0.5;"/>
    <path clip-path="url(#p2c147b39c4)" d="M 144 584.323663 
L 144 338.093507 
" style="fill:none;stroke:#64b5cd;stroke-width:0.5;"/>
    <path clip-path="url(#p2c147b39c4)" d="M 465.99833 571.750339 
L 465.99833 325.061214 
" style="fill:none;stroke:#64b5cd;stroke-width:0.5;"/>
    <path clip-path="url(#p2c147b39c4)" d="M 379.833962 557.134342 
L 379.833962 311.213129 
" style="fill:none;stroke:#64b5cd;stroke-width:0.5;"/>
    <path clip-path="url(#p2c147b39c4)" d="M 526.628571 538.597662 
L 526.628571 292.536237 
" style="fill:none;stroke:#64b5cd;stroke-width:0.5;"/>
    <path clip-path="url(#p2c147b39c4)" d="M 302.118301 555.685566 
L 302.118301 309.202277 
" style="fill:none;stroke:#64b5cd;stroke-width:0.5;"/>
    <path clip-path="url(#p2c147b39c4)" d="M 441.957029 568.388688 
L 441.957029 322.485633 
" style="fill:none;stroke:#64b5cd;stroke-width:0.5;"/>
    <path clip-path="url(#p2c147b39c4)" d="M 514.596226 552.495353 
L 514.596226 306.542327 
" style="fill:none;stroke:#64b5cd;stroke-width:0.5;"/>
    <path clip-path="url(#p2c147b39c4)" d="M 421.94717 555.761708 
L 421.94717 309.719173 
" style="fill:none;stroke:#64b5cd;stroke-width:0.5;"/>
    <path clip-path="url(#p2c147b39c4)" d="M 554.465848 536.799002 
L 554.465848 290.856358 
" style="fill:none;stroke:#64b5cd;stroke-width:0.5;"/>
    <path clip-path="url(#p2c147b39c4)" d="M 349.698682 562.782728 
L 349.698682 316.719798 
" style="fill:none;stroke:#64b5cd;stroke-width:0.5;"/>
    <path clip-path="url(#p2c147b39c4)" d="M 472.483019 519.878669 
L 472.483019 273.937368 
" style="fill:none;stroke:#64b5cd;stroke-width:0.5;"/>
    <path clip-path="url(#p2c147b39c4)" d="M 416.893585 560.978124 
L 416.893585 315.034945 
" style="fill:none;stroke:#64b5cd;stroke-width:0.5;"/>
    <path clip-path="url(#p2c147b39c4)" d="M 991.218646 511.48955 
L 991.218646 265.541182 
" style="fill:none;stroke:#64b5cd;stroke-width:0.5;"/>
    <path clip-path="url(#p2c147b39c4)" d="M 410.337583 553.536372 
L 410.337583 307.234176 
" style="fill:none;stroke:#64b5cd;stroke-width:0.5;"/>
    <path clip-path="url(#p2c147b39c4)" d="M 573.554717 552.58493 
L 573.554717 306.304769 
" style="fill:none;stroke:#64b5cd;stroke-width:0.5;"/>
    <path clip-path="url(#p2c147b39c4)" d="M 504.580112 526.855718 
L 504.580112 280.69461 
" style="fill:none;stroke:#64b5cd;stroke-width:0.5;"/>
    <path clip-path="url(#p2c147b39c4)" d="M 320.875472 573.626329 
L 320.875472 327.611426 
" style="fill:none;stroke:#64b5cd;stroke-width:0.5;"/>
    <path clip-path="url(#p2c147b39c4)" d="M 231.888433 585.404011 
L 231.888433 338.917901 
" style="fill:none;stroke:#64b5cd;stroke-width:0.5;"/>
    <path clip-path="url(#p2c147b39c4)" d="M 245.071698 530.885544 
L 245.071698 284.875645 
" style="fill:none;stroke:#64b5cd;stroke-width:0.5;"/>
    <path clip-path="url(#p2c147b39c4)" d="M 456.592881 516.039066 
L 456.592881 269.820432 
" style="fill:none;stroke:#64b5cd;stroke-width:0.5;"/>
    <path clip-path="url(#p2c147b39c4)" d="M 479.619761 570.189598 
L 479.619761 324.055254 
" style="fill:none;stroke:#64b5cd;stroke-width:0.5;"/>
    <path clip-path="url(#p2c147b39c4)" d="M 304.030189 568.548793 
L 304.030189 322.565937 
" style="fill:none;stroke:#64b5cd;stroke-width:0.5;"/>
    <path clip-path="url(#p2c147b39c4)" d="M 295.607547 537.008219 
L 295.607547 291.108643 
" style="fill:none;stroke:#64b5cd;stroke-width:0.5;"/>
    <path clip-path="url(#p2c147b39c4)" d="M 304.354136 573.147332 
L 304.354136 327.06739 
" style="fill:none;stroke:#64b5cd;stroke-width:0.5;"/>
    <path clip-path="url(#p2c147b39c4)" d="M 447.215094 549.956031 
L 447.215094 304.03127 
" style="fill:none;stroke:#64b5cd;stroke-width:0.5;"/>
    <path clip-path="url(#p2c147b39c4)" d="M 767.275472 536.465938 
L 767.275472 290.419322 
" style="fill:none;stroke:#64b5cd;stroke-width:0.5;"/>
    <path clip-path="url(#p2c147b39c4)" d="M 362.988679 578.941829 
L 362.988679 333.024663 
" style="fill:none;stroke:#64b5cd;stroke-width:0.5;"/>
    <path clip-path="url(#p2c147b39c4)" d="M 339.622642 524.447546 
L 339.622642 277.135384 
" style="fill:none;stroke:#64b5cd;stroke-width:0.5;"/>
    <path clip-path="url(#p2c147b39c4)" d="M 346.143396 570.496898 
L 346.143396 324.567301 
" style="fill:none;stroke:#64b5cd;stroke-width:0.5;"/>
    <path clip-path="url(#p2c147b39c4)" d="M 447.215094 539.909424 
L 447.215094 293.902047 
" style="fill:none;stroke:#64b5cd;stroke-width:0.5;"/>
    <path clip-path="url(#p2c147b39c4)" d="M 220.569468 558.572865 
L 220.569468 312.635577 
" style="fill:none;stroke:#64b5cd;stroke-width:0.5;"/>
    <path clip-path="url(#p2c147b39c4)" d="M 699.89434 534.257666 
L 699.89434 288.350453 
" style="fill:none;stroke:#64b5cd;stroke-width:0.5;"/>
    <path clip-path="url(#p2c147b39c4)" d="M 373.32234 577.0859 
L 373.32234 329.594448 
" style="fill:none;stroke:#64b5cd;stroke-width:0.5;"/>
    <path clip-path="url(#p2c147b39c4)" d="M 845.654764 543.587111 
L 845.654764 297.696256 
" style="fill:none;stroke:#64b5cd;stroke-width:0.5;"/>
    <path clip-path="url(#p2c147b39c4)" d="M 671.919137 464.028057 
L 671.919137 218.087982 
" style="fill:none;stroke:#64b5cd;stroke-width:0.5;"/>
    <path clip-path="url(#p2c147b39c4)" d="M 410.777229 547.292021 
L 410.777229 300.694695 
" style="fill:none;stroke:#64b5cd;stroke-width:0.5;"/>
    <path clip-path="url(#p2c147b39c4)" d="M 649.358491 555.636552 
L 649.358491 309.68019 
" style="fill:none;stroke:#64b5cd;stroke-width:0.5;"/>
    <path clip-path="url(#p2c147b39c4)" d="M 228.226415 590.924911 
L 228.226415 344.406761 
" style="fill:none;stroke:#64b5cd;stroke-width:0.5;"/>
    <path clip-path="url(#p2c147b39c4)" d="M 304.525638 511.95385 
L 304.525638 264.219297 
" style="fill:none;stroke:#64b5cd;stroke-width:0.5;"/>
    <path clip-path="url(#p2c147b39c4)" d="M 871.716226 358.000117 
L 871.716226 111.109091 
" style="fill:none;stroke:#64b5cd;stroke-width:0.5;"/>
    <path clip-path="url(#p2c147b39c4)" d="M 486.520755 551.654702 
L 486.520755 304.863589 
" style="fill:none;stroke:#64b5cd;stroke-width:0.5;"/>
    <path clip-path="url(#p2c147b39c4)" d="M 413.524528 508.498807 
L 413.524528 260.884456 
" style="fill:none;stroke:#64b5cd;stroke-width:0.5;"/>
    <path clip-path="url(#p2c147b39c4)" d="M 144 576.225867 
L 144 329.714149 
" style="fill:none;stroke:#64b5cd;stroke-width:0.5;"/>
    <path clip-path="url(#p2c147b39c4)" d="M 234.964528 550.545709 
L 234.964528 304.023191 
" style="fill:none;stroke:#64b5cd;stroke-width:0.5;"/>
    <path clip-path="url(#p2c147b39c4)" d="M 466.448888 566.97417 
L 466.448888 321.046604 
" style="fill:none;stroke:#64b5cd;stroke-width:0.5;"/>
    <path clip-path="url(#p2c147b39c4)" d="M 338.177154 582.038297 
L 338.177154 335.190703 
" style="fill:none;stroke:#64b5cd;stroke-width:0.5;"/>
    <path clip-path="url(#p2c147b39c4)" d="M 517.965283 528.003562 
L 517.965283 282.097159 
" style="fill:none;stroke:#64b5cd;stroke-width:0.5;"/>
    <path clip-path="url(#p2c147b39c4)" d="M 144 537.334926 
L 144 291.254215 
" style="fill:none;stroke:#64b5cd;stroke-width:0.5;"/>
    <path clip-path="url(#p2c147b39c4)" d="M 409.313208 506.784438 
L 409.313208 260.861693 
" style="fill:none;stroke:#64b5cd;stroke-width:0.5;"/>
    <path clip-path="url(#p2c147b39c4)" d="M 447.215094 578.214714 
L 447.215094 331.352088 
" style="fill:none;stroke:#64b5cd;stroke-width:0.5;"/>
    <path clip-path="url(#p2c147b39c4)" d="M 144 580.520156 
L 144 333.01787 
" style="fill:none;stroke:#64b5cd;stroke-width:0.5;"/>
    <path clip-path="url(#p2c147b39c4)" d="M 489.328302 504.387585 
L 489.328302 258.396288 
" style="fill:none;stroke:#64b5cd;stroke-width:0.5;"/>
    <path clip-path="url(#p2c147b39c4)" d="M 1003.109434 566.487184 
L 1003.109434 320.549623 
" style="fill:none;stroke:#64b5cd;stroke-width:0.5;"/>
    <path clip-path="url(#p2c147b39c4)" d="M 309.548471 515.999991 
L 309.548471 270.057922 
" style="fill:none;stroke:#64b5cd;stroke-width:0.5;"/>
    <path clip-path="url(#p2c147b39c4)" d="M 280.583376 579.972044 
L 280.583376 332.649402 
" style="fill:none;stroke:#64b5cd;stroke-width:0.5;"/>
    <path clip-path="url(#p2c147b39c4)" d="M 379.833962 587.578756 
L 379.833962 341.648378 
" style="fill:none;stroke:#64b5cd;stroke-width:0.5;"/>
    <path clip-path="url(#p2c147b39c4)" d="M 864.135849 501.240293 
L 864.135849 254.024161 
" style="fill:none;stroke:#64b5cd;stroke-width:0.5;"/>
    <path clip-path="url(#p2c147b39c4)" d="M 523.018868 509.300071 
L 523.018868 263.288868 
" style="fill:none;stroke:#64b5cd;stroke-width:0.5;"/>
    <path clip-path="url(#p2c147b39c4)" d="M 740.826091 537.42335 
L 740.826091 291.508341 
" style="fill:none;stroke:#64b5cd;stroke-width:0.5;"/>
    <path clip-path="url(#p2c147b39c4)" d="M 369.36257 506.524759 
L 369.36257 260.578899 
" style="fill:none;stroke:#64b5cd;stroke-width:0.5;"/>
    <path clip-path="url(#p2c147b39c4)" d="M 447.215094 555.483652 
L 447.215094 309.549235 
" style="fill:none;stroke:#64b5cd;stroke-width:0.5;"/>
    <path clip-path="url(#p2c147b39c4)" d="M 237.852291 556.221078 
L 237.852291 310.2577 
" style="fill:none;stroke:#64b5cd;stroke-width:0.5;"/>
    <path clip-path="url(#p2c147b39c4)" d="M 356.250566 562.94202 
L 356.250566 316.773905 
" style="fill:none;stroke:#64b5cd;stroke-width:0.5;"/>
    <path clip-path="url(#p2c147b39c4)" d="M 259.144973 505.637429 
L 259.144973 259.693924 
" style="fill:none;stroke:#64b5cd;stroke-width:0.5;"/>
    <path clip-path="url(#p2c147b39c4)" d="M 144 574.40201 
L 144 328.123605 
" style="fill:none;stroke:#64b5cd;stroke-width:0.5;"/>
    <path clip-path="url(#p2c147b39c4)" d="M 288.38814 596.45692 
L 288.38814 349.364836 
" style="fill:none;stroke:#64b5cd;stroke-width:0.5;"/>
    <path clip-path="url(#p2c147b39c4)" d="M 229.492978 572.756148 
L 229.492978 326.65311 
" style="fill:none;stroke:#64b5cd;stroke-width:0.5;"/>
    <path clip-path="url(#p2c147b39c4)" d="M 162.488725 558.652335 
L 162.488725 312.732043 
" style="fill:none;stroke:#64b5cd;stroke-width:0.5;"/>
    <path clip-path="url(#p2c147b39c4)" d="M 255.178868 571.361044 
L 255.178868 325.396922 
" style="fill:none;stroke:#64b5cd;stroke-width:0.5;"/>
    <path clip-path="url(#p2c147b39c4)" d="M 401.446778 573.019151 
L 401.446778 327.032364 
" style="fill:none;stroke:#64b5cd;stroke-width:0.5;"/>
    <path clip-path="url(#p2c147b39c4)" d="M 436.385984 544.652127 
L 436.385984 298.736942 
" style="fill:none;stroke:#64b5cd;stroke-width:0.5;"/>
    <path clip-path="url(#p2c147b39c4)" d="M 457.980127 541.331403 
L 457.980127 295.334619 
" style="fill:none;stroke:#64b5cd;stroke-width:0.5;"/>
    <path clip-path="url(#p2c147b39c4)" d="M 295.607547 538.247953 
L 295.607547 292.333404 
" style="fill:none;stroke:#64b5cd;stroke-width:0.5;"/>
    <path clip-path="url(#p2c147b39c4)" d="M 389.970947 551.063912 
L 389.970947 304.917723 
" style="fill:none;stroke:#64b5cd;stroke-width:0.5;"/>
    <path clip-path="url(#p2c147b39c4)" d="M 329.298113 549.093312 
L 329.298113 301.892237 
" style="fill:none;stroke:#64b5cd;stroke-width:0.5;"/>
    <path clip-path="url(#p2c147b39c4)" d="M 1036.8 447.504789 
L 1036.8 201.202732 
" style="fill:none;stroke:#64b5cd;stroke-width:0.5;"/>
    <path clip-path="url(#p2c147b39c4)" d="M 558.393962 570.15095 
L 558.393962 324.208508 
" style="fill:none;stroke:#64b5cd;stroke-width:0.5;"/>
    <path clip-path="url(#p2c147b39c4)" d="M 634.752754 543.48199 
L 634.752754 297.47941 
" style="fill:none;stroke:#64b5cd;stroke-width:0.5;"/>
   </g>
   <g id="LineCollection_2">
    <path clip-path="url(#p2c147b39c4)" d="M 531.717662 594.522743 
L 531.717662 348.357796 
" style="fill:none;stroke:#8172b3;stroke-width:0.5;"/>
    <path clip-path="url(#p2c147b39c4)" d="M 406.786415 577.897147 
L 406.786415 330.665011 
" style="fill:none;stroke:#8172b3;stroke-width:0.5;"/>
    <path clip-path="url(#p2c147b39c4)" d="M 640.935849 551.052954 
L 640.935849 305.130599 
" style="fill:none;stroke:#8172b3;stroke-width:0.5;"/>
    <path clip-path="url(#p2c147b39c4)" d="M 302.54384 565.438487 
L 302.54384 319.542011 
" style="fill:none;stroke:#8172b3;stroke-width:0.5;"/>
    <path clip-path="url(#p2c147b39c4)" d="M 276.794932 586.564607 
L 276.794932 340.663024 
" style="fill:none;stroke:#8172b3;stroke-width:0.5;"/>
    <path clip-path="url(#p2c147b39c4)" d="M 672.329331 580.46191 
L 672.329331 333.060892 
" style="fill:none;stroke:#8172b3;stroke-width:0.5;"/>
    <path clip-path="url(#p2c147b39c4)" d="M 373.708405 551.142059 
L 373.708405 304.619211 
" style="fill:none;stroke:#8172b3;stroke-width:0.5;"/>
    <path clip-path="url(#p2c147b39c4)" d="M 355.742384 510.137242 
L 355.742384 264.205098 
" style="fill:none;stroke:#8172b3;stroke-width:0.5;"/>
    <path clip-path="url(#p2c147b39c4)" d="M 144 512.609886 
L 144 266.681341 
" style="fill:none;stroke:#8172b3;stroke-width:0.5;"/>
    <path clip-path="url(#p2c147b39c4)" d="M 413.524528 555.657471 
L 413.524528 309.724818 
" style="fill:none;stroke:#8172b3;stroke-width:0.5;"/>
    <path clip-path="url(#p2c147b39c4)" d="M 658.893556 520.80279 
L 658.893556 273.264756 
" style="fill:none;stroke:#8172b3;stroke-width:0.5;"/>
    <path clip-path="url(#p2c147b39c4)" d="M 388.256604 576.320165 
L 388.256604 329.647008 
" style="fill:none;stroke:#8172b3;stroke-width:0.5;"/>
    <path clip-path="url(#p2c147b39c4)" d="M 430.369811 532.562436 
L 430.369811 286.610186 
" style="fill:none;stroke:#8172b3;stroke-width:0.5;"/>
    <path clip-path="url(#p2c147b39c4)" d="M 320.875472 581.539669 
L 320.875472 335.175998 
" style="fill:none;stroke:#8172b3;stroke-width:0.5;"/>
    <path clip-path="url(#p2c147b39c4)" d="M 514.596226 540.157178 
L 514.596226 293.864983 
" style="fill:none;stroke:#8172b3;stroke-width:0.5;"/>
    <path clip-path="url(#p2c147b39c4)" d="M 544.945579 555.649878 
L 544.945579 309.7409 
" style="fill:none;stroke:#8172b3;stroke-width:0.5;"/>
    <path clip-path="url(#p2c147b39c4)" d="M 674.626415 549.538268 
L 674.626415 303.14795 
" style="fill:none;stroke:#8172b3;stroke-width:0.5;"/>
    <path clip-path="url(#p2c147b39c4)" d="M 219.803774 594.610313 
L 219.803774 348.664675 
" style="fill:none;stroke:#8172b3;stroke-width:0.5;"/>
    <path clip-path="url(#p2c147b39c4)" d="M 312.45283 563.791551 
L 312.45283 317.848524 
" style="fill:none;stroke:#8172b3;stroke-width:0.5;"/>
    <path clip-path="url(#p2c147b39c4)" d="M 431.320755 482.115872 
L 431.320755 235.992866 
" style="fill:none;stroke:#8172b3;stroke-width:0.5;"/>
    <path clip-path="url(#p2c147b39c4)" d="M 553.750127 586.621813 
L 553.750127 340.706188 
" style="fill:none;stroke:#8172b3;stroke-width:0.5;"/>
    <path clip-path="url(#p2c147b39c4)" d="M 320.875472 550.683272 
L 320.875472 304.02164 
" style="fill:none;stroke:#8172b3;stroke-width:0.5;"/>
    <path clip-path="url(#p2c147b39c4)" d="M 270.339623 580.2078 
L 270.339623 332.812568 
" style="fill:none;stroke:#8172b3;stroke-width:0.5;"/>
    <path clip-path="url(#p2c147b39c4)" d="M 270.339623 530.588129 
L 270.339623 284.657924 
" style="fill:none;stroke:#8172b3;stroke-width:0.5;"/>
    <path clip-path="url(#p2c147b39c4)" d="M 548.286792 546.814428 
L 548.286792 300.845499 
" style="fill:none;stroke:#8172b3;stroke-width:0.5;"/>
    <path clip-path="url(#p2c147b39c4)" d="M 527.375407 554.760526 
L 527.375407 308.417567 
" style="fill:none;stroke:#8172b3;stroke-width:0.5;"/>
    <path clip-path="url(#p2c147b39c4)" d="M 464.060377 552.497066 
L 464.060377 306.515541 
" style="fill:none;stroke:#8172b3;stroke-width:0.5;"/>
    <path clip-path="url(#p2c147b39c4)" d="M 144 599.143872 
L 144 351.969484 
" style="fill:none;stroke:#8172b3;stroke-width:0.5;"/>
    <path clip-path="url(#p2c147b39c4)" d="M 497.750943 559.425531 
L 497.750943 313.509418 
" style="fill:none;stroke:#8172b3;stroke-width:0.5;"/>
    <path clip-path="url(#p2c147b39c4)" d="M 312.45283 586.658894 
L 312.45283 340.033365 
" style="fill:none;stroke:#8172b3;stroke-width:0.5;"/>
    <path clip-path="url(#p2c147b39c4)" d="M 235.883362 581.301992 
L 235.883362 335.350003 
" style="fill:none;stroke:#8172b3;stroke-width:0.5;"/>
    <path clip-path="url(#p2c147b39c4)" d="M 559.190793 502.120896 
L 559.190793 254.561023 
" style="fill:none;stroke:#8172b3;stroke-width:0.5;"/>
    <path clip-path="url(#p2c147b39c4)" d="M 699.89434 507.829125 
L 699.89434 261.825926 
" style="fill:none;stroke:#8172b3;stroke-width:0.5;"/>
    <path clip-path="url(#p2c147b39c4)" d="M 528.565486 574.834099 
L 528.565486 327.423567 
" style="fill:none;stroke:#8172b3;stroke-width:0.5;"/>
    <path clip-path="url(#p2c147b39c4)" d="M 214.750189 589.35776 
L 214.750189 343.041021 
" style="fill:none;stroke:#8172b3;stroke-width:0.5;"/>
    <path clip-path="url(#p2c147b39c4)" d="M 326.593031 584.073398 
L 326.593031 338.142563 
" style="fill:none;stroke:#8172b3;stroke-width:0.5;"/>
    <path clip-path="url(#p2c147b39c4)" d="M 346.143396 489.807488 
L 346.143396 243.901884 
" style="fill:none;stroke:#8172b3;stroke-width:0.5;"/>
    <path clip-path="url(#p2c147b39c4)" d="M 586.188679 516.794044 
L 586.188679 269.668925 
" style="fill:none;stroke:#8172b3;stroke-width:0.5;"/>
    <path clip-path="url(#p2c147b39c4)" d="M 557.475129 573.704387 
L 557.475129 326.411279 
" style="fill:none;stroke:#8172b3;stroke-width:0.5;"/>
    <path clip-path="url(#p2c147b39c4)" d="M 352.460377 563.568302 
L 352.460377 317.658728 
" style="fill:none;stroke:#8172b3;stroke-width:0.5;"/>
    <path clip-path="url(#p2c147b39c4)" d="M 457.322264 490.287342 
L 457.322264 244.334858 
" style="fill:none;stroke:#8172b3;stroke-width:0.5;"/>
    <path clip-path="url(#p2c147b39c4)" d="M 689.189702 543.439668 
L 689.189702 297.495617 
" style="fill:none;stroke:#8172b3;stroke-width:0.5;"/>
    <path clip-path="url(#p2c147b39c4)" d="M 613.12524 509.338043 
L 613.12524 263.24525 
" style="fill:none;stroke:#8172b3;stroke-width:0.5;"/>
    <path clip-path="url(#p2c147b39c4)" d="M 342.984906 444.630532 
L 342.984906 197.667767 
" style="fill:none;stroke:#8172b3;stroke-width:0.5;"/>
    <path clip-path="url(#p2c147b39c4)" d="M 315.821887 584.040834 
L 315.821887 338.075478 
" style="fill:none;stroke:#8172b3;stroke-width:0.5;"/>
    <path clip-path="url(#p2c147b39c4)" d="M 409.313208 585.952461 
L 409.313208 339.869639 
" style="fill:none;stroke:#8172b3;stroke-width:0.5;"/>
    <path clip-path="url(#p2c147b39c4)" d="M 295.607547 549.15571 
L 295.607547 302.999644 
" style="fill:none;stroke:#8172b3;stroke-width:0.5;"/>
    <path clip-path="url(#p2c147b39c4)" d="M 233.708608 565.717418 
L 233.708608 319.765519 
" style="fill:none;stroke:#8172b3;stroke-width:0.5;"/>
    <path clip-path="url(#p2c147b39c4)" d="M 681.962264 564.37932 
L 681.962264 318.418353 
" style="fill:none;stroke:#8172b3;stroke-width:0.5;"/>
    <path clip-path="url(#p2c147b39c4)" d="M 203.45394 575.345525 
L 203.45394 328.190707 
" style="fill:none;stroke:#8172b3;stroke-width:0.5;"/>
   </g>
   <g id="line2d_11">
    <path clip-path="url(#p2c147b39c4)" d="M 144 525.695106 
L 1036.8 196.717276 
" style="fill:none;stroke:#c44e52;stroke-linecap:round;stroke-width:1.5;"/>
   </g>
   <g id="line2d_12">
    <defs>
     <path d="M 0 3 
C 0.795609 3 1.55874 2.683901 2.12132 2.12132 
C 2.683901 1.55874 3 0.795609 3 0 
C 3 -0.795609 2.683901 -1.55874 2.12132 -2.12132 
C 1.55874 -2.683901 0.795609 -3 0 -3 
C -0.795609 -3 -1.55874 -2.683901 -2.12132 -2.12132 
C -2.683901 -1.55874 -3 -0.795609 -3 0 
C -3 0.795609 -2.683901 1.55874 -2.12132 2.12132 
C -1.55874 2.683901 -0.795609 3 0 3 
z
" id="mdb78d11d63" style="stroke:#64b5cd;"/>
    </defs>
    <g clip-path="url(#p2c147b39c4)">
     <use style="fill:#64b5cd;stroke:#64b5cd;" x="437.107925" xlink:href="#mdb78d11d63" y="363.291747"/>
     <use style="fill:#64b5cd;stroke:#64b5cd;" x="267.955856" xlink:href="#mdb78d11d63" y="466.735581"/>
     <use style="fill:#64b5cd;stroke:#64b5cd;" x="144" xlink:href="#mdb78d11d63" y="442.628952"/>
     <use style="fill:#64b5cd;stroke:#64b5cd;" x="663.016828" xlink:href="#mdb78d11d63" y="430.3518"/>
     <use style="fill:#64b5cd;stroke:#64b5cd;" x="843.079245" xlink:href="#mdb78d11d63" y="371.537497"/>
     <use style="fill:#64b5cd;stroke:#64b5cd;" x="317.716981" xlink:href="#mdb78d11d63" y="458.043733"/>
     <use style="fill:#64b5cd;stroke:#64b5cd;" x="329.298113" xlink:href="#mdb78d11d63" y="437.210679"/>
     <use style="fill:#64b5cd;stroke:#64b5cd;" x="339.622642" xlink:href="#mdb78d11d63" y="437.755036"/>
     <use style="fill:#64b5cd;stroke:#64b5cd;" x="506.173585" xlink:href="#mdb78d11d63" y="452.000107"/>
     <use style="fill:#64b5cd;stroke:#64b5cd;" x="440.068611" xlink:href="#mdb78d11d63" y="384.663014"/>
     <use style="fill:#64b5cd;stroke:#64b5cd;" x="204.643019" xlink:href="#mdb78d11d63" y="451.191946"/>
     <use style="fill:#64b5cd;stroke:#64b5cd;" x="278.762264" xlink:href="#mdb78d11d63" y="443.544727"/>
     <use style="fill:#64b5cd;stroke:#64b5cd;" x="144" xlink:href="#mdb78d11d63" y="464.947197"/>
     <use style="fill:#64b5cd;stroke:#64b5cd;" x="817.811321" xlink:href="#mdb78d11d63" y="429.642872"/>
     <use style="fill:#64b5cd;stroke:#64b5cd;" x="434.581132" xlink:href="#mdb78d11d63" y="372.174829"/>
     <use style="fill:#64b5cd;stroke:#64b5cd;" x="473.398013" xlink:href="#mdb78d11d63" y="390.173035"/>
     <use style="fill:#64b5cd;stroke:#64b5cd;" x="393.069542" xlink:href="#mdb78d11d63" y="432.355339"/>
     <use style="fill:#64b5cd;stroke:#64b5cd;" x="376.57976" xlink:href="#mdb78d11d63" y="458.23523"/>
     <use style="fill:#64b5cd;stroke:#64b5cd;" x="144" xlink:href="#mdb78d11d63" y="383.672736"/>
     <use style="fill:#64b5cd;stroke:#64b5cd;" x="189.121294" xlink:href="#mdb78d11d63" y="445.27031"/>
     <use style="fill:#64b5cd;stroke:#64b5cd;" x="342.080212" xlink:href="#mdb78d11d63" y="433.045837"/>
     <use style="fill:#64b5cd;stroke:#64b5cd;" x="672.491098" xlink:href="#mdb78d11d63" y="435.695309"/>
     <use style="fill:#64b5cd;stroke:#64b5cd;" x="463.975728" xlink:href="#mdb78d11d63" y="441.231506"/>
     <use style="fill:#64b5cd;stroke:#64b5cd;" x="165.453898" xlink:href="#mdb78d11d63" y="468.817457"/>
     <use style="fill:#64b5cd;stroke:#64b5cd;" x="484.567678" xlink:href="#mdb78d11d63" y="460.522343"/>
     <use style="fill:#64b5cd;stroke:#64b5cd;" x="278.762264" xlink:href="#mdb78d11d63" y="404.674953"/>
     <use style="fill:#64b5cd;stroke:#64b5cd;" x="245.071698" xlink:href="#mdb78d11d63" y="419.09911"/>
     <use style="fill:#64b5cd;stroke:#64b5cd;" x="699.89434" xlink:href="#mdb78d11d63" y="312.389235"/>
     <use style="fill:#64b5cd;stroke:#64b5cd;" x="384.045283" xlink:href="#mdb78d11d63" y="440.423713"/>
     <use style="fill:#64b5cd;stroke:#64b5cd;" x="649.358491" xlink:href="#mdb78d11d63" y="424.457904"/>
     <use style="fill:#64b5cd;stroke:#64b5cd;" x="263.44837" xlink:href="#mdb78d11d63" y="479.829347"/>
     <use style="fill:#64b5cd;stroke:#64b5cd;" x="608.298113" xlink:href="#mdb78d11d63" y="418.143032"/>
     <use style="fill:#64b5cd;stroke:#64b5cd;" x="252.660699" xlink:href="#mdb78d11d63" y="481.570787"/>
     <use style="fill:#64b5cd;stroke:#64b5cd;" x="649.358491" xlink:href="#mdb78d11d63" y="401.817233"/>
     <use style="fill:#64b5cd;stroke:#64b5cd;" x="388.528302" xlink:href="#mdb78d11d63" y="443.951618"/>
     <use style="fill:#64b5cd;stroke:#64b5cd;" x="568.501132" xlink:href="#mdb78d11d63" y="423.41217"/>
     <use style="fill:#64b5cd;stroke:#64b5cd;" x="176.958162" xlink:href="#mdb78d11d63" y="468.191465"/>
     <use style="fill:#64b5cd;stroke:#64b5cd;" x="181.901887" xlink:href="#mdb78d11d63" y="424.403729"/>
     <use style="fill:#64b5cd;stroke:#64b5cd;" x="144" xlink:href="#mdb78d11d63" y="471.728488"/>
     <use style="fill:#64b5cd;stroke:#64b5cd;" x="317.425607" xlink:href="#mdb78d11d63" y="443.626982"/>
     <use style="fill:#64b5cd;stroke:#64b5cd;" x="223.625813" xlink:href="#mdb78d11d63" y="448.10066"/>
     <use style="fill:#64b5cd;stroke:#64b5cd;" x="228.226415" xlink:href="#mdb78d11d63" y="434.720834"/>
     <use style="fill:#64b5cd;stroke:#64b5cd;" x="389.376377" xlink:href="#mdb78d11d63" y="458.994999"/>
     <use style="fill:#64b5cd;stroke:#64b5cd;" x="657.223992" xlink:href="#mdb78d11d63" y="424.648296"/>
     <use style="fill:#64b5cd;stroke:#64b5cd;" x="496.698113" xlink:href="#mdb78d11d63" y="420.302"/>
     <use style="fill:#64b5cd;stroke:#64b5cd;" x="406.214311" xlink:href="#mdb78d11d63" y="390.538619"/>
     <use style="fill:#64b5cd;stroke:#64b5cd;" x="481.739585" xlink:href="#mdb78d11d63" y="440.207866"/>
     <use style="fill:#64b5cd;stroke:#64b5cd;" x="487.0035" xlink:href="#mdb78d11d63" y="412.167635"/>
     <use style="fill:#64b5cd;stroke:#64b5cd;" x="497.524325" xlink:href="#mdb78d11d63" y="433.178117"/>
     <use style="fill:#64b5cd;stroke:#64b5cd;" x="364.075472" xlink:href="#mdb78d11d63" y="416.005838"/>
     <use style="fill:#64b5cd;stroke:#64b5cd;" x="355.099116" xlink:href="#mdb78d11d63" y="440.808969"/>
     <use style="fill:#64b5cd;stroke:#64b5cd;" x="144" xlink:href="#mdb78d11d63" y="420.300272"/>
     <use style="fill:#64b5cd;stroke:#64b5cd;" x="649.358491" xlink:href="#mdb78d11d63" y="419.937113"/>
     <use style="fill:#64b5cd;stroke:#64b5cd;" x="199.130017" xlink:href="#mdb78d11d63" y="440.9443"/>
     <use style="fill:#64b5cd;stroke:#64b5cd;" x="144" xlink:href="#mdb78d11d63" y="442.118198"/>
     <use style="fill:#64b5cd;stroke:#64b5cd;" x="548.286792" xlink:href="#mdb78d11d63" y="421.201773"/>
     <use style="fill:#64b5cd;stroke:#64b5cd;" x="510.384906" xlink:href="#mdb78d11d63" y="387.664336"/>
     <use style="fill:#64b5cd;stroke:#64b5cd;" x="537.056604" xlink:href="#mdb78d11d63" y="418.499945"/>
     <use style="fill:#64b5cd;stroke:#64b5cd;" x="312.45283" xlink:href="#mdb78d11d63" y="448.712298"/>
     <use style="fill:#64b5cd;stroke:#64b5cd;" x="540.160425" xlink:href="#mdb78d11d63" y="414.003352"/>
     <use style="fill:#64b5cd;stroke:#64b5cd;" x="548.286792" xlink:href="#mdb78d11d63" y="359.78302"/>
     <use style="fill:#64b5cd;stroke:#64b5cd;" x="413.524528" xlink:href="#mdb78d11d63" y="435.80897"/>
     <use style="fill:#64b5cd;stroke:#64b5cd;" x="380.886792" xlink:href="#mdb78d11d63" y="336.717337"/>
     <use style="fill:#64b5cd;stroke:#64b5cd;" x="248.556929" xlink:href="#mdb78d11d63" y="460.077841"/>
     <use style="fill:#64b5cd;stroke:#64b5cd;" x="466.166038" xlink:href="#mdb78d11d63" y="446.13067"/>
     <use style="fill:#64b5cd;stroke:#64b5cd;" x="264.482819" xlink:href="#mdb78d11d63" y="457.366014"/>
     <use style="fill:#64b5cd;stroke:#64b5cd;" x="243.306254" xlink:href="#mdb78d11d63" y="465.578056"/>
     <use style="fill:#64b5cd;stroke:#64b5cd;" x="559.91451" xlink:href="#mdb78d11d63" y="452.080378"/>
     <use style="fill:#64b5cd;stroke:#64b5cd;" x="318.067925" xlink:href="#mdb78d11d63" y="458.765926"/>
     <use style="fill:#64b5cd;stroke:#64b5cd;" x="144" xlink:href="#mdb78d11d63" y="435.025083"/>
     <use style="fill:#64b5cd;stroke:#64b5cd;" x="348.702173" xlink:href="#mdb78d11d63" y="433.287968"/>
     <use style="fill:#64b5cd;stroke:#64b5cd;" x="333.509434" xlink:href="#mdb78d11d63" y="459.267181"/>
     <use style="fill:#64b5cd;stroke:#64b5cd;" x="144" xlink:href="#mdb78d11d63" y="461.208585"/>
     <use style="fill:#64b5cd;stroke:#64b5cd;" x="465.99833" xlink:href="#mdb78d11d63" y="448.405776"/>
     <use style="fill:#64b5cd;stroke:#64b5cd;" x="379.833962" xlink:href="#mdb78d11d63" y="434.173736"/>
     <use style="fill:#64b5cd;stroke:#64b5cd;" x="526.628571" xlink:href="#mdb78d11d63" y="415.56695"/>
     <use style="fill:#64b5cd;stroke:#64b5cd;" x="302.118301" xlink:href="#mdb78d11d63" y="432.443921"/>
     <use style="fill:#64b5cd;stroke:#64b5cd;" x="441.957029" xlink:href="#mdb78d11d63" y="445.43716"/>
     <use style="fill:#64b5cd;stroke:#64b5cd;" x="514.596226" xlink:href="#mdb78d11d63" y="429.51884"/>
     <use style="fill:#64b5cd;stroke:#64b5cd;" x="421.94717" xlink:href="#mdb78d11d63" y="432.740441"/>
     <use style="fill:#64b5cd;stroke:#64b5cd;" x="554.465848" xlink:href="#mdb78d11d63" y="413.82768"/>
     <use style="fill:#64b5cd;stroke:#64b5cd;" x="349.698682" xlink:href="#mdb78d11d63" y="439.751263"/>
     <use style="fill:#64b5cd;stroke:#64b5cd;" x="472.483019" xlink:href="#mdb78d11d63" y="396.908019"/>
     <use style="fill:#64b5cd;stroke:#64b5cd;" x="416.893585" xlink:href="#mdb78d11d63" y="438.006534"/>
     <use style="fill:#64b5cd;stroke:#64b5cd;" x="991.218646" xlink:href="#mdb78d11d63" y="388.515366"/>
     <use style="fill:#64b5cd;stroke:#64b5cd;" x="410.337583" xlink:href="#mdb78d11d63" y="430.385274"/>
     <use style="fill:#64b5cd;stroke:#64b5cd;" x="573.554717" xlink:href="#mdb78d11d63" y="429.444849"/>
     <use style="fill:#64b5cd;stroke:#64b5cd;" x="504.580112" xlink:href="#mdb78d11d63" y="403.775164"/>
     <use style="fill:#64b5cd;stroke:#64b5cd;" x="320.875472" xlink:href="#mdb78d11d63" y="450.618877"/>
     <use style="fill:#64b5cd;stroke:#64b5cd;" x="231.888433" xlink:href="#mdb78d11d63" y="462.160956"/>
     <use style="fill:#64b5cd;stroke:#64b5cd;" x="245.071698" xlink:href="#mdb78d11d63" y="407.880594"/>
     <use style="fill:#64b5cd;stroke:#64b5cd;" x="456.592881" xlink:href="#mdb78d11d63" y="392.929749"/>
     <use style="fill:#64b5cd;stroke:#64b5cd;" x="479.619761" xlink:href="#mdb78d11d63" y="447.122426"/>
     <use style="fill:#64b5cd;stroke:#64b5cd;" x="304.030189" xlink:href="#mdb78d11d63" y="445.557365"/>
     <use style="fill:#64b5cd;stroke:#64b5cd;" x="295.607547" xlink:href="#mdb78d11d63" y="414.058431"/>
     <use style="fill:#64b5cd;stroke:#64b5cd;" x="304.354136" xlink:href="#mdb78d11d63" y="450.107361"/>
     <use style="fill:#64b5cd;stroke:#64b5cd;" x="447.215094" xlink:href="#mdb78d11d63" y="426.99365"/>
     <use style="fill:#64b5cd;stroke:#64b5cd;" x="767.275472" xlink:href="#mdb78d11d63" y="413.44263"/>
     <use style="fill:#64b5cd;stroke:#64b5cd;" x="362.988679" xlink:href="#mdb78d11d63" y="455.983246"/>
     <use style="fill:#64b5cd;stroke:#64b5cd;" x="339.622642" xlink:href="#mdb78d11d63" y="400.791465"/>
     <use style="fill:#64b5cd;stroke:#64b5cd;" x="346.143396" xlink:href="#mdb78d11d63" y="447.5321"/>
     <use style="fill:#64b5cd;stroke:#64b5cd;" x="447.215094" xlink:href="#mdb78d11d63" y="416.905735"/>
     <use style="fill:#64b5cd;stroke:#64b5cd;" x="220.569468" xlink:href="#mdb78d11d63" y="435.604221"/>
     <use style="fill:#64b5cd;stroke:#64b5cd;" x="699.89434" xlink:href="#mdb78d11d63" y="411.30406"/>
     <use style="fill:#64b5cd;stroke:#64b5cd;" x="373.32234" xlink:href="#mdb78d11d63" y="453.340174"/>
     <use style="fill:#64b5cd;stroke:#64b5cd;" x="845.654764" xlink:href="#mdb78d11d63" y="420.641683"/>
     <use style="fill:#64b5cd;stroke:#64b5cd;" x="671.919137" xlink:href="#mdb78d11d63" y="341.05802"/>
     <use style="fill:#64b5cd;stroke:#64b5cd;" x="410.777229" xlink:href="#mdb78d11d63" y="423.993358"/>
     <use style="fill:#64b5cd;stroke:#64b5cd;" x="649.358491" xlink:href="#mdb78d11d63" y="432.658371"/>
     <use style="fill:#64b5cd;stroke:#64b5cd;" x="228.226415" xlink:href="#mdb78d11d63" y="467.665836"/>
     <use style="fill:#64b5cd;stroke:#64b5cd;" x="304.525638" xlink:href="#mdb78d11d63" y="388.086573"/>
     <use style="fill:#64b5cd;stroke:#64b5cd;" x="871.716226" xlink:href="#mdb78d11d63" y="234.554604"/>
     <use style="fill:#64b5cd;stroke:#64b5cd;" x="486.520755" xlink:href="#mdb78d11d63" y="428.259145"/>
     <use style="fill:#64b5cd;stroke:#64b5cd;" x="413.524528" xlink:href="#mdb78d11d63" y="384.691631"/>
     <use style="fill:#64b5cd;stroke:#64b5cd;" x="144" xlink:href="#mdb78d11d63" y="452.970008"/>
     <use style="fill:#64b5cd;stroke:#64b5cd;" x="234.964528" xlink:href="#mdb78d11d63" y="427.28445"/>
     <use style="fill:#64b5cd;stroke:#64b5cd;" x="466.448888" xlink:href="#mdb78d11d63" y="444.010387"/>
     <use style="fill:#64b5cd;stroke:#64b5cd;" x="338.177154" xlink:href="#mdb78d11d63" y="458.6145"/>
     <use style="fill:#64b5cd;stroke:#64b5cd;" x="517.965283" xlink:href="#mdb78d11d63" y="405.05036"/>
     <use style="fill:#64b5cd;stroke:#64b5cd;" x="144" xlink:href="#mdb78d11d63" y="414.294571"/>
     <use style="fill:#64b5cd;stroke:#64b5cd;" x="409.313208" xlink:href="#mdb78d11d63" y="383.823066"/>
     <use style="fill:#64b5cd;stroke:#64b5cd;" x="447.215094" xlink:href="#mdb78d11d63" y="454.783401"/>
     <use style="fill:#64b5cd;stroke:#64b5cd;" x="144" xlink:href="#mdb78d11d63" y="456.769013"/>
     <use style="fill:#64b5cd;stroke:#64b5cd;" x="489.328302" xlink:href="#mdb78d11d63" y="381.391936"/>
     <use style="fill:#64b5cd;stroke:#64b5cd;" x="1003.109434" xlink:href="#mdb78d11d63" y="443.518403"/>
     <use style="fill:#64b5cd;stroke:#64b5cd;" x="309.548471" xlink:href="#mdb78d11d63" y="393.028956"/>
     <use style="fill:#64b5cd;stroke:#64b5cd;" x="280.583376" xlink:href="#mdb78d11d63" y="456.310723"/>
     <use style="fill:#64b5cd;stroke:#64b5cd;" x="379.833962" xlink:href="#mdb78d11d63" y="464.613567"/>
     <use style="fill:#64b5cd;stroke:#64b5cd;" x="864.135849" xlink:href="#mdb78d11d63" y="377.632227"/>
     <use style="fill:#64b5cd;stroke:#64b5cd;" x="523.018868" xlink:href="#mdb78d11d63" y="386.29447"/>
     <use style="fill:#64b5cd;stroke:#64b5cd;" x="740.826091" xlink:href="#mdb78d11d63" y="414.465845"/>
     <use style="fill:#64b5cd;stroke:#64b5cd;" x="369.36257" xlink:href="#mdb78d11d63" y="383.551829"/>
     <use style="fill:#64b5cd;stroke:#64b5cd;" x="447.215094" xlink:href="#mdb78d11d63" y="432.516443"/>
     <use style="fill:#64b5cd;stroke:#64b5cd;" x="237.852291" xlink:href="#mdb78d11d63" y="433.239389"/>
     <use style="fill:#64b5cd;stroke:#64b5cd;" x="356.250566" xlink:href="#mdb78d11d63" y="439.857963"/>
     <use style="fill:#64b5cd;stroke:#64b5cd;" x="259.144973" xlink:href="#mdb78d11d63" y="382.665677"/>
     <use style="fill:#64b5cd;stroke:#64b5cd;" x="144" xlink:href="#mdb78d11d63" y="451.262807"/>
     <use style="fill:#64b5cd;stroke:#64b5cd;" x="288.38814" xlink:href="#mdb78d11d63" y="472.910878"/>
     <use style="fill:#64b5cd;stroke:#64b5cd;" x="229.492978" xlink:href="#mdb78d11d63" y="449.704629"/>
     <use style="fill:#64b5cd;stroke:#64b5cd;" x="162.488725" xlink:href="#mdb78d11d63" y="435.692189"/>
     <use style="fill:#64b5cd;stroke:#64b5cd;" x="255.178868" xlink:href="#mdb78d11d63" y="448.378983"/>
     <use style="fill:#64b5cd;stroke:#64b5cd;" x="401.446778" xlink:href="#mdb78d11d63" y="450.025758"/>
     <use style="fill:#64b5cd;stroke:#64b5cd;" x="436.385984" xlink:href="#mdb78d11d63" y="421.694535"/>
     <use style="fill:#64b5cd;stroke:#64b5cd;" x="457.980127" xlink:href="#mdb78d11d63" y="418.333011"/>
     <use style="fill:#64b5cd;stroke:#64b5cd;" x="295.607547" xlink:href="#mdb78d11d63" y="415.290678"/>
     <use style="fill:#64b5cd;stroke:#64b5cd;" x="389.970947" xlink:href="#mdb78d11d63" y="427.990818"/>
     <use style="fill:#64b5cd;stroke:#64b5cd;" x="329.298113" xlink:href="#mdb78d11d63" y="425.492775"/>
     <use style="fill:#64b5cd;stroke:#64b5cd;" x="1036.8" xlink:href="#mdb78d11d63" y="324.353761"/>
     <use style="fill:#64b5cd;stroke:#64b5cd;" x="558.393962" xlink:href="#mdb78d11d63" y="447.179729"/>
     <use style="fill:#64b5cd;stroke:#64b5cd;" x="634.752754" xlink:href="#mdb78d11d63" y="420.4807"/>
    </g>
   </g>
   <g id="line2d_13">
    <defs>
     <path d="M 0 3 
C 0.795609 3 1.55874 2.683901 2.12132 2.12132 
C 2.683901 1.55874 3 0.795609 3 0 
C 3 -0.795609 2.683901 -1.55874 2.12132 -2.12132 
C 1.55874 -2.683901 0.795609 -3 0 -3 
C -0.795609 -3 -1.55874 -2.683901 -2.12132 -2.12132 
C -2.683901 -1.55874 -3 -0.795609 -3 0 
C -3 0.795609 -2.683901 1.55874 -2.12132 2.12132 
C -1.55874 2.683901 -0.795609 3 0 3 
z
" id="m65cb1cde91" style="stroke:#8172b3;"/>
    </defs>
    <g clip-path="url(#p2c147b39c4)">
     <use style="fill:#8172b3;stroke:#8172b3;" x="531.717662" xlink:href="#m65cb1cde91" y="471.44027"/>
     <use style="fill:#8172b3;stroke:#8172b3;" x="406.786415" xlink:href="#m65cb1cde91" y="454.281079"/>
     <use style="fill:#8172b3;stroke:#8172b3;" x="640.935849" xlink:href="#m65cb1cde91" y="428.091776"/>
     <use style="fill:#8172b3;stroke:#8172b3;" x="302.54384" xlink:href="#m65cb1cde91" y="442.490249"/>
     <use style="fill:#8172b3;stroke:#8172b3;" x="276.794932" xlink:href="#m65cb1cde91" y="463.613816"/>
     <use style="fill:#8172b3;stroke:#8172b3;" x="672.329331" xlink:href="#m65cb1cde91" y="456.761401"/>
     <use style="fill:#8172b3;stroke:#8172b3;" x="373.708405" xlink:href="#m65cb1cde91" y="427.880635"/>
     <use style="fill:#8172b3;stroke:#8172b3;" x="355.742384" xlink:href="#m65cb1cde91" y="387.17117"/>
     <use style="fill:#8172b3;stroke:#8172b3;" x="144" xlink:href="#m65cb1cde91" y="389.645613"/>
     <use style="fill:#8172b3;stroke:#8172b3;" x="413.524528" xlink:href="#m65cb1cde91" y="432.691145"/>
     <use style="fill:#8172b3;stroke:#8172b3;" x="658.893556" xlink:href="#m65cb1cde91" y="397.033773"/>
     <use style="fill:#8172b3;stroke:#8172b3;" x="388.256604" xlink:href="#m65cb1cde91" y="452.983586"/>
     <use style="fill:#8172b3;stroke:#8172b3;" x="430.369811" xlink:href="#m65cb1cde91" y="409.586311"/>
     <use style="fill:#8172b3;stroke:#8172b3;" x="320.875472" xlink:href="#m65cb1cde91" y="458.357834"/>
     <use style="fill:#8172b3;stroke:#8172b3;" x="514.596226" xlink:href="#m65cb1cde91" y="417.011081"/>
     <use style="fill:#8172b3;stroke:#8172b3;" x="544.945579" xlink:href="#m65cb1cde91" y="432.695389"/>
     <use style="fill:#8172b3;stroke:#8172b3;" x="674.626415" xlink:href="#m65cb1cde91" y="426.343109"/>
     <use style="fill:#8172b3;stroke:#8172b3;" x="219.803774" xlink:href="#m65cb1cde91" y="471.637494"/>
     <use style="fill:#8172b3;stroke:#8172b3;" x="312.45283" xlink:href="#m65cb1cde91" y="440.820037"/>
     <use style="fill:#8172b3;stroke:#8172b3;" x="431.320755" xlink:href="#m65cb1cde91" y="359.054369"/>
     <use style="fill:#8172b3;stroke:#8172b3;" x="553.750127" xlink:href="#m65cb1cde91" y="463.664001"/>
     <use style="fill:#8172b3;stroke:#8172b3;" x="320.875472" xlink:href="#m65cb1cde91" y="427.352456"/>
     <use style="fill:#8172b3;stroke:#8172b3;" x="270.339623" xlink:href="#m65cb1cde91" y="456.510184"/>
     <use style="fill:#8172b3;stroke:#8172b3;" x="270.339623" xlink:href="#m65cb1cde91" y="407.623026"/>
     <use style="fill:#8172b3;stroke:#8172b3;" x="548.286792" xlink:href="#m65cb1cde91" y="423.829964"/>
     <use style="fill:#8172b3;stroke:#8172b3;" x="527.375407" xlink:href="#m65cb1cde91" y="431.589047"/>
     <use style="fill:#8172b3;stroke:#8172b3;" x="464.060377" xlink:href="#m65cb1cde91" y="429.506303"/>
     <use style="fill:#8172b3;stroke:#8172b3;" x="144" xlink:href="#m65cb1cde91" y="475.556678"/>
     <use style="fill:#8172b3;stroke:#8172b3;" x="497.750943" xlink:href="#m65cb1cde91" y="436.467474"/>
     <use style="fill:#8172b3;stroke:#8172b3;" x="312.45283" xlink:href="#m65cb1cde91" y="463.346129"/>
     <use style="fill:#8172b3;stroke:#8172b3;" x="235.883362" xlink:href="#m65cb1cde91" y="458.325997"/>
     <use style="fill:#8172b3;stroke:#8172b3;" x="559.190793" xlink:href="#m65cb1cde91" y="378.34096"/>
     <use style="fill:#8172b3;stroke:#8172b3;" x="699.89434" xlink:href="#m65cb1cde91" y="384.827525"/>
     <use style="fill:#8172b3;stroke:#8172b3;" x="528.565486" xlink:href="#m65cb1cde91" y="451.128833"/>
     <use style="fill:#8172b3;stroke:#8172b3;" x="214.750189" xlink:href="#m65cb1cde91" y="466.199391"/>
     <use style="fill:#8172b3;stroke:#8172b3;" x="326.593031" xlink:href="#m65cb1cde91" y="461.10798"/>
     <use style="fill:#8172b3;stroke:#8172b3;" x="346.143396" xlink:href="#m65cb1cde91" y="366.854686"/>
     <use style="fill:#8172b3;stroke:#8172b3;" x="586.188679" xlink:href="#m65cb1cde91" y="393.231485"/>
     <use style="fill:#8172b3;stroke:#8172b3;" x="557.475129" xlink:href="#m65cb1cde91" y="450.057833"/>
     <use style="fill:#8172b3;stroke:#8172b3;" x="352.460377" xlink:href="#m65cb1cde91" y="440.613515"/>
     <use style="fill:#8172b3;stroke:#8172b3;" x="457.322264" xlink:href="#m65cb1cde91" y="367.3111"/>
     <use style="fill:#8172b3;stroke:#8172b3;" x="689.189702" xlink:href="#m65cb1cde91" y="420.467643"/>
     <use style="fill:#8172b3;stroke:#8172b3;" x="613.12524" xlink:href="#m65cb1cde91" y="386.291646"/>
     <use style="fill:#8172b3;stroke:#8172b3;" x="342.984906" xlink:href="#m65cb1cde91" y="321.149149"/>
     <use style="fill:#8172b3;stroke:#8172b3;" x="315.821887" xlink:href="#m65cb1cde91" y="461.058156"/>
     <use style="fill:#8172b3;stroke:#8172b3;" x="409.313208" xlink:href="#m65cb1cde91" y="462.91105"/>
     <use style="fill:#8172b3;stroke:#8172b3;" x="295.607547" xlink:href="#m65cb1cde91" y="426.077677"/>
     <use style="fill:#8172b3;stroke:#8172b3;" x="233.708608" xlink:href="#m65cb1cde91" y="442.741468"/>
     <use style="fill:#8172b3;stroke:#8172b3;" x="681.962264" xlink:href="#m65cb1cde91" y="441.398837"/>
     <use style="fill:#8172b3;stroke:#8172b3;" x="203.45394" xlink:href="#m65cb1cde91" y="451.768116"/>
    </g>
   </g>
   <g id="patch_3">
    <path d="M 144 630 
L 144 86.4 
" style="fill:none;stroke:#cccccc;stroke-linecap:square;stroke-linejoin:miter;stroke-width:1.25;"/>
   </g>
   <g id="patch_4">
    <path d="M 1036.8 630 
L 1036.8 86.4 
" style="fill:none;stroke:#cccccc;stroke-linecap:square;stroke-linejoin:miter;stroke-width:1.25;"/>
   </g>
   <g id="patch_5">
    <path d="M 144 630 
L 1036.8 630 
" style="fill:none;stroke:#cccccc;stroke-linecap:square;stroke-linejoin:miter;stroke-width:1.25;"/>
   </g>
   <g id="patch_6">
    <path d="M 144 86.4 
L 1036.8 86.4 
" style="fill:none;stroke:#cccccc;stroke-linecap:square;stroke-linejoin:miter;stroke-width:1.25;"/>
   </g>
  </g>
 </g>
 <defs>
  <clipPath id="p2c147b39c4">
   <rect height="543.6" width="892.8" x="144" y="86.4"/>
  </clipPath>
 </defs>
</svg>
