<?xml version="1.0" encoding="utf-8" standalone="no"?>
<!DOCTYPE svg PUBLIC "-//W3C//DTD SVG 1.1//EN"
  "http://www.w3.org/Graphics/SVG/1.1/DTD/svg11.dtd">
<!-- Created with matplotlib (https://matplotlib.org/) -->
<svg height="288pt" version="1.1" viewBox="0 0 432 288" width="432pt" xmlns="http://www.w3.org/2000/svg" xmlns:xlink="http://www.w3.org/1999/xlink">
 <defs>
  <style type="text/css">
*{stroke-linecap:butt;stroke-linejoin:round;}
  </style>
 </defs>
 <g id="figure_1">
  <g id="patch_1">
   <path d="M 0 288 
L 432 288 
L 432 0 
L 0 0 
z
" style="fill:#ffffff;"/>
  </g>
  <g id="axes_1">
   <g id="patch_2">
    <path d="M 54 252 
L 388.8 252 
L 388.8 34.56 
L 54 34.56 
z
" style="fill:#ffffff;"/>
   </g>
   <g id="matplotlib.axis_1">
    <g id="xtick_1">
     <g id="line2d_1">
      <path clip-path="url(#p2ce06eda5d)" d="M 116.556718 252 
L 116.556718 34.56 
" style="fill:none;stroke:#cccccc;stroke-linecap:round;"/>
     </g>
     <g id="text_1">
      <!-- −2 -->
      <defs>
       <path d="M 52.828125 31.203125 
L 5.5625 31.203125 
L 5.5625 39.40625 
L 52.828125 39.40625 
z
" id="ArialMT-8722"/>
       <path d="M 50.34375 8.453125 
L 50.34375 0 
L 3.03125 0 
Q 2.9375 3.171875 4.046875 6.109375 
Q 5.859375 10.9375 9.828125 15.625 
Q 13.8125 20.3125 21.34375 26.46875 
Q 33.015625 36.03125 37.109375 41.625 
Q 41.21875 47.21875 41.21875 52.203125 
Q 41.21875 57.421875 37.46875 61 
Q 33.734375 64.59375 27.734375 64.59375 
Q 21.390625 64.59375 17.578125 60.78125 
Q 13.765625 56.984375 13.71875 50.25 
L 4.6875 51.171875 
Q 5.609375 61.28125 11.65625 66.578125 
Q 17.71875 71.875 27.9375 71.875 
Q 38.234375 71.875 44.234375 66.15625 
Q 50.25 60.453125 50.25 52 
Q 50.25 47.703125 48.484375 43.546875 
Q 46.734375 39.40625 42.65625 34.8125 
Q 38.578125 30.21875 29.109375 22.21875 
Q 21.1875 15.578125 18.9375 13.203125 
Q 16.703125 10.84375 15.234375 8.453125 
z
" id="ArialMT-50"/>
      </defs>
      <g style="fill:#262626;" transform="translate(104.014999 277.247187)scale(0.22 -0.22)">
       <use xlink:href="#ArialMT-8722"/>
       <use x="58.398438" xlink:href="#ArialMT-50"/>
      </g>
     </g>
    </g>
    <g id="xtick_2">
     <g id="line2d_2">
      <path clip-path="url(#p2ce06eda5d)" d="M 190.894365 252 
L 190.894365 34.56 
" style="fill:none;stroke:#cccccc;stroke-linecap:round;"/>
     </g>
     <g id="text_2">
      <!-- 0 -->
      <defs>
       <path d="M 4.15625 35.296875 
Q 4.15625 48 6.765625 55.734375 
Q 9.375 63.484375 14.515625 67.671875 
Q 19.671875 71.875 27.484375 71.875 
Q 33.25 71.875 37.59375 69.546875 
Q 41.9375 67.234375 44.765625 62.859375 
Q 47.609375 58.5 49.21875 52.21875 
Q 50.828125 45.953125 50.828125 35.296875 
Q 50.828125 22.703125 48.234375 14.96875 
Q 45.65625 7.234375 40.5 3 
Q 35.359375 -1.21875 27.484375 -1.21875 
Q 17.140625 -1.21875 11.234375 6.203125 
Q 4.15625 15.140625 4.15625 35.296875 
z
M 13.1875 35.296875 
Q 13.1875 17.671875 17.3125 11.828125 
Q 21.4375 6 27.484375 6 
Q 33.546875 6 37.671875 11.859375 
Q 41.796875 17.71875 41.796875 35.296875 
Q 41.796875 52.984375 37.671875 58.78125 
Q 33.546875 64.59375 27.390625 64.59375 
Q 21.34375 64.59375 17.71875 59.46875 
Q 13.1875 52.9375 13.1875 35.296875 
z
" id="ArialMT-48"/>
      </defs>
      <g style="fill:#262626;" transform="translate(184.777333 277.247187)scale(0.22 -0.22)">
       <use xlink:href="#ArialMT-48"/>
      </g>
     </g>
    </g>
    <g id="xtick_3">
     <g id="line2d_3">
      <path clip-path="url(#p2ce06eda5d)" d="M 265.232011 252 
L 265.232011 34.56 
" style="fill:none;stroke:#cccccc;stroke-linecap:round;"/>
     </g>
     <g id="text_3">
      <!-- 2 -->
      <g style="fill:#262626;" transform="translate(259.11498 277.247187)scale(0.22 -0.22)">
       <use xlink:href="#ArialMT-50"/>
      </g>
     </g>
    </g>
    <g id="xtick_4">
     <g id="line2d_4">
      <path clip-path="url(#p2ce06eda5d)" d="M 339.569658 252 
L 339.569658 34.56 
" style="fill:none;stroke:#cccccc;stroke-linecap:round;"/>
     </g>
     <g id="text_4">
      <!-- 4 -->
      <defs>
       <path d="M 32.328125 0 
L 32.328125 17.140625 
L 1.265625 17.140625 
L 1.265625 25.203125 
L 33.9375 71.578125 
L 41.109375 71.578125 
L 41.109375 25.203125 
L 50.78125 25.203125 
L 50.78125 17.140625 
L 41.109375 17.140625 
L 41.109375 0 
z
M 32.328125 25.203125 
L 32.328125 57.46875 
L 9.90625 25.203125 
z
" id="ArialMT-52"/>
      </defs>
      <g style="fill:#262626;" transform="translate(333.452627 277.247187)scale(0.22 -0.22)">
       <use xlink:href="#ArialMT-52"/>
      </g>
     </g>
    </g>
    <g id="text_5">
     <!-- Yerr_normalized -->
     <defs>
      <path d="M 27.875 0 
L 27.875 30.328125 
L 0.296875 71.578125 
L 11.8125 71.578125 
L 25.921875 50 
Q 29.828125 43.953125 33.203125 37.890625 
Q 36.421875 43.5 41.015625 50.53125 
L 54.890625 71.578125 
L 65.921875 71.578125 
L 37.359375 30.328125 
L 37.359375 0 
z
" id="ArialMT-89"/>
      <path d="M 42.09375 16.703125 
L 51.171875 15.578125 
Q 49.03125 7.625 43.21875 3.21875 
Q 37.40625 -1.171875 28.375 -1.171875 
Q 17 -1.171875 10.328125 5.828125 
Q 3.65625 12.84375 3.65625 25.484375 
Q 3.65625 38.578125 10.390625 45.796875 
Q 17.140625 53.03125 27.875 53.03125 
Q 38.28125 53.03125 44.875 45.953125 
Q 51.46875 38.875 51.46875 26.03125 
Q 51.46875 25.25 51.421875 23.6875 
L 12.75 23.6875 
Q 13.234375 15.140625 17.578125 10.59375 
Q 21.921875 6.0625 28.421875 6.0625 
Q 33.25 6.0625 36.671875 8.59375 
Q 40.09375 11.140625 42.09375 16.703125 
z
M 13.234375 30.90625 
L 42.1875 30.90625 
Q 41.609375 37.453125 38.875 40.71875 
Q 34.671875 45.796875 27.984375 45.796875 
Q 21.921875 45.796875 17.796875 41.75 
Q 13.671875 37.703125 13.234375 30.90625 
z
" id="ArialMT-101"/>
      <path d="M 6.5 0 
L 6.5 51.859375 
L 14.40625 51.859375 
L 14.40625 44 
Q 17.4375 49.515625 20 51.265625 
Q 22.5625 53.03125 25.640625 53.03125 
Q 30.078125 53.03125 34.671875 50.203125 
L 31.640625 42.046875 
Q 28.421875 43.953125 25.203125 43.953125 
Q 22.3125 43.953125 20.015625 42.21875 
Q 17.71875 40.484375 16.75 37.40625 
Q 15.28125 32.71875 15.28125 27.15625 
L 15.28125 0 
z
" id="ArialMT-114"/>
      <path d="M -1.515625 -19.875 
L -1.515625 -13.53125 
L 56.734375 -13.53125 
L 56.734375 -19.875 
z
" id="ArialMT-95"/>
      <path d="M 6.59375 0 
L 6.59375 51.859375 
L 14.5 51.859375 
L 14.5 44.484375 
Q 20.21875 53.03125 31 53.03125 
Q 35.6875 53.03125 39.625 51.34375 
Q 43.5625 49.65625 45.515625 46.921875 
Q 47.46875 44.1875 48.25 40.4375 
Q 48.734375 37.984375 48.734375 31.890625 
L 48.734375 0 
L 39.9375 0 
L 39.9375 31.546875 
Q 39.9375 36.921875 38.90625 39.578125 
Q 37.890625 42.234375 35.28125 43.8125 
Q 32.671875 45.40625 29.15625 45.40625 
Q 23.53125 45.40625 19.453125 41.84375 
Q 15.375 38.28125 15.375 28.328125 
L 15.375 0 
z
" id="ArialMT-110"/>
      <path d="M 3.328125 25.921875 
Q 3.328125 40.328125 11.328125 47.265625 
Q 18.015625 53.03125 27.640625 53.03125 
Q 38.328125 53.03125 45.109375 46.015625 
Q 51.90625 39.015625 51.90625 26.65625 
Q 51.90625 16.65625 48.90625 10.90625 
Q 45.90625 5.171875 40.15625 2 
Q 34.421875 -1.171875 27.640625 -1.171875 
Q 16.75 -1.171875 10.03125 5.8125 
Q 3.328125 12.796875 3.328125 25.921875 
z
M 12.359375 25.921875 
Q 12.359375 15.96875 16.703125 11.015625 
Q 21.046875 6.0625 27.640625 6.0625 
Q 34.1875 6.0625 38.53125 11.03125 
Q 42.875 16.015625 42.875 26.21875 
Q 42.875 35.84375 38.5 40.796875 
Q 34.125 45.75 27.640625 45.75 
Q 21.046875 45.75 16.703125 40.8125 
Q 12.359375 35.890625 12.359375 25.921875 
z
" id="ArialMT-111"/>
      <path d="M 6.59375 0 
L 6.59375 51.859375 
L 14.453125 51.859375 
L 14.453125 44.578125 
Q 16.890625 48.390625 20.9375 50.703125 
Q 25 53.03125 30.171875 53.03125 
Q 35.9375 53.03125 39.625 50.640625 
Q 43.3125 48.25 44.828125 43.953125 
Q 50.984375 53.03125 60.84375 53.03125 
Q 68.5625 53.03125 72.703125 48.75 
Q 76.859375 44.484375 76.859375 35.59375 
L 76.859375 0 
L 68.109375 0 
L 68.109375 32.671875 
Q 68.109375 37.9375 67.25 40.25 
Q 66.40625 42.578125 64.15625 43.984375 
Q 61.921875 45.40625 58.890625 45.40625 
Q 53.421875 45.40625 49.796875 41.765625 
Q 46.1875 38.140625 46.1875 30.125 
L 46.1875 0 
L 37.40625 0 
L 37.40625 33.6875 
Q 37.40625 39.546875 35.25 42.46875 
Q 33.109375 45.40625 28.21875 45.40625 
Q 24.515625 45.40625 21.359375 43.453125 
Q 18.21875 41.5 16.796875 37.734375 
Q 15.375 33.984375 15.375 26.90625 
L 15.375 0 
z
" id="ArialMT-109"/>
      <path d="M 40.4375 6.390625 
Q 35.546875 2.25 31.03125 0.53125 
Q 26.515625 -1.171875 21.34375 -1.171875 
Q 12.796875 -1.171875 8.203125 3 
Q 3.609375 7.171875 3.609375 13.671875 
Q 3.609375 17.484375 5.34375 20.625 
Q 7.078125 23.78125 9.890625 25.6875 
Q 12.703125 27.59375 16.21875 28.5625 
Q 18.796875 29.25 24.03125 29.890625 
Q 34.671875 31.15625 39.703125 32.90625 
Q 39.75 34.71875 39.75 35.203125 
Q 39.75 40.578125 37.25 42.78125 
Q 33.890625 45.75 27.25 45.75 
Q 21.046875 45.75 18.09375 43.578125 
Q 15.140625 41.40625 13.71875 35.890625 
L 5.125 37.0625 
Q 6.296875 42.578125 8.984375 45.96875 
Q 11.671875 49.359375 16.75 51.1875 
Q 21.828125 53.03125 28.515625 53.03125 
Q 35.15625 53.03125 39.296875 51.46875 
Q 43.453125 49.90625 45.40625 47.53125 
Q 47.359375 45.171875 48.140625 41.546875 
Q 48.578125 39.3125 48.578125 33.453125 
L 48.578125 21.734375 
Q 48.578125 9.46875 49.140625 6.21875 
Q 49.703125 2.984375 51.375 0 
L 42.1875 0 
Q 40.828125 2.734375 40.4375 6.390625 
z
M 39.703125 26.03125 
Q 34.90625 24.078125 25.34375 22.703125 
Q 19.921875 21.921875 17.671875 20.9375 
Q 15.4375 19.96875 14.203125 18.09375 
Q 12.984375 16.21875 12.984375 13.921875 
Q 12.984375 10.40625 15.640625 8.0625 
Q 18.3125 5.71875 23.4375 5.71875 
Q 28.515625 5.71875 32.46875 7.9375 
Q 36.421875 10.15625 38.28125 14.015625 
Q 39.703125 17 39.703125 22.796875 
z
" id="ArialMT-97"/>
      <path d="M 6.390625 0 
L 6.390625 71.578125 
L 15.1875 71.578125 
L 15.1875 0 
z
" id="ArialMT-108"/>
      <path d="M 6.640625 61.46875 
L 6.640625 71.578125 
L 15.4375 71.578125 
L 15.4375 61.46875 
z
M 6.640625 0 
L 6.640625 51.859375 
L 15.4375 51.859375 
L 15.4375 0 
z
" id="ArialMT-105"/>
      <path d="M 1.953125 0 
L 1.953125 7.125 
L 34.96875 45.015625 
Q 29.34375 44.734375 25.046875 44.734375 
L 3.90625 44.734375 
L 3.90625 51.859375 
L 46.296875 51.859375 
L 46.296875 46.046875 
L 18.21875 13.140625 
L 12.796875 7.125 
Q 18.703125 7.5625 23.875 7.5625 
L 47.859375 7.5625 
L 47.859375 0 
z
" id="ArialMT-122"/>
      <path d="M 40.234375 0 
L 40.234375 6.546875 
Q 35.296875 -1.171875 25.734375 -1.171875 
Q 19.53125 -1.171875 14.328125 2.25 
Q 9.125 5.671875 6.265625 11.796875 
Q 3.421875 17.921875 3.421875 25.875 
Q 3.421875 33.640625 6 39.96875 
Q 8.59375 46.296875 13.765625 49.65625 
Q 18.953125 53.03125 25.34375 53.03125 
Q 30.03125 53.03125 33.6875 51.046875 
Q 37.359375 49.078125 39.65625 45.90625 
L 39.65625 71.578125 
L 48.390625 71.578125 
L 48.390625 0 
z
M 12.453125 25.875 
Q 12.453125 15.921875 16.640625 10.984375 
Q 20.84375 6.0625 26.5625 6.0625 
Q 32.328125 6.0625 36.34375 10.765625 
Q 40.375 15.484375 40.375 25.140625 
Q 40.375 35.796875 36.265625 40.765625 
Q 32.171875 45.75 26.171875 45.75 
Q 20.3125 45.75 16.375 40.96875 
Q 12.453125 36.1875 12.453125 25.875 
z
" id="ArialMT-100"/>
     </defs>
     <g style="fill:#262626;" transform="translate(133.385625 302.798437)scale(0.24 -0.24)">
      <use xlink:href="#ArialMT-89"/>
      <use x="66.558594" xlink:href="#ArialMT-101"/>
      <use x="122.173828" xlink:href="#ArialMT-114"/>
      <use x="155.474609" xlink:href="#ArialMT-114"/>
      <use x="188.775391" xlink:href="#ArialMT-95"/>
      <use x="244.390625" xlink:href="#ArialMT-110"/>
      <use x="300.005859" xlink:href="#ArialMT-111"/>
      <use x="355.621094" xlink:href="#ArialMT-114"/>
      <use x="388.921875" xlink:href="#ArialMT-109"/>
      <use x="472.222656" xlink:href="#ArialMT-97"/>
      <use x="527.837891" xlink:href="#ArialMT-108"/>
      <use x="550.054688" xlink:href="#ArialMT-105"/>
      <use x="572.271484" xlink:href="#ArialMT-122"/>
      <use x="622.271484" xlink:href="#ArialMT-101"/>
      <use x="677.886719" xlink:href="#ArialMT-100"/>
     </g>
    </g>
   </g>
   <g id="matplotlib.axis_2">
    <g id="ytick_1">
     <g id="line2d_5">
      <path clip-path="url(#p2ce06eda5d)" d="M 54 252 
L 388.8 252 
" style="fill:none;stroke:#cccccc;stroke-linecap:round;"/>
     </g>
     <g id="text_6">
      <!-- 0.0 -->
      <defs>
       <path d="M 9.078125 0 
L 9.078125 10.015625 
L 19.09375 10.015625 
L 19.09375 0 
z
" id="ArialMT-46"/>
      </defs>
      <g style="fill:#262626;" transform="translate(13.92 259.873594)scale(0.22 -0.22)">
       <use xlink:href="#ArialMT-48"/>
       <use x="55.615234" xlink:href="#ArialMT-46"/>
       <use x="83.398438" xlink:href="#ArialMT-48"/>
      </g>
     </g>
    </g>
    <g id="ytick_2">
     <g id="line2d_6">
      <path clip-path="url(#p2ce06eda5d)" d="M 54 170.822302 
L 388.8 170.822302 
" style="fill:none;stroke:#cccccc;stroke-linecap:round;"/>
     </g>
     <g id="text_7">
      <!-- 0.2 -->
      <g style="fill:#262626;" transform="translate(13.92 178.695896)scale(0.22 -0.22)">
       <use xlink:href="#ArialMT-48"/>
       <use x="55.615234" xlink:href="#ArialMT-46"/>
       <use x="83.398438" xlink:href="#ArialMT-50"/>
      </g>
     </g>
    </g>
    <g id="ytick_3">
     <g id="line2d_7">
      <path clip-path="url(#p2ce06eda5d)" d="M 54 89.644605 
L 388.8 89.644605 
" style="fill:none;stroke:#cccccc;stroke-linecap:round;"/>
     </g>
     <g id="text_8">
      <!-- 0.4 -->
      <g style="fill:#262626;" transform="translate(13.92 97.518198)scale(0.22 -0.22)">
       <use xlink:href="#ArialMT-48"/>
       <use x="55.615234" xlink:href="#ArialMT-46"/>
       <use x="83.398438" xlink:href="#ArialMT-52"/>
      </g>
     </g>
    </g>
   </g>
   <g id="patch_3">
    <path clip-path="url(#p2ce06eda5d)" d="M 106.659704 252 
L 121.958411 252 
L 121.958411 237.208163 
L 106.659704 237.208163 
z
" style="fill:#4c72b0;opacity:0.4;stroke:#ffffff;stroke-linejoin:miter;"/>
   </g>
   <g id="patch_4">
    <path clip-path="url(#p2ce06eda5d)" d="M 121.958411 252 
L 137.257117 252 
L 137.257117 227.346939 
L 121.958411 227.346939 
z
" style="fill:#4c72b0;opacity:0.4;stroke:#ffffff;stroke-linejoin:miter;"/>
   </g>
   <g id="patch_5">
    <path clip-path="url(#p2ce06eda5d)" d="M 137.257117 252 
L 152.555823 252 
L 152.555823 173.110204 
L 137.257117 173.110204 
z
" style="fill:#4c72b0;opacity:0.4;stroke:#ffffff;stroke-linejoin:miter;"/>
   </g>
   <g id="patch_6">
    <path clip-path="url(#p2ce06eda5d)" d="M 152.555823 252 
L 167.854529 252 
L 167.854529 104.081633 
L 152.555823 104.081633 
z
" style="fill:#4c72b0;opacity:0.4;stroke:#ffffff;stroke-linejoin:miter;"/>
   </g>
   <g id="patch_7">
    <path clip-path="url(#p2ce06eda5d)" d="M 167.854529 252 
L 183.153235 252 
L 183.153235 99.15102 
L 167.854529 99.15102 
z
" style="fill:#4c72b0;opacity:0.4;stroke:#ffffff;stroke-linejoin:miter;"/>
   </g>
   <g id="patch_8">
    <path clip-path="url(#p2ce06eda5d)" d="M 183.153235 252 
L 198.451941 252 
L 198.451941 44.914286 
L 183.153235 44.914286 
z
" style="fill:#4c72b0;opacity:0.4;stroke:#ffffff;stroke-linejoin:miter;"/>
   </g>
   <g id="patch_9">
    <path clip-path="url(#p2ce06eda5d)" d="M 198.451941 252 
L 213.750647 252 
L 213.750647 128.734694 
L 198.451941 128.734694 
z
" style="fill:#4c72b0;opacity:0.4;stroke:#ffffff;stroke-linejoin:miter;"/>
   </g>
   <g id="patch_10">
    <path clip-path="url(#p2ce06eda5d)" d="M 213.750647 252 
L 229.049353 252 
L 229.049353 173.110204 
L 213.750647 173.110204 
z
" style="fill:#4c72b0;opacity:0.4;stroke:#ffffff;stroke-linejoin:miter;"/>
   </g>
   <g id="patch_11">
    <path clip-path="url(#p2ce06eda5d)" d="M 229.049353 252 
L 244.348059 252 
L 244.348059 197.763265 
L 229.049353 197.763265 
z
" style="fill:#4c72b0;opacity:0.4;stroke:#ffffff;stroke-linejoin:miter;"/>
   </g>
   <g id="patch_12">
    <path clip-path="url(#p2ce06eda5d)" d="M 244.348059 252 
L 259.646765 252 
L 259.646765 192.832653 
L 244.348059 192.832653 
z
" style="fill:#4c72b0;opacity:0.4;stroke:#ffffff;stroke-linejoin:miter;"/>
   </g>
   <g id="patch_13">
    <path clip-path="url(#p2ce06eda5d)" d="M 259.646765 252 
L 274.945471 252 
L 274.945471 227.346939 
L 259.646765 227.346939 
z
" style="fill:#4c72b0;opacity:0.4;stroke:#ffffff;stroke-linejoin:miter;"/>
   </g>
   <g id="patch_14">
    <path clip-path="url(#p2ce06eda5d)" d="M 274.945471 252 
L 290.244177 252 
L 290.244177 242.138776 
L 274.945471 242.138776 
z
" style="fill:#4c72b0;opacity:0.4;stroke:#ffffff;stroke-linejoin:miter;"/>
   </g>
   <g id="patch_15">
    <path clip-path="url(#p2ce06eda5d)" d="M 290.244177 252 
L 305.542883 252 
L 305.542883 247.069388 
L 290.244177 247.069388 
z
" style="fill:#4c72b0;opacity:0.4;stroke:#ffffff;stroke-linejoin:miter;"/>
   </g>
   <g id="patch_16">
    <path clip-path="url(#p2ce06eda5d)" d="M 305.542883 252 
L 320.841589 252 
L 320.841589 252 
L 305.542883 252 
z
" style="fill:#4c72b0;opacity:0.4;stroke:#ffffff;stroke-linejoin:miter;"/>
   </g>
   <g id="patch_17">
    <path clip-path="url(#p2ce06eda5d)" d="M 320.841589 252 
L 336.140296 252 
L 336.140296 247.069388 
L 320.841589 247.069388 
z
" style="fill:#4c72b0;opacity:0.4;stroke:#ffffff;stroke-linejoin:miter;"/>
   </g>
   <g id="LineCollection_1">
    <path clip-path="url(#p2ce06eda5d)" d="M 156.144206 252 
L 156.144206 241.128 
" style="fill:none;stroke:#4c72b0;"/>
    <path clip-path="url(#p2ce06eda5d)" d="M 183.086908 252 
L 183.086908 241.128 
" style="fill:none;stroke:#4c72b0;"/>
    <path clip-path="url(#p2ce06eda5d)" d="M 141.386673 252 
L 141.386673 241.128 
" style="fill:none;stroke:#4c72b0;"/>
    <path clip-path="url(#p2ce06eda5d)" d="M 251.815714 252 
L 251.815714 241.128 
" style="fill:none;stroke:#4c72b0;"/>
    <path clip-path="url(#p2ce06eda5d)" d="M 254.105802 252 
L 254.105802 241.128 
" style="fill:none;stroke:#4c72b0;"/>
    <path clip-path="url(#p2ce06eda5d)" d="M 190.874599 252 
L 190.874599 241.128 
" style="fill:none;stroke:#4c72b0;"/>
    <path clip-path="url(#p2ce06eda5d)" d="M 181.605012 252 
L 181.605012 241.128 
" style="fill:none;stroke:#4c72b0;"/>
    <path clip-path="url(#p2ce06eda5d)" d="M 178.724389 252 
L 178.724389 241.128 
" style="fill:none;stroke:#4c72b0;"/>
    <path clip-path="url(#p2ce06eda5d)" d="M 227.283373 252 
L 227.283373 241.128 
" style="fill:none;stroke:#4c72b0;"/>
    <path clip-path="url(#p2ce06eda5d)" d="M 167.410491 252 
L 167.410491 241.128 
" style="fill:none;stroke:#4c72b0;"/>
    <path clip-path="url(#p2ce06eda5d)" d="M 156.033757 252 
L 156.033757 241.128 
" style="fill:none;stroke:#4c72b0;"/>
    <path clip-path="url(#p2ce06eda5d)" d="M 172.180573 252 
L 172.180573 241.128 
" style="fill:none;stroke:#4c72b0;"/>
    <path clip-path="url(#p2ce06eda5d)" d="M 152.904058 252 
L 152.904058 241.128 
" style="fill:none;stroke:#4c72b0;"/>
    <path clip-path="url(#p2ce06eda5d)" d="M 285.213127 252 
L 285.213127 241.128 
" style="fill:none;stroke:#4c72b0;"/>
    <path clip-path="url(#p2ce06eda5d)" d="M 162.81056 252 
L 162.81056 241.128 
" style="fill:none;stroke:#4c72b0;"/>
    <path clip-path="url(#p2ce06eda5d)" d="M 185.355173 252 
L 185.355173 241.128 
" style="fill:none;stroke:#4c72b0;"/>
    <path clip-path="url(#p2ce06eda5d)" d="M 193.04026 252 
L 193.04026 241.128 
" style="fill:none;stroke:#4c72b0;"/>
    <path clip-path="url(#p2ce06eda5d)" d="M 205.079387 252 
L 205.079387 241.128 
" style="fill:none;stroke:#4c72b0;"/>
    <path clip-path="url(#p2ce06eda5d)" d="M 106.659704 252 
L 106.659704 241.128 
" style="fill:none;stroke:#4c72b0;"/>
    <path clip-path="url(#p2ce06eda5d)" d="M 153.443674 252 
L 153.443674 241.128 
" style="fill:none;stroke:#4c72b0;"/>
    <path clip-path="url(#p2ce06eda5d)" d="M 175.928214 252 
L 175.928214 241.128 
" style="fill:none;stroke:#4c72b0;"/>
    <path clip-path="url(#p2ce06eda5d)" d="M 250.883045 252 
L 250.883045 241.128 
" style="fill:none;stroke:#4c72b0;"/>
    <path clip-path="url(#p2ce06eda5d)" d="M 210.676941 252 
L 210.676941 241.128 
" style="fill:none;stroke:#4c72b0;"/>
    <path clip-path="url(#p2ce06eda5d)" d="M 163.771731 252 
L 163.771731 241.128 
" style="fill:none;stroke:#4c72b0;"/>
    <path clip-path="url(#p2ce06eda5d)" d="M 226.551075 252 
L 226.551075 241.128 
" style="fill:none;stroke:#4c72b0;"/>
    <path clip-path="url(#p2ce06eda5d)" d="M 148.600465 252 
L 148.600465 241.128 
" style="fill:none;stroke:#4c72b0;"/>
    <path clip-path="url(#p2ce06eda5d)" d="M 150.341322 252 
L 150.341322 241.128 
" style="fill:none;stroke:#4c72b0;"/>
    <path clip-path="url(#p2ce06eda5d)" d="M 185.454966 252 
L 185.454966 241.128 
" style="fill:none;stroke:#4c72b0;"/>
    <path clip-path="url(#p2ce06eda5d)" d="M 195.563094 252 
L 195.563094 241.128 
" style="fill:none;stroke:#4c72b0;"/>
    <path clip-path="url(#p2ce06eda5d)" d="M 240.953631 252 
L 240.953631 241.128 
" style="fill:none;stroke:#4c72b0;"/>
    <path clip-path="url(#p2ce06eda5d)" d="M 191.215956 252 
L 191.215956 241.128 
" style="fill:none;stroke:#4c72b0;"/>
    <path clip-path="url(#p2ce06eda5d)" d="M 230.133361 252 
L 230.133361 241.128 
" style="fill:none;stroke:#4c72b0;"/>
    <path clip-path="url(#p2ce06eda5d)" d="M 186.623992 252 
L 186.623992 241.128 
" style="fill:none;stroke:#4c72b0;"/>
    <path clip-path="url(#p2ce06eda5d)" d="M 229.537529 252 
L 229.537529 241.128 
" style="fill:none;stroke:#4c72b0;"/>
    <path clip-path="url(#p2ce06eda5d)" d="M 197.163015 252 
L 197.163015 241.128 
" style="fill:none;stroke:#4c72b0;"/>
    <path clip-path="url(#p2ce06eda5d)" d="M 226.964705 252 
L 226.964705 241.128 
" style="fill:none;stroke:#4c72b0;"/>
    <path clip-path="url(#p2ce06eda5d)" d="M 166.223368 252 
L 166.223368 241.128 
" style="fill:none;stroke:#4c72b0;"/>
    <path clip-path="url(#p2ce06eda5d)" d="M 140.758571 252 
L 140.758571 241.128 
" style="fill:none;stroke:#4c72b0;"/>
    <path clip-path="url(#p2ce06eda5d)" d="M 157.174188 252 
L 157.174188 241.128 
" style="fill:none;stroke:#4c72b0;"/>
    <path clip-path="url(#p2ce06eda5d)" d="M 182.969978 252 
L 182.969978 241.128 
" style="fill:none;stroke:#4c72b0;"/>
    <path clip-path="url(#p2ce06eda5d)" d="M 163.909842 252 
L 163.909842 241.128 
" style="fill:none;stroke:#4c72b0;"/>
    <path clip-path="url(#p2ce06eda5d)" d="M 157.132591 252 
L 157.132591 241.128 
" style="fill:none;stroke:#4c72b0;"/>
    <path clip-path="url(#p2ce06eda5d)" d="M 207.517305 252 
L 207.517305 241.128 
" style="fill:none;stroke:#4c72b0;"/>
    <path clip-path="url(#p2ce06eda5d)" d="M 247.515929 252 
L 247.515929 241.128 
" style="fill:none;stroke:#4c72b0;"/>
    <path clip-path="url(#p2ce06eda5d)" d="M 205.851638 252 
L 205.851638 241.128 
" style="fill:none;stroke:#4c72b0;"/>
    <path clip-path="url(#p2ce06eda5d)" d="M 169.836771 252 
L 169.836771 241.128 
" style="fill:none;stroke:#4c72b0;"/>
    <path clip-path="url(#p2ce06eda5d)" d="M 214.541111 252 
L 214.541111 241.128 
" style="fill:none;stroke:#4c72b0;"/>
    <path clip-path="url(#p2ce06eda5d)" d="M 196.953397 252 
L 196.953397 241.128 
" style="fill:none;stroke:#4c72b0;"/>
    <path clip-path="url(#p2ce06eda5d)" d="M 212.54754 252 
L 212.54754 241.128 
" style="fill:none;stroke:#4c72b0;"/>
    <path clip-path="url(#p2ce06eda5d)" d="M 171.586128 252 
L 171.586128 241.128 
" style="fill:none;stroke:#4c72b0;"/>
    <path clip-path="url(#p2ce06eda5d)" d="M 186.196582 252 
L 186.196582 241.128 
" style="fill:none;stroke:#4c72b0;"/>
    <path clip-path="url(#p2ce06eda5d)" d="M 123.402177 252 
L 123.402177 241.128 
" style="fill:none;stroke:#4c72b0;"/>
    <path clip-path="url(#p2ce06eda5d)" d="M 239.34766 252 
L 239.34766 241.128 
" style="fill:none;stroke:#4c72b0;"/>
    <path clip-path="url(#p2ce06eda5d)" d="M 153.69294 252 
L 153.69294 241.128 
" style="fill:none;stroke:#4c72b0;"/>
    <path clip-path="url(#p2ce06eda5d)" d="M 142.543732 252 
L 142.543732 241.128 
" style="fill:none;stroke:#4c72b0;"/>
    <path clip-path="url(#p2ce06eda5d)" d="M 217.350002 252 
L 217.350002 241.128 
" style="fill:none;stroke:#4c72b0;"/>
    <path clip-path="url(#p2ce06eda5d)" d="M 186.403224 252 
L 186.403224 241.128 
" style="fill:none;stroke:#4c72b0;"/>
    <path clip-path="url(#p2ce06eda5d)" d="M 211.584544 252 
L 211.584544 241.128 
" style="fill:none;stroke:#4c72b0;"/>
    <path clip-path="url(#p2ce06eda5d)" d="M 180.590663 252 
L 180.590663 241.128 
" style="fill:none;stroke:#4c72b0;"/>
    <path clip-path="url(#p2ce06eda5d)" d="M 212.721217 252 
L 212.721217 241.128 
" style="fill:none;stroke:#4c72b0;"/>
    <path clip-path="url(#p2ce06eda5d)" d="M 176.642554 252 
L 176.642554 241.128 
" style="fill:none;stroke:#4c72b0;"/>
    <path clip-path="url(#p2ce06eda5d)" d="M 197.056924 252 
L 197.056924 241.128 
" style="fill:none;stroke:#4c72b0;"/>
    <path clip-path="url(#p2ce06eda5d)" d="M 125.490857 252 
L 125.490857 241.128 
" style="fill:none;stroke:#4c72b0;"/>
    <path clip-path="url(#p2ce06eda5d)" d="M 173.298883 252 
L 173.298883 241.128 
" style="fill:none;stroke:#4c72b0;"/>
    <path clip-path="url(#p2ce06eda5d)" d="M 209.760409 252 
L 209.760409 241.128 
" style="fill:none;stroke:#4c72b0;"/>
    <path clip-path="url(#p2ce06eda5d)" d="M 176.982827 252 
L 176.982827 241.128 
" style="fill:none;stroke:#4c72b0;"/>
    <path clip-path="url(#p2ce06eda5d)" d="M 175.799842 252 
L 175.799842 241.128 
" style="fill:none;stroke:#4c72b0;"/>
    <path clip-path="url(#p2ce06eda5d)" d="M 242.091442 252 
L 242.091442 241.128 
" style="fill:none;stroke:#4c72b0;"/>
    <path clip-path="url(#p2ce06eda5d)" d="M 192.152075 252 
L 192.152075 241.128 
" style="fill:none;stroke:#4c72b0;"/>
    <path clip-path="url(#p2ce06eda5d)" d="M 136.696479 252 
L 136.696479 241.128 
" style="fill:none;stroke:#4c72b0;"/>
    <path clip-path="url(#p2ce06eda5d)" d="M 183.03544 252 
L 183.03544 241.128 
" style="fill:none;stroke:#4c72b0;"/>
    <path clip-path="url(#p2ce06eda5d)" d="M 194.867486 252 
L 194.867486 241.128 
" style="fill:none;stroke:#4c72b0;"/>
    <path clip-path="url(#p2ce06eda5d)" d="M 152.25886 252 
L 152.25886 241.128 
" style="fill:none;stroke:#4c72b0;"/>
    <path clip-path="url(#p2ce06eda5d)" d="M 215.416558 252 
L 215.416558 241.128 
" style="fill:none;stroke:#4c72b0;"/>
    <path clip-path="url(#p2ce06eda5d)" d="M 191.118799 252 
L 191.118799 241.128 
" style="fill:none;stroke:#4c72b0;"/>
    <path clip-path="url(#p2ce06eda5d)" d="M 209.365748 252 
L 209.365748 241.128 
" style="fill:none;stroke:#4c72b0;"/>
    <path clip-path="url(#p2ce06eda5d)" d="M 166.883233 252 
L 166.883233 241.128 
" style="fill:none;stroke:#4c72b0;"/>
    <path clip-path="url(#p2ce06eda5d)" d="M 211.025648 252 
L 211.025648 241.128 
" style="fill:none;stroke:#4c72b0;"/>
    <path clip-path="url(#p2ce06eda5d)" d="M 217.61306 252 
L 217.61306 241.128 
" style="fill:none;stroke:#4c72b0;"/>
    <path clip-path="url(#p2ce06eda5d)" d="M 198.096687 252 
L 198.096687 241.128 
" style="fill:none;stroke:#4c72b0;"/>
    <path clip-path="url(#p2ce06eda5d)" d="M 217.774698 252 
L 217.774698 241.128 
" style="fill:none;stroke:#4c72b0;"/>
    <path clip-path="url(#p2ce06eda5d)" d="M 186.042983 252 
L 186.042983 241.128 
" style="fill:none;stroke:#4c72b0;"/>
    <path clip-path="url(#p2ce06eda5d)" d="M 188.587226 252 
L 188.587226 241.128 
" style="fill:none;stroke:#4c72b0;"/>
    <path clip-path="url(#p2ce06eda5d)" d="M 201.510974 252 
L 201.510974 241.128 
" style="fill:none;stroke:#4c72b0;"/>
    <path clip-path="url(#p2ce06eda5d)" d="M 300.387087 252 
L 300.387087 241.128 
" style="fill:none;stroke:#4c72b0;"/>
    <path clip-path="url(#p2ce06eda5d)" d="M 192.889893 252 
L 192.889893 241.128 
" style="fill:none;stroke:#4c72b0;"/>
    <path clip-path="url(#p2ce06eda5d)" d="M 229.17296 252 
L 229.17296 241.128 
" style="fill:none;stroke:#4c72b0;"/>
    <path clip-path="url(#p2ce06eda5d)" d="M 198.381625 252 
L 198.381625 241.128 
" style="fill:none;stroke:#4c72b0;"/>
    <path clip-path="url(#p2ce06eda5d)" d="M 186.431855 252 
L 186.431855 241.128 
" style="fill:none;stroke:#4c72b0;"/>
    <path clip-path="url(#p2ce06eda5d)" d="M 171.695749 252 
L 171.695749 241.128 
" style="fill:none;stroke:#4c72b0;"/>
    <path clip-path="url(#p2ce06eda5d)" d="M 143.715113 252 
L 143.715113 241.128 
" style="fill:none;stroke:#4c72b0;"/>
    <path clip-path="url(#p2ce06eda5d)" d="M 178.697051 252 
L 178.697051 241.128 
" style="fill:none;stroke:#4c72b0;"/>
    <path clip-path="url(#p2ce06eda5d)" d="M 217.114564 252 
L 217.114564 241.128 
" style="fill:none;stroke:#4c72b0;"/>
    <path clip-path="url(#p2ce06eda5d)" d="M 179.704484 252 
L 179.704484 241.128 
" style="fill:none;stroke:#4c72b0;"/>
    <path clip-path="url(#p2ce06eda5d)" d="M 159.831085 252 
L 159.831085 241.128 
" style="fill:none;stroke:#4c72b0;"/>
    <path clip-path="url(#p2ce06eda5d)" d="M 180.097211 252 
L 180.097211 241.128 
" style="fill:none;stroke:#4c72b0;"/>
    <path clip-path="url(#p2ce06eda5d)" d="M 200.365627 252 
L 200.365627 241.128 
" style="fill:none;stroke:#4c72b0;"/>
    <path clip-path="url(#p2ce06eda5d)" d="M 261.856655 252 
L 261.856655 241.128 
" style="fill:none;stroke:#4c72b0;"/>
    <path clip-path="url(#p2ce06eda5d)" d="M 200.676146 252 
L 200.676146 241.128 
" style="fill:none;stroke:#4c72b0;"/>
    <path clip-path="url(#p2ce06eda5d)" d="M 154.365595 252 
L 154.365595 241.128 
" style="fill:none;stroke:#4c72b0;"/>
    <path clip-path="url(#p2ce06eda5d)" d="M 191.560784 252 
L 191.560784 241.128 
" style="fill:none;stroke:#4c72b0;"/>
    <path clip-path="url(#p2ce06eda5d)" d="M 192.82556 252 
L 192.82556 241.128 
" style="fill:none;stroke:#4c72b0;"/>
    <path clip-path="url(#p2ce06eda5d)" d="M 155.847197 252 
L 155.847197 241.128 
" style="fill:none;stroke:#4c72b0;"/>
    <path clip-path="url(#p2ce06eda5d)" d="M 248.438366 252 
L 248.438366 241.128 
" style="fill:none;stroke:#4c72b0;"/>
    <path clip-path="url(#p2ce06eda5d)" d="M 193.656095 252 
L 193.656095 241.128 
" style="fill:none;stroke:#4c72b0;"/>
    <path clip-path="url(#p2ce06eda5d)" d="M 286.172401 252 
L 286.172401 241.128 
" style="fill:none;stroke:#4c72b0;"/>
    <path clip-path="url(#p2ce06eda5d)" d="M 199.560966 252 
L 199.560966 241.128 
" style="fill:none;stroke:#4c72b0;"/>
    <path clip-path="url(#p2ce06eda5d)" d="M 185.945183 252 
L 185.945183 241.128 
" style="fill:none;stroke:#4c72b0;"/>
    <path clip-path="url(#p2ce06eda5d)" d="M 249.300701 252 
L 249.300701 241.128 
" style="fill:none;stroke:#4c72b0;"/>
    <path clip-path="url(#p2ce06eda5d)" d="M 174.195676 252 
L 174.195676 241.128 
" style="fill:none;stroke:#4c72b0;"/>
    <path clip-path="url(#p2ce06eda5d)" d="M 138.161908 252 
L 138.161908 241.128 
" style="fill:none;stroke:#4c72b0;"/>
    <path clip-path="url(#p2ce06eda5d)" d="M 173.125649 252 
L 173.125649 241.128 
" style="fill:none;stroke:#4c72b0;"/>
    <path clip-path="url(#p2ce06eda5d)" d="M 204.931013 252 
L 204.931013 241.128 
" style="fill:none;stroke:#4c72b0;"/>
    <path clip-path="url(#p2ce06eda5d)" d="M 160.786961 252 
L 160.786961 241.128 
" style="fill:none;stroke:#4c72b0;"/>
    <path clip-path="url(#p2ce06eda5d)" d="M 146.430524 252 
L 146.430524 241.128 
" style="fill:none;stroke:#4c72b0;"/>
    <path clip-path="url(#p2ce06eda5d)" d="M 148.560524 252 
L 148.560524 241.128 
" style="fill:none;stroke:#4c72b0;"/>
    <path clip-path="url(#p2ce06eda5d)" d="M 216.561571 252 
L 216.561571 241.128 
" style="fill:none;stroke:#4c72b0;"/>
    <path clip-path="url(#p2ce06eda5d)" d="M 190.014463 252 
L 190.014463 241.128 
" style="fill:none;stroke:#4c72b0;"/>
    <path clip-path="url(#p2ce06eda5d)" d="M 204.385109 252 
L 204.385109 241.128 
" style="fill:none;stroke:#4c72b0;"/>
    <path clip-path="url(#p2ce06eda5d)" d="M 122.158936 252 
L 122.158936 241.128 
" style="fill:none;stroke:#4c72b0;"/>
    <path clip-path="url(#p2ce06eda5d)" d="M 165.807945 252 
L 165.807945 241.128 
" style="fill:none;stroke:#4c72b0;"/>
    <path clip-path="url(#p2ce06eda5d)" d="M 214.8075 252 
L 214.8075 241.128 
" style="fill:none;stroke:#4c72b0;"/>
    <path clip-path="url(#p2ce06eda5d)" d="M 147.117008 252 
L 147.117008 241.128 
" style="fill:none;stroke:#4c72b0;"/>
    <path clip-path="url(#p2ce06eda5d)" d="M 180.65186 252 
L 180.65186 241.128 
" style="fill:none;stroke:#4c72b0;"/>
    <path clip-path="url(#p2ce06eda5d)" d="M 336.140296 252 
L 336.140296 241.128 
" style="fill:none;stroke:#4c72b0;"/>
    <path clip-path="url(#p2ce06eda5d)" d="M 148.098701 252 
L 148.098701 241.128 
" style="fill:none;stroke:#4c72b0;"/>
    <path clip-path="url(#p2ce06eda5d)" d="M 177.70463 252 
L 177.70463 241.128 
" style="fill:none;stroke:#4c72b0;"/>
    <path clip-path="url(#p2ce06eda5d)" d="M 209.528544 252 
L 209.528544 241.128 
" style="fill:none;stroke:#4c72b0;"/>
    <path clip-path="url(#p2ce06eda5d)" d="M 258.043373 252 
L 258.043373 241.128 
" style="fill:none;stroke:#4c72b0;"/>
    <path clip-path="url(#p2ce06eda5d)" d="M 191.008041 252 
L 191.008041 241.128 
" style="fill:none;stroke:#4c72b0;"/>
    <path clip-path="url(#p2ce06eda5d)" d="M 259.703758 252 
L 259.703758 241.128 
" style="fill:none;stroke:#4c72b0;"/>
    <path clip-path="url(#p2ce06eda5d)" d="M 157.701675 252 
L 157.701675 241.128 
" style="fill:none;stroke:#4c72b0;"/>
    <path clip-path="url(#p2ce06eda5d)" d="M 204.072454 252 
L 204.072454 241.128 
" style="fill:none;stroke:#4c72b0;"/>
    <path clip-path="url(#p2ce06eda5d)" d="M 158.099608 252 
L 158.099608 241.128 
" style="fill:none;stroke:#4c72b0;"/>
    <path clip-path="url(#p2ce06eda5d)" d="M 184.869952 252 
L 184.869952 241.128 
" style="fill:none;stroke:#4c72b0;"/>
    <path clip-path="url(#p2ce06eda5d)" d="M 131.985213 252 
L 131.985213 241.128 
" style="fill:none;stroke:#4c72b0;"/>
    <path clip-path="url(#p2ce06eda5d)" d="M 143.80012 252 
L 143.80012 241.128 
" style="fill:none;stroke:#4c72b0;"/>
    <path clip-path="url(#p2ce06eda5d)" d="M 189.843011 252 
L 189.843011 241.128 
" style="fill:none;stroke:#4c72b0;"/>
    <path clip-path="url(#p2ce06eda5d)" d="M 165.058552 252 
L 165.058552 241.128 
" style="fill:none;stroke:#4c72b0;"/>
    <path clip-path="url(#p2ce06eda5d)" d="M 143.334895 252 
L 143.334895 241.128 
" style="fill:none;stroke:#4c72b0;"/>
    <path clip-path="url(#p2ce06eda5d)" d="M 169.124316 252 
L 169.124316 241.128 
" style="fill:none;stroke:#4c72b0;"/>
    <path clip-path="url(#p2ce06eda5d)" d="M 204.572355 252 
L 204.572355 241.128 
" style="fill:none;stroke:#4c72b0;"/>
    <path clip-path="url(#p2ce06eda5d)" d="M 196.210124 252 
L 196.210124 241.128 
" style="fill:none;stroke:#4c72b0;"/>
    <path clip-path="url(#p2ce06eda5d)" d="M 198.007297 252 
L 198.007297 241.128 
" style="fill:none;stroke:#4c72b0;"/>
    <path clip-path="url(#p2ce06eda5d)" d="M 158.948643 252 
L 158.948643 241.128 
" style="fill:none;stroke:#4c72b0;"/>
    <path clip-path="url(#p2ce06eda5d)" d="M 187.459851 252 
L 187.459851 241.128 
" style="fill:none;stroke:#4c72b0;"/>
    <path clip-path="url(#p2ce06eda5d)" d="M 167.19351 252 
L 167.19351 241.128 
" style="fill:none;stroke:#4c72b0;"/>
    <path clip-path="url(#p2ce06eda5d)" d="M 266.501075 252 
L 266.501075 241.128 
" style="fill:none;stroke:#4c72b0;"/>
    <path clip-path="url(#p2ce06eda5d)" d="M 238.661338 252 
L 238.661338 241.128 
" style="fill:none;stroke:#4c72b0;"/>
    <path clip-path="url(#p2ce06eda5d)" d="M 238.655512 252 
L 238.655512 241.128 
" style="fill:none;stroke:#4c72b0;"/>
    <path clip-path="url(#p2ce06eda5d)" d="M 245.765041 252 
L 245.765041 241.128 
" style="fill:none;stroke:#4c72b0;"/>
    <path clip-path="url(#p2ce06eda5d)" d="M 204.831534 252 
L 204.831534 241.128 
" style="fill:none;stroke:#4c72b0;"/>
    <path clip-path="url(#p2ce06eda5d)" d="M 245.910568 252 
L 245.910568 241.128 
" style="fill:none;stroke:#4c72b0;"/>
    <path clip-path="url(#p2ce06eda5d)" d="M 177.896051 252 
L 177.896051 241.128 
" style="fill:none;stroke:#4c72b0;"/>
    <path clip-path="url(#p2ce06eda5d)" d="M 185.852411 252 
L 185.852411 241.128 
" style="fill:none;stroke:#4c72b0;"/>
    <path clip-path="url(#p2ce06eda5d)" d="M 262.919526 252 
L 262.919526 241.128 
" style="fill:none;stroke:#4c72b0;"/>
    <path clip-path="url(#p2ce06eda5d)" d="M 180.200328 252 
L 180.200328 241.128 
" style="fill:none;stroke:#4c72b0;"/>
    <path clip-path="url(#p2ce06eda5d)" d="M 156.785218 252 
L 156.785218 241.128 
" style="fill:none;stroke:#4c72b0;"/>
    <path clip-path="url(#p2ce06eda5d)" d="M 109.199434 252 
L 109.199434 241.128 
" style="fill:none;stroke:#4c72b0;"/>
    <path clip-path="url(#p2ce06eda5d)" d="M 197.661281 252 
L 197.661281 241.128 
" style="fill:none;stroke:#4c72b0;"/>
    <path clip-path="url(#p2ce06eda5d)" d="M 223.347246 252 
L 223.347246 241.128 
" style="fill:none;stroke:#4c72b0;"/>
    <path clip-path="url(#p2ce06eda5d)" d="M 198.202399 252 
L 198.202399 241.128 
" style="fill:none;stroke:#4c72b0;"/>
    <path clip-path="url(#p2ce06eda5d)" d="M 187.516932 252 
L 187.516932 241.128 
" style="fill:none;stroke:#4c72b0;"/>
    <path clip-path="url(#p2ce06eda5d)" d="M 189.652187 252 
L 189.652187 241.128 
" style="fill:none;stroke:#4c72b0;"/>
    <path clip-path="url(#p2ce06eda5d)" d="M 205.798043 252 
L 205.798043 241.128 
" style="fill:none;stroke:#4c72b0;"/>
    <path clip-path="url(#p2ce06eda5d)" d="M 226.448761 252 
L 226.448761 241.128 
" style="fill:none;stroke:#4c72b0;"/>
    <path clip-path="url(#p2ce06eda5d)" d="M 247.071437 252 
L 247.071437 241.128 
" style="fill:none;stroke:#4c72b0;"/>
    <path clip-path="url(#p2ce06eda5d)" d="M 177.093712 252 
L 177.093712 241.128 
" style="fill:none;stroke:#4c72b0;"/>
    <path clip-path="url(#p2ce06eda5d)" d="M 178.658517 252 
L 178.658517 241.128 
" style="fill:none;stroke:#4c72b0;"/>
    <path clip-path="url(#p2ce06eda5d)" d="M 152.797908 252 
L 152.797908 241.128 
" style="fill:none;stroke:#4c72b0;"/>
    <path clip-path="url(#p2ce06eda5d)" d="M 247.947802 252 
L 247.947802 241.128 
" style="fill:none;stroke:#4c72b0;"/>
    <path clip-path="url(#p2ce06eda5d)" d="M 170.094282 252 
L 170.094282 241.128 
" style="fill:none;stroke:#4c72b0;"/>
    <path clip-path="url(#p2ce06eda5d)" d="M 172.615905 252 
L 172.615905 241.128 
" style="fill:none;stroke:#4c72b0;"/>
    <path clip-path="url(#p2ce06eda5d)" d="M 147.816745 252 
L 147.816745 241.128 
" style="fill:none;stroke:#4c72b0;"/>
    <path clip-path="url(#p2ce06eda5d)" d="M 220.261132 252 
L 220.261132 241.128 
" style="fill:none;stroke:#4c72b0;"/>
    <path clip-path="url(#p2ce06eda5d)" d="M 217.337321 252 
L 217.337321 241.128 
" style="fill:none;stroke:#4c72b0;"/>
    <path clip-path="url(#p2ce06eda5d)" d="M 206.135434 252 
L 206.135434 241.128 
" style="fill:none;stroke:#4c72b0;"/>
    <path clip-path="url(#p2ce06eda5d)" d="M 158.971963 252 
L 158.971963 241.128 
" style="fill:none;stroke:#4c72b0;"/>
    <path clip-path="url(#p2ce06eda5d)" d="M 218.978041 252 
L 218.978041 241.128 
" style="fill:none;stroke:#4c72b0;"/>
    <path clip-path="url(#p2ce06eda5d)" d="M 190.303407 252 
L 190.303407 241.128 
" style="fill:none;stroke:#4c72b0;"/>
    <path clip-path="url(#p2ce06eda5d)" d="M 172.963359 252 
L 172.963359 241.128 
" style="fill:none;stroke:#4c72b0;"/>
    <path clip-path="url(#p2ce06eda5d)" d="M 189.594911 252 
L 189.594911 241.128 
" style="fill:none;stroke:#4c72b0;"/>
    <path clip-path="url(#p2ce06eda5d)" d="M 229.453655 252 
L 229.453655 241.128 
" style="fill:none;stroke:#4c72b0;"/>
    <path clip-path="url(#p2ce06eda5d)" d="M 230.072556 252 
L 230.072556 241.128 
" style="fill:none;stroke:#4c72b0;"/>
    <path clip-path="url(#p2ce06eda5d)" d="M 170.990378 252 
L 170.990378 241.128 
" style="fill:none;stroke:#4c72b0;"/>
    <path clip-path="url(#p2ce06eda5d)" d="M 193.506983 252 
L 193.506983 241.128 
" style="fill:none;stroke:#4c72b0;"/>
    <path clip-path="url(#p2ce06eda5d)" d="M 142.438689 252 
L 142.438689 241.128 
" style="fill:none;stroke:#4c72b0;"/>
    <path clip-path="url(#p2ce06eda5d)" d="M 205.477266 252 
L 205.477266 241.128 
" style="fill:none;stroke:#4c72b0;"/>
    <path clip-path="url(#p2ce06eda5d)" d="M 235.993506 252 
L 235.993506 241.128 
" style="fill:none;stroke:#4c72b0;"/>
    <path clip-path="url(#p2ce06eda5d)" d="M 188.659724 252 
L 188.659724 241.128 
" style="fill:none;stroke:#4c72b0;"/>
    <path clip-path="url(#p2ce06eda5d)" d="M 167.820553 252 
L 167.820553 241.128 
" style="fill:none;stroke:#4c72b0;"/>
    <path clip-path="url(#p2ce06eda5d)" d="M 252.114861 252 
L 252.114861 241.128 
" style="fill:none;stroke:#4c72b0;"/>
    <path clip-path="url(#p2ce06eda5d)" d="M 210.337181 252 
L 210.337181 241.128 
" style="fill:none;stroke:#4c72b0;"/>
    <path clip-path="url(#p2ce06eda5d)" d="M 107.146039 252 
L 107.146039 241.128 
" style="fill:none;stroke:#4c72b0;"/>
    <path clip-path="url(#p2ce06eda5d)" d="M 192.34972 252 
L 192.34972 241.128 
" style="fill:none;stroke:#4c72b0;"/>
    <path clip-path="url(#p2ce06eda5d)" d="M 213.386369 252 
L 213.386369 241.128 
" style="fill:none;stroke:#4c72b0;"/>
    <path clip-path="url(#p2ce06eda5d)" d="M 163.133389 252 
L 163.133389 241.128 
" style="fill:none;stroke:#4c72b0;"/>
    <path clip-path="url(#p2ce06eda5d)" d="M 163.596869 252 
L 163.596869 241.128 
" style="fill:none;stroke:#4c72b0;"/>
    <path clip-path="url(#p2ce06eda5d)" d="M 263.282858 252 
L 263.282858 241.128 
" style="fill:none;stroke:#4c72b0;"/>
    <path clip-path="url(#p2ce06eda5d)" d="M 155.176511 252 
L 155.176511 241.128 
" style="fill:none;stroke:#4c72b0;"/>
   </g>
   <g id="line2d_8">
    <path clip-path="url(#p2ce06eda5d)" d="M 69.218182 251.913596 
L 74.01131 251.786627 
L 78.804438 251.459625 
L 83.597566 250.78663 
L 85.99413 250.27004 
L 88.390694 249.61294 
L 90.787258 248.80973 
L 93.183822 247.865667 
L 97.976951 245.631602 
L 105.166643 241.846042 
L 109.959771 239.214333 
L 112.356335 237.798553 
L 114.752899 236.225285 
L 117.149463 234.396272 
L 119.546027 232.196649 
L 121.942591 229.504447 
L 124.339155 226.20224 
L 126.735719 222.190183 
L 129.132283 217.399335 
L 131.528848 211.803738 
L 133.925412 205.429345 
L 136.321976 198.357828 
L 138.71854 190.723763 
L 150.70136 150.799704 
L 153.097924 143.695203 
L 155.494488 137.105336 
L 157.891052 131.011051 
L 160.287616 125.344897 
L 165.080744 114.899824 
L 169.873873 105.051522 
L 174.667001 95.674014 
L 177.063565 91.383789 
L 179.460129 87.589238 
L 181.856693 84.50249 
L 184.253257 82.335195 
L 186.649821 81.269214 
L 189.046385 81.431024 
L 191.442949 82.874669 
L 193.839513 85.576515 
L 196.236077 89.442454 
L 198.632641 94.325317 
L 201.029205 100.047844 
L 203.42577 106.425441 
L 208.218898 120.466727 
L 217.805154 149.869683 
L 220.201718 156.780361 
L 222.598282 163.267143 
L 224.994846 169.215088 
L 227.39141 174.531922 
L 229.787974 179.161225 
L 232.184538 183.093072 
L 234.581102 186.369752 
L 236.977666 189.085038 
L 239.37423 191.376522 
L 246.563923 197.418914 
L 248.960487 199.701982 
L 251.357051 202.315859 
L 253.753615 205.304918 
L 256.150179 208.65828 
L 260.943307 216.171695 
L 265.736435 223.967095 
L 268.132999 227.63472 
L 270.529563 230.992511 
L 272.926127 233.959167 
L 275.322691 236.49091 
L 277.719256 238.582805 
L 280.11582 240.264914 
L 282.512384 241.594163 
L 284.908948 242.643511 
L 287.305512 243.490491 
L 292.09864 244.852249 
L 306.478024 248.464559 
L 311.271152 249.398525 
L 316.064281 249.965209 
L 320.857409 250.1203 
L 325.650537 249.959679 
L 332.840229 249.600257 
L 337.633357 249.596213 
L 342.426485 249.881323 
L 349.616178 250.651025 
L 356.80587 251.377913 
L 361.598998 251.689064 
L 368.78869 251.906419 
L 373.581818 251.932485 
L 373.581818 251.932485 
" style="fill:none;stroke:#4c72b0;stroke-linecap:round;stroke-width:1.5;"/>
   </g>
   <g id="patch_18">
    <path d="M 54 252 
L 54 34.56 
" style="fill:none;stroke:#cccccc;stroke-linecap:square;stroke-linejoin:miter;stroke-width:1.25;"/>
   </g>
   <g id="patch_19">
    <path d="M 388.8 252 
L 388.8 34.56 
" style="fill:none;stroke:#cccccc;stroke-linecap:square;stroke-linejoin:miter;stroke-width:1.25;"/>
   </g>
   <g id="patch_20">
    <path d="M 54 252 
L 388.8 252 
" style="fill:none;stroke:#cccccc;stroke-linecap:square;stroke-linejoin:miter;stroke-width:1.25;"/>
   </g>
   <g id="patch_21">
    <path d="M 54 34.56 
L 388.8 34.56 
" style="fill:none;stroke:#cccccc;stroke-linecap:square;stroke-linejoin:miter;stroke-width:1.25;"/>
   </g>
  </g>
 </g>
 <defs>
  <clipPath id="p2ce06eda5d">
   <rect height="217.44" width="334.8" x="54" y="34.56"/>
  </clipPath>
 </defs>
</svg>
