<?xml version="1.0" encoding="utf-8" standalone="no"?>
<!DOCTYPE svg PUBLIC "-//W3C//DTD SVG 1.1//EN"
  "http://www.w3.org/Graphics/SVG/1.1/DTD/svg11.dtd">
<!-- Created with matplotlib (https://matplotlib.org/) -->
<svg height="720pt" version="1.1" viewBox="0 0 1152 720" width="1152pt" xmlns="http://www.w3.org/2000/svg" xmlns:xlink="http://www.w3.org/1999/xlink">
 <defs>
  <style type="text/css">
*{stroke-linecap:butt;stroke-linejoin:round;}
  </style>
 </defs>
 <g id="figure_1">
  <g id="patch_1">
   <path d="M 0 720 
L 1152 720 
L 1152 0 
L 0 0 
z
" style="fill:#ffffff;"/>
  </g>
  <g id="axes_1">
   <g id="patch_2">
    <path d="M 144 630 
L 1036.8 630 
L 1036.8 86.4 
L 144 86.4 
z
" style="fill:#ffffff;"/>
   </g>
   <g id="matplotlib.axis_1">
    <g id="xtick_1">
     <g id="line2d_1">
      <path clip-path="url(#p2d32ab27f0)" d="M 144 630 
L 144 86.4 
" style="fill:none;stroke:#cccccc;stroke-linecap:round;"/>
     </g>
     <g id="text_1">
      <!-- 0.0 -->
      <defs>
       <path d="M 4.15625 35.296875 
Q 4.15625 48 6.765625 55.734375 
Q 9.375 63.484375 14.515625 67.671875 
Q 19.671875 71.875 27.484375 71.875 
Q 33.25 71.875 37.59375 69.546875 
Q 41.9375 67.234375 44.765625 62.859375 
Q 47.609375 58.5 49.21875 52.21875 
Q 50.828125 45.953125 50.828125 35.296875 
Q 50.828125 22.703125 48.234375 14.96875 
Q 45.65625 7.234375 40.5 3 
Q 35.359375 -1.21875 27.484375 -1.21875 
Q 17.140625 -1.21875 11.234375 6.203125 
Q 4.15625 15.140625 4.15625 35.296875 
z
M 13.1875 35.296875 
Q 13.1875 17.671875 17.3125 11.828125 
Q 21.4375 6 27.484375 6 
Q 33.546875 6 37.671875 11.859375 
Q 41.796875 17.71875 41.796875 35.296875 
Q 41.796875 52.984375 37.671875 58.78125 
Q 33.546875 64.59375 27.390625 64.59375 
Q 21.34375 64.59375 17.71875 59.46875 
Q 13.1875 52.9375 13.1875 35.296875 
z
" id="ArialMT-48"/>
       <path d="M 9.078125 0 
L 9.078125 10.015625 
L 19.09375 10.015625 
L 19.09375 0 
z
" id="ArialMT-46"/>
      </defs>
      <g style="fill:#262626;" transform="translate(128.71 655.247187)scale(0.22 -0.22)">
       <use xlink:href="#ArialMT-48"/>
       <use x="55.615234" xlink:href="#ArialMT-46"/>
       <use x="83.398438" xlink:href="#ArialMT-48"/>
      </g>
     </g>
    </g>
    <g id="xtick_2">
     <g id="line2d_2">
      <path clip-path="url(#p2d32ab27f0)" d="M 273.439405 630 
L 273.439405 86.4 
" style="fill:none;stroke:#cccccc;stroke-linecap:round;"/>
     </g>
     <g id="text_2">
      <!-- 0.1 -->
      <defs>
       <path d="M 37.25 0 
L 28.46875 0 
L 28.46875 56 
Q 25.296875 52.984375 20.140625 49.953125 
Q 14.984375 46.921875 10.890625 45.40625 
L 10.890625 53.90625 
Q 18.265625 57.375 23.78125 62.296875 
Q 29.296875 67.234375 31.59375 71.875 
L 37.25 71.875 
z
" id="ArialMT-49"/>
      </defs>
      <g style="fill:#262626;" transform="translate(258.149405 655.247187)scale(0.22 -0.22)">
       <use xlink:href="#ArialMT-48"/>
       <use x="55.615234" xlink:href="#ArialMT-46"/>
       <use x="83.398438" xlink:href="#ArialMT-49"/>
      </g>
     </g>
    </g>
    <g id="xtick_3">
     <g id="line2d_3">
      <path clip-path="url(#p2d32ab27f0)" d="M 402.87881 630 
L 402.87881 86.4 
" style="fill:none;stroke:#cccccc;stroke-linecap:round;"/>
     </g>
     <g id="text_3">
      <!-- 0.2 -->
      <defs>
       <path d="M 50.34375 8.453125 
L 50.34375 0 
L 3.03125 0 
Q 2.9375 3.171875 4.046875 6.109375 
Q 5.859375 10.9375 9.828125 15.625 
Q 13.8125 20.3125 21.34375 26.46875 
Q 33.015625 36.03125 37.109375 41.625 
Q 41.21875 47.21875 41.21875 52.203125 
Q 41.21875 57.421875 37.46875 61 
Q 33.734375 64.59375 27.734375 64.59375 
Q 21.390625 64.59375 17.578125 60.78125 
Q 13.765625 56.984375 13.71875 50.25 
L 4.6875 51.171875 
Q 5.609375 61.28125 11.65625 66.578125 
Q 17.71875 71.875 27.9375 71.875 
Q 38.234375 71.875 44.234375 66.15625 
Q 50.25 60.453125 50.25 52 
Q 50.25 47.703125 48.484375 43.546875 
Q 46.734375 39.40625 42.65625 34.8125 
Q 38.578125 30.21875 29.109375 22.21875 
Q 21.1875 15.578125 18.9375 13.203125 
Q 16.703125 10.84375 15.234375 8.453125 
z
" id="ArialMT-50"/>
      </defs>
      <g style="fill:#262626;" transform="translate(387.58881 655.247187)scale(0.22 -0.22)">
       <use xlink:href="#ArialMT-48"/>
       <use x="55.615234" xlink:href="#ArialMT-46"/>
       <use x="83.398438" xlink:href="#ArialMT-50"/>
      </g>
     </g>
    </g>
    <g id="xtick_4">
     <g id="line2d_4">
      <path clip-path="url(#p2d32ab27f0)" d="M 532.318216 630 
L 532.318216 86.4 
" style="fill:none;stroke:#cccccc;stroke-linecap:round;"/>
     </g>
     <g id="text_4">
      <!-- 0.3 -->
      <defs>
       <path d="M 4.203125 18.890625 
L 12.984375 20.0625 
Q 14.5 12.59375 18.140625 9.296875 
Q 21.78125 6 27 6 
Q 33.203125 6 37.46875 10.296875 
Q 41.75 14.59375 41.75 20.953125 
Q 41.75 27 37.796875 30.921875 
Q 33.84375 34.859375 27.734375 34.859375 
Q 25.25 34.859375 21.53125 33.890625 
L 22.515625 41.609375 
Q 23.390625 41.5 23.921875 41.5 
Q 29.546875 41.5 34.03125 44.421875 
Q 38.53125 47.359375 38.53125 53.46875 
Q 38.53125 58.296875 35.25 61.46875 
Q 31.984375 64.65625 26.8125 64.65625 
Q 21.6875 64.65625 18.265625 61.421875 
Q 14.84375 58.203125 13.875 51.765625 
L 5.078125 53.328125 
Q 6.6875 62.15625 12.390625 67.015625 
Q 18.109375 71.875 26.609375 71.875 
Q 32.46875 71.875 37.390625 69.359375 
Q 42.328125 66.84375 44.9375 62.5 
Q 47.5625 58.15625 47.5625 53.265625 
Q 47.5625 48.640625 45.0625 44.828125 
Q 42.578125 41.015625 37.703125 38.765625 
Q 44.046875 37.3125 47.5625 32.6875 
Q 51.078125 28.078125 51.078125 21.140625 
Q 51.078125 11.765625 44.234375 5.25 
Q 37.40625 -1.265625 26.953125 -1.265625 
Q 17.53125 -1.265625 11.296875 4.34375 
Q 5.078125 9.96875 4.203125 18.890625 
z
" id="ArialMT-51"/>
      </defs>
      <g style="fill:#262626;" transform="translate(517.028216 655.247187)scale(0.22 -0.22)">
       <use xlink:href="#ArialMT-48"/>
       <use x="55.615234" xlink:href="#ArialMT-46"/>
       <use x="83.398438" xlink:href="#ArialMT-51"/>
      </g>
     </g>
    </g>
    <g id="xtick_5">
     <g id="line2d_5">
      <path clip-path="url(#p2d32ab27f0)" d="M 661.757621 630 
L 661.757621 86.4 
" style="fill:none;stroke:#cccccc;stroke-linecap:round;"/>
     </g>
     <g id="text_5">
      <!-- 0.4 -->
      <defs>
       <path d="M 32.328125 0 
L 32.328125 17.140625 
L 1.265625 17.140625 
L 1.265625 25.203125 
L 33.9375 71.578125 
L 41.109375 71.578125 
L 41.109375 25.203125 
L 50.78125 25.203125 
L 50.78125 17.140625 
L 41.109375 17.140625 
L 41.109375 0 
z
M 32.328125 25.203125 
L 32.328125 57.46875 
L 9.90625 25.203125 
z
" id="ArialMT-52"/>
      </defs>
      <g style="fill:#262626;" transform="translate(646.467621 655.247187)scale(0.22 -0.22)">
       <use xlink:href="#ArialMT-48"/>
       <use x="55.615234" xlink:href="#ArialMT-46"/>
       <use x="83.398438" xlink:href="#ArialMT-52"/>
      </g>
     </g>
    </g>
    <g id="xtick_6">
     <g id="line2d_6">
      <path clip-path="url(#p2d32ab27f0)" d="M 791.197026 630 
L 791.197026 86.4 
" style="fill:none;stroke:#cccccc;stroke-linecap:round;"/>
     </g>
     <g id="text_6">
      <!-- 0.5 -->
      <defs>
       <path d="M 4.15625 18.75 
L 13.375 19.53125 
Q 14.40625 12.796875 18.140625 9.390625 
Q 21.875 6 27.15625 6 
Q 33.5 6 37.890625 10.78125 
Q 42.28125 15.578125 42.28125 23.484375 
Q 42.28125 31 38.0625 35.34375 
Q 33.84375 39.703125 27 39.703125 
Q 22.75 39.703125 19.328125 37.765625 
Q 15.921875 35.84375 13.96875 32.765625 
L 5.71875 33.84375 
L 12.640625 70.609375 
L 48.25 70.609375 
L 48.25 62.203125 
L 19.671875 62.203125 
L 15.828125 42.96875 
Q 22.265625 47.46875 29.34375 47.46875 
Q 38.71875 47.46875 45.15625 40.96875 
Q 51.609375 34.46875 51.609375 24.265625 
Q 51.609375 14.546875 45.953125 7.46875 
Q 39.0625 -1.21875 27.15625 -1.21875 
Q 17.390625 -1.21875 11.203125 4.25 
Q 5.03125 9.71875 4.15625 18.75 
z
" id="ArialMT-53"/>
      </defs>
      <g style="fill:#262626;" transform="translate(775.907026 655.247187)scale(0.22 -0.22)">
       <use xlink:href="#ArialMT-48"/>
       <use x="55.615234" xlink:href="#ArialMT-46"/>
       <use x="83.398438" xlink:href="#ArialMT-53"/>
      </g>
     </g>
    </g>
    <g id="xtick_7">
     <g id="line2d_7">
      <path clip-path="url(#p2d32ab27f0)" d="M 920.636431 630 
L 920.636431 86.4 
" style="fill:none;stroke:#cccccc;stroke-linecap:round;"/>
     </g>
     <g id="text_7">
      <!-- 0.6 -->
      <defs>
       <path d="M 49.75 54.046875 
L 41.015625 53.375 
Q 39.84375 58.546875 37.703125 60.890625 
Q 34.125 64.65625 28.90625 64.65625 
Q 24.703125 64.65625 21.53125 62.3125 
Q 17.390625 59.28125 14.984375 53.46875 
Q 12.59375 47.65625 12.5 36.921875 
Q 15.671875 41.75 20.265625 44.09375 
Q 24.859375 46.4375 29.890625 46.4375 
Q 38.671875 46.4375 44.84375 39.96875 
Q 51.03125 33.5 51.03125 23.25 
Q 51.03125 16.5 48.125 10.71875 
Q 45.21875 4.9375 40.140625 1.859375 
Q 35.0625 -1.21875 28.609375 -1.21875 
Q 17.625 -1.21875 10.6875 6.859375 
Q 3.765625 14.9375 3.765625 33.5 
Q 3.765625 54.25 11.421875 63.671875 
Q 18.109375 71.875 29.4375 71.875 
Q 37.890625 71.875 43.28125 67.140625 
Q 48.6875 62.40625 49.75 54.046875 
z
M 13.875 23.1875 
Q 13.875 18.65625 15.796875 14.5 
Q 17.71875 10.359375 21.1875 8.171875 
Q 24.65625 6 28.46875 6 
Q 34.03125 6 38.03125 10.484375 
Q 42.046875 14.984375 42.046875 22.703125 
Q 42.046875 30.125 38.078125 34.390625 
Q 34.125 38.671875 28.125 38.671875 
Q 22.171875 38.671875 18.015625 34.390625 
Q 13.875 30.125 13.875 23.1875 
z
" id="ArialMT-54"/>
      </defs>
      <g style="fill:#262626;" transform="translate(905.346431 655.247187)scale(0.22 -0.22)">
       <use xlink:href="#ArialMT-48"/>
       <use x="55.615234" xlink:href="#ArialMT-46"/>
       <use x="83.398438" xlink:href="#ArialMT-54"/>
      </g>
     </g>
    </g>
    <g id="text_8">
     <!-- Simulation Result -->
     <defs>
      <path d="M 4.5 23 
L 13.421875 23.78125 
Q 14.0625 18.40625 16.375 14.96875 
Q 18.703125 11.53125 23.578125 9.40625 
Q 28.46875 7.28125 34.578125 7.28125 
Q 39.984375 7.28125 44.140625 8.890625 
Q 48.296875 10.5 50.3125 13.296875 
Q 52.34375 16.109375 52.34375 19.4375 
Q 52.34375 22.796875 50.390625 25.3125 
Q 48.4375 27.828125 43.953125 29.546875 
Q 41.0625 30.671875 31.203125 33.03125 
Q 21.34375 35.40625 17.390625 37.5 
Q 12.25 40.1875 9.734375 44.15625 
Q 7.234375 48.140625 7.234375 53.078125 
Q 7.234375 58.5 10.296875 63.203125 
Q 13.375 67.921875 19.28125 70.359375 
Q 25.203125 72.796875 32.421875 72.796875 
Q 40.375 72.796875 46.453125 70.234375 
Q 52.546875 67.671875 55.8125 62.6875 
Q 59.078125 57.71875 59.328125 51.421875 
L 50.25 50.734375 
Q 49.515625 57.515625 45.28125 60.984375 
Q 41.0625 64.453125 32.8125 64.453125 
Q 24.21875 64.453125 20.28125 61.296875 
Q 16.359375 58.15625 16.359375 53.71875 
Q 16.359375 49.859375 19.140625 47.359375 
Q 21.875 44.875 33.421875 42.265625 
Q 44.96875 39.65625 49.265625 37.703125 
Q 55.515625 34.8125 58.484375 30.390625 
Q 61.46875 25.984375 61.46875 20.21875 
Q 61.46875 14.5 58.203125 9.4375 
Q 54.9375 4.390625 48.796875 1.578125 
Q 42.671875 -1.21875 35.015625 -1.21875 
Q 25.296875 -1.21875 18.71875 1.609375 
Q 12.15625 4.4375 8.421875 10.125 
Q 4.6875 15.828125 4.5 23 
z
" id="ArialMT-83"/>
      <path d="M 6.640625 61.46875 
L 6.640625 71.578125 
L 15.4375 71.578125 
L 15.4375 61.46875 
z
M 6.640625 0 
L 6.640625 51.859375 
L 15.4375 51.859375 
L 15.4375 0 
z
" id="ArialMT-105"/>
      <path d="M 6.59375 0 
L 6.59375 51.859375 
L 14.453125 51.859375 
L 14.453125 44.578125 
Q 16.890625 48.390625 20.9375 50.703125 
Q 25 53.03125 30.171875 53.03125 
Q 35.9375 53.03125 39.625 50.640625 
Q 43.3125 48.25 44.828125 43.953125 
Q 50.984375 53.03125 60.84375 53.03125 
Q 68.5625 53.03125 72.703125 48.75 
Q 76.859375 44.484375 76.859375 35.59375 
L 76.859375 0 
L 68.109375 0 
L 68.109375 32.671875 
Q 68.109375 37.9375 67.25 40.25 
Q 66.40625 42.578125 64.15625 43.984375 
Q 61.921875 45.40625 58.890625 45.40625 
Q 53.421875 45.40625 49.796875 41.765625 
Q 46.1875 38.140625 46.1875 30.125 
L 46.1875 0 
L 37.40625 0 
L 37.40625 33.6875 
Q 37.40625 39.546875 35.25 42.46875 
Q 33.109375 45.40625 28.21875 45.40625 
Q 24.515625 45.40625 21.359375 43.453125 
Q 18.21875 41.5 16.796875 37.734375 
Q 15.375 33.984375 15.375 26.90625 
L 15.375 0 
z
" id="ArialMT-109"/>
      <path d="M 40.578125 0 
L 40.578125 7.625 
Q 34.515625 -1.171875 24.125 -1.171875 
Q 19.53125 -1.171875 15.546875 0.578125 
Q 11.578125 2.34375 9.640625 5 
Q 7.71875 7.671875 6.9375 11.53125 
Q 6.390625 14.109375 6.390625 19.734375 
L 6.390625 51.859375 
L 15.1875 51.859375 
L 15.1875 23.09375 
Q 15.1875 16.21875 15.71875 13.8125 
Q 16.546875 10.359375 19.234375 8.375 
Q 21.921875 6.390625 25.875 6.390625 
Q 29.828125 6.390625 33.296875 8.421875 
Q 36.765625 10.453125 38.203125 13.9375 
Q 39.65625 17.4375 39.65625 24.078125 
L 39.65625 51.859375 
L 48.4375 51.859375 
L 48.4375 0 
z
" id="ArialMT-117"/>
      <path d="M 6.390625 0 
L 6.390625 71.578125 
L 15.1875 71.578125 
L 15.1875 0 
z
" id="ArialMT-108"/>
      <path d="M 40.4375 6.390625 
Q 35.546875 2.25 31.03125 0.53125 
Q 26.515625 -1.171875 21.34375 -1.171875 
Q 12.796875 -1.171875 8.203125 3 
Q 3.609375 7.171875 3.609375 13.671875 
Q 3.609375 17.484375 5.34375 20.625 
Q 7.078125 23.78125 9.890625 25.6875 
Q 12.703125 27.59375 16.21875 28.5625 
Q 18.796875 29.25 24.03125 29.890625 
Q 34.671875 31.15625 39.703125 32.90625 
Q 39.75 34.71875 39.75 35.203125 
Q 39.75 40.578125 37.25 42.78125 
Q 33.890625 45.75 27.25 45.75 
Q 21.046875 45.75 18.09375 43.578125 
Q 15.140625 41.40625 13.71875 35.890625 
L 5.125 37.0625 
Q 6.296875 42.578125 8.984375 45.96875 
Q 11.671875 49.359375 16.75 51.1875 
Q 21.828125 53.03125 28.515625 53.03125 
Q 35.15625 53.03125 39.296875 51.46875 
Q 43.453125 49.90625 45.40625 47.53125 
Q 47.359375 45.171875 48.140625 41.546875 
Q 48.578125 39.3125 48.578125 33.453125 
L 48.578125 21.734375 
Q 48.578125 9.46875 49.140625 6.21875 
Q 49.703125 2.984375 51.375 0 
L 42.1875 0 
Q 40.828125 2.734375 40.4375 6.390625 
z
M 39.703125 26.03125 
Q 34.90625 24.078125 25.34375 22.703125 
Q 19.921875 21.921875 17.671875 20.9375 
Q 15.4375 19.96875 14.203125 18.09375 
Q 12.984375 16.21875 12.984375 13.921875 
Q 12.984375 10.40625 15.640625 8.0625 
Q 18.3125 5.71875 23.4375 5.71875 
Q 28.515625 5.71875 32.46875 7.9375 
Q 36.421875 10.15625 38.28125 14.015625 
Q 39.703125 17 39.703125 22.796875 
z
" id="ArialMT-97"/>
      <path d="M 25.78125 7.859375 
L 27.046875 0.09375 
Q 23.34375 -0.6875 20.40625 -0.6875 
Q 15.625 -0.6875 12.984375 0.828125 
Q 10.359375 2.34375 9.28125 4.8125 
Q 8.203125 7.28125 8.203125 15.1875 
L 8.203125 45.015625 
L 1.765625 45.015625 
L 1.765625 51.859375 
L 8.203125 51.859375 
L 8.203125 64.703125 
L 16.9375 69.96875 
L 16.9375 51.859375 
L 25.78125 51.859375 
L 25.78125 45.015625 
L 16.9375 45.015625 
L 16.9375 14.703125 
Q 16.9375 10.9375 17.40625 9.859375 
Q 17.875 8.796875 18.921875 8.15625 
Q 19.96875 7.515625 21.921875 7.515625 
Q 23.390625 7.515625 25.78125 7.859375 
z
" id="ArialMT-116"/>
      <path d="M 3.328125 25.921875 
Q 3.328125 40.328125 11.328125 47.265625 
Q 18.015625 53.03125 27.640625 53.03125 
Q 38.328125 53.03125 45.109375 46.015625 
Q 51.90625 39.015625 51.90625 26.65625 
Q 51.90625 16.65625 48.90625 10.90625 
Q 45.90625 5.171875 40.15625 2 
Q 34.421875 -1.171875 27.640625 -1.171875 
Q 16.75 -1.171875 10.03125 5.8125 
Q 3.328125 12.796875 3.328125 25.921875 
z
M 12.359375 25.921875 
Q 12.359375 15.96875 16.703125 11.015625 
Q 21.046875 6.0625 27.640625 6.0625 
Q 34.1875 6.0625 38.53125 11.03125 
Q 42.875 16.015625 42.875 26.21875 
Q 42.875 35.84375 38.5 40.796875 
Q 34.125 45.75 27.640625 45.75 
Q 21.046875 45.75 16.703125 40.8125 
Q 12.359375 35.890625 12.359375 25.921875 
z
" id="ArialMT-111"/>
      <path d="M 6.59375 0 
L 6.59375 51.859375 
L 14.5 51.859375 
L 14.5 44.484375 
Q 20.21875 53.03125 31 53.03125 
Q 35.6875 53.03125 39.625 51.34375 
Q 43.5625 49.65625 45.515625 46.921875 
Q 47.46875 44.1875 48.25 40.4375 
Q 48.734375 37.984375 48.734375 31.890625 
L 48.734375 0 
L 39.9375 0 
L 39.9375 31.546875 
Q 39.9375 36.921875 38.90625 39.578125 
Q 37.890625 42.234375 35.28125 43.8125 
Q 32.671875 45.40625 29.15625 45.40625 
Q 23.53125 45.40625 19.453125 41.84375 
Q 15.375 38.28125 15.375 28.328125 
L 15.375 0 
z
" id="ArialMT-110"/>
      <path id="ArialMT-32"/>
      <path d="M 7.859375 0 
L 7.859375 71.578125 
L 39.59375 71.578125 
Q 49.171875 71.578125 54.140625 69.640625 
Q 59.125 67.71875 62.109375 62.828125 
Q 65.09375 57.953125 65.09375 52.046875 
Q 65.09375 44.4375 60.15625 39.203125 
Q 55.21875 33.984375 44.921875 32.5625 
Q 48.6875 30.765625 50.640625 29 
Q 54.78125 25.203125 58.5 19.484375 
L 70.953125 0 
L 59.03125 0 
L 49.5625 14.890625 
Q 45.40625 21.34375 42.71875 24.75 
Q 40.046875 28.171875 37.921875 29.53125 
Q 35.796875 30.90625 33.59375 31.453125 
Q 31.984375 31.78125 28.328125 31.78125 
L 17.328125 31.78125 
L 17.328125 0 
z
M 17.328125 39.984375 
L 37.703125 39.984375 
Q 44.1875 39.984375 47.84375 41.328125 
Q 51.515625 42.671875 53.421875 45.625 
Q 55.328125 48.578125 55.328125 52.046875 
Q 55.328125 57.125 51.640625 60.390625 
Q 47.953125 63.671875 39.984375 63.671875 
L 17.328125 63.671875 
z
" id="ArialMT-82"/>
      <path d="M 42.09375 16.703125 
L 51.171875 15.578125 
Q 49.03125 7.625 43.21875 3.21875 
Q 37.40625 -1.171875 28.375 -1.171875 
Q 17 -1.171875 10.328125 5.828125 
Q 3.65625 12.84375 3.65625 25.484375 
Q 3.65625 38.578125 10.390625 45.796875 
Q 17.140625 53.03125 27.875 53.03125 
Q 38.28125 53.03125 44.875 45.953125 
Q 51.46875 38.875 51.46875 26.03125 
Q 51.46875 25.25 51.421875 23.6875 
L 12.75 23.6875 
Q 13.234375 15.140625 17.578125 10.59375 
Q 21.921875 6.0625 28.421875 6.0625 
Q 33.25 6.0625 36.671875 8.59375 
Q 40.09375 11.140625 42.09375 16.703125 
z
M 13.234375 30.90625 
L 42.1875 30.90625 
Q 41.609375 37.453125 38.875 40.71875 
Q 34.671875 45.796875 27.984375 45.796875 
Q 21.921875 45.796875 17.796875 41.75 
Q 13.671875 37.703125 13.234375 30.90625 
z
" id="ArialMT-101"/>
      <path d="M 3.078125 15.484375 
L 11.765625 16.84375 
Q 12.5 11.625 15.84375 8.84375 
Q 19.1875 6.0625 25.203125 6.0625 
Q 31.25 6.0625 34.171875 8.515625 
Q 37.109375 10.984375 37.109375 14.3125 
Q 37.109375 17.28125 34.515625 19 
Q 32.71875 20.171875 25.53125 21.96875 
Q 15.875 24.421875 12.140625 26.203125 
Q 8.40625 27.984375 6.46875 31.125 
Q 4.546875 34.28125 4.546875 38.09375 
Q 4.546875 41.546875 6.125 44.5 
Q 7.71875 47.46875 10.453125 49.421875 
Q 12.5 50.921875 16.03125 51.96875 
Q 19.578125 53.03125 23.640625 53.03125 
Q 29.734375 53.03125 34.34375 51.265625 
Q 38.96875 49.515625 41.15625 46.5 
Q 43.359375 43.5 44.1875 38.484375 
L 35.59375 37.3125 
Q 35.015625 41.3125 32.203125 43.546875 
Q 29.390625 45.796875 24.265625 45.796875 
Q 18.21875 45.796875 15.625 43.796875 
Q 13.03125 41.796875 13.03125 39.109375 
Q 13.03125 37.40625 14.109375 36.03125 
Q 15.1875 34.625 17.484375 33.6875 
Q 18.796875 33.203125 25.25 31.453125 
Q 34.578125 28.953125 38.25 27.359375 
Q 41.9375 25.78125 44.03125 22.75 
Q 46.140625 19.734375 46.140625 15.234375 
Q 46.140625 10.84375 43.578125 6.953125 
Q 41.015625 3.078125 36.171875 0.953125 
Q 31.34375 -1.171875 25.25 -1.171875 
Q 15.140625 -1.171875 9.84375 3.03125 
Q 4.546875 7.234375 3.078125 15.484375 
z
" id="ArialMT-115"/>
     </defs>
     <g style="fill:#262626;" transform="translate(497.02875 680.798437)scale(0.24 -0.24)">
      <use xlink:href="#ArialMT-83"/>
      <use x="66.699219" xlink:href="#ArialMT-105"/>
      <use x="88.916016" xlink:href="#ArialMT-109"/>
      <use x="172.216797" xlink:href="#ArialMT-117"/>
      <use x="227.832031" xlink:href="#ArialMT-108"/>
      <use x="250.048828" xlink:href="#ArialMT-97"/>
      <use x="305.664062" xlink:href="#ArialMT-116"/>
      <use x="333.447266" xlink:href="#ArialMT-105"/>
      <use x="355.664062" xlink:href="#ArialMT-111"/>
      <use x="411.279297" xlink:href="#ArialMT-110"/>
      <use x="466.894531" xlink:href="#ArialMT-32"/>
      <use x="494.677734" xlink:href="#ArialMT-82"/>
      <use x="566.894531" xlink:href="#ArialMT-101"/>
      <use x="622.509766" xlink:href="#ArialMT-115"/>
      <use x="672.509766" xlink:href="#ArialMT-117"/>
      <use x="728.125" xlink:href="#ArialMT-108"/>
      <use x="750.341797" xlink:href="#ArialMT-116"/>
     </g>
    </g>
   </g>
   <g id="matplotlib.axis_2">
    <g id="ytick_1">
     <g id="line2d_8">
      <path clip-path="url(#p2d32ab27f0)" d="M 144 562.233646 
L 1036.8 562.233646 
" style="fill:none;stroke:#cccccc;stroke-linecap:round;"/>
     </g>
     <g id="text_9">
      <!-- −0.2 -->
      <defs>
       <path d="M 52.828125 31.203125 
L 5.5625 31.203125 
L 5.5625 39.40625 
L 52.828125 39.40625 
z
" id="ArialMT-8722"/>
      </defs>
      <g style="fill:#262626;" transform="translate(91.070625 570.10724)scale(0.22 -0.22)">
       <use xlink:href="#ArialMT-8722"/>
       <use x="58.398438" xlink:href="#ArialMT-48"/>
       <use x="114.013672" xlink:href="#ArialMT-46"/>
       <use x="141.796875" xlink:href="#ArialMT-50"/>
      </g>
     </g>
    </g>
    <g id="ytick_2">
     <g id="line2d_9">
      <path clip-path="url(#p2d32ab27f0)" d="M 144 482.55552 
L 1036.8 482.55552 
" style="fill:none;stroke:#cccccc;stroke-linecap:round;"/>
     </g>
     <g id="text_10">
      <!-- 0.0 -->
      <g style="fill:#262626;" transform="translate(103.92 490.429114)scale(0.22 -0.22)">
       <use xlink:href="#ArialMT-48"/>
       <use x="55.615234" xlink:href="#ArialMT-46"/>
       <use x="83.398438" xlink:href="#ArialMT-48"/>
      </g>
     </g>
    </g>
    <g id="ytick_3">
     <g id="line2d_10">
      <path clip-path="url(#p2d32ab27f0)" d="M 144 402.877393 
L 1036.8 402.877393 
" style="fill:none;stroke:#cccccc;stroke-linecap:round;"/>
     </g>
     <g id="text_11">
      <!-- 0.2 -->
      <g style="fill:#262626;" transform="translate(103.92 410.750987)scale(0.22 -0.22)">
       <use xlink:href="#ArialMT-48"/>
       <use x="55.615234" xlink:href="#ArialMT-46"/>
       <use x="83.398438" xlink:href="#ArialMT-50"/>
      </g>
     </g>
    </g>
    <g id="ytick_4">
     <g id="line2d_11">
      <path clip-path="url(#p2d32ab27f0)" d="M 144 323.199267 
L 1036.8 323.199267 
" style="fill:none;stroke:#cccccc;stroke-linecap:round;"/>
     </g>
     <g id="text_12">
      <!-- 0.4 -->
      <g style="fill:#262626;" transform="translate(103.92 331.072861)scale(0.22 -0.22)">
       <use xlink:href="#ArialMT-48"/>
       <use x="55.615234" xlink:href="#ArialMT-46"/>
       <use x="83.398438" xlink:href="#ArialMT-52"/>
      </g>
     </g>
    </g>
    <g id="ytick_5">
     <g id="line2d_12">
      <path clip-path="url(#p2d32ab27f0)" d="M 144 243.52114 
L 1036.8 243.52114 
" style="fill:none;stroke:#cccccc;stroke-linecap:round;"/>
     </g>
     <g id="text_13">
      <!-- 0.6 -->
      <g style="fill:#262626;" transform="translate(103.92 251.394734)scale(0.22 -0.22)">
       <use xlink:href="#ArialMT-48"/>
       <use x="55.615234" xlink:href="#ArialMT-46"/>
       <use x="83.398438" xlink:href="#ArialMT-54"/>
      </g>
     </g>
    </g>
    <g id="ytick_6">
     <g id="line2d_13">
      <path clip-path="url(#p2d32ab27f0)" d="M 144 163.843014 
L 1036.8 163.843014 
" style="fill:none;stroke:#cccccc;stroke-linecap:round;"/>
     </g>
     <g id="text_14">
      <!-- 0.8 -->
      <defs>
       <path d="M 17.671875 38.8125 
Q 12.203125 40.828125 9.5625 44.53125 
Q 6.9375 48.25 6.9375 53.421875 
Q 6.9375 61.234375 12.546875 66.546875 
Q 18.171875 71.875 27.484375 71.875 
Q 36.859375 71.875 42.578125 66.421875 
Q 48.296875 60.984375 48.296875 53.171875 
Q 48.296875 48.1875 45.671875 44.5 
Q 43.0625 40.828125 37.75 38.8125 
Q 44.34375 36.671875 47.78125 31.875 
Q 51.21875 27.09375 51.21875 20.453125 
Q 51.21875 11.28125 44.71875 5.03125 
Q 38.234375 -1.21875 27.640625 -1.21875 
Q 17.046875 -1.21875 10.546875 5.046875 
Q 4.046875 11.328125 4.046875 20.703125 
Q 4.046875 27.6875 7.59375 32.390625 
Q 11.140625 37.109375 17.671875 38.8125 
z
M 15.921875 53.71875 
Q 15.921875 48.640625 19.1875 45.40625 
Q 22.46875 42.1875 27.6875 42.1875 
Q 32.765625 42.1875 36.015625 45.375 
Q 39.265625 48.578125 39.265625 53.21875 
Q 39.265625 58.0625 35.90625 61.359375 
Q 32.5625 64.65625 27.59375 64.65625 
Q 22.5625 64.65625 19.234375 61.421875 
Q 15.921875 58.203125 15.921875 53.71875 
z
M 13.09375 20.65625 
Q 13.09375 16.890625 14.875 13.375 
Q 16.65625 9.859375 20.171875 7.921875 
Q 23.6875 6 27.734375 6 
Q 34.03125 6 38.125 10.046875 
Q 42.234375 14.109375 42.234375 20.359375 
Q 42.234375 26.703125 38.015625 30.859375 
Q 33.796875 35.015625 27.4375 35.015625 
Q 21.234375 35.015625 17.15625 30.90625 
Q 13.09375 26.8125 13.09375 20.65625 
z
" id="ArialMT-56"/>
      </defs>
      <g style="fill:#262626;" transform="translate(103.92 171.716607)scale(0.22 -0.22)">
       <use xlink:href="#ArialMT-48"/>
       <use x="55.615234" xlink:href="#ArialMT-46"/>
       <use x="83.398438" xlink:href="#ArialMT-56"/>
      </g>
     </g>
    </g>
    <g id="text_15">
     <!-- Predicted -->
     <defs>
      <path d="M 7.71875 0 
L 7.71875 71.578125 
L 34.71875 71.578125 
Q 41.84375 71.578125 45.609375 70.90625 
Q 50.875 70.015625 54.4375 67.546875 
Q 58.015625 65.09375 60.1875 60.640625 
Q 62.359375 56.203125 62.359375 50.875 
Q 62.359375 41.75 56.546875 35.421875 
Q 50.734375 29.109375 35.546875 29.109375 
L 17.1875 29.109375 
L 17.1875 0 
z
M 17.1875 37.546875 
L 35.6875 37.546875 
Q 44.875 37.546875 48.734375 40.96875 
Q 52.59375 44.390625 52.59375 50.59375 
Q 52.59375 55.078125 50.3125 58.265625 
Q 48.046875 61.46875 44.34375 62.5 
Q 41.9375 63.140625 35.5 63.140625 
L 17.1875 63.140625 
z
" id="ArialMT-80"/>
      <path d="M 6.5 0 
L 6.5 51.859375 
L 14.40625 51.859375 
L 14.40625 44 
Q 17.4375 49.515625 20 51.265625 
Q 22.5625 53.03125 25.640625 53.03125 
Q 30.078125 53.03125 34.671875 50.203125 
L 31.640625 42.046875 
Q 28.421875 43.953125 25.203125 43.953125 
Q 22.3125 43.953125 20.015625 42.21875 
Q 17.71875 40.484375 16.75 37.40625 
Q 15.28125 32.71875 15.28125 27.15625 
L 15.28125 0 
z
" id="ArialMT-114"/>
      <path d="M 40.234375 0 
L 40.234375 6.546875 
Q 35.296875 -1.171875 25.734375 -1.171875 
Q 19.53125 -1.171875 14.328125 2.25 
Q 9.125 5.671875 6.265625 11.796875 
Q 3.421875 17.921875 3.421875 25.875 
Q 3.421875 33.640625 6 39.96875 
Q 8.59375 46.296875 13.765625 49.65625 
Q 18.953125 53.03125 25.34375 53.03125 
Q 30.03125 53.03125 33.6875 51.046875 
Q 37.359375 49.078125 39.65625 45.90625 
L 39.65625 71.578125 
L 48.390625 71.578125 
L 48.390625 0 
z
M 12.453125 25.875 
Q 12.453125 15.921875 16.640625 10.984375 
Q 20.84375 6.0625 26.5625 6.0625 
Q 32.328125 6.0625 36.34375 10.765625 
Q 40.375 15.484375 40.375 25.140625 
Q 40.375 35.796875 36.265625 40.765625 
Q 32.171875 45.75 26.171875 45.75 
Q 20.3125 45.75 16.375 40.96875 
Q 12.453125 36.1875 12.453125 25.875 
z
" id="ArialMT-100"/>
      <path d="M 40.4375 19 
L 49.078125 17.875 
Q 47.65625 8.9375 41.8125 3.875 
Q 35.984375 -1.171875 27.484375 -1.171875 
Q 16.84375 -1.171875 10.375 5.78125 
Q 3.90625 12.75 3.90625 25.734375 
Q 3.90625 34.125 6.6875 40.421875 
Q 9.46875 46.734375 15.15625 49.875 
Q 20.84375 53.03125 27.546875 53.03125 
Q 35.984375 53.03125 41.359375 48.75 
Q 46.734375 44.484375 48.25 36.625 
L 39.703125 35.296875 
Q 38.484375 40.53125 35.375 43.15625 
Q 32.28125 45.796875 27.875 45.796875 
Q 21.234375 45.796875 17.078125 41.03125 
Q 12.9375 36.28125 12.9375 25.984375 
Q 12.9375 15.53125 16.9375 10.796875 
Q 20.953125 6.0625 27.390625 6.0625 
Q 32.5625 6.0625 36.03125 9.234375 
Q 39.5 12.40625 40.4375 19 
z
" id="ArialMT-99"/>
     </defs>
     <g style="fill:#262626;" transform="translate(82.300625 408.8925)rotate(-90)scale(0.24 -0.24)">
      <use xlink:href="#ArialMT-80"/>
      <use x="66.699219" xlink:href="#ArialMT-114"/>
      <use x="100" xlink:href="#ArialMT-101"/>
      <use x="155.615234" xlink:href="#ArialMT-100"/>
      <use x="211.230469" xlink:href="#ArialMT-105"/>
      <use x="233.447266" xlink:href="#ArialMT-99"/>
      <use x="283.447266" xlink:href="#ArialMT-116"/>
      <use x="311.230469" xlink:href="#ArialMT-101"/>
      <use x="366.845703" xlink:href="#ArialMT-100"/>
     </g>
    </g>
   </g>
   <g id="LineCollection_1">
    <path clip-path="url(#p2d32ab27f0)" d="M 314.42855 484.747067 
L 314.42855 317.840386 
" style="fill:none;stroke:#64b5cd;stroke-width:0.5;"/>
    <path clip-path="url(#p2d32ab27f0)" d="M 493.880626 455.676615 
L 493.880626 288.393814 
" style="fill:none;stroke:#64b5cd;stroke-width:0.5;"/>
    <path clip-path="url(#p2d32ab27f0)" d="M 697.199363 391.148815 
L 697.199363 226.411252 
" style="fill:none;stroke:#64b5cd;stroke-width:0.5;"/>
    <path clip-path="url(#p2d32ab27f0)" d="M 665.866808 422.657228 
L 665.866808 249.715794 
" style="fill:none;stroke:#64b5cd;stroke-width:0.5;"/>
    <path clip-path="url(#p2d32ab27f0)" d="M 523.688922 419.391165 
L 523.688922 256.767506 
" style="fill:none;stroke:#64b5cd;stroke-width:0.5;"/>
    <path clip-path="url(#p2d32ab27f0)" d="M 575.464684 431.70519 
L 575.464684 268.47662 
" style="fill:none;stroke:#64b5cd;stroke-width:0.5;"/>
    <path clip-path="url(#p2d32ab27f0)" d="M 405.018305 449.039795 
L 405.018305 285.560848 
" style="fill:none;stroke:#64b5cd;stroke-width:0.5;"/>
    <path clip-path="url(#p2d32ab27f0)" d="M 144 531.087512 
L 144 360.643036 
" style="fill:none;stroke:#64b5cd;stroke-width:0.5;"/>
    <path clip-path="url(#p2d32ab27f0)" d="M 501.315814 498.465623 
L 501.315814 332.971967 
" style="fill:none;stroke:#64b5cd;stroke-width:0.5;"/>
    <path clip-path="url(#p2d32ab27f0)" d="M 434.670945 474.358944 
L 434.670945 306.487562 
" style="fill:none;stroke:#64b5cd;stroke-width:0.5;"/>
    <path clip-path="url(#p2d32ab27f0)" d="M 721.78749 423.323524 
L 721.78749 256.763727 
" style="fill:none;stroke:#64b5cd;stroke-width:0.5;"/>
    <path clip-path="url(#p2d32ab27f0)" d="M 724.542183 363.964828 
L 724.542183 200.765121 
" style="fill:none;stroke:#64b5cd;stroke-width:0.5;"/>
    <path clip-path="url(#p2d32ab27f0)" d="M 314.987856 456.735793 
L 314.987856 288.294126 
" style="fill:none;stroke:#64b5cd;stroke-width:0.5;"/>
    <path clip-path="url(#p2d32ab27f0)" d="M 472.288347 474.915844 
L 472.288347 311.433665 
" style="fill:none;stroke:#64b5cd;stroke-width:0.5;"/>
    <path clip-path="url(#p2d32ab27f0)" d="M 739.065242 367.80008 
L 739.065242 204.224407 
" style="fill:none;stroke:#64b5cd;stroke-width:0.5;"/>
    <path clip-path="url(#p2d32ab27f0)" d="M 722.99777 394.739661 
L 722.99777 231.757437 
" style="fill:none;stroke:#64b5cd;stroke-width:0.5;"/>
    <path clip-path="url(#p2d32ab27f0)" d="M 826.046097 361.215398 
L 826.046097 199.530527 
" style="fill:none;stroke:#64b5cd;stroke-width:0.5;"/>
    <path clip-path="url(#p2d32ab27f0)" d="M 846.399125 399.975522 
L 846.399125 238.497515 
" style="fill:none;stroke:#64b5cd;stroke-width:0.5;"/>
    <path clip-path="url(#p2d32ab27f0)" d="M 969.176208 365.18447 
L 969.176208 200.863523 
" style="fill:none;stroke:#64b5cd;stroke-width:0.5;"/>
    <path clip-path="url(#p2d32ab27f0)" d="M 190.872208 507.93293 
L 190.872208 346.185907 
" style="fill:none;stroke:#64b5cd;stroke-width:0.5;"/>
    <path clip-path="url(#p2d32ab27f0)" d="M 652.843573 399.372726 
L 652.843573 230.944647 
" style="fill:none;stroke:#64b5cd;stroke-width:0.5;"/>
    <path clip-path="url(#p2d32ab27f0)" d="M 585.532193 496.31985 
L 585.532193 329.246758 
" style="fill:none;stroke:#64b5cd;stroke-width:0.5;"/>
    <path clip-path="url(#p2d32ab27f0)" d="M 736.632406 338.925386 
L 736.632406 175.291435 
" style="fill:none;stroke:#64b5cd;stroke-width:0.5;"/>
    <path clip-path="url(#p2d32ab27f0)" d="M 270.742751 516.35258 
L 270.742751 352.490464 
" style="fill:none;stroke:#64b5cd;stroke-width:0.5;"/>
    <path clip-path="url(#p2d32ab27f0)" d="M 395.501435 457.315061 
L 395.501435 288.594196 
" style="fill:none;stroke:#64b5cd;stroke-width:0.5;"/>
    <path clip-path="url(#p2d32ab27f0)" d="M 535.913755 365.743941 
L 535.913755 203.07743 
" style="fill:none;stroke:#64b5cd;stroke-width:0.5;"/>
    <path clip-path="url(#p2d32ab27f0)" d="M 851.226895 311.204944 
L 851.226895 148.005694 
" style="fill:none;stroke:#64b5cd;stroke-width:0.5;"/>
    <path clip-path="url(#p2d32ab27f0)" d="M 984.328837 276.199167 
L 984.328837 111.109091 
" style="fill:none;stroke:#64b5cd;stroke-width:0.5;"/>
    <path clip-path="url(#p2d32ab27f0)" d="M 484.193309 522.506973 
L 484.193309 350.91729 
" style="fill:none;stroke:#64b5cd;stroke-width:0.5;"/>
    <path clip-path="url(#p2d32ab27f0)" d="M 263.084253 494.169545 
L 263.084253 329.004457 
" style="fill:none;stroke:#64b5cd;stroke-width:0.5;"/>
    <path clip-path="url(#p2d32ab27f0)" d="M 668.039482 438.867987 
L 668.039482 275.914405 
" style="fill:none;stroke:#64b5cd;stroke-width:0.5;"/>
    <path clip-path="url(#p2d32ab27f0)" d="M 729.010835 357.635051 
L 729.010835 194.746722 
" style="fill:none;stroke:#64b5cd;stroke-width:0.5;"/>
    <path clip-path="url(#p2d32ab27f0)" d="M 334.752808 498.096012 
L 334.752808 326.552228 
" style="fill:none;stroke:#64b5cd;stroke-width:0.5;"/>
    <path clip-path="url(#p2d32ab27f0)" d="M 620.049368 371.158131 
L 620.049368 206.58096 
" style="fill:none;stroke:#64b5cd;stroke-width:0.5;"/>
    <path clip-path="url(#p2d32ab27f0)" d="M 406.074845 544.483647 
L 406.074845 381.33435 
" style="fill:none;stroke:#64b5cd;stroke-width:0.5;"/>
    <path clip-path="url(#p2d32ab27f0)" d="M 616.221934 427.047476 
L 616.221934 263.89224 
" style="fill:none;stroke:#64b5cd;stroke-width:0.5;"/>
    <path clip-path="url(#p2d32ab27f0)" d="M 346.948203 479.398848 
L 346.948203 316.205223 
" style="fill:none;stroke:#64b5cd;stroke-width:0.5;"/>
    <path clip-path="url(#p2d32ab27f0)" d="M 782.899628 406.410141 
L 782.899628 244.767252 
" style="fill:none;stroke:#64b5cd;stroke-width:0.5;"/>
    <path clip-path="url(#p2d32ab27f0)" d="M 671.137288 446.627503 
L 671.137288 277.195054 
" style="fill:none;stroke:#64b5cd;stroke-width:0.5;"/>
    <path clip-path="url(#p2d32ab27f0)" d="M 776.81487 402.111445 
L 776.81487 239.213399 
" style="fill:none;stroke:#64b5cd;stroke-width:0.5;"/>
    <path clip-path="url(#p2d32ab27f0)" d="M 898.319292 407.648981 
L 898.319292 244.434254 
" style="fill:none;stroke:#64b5cd;stroke-width:0.5;"/>
    <path clip-path="url(#p2d32ab27f0)" d="M 667.921402 405.808109 
L 667.921402 243.58492 
" style="fill:none;stroke:#64b5cd;stroke-width:0.5;"/>
    <path clip-path="url(#p2d32ab27f0)" d="M 379.185999 440.354566 
L 379.185999 274.807122 
" style="fill:none;stroke:#64b5cd;stroke-width:0.5;"/>
    <path clip-path="url(#p2d32ab27f0)" d="M 785.212377 388.567831 
L 785.212377 225.240119 
" style="fill:none;stroke:#64b5cd;stroke-width:0.5;"/>
    <path clip-path="url(#p2d32ab27f0)" d="M 768.927881 359.616443 
L 768.927881 196.004321 
" style="fill:none;stroke:#64b5cd;stroke-width:0.5;"/>
    <path clip-path="url(#p2d32ab27f0)" d="M 934.9194 394.803939 
L 934.9194 232.856025 
" style="fill:none;stroke:#64b5cd;stroke-width:0.5;"/>
    <path clip-path="url(#p2d32ab27f0)" d="M 550.989378 494.838124 
L 550.989378 324.365435 
" style="fill:none;stroke:#64b5cd;stroke-width:0.5;"/>
    <path clip-path="url(#p2d32ab27f0)" d="M 414.239184 459.50844 
L 414.239184 294.406016 
" style="fill:none;stroke:#64b5cd;stroke-width:0.5;"/>
    <path clip-path="url(#p2d32ab27f0)" d="M 508.513268 416.84895 
L 508.513268 244.689955 
" style="fill:none;stroke:#64b5cd;stroke-width:0.5;"/>
    <path clip-path="url(#p2d32ab27f0)" d="M 522.77069 411.802068 
L 522.77069 241.284467 
" style="fill:none;stroke:#64b5cd;stroke-width:0.5;"/>
    <path clip-path="url(#p2d32ab27f0)" d="M 212.038662 519.555187 
L 212.038662 352.102306 
" style="fill:none;stroke:#64b5cd;stroke-width:0.5;"/>
    <path clip-path="url(#p2d32ab27f0)" d="M 547.196308 463.718792 
L 547.196308 299.956351 
" style="fill:none;stroke:#64b5cd;stroke-width:0.5;"/>
    <path clip-path="url(#p2d32ab27f0)" d="M 650.50202 330.952457 
L 650.50202 160.8254 
" style="fill:none;stroke:#64b5cd;stroke-width:0.5;"/>
    <path clip-path="url(#p2d32ab27f0)" d="M 144 569.070596 
L 144 391.684027 
" style="fill:none;stroke:#64b5cd;stroke-width:0.5;"/>
    <path clip-path="url(#p2d32ab27f0)" d="M 178.928093 555.561274 
L 178.928093 391.404492 
" style="fill:none;stroke:#64b5cd;stroke-width:0.5;"/>
    <path clip-path="url(#p2d32ab27f0)" d="M 471.26743 459.867496 
L 471.26743 296.172258 
" style="fill:none;stroke:#64b5cd;stroke-width:0.5;"/>
    <path clip-path="url(#p2d32ab27f0)" d="M 669.847584 435.376663 
L 669.847584 255.551586 
" style="fill:none;stroke:#64b5cd;stroke-width:0.5;"/>
    <path clip-path="url(#p2d32ab27f0)" d="M 758.007435 349.273003 
L 758.007435 184.277816 
" style="fill:none;stroke:#64b5cd;stroke-width:0.5;"/>
    <path clip-path="url(#p2d32ab27f0)" d="M 370.755162 478.837628 
L 370.755162 305.458591 
" style="fill:none;stroke:#64b5cd;stroke-width:0.5;"/>
    <path clip-path="url(#p2d32ab27f0)" d="M 795.819862 389.586445 
L 795.819862 224.037587 
" style="fill:none;stroke:#64b5cd;stroke-width:0.5;"/>
    <path clip-path="url(#p2d32ab27f0)" d="M 318.461807 507.139538 
L 318.461807 336.931925 
" style="fill:none;stroke:#64b5cd;stroke-width:0.5;"/>
    <path clip-path="url(#p2d32ab27f0)" d="M 256.180818 525.146807 
L 256.180818 358.506036 
" style="fill:none;stroke:#64b5cd;stroke-width:0.5;"/>
    <path clip-path="url(#p2d32ab27f0)" d="M 718.035623 460.414742 
L 718.035623 290.070536 
" style="fill:none;stroke:#64b5cd;stroke-width:0.5;"/>
    <path clip-path="url(#p2d32ab27f0)" d="M 205.000179 547.016118 
L 205.000179 378.622517 
" style="fill:none;stroke:#64b5cd;stroke-width:0.5;"/>
    <path clip-path="url(#p2d32ab27f0)" d="M 415.489957 467.542271 
L 415.489957 291.476231 
" style="fill:none;stroke:#64b5cd;stroke-width:0.5;"/>
    <path clip-path="url(#p2d32ab27f0)" d="M 422.490842 480.210035 
L 422.490842 316.596379 
" style="fill:none;stroke:#64b5cd;stroke-width:0.5;"/>
    <path clip-path="url(#p2d32ab27f0)" d="M 208.719703 554.247274 
L 208.719703 386.766003 
" style="fill:none;stroke:#64b5cd;stroke-width:0.5;"/>
    <path clip-path="url(#p2d32ab27f0)" d="M 925.712486 330.109037 
L 925.712486 166.709626 
" style="fill:none;stroke:#64b5cd;stroke-width:0.5;"/>
    <path clip-path="url(#p2d32ab27f0)" d="M 356.280625 459.547395 
L 356.280625 296.314079 
" style="fill:none;stroke:#64b5cd;stroke-width:0.5;"/>
    <path clip-path="url(#p2d32ab27f0)" d="M 513.142007 441.571977 
L 513.142007 278.812145 
" style="fill:none;stroke:#64b5cd;stroke-width:0.5;"/>
    <path clip-path="url(#p2d32ab27f0)" d="M 657.57734 415.937404 
L 657.57734 253.399091 
" style="fill:none;stroke:#64b5cd;stroke-width:0.5;"/>
    <path clip-path="url(#p2d32ab27f0)" d="M 326.024164 515.946618 
L 326.024164 353.626428 
" style="fill:none;stroke:#64b5cd;stroke-width:0.5;"/>
    <path clip-path="url(#p2d32ab27f0)" d="M 144 527.888812 
L 144 362.36386 
" style="fill:none;stroke:#64b5cd;stroke-width:0.5;"/>
    <path clip-path="url(#p2d32ab27f0)" d="M 420.732521 489.939565 
L 420.732521 319.694954 
" style="fill:none;stroke:#64b5cd;stroke-width:0.5;"/>
    <path clip-path="url(#p2d32ab27f0)" d="M 791.197026 391.651585 
L 791.197026 226.366847 
" style="fill:none;stroke:#64b5cd;stroke-width:0.5;"/>
    <path clip-path="url(#p2d32ab27f0)" d="M 873.380775 316.662023 
L 873.380775 151.441534 
" style="fill:none;stroke:#64b5cd;stroke-width:0.5;"/>
    <path clip-path="url(#p2d32ab27f0)" d="M 144 583.259698 
L 144 415.687284 
" style="fill:none;stroke:#64b5cd;stroke-width:0.5;"/>
    <path clip-path="url(#p2d32ab27f0)" d="M 525.148103 385.129525 
L 525.148103 222.254234 
" style="fill:none;stroke:#64b5cd;stroke-width:0.5;"/>
    <path clip-path="url(#p2d32ab27f0)" d="M 913.998513 352.123996 
L 913.998513 189.407725 
" style="fill:none;stroke:#64b5cd;stroke-width:0.5;"/>
    <path clip-path="url(#p2d32ab27f0)" d="M 581.415921 451.626323 
L 581.415921 286.29463 
" style="fill:none;stroke:#64b5cd;stroke-width:0.5;"/>
    <path clip-path="url(#p2d32ab27f0)" d="M 886.100228 330.628293 
L 886.100228 167.570978 
" style="fill:none;stroke:#64b5cd;stroke-width:0.5;"/>
    <path clip-path="url(#p2d32ab27f0)" d="M 271.042379 501.986307 
L 271.042379 339.223945 
" style="fill:none;stroke:#64b5cd;stroke-width:0.5;"/>
    <path clip-path="url(#p2d32ab27f0)" d="M 769.623792 393.864163 
L 769.623792 229.236671 
" style="fill:none;stroke:#64b5cd;stroke-width:0.5;"/>
    <path clip-path="url(#p2d32ab27f0)" d="M 252.468775 472.965048 
L 252.468775 310.960819 
" style="fill:none;stroke:#64b5cd;stroke-width:0.5;"/>
    <path clip-path="url(#p2d32ab27f0)" d="M 297.244353 473.055166 
L 297.244353 310.782693 
" style="fill:none;stroke:#64b5cd;stroke-width:0.5;"/>
    <path clip-path="url(#p2d32ab27f0)" d="M 449.437372 443.890066 
L 449.437372 278.666247 
" style="fill:none;stroke:#64b5cd;stroke-width:0.5;"/>
    <path clip-path="url(#p2d32ab27f0)" d="M 152.350929 531.098064 
L 152.350929 359.523456 
" style="fill:none;stroke:#64b5cd;stroke-width:0.5;"/>
    <path clip-path="url(#p2d32ab27f0)" d="M 702.849495 404.000795 
L 702.849495 241.003301 
" style="fill:none;stroke:#64b5cd;stroke-width:0.5;"/>
    <path clip-path="url(#p2d32ab27f0)" d="M 344.727014 507.503336 
L 344.727014 342.43827 
" style="fill:none;stroke:#64b5cd;stroke-width:0.5;"/>
    <path clip-path="url(#p2d32ab27f0)" d="M 227.211046 506.96047 
L 227.211046 340.548153 
" style="fill:none;stroke:#64b5cd;stroke-width:0.5;"/>
    <path clip-path="url(#p2d32ab27f0)" d="M 714.060171 380.13593 
L 714.060171 215.392472 
" style="fill:none;stroke:#64b5cd;stroke-width:0.5;"/>
    <path clip-path="url(#p2d32ab27f0)" d="M 921.747499 373.280105 
L 921.747499 205.895184 
" style="fill:none;stroke:#64b5cd;stroke-width:0.5;"/>
    <path clip-path="url(#p2d32ab27f0)" d="M 716.838219 344.612178 
L 716.838219 181.28341 
" style="fill:none;stroke:#64b5cd;stroke-width:0.5;"/>
    <path clip-path="url(#p2d32ab27f0)" d="M 262.192093 518.292322 
L 262.192093 355.522723 
" style="fill:none;stroke:#64b5cd;stroke-width:0.5;"/>
    <path clip-path="url(#p2d32ab27f0)" d="M 806.29829 486.097057 
L 806.29829 323.589635 
" style="fill:none;stroke:#64b5cd;stroke-width:0.5;"/>
    <path clip-path="url(#p2d32ab27f0)" d="M 694.83658 375.576636 
L 694.83658 210.140902 
" style="fill:none;stroke:#64b5cd;stroke-width:0.5;"/>
    <path clip-path="url(#p2d32ab27f0)" d="M 737.263941 292.336299 
L 737.263941 128.70216 
" style="fill:none;stroke:#64b5cd;stroke-width:0.5;"/>
    <path clip-path="url(#p2d32ab27f0)" d="M 311.607435 498.53396 
L 311.607435 334.694196 
" style="fill:none;stroke:#64b5cd;stroke-width:0.5;"/>
    <path clip-path="url(#p2d32ab27f0)" d="M 663.914944 417.186152 
L 663.914944 256.100001 
" style="fill:none;stroke:#64b5cd;stroke-width:0.5;"/>
    <path clip-path="url(#p2d32ab27f0)" d="M 461.070589 453.000324 
L 461.070589 281.604153 
" style="fill:none;stroke:#64b5cd;stroke-width:0.5;"/>
    <path clip-path="url(#p2d32ab27f0)" d="M 574.026468 346.541202 
L 574.026468 184.507994 
" style="fill:none;stroke:#64b5cd;stroke-width:0.5;"/>
    <path clip-path="url(#p2d32ab27f0)" d="M 737.263941 431.656078 
L 737.263941 267.776312 
" style="fill:none;stroke:#64b5cd;stroke-width:0.5;"/>
    <path clip-path="url(#p2d32ab27f0)" d="M 179.156382 520.69179 
L 179.156382 358.622611 
" style="fill:none;stroke:#64b5cd;stroke-width:0.5;"/>
    <path clip-path="url(#p2d32ab27f0)" d="M 761.125245 362.493804 
L 761.125245 199.821866 
" style="fill:none;stroke:#64b5cd;stroke-width:0.5;"/>
    <path clip-path="url(#p2d32ab27f0)" d="M 651.951605 425.760421 
L 651.951605 249.013066 
" style="fill:none;stroke:#64b5cd;stroke-width:0.5;"/>
    <path clip-path="url(#p2d32ab27f0)" d="M 756.564409 400.182134 
L 756.564409 238.764079 
" style="fill:none;stroke:#64b5cd;stroke-width:0.5;"/>
    <path clip-path="url(#p2d32ab27f0)" d="M 659.346642 390.254504 
L 659.346642 227.090087 
" style="fill:none;stroke:#64b5cd;stroke-width:0.5;"/>
    <path clip-path="url(#p2d32ab27f0)" d="M 866.303841 342.202802 
L 866.303841 172.786049 
" style="fill:none;stroke:#64b5cd;stroke-width:0.5;"/>
    <path clip-path="url(#p2d32ab27f0)" d="M 815.167286 354.468436 
L 815.167286 190.220197 
" style="fill:none;stroke:#64b5cd;stroke-width:0.5;"/>
    <path clip-path="url(#p2d32ab27f0)" d="M 190.085237 559.744376 
L 190.085237 392.164191 
" style="fill:none;stroke:#64b5cd;stroke-width:0.5;"/>
    <path clip-path="url(#p2d32ab27f0)" d="M 277.361811 495.932836 
L 277.361811 326.666708 
" style="fill:none;stroke:#64b5cd;stroke-width:0.5;"/>
    <path clip-path="url(#p2d32ab27f0)" d="M 340.556134 494.607894 
L 340.556134 326.102212 
" style="fill:none;stroke:#64b5cd;stroke-width:0.5;"/>
    <path clip-path="url(#p2d32ab27f0)" d="M 708.274907 399.377377 
L 708.274907 228.79099 
" style="fill:none;stroke:#64b5cd;stroke-width:0.5;"/>
    <path clip-path="url(#p2d32ab27f0)" d="M 383.103346 463.078347 
L 383.103346 294.387864 
" style="fill:none;stroke:#64b5cd;stroke-width:0.5;"/>
    <path clip-path="url(#p2d32ab27f0)" d="M 157.868508 552.113302 
L 157.868508 381.409953 
" style="fill:none;stroke:#64b5cd;stroke-width:0.5;"/>
    <path clip-path="url(#p2d32ab27f0)" d="M 808.455613 348.408514 
L 808.455613 184.18705 
" style="fill:none;stroke:#64b5cd;stroke-width:0.5;"/>
    <path clip-path="url(#p2d32ab27f0)" d="M 156.02689 576.618177 
L 156.02689 411.709179 
" style="fill:none;stroke:#64b5cd;stroke-width:0.5;"/>
    <path clip-path="url(#p2d32ab27f0)" d="M 144 567.355288 
L 144 392.768747 
" style="fill:none;stroke:#64b5cd;stroke-width:0.5;"/>
    <path clip-path="url(#p2d32ab27f0)" d="M 849.350962 437.010959 
L 849.350962 274.188814 
" style="fill:none;stroke:#64b5cd;stroke-width:0.5;"/>
    <path clip-path="url(#p2d32ab27f0)" d="M 849.350962 353.317529 
L 849.350962 189.285916 
" style="fill:none;stroke:#64b5cd;stroke-width:0.5;"/>
    <path clip-path="url(#p2d32ab27f0)" d="M 863.761541 367.116085 
L 863.761541 205.147378 
" style="fill:none;stroke:#64b5cd;stroke-width:0.5;"/>
    <path clip-path="url(#p2d32ab27f0)" d="M 688.538187 447.895796 
L 688.538187 278.177879 
" style="fill:none;stroke:#64b5cd;stroke-width:0.5;"/>
    <path clip-path="url(#p2d32ab27f0)" d="M 144 565.625384 
L 144 382.370054 
" style="fill:none;stroke:#64b5cd;stroke-width:0.5;"/>
    <path clip-path="url(#p2d32ab27f0)" d="M 854.734634 330.832877 
L 854.734634 167.92723 
" style="fill:none;stroke:#64b5cd;stroke-width:0.5;"/>
    <path clip-path="url(#p2d32ab27f0)" d="M 165.573234 490.204895 
L 165.573234 328.283634 
" style="fill:none;stroke:#64b5cd;stroke-width:0.5;"/>
    <path clip-path="url(#p2d32ab27f0)" d="M 837.040149 455.496659 
L 837.040149 293.037693 
" style="fill:none;stroke:#64b5cd;stroke-width:0.5;"/>
    <path clip-path="url(#p2d32ab27f0)" d="M 292.423851 541.080594 
L 292.423851 370.902819 
" style="fill:none;stroke:#64b5cd;stroke-width:0.5;"/>
    <path clip-path="url(#p2d32ab27f0)" d="M 460.407435 468.457298 
L 460.407435 304.013758 
" style="fill:none;stroke:#64b5cd;stroke-width:0.5;"/>
    <path clip-path="url(#p2d32ab27f0)" d="M 474.070483 430.327183 
L 474.070483 257.767983 
" style="fill:none;stroke:#64b5cd;stroke-width:0.5;"/>
    <path clip-path="url(#p2d32ab27f0)" d="M 770.367696 401.920789 
L 770.367696 237.81623 
" style="fill:none;stroke:#64b5cd;stroke-width:0.5;"/>
    <path clip-path="url(#p2d32ab27f0)" d="M 739.75316 375.775246 
L 739.75316 212.210731 
" style="fill:none;stroke:#64b5cd;stroke-width:0.5;"/>
    <path clip-path="url(#p2d32ab27f0)" d="M 920.636431 340.496439 
L 920.636431 177.045179 
" style="fill:none;stroke:#64b5cd;stroke-width:0.5;"/>
    <path clip-path="url(#p2d32ab27f0)" d="M 444.220674 450.327304 
L 444.220674 288.448303 
" style="fill:none;stroke:#64b5cd;stroke-width:0.5;"/>
    <path clip-path="url(#p2d32ab27f0)" d="M 144 576.103502 
L 144 412.430724 
" style="fill:none;stroke:#64b5cd;stroke-width:0.5;"/>
    <path clip-path="url(#p2d32ab27f0)" d="M 875.614029 408.252191 
L 875.614029 242.480844 
" style="fill:none;stroke:#64b5cd;stroke-width:0.5;"/>
    <path clip-path="url(#p2d32ab27f0)" d="M 794.948893 340.022259 
L 794.948893 177.350538 
" style="fill:none;stroke:#64b5cd;stroke-width:0.5;"/>
    <path clip-path="url(#p2d32ab27f0)" d="M 167.371004 566.611027 
L 167.371004 401.251224 
" style="fill:none;stroke:#64b5cd;stroke-width:0.5;"/>
    <path clip-path="url(#p2d32ab27f0)" d="M 789.379057 356.435449 
L 789.379057 185.398957 
" style="fill:none;stroke:#64b5cd;stroke-width:0.5;"/>
    <path clip-path="url(#p2d32ab27f0)" d="M 367.649125 510.902165 
L 367.649125 346.0917 
" style="fill:none;stroke:#64b5cd;stroke-width:0.5;"/>
    <path clip-path="url(#p2d32ab27f0)" d="M 156.850482 575.509335 
L 156.850482 411.031637 
" style="fill:none;stroke:#64b5cd;stroke-width:0.5;"/>
    <path clip-path="url(#p2d32ab27f0)" d="M 165.573234 568.061057 
L 165.573234 405.403705 
" style="fill:none;stroke:#64b5cd;stroke-width:0.5;"/>
    <path clip-path="url(#p2d32ab27f0)" d="M 692.128878 404.112908 
L 692.128878 239.25781 
" style="fill:none;stroke:#64b5cd;stroke-width:0.5;"/>
    <path clip-path="url(#p2d32ab27f0)" d="M 634.300777 425.618287 
L 634.300777 264.050302 
" style="fill:none;stroke:#64b5cd;stroke-width:0.5;"/>
    <path clip-path="url(#p2d32ab27f0)" d="M 736.940988 422.415772 
L 736.940988 253.598285 
" style="fill:none;stroke:#64b5cd;stroke-width:0.5;"/>
    <path clip-path="url(#p2d32ab27f0)" d="M 746.45254 378.439731 
L 746.45254 215.120163 
" style="fill:none;stroke:#64b5cd;stroke-width:0.5;"/>
    <path clip-path="url(#p2d32ab27f0)" d="M 1036.8 347.26142 
L 1036.8 182.233829 
" style="fill:none;stroke:#64b5cd;stroke-width:0.5;"/>
    <path clip-path="url(#p2d32ab27f0)" d="M 575.464684 440.599363 
L 575.464684 269.361531 
" style="fill:none;stroke:#64b5cd;stroke-width:0.5;"/>
    <path clip-path="url(#p2d32ab27f0)" d="M 868.860669 326.3913 
L 868.860669 163.11051 
" style="fill:none;stroke:#64b5cd;stroke-width:0.5;"/>
    <path clip-path="url(#p2d32ab27f0)" d="M 811.742963 342.934491 
L 811.742963 180.170918 
" style="fill:none;stroke:#64b5cd;stroke-width:0.5;"/>
    <path clip-path="url(#p2d32ab27f0)" d="M 832.105752 391.983136 
L 832.105752 229.34067 
" style="fill:none;stroke:#64b5cd;stroke-width:0.5;"/>
   </g>
   <g id="LineCollection_2">
    <path clip-path="url(#p2d32ab27f0)" d="M 297.82654 489.720222 
L 297.82654 322.773255 
" style="fill:none;stroke:#8172b3;stroke-width:0.5;"/>
    <path clip-path="url(#p2d32ab27f0)" d="M 213.342539 540.145696 
L 213.342539 366.978097 
" style="fill:none;stroke:#8172b3;stroke-width:0.5;"/>
    <path clip-path="url(#p2d32ab27f0)" d="M 734.322136 483.073568 
L 734.322136 319.098547 
" style="fill:none;stroke:#8172b3;stroke-width:0.5;"/>
    <path clip-path="url(#p2d32ab27f0)" d="M 520.812491 464.288841 
L 520.812491 301.545497 
" style="fill:none;stroke:#8172b3;stroke-width:0.5;"/>
    <path clip-path="url(#p2d32ab27f0)" d="M 248.78428 489.322249 
L 248.78428 324.756717 
" style="fill:none;stroke:#8172b3;stroke-width:0.5;"/>
    <path clip-path="url(#p2d32ab27f0)" d="M 791.197026 413.558235 
L 791.197026 240.13438 
" style="fill:none;stroke:#8172b3;stroke-width:0.5;"/>
    <path clip-path="url(#p2d32ab27f0)" d="M 144 605.290909 
L 144 437.2463 
" style="fill:none;stroke:#8172b3;stroke-width:0.5;"/>
    <path clip-path="url(#p2d32ab27f0)" d="M 854.118959 382.008711 
L 854.118959 218.226036 
" style="fill:none;stroke:#8172b3;stroke-width:0.5;"/>
    <path clip-path="url(#p2d32ab27f0)" d="M 650.571499 429.156297 
L 650.571499 263.563078 
" style="fill:none;stroke:#8172b3;stroke-width:0.5;"/>
    <path clip-path="url(#p2d32ab27f0)" d="M 597.733829 392.776982 
L 597.733829 227.695395 
" style="fill:none;stroke:#8172b3;stroke-width:0.5;"/>
    <path clip-path="url(#p2d32ab27f0)" d="M 227.895911 520.867045 
L 227.895911 347.086165 
" style="fill:none;stroke:#8172b3;stroke-width:0.5;"/>
    <path clip-path="url(#p2d32ab27f0)" d="M 874.951935 314.692254 
L 874.951935 144.724857 
" style="fill:none;stroke:#8172b3;stroke-width:0.5;"/>
    <path clip-path="url(#p2d32ab27f0)" d="M 654.566543 389.881257 
L 654.566543 213.707083 
" style="fill:none;stroke:#8172b3;stroke-width:0.5;"/>
    <path clip-path="url(#p2d32ab27f0)" d="M 254.263197 522.663394 
L 254.263197 357.057785 
" style="fill:none;stroke:#8172b3;stroke-width:0.5;"/>
    <path clip-path="url(#p2d32ab27f0)" d="M 722.973978 334.723225 
L 722.973978 167.963605 
" style="fill:none;stroke:#8172b3;stroke-width:0.5;"/>
    <path clip-path="url(#p2d32ab27f0)" d="M 793.219517 411.710286 
L 793.219517 248.658713 
" style="fill:none;stroke:#8172b3;stroke-width:0.5;"/>
    <path clip-path="url(#p2d32ab27f0)" d="M 466.735584 467.526061 
L 466.735584 300.300784 
" style="fill:none;stroke:#8172b3;stroke-width:0.5;"/>
    <path clip-path="url(#p2d32ab27f0)" d="M 250.068401 521.724965 
L 250.068401 357.944464 
" style="fill:none;stroke:#8172b3;stroke-width:0.5;"/>
    <path clip-path="url(#p2d32ab27f0)" d="M 745.33267 434.994381 
L 745.33267 272.394322 
" style="fill:none;stroke:#8172b3;stroke-width:0.5;"/>
    <path clip-path="url(#p2d32ab27f0)" d="M 727.50462 316.277743 
L 727.50462 148.792876 
" style="fill:none;stroke:#8172b3;stroke-width:0.5;"/>
    <path clip-path="url(#p2d32ab27f0)" d="M 581.348293 470.744099 
L 581.348293 307.319874 
" style="fill:none;stroke:#8172b3;stroke-width:0.5;"/>
    <path clip-path="url(#p2d32ab27f0)" d="M 762.432714 472.66491 
L 762.432714 301.287619 
" style="fill:none;stroke:#8172b3;stroke-width:0.5;"/>
    <path clip-path="url(#p2d32ab27f0)" d="M 841.08513 369.270424 
L 841.08513 192.165299 
" style="fill:none;stroke:#8172b3;stroke-width:0.5;"/>
    <path clip-path="url(#p2d32ab27f0)" d="M 618.857704 390.185334 
L 618.857704 227.509198 
" style="fill:none;stroke:#8172b3;stroke-width:0.5;"/>
    <path clip-path="url(#p2d32ab27f0)" d="M 673.524839 430.033432 
L 673.524839 266.224093 
" style="fill:none;stroke:#8172b3;stroke-width:0.5;"/>
    <path clip-path="url(#p2d32ab27f0)" d="M 782.208178 325.752119 
L 782.208178 158.785924 
" style="fill:none;stroke:#8172b3;stroke-width:0.5;"/>
    <path clip-path="url(#p2d32ab27f0)" d="M 650.571499 441.743672 
L 650.571499 278.32174 
" style="fill:none;stroke:#8172b3;stroke-width:0.5;"/>
    <path clip-path="url(#p2d32ab27f0)" d="M 720.005353 476.617475 
L 720.005353 305.123989 
" style="fill:none;stroke:#8172b3;stroke-width:0.5;"/>
    <path clip-path="url(#p2d32ab27f0)" d="M 702.528547 395.090943 
L 702.528547 230.64281 
" style="fill:none;stroke:#8172b3;stroke-width:0.5;"/>
    <path clip-path="url(#p2d32ab27f0)" d="M 235.920737 498.045784 
L 235.920737 325.232385 
" style="fill:none;stroke:#8172b3;stroke-width:0.5;"/>
    <path clip-path="url(#p2d32ab27f0)" d="M 308.741061 500.605988 
L 308.741061 335.889368 
" style="fill:none;stroke:#8172b3;stroke-width:0.5;"/>
    <path clip-path="url(#p2d32ab27f0)" d="M 819.961338 300.422023 
L 819.961338 123.828353 
" style="fill:none;stroke:#8172b3;stroke-width:0.5;"/>
    <path clip-path="url(#p2d32ab27f0)" d="M 789.142432 334.964942 
L 789.142432 171.360521 
" style="fill:none;stroke:#8172b3;stroke-width:0.5;"/>
    <path clip-path="url(#p2d32ab27f0)" d="M 587.792246 380.882277 
L 587.792246 205.212924 
" style="fill:none;stroke:#8172b3;stroke-width:0.5;"/>
    <path clip-path="url(#p2d32ab27f0)" d="M 149.567286 511.225227 
L 149.567286 339.270051 
" style="fill:none;stroke:#8172b3;stroke-width:0.5;"/>
    <path clip-path="url(#p2d32ab27f0)" d="M 634.791078 435.733066 
L 634.791078 271.448774 
" style="fill:none;stroke:#8172b3;stroke-width:0.5;"/>
    <path clip-path="url(#p2d32ab27f0)" d="M 770.092775 389.916025 
L 770.092775 225.983281 
" style="fill:none;stroke:#8172b3;stroke-width:0.5;"/>
    <path clip-path="url(#p2d32ab27f0)" d="M 822.576276 432.698583 
L 822.576276 255.092267 
" style="fill:none;stroke:#8172b3;stroke-width:0.5;"/>
    <path clip-path="url(#p2d32ab27f0)" d="M 636.419529 409.646318 
L 636.419529 234.455488 
" style="fill:none;stroke:#8172b3;stroke-width:0.5;"/>
    <path clip-path="url(#p2d32ab27f0)" d="M 616.775132 424.379581 
L 616.775132 260.734147 
" style="fill:none;stroke:#8172b3;stroke-width:0.5;"/>
    <path clip-path="url(#p2d32ab27f0)" d="M 773.412639 312.281715 
L 773.412639 145.358064 
" style="fill:none;stroke:#8172b3;stroke-width:0.5;"/>
    <path clip-path="url(#p2d32ab27f0)" d="M 775.05379 405.244379 
L 775.05379 240.494169 
" style="fill:none;stroke:#8172b3;stroke-width:0.5;"/>
    <path clip-path="url(#p2d32ab27f0)" d="M 689.371361 427.352675 
L 689.371361 260.458484 
" style="fill:none;stroke:#8172b3;stroke-width:0.5;"/>
    <path clip-path="url(#p2d32ab27f0)" d="M 410.317857 475.349317 
L 410.317857 305.284618 
" style="fill:none;stroke:#8172b3;stroke-width:0.5;"/>
    <path clip-path="url(#p2d32ab27f0)" d="M 531.466641 519.056329 
L 531.466641 350.783418 
" style="fill:none;stroke:#8172b3;stroke-width:0.5;"/>
    <path clip-path="url(#p2d32ab27f0)" d="M 436.068401 497.341891 
L 436.068401 331.400718 
" style="fill:none;stroke:#8172b3;stroke-width:0.5;"/>
    <path clip-path="url(#p2d32ab27f0)" d="M 176.359851 573.640944 
L 176.359851 408.510955 
" style="fill:none;stroke:#8172b3;stroke-width:0.5;"/>
    <path clip-path="url(#p2d32ab27f0)" d="M 144 556.435454 
L 144 390.068994 
" style="fill:none;stroke:#8172b3;stroke-width:0.5;"/>
    <path clip-path="url(#p2d32ab27f0)" d="M 163.34152 529.71646 
L 163.34152 365.015035 
" style="fill:none;stroke:#8172b3;stroke-width:0.5;"/>
    <path clip-path="url(#p2d32ab27f0)" d="M 144 592.631217 
L 144 408.079049 
" style="fill:none;stroke:#8172b3;stroke-width:0.5;"/>
   </g>
   <g id="line2d_14">
    <path clip-path="url(#p2d32ab27f0)" d="M 144 482.55552 
L 1036.8 207.768135 
" style="fill:none;stroke:#c44e52;stroke-linecap:round;stroke-width:1.5;"/>
   </g>
   <g id="line2d_15">
    <defs>
     <path d="M 0 3 
C 0.795609 3 1.55874 2.683901 2.12132 2.12132 
C 2.683901 1.55874 3 0.795609 3 0 
C 3 -0.795609 2.683901 -1.55874 2.12132 -2.12132 
C 1.55874 -2.683901 0.795609 -3 0 -3 
C -0.795609 -3 -1.55874 -2.683901 -2.12132 -2.12132 
C -2.683901 -1.55874 -3 -0.795609 -3 0 
C -3 0.795609 -2.683901 1.55874 -2.12132 2.12132 
C -1.55874 2.683901 -0.795609 3 0 3 
z
" id="mbadff7ead6" style="stroke:#64b5cd;"/>
    </defs>
    <g clip-path="url(#p2d32ab27f0)">
     <use style="fill:#64b5cd;stroke:#64b5cd;" x="314.42855" xlink:href="#mbadff7ead6" y="401.293726"/>
     <use style="fill:#64b5cd;stroke:#64b5cd;" x="493.880626" xlink:href="#mbadff7ead6" y="372.035214"/>
     <use style="fill:#64b5cd;stroke:#64b5cd;" x="697.199363" xlink:href="#mbadff7ead6" y="308.780034"/>
     <use style="fill:#64b5cd;stroke:#64b5cd;" x="665.866808" xlink:href="#mbadff7ead6" y="336.186511"/>
     <use style="fill:#64b5cd;stroke:#64b5cd;" x="523.688922" xlink:href="#mbadff7ead6" y="338.079335"/>
     <use style="fill:#64b5cd;stroke:#64b5cd;" x="575.464684" xlink:href="#mbadff7ead6" y="350.090905"/>
     <use style="fill:#64b5cd;stroke:#64b5cd;" x="405.018305" xlink:href="#mbadff7ead6" y="367.300322"/>
     <use style="fill:#64b5cd;stroke:#64b5cd;" x="144" xlink:href="#mbadff7ead6" y="445.865274"/>
     <use style="fill:#64b5cd;stroke:#64b5cd;" x="501.315814" xlink:href="#mbadff7ead6" y="415.718795"/>
     <use style="fill:#64b5cd;stroke:#64b5cd;" x="434.670945" xlink:href="#mbadff7ead6" y="390.423253"/>
     <use style="fill:#64b5cd;stroke:#64b5cd;" x="721.78749" xlink:href="#mbadff7ead6" y="340.043625"/>
     <use style="fill:#64b5cd;stroke:#64b5cd;" x="724.542183" xlink:href="#mbadff7ead6" y="282.364974"/>
     <use style="fill:#64b5cd;stroke:#64b5cd;" x="314.987856" xlink:href="#mbadff7ead6" y="372.514959"/>
     <use style="fill:#64b5cd;stroke:#64b5cd;" x="472.288347" xlink:href="#mbadff7ead6" y="393.174754"/>
     <use style="fill:#64b5cd;stroke:#64b5cd;" x="739.065242" xlink:href="#mbadff7ead6" y="286.012243"/>
     <use style="fill:#64b5cd;stroke:#64b5cd;" x="722.99777" xlink:href="#mbadff7ead6" y="313.248549"/>
     <use style="fill:#64b5cd;stroke:#64b5cd;" x="826.046097" xlink:href="#mbadff7ead6" y="280.372962"/>
     <use style="fill:#64b5cd;stroke:#64b5cd;" x="846.399125" xlink:href="#mbadff7ead6" y="319.236518"/>
     <use style="fill:#64b5cd;stroke:#64b5cd;" x="969.176208" xlink:href="#mbadff7ead6" y="283.023997"/>
     <use style="fill:#64b5cd;stroke:#64b5cd;" x="190.872208" xlink:href="#mbadff7ead6" y="427.059418"/>
     <use style="fill:#64b5cd;stroke:#64b5cd;" x="652.843573" xlink:href="#mbadff7ead6" y="315.158686"/>
     <use style="fill:#64b5cd;stroke:#64b5cd;" x="585.532193" xlink:href="#mbadff7ead6" y="412.783304"/>
     <use style="fill:#64b5cd;stroke:#64b5cd;" x="736.632406" xlink:href="#mbadff7ead6" y="257.108411"/>
     <use style="fill:#64b5cd;stroke:#64b5cd;" x="270.742751" xlink:href="#mbadff7ead6" y="434.421522"/>
     <use style="fill:#64b5cd;stroke:#64b5cd;" x="395.501435" xlink:href="#mbadff7ead6" y="372.954628"/>
     <use style="fill:#64b5cd;stroke:#64b5cd;" x="535.913755" xlink:href="#mbadff7ead6" y="284.410685"/>
     <use style="fill:#64b5cd;stroke:#64b5cd;" x="851.226895" xlink:href="#mbadff7ead6" y="229.605319"/>
     <use style="fill:#64b5cd;stroke:#64b5cd;" x="984.328837" xlink:href="#mbadff7ead6" y="193.654129"/>
     <use style="fill:#64b5cd;stroke:#64b5cd;" x="484.193309" xlink:href="#mbadff7ead6" y="436.712131"/>
     <use style="fill:#64b5cd;stroke:#64b5cd;" x="263.084253" xlink:href="#mbadff7ead6" y="411.587001"/>
     <use style="fill:#64b5cd;stroke:#64b5cd;" x="668.039482" xlink:href="#mbadff7ead6" y="357.391196"/>
     <use style="fill:#64b5cd;stroke:#64b5cd;" x="729.010835" xlink:href="#mbadff7ead6" y="276.190886"/>
     <use style="fill:#64b5cd;stroke:#64b5cd;" x="334.752808" xlink:href="#mbadff7ead6" y="412.32412"/>
     <use style="fill:#64b5cd;stroke:#64b5cd;" x="620.049368" xlink:href="#mbadff7ead6" y="288.869546"/>
     <use style="fill:#64b5cd;stroke:#64b5cd;" x="406.074845" xlink:href="#mbadff7ead6" y="462.908999"/>
     <use style="fill:#64b5cd;stroke:#64b5cd;" x="616.221934" xlink:href="#mbadff7ead6" y="345.469858"/>
     <use style="fill:#64b5cd;stroke:#64b5cd;" x="346.948203" xlink:href="#mbadff7ead6" y="397.802036"/>
     <use style="fill:#64b5cd;stroke:#64b5cd;" x="782.899628" xlink:href="#mbadff7ead6" y="325.588696"/>
     <use style="fill:#64b5cd;stroke:#64b5cd;" x="671.137288" xlink:href="#mbadff7ead6" y="361.911279"/>
     <use style="fill:#64b5cd;stroke:#64b5cd;" x="776.81487" xlink:href="#mbadff7ead6" y="320.662422"/>
     <use style="fill:#64b5cd;stroke:#64b5cd;" x="898.319292" xlink:href="#mbadff7ead6" y="326.041617"/>
     <use style="fill:#64b5cd;stroke:#64b5cd;" x="667.921402" xlink:href="#mbadff7ead6" y="324.696514"/>
     <use style="fill:#64b5cd;stroke:#64b5cd;" x="379.185999" xlink:href="#mbadff7ead6" y="357.580844"/>
     <use style="fill:#64b5cd;stroke:#64b5cd;" x="785.212377" xlink:href="#mbadff7ead6" y="306.903975"/>
     <use style="fill:#64b5cd;stroke:#64b5cd;" x="768.927881" xlink:href="#mbadff7ead6" y="277.810382"/>
     <use style="fill:#64b5cd;stroke:#64b5cd;" x="934.9194" xlink:href="#mbadff7ead6" y="313.829982"/>
     <use style="fill:#64b5cd;stroke:#64b5cd;" x="550.989378" xlink:href="#mbadff7ead6" y="409.601779"/>
     <use style="fill:#64b5cd;stroke:#64b5cd;" x="414.239184" xlink:href="#mbadff7ead6" y="376.957228"/>
     <use style="fill:#64b5cd;stroke:#64b5cd;" x="508.513268" xlink:href="#mbadff7ead6" y="330.769453"/>
     <use style="fill:#64b5cd;stroke:#64b5cd;" x="522.77069" xlink:href="#mbadff7ead6" y="326.543268"/>
     <use style="fill:#64b5cd;stroke:#64b5cd;" x="212.038662" xlink:href="#mbadff7ead6" y="435.828746"/>
     <use style="fill:#64b5cd;stroke:#64b5cd;" x="547.196308" xlink:href="#mbadff7ead6" y="381.837571"/>
     <use style="fill:#64b5cd;stroke:#64b5cd;" x="650.50202" xlink:href="#mbadff7ead6" y="245.888929"/>
     <use style="fill:#64b5cd;stroke:#64b5cd;" x="144" xlink:href="#mbadff7ead6" y="480.377311"/>
     <use style="fill:#64b5cd;stroke:#64b5cd;" x="178.928093" xlink:href="#mbadff7ead6" y="473.482883"/>
     <use style="fill:#64b5cd;stroke:#64b5cd;" x="471.26743" xlink:href="#mbadff7ead6" y="378.019877"/>
     <use style="fill:#64b5cd;stroke:#64b5cd;" x="669.847584" xlink:href="#mbadff7ead6" y="345.464125"/>
     <use style="fill:#64b5cd;stroke:#64b5cd;" x="758.007435" xlink:href="#mbadff7ead6" y="266.775409"/>
     <use style="fill:#64b5cd;stroke:#64b5cd;" x="370.755162" xlink:href="#mbadff7ead6" y="392.14811"/>
     <use style="fill:#64b5cd;stroke:#64b5cd;" x="795.819862" xlink:href="#mbadff7ead6" y="306.812016"/>
     <use style="fill:#64b5cd;stroke:#64b5cd;" x="318.461807" xlink:href="#mbadff7ead6" y="422.035732"/>
     <use style="fill:#64b5cd;stroke:#64b5cd;" x="256.180818" xlink:href="#mbadff7ead6" y="441.826422"/>
     <use style="fill:#64b5cd;stroke:#64b5cd;" x="718.035623" xlink:href="#mbadff7ead6" y="375.242639"/>
     <use style="fill:#64b5cd;stroke:#64b5cd;" x="205.000179" xlink:href="#mbadff7ead6" y="462.819317"/>
     <use style="fill:#64b5cd;stroke:#64b5cd;" x="415.489957" xlink:href="#mbadff7ead6" y="379.509251"/>
     <use style="fill:#64b5cd;stroke:#64b5cd;" x="422.490842" xlink:href="#mbadff7ead6" y="398.403207"/>
     <use style="fill:#64b5cd;stroke:#64b5cd;" x="208.719703" xlink:href="#mbadff7ead6" y="470.506639"/>
     <use style="fill:#64b5cd;stroke:#64b5cd;" x="925.712486" xlink:href="#mbadff7ead6" y="248.409331"/>
     <use style="fill:#64b5cd;stroke:#64b5cd;" x="356.280625" xlink:href="#mbadff7ead6" y="377.930737"/>
     <use style="fill:#64b5cd;stroke:#64b5cd;" x="513.142007" xlink:href="#mbadff7ead6" y="360.192061"/>
     <use style="fill:#64b5cd;stroke:#64b5cd;" x="657.57734" xlink:href="#mbadff7ead6" y="334.668248"/>
     <use style="fill:#64b5cd;stroke:#64b5cd;" x="326.024164" xlink:href="#mbadff7ead6" y="434.786523"/>
     <use style="fill:#64b5cd;stroke:#64b5cd;" x="144" xlink:href="#mbadff7ead6" y="445.126336"/>
     <use style="fill:#64b5cd;stroke:#64b5cd;" x="420.732521" xlink:href="#mbadff7ead6" y="404.81726"/>
     <use style="fill:#64b5cd;stroke:#64b5cd;" x="791.197026" xlink:href="#mbadff7ead6" y="309.009216"/>
     <use style="fill:#64b5cd;stroke:#64b5cd;" x="873.380775" xlink:href="#mbadff7ead6" y="234.051778"/>
     <use style="fill:#64b5cd;stroke:#64b5cd;" x="144" xlink:href="#mbadff7ead6" y="499.473491"/>
     <use style="fill:#64b5cd;stroke:#64b5cd;" x="525.148103" xlink:href="#mbadff7ead6" y="303.691879"/>
     <use style="fill:#64b5cd;stroke:#64b5cd;" x="913.998513" xlink:href="#mbadff7ead6" y="270.765861"/>
     <use style="fill:#64b5cd;stroke:#64b5cd;" x="581.415921" xlink:href="#mbadff7ead6" y="368.960477"/>
     <use style="fill:#64b5cd;stroke:#64b5cd;" x="886.100228" xlink:href="#mbadff7ead6" y="249.099636"/>
     <use style="fill:#64b5cd;stroke:#64b5cd;" x="271.042379" xlink:href="#mbadff7ead6" y="420.605126"/>
     <use style="fill:#64b5cd;stroke:#64b5cd;" x="769.623792" xlink:href="#mbadff7ead6" y="311.550417"/>
     <use style="fill:#64b5cd;stroke:#64b5cd;" x="252.468775" xlink:href="#mbadff7ead6" y="391.962934"/>
     <use style="fill:#64b5cd;stroke:#64b5cd;" x="297.244353" xlink:href="#mbadff7ead6" y="391.918929"/>
     <use style="fill:#64b5cd;stroke:#64b5cd;" x="449.437372" xlink:href="#mbadff7ead6" y="361.278156"/>
     <use style="fill:#64b5cd;stroke:#64b5cd;" x="152.350929" xlink:href="#mbadff7ead6" y="445.31076"/>
     <use style="fill:#64b5cd;stroke:#64b5cd;" x="702.849495" xlink:href="#mbadff7ead6" y="322.502048"/>
     <use style="fill:#64b5cd;stroke:#64b5cd;" x="344.727014" xlink:href="#mbadff7ead6" y="424.970803"/>
     <use style="fill:#64b5cd;stroke:#64b5cd;" x="227.211046" xlink:href="#mbadff7ead6" y="423.754312"/>
     <use style="fill:#64b5cd;stroke:#64b5cd;" x="714.060171" xlink:href="#mbadff7ead6" y="297.764201"/>
     <use style="fill:#64b5cd;stroke:#64b5cd;" x="921.747499" xlink:href="#mbadff7ead6" y="289.587644"/>
     <use style="fill:#64b5cd;stroke:#64b5cd;" x="716.838219" xlink:href="#mbadff7ead6" y="262.947794"/>
     <use style="fill:#64b5cd;stroke:#64b5cd;" x="262.192093" xlink:href="#mbadff7ead6" y="436.907522"/>
     <use style="fill:#64b5cd;stroke:#64b5cd;" x="806.29829" xlink:href="#mbadff7ead6" y="404.843346"/>
     <use style="fill:#64b5cd;stroke:#64b5cd;" x="694.83658" xlink:href="#mbadff7ead6" y="292.858769"/>
     <use style="fill:#64b5cd;stroke:#64b5cd;" x="737.263941" xlink:href="#mbadff7ead6" y="210.519229"/>
     <use style="fill:#64b5cd;stroke:#64b5cd;" x="311.607435" xlink:href="#mbadff7ead6" y="416.614078"/>
     <use style="fill:#64b5cd;stroke:#64b5cd;" x="663.914944" xlink:href="#mbadff7ead6" y="336.643077"/>
     <use style="fill:#64b5cd;stroke:#64b5cd;" x="461.070589" xlink:href="#mbadff7ead6" y="367.302238"/>
     <use style="fill:#64b5cd;stroke:#64b5cd;" x="574.026468" xlink:href="#mbadff7ead6" y="265.524598"/>
     <use style="fill:#64b5cd;stroke:#64b5cd;" x="737.263941" xlink:href="#mbadff7ead6" y="349.716195"/>
     <use style="fill:#64b5cd;stroke:#64b5cd;" x="179.156382" xlink:href="#mbadff7ead6" y="439.6572"/>
     <use style="fill:#64b5cd;stroke:#64b5cd;" x="761.125245" xlink:href="#mbadff7ead6" y="281.157835"/>
     <use style="fill:#64b5cd;stroke:#64b5cd;" x="651.951605" xlink:href="#mbadff7ead6" y="337.386744"/>
     <use style="fill:#64b5cd;stroke:#64b5cd;" x="756.564409" xlink:href="#mbadff7ead6" y="319.473107"/>
     <use style="fill:#64b5cd;stroke:#64b5cd;" x="659.346642" xlink:href="#mbadff7ead6" y="308.672296"/>
     <use style="fill:#64b5cd;stroke:#64b5cd;" x="866.303841" xlink:href="#mbadff7ead6" y="257.494425"/>
     <use style="fill:#64b5cd;stroke:#64b5cd;" x="815.167286" xlink:href="#mbadff7ead6" y="272.344316"/>
     <use style="fill:#64b5cd;stroke:#64b5cd;" x="190.085237" xlink:href="#mbadff7ead6" y="475.954284"/>
     <use style="fill:#64b5cd;stroke:#64b5cd;" x="277.361811" xlink:href="#mbadff7ead6" y="411.299772"/>
     <use style="fill:#64b5cd;stroke:#64b5cd;" x="340.556134" xlink:href="#mbadff7ead6" y="410.355053"/>
     <use style="fill:#64b5cd;stroke:#64b5cd;" x="708.274907" xlink:href="#mbadff7ead6" y="314.084183"/>
     <use style="fill:#64b5cd;stroke:#64b5cd;" x="383.103346" xlink:href="#mbadff7ead6" y="378.733106"/>
     <use style="fill:#64b5cd;stroke:#64b5cd;" x="157.868508" xlink:href="#mbadff7ead6" y="466.761627"/>
     <use style="fill:#64b5cd;stroke:#64b5cd;" x="808.455613" xlink:href="#mbadff7ead6" y="266.297782"/>
     <use style="fill:#64b5cd;stroke:#64b5cd;" x="156.02689" xlink:href="#mbadff7ead6" y="494.163678"/>
     <use style="fill:#64b5cd;stroke:#64b5cd;" x="144" xlink:href="#mbadff7ead6" y="480.062018"/>
     <use style="fill:#64b5cd;stroke:#64b5cd;" x="849.350962" xlink:href="#mbadff7ead6" y="355.599887"/>
     <use style="fill:#64b5cd;stroke:#64b5cd;" x="849.350962" xlink:href="#mbadff7ead6" y="271.301722"/>
     <use style="fill:#64b5cd;stroke:#64b5cd;" x="863.761541" xlink:href="#mbadff7ead6" y="286.131731"/>
     <use style="fill:#64b5cd;stroke:#64b5cd;" x="688.538187" xlink:href="#mbadff7ead6" y="363.036838"/>
     <use style="fill:#64b5cd;stroke:#64b5cd;" x="144" xlink:href="#mbadff7ead6" y="473.997719"/>
     <use style="fill:#64b5cd;stroke:#64b5cd;" x="854.734634" xlink:href="#mbadff7ead6" y="249.380053"/>
     <use style="fill:#64b5cd;stroke:#64b5cd;" x="165.573234" xlink:href="#mbadff7ead6" y="409.244264"/>
     <use style="fill:#64b5cd;stroke:#64b5cd;" x="837.040149" xlink:href="#mbadff7ead6" y="374.267176"/>
     <use style="fill:#64b5cd;stroke:#64b5cd;" x="292.423851" xlink:href="#mbadff7ead6" y="455.991706"/>
     <use style="fill:#64b5cd;stroke:#64b5cd;" x="460.407435" xlink:href="#mbadff7ead6" y="386.235528"/>
     <use style="fill:#64b5cd;stroke:#64b5cd;" x="474.070483" xlink:href="#mbadff7ead6" y="344.047583"/>
     <use style="fill:#64b5cd;stroke:#64b5cd;" x="770.367696" xlink:href="#mbadff7ead6" y="319.868509"/>
     <use style="fill:#64b5cd;stroke:#64b5cd;" x="739.75316" xlink:href="#mbadff7ead6" y="293.992989"/>
     <use style="fill:#64b5cd;stroke:#64b5cd;" x="920.636431" xlink:href="#mbadff7ead6" y="258.770809"/>
     <use style="fill:#64b5cd;stroke:#64b5cd;" x="444.220674" xlink:href="#mbadff7ead6" y="369.387803"/>
     <use style="fill:#64b5cd;stroke:#64b5cd;" x="144" xlink:href="#mbadff7ead6" y="494.267113"/>
     <use style="fill:#64b5cd;stroke:#64b5cd;" x="875.614029" xlink:href="#mbadff7ead6" y="325.366518"/>
     <use style="fill:#64b5cd;stroke:#64b5cd;" x="794.948893" xlink:href="#mbadff7ead6" y="258.686399"/>
     <use style="fill:#64b5cd;stroke:#64b5cd;" x="167.371004" xlink:href="#mbadff7ead6" y="483.931126"/>
     <use style="fill:#64b5cd;stroke:#64b5cd;" x="789.379057" xlink:href="#mbadff7ead6" y="270.917203"/>
     <use style="fill:#64b5cd;stroke:#64b5cd;" x="367.649125" xlink:href="#mbadff7ead6" y="428.496932"/>
     <use style="fill:#64b5cd;stroke:#64b5cd;" x="156.850482" xlink:href="#mbadff7ead6" y="493.270486"/>
     <use style="fill:#64b5cd;stroke:#64b5cd;" x="165.573234" xlink:href="#mbadff7ead6" y="486.732381"/>
     <use style="fill:#64b5cd;stroke:#64b5cd;" x="692.128878" xlink:href="#mbadff7ead6" y="321.685359"/>
     <use style="fill:#64b5cd;stroke:#64b5cd;" x="634.300777" xlink:href="#mbadff7ead6" y="344.834295"/>
     <use style="fill:#64b5cd;stroke:#64b5cd;" x="736.940988" xlink:href="#mbadff7ead6" y="338.007028"/>
     <use style="fill:#64b5cd;stroke:#64b5cd;" x="746.45254" xlink:href="#mbadff7ead6" y="296.779947"/>
     <use style="fill:#64b5cd;stroke:#64b5cd;" x="1036.8" xlink:href="#mbadff7ead6" y="264.747624"/>
     <use style="fill:#64b5cd;stroke:#64b5cd;" x="575.464684" xlink:href="#mbadff7ead6" y="354.980447"/>
     <use style="fill:#64b5cd;stroke:#64b5cd;" x="868.860669" xlink:href="#mbadff7ead6" y="244.750905"/>
     <use style="fill:#64b5cd;stroke:#64b5cd;" x="811.742963" xlink:href="#mbadff7ead6" y="261.552704"/>
     <use style="fill:#64b5cd;stroke:#64b5cd;" x="832.105752" xlink:href="#mbadff7ead6" y="310.661903"/>
    </g>
   </g>
   <g id="line2d_16">
    <defs>
     <path d="M 0 3 
C 0.795609 3 1.55874 2.683901 2.12132 2.12132 
C 2.683901 1.55874 3 0.795609 3 0 
C 3 -0.795609 2.683901 -1.55874 2.12132 -2.12132 
C 1.55874 -2.683901 0.795609 -3 0 -3 
C -0.795609 -3 -1.55874 -2.683901 -2.12132 -2.12132 
C -2.683901 -1.55874 -3 -0.795609 -3 0 
C -3 0.795609 -2.683901 1.55874 -2.12132 2.12132 
C -1.55874 2.683901 -0.795609 3 0 3 
z
" id="m6bb63e3eeb" style="stroke:#8172b3;"/>
    </defs>
    <g clip-path="url(#p2d32ab27f0)">
     <use style="fill:#8172b3;stroke:#8172b3;" x="297.82654" xlink:href="#m6bb63e3eeb" y="406.246738"/>
     <use style="fill:#8172b3;stroke:#8172b3;" x="213.342539" xlink:href="#m6bb63e3eeb" y="453.561897"/>
     <use style="fill:#8172b3;stroke:#8172b3;" x="734.322136" xlink:href="#m6bb63e3eeb" y="401.086058"/>
     <use style="fill:#8172b3;stroke:#8172b3;" x="520.812491" xlink:href="#m6bb63e3eeb" y="382.917169"/>
     <use style="fill:#8172b3;stroke:#8172b3;" x="248.78428" xlink:href="#m6bb63e3eeb" y="407.039483"/>
     <use style="fill:#8172b3;stroke:#8172b3;" x="791.197026" xlink:href="#m6bb63e3eeb" y="326.846307"/>
     <use style="fill:#8172b3;stroke:#8172b3;" x="144" xlink:href="#m6bb63e3eeb" y="521.268604"/>
     <use style="fill:#8172b3;stroke:#8172b3;" x="854.118959" xlink:href="#m6bb63e3eeb" y="300.117374"/>
     <use style="fill:#8172b3;stroke:#8172b3;" x="650.571499" xlink:href="#m6bb63e3eeb" y="346.359687"/>
     <use style="fill:#8172b3;stroke:#8172b3;" x="597.733829" xlink:href="#m6bb63e3eeb" y="310.236188"/>
     <use style="fill:#8172b3;stroke:#8172b3;" x="227.895911" xlink:href="#m6bb63e3eeb" y="433.976605"/>
     <use style="fill:#8172b3;stroke:#8172b3;" x="874.951935" xlink:href="#m6bb63e3eeb" y="229.708555"/>
     <use style="fill:#8172b3;stroke:#8172b3;" x="654.566543" xlink:href="#m6bb63e3eeb" y="301.79417"/>
     <use style="fill:#8172b3;stroke:#8172b3;" x="254.263197" xlink:href="#m6bb63e3eeb" y="439.860589"/>
     <use style="fill:#8172b3;stroke:#8172b3;" x="722.973978" xlink:href="#m6bb63e3eeb" y="251.343415"/>
     <use style="fill:#8172b3;stroke:#8172b3;" x="793.219517" xlink:href="#m6bb63e3eeb" y="330.1845"/>
     <use style="fill:#8172b3;stroke:#8172b3;" x="466.735584" xlink:href="#m6bb63e3eeb" y="383.913422"/>
     <use style="fill:#8172b3;stroke:#8172b3;" x="250.068401" xlink:href="#m6bb63e3eeb" y="439.834715"/>
     <use style="fill:#8172b3;stroke:#8172b3;" x="745.33267" xlink:href="#m6bb63e3eeb" y="353.694351"/>
     <use style="fill:#8172b3;stroke:#8172b3;" x="727.50462" xlink:href="#m6bb63e3eeb" y="232.535309"/>
     <use style="fill:#8172b3;stroke:#8172b3;" x="581.348293" xlink:href="#m6bb63e3eeb" y="389.031987"/>
     <use style="fill:#8172b3;stroke:#8172b3;" x="762.432714" xlink:href="#m6bb63e3eeb" y="386.976265"/>
     <use style="fill:#8172b3;stroke:#8172b3;" x="841.08513" xlink:href="#m6bb63e3eeb" y="280.717861"/>
     <use style="fill:#8172b3;stroke:#8172b3;" x="618.857704" xlink:href="#m6bb63e3eeb" y="308.847266"/>
     <use style="fill:#8172b3;stroke:#8172b3;" x="673.524839" xlink:href="#m6bb63e3eeb" y="348.128762"/>
     <use style="fill:#8172b3;stroke:#8172b3;" x="782.208178" xlink:href="#m6bb63e3eeb" y="242.269022"/>
     <use style="fill:#8172b3;stroke:#8172b3;" x="650.571499" xlink:href="#m6bb63e3eeb" y="360.032706"/>
     <use style="fill:#8172b3;stroke:#8172b3;" x="720.005353" xlink:href="#m6bb63e3eeb" y="390.870732"/>
     <use style="fill:#8172b3;stroke:#8172b3;" x="702.528547" xlink:href="#m6bb63e3eeb" y="312.866877"/>
     <use style="fill:#8172b3;stroke:#8172b3;" x="235.920737" xlink:href="#m6bb63e3eeb" y="411.639085"/>
     <use style="fill:#8172b3;stroke:#8172b3;" x="308.741061" xlink:href="#m6bb63e3eeb" y="418.247678"/>
     <use style="fill:#8172b3;stroke:#8172b3;" x="819.961338" xlink:href="#m6bb63e3eeb" y="212.125188"/>
     <use style="fill:#8172b3;stroke:#8172b3;" x="789.142432" xlink:href="#m6bb63e3eeb" y="253.162731"/>
     <use style="fill:#8172b3;stroke:#8172b3;" x="587.792246" xlink:href="#m6bb63e3eeb" y="293.047601"/>
     <use style="fill:#8172b3;stroke:#8172b3;" x="149.567286" xlink:href="#m6bb63e3eeb" y="425.247639"/>
     <use style="fill:#8172b3;stroke:#8172b3;" x="634.791078" xlink:href="#m6bb63e3eeb" y="353.59092"/>
     <use style="fill:#8172b3;stroke:#8172b3;" x="770.092775" xlink:href="#m6bb63e3eeb" y="307.949653"/>
     <use style="fill:#8172b3;stroke:#8172b3;" x="822.576276" xlink:href="#m6bb63e3eeb" y="343.895425"/>
     <use style="fill:#8172b3;stroke:#8172b3;" x="636.419529" xlink:href="#m6bb63e3eeb" y="322.050903"/>
     <use style="fill:#8172b3;stroke:#8172b3;" x="616.775132" xlink:href="#m6bb63e3eeb" y="342.556864"/>
     <use style="fill:#8172b3;stroke:#8172b3;" x="773.412639" xlink:href="#m6bb63e3eeb" y="228.819889"/>
     <use style="fill:#8172b3;stroke:#8172b3;" x="775.05379" xlink:href="#m6bb63e3eeb" y="322.869274"/>
     <use style="fill:#8172b3;stroke:#8172b3;" x="689.371361" xlink:href="#m6bb63e3eeb" y="343.905579"/>
     <use style="fill:#8172b3;stroke:#8172b3;" x="410.317857" xlink:href="#m6bb63e3eeb" y="390.316968"/>
     <use style="fill:#8172b3;stroke:#8172b3;" x="531.466641" xlink:href="#m6bb63e3eeb" y="434.919874"/>
     <use style="fill:#8172b3;stroke:#8172b3;" x="436.068401" xlink:href="#m6bb63e3eeb" y="414.371305"/>
     <use style="fill:#8172b3;stroke:#8172b3;" x="176.359851" xlink:href="#m6bb63e3eeb" y="491.075949"/>
     <use style="fill:#8172b3;stroke:#8172b3;" x="144" xlink:href="#m6bb63e3eeb" y="473.252224"/>
     <use style="fill:#8172b3;stroke:#8172b3;" x="163.34152" xlink:href="#m6bb63e3eeb" y="447.365748"/>
     <use style="fill:#8172b3;stroke:#8172b3;" x="144" xlink:href="#m6bb63e3eeb" y="500.355133"/>
    </g>
   </g>
   <g id="patch_3">
    <path d="M 144 630 
L 144 86.4 
" style="fill:none;stroke:#cccccc;stroke-linecap:square;stroke-linejoin:miter;stroke-width:1.25;"/>
   </g>
   <g id="patch_4">
    <path d="M 1036.8 630 
L 1036.8 86.4 
" style="fill:none;stroke:#cccccc;stroke-linecap:square;stroke-linejoin:miter;stroke-width:1.25;"/>
   </g>
   <g id="patch_5">
    <path d="M 144 630 
L 1036.8 630 
" style="fill:none;stroke:#cccccc;stroke-linecap:square;stroke-linejoin:miter;stroke-width:1.25;"/>
   </g>
   <g id="patch_6">
    <path d="M 144 86.4 
L 1036.8 86.4 
" style="fill:none;stroke:#cccccc;stroke-linecap:square;stroke-linejoin:miter;stroke-width:1.25;"/>
   </g>
  </g>
 </g>
 <defs>
  <clipPath id="p2d32ab27f0">
   <rect height="543.6" width="892.8" x="144" y="86.4"/>
  </clipPath>
 </defs>
</svg>
