<?xml version="1.0" encoding="utf-8" standalone="no"?>
<!DOCTYPE svg PUBLIC "-//W3C//DTD SVG 1.1//EN"
  "http://www.w3.org/Graphics/SVG/1.1/DTD/svg11.dtd">
<!-- Created with matplotlib (https://matplotlib.org/) -->
<svg height="288pt" version="1.1" viewBox="0 0 432 288" width="432pt" xmlns="http://www.w3.org/2000/svg" xmlns:xlink="http://www.w3.org/1999/xlink">
 <defs>
  <style type="text/css">
*{stroke-linecap:butt;stroke-linejoin:round;}
  </style>
 </defs>
 <g id="figure_1">
  <g id="patch_1">
   <path d="M 0 288 
L 432 288 
L 432 0 
L 0 0 
z
" style="fill:#ffffff;"/>
  </g>
  <g id="axes_1">
   <g id="patch_2">
    <path d="M 54 252 
L 388.8 252 
L 388.8 34.56 
L 54 34.56 
z
" style="fill:#ffffff;"/>
   </g>
   <g id="matplotlib.axis_1">
    <g id="xtick_1">
     <g id="line2d_1">
      <path clip-path="url(#p48c4f03b5b)" d="M 119.887385 252 
L 119.887385 34.56 
" style="fill:none;stroke:#cccccc;stroke-linecap:round;"/>
     </g>
     <g id="text_1">
      <!-- −2 -->
      <defs>
       <path d="M 52.828125 31.203125 
L 5.5625 31.203125 
L 5.5625 39.40625 
L 52.828125 39.40625 
z
" id="ArialMT-8722"/>
       <path d="M 50.34375 8.453125 
L 50.34375 0 
L 3.03125 0 
Q 2.9375 3.171875 4.046875 6.109375 
Q 5.859375 10.9375 9.828125 15.625 
Q 13.8125 20.3125 21.34375 26.46875 
Q 33.015625 36.03125 37.109375 41.625 
Q 41.21875 47.21875 41.21875 52.203125 
Q 41.21875 57.421875 37.46875 61 
Q 33.734375 64.59375 27.734375 64.59375 
Q 21.390625 64.59375 17.578125 60.78125 
Q 13.765625 56.984375 13.71875 50.25 
L 4.6875 51.171875 
Q 5.609375 61.28125 11.65625 66.578125 
Q 17.71875 71.875 27.9375 71.875 
Q 38.234375 71.875 44.234375 66.15625 
Q 50.25 60.453125 50.25 52 
Q 50.25 47.703125 48.484375 43.546875 
Q 46.734375 39.40625 42.65625 34.8125 
Q 38.578125 30.21875 29.109375 22.21875 
Q 21.1875 15.578125 18.9375 13.203125 
Q 16.703125 10.84375 15.234375 8.453125 
z
" id="ArialMT-50"/>
      </defs>
      <g style="fill:#262626;" transform="translate(107.345666 277.247187)scale(0.22 -0.22)">
       <use xlink:href="#ArialMT-8722"/>
       <use x="58.398438" xlink:href="#ArialMT-50"/>
      </g>
     </g>
    </g>
    <g id="xtick_2">
     <g id="line2d_2">
      <path clip-path="url(#p48c4f03b5b)" d="M 202.58091 252 
L 202.58091 34.56 
" style="fill:none;stroke:#cccccc;stroke-linecap:round;"/>
     </g>
     <g id="text_2">
      <!-- 0 -->
      <defs>
       <path d="M 4.15625 35.296875 
Q 4.15625 48 6.765625 55.734375 
Q 9.375 63.484375 14.515625 67.671875 
Q 19.671875 71.875 27.484375 71.875 
Q 33.25 71.875 37.59375 69.546875 
Q 41.9375 67.234375 44.765625 62.859375 
Q 47.609375 58.5 49.21875 52.21875 
Q 50.828125 45.953125 50.828125 35.296875 
Q 50.828125 22.703125 48.234375 14.96875 
Q 45.65625 7.234375 40.5 3 
Q 35.359375 -1.21875 27.484375 -1.21875 
Q 17.140625 -1.21875 11.234375 6.203125 
Q 4.15625 15.140625 4.15625 35.296875 
z
M 13.1875 35.296875 
Q 13.1875 17.671875 17.3125 11.828125 
Q 21.4375 6 27.484375 6 
Q 33.546875 6 37.671875 11.859375 
Q 41.796875 17.71875 41.796875 35.296875 
Q 41.796875 52.984375 37.671875 58.78125 
Q 33.546875 64.59375 27.390625 64.59375 
Q 21.34375 64.59375 17.71875 59.46875 
Q 13.1875 52.9375 13.1875 35.296875 
z
" id="ArialMT-48"/>
      </defs>
      <g style="fill:#262626;" transform="translate(196.463879 277.247187)scale(0.22 -0.22)">
       <use xlink:href="#ArialMT-48"/>
      </g>
     </g>
    </g>
    <g id="xtick_3">
     <g id="line2d_3">
      <path clip-path="url(#p48c4f03b5b)" d="M 285.274436 252 
L 285.274436 34.56 
" style="fill:none;stroke:#cccccc;stroke-linecap:round;"/>
     </g>
     <g id="text_3">
      <!-- 2 -->
      <g style="fill:#262626;" transform="translate(279.157405 277.247187)scale(0.22 -0.22)">
       <use xlink:href="#ArialMT-50"/>
      </g>
     </g>
    </g>
    <g id="xtick_4">
     <g id="line2d_4">
      <path clip-path="url(#p48c4f03b5b)" d="M 367.967962 252 
L 367.967962 34.56 
" style="fill:none;stroke:#cccccc;stroke-linecap:round;"/>
     </g>
     <g id="text_4">
      <!-- 4 -->
      <defs>
       <path d="M 32.328125 0 
L 32.328125 17.140625 
L 1.265625 17.140625 
L 1.265625 25.203125 
L 33.9375 71.578125 
L 41.109375 71.578125 
L 41.109375 25.203125 
L 50.78125 25.203125 
L 50.78125 17.140625 
L 41.109375 17.140625 
L 41.109375 0 
z
M 32.328125 25.203125 
L 32.328125 57.46875 
L 9.90625 25.203125 
z
" id="ArialMT-52"/>
      </defs>
      <g style="fill:#262626;" transform="translate(361.85093 277.247187)scale(0.22 -0.22)">
       <use xlink:href="#ArialMT-52"/>
      </g>
     </g>
    </g>
    <g id="text_5">
     <!-- Yerr_normalized -->
     <defs>
      <path d="M 27.875 0 
L 27.875 30.328125 
L 0.296875 71.578125 
L 11.8125 71.578125 
L 25.921875 50 
Q 29.828125 43.953125 33.203125 37.890625 
Q 36.421875 43.5 41.015625 50.53125 
L 54.890625 71.578125 
L 65.921875 71.578125 
L 37.359375 30.328125 
L 37.359375 0 
z
" id="ArialMT-89"/>
      <path d="M 42.09375 16.703125 
L 51.171875 15.578125 
Q 49.03125 7.625 43.21875 3.21875 
Q 37.40625 -1.171875 28.375 -1.171875 
Q 17 -1.171875 10.328125 5.828125 
Q 3.65625 12.84375 3.65625 25.484375 
Q 3.65625 38.578125 10.390625 45.796875 
Q 17.140625 53.03125 27.875 53.03125 
Q 38.28125 53.03125 44.875 45.953125 
Q 51.46875 38.875 51.46875 26.03125 
Q 51.46875 25.25 51.421875 23.6875 
L 12.75 23.6875 
Q 13.234375 15.140625 17.578125 10.59375 
Q 21.921875 6.0625 28.421875 6.0625 
Q 33.25 6.0625 36.671875 8.59375 
Q 40.09375 11.140625 42.09375 16.703125 
z
M 13.234375 30.90625 
L 42.1875 30.90625 
Q 41.609375 37.453125 38.875 40.71875 
Q 34.671875 45.796875 27.984375 45.796875 
Q 21.921875 45.796875 17.796875 41.75 
Q 13.671875 37.703125 13.234375 30.90625 
z
" id="ArialMT-101"/>
      <path d="M 6.5 0 
L 6.5 51.859375 
L 14.40625 51.859375 
L 14.40625 44 
Q 17.4375 49.515625 20 51.265625 
Q 22.5625 53.03125 25.640625 53.03125 
Q 30.078125 53.03125 34.671875 50.203125 
L 31.640625 42.046875 
Q 28.421875 43.953125 25.203125 43.953125 
Q 22.3125 43.953125 20.015625 42.21875 
Q 17.71875 40.484375 16.75 37.40625 
Q 15.28125 32.71875 15.28125 27.15625 
L 15.28125 0 
z
" id="ArialMT-114"/>
      <path d="M -1.515625 -19.875 
L -1.515625 -13.53125 
L 56.734375 -13.53125 
L 56.734375 -19.875 
z
" id="ArialMT-95"/>
      <path d="M 6.59375 0 
L 6.59375 51.859375 
L 14.5 51.859375 
L 14.5 44.484375 
Q 20.21875 53.03125 31 53.03125 
Q 35.6875 53.03125 39.625 51.34375 
Q 43.5625 49.65625 45.515625 46.921875 
Q 47.46875 44.1875 48.25 40.4375 
Q 48.734375 37.984375 48.734375 31.890625 
L 48.734375 0 
L 39.9375 0 
L 39.9375 31.546875 
Q 39.9375 36.921875 38.90625 39.578125 
Q 37.890625 42.234375 35.28125 43.8125 
Q 32.671875 45.40625 29.15625 45.40625 
Q 23.53125 45.40625 19.453125 41.84375 
Q 15.375 38.28125 15.375 28.328125 
L 15.375 0 
z
" id="ArialMT-110"/>
      <path d="M 3.328125 25.921875 
Q 3.328125 40.328125 11.328125 47.265625 
Q 18.015625 53.03125 27.640625 53.03125 
Q 38.328125 53.03125 45.109375 46.015625 
Q 51.90625 39.015625 51.90625 26.65625 
Q 51.90625 16.65625 48.90625 10.90625 
Q 45.90625 5.171875 40.15625 2 
Q 34.421875 -1.171875 27.640625 -1.171875 
Q 16.75 -1.171875 10.03125 5.8125 
Q 3.328125 12.796875 3.328125 25.921875 
z
M 12.359375 25.921875 
Q 12.359375 15.96875 16.703125 11.015625 
Q 21.046875 6.0625 27.640625 6.0625 
Q 34.1875 6.0625 38.53125 11.03125 
Q 42.875 16.015625 42.875 26.21875 
Q 42.875 35.84375 38.5 40.796875 
Q 34.125 45.75 27.640625 45.75 
Q 21.046875 45.75 16.703125 40.8125 
Q 12.359375 35.890625 12.359375 25.921875 
z
" id="ArialMT-111"/>
      <path d="M 6.59375 0 
L 6.59375 51.859375 
L 14.453125 51.859375 
L 14.453125 44.578125 
Q 16.890625 48.390625 20.9375 50.703125 
Q 25 53.03125 30.171875 53.03125 
Q 35.9375 53.03125 39.625 50.640625 
Q 43.3125 48.25 44.828125 43.953125 
Q 50.984375 53.03125 60.84375 53.03125 
Q 68.5625 53.03125 72.703125 48.75 
Q 76.859375 44.484375 76.859375 35.59375 
L 76.859375 0 
L 68.109375 0 
L 68.109375 32.671875 
Q 68.109375 37.9375 67.25 40.25 
Q 66.40625 42.578125 64.15625 43.984375 
Q 61.921875 45.40625 58.890625 45.40625 
Q 53.421875 45.40625 49.796875 41.765625 
Q 46.1875 38.140625 46.1875 30.125 
L 46.1875 0 
L 37.40625 0 
L 37.40625 33.6875 
Q 37.40625 39.546875 35.25 42.46875 
Q 33.109375 45.40625 28.21875 45.40625 
Q 24.515625 45.40625 21.359375 43.453125 
Q 18.21875 41.5 16.796875 37.734375 
Q 15.375 33.984375 15.375 26.90625 
L 15.375 0 
z
" id="ArialMT-109"/>
      <path d="M 40.4375 6.390625 
Q 35.546875 2.25 31.03125 0.53125 
Q 26.515625 -1.171875 21.34375 -1.171875 
Q 12.796875 -1.171875 8.203125 3 
Q 3.609375 7.171875 3.609375 13.671875 
Q 3.609375 17.484375 5.34375 20.625 
Q 7.078125 23.78125 9.890625 25.6875 
Q 12.703125 27.59375 16.21875 28.5625 
Q 18.796875 29.25 24.03125 29.890625 
Q 34.671875 31.15625 39.703125 32.90625 
Q 39.75 34.71875 39.75 35.203125 
Q 39.75 40.578125 37.25 42.78125 
Q 33.890625 45.75 27.25 45.75 
Q 21.046875 45.75 18.09375 43.578125 
Q 15.140625 41.40625 13.71875 35.890625 
L 5.125 37.0625 
Q 6.296875 42.578125 8.984375 45.96875 
Q 11.671875 49.359375 16.75 51.1875 
Q 21.828125 53.03125 28.515625 53.03125 
Q 35.15625 53.03125 39.296875 51.46875 
Q 43.453125 49.90625 45.40625 47.53125 
Q 47.359375 45.171875 48.140625 41.546875 
Q 48.578125 39.3125 48.578125 33.453125 
L 48.578125 21.734375 
Q 48.578125 9.46875 49.140625 6.21875 
Q 49.703125 2.984375 51.375 0 
L 42.1875 0 
Q 40.828125 2.734375 40.4375 6.390625 
z
M 39.703125 26.03125 
Q 34.90625 24.078125 25.34375 22.703125 
Q 19.921875 21.921875 17.671875 20.9375 
Q 15.4375 19.96875 14.203125 18.09375 
Q 12.984375 16.21875 12.984375 13.921875 
Q 12.984375 10.40625 15.640625 8.0625 
Q 18.3125 5.71875 23.4375 5.71875 
Q 28.515625 5.71875 32.46875 7.9375 
Q 36.421875 10.15625 38.28125 14.015625 
Q 39.703125 17 39.703125 22.796875 
z
" id="ArialMT-97"/>
      <path d="M 6.390625 0 
L 6.390625 71.578125 
L 15.1875 71.578125 
L 15.1875 0 
z
" id="ArialMT-108"/>
      <path d="M 6.640625 61.46875 
L 6.640625 71.578125 
L 15.4375 71.578125 
L 15.4375 61.46875 
z
M 6.640625 0 
L 6.640625 51.859375 
L 15.4375 51.859375 
L 15.4375 0 
z
" id="ArialMT-105"/>
      <path d="M 1.953125 0 
L 1.953125 7.125 
L 34.96875 45.015625 
Q 29.34375 44.734375 25.046875 44.734375 
L 3.90625 44.734375 
L 3.90625 51.859375 
L 46.296875 51.859375 
L 46.296875 46.046875 
L 18.21875 13.140625 
L 12.796875 7.125 
Q 18.703125 7.5625 23.875 7.5625 
L 47.859375 7.5625 
L 47.859375 0 
z
" id="ArialMT-122"/>
      <path d="M 40.234375 0 
L 40.234375 6.546875 
Q 35.296875 -1.171875 25.734375 -1.171875 
Q 19.53125 -1.171875 14.328125 2.25 
Q 9.125 5.671875 6.265625 11.796875 
Q 3.421875 17.921875 3.421875 25.875 
Q 3.421875 33.640625 6 39.96875 
Q 8.59375 46.296875 13.765625 49.65625 
Q 18.953125 53.03125 25.34375 53.03125 
Q 30.03125 53.03125 33.6875 51.046875 
Q 37.359375 49.078125 39.65625 45.90625 
L 39.65625 71.578125 
L 48.390625 71.578125 
L 48.390625 0 
z
M 12.453125 25.875 
Q 12.453125 15.921875 16.640625 10.984375 
Q 20.84375 6.0625 26.5625 6.0625 
Q 32.328125 6.0625 36.34375 10.765625 
Q 40.375 15.484375 40.375 25.140625 
Q 40.375 35.796875 36.265625 40.765625 
Q 32.171875 45.75 26.171875 45.75 
Q 20.3125 45.75 16.375 40.96875 
Q 12.453125 36.1875 12.453125 25.875 
z
" id="ArialMT-100"/>
     </defs>
     <g style="fill:#262626;" transform="translate(133.385625 302.798437)scale(0.24 -0.24)">
      <use xlink:href="#ArialMT-89"/>
      <use x="66.558594" xlink:href="#ArialMT-101"/>
      <use x="122.173828" xlink:href="#ArialMT-114"/>
      <use x="155.474609" xlink:href="#ArialMT-114"/>
      <use x="188.775391" xlink:href="#ArialMT-95"/>
      <use x="244.390625" xlink:href="#ArialMT-110"/>
      <use x="300.005859" xlink:href="#ArialMT-111"/>
      <use x="355.621094" xlink:href="#ArialMT-114"/>
      <use x="388.921875" xlink:href="#ArialMT-109"/>
      <use x="472.222656" xlink:href="#ArialMT-97"/>
      <use x="527.837891" xlink:href="#ArialMT-108"/>
      <use x="550.054688" xlink:href="#ArialMT-105"/>
      <use x="572.271484" xlink:href="#ArialMT-122"/>
      <use x="622.271484" xlink:href="#ArialMT-101"/>
      <use x="677.886719" xlink:href="#ArialMT-100"/>
     </g>
    </g>
   </g>
   <g id="matplotlib.axis_2">
    <g id="ytick_1">
     <g id="line2d_5">
      <path clip-path="url(#p48c4f03b5b)" d="M 54 252 
L 388.8 252 
" style="fill:none;stroke:#cccccc;stroke-linecap:round;"/>
     </g>
     <g id="text_6">
      <!-- 0.0 -->
      <defs>
       <path d="M 9.078125 0 
L 9.078125 10.015625 
L 19.09375 10.015625 
L 19.09375 0 
z
" id="ArialMT-46"/>
      </defs>
      <g style="fill:#262626;" transform="translate(13.92 259.873594)scale(0.22 -0.22)">
       <use xlink:href="#ArialMT-48"/>
       <use x="55.615234" xlink:href="#ArialMT-46"/>
       <use x="83.398438" xlink:href="#ArialMT-48"/>
      </g>
     </g>
    </g>
    <g id="ytick_2">
     <g id="line2d_6">
      <path clip-path="url(#p48c4f03b5b)" d="M 54 153.921006 
L 388.8 153.921006 
" style="fill:none;stroke:#cccccc;stroke-linecap:round;"/>
     </g>
     <g id="text_7">
      <!-- 0.2 -->
      <g style="fill:#262626;" transform="translate(13.92 161.7946)scale(0.22 -0.22)">
       <use xlink:href="#ArialMT-48"/>
       <use x="55.615234" xlink:href="#ArialMT-46"/>
       <use x="83.398438" xlink:href="#ArialMT-50"/>
      </g>
     </g>
    </g>
    <g id="ytick_3">
     <g id="line2d_7">
      <path clip-path="url(#p48c4f03b5b)" d="M 54 55.842013 
L 388.8 55.842013 
" style="fill:none;stroke:#cccccc;stroke-linecap:round;"/>
     </g>
     <g id="text_8">
      <!-- 0.4 -->
      <g style="fill:#262626;" transform="translate(13.92 63.715607)scale(0.22 -0.22)">
       <use xlink:href="#ArialMT-48"/>
       <use x="55.615234" xlink:href="#ArialMT-46"/>
       <use x="83.398438" xlink:href="#ArialMT-52"/>
      </g>
     </g>
    </g>
   </g>
   <g id="patch_3">
    <path clip-path="url(#p48c4f03b5b)" d="M 112.717316 252 
L 130.831096 252 
L 130.831096 229.612355 
L 112.717316 229.612355 
z
" style="fill:#4c72b0;opacity:0.4;stroke:#ffffff;stroke-linejoin:miter;"/>
   </g>
   <g id="patch_4">
    <path clip-path="url(#p48c4f03b5b)" d="M 130.831096 252 
L 148.944877 252 
L 148.944877 207.22471 
L 130.831096 207.22471 
z
" style="fill:#4c72b0;opacity:0.4;stroke:#ffffff;stroke-linejoin:miter;"/>
   </g>
   <g id="patch_5">
    <path clip-path="url(#p48c4f03b5b)" d="M 148.944877 252 
L 167.058658 252 
L 167.058658 95.286486 
L 148.944877 95.286486 
z
" style="fill:#4c72b0;opacity:0.4;stroke:#ffffff;stroke-linejoin:miter;"/>
   </g>
   <g id="patch_6">
    <path clip-path="url(#p48c4f03b5b)" d="M 167.058658 252 
L 185.172439 252 
L 185.172439 44.914286 
L 167.058658 44.914286 
z
" style="fill:#4c72b0;opacity:0.4;stroke:#ffffff;stroke-linejoin:miter;"/>
   </g>
   <g id="patch_7">
    <path clip-path="url(#p48c4f03b5b)" d="M 185.172439 252 
L 203.286219 252 
L 203.286219 56.108108 
L 185.172439 56.108108 
z
" style="fill:#4c72b0;opacity:0.4;stroke:#ffffff;stroke-linejoin:miter;"/>
   </g>
   <g id="patch_8">
    <path clip-path="url(#p48c4f03b5b)" d="M 203.286219 252 
L 221.4 252 
L 221.4 72.898842 
L 203.286219 72.898842 
z
" style="fill:#4c72b0;opacity:0.4;stroke:#ffffff;stroke-linejoin:miter;"/>
   </g>
   <g id="patch_9">
    <path clip-path="url(#p48c4f03b5b)" d="M 221.4 252 
L 239.513781 252 
L 239.513781 117.674131 
L 221.4 117.674131 
z
" style="fill:#4c72b0;opacity:0.4;stroke:#ffffff;stroke-linejoin:miter;"/>
   </g>
   <g id="patch_10">
    <path clip-path="url(#p48c4f03b5b)" d="M 239.513781 252 
L 257.627561 252 
L 257.627561 190.433977 
L 239.513781 190.433977 
z
" style="fill:#4c72b0;opacity:0.4;stroke:#ffffff;stroke-linejoin:miter;"/>
   </g>
   <g id="patch_11">
    <path clip-path="url(#p48c4f03b5b)" d="M 257.627561 252 
L 275.741342 252 
L 275.741342 201.627799 
L 257.627561 201.627799 
z
" style="fill:#4c72b0;opacity:0.4;stroke:#ffffff;stroke-linejoin:miter;"/>
   </g>
   <g id="patch_12">
    <path clip-path="url(#p48c4f03b5b)" d="M 275.741342 252 
L 293.855123 252 
L 293.855123 207.22471 
L 275.741342 207.22471 
z
" style="fill:#4c72b0;opacity:0.4;stroke:#ffffff;stroke-linejoin:miter;"/>
   </g>
   <g id="patch_13">
    <path clip-path="url(#p48c4f03b5b)" d="M 293.855123 252 
L 311.968904 252 
L 311.968904 240.806178 
L 293.855123 240.806178 
z
" style="fill:#4c72b0;opacity:0.4;stroke:#ffffff;stroke-linejoin:miter;"/>
   </g>
   <g id="patch_14">
    <path clip-path="url(#p48c4f03b5b)" d="M 311.968904 252 
L 330.082684 252 
L 330.082684 240.806178 
L 311.968904 240.806178 
z
" style="fill:#4c72b0;opacity:0.4;stroke:#ffffff;stroke-linejoin:miter;"/>
   </g>
   <g id="LineCollection_1">
    <path clip-path="url(#p48c4f03b5b)" d="M 194.538577 252 
L 194.538577 241.128 
" style="fill:none;stroke:#4c72b0;"/>
    <path clip-path="url(#p48c4f03b5b)" d="M 200.53163 252 
L 200.53163 241.128 
" style="fill:none;stroke:#4c72b0;"/>
    <path clip-path="url(#p48c4f03b5b)" d="M 197.408263 252 
L 197.408263 241.128 
" style="fill:none;stroke:#4c72b0;"/>
    <path clip-path="url(#p48c4f03b5b)" d="M 237.956338 252 
L 237.956338 241.128 
" style="fill:none;stroke:#4c72b0;"/>
    <path clip-path="url(#p48c4f03b5b)" d="M 174.685265 252 
L 174.685265 241.128 
" style="fill:none;stroke:#4c72b0;"/>
    <path clip-path="url(#p48c4f03b5b)" d="M 200.108185 252 
L 200.108185 241.128 
" style="fill:none;stroke:#4c72b0;"/>
    <path clip-path="url(#p48c4f03b5b)" d="M 172.262741 252 
L 172.262741 241.128 
" style="fill:none;stroke:#4c72b0;"/>
    <path clip-path="url(#p48c4f03b5b)" d="M 125.265089 252 
L 125.265089 241.128 
" style="fill:none;stroke:#4c72b0;"/>
    <path clip-path="url(#p48c4f03b5b)" d="M 217.320292 252 
L 217.320292 241.128 
" style="fill:none;stroke:#4c72b0;"/>
    <path clip-path="url(#p48c4f03b5b)" d="M 188.318311 252 
L 188.318311 241.128 
" style="fill:none;stroke:#4c72b0;"/>
    <path clip-path="url(#p48c4f03b5b)" d="M 234.036962 252 
L 234.036962 241.128 
" style="fill:none;stroke:#4c72b0;"/>
    <path clip-path="url(#p48c4f03b5b)" d="M 184.064779 252 
L 184.064779 241.128 
" style="fill:none;stroke:#4c72b0;"/>
    <path clip-path="url(#p48c4f03b5b)" d="M 210.698026 252 
L 210.698026 241.128 
" style="fill:none;stroke:#4c72b0;"/>
    <path clip-path="url(#p48c4f03b5b)" d="M 197.742431 252 
L 197.742431 241.128 
" style="fill:none;stroke:#4c72b0;"/>
    <path clip-path="url(#p48c4f03b5b)" d="M 167.964708 252 
L 167.964708 241.128 
" style="fill:none;stroke:#4c72b0;"/>
    <path clip-path="url(#p48c4f03b5b)" d="M 211.431423 252 
L 211.431423 241.128 
" style="fill:none;stroke:#4c72b0;"/>
    <path clip-path="url(#p48c4f03b5b)" d="M 263.04787 252 
L 263.04787 241.128 
" style="fill:none;stroke:#4c72b0;"/>
    <path clip-path="url(#p48c4f03b5b)" d="M 288.43076 252 
L 288.43076 241.128 
" style="fill:none;stroke:#4c72b0;"/>
    <path clip-path="url(#p48c4f03b5b)" d="M 261.064956 252 
L 261.064956 241.128 
" style="fill:none;stroke:#4c72b0;"/>
    <path clip-path="url(#p48c4f03b5b)" d="M 156.574915 252 
L 156.574915 241.128 
" style="fill:none;stroke:#4c72b0;"/>
    <path clip-path="url(#p48c4f03b5b)" d="M 164.254909 252 
L 164.254909 241.128 
" style="fill:none;stroke:#4c72b0;"/>
    <path clip-path="url(#p48c4f03b5b)" d="M 254.24458 252 
L 254.24458 241.128 
" style="fill:none;stroke:#4c72b0;"/>
    <path clip-path="url(#p48c4f03b5b)" d="M 172.162432 252 
L 172.162432 241.128 
" style="fill:none;stroke:#4c72b0;"/>
    <path clip-path="url(#p48c4f03b5b)" d="M 196.430091 252 
L 196.430091 241.128 
" style="fill:none;stroke:#4c72b0;"/>
    <path clip-path="url(#p48c4f03b5b)" d="M 161.663369 252 
L 161.663369 241.128 
" style="fill:none;stroke:#4c72b0;"/>
    <path clip-path="url(#p48c4f03b5b)" d="M 153.097379 252 
L 153.097379 241.128 
" style="fill:none;stroke:#4c72b0;"/>
    <path clip-path="url(#p48c4f03b5b)" d="M 180.903076 252 
L 180.903076 241.128 
" style="fill:none;stroke:#4c72b0;"/>
    <path clip-path="url(#p48c4f03b5b)" d="M 189.726211 252 
L 189.726211 241.128 
" style="fill:none;stroke:#4c72b0;"/>
    <path clip-path="url(#p48c4f03b5b)" d="M 233.568629 252 
L 233.568629 241.128 
" style="fill:none;stroke:#4c72b0;"/>
    <path clip-path="url(#p48c4f03b5b)" d="M 112.717316 252 
L 112.717316 241.128 
" style="fill:none;stroke:#4c72b0;"/>
    <path clip-path="url(#p48c4f03b5b)" d="M 285.737122 252 
L 285.737122 241.128 
" style="fill:none;stroke:#4c72b0;"/>
    <path clip-path="url(#p48c4f03b5b)" d="M 183.761647 252 
L 183.761647 241.128 
" style="fill:none;stroke:#4c72b0;"/>
    <path clip-path="url(#p48c4f03b5b)" d="M 226.895468 252 
L 226.895468 241.128 
" style="fill:none;stroke:#4c72b0;"/>
    <path clip-path="url(#p48c4f03b5b)" d="M 144.886632 252 
L 144.886632 241.128 
" style="fill:none;stroke:#4c72b0;"/>
    <path clip-path="url(#p48c4f03b5b)" d="M 238.261875 252 
L 238.261875 241.128 
" style="fill:none;stroke:#4c72b0;"/>
    <path clip-path="url(#p48c4f03b5b)" d="M 214.633786 252 
L 214.633786 241.128 
" style="fill:none;stroke:#4c72b0;"/>
    <path clip-path="url(#p48c4f03b5b)" d="M 182.250434 252 
L 182.250434 241.128 
" style="fill:none;stroke:#4c72b0;"/>
    <path clip-path="url(#p48c4f03b5b)" d="M 237.635911 252 
L 237.635911 241.128 
" style="fill:none;stroke:#4c72b0;"/>
    <path clip-path="url(#p48c4f03b5b)" d="M 249.491231 252 
L 249.491231 241.128 
" style="fill:none;stroke:#4c72b0;"/>
    <path clip-path="url(#p48c4f03b5b)" d="M 234.83111 252 
L 234.83111 241.128 
" style="fill:none;stroke:#4c72b0;"/>
    <path clip-path="url(#p48c4f03b5b)" d="M 326.11036 252 
L 326.11036 241.128 
" style="fill:none;stroke:#4c72b0;"/>
    <path clip-path="url(#p48c4f03b5b)" d="M 212.028459 252 
L 212.028459 241.128 
" style="fill:none;stroke:#4c72b0;"/>
    <path clip-path="url(#p48c4f03b5b)" d="M 151.10277 252 
L 151.10277 241.128 
" style="fill:none;stroke:#4c72b0;"/>
    <path clip-path="url(#p48c4f03b5b)" d="M 231.242853 252 
L 231.242853 241.128 
" style="fill:none;stroke:#4c72b0;"/>
    <path clip-path="url(#p48c4f03b5b)" d="M 196.267347 252 
L 196.267347 241.128 
" style="fill:none;stroke:#4c72b0;"/>
    <path clip-path="url(#p48c4f03b5b)" d="M 292.065564 252 
L 292.065564 241.128 
" style="fill:none;stroke:#4c72b0;"/>
    <path clip-path="url(#p48c4f03b5b)" d="M 233.588103 252 
L 233.588103 241.128 
" style="fill:none;stroke:#4c72b0;"/>
    <path clip-path="url(#p48c4f03b5b)" d="M 172.215781 252 
L 172.215781 241.128 
" style="fill:none;stroke:#4c72b0;"/>
    <path clip-path="url(#p48c4f03b5b)" d="M 148.264468 252 
L 148.264468 241.128 
" style="fill:none;stroke:#4c72b0;"/>
    <path clip-path="url(#p48c4f03b5b)" d="M 134.596838 252 
L 134.596838 241.128 
" style="fill:none;stroke:#4c72b0;"/>
    <path clip-path="url(#p48c4f03b5b)" d="M 173.861479 252 
L 173.861479 241.128 
" style="fill:none;stroke:#4c72b0;"/>
    <path clip-path="url(#p48c4f03b5b)" d="M 210.564104 252 
L 210.564104 241.128 
" style="fill:none;stroke:#4c72b0;"/>
    <path clip-path="url(#p48c4f03b5b)" d="M 116.719042 252 
L 116.719042 241.128 
" style="fill:none;stroke:#4c72b0;"/>
    <path clip-path="url(#p48c4f03b5b)" d="M 179.682713 252 
L 179.682713 241.128 
" style="fill:none;stroke:#4c72b0;"/>
    <path clip-path="url(#p48c4f03b5b)" d="M 178.260561 252 
L 178.260561 241.128 
" style="fill:none;stroke:#4c72b0;"/>
    <path clip-path="url(#p48c4f03b5b)" d="M 198.309621 252 
L 198.309621 241.128 
" style="fill:none;stroke:#4c72b0;"/>
    <path clip-path="url(#p48c4f03b5b)" d="M 254.31903 252 
L 254.31903 241.128 
" style="fill:none;stroke:#4c72b0;"/>
    <path clip-path="url(#p48c4f03b5b)" d="M 182.387737 252 
L 182.387737 241.128 
" style="fill:none;stroke:#4c72b0;"/>
    <path clip-path="url(#p48c4f03b5b)" d="M 162.846912 252 
L 162.846912 241.128 
" style="fill:none;stroke:#4c72b0;"/>
    <path clip-path="url(#p48c4f03b5b)" d="M 236.377475 252 
L 236.377475 241.128 
" style="fill:none;stroke:#4c72b0;"/>
    <path clip-path="url(#p48c4f03b5b)" d="M 209.229017 252 
L 209.229017 241.128 
" style="fill:none;stroke:#4c72b0;"/>
    <path clip-path="url(#p48c4f03b5b)" d="M 179.647786 252 
L 179.647786 241.128 
" style="fill:none;stroke:#4c72b0;"/>
    <path clip-path="url(#p48c4f03b5b)" d="M 270.690325 252 
L 270.690325 241.128 
" style="fill:none;stroke:#4c72b0;"/>
    <path clip-path="url(#p48c4f03b5b)" d="M 179.916816 252 
L 179.916816 241.128 
" style="fill:none;stroke:#4c72b0;"/>
    <path clip-path="url(#p48c4f03b5b)" d="M 166.490436 252 
L 166.490436 241.128 
" style="fill:none;stroke:#4c72b0;"/>
    <path clip-path="url(#p48c4f03b5b)" d="M 213.176158 252 
L 213.176158 241.128 
" style="fill:none;stroke:#4c72b0;"/>
    <path clip-path="url(#p48c4f03b5b)" d="M 201.886712 252 
L 201.886712 241.128 
" style="fill:none;stroke:#4c72b0;"/>
    <path clip-path="url(#p48c4f03b5b)" d="M 208.680714 252 
L 208.680714 241.128 
" style="fill:none;stroke:#4c72b0;"/>
    <path clip-path="url(#p48c4f03b5b)" d="M 171.345071 252 
L 171.345071 241.128 
" style="fill:none;stroke:#4c72b0;"/>
    <path clip-path="url(#p48c4f03b5b)" d="M 186.23997 252 
L 186.23997 241.128 
" style="fill:none;stroke:#4c72b0;"/>
    <path clip-path="url(#p48c4f03b5b)" d="M 218.706365 252 
L 218.706365 241.128 
" style="fill:none;stroke:#4c72b0;"/>
    <path clip-path="url(#p48c4f03b5b)" d="M 204.233159 252 
L 204.233159 241.128 
" style="fill:none;stroke:#4c72b0;"/>
    <path clip-path="url(#p48c4f03b5b)" d="M 178.622263 252 
L 178.622263 241.128 
" style="fill:none;stroke:#4c72b0;"/>
    <path clip-path="url(#p48c4f03b5b)" d="M 188.577306 252 
L 188.577306 241.128 
" style="fill:none;stroke:#4c72b0;"/>
    <path clip-path="url(#p48c4f03b5b)" d="M 220.702931 252 
L 220.702931 241.128 
" style="fill:none;stroke:#4c72b0;"/>
    <path clip-path="url(#p48c4f03b5b)" d="M 185.903693 252 
L 185.903693 241.128 
" style="fill:none;stroke:#4c72b0;"/>
    <path clip-path="url(#p48c4f03b5b)" d="M 159.129606 252 
L 159.129606 241.128 
" style="fill:none;stroke:#4c72b0;"/>
    <path clip-path="url(#p48c4f03b5b)" d="M 161.523957 252 
L 161.523957 241.128 
" style="fill:none;stroke:#4c72b0;"/>
    <path clip-path="url(#p48c4f03b5b)" d="M 291.209801 252 
L 291.209801 241.128 
" style="fill:none;stroke:#4c72b0;"/>
    <path clip-path="url(#p48c4f03b5b)" d="M 208.910866 252 
L 208.910866 241.128 
" style="fill:none;stroke:#4c72b0;"/>
    <path clip-path="url(#p48c4f03b5b)" d="M 194.055962 252 
L 194.055962 241.128 
" style="fill:none;stroke:#4c72b0;"/>
    <path clip-path="url(#p48c4f03b5b)" d="M 172.840144 252 
L 172.840144 241.128 
" style="fill:none;stroke:#4c72b0;"/>
    <path clip-path="url(#p48c4f03b5b)" d="M 211.658942 252 
L 211.658942 241.128 
" style="fill:none;stroke:#4c72b0;"/>
    <path clip-path="url(#p48c4f03b5b)" d="M 175.707246 252 
L 175.707246 241.128 
" style="fill:none;stroke:#4c72b0;"/>
    <path clip-path="url(#p48c4f03b5b)" d="M 208.630537 252 
L 208.630537 241.128 
" style="fill:none;stroke:#4c72b0;"/>
    <path clip-path="url(#p48c4f03b5b)" d="M 162.388969 252 
L 162.388969 241.128 
" style="fill:none;stroke:#4c72b0;"/>
    <path clip-path="url(#p48c4f03b5b)" d="M 152.282974 252 
L 152.282974 241.128 
" style="fill:none;stroke:#4c72b0;"/>
    <path clip-path="url(#p48c4f03b5b)" d="M 200.626996 252 
L 200.626996 241.128 
" style="fill:none;stroke:#4c72b0;"/>
    <path clip-path="url(#p48c4f03b5b)" d="M 192.889028 252 
L 192.889028 241.128 
" style="fill:none;stroke:#4c72b0;"/>
    <path clip-path="url(#p48c4f03b5b)" d="M 160.300833 252 
L 160.300833 241.128 
" style="fill:none;stroke:#4c72b0;"/>
    <path clip-path="url(#p48c4f03b5b)" d="M 190.174827 252 
L 190.174827 241.128 
" style="fill:none;stroke:#4c72b0;"/>
    <path clip-path="url(#p48c4f03b5b)" d="M 258.764757 252 
L 258.764757 241.128 
" style="fill:none;stroke:#4c72b0;"/>
    <path clip-path="url(#p48c4f03b5b)" d="M 158.899176 252 
L 158.899176 241.128 
" style="fill:none;stroke:#4c72b0;"/>
    <path clip-path="url(#p48c4f03b5b)" d="M 186.537744 252 
L 186.537744 241.128 
" style="fill:none;stroke:#4c72b0;"/>
    <path clip-path="url(#p48c4f03b5b)" d="M 304.814843 252 
L 304.814843 241.128 
" style="fill:none;stroke:#4c72b0;"/>
    <path clip-path="url(#p48c4f03b5b)" d="M 190.917528 252 
L 190.917528 241.128 
" style="fill:none;stroke:#4c72b0;"/>
    <path clip-path="url(#p48c4f03b5b)" d="M 127.51673 252 
L 127.51673 241.128 
" style="fill:none;stroke:#4c72b0;"/>
    <path clip-path="url(#p48c4f03b5b)" d="M 137.221927 252 
L 137.221927 241.128 
" style="fill:none;stroke:#4c72b0;"/>
    <path clip-path="url(#p48c4f03b5b)" d="M 246.408753 252 
L 246.408753 241.128 
" style="fill:none;stroke:#4c72b0;"/>
    <path clip-path="url(#p48c4f03b5b)" d="M 186.565863 252 
L 186.565863 241.128 
" style="fill:none;stroke:#4c72b0;"/>
    <path clip-path="url(#p48c4f03b5b)" d="M 165.183012 252 
L 165.183012 241.128 
" style="fill:none;stroke:#4c72b0;"/>
    <path clip-path="url(#p48c4f03b5b)" d="M 197.93723 252 
L 197.93723 241.128 
" style="fill:none;stroke:#4c72b0;"/>
    <path clip-path="url(#p48c4f03b5b)" d="M 173.088908 252 
L 173.088908 241.128 
" style="fill:none;stroke:#4c72b0;"/>
    <path clip-path="url(#p48c4f03b5b)" d="M 191.080154 252 
L 191.080154 241.128 
" style="fill:none;stroke:#4c72b0;"/>
    <path clip-path="url(#p48c4f03b5b)" d="M 226.052599 252 
L 226.052599 241.128 
" style="fill:none;stroke:#4c72b0;"/>
    <path clip-path="url(#p48c4f03b5b)" d="M 253.490027 252 
L 253.490027 241.128 
" style="fill:none;stroke:#4c72b0;"/>
    <path clip-path="url(#p48c4f03b5b)" d="M 195.260467 252 
L 195.260467 241.128 
" style="fill:none;stroke:#4c72b0;"/>
    <path clip-path="url(#p48c4f03b5b)" d="M 210.944159 252 
L 210.944159 241.128 
" style="fill:none;stroke:#4c72b0;"/>
    <path clip-path="url(#p48c4f03b5b)" d="M 210.809397 252 
L 210.809397 241.128 
" style="fill:none;stroke:#4c72b0;"/>
    <path clip-path="url(#p48c4f03b5b)" d="M 196.16726 252 
L 196.16726 241.128 
" style="fill:none;stroke:#4c72b0;"/>
    <path clip-path="url(#p48c4f03b5b)" d="M 161.20052 252 
L 161.20052 241.128 
" style="fill:none;stroke:#4c72b0;"/>
    <path clip-path="url(#p48c4f03b5b)" d="M 193.124264 252 
L 193.124264 241.128 
" style="fill:none;stroke:#4c72b0;"/>
    <path clip-path="url(#p48c4f03b5b)" d="M 216.044881 252 
L 216.044881 241.128 
" style="fill:none;stroke:#4c72b0;"/>
    <path clip-path="url(#p48c4f03b5b)" d="M 160.17067 252 
L 160.17067 241.128 
" style="fill:none;stroke:#4c72b0;"/>
    <path clip-path="url(#p48c4f03b5b)" d="M 173.561493 252 
L 173.561493 241.128 
" style="fill:none;stroke:#4c72b0;"/>
    <path clip-path="url(#p48c4f03b5b)" d="M 187.120307 252 
L 187.120307 241.128 
" style="fill:none;stroke:#4c72b0;"/>
    <path clip-path="url(#p48c4f03b5b)" d="M 178.228886 252 
L 178.228886 241.128 
" style="fill:none;stroke:#4c72b0;"/>
    <path clip-path="url(#p48c4f03b5b)" d="M 153.821162 252 
L 153.821162 241.128 
" style="fill:none;stroke:#4c72b0;"/>
    <path clip-path="url(#p48c4f03b5b)" d="M 276.248007 252 
L 276.248007 241.128 
" style="fill:none;stroke:#4c72b0;"/>
    <path clip-path="url(#p48c4f03b5b)" d="M 220.946888 252 
L 220.946888 241.128 
" style="fill:none;stroke:#4c72b0;"/>
    <path clip-path="url(#p48c4f03b5b)" d="M 248.039766 252 
L 248.039766 241.128 
" style="fill:none;stroke:#4c72b0;"/>
    <path clip-path="url(#p48c4f03b5b)" d="M 281.814629 252 
L 281.814629 241.128 
" style="fill:none;stroke:#4c72b0;"/>
    <path clip-path="url(#p48c4f03b5b)" d="M 178.470148 252 
L 178.470148 241.128 
" style="fill:none;stroke:#4c72b0;"/>
    <path clip-path="url(#p48c4f03b5b)" d="M 205.736045 252 
L 205.736045 241.128 
" style="fill:none;stroke:#4c72b0;"/>
    <path clip-path="url(#p48c4f03b5b)" d="M 152.457019 252 
L 152.457019 241.128 
" style="fill:none;stroke:#4c72b0;"/>
    <path clip-path="url(#p48c4f03b5b)" d="M 303.998135 252 
L 303.998135 241.128 
" style="fill:none;stroke:#4c72b0;"/>
    <path clip-path="url(#p48c4f03b5b)" d="M 208.32393 252 
L 208.32393 241.128 
" style="fill:none;stroke:#4c72b0;"/>
    <path clip-path="url(#p48c4f03b5b)" d="M 212.179068 252 
L 212.179068 241.128 
" style="fill:none;stroke:#4c72b0;"/>
    <path clip-path="url(#p48c4f03b5b)" d="M 190.168151 252 
L 190.168151 241.128 
" style="fill:none;stroke:#4c72b0;"/>
    <path clip-path="url(#p48c4f03b5b)" d="M 228.177645 252 
L 228.177645 241.128 
" style="fill:none;stroke:#4c72b0;"/>
    <path clip-path="url(#p48c4f03b5b)" d="M 196.729066 252 
L 196.729066 241.128 
" style="fill:none;stroke:#4c72b0;"/>
    <path clip-path="url(#p48c4f03b5b)" d="M 222.707309 252 
L 222.707309 241.128 
" style="fill:none;stroke:#4c72b0;"/>
    <path clip-path="url(#p48c4f03b5b)" d="M 182.994987 252 
L 182.994987 241.128 
" style="fill:none;stroke:#4c72b0;"/>
    <path clip-path="url(#p48c4f03b5b)" d="M 166.732649 252 
L 166.732649 241.128 
" style="fill:none;stroke:#4c72b0;"/>
    <path clip-path="url(#p48c4f03b5b)" d="M 263.291764 252 
L 263.291764 241.128 
" style="fill:none;stroke:#4c72b0;"/>
    <path clip-path="url(#p48c4f03b5b)" d="M 172.860683 252 
L 172.860683 241.128 
" style="fill:none;stroke:#4c72b0;"/>
    <path clip-path="url(#p48c4f03b5b)" d="M 150.910455 252 
L 150.910455 241.128 
" style="fill:none;stroke:#4c72b0;"/>
    <path clip-path="url(#p48c4f03b5b)" d="M 273.16323 252 
L 273.16323 241.128 
" style="fill:none;stroke:#4c72b0;"/>
    <path clip-path="url(#p48c4f03b5b)" d="M 209.407398 252 
L 209.407398 241.128 
" style="fill:none;stroke:#4c72b0;"/>
    <path clip-path="url(#p48c4f03b5b)" d="M 176.613767 252 
L 176.613767 241.128 
" style="fill:none;stroke:#4c72b0;"/>
    <path clip-path="url(#p48c4f03b5b)" d="M 175.452773 252 
L 175.452773 241.128 
" style="fill:none;stroke:#4c72b0;"/>
    <path clip-path="url(#p48c4f03b5b)" d="M 210.053669 252 
L 210.053669 241.128 
" style="fill:none;stroke:#4c72b0;"/>
    <path clip-path="url(#p48c4f03b5b)" d="M 225.364649 252 
L 225.364649 241.128 
" style="fill:none;stroke:#4c72b0;"/>
    <path clip-path="url(#p48c4f03b5b)" d="M 235.701162 252 
L 235.701162 241.128 
" style="fill:none;stroke:#4c72b0;"/>
    <path clip-path="url(#p48c4f03b5b)" d="M 213.806527 252 
L 213.806527 241.128 
" style="fill:none;stroke:#4c72b0;"/>
    <path clip-path="url(#p48c4f03b5b)" d="M 330.082684 252 
L 330.082684 241.128 
" style="fill:none;stroke:#4c72b0;"/>
    <path clip-path="url(#p48c4f03b5b)" d="M 223.861551 252 
L 223.861551 241.128 
" style="fill:none;stroke:#4c72b0;"/>
    <path clip-path="url(#p48c4f03b5b)" d="M 185.014681 252 
L 185.014681 241.128 
" style="fill:none;stroke:#4c72b0;"/>
    <path clip-path="url(#p48c4f03b5b)" d="M 238.533437 252 
L 238.533437 241.128 
" style="fill:none;stroke:#4c72b0;"/>
    <path clip-path="url(#p48c4f03b5b)" d="M 268.566618 252 
L 268.566618 241.128 
" style="fill:none;stroke:#4c72b0;"/>
    <path clip-path="url(#p48c4f03b5b)" d="M 164.609373 252 
L 164.609373 241.128 
" style="fill:none;stroke:#4c72b0;"/>
    <path clip-path="url(#p48c4f03b5b)" d="M 174.575467 252 
L 174.575467 241.128 
" style="fill:none;stroke:#4c72b0;"/>
    <path clip-path="url(#p48c4f03b5b)" d="M 278.272256 252 
L 278.272256 241.128 
" style="fill:none;stroke:#4c72b0;"/>
    <path clip-path="url(#p48c4f03b5b)" d="M 215.166333 252 
L 215.166333 241.128 
" style="fill:none;stroke:#4c72b0;"/>
    <path clip-path="url(#p48c4f03b5b)" d="M 159.706747 252 
L 159.706747 241.128 
" style="fill:none;stroke:#4c72b0;"/>
    <path clip-path="url(#p48c4f03b5b)" d="M 238.934661 252 
L 238.934661 241.128 
" style="fill:none;stroke:#4c72b0;"/>
    <path clip-path="url(#p48c4f03b5b)" d="M 176.872089 252 
L 176.872089 241.128 
" style="fill:none;stroke:#4c72b0;"/>
    <path clip-path="url(#p48c4f03b5b)" d="M 239.925303 252 
L 239.925303 241.128 
" style="fill:none;stroke:#4c72b0;"/>
    <path clip-path="url(#p48c4f03b5b)" d="M 236.549289 252 
L 236.549289 241.128 
" style="fill:none;stroke:#4c72b0;"/>
    <path clip-path="url(#p48c4f03b5b)" d="M 170.040519 252 
L 170.040519 241.128 
" style="fill:none;stroke:#4c72b0;"/>
    <path clip-path="url(#p48c4f03b5b)" d="M 183.033912 252 
L 183.033912 241.128 
" style="fill:none;stroke:#4c72b0;"/>
    <path clip-path="url(#p48c4f03b5b)" d="M 187.837349 252 
L 187.837349 241.128 
" style="fill:none;stroke:#4c72b0;"/>
    <path clip-path="url(#p48c4f03b5b)" d="M 201.432685 252 
L 201.432685 241.128 
" style="fill:none;stroke:#4c72b0;"/>
    <path clip-path="url(#p48c4f03b5b)" d="M 191.458794 252 
L 191.458794 241.128 
" style="fill:none;stroke:#4c72b0;"/>
    <path clip-path="url(#p48c4f03b5b)" d="M 165.488432 252 
L 165.488432 241.128 
" style="fill:none;stroke:#4c72b0;"/>
    <path clip-path="url(#p48c4f03b5b)" d="M 248.734796 252 
L 248.734796 241.128 
" style="fill:none;stroke:#4c72b0;"/>
    <path clip-path="url(#p48c4f03b5b)" d="M 205.985184 252 
L 205.985184 241.128 
" style="fill:none;stroke:#4c72b0;"/>
    <path clip-path="url(#p48c4f03b5b)" d="M 198.137462 252 
L 198.137462 241.128 
" style="fill:none;stroke:#4c72b0;"/>
    <path clip-path="url(#p48c4f03b5b)" d="M 273.888577 252 
L 273.888577 241.128 
" style="fill:none;stroke:#4c72b0;"/>
    <path clip-path="url(#p48c4f03b5b)" d="M 161.032173 252 
L 161.032173 241.128 
" style="fill:none;stroke:#4c72b0;"/>
    <path clip-path="url(#p48c4f03b5b)" d="M 239.734928 252 
L 239.734928 241.128 
" style="fill:none;stroke:#4c72b0;"/>
    <path clip-path="url(#p48c4f03b5b)" d="M 265.171331 252 
L 265.171331 241.128 
" style="fill:none;stroke:#4c72b0;"/>
    <path clip-path="url(#p48c4f03b5b)" d="M 219.968353 252 
L 219.968353 241.128 
" style="fill:none;stroke:#4c72b0;"/>
    <path clip-path="url(#p48c4f03b5b)" d="M 175.399446 252 
L 175.399446 241.128 
" style="fill:none;stroke:#4c72b0;"/>
    <path clip-path="url(#p48c4f03b5b)" d="M 235.230344 252 
L 235.230344 241.128 
" style="fill:none;stroke:#4c72b0;"/>
    <path clip-path="url(#p48c4f03b5b)" d="M 172.340061 252 
L 172.340061 241.128 
" style="fill:none;stroke:#4c72b0;"/>
    <path clip-path="url(#p48c4f03b5b)" d="M 222.687855 252 
L 222.687855 241.128 
" style="fill:none;stroke:#4c72b0;"/>
    <path clip-path="url(#p48c4f03b5b)" d="M 252.818493 252 
L 252.818493 241.128 
" style="fill:none;stroke:#4c72b0;"/>
    <path clip-path="url(#p48c4f03b5b)" d="M 216.682552 252 
L 216.682552 241.128 
" style="fill:none;stroke:#4c72b0;"/>
    <path clip-path="url(#p48c4f03b5b)" d="M 143.040967 252 
L 143.040967 241.128 
" style="fill:none;stroke:#4c72b0;"/>
    <path clip-path="url(#p48c4f03b5b)" d="M 191.145254 252 
L 191.145254 241.128 
" style="fill:none;stroke:#4c72b0;"/>
    <path clip-path="url(#p48c4f03b5b)" d="M 164.158755 252 
L 164.158755 241.128 
" style="fill:none;stroke:#4c72b0;"/>
    <path clip-path="url(#p48c4f03b5b)" d="M 175.775488 252 
L 175.775488 241.128 
" style="fill:none;stroke:#4c72b0;"/>
    <path clip-path="url(#p48c4f03b5b)" d="M 143.972538 252 
L 143.972538 241.128 
" style="fill:none;stroke:#4c72b0;"/>
    <path clip-path="url(#p48c4f03b5b)" d="M 132.060195 252 
L 132.060195 241.128 
" style="fill:none;stroke:#4c72b0;"/>
    <path clip-path="url(#p48c4f03b5b)" d="M 236.464805 252 
L 236.464805 241.128 
" style="fill:none;stroke:#4c72b0;"/>
    <path clip-path="url(#p48c4f03b5b)" d="M 214.626348 252 
L 214.626348 241.128 
" style="fill:none;stroke:#4c72b0;"/>
    <path clip-path="url(#p48c4f03b5b)" d="M 285.631653 252 
L 285.631653 241.128 
" style="fill:none;stroke:#4c72b0;"/>
    <path clip-path="url(#p48c4f03b5b)" d="M 170.79129 252 
L 170.79129 241.128 
" style="fill:none;stroke:#4c72b0;"/>
    <path clip-path="url(#p48c4f03b5b)" d="M 201.696576 252 
L 201.696576 241.128 
" style="fill:none;stroke:#4c72b0;"/>
    <path clip-path="url(#p48c4f03b5b)" d="M 159.319099 252 
L 159.319099 241.128 
" style="fill:none;stroke:#4c72b0;"/>
    <path clip-path="url(#p48c4f03b5b)" d="M 226.136475 252 
L 226.136475 241.128 
" style="fill:none;stroke:#4c72b0;"/>
    <path clip-path="url(#p48c4f03b5b)" d="M 244.543111 252 
L 244.543111 241.128 
" style="fill:none;stroke:#4c72b0;"/>
    <path clip-path="url(#p48c4f03b5b)" d="M 206.457481 252 
L 206.457481 241.128 
" style="fill:none;stroke:#4c72b0;"/>
    <path clip-path="url(#p48c4f03b5b)" d="M 234.895678 252 
L 234.895678 241.128 
" style="fill:none;stroke:#4c72b0;"/>
    <path clip-path="url(#p48c4f03b5b)" d="M 205.202053 252 
L 205.202053 241.128 
" style="fill:none;stroke:#4c72b0;"/>
    <path clip-path="url(#p48c4f03b5b)" d="M 166.962323 252 
L 166.962323 241.128 
" style="fill:none;stroke:#4c72b0;"/>
    <path clip-path="url(#p48c4f03b5b)" d="M 159.980833 252 
L 159.980833 241.128 
" style="fill:none;stroke:#4c72b0;"/>
    <path clip-path="url(#p48c4f03b5b)" d="M 141.408156 252 
L 141.408156 241.128 
" style="fill:none;stroke:#4c72b0;"/>
    <path clip-path="url(#p48c4f03b5b)" d="M 180.839119 252 
L 180.839119 241.128 
" style="fill:none;stroke:#4c72b0;"/>
   </g>
   <g id="line2d_8">
    <path clip-path="url(#p48c4f03b5b)" d="M 69.218182 251.921808 
L 76.407874 251.786933 
L 81.201002 251.523095 
L 85.99413 251.010089 
L 90.787258 250.117461 
L 93.183822 249.485474 
L 95.580387 248.708738 
L 97.976951 247.774608 
L 100.373515 246.673636 
L 102.770079 245.399567 
L 105.166643 243.948655 
L 107.563207 242.318273 
L 109.959771 240.504911 
L 112.356335 238.501737 
L 114.752899 236.295993 
L 117.149463 233.866539 
L 119.546027 231.181852 
L 121.942591 228.198814 
L 124.339155 224.86253 
L 126.735719 221.107443 
L 129.132283 216.859894 
L 131.528848 212.042259 
L 133.925412 206.578605 
L 136.321976 200.401699 
L 138.71854 193.460936 
L 141.115104 185.730547 
L 143.511668 177.217243 
L 145.908232 167.966312 
L 148.304796 158.065256 
L 153.097924 136.872437 
L 160.287616 104.569259 
L 162.68418 94.570422 
L 165.080744 85.321562 
L 167.477309 77.004517 
L 169.873873 69.76121 
L 172.270437 63.686932 
L 174.667001 58.827349 
L 177.063565 55.179403 
L 179.460129 52.69597 
L 181.856693 51.293813 
L 184.253257 50.864073 
L 186.649821 51.28425 
L 189.046385 52.430434 
L 191.442949 54.188396 
L 193.839513 56.462231 
L 196.236077 59.179434 
L 198.632641 62.291753 
L 201.029205 65.771786 
L 203.42577 69.60602 
L 205.822334 73.785719 
L 208.218898 78.297584 
L 210.615462 83.116237 
L 215.40859 93.49316 
L 244.167359 158.514892 
L 248.960487 168.993657 
L 251.357051 173.956142 
L 253.753615 178.645235 
L 256.150179 183.009355 
L 258.546743 187.016654 
L 260.943307 190.657882 
L 263.339871 193.946132 
L 265.736435 196.914015 
L 268.132999 199.609076 
L 272.926127 204.412629 
L 287.305512 217.857478 
L 299.288332 229.736948 
L 301.684896 231.911598 
L 304.08146 233.931494 
L 306.478024 235.768264 
L 308.874588 237.403348 
L 311.271152 238.829717 
L 313.667717 240.052543 
L 316.064281 241.08869 
L 318.460845 241.964974 
L 323.253973 243.377009 
L 340.029921 247.726404 
L 347.219613 249.55219 
L 352.012742 250.498674 
L 356.80587 251.166256 
L 361.598998 251.580901 
L 368.78869 251.868471 
L 373.581818 251.923301 
L 373.581818 251.923301 
" style="fill:none;stroke:#4c72b0;stroke-linecap:round;stroke-width:1.5;"/>
   </g>
   <g id="patch_15">
    <path d="M 54 252 
L 54 34.56 
" style="fill:none;stroke:#cccccc;stroke-linecap:square;stroke-linejoin:miter;stroke-width:1.25;"/>
   </g>
   <g id="patch_16">
    <path d="M 388.8 252 
L 388.8 34.56 
" style="fill:none;stroke:#cccccc;stroke-linecap:square;stroke-linejoin:miter;stroke-width:1.25;"/>
   </g>
   <g id="patch_17">
    <path d="M 54 252 
L 388.8 252 
" style="fill:none;stroke:#cccccc;stroke-linecap:square;stroke-linejoin:miter;stroke-width:1.25;"/>
   </g>
   <g id="patch_18">
    <path d="M 54 34.56 
L 388.8 34.56 
" style="fill:none;stroke:#cccccc;stroke-linecap:square;stroke-linejoin:miter;stroke-width:1.25;"/>
   </g>
  </g>
 </g>
 <defs>
  <clipPath id="p48c4f03b5b">
   <rect height="217.44" width="334.8" x="54" y="34.56"/>
  </clipPath>
 </defs>
</svg>
