<?xml version="1.0" encoding="utf-8" standalone="no"?>
<!DOCTYPE svg PUBLIC "-//W3C//DTD SVG 1.1//EN"
  "http://www.w3.org/Graphics/SVG/1.1/DTD/svg11.dtd">
<!-- Created with matplotlib (https://matplotlib.org/) -->
<svg height="432pt" version="1.1" viewBox="0 0 1152 432" width="1152pt" xmlns="http://www.w3.org/2000/svg" xmlns:xlink="http://www.w3.org/1999/xlink">
 <defs>
  <style type="text/css">
*{stroke-linecap:butt;stroke-linejoin:round;}
  </style>
 </defs>
 <g id="figure_1">
  <g id="patch_1">
   <path d="M 0 432 
L 1152 432 
L 1152 0 
L 0 0 
z
" style="fill:#ffffff;"/>
  </g>
  <g id="axes_1">
   <g id="patch_2">
    <path d="M 144 378 
L 1036.8 378 
L 1036.8 51.84 
L 144 51.84 
z
" style="fill:#ffffff;"/>
   </g>
   <g id="matplotlib.axis_1">
    <g id="xtick_1">
     <g id="line2d_1">
      <path clip-path="url(#p65bd56c239)" d="M 187.553249 378 
L 187.553249 51.84 
" style="fill:none;stroke:#cccccc;stroke-linecap:round;"/>
     </g>
     <g id="text_1">
      <!-- 0.0 -->
      <defs>
       <path d="M 4.15625 35.296875 
Q 4.15625 48 6.765625 55.734375 
Q 9.375 63.484375 14.515625 67.671875 
Q 19.671875 71.875 27.484375 71.875 
Q 33.25 71.875 37.59375 69.546875 
Q 41.9375 67.234375 44.765625 62.859375 
Q 47.609375 58.5 49.21875 52.21875 
Q 50.828125 45.953125 50.828125 35.296875 
Q 50.828125 22.703125 48.234375 14.96875 
Q 45.65625 7.234375 40.5 3 
Q 35.359375 -1.21875 27.484375 -1.21875 
Q 17.140625 -1.21875 11.234375 6.203125 
Q 4.15625 15.140625 4.15625 35.296875 
z
M 13.1875 35.296875 
Q 13.1875 17.671875 17.3125 11.828125 
Q 21.4375 6 27.484375 6 
Q 33.546875 6 37.671875 11.859375 
Q 41.796875 17.71875 41.796875 35.296875 
Q 41.796875 52.984375 37.671875 58.78125 
Q 33.546875 64.59375 27.390625 64.59375 
Q 21.34375 64.59375 17.71875 59.46875 
Q 13.1875 52.9375 13.1875 35.296875 
z
" id="ArialMT-48"/>
       <path d="M 9.078125 0 
L 9.078125 10.015625 
L 19.09375 10.015625 
L 19.09375 0 
z
" id="ArialMT-46"/>
      </defs>
      <g style="fill:#262626;" transform="translate(172.263249 403.247187)scale(0.22 -0.22)">
       <use xlink:href="#ArialMT-48"/>
       <use x="55.615234" xlink:href="#ArialMT-46"/>
       <use x="83.398438" xlink:href="#ArialMT-48"/>
      </g>
     </g>
    </g>
    <g id="xtick_2">
     <g id="line2d_2">
      <path clip-path="url(#p65bd56c239)" d="M 364.412798 378 
L 364.412798 51.84 
" style="fill:none;stroke:#cccccc;stroke-linecap:round;"/>
     </g>
     <g id="text_2">
      <!-- 0.2 -->
      <defs>
       <path d="M 50.34375 8.453125 
L 50.34375 0 
L 3.03125 0 
Q 2.9375 3.171875 4.046875 6.109375 
Q 5.859375 10.9375 9.828125 15.625 
Q 13.8125 20.3125 21.34375 26.46875 
Q 33.015625 36.03125 37.109375 41.625 
Q 41.21875 47.21875 41.21875 52.203125 
Q 41.21875 57.421875 37.46875 61 
Q 33.734375 64.59375 27.734375 64.59375 
Q 21.390625 64.59375 17.578125 60.78125 
Q 13.765625 56.984375 13.71875 50.25 
L 4.6875 51.171875 
Q 5.609375 61.28125 11.65625 66.578125 
Q 17.71875 71.875 27.9375 71.875 
Q 38.234375 71.875 44.234375 66.15625 
Q 50.25 60.453125 50.25 52 
Q 50.25 47.703125 48.484375 43.546875 
Q 46.734375 39.40625 42.65625 34.8125 
Q 38.578125 30.21875 29.109375 22.21875 
Q 21.1875 15.578125 18.9375 13.203125 
Q 16.703125 10.84375 15.234375 8.453125 
z
" id="ArialMT-50"/>
      </defs>
      <g style="fill:#262626;" transform="translate(349.122798 403.247187)scale(0.22 -0.22)">
       <use xlink:href="#ArialMT-48"/>
       <use x="55.615234" xlink:href="#ArialMT-46"/>
       <use x="83.398438" xlink:href="#ArialMT-50"/>
      </g>
     </g>
    </g>
    <g id="xtick_3">
     <g id="line2d_3">
      <path clip-path="url(#p65bd56c239)" d="M 541.272347 378 
L 541.272347 51.84 
" style="fill:none;stroke:#cccccc;stroke-linecap:round;"/>
     </g>
     <g id="text_3">
      <!-- 0.4 -->
      <defs>
       <path d="M 32.328125 0 
L 32.328125 17.140625 
L 1.265625 17.140625 
L 1.265625 25.203125 
L 33.9375 71.578125 
L 41.109375 71.578125 
L 41.109375 25.203125 
L 50.78125 25.203125 
L 50.78125 17.140625 
L 41.109375 17.140625 
L 41.109375 0 
z
M 32.328125 25.203125 
L 32.328125 57.46875 
L 9.90625 25.203125 
z
" id="ArialMT-52"/>
      </defs>
      <g style="fill:#262626;" transform="translate(525.982347 403.247187)scale(0.22 -0.22)">
       <use xlink:href="#ArialMT-48"/>
       <use x="55.615234" xlink:href="#ArialMT-46"/>
       <use x="83.398438" xlink:href="#ArialMT-52"/>
      </g>
     </g>
    </g>
    <g id="xtick_4">
     <g id="line2d_4">
      <path clip-path="url(#p65bd56c239)" d="M 718.131897 378 
L 718.131897 51.84 
" style="fill:none;stroke:#cccccc;stroke-linecap:round;"/>
     </g>
     <g id="text_4">
      <!-- 0.6 -->
      <defs>
       <path d="M 49.75 54.046875 
L 41.015625 53.375 
Q 39.84375 58.546875 37.703125 60.890625 
Q 34.125 64.65625 28.90625 64.65625 
Q 24.703125 64.65625 21.53125 62.3125 
Q 17.390625 59.28125 14.984375 53.46875 
Q 12.59375 47.65625 12.5 36.921875 
Q 15.671875 41.75 20.265625 44.09375 
Q 24.859375 46.4375 29.890625 46.4375 
Q 38.671875 46.4375 44.84375 39.96875 
Q 51.03125 33.5 51.03125 23.25 
Q 51.03125 16.5 48.125 10.71875 
Q 45.21875 4.9375 40.140625 1.859375 
Q 35.0625 -1.21875 28.609375 -1.21875 
Q 17.625 -1.21875 10.6875 6.859375 
Q 3.765625 14.9375 3.765625 33.5 
Q 3.765625 54.25 11.421875 63.671875 
Q 18.109375 71.875 29.4375 71.875 
Q 37.890625 71.875 43.28125 67.140625 
Q 48.6875 62.40625 49.75 54.046875 
z
M 13.875 23.1875 
Q 13.875 18.65625 15.796875 14.5 
Q 17.71875 10.359375 21.1875 8.171875 
Q 24.65625 6 28.46875 6 
Q 34.03125 6 38.03125 10.484375 
Q 42.046875 14.984375 42.046875 22.703125 
Q 42.046875 30.125 38.078125 34.390625 
Q 34.125 38.671875 28.125 38.671875 
Q 22.171875 38.671875 18.015625 34.390625 
Q 13.875 30.125 13.875 23.1875 
z
" id="ArialMT-54"/>
      </defs>
      <g style="fill:#262626;" transform="translate(702.841897 403.247187)scale(0.22 -0.22)">
       <use xlink:href="#ArialMT-48"/>
       <use x="55.615234" xlink:href="#ArialMT-46"/>
       <use x="83.398438" xlink:href="#ArialMT-54"/>
      </g>
     </g>
    </g>
    <g id="xtick_5">
     <g id="line2d_5">
      <path clip-path="url(#p65bd56c239)" d="M 894.991446 378 
L 894.991446 51.84 
" style="fill:none;stroke:#cccccc;stroke-linecap:round;"/>
     </g>
     <g id="text_5">
      <!-- 0.8 -->
      <defs>
       <path d="M 17.671875 38.8125 
Q 12.203125 40.828125 9.5625 44.53125 
Q 6.9375 48.25 6.9375 53.421875 
Q 6.9375 61.234375 12.546875 66.546875 
Q 18.171875 71.875 27.484375 71.875 
Q 36.859375 71.875 42.578125 66.421875 
Q 48.296875 60.984375 48.296875 53.171875 
Q 48.296875 48.1875 45.671875 44.5 
Q 43.0625 40.828125 37.75 38.8125 
Q 44.34375 36.671875 47.78125 31.875 
Q 51.21875 27.09375 51.21875 20.453125 
Q 51.21875 11.28125 44.71875 5.03125 
Q 38.234375 -1.21875 27.640625 -1.21875 
Q 17.046875 -1.21875 10.546875 5.046875 
Q 4.046875 11.328125 4.046875 20.703125 
Q 4.046875 27.6875 7.59375 32.390625 
Q 11.140625 37.109375 17.671875 38.8125 
z
M 15.921875 53.71875 
Q 15.921875 48.640625 19.1875 45.40625 
Q 22.46875 42.1875 27.6875 42.1875 
Q 32.765625 42.1875 36.015625 45.375 
Q 39.265625 48.578125 39.265625 53.21875 
Q 39.265625 58.0625 35.90625 61.359375 
Q 32.5625 64.65625 27.59375 64.65625 
Q 22.5625 64.65625 19.234375 61.421875 
Q 15.921875 58.203125 15.921875 53.71875 
z
M 13.09375 20.65625 
Q 13.09375 16.890625 14.875 13.375 
Q 16.65625 9.859375 20.171875 7.921875 
Q 23.6875 6 27.734375 6 
Q 34.03125 6 38.125 10.046875 
Q 42.234375 14.109375 42.234375 20.359375 
Q 42.234375 26.703125 38.015625 30.859375 
Q 33.796875 35.015625 27.4375 35.015625 
Q 21.234375 35.015625 17.15625 30.90625 
Q 13.09375 26.8125 13.09375 20.65625 
z
" id="ArialMT-56"/>
      </defs>
      <g style="fill:#262626;" transform="translate(879.701446 403.247187)scale(0.22 -0.22)">
       <use xlink:href="#ArialMT-48"/>
       <use x="55.615234" xlink:href="#ArialMT-46"/>
       <use x="83.398438" xlink:href="#ArialMT-56"/>
      </g>
     </g>
    </g>
    <g id="text_6">
     <!-- Observed values -->
     <defs>
      <path d="M 4.828125 34.859375 
Q 4.828125 52.6875 14.390625 62.765625 
Q 23.96875 72.859375 39.109375 72.859375 
Q 49.03125 72.859375 56.984375 68.109375 
Q 64.9375 63.375 69.109375 54.90625 
Q 73.296875 46.4375 73.296875 35.6875 
Q 73.296875 24.8125 68.890625 16.21875 
Q 64.5 7.625 56.4375 3.203125 
Q 48.390625 -1.21875 39.0625 -1.21875 
Q 28.953125 -1.21875 20.984375 3.65625 
Q 13.03125 8.546875 8.921875 16.984375 
Q 4.828125 25.4375 4.828125 34.859375 
z
M 14.59375 34.71875 
Q 14.59375 21.78125 21.546875 14.328125 
Q 28.515625 6.890625 39.015625 6.890625 
Q 49.703125 6.890625 56.609375 14.40625 
Q 63.53125 21.921875 63.53125 35.75 
Q 63.53125 44.484375 60.578125 51 
Q 57.625 57.515625 51.921875 61.109375 
Q 46.234375 64.703125 39.15625 64.703125 
Q 29.109375 64.703125 21.84375 57.78125 
Q 14.59375 50.875 14.59375 34.71875 
z
" id="ArialMT-79"/>
      <path d="M 14.703125 0 
L 6.546875 0 
L 6.546875 71.578125 
L 15.328125 71.578125 
L 15.328125 46.046875 
Q 20.90625 53.03125 29.546875 53.03125 
Q 34.328125 53.03125 38.59375 51.09375 
Q 42.875 49.171875 45.625 45.671875 
Q 48.390625 42.1875 49.953125 37.25 
Q 51.515625 32.328125 51.515625 26.703125 
Q 51.515625 13.375 44.921875 6.09375 
Q 38.328125 -1.171875 29.109375 -1.171875 
Q 19.921875 -1.171875 14.703125 6.5 
z
M 14.59375 26.3125 
Q 14.59375 17 17.140625 12.84375 
Q 21.296875 6.0625 28.375 6.0625 
Q 34.125 6.0625 38.328125 11.0625 
Q 42.53125 16.0625 42.53125 25.984375 
Q 42.53125 36.140625 38.5 40.96875 
Q 34.46875 45.796875 28.765625 45.796875 
Q 23 45.796875 18.796875 40.796875 
Q 14.59375 35.796875 14.59375 26.3125 
z
" id="ArialMT-98"/>
      <path d="M 3.078125 15.484375 
L 11.765625 16.84375 
Q 12.5 11.625 15.84375 8.84375 
Q 19.1875 6.0625 25.203125 6.0625 
Q 31.25 6.0625 34.171875 8.515625 
Q 37.109375 10.984375 37.109375 14.3125 
Q 37.109375 17.28125 34.515625 19 
Q 32.71875 20.171875 25.53125 21.96875 
Q 15.875 24.421875 12.140625 26.203125 
Q 8.40625 27.984375 6.46875 31.125 
Q 4.546875 34.28125 4.546875 38.09375 
Q 4.546875 41.546875 6.125 44.5 
Q 7.71875 47.46875 10.453125 49.421875 
Q 12.5 50.921875 16.03125 51.96875 
Q 19.578125 53.03125 23.640625 53.03125 
Q 29.734375 53.03125 34.34375 51.265625 
Q 38.96875 49.515625 41.15625 46.5 
Q 43.359375 43.5 44.1875 38.484375 
L 35.59375 37.3125 
Q 35.015625 41.3125 32.203125 43.546875 
Q 29.390625 45.796875 24.265625 45.796875 
Q 18.21875 45.796875 15.625 43.796875 
Q 13.03125 41.796875 13.03125 39.109375 
Q 13.03125 37.40625 14.109375 36.03125 
Q 15.1875 34.625 17.484375 33.6875 
Q 18.796875 33.203125 25.25 31.453125 
Q 34.578125 28.953125 38.25 27.359375 
Q 41.9375 25.78125 44.03125 22.75 
Q 46.140625 19.734375 46.140625 15.234375 
Q 46.140625 10.84375 43.578125 6.953125 
Q 41.015625 3.078125 36.171875 0.953125 
Q 31.34375 -1.171875 25.25 -1.171875 
Q 15.140625 -1.171875 9.84375 3.03125 
Q 4.546875 7.234375 3.078125 15.484375 
z
" id="ArialMT-115"/>
      <path d="M 42.09375 16.703125 
L 51.171875 15.578125 
Q 49.03125 7.625 43.21875 3.21875 
Q 37.40625 -1.171875 28.375 -1.171875 
Q 17 -1.171875 10.328125 5.828125 
Q 3.65625 12.84375 3.65625 25.484375 
Q 3.65625 38.578125 10.390625 45.796875 
Q 17.140625 53.03125 27.875 53.03125 
Q 38.28125 53.03125 44.875 45.953125 
Q 51.46875 38.875 51.46875 26.03125 
Q 51.46875 25.25 51.421875 23.6875 
L 12.75 23.6875 
Q 13.234375 15.140625 17.578125 10.59375 
Q 21.921875 6.0625 28.421875 6.0625 
Q 33.25 6.0625 36.671875 8.59375 
Q 40.09375 11.140625 42.09375 16.703125 
z
M 13.234375 30.90625 
L 42.1875 30.90625 
Q 41.609375 37.453125 38.875 40.71875 
Q 34.671875 45.796875 27.984375 45.796875 
Q 21.921875 45.796875 17.796875 41.75 
Q 13.671875 37.703125 13.234375 30.90625 
z
" id="ArialMT-101"/>
      <path d="M 6.5 0 
L 6.5 51.859375 
L 14.40625 51.859375 
L 14.40625 44 
Q 17.4375 49.515625 20 51.265625 
Q 22.5625 53.03125 25.640625 53.03125 
Q 30.078125 53.03125 34.671875 50.203125 
L 31.640625 42.046875 
Q 28.421875 43.953125 25.203125 43.953125 
Q 22.3125 43.953125 20.015625 42.21875 
Q 17.71875 40.484375 16.75 37.40625 
Q 15.28125 32.71875 15.28125 27.15625 
L 15.28125 0 
z
" id="ArialMT-114"/>
      <path d="M 21 0 
L 1.265625 51.859375 
L 10.546875 51.859375 
L 21.6875 20.796875 
Q 23.484375 15.765625 25 10.359375 
Q 26.171875 14.453125 28.265625 20.21875 
L 39.796875 51.859375 
L 48.828125 51.859375 
L 29.203125 0 
z
" id="ArialMT-118"/>
      <path d="M 40.234375 0 
L 40.234375 6.546875 
Q 35.296875 -1.171875 25.734375 -1.171875 
Q 19.53125 -1.171875 14.328125 2.25 
Q 9.125 5.671875 6.265625 11.796875 
Q 3.421875 17.921875 3.421875 25.875 
Q 3.421875 33.640625 6 39.96875 
Q 8.59375 46.296875 13.765625 49.65625 
Q 18.953125 53.03125 25.34375 53.03125 
Q 30.03125 53.03125 33.6875 51.046875 
Q 37.359375 49.078125 39.65625 45.90625 
L 39.65625 71.578125 
L 48.390625 71.578125 
L 48.390625 0 
z
M 12.453125 25.875 
Q 12.453125 15.921875 16.640625 10.984375 
Q 20.84375 6.0625 26.5625 6.0625 
Q 32.328125 6.0625 36.34375 10.765625 
Q 40.375 15.484375 40.375 25.140625 
Q 40.375 35.796875 36.265625 40.765625 
Q 32.171875 45.75 26.171875 45.75 
Q 20.3125 45.75 16.375 40.96875 
Q 12.453125 36.1875 12.453125 25.875 
z
" id="ArialMT-100"/>
      <path id="ArialMT-32"/>
      <path d="M 40.4375 6.390625 
Q 35.546875 2.25 31.03125 0.53125 
Q 26.515625 -1.171875 21.34375 -1.171875 
Q 12.796875 -1.171875 8.203125 3 
Q 3.609375 7.171875 3.609375 13.671875 
Q 3.609375 17.484375 5.34375 20.625 
Q 7.078125 23.78125 9.890625 25.6875 
Q 12.703125 27.59375 16.21875 28.5625 
Q 18.796875 29.25 24.03125 29.890625 
Q 34.671875 31.15625 39.703125 32.90625 
Q 39.75 34.71875 39.75 35.203125 
Q 39.75 40.578125 37.25 42.78125 
Q 33.890625 45.75 27.25 45.75 
Q 21.046875 45.75 18.09375 43.578125 
Q 15.140625 41.40625 13.71875 35.890625 
L 5.125 37.0625 
Q 6.296875 42.578125 8.984375 45.96875 
Q 11.671875 49.359375 16.75 51.1875 
Q 21.828125 53.03125 28.515625 53.03125 
Q 35.15625 53.03125 39.296875 51.46875 
Q 43.453125 49.90625 45.40625 47.53125 
Q 47.359375 45.171875 48.140625 41.546875 
Q 48.578125 39.3125 48.578125 33.453125 
L 48.578125 21.734375 
Q 48.578125 9.46875 49.140625 6.21875 
Q 49.703125 2.984375 51.375 0 
L 42.1875 0 
Q 40.828125 2.734375 40.4375 6.390625 
z
M 39.703125 26.03125 
Q 34.90625 24.078125 25.34375 22.703125 
Q 19.921875 21.921875 17.671875 20.9375 
Q 15.4375 19.96875 14.203125 18.09375 
Q 12.984375 16.21875 12.984375 13.921875 
Q 12.984375 10.40625 15.640625 8.0625 
Q 18.3125 5.71875 23.4375 5.71875 
Q 28.515625 5.71875 32.46875 7.9375 
Q 36.421875 10.15625 38.28125 14.015625 
Q 39.703125 17 39.703125 22.796875 
z
" id="ArialMT-97"/>
      <path d="M 6.390625 0 
L 6.390625 71.578125 
L 15.1875 71.578125 
L 15.1875 0 
z
" id="ArialMT-108"/>
      <path d="M 40.578125 0 
L 40.578125 7.625 
Q 34.515625 -1.171875 24.125 -1.171875 
Q 19.53125 -1.171875 15.546875 0.578125 
Q 11.578125 2.34375 9.640625 5 
Q 7.71875 7.671875 6.9375 11.53125 
Q 6.390625 14.109375 6.390625 19.734375 
L 6.390625 51.859375 
L 15.1875 51.859375 
L 15.1875 23.09375 
Q 15.1875 16.21875 15.71875 13.8125 
Q 16.546875 10.359375 19.234375 8.375 
Q 21.921875 6.390625 25.875 6.390625 
Q 29.828125 6.390625 33.296875 8.421875 
Q 36.765625 10.453125 38.203125 13.9375 
Q 39.65625 17.4375 39.65625 24.078125 
L 39.65625 51.859375 
L 48.4375 51.859375 
L 48.4375 0 
z
" id="ArialMT-117"/>
     </defs>
     <g style="fill:#262626;" transform="translate(500.35875 428.798437)scale(0.24 -0.24)">
      <use xlink:href="#ArialMT-79"/>
      <use x="77.783203" xlink:href="#ArialMT-98"/>
      <use x="133.398438" xlink:href="#ArialMT-115"/>
      <use x="183.398438" xlink:href="#ArialMT-101"/>
      <use x="239.013672" xlink:href="#ArialMT-114"/>
      <use x="272.314453" xlink:href="#ArialMT-118"/>
      <use x="322.314453" xlink:href="#ArialMT-101"/>
      <use x="377.929688" xlink:href="#ArialMT-100"/>
      <use x="433.544922" xlink:href="#ArialMT-32"/>
      <use x="461.328125" xlink:href="#ArialMT-118"/>
      <use x="511.328125" xlink:href="#ArialMT-97"/>
      <use x="566.943359" xlink:href="#ArialMT-108"/>
      <use x="589.160156" xlink:href="#ArialMT-117"/>
      <use x="644.775391" xlink:href="#ArialMT-101"/>
      <use x="700.390625" xlink:href="#ArialMT-115"/>
     </g>
    </g>
   </g>
   <g id="matplotlib.axis_2">
    <g id="ytick_1">
     <g id="line2d_6">
      <path clip-path="url(#p65bd56c239)" d="M 144 361.15647 
L 1036.8 361.15647 
" style="fill:none;stroke:#cccccc;stroke-linecap:round;"/>
     </g>
     <g id="text_7">
      <!-- 0.0 -->
      <g style="fill:#262626;" transform="translate(103.92 369.030063)scale(0.22 -0.22)">
       <use xlink:href="#ArialMT-48"/>
       <use x="55.615234" xlink:href="#ArialMT-46"/>
       <use x="83.398438" xlink:href="#ArialMT-48"/>
      </g>
     </g>
    </g>
    <g id="ytick_2">
     <g id="line2d_7">
      <path clip-path="url(#p65bd56c239)" d="M 144 311.034746 
L 1036.8 311.034746 
" style="fill:none;stroke:#cccccc;stroke-linecap:round;"/>
     </g>
     <g id="text_8">
      <!-- 0.2 -->
      <g style="fill:#262626;" transform="translate(103.92 318.90834)scale(0.22 -0.22)">
       <use xlink:href="#ArialMT-48"/>
       <use x="55.615234" xlink:href="#ArialMT-46"/>
       <use x="83.398438" xlink:href="#ArialMT-50"/>
      </g>
     </g>
    </g>
    <g id="ytick_3">
     <g id="line2d_8">
      <path clip-path="url(#p65bd56c239)" d="M 144 260.913022 
L 1036.8 260.913022 
" style="fill:none;stroke:#cccccc;stroke-linecap:round;"/>
     </g>
     <g id="text_9">
      <!-- 0.4 -->
      <g style="fill:#262626;" transform="translate(103.92 268.786616)scale(0.22 -0.22)">
       <use xlink:href="#ArialMT-48"/>
       <use x="55.615234" xlink:href="#ArialMT-46"/>
       <use x="83.398438" xlink:href="#ArialMT-52"/>
      </g>
     </g>
    </g>
    <g id="ytick_4">
     <g id="line2d_9">
      <path clip-path="url(#p65bd56c239)" d="M 144 210.791299 
L 1036.8 210.791299 
" style="fill:none;stroke:#cccccc;stroke-linecap:round;"/>
     </g>
     <g id="text_10">
      <!-- 0.6 -->
      <g style="fill:#262626;" transform="translate(103.92 218.664892)scale(0.22 -0.22)">
       <use xlink:href="#ArialMT-48"/>
       <use x="55.615234" xlink:href="#ArialMT-46"/>
       <use x="83.398438" xlink:href="#ArialMT-54"/>
      </g>
     </g>
    </g>
    <g id="ytick_5">
     <g id="line2d_10">
      <path clip-path="url(#p65bd56c239)" d="M 144 160.669575 
L 1036.8 160.669575 
" style="fill:none;stroke:#cccccc;stroke-linecap:round;"/>
     </g>
     <g id="text_11">
      <!-- 0.8 -->
      <g style="fill:#262626;" transform="translate(103.92 168.543169)scale(0.22 -0.22)">
       <use xlink:href="#ArialMT-48"/>
       <use x="55.615234" xlink:href="#ArialMT-46"/>
       <use x="83.398438" xlink:href="#ArialMT-56"/>
      </g>
     </g>
    </g>
    <g id="ytick_6">
     <g id="line2d_11">
      <path clip-path="url(#p65bd56c239)" d="M 144 110.547851 
L 1036.8 110.547851 
" style="fill:none;stroke:#cccccc;stroke-linecap:round;"/>
     </g>
     <g id="text_12">
      <!-- 1.0 -->
      <defs>
       <path d="M 37.25 0 
L 28.46875 0 
L 28.46875 56 
Q 25.296875 52.984375 20.140625 49.953125 
Q 14.984375 46.921875 10.890625 45.40625 
L 10.890625 53.90625 
Q 18.265625 57.375 23.78125 62.296875 
Q 29.296875 67.234375 31.59375 71.875 
L 37.25 71.875 
z
" id="ArialMT-49"/>
      </defs>
      <g style="fill:#262626;" transform="translate(103.92 118.421445)scale(0.22 -0.22)">
       <use xlink:href="#ArialMT-49"/>
       <use x="55.615234" xlink:href="#ArialMT-46"/>
       <use x="83.398438" xlink:href="#ArialMT-48"/>
      </g>
     </g>
    </g>
    <g id="ytick_7">
     <g id="line2d_12">
      <path clip-path="url(#p65bd56c239)" d="M 144 60.426128 
L 1036.8 60.426128 
" style="fill:none;stroke:#cccccc;stroke-linecap:round;"/>
     </g>
     <g id="text_13">
      <!-- 1.2 -->
      <g style="fill:#262626;" transform="translate(103.92 68.299721)scale(0.22 -0.22)">
       <use xlink:href="#ArialMT-49"/>
       <use x="55.615234" xlink:href="#ArialMT-46"/>
       <use x="83.398438" xlink:href="#ArialMT-50"/>
      </g>
     </g>
    </g>
    <g id="text_14">
     <!-- Fitted values -->
     <defs>
      <path d="M 8.203125 0 
L 8.203125 71.578125 
L 56.5 71.578125 
L 56.5 63.140625 
L 17.671875 63.140625 
L 17.671875 40.96875 
L 51.265625 40.96875 
L 51.265625 32.515625 
L 17.671875 32.515625 
L 17.671875 0 
z
" id="ArialMT-70"/>
      <path d="M 6.640625 61.46875 
L 6.640625 71.578125 
L 15.4375 71.578125 
L 15.4375 61.46875 
z
M 6.640625 0 
L 6.640625 51.859375 
L 15.4375 51.859375 
L 15.4375 0 
z
" id="ArialMT-105"/>
      <path d="M 25.78125 7.859375 
L 27.046875 0.09375 
Q 23.34375 -0.6875 20.40625 -0.6875 
Q 15.625 -0.6875 12.984375 0.828125 
Q 10.359375 2.34375 9.28125 4.8125 
Q 8.203125 7.28125 8.203125 15.1875 
L 8.203125 45.015625 
L 1.765625 45.015625 
L 1.765625 51.859375 
L 8.203125 51.859375 
L 8.203125 64.703125 
L 16.9375 69.96875 
L 16.9375 51.859375 
L 25.78125 51.859375 
L 25.78125 45.015625 
L 16.9375 45.015625 
L 16.9375 14.703125 
Q 16.9375 10.9375 17.40625 9.859375 
Q 17.875 8.796875 18.921875 8.15625 
Q 19.96875 7.515625 21.921875 7.515625 
Q 23.390625 7.515625 25.78125 7.859375 
z
" id="ArialMT-116"/>
     </defs>
     <g style="fill:#262626;" transform="translate(95.15 282.94875)rotate(-90)scale(0.24 -0.24)">
      <use xlink:href="#ArialMT-70"/>
      <use x="61.083984" xlink:href="#ArialMT-105"/>
      <use x="83.300781" xlink:href="#ArialMT-116"/>
      <use x="111.083984" xlink:href="#ArialMT-116"/>
      <use x="138.867188" xlink:href="#ArialMT-101"/>
      <use x="194.482422" xlink:href="#ArialMT-100"/>
      <use x="250.097656" xlink:href="#ArialMT-32"/>
      <use x="277.880859" xlink:href="#ArialMT-118"/>
      <use x="327.880859" xlink:href="#ArialMT-97"/>
      <use x="383.496094" xlink:href="#ArialMT-108"/>
      <use x="405.712891" xlink:href="#ArialMT-117"/>
      <use x="461.328125" xlink:href="#ArialMT-101"/>
      <use x="516.943359" xlink:href="#ArialMT-115"/>
     </g>
    </g>
   </g>
   <g id="PathCollection_1">
    <defs>
     <path d="M -3 0 
L 3 0 
M 0 3 
L 0 -3 
" id="m042b452977" style="stroke:#4c72b0;stroke-width:1.5;"/>
    </defs>
    <g clip-path="url(#p65bd56c239)">
     <use style="fill:#4c72b0;stroke:#4c72b0;stroke-width:1.5;" x="398.662728" xlink:href="#m042b452977" y="293.87571"/>
     <use style="fill:#4c72b0;stroke:#4c72b0;stroke-width:1.5;" x="471.79181" xlink:href="#m042b452977" y="299.799237"/>
     <use style="fill:#4c72b0;stroke:#4c72b0;stroke-width:1.5;" x="476.959784" xlink:href="#m042b452977" y="277.998314"/>
     <use style="fill:#4c72b0;stroke:#4c72b0;stroke-width:1.5;" x="268.613876" xlink:href="#m042b452977" y="304.813352"/>
     <use style="fill:#4c72b0;stroke:#4c72b0;stroke-width:1.5;" x="187.553249" xlink:href="#m042b452977" y="334.825077"/>
     <use style="fill:#4c72b0;stroke:#4c72b0;stroke-width:1.5;" x="345.720325" xlink:href="#m042b452977" y="314.842422"/>
     <use style="fill:#4c72b0;stroke:#4c72b0;stroke-width:1.5;" x="790.840823" xlink:href="#m042b452977" y="226.104482"/>
     <use style="fill:#4c72b0;stroke:#4c72b0;stroke-width:1.5;" x="482.319164" xlink:href="#m042b452977" y="316.468872"/>
     <use style="fill:#4c72b0;stroke:#4c72b0;stroke-width:1.5;" x="639.816639" xlink:href="#m042b452977" y="262.055904"/>
     <use style="fill:#4c72b0;stroke:#4c72b0;stroke-width:1.5;" x="515.48033" xlink:href="#m042b452977" y="275.476917"/>
     <use style="fill:#4c72b0;stroke:#4c72b0;stroke-width:1.5;" x="418.453216" xlink:href="#m042b452977" y="284.36677"/>
     <use style="fill:#4c72b0;stroke:#4c72b0;stroke-width:1.5;" x="746.057089" xlink:href="#m042b452977" y="193.096037"/>
     <use style="fill:#4c72b0;stroke:#4c72b0;stroke-width:1.5;" x="446.793631" xlink:href="#m042b452977" y="322.901528"/>
     <use style="fill:#4c72b0;stroke:#4c72b0;stroke-width:1.5;" x="246.506432" xlink:href="#m042b452977" y="341.473129"/>
     <use style="fill:#4c72b0;stroke:#4c72b0;stroke-width:1.5;" x="248.316398" xlink:href="#m042b452977" y="327.472834"/>
     <use style="fill:#4c72b0;stroke:#4c72b0;stroke-width:1.5;" x="332.128912" xlink:href="#m042b452977" y="330.110523"/>
     <use style="fill:#4c72b0;stroke:#4c72b0;stroke-width:1.5;" x="200.449258" xlink:href="#m042b452977" y="331.903817"/>
     <use style="fill:#4c72b0;stroke:#4c72b0;stroke-width:1.5;" x="434.419703" xlink:href="#m042b452977" y="296.312808"/>
     <use style="fill:#4c72b0;stroke:#4c72b0;stroke-width:1.5;" x="900.157447" xlink:href="#m042b452977" y="267.446956"/>
     <use style="fill:#4c72b0;stroke:#4c72b0;stroke-width:1.5;" x="187.553249" xlink:href="#m042b452977" y="360.072736"/>
     <use style="fill:#4c72b0;stroke:#4c72b0;stroke-width:1.5;" x="365.858516" xlink:href="#m042b452977" y="281.266468"/>
     <use style="fill:#4c72b0;stroke:#4c72b0;stroke-width:1.5;" x="754.158842" xlink:href="#m042b452977" y="265.793418"/>
     <use style="fill:#4c72b0;stroke:#4c72b0;stroke-width:1.5;" x="428.610023" xlink:href="#m042b452977" y="272.063402"/>
     <use style="fill:#4c72b0;stroke:#4c72b0;stroke-width:1.5;" x="207.20431" xlink:href="#m042b452977" y="336.809792"/>
     <use style="fill:#4c72b0;stroke:#4c72b0;stroke-width:1.5;" x="251.419197" xlink:href="#m042b452977" y="317.48824"/>
     <use style="fill:#4c72b0;stroke:#4c72b0;stroke-width:1.5;" x="204.618644" xlink:href="#m042b452977" y="312.286582"/>
     <use style="fill:#4c72b0;stroke:#4c72b0;stroke-width:1.5;" x="471.55146" xlink:href="#m042b452977" y="263.791739"/>
     <use style="fill:#4c72b0;stroke:#4c72b0;stroke-width:1.5;" x="752.245255" xlink:href="#m042b452977" y="234.672031"/>
     <use style="fill:#4c72b0;stroke:#4c72b0;stroke-width:1.5;" x="190.009631" xlink:href="#m042b452977" y="323.930354"/>
     <use style="fill:#4c72b0;stroke:#4c72b0;stroke-width:1.5;" x="196.291369" xlink:href="#m042b452977" y="317.598299"/>
     <use style="fill:#4c72b0;stroke:#4c72b0;stroke-width:1.5;" x="646.767517" xlink:href="#m042b452977" y="249.243649"/>
     <use style="fill:#4c72b0;stroke:#4c72b0;stroke-width:1.5;" x="372.102344" xlink:href="#m042b452977" y="310.722551"/>
     <use style="fill:#4c72b0;stroke:#4c72b0;stroke-width:1.5;" x="900.080929" xlink:href="#m042b452977" y="210.922601"/>
     <use style="fill:#4c72b0;stroke:#4c72b0;stroke-width:1.5;" x="270.141421" xlink:href="#m042b452977" y="311.726906"/>
     <use style="fill:#4c72b0;stroke:#4c72b0;stroke-width:1.5;" x="723.25826" xlink:href="#m042b452977" y="255.43864"/>
     <use style="fill:#4c72b0;stroke:#4c72b0;stroke-width:1.5;" x="234.095235" xlink:href="#m042b452977" y="312.813083"/>
     <use style="fill:#4c72b0;stroke:#4c72b0;stroke-width:1.5;" x="338.62078" xlink:href="#m042b452977" y="310.393461"/>
     <use style="fill:#4c72b0;stroke:#4c72b0;stroke-width:1.5;" x="202.291545" xlink:href="#m042b452977" y="325.355141"/>
     <use style="fill:#4c72b0;stroke:#4c72b0;stroke-width:1.5;" x="648.158427" xlink:href="#m042b452977" y="187.631301"/>
     <use style="fill:#4c72b0;stroke:#4c72b0;stroke-width:1.5;" x="448.862368" xlink:href="#m042b452977" y="291.311611"/>
     <use style="fill:#4c72b0;stroke:#4c72b0;stroke-width:1.5;" x="806.561671" xlink:href="#m042b452977" y="273.273497"/>
     <use style="fill:#4c72b0;stroke:#4c72b0;stroke-width:1.5;" x="192.088109" xlink:href="#m042b452977" y="360.272626"/>
     <use style="fill:#4c72b0;stroke:#4c72b0;stroke-width:1.5;" x="375.749949" xlink:href="#m042b452977" y="321.403105"/>
     <use style="fill:#4c72b0;stroke:#4c72b0;stroke-width:1.5;" x="543.064843" xlink:href="#m042b452977" y="287.256188"/>
     <use style="fill:#4c72b0;stroke:#4c72b0;stroke-width:1.5;" x="622.012576" xlink:href="#m042b452977" y="308.610131"/>
     <use style="fill:#4c72b0;stroke:#4c72b0;stroke-width:1.5;" x="307.593667" xlink:href="#m042b452977" y="306.169651"/>
     <use style="fill:#4c72b0;stroke:#4c72b0;stroke-width:1.5;" x="226.855371" xlink:href="#m042b452977" y="346.433282"/>
     <use style="fill:#4c72b0;stroke:#4c72b0;stroke-width:1.5;" x="557.246758" xlink:href="#m042b452977" y="323.791768"/>
     <use style="fill:#4c72b0;stroke:#4c72b0;stroke-width:1.5;" x="319.330952" xlink:href="#m042b452977" y="296.992577"/>
     <use style="fill:#4c72b0;stroke:#4c72b0;stroke-width:1.5;" x="187.553249" xlink:href="#m042b452977" y="360.869463"/>
     <use style="fill:#4c72b0;stroke:#4c72b0;stroke-width:1.5;" x="374.726422" xlink:href="#m042b452977" y="341.755445"/>
     <use style="fill:#4c72b0;stroke:#4c72b0;stroke-width:1.5;" x="204.397015" xlink:href="#m042b452977" y="356.253599"/>
     <use style="fill:#4c72b0;stroke:#4c72b0;stroke-width:1.5;" x="537.259327" xlink:href="#m042b452977" y="267.757097"/>
     <use style="fill:#4c72b0;stroke:#4c72b0;stroke-width:1.5;" x="228.683377" xlink:href="#m042b452977" y="345.444395"/>
     <use style="fill:#4c72b0;stroke:#4c72b0;stroke-width:1.5;" x="235.708077" xlink:href="#m042b452977" y="306.972807"/>
     <use style="fill:#4c72b0;stroke:#4c72b0;stroke-width:1.5;" x="792.08423" xlink:href="#m042b452977" y="246.733584"/>
     <use style="fill:#4c72b0;stroke:#4c72b0;stroke-width:1.5;" x="504.168945" xlink:href="#m042b452977" y="262.468852"/>
     <use style="fill:#4c72b0;stroke:#4c72b0;stroke-width:1.5;" x="278.476068" xlink:href="#m042b452977" y="279.874318"/>
     <use style="fill:#4c72b0;stroke:#4c72b0;stroke-width:1.5;" x="511.795756" xlink:href="#m042b452977" y="262.957274"/>
     <use style="fill:#4c72b0;stroke:#4c72b0;stroke-width:1.5;" x="596.507762" xlink:href="#m042b452977" y="219.361405"/>
     <use style="fill:#4c72b0;stroke:#4c72b0;stroke-width:1.5;" x="301.656184" xlink:href="#m042b452977" y="296.536257"/>
     <use style="fill:#4c72b0;stroke:#4c72b0;stroke-width:1.5;" x="243.038598" xlink:href="#m042b452977" y="312.811632"/>
     <use style="fill:#4c72b0;stroke:#4c72b0;stroke-width:1.5;" x="217.800858" xlink:href="#m042b452977" y="352.461447"/>
     <use style="fill:#4c72b0;stroke:#4c72b0;stroke-width:1.5;" x="291.855034" xlink:href="#m042b452977" y="334.346451"/>
     <use style="fill:#4c72b0;stroke:#4c72b0;stroke-width:1.5;" x="526.342645" xlink:href="#m042b452977" y="258.892518"/>
     <use style="fill:#4c72b0;stroke:#4c72b0;stroke-width:1.5;" x="346.273357" xlink:href="#m042b452977" y="297.511657"/>
     <use style="fill:#4c72b0;stroke:#4c72b0;stroke-width:1.5;" x="567.281105" xlink:href="#m042b452977" y="248.917446"/>
     <use style="fill:#4c72b0;stroke:#4c72b0;stroke-width:1.5;" x="207.240768" xlink:href="#m042b452977" y="332.254752"/>
     <use style="fill:#4c72b0;stroke:#4c72b0;stroke-width:1.5;" x="489.800533" xlink:href="#m042b452977" y="301.053006"/>
     <use style="fill:#4c72b0;stroke:#4c72b0;stroke-width:1.5;" x="537.587773" xlink:href="#m042b452977" y="239.634405"/>
     <use style="fill:#4c72b0;stroke:#4c72b0;stroke-width:1.5;" x="705.235888" xlink:href="#m042b452977" y="243.417779"/>
     <use style="fill:#4c72b0;stroke:#4c72b0;stroke-width:1.5;" x="710.15993" xlink:href="#m042b452977" y="224.416226"/>
     <use style="fill:#4c72b0;stroke:#4c72b0;stroke-width:1.5;" x="682.485786" xlink:href="#m042b452977" y="243.646618"/>
     <use style="fill:#4c72b0;stroke:#4c72b0;stroke-width:1.5;" x="503.373873" xlink:href="#m042b452977" y="308.796585"/>
     <use style="fill:#4c72b0;stroke:#4c72b0;stroke-width:1.5;" x="323.14557" xlink:href="#m042b452977" y="279.2163"/>
     <use style="fill:#4c72b0;stroke:#4c72b0;stroke-width:1.5;" x="355.990915" xlink:href="#m042b452977" y="278.6269"/>
     <use style="fill:#4c72b0;stroke:#4c72b0;stroke-width:1.5;" x="333.654616" xlink:href="#m042b452977" y="264.092376"/>
     <use style="fill:#4c72b0;stroke:#4c72b0;stroke-width:1.5;" x="975.233279" xlink:href="#m042b452977" y="245.461058"/>
     <use style="fill:#4c72b0;stroke:#4c72b0;stroke-width:1.5;" x="781.878022" xlink:href="#m042b452977" y="215.114094"/>
     <use style="fill:#4c72b0;stroke:#4c72b0;stroke-width:1.5;" x="366.199258" xlink:href="#m042b452977" y="337.341903"/>
     <use style="fill:#4c72b0;stroke:#4c72b0;stroke-width:1.5;" x="278.825943" xlink:href="#m042b452977" y="323.472462"/>
     <use style="fill:#4c72b0;stroke:#4c72b0;stroke-width:1.5;" x="900.193197" xlink:href="#m042b452977" y="185.008248"/>
     <use style="fill:#4c72b0;stroke:#4c72b0;stroke-width:1.5;" x="417.470663" xlink:href="#m042b452977" y="314.69774"/>
     <use style="fill:#4c72b0;stroke:#4c72b0;stroke-width:1.5;" x="314.529335" xlink:href="#m042b452977" y="333.61169"/>
     <use style="fill:#4c72b0;stroke:#4c72b0;stroke-width:1.5;" x="622.332974" xlink:href="#m042b452977" y="278.84641"/>
     <use style="fill:#4c72b0;stroke:#4c72b0;stroke-width:1.5;" x="214.76241" xlink:href="#m042b452977" y="326.257071"/>
     <use style="fill:#4c72b0;stroke:#4c72b0;stroke-width:1.5;" x="280.715052" xlink:href="#m042b452977" y="319.897738"/>
     <use style="fill:#4c72b0;stroke:#4c72b0;stroke-width:1.5;" x="603.135237" xlink:href="#m042b452977" y="317.638569"/>
     <use style="fill:#4c72b0;stroke:#4c72b0;stroke-width:1.5;" x="262.2542" xlink:href="#m042b452977" y="309.338641"/>
     <use style="fill:#4c72b0;stroke:#4c72b0;stroke-width:1.5;" x="782.44446" xlink:href="#m042b452977" y="253.411558"/>
     <use style="fill:#4c72b0;stroke:#4c72b0;stroke-width:1.5;" x="462.668103" xlink:href="#m042b452977" y="291.678822"/>
     <use style="fill:#4c72b0;stroke:#4c72b0;stroke-width:1.5;" x="332.520092" xlink:href="#m042b452977" y="323.057218"/>
     <use style="fill:#4c72b0;stroke:#4c72b0;stroke-width:1.5;" x="857.375796" xlink:href="#m042b452977" y="248.798043"/>
     <use style="fill:#4c72b0;stroke:#4c72b0;stroke-width:1.5;" x="289.477177" xlink:href="#m042b452977" y="313.241148"/>
     <use style="fill:#4c72b0;stroke:#4c72b0;stroke-width:1.5;" x="716.2848" xlink:href="#m042b452977" y="209.750377"/>
     <use style="fill:#4c72b0;stroke:#4c72b0;stroke-width:1.5;" x="292.358908" xlink:href="#m042b452977" y="335.576804"/>
     <use style="fill:#4c72b0;stroke:#4c72b0;stroke-width:1.5;" x="842.320159" xlink:href="#m042b452977" y="223.393695"/>
     <use style="fill:#4c72b0;stroke:#4c72b0;stroke-width:1.5;" x="583.644948" xlink:href="#m042b452977" y="230.511789"/>
     <use style="fill:#4c72b0;stroke:#4c72b0;stroke-width:1.5;" x="615.00152" xlink:href="#m042b452977" y="272.622444"/>
     <use style="fill:#4c72b0;stroke:#4c72b0;stroke-width:1.5;" x="187.553249" xlink:href="#m042b452977" y="355.606725"/>
     <use style="fill:#4c72b0;stroke:#4c72b0;stroke-width:1.5;" x="564.198585" xlink:href="#m042b452977" y="250.387839"/>
     <use style="fill:#4c72b0;stroke:#4c72b0;stroke-width:1.5;" x="319.215358" xlink:href="#m042b452977" y="282.151957"/>
     <use style="fill:#4c72b0;stroke:#4c72b0;stroke-width:1.5;" x="217.02984" xlink:href="#m042b452977" y="329.576074"/>
     <use style="fill:#4c72b0;stroke:#4c72b0;stroke-width:1.5;" x="986.52402" xlink:href="#m042b452977" y="200.279184"/>
     <use style="fill:#4c72b0;stroke:#4c72b0;stroke-width:1.5;" x="742.112853" xlink:href="#m042b452977" y="295.125116"/>
     <use style="fill:#4c72b0;stroke:#4c72b0;stroke-width:1.5;" x="238.646007" xlink:href="#m042b452977" y="315.596914"/>
     <use style="fill:#4c72b0;stroke:#4c72b0;stroke-width:1.5;" x="624.161409" xlink:href="#m042b452977" y="185.905056"/>
     <use style="fill:#4c72b0;stroke:#4c72b0;stroke-width:1.5;" x="904.318024" xlink:href="#m042b452977" y="97.326747"/>
     <use style="fill:#4c72b0;stroke:#4c72b0;stroke-width:1.5;" x="208.99077" xlink:href="#m042b452977" y="287.050677"/>
     <use style="fill:#4c72b0;stroke:#4c72b0;stroke-width:1.5;" x="528.604721" xlink:href="#m042b452977" y="246.362486"/>
     <use style="fill:#4c72b0;stroke:#4c72b0;stroke-width:1.5;" x="372.451869" xlink:href="#m042b452977" y="253.091978"/>
     <use style="fill:#4c72b0;stroke:#4c72b0;stroke-width:1.5;" x="279.969612" xlink:href="#m042b452977" y="342.892432"/>
     <use style="fill:#4c72b0;stroke:#4c72b0;stroke-width:1.5;" x="370.769272" xlink:href="#m042b452977" y="301.110338"/>
     <use style="fill:#4c72b0;stroke:#4c72b0;stroke-width:1.5;" x="224.019135" xlink:href="#m042b452977" y="357.819763"/>
     <use style="fill:#4c72b0;stroke:#4c72b0;stroke-width:1.5;" x="244.541326" xlink:href="#m042b452977" y="350.581933"/>
     <use style="fill:#4c72b0;stroke:#4c72b0;stroke-width:1.5;" x="227.172323" xlink:href="#m042b452977" y="291.366508"/>
     <use style="fill:#4c72b0;stroke:#4c72b0;stroke-width:1.5;" x="312.395284" xlink:href="#m042b452977" y="321.758509"/>
     <use style="fill:#4c72b0;stroke:#4c72b0;stroke-width:1.5;" x="675.759296" xlink:href="#m042b452977" y="68.970537"/>
     <use style="fill:#4c72b0;stroke:#4c72b0;stroke-width:1.5;" x="637.562546" xlink:href="#m042b452977" y="254.363849"/>
     <use style="fill:#4c72b0;stroke:#4c72b0;stroke-width:1.5;" x="272.515189" xlink:href="#m042b452977" y="324.951246"/>
     <use style="fill:#4c72b0;stroke:#4c72b0;stroke-width:1.5;" x="552.501525" xlink:href="#m042b452977" y="252.897074"/>
     <use style="fill:#4c72b0;stroke:#4c72b0;stroke-width:1.5;" x="699.992456" xlink:href="#m042b452977" y="244.295662"/>
     <use style="fill:#4c72b0;stroke:#4c72b0;stroke-width:1.5;" x="689.565509" xlink:href="#m042b452977" y="218.21704"/>
     <use style="fill:#4c72b0;stroke:#4c72b0;stroke-width:1.5;" x="236.680901" xlink:href="#m042b452977" y="322.46872"/>
     <use style="fill:#4c72b0;stroke:#4c72b0;stroke-width:1.5;" x="657.62048" xlink:href="#m042b452977" y="184.494046"/>
     <use style="fill:#4c72b0;stroke:#4c72b0;stroke-width:1.5;" x="263.350198" xlink:href="#m042b452977" y="319.909539"/>
     <use style="fill:#4c72b0;stroke:#4c72b0;stroke-width:1.5;" x="187.553249" xlink:href="#m042b452977" y="347.915899"/>
     <use style="fill:#4c72b0;stroke:#4c72b0;stroke-width:1.5;" x="899.202388" xlink:href="#m042b452977" y="145.765266"/>
     <use style="fill:#4c72b0;stroke:#4c72b0;stroke-width:1.5;" x="276.156756" xlink:href="#m042b452977" y="322.045986"/>
     <use style="fill:#4c72b0;stroke:#4c72b0;stroke-width:1.5;" x="187.553249" xlink:href="#m042b452977" y="358.791872"/>
     <use style="fill:#4c72b0;stroke:#4c72b0;stroke-width:1.5;" x="993.246751" xlink:href="#m042b452977" y="229.1255"/>
     <use style="fill:#4c72b0;stroke:#4c72b0;stroke-width:1.5;" x="743.588953" xlink:href="#m042b452977" y="224.828741"/>
     <use style="fill:#4c72b0;stroke:#4c72b0;stroke-width:1.5;" x="335.419429" xlink:href="#m042b452977" y="309.298173"/>
     <use style="fill:#4c72b0;stroke:#4c72b0;stroke-width:1.5;" x="777.08508" xlink:href="#m042b452977" y="134.648298"/>
     <use style="fill:#4c72b0;stroke:#4c72b0;stroke-width:1.5;" x="294.586405" xlink:href="#m042b452977" y="317.94821"/>
     <use style="fill:#4c72b0;stroke:#4c72b0;stroke-width:1.5;" x="187.553249" xlink:href="#m042b452977" y="335.647373"/>
     <use style="fill:#4c72b0;stroke:#4c72b0;stroke-width:1.5;" x="187.553249" xlink:href="#m042b452977" y="360.399786"/>
     <use style="fill:#4c72b0;stroke:#4c72b0;stroke-width:1.5;" x="364.412798" xlink:href="#m042b452977" y="314.088372"/>
     <use style="fill:#4c72b0;stroke:#4c72b0;stroke-width:1.5;" x="212.49498" xlink:href="#m042b452977" y="338.370127"/>
     <use style="fill:#4c72b0;stroke:#4c72b0;stroke-width:1.5;" x="255.176018" xlink:href="#m042b452977" y="295.050469"/>
     <use style="fill:#4c72b0;stroke:#4c72b0;stroke-width:1.5;" x="226.855371" xlink:href="#m042b452977" y="360.219602"/>
     <use style="fill:#4c72b0;stroke:#4c72b0;stroke-width:1.5;" x="447.216535" xlink:href="#m042b452977" y="313.054587"/>
     <use style="fill:#4c72b0;stroke:#4c72b0;stroke-width:1.5;" x="393.88939" xlink:href="#m042b452977" y="339.799446"/>
     <use style="fill:#4c72b0;stroke:#4c72b0;stroke-width:1.5;" x="515.48033" xlink:href="#m042b452977" y="308.646104"/>
     <use style="fill:#4c72b0;stroke:#4c72b0;stroke-width:1.5;" x="423.167151" xlink:href="#m042b452977" y="240.171462"/>
     <use style="fill:#4c72b0;stroke:#4c72b0;stroke-width:1.5;" x="390.94173" xlink:href="#m042b452977" y="284.911814"/>
     <use style="fill:#4c72b0;stroke:#4c72b0;stroke-width:1.5;" x="918.430663" xlink:href="#m042b452977" y="154.944205"/>
     <use style="fill:#4c72b0;stroke:#4c72b0;stroke-width:1.5;" x="259.163047" xlink:href="#m042b452977" y="318.471059"/>
     <use style="fill:#4c72b0;stroke:#4c72b0;stroke-width:1.5;" x="707.258073" xlink:href="#m042b452977" y="303.172245"/>
     <use style="fill:#4c72b0;stroke:#4c72b0;stroke-width:1.5;" x="215.187553" xlink:href="#m042b452977" y="347.046574"/>
    </g>
   </g>
   <g id="patch_3">
    <path d="M 144 378 
L 144 51.84 
" style="fill:none;stroke:#cccccc;stroke-linecap:square;stroke-linejoin:miter;stroke-width:1.25;"/>
   </g>
   <g id="patch_4">
    <path d="M 1036.8 378 
L 1036.8 51.84 
" style="fill:none;stroke:#cccccc;stroke-linecap:square;stroke-linejoin:miter;stroke-width:1.25;"/>
   </g>
   <g id="patch_5">
    <path d="M 144 378 
L 1036.8 378 
" style="fill:none;stroke:#cccccc;stroke-linecap:square;stroke-linejoin:miter;stroke-width:1.25;"/>
   </g>
   <g id="patch_6">
    <path d="M 144 51.84 
L 1036.8 51.84 
" style="fill:none;stroke:#cccccc;stroke-linecap:square;stroke-linejoin:miter;stroke-width:1.25;"/>
   </g>
   <g id="text_15">
    <!-- Model Fit Plot -->
    <defs>
     <path d="M 7.421875 0 
L 7.421875 71.578125 
L 21.6875 71.578125 
L 38.625 20.90625 
Q 40.96875 13.8125 42.046875 10.296875 
Q 43.265625 14.203125 45.84375 21.78125 
L 62.984375 71.578125 
L 75.734375 71.578125 
L 75.734375 0 
L 66.609375 0 
L 66.609375 59.90625 
L 45.796875 0 
L 37.25 0 
L 16.546875 60.9375 
L 16.546875 0 
z
" id="ArialMT-77"/>
     <path d="M 3.328125 25.921875 
Q 3.328125 40.328125 11.328125 47.265625 
Q 18.015625 53.03125 27.640625 53.03125 
Q 38.328125 53.03125 45.109375 46.015625 
Q 51.90625 39.015625 51.90625 26.65625 
Q 51.90625 16.65625 48.90625 10.90625 
Q 45.90625 5.171875 40.15625 2 
Q 34.421875 -1.171875 27.640625 -1.171875 
Q 16.75 -1.171875 10.03125 5.8125 
Q 3.328125 12.796875 3.328125 25.921875 
z
M 12.359375 25.921875 
Q 12.359375 15.96875 16.703125 11.015625 
Q 21.046875 6.0625 27.640625 6.0625 
Q 34.1875 6.0625 38.53125 11.03125 
Q 42.875 16.015625 42.875 26.21875 
Q 42.875 35.84375 38.5 40.796875 
Q 34.125 45.75 27.640625 45.75 
Q 21.046875 45.75 16.703125 40.8125 
Q 12.359375 35.890625 12.359375 25.921875 
z
" id="ArialMT-111"/>
     <path d="M 7.71875 0 
L 7.71875 71.578125 
L 34.71875 71.578125 
Q 41.84375 71.578125 45.609375 70.90625 
Q 50.875 70.015625 54.4375 67.546875 
Q 58.015625 65.09375 60.1875 60.640625 
Q 62.359375 56.203125 62.359375 50.875 
Q 62.359375 41.75 56.546875 35.421875 
Q 50.734375 29.109375 35.546875 29.109375 
L 17.1875 29.109375 
L 17.1875 0 
z
M 17.1875 37.546875 
L 35.6875 37.546875 
Q 44.875 37.546875 48.734375 40.96875 
Q 52.59375 44.390625 52.59375 50.59375 
Q 52.59375 55.078125 50.3125 58.265625 
Q 48.046875 61.46875 44.34375 62.5 
Q 41.9375 63.140625 35.5 63.140625 
L 17.1875 63.140625 
z
" id="ArialMT-80"/>
    </defs>
    <g style="fill:#262626;" transform="translate(517.044375 45.84)scale(0.24 -0.24)">
     <use xlink:href="#ArialMT-77"/>
     <use x="83.300781" xlink:href="#ArialMT-111"/>
     <use x="138.916016" xlink:href="#ArialMT-100"/>
     <use x="194.53125" xlink:href="#ArialMT-101"/>
     <use x="250.146484" xlink:href="#ArialMT-108"/>
     <use x="272.363281" xlink:href="#ArialMT-32"/>
     <use x="300.146484" xlink:href="#ArialMT-70"/>
     <use x="361.230469" xlink:href="#ArialMT-105"/>
     <use x="383.447266" xlink:href="#ArialMT-116"/>
     <use x="411.230469" xlink:href="#ArialMT-32"/>
     <use x="439.013672" xlink:href="#ArialMT-80"/>
     <use x="505.712891" xlink:href="#ArialMT-108"/>
     <use x="527.929688" xlink:href="#ArialMT-111"/>
     <use x="583.544922" xlink:href="#ArialMT-116"/>
    </g>
   </g>
  </g>
 </g>
 <defs>
  <clipPath id="p65bd56c239">
   <rect height="326.16" width="892.8" x="144" y="51.84"/>
  </clipPath>
 </defs>
</svg>
