<?xml version="1.0" encoding="utf-8" standalone="no"?>
<!DOCTYPE svg PUBLIC "-//W3C//DTD SVG 1.1//EN"
  "http://www.w3.org/Graphics/SVG/1.1/DTD/svg11.dtd">
<!-- Created with matplotlib (https://matplotlib.org/) -->
<svg height="720pt" version="1.1" viewBox="0 0 1152 720" width="1152pt" xmlns="http://www.w3.org/2000/svg" xmlns:xlink="http://www.w3.org/1999/xlink">
 <defs>
  <style type="text/css">
*{stroke-linecap:butt;stroke-linejoin:round;}
  </style>
 </defs>
 <g id="figure_1">
  <g id="patch_1">
   <path d="M 0 720 
L 1152 720 
L 1152 0 
L 0 0 
z
" style="fill:#ffffff;"/>
  </g>
  <g id="axes_1">
   <g id="patch_2">
    <path d="M 144 630 
L 1036.8 630 
L 1036.8 86.4 
L 144 86.4 
z
" style="fill:#ffffff;"/>
   </g>
   <g id="matplotlib.axis_1">
    <g id="xtick_1">
     <g id="line2d_1">
      <path clip-path="url(#pfbb6bb444a)" d="M 144 630 
L 144 86.4 
" style="fill:none;stroke:#cccccc;stroke-linecap:round;"/>
     </g>
     <g id="text_1">
      <!-- 0.0 -->
      <defs>
       <path d="M 4.15625 35.296875 
Q 4.15625 48 6.765625 55.734375 
Q 9.375 63.484375 14.515625 67.671875 
Q 19.671875 71.875 27.484375 71.875 
Q 33.25 71.875 37.59375 69.546875 
Q 41.9375 67.234375 44.765625 62.859375 
Q 47.609375 58.5 49.21875 52.21875 
Q 50.828125 45.953125 50.828125 35.296875 
Q 50.828125 22.703125 48.234375 14.96875 
Q 45.65625 7.234375 40.5 3 
Q 35.359375 -1.21875 27.484375 -1.21875 
Q 17.140625 -1.21875 11.234375 6.203125 
Q 4.15625 15.140625 4.15625 35.296875 
z
M 13.1875 35.296875 
Q 13.1875 17.671875 17.3125 11.828125 
Q 21.4375 6 27.484375 6 
Q 33.546875 6 37.671875 11.859375 
Q 41.796875 17.71875 41.796875 35.296875 
Q 41.796875 52.984375 37.671875 58.78125 
Q 33.546875 64.59375 27.390625 64.59375 
Q 21.34375 64.59375 17.71875 59.46875 
Q 13.1875 52.9375 13.1875 35.296875 
z
" id="ArialMT-48"/>
       <path d="M 9.078125 0 
L 9.078125 10.015625 
L 19.09375 10.015625 
L 19.09375 0 
z
" id="ArialMT-46"/>
      </defs>
      <g style="fill:#262626;" transform="translate(128.71 655.247187)scale(0.22 -0.22)">
       <use xlink:href="#ArialMT-48"/>
       <use x="55.615234" xlink:href="#ArialMT-46"/>
       <use x="83.398438" xlink:href="#ArialMT-48"/>
      </g>
     </g>
    </g>
    <g id="xtick_2">
     <g id="line2d_2">
      <path clip-path="url(#pfbb6bb444a)" d="M 336.711608 630 
L 336.711608 86.4 
" style="fill:none;stroke:#cccccc;stroke-linecap:round;"/>
     </g>
     <g id="text_2">
      <!-- 0.2 -->
      <defs>
       <path d="M 50.34375 8.453125 
L 50.34375 0 
L 3.03125 0 
Q 2.9375 3.171875 4.046875 6.109375 
Q 5.859375 10.9375 9.828125 15.625 
Q 13.8125 20.3125 21.34375 26.46875 
Q 33.015625 36.03125 37.109375 41.625 
Q 41.21875 47.21875 41.21875 52.203125 
Q 41.21875 57.421875 37.46875 61 
Q 33.734375 64.59375 27.734375 64.59375 
Q 21.390625 64.59375 17.578125 60.78125 
Q 13.765625 56.984375 13.71875 50.25 
L 4.6875 51.171875 
Q 5.609375 61.28125 11.65625 66.578125 
Q 17.71875 71.875 27.9375 71.875 
Q 38.234375 71.875 44.234375 66.15625 
Q 50.25 60.453125 50.25 52 
Q 50.25 47.703125 48.484375 43.546875 
Q 46.734375 39.40625 42.65625 34.8125 
Q 38.578125 30.21875 29.109375 22.21875 
Q 21.1875 15.578125 18.9375 13.203125 
Q 16.703125 10.84375 15.234375 8.453125 
z
" id="ArialMT-50"/>
      </defs>
      <g style="fill:#262626;" transform="translate(321.421608 655.247187)scale(0.22 -0.22)">
       <use xlink:href="#ArialMT-48"/>
       <use x="55.615234" xlink:href="#ArialMT-46"/>
       <use x="83.398438" xlink:href="#ArialMT-50"/>
      </g>
     </g>
    </g>
    <g id="xtick_3">
     <g id="line2d_3">
      <path clip-path="url(#pfbb6bb444a)" d="M 529.423217 630 
L 529.423217 86.4 
" style="fill:none;stroke:#cccccc;stroke-linecap:round;"/>
     </g>
     <g id="text_3">
      <!-- 0.4 -->
      <defs>
       <path d="M 32.328125 0 
L 32.328125 17.140625 
L 1.265625 17.140625 
L 1.265625 25.203125 
L 33.9375 71.578125 
L 41.109375 71.578125 
L 41.109375 25.203125 
L 50.78125 25.203125 
L 50.78125 17.140625 
L 41.109375 17.140625 
L 41.109375 0 
z
M 32.328125 25.203125 
L 32.328125 57.46875 
L 9.90625 25.203125 
z
" id="ArialMT-52"/>
      </defs>
      <g style="fill:#262626;" transform="translate(514.133217 655.247187)scale(0.22 -0.22)">
       <use xlink:href="#ArialMT-48"/>
       <use x="55.615234" xlink:href="#ArialMT-46"/>
       <use x="83.398438" xlink:href="#ArialMT-52"/>
      </g>
     </g>
    </g>
    <g id="xtick_4">
     <g id="line2d_4">
      <path clip-path="url(#pfbb6bb444a)" d="M 722.134825 630 
L 722.134825 86.4 
" style="fill:none;stroke:#cccccc;stroke-linecap:round;"/>
     </g>
     <g id="text_4">
      <!-- 0.6 -->
      <defs>
       <path d="M 49.75 54.046875 
L 41.015625 53.375 
Q 39.84375 58.546875 37.703125 60.890625 
Q 34.125 64.65625 28.90625 64.65625 
Q 24.703125 64.65625 21.53125 62.3125 
Q 17.390625 59.28125 14.984375 53.46875 
Q 12.59375 47.65625 12.5 36.921875 
Q 15.671875 41.75 20.265625 44.09375 
Q 24.859375 46.4375 29.890625 46.4375 
Q 38.671875 46.4375 44.84375 39.96875 
Q 51.03125 33.5 51.03125 23.25 
Q 51.03125 16.5 48.125 10.71875 
Q 45.21875 4.9375 40.140625 1.859375 
Q 35.0625 -1.21875 28.609375 -1.21875 
Q 17.625 -1.21875 10.6875 6.859375 
Q 3.765625 14.9375 3.765625 33.5 
Q 3.765625 54.25 11.421875 63.671875 
Q 18.109375 71.875 29.4375 71.875 
Q 37.890625 71.875 43.28125 67.140625 
Q 48.6875 62.40625 49.75 54.046875 
z
M 13.875 23.1875 
Q 13.875 18.65625 15.796875 14.5 
Q 17.71875 10.359375 21.1875 8.171875 
Q 24.65625 6 28.46875 6 
Q 34.03125 6 38.03125 10.484375 
Q 42.046875 14.984375 42.046875 22.703125 
Q 42.046875 30.125 38.078125 34.390625 
Q 34.125 38.671875 28.125 38.671875 
Q 22.171875 38.671875 18.015625 34.390625 
Q 13.875 30.125 13.875 23.1875 
z
" id="ArialMT-54"/>
      </defs>
      <g style="fill:#262626;" transform="translate(706.844825 655.247187)scale(0.22 -0.22)">
       <use xlink:href="#ArialMT-48"/>
       <use x="55.615234" xlink:href="#ArialMT-46"/>
       <use x="83.398438" xlink:href="#ArialMT-54"/>
      </g>
     </g>
    </g>
    <g id="xtick_5">
     <g id="line2d_5">
      <path clip-path="url(#pfbb6bb444a)" d="M 914.846434 630 
L 914.846434 86.4 
" style="fill:none;stroke:#cccccc;stroke-linecap:round;"/>
     </g>
     <g id="text_5">
      <!-- 0.8 -->
      <defs>
       <path d="M 17.671875 38.8125 
Q 12.203125 40.828125 9.5625 44.53125 
Q 6.9375 48.25 6.9375 53.421875 
Q 6.9375 61.234375 12.546875 66.546875 
Q 18.171875 71.875 27.484375 71.875 
Q 36.859375 71.875 42.578125 66.421875 
Q 48.296875 60.984375 48.296875 53.171875 
Q 48.296875 48.1875 45.671875 44.5 
Q 43.0625 40.828125 37.75 38.8125 
Q 44.34375 36.671875 47.78125 31.875 
Q 51.21875 27.09375 51.21875 20.453125 
Q 51.21875 11.28125 44.71875 5.03125 
Q 38.234375 -1.21875 27.640625 -1.21875 
Q 17.046875 -1.21875 10.546875 5.046875 
Q 4.046875 11.328125 4.046875 20.703125 
Q 4.046875 27.6875 7.59375 32.390625 
Q 11.140625 37.109375 17.671875 38.8125 
z
M 15.921875 53.71875 
Q 15.921875 48.640625 19.1875 45.40625 
Q 22.46875 42.1875 27.6875 42.1875 
Q 32.765625 42.1875 36.015625 45.375 
Q 39.265625 48.578125 39.265625 53.21875 
Q 39.265625 58.0625 35.90625 61.359375 
Q 32.5625 64.65625 27.59375 64.65625 
Q 22.5625 64.65625 19.234375 61.421875 
Q 15.921875 58.203125 15.921875 53.71875 
z
M 13.09375 20.65625 
Q 13.09375 16.890625 14.875 13.375 
Q 16.65625 9.859375 20.171875 7.921875 
Q 23.6875 6 27.734375 6 
Q 34.03125 6 38.125 10.046875 
Q 42.234375 14.109375 42.234375 20.359375 
Q 42.234375 26.703125 38.015625 30.859375 
Q 33.796875 35.015625 27.4375 35.015625 
Q 21.234375 35.015625 17.15625 30.90625 
Q 13.09375 26.8125 13.09375 20.65625 
z
" id="ArialMT-56"/>
      </defs>
      <g style="fill:#262626;" transform="translate(899.556434 655.247187)scale(0.22 -0.22)">
       <use xlink:href="#ArialMT-48"/>
       <use x="55.615234" xlink:href="#ArialMT-46"/>
       <use x="83.398438" xlink:href="#ArialMT-56"/>
      </g>
     </g>
    </g>
    <g id="text_6">
     <!-- Simulation Result -->
     <defs>
      <path d="M 4.5 23 
L 13.421875 23.78125 
Q 14.0625 18.40625 16.375 14.96875 
Q 18.703125 11.53125 23.578125 9.40625 
Q 28.46875 7.28125 34.578125 7.28125 
Q 39.984375 7.28125 44.140625 8.890625 
Q 48.296875 10.5 50.3125 13.296875 
Q 52.34375 16.109375 52.34375 19.4375 
Q 52.34375 22.796875 50.390625 25.3125 
Q 48.4375 27.828125 43.953125 29.546875 
Q 41.0625 30.671875 31.203125 33.03125 
Q 21.34375 35.40625 17.390625 37.5 
Q 12.25 40.1875 9.734375 44.15625 
Q 7.234375 48.140625 7.234375 53.078125 
Q 7.234375 58.5 10.296875 63.203125 
Q 13.375 67.921875 19.28125 70.359375 
Q 25.203125 72.796875 32.421875 72.796875 
Q 40.375 72.796875 46.453125 70.234375 
Q 52.546875 67.671875 55.8125 62.6875 
Q 59.078125 57.71875 59.328125 51.421875 
L 50.25 50.734375 
Q 49.515625 57.515625 45.28125 60.984375 
Q 41.0625 64.453125 32.8125 64.453125 
Q 24.21875 64.453125 20.28125 61.296875 
Q 16.359375 58.15625 16.359375 53.71875 
Q 16.359375 49.859375 19.140625 47.359375 
Q 21.875 44.875 33.421875 42.265625 
Q 44.96875 39.65625 49.265625 37.703125 
Q 55.515625 34.8125 58.484375 30.390625 
Q 61.46875 25.984375 61.46875 20.21875 
Q 61.46875 14.5 58.203125 9.4375 
Q 54.9375 4.390625 48.796875 1.578125 
Q 42.671875 -1.21875 35.015625 -1.21875 
Q 25.296875 -1.21875 18.71875 1.609375 
Q 12.15625 4.4375 8.421875 10.125 
Q 4.6875 15.828125 4.5 23 
z
" id="ArialMT-83"/>
      <path d="M 6.640625 61.46875 
L 6.640625 71.578125 
L 15.4375 71.578125 
L 15.4375 61.46875 
z
M 6.640625 0 
L 6.640625 51.859375 
L 15.4375 51.859375 
L 15.4375 0 
z
" id="ArialMT-105"/>
      <path d="M 6.59375 0 
L 6.59375 51.859375 
L 14.453125 51.859375 
L 14.453125 44.578125 
Q 16.890625 48.390625 20.9375 50.703125 
Q 25 53.03125 30.171875 53.03125 
Q 35.9375 53.03125 39.625 50.640625 
Q 43.3125 48.25 44.828125 43.953125 
Q 50.984375 53.03125 60.84375 53.03125 
Q 68.5625 53.03125 72.703125 48.75 
Q 76.859375 44.484375 76.859375 35.59375 
L 76.859375 0 
L 68.109375 0 
L 68.109375 32.671875 
Q 68.109375 37.9375 67.25 40.25 
Q 66.40625 42.578125 64.15625 43.984375 
Q 61.921875 45.40625 58.890625 45.40625 
Q 53.421875 45.40625 49.796875 41.765625 
Q 46.1875 38.140625 46.1875 30.125 
L 46.1875 0 
L 37.40625 0 
L 37.40625 33.6875 
Q 37.40625 39.546875 35.25 42.46875 
Q 33.109375 45.40625 28.21875 45.40625 
Q 24.515625 45.40625 21.359375 43.453125 
Q 18.21875 41.5 16.796875 37.734375 
Q 15.375 33.984375 15.375 26.90625 
L 15.375 0 
z
" id="ArialMT-109"/>
      <path d="M 40.578125 0 
L 40.578125 7.625 
Q 34.515625 -1.171875 24.125 -1.171875 
Q 19.53125 -1.171875 15.546875 0.578125 
Q 11.578125 2.34375 9.640625 5 
Q 7.71875 7.671875 6.9375 11.53125 
Q 6.390625 14.109375 6.390625 19.734375 
L 6.390625 51.859375 
L 15.1875 51.859375 
L 15.1875 23.09375 
Q 15.1875 16.21875 15.71875 13.8125 
Q 16.546875 10.359375 19.234375 8.375 
Q 21.921875 6.390625 25.875 6.390625 
Q 29.828125 6.390625 33.296875 8.421875 
Q 36.765625 10.453125 38.203125 13.9375 
Q 39.65625 17.4375 39.65625 24.078125 
L 39.65625 51.859375 
L 48.4375 51.859375 
L 48.4375 0 
z
" id="ArialMT-117"/>
      <path d="M 6.390625 0 
L 6.390625 71.578125 
L 15.1875 71.578125 
L 15.1875 0 
z
" id="ArialMT-108"/>
      <path d="M 40.4375 6.390625 
Q 35.546875 2.25 31.03125 0.53125 
Q 26.515625 -1.171875 21.34375 -1.171875 
Q 12.796875 -1.171875 8.203125 3 
Q 3.609375 7.171875 3.609375 13.671875 
Q 3.609375 17.484375 5.34375 20.625 
Q 7.078125 23.78125 9.890625 25.6875 
Q 12.703125 27.59375 16.21875 28.5625 
Q 18.796875 29.25 24.03125 29.890625 
Q 34.671875 31.15625 39.703125 32.90625 
Q 39.75 34.71875 39.75 35.203125 
Q 39.75 40.578125 37.25 42.78125 
Q 33.890625 45.75 27.25 45.75 
Q 21.046875 45.75 18.09375 43.578125 
Q 15.140625 41.40625 13.71875 35.890625 
L 5.125 37.0625 
Q 6.296875 42.578125 8.984375 45.96875 
Q 11.671875 49.359375 16.75 51.1875 
Q 21.828125 53.03125 28.515625 53.03125 
Q 35.15625 53.03125 39.296875 51.46875 
Q 43.453125 49.90625 45.40625 47.53125 
Q 47.359375 45.171875 48.140625 41.546875 
Q 48.578125 39.3125 48.578125 33.453125 
L 48.578125 21.734375 
Q 48.578125 9.46875 49.140625 6.21875 
Q 49.703125 2.984375 51.375 0 
L 42.1875 0 
Q 40.828125 2.734375 40.4375 6.390625 
z
M 39.703125 26.03125 
Q 34.90625 24.078125 25.34375 22.703125 
Q 19.921875 21.921875 17.671875 20.9375 
Q 15.4375 19.96875 14.203125 18.09375 
Q 12.984375 16.21875 12.984375 13.921875 
Q 12.984375 10.40625 15.640625 8.0625 
Q 18.3125 5.71875 23.4375 5.71875 
Q 28.515625 5.71875 32.46875 7.9375 
Q 36.421875 10.15625 38.28125 14.015625 
Q 39.703125 17 39.703125 22.796875 
z
" id="ArialMT-97"/>
      <path d="M 25.78125 7.859375 
L 27.046875 0.09375 
Q 23.34375 -0.6875 20.40625 -0.6875 
Q 15.625 -0.6875 12.984375 0.828125 
Q 10.359375 2.34375 9.28125 4.8125 
Q 8.203125 7.28125 8.203125 15.1875 
L 8.203125 45.015625 
L 1.765625 45.015625 
L 1.765625 51.859375 
L 8.203125 51.859375 
L 8.203125 64.703125 
L 16.9375 69.96875 
L 16.9375 51.859375 
L 25.78125 51.859375 
L 25.78125 45.015625 
L 16.9375 45.015625 
L 16.9375 14.703125 
Q 16.9375 10.9375 17.40625 9.859375 
Q 17.875 8.796875 18.921875 8.15625 
Q 19.96875 7.515625 21.921875 7.515625 
Q 23.390625 7.515625 25.78125 7.859375 
z
" id="ArialMT-116"/>
      <path d="M 3.328125 25.921875 
Q 3.328125 40.328125 11.328125 47.265625 
Q 18.015625 53.03125 27.640625 53.03125 
Q 38.328125 53.03125 45.109375 46.015625 
Q 51.90625 39.015625 51.90625 26.65625 
Q 51.90625 16.65625 48.90625 10.90625 
Q 45.90625 5.171875 40.15625 2 
Q 34.421875 -1.171875 27.640625 -1.171875 
Q 16.75 -1.171875 10.03125 5.8125 
Q 3.328125 12.796875 3.328125 25.921875 
z
M 12.359375 25.921875 
Q 12.359375 15.96875 16.703125 11.015625 
Q 21.046875 6.0625 27.640625 6.0625 
Q 34.1875 6.0625 38.53125 11.03125 
Q 42.875 16.015625 42.875 26.21875 
Q 42.875 35.84375 38.5 40.796875 
Q 34.125 45.75 27.640625 45.75 
Q 21.046875 45.75 16.703125 40.8125 
Q 12.359375 35.890625 12.359375 25.921875 
z
" id="ArialMT-111"/>
      <path d="M 6.59375 0 
L 6.59375 51.859375 
L 14.5 51.859375 
L 14.5 44.484375 
Q 20.21875 53.03125 31 53.03125 
Q 35.6875 53.03125 39.625 51.34375 
Q 43.5625 49.65625 45.515625 46.921875 
Q 47.46875 44.1875 48.25 40.4375 
Q 48.734375 37.984375 48.734375 31.890625 
L 48.734375 0 
L 39.9375 0 
L 39.9375 31.546875 
Q 39.9375 36.921875 38.90625 39.578125 
Q 37.890625 42.234375 35.28125 43.8125 
Q 32.671875 45.40625 29.15625 45.40625 
Q 23.53125 45.40625 19.453125 41.84375 
Q 15.375 38.28125 15.375 28.328125 
L 15.375 0 
z
" id="ArialMT-110"/>
      <path id="ArialMT-32"/>
      <path d="M 7.859375 0 
L 7.859375 71.578125 
L 39.59375 71.578125 
Q 49.171875 71.578125 54.140625 69.640625 
Q 59.125 67.71875 62.109375 62.828125 
Q 65.09375 57.953125 65.09375 52.046875 
Q 65.09375 44.4375 60.15625 39.203125 
Q 55.21875 33.984375 44.921875 32.5625 
Q 48.6875 30.765625 50.640625 29 
Q 54.78125 25.203125 58.5 19.484375 
L 70.953125 0 
L 59.03125 0 
L 49.5625 14.890625 
Q 45.40625 21.34375 42.71875 24.75 
Q 40.046875 28.171875 37.921875 29.53125 
Q 35.796875 30.90625 33.59375 31.453125 
Q 31.984375 31.78125 28.328125 31.78125 
L 17.328125 31.78125 
L 17.328125 0 
z
M 17.328125 39.984375 
L 37.703125 39.984375 
Q 44.1875 39.984375 47.84375 41.328125 
Q 51.515625 42.671875 53.421875 45.625 
Q 55.328125 48.578125 55.328125 52.046875 
Q 55.328125 57.125 51.640625 60.390625 
Q 47.953125 63.671875 39.984375 63.671875 
L 17.328125 63.671875 
z
" id="ArialMT-82"/>
      <path d="M 42.09375 16.703125 
L 51.171875 15.578125 
Q 49.03125 7.625 43.21875 3.21875 
Q 37.40625 -1.171875 28.375 -1.171875 
Q 17 -1.171875 10.328125 5.828125 
Q 3.65625 12.84375 3.65625 25.484375 
Q 3.65625 38.578125 10.390625 45.796875 
Q 17.140625 53.03125 27.875 53.03125 
Q 38.28125 53.03125 44.875 45.953125 
Q 51.46875 38.875 51.46875 26.03125 
Q 51.46875 25.25 51.421875 23.6875 
L 12.75 23.6875 
Q 13.234375 15.140625 17.578125 10.59375 
Q 21.921875 6.0625 28.421875 6.0625 
Q 33.25 6.0625 36.671875 8.59375 
Q 40.09375 11.140625 42.09375 16.703125 
z
M 13.234375 30.90625 
L 42.1875 30.90625 
Q 41.609375 37.453125 38.875 40.71875 
Q 34.671875 45.796875 27.984375 45.796875 
Q 21.921875 45.796875 17.796875 41.75 
Q 13.671875 37.703125 13.234375 30.90625 
z
" id="ArialMT-101"/>
      <path d="M 3.078125 15.484375 
L 11.765625 16.84375 
Q 12.5 11.625 15.84375 8.84375 
Q 19.1875 6.0625 25.203125 6.0625 
Q 31.25 6.0625 34.171875 8.515625 
Q 37.109375 10.984375 37.109375 14.3125 
Q 37.109375 17.28125 34.515625 19 
Q 32.71875 20.171875 25.53125 21.96875 
Q 15.875 24.421875 12.140625 26.203125 
Q 8.40625 27.984375 6.46875 31.125 
Q 4.546875 34.28125 4.546875 38.09375 
Q 4.546875 41.546875 6.125 44.5 
Q 7.71875 47.46875 10.453125 49.421875 
Q 12.5 50.921875 16.03125 51.96875 
Q 19.578125 53.03125 23.640625 53.03125 
Q 29.734375 53.03125 34.34375 51.265625 
Q 38.96875 49.515625 41.15625 46.5 
Q 43.359375 43.5 44.1875 38.484375 
L 35.59375 37.3125 
Q 35.015625 41.3125 32.203125 43.546875 
Q 29.390625 45.796875 24.265625 45.796875 
Q 18.21875 45.796875 15.625 43.796875 
Q 13.03125 41.796875 13.03125 39.109375 
Q 13.03125 37.40625 14.109375 36.03125 
Q 15.1875 34.625 17.484375 33.6875 
Q 18.796875 33.203125 25.25 31.453125 
Q 34.578125 28.953125 38.25 27.359375 
Q 41.9375 25.78125 44.03125 22.75 
Q 46.140625 19.734375 46.140625 15.234375 
Q 46.140625 10.84375 43.578125 6.953125 
Q 41.015625 3.078125 36.171875 0.953125 
Q 31.34375 -1.171875 25.25 -1.171875 
Q 15.140625 -1.171875 9.84375 3.03125 
Q 4.546875 7.234375 3.078125 15.484375 
z
" id="ArialMT-115"/>
     </defs>
     <g style="fill:#262626;" transform="translate(497.02875 680.798437)scale(0.24 -0.24)">
      <use xlink:href="#ArialMT-83"/>
      <use x="66.699219" xlink:href="#ArialMT-105"/>
      <use x="88.916016" xlink:href="#ArialMT-109"/>
      <use x="172.216797" xlink:href="#ArialMT-117"/>
      <use x="227.832031" xlink:href="#ArialMT-108"/>
      <use x="250.048828" xlink:href="#ArialMT-97"/>
      <use x="305.664062" xlink:href="#ArialMT-116"/>
      <use x="333.447266" xlink:href="#ArialMT-105"/>
      <use x="355.664062" xlink:href="#ArialMT-111"/>
      <use x="411.279297" xlink:href="#ArialMT-110"/>
      <use x="466.894531" xlink:href="#ArialMT-32"/>
      <use x="494.677734" xlink:href="#ArialMT-82"/>
      <use x="566.894531" xlink:href="#ArialMT-101"/>
      <use x="622.509766" xlink:href="#ArialMT-115"/>
      <use x="672.509766" xlink:href="#ArialMT-117"/>
      <use x="728.125" xlink:href="#ArialMT-108"/>
      <use x="750.341797" xlink:href="#ArialMT-116"/>
     </g>
    </g>
   </g>
   <g id="matplotlib.axis_2">
    <g id="ytick_1">
     <g id="line2d_6">
      <path clip-path="url(#pfbb6bb444a)" d="M 144 605.290909 
L 1036.8 605.290909 
" style="fill:none;stroke:#cccccc;stroke-linecap:round;"/>
     </g>
     <g id="text_7">
      <!-- 0.0 -->
      <g style="fill:#262626;" transform="translate(103.92 613.164503)scale(0.22 -0.22)">
       <use xlink:href="#ArialMT-48"/>
       <use x="55.615234" xlink:href="#ArialMT-46"/>
       <use x="83.398438" xlink:href="#ArialMT-48"/>
      </g>
     </g>
    </g>
    <g id="ytick_2">
     <g id="line2d_7">
      <path clip-path="url(#pfbb6bb444a)" d="M 144 532.503195 
L 1036.8 532.503195 
" style="fill:none;stroke:#cccccc;stroke-linecap:round;"/>
     </g>
     <g id="text_8">
      <!-- 0.2 -->
      <g style="fill:#262626;" transform="translate(103.92 540.376789)scale(0.22 -0.22)">
       <use xlink:href="#ArialMT-48"/>
       <use x="55.615234" xlink:href="#ArialMT-46"/>
       <use x="83.398438" xlink:href="#ArialMT-50"/>
      </g>
     </g>
    </g>
    <g id="ytick_3">
     <g id="line2d_8">
      <path clip-path="url(#pfbb6bb444a)" d="M 144 459.715482 
L 1036.8 459.715482 
" style="fill:none;stroke:#cccccc;stroke-linecap:round;"/>
     </g>
     <g id="text_9">
      <!-- 0.4 -->
      <g style="fill:#262626;" transform="translate(103.92 467.589076)scale(0.22 -0.22)">
       <use xlink:href="#ArialMT-48"/>
       <use x="55.615234" xlink:href="#ArialMT-46"/>
       <use x="83.398438" xlink:href="#ArialMT-52"/>
      </g>
     </g>
    </g>
    <g id="ytick_4">
     <g id="line2d_9">
      <path clip-path="url(#pfbb6bb444a)" d="M 144 386.927768 
L 1036.8 386.927768 
" style="fill:none;stroke:#cccccc;stroke-linecap:round;"/>
     </g>
     <g id="text_10">
      <!-- 0.6 -->
      <g style="fill:#262626;" transform="translate(103.92 394.801362)scale(0.22 -0.22)">
       <use xlink:href="#ArialMT-48"/>
       <use x="55.615234" xlink:href="#ArialMT-46"/>
       <use x="83.398438" xlink:href="#ArialMT-54"/>
      </g>
     </g>
    </g>
    <g id="ytick_5">
     <g id="line2d_10">
      <path clip-path="url(#pfbb6bb444a)" d="M 144 314.140055 
L 1036.8 314.140055 
" style="fill:none;stroke:#cccccc;stroke-linecap:round;"/>
     </g>
     <g id="text_11">
      <!-- 0.8 -->
      <g style="fill:#262626;" transform="translate(103.92 322.013648)scale(0.22 -0.22)">
       <use xlink:href="#ArialMT-48"/>
       <use x="55.615234" xlink:href="#ArialMT-46"/>
       <use x="83.398438" xlink:href="#ArialMT-56"/>
      </g>
     </g>
    </g>
    <g id="ytick_6">
     <g id="line2d_11">
      <path clip-path="url(#pfbb6bb444a)" d="M 144 241.352341 
L 1036.8 241.352341 
" style="fill:none;stroke:#cccccc;stroke-linecap:round;"/>
     </g>
     <g id="text_12">
      <!-- 1.0 -->
      <defs>
       <path d="M 37.25 0 
L 28.46875 0 
L 28.46875 56 
Q 25.296875 52.984375 20.140625 49.953125 
Q 14.984375 46.921875 10.890625 45.40625 
L 10.890625 53.90625 
Q 18.265625 57.375 23.78125 62.296875 
Q 29.296875 67.234375 31.59375 71.875 
L 37.25 71.875 
z
" id="ArialMT-49"/>
      </defs>
      <g style="fill:#262626;" transform="translate(103.92 249.225935)scale(0.22 -0.22)">
       <use xlink:href="#ArialMT-49"/>
       <use x="55.615234" xlink:href="#ArialMT-46"/>
       <use x="83.398438" xlink:href="#ArialMT-48"/>
      </g>
     </g>
    </g>
    <g id="ytick_7">
     <g id="line2d_12">
      <path clip-path="url(#pfbb6bb444a)" d="M 144 168.564627 
L 1036.8 168.564627 
" style="fill:none;stroke:#cccccc;stroke-linecap:round;"/>
     </g>
     <g id="text_13">
      <!-- 1.2 -->
      <g style="fill:#262626;" transform="translate(103.92 176.438221)scale(0.22 -0.22)">
       <use xlink:href="#ArialMT-49"/>
       <use x="55.615234" xlink:href="#ArialMT-46"/>
       <use x="83.398438" xlink:href="#ArialMT-50"/>
      </g>
     </g>
    </g>
    <g id="ytick_8">
     <g id="line2d_13">
      <path clip-path="url(#pfbb6bb444a)" d="M 144 95.776914 
L 1036.8 95.776914 
" style="fill:none;stroke:#cccccc;stroke-linecap:round;"/>
     </g>
     <g id="text_14">
      <!-- 1.4 -->
      <g style="fill:#262626;" transform="translate(103.92 103.650507)scale(0.22 -0.22)">
       <use xlink:href="#ArialMT-49"/>
       <use x="55.615234" xlink:href="#ArialMT-46"/>
       <use x="83.398438" xlink:href="#ArialMT-52"/>
      </g>
     </g>
    </g>
    <g id="text_15">
     <!-- Predicted -->
     <defs>
      <path d="M 7.71875 0 
L 7.71875 71.578125 
L 34.71875 71.578125 
Q 41.84375 71.578125 45.609375 70.90625 
Q 50.875 70.015625 54.4375 67.546875 
Q 58.015625 65.09375 60.1875 60.640625 
Q 62.359375 56.203125 62.359375 50.875 
Q 62.359375 41.75 56.546875 35.421875 
Q 50.734375 29.109375 35.546875 29.109375 
L 17.1875 29.109375 
L 17.1875 0 
z
M 17.1875 37.546875 
L 35.6875 37.546875 
Q 44.875 37.546875 48.734375 40.96875 
Q 52.59375 44.390625 52.59375 50.59375 
Q 52.59375 55.078125 50.3125 58.265625 
Q 48.046875 61.46875 44.34375 62.5 
Q 41.9375 63.140625 35.5 63.140625 
L 17.1875 63.140625 
z
" id="ArialMT-80"/>
      <path d="M 6.5 0 
L 6.5 51.859375 
L 14.40625 51.859375 
L 14.40625 44 
Q 17.4375 49.515625 20 51.265625 
Q 22.5625 53.03125 25.640625 53.03125 
Q 30.078125 53.03125 34.671875 50.203125 
L 31.640625 42.046875 
Q 28.421875 43.953125 25.203125 43.953125 
Q 22.3125 43.953125 20.015625 42.21875 
Q 17.71875 40.484375 16.75 37.40625 
Q 15.28125 32.71875 15.28125 27.15625 
L 15.28125 0 
z
" id="ArialMT-114"/>
      <path d="M 40.234375 0 
L 40.234375 6.546875 
Q 35.296875 -1.171875 25.734375 -1.171875 
Q 19.53125 -1.171875 14.328125 2.25 
Q 9.125 5.671875 6.265625 11.796875 
Q 3.421875 17.921875 3.421875 25.875 
Q 3.421875 33.640625 6 39.96875 
Q 8.59375 46.296875 13.765625 49.65625 
Q 18.953125 53.03125 25.34375 53.03125 
Q 30.03125 53.03125 33.6875 51.046875 
Q 37.359375 49.078125 39.65625 45.90625 
L 39.65625 71.578125 
L 48.390625 71.578125 
L 48.390625 0 
z
M 12.453125 25.875 
Q 12.453125 15.921875 16.640625 10.984375 
Q 20.84375 6.0625 26.5625 6.0625 
Q 32.328125 6.0625 36.34375 10.765625 
Q 40.375 15.484375 40.375 25.140625 
Q 40.375 35.796875 36.265625 40.765625 
Q 32.171875 45.75 26.171875 45.75 
Q 20.3125 45.75 16.375 40.96875 
Q 12.453125 36.1875 12.453125 25.875 
z
" id="ArialMT-100"/>
      <path d="M 40.4375 19 
L 49.078125 17.875 
Q 47.65625 8.9375 41.8125 3.875 
Q 35.984375 -1.171875 27.484375 -1.171875 
Q 16.84375 -1.171875 10.375 5.78125 
Q 3.90625 12.75 3.90625 25.734375 
Q 3.90625 34.125 6.6875 40.421875 
Q 9.46875 46.734375 15.15625 49.875 
Q 20.84375 53.03125 27.546875 53.03125 
Q 35.984375 53.03125 41.359375 48.75 
Q 46.734375 44.484375 48.25 36.625 
L 39.703125 35.296875 
Q 38.484375 40.53125 35.375 43.15625 
Q 32.28125 45.796875 27.875 45.796875 
Q 21.234375 45.796875 17.078125 41.03125 
Q 12.9375 36.28125 12.9375 25.984375 
Q 12.9375 15.53125 16.9375 10.796875 
Q 20.953125 6.0625 27.390625 6.0625 
Q 32.5625 6.0625 36.03125 9.234375 
Q 39.5 12.40625 40.4375 19 
z
" id="ArialMT-99"/>
     </defs>
     <g style="fill:#262626;" transform="translate(95.15 408.8925)rotate(-90)scale(0.24 -0.24)">
      <use xlink:href="#ArialMT-80"/>
      <use x="66.699219" xlink:href="#ArialMT-114"/>
      <use x="100" xlink:href="#ArialMT-101"/>
      <use x="155.615234" xlink:href="#ArialMT-100"/>
      <use x="211.230469" xlink:href="#ArialMT-105"/>
      <use x="233.447266" xlink:href="#ArialMT-99"/>
      <use x="283.447266" xlink:href="#ArialMT-116"/>
      <use x="311.230469" xlink:href="#ArialMT-101"/>
      <use x="366.845703" xlink:href="#ArialMT-100"/>
     </g>
    </g>
   </g>
   <g id="line2d_14">
    <defs>
     <path d="M -5 0 
L 5 0 
M 0 5 
L 0 -5 
" id="m73284cc654" style="stroke:#64b5cd;"/>
    </defs>
    <g clip-path="url(#pfbb6bb444a)">
     <use style="fill:#64b5cd;stroke:#64b5cd;" x="374.031386" xlink:href="#m73284cc654" y="507.58452"/>
     <use style="fill:#64b5cd;stroke:#64b5cd;" x="453.715085" xlink:href="#m73284cc654" y="516.186777"/>
     <use style="fill:#64b5cd;stroke:#64b5cd;" x="459.346268" xlink:href="#m73284cc654" y="484.527065"/>
     <use style="fill:#64b5cd;stroke:#64b5cd;" x="232.326154" xlink:href="#m73284cc654" y="523.46837"/>
     <use style="fill:#64b5cd;stroke:#64b5cd;" x="144" xlink:href="#m73284cc654" y="567.051964"/>
     <use style="fill:#64b5cd;stroke:#64b5cd;" x="316.343715" xlink:href="#m73284cc654" y="538.032774"/>
     <use style="fill:#64b5cd;stroke:#64b5cd;" x="801.360709" xlink:href="#m73284cc654" y="409.165863"/>
     <use style="fill:#64b5cd;stroke:#64b5cd;" x="465.186014" xlink:href="#m73284cc654" y="540.394736"/>
     <use style="fill:#64b5cd;stroke:#64b5cd;" x="636.80011" xlink:href="#m73284cc654" y="461.375197"/>
     <use style="fill:#64b5cd;stroke:#64b5cd;" x="501.319441" xlink:href="#m73284cc654" y="480.865445"/>
     <use style="fill:#64b5cd;stroke:#64b5cd;" x="395.595711" xlink:href="#m73284cc654" y="493.775457"/>
     <use style="fill:#64b5cd;stroke:#64b5cd;" x="752.562974" xlink:href="#m73284cc654" y="361.230375"/>
     <use style="fill:#64b5cd;stroke:#64b5cd;" x="426.476299" xlink:href="#m73284cc654" y="549.736361"/>
     <use style="fill:#64b5cd;stroke:#64b5cd;" x="208.237203" xlink:href="#m73284cc654" y="576.70639"/>
     <use style="fill:#64b5cd;stroke:#64b5cd;" x="210.209398" xlink:href="#m73284cc654" y="556.374897"/>
     <use style="fill:#64b5cd;stroke:#64b5cd;" x="301.534093" xlink:href="#m73284cc654" y="560.205399"/>
     <use style="fill:#64b5cd;stroke:#64b5cd;" x="158.051888" xlink:href="#m73284cc654" y="562.809654"/>
     <use style="fill:#64b5cd;stroke:#64b5cd;" x="412.993287" xlink:href="#m73284cc654" y="511.123719"/>
     <use style="fill:#64b5cd;stroke:#64b5cd;" x="920.475467" xlink:href="#m73284cc654" y="469.204184"/>
     <use style="fill:#64b5cd;stroke:#64b5cd;" x="144" xlink:href="#m73284cc654" y="603.71709"/>
     <use style="fill:#64b5cd;stroke:#64b5cd;" x="338.286908" xlink:href="#m73284cc654" y="489.273141"/>
     <use style="fill:#64b5cd;stroke:#64b5cd;" x="761.390894" xlink:href="#m73284cc654" y="466.802885"/>
     <use style="fill:#64b5cd;stroke:#64b5cd;" x="406.662881" xlink:href="#m73284cc654" y="475.908274"/>
     <use style="fill:#64b5cd;stroke:#64b5cd;" x="165.412401" xlink:href="#m73284cc654" y="569.934203"/>
     <use style="fill:#64b5cd;stroke:#64b5cd;" x="213.590303" xlink:href="#m73284cc654" y="541.875081"/>
     <use style="fill:#64b5cd;stroke:#64b5cd;" x="162.59498" xlink:href="#m73284cc654" y="534.321135"/>
     <use style="fill:#64b5cd;stroke:#64b5cd;" x="453.453192" xlink:href="#m73284cc654" y="463.896008"/>
     <use style="fill:#64b5cd;stroke:#64b5cd;" x="759.305791" xlink:href="#m73284cc654" y="421.607818"/>
     <use style="fill:#64b5cd;stroke:#64b5cd;" x="146.67655" xlink:href="#m73284cc654" y="551.230441"/>
     <use style="fill:#64b5cd;stroke:#64b5cd;" x="153.521325" xlink:href="#m73284cc654" y="542.03491"/>
     <use style="fill:#64b5cd;stroke:#64b5cd;" x="644.374001" xlink:href="#m73284cc654" y="442.768998"/>
     <use style="fill:#64b5cd;stroke:#64b5cd;" x="345.090374" xlink:href="#m73284cc654" y="532.04982"/>
     <use style="fill:#64b5cd;stroke:#64b5cd;" x="920.392091" xlink:href="#m73284cc654" y="387.118448"/>
     <use style="fill:#64b5cd;stroke:#64b5cd;" x="233.990614" xlink:href="#m73284cc654" y="533.508364"/>
     <use style="fill:#64b5cd;stroke:#64b5cd;" x="727.720669" xlink:href="#m73284cc654" y="451.765481"/>
     <use style="fill:#64b5cd;stroke:#64b5cd;" x="194.713581" xlink:href="#m73284cc654" y="535.08573"/>
     <use style="fill:#64b5cd;stroke:#64b5cd;" x="308.607832" xlink:href="#m73284cc654" y="531.571909"/>
     <use style="fill:#64b5cd;stroke:#64b5cd;" x="160.059301" xlink:href="#m73284cc654" y="553.299543"/>
     <use style="fill:#64b5cd;stroke:#64b5cd;" x="645.889579" xlink:href="#m73284cc654" y="353.294382"/>
     <use style="fill:#64b5cd;stroke:#64b5cd;" x="428.730459" xlink:href="#m73284cc654" y="503.860887"/>
     <use style="fill:#64b5cd;stroke:#64b5cd;" x="818.490629" xlink:href="#m73284cc654" y="477.665597"/>
     <use style="fill:#64b5cd;stroke:#64b5cd;" x="148.941323" xlink:href="#m73284cc654" y="604.007375"/>
     <use style="fill:#64b5cd;stroke:#64b5cd;" x="349.064917" xlink:href="#m73284cc654" y="547.560323"/>
     <use style="fill:#64b5cd;stroke:#64b5cd;" x="531.376375" xlink:href="#m73284cc654" y="497.971525"/>
     <use style="fill:#64b5cd;stroke:#64b5cd;" x="617.400255" xlink:href="#m73284cc654" y="528.982123"/>
     <use style="fill:#64b5cd;stroke:#64b5cd;" x="274.799734" xlink:href="#m73284cc654" y="525.438012"/>
     <use style="fill:#64b5cd;stroke:#64b5cd;" x="186.824802" xlink:href="#m73284cc654" y="583.909618"/>
     <use style="fill:#64b5cd;stroke:#64b5cd;" x="546.829427" xlink:href="#m73284cc654" y="551.029184"/>
     <use style="fill:#64b5cd;stroke:#64b5cd;" x="287.589042" xlink:href="#m73284cc654" y="512.110893"/>
     <use style="fill:#64b5cd;stroke:#64b5cd;" x="144" xlink:href="#m73284cc654" y="604.874112"/>
     <use style="fill:#64b5cd;stroke:#64b5cd;" x="347.94965" xlink:href="#m73284cc654" y="577.116375"/>
     <use style="fill:#64b5cd;stroke:#64b5cd;" x="162.353487" xlink:href="#m73284cc654" y="598.170868"/>
     <use style="fill:#64b5cd;stroke:#64b5cd;" x="525.050506" xlink:href="#m73284cc654" y="469.654576"/>
     <use style="fill:#64b5cd;stroke:#64b5cd;" x="188.816653" xlink:href="#m73284cc654" y="582.473537"/>
     <use style="fill:#64b5cd;stroke:#64b5cd;" x="196.470982" xlink:href="#m73284cc654" y="526.604371"/>
     <use style="fill:#64b5cd;stroke:#64b5cd;" x="802.715564" xlink:href="#m73284cc654" y="439.123833"/>
     <use style="fill:#64b5cd;stroke:#64b5cd;" x="488.994208" xlink:href="#m73284cc654" y="461.974886"/>
     <use style="fill:#64b5cd;stroke:#64b5cd;" x="243.072303" xlink:href="#m73284cc654" y="487.251434"/>
     <use style="fill:#64b5cd;stroke:#64b5cd;" x="497.304615" xlink:href="#m73284cc654" y="462.684182"/>
     <use style="fill:#64b5cd;stroke:#64b5cd;" x="589.609425" xlink:href="#m73284cc654" y="399.373439"/>
     <use style="fill:#64b5cd;stroke:#64b5cd;" x="268.33007" xlink:href="#m73284cc654" y="511.448215"/>
     <use style="fill:#64b5cd;stroke:#64b5cd;" x="204.458544" xlink:href="#m73284cc654" y="535.083623"/>
     <use style="fill:#64b5cd;stroke:#64b5cd;" x="176.958726" xlink:href="#m73284cc654" y="592.663833"/>
     <use style="fill:#64b5cd;stroke:#64b5cd;" x="257.650436" xlink:href="#m73284cc654" y="566.356894"/>
     <use style="fill:#64b5cd;stroke:#64b5cd;" x="513.155354" xlink:href="#m73284cc654" y="456.781267"/>
     <use style="fill:#64b5cd;stroke:#64b5cd;" x="316.946315" xlink:href="#m73284cc654" y="512.86471"/>
     <use style="fill:#64b5cd;stroke:#64b5cd;" x="557.763159" xlink:href="#m73284cc654" y="442.295279"/>
     <use style="fill:#64b5cd;stroke:#64b5cd;" x="165.452127" xlink:href="#m73284cc654" y="563.319289"/>
     <use style="fill:#64b5cd;stroke:#64b5cd;" x="473.337943" xlink:href="#m73284cc654" y="518.007525"/>
     <use style="fill:#64b5cd;stroke:#64b5cd;" x="525.408392" xlink:href="#m73284cc654" y="428.814271"/>
     <use style="fill:#64b5cd;stroke:#64b5cd;" x="708.082937" xlink:href="#m73284cc654" y="434.308558"/>
     <use style="fill:#64b5cd;stroke:#64b5cd;" x="713.448325" xlink:href="#m73284cc654" y="406.714144"/>
     <use style="fill:#64b5cd;stroke:#64b5cd;" x="683.293726" xlink:href="#m73284cc654" y="434.640884"/>
     <use style="fill:#64b5cd;stroke:#64b5cd;" x="488.127872" xlink:href="#m73284cc654" y="529.252896"/>
     <use style="fill:#64b5cd;stroke:#64b5cd;" x="291.745566" xlink:href="#m73284cc654" y="486.295848"/>
     <use style="fill:#64b5cd;stroke:#64b5cd;" x="327.534865" xlink:href="#m73284cc654" y="485.439909"/>
     <use style="fill:#64b5cd;stroke:#64b5cd;" x="303.196546" xlink:href="#m73284cc654" y="464.3326"/>
     <use style="fill:#64b5cd;stroke:#64b5cd;" x="1002.280404" xlink:href="#m73284cc654" y="437.275847"/>
     <use style="fill:#64b5cd;stroke:#64b5cd;" x="791.594565" xlink:href="#m73284cc654" y="393.205413"/>
     <use style="fill:#64b5cd;stroke:#64b5cd;" x="338.65819" xlink:href="#m73284cc654" y="570.706946"/>
     <use style="fill:#64b5cd;stroke:#64b5cd;" x="243.453537" xlink:href="#m73284cc654" y="550.565482"/>
     <use style="fill:#64b5cd;stroke:#64b5cd;" x="920.514422" xlink:href="#m73284cc654" y="349.485135"/>
     <use style="fill:#64b5cd;stroke:#64b5cd;" x="394.525091" xlink:href="#m73284cc654" y="537.822664"/>
     <use style="fill:#64b5cd;stroke:#64b5cd;" x="282.357052" xlink:href="#m73284cc654" y="565.289861"/>
     <use style="fill:#64b5cd;stroke:#64b5cd;" x="617.749371" xlink:href="#m73284cc654" y="485.758686"/>
     <use style="fill:#64b5cd;stroke:#64b5cd;" x="173.64794" xlink:href="#m73284cc654" y="554.609343"/>
     <use style="fill:#64b5cd;stroke:#64b5cd;" x="245.511968" xlink:href="#m73284cc654" y="545.3742"/>
     <use style="fill:#64b5cd;stroke:#64b5cd;" x="596.830925" xlink:href="#m73284cc654" y="542.093392"/>
     <use style="fill:#64b5cd;stroke:#64b5cd;" x="225.396456" xlink:href="#m73284cc654" y="530.040079"/>
     <use style="fill:#64b5cd;stroke:#64b5cd;" x="792.211774" xlink:href="#m73284cc654" y="448.821714"/>
     <use style="fill:#64b5cd;stroke:#64b5cd;" x="443.773613" xlink:href="#m73284cc654" y="504.394158"/>
     <use style="fill:#64b5cd;stroke:#64b5cd;" x="301.960335" xlink:href="#m73284cc654" y="549.962457"/>
     <use style="fill:#64b5cd;stroke:#64b5cd;" x="873.859263" xlink:href="#m73284cc654" y="442.121881"/>
     <use style="fill:#64b5cd;stroke:#64b5cd;" x="255.05945" xlink:href="#m73284cc654" y="535.707374"/>
     <use style="fill:#64b5cd;stroke:#64b5cd;" x="720.122171" xlink:href="#m73284cc654" y="385.416122"/>
     <use style="fill:#64b5cd;stroke:#64b5cd;" x="258.199472" xlink:href="#m73284cc654" y="568.143635"/>
     <use style="fill:#64b5cd;stroke:#64b5cd;" x="857.454179" xlink:href="#m73284cc654" y="405.229207"/>
     <use style="fill:#64b5cd;stroke:#64b5cd;" x="575.593706" xlink:href="#m73284cc654" y="415.566236"/>
     <use style="fill:#64b5cd;stroke:#64b5cd;" x="609.760793" xlink:href="#m73284cc654" y="476.720125"/>
     <use style="fill:#64b5cd;stroke:#64b5cd;" x="144" xlink:href="#m73284cc654" y="597.231465"/>
     <use style="fill:#64b5cd;stroke:#64b5cd;" x="554.404351" xlink:href="#m73284cc654" y="444.430612"/>
     <use style="fill:#64b5cd;stroke:#64b5cd;" x="287.463086" xlink:href="#m73284cc654" y="490.559064"/>
     <use style="fill:#64b5cd;stroke:#64b5cd;" x="176.118601" xlink:href="#m73284cc654" y="559.429261"/>
     <use style="fill:#64b5cd;stroke:#64b5cd;" x="1014.583143" xlink:href="#m73284cc654" y="371.661877"/>
     <use style="fill:#64b5cd;stroke:#64b5cd;" x="748.265213" xlink:href="#m73284cc654" y="509.39893"/>
     <use style="fill:#64b5cd;stroke:#64b5cd;" x="199.672242" xlink:href="#m73284cc654" y="539.128461"/>
     <use style="fill:#64b5cd;stroke:#64b5cd;" x="619.74169" xlink:href="#m73284cc654" y="350.787497"/>
     <use style="fill:#64b5cd;stroke:#64b5cd;" x="925.00896" xlink:href="#m73284cc654" y="222.152404"/>
     <use style="fill:#64b5cd;stroke:#64b5cd;" x="167.358983" xlink:href="#m73284cc654" y="497.673078"/>
     <use style="fill:#64b5cd;stroke:#64b5cd;" x="515.620181" xlink:href="#m73284cc654" y="438.584919"/>
     <use style="fill:#64b5cd;stroke:#64b5cd;" x="345.471227" xlink:href="#m73284cc654" y="448.357614"/>
     <use style="fill:#64b5cd;stroke:#64b5cd;" x="244.699713" xlink:href="#m73284cc654" y="578.767529"/>
     <use style="fill:#64b5cd;stroke:#64b5cd;" x="343.637818" xlink:href="#m73284cc654" y="518.090783"/>
     <use style="fill:#64b5cd;stroke:#64b5cd;" x="183.734352" xlink:href="#m73284cc654" y="600.445281"/>
     <use style="fill:#64b5cd;stroke:#64b5cd;" x="206.095963" xlink:href="#m73284cc654" y="589.934368"/>
     <use style="fill:#64b5cd;stroke:#64b5cd;" x="187.170163" xlink:href="#m73284cc654" y="503.940608"/>
     <use style="fill:#64b5cd;stroke:#64b5cd;" x="280.031724" xlink:href="#m73284cc654" y="548.076446"/>
     <use style="fill:#64b5cd;stroke:#64b5cd;" x="675.964336" xlink:href="#m73284cc654" y="180.972981"/>
     <use style="fill:#64b5cd;stroke:#64b5cd;" x="634.343981" xlink:href="#m73284cc654" y="450.204648"/>
     <use style="fill:#64b5cd;stroke:#64b5cd;" x="236.577145" xlink:href="#m73284cc654" y="552.712999"/>
     <use style="fill:#64b5cd;stroke:#64b5cd;" x="541.658874" xlink:href="#m73284cc654" y="448.07457"/>
     <use style="fill:#64b5cd;stroke:#64b5cd;" x="702.369532" xlink:href="#m73284cc654" y="435.583438"/>
     <use style="fill:#64b5cd;stroke:#64b5cd;" x="691.00801" xlink:href="#m73284cc654" y="397.71157"/>
     <use style="fill:#64b5cd;stroke:#64b5cd;" x="197.531002" xlink:href="#m73284cc654" y="549.107828"/>
     <use style="fill:#64b5cd;stroke:#64b5cd;" x="656.199723" xlink:href="#m73284cc654" y="348.738401"/>
     <use style="fill:#64b5cd;stroke:#64b5cd;" x="226.590689" xlink:href="#m73284cc654" y="545.391338"/>
     <use style="fill:#64b5cd;stroke:#64b5cd;" x="144" xlink:href="#m73284cc654" y="586.062702"/>
     <use style="fill:#64b5cd;stroke:#64b5cd;" x="919.434805" xlink:href="#m73284cc654" y="292.495736"/>
     <use style="fill:#64b5cd;stroke:#64b5cd;" x="240.545108" xlink:href="#m73284cc654" y="548.493926"/>
     <use style="fill:#64b5cd;stroke:#64b5cd;" x="144" xlink:href="#m73284cc654" y="601.856996"/>
     <use style="fill:#64b5cd;stroke:#64b5cd;" x="1021.908438" xlink:href="#m73284cc654" y="413.553042"/>
     <use style="fill:#64b5cd;stroke:#64b5cd;" x="749.873617" xlink:href="#m73284cc654" y="407.313207"/>
     <use style="fill:#64b5cd;stroke:#64b5cd;" x="305.119541" xlink:href="#m73284cc654" y="529.981312"/>
     <use style="fill:#64b5cd;stroke:#64b5cd;" x="786.372028" xlink:href="#m73284cc654" y="276.351465"/>
     <use style="fill:#64b5cd;stroke:#64b5cd;" x="260.626622" xlink:href="#m73284cc654" y="542.543058"/>
     <use style="fill:#64b5cd;stroke:#64b5cd;" x="144" xlink:href="#m73284cc654" y="568.246118"/>
     <use style="fill:#64b5cd;stroke:#64b5cd;" x="144" xlink:href="#m73284cc654" y="604.192038"/>
     <use style="fill:#64b5cd;stroke:#64b5cd;" x="336.711608" xlink:href="#m73284cc654" y="536.937729"/>
     <use style="fill:#64b5cd;stroke:#64b5cd;" x="171.177278" xlink:href="#m73284cc654" y="572.200152"/>
     <use style="fill:#64b5cd;stroke:#64b5cd;" x="217.68385" xlink:href="#m73284cc654" y="509.290527"/>
     <use style="fill:#64b5cd;stroke:#64b5cd;" x="186.824802" xlink:href="#m73284cc654" y="603.930373"/>
     <use style="fill:#64b5cd;stroke:#64b5cd;" x="426.937109" xlink:href="#m73284cc654" y="535.436447"/>
     <use style="fill:#64b5cd;stroke:#64b5cd;" x="368.83021" xlink:href="#m73284cc654" y="574.275836"/>
     <use style="fill:#64b5cd;stroke:#64b5cd;" x="501.319441" xlink:href="#m73284cc654" y="529.034364"/>
     <use style="fill:#64b5cd;stroke:#64b5cd;" x="400.73216" xlink:href="#m73284cc654" y="429.594197"/>
     <use style="fill:#64b5cd;stroke:#64b5cd;" x="365.61835" xlink:href="#m73284cc654" y="494.56698"/>
     <use style="fill:#64b5cd;stroke:#64b5cd;" x="940.386526" xlink:href="#m73284cc654" y="305.825564"/>
     <use style="fill:#64b5cd;stroke:#64b5cd;" x="222.028241" xlink:href="#m73284cc654" y="543.302349"/>
     <use style="fill:#64b5cd;stroke:#64b5cd;" x="710.286372" xlink:href="#m73284cc654" y="521.085123"/>
     <use style="fill:#64b5cd;stroke:#64b5cd;" x="174.111189" xlink:href="#m73284cc654" y="584.800252"/>
    </g>
   </g>
   <g id="line2d_15">
    <defs>
     <path d="M -5 0 
L 5 0 
M 0 5 
L 0 -5 
" id="mbaf45b06b0" style="stroke:#8172b3;"/>
    </defs>
    <g clip-path="url(#pfbb6bb444a)">
     <use style="fill:#8172b3;stroke:#8172b3;" x="431.230474" xlink:href="#mbaf45b06b0" y="429.95917"/>
     <use style="fill:#8172b3;stroke:#8172b3;" x="325.233488" xlink:href="#mbaf45b06b0" y="526.995148"/>
     <use style="fill:#8172b3;stroke:#8172b3;" x="144" xlink:href="#mbaf45b06b0" y="582.302765"/>
     <use style="fill:#8172b3;stroke:#8172b3;" x="656.226022" xlink:href="#mbaf45b06b0" y="455.612038"/>
     <use style="fill:#8172b3;stroke:#8172b3;" x="697.607893" xlink:href="#mbaf45b06b0" y="313.947011"/>
     <use style="fill:#8172b3;stroke:#8172b3;" x="144" xlink:href="#mbaf45b06b0" y="563.903748"/>
     <use style="fill:#8172b3;stroke:#8172b3;" x="217.413946" xlink:href="#mbaf45b06b0" y="600.322384"/>
     <use style="fill:#8172b3;stroke:#8172b3;" x="724.605487" xlink:href="#mbaf45b06b0" y="461.89935"/>
     <use style="fill:#8172b3;stroke:#8172b3;" x="494.798909" xlink:href="#mbaf45b06b0" y="473.319761"/>
     <use style="fill:#8172b3;stroke:#8172b3;" x="726.14965" xlink:href="#mbaf45b06b0" y="464.567527"/>
     <use style="fill:#8172b3;stroke:#8172b3;" x="148.014825" xlink:href="#mbaf45b06b0" y="541.52878"/>
     <use style="fill:#8172b3;stroke:#8172b3;" x="585.065301" xlink:href="#mbaf45b06b0" y="524.709908"/>
     <use style="fill:#8172b3;stroke:#8172b3;" x="255.47044" xlink:href="#mbaf45b06b0" y="497.707241"/>
     <use style="fill:#8172b3;stroke:#8172b3;" x="516.841726" xlink:href="#mbaf45b06b0" y="566.970729"/>
     <use style="fill:#8172b3;stroke:#8172b3;" x="254.619956" xlink:href="#mbaf45b06b0" y="591.591386"/>
     <use style="fill:#8172b3;stroke:#8172b3;" x="176.118601" xlink:href="#mbaf45b06b0" y="595.539771"/>
     <use style="fill:#8172b3;stroke:#8172b3;" x="611.854772" xlink:href="#mbaf45b06b0" y="413.66102"/>
     <use style="fill:#8172b3;stroke:#8172b3;" x="194.854452" xlink:href="#mbaf45b06b0" y="528.843776"/>
     <use style="fill:#8172b3;stroke:#8172b3;" x="202.884103" xlink:href="#mbaf45b06b0" y="596.722657"/>
     <use style="fill:#8172b3;stroke:#8172b3;" x="712.097762" xlink:href="#mbaf45b06b0" y="456.828913"/>
     <use style="fill:#8172b3;stroke:#8172b3;" x="185.069687" xlink:href="#mbaf45b06b0" y="462.496842"/>
     <use style="fill:#8172b3;stroke:#8172b3;" x="292.011988" xlink:href="#mbaf45b06b0" y="506.770825"/>
     <use style="fill:#8172b3;stroke:#8172b3;" x="145.603258" xlink:href="#mbaf45b06b0" y="547.140048"/>
     <use style="fill:#8172b3;stroke:#8172b3;" x="439.08965" xlink:href="#mbaf45b06b0" y="536.917912"/>
     <use style="fill:#8172b3;stroke:#8172b3;" x="406.975329" xlink:href="#mbaf45b06b0" y="570.142022"/>
     <use style="fill:#8172b3;stroke:#8172b3;" x="165.899046" xlink:href="#mbaf45b06b0" y="573.148856"/>
     <use style="fill:#8172b3;stroke:#8172b3;" x="174.111189" xlink:href="#mbaf45b06b0" y="596.458941"/>
     <use style="fill:#8172b3;stroke:#8172b3;" x="1026.316874" xlink:href="#mbaf45b06b0" y="256.065913"/>
     <use style="fill:#8172b3;stroke:#8172b3;" x="1017.041983" xlink:href="#mbaf45b06b0" y="357.775391"/>
     <use style="fill:#8172b3;stroke:#8172b3;" x="1008.525688" xlink:href="#mbaf45b06b0" y="464.965941"/>
     <use style="fill:#8172b3;stroke:#8172b3;" x="348.47598" xlink:href="#mbaf45b06b0" y="533.052326"/>
     <use style="fill:#8172b3;stroke:#8172b3;" x="368.83021" xlink:href="#mbaf45b06b0" y="554.454979"/>
     <use style="fill:#8172b3;stroke:#8172b3;" x="570.189134" xlink:href="#mbaf45b06b0" y="461.031357"/>
     <use style="fill:#8172b3;stroke:#8172b3;" x="331.250146" xlink:href="#mbaf45b06b0" y="493.479572"/>
     <use style="fill:#8172b3;stroke:#8172b3;" x="498.886474" xlink:href="#mbaf45b06b0" y="513.657892"/>
     <use style="fill:#8172b3;stroke:#8172b3;" x="171.741594" xlink:href="#mbaf45b06b0" y="603.568938"/>
     <use style="fill:#8172b3;stroke:#8172b3;" x="690.016224" xlink:href="#mbaf45b06b0" y="428.466087"/>
     <use style="fill:#8172b3;stroke:#8172b3;" x="315.451609" xlink:href="#mbaf45b06b0" y="491.213471"/>
     <use style="fill:#8172b3;stroke:#8172b3;" x="231.411384" xlink:href="#mbaf45b06b0" y="524.167455"/>
     <use style="fill:#8172b3;stroke:#8172b3;" x="294.436927" xlink:href="#mbaf45b06b0" y="505.331467"/>
     <use style="fill:#8172b3;stroke:#8172b3;" x="727.076148" xlink:href="#mbaf45b06b0" y="326.97336"/>
     <use style="fill:#8172b3;stroke:#8172b3;" x="170.765501" xlink:href="#mbaf45b06b0" y="567.009018"/>
     <use style="fill:#8172b3;stroke:#8172b3;" x="924.346302" xlink:href="#mbaf45b06b0" y="176.04124"/>
     <use style="fill:#8172b3;stroke:#8172b3;" x="233.218337" xlink:href="#mbaf45b06b0" y="478.032315"/>
     <use style="fill:#8172b3;stroke:#8172b3;" x="144" xlink:href="#mbaf45b06b0" y="540.264138"/>
     <use style="fill:#8172b3;stroke:#8172b3;" x="500.737138" xlink:href="#mbaf45b06b0" y="568.992245"/>
     <use style="fill:#8172b3;stroke:#8172b3;" x="348.222321" xlink:href="#mbaf45b06b0" y="543.179437"/>
     <use style="fill:#8172b3;stroke:#8172b3;" x="1036.8" xlink:href="#mbaf45b06b0" y="111.109091"/>
     <use style="fill:#8172b3;stroke:#8172b3;" x="433.067413" xlink:href="#mbaf45b06b0" y="431.072822"/>
     <use style="fill:#8172b3;stroke:#8172b3;" x="876.888086" xlink:href="#mbaf45b06b0" y="380.411044"/>
    </g>
   </g>
   <g id="line2d_16">
    <path clip-path="url(#pfbb6bb444a)" d="M 144 605.290909 
L 1036.8 268.077851 
" style="fill:none;stroke:#c44e52;stroke-linecap:round;stroke-width:1.5;"/>
   </g>
   <g id="patch_3">
    <path d="M 144 630 
L 144 86.4 
" style="fill:none;stroke:#cccccc;stroke-linecap:square;stroke-linejoin:miter;stroke-width:1.25;"/>
   </g>
   <g id="patch_4">
    <path d="M 1036.8 630 
L 1036.8 86.4 
" style="fill:none;stroke:#cccccc;stroke-linecap:square;stroke-linejoin:miter;stroke-width:1.25;"/>
   </g>
   <g id="patch_5">
    <path d="M 144 630 
L 1036.8 630 
" style="fill:none;stroke:#cccccc;stroke-linecap:square;stroke-linejoin:miter;stroke-width:1.25;"/>
   </g>
   <g id="patch_6">
    <path d="M 144 86.4 
L 1036.8 86.4 
" style="fill:none;stroke:#cccccc;stroke-linecap:square;stroke-linejoin:miter;stroke-width:1.25;"/>
   </g>
  </g>
 </g>
 <defs>
  <clipPath id="pfbb6bb444a">
   <rect height="543.6" width="892.8" x="144" y="86.4"/>
  </clipPath>
 </defs>
</svg>
