<?xml version="1.0" encoding="utf-8" standalone="no"?>
<!DOCTYPE svg PUBLIC "-//W3C//DTD SVG 1.1//EN"
  "http://www.w3.org/Graphics/SVG/1.1/DTD/svg11.dtd">
<!-- Created with matplotlib (https://matplotlib.org/) -->
<svg height="288pt" version="1.1" viewBox="0 0 432 288" width="432pt" xmlns="http://www.w3.org/2000/svg" xmlns:xlink="http://www.w3.org/1999/xlink">
 <defs>
  <style type="text/css">
*{stroke-linecap:butt;stroke-linejoin:round;}
  </style>
 </defs>
 <g id="figure_1">
  <g id="patch_1">
   <path d="M 0 288 
L 432 288 
L 432 0 
L 0 0 
z
" style="fill:#ffffff;"/>
  </g>
  <g id="axes_1">
   <g id="patch_2">
    <path d="M 54 252 
L 388.8 252 
L 388.8 34.56 
L 54 34.56 
z
" style="fill:#ffffff;"/>
   </g>
   <g id="matplotlib.axis_1">
    <g id="xtick_1">
     <g id="line2d_1">
      <path clip-path="url(#p8d7162f5e2)" d="M 71.229462 252 
L 71.229462 34.56 
" style="fill:none;stroke:#cccccc;stroke-linecap:round;"/>
     </g>
     <g id="text_1">
      <!-- 0.0 -->
      <defs>
       <path d="M 4.15625 35.296875 
Q 4.15625 48 6.765625 55.734375 
Q 9.375 63.484375 14.515625 67.671875 
Q 19.671875 71.875 27.484375 71.875 
Q 33.25 71.875 37.59375 69.546875 
Q 41.9375 67.234375 44.765625 62.859375 
Q 47.609375 58.5 49.21875 52.21875 
Q 50.828125 45.953125 50.828125 35.296875 
Q 50.828125 22.703125 48.234375 14.96875 
Q 45.65625 7.234375 40.5 3 
Q 35.359375 -1.21875 27.484375 -1.21875 
Q 17.140625 -1.21875 11.234375 6.203125 
Q 4.15625 15.140625 4.15625 35.296875 
z
M 13.1875 35.296875 
Q 13.1875 17.671875 17.3125 11.828125 
Q 21.4375 6 27.484375 6 
Q 33.546875 6 37.671875 11.859375 
Q 41.796875 17.71875 41.796875 35.296875 
Q 41.796875 52.984375 37.671875 58.78125 
Q 33.546875 64.59375 27.390625 64.59375 
Q 21.34375 64.59375 17.71875 59.46875 
Q 13.1875 52.9375 13.1875 35.296875 
z
" id="ArialMT-48"/>
       <path d="M 9.078125 0 
L 9.078125 10.015625 
L 19.09375 10.015625 
L 19.09375 0 
z
" id="ArialMT-46"/>
      </defs>
      <g style="fill:#262626;" transform="translate(55.939462 277.247187)scale(0.22 -0.22)">
       <use xlink:href="#ArialMT-48"/>
       <use x="55.615234" xlink:href="#ArialMT-46"/>
       <use x="83.398438" xlink:href="#ArialMT-48"/>
      </g>
     </g>
    </g>
    <g id="xtick_2">
     <g id="line2d_2">
      <path clip-path="url(#p8d7162f5e2)" d="M 199.90472 252 
L 199.90472 34.56 
" style="fill:none;stroke:#cccccc;stroke-linecap:round;"/>
     </g>
     <g id="text_2">
      <!-- 0.5 -->
      <defs>
       <path d="M 4.15625 18.75 
L 13.375 19.53125 
Q 14.40625 12.796875 18.140625 9.390625 
Q 21.875 6 27.15625 6 
Q 33.5 6 37.890625 10.78125 
Q 42.28125 15.578125 42.28125 23.484375 
Q 42.28125 31 38.0625 35.34375 
Q 33.84375 39.703125 27 39.703125 
Q 22.75 39.703125 19.328125 37.765625 
Q 15.921875 35.84375 13.96875 32.765625 
L 5.71875 33.84375 
L 12.640625 70.609375 
L 48.25 70.609375 
L 48.25 62.203125 
L 19.671875 62.203125 
L 15.828125 42.96875 
Q 22.265625 47.46875 29.34375 47.46875 
Q 38.71875 47.46875 45.15625 40.96875 
Q 51.609375 34.46875 51.609375 24.265625 
Q 51.609375 14.546875 45.953125 7.46875 
Q 39.0625 -1.21875 27.15625 -1.21875 
Q 17.390625 -1.21875 11.203125 4.25 
Q 5.03125 9.71875 4.15625 18.75 
z
" id="ArialMT-53"/>
      </defs>
      <g style="fill:#262626;" transform="translate(184.61472 277.247187)scale(0.22 -0.22)">
       <use xlink:href="#ArialMT-48"/>
       <use x="55.615234" xlink:href="#ArialMT-46"/>
       <use x="83.398438" xlink:href="#ArialMT-53"/>
      </g>
     </g>
    </g>
    <g id="xtick_3">
     <g id="line2d_3">
      <path clip-path="url(#p8d7162f5e2)" d="M 328.579979 252 
L 328.579979 34.56 
" style="fill:none;stroke:#cccccc;stroke-linecap:round;"/>
     </g>
     <g id="text_3">
      <!-- 1.0 -->
      <defs>
       <path d="M 37.25 0 
L 28.46875 0 
L 28.46875 56 
Q 25.296875 52.984375 20.140625 49.953125 
Q 14.984375 46.921875 10.890625 45.40625 
L 10.890625 53.90625 
Q 18.265625 57.375 23.78125 62.296875 
Q 29.296875 67.234375 31.59375 71.875 
L 37.25 71.875 
z
" id="ArialMT-49"/>
      </defs>
      <g style="fill:#262626;" transform="translate(313.289979 277.247187)scale(0.22 -0.22)">
       <use xlink:href="#ArialMT-49"/>
       <use x="55.615234" xlink:href="#ArialMT-46"/>
       <use x="83.398438" xlink:href="#ArialMT-48"/>
      </g>
     </g>
    </g>
    <g id="text_4">
     <!-- Fitted values -->
     <defs>
      <path d="M 8.203125 0 
L 8.203125 71.578125 
L 56.5 71.578125 
L 56.5 63.140625 
L 17.671875 63.140625 
L 17.671875 40.96875 
L 51.265625 40.96875 
L 51.265625 32.515625 
L 17.671875 32.515625 
L 17.671875 0 
z
" id="ArialMT-70"/>
      <path d="M 6.640625 61.46875 
L 6.640625 71.578125 
L 15.4375 71.578125 
L 15.4375 61.46875 
z
M 6.640625 0 
L 6.640625 51.859375 
L 15.4375 51.859375 
L 15.4375 0 
z
" id="ArialMT-105"/>
      <path d="M 25.78125 7.859375 
L 27.046875 0.09375 
Q 23.34375 -0.6875 20.40625 -0.6875 
Q 15.625 -0.6875 12.984375 0.828125 
Q 10.359375 2.34375 9.28125 4.8125 
Q 8.203125 7.28125 8.203125 15.1875 
L 8.203125 45.015625 
L 1.765625 45.015625 
L 1.765625 51.859375 
L 8.203125 51.859375 
L 8.203125 64.703125 
L 16.9375 69.96875 
L 16.9375 51.859375 
L 25.78125 51.859375 
L 25.78125 45.015625 
L 16.9375 45.015625 
L 16.9375 14.703125 
Q 16.9375 10.9375 17.40625 9.859375 
Q 17.875 8.796875 18.921875 8.15625 
Q 19.96875 7.515625 21.921875 7.515625 
Q 23.390625 7.515625 25.78125 7.859375 
z
" id="ArialMT-116"/>
      <path d="M 42.09375 16.703125 
L 51.171875 15.578125 
Q 49.03125 7.625 43.21875 3.21875 
Q 37.40625 -1.171875 28.375 -1.171875 
Q 17 -1.171875 10.328125 5.828125 
Q 3.65625 12.84375 3.65625 25.484375 
Q 3.65625 38.578125 10.390625 45.796875 
Q 17.140625 53.03125 27.875 53.03125 
Q 38.28125 53.03125 44.875 45.953125 
Q 51.46875 38.875 51.46875 26.03125 
Q 51.46875 25.25 51.421875 23.6875 
L 12.75 23.6875 
Q 13.234375 15.140625 17.578125 10.59375 
Q 21.921875 6.0625 28.421875 6.0625 
Q 33.25 6.0625 36.671875 8.59375 
Q 40.09375 11.140625 42.09375 16.703125 
z
M 13.234375 30.90625 
L 42.1875 30.90625 
Q 41.609375 37.453125 38.875 40.71875 
Q 34.671875 45.796875 27.984375 45.796875 
Q 21.921875 45.796875 17.796875 41.75 
Q 13.671875 37.703125 13.234375 30.90625 
z
" id="ArialMT-101"/>
      <path d="M 40.234375 0 
L 40.234375 6.546875 
Q 35.296875 -1.171875 25.734375 -1.171875 
Q 19.53125 -1.171875 14.328125 2.25 
Q 9.125 5.671875 6.265625 11.796875 
Q 3.421875 17.921875 3.421875 25.875 
Q 3.421875 33.640625 6 39.96875 
Q 8.59375 46.296875 13.765625 49.65625 
Q 18.953125 53.03125 25.34375 53.03125 
Q 30.03125 53.03125 33.6875 51.046875 
Q 37.359375 49.078125 39.65625 45.90625 
L 39.65625 71.578125 
L 48.390625 71.578125 
L 48.390625 0 
z
M 12.453125 25.875 
Q 12.453125 15.921875 16.640625 10.984375 
Q 20.84375 6.0625 26.5625 6.0625 
Q 32.328125 6.0625 36.34375 10.765625 
Q 40.375 15.484375 40.375 25.140625 
Q 40.375 35.796875 36.265625 40.765625 
Q 32.171875 45.75 26.171875 45.75 
Q 20.3125 45.75 16.375 40.96875 
Q 12.453125 36.1875 12.453125 25.875 
z
" id="ArialMT-100"/>
      <path id="ArialMT-32"/>
      <path d="M 21 0 
L 1.265625 51.859375 
L 10.546875 51.859375 
L 21.6875 20.796875 
Q 23.484375 15.765625 25 10.359375 
Q 26.171875 14.453125 28.265625 20.21875 
L 39.796875 51.859375 
L 48.828125 51.859375 
L 29.203125 0 
z
" id="ArialMT-118"/>
      <path d="M 40.4375 6.390625 
Q 35.546875 2.25 31.03125 0.53125 
Q 26.515625 -1.171875 21.34375 -1.171875 
Q 12.796875 -1.171875 8.203125 3 
Q 3.609375 7.171875 3.609375 13.671875 
Q 3.609375 17.484375 5.34375 20.625 
Q 7.078125 23.78125 9.890625 25.6875 
Q 12.703125 27.59375 16.21875 28.5625 
Q 18.796875 29.25 24.03125 29.890625 
Q 34.671875 31.15625 39.703125 32.90625 
Q 39.75 34.71875 39.75 35.203125 
Q 39.75 40.578125 37.25 42.78125 
Q 33.890625 45.75 27.25 45.75 
Q 21.046875 45.75 18.09375 43.578125 
Q 15.140625 41.40625 13.71875 35.890625 
L 5.125 37.0625 
Q 6.296875 42.578125 8.984375 45.96875 
Q 11.671875 49.359375 16.75 51.1875 
Q 21.828125 53.03125 28.515625 53.03125 
Q 35.15625 53.03125 39.296875 51.46875 
Q 43.453125 49.90625 45.40625 47.53125 
Q 47.359375 45.171875 48.140625 41.546875 
Q 48.578125 39.3125 48.578125 33.453125 
L 48.578125 21.734375 
Q 48.578125 9.46875 49.140625 6.21875 
Q 49.703125 2.984375 51.375 0 
L 42.1875 0 
Q 40.828125 2.734375 40.4375 6.390625 
z
M 39.703125 26.03125 
Q 34.90625 24.078125 25.34375 22.703125 
Q 19.921875 21.921875 17.671875 20.9375 
Q 15.4375 19.96875 14.203125 18.09375 
Q 12.984375 16.21875 12.984375 13.921875 
Q 12.984375 10.40625 15.640625 8.0625 
Q 18.3125 5.71875 23.4375 5.71875 
Q 28.515625 5.71875 32.46875 7.9375 
Q 36.421875 10.15625 38.28125 14.015625 
Q 39.703125 17 39.703125 22.796875 
z
" id="ArialMT-97"/>
      <path d="M 6.390625 0 
L 6.390625 71.578125 
L 15.1875 71.578125 
L 15.1875 0 
z
" id="ArialMT-108"/>
      <path d="M 40.578125 0 
L 40.578125 7.625 
Q 34.515625 -1.171875 24.125 -1.171875 
Q 19.53125 -1.171875 15.546875 0.578125 
Q 11.578125 2.34375 9.640625 5 
Q 7.71875 7.671875 6.9375 11.53125 
Q 6.390625 14.109375 6.390625 19.734375 
L 6.390625 51.859375 
L 15.1875 51.859375 
L 15.1875 23.09375 
Q 15.1875 16.21875 15.71875 13.8125 
Q 16.546875 10.359375 19.234375 8.375 
Q 21.921875 6.390625 25.875 6.390625 
Q 29.828125 6.390625 33.296875 8.421875 
Q 36.765625 10.453125 38.203125 13.9375 
Q 39.65625 17.4375 39.65625 24.078125 
L 39.65625 51.859375 
L 48.4375 51.859375 
L 48.4375 0 
z
" id="ArialMT-117"/>
      <path d="M 3.078125 15.484375 
L 11.765625 16.84375 
Q 12.5 11.625 15.84375 8.84375 
Q 19.1875 6.0625 25.203125 6.0625 
Q 31.25 6.0625 34.171875 8.515625 
Q 37.109375 10.984375 37.109375 14.3125 
Q 37.109375 17.28125 34.515625 19 
Q 32.71875 20.171875 25.53125 21.96875 
Q 15.875 24.421875 12.140625 26.203125 
Q 8.40625 27.984375 6.46875 31.125 
Q 4.546875 34.28125 4.546875 38.09375 
Q 4.546875 41.546875 6.125 44.5 
Q 7.71875 47.46875 10.453125 49.421875 
Q 12.5 50.921875 16.03125 51.96875 
Q 19.578125 53.03125 23.640625 53.03125 
Q 29.734375 53.03125 34.34375 51.265625 
Q 38.96875 49.515625 41.15625 46.5 
Q 43.359375 43.5 44.1875 38.484375 
L 35.59375 37.3125 
Q 35.015625 41.3125 32.203125 43.546875 
Q 29.390625 45.796875 24.265625 45.796875 
Q 18.21875 45.796875 15.625 43.796875 
Q 13.03125 41.796875 13.03125 39.109375 
Q 13.03125 37.40625 14.109375 36.03125 
Q 15.1875 34.625 17.484375 33.6875 
Q 18.796875 33.203125 25.25 31.453125 
Q 34.578125 28.953125 38.25 27.359375 
Q 41.9375 25.78125 44.03125 22.75 
Q 46.140625 19.734375 46.140625 15.234375 
Q 46.140625 10.84375 43.578125 6.953125 
Q 41.015625 3.078125 36.171875 0.953125 
Q 31.34375 -1.171875 25.25 -1.171875 
Q 15.140625 -1.171875 9.84375 3.03125 
Q 4.546875 7.234375 3.078125 15.484375 
z
" id="ArialMT-115"/>
     </defs>
     <g style="fill:#262626;" transform="translate(153.37125 302.798437)scale(0.24 -0.24)">
      <use xlink:href="#ArialMT-70"/>
      <use x="61.083984" xlink:href="#ArialMT-105"/>
      <use x="83.300781" xlink:href="#ArialMT-116"/>
      <use x="111.083984" xlink:href="#ArialMT-116"/>
      <use x="138.867188" xlink:href="#ArialMT-101"/>
      <use x="194.482422" xlink:href="#ArialMT-100"/>
      <use x="250.097656" xlink:href="#ArialMT-32"/>
      <use x="277.880859" xlink:href="#ArialMT-118"/>
      <use x="327.880859" xlink:href="#ArialMT-97"/>
      <use x="383.496094" xlink:href="#ArialMT-108"/>
      <use x="405.712891" xlink:href="#ArialMT-117"/>
      <use x="461.328125" xlink:href="#ArialMT-101"/>
      <use x="516.943359" xlink:href="#ArialMT-115"/>
     </g>
    </g>
   </g>
   <g id="matplotlib.axis_2">
    <g id="ytick_1">
     <g id="line2d_4">
      <path clip-path="url(#p8d7162f5e2)" d="M 54 229.951446 
L 388.8 229.951446 
" style="fill:none;stroke:#cccccc;stroke-linecap:round;"/>
     </g>
     <g id="text_5">
      <!-- −0.5 -->
      <defs>
       <path d="M 52.828125 31.203125 
L 5.5625 31.203125 
L 5.5625 39.40625 
L 52.828125 39.40625 
z
" id="ArialMT-8722"/>
      </defs>
      <g style="fill:#262626;" transform="translate(1.070625 237.82504)scale(0.22 -0.22)">
       <use xlink:href="#ArialMT-8722"/>
       <use x="58.398438" xlink:href="#ArialMT-48"/>
       <use x="114.013672" xlink:href="#ArialMT-46"/>
       <use x="141.796875" xlink:href="#ArialMT-53"/>
      </g>
     </g>
    </g>
    <g id="ytick_2">
     <g id="line2d_5">
      <path clip-path="url(#p8d7162f5e2)" d="M 54 156.019629 
L 388.8 156.019629 
" style="fill:none;stroke:#cccccc;stroke-linecap:round;"/>
     </g>
     <g id="text_6">
      <!-- 0.0 -->
      <g style="fill:#262626;" transform="translate(13.92 163.893223)scale(0.22 -0.22)">
       <use xlink:href="#ArialMT-48"/>
       <use x="55.615234" xlink:href="#ArialMT-46"/>
       <use x="83.398438" xlink:href="#ArialMT-48"/>
      </g>
     </g>
    </g>
    <g id="ytick_3">
     <g id="line2d_6">
      <path clip-path="url(#p8d7162f5e2)" d="M 54 82.087812 
L 388.8 82.087812 
" style="fill:none;stroke:#cccccc;stroke-linecap:round;"/>
     </g>
     <g id="text_7">
      <!-- 0.5 -->
      <g style="fill:#262626;" transform="translate(13.92 89.961406)scale(0.22 -0.22)">
       <use xlink:href="#ArialMT-48"/>
       <use x="55.615234" xlink:href="#ArialMT-46"/>
       <use x="83.398438" xlink:href="#ArialMT-53"/>
      </g>
     </g>
    </g>
    <g id="text_8">
     <!-- Pearson Residuals -->
     <defs>
      <path d="M 7.71875 0 
L 7.71875 71.578125 
L 34.71875 71.578125 
Q 41.84375 71.578125 45.609375 70.90625 
Q 50.875 70.015625 54.4375 67.546875 
Q 58.015625 65.09375 60.1875 60.640625 
Q 62.359375 56.203125 62.359375 50.875 
Q 62.359375 41.75 56.546875 35.421875 
Q 50.734375 29.109375 35.546875 29.109375 
L 17.1875 29.109375 
L 17.1875 0 
z
M 17.1875 37.546875 
L 35.6875 37.546875 
Q 44.875 37.546875 48.734375 40.96875 
Q 52.59375 44.390625 52.59375 50.59375 
Q 52.59375 55.078125 50.3125 58.265625 
Q 48.046875 61.46875 44.34375 62.5 
Q 41.9375 63.140625 35.5 63.140625 
L 17.1875 63.140625 
z
" id="ArialMT-80"/>
      <path d="M 6.5 0 
L 6.5 51.859375 
L 14.40625 51.859375 
L 14.40625 44 
Q 17.4375 49.515625 20 51.265625 
Q 22.5625 53.03125 25.640625 53.03125 
Q 30.078125 53.03125 34.671875 50.203125 
L 31.640625 42.046875 
Q 28.421875 43.953125 25.203125 43.953125 
Q 22.3125 43.953125 20.015625 42.21875 
Q 17.71875 40.484375 16.75 37.40625 
Q 15.28125 32.71875 15.28125 27.15625 
L 15.28125 0 
z
" id="ArialMT-114"/>
      <path d="M 3.328125 25.921875 
Q 3.328125 40.328125 11.328125 47.265625 
Q 18.015625 53.03125 27.640625 53.03125 
Q 38.328125 53.03125 45.109375 46.015625 
Q 51.90625 39.015625 51.90625 26.65625 
Q 51.90625 16.65625 48.90625 10.90625 
Q 45.90625 5.171875 40.15625 2 
Q 34.421875 -1.171875 27.640625 -1.171875 
Q 16.75 -1.171875 10.03125 5.8125 
Q 3.328125 12.796875 3.328125 25.921875 
z
M 12.359375 25.921875 
Q 12.359375 15.96875 16.703125 11.015625 
Q 21.046875 6.0625 27.640625 6.0625 
Q 34.1875 6.0625 38.53125 11.03125 
Q 42.875 16.015625 42.875 26.21875 
Q 42.875 35.84375 38.5 40.796875 
Q 34.125 45.75 27.640625 45.75 
Q 21.046875 45.75 16.703125 40.8125 
Q 12.359375 35.890625 12.359375 25.921875 
z
" id="ArialMT-111"/>
      <path d="M 6.59375 0 
L 6.59375 51.859375 
L 14.5 51.859375 
L 14.5 44.484375 
Q 20.21875 53.03125 31 53.03125 
Q 35.6875 53.03125 39.625 51.34375 
Q 43.5625 49.65625 45.515625 46.921875 
Q 47.46875 44.1875 48.25 40.4375 
Q 48.734375 37.984375 48.734375 31.890625 
L 48.734375 0 
L 39.9375 0 
L 39.9375 31.546875 
Q 39.9375 36.921875 38.90625 39.578125 
Q 37.890625 42.234375 35.28125 43.8125 
Q 32.671875 45.40625 29.15625 45.40625 
Q 23.53125 45.40625 19.453125 41.84375 
Q 15.375 38.28125 15.375 28.328125 
L 15.375 0 
z
" id="ArialMT-110"/>
      <path d="M 7.859375 0 
L 7.859375 71.578125 
L 39.59375 71.578125 
Q 49.171875 71.578125 54.140625 69.640625 
Q 59.125 67.71875 62.109375 62.828125 
Q 65.09375 57.953125 65.09375 52.046875 
Q 65.09375 44.4375 60.15625 39.203125 
Q 55.21875 33.984375 44.921875 32.5625 
Q 48.6875 30.765625 50.640625 29 
Q 54.78125 25.203125 58.5 19.484375 
L 70.953125 0 
L 59.03125 0 
L 49.5625 14.890625 
Q 45.40625 21.34375 42.71875 24.75 
Q 40.046875 28.171875 37.921875 29.53125 
Q 35.796875 30.90625 33.59375 31.453125 
Q 31.984375 31.78125 28.328125 31.78125 
L 17.328125 31.78125 
L 17.328125 0 
z
M 17.328125 39.984375 
L 37.703125 39.984375 
Q 44.1875 39.984375 47.84375 41.328125 
Q 51.515625 42.671875 53.421875 45.625 
Q 55.328125 48.578125 55.328125 52.046875 
Q 55.328125 57.125 51.640625 60.390625 
Q 47.953125 63.671875 39.984375 63.671875 
L 17.328125 63.671875 
z
" id="ArialMT-82"/>
     </defs>
     <g style="fill:#262626;" transform="translate(-7.699375 243.9975)rotate(-90)scale(0.24 -0.24)">
      <use xlink:href="#ArialMT-80"/>
      <use x="66.699219" xlink:href="#ArialMT-101"/>
      <use x="122.314453" xlink:href="#ArialMT-97"/>
      <use x="177.929688" xlink:href="#ArialMT-114"/>
      <use x="211.230469" xlink:href="#ArialMT-115"/>
      <use x="261.230469" xlink:href="#ArialMT-111"/>
      <use x="316.845703" xlink:href="#ArialMT-110"/>
      <use x="372.460938" xlink:href="#ArialMT-32"/>
      <use x="400.244141" xlink:href="#ArialMT-82"/>
      <use x="472.460938" xlink:href="#ArialMT-101"/>
      <use x="528.076172" xlink:href="#ArialMT-115"/>
      <use x="578.076172" xlink:href="#ArialMT-105"/>
      <use x="600.292969" xlink:href="#ArialMT-100"/>
      <use x="655.908203" xlink:href="#ArialMT-117"/>
      <use x="711.523438" xlink:href="#ArialMT-97"/>
      <use x="767.138672" xlink:href="#ArialMT-108"/>
      <use x="789.355469" xlink:href="#ArialMT-115"/>
     </g>
    </g>
   </g>
   <g id="PathCollection_1">
    <defs>
     <path d="M -3 0 
L 3 0 
M 0 3 
L 0 -3 
" id="m478ba4409a" style="stroke:#4c72b0;stroke-width:1.5;"/>
    </defs>
    <g clip-path="url(#p8d7162f5e2)">
     <use style="fill:#4c72b0;stroke:#4c72b0;stroke-width:1.5;" x="140.320215" xlink:href="#m478ba4409a" y="164.50614"/>
     <use style="fill:#4c72b0;stroke:#4c72b0;stroke-width:1.5;" x="134.237333" xlink:href="#m478ba4409a" y="133.130421"/>
     <use style="fill:#4c72b0;stroke:#4c72b0;stroke-width:1.5;" x="156.624747" xlink:href="#m478ba4409a" y="157.188097"/>
     <use style="fill:#4c72b0;stroke:#4c72b0;stroke-width:1.5;" x="129.088327" xlink:href="#m478ba4409a" y="197.544448"/>
     <use style="fill:#4c72b0;stroke:#4c72b0;stroke-width:1.5;" x="98.269224" xlink:href="#m478ba4409a" y="203.948841"/>
     <use style="fill:#4c72b0;stroke:#4c72b0;stroke-width:1.5;" x="118.789455" xlink:href="#m478ba4409a" y="158.064275"/>
     <use style="fill:#4c72b0;stroke:#4c72b0;stroke-width:1.5;" x="209.914632" xlink:href="#m478ba4409a" y="127.150447"/>
     <use style="fill:#4c72b0;stroke:#4c72b0;stroke-width:1.5;" x="117.11925" xlink:href="#m478ba4409a" y="101.738942"/>
     <use style="fill:#4c72b0;stroke:#4c72b0;stroke-width:1.5;" x="172.996041" xlink:href="#m478ba4409a" y="128.744107"/>
     <use style="fill:#4c72b0;stroke:#4c72b0;stroke-width:1.5;" x="159.213974" xlink:href="#m478ba4409a" y="148.699295"/>
     <use style="fill:#4c72b0;stroke:#4c72b0;stroke-width:1.5;" x="150.084966" xlink:href="#m478ba4409a" y="168.12067"/>
     <use style="fill:#4c72b0;stroke:#4c72b0;stroke-width:1.5;" x="243.811073" xlink:href="#m478ba4409a" y="163.067005"/>
     <use style="fill:#4c72b0;stroke:#4c72b0;stroke-width:1.5;" x="110.513541" xlink:href="#m478ba4409a" y="102.842197"/>
     <use style="fill:#4c72b0;stroke:#4c72b0;stroke-width:1.5;" x="91.442326" xlink:href="#m478ba4409a" y="162.285211"/>
     <use style="fill:#4c72b0;stroke:#4c72b0;stroke-width:1.5;" x="105.819258" xlink:href="#m478ba4409a" y="182.515294"/>
     <use style="fill:#4c72b0;stroke:#4c72b0;stroke-width:1.5;" x="103.110609" xlink:href="#m478ba4409a" y="139.379362"/>
     <use style="fill:#4c72b0;stroke:#4c72b0;stroke-width:1.5;" x="101.269073" xlink:href="#m478ba4409a" y="200.226099"/>
     <use style="fill:#4c72b0;stroke:#4c72b0;stroke-width:1.5;" x="137.817554" xlink:href="#m478ba4409a" y="150.08324"/>
     <use style="fill:#4c72b0;stroke:#4c72b0;stroke-width:1.5;" x="167.459958" xlink:href="#m478ba4409a" y="51.580076"/>
     <use style="fill:#4c72b0;stroke:#4c72b0;stroke-width:1.5;" x="72.342351" xlink:href="#m478ba4409a" y="165.743177"/>
     <use style="fill:#4c72b0;stroke:#4c72b0;stroke-width:1.5;" x="153.268672" xlink:href="#m478ba4409a" y="186.699389"/>
     <use style="fill:#4c72b0;stroke:#4c72b0;stroke-width:1.5;" x="169.15798" xlink:href="#m478ba4409a" y="93.645931"/>
     <use style="fill:#4c72b0;stroke:#4c72b0;stroke-width:1.5;" x="162.71932" xlink:href="#m478ba4409a" y="176.580623"/>
     <use style="fill:#4c72b0;stroke:#4c72b0;stroke-width:1.5;" x="96.231117" xlink:href="#m478ba4409a" y="191.565041"/>
     <use style="fill:#4c72b0;stroke:#4c72b0;stroke-width:1.5;" x="116.072459" xlink:href="#m478ba4409a" y="192.159746"/>
     <use style="fill:#4c72b0;stroke:#4c72b0;stroke-width:1.5;" x="121.414052" xlink:href="#m478ba4409a" y="214.853404"/>
     <use style="fill:#4c72b0;stroke:#4c72b0;stroke-width:1.5;" x="171.213509" xlink:href="#m478ba4409a" y="171.998163"/>
     <use style="fill:#4c72b0;stroke:#4c72b0;stroke-width:1.5;" x="201.116598" xlink:href="#m478ba4409a" y="128.157346"/>
     <use style="fill:#4c72b0;stroke:#4c72b0;stroke-width:1.5;" x="109.457038" xlink:href="#m478ba4409a" y="211.942436"/>
     <use style="fill:#4c72b0;stroke:#4c72b0;stroke-width:1.5;" x="115.959439" xlink:href="#m478ba4409a" y="214.160032"/>
     <use style="fill:#4c72b0;stroke:#4c72b0;stroke-width:1.5;" x="186.152972" xlink:href="#m478ba4409a" y="139.925866"/>
     <use style="fill:#4c72b0;stroke:#4c72b0;stroke-width:1.5;" x="123.020159" xlink:href="#m478ba4409a" y="153.564079"/>
     <use style="fill:#4c72b0;stroke:#4c72b0;stroke-width:1.5;" x="225.504937" xlink:href="#m478ba4409a" y="116.625531"/>
     <use style="fill:#4c72b0;stroke:#4c72b0;stroke-width:1.5;" x="121.988784" xlink:href="#m478ba4409a" y="190.593453"/>
     <use style="fill:#4c72b0;stroke:#4c72b0;stroke-width:1.5;" x="179.791323" xlink:href="#m478ba4409a" y="114.141087"/>
     <use style="fill:#4c72b0;stroke:#4c72b0;stroke-width:1.5;" x="120.873387" xlink:href="#m478ba4409a" y="203.243644"/>
     <use style="fill:#4c72b0;stroke:#4c72b0;stroke-width:1.5;" x="123.358103" xlink:href="#m478ba4409a" y="166.44269"/>
     <use style="fill:#4c72b0;stroke:#4c72b0;stroke-width:1.5;" x="107.993922" xlink:href="#m478ba4409a" y="205.386742"/>
     <use style="fill:#4c72b0;stroke:#4c72b0;stroke-width:1.5;" x="249.422823" xlink:href="#m478ba4409a" y="186.502322"/>
     <use style="fill:#4c72b0;stroke:#4c72b0;stroke-width:1.5;" x="142.953294" xlink:href="#m478ba4409a" y="151.314715"/>
     <use style="fill:#4c72b0;stroke:#4c72b0;stroke-width:1.5;" x="161.476671" xlink:href="#m478ba4409a" y="68.796285"/>
     <use style="fill:#4c72b0;stroke:#4c72b0;stroke-width:1.5;" x="72.137083" xlink:href="#m478ba4409a" y="152.032356"/>
     <use style="fill:#4c72b0;stroke:#4c72b0;stroke-width:1.5;" x="112.052275" xlink:href="#m478ba4409a" y="135.900116"/>
     <use style="fill:#4c72b0;stroke:#4c72b0;stroke-width:1.5;" x="147.117816" xlink:href="#m478ba4409a" y="126.845136"/>
     <use style="fill:#4c72b0;stroke:#4c72b0;stroke-width:1.5;" x="125.189408" xlink:href="#m478ba4409a" y="65.077274"/>
     <use style="fill:#4c72b0;stroke:#4c72b0;stroke-width:1.5;" x="127.695542" xlink:href="#m478ba4409a" y="182.430441"/>
     <use style="fill:#4c72b0;stroke:#4c72b0;stroke-width:1.5;" x="86.348734" xlink:href="#m478ba4409a" y="164.746426"/>
     <use style="fill:#4c72b0;stroke:#4c72b0;stroke-width:1.5;" x="109.599352" xlink:href="#m478ba4409a" y="53.021265"/>
     <use style="fill:#4c72b0;stroke:#4c72b0;stroke-width:1.5;" x="137.119498" xlink:href="#m478ba4409a" y="187.291163"/>
     <use style="fill:#4c72b0;stroke:#4c72b0;stroke-width:1.5;" x="71.52419" xlink:href="#m478ba4409a" y="161.023543"/>
     <use style="fill:#4c72b0;stroke:#4c72b0;stroke-width:1.5;" x="91.152415" xlink:href="#m478ba4409a" y="84.676354"/>
     <use style="fill:#4c72b0;stroke:#4c72b0;stroke-width:1.5;" x="76.264229" xlink:href="#m478ba4409a" y="156.565363"/>
     <use style="fill:#4c72b0;stroke:#4c72b0;stroke-width:1.5;" x="167.141474" xlink:href="#m478ba4409a" y="150.504149"/>
     <use style="fill:#4c72b0;stroke:#4c72b0;stroke-width:1.5;" x="87.364224" xlink:href="#m478ba4409a" y="165.576805"/>
     <use style="fill:#4c72b0;stroke:#4c72b0;stroke-width:1.5;" x="126.870779" xlink:href="#m478ba4409a" y="207.456808"/>
     <use style="fill:#4c72b0;stroke:#4c72b0;stroke-width:1.5;" x="188.730564" xlink:href="#m478ba4409a" y="106.335098"/>
     <use style="fill:#4c72b0;stroke:#4c72b0;stroke-width:1.5;" x="172.571984" xlink:href="#m478ba4409a" y="164.443315"/>
     <use style="fill:#4c72b0;stroke:#4c72b0;stroke-width:1.5;" x="154.698274" xlink:href="#m478ba4409a" y="213.533723"/>
     <use style="fill:#4c72b0;stroke:#4c72b0;stroke-width:1.5;" x="172.070423" xlink:href="#m478ba4409a" y="161.966594"/>
     <use style="fill:#4c72b0;stroke:#4c72b0;stroke-width:1.5;" x="216.839111" xlink:href="#m478ba4409a" y="176.333786"/>
     <use style="fill:#4c72b0;stroke:#4c72b0;stroke-width:1.5;" x="137.588095" xlink:href="#m478ba4409a" y="193.530865"/>
     <use style="fill:#4c72b0;stroke:#4c72b0;stroke-width:1.5;" x="120.874877" xlink:href="#m478ba4409a" y="199.840124"/>
     <use style="fill:#4c72b0;stroke:#4c72b0;stroke-width:1.5;" x="80.158399" xlink:href="#m478ba4409a" y="156.408916"/>
     <use style="fill:#4c72b0;stroke:#4c72b0;stroke-width:1.5;" x="98.760726" xlink:href="#m478ba4409a" y="151.060778"/>
     <use style="fill:#4c72b0;stroke:#4c72b0;stroke-width:1.5;" x="176.244529" xlink:href="#m478ba4409a" y="161.793811"/>
     <use style="fill:#4c72b0;stroke:#4c72b0;stroke-width:1.5;" x="136.586454" xlink:href="#m478ba4409a" y="177.871139"/>
     <use style="fill:#4c72b0;stroke:#4c72b0;stroke-width:1.5;" x="186.487951" xlink:href="#m478ba4409a" y="160.096982"/>
     <use style="fill:#4c72b0;stroke:#4c72b0;stroke-width:1.5;" x="100.908696" xlink:href="#m478ba4409a" y="196.539963"/>
     <use style="fill:#4c72b0;stroke:#4c72b0;stroke-width:1.5;" x="132.949835" xlink:href="#m478ba4409a" y="125.233528"/>
     <use style="fill:#4c72b0;stroke:#4c72b0;stroke-width:1.5;" x="196.020726" xlink:href="#m478ba4409a" y="174.933694"/>
     <use style="fill:#4c72b0;stroke:#4c72b0;stroke-width:1.5;" x="192.135571" xlink:href="#m478ba4409a" y="131.080642"/>
     <use style="fill:#4c72b0;stroke:#4c72b0;stroke-width:1.5;" x="211.648306" xlink:href="#m478ba4409a" y="146.941199"/>
     <use style="fill:#4c72b0;stroke:#4c72b0;stroke-width:1.5;" x="191.900575" xlink:href="#m478ba4409a" y="136.414487"/>
     <use style="fill:#4c72b0;stroke:#4c72b0;stroke-width:1.5;" x="124.997938" xlink:href="#m478ba4409a" y="108.074635"/>
     <use style="fill:#4c72b0;stroke:#4c72b0;stroke-width:1.5;" x="155.373994" xlink:href="#m478ba4409a" y="200.918882"/>
     <use style="fill:#4c72b0;stroke:#4c72b0;stroke-width:1.5;" x="155.979251" xlink:href="#m478ba4409a" y="191.793866"/>
     <use style="fill:#4c72b0;stroke:#4c72b0;stroke-width:1.5;" x="170.904783" xlink:href="#m478ba4409a" y="208.78767"/>
     <use style="fill:#4c72b0;stroke:#4c72b0;stroke-width:1.5;" x="190.037323" xlink:href="#m478ba4409a" y="62.642051"/>
     <use style="fill:#4c72b0;stroke:#4c72b0;stroke-width:1.5;" x="221.200684" xlink:href="#m478ba4409a" y="138.71565"/>
     <use style="fill:#4c72b0;stroke:#4c72b0;stroke-width:1.5;" x="95.68469" xlink:href="#m478ba4409a" y="104.698698"/>
     <use style="fill:#4c72b0;stroke:#4c72b0;stroke-width:1.5;" x="109.927248" xlink:href="#m478ba4409a" y="174.000437"/>
     <use style="fill:#4c72b0;stroke:#4c72b0;stroke-width:1.5;" x="252.116441" xlink:href="#m478ba4409a" y="137.853598"/>
     <use style="fill:#4c72b0;stroke:#4c72b0;stroke-width:1.5;" x="118.938029" xlink:href="#m478ba4409a" y="130.39486"/>
     <use style="fill:#4c72b0;stroke:#4c72b0;stroke-width:1.5;" x="99.515253" xlink:href="#m478ba4409a" y="140.998982"/>
     <use style="fill:#4c72b0;stroke:#4c72b0;stroke-width:1.5;" x="155.753835" xlink:href="#m478ba4409a" y="113.906038"/>
     <use style="fill:#4c72b0;stroke:#4c72b0;stroke-width:1.5;" x="107.067728" xlink:href="#m478ba4409a" y="199.006663"/>
     <use style="fill:#4c72b0;stroke:#4c72b0;stroke-width:1.5;" x="113.59814" xlink:href="#m478ba4409a" y="177.623487"/>
     <use style="fill:#4c72b0;stroke:#4c72b0;stroke-width:1.5;" x="115.918085" xlink:href="#m478ba4409a" y="50.879353"/>
     <use style="fill:#4c72b0;stroke:#4c72b0;stroke-width:1.5;" x="124.441299" xlink:href="#m478ba4409a" y="195.786515"/>
     <use style="fill:#4c72b0;stroke:#4c72b0;stroke-width:1.5;" x="181.872938" xlink:href="#m478ba4409a" y="101.267696"/>
     <use style="fill:#4c72b0;stroke:#4c72b0;stroke-width:1.5;" x="142.576204" xlink:href="#m478ba4409a" y="146.506534"/>
     <use style="fill:#4c72b0;stroke:#4c72b0;stroke-width:1.5;" x="110.353663" xlink:href="#m478ba4409a" y="151.503954"/>
     <use style="fill:#4c72b0;stroke:#4c72b0;stroke-width:1.5;" x="186.610566" xlink:href="#m478ba4409a" y="87.756797"/>
     <use style="fill:#4c72b0;stroke:#4c72b0;stroke-width:1.5;" x="120.433806" xlink:href="#m478ba4409a" y="181.698172"/>
     <use style="fill:#4c72b0;stroke:#4c72b0;stroke-width:1.5;" x="226.708697" xlink:href="#m478ba4409a" y="157.207135"/>
     <use style="fill:#4c72b0;stroke:#4c72b0;stroke-width:1.5;" x="97.497275" xlink:href="#m478ba4409a" y="148.407011"/>
     <use style="fill:#4c72b0;stroke:#4c72b0;stroke-width:1.5;" x="212.698344" xlink:href="#m478ba4409a" y="117.983219"/>
     <use style="fill:#4c72b0;stroke:#4c72b0;stroke-width:1.5;" x="205.38876" xlink:href="#m478ba4409a" y="171.049935"/>
     <use style="fill:#4c72b0;stroke:#4c72b0;stroke-width:1.5;" x="162.145239" xlink:href="#m478ba4409a" y="123.654211"/>
     <use style="fill:#4c72b0;stroke:#4c72b0;stroke-width:1.5;" x="76.928506" xlink:href="#m478ba4409a" y="178.02354"/>
     <use style="fill:#4c72b0;stroke:#4c72b0;stroke-width:1.5;" x="184.978001" xlink:href="#m478ba4409a" y="159.5943"/>
     <use style="fill:#4c72b0;stroke:#4c72b0;stroke-width:1.5;" x="152.359362" xlink:href="#m478ba4409a" y="199.830992"/>
     <use style="fill:#4c72b0;stroke:#4c72b0;stroke-width:1.5;" x="103.659437" xlink:href="#m478ba4409a" y="194.624625"/>
     <use style="fill:#4c72b0;stroke:#4c72b0;stroke-width:1.5;" x="236.434684" xlink:href="#m478ba4409a" y="107.748509"/>
     <use style="fill:#4c72b0;stroke:#4c72b0;stroke-width:1.5;" x="139.037198" xlink:href="#m478ba4409a" y="51.270707"/>
     <use style="fill:#4c72b0;stroke:#4c72b0;stroke-width:1.5;" x="118.014666" xlink:href="#m478ba4409a" y="199.02809"/>
     <use style="fill:#4c72b0;stroke:#4c72b0;stroke-width:1.5;" x="251.195507" xlink:href="#m478ba4409a" y="192.368087"/>
     <use style="fill:#4c72b0;stroke:#4c72b0;stroke-width:1.5;" x="342.156759" xlink:href="#m478ba4409a" y="190.924657"/>
     <use style="fill:#4c72b0;stroke:#4c72b0;stroke-width:1.5;" x="147.328856" xlink:href="#m478ba4409a" y="229.833933"/>
     <use style="fill:#4c72b0;stroke:#4c72b0;stroke-width:1.5;" x="189.111645" xlink:href="#m478ba4409a" y="171.834061"/>
     <use style="fill:#4c72b0;stroke:#4c72b0;stroke-width:1.5;" x="182.201115" xlink:href="#m478ba4409a" y="206.034625"/>
     <use style="fill:#4c72b0;stroke:#4c72b0;stroke-width:1.5;" x="89.98484" xlink:href="#m478ba4409a" y="138.695443"/>
     <use style="fill:#4c72b0;stroke:#4c72b0;stroke-width:1.5;" x="132.890961" xlink:href="#m478ba4409a" y="165.810852"/>
     <use style="fill:#4c72b0;stroke:#4c72b0;stroke-width:1.5;" x="74.655933" xlink:href="#m478ba4409a" y="120.238192"/>
     <use style="fill:#4c72b0;stroke:#4c72b0;stroke-width:1.5;" x="82.088475" xlink:href="#m478ba4409a" y="140.004161"/>
     <use style="fill:#4c72b0;stroke:#4c72b0;stroke-width:1.5;" x="142.89692" xlink:href="#m478ba4409a" y="221.495703"/>
     <use style="fill:#4c72b0;stroke:#4c72b0;stroke-width:1.5;" x="111.687311" xlink:href="#m478ba4409a" y="161.99862"/>
     <use style="fill:#4c72b0;stroke:#4c72b0;stroke-width:1.5;" x="371.27581" xlink:href="#m478ba4409a" y="240.076302"/>
     <use style="fill:#4c72b0;stroke:#4c72b0;stroke-width:1.5;" x="180.895029" xlink:href="#m478ba4409a" y="137.27455"/>
     <use style="fill:#4c72b0;stroke:#4c72b0;stroke-width:1.5;" x="108.408682" xlink:href="#m478ba4409a" y="174.844681"/>
     <use style="fill:#4c72b0;stroke:#4c72b0;stroke-width:1.5;" x="182.401263" xlink:href="#m478ba4409a" y="160.35876"/>
     <use style="fill:#4c72b0;stroke:#4c72b0;stroke-width:1.5;" x="191.23407" xlink:href="#m478ba4409a" y="131.512557"/>
     <use style="fill:#4c72b0;stroke:#4c72b0;stroke-width:1.5;" x="218.014262" xlink:href="#m478ba4409a" y="156.543008"/>
     <use style="fill:#4c72b0;stroke:#4c72b0;stroke-width:1.5;" x="110.957994" xlink:href="#m478ba4409a" y="193.208743"/>
     <use style="fill:#4c72b0;stroke:#4c72b0;stroke-width:1.5;" x="252.644476" xlink:href="#m478ba4409a" y="186.5507"/>
     <use style="fill:#4c72b0;stroke:#4c72b0;stroke-width:1.5;" x="113.586021" xlink:href="#m478ba4409a" y="184.766499"/>
     <use style="fill:#4c72b0;stroke:#4c72b0;stroke-width:1.5;" x="84.826232" xlink:href="#m478ba4409a" y="190.006934"/>
     <use style="fill:#4c72b0;stroke:#4c72b0;stroke-width:1.5;" x="292.415142" xlink:href="#m478ba4409a" y="164.745654"/>
     <use style="fill:#4c72b0;stroke:#4c72b0;stroke-width:1.5;" x="111.3921" xlink:href="#m478ba4409a" y="176.929762"/>
     <use style="fill:#4c72b0;stroke:#4c72b0;stroke-width:1.5;" x="73.657672" xlink:href="#m478ba4409a" y="170.382525"/>
     <use style="fill:#4c72b0;stroke:#4c72b0;stroke-width:1.5;" x="206.812342" xlink:href="#m478ba4409a" y="77.738381"/>
     <use style="fill:#4c72b0;stroke:#4c72b0;stroke-width:1.5;" x="211.224693" xlink:href="#m478ba4409a" y="139.018815"/>
     <use style="fill:#4c72b0;stroke:#4c72b0;stroke-width:1.5;" x="124.482855" xlink:href="#m478ba4409a" y="168.929417"/>
     <use style="fill:#4c72b0;stroke:#4c72b0;stroke-width:1.5;" x="303.83118" xlink:href="#m478ba4409a" y="192.906283"/>
     <use style="fill:#4c72b0;stroke:#4c72b0;stroke-width:1.5;" x="115.600114" xlink:href="#m478ba4409a" y="174.314735"/>
     <use style="fill:#4c72b0;stroke:#4c72b0;stroke-width:1.5;" x="97.424806" xlink:href="#m478ba4409a" y="203.194521"/>
     <use style="fill:#4c72b0;stroke:#4c72b0;stroke-width:1.5;" x="72.006502" xlink:href="#m478ba4409a" y="164.144578"/>
     <use style="fill:#4c72b0;stroke:#4c72b0;stroke-width:1.5;" x="119.56379" xlink:href="#m478ba4409a" y="151.862286"/>
     <use style="fill:#4c72b0;stroke:#4c72b0;stroke-width:1.5;" x="94.628805" xlink:href="#m478ba4409a" y="186.774962"/>
     <use style="fill:#4c72b0;stroke:#4c72b0;stroke-width:1.5;" x="139.113853" xlink:href="#m478ba4409a" y="209.946197"/>
     <use style="fill:#4c72b0;stroke:#4c72b0;stroke-width:1.5;" x="72.191533" xlink:href="#m478ba4409a" y="57.577828"/>
     <use style="fill:#4c72b0;stroke:#4c72b0;stroke-width:1.5;" x="120.625386" xlink:href="#m478ba4409a" y="121.696332"/>
     <use style="fill:#4c72b0;stroke:#4c72b0;stroke-width:1.5;" x="93.161034" xlink:href="#m478ba4409a" y="80.998891"/>
     <use style="fill:#4c72b0;stroke:#4c72b0;stroke-width:1.5;" x="125.152467" xlink:href="#m478ba4409a" y="103.914974"/>
     <use style="fill:#4c72b0;stroke:#4c72b0;stroke-width:1.5;" x="195.46922" xlink:href="#m478ba4409a" y="202.055478"/>
     <use style="fill:#4c72b0;stroke:#4c72b0;stroke-width:1.5;" x="149.525259" xlink:href="#m478ba4409a" y="175.920897"/>
     <use style="fill:#4c72b0;stroke:#4c72b0;stroke-width:1.5;" x="282.98927" xlink:href="#m478ba4409a" y="155.423003"/>
     <use style="fill:#4c72b0;stroke:#4c72b0;stroke-width:1.5;" x="115.0632" xlink:href="#m478ba4409a" y="188.030909"/>
     <use style="fill:#4c72b0;stroke:#4c72b0;stroke-width:1.5;" x="130.773584" xlink:href="#m478ba4409a" y="46.483698"/>
     <use style="fill:#4c72b0;stroke:#4c72b0;stroke-width:1.5;" x="85.718943" xlink:href="#m478ba4409a" y="171.631279"/>
    </g>
   </g>
   <g id="patch_3">
    <path d="M 54 252 
L 54 34.56 
" style="fill:none;stroke:#cccccc;stroke-linecap:square;stroke-linejoin:miter;stroke-width:1.25;"/>
   </g>
   <g id="patch_4">
    <path d="M 388.8 252 
L 388.8 34.56 
" style="fill:none;stroke:#cccccc;stroke-linecap:square;stroke-linejoin:miter;stroke-width:1.25;"/>
   </g>
   <g id="patch_5">
    <path d="M 54 252 
L 388.8 252 
" style="fill:none;stroke:#cccccc;stroke-linecap:square;stroke-linejoin:miter;stroke-width:1.25;"/>
   </g>
   <g id="patch_6">
    <path d="M 54 34.56 
L 388.8 34.56 
" style="fill:none;stroke:#cccccc;stroke-linecap:square;stroke-linejoin:miter;stroke-width:1.25;"/>
   </g>
   <g id="text_9">
    <!-- Residual Dependence Plot -->
    <defs>
     <path d="M 7.71875 0 
L 7.71875 71.578125 
L 32.375 71.578125 
Q 40.71875 71.578125 45.125 70.5625 
Q 51.265625 69.140625 55.609375 65.4375 
Q 61.28125 60.640625 64.078125 53.1875 
Q 66.890625 45.75 66.890625 36.1875 
Q 66.890625 28.03125 64.984375 21.734375 
Q 63.09375 15.4375 60.109375 11.296875 
Q 57.125 7.171875 53.578125 4.796875 
Q 50.046875 2.4375 45.046875 1.21875 
Q 40.046875 0 33.546875 0 
z
M 17.1875 8.453125 
L 32.46875 8.453125 
Q 39.546875 8.453125 43.578125 9.765625 
Q 47.609375 11.078125 50 13.484375 
Q 53.375 16.84375 55.25 22.53125 
Q 57.125 28.21875 57.125 36.328125 
Q 57.125 47.5625 53.4375 53.59375 
Q 49.75 59.625 44.484375 61.671875 
Q 40.671875 63.140625 32.234375 63.140625 
L 17.1875 63.140625 
z
" id="ArialMT-68"/>
     <path d="M 6.59375 -19.875 
L 6.59375 51.859375 
L 14.59375 51.859375 
L 14.59375 45.125 
Q 17.4375 49.078125 21 51.046875 
Q 24.5625 53.03125 29.640625 53.03125 
Q 36.28125 53.03125 41.359375 49.609375 
Q 46.4375 46.1875 49.015625 39.953125 
Q 51.609375 33.734375 51.609375 26.3125 
Q 51.609375 18.359375 48.75 11.984375 
Q 45.90625 5.609375 40.453125 2.21875 
Q 35.015625 -1.171875 29 -1.171875 
Q 24.609375 -1.171875 21.109375 0.6875 
Q 17.625 2.546875 15.375 5.375 
L 15.375 -19.875 
z
M 14.546875 25.640625 
Q 14.546875 15.625 18.59375 10.84375 
Q 22.65625 6.0625 28.421875 6.0625 
Q 34.28125 6.0625 38.453125 11.015625 
Q 42.625 15.96875 42.625 26.375 
Q 42.625 36.28125 38.546875 41.203125 
Q 34.46875 46.140625 28.8125 46.140625 
Q 23.1875 46.140625 18.859375 40.890625 
Q 14.546875 35.640625 14.546875 25.640625 
z
" id="ArialMT-112"/>
     <path d="M 40.4375 19 
L 49.078125 17.875 
Q 47.65625 8.9375 41.8125 3.875 
Q 35.984375 -1.171875 27.484375 -1.171875 
Q 16.84375 -1.171875 10.375 5.78125 
Q 3.90625 12.75 3.90625 25.734375 
Q 3.90625 34.125 6.6875 40.421875 
Q 9.46875 46.734375 15.15625 49.875 
Q 20.84375 53.03125 27.546875 53.03125 
Q 35.984375 53.03125 41.359375 48.75 
Q 46.734375 44.484375 48.25 36.625 
L 39.703125 35.296875 
Q 38.484375 40.53125 35.375 43.15625 
Q 32.28125 45.796875 27.875 45.796875 
Q 21.234375 45.796875 17.078125 41.03125 
Q 12.9375 36.28125 12.9375 25.984375 
Q 12.9375 15.53125 16.9375 10.796875 
Q 20.953125 6.0625 27.390625 6.0625 
Q 32.5625 6.0625 36.03125 9.234375 
Q 39.5 12.40625 40.4375 19 
z
" id="ArialMT-99"/>
    </defs>
    <g style="fill:#262626;" transform="translate(79.3125 28.56)scale(0.24 -0.24)">
     <use xlink:href="#ArialMT-82"/>
     <use x="72.216797" xlink:href="#ArialMT-101"/>
     <use x="127.832031" xlink:href="#ArialMT-115"/>
     <use x="177.832031" xlink:href="#ArialMT-105"/>
     <use x="200.048828" xlink:href="#ArialMT-100"/>
     <use x="255.664062" xlink:href="#ArialMT-117"/>
     <use x="311.279297" xlink:href="#ArialMT-97"/>
     <use x="366.894531" xlink:href="#ArialMT-108"/>
     <use x="389.111328" xlink:href="#ArialMT-32"/>
     <use x="416.894531" xlink:href="#ArialMT-68"/>
     <use x="489.111328" xlink:href="#ArialMT-101"/>
     <use x="544.726562" xlink:href="#ArialMT-112"/>
     <use x="600.341797" xlink:href="#ArialMT-101"/>
     <use x="655.957031" xlink:href="#ArialMT-110"/>
     <use x="711.572266" xlink:href="#ArialMT-100"/>
     <use x="767.1875" xlink:href="#ArialMT-101"/>
     <use x="822.802734" xlink:href="#ArialMT-110"/>
     <use x="878.417969" xlink:href="#ArialMT-99"/>
     <use x="928.417969" xlink:href="#ArialMT-101"/>
     <use x="984.033203" xlink:href="#ArialMT-32"/>
     <use x="1011.816406" xlink:href="#ArialMT-80"/>
     <use x="1078.515625" xlink:href="#ArialMT-108"/>
     <use x="1100.732422" xlink:href="#ArialMT-111"/>
     <use x="1156.347656" xlink:href="#ArialMT-116"/>
    </g>
   </g>
  </g>
 </g>
 <defs>
  <clipPath id="p8d7162f5e2">
   <rect height="217.44" width="334.8" x="54" y="34.56"/>
  </clipPath>
 </defs>
</svg>
