<?xml version="1.0" encoding="utf-8" standalone="no"?>
<!DOCTYPE svg PUBLIC "-//W3C//DTD SVG 1.1//EN"
  "http://www.w3.org/Graphics/SVG/1.1/DTD/svg11.dtd">
<!-- Created with matplotlib (https://matplotlib.org/) -->
<svg height="720pt" version="1.1" viewBox="0 0 1152 720" width="1152pt" xmlns="http://www.w3.org/2000/svg" xmlns:xlink="http://www.w3.org/1999/xlink">
 <defs>
  <style type="text/css">
*{stroke-linecap:butt;stroke-linejoin:round;}
  </style>
 </defs>
 <g id="figure_1">
  <g id="patch_1">
   <path d="M 0 720 
L 1152 720 
L 1152 0 
L 0 0 
z
" style="fill:#ffffff;"/>
  </g>
  <g id="axes_1">
   <g id="patch_2">
    <path d="M 144 630 
L 1036.8 630 
L 1036.8 86.4 
L 144 86.4 
z
" style="fill:#ffffff;"/>
   </g>
   <g id="matplotlib.axis_1">
    <g id="xtick_1">
     <g id="line2d_1">
      <path clip-path="url(#p1a0904d314)" d="M 240.748289 630 
L 240.748289 86.4 
" style="fill:none;stroke:#cccccc;stroke-linecap:round;"/>
     </g>
     <g id="text_1">
      <!-- 0.05 -->
      <defs>
       <path d="M 4.15625 35.296875 
Q 4.15625 48 6.765625 55.734375 
Q 9.375 63.484375 14.515625 67.671875 
Q 19.671875 71.875 27.484375 71.875 
Q 33.25 71.875 37.59375 69.546875 
Q 41.9375 67.234375 44.765625 62.859375 
Q 47.609375 58.5 49.21875 52.21875 
Q 50.828125 45.953125 50.828125 35.296875 
Q 50.828125 22.703125 48.234375 14.96875 
Q 45.65625 7.234375 40.5 3 
Q 35.359375 -1.21875 27.484375 -1.21875 
Q 17.140625 -1.21875 11.234375 6.203125 
Q 4.15625 15.140625 4.15625 35.296875 
z
M 13.1875 35.296875 
Q 13.1875 17.671875 17.3125 11.828125 
Q 21.4375 6 27.484375 6 
Q 33.546875 6 37.671875 11.859375 
Q 41.796875 17.71875 41.796875 35.296875 
Q 41.796875 52.984375 37.671875 58.78125 
Q 33.546875 64.59375 27.390625 64.59375 
Q 21.34375 64.59375 17.71875 59.46875 
Q 13.1875 52.9375 13.1875 35.296875 
z
" id="ArialMT-48"/>
       <path d="M 9.078125 0 
L 9.078125 10.015625 
L 19.09375 10.015625 
L 19.09375 0 
z
" id="ArialMT-46"/>
       <path d="M 4.15625 18.75 
L 13.375 19.53125 
Q 14.40625 12.796875 18.140625 9.390625 
Q 21.875 6 27.15625 6 
Q 33.5 6 37.890625 10.78125 
Q 42.28125 15.578125 42.28125 23.484375 
Q 42.28125 31 38.0625 35.34375 
Q 33.84375 39.703125 27 39.703125 
Q 22.75 39.703125 19.328125 37.765625 
Q 15.921875 35.84375 13.96875 32.765625 
L 5.71875 33.84375 
L 12.640625 70.609375 
L 48.25 70.609375 
L 48.25 62.203125 
L 19.671875 62.203125 
L 15.828125 42.96875 
Q 22.265625 47.46875 29.34375 47.46875 
Q 38.71875 47.46875 45.15625 40.96875 
Q 51.609375 34.46875 51.609375 24.265625 
Q 51.609375 14.546875 45.953125 7.46875 
Q 39.0625 -1.21875 27.15625 -1.21875 
Q 17.390625 -1.21875 11.203125 4.25 
Q 5.03125 9.71875 4.15625 18.75 
z
" id="ArialMT-53"/>
      </defs>
      <g style="fill:#262626;" transform="translate(219.341258 655.247187)scale(0.22 -0.22)">
       <use xlink:href="#ArialMT-48"/>
       <use x="55.615234" xlink:href="#ArialMT-46"/>
       <use x="83.398438" xlink:href="#ArialMT-48"/>
       <use x="139.013672" xlink:href="#ArialMT-53"/>
      </g>
     </g>
    </g>
    <g id="xtick_2">
     <g id="line2d_2">
      <path clip-path="url(#p1a0904d314)" d="M 347.680608 630 
L 347.680608 86.4 
" style="fill:none;stroke:#cccccc;stroke-linecap:round;"/>
     </g>
     <g id="text_2">
      <!-- 0.10 -->
      <defs>
       <path d="M 37.25 0 
L 28.46875 0 
L 28.46875 56 
Q 25.296875 52.984375 20.140625 49.953125 
Q 14.984375 46.921875 10.890625 45.40625 
L 10.890625 53.90625 
Q 18.265625 57.375 23.78125 62.296875 
Q 29.296875 67.234375 31.59375 71.875 
L 37.25 71.875 
z
" id="ArialMT-49"/>
      </defs>
      <g style="fill:#262626;" transform="translate(326.273577 655.247187)scale(0.22 -0.22)">
       <use xlink:href="#ArialMT-48"/>
       <use x="55.615234" xlink:href="#ArialMT-46"/>
       <use x="83.398438" xlink:href="#ArialMT-49"/>
       <use x="139.013672" xlink:href="#ArialMT-48"/>
      </g>
     </g>
    </g>
    <g id="xtick_3">
     <g id="line2d_3">
      <path clip-path="url(#p1a0904d314)" d="M 454.612928 630 
L 454.612928 86.4 
" style="fill:none;stroke:#cccccc;stroke-linecap:round;"/>
     </g>
     <g id="text_3">
      <!-- 0.15 -->
      <g style="fill:#262626;" transform="translate(433.205897 655.247187)scale(0.22 -0.22)">
       <use xlink:href="#ArialMT-48"/>
       <use x="55.615234" xlink:href="#ArialMT-46"/>
       <use x="83.398438" xlink:href="#ArialMT-49"/>
       <use x="139.013672" xlink:href="#ArialMT-53"/>
      </g>
     </g>
    </g>
    <g id="xtick_4">
     <g id="line2d_4">
      <path clip-path="url(#p1a0904d314)" d="M 561.545247 630 
L 561.545247 86.4 
" style="fill:none;stroke:#cccccc;stroke-linecap:round;"/>
     </g>
     <g id="text_4">
      <!-- 0.20 -->
      <defs>
       <path d="M 50.34375 8.453125 
L 50.34375 0 
L 3.03125 0 
Q 2.9375 3.171875 4.046875 6.109375 
Q 5.859375 10.9375 9.828125 15.625 
Q 13.8125 20.3125 21.34375 26.46875 
Q 33.015625 36.03125 37.109375 41.625 
Q 41.21875 47.21875 41.21875 52.203125 
Q 41.21875 57.421875 37.46875 61 
Q 33.734375 64.59375 27.734375 64.59375 
Q 21.390625 64.59375 17.578125 60.78125 
Q 13.765625 56.984375 13.71875 50.25 
L 4.6875 51.171875 
Q 5.609375 61.28125 11.65625 66.578125 
Q 17.71875 71.875 27.9375 71.875 
Q 38.234375 71.875 44.234375 66.15625 
Q 50.25 60.453125 50.25 52 
Q 50.25 47.703125 48.484375 43.546875 
Q 46.734375 39.40625 42.65625 34.8125 
Q 38.578125 30.21875 29.109375 22.21875 
Q 21.1875 15.578125 18.9375 13.203125 
Q 16.703125 10.84375 15.234375 8.453125 
z
" id="ArialMT-50"/>
      </defs>
      <g style="fill:#262626;" transform="translate(540.138216 655.247187)scale(0.22 -0.22)">
       <use xlink:href="#ArialMT-48"/>
       <use x="55.615234" xlink:href="#ArialMT-46"/>
       <use x="83.398438" xlink:href="#ArialMT-50"/>
       <use x="139.013672" xlink:href="#ArialMT-48"/>
      </g>
     </g>
    </g>
    <g id="xtick_5">
     <g id="line2d_5">
      <path clip-path="url(#p1a0904d314)" d="M 668.477567 630 
L 668.477567 86.4 
" style="fill:none;stroke:#cccccc;stroke-linecap:round;"/>
     </g>
     <g id="text_5">
      <!-- 0.25 -->
      <g style="fill:#262626;" transform="translate(647.070535 655.247187)scale(0.22 -0.22)">
       <use xlink:href="#ArialMT-48"/>
       <use x="55.615234" xlink:href="#ArialMT-46"/>
       <use x="83.398438" xlink:href="#ArialMT-50"/>
       <use x="139.013672" xlink:href="#ArialMT-53"/>
      </g>
     </g>
    </g>
    <g id="xtick_6">
     <g id="line2d_6">
      <path clip-path="url(#p1a0904d314)" d="M 775.409886 630 
L 775.409886 86.4 
" style="fill:none;stroke:#cccccc;stroke-linecap:round;"/>
     </g>
     <g id="text_6">
      <!-- 0.30 -->
      <defs>
       <path d="M 4.203125 18.890625 
L 12.984375 20.0625 
Q 14.5 12.59375 18.140625 9.296875 
Q 21.78125 6 27 6 
Q 33.203125 6 37.46875 10.296875 
Q 41.75 14.59375 41.75 20.953125 
Q 41.75 27 37.796875 30.921875 
Q 33.84375 34.859375 27.734375 34.859375 
Q 25.25 34.859375 21.53125 33.890625 
L 22.515625 41.609375 
Q 23.390625 41.5 23.921875 41.5 
Q 29.546875 41.5 34.03125 44.421875 
Q 38.53125 47.359375 38.53125 53.46875 
Q 38.53125 58.296875 35.25 61.46875 
Q 31.984375 64.65625 26.8125 64.65625 
Q 21.6875 64.65625 18.265625 61.421875 
Q 14.84375 58.203125 13.875 51.765625 
L 5.078125 53.328125 
Q 6.6875 62.15625 12.390625 67.015625 
Q 18.109375 71.875 26.609375 71.875 
Q 32.46875 71.875 37.390625 69.359375 
Q 42.328125 66.84375 44.9375 62.5 
Q 47.5625 58.15625 47.5625 53.265625 
Q 47.5625 48.640625 45.0625 44.828125 
Q 42.578125 41.015625 37.703125 38.765625 
Q 44.046875 37.3125 47.5625 32.6875 
Q 51.078125 28.078125 51.078125 21.140625 
Q 51.078125 11.765625 44.234375 5.25 
Q 37.40625 -1.265625 26.953125 -1.265625 
Q 17.53125 -1.265625 11.296875 4.34375 
Q 5.078125 9.96875 4.203125 18.890625 
z
" id="ArialMT-51"/>
      </defs>
      <g style="fill:#262626;" transform="translate(754.002855 655.247187)scale(0.22 -0.22)">
       <use xlink:href="#ArialMT-48"/>
       <use x="55.615234" xlink:href="#ArialMT-46"/>
       <use x="83.398438" xlink:href="#ArialMT-51"/>
       <use x="139.013672" xlink:href="#ArialMT-48"/>
      </g>
     </g>
    </g>
    <g id="xtick_7">
     <g id="line2d_7">
      <path clip-path="url(#p1a0904d314)" d="M 882.342205 630 
L 882.342205 86.4 
" style="fill:none;stroke:#cccccc;stroke-linecap:round;"/>
     </g>
     <g id="text_7">
      <!-- 0.35 -->
      <g style="fill:#262626;" transform="translate(860.935174 655.247187)scale(0.22 -0.22)">
       <use xlink:href="#ArialMT-48"/>
       <use x="55.615234" xlink:href="#ArialMT-46"/>
       <use x="83.398438" xlink:href="#ArialMT-51"/>
       <use x="139.013672" xlink:href="#ArialMT-53"/>
      </g>
     </g>
    </g>
    <g id="xtick_8">
     <g id="line2d_8">
      <path clip-path="url(#p1a0904d314)" d="M 989.274525 630 
L 989.274525 86.4 
" style="fill:none;stroke:#cccccc;stroke-linecap:round;"/>
     </g>
     <g id="text_8">
      <!-- 0.40 -->
      <defs>
       <path d="M 32.328125 0 
L 32.328125 17.140625 
L 1.265625 17.140625 
L 1.265625 25.203125 
L 33.9375 71.578125 
L 41.109375 71.578125 
L 41.109375 25.203125 
L 50.78125 25.203125 
L 50.78125 17.140625 
L 41.109375 17.140625 
L 41.109375 0 
z
M 32.328125 25.203125 
L 32.328125 57.46875 
L 9.90625 25.203125 
z
" id="ArialMT-52"/>
      </defs>
      <g style="fill:#262626;" transform="translate(967.867493 655.247187)scale(0.22 -0.22)">
       <use xlink:href="#ArialMT-48"/>
       <use x="55.615234" xlink:href="#ArialMT-46"/>
       <use x="83.398438" xlink:href="#ArialMT-52"/>
       <use x="139.013672" xlink:href="#ArialMT-48"/>
      </g>
     </g>
    </g>
    <g id="text_9">
     <!-- Simulation Result -->
     <defs>
      <path d="M 4.5 23 
L 13.421875 23.78125 
Q 14.0625 18.40625 16.375 14.96875 
Q 18.703125 11.53125 23.578125 9.40625 
Q 28.46875 7.28125 34.578125 7.28125 
Q 39.984375 7.28125 44.140625 8.890625 
Q 48.296875 10.5 50.3125 13.296875 
Q 52.34375 16.109375 52.34375 19.4375 
Q 52.34375 22.796875 50.390625 25.3125 
Q 48.4375 27.828125 43.953125 29.546875 
Q 41.0625 30.671875 31.203125 33.03125 
Q 21.34375 35.40625 17.390625 37.5 
Q 12.25 40.1875 9.734375 44.15625 
Q 7.234375 48.140625 7.234375 53.078125 
Q 7.234375 58.5 10.296875 63.203125 
Q 13.375 67.921875 19.28125 70.359375 
Q 25.203125 72.796875 32.421875 72.796875 
Q 40.375 72.796875 46.453125 70.234375 
Q 52.546875 67.671875 55.8125 62.6875 
Q 59.078125 57.71875 59.328125 51.421875 
L 50.25 50.734375 
Q 49.515625 57.515625 45.28125 60.984375 
Q 41.0625 64.453125 32.8125 64.453125 
Q 24.21875 64.453125 20.28125 61.296875 
Q 16.359375 58.15625 16.359375 53.71875 
Q 16.359375 49.859375 19.140625 47.359375 
Q 21.875 44.875 33.421875 42.265625 
Q 44.96875 39.65625 49.265625 37.703125 
Q 55.515625 34.8125 58.484375 30.390625 
Q 61.46875 25.984375 61.46875 20.21875 
Q 61.46875 14.5 58.203125 9.4375 
Q 54.9375 4.390625 48.796875 1.578125 
Q 42.671875 -1.21875 35.015625 -1.21875 
Q 25.296875 -1.21875 18.71875 1.609375 
Q 12.15625 4.4375 8.421875 10.125 
Q 4.6875 15.828125 4.5 23 
z
" id="ArialMT-83"/>
      <path d="M 6.640625 61.46875 
L 6.640625 71.578125 
L 15.4375 71.578125 
L 15.4375 61.46875 
z
M 6.640625 0 
L 6.640625 51.859375 
L 15.4375 51.859375 
L 15.4375 0 
z
" id="ArialMT-105"/>
      <path d="M 6.59375 0 
L 6.59375 51.859375 
L 14.453125 51.859375 
L 14.453125 44.578125 
Q 16.890625 48.390625 20.9375 50.703125 
Q 25 53.03125 30.171875 53.03125 
Q 35.9375 53.03125 39.625 50.640625 
Q 43.3125 48.25 44.828125 43.953125 
Q 50.984375 53.03125 60.84375 53.03125 
Q 68.5625 53.03125 72.703125 48.75 
Q 76.859375 44.484375 76.859375 35.59375 
L 76.859375 0 
L 68.109375 0 
L 68.109375 32.671875 
Q 68.109375 37.9375 67.25 40.25 
Q 66.40625 42.578125 64.15625 43.984375 
Q 61.921875 45.40625 58.890625 45.40625 
Q 53.421875 45.40625 49.796875 41.765625 
Q 46.1875 38.140625 46.1875 30.125 
L 46.1875 0 
L 37.40625 0 
L 37.40625 33.6875 
Q 37.40625 39.546875 35.25 42.46875 
Q 33.109375 45.40625 28.21875 45.40625 
Q 24.515625 45.40625 21.359375 43.453125 
Q 18.21875 41.5 16.796875 37.734375 
Q 15.375 33.984375 15.375 26.90625 
L 15.375 0 
z
" id="ArialMT-109"/>
      <path d="M 40.578125 0 
L 40.578125 7.625 
Q 34.515625 -1.171875 24.125 -1.171875 
Q 19.53125 -1.171875 15.546875 0.578125 
Q 11.578125 2.34375 9.640625 5 
Q 7.71875 7.671875 6.9375 11.53125 
Q 6.390625 14.109375 6.390625 19.734375 
L 6.390625 51.859375 
L 15.1875 51.859375 
L 15.1875 23.09375 
Q 15.1875 16.21875 15.71875 13.8125 
Q 16.546875 10.359375 19.234375 8.375 
Q 21.921875 6.390625 25.875 6.390625 
Q 29.828125 6.390625 33.296875 8.421875 
Q 36.765625 10.453125 38.203125 13.9375 
Q 39.65625 17.4375 39.65625 24.078125 
L 39.65625 51.859375 
L 48.4375 51.859375 
L 48.4375 0 
z
" id="ArialMT-117"/>
      <path d="M 6.390625 0 
L 6.390625 71.578125 
L 15.1875 71.578125 
L 15.1875 0 
z
" id="ArialMT-108"/>
      <path d="M 40.4375 6.390625 
Q 35.546875 2.25 31.03125 0.53125 
Q 26.515625 -1.171875 21.34375 -1.171875 
Q 12.796875 -1.171875 8.203125 3 
Q 3.609375 7.171875 3.609375 13.671875 
Q 3.609375 17.484375 5.34375 20.625 
Q 7.078125 23.78125 9.890625 25.6875 
Q 12.703125 27.59375 16.21875 28.5625 
Q 18.796875 29.25 24.03125 29.890625 
Q 34.671875 31.15625 39.703125 32.90625 
Q 39.75 34.71875 39.75 35.203125 
Q 39.75 40.578125 37.25 42.78125 
Q 33.890625 45.75 27.25 45.75 
Q 21.046875 45.75 18.09375 43.578125 
Q 15.140625 41.40625 13.71875 35.890625 
L 5.125 37.0625 
Q 6.296875 42.578125 8.984375 45.96875 
Q 11.671875 49.359375 16.75 51.1875 
Q 21.828125 53.03125 28.515625 53.03125 
Q 35.15625 53.03125 39.296875 51.46875 
Q 43.453125 49.90625 45.40625 47.53125 
Q 47.359375 45.171875 48.140625 41.546875 
Q 48.578125 39.3125 48.578125 33.453125 
L 48.578125 21.734375 
Q 48.578125 9.46875 49.140625 6.21875 
Q 49.703125 2.984375 51.375 0 
L 42.1875 0 
Q 40.828125 2.734375 40.4375 6.390625 
z
M 39.703125 26.03125 
Q 34.90625 24.078125 25.34375 22.703125 
Q 19.921875 21.921875 17.671875 20.9375 
Q 15.4375 19.96875 14.203125 18.09375 
Q 12.984375 16.21875 12.984375 13.921875 
Q 12.984375 10.40625 15.640625 8.0625 
Q 18.3125 5.71875 23.4375 5.71875 
Q 28.515625 5.71875 32.46875 7.9375 
Q 36.421875 10.15625 38.28125 14.015625 
Q 39.703125 17 39.703125 22.796875 
z
" id="ArialMT-97"/>
      <path d="M 25.78125 7.859375 
L 27.046875 0.09375 
Q 23.34375 -0.6875 20.40625 -0.6875 
Q 15.625 -0.6875 12.984375 0.828125 
Q 10.359375 2.34375 9.28125 4.8125 
Q 8.203125 7.28125 8.203125 15.1875 
L 8.203125 45.015625 
L 1.765625 45.015625 
L 1.765625 51.859375 
L 8.203125 51.859375 
L 8.203125 64.703125 
L 16.9375 69.96875 
L 16.9375 51.859375 
L 25.78125 51.859375 
L 25.78125 45.015625 
L 16.9375 45.015625 
L 16.9375 14.703125 
Q 16.9375 10.9375 17.40625 9.859375 
Q 17.875 8.796875 18.921875 8.15625 
Q 19.96875 7.515625 21.921875 7.515625 
Q 23.390625 7.515625 25.78125 7.859375 
z
" id="ArialMT-116"/>
      <path d="M 3.328125 25.921875 
Q 3.328125 40.328125 11.328125 47.265625 
Q 18.015625 53.03125 27.640625 53.03125 
Q 38.328125 53.03125 45.109375 46.015625 
Q 51.90625 39.015625 51.90625 26.65625 
Q 51.90625 16.65625 48.90625 10.90625 
Q 45.90625 5.171875 40.15625 2 
Q 34.421875 -1.171875 27.640625 -1.171875 
Q 16.75 -1.171875 10.03125 5.8125 
Q 3.328125 12.796875 3.328125 25.921875 
z
M 12.359375 25.921875 
Q 12.359375 15.96875 16.703125 11.015625 
Q 21.046875 6.0625 27.640625 6.0625 
Q 34.1875 6.0625 38.53125 11.03125 
Q 42.875 16.015625 42.875 26.21875 
Q 42.875 35.84375 38.5 40.796875 
Q 34.125 45.75 27.640625 45.75 
Q 21.046875 45.75 16.703125 40.8125 
Q 12.359375 35.890625 12.359375 25.921875 
z
" id="ArialMT-111"/>
      <path d="M 6.59375 0 
L 6.59375 51.859375 
L 14.5 51.859375 
L 14.5 44.484375 
Q 20.21875 53.03125 31 53.03125 
Q 35.6875 53.03125 39.625 51.34375 
Q 43.5625 49.65625 45.515625 46.921875 
Q 47.46875 44.1875 48.25 40.4375 
Q 48.734375 37.984375 48.734375 31.890625 
L 48.734375 0 
L 39.9375 0 
L 39.9375 31.546875 
Q 39.9375 36.921875 38.90625 39.578125 
Q 37.890625 42.234375 35.28125 43.8125 
Q 32.671875 45.40625 29.15625 45.40625 
Q 23.53125 45.40625 19.453125 41.84375 
Q 15.375 38.28125 15.375 28.328125 
L 15.375 0 
z
" id="ArialMT-110"/>
      <path id="ArialMT-32"/>
      <path d="M 7.859375 0 
L 7.859375 71.578125 
L 39.59375 71.578125 
Q 49.171875 71.578125 54.140625 69.640625 
Q 59.125 67.71875 62.109375 62.828125 
Q 65.09375 57.953125 65.09375 52.046875 
Q 65.09375 44.4375 60.15625 39.203125 
Q 55.21875 33.984375 44.921875 32.5625 
Q 48.6875 30.765625 50.640625 29 
Q 54.78125 25.203125 58.5 19.484375 
L 70.953125 0 
L 59.03125 0 
L 49.5625 14.890625 
Q 45.40625 21.34375 42.71875 24.75 
Q 40.046875 28.171875 37.921875 29.53125 
Q 35.796875 30.90625 33.59375 31.453125 
Q 31.984375 31.78125 28.328125 31.78125 
L 17.328125 31.78125 
L 17.328125 0 
z
M 17.328125 39.984375 
L 37.703125 39.984375 
Q 44.1875 39.984375 47.84375 41.328125 
Q 51.515625 42.671875 53.421875 45.625 
Q 55.328125 48.578125 55.328125 52.046875 
Q 55.328125 57.125 51.640625 60.390625 
Q 47.953125 63.671875 39.984375 63.671875 
L 17.328125 63.671875 
z
" id="ArialMT-82"/>
      <path d="M 42.09375 16.703125 
L 51.171875 15.578125 
Q 49.03125 7.625 43.21875 3.21875 
Q 37.40625 -1.171875 28.375 -1.171875 
Q 17 -1.171875 10.328125 5.828125 
Q 3.65625 12.84375 3.65625 25.484375 
Q 3.65625 38.578125 10.390625 45.796875 
Q 17.140625 53.03125 27.875 53.03125 
Q 38.28125 53.03125 44.875 45.953125 
Q 51.46875 38.875 51.46875 26.03125 
Q 51.46875 25.25 51.421875 23.6875 
L 12.75 23.6875 
Q 13.234375 15.140625 17.578125 10.59375 
Q 21.921875 6.0625 28.421875 6.0625 
Q 33.25 6.0625 36.671875 8.59375 
Q 40.09375 11.140625 42.09375 16.703125 
z
M 13.234375 30.90625 
L 42.1875 30.90625 
Q 41.609375 37.453125 38.875 40.71875 
Q 34.671875 45.796875 27.984375 45.796875 
Q 21.921875 45.796875 17.796875 41.75 
Q 13.671875 37.703125 13.234375 30.90625 
z
" id="ArialMT-101"/>
      <path d="M 3.078125 15.484375 
L 11.765625 16.84375 
Q 12.5 11.625 15.84375 8.84375 
Q 19.1875 6.0625 25.203125 6.0625 
Q 31.25 6.0625 34.171875 8.515625 
Q 37.109375 10.984375 37.109375 14.3125 
Q 37.109375 17.28125 34.515625 19 
Q 32.71875 20.171875 25.53125 21.96875 
Q 15.875 24.421875 12.140625 26.203125 
Q 8.40625 27.984375 6.46875 31.125 
Q 4.546875 34.28125 4.546875 38.09375 
Q 4.546875 41.546875 6.125 44.5 
Q 7.71875 47.46875 10.453125 49.421875 
Q 12.5 50.921875 16.03125 51.96875 
Q 19.578125 53.03125 23.640625 53.03125 
Q 29.734375 53.03125 34.34375 51.265625 
Q 38.96875 49.515625 41.15625 46.5 
Q 43.359375 43.5 44.1875 38.484375 
L 35.59375 37.3125 
Q 35.015625 41.3125 32.203125 43.546875 
Q 29.390625 45.796875 24.265625 45.796875 
Q 18.21875 45.796875 15.625 43.796875 
Q 13.03125 41.796875 13.03125 39.109375 
Q 13.03125 37.40625 14.109375 36.03125 
Q 15.1875 34.625 17.484375 33.6875 
Q 18.796875 33.203125 25.25 31.453125 
Q 34.578125 28.953125 38.25 27.359375 
Q 41.9375 25.78125 44.03125 22.75 
Q 46.140625 19.734375 46.140625 15.234375 
Q 46.140625 10.84375 43.578125 6.953125 
Q 41.015625 3.078125 36.171875 0.953125 
Q 31.34375 -1.171875 25.25 -1.171875 
Q 15.140625 -1.171875 9.84375 3.03125 
Q 4.546875 7.234375 3.078125 15.484375 
z
" id="ArialMT-115"/>
     </defs>
     <g style="fill:#262626;" transform="translate(497.02875 680.798437)scale(0.24 -0.24)">
      <use xlink:href="#ArialMT-83"/>
      <use x="66.699219" xlink:href="#ArialMT-105"/>
      <use x="88.916016" xlink:href="#ArialMT-109"/>
      <use x="172.216797" xlink:href="#ArialMT-117"/>
      <use x="227.832031" xlink:href="#ArialMT-108"/>
      <use x="250.048828" xlink:href="#ArialMT-97"/>
      <use x="305.664062" xlink:href="#ArialMT-116"/>
      <use x="333.447266" xlink:href="#ArialMT-105"/>
      <use x="355.664062" xlink:href="#ArialMT-111"/>
      <use x="411.279297" xlink:href="#ArialMT-110"/>
      <use x="466.894531" xlink:href="#ArialMT-32"/>
      <use x="494.677734" xlink:href="#ArialMT-82"/>
      <use x="566.894531" xlink:href="#ArialMT-101"/>
      <use x="622.509766" xlink:href="#ArialMT-115"/>
      <use x="672.509766" xlink:href="#ArialMT-117"/>
      <use x="728.125" xlink:href="#ArialMT-108"/>
      <use x="750.341797" xlink:href="#ArialMT-116"/>
     </g>
    </g>
   </g>
   <g id="matplotlib.axis_2">
    <g id="ytick_1">
     <g id="line2d_9">
      <path clip-path="url(#p1a0904d314)" d="M 144 610.927964 
L 1036.8 610.927964 
" style="fill:none;stroke:#cccccc;stroke-linecap:round;"/>
     </g>
     <g id="text_10">
      <!-- 0.0 -->
      <g style="fill:#262626;" transform="translate(103.92 618.801558)scale(0.22 -0.22)">
       <use xlink:href="#ArialMT-48"/>
       <use x="55.615234" xlink:href="#ArialMT-46"/>
       <use x="83.398438" xlink:href="#ArialMT-48"/>
      </g>
     </g>
    </g>
    <g id="ytick_2">
     <g id="line2d_10">
      <path clip-path="url(#p1a0904d314)" d="M 144 492.54981 
L 1036.8 492.54981 
" style="fill:none;stroke:#cccccc;stroke-linecap:round;"/>
     </g>
     <g id="text_11">
      <!-- 0.1 -->
      <g style="fill:#262626;" transform="translate(103.92 500.423404)scale(0.22 -0.22)">
       <use xlink:href="#ArialMT-48"/>
       <use x="55.615234" xlink:href="#ArialMT-46"/>
       <use x="83.398438" xlink:href="#ArialMT-49"/>
      </g>
     </g>
    </g>
    <g id="ytick_3">
     <g id="line2d_11">
      <path clip-path="url(#p1a0904d314)" d="M 144 374.171656 
L 1036.8 374.171656 
" style="fill:none;stroke:#cccccc;stroke-linecap:round;"/>
     </g>
     <g id="text_12">
      <!-- 0.2 -->
      <g style="fill:#262626;" transform="translate(103.92 382.045249)scale(0.22 -0.22)">
       <use xlink:href="#ArialMT-48"/>
       <use x="55.615234" xlink:href="#ArialMT-46"/>
       <use x="83.398438" xlink:href="#ArialMT-50"/>
      </g>
     </g>
    </g>
    <g id="ytick_4">
     <g id="line2d_12">
      <path clip-path="url(#p1a0904d314)" d="M 144 255.793502 
L 1036.8 255.793502 
" style="fill:none;stroke:#cccccc;stroke-linecap:round;"/>
     </g>
     <g id="text_13">
      <!-- 0.3 -->
      <g style="fill:#262626;" transform="translate(103.92 263.667095)scale(0.22 -0.22)">
       <use xlink:href="#ArialMT-48"/>
       <use x="55.615234" xlink:href="#ArialMT-46"/>
       <use x="83.398438" xlink:href="#ArialMT-51"/>
      </g>
     </g>
    </g>
    <g id="ytick_5">
     <g id="line2d_13">
      <path clip-path="url(#p1a0904d314)" d="M 144 137.415347 
L 1036.8 137.415347 
" style="fill:none;stroke:#cccccc;stroke-linecap:round;"/>
     </g>
     <g id="text_14">
      <!-- 0.4 -->
      <g style="fill:#262626;" transform="translate(103.92 145.288941)scale(0.22 -0.22)">
       <use xlink:href="#ArialMT-48"/>
       <use x="55.615234" xlink:href="#ArialMT-46"/>
       <use x="83.398438" xlink:href="#ArialMT-52"/>
      </g>
     </g>
    </g>
    <g id="text_15">
     <!-- Predicted -->
     <defs>
      <path d="M 7.71875 0 
L 7.71875 71.578125 
L 34.71875 71.578125 
Q 41.84375 71.578125 45.609375 70.90625 
Q 50.875 70.015625 54.4375 67.546875 
Q 58.015625 65.09375 60.1875 60.640625 
Q 62.359375 56.203125 62.359375 50.875 
Q 62.359375 41.75 56.546875 35.421875 
Q 50.734375 29.109375 35.546875 29.109375 
L 17.1875 29.109375 
L 17.1875 0 
z
M 17.1875 37.546875 
L 35.6875 37.546875 
Q 44.875 37.546875 48.734375 40.96875 
Q 52.59375 44.390625 52.59375 50.59375 
Q 52.59375 55.078125 50.3125 58.265625 
Q 48.046875 61.46875 44.34375 62.5 
Q 41.9375 63.140625 35.5 63.140625 
L 17.1875 63.140625 
z
" id="ArialMT-80"/>
      <path d="M 6.5 0 
L 6.5 51.859375 
L 14.40625 51.859375 
L 14.40625 44 
Q 17.4375 49.515625 20 51.265625 
Q 22.5625 53.03125 25.640625 53.03125 
Q 30.078125 53.03125 34.671875 50.203125 
L 31.640625 42.046875 
Q 28.421875 43.953125 25.203125 43.953125 
Q 22.3125 43.953125 20.015625 42.21875 
Q 17.71875 40.484375 16.75 37.40625 
Q 15.28125 32.71875 15.28125 27.15625 
L 15.28125 0 
z
" id="ArialMT-114"/>
      <path d="M 40.234375 0 
L 40.234375 6.546875 
Q 35.296875 -1.171875 25.734375 -1.171875 
Q 19.53125 -1.171875 14.328125 2.25 
Q 9.125 5.671875 6.265625 11.796875 
Q 3.421875 17.921875 3.421875 25.875 
Q 3.421875 33.640625 6 39.96875 
Q 8.59375 46.296875 13.765625 49.65625 
Q 18.953125 53.03125 25.34375 53.03125 
Q 30.03125 53.03125 33.6875 51.046875 
Q 37.359375 49.078125 39.65625 45.90625 
L 39.65625 71.578125 
L 48.390625 71.578125 
L 48.390625 0 
z
M 12.453125 25.875 
Q 12.453125 15.921875 16.640625 10.984375 
Q 20.84375 6.0625 26.5625 6.0625 
Q 32.328125 6.0625 36.34375 10.765625 
Q 40.375 15.484375 40.375 25.140625 
Q 40.375 35.796875 36.265625 40.765625 
Q 32.171875 45.75 26.171875 45.75 
Q 20.3125 45.75 16.375 40.96875 
Q 12.453125 36.1875 12.453125 25.875 
z
" id="ArialMT-100"/>
      <path d="M 40.4375 19 
L 49.078125 17.875 
Q 47.65625 8.9375 41.8125 3.875 
Q 35.984375 -1.171875 27.484375 -1.171875 
Q 16.84375 -1.171875 10.375 5.78125 
Q 3.90625 12.75 3.90625 25.734375 
Q 3.90625 34.125 6.6875 40.421875 
Q 9.46875 46.734375 15.15625 49.875 
Q 20.84375 53.03125 27.546875 53.03125 
Q 35.984375 53.03125 41.359375 48.75 
Q 46.734375 44.484375 48.25 36.625 
L 39.703125 35.296875 
Q 38.484375 40.53125 35.375 43.15625 
Q 32.28125 45.796875 27.875 45.796875 
Q 21.234375 45.796875 17.078125 41.03125 
Q 12.9375 36.28125 12.9375 25.984375 
Q 12.9375 15.53125 16.9375 10.796875 
Q 20.953125 6.0625 27.390625 6.0625 
Q 32.5625 6.0625 36.03125 9.234375 
Q 39.5 12.40625 40.4375 19 
z
" id="ArialMT-99"/>
     </defs>
     <g style="fill:#262626;" transform="translate(95.15 408.8925)rotate(-90)scale(0.24 -0.24)">
      <use xlink:href="#ArialMT-80"/>
      <use x="66.699219" xlink:href="#ArialMT-114"/>
      <use x="100" xlink:href="#ArialMT-101"/>
      <use x="155.615234" xlink:href="#ArialMT-100"/>
      <use x="211.230469" xlink:href="#ArialMT-105"/>
      <use x="233.447266" xlink:href="#ArialMT-99"/>
      <use x="283.447266" xlink:href="#ArialMT-116"/>
      <use x="311.230469" xlink:href="#ArialMT-101"/>
      <use x="366.845703" xlink:href="#ArialMT-100"/>
     </g>
    </g>
   </g>
   <g id="line2d_14">
    <defs>
     <path d="M -5 0 
L 5 0 
M 0 5 
L 0 -5 
" id="m1e8f83d368" style="stroke:#64b5cd;"/>
    </defs>
    <g clip-path="url(#p1a0904d314)">
     <use style="fill:#64b5cd;stroke:#64b5cd;" x="366.198599" xlink:href="#m1e8f83d368" y="464.104105"/>
     <use style="fill:#64b5cd;stroke:#64b5cd;" x="225.472243" xlink:href="#m1e8f83d368" y="457.635507"/>
     <use style="fill:#64b5cd;stroke:#64b5cd;" x="182.826616" xlink:href="#m1e8f83d368" y="514.20736"/>
     <use style="fill:#64b5cd;stroke:#64b5cd;" x="742.902461" xlink:href="#m1e8f83d368" y="382.98781"/>
     <use style="fill:#64b5cd;stroke:#64b5cd;" x="231.862795" xlink:href="#m1e8f83d368" y="490.092411"/>
     <use style="fill:#64b5cd;stroke:#64b5cd;" x="160.465769" xlink:href="#m1e8f83d368" y="493.788064"/>
     <use style="fill:#64b5cd;stroke:#64b5cd;" x="436.753196" xlink:href="#m1e8f83d368" y="425.164387"/>
     <use style="fill:#64b5cd;stroke:#64b5cd;" x="504.514677" xlink:href="#m1e8f83d368" y="344.238521"/>
     <use style="fill:#64b5cd;stroke:#64b5cd;" x="733.825095" xlink:href="#m1e8f83d368" y="460.061207"/>
     <use style="fill:#64b5cd;stroke:#64b5cd;" x="351.901621" xlink:href="#m1e8f83d368" y="495.754485"/>
     <use style="fill:#64b5cd;stroke:#64b5cd;" x="725.35646" xlink:href="#m1e8f83d368" y="263.174707"/>
     <use style="fill:#64b5cd;stroke:#64b5cd;" x="830.856274" xlink:href="#m1e8f83d368" y="360.772311"/>
     <use style="fill:#64b5cd;stroke:#64b5cd;" x="404.711179" xlink:href="#m1e8f83d368" y="462.616706"/>
     <use style="fill:#64b5cd;stroke:#64b5cd;" x="718.379316" xlink:href="#m1e8f83d368" y="319.861614"/>
     <use style="fill:#64b5cd;stroke:#64b5cd;" x="841.21439" xlink:href="#m1e8f83d368" y="369.142739"/>
     <use style="fill:#64b5cd;stroke:#64b5cd;" x="497.531342" xlink:href="#m1e8f83d368" y="273.050467"/>
     <use style="fill:#64b5cd;stroke:#64b5cd;" x="535.622261" xlink:href="#m1e8f83d368" y="472.44486"/>
     <use style="fill:#64b5cd;stroke:#64b5cd;" x="488.096785" xlink:href="#m1e8f83d368" y="396.170512"/>
     <use style="fill:#64b5cd;stroke:#64b5cd;" x="523.804429" xlink:href="#m1e8f83d368" y="400.104401"/>
     <use style="fill:#64b5cd;stroke:#64b5cd;" x="696.273429" xlink:href="#m1e8f83d368" y="198.85754"/>
     <use style="fill:#64b5cd;stroke:#64b5cd;" x="787.291255" xlink:href="#m1e8f83d368" y="415.03154"/>
     <use style="fill:#64b5cd;stroke:#64b5cd;" x="396.344418" xlink:href="#m1e8f83d368" y="436.008401"/>
     <use style="fill:#64b5cd;stroke:#64b5cd;" x="348.063193" xlink:href="#m1e8f83d368" y="445.667923"/>
     <use style="fill:#64b5cd;stroke:#64b5cd;" x="256.024335" xlink:href="#m1e8f83d368" y="515.325377"/>
     <use style="fill:#64b5cd;stroke:#64b5cd;" x="374.113317" xlink:href="#m1e8f83d368" y="461.785455"/>
     <use style="fill:#64b5cd;stroke:#64b5cd;" x="610.032777" xlink:href="#m1e8f83d368" y="348.372468"/>
     <use style="fill:#64b5cd;stroke:#64b5cd;" x="490.257034" xlink:href="#m1e8f83d368" y="374.239705"/>
     <use style="fill:#64b5cd;stroke:#64b5cd;" x="290.302291" xlink:href="#m1e8f83d368" y="492.237787"/>
     <use style="fill:#64b5cd;stroke:#64b5cd;" x="309.294648" xlink:href="#m1e8f83d368" y="506.161542"/>
     <use style="fill:#64b5cd;stroke:#64b5cd;" x="806.598479" xlink:href="#m1e8f83d368" y="421.562345"/>
     <use style="fill:#64b5cd;stroke:#64b5cd;" x="290.650038" xlink:href="#m1e8f83d368" y="474.974736"/>
     <use style="fill:#64b5cd;stroke:#64b5cd;" x="411.047909" xlink:href="#m1e8f83d368" y="369.369124"/>
     <use style="fill:#64b5cd;stroke:#64b5cd;" x="182.592115" xlink:href="#m1e8f83d368" y="514.965448"/>
     <use style="fill:#64b5cd;stroke:#64b5cd;" x="454.612928" xlink:href="#m1e8f83d368" y="440.740725"/>
     <use style="fill:#64b5cd;stroke:#64b5cd;" x="366.277533" xlink:href="#m1e8f83d368" y="434.632765"/>
     <use style="fill:#64b5cd;stroke:#64b5cd;" x="274.576135" xlink:href="#m1e8f83d368" y="492.386358"/>
     <use style="fill:#64b5cd;stroke:#64b5cd;" x="219.361825" xlink:href="#m1e8f83d368" y="454.334217"/>
     <use style="fill:#64b5cd;stroke:#64b5cd;" x="401.734308" xlink:href="#m1e8f83d368" y="502.931919"/>
     <use style="fill:#64b5cd;stroke:#64b5cd;" x="265.424978" xlink:href="#m1e8f83d368" y="505.026486"/>
     <use style="fill:#64b5cd;stroke:#64b5cd;" x="811.053992" xlink:href="#m1e8f83d368" y="231.484709"/>
     <use style="fill:#64b5cd;stroke:#64b5cd;" x="315.057189" xlink:href="#m1e8f83d368" y="517.249943"/>
     <use style="fill:#64b5cd;stroke:#64b5cd;" x="627.349751" xlink:href="#m1e8f83d368" y="111.776051"/>
     <use style="fill:#64b5cd;stroke:#64b5cd;" x="556.453232" xlink:href="#m1e8f83d368" y="415.405878"/>
     <use style="fill:#64b5cd;stroke:#64b5cd;" x="425.071314" xlink:href="#m1e8f83d368" y="448.204116"/>
     <use style="fill:#64b5cd;stroke:#64b5cd;" x="327.312548" xlink:href="#m1e8f83d368" y="438.364396"/>
     <use style="fill:#64b5cd;stroke:#64b5cd;" x="429.152852" xlink:href="#m1e8f83d368" y="448.618772"/>
     <use style="fill:#64b5cd;stroke:#64b5cd;" x="848.700577" xlink:href="#m1e8f83d368" y="339.387292"/>
     <use style="fill:#64b5cd;stroke:#64b5cd;" x="601.14981" xlink:href="#m1e8f83d368" y="399.412217"/>
     <use style="fill:#64b5cd;stroke:#64b5cd;" x="604.318175" xlink:href="#m1e8f83d368" y="358.871605"/>
     <use style="fill:#64b5cd;stroke:#64b5cd;" x="283.521217" xlink:href="#m1e8f83d368" y="493.898783"/>
     <use style="fill:#64b5cd;stroke:#64b5cd;" x="284.506501" xlink:href="#m1e8f83d368" y="478.778138"/>
     <use style="fill:#64b5cd;stroke:#64b5cd;" x="531.583534" xlink:href="#m1e8f83d368" y="419.291849"/>
     <use style="fill:#64b5cd;stroke:#64b5cd;" x="212.233004" xlink:href="#m1e8f83d368" y="512.398942"/>
     <use style="fill:#64b5cd;stroke:#64b5cd;" x="735.805323" xlink:href="#m1e8f83d368" y="440.544992"/>
     <use style="fill:#64b5cd;stroke:#64b5cd;" x="347.680608" xlink:href="#m1e8f83d368" y="493.669948"/>
     <use style="fill:#64b5cd;stroke:#64b5cd;" x="369.067072" xlink:href="#m1e8f83d368" y="519.431905"/>
     <use style="fill:#64b5cd;stroke:#64b5cd;" x="271.639848" xlink:href="#m1e8f83d368" y="524.0681"/>
     <use style="fill:#64b5cd;stroke:#64b5cd;" x="220.586825" xlink:href="#m1e8f83d368" y="486.649909"/>
     <use style="fill:#64b5cd;stroke:#64b5cd;" x="451.961713" xlink:href="#m1e8f83d368" y="470.215761"/>
     <use style="fill:#64b5cd;stroke:#64b5cd;" x="686.799304" xlink:href="#m1e8f83d368" y="340.902413"/>
     <use style="fill:#64b5cd;stroke:#64b5cd;" x="459.62538" xlink:href="#m1e8f83d368" y="359.083281"/>
     <use style="fill:#64b5cd;stroke:#64b5cd;" x="457.308701" xlink:href="#m1e8f83d368" y="408.580932"/>
     <use style="fill:#64b5cd;stroke:#64b5cd;" x="500.950266" xlink:href="#m1e8f83d368" y="439.673708"/>
     <use style="fill:#64b5cd;stroke:#64b5cd;" x="536.384701" xlink:href="#m1e8f83d368" y="384.162552"/>
     <use style="fill:#64b5cd;stroke:#64b5cd;" x="629.355986" xlink:href="#m1e8f83d368" y="417.005637"/>
     <use style="fill:#64b5cd;stroke:#64b5cd;" x="302.656474" xlink:href="#m1e8f83d368" y="516.714537"/>
     <use style="fill:#64b5cd;stroke:#64b5cd;" x="376.195894" xlink:href="#m1e8f83d368" y="490.177024"/>
     <use style="fill:#64b5cd;stroke:#64b5cd;" x="456.989202" xlink:href="#m1e8f83d368" y="374.288109"/>
     <use style="fill:#64b5cd;stroke:#64b5cd;" x="475.089329" xlink:href="#m1e8f83d368" y="252.917388"/>
     <use style="fill:#64b5cd;stroke:#64b5cd;" x="860.064639" xlink:href="#m1e8f83d368" y="175.844858"/>
     <use style="fill:#64b5cd;stroke:#64b5cd;" x="740.547939" xlink:href="#m1e8f83d368" y="374.211114"/>
     <use style="fill:#64b5cd;stroke:#64b5cd;" x="564.948928" xlink:href="#m1e8f83d368" y="299.818383"/>
     <use style="fill:#64b5cd;stroke:#64b5cd;" x="455.482296" xlink:href="#m1e8f83d368" y="439.661417"/>
     <use style="fill:#64b5cd;stroke:#64b5cd;" x="372.006444" xlink:href="#m1e8f83d368" y="487.537151"/>
     <use style="fill:#64b5cd;stroke:#64b5cd;" x="266.208365" xlink:href="#m1e8f83d368" y="500.235207"/>
     <use style="fill:#64b5cd;stroke:#64b5cd;" x="883.122733" xlink:href="#m1e8f83d368" y="267.227951"/>
     <use style="fill:#64b5cd;stroke:#64b5cd;" x="759.93284" xlink:href="#m1e8f83d368" y="385.169841"/>
     <use style="fill:#64b5cd;stroke:#64b5cd;" x="541.650862" xlink:href="#m1e8f83d368" y="395.16464"/>
     <use style="fill:#64b5cd;stroke:#64b5cd;" x="771.402201" xlink:href="#m1e8f83d368" y="157.97026"/>
     <use style="fill:#64b5cd;stroke:#64b5cd;" x="408.831012" xlink:href="#m1e8f83d368" y="430.33652"/>
     <use style="fill:#64b5cd;stroke:#64b5cd;" x="328.670418" xlink:href="#m1e8f83d368" y="503.855862"/>
     <use style="fill:#64b5cd;stroke:#64b5cd;" x="340.249019" xlink:href="#m1e8f83d368" y="460.647365"/>
     <use style="fill:#64b5cd;stroke:#64b5cd;" x="604.318175" xlink:href="#m1e8f83d368" y="369.48389"/>
     <use style="fill:#64b5cd;stroke:#64b5cd;" x="762.448393" xlink:href="#m1e8f83d368" y="303.531824"/>
     <use style="fill:#64b5cd;stroke:#64b5cd;" x="323.917871" xlink:href="#m1e8f83d368" y="471.584507"/>
     <use style="fill:#64b5cd;stroke:#64b5cd;" x="210.072405" xlink:href="#m1e8f83d368" y="503.713186"/>
     <use style="fill:#64b5cd;stroke:#64b5cd;" x="383.324715" xlink:href="#m1e8f83d368" y="429.984433"/>
     <use style="fill:#64b5cd;stroke:#64b5cd;" x="832.068055" xlink:href="#m1e8f83d368" y="400.134662"/>
     <use style="fill:#64b5cd;stroke:#64b5cd;" x="601.952852" xlink:href="#m1e8f83d368" y="422.179437"/>
     <use style="fill:#64b5cd;stroke:#64b5cd;" x="252.629658" xlink:href="#m1e8f83d368" y="487.043685"/>
     <use style="fill:#64b5cd;stroke:#64b5cd;" x="430.85019" xlink:href="#m1e8f83d368" y="492.722177"/>
     <use style="fill:#64b5cd;stroke:#64b5cd;" x="264.661424" xlink:href="#m1e8f83d368" y="492.91842"/>
     <use style="fill:#64b5cd;stroke:#64b5cd;" x="347.680608" xlink:href="#m1e8f83d368" y="469.081228"/>
     <use style="fill:#64b5cd;stroke:#64b5cd;" x="637.666559" xlink:href="#m1e8f83d368" y="409.859024"/>
     <use style="fill:#64b5cd;stroke:#64b5cd;" x="521.940684" xlink:href="#m1e8f83d368" y="436.533406"/>
     <use style="fill:#64b5cd;stroke:#64b5cd;" x="1036.8" xlink:href="#m1e8f83d368" y="389.55462"/>
     <use style="fill:#64b5cd;stroke:#64b5cd;" x="213.409605" xlink:href="#m1e8f83d368" y="500.499145"/>
     <use style="fill:#64b5cd;stroke:#64b5cd;" x="643.210005" xlink:href="#m1e8f83d368" y="276.893218"/>
     <use style="fill:#64b5cd;stroke:#64b5cd;" x="167.363364" xlink:href="#m1e8f83d368" y="467.794095"/>
     <use style="fill:#64b5cd;stroke:#64b5cd;" x="495.009582" xlink:href="#m1e8f83d368" y="455.344751"/>
     <use style="fill:#64b5cd;stroke:#64b5cd;" x="269.799266" xlink:href="#m1e8f83d368" y="471.198728"/>
     <use style="fill:#64b5cd;stroke:#64b5cd;" x="250.377266" xlink:href="#m1e8f83d368" y="488.883489"/>
     <use style="fill:#64b5cd;stroke:#64b5cd;" x="672.037231" xlink:href="#m1e8f83d368" y="188.044125"/>
     <use style="fill:#64b5cd;stroke:#64b5cd;" x="707.731203" xlink:href="#m1e8f83d368" y="403.068342"/>
     <use style="fill:#64b5cd;stroke:#64b5cd;" x="364.875755" xlink:href="#m1e8f83d368" y="412.480365"/>
     <use style="fill:#64b5cd;stroke:#64b5cd;" x="949.669962" xlink:href="#m1e8f83d368" y="447.38425"/>
     <use style="fill:#64b5cd;stroke:#64b5cd;" x="483.128213" xlink:href="#m1e8f83d368" y="473.740069"/>
     <use style="fill:#64b5cd;stroke:#64b5cd;" x="268.471483" xlink:href="#m1e8f83d368" y="480.534769"/>
     <use style="fill:#64b5cd;stroke:#64b5cd;" x="268.005547" xlink:href="#m1e8f83d368" y="490.311929"/>
     <use style="fill:#64b5cd;stroke:#64b5cd;" x="913.233764" xlink:href="#m1e8f83d368" y="336.326279"/>
     <use style="fill:#64b5cd;stroke:#64b5cd;" x="596.124415" xlink:href="#m1e8f83d368" y="265.748044"/>
     <use style="fill:#64b5cd;stroke:#64b5cd;" x="322.220532" xlink:href="#m1e8f83d368" y="491.878634"/>
     <use style="fill:#64b5cd;stroke:#64b5cd;" x="760.13384" xlink:href="#m1e8f83d368" y="356.120359"/>
     <use style="fill:#64b5cd;stroke:#64b5cd;" x="300.155133" xlink:href="#m1e8f83d368" y="512.361286"/>
     <use style="fill:#64b5cd;stroke:#64b5cd;" x="437.51015" xlink:href="#m1e8f83d368" y="482.660449"/>
     <use style="fill:#64b5cd;stroke:#64b5cd;" x="607.373384" xlink:href="#m1e8f83d368" y="396.518314"/>
     <use style="fill:#64b5cd;stroke:#64b5cd;" x="776.193273" xlink:href="#m1e8f83d368" y="302.822225"/>
     <use style="fill:#64b5cd;stroke:#64b5cd;" x="323.025972" xlink:href="#m1e8f83d368" y="515.821329"/>
     <use style="fill:#64b5cd;stroke:#64b5cd;" x="456.989202" xlink:href="#m1e8f83d368" y="475.046846"/>
     <use style="fill:#64b5cd;stroke:#64b5cd;" x="444.129367" xlink:href="#m1e8f83d368" y="355.924766"/>
     <use style="fill:#64b5cd;stroke:#64b5cd;" x="703.455428" xlink:href="#m1e8f83d368" y="261.651977"/>
     <use style="fill:#64b5cd;stroke:#64b5cd;" x="508.079087" xlink:href="#m1e8f83d368" y="384.108256"/>
     <use style="fill:#64b5cd;stroke:#64b5cd;" x="495.349049" xlink:href="#m1e8f83d368" y="397.246085"/>
     <use style="fill:#64b5cd;stroke:#64b5cd;" x="316.535273" xlink:href="#m1e8f83d368" y="505.801093"/>
     <use style="fill:#64b5cd;stroke:#64b5cd;" x="556.052736" xlink:href="#m1e8f83d368" y="396.28202"/>
     <use style="fill:#64b5cd;stroke:#64b5cd;" x="704.121673" xlink:href="#m1e8f83d368" y="345.794874"/>
     <use style="fill:#64b5cd;stroke:#64b5cd;" x="312.036502" xlink:href="#m1e8f83d368" y="512.520702"/>
     <use style="fill:#64b5cd;stroke:#64b5cd;" x="620.952091" xlink:href="#m1e8f83d368" y="452.204142"/>
     <use style="fill:#64b5cd;stroke:#64b5cd;" x="250.469409" xlink:href="#m1e8f83d368" y="451.777619"/>
     <use style="fill:#64b5cd;stroke:#64b5cd;" x="463.896441" xlink:href="#m1e8f83d368" y="348.488367"/>
     <use style="fill:#64b5cd;stroke:#64b5cd;" x="911.883819" xlink:href="#m1e8f83d368" y="368.501814"/>
     <use style="fill:#64b5cd;stroke:#64b5cd;" x="349.054471" xlink:href="#m1e8f83d368" y="495.592645"/>
     <use style="fill:#64b5cd;stroke:#64b5cd;" x="580.495278" xlink:href="#m1e8f83d368" y="350.882768"/>
     <use style="fill:#64b5cd;stroke:#64b5cd;" x="316.606259" xlink:href="#m1e8f83d368" y="496.562453"/>
     <use style="fill:#64b5cd;stroke:#64b5cd;" x="343.225095" xlink:href="#m1e8f83d368" y="440.527235"/>
     <use style="fill:#64b5cd;stroke:#64b5cd;" x="718.379316" xlink:href="#m1e8f83d368" y="323.476873"/>
     <use style="fill:#64b5cd;stroke:#64b5cd;" x="305.510116" xlink:href="#m1e8f83d368" y="484.95239"/>
     <use style="fill:#64b5cd;stroke:#64b5cd;" x="360.367494" xlink:href="#m1e8f83d368" y="492.124021"/>
     <use style="fill:#64b5cd;stroke:#64b5cd;" x="514.54203" xlink:href="#m1e8f83d368" y="438.183696"/>
     <use style="fill:#64b5cd;stroke:#64b5cd;" x="336.713191" xlink:href="#m1e8f83d368" y="452.184544"/>
     <use style="fill:#64b5cd;stroke:#64b5cd;" x="515.304244" xlink:href="#m1e8f83d368" y="373.666057"/>
     <use style="fill:#64b5cd;stroke:#64b5cd;" x="250.932319" xlink:href="#m1e8f83d368" y="519.423085"/>
     <use style="fill:#64b5cd;stroke:#64b5cd;" x="794.169942" xlink:href="#m1e8f83d368" y="383.557178"/>
     <use style="fill:#64b5cd;stroke:#64b5cd;" x="490.257034" xlink:href="#m1e8f83d368" y="400.194119"/>
     <use style="fill:#64b5cd;stroke:#64b5cd;" x="523.942673" xlink:href="#m1e8f83d368" y="239.335479"/>
     <use style="fill:#64b5cd;stroke:#64b5cd;" x="387.285171" xlink:href="#m1e8f83d368" y="467.207841"/>
     <use style="fill:#64b5cd;stroke:#64b5cd;" x="673.569582" xlink:href="#m1e8f83d368" y="400.503287"/>
     <use style="fill:#64b5cd;stroke:#64b5cd;" x="289.353889" xlink:href="#m1e8f83d368" y="539.94117"/>
     <use style="fill:#64b5cd;stroke:#64b5cd;" x="229.744699" xlink:href="#m1e8f83d368" y="429.143577"/>
     <use style="fill:#64b5cd;stroke:#64b5cd;" x="214.08688" xlink:href="#m1e8f83d368" y="505.169351"/>
    </g>
   </g>
   <g id="line2d_15">
    <defs>
     <path d="M -5 0 
L 5 0 
M 0 5 
L 0 -5 
" id="m10dccd9787" style="stroke:#8172b3;"/>
    </defs>
    <g clip-path="url(#p1a0904d314)">
     <use style="fill:#8172b3;stroke:#8172b3;" x="561.545247" xlink:href="#m10dccd9787" y="363.066443"/>
     <use style="fill:#8172b3;stroke:#8172b3;" x="812.056768" xlink:href="#m10dccd9787" y="385.072016"/>
     <use style="fill:#8172b3;stroke:#8172b3;" x="144" xlink:href="#m10dccd9787" y="485.784935"/>
     <use style="fill:#8172b3;stroke:#8172b3;" x="350.177083" xlink:href="#m10dccd9787" y="449.641555"/>
     <use style="fill:#8172b3;stroke:#8172b3;" x="789.667529" xlink:href="#m10dccd9787" y="213.186627"/>
     <use style="fill:#8172b3;stroke:#8172b3;" x="517.980228" xlink:href="#m10dccd9787" y="453.46375"/>
     <use style="fill:#8172b3;stroke:#8172b3;" x="527.997853" xlink:href="#m10dccd9787" y="407.804713"/>
     <use style="fill:#8172b3;stroke:#8172b3;" x="286.018906" xlink:href="#m10dccd9787" y="485.588385"/>
     <use style="fill:#8172b3;stroke:#8172b3;" x="253.842042" xlink:href="#m10dccd9787" y="497.932146"/>
     <use style="fill:#8172b3;stroke:#8172b3;" x="250.377266" xlink:href="#m10dccd9787" y="490.037715"/>
     <use style="fill:#8172b3;stroke:#8172b3;" x="247.254312" xlink:href="#m10dccd9787" y="465.660135"/>
     <use style="fill:#8172b3;stroke:#8172b3;" x="239.50489" xlink:href="#m10dccd9787" y="460.837173"/>
     <use style="fill:#8172b3;stroke:#8172b3;" x="580.305303" xlink:href="#m10dccd9787" y="112.763004"/>
     <use style="fill:#8172b3;stroke:#8172b3;" x="442.917205" xlink:href="#m10dccd9787" y="293.103449"/>
     <use style="fill:#8172b3;stroke:#8172b3;" x="291.902802" xlink:href="#m10dccd9787" y="433.237544"/>
     <use style="fill:#8172b3;stroke:#8172b3;" x="211.713686" xlink:href="#m10dccd9787" y="446.287651"/>
     <use style="fill:#8172b3;stroke:#8172b3;" x="311.525841" xlink:href="#m10dccd9787" y="472.780434"/>
     <use style="fill:#8172b3;stroke:#8172b3;" x="998.164972" xlink:href="#m10dccd9787" y="329.01549"/>
     <use style="fill:#8172b3;stroke:#8172b3;" x="644.714829" xlink:href="#m10dccd9787" y="446.763883"/>
     <use style="fill:#8172b3;stroke:#8172b3;" x="328.543584" xlink:href="#m10dccd9787" y="481.732835"/>
     <use style="fill:#8172b3;stroke:#8172b3;" x="766.256147" xlink:href="#m10dccd9787" y="367.154495"/>
     <use style="fill:#8172b3;stroke:#8172b3;" x="423.162246" xlink:href="#m10dccd9787" y="466.519637"/>
     <use style="fill:#8172b3;stroke:#8172b3;" x="454.612928" xlink:href="#m10dccd9787" y="468.04736"/>
     <use style="fill:#8172b3;stroke:#8172b3;" x="314.03898" xlink:href="#m10dccd9787" y="425.991894"/>
     <use style="fill:#8172b3;stroke:#8172b3;" x="778.674995" xlink:href="#m10dccd9787" y="320.851902"/>
     <use style="fill:#8172b3;stroke:#8172b3;" x="535.622261" xlink:href="#m10dccd9787" y="411.195577"/>
     <use style="fill:#8172b3;stroke:#8172b3;" x="626.352713" xlink:href="#m10dccd9787" y="418.321741"/>
     <use style="fill:#8172b3;stroke:#8172b3;" x="196.193156" xlink:href="#m10dccd9787" y="464.744493"/>
     <use style="fill:#8172b3;stroke:#8172b3;" x="504.514677" xlink:href="#m10dccd9787" y="423.899868"/>
     <use style="fill:#8172b3;stroke:#8172b3;" x="205.320864" xlink:href="#m10dccd9787" y="480.701423"/>
     <use style="fill:#8172b3;stroke:#8172b3;" x="289.854547" xlink:href="#m10dccd9787" y="494.466745"/>
     <use style="fill:#8172b3;stroke:#8172b3;" x="402.438221" xlink:href="#m10dccd9787" y="417.915854"/>
     <use style="fill:#8172b3;stroke:#8172b3;" x="546.614246" xlink:href="#m10dccd9787" y="433.062145"/>
     <use style="fill:#8172b3;stroke:#8172b3;" x="418.968821" xlink:href="#m10dccd9787" y="388.252022"/>
     <use style="fill:#8172b3;stroke:#8172b3;" x="591.561337" xlink:href="#m10dccd9787" y="365.454743"/>
     <use style="fill:#8172b3;stroke:#8172b3;" x="440.474763" xlink:href="#m10dccd9787" y="381.752433"/>
     <use style="fill:#8172b3;stroke:#8172b3;" x="335.100335" xlink:href="#m10dccd9787" y="465.650278"/>
     <use style="fill:#8172b3;stroke:#8172b3;" x="517.899402" xlink:href="#m10dccd9787" y="389.739804"/>
     <use style="fill:#8172b3;stroke:#8172b3;" x="714.231004" xlink:href="#m10dccd9787" y="432.564056"/>
     <use style="fill:#8172b3;stroke:#8172b3;" x="480.777219" xlink:href="#m10dccd9787" y="419.37298"/>
     <use style="fill:#8172b3;stroke:#8172b3;" x="347.680608" xlink:href="#m10dccd9787" y="503.775637"/>
     <use style="fill:#8172b3;stroke:#8172b3;" x="454.612928" xlink:href="#m10dccd9787" y="359.165155"/>
     <use style="fill:#8172b3;stroke:#8172b3;" x="668.477567" xlink:href="#m10dccd9787" y="471.295727"/>
     <use style="fill:#8172b3;stroke:#8172b3;" x="797.687452" xlink:href="#m10dccd9787" y="459.698043"/>
     <use style="fill:#8172b3;stroke:#8172b3;" x="284.313308" xlink:href="#m10dccd9787" y="486.217689"/>
     <use style="fill:#8172b3;stroke:#8172b3;" x="237.223048" xlink:href="#m10dccd9787" y="476.61283"/>
     <use style="fill:#8172b3;stroke:#8172b3;" x="609.583957" xlink:href="#m10dccd9787" y="190.997874"/>
     <use style="fill:#8172b3;stroke:#8172b3;" x="363.522433" xlink:href="#m10dccd9787" y="367.749852"/>
     <use style="fill:#8172b3;stroke:#8172b3;" x="348.812167" xlink:href="#m10dccd9787" y="488.656452"/>
     <use style="fill:#8172b3;stroke:#8172b3;" x="490.257034" xlink:href="#m10dccd9787" y="464.08004"/>
    </g>
   </g>
   <g id="line2d_16">
    <path clip-path="url(#p1a0904d314)" d="M 144 605.290909 
L 1036.8 111.109091 
" style="fill:none;stroke:#c44e52;stroke-linecap:round;stroke-width:1.5;"/>
   </g>
   <g id="patch_3">
    <path d="M 144 630 
L 144 86.4 
" style="fill:none;stroke:#cccccc;stroke-linecap:square;stroke-linejoin:miter;stroke-width:1.25;"/>
   </g>
   <g id="patch_4">
    <path d="M 1036.8 630 
L 1036.8 86.4 
" style="fill:none;stroke:#cccccc;stroke-linecap:square;stroke-linejoin:miter;stroke-width:1.25;"/>
   </g>
   <g id="patch_5">
    <path d="M 144 630 
L 1036.8 630 
" style="fill:none;stroke:#cccccc;stroke-linecap:square;stroke-linejoin:miter;stroke-width:1.25;"/>
   </g>
   <g id="patch_6">
    <path d="M 144 86.4 
L 1036.8 86.4 
" style="fill:none;stroke:#cccccc;stroke-linecap:square;stroke-linejoin:miter;stroke-width:1.25;"/>
   </g>
  </g>
 </g>
 <defs>
  <clipPath id="p1a0904d314">
   <rect height="543.6" width="892.8" x="144" y="86.4"/>
  </clipPath>
 </defs>
</svg>
