<?xml version="1.0" encoding="utf-8" standalone="no"?>
<!DOCTYPE svg PUBLIC "-//W3C//DTD SVG 1.1//EN"
  "http://www.w3.org/Graphics/SVG/1.1/DTD/svg11.dtd">
<!-- Created with matplotlib (https://matplotlib.org/) -->
<svg height="432pt" version="1.1" viewBox="0 0 1152 432" width="1152pt" xmlns="http://www.w3.org/2000/svg" xmlns:xlink="http://www.w3.org/1999/xlink">
 <defs>
  <style type="text/css">
*{stroke-linecap:butt;stroke-linejoin:round;}
  </style>
 </defs>
 <g id="figure_1">
  <g id="patch_1">
   <path d="M 0 432 
L 1152 432 
L 1152 0 
L 0 0 
z
" style="fill:#ffffff;"/>
  </g>
  <g id="axes_1">
   <g id="patch_2">
    <path d="M 144 378 
L 1036.8 378 
L 1036.8 51.84 
L 144 51.84 
z
" style="fill:#ffffff;"/>
   </g>
   <g id="matplotlib.axis_1">
    <g id="xtick_1">
     <g id="line2d_1">
      <path clip-path="url(#p965860fc12)" d="M 188.497703 378 
L 188.497703 51.84 
" style="fill:none;stroke:#cccccc;stroke-linecap:round;"/>
     </g>
     <g id="text_1">
      <!-- 0.0 -->
      <defs>
       <path d="M 4.15625 35.296875 
Q 4.15625 48 6.765625 55.734375 
Q 9.375 63.484375 14.515625 67.671875 
Q 19.671875 71.875 27.484375 71.875 
Q 33.25 71.875 37.59375 69.546875 
Q 41.9375 67.234375 44.765625 62.859375 
Q 47.609375 58.5 49.21875 52.21875 
Q 50.828125 45.953125 50.828125 35.296875 
Q 50.828125 22.703125 48.234375 14.96875 
Q 45.65625 7.234375 40.5 3 
Q 35.359375 -1.21875 27.484375 -1.21875 
Q 17.140625 -1.21875 11.234375 6.203125 
Q 4.15625 15.140625 4.15625 35.296875 
z
M 13.1875 35.296875 
Q 13.1875 17.671875 17.3125 11.828125 
Q 21.4375 6 27.484375 6 
Q 33.546875 6 37.671875 11.859375 
Q 41.796875 17.71875 41.796875 35.296875 
Q 41.796875 52.984375 37.671875 58.78125 
Q 33.546875 64.59375 27.390625 64.59375 
Q 21.34375 64.59375 17.71875 59.46875 
Q 13.1875 52.9375 13.1875 35.296875 
z
" id="ArialMT-48"/>
       <path d="M 9.078125 0 
L 9.078125 10.015625 
L 19.09375 10.015625 
L 19.09375 0 
z
" id="ArialMT-46"/>
      </defs>
      <g style="fill:#262626;" transform="translate(173.207703 403.247187)scale(0.22 -0.22)">
       <use xlink:href="#ArialMT-48"/>
       <use x="55.615234" xlink:href="#ArialMT-46"/>
       <use x="83.398438" xlink:href="#ArialMT-48"/>
      </g>
     </g>
    </g>
    <g id="xtick_2">
     <g id="line2d_2">
      <path clip-path="url(#p965860fc12)" d="M 305.034428 378 
L 305.034428 51.84 
" style="fill:none;stroke:#cccccc;stroke-linecap:round;"/>
     </g>
     <g id="text_2">
      <!-- 0.1 -->
      <defs>
       <path d="M 37.25 0 
L 28.46875 0 
L 28.46875 56 
Q 25.296875 52.984375 20.140625 49.953125 
Q 14.984375 46.921875 10.890625 45.40625 
L 10.890625 53.90625 
Q 18.265625 57.375 23.78125 62.296875 
Q 29.296875 67.234375 31.59375 71.875 
L 37.25 71.875 
z
" id="ArialMT-49"/>
      </defs>
      <g style="fill:#262626;" transform="translate(289.744428 403.247187)scale(0.22 -0.22)">
       <use xlink:href="#ArialMT-48"/>
       <use x="55.615234" xlink:href="#ArialMT-46"/>
       <use x="83.398438" xlink:href="#ArialMT-49"/>
      </g>
     </g>
    </g>
    <g id="xtick_3">
     <g id="line2d_3">
      <path clip-path="url(#p965860fc12)" d="M 421.571154 378 
L 421.571154 51.84 
" style="fill:none;stroke:#cccccc;stroke-linecap:round;"/>
     </g>
     <g id="text_3">
      <!-- 0.2 -->
      <defs>
       <path d="M 50.34375 8.453125 
L 50.34375 0 
L 3.03125 0 
Q 2.9375 3.171875 4.046875 6.109375 
Q 5.859375 10.9375 9.828125 15.625 
Q 13.8125 20.3125 21.34375 26.46875 
Q 33.015625 36.03125 37.109375 41.625 
Q 41.21875 47.21875 41.21875 52.203125 
Q 41.21875 57.421875 37.46875 61 
Q 33.734375 64.59375 27.734375 64.59375 
Q 21.390625 64.59375 17.578125 60.78125 
Q 13.765625 56.984375 13.71875 50.25 
L 4.6875 51.171875 
Q 5.609375 61.28125 11.65625 66.578125 
Q 17.71875 71.875 27.9375 71.875 
Q 38.234375 71.875 44.234375 66.15625 
Q 50.25 60.453125 50.25 52 
Q 50.25 47.703125 48.484375 43.546875 
Q 46.734375 39.40625 42.65625 34.8125 
Q 38.578125 30.21875 29.109375 22.21875 
Q 21.1875 15.578125 18.9375 13.203125 
Q 16.703125 10.84375 15.234375 8.453125 
z
" id="ArialMT-50"/>
      </defs>
      <g style="fill:#262626;" transform="translate(406.281154 403.247187)scale(0.22 -0.22)">
       <use xlink:href="#ArialMT-48"/>
       <use x="55.615234" xlink:href="#ArialMT-46"/>
       <use x="83.398438" xlink:href="#ArialMT-50"/>
      </g>
     </g>
    </g>
    <g id="xtick_4">
     <g id="line2d_4">
      <path clip-path="url(#p965860fc12)" d="M 538.10788 378 
L 538.10788 51.84 
" style="fill:none;stroke:#cccccc;stroke-linecap:round;"/>
     </g>
     <g id="text_4">
      <!-- 0.3 -->
      <defs>
       <path d="M 4.203125 18.890625 
L 12.984375 20.0625 
Q 14.5 12.59375 18.140625 9.296875 
Q 21.78125 6 27 6 
Q 33.203125 6 37.46875 10.296875 
Q 41.75 14.59375 41.75 20.953125 
Q 41.75 27 37.796875 30.921875 
Q 33.84375 34.859375 27.734375 34.859375 
Q 25.25 34.859375 21.53125 33.890625 
L 22.515625 41.609375 
Q 23.390625 41.5 23.921875 41.5 
Q 29.546875 41.5 34.03125 44.421875 
Q 38.53125 47.359375 38.53125 53.46875 
Q 38.53125 58.296875 35.25 61.46875 
Q 31.984375 64.65625 26.8125 64.65625 
Q 21.6875 64.65625 18.265625 61.421875 
Q 14.84375 58.203125 13.875 51.765625 
L 5.078125 53.328125 
Q 6.6875 62.15625 12.390625 67.015625 
Q 18.109375 71.875 26.609375 71.875 
Q 32.46875 71.875 37.390625 69.359375 
Q 42.328125 66.84375 44.9375 62.5 
Q 47.5625 58.15625 47.5625 53.265625 
Q 47.5625 48.640625 45.0625 44.828125 
Q 42.578125 41.015625 37.703125 38.765625 
Q 44.046875 37.3125 47.5625 32.6875 
Q 51.078125 28.078125 51.078125 21.140625 
Q 51.078125 11.765625 44.234375 5.25 
Q 37.40625 -1.265625 26.953125 -1.265625 
Q 17.53125 -1.265625 11.296875 4.34375 
Q 5.078125 9.96875 4.203125 18.890625 
z
" id="ArialMT-51"/>
      </defs>
      <g style="fill:#262626;" transform="translate(522.81788 403.247187)scale(0.22 -0.22)">
       <use xlink:href="#ArialMT-48"/>
       <use x="55.615234" xlink:href="#ArialMT-46"/>
       <use x="83.398438" xlink:href="#ArialMT-51"/>
      </g>
     </g>
    </g>
    <g id="xtick_5">
     <g id="line2d_5">
      <path clip-path="url(#p965860fc12)" d="M 654.644605 378 
L 654.644605 51.84 
" style="fill:none;stroke:#cccccc;stroke-linecap:round;"/>
     </g>
     <g id="text_5">
      <!-- 0.4 -->
      <defs>
       <path d="M 32.328125 0 
L 32.328125 17.140625 
L 1.265625 17.140625 
L 1.265625 25.203125 
L 33.9375 71.578125 
L 41.109375 71.578125 
L 41.109375 25.203125 
L 50.78125 25.203125 
L 50.78125 17.140625 
L 41.109375 17.140625 
L 41.109375 0 
z
M 32.328125 25.203125 
L 32.328125 57.46875 
L 9.90625 25.203125 
z
" id="ArialMT-52"/>
      </defs>
      <g style="fill:#262626;" transform="translate(639.354605 403.247187)scale(0.22 -0.22)">
       <use xlink:href="#ArialMT-48"/>
       <use x="55.615234" xlink:href="#ArialMT-46"/>
       <use x="83.398438" xlink:href="#ArialMT-52"/>
      </g>
     </g>
    </g>
    <g id="xtick_6">
     <g id="line2d_6">
      <path clip-path="url(#p965860fc12)" d="M 771.181331 378 
L 771.181331 51.84 
" style="fill:none;stroke:#cccccc;stroke-linecap:round;"/>
     </g>
     <g id="text_6">
      <!-- 0.5 -->
      <defs>
       <path d="M 4.15625 18.75 
L 13.375 19.53125 
Q 14.40625 12.796875 18.140625 9.390625 
Q 21.875 6 27.15625 6 
Q 33.5 6 37.890625 10.78125 
Q 42.28125 15.578125 42.28125 23.484375 
Q 42.28125 31 38.0625 35.34375 
Q 33.84375 39.703125 27 39.703125 
Q 22.75 39.703125 19.328125 37.765625 
Q 15.921875 35.84375 13.96875 32.765625 
L 5.71875 33.84375 
L 12.640625 70.609375 
L 48.25 70.609375 
L 48.25 62.203125 
L 19.671875 62.203125 
L 15.828125 42.96875 
Q 22.265625 47.46875 29.34375 47.46875 
Q 38.71875 47.46875 45.15625 40.96875 
Q 51.609375 34.46875 51.609375 24.265625 
Q 51.609375 14.546875 45.953125 7.46875 
Q 39.0625 -1.21875 27.15625 -1.21875 
Q 17.390625 -1.21875 11.203125 4.25 
Q 5.03125 9.71875 4.15625 18.75 
z
" id="ArialMT-53"/>
      </defs>
      <g style="fill:#262626;" transform="translate(755.891331 403.247187)scale(0.22 -0.22)">
       <use xlink:href="#ArialMT-48"/>
       <use x="55.615234" xlink:href="#ArialMT-46"/>
       <use x="83.398438" xlink:href="#ArialMT-53"/>
      </g>
     </g>
    </g>
    <g id="xtick_7">
     <g id="line2d_7">
      <path clip-path="url(#p965860fc12)" d="M 887.718056 378 
L 887.718056 51.84 
" style="fill:none;stroke:#cccccc;stroke-linecap:round;"/>
     </g>
     <g id="text_7">
      <!-- 0.6 -->
      <defs>
       <path d="M 49.75 54.046875 
L 41.015625 53.375 
Q 39.84375 58.546875 37.703125 60.890625 
Q 34.125 64.65625 28.90625 64.65625 
Q 24.703125 64.65625 21.53125 62.3125 
Q 17.390625 59.28125 14.984375 53.46875 
Q 12.59375 47.65625 12.5 36.921875 
Q 15.671875 41.75 20.265625 44.09375 
Q 24.859375 46.4375 29.890625 46.4375 
Q 38.671875 46.4375 44.84375 39.96875 
Q 51.03125 33.5 51.03125 23.25 
Q 51.03125 16.5 48.125 10.71875 
Q 45.21875 4.9375 40.140625 1.859375 
Q 35.0625 -1.21875 28.609375 -1.21875 
Q 17.625 -1.21875 10.6875 6.859375 
Q 3.765625 14.9375 3.765625 33.5 
Q 3.765625 54.25 11.421875 63.671875 
Q 18.109375 71.875 29.4375 71.875 
Q 37.890625 71.875 43.28125 67.140625 
Q 48.6875 62.40625 49.75 54.046875 
z
M 13.875 23.1875 
Q 13.875 18.65625 15.796875 14.5 
Q 17.71875 10.359375 21.1875 8.171875 
Q 24.65625 6 28.46875 6 
Q 34.03125 6 38.03125 10.484375 
Q 42.046875 14.984375 42.046875 22.703125 
Q 42.046875 30.125 38.078125 34.390625 
Q 34.125 38.671875 28.125 38.671875 
Q 22.171875 38.671875 18.015625 34.390625 
Q 13.875 30.125 13.875 23.1875 
z
" id="ArialMT-54"/>
      </defs>
      <g style="fill:#262626;" transform="translate(872.428056 403.247187)scale(0.22 -0.22)">
       <use xlink:href="#ArialMT-48"/>
       <use x="55.615234" xlink:href="#ArialMT-46"/>
       <use x="83.398438" xlink:href="#ArialMT-54"/>
      </g>
     </g>
    </g>
    <g id="xtick_8">
     <g id="line2d_8">
      <path clip-path="url(#p965860fc12)" d="M 1004.254782 378 
L 1004.254782 51.84 
" style="fill:none;stroke:#cccccc;stroke-linecap:round;"/>
     </g>
     <g id="text_8">
      <!-- 0.7 -->
      <defs>
       <path d="M 4.734375 62.203125 
L 4.734375 70.65625 
L 51.078125 70.65625 
L 51.078125 63.8125 
Q 44.234375 56.546875 37.515625 44.484375 
Q 30.8125 32.421875 27.15625 19.671875 
Q 24.515625 10.6875 23.78125 0 
L 14.75 0 
Q 14.890625 8.453125 18.0625 20.40625 
Q 21.234375 32.375 27.171875 43.484375 
Q 33.109375 54.59375 39.796875 62.203125 
z
" id="ArialMT-55"/>
      </defs>
      <g style="fill:#262626;" transform="translate(988.964782 403.247187)scale(0.22 -0.22)">
       <use xlink:href="#ArialMT-48"/>
       <use x="55.615234" xlink:href="#ArialMT-46"/>
       <use x="83.398438" xlink:href="#ArialMT-55"/>
      </g>
     </g>
    </g>
    <g id="text_9">
     <!-- Observed values -->
     <defs>
      <path d="M 4.828125 34.859375 
Q 4.828125 52.6875 14.390625 62.765625 
Q 23.96875 72.859375 39.109375 72.859375 
Q 49.03125 72.859375 56.984375 68.109375 
Q 64.9375 63.375 69.109375 54.90625 
Q 73.296875 46.4375 73.296875 35.6875 
Q 73.296875 24.8125 68.890625 16.21875 
Q 64.5 7.625 56.4375 3.203125 
Q 48.390625 -1.21875 39.0625 -1.21875 
Q 28.953125 -1.21875 20.984375 3.65625 
Q 13.03125 8.546875 8.921875 16.984375 
Q 4.828125 25.4375 4.828125 34.859375 
z
M 14.59375 34.71875 
Q 14.59375 21.78125 21.546875 14.328125 
Q 28.515625 6.890625 39.015625 6.890625 
Q 49.703125 6.890625 56.609375 14.40625 
Q 63.53125 21.921875 63.53125 35.75 
Q 63.53125 44.484375 60.578125 51 
Q 57.625 57.515625 51.921875 61.109375 
Q 46.234375 64.703125 39.15625 64.703125 
Q 29.109375 64.703125 21.84375 57.78125 
Q 14.59375 50.875 14.59375 34.71875 
z
" id="ArialMT-79"/>
      <path d="M 14.703125 0 
L 6.546875 0 
L 6.546875 71.578125 
L 15.328125 71.578125 
L 15.328125 46.046875 
Q 20.90625 53.03125 29.546875 53.03125 
Q 34.328125 53.03125 38.59375 51.09375 
Q 42.875 49.171875 45.625 45.671875 
Q 48.390625 42.1875 49.953125 37.25 
Q 51.515625 32.328125 51.515625 26.703125 
Q 51.515625 13.375 44.921875 6.09375 
Q 38.328125 -1.171875 29.109375 -1.171875 
Q 19.921875 -1.171875 14.703125 6.5 
z
M 14.59375 26.3125 
Q 14.59375 17 17.140625 12.84375 
Q 21.296875 6.0625 28.375 6.0625 
Q 34.125 6.0625 38.328125 11.0625 
Q 42.53125 16.0625 42.53125 25.984375 
Q 42.53125 36.140625 38.5 40.96875 
Q 34.46875 45.796875 28.765625 45.796875 
Q 23 45.796875 18.796875 40.796875 
Q 14.59375 35.796875 14.59375 26.3125 
z
" id="ArialMT-98"/>
      <path d="M 3.078125 15.484375 
L 11.765625 16.84375 
Q 12.5 11.625 15.84375 8.84375 
Q 19.1875 6.0625 25.203125 6.0625 
Q 31.25 6.0625 34.171875 8.515625 
Q 37.109375 10.984375 37.109375 14.3125 
Q 37.109375 17.28125 34.515625 19 
Q 32.71875 20.171875 25.53125 21.96875 
Q 15.875 24.421875 12.140625 26.203125 
Q 8.40625 27.984375 6.46875 31.125 
Q 4.546875 34.28125 4.546875 38.09375 
Q 4.546875 41.546875 6.125 44.5 
Q 7.71875 47.46875 10.453125 49.421875 
Q 12.5 50.921875 16.03125 51.96875 
Q 19.578125 53.03125 23.640625 53.03125 
Q 29.734375 53.03125 34.34375 51.265625 
Q 38.96875 49.515625 41.15625 46.5 
Q 43.359375 43.5 44.1875 38.484375 
L 35.59375 37.3125 
Q 35.015625 41.3125 32.203125 43.546875 
Q 29.390625 45.796875 24.265625 45.796875 
Q 18.21875 45.796875 15.625 43.796875 
Q 13.03125 41.796875 13.03125 39.109375 
Q 13.03125 37.40625 14.109375 36.03125 
Q 15.1875 34.625 17.484375 33.6875 
Q 18.796875 33.203125 25.25 31.453125 
Q 34.578125 28.953125 38.25 27.359375 
Q 41.9375 25.78125 44.03125 22.75 
Q 46.140625 19.734375 46.140625 15.234375 
Q 46.140625 10.84375 43.578125 6.953125 
Q 41.015625 3.078125 36.171875 0.953125 
Q 31.34375 -1.171875 25.25 -1.171875 
Q 15.140625 -1.171875 9.84375 3.03125 
Q 4.546875 7.234375 3.078125 15.484375 
z
" id="ArialMT-115"/>
      <path d="M 42.09375 16.703125 
L 51.171875 15.578125 
Q 49.03125 7.625 43.21875 3.21875 
Q 37.40625 -1.171875 28.375 -1.171875 
Q 17 -1.171875 10.328125 5.828125 
Q 3.65625 12.84375 3.65625 25.484375 
Q 3.65625 38.578125 10.390625 45.796875 
Q 17.140625 53.03125 27.875 53.03125 
Q 38.28125 53.03125 44.875 45.953125 
Q 51.46875 38.875 51.46875 26.03125 
Q 51.46875 25.25 51.421875 23.6875 
L 12.75 23.6875 
Q 13.234375 15.140625 17.578125 10.59375 
Q 21.921875 6.0625 28.421875 6.0625 
Q 33.25 6.0625 36.671875 8.59375 
Q 40.09375 11.140625 42.09375 16.703125 
z
M 13.234375 30.90625 
L 42.1875 30.90625 
Q 41.609375 37.453125 38.875 40.71875 
Q 34.671875 45.796875 27.984375 45.796875 
Q 21.921875 45.796875 17.796875 41.75 
Q 13.671875 37.703125 13.234375 30.90625 
z
" id="ArialMT-101"/>
      <path d="M 6.5 0 
L 6.5 51.859375 
L 14.40625 51.859375 
L 14.40625 44 
Q 17.4375 49.515625 20 51.265625 
Q 22.5625 53.03125 25.640625 53.03125 
Q 30.078125 53.03125 34.671875 50.203125 
L 31.640625 42.046875 
Q 28.421875 43.953125 25.203125 43.953125 
Q 22.3125 43.953125 20.015625 42.21875 
Q 17.71875 40.484375 16.75 37.40625 
Q 15.28125 32.71875 15.28125 27.15625 
L 15.28125 0 
z
" id="ArialMT-114"/>
      <path d="M 21 0 
L 1.265625 51.859375 
L 10.546875 51.859375 
L 21.6875 20.796875 
Q 23.484375 15.765625 25 10.359375 
Q 26.171875 14.453125 28.265625 20.21875 
L 39.796875 51.859375 
L 48.828125 51.859375 
L 29.203125 0 
z
" id="ArialMT-118"/>
      <path d="M 40.234375 0 
L 40.234375 6.546875 
Q 35.296875 -1.171875 25.734375 -1.171875 
Q 19.53125 -1.171875 14.328125 2.25 
Q 9.125 5.671875 6.265625 11.796875 
Q 3.421875 17.921875 3.421875 25.875 
Q 3.421875 33.640625 6 39.96875 
Q 8.59375 46.296875 13.765625 49.65625 
Q 18.953125 53.03125 25.34375 53.03125 
Q 30.03125 53.03125 33.6875 51.046875 
Q 37.359375 49.078125 39.65625 45.90625 
L 39.65625 71.578125 
L 48.390625 71.578125 
L 48.390625 0 
z
M 12.453125 25.875 
Q 12.453125 15.921875 16.640625 10.984375 
Q 20.84375 6.0625 26.5625 6.0625 
Q 32.328125 6.0625 36.34375 10.765625 
Q 40.375 15.484375 40.375 25.140625 
Q 40.375 35.796875 36.265625 40.765625 
Q 32.171875 45.75 26.171875 45.75 
Q 20.3125 45.75 16.375 40.96875 
Q 12.453125 36.1875 12.453125 25.875 
z
" id="ArialMT-100"/>
      <path id="ArialMT-32"/>
      <path d="M 40.4375 6.390625 
Q 35.546875 2.25 31.03125 0.53125 
Q 26.515625 -1.171875 21.34375 -1.171875 
Q 12.796875 -1.171875 8.203125 3 
Q 3.609375 7.171875 3.609375 13.671875 
Q 3.609375 17.484375 5.34375 20.625 
Q 7.078125 23.78125 9.890625 25.6875 
Q 12.703125 27.59375 16.21875 28.5625 
Q 18.796875 29.25 24.03125 29.890625 
Q 34.671875 31.15625 39.703125 32.90625 
Q 39.75 34.71875 39.75 35.203125 
Q 39.75 40.578125 37.25 42.78125 
Q 33.890625 45.75 27.25 45.75 
Q 21.046875 45.75 18.09375 43.578125 
Q 15.140625 41.40625 13.71875 35.890625 
L 5.125 37.0625 
Q 6.296875 42.578125 8.984375 45.96875 
Q 11.671875 49.359375 16.75 51.1875 
Q 21.828125 53.03125 28.515625 53.03125 
Q 35.15625 53.03125 39.296875 51.46875 
Q 43.453125 49.90625 45.40625 47.53125 
Q 47.359375 45.171875 48.140625 41.546875 
Q 48.578125 39.3125 48.578125 33.453125 
L 48.578125 21.734375 
Q 48.578125 9.46875 49.140625 6.21875 
Q 49.703125 2.984375 51.375 0 
L 42.1875 0 
Q 40.828125 2.734375 40.4375 6.390625 
z
M 39.703125 26.03125 
Q 34.90625 24.078125 25.34375 22.703125 
Q 19.921875 21.921875 17.671875 20.9375 
Q 15.4375 19.96875 14.203125 18.09375 
Q 12.984375 16.21875 12.984375 13.921875 
Q 12.984375 10.40625 15.640625 8.0625 
Q 18.3125 5.71875 23.4375 5.71875 
Q 28.515625 5.71875 32.46875 7.9375 
Q 36.421875 10.15625 38.28125 14.015625 
Q 39.703125 17 39.703125 22.796875 
z
" id="ArialMT-97"/>
      <path d="M 6.390625 0 
L 6.390625 71.578125 
L 15.1875 71.578125 
L 15.1875 0 
z
" id="ArialMT-108"/>
      <path d="M 40.578125 0 
L 40.578125 7.625 
Q 34.515625 -1.171875 24.125 -1.171875 
Q 19.53125 -1.171875 15.546875 0.578125 
Q 11.578125 2.34375 9.640625 5 
Q 7.71875 7.671875 6.9375 11.53125 
Q 6.390625 14.109375 6.390625 19.734375 
L 6.390625 51.859375 
L 15.1875 51.859375 
L 15.1875 23.09375 
Q 15.1875 16.21875 15.71875 13.8125 
Q 16.546875 10.359375 19.234375 8.375 
Q 21.921875 6.390625 25.875 6.390625 
Q 29.828125 6.390625 33.296875 8.421875 
Q 36.765625 10.453125 38.203125 13.9375 
Q 39.65625 17.4375 39.65625 24.078125 
L 39.65625 51.859375 
L 48.4375 51.859375 
L 48.4375 0 
z
" id="ArialMT-117"/>
     </defs>
     <g style="fill:#262626;" transform="translate(500.35875 428.798437)scale(0.24 -0.24)">
      <use xlink:href="#ArialMT-79"/>
      <use x="77.783203" xlink:href="#ArialMT-98"/>
      <use x="133.398438" xlink:href="#ArialMT-115"/>
      <use x="183.398438" xlink:href="#ArialMT-101"/>
      <use x="239.013672" xlink:href="#ArialMT-114"/>
      <use x="272.314453" xlink:href="#ArialMT-118"/>
      <use x="322.314453" xlink:href="#ArialMT-101"/>
      <use x="377.929688" xlink:href="#ArialMT-100"/>
      <use x="433.544922" xlink:href="#ArialMT-32"/>
      <use x="461.328125" xlink:href="#ArialMT-118"/>
      <use x="511.328125" xlink:href="#ArialMT-97"/>
      <use x="566.943359" xlink:href="#ArialMT-108"/>
      <use x="589.160156" xlink:href="#ArialMT-117"/>
      <use x="644.775391" xlink:href="#ArialMT-101"/>
      <use x="700.390625" xlink:href="#ArialMT-115"/>
     </g>
    </g>
   </g>
   <g id="matplotlib.axis_2">
    <g id="ytick_1">
     <g id="line2d_9">
      <path clip-path="url(#p965860fc12)" d="M 144 291.945603 
L 1036.8 291.945603 
" style="fill:none;stroke:#cccccc;stroke-linecap:round;"/>
     </g>
     <g id="text_10">
      <!-- 0.2 -->
      <g style="fill:#262626;" transform="translate(103.92 299.819197)scale(0.22 -0.22)">
       <use xlink:href="#ArialMT-48"/>
       <use x="55.615234" xlink:href="#ArialMT-46"/>
       <use x="83.398438" xlink:href="#ArialMT-50"/>
      </g>
     </g>
    </g>
    <g id="ytick_2">
     <g id="line2d_10">
      <path clip-path="url(#p965860fc12)" d="M 144 201.276042 
L 1036.8 201.276042 
" style="fill:none;stroke:#cccccc;stroke-linecap:round;"/>
     </g>
     <g id="text_11">
      <!-- 0.4 -->
      <g style="fill:#262626;" transform="translate(103.92 209.149636)scale(0.22 -0.22)">
       <use xlink:href="#ArialMT-48"/>
       <use x="55.615234" xlink:href="#ArialMT-46"/>
       <use x="83.398438" xlink:href="#ArialMT-52"/>
      </g>
     </g>
    </g>
    <g id="ytick_3">
     <g id="line2d_11">
      <path clip-path="url(#p965860fc12)" d="M 144 110.606481 
L 1036.8 110.606481 
" style="fill:none;stroke:#cccccc;stroke-linecap:round;"/>
     </g>
     <g id="text_12">
      <!-- 0.6 -->
      <g style="fill:#262626;" transform="translate(103.92 118.480075)scale(0.22 -0.22)">
       <use xlink:href="#ArialMT-48"/>
       <use x="55.615234" xlink:href="#ArialMT-46"/>
       <use x="83.398438" xlink:href="#ArialMT-54"/>
      </g>
     </g>
    </g>
    <g id="text_13">
     <!-- Fitted values -->
     <defs>
      <path d="M 8.203125 0 
L 8.203125 71.578125 
L 56.5 71.578125 
L 56.5 63.140625 
L 17.671875 63.140625 
L 17.671875 40.96875 
L 51.265625 40.96875 
L 51.265625 32.515625 
L 17.671875 32.515625 
L 17.671875 0 
z
" id="ArialMT-70"/>
      <path d="M 6.640625 61.46875 
L 6.640625 71.578125 
L 15.4375 71.578125 
L 15.4375 61.46875 
z
M 6.640625 0 
L 6.640625 51.859375 
L 15.4375 51.859375 
L 15.4375 0 
z
" id="ArialMT-105"/>
      <path d="M 25.78125 7.859375 
L 27.046875 0.09375 
Q 23.34375 -0.6875 20.40625 -0.6875 
Q 15.625 -0.6875 12.984375 0.828125 
Q 10.359375 2.34375 9.28125 4.8125 
Q 8.203125 7.28125 8.203125 15.1875 
L 8.203125 45.015625 
L 1.765625 45.015625 
L 1.765625 51.859375 
L 8.203125 51.859375 
L 8.203125 64.703125 
L 16.9375 69.96875 
L 16.9375 51.859375 
L 25.78125 51.859375 
L 25.78125 45.015625 
L 16.9375 45.015625 
L 16.9375 14.703125 
Q 16.9375 10.9375 17.40625 9.859375 
Q 17.875 8.796875 18.921875 8.15625 
Q 19.96875 7.515625 21.921875 7.515625 
Q 23.390625 7.515625 25.78125 7.859375 
z
" id="ArialMT-116"/>
     </defs>
     <g style="fill:#262626;" transform="translate(95.15 282.94875)rotate(-90)scale(0.24 -0.24)">
      <use xlink:href="#ArialMT-70"/>
      <use x="61.083984" xlink:href="#ArialMT-105"/>
      <use x="83.300781" xlink:href="#ArialMT-116"/>
      <use x="111.083984" xlink:href="#ArialMT-116"/>
      <use x="138.867188" xlink:href="#ArialMT-101"/>
      <use x="194.482422" xlink:href="#ArialMT-100"/>
      <use x="250.097656" xlink:href="#ArialMT-32"/>
      <use x="277.880859" xlink:href="#ArialMT-118"/>
      <use x="327.880859" xlink:href="#ArialMT-97"/>
      <use x="383.496094" xlink:href="#ArialMT-108"/>
      <use x="405.712891" xlink:href="#ArialMT-117"/>
      <use x="461.328125" xlink:href="#ArialMT-101"/>
      <use x="516.943359" xlink:href="#ArialMT-115"/>
     </g>
    </g>
   </g>
   <g id="PathCollection_1">
    <defs>
     <path d="M -3 0 
L 3 0 
M 0 3 
L 0 -3 
" id="mc96f7aa451" style="stroke:#4c72b0;stroke-width:1.5;"/>
    </defs>
    <g clip-path="url(#p965860fc12)">
     <use style="fill:#4c72b0;stroke:#4c72b0;stroke-width:1.5;" x="341.937725" xlink:href="#mc96f7aa451" y="311.99857"/>
     <use style="fill:#4c72b0;stroke:#4c72b0;stroke-width:1.5;" x="503.501796" xlink:href="#mc96f7aa451" y="257.28916"/>
     <use style="fill:#4c72b0;stroke:#4c72b0;stroke-width:1.5;" x="686.55347" xlink:href="#mc96f7aa451" y="181.83572"/>
     <use style="fill:#4c72b0;stroke:#4c72b0;stroke-width:1.5;" x="658.344184" xlink:href="#mc96f7aa451" y="247.895632"/>
     <use style="fill:#4c72b0;stroke:#4c72b0;stroke-width:1.5;" x="530.338765" xlink:href="#mc96f7aa451" y="211.735905"/>
     <use style="fill:#4c72b0;stroke:#4c72b0;stroke-width:1.5;" x="576.953455" xlink:href="#mc96f7aa451" y="228.139943"/>
     <use style="fill:#4c72b0;stroke:#4c72b0;stroke-width:1.5;" x="423.497381" xlink:href="#mc96f7aa451" y="250.007946"/>
     <use style="fill:#4c72b0;stroke:#4c72b0;stroke-width:1.5;" x="188.497703" xlink:href="#mc96f7aa451" y="277.578844"/>
     <use style="fill:#4c72b0;stroke:#4c72b0;stroke-width:1.5;" x="510.195836" xlink:href="#mc96f7aa451" y="277.493064"/>
     <use style="fill:#4c72b0;stroke:#4c72b0;stroke-width:1.5;" x="450.194209" xlink:href="#mc96f7aa451" y="261.434491"/>
     <use style="fill:#4c72b0;stroke:#4c72b0;stroke-width:1.5;" x="708.690623" xlink:href="#mc96f7aa451" y="222.985392"/>
     <use style="fill:#4c72b0;stroke:#4c72b0;stroke-width:1.5;" x="711.170725" xlink:href="#mc96f7aa451" y="154.131585"/>
     <use style="fill:#4c72b0;stroke:#4c72b0;stroke-width:1.5;" x="342.441279" xlink:href="#mc96f7aa451" y="333.755871"/>
     <use style="fill:#4c72b0;stroke:#4c72b0;stroke-width:1.5;" x="484.061862" xlink:href="#mc96f7aa451" y="261.062401"/>
     <use style="fill:#4c72b0;stroke:#4c72b0;stroke-width:1.5;" x="724.246107" xlink:href="#mc96f7aa451" y="127.172512"/>
     <use style="fill:#4c72b0;stroke:#4c72b0;stroke-width:1.5;" x="709.78026" xlink:href="#mc96f7aa451" y="191.851069"/>
     <use style="fill:#4c72b0;stroke:#4c72b0;stroke-width:1.5;" x="802.556603" xlink:href="#mc96f7aa451" y="225.88228"/>
     <use style="fill:#4c72b0;stroke:#4c72b0;stroke-width:1.5;" x="820.880817" xlink:href="#mc96f7aa451" y="253.237416"/>
     <use style="fill:#4c72b0;stroke:#4c72b0;stroke-width:1.5;" x="931.419328" xlink:href="#mc96f7aa451" y="173.058615"/>
     <use style="fill:#4c72b0;stroke:#4c72b0;stroke-width:1.5;" x="230.697631" xlink:href="#mc96f7aa451" y="303.697872"/>
     <use style="fill:#4c72b0;stroke:#4c72b0;stroke-width:1.5;" x="646.61912" xlink:href="#mc96f7aa451" y="152.330843"/>
     <use style="fill:#4c72b0;stroke:#4c72b0;stroke-width:1.5;" x="586.017422" xlink:href="#mc96f7aa451" y="298.160142"/>
     <use style="fill:#4c72b0;stroke:#4c72b0;stroke-width:1.5;" x="722.055779" xlink:href="#mc96f7aa451" y="133.727346"/>
     <use style="fill:#4c72b0;stroke:#4c72b0;stroke-width:1.5;" x="302.60658" xlink:href="#mc96f7aa451" y="329.868748"/>
     <use style="fill:#4c72b0;stroke:#4c72b0;stroke-width:1.5;" x="414.929164" xlink:href="#mc96f7aa451" y="238.9415"/>
     <use style="fill:#4c72b0;stroke:#4c72b0;stroke-width:1.5;" x="541.345011" xlink:href="#mc96f7aa451" y="178.126368"/>
     <use style="fill:#4c72b0;stroke:#4c72b0;stroke-width:1.5;" x="825.227348" xlink:href="#mc96f7aa451" y="105.466319"/>
     <use style="fill:#4c72b0;stroke:#4c72b0;stroke-width:1.5;" x="945.061524" xlink:href="#mc96f7aa451" y="70.83532"/>
     <use style="fill:#4c72b0;stroke:#4c72b0;stroke-width:1.5;" x="494.780123" xlink:href="#mc96f7aa451" y="305.56399"/>
     <use style="fill:#4c72b0;stroke:#4c72b0;stroke-width:1.5;" x="295.71149" xlink:href="#mc96f7aa451" y="218.824244"/>
     <use style="fill:#4c72b0;stroke:#4c72b0;stroke-width:1.5;" x="660.300283" xlink:href="#mc96f7aa451" y="312.046587"/>
     <use style="fill:#4c72b0;stroke:#4c72b0;stroke-width:1.5;" x="715.193936" xlink:href="#mc96f7aa451" y="152.15467"/>
     <use style="fill:#4c72b0;stroke:#4c72b0;stroke-width:1.5;" x="360.236035" xlink:href="#mc96f7aa451" y="348.838214"/>
     <use style="fill:#4c72b0;stroke:#4c72b0;stroke-width:1.5;" x="617.093882" xlink:href="#mc96f7aa451" y="137.504166"/>
     <use style="fill:#4c72b0;stroke:#4c72b0;stroke-width:1.5;" x="424.448604" xlink:href="#mc96f7aa451" y="339.300098"/>
     <use style="fill:#4c72b0;stroke:#4c72b0;stroke-width:1.5;" x="613.647972" xlink:href="#mc96f7aa451" y="233.598699"/>
     <use style="fill:#4c72b0;stroke:#4c72b0;stroke-width:1.5;" x="371.215779" xlink:href="#mc96f7aa451" y="283.915022"/>
     <use style="fill:#4c72b0;stroke:#4c72b0;stroke-width:1.5;" x="763.711028" xlink:href="#mc96f7aa451" y="206.470814"/>
     <use style="fill:#4c72b0;stroke:#4c72b0;stroke-width:1.5;" x="663.089295" xlink:href="#mc96f7aa451" y="261.720268"/>
     <use style="fill:#4c72b0;stroke:#4c72b0;stroke-width:1.5;" x="758.232806" xlink:href="#mc96f7aa451" y="204.791514"/>
     <use style="fill:#4c72b0;stroke:#4c72b0;stroke-width:1.5;" x="867.625517" xlink:href="#mc96f7aa451" y="286.242017"/>
     <use style="fill:#4c72b0;stroke:#4c72b0;stroke-width:1.5;" x="660.193973" xlink:href="#mc96f7aa451" y="211.952077"/>
     <use style="fill:#4c72b0;stroke:#4c72b0;stroke-width:1.5;" x="400.240071" xlink:href="#mc96f7aa451" y="230.308856"/>
     <use style="fill:#4c72b0;stroke:#4c72b0;stroke-width:1.5;" x="765.793239" xlink:href="#mc96f7aa451" y="196.9756"/>
     <use style="fill:#4c72b0;stroke:#4c72b0;stroke-width:1.5;" x="751.132002" xlink:href="#mc96f7aa451" y="155.163591"/>
     <use style="fill:#4c72b0;stroke:#4c72b0;stroke-width:1.5;" x="900.577281" xlink:href="#mc96f7aa451" y="227.172139"/>
     <use style="fill:#4c72b0;stroke:#4c72b0;stroke-width:1.5;" x="554.917877" xlink:href="#mc96f7aa451" y="282.195831"/>
     <use style="fill:#4c72b0;stroke:#4c72b0;stroke-width:1.5;" x="431.799111" xlink:href="#mc96f7aa451" y="246.714633"/>
     <use style="fill:#4c72b0;stroke:#4c72b0;stroke-width:1.5;" x="516.675838" xlink:href="#mc96f7aa451" y="181.157415"/>
     <use style="fill:#4c72b0;stroke:#4c72b0;stroke-width:1.5;" x="529.512063" xlink:href="#mc96f7aa451" y="157.595938"/>
     <use style="fill:#4c72b0;stroke:#4c72b0;stroke-width:1.5;" x="249.754187" xlink:href="#mc96f7aa451" y="319.768964"/>
     <use style="fill:#4c72b0;stroke:#4c72b0;stroke-width:1.5;" x="551.502905" xlink:href="#mc96f7aa451" y="252.245383"/>
     <use style="fill:#4c72b0;stroke:#4c72b0;stroke-width:1.5;" x="644.510977" xlink:href="#mc96f7aa451" y="88.571764"/>
     <use style="fill:#4c72b0;stroke:#4c72b0;stroke-width:1.5;" x="188.497703" xlink:href="#mc96f7aa451" y="351.50714"/>
     <use style="fill:#4c72b0;stroke:#4c72b0;stroke-width:1.5;" x="219.944121" xlink:href="#mc96f7aa451" y="337.3419"/>
     <use style="fill:#4c72b0;stroke:#4c72b0;stroke-width:1.5;" x="483.142712" xlink:href="#mc96f7aa451" y="262.190513"/>
     <use style="fill:#4c72b0;stroke:#4c72b0;stroke-width:1.5;" x="661.92815" xlink:href="#mc96f7aa451" y="268.730712"/>
     <use style="fill:#4c72b0;stroke:#4c72b0;stroke-width:1.5;" x="741.300119" xlink:href="#mc96f7aa451" y="140.132412"/>
     <use style="fill:#4c72b0;stroke:#4c72b0;stroke-width:1.5;" x="392.649631" xlink:href="#mc96f7aa451" y="249.216506"/>
     <use style="fill:#4c72b0;stroke:#4c72b0;stroke-width:1.5;" x="775.343357" xlink:href="#mc96f7aa451" y="200.23601"/>
     <use style="fill:#4c72b0;stroke:#4c72b0;stroke-width:1.5;" x="345.568942" xlink:href="#mc96f7aa451" y="330.543455"/>
     <use style="fill:#4c72b0;stroke:#4c72b0;stroke-width:1.5;" x="289.496198" xlink:href="#mc96f7aa451" y="312.169548"/>
     <use style="fill:#4c72b0;stroke:#4c72b0;stroke-width:1.5;" x="705.312747" xlink:href="#mc96f7aa451" y="274.094354"/>
     <use style="fill:#4c72b0;stroke:#4c72b0;stroke-width:1.5;" x="243.417309" xlink:href="#mc96f7aa451" y="330.460511"/>
     <use style="fill:#4c72b0;stroke:#4c72b0;stroke-width:1.5;" x="432.925206" xlink:href="#mc96f7aa451" y="238.498476"/>
     <use style="fill:#4c72b0;stroke:#4c72b0;stroke-width:1.5;" x="439.228234" xlink:href="#mc96f7aa451" y="299.470721"/>
     <use style="fill:#4c72b0;stroke:#4c72b0;stroke-width:1.5;" x="246.766066" xlink:href="#mc96f7aa451" y="359.00468"/>
     <use style="fill:#4c72b0;stroke:#4c72b0;stroke-width:1.5;" x="892.288124" xlink:href="#mc96f7aa451" y="117.115449"/>
     <use style="fill:#4c72b0;stroke:#4c72b0;stroke-width:1.5;" x="379.617933" xlink:href="#mc96f7aa451" y="265.831113"/>
     <use style="fill:#4c72b0;stroke:#4c72b0;stroke-width:1.5;" x="520.843179" xlink:href="#mc96f7aa451" y="231.127332"/>
     <use style="fill:#4c72b0;stroke:#4c72b0;stroke-width:1.5;" x="650.88102" xlink:href="#mc96f7aa451" y="224.64715"/>
     <use style="fill:#4c72b0;stroke:#4c72b0;stroke-width:1.5;" x="352.377473" xlink:href="#mc96f7aa451" y="321.107768"/>
     <use style="fill:#4c72b0;stroke:#4c72b0;stroke-width:1.5;" x="188.497703" xlink:href="#mc96f7aa451" y="350.066481"/>
     <use style="fill:#4c72b0;stroke:#4c72b0;stroke-width:1.5;" x="437.645185" xlink:href="#mc96f7aa451" y="266.66813"/>
     <use style="fill:#4c72b0;stroke:#4c72b0;stroke-width:1.5;" x="771.181331" xlink:href="#mc96f7aa451" y="180.560677"/>
     <use style="fill:#4c72b0;stroke:#4c72b0;stroke-width:1.5;" x="845.172903" xlink:href="#mc96f7aa451" y="104.500675"/>
     <use style="fill:#4c72b0;stroke:#4c72b0;stroke-width:1.5;" x="188.497703" xlink:href="#mc96f7aa451" y="323.585006"/>
     <use style="fill:#4c72b0;stroke:#4c72b0;stroke-width:1.5;" x="531.652492" xlink:href="#mc96f7aa451" y="193.344732"/>
     <use style="fill:#4c72b0;stroke:#4c72b0;stroke-width:1.5;" x="881.741814" xlink:href="#mc96f7aa451" y="233.336874"/>
     <use style="fill:#4c72b0;stroke:#4c72b0;stroke-width:1.5;" x="582.311465" xlink:href="#mc96f7aa451" y="238.014343"/>
     <use style="fill:#4c72b0;stroke:#4c72b0;stroke-width:1.5;" x="856.624465" xlink:href="#mc96f7aa451" y="111.120971"/>
     <use style="fill:#4c72b0;stroke:#4c72b0;stroke-width:1.5;" x="302.876341" xlink:href="#mc96f7aa451" y="297.716017"/>
     <use style="fill:#4c72b0;stroke:#4c72b0;stroke-width:1.5;" x="751.758543" xlink:href="#mc96f7aa451" y="175.82989"/>
     <use style="fill:#4c72b0;stroke:#4c72b0;stroke-width:1.5;" x="286.154177" xlink:href="#mc96f7aa451" y="308.116286"/>
     <use style="fill:#4c72b0;stroke:#4c72b0;stroke-width:1.5;" x="326.46647" xlink:href="#mc96f7aa451" y="337.161588"/>
     <use style="fill:#4c72b0;stroke:#4c72b0;stroke-width:1.5;" x="463.488701" xlink:href="#mc96f7aa451" y="221.036764"/>
     <use style="fill:#4c72b0;stroke:#4c72b0;stroke-width:1.5;" x="196.016201" xlink:href="#mc96f7aa451" y="311.358786"/>
     <use style="fill:#4c72b0;stroke:#4c72b0;stroke-width:1.5;" x="691.640391" xlink:href="#mc96f7aa451" y="184.229585"/>
     <use style="fill:#4c72b0;stroke:#4c72b0;stroke-width:1.5;" x="369.216" xlink:href="#mc96f7aa451" y="299.145883"/>
     <use style="fill:#4c72b0;stroke:#4c72b0;stroke-width:1.5;" x="263.414169" xlink:href="#mc96f7aa451" y="296.032372"/>
     <use style="fill:#4c72b0;stroke:#4c72b0;stroke-width:1.5;" x="701.733573" xlink:href="#mc96f7aa451" y="166.103518"/>
     <use style="fill:#4c72b0;stroke:#4c72b0;stroke-width:1.5;" x="888.718372" xlink:href="#mc96f7aa451" y="186.545115"/>
     <use style="fill:#4c72b0;stroke:#4c72b0;stroke-width:1.5;" x="704.234701" xlink:href="#mc96f7aa451" y="122.641441"/>
     <use style="fill:#4c72b0;stroke:#4c72b0;stroke-width:1.5;" x="294.908262" xlink:href="#mc96f7aa451" y="319.424418"/>
     <use style="fill:#4c72b0;stroke:#4c72b0;stroke-width:1.5;" x="784.777282" xlink:href="#mc96f7aa451" y="289.540674"/>
     <use style="fill:#4c72b0;stroke:#4c72b0;stroke-width:1.5;" x="684.426213" xlink:href="#mc96f7aa451" y="173.845364"/>
     <use style="fill:#4c72b0;stroke:#4c72b0;stroke-width:1.5;" x="722.624362" xlink:href="#mc96f7aa451" y="72.853369"/>
     <use style="fill:#4c72b0;stroke:#4c72b0;stroke-width:1.5;" x="339.397822" xlink:href="#mc96f7aa451" y="235.119908"/>
     <use style="fill:#4c72b0;stroke:#4c72b0;stroke-width:1.5;" x="656.586884" xlink:href="#mc96f7aa451" y="260.062161"/>
     <use style="fill:#4c72b0;stroke:#4c72b0;stroke-width:1.5;" x="473.962304" xlink:href="#mc96f7aa451" y="249.807532"/>
     <use style="fill:#4c72b0;stroke:#4c72b0;stroke-width:1.5;" x="575.658602" xlink:href="#mc96f7aa451" y="181.19656"/>
     <use style="fill:#4c72b0;stroke:#4c72b0;stroke-width:1.5;" x="722.624362" xlink:href="#mc96f7aa451" y="168.522146"/>
     <use style="fill:#4c72b0;stroke:#4c72b0;stroke-width:1.5;" x="220.149653" xlink:href="#mc96f7aa451" y="330.236069"/>
     <use style="fill:#4c72b0;stroke:#4c72b0;stroke-width:1.5;" x="744.107142" xlink:href="#mc96f7aa451" y="150.849394"/>
     <use style="fill:#4c72b0;stroke:#4c72b0;stroke-width:1.5;" x="645.816065" xlink:href="#mc96f7aa451" y="236.597627"/>
     <use style="fill:#4c72b0;stroke:#4c72b0;stroke-width:1.5;" x="740.000936" xlink:href="#mc96f7aa451" y="237.232832"/>
     <use style="fill:#4c72b0;stroke:#4c72b0;stroke-width:1.5;" x="652.473956" xlink:href="#mc96f7aa451" y="192.175376"/>
     <use style="fill:#4c72b0;stroke:#4c72b0;stroke-width:1.5;" x="838.801406" xlink:href="#mc96f7aa451" y="140.997668"/>
     <use style="fill:#4c72b0;stroke:#4c72b0;stroke-width:1.5;" x="792.762206" xlink:href="#mc96f7aa451" y="158.724627"/>
     <use style="fill:#4c72b0;stroke:#4c72b0;stroke-width:1.5;" x="229.989107" xlink:href="#mc96f7aa451" y="357.761123"/>
     <use style="fill:#4c72b0;stroke:#4c72b0;stroke-width:1.5;" x="308.565844" xlink:href="#mc96f7aa451" y="279.689855"/>
     <use style="fill:#4c72b0;stroke:#4c72b0;stroke-width:1.5;" x="365.460879" xlink:href="#mc96f7aa451" y="300.926267"/>
     <use style="fill:#4c72b0;stroke:#4c72b0;stroke-width:1.5;" x="696.524991" xlink:href="#mc96f7aa451" y="203.275143"/>
     <use style="fill:#4c72b0;stroke:#4c72b0;stroke-width:1.5;" x="403.766932" xlink:href="#mc96f7aa451" y="241.255914"/>
     <use style="fill:#4c72b0;stroke:#4c72b0;stroke-width:1.5;" x="200.983781" xlink:href="#mc96f7aa451" y="338.333944"/>
     <use style="fill:#4c72b0;stroke:#4c72b0;stroke-width:1.5;" x="786.719561" xlink:href="#mc96f7aa451" y="128.892839"/>
     <use style="fill:#4c72b0;stroke:#4c72b0;stroke-width:1.5;" x="199.325738" xlink:href="#mc96f7aa451" y="345.319773"/>
     <use style="fill:#4c72b0;stroke:#4c72b0;stroke-width:1.5;" x="188.497703" xlink:href="#mc96f7aa451" y="316.373294"/>
     <use style="fill:#4c72b0;stroke:#4c72b0;stroke-width:1.5;" x="823.53841" xlink:href="#mc96f7aa451" y="235.652859"/>
     <use style="fill:#4c72b0;stroke:#4c72b0;stroke-width:1.5;" x="823.53841" xlink:href="#mc96f7aa451" y="160.524302"/>
     <use style="fill:#4c72b0;stroke:#4c72b0;stroke-width:1.5;" x="836.512525" xlink:href="#mc96f7aa451" y="192.283797"/>
     <use style="fill:#4c72b0;stroke:#4c72b0;stroke-width:1.5;" x="678.755652" xlink:href="#mc96f7aa451" y="299.538285"/>
     <use style="fill:#4c72b0;stroke:#4c72b0;stroke-width:1.5;" x="188.497703" xlink:href="#mc96f7aa451" y="349.859826"/>
     <use style="fill:#4c72b0;stroke:#4c72b0;stroke-width:1.5;" x="828.385431" xlink:href="#mc96f7aa451" y="137.974252"/>
     <use style="fill:#4c72b0;stroke:#4c72b0;stroke-width:1.5;" x="207.92049" xlink:href="#mc96f7aa451" y="306.96426"/>
     <use style="fill:#4c72b0;stroke:#4c72b0;stroke-width:1.5;" x="812.454754" xlink:href="#mc96f7aa451" y="277.664136"/>
     <use style="fill:#4c72b0;stroke:#4c72b0;stroke-width:1.5;" x="322.126481" xlink:href="#mc96f7aa451" y="338.433381"/>
     <use style="fill:#4c72b0;stroke:#4c72b0;stroke-width:1.5;" x="473.365254" xlink:href="#mc96f7aa451" y="284.836254"/>
     <use style="fill:#4c72b0;stroke:#4c72b0;stroke-width:1.5;" x="485.666353" xlink:href="#mc96f7aa451" y="250.148294"/>
     <use style="fill:#4c72b0;stroke:#4c72b0;stroke-width:1.5;" x="752.428294" xlink:href="#mc96f7aa451" y="198.010597"/>
     <use style="fill:#4c72b0;stroke:#4c72b0;stroke-width:1.5;" x="724.865453" xlink:href="#mc96f7aa451" y="166.008989"/>
     <use style="fill:#4c72b0;stroke:#4c72b0;stroke-width:1.5;" x="887.718056" xlink:href="#mc96f7aa451" y="137.948916"/>
     <use style="fill:#4c72b0;stroke:#4c72b0;stroke-width:1.5;" x="458.792009" xlink:href="#mc96f7aa451" y="250.857872"/>
     <use style="fill:#4c72b0;stroke:#4c72b0;stroke-width:1.5;" x="188.497703" xlink:href="#mc96f7aa451" y="333.914013"/>
     <use style="fill:#4c72b0;stroke:#4c72b0;stroke-width:1.5;" x="847.183543" xlink:href="#mc96f7aa451" y="208.852975"/>
     <use style="fill:#4c72b0;stroke:#4c72b0;stroke-width:1.5;" x="774.559207" xlink:href="#mc96f7aa451" y="114.251213"/>
     <use style="fill:#4c72b0;stroke:#4c72b0;stroke-width:1.5;" x="209.539056" xlink:href="#mc96f7aa451" y="304.233548"/>
     <use style="fill:#4c72b0;stroke:#4c72b0;stroke-width:1.5;" x="769.544579" xlink:href="#mc96f7aa451" y="252.466603"/>
     <use style="fill:#4c72b0;stroke:#4c72b0;stroke-width:1.5;" x="389.853207" xlink:href="#mc96f7aa451" y="313.558455"/>
     <use style="fill:#4c72b0;stroke:#4c72b0;stroke-width:1.5;" x="200.067233" xlink:href="#mc96f7aa451" y="342.837121"/>
     <use style="fill:#4c72b0;stroke:#4c72b0;stroke-width:1.5;" x="207.92049" xlink:href="#mc96f7aa451" y="338.204818"/>
     <use style="fill:#4c72b0;stroke:#4c72b0;stroke-width:1.5;" x="681.988418" xlink:href="#mc96f7aa451" y="200.790841"/>
     <use style="fill:#4c72b0;stroke:#4c72b0;stroke-width:1.5;" x="629.924694" xlink:href="#mc96f7aa451" y="241.845038"/>
     <use style="fill:#4c72b0;stroke:#4c72b0;stroke-width:1.5;" x="722.333601" xlink:href="#mc96f7aa451" y="219.938916"/>
     <use style="fill:#4c72b0;stroke:#4c72b0;stroke-width:1.5;" x="730.897031" xlink:href="#mc96f7aa451" y="186.862947"/>
     <use style="fill:#4c72b0;stroke:#4c72b0;stroke-width:1.5;" x="992.302297" xlink:href="#mc96f7aa451" y="243.137162"/>
     <use style="fill:#4c72b0;stroke:#4c72b0;stroke-width:1.5;" x="576.953455" xlink:href="#mc96f7aa451" y="260.409743"/>
     <use style="fill:#4c72b0;stroke:#4c72b0;stroke-width:1.5;" x="841.103366" xlink:href="#mc96f7aa451" y="104.876039"/>
     <use style="fill:#4c72b0;stroke:#4c72b0;stroke-width:1.5;" x="789.679224" xlink:href="#mc96f7aa451" y="197.588064"/>
     <use style="fill:#4c72b0;stroke:#4c72b0;stroke-width:1.5;" x="808.012225" xlink:href="#mc96f7aa451" y="231.257367"/>
    </g>
   </g>
   <g id="patch_3">
    <path d="M 144 378 
L 144 51.84 
" style="fill:none;stroke:#cccccc;stroke-linecap:square;stroke-linejoin:miter;stroke-width:1.25;"/>
   </g>
   <g id="patch_4">
    <path d="M 1036.8 378 
L 1036.8 51.84 
" style="fill:none;stroke:#cccccc;stroke-linecap:square;stroke-linejoin:miter;stroke-width:1.25;"/>
   </g>
   <g id="patch_5">
    <path d="M 144 378 
L 1036.8 378 
" style="fill:none;stroke:#cccccc;stroke-linecap:square;stroke-linejoin:miter;stroke-width:1.25;"/>
   </g>
   <g id="patch_6">
    <path d="M 144 51.84 
L 1036.8 51.84 
" style="fill:none;stroke:#cccccc;stroke-linecap:square;stroke-linejoin:miter;stroke-width:1.25;"/>
   </g>
   <g id="text_14">
    <!-- Model Fit Plot -->
    <defs>
     <path d="M 7.421875 0 
L 7.421875 71.578125 
L 21.6875 71.578125 
L 38.625 20.90625 
Q 40.96875 13.8125 42.046875 10.296875 
Q 43.265625 14.203125 45.84375 21.78125 
L 62.984375 71.578125 
L 75.734375 71.578125 
L 75.734375 0 
L 66.609375 0 
L 66.609375 59.90625 
L 45.796875 0 
L 37.25 0 
L 16.546875 60.9375 
L 16.546875 0 
z
" id="ArialMT-77"/>
     <path d="M 3.328125 25.921875 
Q 3.328125 40.328125 11.328125 47.265625 
Q 18.015625 53.03125 27.640625 53.03125 
Q 38.328125 53.03125 45.109375 46.015625 
Q 51.90625 39.015625 51.90625 26.65625 
Q 51.90625 16.65625 48.90625 10.90625 
Q 45.90625 5.171875 40.15625 2 
Q 34.421875 -1.171875 27.640625 -1.171875 
Q 16.75 -1.171875 10.03125 5.8125 
Q 3.328125 12.796875 3.328125 25.921875 
z
M 12.359375 25.921875 
Q 12.359375 15.96875 16.703125 11.015625 
Q 21.046875 6.0625 27.640625 6.0625 
Q 34.1875 6.0625 38.53125 11.03125 
Q 42.875 16.015625 42.875 26.21875 
Q 42.875 35.84375 38.5 40.796875 
Q 34.125 45.75 27.640625 45.75 
Q 21.046875 45.75 16.703125 40.8125 
Q 12.359375 35.890625 12.359375 25.921875 
z
" id="ArialMT-111"/>
     <path d="M 7.71875 0 
L 7.71875 71.578125 
L 34.71875 71.578125 
Q 41.84375 71.578125 45.609375 70.90625 
Q 50.875 70.015625 54.4375 67.546875 
Q 58.015625 65.09375 60.1875 60.640625 
Q 62.359375 56.203125 62.359375 50.875 
Q 62.359375 41.75 56.546875 35.421875 
Q 50.734375 29.109375 35.546875 29.109375 
L 17.1875 29.109375 
L 17.1875 0 
z
M 17.1875 37.546875 
L 35.6875 37.546875 
Q 44.875 37.546875 48.734375 40.96875 
Q 52.59375 44.390625 52.59375 50.59375 
Q 52.59375 55.078125 50.3125 58.265625 
Q 48.046875 61.46875 44.34375 62.5 
Q 41.9375 63.140625 35.5 63.140625 
L 17.1875 63.140625 
z
" id="ArialMT-80"/>
    </defs>
    <g style="fill:#262626;" transform="translate(517.044375 45.84)scale(0.24 -0.24)">
     <use xlink:href="#ArialMT-77"/>
     <use x="83.300781" xlink:href="#ArialMT-111"/>
     <use x="138.916016" xlink:href="#ArialMT-100"/>
     <use x="194.53125" xlink:href="#ArialMT-101"/>
     <use x="250.146484" xlink:href="#ArialMT-108"/>
     <use x="272.363281" xlink:href="#ArialMT-32"/>
     <use x="300.146484" xlink:href="#ArialMT-70"/>
     <use x="361.230469" xlink:href="#ArialMT-105"/>
     <use x="383.447266" xlink:href="#ArialMT-116"/>
     <use x="411.230469" xlink:href="#ArialMT-32"/>
     <use x="439.013672" xlink:href="#ArialMT-80"/>
     <use x="505.712891" xlink:href="#ArialMT-108"/>
     <use x="527.929688" xlink:href="#ArialMT-111"/>
     <use x="583.544922" xlink:href="#ArialMT-116"/>
    </g>
   </g>
  </g>
 </g>
 <defs>
  <clipPath id="p965860fc12">
   <rect height="326.16" width="892.8" x="144" y="51.84"/>
  </clipPath>
 </defs>
</svg>
