<?xml version="1.0" encoding="utf-8" standalone="no"?>
<!DOCTYPE svg PUBLIC "-//W3C//DTD SVG 1.1//EN"
  "http://www.w3.org/Graphics/SVG/1.1/DTD/svg11.dtd">
<!-- Created with matplotlib (https://matplotlib.org/) -->
<svg height="720pt" version="1.1" viewBox="0 0 1152 720" width="1152pt" xmlns="http://www.w3.org/2000/svg" xmlns:xlink="http://www.w3.org/1999/xlink">
 <defs>
  <style type="text/css">
*{stroke-linecap:butt;stroke-linejoin:round;}
  </style>
 </defs>
 <g id="figure_1">
  <g id="patch_1">
   <path d="M 0 720 
L 1152 720 
L 1152 0 
L 0 0 
z
" style="fill:#ffffff;"/>
  </g>
  <g id="axes_1">
   <g id="patch_2">
    <path d="M 144 630 
L 1036.8 630 
L 1036.8 86.4 
L 144 86.4 
z
" style="fill:#ffffff;"/>
   </g>
   <g id="matplotlib.axis_1">
    <g id="xtick_1">
     <g id="line2d_1">
      <path clip-path="url(#pd1739166e7)" d="M 144 630 
L 144 86.4 
" style="fill:none;stroke:#cccccc;stroke-linecap:round;"/>
     </g>
     <g id="text_1">
      <!-- 0.0 -->
      <defs>
       <path d="M 4.15625 35.296875 
Q 4.15625 48 6.765625 55.734375 
Q 9.375 63.484375 14.515625 67.671875 
Q 19.671875 71.875 27.484375 71.875 
Q 33.25 71.875 37.59375 69.546875 
Q 41.9375 67.234375 44.765625 62.859375 
Q 47.609375 58.5 49.21875 52.21875 
Q 50.828125 45.953125 50.828125 35.296875 
Q 50.828125 22.703125 48.234375 14.96875 
Q 45.65625 7.234375 40.5 3 
Q 35.359375 -1.21875 27.484375 -1.21875 
Q 17.140625 -1.21875 11.234375 6.203125 
Q 4.15625 15.140625 4.15625 35.296875 
z
M 13.1875 35.296875 
Q 13.1875 17.671875 17.3125 11.828125 
Q 21.4375 6 27.484375 6 
Q 33.546875 6 37.671875 11.859375 
Q 41.796875 17.71875 41.796875 35.296875 
Q 41.796875 52.984375 37.671875 58.78125 
Q 33.546875 64.59375 27.390625 64.59375 
Q 21.34375 64.59375 17.71875 59.46875 
Q 13.1875 52.9375 13.1875 35.296875 
z
" id="ArialMT-48"/>
       <path d="M 9.078125 0 
L 9.078125 10.015625 
L 19.09375 10.015625 
L 19.09375 0 
z
" id="ArialMT-46"/>
      </defs>
      <g style="fill:#262626;" transform="translate(128.71 655.247187)scale(0.22 -0.22)">
       <use xlink:href="#ArialMT-48"/>
       <use x="55.615234" xlink:href="#ArialMT-46"/>
       <use x="83.398438" xlink:href="#ArialMT-48"/>
      </g>
     </g>
    </g>
    <g id="xtick_2">
     <g id="line2d_2">
      <path clip-path="url(#pd1739166e7)" d="M 273.439405 630 
L 273.439405 86.4 
" style="fill:none;stroke:#cccccc;stroke-linecap:round;"/>
     </g>
     <g id="text_2">
      <!-- 0.1 -->
      <defs>
       <path d="M 37.25 0 
L 28.46875 0 
L 28.46875 56 
Q 25.296875 52.984375 20.140625 49.953125 
Q 14.984375 46.921875 10.890625 45.40625 
L 10.890625 53.90625 
Q 18.265625 57.375 23.78125 62.296875 
Q 29.296875 67.234375 31.59375 71.875 
L 37.25 71.875 
z
" id="ArialMT-49"/>
      </defs>
      <g style="fill:#262626;" transform="translate(258.149405 655.247187)scale(0.22 -0.22)">
       <use xlink:href="#ArialMT-48"/>
       <use x="55.615234" xlink:href="#ArialMT-46"/>
       <use x="83.398438" xlink:href="#ArialMT-49"/>
      </g>
     </g>
    </g>
    <g id="xtick_3">
     <g id="line2d_3">
      <path clip-path="url(#pd1739166e7)" d="M 402.87881 630 
L 402.87881 86.4 
" style="fill:none;stroke:#cccccc;stroke-linecap:round;"/>
     </g>
     <g id="text_3">
      <!-- 0.2 -->
      <defs>
       <path d="M 50.34375 8.453125 
L 50.34375 0 
L 3.03125 0 
Q 2.9375 3.171875 4.046875 6.109375 
Q 5.859375 10.9375 9.828125 15.625 
Q 13.8125 20.3125 21.34375 26.46875 
Q 33.015625 36.03125 37.109375 41.625 
Q 41.21875 47.21875 41.21875 52.203125 
Q 41.21875 57.421875 37.46875 61 
Q 33.734375 64.59375 27.734375 64.59375 
Q 21.390625 64.59375 17.578125 60.78125 
Q 13.765625 56.984375 13.71875 50.25 
L 4.6875 51.171875 
Q 5.609375 61.28125 11.65625 66.578125 
Q 17.71875 71.875 27.9375 71.875 
Q 38.234375 71.875 44.234375 66.15625 
Q 50.25 60.453125 50.25 52 
Q 50.25 47.703125 48.484375 43.546875 
Q 46.734375 39.40625 42.65625 34.8125 
Q 38.578125 30.21875 29.109375 22.21875 
Q 21.1875 15.578125 18.9375 13.203125 
Q 16.703125 10.84375 15.234375 8.453125 
z
" id="ArialMT-50"/>
      </defs>
      <g style="fill:#262626;" transform="translate(387.58881 655.247187)scale(0.22 -0.22)">
       <use xlink:href="#ArialMT-48"/>
       <use x="55.615234" xlink:href="#ArialMT-46"/>
       <use x="83.398438" xlink:href="#ArialMT-50"/>
      </g>
     </g>
    </g>
    <g id="xtick_4">
     <g id="line2d_4">
      <path clip-path="url(#pd1739166e7)" d="M 532.318216 630 
L 532.318216 86.4 
" style="fill:none;stroke:#cccccc;stroke-linecap:round;"/>
     </g>
     <g id="text_4">
      <!-- 0.3 -->
      <defs>
       <path d="M 4.203125 18.890625 
L 12.984375 20.0625 
Q 14.5 12.59375 18.140625 9.296875 
Q 21.78125 6 27 6 
Q 33.203125 6 37.46875 10.296875 
Q 41.75 14.59375 41.75 20.953125 
Q 41.75 27 37.796875 30.921875 
Q 33.84375 34.859375 27.734375 34.859375 
Q 25.25 34.859375 21.53125 33.890625 
L 22.515625 41.609375 
Q 23.390625 41.5 23.921875 41.5 
Q 29.546875 41.5 34.03125 44.421875 
Q 38.53125 47.359375 38.53125 53.46875 
Q 38.53125 58.296875 35.25 61.46875 
Q 31.984375 64.65625 26.8125 64.65625 
Q 21.6875 64.65625 18.265625 61.421875 
Q 14.84375 58.203125 13.875 51.765625 
L 5.078125 53.328125 
Q 6.6875 62.15625 12.390625 67.015625 
Q 18.109375 71.875 26.609375 71.875 
Q 32.46875 71.875 37.390625 69.359375 
Q 42.328125 66.84375 44.9375 62.5 
Q 47.5625 58.15625 47.5625 53.265625 
Q 47.5625 48.640625 45.0625 44.828125 
Q 42.578125 41.015625 37.703125 38.765625 
Q 44.046875 37.3125 47.5625 32.6875 
Q 51.078125 28.078125 51.078125 21.140625 
Q 51.078125 11.765625 44.234375 5.25 
Q 37.40625 -1.265625 26.953125 -1.265625 
Q 17.53125 -1.265625 11.296875 4.34375 
Q 5.078125 9.96875 4.203125 18.890625 
z
" id="ArialMT-51"/>
      </defs>
      <g style="fill:#262626;" transform="translate(517.028216 655.247187)scale(0.22 -0.22)">
       <use xlink:href="#ArialMT-48"/>
       <use x="55.615234" xlink:href="#ArialMT-46"/>
       <use x="83.398438" xlink:href="#ArialMT-51"/>
      </g>
     </g>
    </g>
    <g id="xtick_5">
     <g id="line2d_5">
      <path clip-path="url(#pd1739166e7)" d="M 661.757621 630 
L 661.757621 86.4 
" style="fill:none;stroke:#cccccc;stroke-linecap:round;"/>
     </g>
     <g id="text_5">
      <!-- 0.4 -->
      <defs>
       <path d="M 32.328125 0 
L 32.328125 17.140625 
L 1.265625 17.140625 
L 1.265625 25.203125 
L 33.9375 71.578125 
L 41.109375 71.578125 
L 41.109375 25.203125 
L 50.78125 25.203125 
L 50.78125 17.140625 
L 41.109375 17.140625 
L 41.109375 0 
z
M 32.328125 25.203125 
L 32.328125 57.46875 
L 9.90625 25.203125 
z
" id="ArialMT-52"/>
      </defs>
      <g style="fill:#262626;" transform="translate(646.467621 655.247187)scale(0.22 -0.22)">
       <use xlink:href="#ArialMT-48"/>
       <use x="55.615234" xlink:href="#ArialMT-46"/>
       <use x="83.398438" xlink:href="#ArialMT-52"/>
      </g>
     </g>
    </g>
    <g id="xtick_6">
     <g id="line2d_6">
      <path clip-path="url(#pd1739166e7)" d="M 791.197026 630 
L 791.197026 86.4 
" style="fill:none;stroke:#cccccc;stroke-linecap:round;"/>
     </g>
     <g id="text_6">
      <!-- 0.5 -->
      <defs>
       <path d="M 4.15625 18.75 
L 13.375 19.53125 
Q 14.40625 12.796875 18.140625 9.390625 
Q 21.875 6 27.15625 6 
Q 33.5 6 37.890625 10.78125 
Q 42.28125 15.578125 42.28125 23.484375 
Q 42.28125 31 38.0625 35.34375 
Q 33.84375 39.703125 27 39.703125 
Q 22.75 39.703125 19.328125 37.765625 
Q 15.921875 35.84375 13.96875 32.765625 
L 5.71875 33.84375 
L 12.640625 70.609375 
L 48.25 70.609375 
L 48.25 62.203125 
L 19.671875 62.203125 
L 15.828125 42.96875 
Q 22.265625 47.46875 29.34375 47.46875 
Q 38.71875 47.46875 45.15625 40.96875 
Q 51.609375 34.46875 51.609375 24.265625 
Q 51.609375 14.546875 45.953125 7.46875 
Q 39.0625 -1.21875 27.15625 -1.21875 
Q 17.390625 -1.21875 11.203125 4.25 
Q 5.03125 9.71875 4.15625 18.75 
z
" id="ArialMT-53"/>
      </defs>
      <g style="fill:#262626;" transform="translate(775.907026 655.247187)scale(0.22 -0.22)">
       <use xlink:href="#ArialMT-48"/>
       <use x="55.615234" xlink:href="#ArialMT-46"/>
       <use x="83.398438" xlink:href="#ArialMT-53"/>
      </g>
     </g>
    </g>
    <g id="xtick_7">
     <g id="line2d_7">
      <path clip-path="url(#pd1739166e7)" d="M 920.636431 630 
L 920.636431 86.4 
" style="fill:none;stroke:#cccccc;stroke-linecap:round;"/>
     </g>
     <g id="text_7">
      <!-- 0.6 -->
      <defs>
       <path d="M 49.75 54.046875 
L 41.015625 53.375 
Q 39.84375 58.546875 37.703125 60.890625 
Q 34.125 64.65625 28.90625 64.65625 
Q 24.703125 64.65625 21.53125 62.3125 
Q 17.390625 59.28125 14.984375 53.46875 
Q 12.59375 47.65625 12.5 36.921875 
Q 15.671875 41.75 20.265625 44.09375 
Q 24.859375 46.4375 29.890625 46.4375 
Q 38.671875 46.4375 44.84375 39.96875 
Q 51.03125 33.5 51.03125 23.25 
Q 51.03125 16.5 48.125 10.71875 
Q 45.21875 4.9375 40.140625 1.859375 
Q 35.0625 -1.21875 28.609375 -1.21875 
Q 17.625 -1.21875 10.6875 6.859375 
Q 3.765625 14.9375 3.765625 33.5 
Q 3.765625 54.25 11.421875 63.671875 
Q 18.109375 71.875 29.4375 71.875 
Q 37.890625 71.875 43.28125 67.140625 
Q 48.6875 62.40625 49.75 54.046875 
z
M 13.875 23.1875 
Q 13.875 18.65625 15.796875 14.5 
Q 17.71875 10.359375 21.1875 8.171875 
Q 24.65625 6 28.46875 6 
Q 34.03125 6 38.03125 10.484375 
Q 42.046875 14.984375 42.046875 22.703125 
Q 42.046875 30.125 38.078125 34.390625 
Q 34.125 38.671875 28.125 38.671875 
Q 22.171875 38.671875 18.015625 34.390625 
Q 13.875 30.125 13.875 23.1875 
z
" id="ArialMT-54"/>
      </defs>
      <g style="fill:#262626;" transform="translate(905.346431 655.247187)scale(0.22 -0.22)">
       <use xlink:href="#ArialMT-48"/>
       <use x="55.615234" xlink:href="#ArialMT-46"/>
       <use x="83.398438" xlink:href="#ArialMT-54"/>
      </g>
     </g>
    </g>
    <g id="text_8">
     <!-- Simulation Result -->
     <defs>
      <path d="M 4.5 23 
L 13.421875 23.78125 
Q 14.0625 18.40625 16.375 14.96875 
Q 18.703125 11.53125 23.578125 9.40625 
Q 28.46875 7.28125 34.578125 7.28125 
Q 39.984375 7.28125 44.140625 8.890625 
Q 48.296875 10.5 50.3125 13.296875 
Q 52.34375 16.109375 52.34375 19.4375 
Q 52.34375 22.796875 50.390625 25.3125 
Q 48.4375 27.828125 43.953125 29.546875 
Q 41.0625 30.671875 31.203125 33.03125 
Q 21.34375 35.40625 17.390625 37.5 
Q 12.25 40.1875 9.734375 44.15625 
Q 7.234375 48.140625 7.234375 53.078125 
Q 7.234375 58.5 10.296875 63.203125 
Q 13.375 67.921875 19.28125 70.359375 
Q 25.203125 72.796875 32.421875 72.796875 
Q 40.375 72.796875 46.453125 70.234375 
Q 52.546875 67.671875 55.8125 62.6875 
Q 59.078125 57.71875 59.328125 51.421875 
L 50.25 50.734375 
Q 49.515625 57.515625 45.28125 60.984375 
Q 41.0625 64.453125 32.8125 64.453125 
Q 24.21875 64.453125 20.28125 61.296875 
Q 16.359375 58.15625 16.359375 53.71875 
Q 16.359375 49.859375 19.140625 47.359375 
Q 21.875 44.875 33.421875 42.265625 
Q 44.96875 39.65625 49.265625 37.703125 
Q 55.515625 34.8125 58.484375 30.390625 
Q 61.46875 25.984375 61.46875 20.21875 
Q 61.46875 14.5 58.203125 9.4375 
Q 54.9375 4.390625 48.796875 1.578125 
Q 42.671875 -1.21875 35.015625 -1.21875 
Q 25.296875 -1.21875 18.71875 1.609375 
Q 12.15625 4.4375 8.421875 10.125 
Q 4.6875 15.828125 4.5 23 
z
" id="ArialMT-83"/>
      <path d="M 6.640625 61.46875 
L 6.640625 71.578125 
L 15.4375 71.578125 
L 15.4375 61.46875 
z
M 6.640625 0 
L 6.640625 51.859375 
L 15.4375 51.859375 
L 15.4375 0 
z
" id="ArialMT-105"/>
      <path d="M 6.59375 0 
L 6.59375 51.859375 
L 14.453125 51.859375 
L 14.453125 44.578125 
Q 16.890625 48.390625 20.9375 50.703125 
Q 25 53.03125 30.171875 53.03125 
Q 35.9375 53.03125 39.625 50.640625 
Q 43.3125 48.25 44.828125 43.953125 
Q 50.984375 53.03125 60.84375 53.03125 
Q 68.5625 53.03125 72.703125 48.75 
Q 76.859375 44.484375 76.859375 35.59375 
L 76.859375 0 
L 68.109375 0 
L 68.109375 32.671875 
Q 68.109375 37.9375 67.25 40.25 
Q 66.40625 42.578125 64.15625 43.984375 
Q 61.921875 45.40625 58.890625 45.40625 
Q 53.421875 45.40625 49.796875 41.765625 
Q 46.1875 38.140625 46.1875 30.125 
L 46.1875 0 
L 37.40625 0 
L 37.40625 33.6875 
Q 37.40625 39.546875 35.25 42.46875 
Q 33.109375 45.40625 28.21875 45.40625 
Q 24.515625 45.40625 21.359375 43.453125 
Q 18.21875 41.5 16.796875 37.734375 
Q 15.375 33.984375 15.375 26.90625 
L 15.375 0 
z
" id="ArialMT-109"/>
      <path d="M 40.578125 0 
L 40.578125 7.625 
Q 34.515625 -1.171875 24.125 -1.171875 
Q 19.53125 -1.171875 15.546875 0.578125 
Q 11.578125 2.34375 9.640625 5 
Q 7.71875 7.671875 6.9375 11.53125 
Q 6.390625 14.109375 6.390625 19.734375 
L 6.390625 51.859375 
L 15.1875 51.859375 
L 15.1875 23.09375 
Q 15.1875 16.21875 15.71875 13.8125 
Q 16.546875 10.359375 19.234375 8.375 
Q 21.921875 6.390625 25.875 6.390625 
Q 29.828125 6.390625 33.296875 8.421875 
Q 36.765625 10.453125 38.203125 13.9375 
Q 39.65625 17.4375 39.65625 24.078125 
L 39.65625 51.859375 
L 48.4375 51.859375 
L 48.4375 0 
z
" id="ArialMT-117"/>
      <path d="M 6.390625 0 
L 6.390625 71.578125 
L 15.1875 71.578125 
L 15.1875 0 
z
" id="ArialMT-108"/>
      <path d="M 40.4375 6.390625 
Q 35.546875 2.25 31.03125 0.53125 
Q 26.515625 -1.171875 21.34375 -1.171875 
Q 12.796875 -1.171875 8.203125 3 
Q 3.609375 7.171875 3.609375 13.671875 
Q 3.609375 17.484375 5.34375 20.625 
Q 7.078125 23.78125 9.890625 25.6875 
Q 12.703125 27.59375 16.21875 28.5625 
Q 18.796875 29.25 24.03125 29.890625 
Q 34.671875 31.15625 39.703125 32.90625 
Q 39.75 34.71875 39.75 35.203125 
Q 39.75 40.578125 37.25 42.78125 
Q 33.890625 45.75 27.25 45.75 
Q 21.046875 45.75 18.09375 43.578125 
Q 15.140625 41.40625 13.71875 35.890625 
L 5.125 37.0625 
Q 6.296875 42.578125 8.984375 45.96875 
Q 11.671875 49.359375 16.75 51.1875 
Q 21.828125 53.03125 28.515625 53.03125 
Q 35.15625 53.03125 39.296875 51.46875 
Q 43.453125 49.90625 45.40625 47.53125 
Q 47.359375 45.171875 48.140625 41.546875 
Q 48.578125 39.3125 48.578125 33.453125 
L 48.578125 21.734375 
Q 48.578125 9.46875 49.140625 6.21875 
Q 49.703125 2.984375 51.375 0 
L 42.1875 0 
Q 40.828125 2.734375 40.4375 6.390625 
z
M 39.703125 26.03125 
Q 34.90625 24.078125 25.34375 22.703125 
Q 19.921875 21.921875 17.671875 20.9375 
Q 15.4375 19.96875 14.203125 18.09375 
Q 12.984375 16.21875 12.984375 13.921875 
Q 12.984375 10.40625 15.640625 8.0625 
Q 18.3125 5.71875 23.4375 5.71875 
Q 28.515625 5.71875 32.46875 7.9375 
Q 36.421875 10.15625 38.28125 14.015625 
Q 39.703125 17 39.703125 22.796875 
z
" id="ArialMT-97"/>
      <path d="M 25.78125 7.859375 
L 27.046875 0.09375 
Q 23.34375 -0.6875 20.40625 -0.6875 
Q 15.625 -0.6875 12.984375 0.828125 
Q 10.359375 2.34375 9.28125 4.8125 
Q 8.203125 7.28125 8.203125 15.1875 
L 8.203125 45.015625 
L 1.765625 45.015625 
L 1.765625 51.859375 
L 8.203125 51.859375 
L 8.203125 64.703125 
L 16.9375 69.96875 
L 16.9375 51.859375 
L 25.78125 51.859375 
L 25.78125 45.015625 
L 16.9375 45.015625 
L 16.9375 14.703125 
Q 16.9375 10.9375 17.40625 9.859375 
Q 17.875 8.796875 18.921875 8.15625 
Q 19.96875 7.515625 21.921875 7.515625 
Q 23.390625 7.515625 25.78125 7.859375 
z
" id="ArialMT-116"/>
      <path d="M 3.328125 25.921875 
Q 3.328125 40.328125 11.328125 47.265625 
Q 18.015625 53.03125 27.640625 53.03125 
Q 38.328125 53.03125 45.109375 46.015625 
Q 51.90625 39.015625 51.90625 26.65625 
Q 51.90625 16.65625 48.90625 10.90625 
Q 45.90625 5.171875 40.15625 2 
Q 34.421875 -1.171875 27.640625 -1.171875 
Q 16.75 -1.171875 10.03125 5.8125 
Q 3.328125 12.796875 3.328125 25.921875 
z
M 12.359375 25.921875 
Q 12.359375 15.96875 16.703125 11.015625 
Q 21.046875 6.0625 27.640625 6.0625 
Q 34.1875 6.0625 38.53125 11.03125 
Q 42.875 16.015625 42.875 26.21875 
Q 42.875 35.84375 38.5 40.796875 
Q 34.125 45.75 27.640625 45.75 
Q 21.046875 45.75 16.703125 40.8125 
Q 12.359375 35.890625 12.359375 25.921875 
z
" id="ArialMT-111"/>
      <path d="M 6.59375 0 
L 6.59375 51.859375 
L 14.5 51.859375 
L 14.5 44.484375 
Q 20.21875 53.03125 31 53.03125 
Q 35.6875 53.03125 39.625 51.34375 
Q 43.5625 49.65625 45.515625 46.921875 
Q 47.46875 44.1875 48.25 40.4375 
Q 48.734375 37.984375 48.734375 31.890625 
L 48.734375 0 
L 39.9375 0 
L 39.9375 31.546875 
Q 39.9375 36.921875 38.90625 39.578125 
Q 37.890625 42.234375 35.28125 43.8125 
Q 32.671875 45.40625 29.15625 45.40625 
Q 23.53125 45.40625 19.453125 41.84375 
Q 15.375 38.28125 15.375 28.328125 
L 15.375 0 
z
" id="ArialMT-110"/>
      <path id="ArialMT-32"/>
      <path d="M 7.859375 0 
L 7.859375 71.578125 
L 39.59375 71.578125 
Q 49.171875 71.578125 54.140625 69.640625 
Q 59.125 67.71875 62.109375 62.828125 
Q 65.09375 57.953125 65.09375 52.046875 
Q 65.09375 44.4375 60.15625 39.203125 
Q 55.21875 33.984375 44.921875 32.5625 
Q 48.6875 30.765625 50.640625 29 
Q 54.78125 25.203125 58.5 19.484375 
L 70.953125 0 
L 59.03125 0 
L 49.5625 14.890625 
Q 45.40625 21.34375 42.71875 24.75 
Q 40.046875 28.171875 37.921875 29.53125 
Q 35.796875 30.90625 33.59375 31.453125 
Q 31.984375 31.78125 28.328125 31.78125 
L 17.328125 31.78125 
L 17.328125 0 
z
M 17.328125 39.984375 
L 37.703125 39.984375 
Q 44.1875 39.984375 47.84375 41.328125 
Q 51.515625 42.671875 53.421875 45.625 
Q 55.328125 48.578125 55.328125 52.046875 
Q 55.328125 57.125 51.640625 60.390625 
Q 47.953125 63.671875 39.984375 63.671875 
L 17.328125 63.671875 
z
" id="ArialMT-82"/>
      <path d="M 42.09375 16.703125 
L 51.171875 15.578125 
Q 49.03125 7.625 43.21875 3.21875 
Q 37.40625 -1.171875 28.375 -1.171875 
Q 17 -1.171875 10.328125 5.828125 
Q 3.65625 12.84375 3.65625 25.484375 
Q 3.65625 38.578125 10.390625 45.796875 
Q 17.140625 53.03125 27.875 53.03125 
Q 38.28125 53.03125 44.875 45.953125 
Q 51.46875 38.875 51.46875 26.03125 
Q 51.46875 25.25 51.421875 23.6875 
L 12.75 23.6875 
Q 13.234375 15.140625 17.578125 10.59375 
Q 21.921875 6.0625 28.421875 6.0625 
Q 33.25 6.0625 36.671875 8.59375 
Q 40.09375 11.140625 42.09375 16.703125 
z
M 13.234375 30.90625 
L 42.1875 30.90625 
Q 41.609375 37.453125 38.875 40.71875 
Q 34.671875 45.796875 27.984375 45.796875 
Q 21.921875 45.796875 17.796875 41.75 
Q 13.671875 37.703125 13.234375 30.90625 
z
" id="ArialMT-101"/>
      <path d="M 3.078125 15.484375 
L 11.765625 16.84375 
Q 12.5 11.625 15.84375 8.84375 
Q 19.1875 6.0625 25.203125 6.0625 
Q 31.25 6.0625 34.171875 8.515625 
Q 37.109375 10.984375 37.109375 14.3125 
Q 37.109375 17.28125 34.515625 19 
Q 32.71875 20.171875 25.53125 21.96875 
Q 15.875 24.421875 12.140625 26.203125 
Q 8.40625 27.984375 6.46875 31.125 
Q 4.546875 34.28125 4.546875 38.09375 
Q 4.546875 41.546875 6.125 44.5 
Q 7.71875 47.46875 10.453125 49.421875 
Q 12.5 50.921875 16.03125 51.96875 
Q 19.578125 53.03125 23.640625 53.03125 
Q 29.734375 53.03125 34.34375 51.265625 
Q 38.96875 49.515625 41.15625 46.5 
Q 43.359375 43.5 44.1875 38.484375 
L 35.59375 37.3125 
Q 35.015625 41.3125 32.203125 43.546875 
Q 29.390625 45.796875 24.265625 45.796875 
Q 18.21875 45.796875 15.625 43.796875 
Q 13.03125 41.796875 13.03125 39.109375 
Q 13.03125 37.40625 14.109375 36.03125 
Q 15.1875 34.625 17.484375 33.6875 
Q 18.796875 33.203125 25.25 31.453125 
Q 34.578125 28.953125 38.25 27.359375 
Q 41.9375 25.78125 44.03125 22.75 
Q 46.140625 19.734375 46.140625 15.234375 
Q 46.140625 10.84375 43.578125 6.953125 
Q 41.015625 3.078125 36.171875 0.953125 
Q 31.34375 -1.171875 25.25 -1.171875 
Q 15.140625 -1.171875 9.84375 3.03125 
Q 4.546875 7.234375 3.078125 15.484375 
z
" id="ArialMT-115"/>
     </defs>
     <g style="fill:#262626;" transform="translate(497.02875 680.798437)scale(0.24 -0.24)">
      <use xlink:href="#ArialMT-83"/>
      <use x="66.699219" xlink:href="#ArialMT-105"/>
      <use x="88.916016" xlink:href="#ArialMT-109"/>
      <use x="172.216797" xlink:href="#ArialMT-117"/>
      <use x="227.832031" xlink:href="#ArialMT-108"/>
      <use x="250.048828" xlink:href="#ArialMT-97"/>
      <use x="305.664062" xlink:href="#ArialMT-116"/>
      <use x="333.447266" xlink:href="#ArialMT-105"/>
      <use x="355.664062" xlink:href="#ArialMT-111"/>
      <use x="411.279297" xlink:href="#ArialMT-110"/>
      <use x="466.894531" xlink:href="#ArialMT-32"/>
      <use x="494.677734" xlink:href="#ArialMT-82"/>
      <use x="566.894531" xlink:href="#ArialMT-101"/>
      <use x="622.509766" xlink:href="#ArialMT-115"/>
      <use x="672.509766" xlink:href="#ArialMT-117"/>
      <use x="728.125" xlink:href="#ArialMT-108"/>
      <use x="750.341797" xlink:href="#ArialMT-116"/>
     </g>
    </g>
   </g>
   <g id="matplotlib.axis_2">
    <g id="ytick_1">
     <g id="line2d_8">
      <path clip-path="url(#pd1739166e7)" d="M 144 605.290909 
L 1036.8 605.290909 
" style="fill:none;stroke:#cccccc;stroke-linecap:round;"/>
     </g>
     <g id="text_9">
      <!-- 0.0 -->
      <g style="fill:#262626;" transform="translate(103.92 613.164503)scale(0.22 -0.22)">
       <use xlink:href="#ArialMT-48"/>
       <use x="55.615234" xlink:href="#ArialMT-46"/>
       <use x="83.398438" xlink:href="#ArialMT-48"/>
      </g>
     </g>
    </g>
    <g id="ytick_2">
     <g id="line2d_9">
      <path clip-path="url(#pd1739166e7)" d="M 144 533.643731 
L 1036.8 533.643731 
" style="fill:none;stroke:#cccccc;stroke-linecap:round;"/>
     </g>
     <g id="text_10">
      <!-- 0.1 -->
      <g style="fill:#262626;" transform="translate(103.92 541.517325)scale(0.22 -0.22)">
       <use xlink:href="#ArialMT-48"/>
       <use x="55.615234" xlink:href="#ArialMT-46"/>
       <use x="83.398438" xlink:href="#ArialMT-49"/>
      </g>
     </g>
    </g>
    <g id="ytick_3">
     <g id="line2d_10">
      <path clip-path="url(#pd1739166e7)" d="M 144 461.996553 
L 1036.8 461.996553 
" style="fill:none;stroke:#cccccc;stroke-linecap:round;"/>
     </g>
     <g id="text_11">
      <!-- 0.2 -->
      <g style="fill:#262626;" transform="translate(103.92 469.870147)scale(0.22 -0.22)">
       <use xlink:href="#ArialMT-48"/>
       <use x="55.615234" xlink:href="#ArialMT-46"/>
       <use x="83.398438" xlink:href="#ArialMT-50"/>
      </g>
     </g>
    </g>
    <g id="ytick_4">
     <g id="line2d_11">
      <path clip-path="url(#pd1739166e7)" d="M 144 390.349375 
L 1036.8 390.349375 
" style="fill:none;stroke:#cccccc;stroke-linecap:round;"/>
     </g>
     <g id="text_12">
      <!-- 0.3 -->
      <g style="fill:#262626;" transform="translate(103.92 398.222969)scale(0.22 -0.22)">
       <use xlink:href="#ArialMT-48"/>
       <use x="55.615234" xlink:href="#ArialMT-46"/>
       <use x="83.398438" xlink:href="#ArialMT-51"/>
      </g>
     </g>
    </g>
    <g id="ytick_5">
     <g id="line2d_12">
      <path clip-path="url(#pd1739166e7)" d="M 144 318.702197 
L 1036.8 318.702197 
" style="fill:none;stroke:#cccccc;stroke-linecap:round;"/>
     </g>
     <g id="text_13">
      <!-- 0.4 -->
      <g style="fill:#262626;" transform="translate(103.92 326.57579)scale(0.22 -0.22)">
       <use xlink:href="#ArialMT-48"/>
       <use x="55.615234" xlink:href="#ArialMT-46"/>
       <use x="83.398438" xlink:href="#ArialMT-52"/>
      </g>
     </g>
    </g>
    <g id="ytick_6">
     <g id="line2d_13">
      <path clip-path="url(#pd1739166e7)" d="M 144 247.055019 
L 1036.8 247.055019 
" style="fill:none;stroke:#cccccc;stroke-linecap:round;"/>
     </g>
     <g id="text_14">
      <!-- 0.5 -->
      <g style="fill:#262626;" transform="translate(103.92 254.928612)scale(0.22 -0.22)">
       <use xlink:href="#ArialMT-48"/>
       <use x="55.615234" xlink:href="#ArialMT-46"/>
       <use x="83.398438" xlink:href="#ArialMT-53"/>
      </g>
     </g>
    </g>
    <g id="ytick_7">
     <g id="line2d_14">
      <path clip-path="url(#pd1739166e7)" d="M 144 175.40784 
L 1036.8 175.40784 
" style="fill:none;stroke:#cccccc;stroke-linecap:round;"/>
     </g>
     <g id="text_15">
      <!-- 0.6 -->
      <g style="fill:#262626;" transform="translate(103.92 183.281434)scale(0.22 -0.22)">
       <use xlink:href="#ArialMT-48"/>
       <use x="55.615234" xlink:href="#ArialMT-46"/>
       <use x="83.398438" xlink:href="#ArialMT-54"/>
      </g>
     </g>
    </g>
    <g id="ytick_8">
     <g id="line2d_15">
      <path clip-path="url(#pd1739166e7)" d="M 144 103.760662 
L 1036.8 103.760662 
" style="fill:none;stroke:#cccccc;stroke-linecap:round;"/>
     </g>
     <g id="text_16">
      <!-- 0.7 -->
      <defs>
       <path d="M 4.734375 62.203125 
L 4.734375 70.65625 
L 51.078125 70.65625 
L 51.078125 63.8125 
Q 44.234375 56.546875 37.515625 44.484375 
Q 30.8125 32.421875 27.15625 19.671875 
Q 24.515625 10.6875 23.78125 0 
L 14.75 0 
Q 14.890625 8.453125 18.0625 20.40625 
Q 21.234375 32.375 27.171875 43.484375 
Q 33.109375 54.59375 39.796875 62.203125 
z
" id="ArialMT-55"/>
      </defs>
      <g style="fill:#262626;" transform="translate(103.92 111.634256)scale(0.22 -0.22)">
       <use xlink:href="#ArialMT-48"/>
       <use x="55.615234" xlink:href="#ArialMT-46"/>
       <use x="83.398438" xlink:href="#ArialMT-55"/>
      </g>
     </g>
    </g>
    <g id="text_17">
     <!-- Predicted -->
     <defs>
      <path d="M 7.71875 0 
L 7.71875 71.578125 
L 34.71875 71.578125 
Q 41.84375 71.578125 45.609375 70.90625 
Q 50.875 70.015625 54.4375 67.546875 
Q 58.015625 65.09375 60.1875 60.640625 
Q 62.359375 56.203125 62.359375 50.875 
Q 62.359375 41.75 56.546875 35.421875 
Q 50.734375 29.109375 35.546875 29.109375 
L 17.1875 29.109375 
L 17.1875 0 
z
M 17.1875 37.546875 
L 35.6875 37.546875 
Q 44.875 37.546875 48.734375 40.96875 
Q 52.59375 44.390625 52.59375 50.59375 
Q 52.59375 55.078125 50.3125 58.265625 
Q 48.046875 61.46875 44.34375 62.5 
Q 41.9375 63.140625 35.5 63.140625 
L 17.1875 63.140625 
z
" id="ArialMT-80"/>
      <path d="M 6.5 0 
L 6.5 51.859375 
L 14.40625 51.859375 
L 14.40625 44 
Q 17.4375 49.515625 20 51.265625 
Q 22.5625 53.03125 25.640625 53.03125 
Q 30.078125 53.03125 34.671875 50.203125 
L 31.640625 42.046875 
Q 28.421875 43.953125 25.203125 43.953125 
Q 22.3125 43.953125 20.015625 42.21875 
Q 17.71875 40.484375 16.75 37.40625 
Q 15.28125 32.71875 15.28125 27.15625 
L 15.28125 0 
z
" id="ArialMT-114"/>
      <path d="M 40.234375 0 
L 40.234375 6.546875 
Q 35.296875 -1.171875 25.734375 -1.171875 
Q 19.53125 -1.171875 14.328125 2.25 
Q 9.125 5.671875 6.265625 11.796875 
Q 3.421875 17.921875 3.421875 25.875 
Q 3.421875 33.640625 6 39.96875 
Q 8.59375 46.296875 13.765625 49.65625 
Q 18.953125 53.03125 25.34375 53.03125 
Q 30.03125 53.03125 33.6875 51.046875 
Q 37.359375 49.078125 39.65625 45.90625 
L 39.65625 71.578125 
L 48.390625 71.578125 
L 48.390625 0 
z
M 12.453125 25.875 
Q 12.453125 15.921875 16.640625 10.984375 
Q 20.84375 6.0625 26.5625 6.0625 
Q 32.328125 6.0625 36.34375 10.765625 
Q 40.375 15.484375 40.375 25.140625 
Q 40.375 35.796875 36.265625 40.765625 
Q 32.171875 45.75 26.171875 45.75 
Q 20.3125 45.75 16.375 40.96875 
Q 12.453125 36.1875 12.453125 25.875 
z
" id="ArialMT-100"/>
      <path d="M 40.4375 19 
L 49.078125 17.875 
Q 47.65625 8.9375 41.8125 3.875 
Q 35.984375 -1.171875 27.484375 -1.171875 
Q 16.84375 -1.171875 10.375 5.78125 
Q 3.90625 12.75 3.90625 25.734375 
Q 3.90625 34.125 6.6875 40.421875 
Q 9.46875 46.734375 15.15625 49.875 
Q 20.84375 53.03125 27.546875 53.03125 
Q 35.984375 53.03125 41.359375 48.75 
Q 46.734375 44.484375 48.25 36.625 
L 39.703125 35.296875 
Q 38.484375 40.53125 35.375 43.15625 
Q 32.28125 45.796875 27.875 45.796875 
Q 21.234375 45.796875 17.078125 41.03125 
Q 12.9375 36.28125 12.9375 25.984375 
Q 12.9375 15.53125 16.9375 10.796875 
Q 20.953125 6.0625 27.390625 6.0625 
Q 32.5625 6.0625 36.03125 9.234375 
Q 39.5 12.40625 40.4375 19 
z
" id="ArialMT-99"/>
     </defs>
     <g style="fill:#262626;" transform="translate(95.15 408.8925)rotate(-90)scale(0.24 -0.24)">
      <use xlink:href="#ArialMT-80"/>
      <use x="66.699219" xlink:href="#ArialMT-114"/>
      <use x="100" xlink:href="#ArialMT-101"/>
      <use x="155.615234" xlink:href="#ArialMT-100"/>
      <use x="211.230469" xlink:href="#ArialMT-105"/>
      <use x="233.447266" xlink:href="#ArialMT-99"/>
      <use x="283.447266" xlink:href="#ArialMT-116"/>
      <use x="311.230469" xlink:href="#ArialMT-101"/>
      <use x="366.845703" xlink:href="#ArialMT-100"/>
     </g>
    </g>
   </g>
   <g id="line2d_16">
    <defs>
     <path d="M -5 0 
L 5 0 
M 0 5 
L 0 -5 
" id="m7d78226501" style="stroke:#64b5cd;"/>
    </defs>
    <g clip-path="url(#pd1739166e7)">
     <use style="fill:#64b5cd;stroke:#64b5cd;" x="314.42855" xlink:href="#m7d78226501" y="493.688303"/>
     <use style="fill:#64b5cd;stroke:#64b5cd;" x="493.880626" xlink:href="#m7d78226501" y="407.225442"/>
     <use style="fill:#64b5cd;stroke:#64b5cd;" x="697.199363" xlink:href="#m7d78226501" y="287.978673"/>
     <use style="fill:#64b5cd;stroke:#64b5cd;" x="665.866808" xlink:href="#m7d78226501" y="392.37989"/>
     <use style="fill:#64b5cd;stroke:#64b5cd;" x="523.688922" xlink:href="#m7d78226501" y="335.232986"/>
     <use style="fill:#64b5cd;stroke:#64b5cd;" x="575.464684" xlink:href="#m7d78226501" y="361.15796"/>
     <use style="fill:#64b5cd;stroke:#64b5cd;" x="405.018305" xlink:href="#m7d78226501" y="395.718195"/>
     <use style="fill:#64b5cd;stroke:#64b5cd;" x="144" xlink:href="#m7d78226501" y="439.291298"/>
     <use style="fill:#64b5cd;stroke:#64b5cd;" x="501.315814" xlink:href="#m7d78226501" y="439.155732"/>
     <use style="fill:#64b5cd;stroke:#64b5cd;" x="434.670945" xlink:href="#m7d78226501" y="413.77673"/>
     <use style="fill:#64b5cd;stroke:#64b5cd;" x="721.78749" xlink:href="#m7d78226501" y="353.011697"/>
     <use style="fill:#64b5cd;stroke:#64b5cd;" x="724.542183" xlink:href="#m7d78226501" y="244.195002"/>
     <use style="fill:#64b5cd;stroke:#64b5cd;" x="314.987856" xlink:href="#m7d78226501" y="528.073585"/>
     <use style="fill:#64b5cd;stroke:#64b5cd;" x="472.288347" xlink:href="#m7d78226501" y="413.188678"/>
     <use style="fill:#64b5cd;stroke:#64b5cd;" x="739.065242" xlink:href="#m7d78226501" y="201.588829"/>
     <use style="fill:#64b5cd;stroke:#64b5cd;" x="722.99777" xlink:href="#m7d78226501" y="303.80695"/>
     <use style="fill:#64b5cd;stroke:#64b5cd;" x="826.046097" xlink:href="#m7d78226501" y="357.589945"/>
     <use style="fill:#64b5cd;stroke:#64b5cd;" x="846.399125" xlink:href="#m7d78226501" y="400.822057"/>
     <use style="fill:#64b5cd;stroke:#64b5cd;" x="969.176208" xlink:href="#m7d78226501" y="274.107318"/>
     <use style="fill:#64b5cd;stroke:#64b5cd;" x="190.872208" xlink:href="#m7d78226501" y="480.569863"/>
     <use style="fill:#64b5cd;stroke:#64b5cd;" x="652.843573" xlink:href="#m7d78226501" y="241.349105"/>
     <use style="fill:#64b5cd;stroke:#64b5cd;" x="585.532193" xlink:href="#m7d78226501" y="471.818023"/>
     <use style="fill:#64b5cd;stroke:#64b5cd;" x="736.632406" xlink:href="#m7d78226501" y="211.948102"/>
     <use style="fill:#64b5cd;stroke:#64b5cd;" x="270.742751" xlink:href="#m7d78226501" y="521.930368"/>
     <use style="fill:#64b5cd;stroke:#64b5cd;" x="395.501435" xlink:href="#m7d78226501" y="378.228763"/>
     <use style="fill:#64b5cd;stroke:#64b5cd;" x="535.913755" xlink:href="#m7d78226501" y="282.116405"/>
     <use style="fill:#64b5cd;stroke:#64b5cd;" x="851.226895" xlink:href="#m7d78226501" y="167.284318"/>
     <use style="fill:#64b5cd;stroke:#64b5cd;" x="984.328837" xlink:href="#m7d78226501" y="112.553418"/>
     <use style="fill:#64b5cd;stroke:#64b5cd;" x="484.193309" xlink:href="#m7d78226501" y="483.51908"/>
     <use style="fill:#64b5cd;stroke:#64b5cd;" x="263.084253" xlink:href="#m7d78226501" y="346.435411"/>
     <use style="fill:#64b5cd;stroke:#64b5cd;" x="668.039482" xlink:href="#m7d78226501" y="493.764188"/>
     <use style="fill:#64b5cd;stroke:#64b5cd;" x="729.010835" xlink:href="#m7d78226501" y="241.070682"/>
     <use style="fill:#64b5cd;stroke:#64b5cd;" x="334.752808" xlink:href="#m7d78226501" y="551.90975"/>
     <use style="fill:#64b5cd;stroke:#64b5cd;" x="620.049368" xlink:href="#m7d78226501" y="217.916995"/>
     <use style="fill:#64b5cd;stroke:#64b5cd;" x="406.074845" xlink:href="#m7d78226501" y="536.835692"/>
     <use style="fill:#64b5cd;stroke:#64b5cd;" x="616.221934" xlink:href="#m7d78226501" y="369.784988"/>
     <use style="fill:#64b5cd;stroke:#64b5cd;" x="346.948203" xlink:href="#m7d78226501" y="449.305008"/>
     <use style="fill:#64b5cd;stroke:#64b5cd;" x="782.899628" xlink:href="#m7d78226501" y="326.912025"/>
     <use style="fill:#64b5cd;stroke:#64b5cd;" x="671.137288" xlink:href="#m7d78226501" y="414.228373"/>
     <use style="fill:#64b5cd;stroke:#64b5cd;" x="776.81487" xlink:href="#m7d78226501" y="324.258056"/>
     <use style="fill:#64b5cd;stroke:#64b5cd;" x="898.319292" xlink:href="#m7d78226501" y="452.982594"/>
     <use style="fill:#64b5cd;stroke:#64b5cd;" x="667.921402" xlink:href="#m7d78226501" y="335.574624"/>
     <use style="fill:#64b5cd;stroke:#64b5cd;" x="379.185999" xlink:href="#m7d78226501" y="364.585714"/>
     <use style="fill:#64b5cd;stroke:#64b5cd;" x="785.212377" xlink:href="#m7d78226501" y="311.905769"/>
     <use style="fill:#64b5cd;stroke:#64b5cd;" x="768.927881" xlink:href="#m7d78226501" y="245.825986"/>
     <use style="fill:#64b5cd;stroke:#64b5cd;" x="934.9194" xlink:href="#m7d78226501" y="359.62844"/>
     <use style="fill:#64b5cd;stroke:#64b5cd;" x="550.989378" xlink:href="#m7d78226501" y="446.587994"/>
     <use style="fill:#64b5cd;stroke:#64b5cd;" x="414.239184" xlink:href="#m7d78226501" y="390.513437"/>
     <use style="fill:#64b5cd;stroke:#64b5cd;" x="508.513268" xlink:href="#m7d78226501" y="286.906678"/>
     <use style="fill:#64b5cd;stroke:#64b5cd;" x="522.77069" xlink:href="#m7d78226501" y="249.670072"/>
     <use style="fill:#64b5cd;stroke:#64b5cd;" x="212.038662" xlink:href="#m7d78226501" y="505.968649"/>
     <use style="fill:#64b5cd;stroke:#64b5cd;" x="547.196308" xlink:href="#m7d78226501" y="399.254246"/>
     <use style="fill:#64b5cd;stroke:#64b5cd;" x="650.50202" xlink:href="#m7d78226501" y="140.584129"/>
     <use style="fill:#64b5cd;stroke:#64b5cd;" x="144" xlink:href="#m7d78226501" y="556.127725"/>
     <use style="fill:#64b5cd;stroke:#64b5cd;" x="178.928093" xlink:href="#m7d78226501" y="533.740953"/>
     <use style="fill:#64b5cd;stroke:#64b5cd;" x="471.26743" xlink:href="#m7d78226501" y="414.971549"/>
     <use style="fill:#64b5cd;stroke:#64b5cd;" x="669.847584" xlink:href="#m7d78226501" y="425.307693"/>
     <use style="fill:#64b5cd;stroke:#64b5cd;" x="758.007435" xlink:href="#m7d78226501" y="222.070681"/>
     <use style="fill:#64b5cd;stroke:#64b5cd;" x="370.755162" xlink:href="#m7d78226501" y="394.467402"/>
     <use style="fill:#64b5cd;stroke:#64b5cd;" x="795.819862" xlink:href="#m7d78226501" y="317.058527"/>
     <use style="fill:#64b5cd;stroke:#64b5cd;" x="318.461807" xlink:href="#m7d78226501" y="522.996676"/>
     <use style="fill:#64b5cd;stroke:#64b5cd;" x="256.180818" xlink:href="#m7d78226501" y="493.958516"/>
     <use style="fill:#64b5cd;stroke:#64b5cd;" x="718.035623" xlink:href="#m7d78226501" y="433.784404"/>
     <use style="fill:#64b5cd;stroke:#64b5cd;" x="205.000179" xlink:href="#m7d78226501" y="522.865591"/>
     <use style="fill:#64b5cd;stroke:#64b5cd;" x="415.489957" xlink:href="#m7d78226501" y="377.528606"/>
     <use style="fill:#64b5cd;stroke:#64b5cd;" x="422.490842" xlink:href="#m7d78226501" y="473.889264"/>
     <use style="fill:#64b5cd;stroke:#64b5cd;" x="208.719703" xlink:href="#m7d78226501" y="567.976853"/>
     <use style="fill:#64b5cd;stroke:#64b5cd;" x="925.712486" xlink:href="#m7d78226501" y="185.694627"/>
     <use style="fill:#64b5cd;stroke:#64b5cd;" x="356.280625" xlink:href="#m7d78226501" y="420.725161"/>
     <use style="fill:#64b5cd;stroke:#64b5cd;" x="513.142007" xlink:href="#m7d78226501" y="365.879235"/>
     <use style="fill:#64b5cd;stroke:#64b5cd;" x="657.57734" xlink:href="#m7d78226501" y="355.637943"/>
     <use style="fill:#64b5cd;stroke:#64b5cd;" x="326.024164" xlink:href="#m7d78226501" y="508.084497"/>
     <use style="fill:#64b5cd;stroke:#64b5cd;" x="144" xlink:href="#m7d78226501" y="553.850905"/>
     <use style="fill:#64b5cd;stroke:#64b5cd;" x="420.732521" xlink:href="#m7d78226501" y="422.047984"/>
     <use style="fill:#64b5cd;stroke:#64b5cd;" x="791.197026" xlink:href="#m7d78226501" y="285.963592"/>
     <use style="fill:#64b5cd;stroke:#64b5cd;" x="873.380775" xlink:href="#m7d78226501" y="165.758212"/>
     <use style="fill:#64b5cd;stroke:#64b5cd;" x="144" xlink:href="#m7d78226501" y="511.999529"/>
     <use style="fill:#64b5cd;stroke:#64b5cd;" x="525.148103" xlink:href="#m7d78226501" y="306.167539"/>
     <use style="fill:#64b5cd;stroke:#64b5cd;" x="913.998513" xlink:href="#m7d78226501" y="369.371199"/>
     <use style="fill:#64b5cd;stroke:#64b5cd;" x="581.415921" xlink:href="#m7d78226501" y="376.763481"/>
     <use style="fill:#64b5cd;stroke:#64b5cd;" x="886.100228" xlink:href="#m7d78226501" y="176.220942"/>
     <use style="fill:#64b5cd;stroke:#64b5cd;" x="271.042379" xlink:href="#m7d78226501" y="471.116127"/>
     <use style="fill:#64b5cd;stroke:#64b5cd;" x="769.623792" xlink:href="#m7d78226501" y="278.487046"/>
     <use style="fill:#64b5cd;stroke:#64b5cd;" x="252.468775" xlink:href="#m7d78226501" y="487.552734"/>
     <use style="fill:#64b5cd;stroke:#64b5cd;" x="297.244353" xlink:href="#m7d78226501" y="533.455986"/>
     <use style="fill:#64b5cd;stroke:#64b5cd;" x="449.437372" xlink:href="#m7d78226501" y="349.932081"/>
     <use style="fill:#64b5cd;stroke:#64b5cd;" x="152.350929" xlink:href="#m7d78226501" y="492.677187"/>
     <use style="fill:#64b5cd;stroke:#64b5cd;" x="702.849495" xlink:href="#m7d78226501" y="291.761942"/>
     <use style="fill:#64b5cd;stroke:#64b5cd;" x="344.727014" xlink:href="#m7d78226501" y="473.37589"/>
     <use style="fill:#64b5cd;stroke:#64b5cd;" x="227.211046" xlink:href="#m7d78226501" y="468.455291"/>
     <use style="fill:#64b5cd;stroke:#64b5cd;" x="714.060171" xlink:href="#m7d78226501" y="263.115468"/>
     <use style="fill:#64b5cd;stroke:#64b5cd;" x="921.747499" xlink:href="#m7d78226501" y="295.42141"/>
     <use style="fill:#64b5cd;stroke:#64b5cd;" x="716.838219" xlink:href="#m7d78226501" y="194.427915"/>
     <use style="fill:#64b5cd;stroke:#64b5cd;" x="262.192093" xlink:href="#m7d78226501" y="505.424127"/>
     <use style="fill:#64b5cd;stroke:#64b5cd;" x="806.29829" xlink:href="#m7d78226501" y="458.195799"/>
     <use style="fill:#64b5cd;stroke:#64b5cd;" x="694.83658" xlink:href="#m7d78226501" y="275.350698"/>
     <use style="fill:#64b5cd;stroke:#64b5cd;" x="737.263941" xlink:href="#m7d78226501" y="115.742745"/>
     <use style="fill:#64b5cd;stroke:#64b5cd;" x="311.607435" xlink:href="#m7d78226501" y="372.18911"/>
     <use style="fill:#64b5cd;stroke:#64b5cd;" x="663.914944" xlink:href="#m7d78226501" y="411.607897"/>
     <use style="fill:#64b5cd;stroke:#64b5cd;" x="461.070589" xlink:href="#m7d78226501" y="395.401461"/>
     <use style="fill:#64b5cd;stroke:#64b5cd;" x="574.026468" xlink:href="#m7d78226501" y="286.968543"/>
     <use style="fill:#64b5cd;stroke:#64b5cd;" x="737.263941" xlink:href="#m7d78226501" y="266.937874"/>
     <use style="fill:#64b5cd;stroke:#64b5cd;" x="179.156382" xlink:href="#m7d78226501" y="522.510883"/>
     <use style="fill:#64b5cd;stroke:#64b5cd;" x="761.125245" xlink:href="#m7d78226501" y="239.007821"/>
     <use style="fill:#64b5cd;stroke:#64b5cd;" x="651.951605" xlink:href="#m7d78226501" y="374.5245"/>
     <use style="fill:#64b5cd;stroke:#64b5cd;" x="756.564409" xlink:href="#m7d78226501" y="375.52838"/>
     <use style="fill:#64b5cd;stroke:#64b5cd;" x="659.346642" xlink:href="#m7d78226501" y="304.319486"/>
     <use style="fill:#64b5cd;stroke:#64b5cd;" x="866.303841" xlink:href="#m7d78226501" y="223.438134"/>
     <use style="fill:#64b5cd;stroke:#64b5cd;" x="815.167286" xlink:href="#m7d78226501" y="251.453855"/>
     <use style="fill:#64b5cd;stroke:#64b5cd;" x="190.085237" xlink:href="#m7d78226501" y="566.011533"/>
     <use style="fill:#64b5cd;stroke:#64b5cd;" x="277.361811" xlink:href="#m7d78226501" y="442.627545"/>
     <use style="fill:#64b5cd;stroke:#64b5cd;" x="340.556134" xlink:href="#m7d78226501" y="476.189612"/>
     <use style="fill:#64b5cd;stroke:#64b5cd;" x="708.274907" xlink:href="#m7d78226501" y="321.86158"/>
     <use style="fill:#64b5cd;stroke:#64b5cd;" x="383.103346" xlink:href="#m7d78226501" y="381.886467"/>
     <use style="fill:#64b5cd;stroke:#64b5cd;" x="157.868508" xlink:href="#m7d78226501" y="535.308781"/>
     <use style="fill:#64b5cd;stroke:#64b5cd;" x="808.455613" xlink:href="#m7d78226501" y="204.307637"/>
     <use style="fill:#64b5cd;stroke:#64b5cd;" x="156.02689" xlink:href="#m7d78226501" y="546.349199"/>
     <use style="fill:#64b5cd;stroke:#64b5cd;" x="144" xlink:href="#m7d78226501" y="500.602125"/>
     <use style="fill:#64b5cd;stroke:#64b5cd;" x="849.350962" xlink:href="#m7d78226501" y="373.031387"/>
     <use style="fill:#64b5cd;stroke:#64b5cd;" x="849.350962" xlink:href="#m7d78226501" y="254.298064"/>
     <use style="fill:#64b5cd;stroke:#64b5cd;" x="863.761541" xlink:href="#m7d78226501" y="304.490834"/>
     <use style="fill:#64b5cd;stroke:#64b5cd;" x="688.538187" xlink:href="#m7d78226501" y="473.996043"/>
     <use style="fill:#64b5cd;stroke:#64b5cd;" x="144" xlink:href="#m7d78226501" y="553.524308"/>
     <use style="fill:#64b5cd;stroke:#64b5cd;" x="854.734634" xlink:href="#m7d78226501" y="218.65992"/>
     <use style="fill:#64b5cd;stroke:#64b5cd;" x="165.573234" xlink:href="#m7d78226501" y="485.732069"/>
     <use style="fill:#64b5cd;stroke:#64b5cd;" x="837.040149" xlink:href="#m7d78226501" y="439.426094"/>
     <use style="fill:#64b5cd;stroke:#64b5cd;" x="292.423851" xlink:href="#m7d78226501" y="535.465931"/>
     <use style="fill:#64b5cd;stroke:#64b5cd;" x="460.407435" xlink:href="#m7d78226501" y="450.760923"/>
     <use style="fill:#64b5cd;stroke:#64b5cd;" x="474.070483" xlink:href="#m7d78226501" y="395.940002"/>
     <use style="fill:#64b5cd;stroke:#64b5cd;" x="770.367696" xlink:href="#m7d78226501" y="313.541481"/>
     <use style="fill:#64b5cd;stroke:#64b5cd;" x="739.75316" xlink:href="#m7d78226501" y="262.966076"/>
     <use style="fill:#64b5cd;stroke:#64b5cd;" x="920.636431" xlink:href="#m7d78226501" y="218.61988"/>
     <use style="fill:#64b5cd;stroke:#64b5cd;" x="444.220674" xlink:href="#m7d78226501" y="397.061421"/>
     <use style="fill:#64b5cd;stroke:#64b5cd;" x="144" xlink:href="#m7d78226501" y="528.323513"/>
     <use style="fill:#64b5cd;stroke:#64b5cd;" x="875.614029" xlink:href="#m7d78226501" y="330.676798"/>
     <use style="fill:#64b5cd;stroke:#64b5cd;" x="794.948893" xlink:href="#m7d78226501" y="181.167982"/>
     <use style="fill:#64b5cd;stroke:#64b5cd;" x="167.371004" xlink:href="#m7d78226501" y="481.416446"/>
     <use style="fill:#64b5cd;stroke:#64b5cd;" x="789.379057" xlink:href="#m7d78226501" y="399.603862"/>
     <use style="fill:#64b5cd;stroke:#64b5cd;" x="367.649125" xlink:href="#m7d78226501" y="496.153548"/>
     <use style="fill:#64b5cd;stroke:#64b5cd;" x="156.850482" xlink:href="#m7d78226501" y="542.42561"/>
     <use style="fill:#64b5cd;stroke:#64b5cd;" x="165.573234" xlink:href="#m7d78226501" y="535.104709"/>
     <use style="fill:#64b5cd;stroke:#64b5cd;" x="692.128878" xlink:href="#m7d78226501" y="317.935385"/>
     <use style="fill:#64b5cd;stroke:#64b5cd;" x="634.300777" xlink:href="#m7d78226501" y="382.81752"/>
     <use style="fill:#64b5cd;stroke:#64b5cd;" x="736.940988" xlink:href="#m7d78226501" y="348.19704"/>
     <use style="fill:#64b5cd;stroke:#64b5cd;" x="746.45254" xlink:href="#m7d78226501" y="295.923713"/>
     <use style="fill:#64b5cd;stroke:#64b5cd;" x="1036.8" xlink:href="#m7d78226501" y="384.859594"/>
     <use style="fill:#64b5cd;stroke:#64b5cd;" x="575.464684" xlink:href="#m7d78226501" y="412.157217"/>
     <use style="fill:#64b5cd;stroke:#64b5cd;" x="868.860669" xlink:href="#m7d78226501" y="166.351438"/>
     <use style="fill:#64b5cd;stroke:#64b5cd;" x="811.742963" xlink:href="#m7d78226501" y="312.873709"/>
     <use style="fill:#64b5cd;stroke:#64b5cd;" x="832.105752" xlink:href="#m7d78226501" y="366.084744"/>
    </g>
   </g>
   <g id="line2d_17">
    <defs>
     <path d="M -5 0 
L 5 0 
M 0 5 
L 0 -5 
" id="md781df7ef5" style="stroke:#8172b3;"/>
    </defs>
    <g clip-path="url(#pd1739166e7)">
     <use style="fill:#8172b3;stroke:#8172b3;" x="297.82654" xlink:href="#md781df7ef5" y="438.618847"/>
     <use style="fill:#8172b3;stroke:#8172b3;" x="213.342539" xlink:href="#md781df7ef5" y="506.779884"/>
     <use style="fill:#8172b3;stroke:#8172b3;" x="734.322136" xlink:href="#md781df7ef5" y="441.048164"/>
     <use style="fill:#8172b3;stroke:#8172b3;" x="520.812491" xlink:href="#md781df7ef5" y="423.739329"/>
     <use style="fill:#8172b3;stroke:#8172b3;" x="248.78428" xlink:href="#md781df7ef5" y="455.238573"/>
     <use style="fill:#8172b3;stroke:#8172b3;" x="791.197026" xlink:href="#md781df7ef5" y="325.107716"/>
     <use style="fill:#8172b3;stroke:#8172b3;" x="144" xlink:href="#md781df7ef5" y="550.093223"/>
     <use style="fill:#8172b3;stroke:#8172b3;" x="854.118959" xlink:href="#md781df7ef5" y="292.406168"/>
     <use style="fill:#8172b3;stroke:#8172b3;" x="650.571499" xlink:href="#md781df7ef5" y="397.825155"/>
     <use style="fill:#8172b3;stroke:#8172b3;" x="597.733829" xlink:href="#md781df7ef5" y="284.275294"/>
     <use style="fill:#8172b3;stroke:#8172b3;" x="227.895911" xlink:href="#md781df7ef5" y="516.884875"/>
     <use style="fill:#8172b3;stroke:#8172b3;" x="874.951935" xlink:href="#md781df7ef5" y="169.040168"/>
     <use style="fill:#8172b3;stroke:#8172b3;" x="654.566543" xlink:href="#md781df7ef5" y="320.217318"/>
     <use style="fill:#8172b3;stroke:#8172b3;" x="254.263197" xlink:href="#md781df7ef5" y="520.378577"/>
     <use style="fill:#8172b3;stroke:#8172b3;" x="722.973978" xlink:href="#md781df7ef5" y="205.179005"/>
     <use style="fill:#8172b3;stroke:#8172b3;" x="793.219517" xlink:href="#md781df7ef5" y="345.029442"/>
     <use style="fill:#8172b3;stroke:#8172b3;" x="466.735584" xlink:href="#md781df7ef5" y="433.9597"/>
     <use style="fill:#8172b3;stroke:#8172b3;" x="250.068401" xlink:href="#md781df7ef5" y="537.039798"/>
     <use style="fill:#8172b3;stroke:#8172b3;" x="745.33267" xlink:href="#md781df7ef5" y="425.54172"/>
     <use style="fill:#8172b3;stroke:#8172b3;" x="727.50462" xlink:href="#md781df7ef5" y="193.103474"/>
     <use style="fill:#8172b3;stroke:#8172b3;" x="581.348293" xlink:href="#md781df7ef5" y="442.981191"/>
     <use style="fill:#8172b3;stroke:#8172b3;" x="762.432714" xlink:href="#md781df7ef5" y="397.360305"/>
     <use style="fill:#8172b3;stroke:#8172b3;" x="841.08513" xlink:href="#md781df7ef5" y="256.772413"/>
     <use style="fill:#8172b3;stroke:#8172b3;" x="618.857704" xlink:href="#md781df7ef5" y="284.088619"/>
     <use style="fill:#8172b3;stroke:#8172b3;" x="673.524839" xlink:href="#md781df7ef5" y="382.288225"/>
     <use style="fill:#8172b3;stroke:#8172b3;" x="782.208178" xlink:href="#md781df7ef5" y="187.102418"/>
     <use style="fill:#8172b3;stroke:#8172b3;" x="650.571499" xlink:href="#md781df7ef5" y="368.064201"/>
     <use style="fill:#8172b3;stroke:#8172b3;" x="720.005353" xlink:href="#md781df7ef5" y="394.322709"/>
     <use style="fill:#8172b3;stroke:#8172b3;" x="702.528547" xlink:href="#md781df7ef5" y="326.4114"/>
     <use style="fill:#8172b3;stroke:#8172b3;" x="235.920737" xlink:href="#md781df7ef5" y="426.576811"/>
     <use style="fill:#8172b3;stroke:#8172b3;" x="308.741061" xlink:href="#md781df7ef5" y="489.550861"/>
     <use style="fill:#8172b3;stroke:#8172b3;" x="819.961338" xlink:href="#md781df7ef5" y="148.639792"/>
     <use style="fill:#8172b3;stroke:#8172b3;" x="789.142432" xlink:href="#md781df7ef5" y="190.640151"/>
     <use style="fill:#8172b3;stroke:#8172b3;" x="587.792246" xlink:href="#md781df7ef5" y="233.809338"/>
     <use style="fill:#8172b3;stroke:#8172b3;" x="149.567286" xlink:href="#md781df7ef5" y="450.799013"/>
     <use style="fill:#8172b3;stroke:#8172b3;" x="634.791078" xlink:href="#md781df7ef5" y="406.378528"/>
     <use style="fill:#8172b3;stroke:#8172b3;" x="770.092775" xlink:href="#md781df7ef5" y="284.598575"/>
     <use style="fill:#8172b3;stroke:#8172b3;" x="822.576276" xlink:href="#md781df7ef5" y="407.998683"/>
     <use style="fill:#8172b3;stroke:#8172b3;" x="636.419529" xlink:href="#md781df7ef5" y="264.473952"/>
     <use style="fill:#8172b3;stroke:#8172b3;" x="616.775132" xlink:href="#md781df7ef5" y="341.702167"/>
     <use style="fill:#8172b3;stroke:#8172b3;" x="773.412639" xlink:href="#md781df7ef5" y="164.014483"/>
     <use style="fill:#8172b3;stroke:#8172b3;" x="775.05379" xlink:href="#md781df7ef5" y="306.56518"/>
     <use style="fill:#8172b3;stroke:#8172b3;" x="689.371361" xlink:href="#md781df7ef5" y="393.51169"/>
     <use style="fill:#8172b3;stroke:#8172b3;" x="410.317857" xlink:href="#md781df7ef5" y="466.202023"/>
     <use style="fill:#8172b3;stroke:#8172b3;" x="531.466641" xlink:href="#md781df7ef5" y="460.201607"/>
     <use style="fill:#8172b3;stroke:#8172b3;" x="436.068401" xlink:href="#md781df7ef5" y="449.253162"/>
     <use style="fill:#8172b3;stroke:#8172b3;" x="176.359851" xlink:href="#md781df7ef5" y="510.904835"/>
     <use style="fill:#8172b3;stroke:#8172b3;" x="144" xlink:href="#md781df7ef5" y="513.82714"/>
     <use style="fill:#8172b3;stroke:#8172b3;" x="163.34152" xlink:href="#md781df7ef5" y="463.245092"/>
     <use style="fill:#8172b3;stroke:#8172b3;" x="144" xlink:href="#md781df7ef5" y="558.610568"/>
    </g>
   </g>
   <g id="line2d_18">
    <path clip-path="url(#pd1739166e7)" d="M 144 605.290909 
L 1036.8 111.109091 
" style="fill:none;stroke:#c44e52;stroke-linecap:round;stroke-width:1.5;"/>
   </g>
   <g id="patch_3">
    <path d="M 144 630 
L 144 86.4 
" style="fill:none;stroke:#cccccc;stroke-linecap:square;stroke-linejoin:miter;stroke-width:1.25;"/>
   </g>
   <g id="patch_4">
    <path d="M 1036.8 630 
L 1036.8 86.4 
" style="fill:none;stroke:#cccccc;stroke-linecap:square;stroke-linejoin:miter;stroke-width:1.25;"/>
   </g>
   <g id="patch_5">
    <path d="M 144 630 
L 1036.8 630 
" style="fill:none;stroke:#cccccc;stroke-linecap:square;stroke-linejoin:miter;stroke-width:1.25;"/>
   </g>
   <g id="patch_6">
    <path d="M 144 86.4 
L 1036.8 86.4 
" style="fill:none;stroke:#cccccc;stroke-linecap:square;stroke-linejoin:miter;stroke-width:1.25;"/>
   </g>
  </g>
 </g>
 <defs>
  <clipPath id="pd1739166e7">
   <rect height="543.6" width="892.8" x="144" y="86.4"/>
  </clipPath>
 </defs>
</svg>
