<?xml version="1.0" encoding="utf-8" standalone="no"?>
<!DOCTYPE svg PUBLIC "-//W3C//DTD SVG 1.1//EN"
  "http://www.w3.org/Graphics/SVG/1.1/DTD/svg11.dtd">
<!-- Created with matplotlib (https://matplotlib.org/) -->
<svg height="720pt" version="1.1" viewBox="0 0 1152 720" width="1152pt" xmlns="http://www.w3.org/2000/svg" xmlns:xlink="http://www.w3.org/1999/xlink">
 <defs>
  <style type="text/css">
*{stroke-linecap:butt;stroke-linejoin:round;}
  </style>
 </defs>
 <g id="figure_1">
  <g id="patch_1">
   <path d="M 0 720 
L 1152 720 
L 1152 0 
L 0 0 
z
" style="fill:#ffffff;"/>
  </g>
  <g id="axes_1">
   <g id="patch_2">
    <path d="M 144 630 
L 1036.8 630 
L 1036.8 86.4 
L 144 86.4 
z
" style="fill:#ffffff;"/>
   </g>
   <g id="matplotlib.axis_1">
    <g id="xtick_1">
     <g id="line2d_1">
      <path clip-path="url(#p100b3e65a7)" d="M 227.068146 630 
L 227.068146 86.4 
" style="fill:none;stroke:#cccccc;stroke-linecap:round;"/>
     </g>
     <g id="text_1">
      <!-- 0.015 -->
      <defs>
       <path d="M 4.15625 35.296875 
Q 4.15625 48 6.765625 55.734375 
Q 9.375 63.484375 14.515625 67.671875 
Q 19.671875 71.875 27.484375 71.875 
Q 33.25 71.875 37.59375 69.546875 
Q 41.9375 67.234375 44.765625 62.859375 
Q 47.609375 58.5 49.21875 52.21875 
Q 50.828125 45.953125 50.828125 35.296875 
Q 50.828125 22.703125 48.234375 14.96875 
Q 45.65625 7.234375 40.5 3 
Q 35.359375 -1.21875 27.484375 -1.21875 
Q 17.140625 -1.21875 11.234375 6.203125 
Q 4.15625 15.140625 4.15625 35.296875 
z
M 13.1875 35.296875 
Q 13.1875 17.671875 17.3125 11.828125 
Q 21.4375 6 27.484375 6 
Q 33.546875 6 37.671875 11.859375 
Q 41.796875 17.71875 41.796875 35.296875 
Q 41.796875 52.984375 37.671875 58.78125 
Q 33.546875 64.59375 27.390625 64.59375 
Q 21.34375 64.59375 17.71875 59.46875 
Q 13.1875 52.9375 13.1875 35.296875 
z
" id="ArialMT-48"/>
       <path d="M 9.078125 0 
L 9.078125 10.015625 
L 19.09375 10.015625 
L 19.09375 0 
z
" id="ArialMT-46"/>
       <path d="M 37.25 0 
L 28.46875 0 
L 28.46875 56 
Q 25.296875 52.984375 20.140625 49.953125 
Q 14.984375 46.921875 10.890625 45.40625 
L 10.890625 53.90625 
Q 18.265625 57.375 23.78125 62.296875 
Q 29.296875 67.234375 31.59375 71.875 
L 37.25 71.875 
z
" id="ArialMT-49"/>
       <path d="M 4.15625 18.75 
L 13.375 19.53125 
Q 14.40625 12.796875 18.140625 9.390625 
Q 21.875 6 27.15625 6 
Q 33.5 6 37.890625 10.78125 
Q 42.28125 15.578125 42.28125 23.484375 
Q 42.28125 31 38.0625 35.34375 
Q 33.84375 39.703125 27 39.703125 
Q 22.75 39.703125 19.328125 37.765625 
Q 15.921875 35.84375 13.96875 32.765625 
L 5.71875 33.84375 
L 12.640625 70.609375 
L 48.25 70.609375 
L 48.25 62.203125 
L 19.671875 62.203125 
L 15.828125 42.96875 
Q 22.265625 47.46875 29.34375 47.46875 
Q 38.71875 47.46875 45.15625 40.96875 
Q 51.609375 34.46875 51.609375 24.265625 
Q 51.609375 14.546875 45.953125 7.46875 
Q 39.0625 -1.21875 27.15625 -1.21875 
Q 17.390625 -1.21875 11.203125 4.25 
Q 5.03125 9.71875 4.15625 18.75 
z
" id="ArialMT-53"/>
      </defs>
      <g style="fill:#262626;" transform="translate(199.544083 655.247187)scale(0.22 -0.22)">
       <use xlink:href="#ArialMT-48"/>
       <use x="55.615234" xlink:href="#ArialMT-46"/>
       <use x="83.398438" xlink:href="#ArialMT-48"/>
       <use x="139.013672" xlink:href="#ArialMT-49"/>
       <use x="194.628906" xlink:href="#ArialMT-53"/>
      </g>
     </g>
    </g>
    <g id="xtick_2">
     <g id="line2d_2">
      <path clip-path="url(#p100b3e65a7)" d="M 379.951783 630 
L 379.951783 86.4 
" style="fill:none;stroke:#cccccc;stroke-linecap:round;"/>
     </g>
     <g id="text_2">
      <!-- 0.020 -->
      <defs>
       <path d="M 50.34375 8.453125 
L 50.34375 0 
L 3.03125 0 
Q 2.9375 3.171875 4.046875 6.109375 
Q 5.859375 10.9375 9.828125 15.625 
Q 13.8125 20.3125 21.34375 26.46875 
Q 33.015625 36.03125 37.109375 41.625 
Q 41.21875 47.21875 41.21875 52.203125 
Q 41.21875 57.421875 37.46875 61 
Q 33.734375 64.59375 27.734375 64.59375 
Q 21.390625 64.59375 17.578125 60.78125 
Q 13.765625 56.984375 13.71875 50.25 
L 4.6875 51.171875 
Q 5.609375 61.28125 11.65625 66.578125 
Q 17.71875 71.875 27.9375 71.875 
Q 38.234375 71.875 44.234375 66.15625 
Q 50.25 60.453125 50.25 52 
Q 50.25 47.703125 48.484375 43.546875 
Q 46.734375 39.40625 42.65625 34.8125 
Q 38.578125 30.21875 29.109375 22.21875 
Q 21.1875 15.578125 18.9375 13.203125 
Q 16.703125 10.84375 15.234375 8.453125 
z
" id="ArialMT-50"/>
      </defs>
      <g style="fill:#262626;" transform="translate(352.42772 655.247187)scale(0.22 -0.22)">
       <use xlink:href="#ArialMT-48"/>
       <use x="55.615234" xlink:href="#ArialMT-46"/>
       <use x="83.398438" xlink:href="#ArialMT-48"/>
       <use x="139.013672" xlink:href="#ArialMT-50"/>
       <use x="194.628906" xlink:href="#ArialMT-48"/>
      </g>
     </g>
    </g>
    <g id="xtick_3">
     <g id="line2d_3">
      <path clip-path="url(#p100b3e65a7)" d="M 532.83542 630 
L 532.83542 86.4 
" style="fill:none;stroke:#cccccc;stroke-linecap:round;"/>
     </g>
     <g id="text_3">
      <!-- 0.025 -->
      <g style="fill:#262626;" transform="translate(505.311357 655.247187)scale(0.22 -0.22)">
       <use xlink:href="#ArialMT-48"/>
       <use x="55.615234" xlink:href="#ArialMT-46"/>
       <use x="83.398438" xlink:href="#ArialMT-48"/>
       <use x="139.013672" xlink:href="#ArialMT-50"/>
       <use x="194.628906" xlink:href="#ArialMT-53"/>
      </g>
     </g>
    </g>
    <g id="xtick_4">
     <g id="line2d_4">
      <path clip-path="url(#p100b3e65a7)" d="M 685.719057 630 
L 685.719057 86.4 
" style="fill:none;stroke:#cccccc;stroke-linecap:round;"/>
     </g>
     <g id="text_4">
      <!-- 0.030 -->
      <defs>
       <path d="M 4.203125 18.890625 
L 12.984375 20.0625 
Q 14.5 12.59375 18.140625 9.296875 
Q 21.78125 6 27 6 
Q 33.203125 6 37.46875 10.296875 
Q 41.75 14.59375 41.75 20.953125 
Q 41.75 27 37.796875 30.921875 
Q 33.84375 34.859375 27.734375 34.859375 
Q 25.25 34.859375 21.53125 33.890625 
L 22.515625 41.609375 
Q 23.390625 41.5 23.921875 41.5 
Q 29.546875 41.5 34.03125 44.421875 
Q 38.53125 47.359375 38.53125 53.46875 
Q 38.53125 58.296875 35.25 61.46875 
Q 31.984375 64.65625 26.8125 64.65625 
Q 21.6875 64.65625 18.265625 61.421875 
Q 14.84375 58.203125 13.875 51.765625 
L 5.078125 53.328125 
Q 6.6875 62.15625 12.390625 67.015625 
Q 18.109375 71.875 26.609375 71.875 
Q 32.46875 71.875 37.390625 69.359375 
Q 42.328125 66.84375 44.9375 62.5 
Q 47.5625 58.15625 47.5625 53.265625 
Q 47.5625 48.640625 45.0625 44.828125 
Q 42.578125 41.015625 37.703125 38.765625 
Q 44.046875 37.3125 47.5625 32.6875 
Q 51.078125 28.078125 51.078125 21.140625 
Q 51.078125 11.765625 44.234375 5.25 
Q 37.40625 -1.265625 26.953125 -1.265625 
Q 17.53125 -1.265625 11.296875 4.34375 
Q 5.078125 9.96875 4.203125 18.890625 
z
" id="ArialMT-51"/>
      </defs>
      <g style="fill:#262626;" transform="translate(658.194995 655.247187)scale(0.22 -0.22)">
       <use xlink:href="#ArialMT-48"/>
       <use x="55.615234" xlink:href="#ArialMT-46"/>
       <use x="83.398438" xlink:href="#ArialMT-48"/>
       <use x="139.013672" xlink:href="#ArialMT-51"/>
       <use x="194.628906" xlink:href="#ArialMT-48"/>
      </g>
     </g>
    </g>
    <g id="xtick_5">
     <g id="line2d_5">
      <path clip-path="url(#p100b3e65a7)" d="M 838.602694 630 
L 838.602694 86.4 
" style="fill:none;stroke:#cccccc;stroke-linecap:round;"/>
     </g>
     <g id="text_5">
      <!-- 0.035 -->
      <g style="fill:#262626;" transform="translate(811.078632 655.247187)scale(0.22 -0.22)">
       <use xlink:href="#ArialMT-48"/>
       <use x="55.615234" xlink:href="#ArialMT-46"/>
       <use x="83.398438" xlink:href="#ArialMT-48"/>
       <use x="139.013672" xlink:href="#ArialMT-51"/>
       <use x="194.628906" xlink:href="#ArialMT-53"/>
      </g>
     </g>
    </g>
    <g id="xtick_6">
     <g id="line2d_6">
      <path clip-path="url(#p100b3e65a7)" d="M 991.486331 630 
L 991.486331 86.4 
" style="fill:none;stroke:#cccccc;stroke-linecap:round;"/>
     </g>
     <g id="text_6">
      <!-- 0.040 -->
      <defs>
       <path d="M 32.328125 0 
L 32.328125 17.140625 
L 1.265625 17.140625 
L 1.265625 25.203125 
L 33.9375 71.578125 
L 41.109375 71.578125 
L 41.109375 25.203125 
L 50.78125 25.203125 
L 50.78125 17.140625 
L 41.109375 17.140625 
L 41.109375 0 
z
M 32.328125 25.203125 
L 32.328125 57.46875 
L 9.90625 25.203125 
z
" id="ArialMT-52"/>
      </defs>
      <g style="fill:#262626;" transform="translate(963.962269 655.247187)scale(0.22 -0.22)">
       <use xlink:href="#ArialMT-48"/>
       <use x="55.615234" xlink:href="#ArialMT-46"/>
       <use x="83.398438" xlink:href="#ArialMT-48"/>
       <use x="139.013672" xlink:href="#ArialMT-52"/>
       <use x="194.628906" xlink:href="#ArialMT-48"/>
      </g>
     </g>
    </g>
    <g id="text_7">
     <!-- Simulation Result -->
     <defs>
      <path d="M 4.5 23 
L 13.421875 23.78125 
Q 14.0625 18.40625 16.375 14.96875 
Q 18.703125 11.53125 23.578125 9.40625 
Q 28.46875 7.28125 34.578125 7.28125 
Q 39.984375 7.28125 44.140625 8.890625 
Q 48.296875 10.5 50.3125 13.296875 
Q 52.34375 16.109375 52.34375 19.4375 
Q 52.34375 22.796875 50.390625 25.3125 
Q 48.4375 27.828125 43.953125 29.546875 
Q 41.0625 30.671875 31.203125 33.03125 
Q 21.34375 35.40625 17.390625 37.5 
Q 12.25 40.1875 9.734375 44.15625 
Q 7.234375 48.140625 7.234375 53.078125 
Q 7.234375 58.5 10.296875 63.203125 
Q 13.375 67.921875 19.28125 70.359375 
Q 25.203125 72.796875 32.421875 72.796875 
Q 40.375 72.796875 46.453125 70.234375 
Q 52.546875 67.671875 55.8125 62.6875 
Q 59.078125 57.71875 59.328125 51.421875 
L 50.25 50.734375 
Q 49.515625 57.515625 45.28125 60.984375 
Q 41.0625 64.453125 32.8125 64.453125 
Q 24.21875 64.453125 20.28125 61.296875 
Q 16.359375 58.15625 16.359375 53.71875 
Q 16.359375 49.859375 19.140625 47.359375 
Q 21.875 44.875 33.421875 42.265625 
Q 44.96875 39.65625 49.265625 37.703125 
Q 55.515625 34.8125 58.484375 30.390625 
Q 61.46875 25.984375 61.46875 20.21875 
Q 61.46875 14.5 58.203125 9.4375 
Q 54.9375 4.390625 48.796875 1.578125 
Q 42.671875 -1.21875 35.015625 -1.21875 
Q 25.296875 -1.21875 18.71875 1.609375 
Q 12.15625 4.4375 8.421875 10.125 
Q 4.6875 15.828125 4.5 23 
z
" id="ArialMT-83"/>
      <path d="M 6.640625 61.46875 
L 6.640625 71.578125 
L 15.4375 71.578125 
L 15.4375 61.46875 
z
M 6.640625 0 
L 6.640625 51.859375 
L 15.4375 51.859375 
L 15.4375 0 
z
" id="ArialMT-105"/>
      <path d="M 6.59375 0 
L 6.59375 51.859375 
L 14.453125 51.859375 
L 14.453125 44.578125 
Q 16.890625 48.390625 20.9375 50.703125 
Q 25 53.03125 30.171875 53.03125 
Q 35.9375 53.03125 39.625 50.640625 
Q 43.3125 48.25 44.828125 43.953125 
Q 50.984375 53.03125 60.84375 53.03125 
Q 68.5625 53.03125 72.703125 48.75 
Q 76.859375 44.484375 76.859375 35.59375 
L 76.859375 0 
L 68.109375 0 
L 68.109375 32.671875 
Q 68.109375 37.9375 67.25 40.25 
Q 66.40625 42.578125 64.15625 43.984375 
Q 61.921875 45.40625 58.890625 45.40625 
Q 53.421875 45.40625 49.796875 41.765625 
Q 46.1875 38.140625 46.1875 30.125 
L 46.1875 0 
L 37.40625 0 
L 37.40625 33.6875 
Q 37.40625 39.546875 35.25 42.46875 
Q 33.109375 45.40625 28.21875 45.40625 
Q 24.515625 45.40625 21.359375 43.453125 
Q 18.21875 41.5 16.796875 37.734375 
Q 15.375 33.984375 15.375 26.90625 
L 15.375 0 
z
" id="ArialMT-109"/>
      <path d="M 40.578125 0 
L 40.578125 7.625 
Q 34.515625 -1.171875 24.125 -1.171875 
Q 19.53125 -1.171875 15.546875 0.578125 
Q 11.578125 2.34375 9.640625 5 
Q 7.71875 7.671875 6.9375 11.53125 
Q 6.390625 14.109375 6.390625 19.734375 
L 6.390625 51.859375 
L 15.1875 51.859375 
L 15.1875 23.09375 
Q 15.1875 16.21875 15.71875 13.8125 
Q 16.546875 10.359375 19.234375 8.375 
Q 21.921875 6.390625 25.875 6.390625 
Q 29.828125 6.390625 33.296875 8.421875 
Q 36.765625 10.453125 38.203125 13.9375 
Q 39.65625 17.4375 39.65625 24.078125 
L 39.65625 51.859375 
L 48.4375 51.859375 
L 48.4375 0 
z
" id="ArialMT-117"/>
      <path d="M 6.390625 0 
L 6.390625 71.578125 
L 15.1875 71.578125 
L 15.1875 0 
z
" id="ArialMT-108"/>
      <path d="M 40.4375 6.390625 
Q 35.546875 2.25 31.03125 0.53125 
Q 26.515625 -1.171875 21.34375 -1.171875 
Q 12.796875 -1.171875 8.203125 3 
Q 3.609375 7.171875 3.609375 13.671875 
Q 3.609375 17.484375 5.34375 20.625 
Q 7.078125 23.78125 9.890625 25.6875 
Q 12.703125 27.59375 16.21875 28.5625 
Q 18.796875 29.25 24.03125 29.890625 
Q 34.671875 31.15625 39.703125 32.90625 
Q 39.75 34.71875 39.75 35.203125 
Q 39.75 40.578125 37.25 42.78125 
Q 33.890625 45.75 27.25 45.75 
Q 21.046875 45.75 18.09375 43.578125 
Q 15.140625 41.40625 13.71875 35.890625 
L 5.125 37.0625 
Q 6.296875 42.578125 8.984375 45.96875 
Q 11.671875 49.359375 16.75 51.1875 
Q 21.828125 53.03125 28.515625 53.03125 
Q 35.15625 53.03125 39.296875 51.46875 
Q 43.453125 49.90625 45.40625 47.53125 
Q 47.359375 45.171875 48.140625 41.546875 
Q 48.578125 39.3125 48.578125 33.453125 
L 48.578125 21.734375 
Q 48.578125 9.46875 49.140625 6.21875 
Q 49.703125 2.984375 51.375 0 
L 42.1875 0 
Q 40.828125 2.734375 40.4375 6.390625 
z
M 39.703125 26.03125 
Q 34.90625 24.078125 25.34375 22.703125 
Q 19.921875 21.921875 17.671875 20.9375 
Q 15.4375 19.96875 14.203125 18.09375 
Q 12.984375 16.21875 12.984375 13.921875 
Q 12.984375 10.40625 15.640625 8.0625 
Q 18.3125 5.71875 23.4375 5.71875 
Q 28.515625 5.71875 32.46875 7.9375 
Q 36.421875 10.15625 38.28125 14.015625 
Q 39.703125 17 39.703125 22.796875 
z
" id="ArialMT-97"/>
      <path d="M 25.78125 7.859375 
L 27.046875 0.09375 
Q 23.34375 -0.6875 20.40625 -0.6875 
Q 15.625 -0.6875 12.984375 0.828125 
Q 10.359375 2.34375 9.28125 4.8125 
Q 8.203125 7.28125 8.203125 15.1875 
L 8.203125 45.015625 
L 1.765625 45.015625 
L 1.765625 51.859375 
L 8.203125 51.859375 
L 8.203125 64.703125 
L 16.9375 69.96875 
L 16.9375 51.859375 
L 25.78125 51.859375 
L 25.78125 45.015625 
L 16.9375 45.015625 
L 16.9375 14.703125 
Q 16.9375 10.9375 17.40625 9.859375 
Q 17.875 8.796875 18.921875 8.15625 
Q 19.96875 7.515625 21.921875 7.515625 
Q 23.390625 7.515625 25.78125 7.859375 
z
" id="ArialMT-116"/>
      <path d="M 3.328125 25.921875 
Q 3.328125 40.328125 11.328125 47.265625 
Q 18.015625 53.03125 27.640625 53.03125 
Q 38.328125 53.03125 45.109375 46.015625 
Q 51.90625 39.015625 51.90625 26.65625 
Q 51.90625 16.65625 48.90625 10.90625 
Q 45.90625 5.171875 40.15625 2 
Q 34.421875 -1.171875 27.640625 -1.171875 
Q 16.75 -1.171875 10.03125 5.8125 
Q 3.328125 12.796875 3.328125 25.921875 
z
M 12.359375 25.921875 
Q 12.359375 15.96875 16.703125 11.015625 
Q 21.046875 6.0625 27.640625 6.0625 
Q 34.1875 6.0625 38.53125 11.03125 
Q 42.875 16.015625 42.875 26.21875 
Q 42.875 35.84375 38.5 40.796875 
Q 34.125 45.75 27.640625 45.75 
Q 21.046875 45.75 16.703125 40.8125 
Q 12.359375 35.890625 12.359375 25.921875 
z
" id="ArialMT-111"/>
      <path d="M 6.59375 0 
L 6.59375 51.859375 
L 14.5 51.859375 
L 14.5 44.484375 
Q 20.21875 53.03125 31 53.03125 
Q 35.6875 53.03125 39.625 51.34375 
Q 43.5625 49.65625 45.515625 46.921875 
Q 47.46875 44.1875 48.25 40.4375 
Q 48.734375 37.984375 48.734375 31.890625 
L 48.734375 0 
L 39.9375 0 
L 39.9375 31.546875 
Q 39.9375 36.921875 38.90625 39.578125 
Q 37.890625 42.234375 35.28125 43.8125 
Q 32.671875 45.40625 29.15625 45.40625 
Q 23.53125 45.40625 19.453125 41.84375 
Q 15.375 38.28125 15.375 28.328125 
L 15.375 0 
z
" id="ArialMT-110"/>
      <path id="ArialMT-32"/>
      <path d="M 7.859375 0 
L 7.859375 71.578125 
L 39.59375 71.578125 
Q 49.171875 71.578125 54.140625 69.640625 
Q 59.125 67.71875 62.109375 62.828125 
Q 65.09375 57.953125 65.09375 52.046875 
Q 65.09375 44.4375 60.15625 39.203125 
Q 55.21875 33.984375 44.921875 32.5625 
Q 48.6875 30.765625 50.640625 29 
Q 54.78125 25.203125 58.5 19.484375 
L 70.953125 0 
L 59.03125 0 
L 49.5625 14.890625 
Q 45.40625 21.34375 42.71875 24.75 
Q 40.046875 28.171875 37.921875 29.53125 
Q 35.796875 30.90625 33.59375 31.453125 
Q 31.984375 31.78125 28.328125 31.78125 
L 17.328125 31.78125 
L 17.328125 0 
z
M 17.328125 39.984375 
L 37.703125 39.984375 
Q 44.1875 39.984375 47.84375 41.328125 
Q 51.515625 42.671875 53.421875 45.625 
Q 55.328125 48.578125 55.328125 52.046875 
Q 55.328125 57.125 51.640625 60.390625 
Q 47.953125 63.671875 39.984375 63.671875 
L 17.328125 63.671875 
z
" id="ArialMT-82"/>
      <path d="M 42.09375 16.703125 
L 51.171875 15.578125 
Q 49.03125 7.625 43.21875 3.21875 
Q 37.40625 -1.171875 28.375 -1.171875 
Q 17 -1.171875 10.328125 5.828125 
Q 3.65625 12.84375 3.65625 25.484375 
Q 3.65625 38.578125 10.390625 45.796875 
Q 17.140625 53.03125 27.875 53.03125 
Q 38.28125 53.03125 44.875 45.953125 
Q 51.46875 38.875 51.46875 26.03125 
Q 51.46875 25.25 51.421875 23.6875 
L 12.75 23.6875 
Q 13.234375 15.140625 17.578125 10.59375 
Q 21.921875 6.0625 28.421875 6.0625 
Q 33.25 6.0625 36.671875 8.59375 
Q 40.09375 11.140625 42.09375 16.703125 
z
M 13.234375 30.90625 
L 42.1875 30.90625 
Q 41.609375 37.453125 38.875 40.71875 
Q 34.671875 45.796875 27.984375 45.796875 
Q 21.921875 45.796875 17.796875 41.75 
Q 13.671875 37.703125 13.234375 30.90625 
z
" id="ArialMT-101"/>
      <path d="M 3.078125 15.484375 
L 11.765625 16.84375 
Q 12.5 11.625 15.84375 8.84375 
Q 19.1875 6.0625 25.203125 6.0625 
Q 31.25 6.0625 34.171875 8.515625 
Q 37.109375 10.984375 37.109375 14.3125 
Q 37.109375 17.28125 34.515625 19 
Q 32.71875 20.171875 25.53125 21.96875 
Q 15.875 24.421875 12.140625 26.203125 
Q 8.40625 27.984375 6.46875 31.125 
Q 4.546875 34.28125 4.546875 38.09375 
Q 4.546875 41.546875 6.125 44.5 
Q 7.71875 47.46875 10.453125 49.421875 
Q 12.5 50.921875 16.03125 51.96875 
Q 19.578125 53.03125 23.640625 53.03125 
Q 29.734375 53.03125 34.34375 51.265625 
Q 38.96875 49.515625 41.15625 46.5 
Q 43.359375 43.5 44.1875 38.484375 
L 35.59375 37.3125 
Q 35.015625 41.3125 32.203125 43.546875 
Q 29.390625 45.796875 24.265625 45.796875 
Q 18.21875 45.796875 15.625 43.796875 
Q 13.03125 41.796875 13.03125 39.109375 
Q 13.03125 37.40625 14.109375 36.03125 
Q 15.1875 34.625 17.484375 33.6875 
Q 18.796875 33.203125 25.25 31.453125 
Q 34.578125 28.953125 38.25 27.359375 
Q 41.9375 25.78125 44.03125 22.75 
Q 46.140625 19.734375 46.140625 15.234375 
Q 46.140625 10.84375 43.578125 6.953125 
Q 41.015625 3.078125 36.171875 0.953125 
Q 31.34375 -1.171875 25.25 -1.171875 
Q 15.140625 -1.171875 9.84375 3.03125 
Q 4.546875 7.234375 3.078125 15.484375 
z
" id="ArialMT-115"/>
     </defs>
     <g style="fill:#262626;" transform="translate(497.02875 680.798437)scale(0.24 -0.24)">
      <use xlink:href="#ArialMT-83"/>
      <use x="66.699219" xlink:href="#ArialMT-105"/>
      <use x="88.916016" xlink:href="#ArialMT-109"/>
      <use x="172.216797" xlink:href="#ArialMT-117"/>
      <use x="227.832031" xlink:href="#ArialMT-108"/>
      <use x="250.048828" xlink:href="#ArialMT-97"/>
      <use x="305.664062" xlink:href="#ArialMT-116"/>
      <use x="333.447266" xlink:href="#ArialMT-105"/>
      <use x="355.664062" xlink:href="#ArialMT-111"/>
      <use x="411.279297" xlink:href="#ArialMT-110"/>
      <use x="466.894531" xlink:href="#ArialMT-32"/>
      <use x="494.677734" xlink:href="#ArialMT-82"/>
      <use x="566.894531" xlink:href="#ArialMT-101"/>
      <use x="622.509766" xlink:href="#ArialMT-115"/>
      <use x="672.509766" xlink:href="#ArialMT-117"/>
      <use x="728.125" xlink:href="#ArialMT-108"/>
      <use x="750.341797" xlink:href="#ArialMT-116"/>
     </g>
    </g>
   </g>
   <g id="matplotlib.axis_2">
    <g id="ytick_1">
     <g id="line2d_7">
      <path clip-path="url(#p100b3e65a7)" d="M 144 559.311107 
L 1036.8 559.311107 
" style="fill:none;stroke:#cccccc;stroke-linecap:round;"/>
     </g>
     <g id="text_8">
      <!-- 0.015 -->
      <g style="fill:#262626;" transform="translate(79.451875 567.184701)scale(0.22 -0.22)">
       <use xlink:href="#ArialMT-48"/>
       <use x="55.615234" xlink:href="#ArialMT-46"/>
       <use x="83.398438" xlink:href="#ArialMT-48"/>
       <use x="139.013672" xlink:href="#ArialMT-49"/>
       <use x="194.628906" xlink:href="#ArialMT-53"/>
      </g>
     </g>
    </g>
    <g id="ytick_2">
     <g id="line2d_8">
      <path clip-path="url(#p100b3e65a7)" d="M 144 474.6871 
L 1036.8 474.6871 
" style="fill:none;stroke:#cccccc;stroke-linecap:round;"/>
     </g>
     <g id="text_9">
      <!-- 0.020 -->
      <g style="fill:#262626;" transform="translate(79.451875 482.560693)scale(0.22 -0.22)">
       <use xlink:href="#ArialMT-48"/>
       <use x="55.615234" xlink:href="#ArialMT-46"/>
       <use x="83.398438" xlink:href="#ArialMT-48"/>
       <use x="139.013672" xlink:href="#ArialMT-50"/>
       <use x="194.628906" xlink:href="#ArialMT-48"/>
      </g>
     </g>
    </g>
    <g id="ytick_3">
     <g id="line2d_9">
      <path clip-path="url(#p100b3e65a7)" d="M 144 390.063092 
L 1036.8 390.063092 
" style="fill:none;stroke:#cccccc;stroke-linecap:round;"/>
     </g>
     <g id="text_10">
      <!-- 0.025 -->
      <g style="fill:#262626;" transform="translate(79.451875 397.936686)scale(0.22 -0.22)">
       <use xlink:href="#ArialMT-48"/>
       <use x="55.615234" xlink:href="#ArialMT-46"/>
       <use x="83.398438" xlink:href="#ArialMT-48"/>
       <use x="139.013672" xlink:href="#ArialMT-50"/>
       <use x="194.628906" xlink:href="#ArialMT-53"/>
      </g>
     </g>
    </g>
    <g id="ytick_4">
     <g id="line2d_10">
      <path clip-path="url(#p100b3e65a7)" d="M 144 305.439085 
L 1036.8 305.439085 
" style="fill:none;stroke:#cccccc;stroke-linecap:round;"/>
     </g>
     <g id="text_11">
      <!-- 0.030 -->
      <g style="fill:#262626;" transform="translate(79.451875 313.312679)scale(0.22 -0.22)">
       <use xlink:href="#ArialMT-48"/>
       <use x="55.615234" xlink:href="#ArialMT-46"/>
       <use x="83.398438" xlink:href="#ArialMT-48"/>
       <use x="139.013672" xlink:href="#ArialMT-51"/>
       <use x="194.628906" xlink:href="#ArialMT-48"/>
      </g>
     </g>
    </g>
    <g id="ytick_5">
     <g id="line2d_11">
      <path clip-path="url(#p100b3e65a7)" d="M 144 220.815078 
L 1036.8 220.815078 
" style="fill:none;stroke:#cccccc;stroke-linecap:round;"/>
     </g>
     <g id="text_12">
      <!-- 0.035 -->
      <g style="fill:#262626;" transform="translate(79.451875 228.688671)scale(0.22 -0.22)">
       <use xlink:href="#ArialMT-48"/>
       <use x="55.615234" xlink:href="#ArialMT-46"/>
       <use x="83.398438" xlink:href="#ArialMT-48"/>
       <use x="139.013672" xlink:href="#ArialMT-51"/>
       <use x="194.628906" xlink:href="#ArialMT-53"/>
      </g>
     </g>
    </g>
    <g id="ytick_6">
     <g id="line2d_12">
      <path clip-path="url(#p100b3e65a7)" d="M 144 136.19107 
L 1036.8 136.19107 
" style="fill:none;stroke:#cccccc;stroke-linecap:round;"/>
     </g>
     <g id="text_13">
      <!-- 0.040 -->
      <g style="fill:#262626;" transform="translate(79.451875 144.064664)scale(0.22 -0.22)">
       <use xlink:href="#ArialMT-48"/>
       <use x="55.615234" xlink:href="#ArialMT-46"/>
       <use x="83.398438" xlink:href="#ArialMT-48"/>
       <use x="139.013672" xlink:href="#ArialMT-52"/>
       <use x="194.628906" xlink:href="#ArialMT-48"/>
      </g>
     </g>
    </g>
    <g id="text_14">
     <!-- Predicted -->
     <defs>
      <path d="M 7.71875 0 
L 7.71875 71.578125 
L 34.71875 71.578125 
Q 41.84375 71.578125 45.609375 70.90625 
Q 50.875 70.015625 54.4375 67.546875 
Q 58.015625 65.09375 60.1875 60.640625 
Q 62.359375 56.203125 62.359375 50.875 
Q 62.359375 41.75 56.546875 35.421875 
Q 50.734375 29.109375 35.546875 29.109375 
L 17.1875 29.109375 
L 17.1875 0 
z
M 17.1875 37.546875 
L 35.6875 37.546875 
Q 44.875 37.546875 48.734375 40.96875 
Q 52.59375 44.390625 52.59375 50.59375 
Q 52.59375 55.078125 50.3125 58.265625 
Q 48.046875 61.46875 44.34375 62.5 
Q 41.9375 63.140625 35.5 63.140625 
L 17.1875 63.140625 
z
" id="ArialMT-80"/>
      <path d="M 6.5 0 
L 6.5 51.859375 
L 14.40625 51.859375 
L 14.40625 44 
Q 17.4375 49.515625 20 51.265625 
Q 22.5625 53.03125 25.640625 53.03125 
Q 30.078125 53.03125 34.671875 50.203125 
L 31.640625 42.046875 
Q 28.421875 43.953125 25.203125 43.953125 
Q 22.3125 43.953125 20.015625 42.21875 
Q 17.71875 40.484375 16.75 37.40625 
Q 15.28125 32.71875 15.28125 27.15625 
L 15.28125 0 
z
" id="ArialMT-114"/>
      <path d="M 40.234375 0 
L 40.234375 6.546875 
Q 35.296875 -1.171875 25.734375 -1.171875 
Q 19.53125 -1.171875 14.328125 2.25 
Q 9.125 5.671875 6.265625 11.796875 
Q 3.421875 17.921875 3.421875 25.875 
Q 3.421875 33.640625 6 39.96875 
Q 8.59375 46.296875 13.765625 49.65625 
Q 18.953125 53.03125 25.34375 53.03125 
Q 30.03125 53.03125 33.6875 51.046875 
Q 37.359375 49.078125 39.65625 45.90625 
L 39.65625 71.578125 
L 48.390625 71.578125 
L 48.390625 0 
z
M 12.453125 25.875 
Q 12.453125 15.921875 16.640625 10.984375 
Q 20.84375 6.0625 26.5625 6.0625 
Q 32.328125 6.0625 36.34375 10.765625 
Q 40.375 15.484375 40.375 25.140625 
Q 40.375 35.796875 36.265625 40.765625 
Q 32.171875 45.75 26.171875 45.75 
Q 20.3125 45.75 16.375 40.96875 
Q 12.453125 36.1875 12.453125 25.875 
z
" id="ArialMT-100"/>
      <path d="M 40.4375 19 
L 49.078125 17.875 
Q 47.65625 8.9375 41.8125 3.875 
Q 35.984375 -1.171875 27.484375 -1.171875 
Q 16.84375 -1.171875 10.375 5.78125 
Q 3.90625 12.75 3.90625 25.734375 
Q 3.90625 34.125 6.6875 40.421875 
Q 9.46875 46.734375 15.15625 49.875 
Q 20.84375 53.03125 27.546875 53.03125 
Q 35.984375 53.03125 41.359375 48.75 
Q 46.734375 44.484375 48.25 36.625 
L 39.703125 35.296875 
Q 38.484375 40.53125 35.375 43.15625 
Q 32.28125 45.796875 27.875 45.796875 
Q 21.234375 45.796875 17.078125 41.03125 
Q 12.9375 36.28125 12.9375 25.984375 
Q 12.9375 15.53125 16.9375 10.796875 
Q 20.953125 6.0625 27.390625 6.0625 
Q 32.5625 6.0625 36.03125 9.234375 
Q 39.5 12.40625 40.4375 19 
z
" id="ArialMT-99"/>
     </defs>
     <g style="fill:#262626;" transform="translate(70.681875 408.8925)rotate(-90)scale(0.24 -0.24)">
      <use xlink:href="#ArialMT-80"/>
      <use x="66.699219" xlink:href="#ArialMT-114"/>
      <use x="100" xlink:href="#ArialMT-101"/>
      <use x="155.615234" xlink:href="#ArialMT-100"/>
      <use x="211.230469" xlink:href="#ArialMT-105"/>
      <use x="233.447266" xlink:href="#ArialMT-99"/>
      <use x="283.447266" xlink:href="#ArialMT-116"/>
      <use x="311.230469" xlink:href="#ArialMT-101"/>
      <use x="366.845703" xlink:href="#ArialMT-100"/>
     </g>
    </g>
   </g>
   <g id="line2d_13">
    <defs>
     <path d="M -5 0 
L 5 0 
M 0 5 
L 0 -5 
" id="ma3eb258c0a" style="stroke:#64b5cd;"/>
    </defs>
    <g clip-path="url(#p100b3e65a7)">
     <use style="fill:#64b5cd;stroke:#64b5cd;" x="407.077133" xlink:href="#ma3eb258c0a" y="416.129472"/>
     <use style="fill:#64b5cd;stroke:#64b5cd;" x="374.639326" xlink:href="#ma3eb258c0a" y="515.994837"/>
     <use style="fill:#64b5cd;stroke:#64b5cd;" x="587.554941" xlink:href="#ma3eb258c0a" y="422.218608"/>
     <use style="fill:#64b5cd;stroke:#64b5cd;" x="462.619479" xlink:href="#ma3eb258c0a" y="398.449558"/>
     <use style="fill:#64b5cd;stroke:#64b5cd;" x="327.499118" xlink:href="#ma3eb258c0a" y="432.568028"/>
     <use style="fill:#64b5cd;stroke:#64b5cd;" x="497.76371" xlink:href="#ma3eb258c0a" y="415.625562"/>
     <use style="fill:#64b5cd;stroke:#64b5cd;" x="407.646426" xlink:href="#ma3eb258c0a" y="427.454146"/>
     <use style="fill:#64b5cd;stroke:#64b5cd;" x="407.502464" xlink:href="#ma3eb258c0a" y="516.477608"/>
     <use style="fill:#64b5cd;stroke:#64b5cd;" x="438.168975" xlink:href="#ma3eb258c0a" y="503.137994"/>
     <use style="fill:#64b5cd;stroke:#64b5cd;" x="259.521205" xlink:href="#ma3eb258c0a" y="457.4801"/>
     <use style="fill:#64b5cd;stroke:#64b5cd;" x="801.861112" xlink:href="#ma3eb258c0a" y="343.948433"/>
     <use style="fill:#64b5cd;stroke:#64b5cd;" x="368.140184" xlink:href="#ma3eb258c0a" y="455.66717"/>
     <use style="fill:#64b5cd;stroke:#64b5cd;" x="430.697039" xlink:href="#ma3eb258c0a" y="390.084359"/>
     <use style="fill:#64b5cd;stroke:#64b5cd;" x="489.516736" xlink:href="#ma3eb258c0a" y="433.093513"/>
     <use style="fill:#64b5cd;stroke:#64b5cd;" x="602.026349" xlink:href="#ma3eb258c0a" y="330.672599"/>
     <use style="fill:#64b5cd;stroke:#64b5cd;" x="510.693773" xlink:href="#ma3eb258c0a" y="428.269477"/>
     <use style="fill:#64b5cd;stroke:#64b5cd;" x="570.217768" xlink:href="#ma3eb258c0a" y="410.887603"/>
     <use style="fill:#64b5cd;stroke:#64b5cd;" x="487.949719" xlink:href="#ma3eb258c0a" y="393.513693"/>
     <use style="fill:#64b5cd;stroke:#64b5cd;" x="417.788461" xlink:href="#ma3eb258c0a" y="441.301808"/>
     <use style="fill:#64b5cd;stroke:#64b5cd;" x="292.389623" xlink:href="#ma3eb258c0a" y="502.902207"/>
     <use style="fill:#64b5cd;stroke:#64b5cd;" x="783.380834" xlink:href="#ma3eb258c0a" y="343.184544"/>
     <use style="fill:#64b5cd;stroke:#64b5cd;" x="518.894989" xlink:href="#ma3eb258c0a" y="456.276998"/>
     <use style="fill:#64b5cd;stroke:#64b5cd;" x="481.158634" xlink:href="#ma3eb258c0a" y="423.04336"/>
     <use style="fill:#64b5cd;stroke:#64b5cd;" x="337.591265" xlink:href="#ma3eb258c0a" y="415.407876"/>
     <use style="fill:#64b5cd;stroke:#64b5cd;" x="604.075595" xlink:href="#ma3eb258c0a" y="358.735556"/>
     <use style="fill:#64b5cd;stroke:#64b5cd;" x="469.142584" xlink:href="#ma3eb258c0a" y="450.814998"/>
     <use style="fill:#64b5cd;stroke:#64b5cd;" x="415.270444" xlink:href="#ma3eb258c0a" y="473.244508"/>
     <use style="fill:#64b5cd;stroke:#64b5cd;" x="472.477101" xlink:href="#ma3eb258c0a" y="456.242607"/>
     <use style="fill:#64b5cd;stroke:#64b5cd;" x="338.382789" xlink:href="#ma3eb258c0a" y="441.498625"/>
     <use style="fill:#64b5cd;stroke:#64b5cd;" x="506.673328" xlink:href="#ma3eb258c0a" y="438.446666"/>
     <use style="fill:#64b5cd;stroke:#64b5cd;" x="272.410145" xlink:href="#ma3eb258c0a" y="450.110469"/>
     <use style="fill:#64b5cd;stroke:#64b5cd;" x="657.66744" xlink:href="#ma3eb258c0a" y="361.167159"/>
     <use style="fill:#64b5cd;stroke:#64b5cd;" x="233.95487" xlink:href="#ma3eb258c0a" y="400.845643"/>
     <use style="fill:#64b5cd;stroke:#64b5cd;" x="586.934735" xlink:href="#ma3eb258c0a" y="336.569706"/>
     <use style="fill:#64b5cd;stroke:#64b5cd;" x="719.066372" xlink:href="#ma3eb258c0a" y="411.405147"/>
     <use style="fill:#64b5cd;stroke:#64b5cd;" x="875.174052" xlink:href="#ma3eb258c0a" y="357.901325"/>
     <use style="fill:#64b5cd;stroke:#64b5cd;" x="607.691055" xlink:href="#ma3eb258c0a" y="339.298418"/>
     <use style="fill:#64b5cd;stroke:#64b5cd;" x="360.870157" xlink:href="#ma3eb258c0a" y="442.817693"/>
     <use style="fill:#64b5cd;stroke:#64b5cd;" x="512.392465" xlink:href="#ma3eb258c0a" y="353.645405"/>
     <use style="fill:#64b5cd;stroke:#64b5cd;" x="413.672531" xlink:href="#ma3eb258c0a" y="367.055751"/>
     <use style="fill:#64b5cd;stroke:#64b5cd;" x="355.01355" xlink:href="#ma3eb258c0a" y="472.19868"/>
     <use style="fill:#64b5cd;stroke:#64b5cd;" x="651.955079" xlink:href="#ma3eb258c0a" y="360.428634"/>
     <use style="fill:#64b5cd;stroke:#64b5cd;" x="546.327507" xlink:href="#ma3eb258c0a" y="429.694797"/>
     <use style="fill:#64b5cd;stroke:#64b5cd;" x="365.188156" xlink:href="#ma3eb258c0a" y="401.92267"/>
     <use style="fill:#64b5cd;stroke:#64b5cd;" x="451.856068" xlink:href="#ma3eb258c0a" y="414.441738"/>
     <use style="fill:#64b5cd;stroke:#64b5cd;" x="297.173714" xlink:href="#ma3eb258c0a" y="421.583892"/>
     <use style="fill:#64b5cd;stroke:#64b5cd;" x="390.764667" xlink:href="#ma3eb258c0a" y="433.510293"/>
     <use style="fill:#64b5cd;stroke:#64b5cd;" x="666.838885" xlink:href="#ma3eb258c0a" y="471.350607"/>
     <use style="fill:#64b5cd;stroke:#64b5cd;" x="716.798681" xlink:href="#ma3eb258c0a" y="431.3447"/>
     <use style="fill:#64b5cd;stroke:#64b5cd;" x="893.916577" xlink:href="#ma3eb258c0a" y="279.239182"/>
     <use style="fill:#64b5cd;stroke:#64b5cd;" x="317.371811" xlink:href="#ma3eb258c0a" y="515.268071"/>
     <use style="fill:#64b5cd;stroke:#64b5cd;" x="362.538804" xlink:href="#ma3eb258c0a" y="428.832442"/>
     <use style="fill:#64b5cd;stroke:#64b5cd;" x="443.662175" xlink:href="#ma3eb258c0a" y="407.006035"/>
     <use style="fill:#64b5cd;stroke:#64b5cd;" x="502.53304" xlink:href="#ma3eb258c0a" y="446.320178"/>
     <use style="fill:#64b5cd;stroke:#64b5cd;" x="144" xlink:href="#ma3eb258c0a" y="446.618343"/>
     <use style="fill:#64b5cd;stroke:#64b5cd;" x="676.422873" xlink:href="#ma3eb258c0a" y="419.703664"/>
     <use style="fill:#64b5cd;stroke:#64b5cd;" x="437.245679" xlink:href="#ma3eb258c0a" y="397.981958"/>
     <use style="fill:#64b5cd;stroke:#64b5cd;" x="298.481968" xlink:href="#ma3eb258c0a" y="416.992769"/>
     <use style="fill:#64b5cd;stroke:#64b5cd;" x="551.671198" xlink:href="#ma3eb258c0a" y="305.04425"/>
     <use style="fill:#64b5cd;stroke:#64b5cd;" x="473.376288" xlink:href="#ma3eb258c0a" y="426.631915"/>
     <use style="fill:#64b5cd;stroke:#64b5cd;" x="536.838351" xlink:href="#ma3eb258c0a" y="426.608246"/>
     <use style="fill:#64b5cd;stroke:#64b5cd;" x="383.883881" xlink:href="#ma3eb258c0a" y="448.427037"/>
     <use style="fill:#64b5cd;stroke:#64b5cd;" x="339.764398" xlink:href="#ma3eb258c0a" y="493.263867"/>
     <use style="fill:#64b5cd;stroke:#64b5cd;" x="480.27772" xlink:href="#ma3eb258c0a" y="352.208976"/>
     <use style="fill:#64b5cd;stroke:#64b5cd;" x="207.948332" xlink:href="#ma3eb258c0a" y="439.408281"/>
     <use style="fill:#64b5cd;stroke:#64b5cd;" x="336.941594" xlink:href="#ma3eb258c0a" y="453.186512"/>
     <use style="fill:#64b5cd;stroke:#64b5cd;" x="584.511289" xlink:href="#ma3eb258c0a" y="426.612805"/>
     <use style="fill:#64b5cd;stroke:#64b5cd;" x="297.751084" xlink:href="#ma3eb258c0a" y="409.276557"/>
     <use style="fill:#64b5cd;stroke:#64b5cd;" x="389.51528" xlink:href="#ma3eb258c0a" y="569.075701"/>
     <use style="fill:#64b5cd;stroke:#64b5cd;" x="651.635915" xlink:href="#ma3eb258c0a" y="395.331044"/>
     <use style="fill:#64b5cd;stroke:#64b5cd;" x="254.149246" xlink:href="#ma3eb258c0a" y="433.608806"/>
     <use style="fill:#64b5cd;stroke:#64b5cd;" x="601.195895" xlink:href="#ma3eb258c0a" y="400.971812"/>
     <use style="fill:#64b5cd;stroke:#64b5cd;" x="388.038778" xlink:href="#ma3eb258c0a" y="448.649741"/>
     <use style="fill:#64b5cd;stroke:#64b5cd;" x="191.168629" xlink:href="#ma3eb258c0a" y="518.330007"/>
     <use style="fill:#64b5cd;stroke:#64b5cd;" x="610.820485" xlink:href="#ma3eb258c0a" y="384.138624"/>
     <use style="fill:#64b5cd;stroke:#64b5cd;" x="418.721095" xlink:href="#ma3eb258c0a" y="422.274049"/>
     <use style="fill:#64b5cd;stroke:#64b5cd;" x="591.784751" xlink:href="#ma3eb258c0a" y="362.023977"/>
     <use style="fill:#64b5cd;stroke:#64b5cd;" x="766.921405" xlink:href="#ma3eb258c0a" y="353.3357"/>
     <use style="fill:#64b5cd;stroke:#64b5cd;" x="489.849713" xlink:href="#ma3eb258c0a" y="454.533996"/>
     <use style="fill:#64b5cd;stroke:#64b5cd;" x="515.625634" xlink:href="#ma3eb258c0a" y="368.814887"/>
     <use style="fill:#64b5cd;stroke:#64b5cd;" x="524.825462" xlink:href="#ma3eb258c0a" y="403.234095"/>
     <use style="fill:#64b5cd;stroke:#64b5cd;" x="610.701736" xlink:href="#ma3eb258c0a" y="417.598768"/>
     <use style="fill:#64b5cd;stroke:#64b5cd;" x="705.998262" xlink:href="#ma3eb258c0a" y="404.219785"/>
     <use style="fill:#64b5cd;stroke:#64b5cd;" x="661.938116" xlink:href="#ma3eb258c0a" y="376.684677"/>
     <use style="fill:#64b5cd;stroke:#64b5cd;" x="357.439775" xlink:href="#ma3eb258c0a" y="430.565359"/>
     <use style="fill:#64b5cd;stroke:#64b5cd;" x="480.809192" xlink:href="#ma3eb258c0a" y="389.118045"/>
     <use style="fill:#64b5cd;stroke:#64b5cd;" x="494.301809" xlink:href="#ma3eb258c0a" y="426.665849"/>
     <use style="fill:#64b5cd;stroke:#64b5cd;" x="354.770085" xlink:href="#ma3eb258c0a" y="480.93398"/>
     <use style="fill:#64b5cd;stroke:#64b5cd;" x="354.730271" xlink:href="#ma3eb258c0a" y="395.831067"/>
     <use style="fill:#64b5cd;stroke:#64b5cd;" x="591.418975" xlink:href="#ma3eb258c0a" y="415.420454"/>
     <use style="fill:#64b5cd;stroke:#64b5cd;" x="472.161219" xlink:href="#ma3eb258c0a" y="450.345702"/>
     <use style="fill:#64b5cd;stroke:#64b5cd;" x="346.671529" xlink:href="#ma3eb258c0a" y="415.726056"/>
     <use style="fill:#64b5cd;stroke:#64b5cd;" x="588.833302" xlink:href="#ma3eb258c0a" y="430.931686"/>
     <use style="fill:#64b5cd;stroke:#64b5cd;" x="723.081229" xlink:href="#ma3eb258c0a" y="311.289671"/>
     <use style="fill:#64b5cd;stroke:#64b5cd;" x="577.461539" xlink:href="#ma3eb258c0a" y="437.339969"/>
     <use style="fill:#64b5cd;stroke:#64b5cd;" x="466.070298" xlink:href="#ma3eb258c0a" y="401.588481"/>
    </g>
   </g>
   <g id="line2d_14">
    <defs>
     <path d="M -5 0 
L 5 0 
M 0 5 
L 0 -5 
" id="m04ede3deb1" style="stroke:#8172b3;"/>
    </defs>
    <g clip-path="url(#p100b3e65a7)">
     <use style="fill:#8172b3;stroke:#8172b3;" x="597.785253" xlink:href="#m04ede3deb1" y="439.119163"/>
     <use style="fill:#8172b3;stroke:#8172b3;" x="308.642661" xlink:href="#m04ede3deb1" y="416.328704"/>
     <use style="fill:#8172b3;stroke:#8172b3;" x="350.03945" xlink:href="#m04ede3deb1" y="437.276584"/>
     <use style="fill:#8172b3;stroke:#8172b3;" x="316.864081" xlink:href="#m04ede3deb1" y="370.786298"/>
     <use style="fill:#8172b3;stroke:#8172b3;" x="409.974069" xlink:href="#m04ede3deb1" y="450.039471"/>
     <use style="fill:#8172b3;stroke:#8172b3;" x="246.502769" xlink:href="#m04ede3deb1" y="419.18154"/>
     <use style="fill:#8172b3;stroke:#8172b3;" x="378.954641" xlink:href="#m04ede3deb1" y="400.810475"/>
     <use style="fill:#8172b3;stroke:#8172b3;" x="996.926875" xlink:href="#m04ede3deb1" y="362.645751"/>
     <use style="fill:#8172b3;stroke:#8172b3;" x="425.81263" xlink:href="#m04ede3deb1" y="393.212164"/>
     <use style="fill:#8172b3;stroke:#8172b3;" x="423.061042" xlink:href="#m04ede3deb1" y="418.879087"/>
     <use style="fill:#8172b3;stroke:#8172b3;" x="182.471436" xlink:href="#m04ede3deb1" y="463.318947"/>
     <use style="fill:#8172b3;stroke:#8172b3;" x="288.754649" xlink:href="#m04ede3deb1" y="487.827977"/>
     <use style="fill:#8172b3;stroke:#8172b3;" x="400.691934" xlink:href="#m04ede3deb1" y="446.974264"/>
     <use style="fill:#8172b3;stroke:#8172b3;" x="544.35868" xlink:href="#m04ede3deb1" y="352.425372"/>
     <use style="fill:#8172b3;stroke:#8172b3;" x="873.170787" xlink:href="#m04ede3deb1" y="450.446156"/>
     <use style="fill:#8172b3;stroke:#8172b3;" x="463.526859" xlink:href="#m04ede3deb1" y="347.022445"/>
     <use style="fill:#8172b3;stroke:#8172b3;" x="665.29943" xlink:href="#m04ede3deb1" y="458.360191"/>
     <use style="fill:#8172b3;stroke:#8172b3;" x="897.535417" xlink:href="#m04ede3deb1" y="422.360507"/>
     <use style="fill:#8172b3;stroke:#8172b3;" x="694.259648" xlink:href="#m04ede3deb1" y="453.1053"/>
     <use style="fill:#8172b3;stroke:#8172b3;" x="610.704855" xlink:href="#m04ede3deb1" y="472.887822"/>
     <use style="fill:#8172b3;stroke:#8172b3;" x="580.2614" xlink:href="#m04ede3deb1" y="449.693274"/>
     <use style="fill:#8172b3;stroke:#8172b3;" x="511.744837" xlink:href="#m04ede3deb1" y="304.932276"/>
     <use style="fill:#8172b3;stroke:#8172b3;" x="722.65291" xlink:href="#m04ede3deb1" y="384.8086"/>
     <use style="fill:#8172b3;stroke:#8172b3;" x="501.073009" xlink:href="#m04ede3deb1" y="427.241236"/>
     <use style="fill:#8172b3;stroke:#8172b3;" x="1036.8" xlink:href="#m04ede3deb1" y="227.265459"/>
     <use style="fill:#8172b3;stroke:#8172b3;" x="636.20931" xlink:href="#m04ede3deb1" y="482.61125"/>
     <use style="fill:#8172b3;stroke:#8172b3;" x="701.917054" xlink:href="#m04ede3deb1" y="408.67854"/>
     <use style="fill:#8172b3;stroke:#8172b3;" x="485.822542" xlink:href="#m04ede3deb1" y="387.957204"/>
     <use style="fill:#8172b3;stroke:#8172b3;" x="499.6621" xlink:href="#m04ede3deb1" y="443.719466"/>
     <use style="fill:#8172b3;stroke:#8172b3;" x="367.493777" xlink:href="#m04ede3deb1" y="384.466086"/>
     <use style="fill:#8172b3;stroke:#8172b3;" x="398.929964" xlink:href="#m04ede3deb1" y="439.489242"/>
     <use style="fill:#8172b3;stroke:#8172b3;" x="851.300472" xlink:href="#m04ede3deb1" y="357.088637"/>
    </g>
   </g>
   <g id="line2d_15">
    <path clip-path="url(#p100b3e65a7)" d="M 144 605.290909 
L 1036.8 111.109091 
" style="fill:none;stroke:#c44e52;stroke-linecap:round;stroke-width:1.5;"/>
   </g>
   <g id="patch_3">
    <path d="M 144 630 
L 144 86.4 
" style="fill:none;stroke:#cccccc;stroke-linecap:square;stroke-linejoin:miter;stroke-width:1.25;"/>
   </g>
   <g id="patch_4">
    <path d="M 1036.8 630 
L 1036.8 86.4 
" style="fill:none;stroke:#cccccc;stroke-linecap:square;stroke-linejoin:miter;stroke-width:1.25;"/>
   </g>
   <g id="patch_5">
    <path d="M 144 630 
L 1036.8 630 
" style="fill:none;stroke:#cccccc;stroke-linecap:square;stroke-linejoin:miter;stroke-width:1.25;"/>
   </g>
   <g id="patch_6">
    <path d="M 144 86.4 
L 1036.8 86.4 
" style="fill:none;stroke:#cccccc;stroke-linecap:square;stroke-linejoin:miter;stroke-width:1.25;"/>
   </g>
  </g>
 </g>
 <defs>
  <clipPath id="p100b3e65a7">
   <rect height="543.6" width="892.8" x="144" y="86.4"/>
  </clipPath>
 </defs>
</svg>
