<?xml version="1.0" encoding="utf-8" standalone="no"?>
<!DOCTYPE svg PUBLIC "-//W3C//DTD SVG 1.1//EN"
  "http://www.w3.org/Graphics/SVG/1.1/DTD/svg11.dtd">
<!-- Created with matplotlib (https://matplotlib.org/) -->
<svg height="720pt" version="1.1" viewBox="0 0 1152 720" width="1152pt" xmlns="http://www.w3.org/2000/svg" xmlns:xlink="http://www.w3.org/1999/xlink">
 <defs>
  <style type="text/css">
*{stroke-linecap:butt;stroke-linejoin:round;}
  </style>
 </defs>
 <g id="figure_1">
  <g id="patch_1">
   <path d="M 0 720 
L 1152 720 
L 1152 0 
L 0 0 
z
" style="fill:#ffffff;"/>
  </g>
  <g id="axes_1">
   <g id="patch_2">
    <path d="M 144 630 
L 1036.8 630 
L 1036.8 86.4 
L 144 86.4 
z
" style="fill:#ffffff;"/>
   </g>
   <g id="matplotlib.axis_1">
    <g id="xtick_1">
     <g id="line2d_1">
      <path clip-path="url(#p216458b3f5)" d="M 148.832191 630 
L 148.832191 86.4 
" style="fill:none;stroke:#cccccc;stroke-linecap:round;"/>
     </g>
     <g id="text_1">
      <!-- 40 -->
      <defs>
       <path d="M 32.328125 0 
L 32.328125 17.140625 
L 1.265625 17.140625 
L 1.265625 25.203125 
L 33.9375 71.578125 
L 41.109375 71.578125 
L 41.109375 25.203125 
L 50.78125 25.203125 
L 50.78125 17.140625 
L 41.109375 17.140625 
L 41.109375 0 
z
M 32.328125 25.203125 
L 32.328125 57.46875 
L 9.90625 25.203125 
z
" id="ArialMT-52"/>
       <path d="M 4.15625 35.296875 
Q 4.15625 48 6.765625 55.734375 
Q 9.375 63.484375 14.515625 67.671875 
Q 19.671875 71.875 27.484375 71.875 
Q 33.25 71.875 37.59375 69.546875 
Q 41.9375 67.234375 44.765625 62.859375 
Q 47.609375 58.5 49.21875 52.21875 
Q 50.828125 45.953125 50.828125 35.296875 
Q 50.828125 22.703125 48.234375 14.96875 
Q 45.65625 7.234375 40.5 3 
Q 35.359375 -1.21875 27.484375 -1.21875 
Q 17.140625 -1.21875 11.234375 6.203125 
Q 4.15625 15.140625 4.15625 35.296875 
z
M 13.1875 35.296875 
Q 13.1875 17.671875 17.3125 11.828125 
Q 21.4375 6 27.484375 6 
Q 33.546875 6 37.671875 11.859375 
Q 41.796875 17.71875 41.796875 35.296875 
Q 41.796875 52.984375 37.671875 58.78125 
Q 33.546875 64.59375 27.390625 64.59375 
Q 21.34375 64.59375 17.71875 59.46875 
Q 13.1875 52.9375 13.1875 35.296875 
z
" id="ArialMT-48"/>
      </defs>
      <g style="fill:#262626;" transform="translate(136.598129 655.247187)scale(0.22 -0.22)">
       <use xlink:href="#ArialMT-52"/>
       <use x="55.615234" xlink:href="#ArialMT-48"/>
      </g>
     </g>
    </g>
    <g id="xtick_2">
     <g id="line2d_2">
      <path clip-path="url(#p216458b3f5)" d="M 324.229338 630 
L 324.229338 86.4 
" style="fill:none;stroke:#cccccc;stroke-linecap:round;"/>
     </g>
     <g id="text_2">
      <!-- 60 -->
      <defs>
       <path d="M 49.75 54.046875 
L 41.015625 53.375 
Q 39.84375 58.546875 37.703125 60.890625 
Q 34.125 64.65625 28.90625 64.65625 
Q 24.703125 64.65625 21.53125 62.3125 
Q 17.390625 59.28125 14.984375 53.46875 
Q 12.59375 47.65625 12.5 36.921875 
Q 15.671875 41.75 20.265625 44.09375 
Q 24.859375 46.4375 29.890625 46.4375 
Q 38.671875 46.4375 44.84375 39.96875 
Q 51.03125 33.5 51.03125 23.25 
Q 51.03125 16.5 48.125 10.71875 
Q 45.21875 4.9375 40.140625 1.859375 
Q 35.0625 -1.21875 28.609375 -1.21875 
Q 17.625 -1.21875 10.6875 6.859375 
Q 3.765625 14.9375 3.765625 33.5 
Q 3.765625 54.25 11.421875 63.671875 
Q 18.109375 71.875 29.4375 71.875 
Q 37.890625 71.875 43.28125 67.140625 
Q 48.6875 62.40625 49.75 54.046875 
z
M 13.875 23.1875 
Q 13.875 18.65625 15.796875 14.5 
Q 17.71875 10.359375 21.1875 8.171875 
Q 24.65625 6 28.46875 6 
Q 34.03125 6 38.03125 10.484375 
Q 42.046875 14.984375 42.046875 22.703125 
Q 42.046875 30.125 38.078125 34.390625 
Q 34.125 38.671875 28.125 38.671875 
Q 22.171875 38.671875 18.015625 34.390625 
Q 13.875 30.125 13.875 23.1875 
z
" id="ArialMT-54"/>
      </defs>
      <g style="fill:#262626;" transform="translate(311.995276 655.247187)scale(0.22 -0.22)">
       <use xlink:href="#ArialMT-54"/>
       <use x="55.615234" xlink:href="#ArialMT-48"/>
      </g>
     </g>
    </g>
    <g id="xtick_3">
     <g id="line2d_3">
      <path clip-path="url(#p216458b3f5)" d="M 499.626485 630 
L 499.626485 86.4 
" style="fill:none;stroke:#cccccc;stroke-linecap:round;"/>
     </g>
     <g id="text_3">
      <!-- 80 -->
      <defs>
       <path d="M 17.671875 38.8125 
Q 12.203125 40.828125 9.5625 44.53125 
Q 6.9375 48.25 6.9375 53.421875 
Q 6.9375 61.234375 12.546875 66.546875 
Q 18.171875 71.875 27.484375 71.875 
Q 36.859375 71.875 42.578125 66.421875 
Q 48.296875 60.984375 48.296875 53.171875 
Q 48.296875 48.1875 45.671875 44.5 
Q 43.0625 40.828125 37.75 38.8125 
Q 44.34375 36.671875 47.78125 31.875 
Q 51.21875 27.09375 51.21875 20.453125 
Q 51.21875 11.28125 44.71875 5.03125 
Q 38.234375 -1.21875 27.640625 -1.21875 
Q 17.046875 -1.21875 10.546875 5.046875 
Q 4.046875 11.328125 4.046875 20.703125 
Q 4.046875 27.6875 7.59375 32.390625 
Q 11.140625 37.109375 17.671875 38.8125 
z
M 15.921875 53.71875 
Q 15.921875 48.640625 19.1875 45.40625 
Q 22.46875 42.1875 27.6875 42.1875 
Q 32.765625 42.1875 36.015625 45.375 
Q 39.265625 48.578125 39.265625 53.21875 
Q 39.265625 58.0625 35.90625 61.359375 
Q 32.5625 64.65625 27.59375 64.65625 
Q 22.5625 64.65625 19.234375 61.421875 
Q 15.921875 58.203125 15.921875 53.71875 
z
M 13.09375 20.65625 
Q 13.09375 16.890625 14.875 13.375 
Q 16.65625 9.859375 20.171875 7.921875 
Q 23.6875 6 27.734375 6 
Q 34.03125 6 38.125 10.046875 
Q 42.234375 14.109375 42.234375 20.359375 
Q 42.234375 26.703125 38.015625 30.859375 
Q 33.796875 35.015625 27.4375 35.015625 
Q 21.234375 35.015625 17.15625 30.90625 
Q 13.09375 26.8125 13.09375 20.65625 
z
" id="ArialMT-56"/>
      </defs>
      <g style="fill:#262626;" transform="translate(487.392423 655.247187)scale(0.22 -0.22)">
       <use xlink:href="#ArialMT-56"/>
       <use x="55.615234" xlink:href="#ArialMT-48"/>
      </g>
     </g>
    </g>
    <g id="xtick_4">
     <g id="line2d_4">
      <path clip-path="url(#p216458b3f5)" d="M 675.023632 630 
L 675.023632 86.4 
" style="fill:none;stroke:#cccccc;stroke-linecap:round;"/>
     </g>
     <g id="text_4">
      <!-- 100 -->
      <defs>
       <path d="M 37.25 0 
L 28.46875 0 
L 28.46875 56 
Q 25.296875 52.984375 20.140625 49.953125 
Q 14.984375 46.921875 10.890625 45.40625 
L 10.890625 53.90625 
Q 18.265625 57.375 23.78125 62.296875 
Q 29.296875 67.234375 31.59375 71.875 
L 37.25 71.875 
z
" id="ArialMT-49"/>
      </defs>
      <g style="fill:#262626;" transform="translate(656.672539 655.247187)scale(0.22 -0.22)">
       <use xlink:href="#ArialMT-49"/>
       <use x="55.615234" xlink:href="#ArialMT-48"/>
       <use x="111.230469" xlink:href="#ArialMT-48"/>
      </g>
     </g>
    </g>
    <g id="xtick_5">
     <g id="line2d_5">
      <path clip-path="url(#p216458b3f5)" d="M 850.420779 630 
L 850.420779 86.4 
" style="fill:none;stroke:#cccccc;stroke-linecap:round;"/>
     </g>
     <g id="text_5">
      <!-- 120 -->
      <defs>
       <path d="M 50.34375 8.453125 
L 50.34375 0 
L 3.03125 0 
Q 2.9375 3.171875 4.046875 6.109375 
Q 5.859375 10.9375 9.828125 15.625 
Q 13.8125 20.3125 21.34375 26.46875 
Q 33.015625 36.03125 37.109375 41.625 
Q 41.21875 47.21875 41.21875 52.203125 
Q 41.21875 57.421875 37.46875 61 
Q 33.734375 64.59375 27.734375 64.59375 
Q 21.390625 64.59375 17.578125 60.78125 
Q 13.765625 56.984375 13.71875 50.25 
L 4.6875 51.171875 
Q 5.609375 61.28125 11.65625 66.578125 
Q 17.71875 71.875 27.9375 71.875 
Q 38.234375 71.875 44.234375 66.15625 
Q 50.25 60.453125 50.25 52 
Q 50.25 47.703125 48.484375 43.546875 
Q 46.734375 39.40625 42.65625 34.8125 
Q 38.578125 30.21875 29.109375 22.21875 
Q 21.1875 15.578125 18.9375 13.203125 
Q 16.703125 10.84375 15.234375 8.453125 
z
" id="ArialMT-50"/>
      </defs>
      <g style="fill:#262626;" transform="translate(832.069686 655.247187)scale(0.22 -0.22)">
       <use xlink:href="#ArialMT-49"/>
       <use x="55.615234" xlink:href="#ArialMT-50"/>
       <use x="111.230469" xlink:href="#ArialMT-48"/>
      </g>
     </g>
    </g>
    <g id="xtick_6">
     <g id="line2d_6">
      <path clip-path="url(#p216458b3f5)" d="M 1025.817926 630 
L 1025.817926 86.4 
" style="fill:none;stroke:#cccccc;stroke-linecap:round;"/>
     </g>
     <g id="text_6">
      <!-- 140 -->
      <g style="fill:#262626;" transform="translate(1007.466833 655.247187)scale(0.22 -0.22)">
       <use xlink:href="#ArialMT-49"/>
       <use x="55.615234" xlink:href="#ArialMT-52"/>
       <use x="111.230469" xlink:href="#ArialMT-48"/>
      </g>
     </g>
    </g>
    <g id="text_7">
     <!-- Simulation Result -->
     <defs>
      <path d="M 4.5 23 
L 13.421875 23.78125 
Q 14.0625 18.40625 16.375 14.96875 
Q 18.703125 11.53125 23.578125 9.40625 
Q 28.46875 7.28125 34.578125 7.28125 
Q 39.984375 7.28125 44.140625 8.890625 
Q 48.296875 10.5 50.3125 13.296875 
Q 52.34375 16.109375 52.34375 19.4375 
Q 52.34375 22.796875 50.390625 25.3125 
Q 48.4375 27.828125 43.953125 29.546875 
Q 41.0625 30.671875 31.203125 33.03125 
Q 21.34375 35.40625 17.390625 37.5 
Q 12.25 40.1875 9.734375 44.15625 
Q 7.234375 48.140625 7.234375 53.078125 
Q 7.234375 58.5 10.296875 63.203125 
Q 13.375 67.921875 19.28125 70.359375 
Q 25.203125 72.796875 32.421875 72.796875 
Q 40.375 72.796875 46.453125 70.234375 
Q 52.546875 67.671875 55.8125 62.6875 
Q 59.078125 57.71875 59.328125 51.421875 
L 50.25 50.734375 
Q 49.515625 57.515625 45.28125 60.984375 
Q 41.0625 64.453125 32.8125 64.453125 
Q 24.21875 64.453125 20.28125 61.296875 
Q 16.359375 58.15625 16.359375 53.71875 
Q 16.359375 49.859375 19.140625 47.359375 
Q 21.875 44.875 33.421875 42.265625 
Q 44.96875 39.65625 49.265625 37.703125 
Q 55.515625 34.8125 58.484375 30.390625 
Q 61.46875 25.984375 61.46875 20.21875 
Q 61.46875 14.5 58.203125 9.4375 
Q 54.9375 4.390625 48.796875 1.578125 
Q 42.671875 -1.21875 35.015625 -1.21875 
Q 25.296875 -1.21875 18.71875 1.609375 
Q 12.15625 4.4375 8.421875 10.125 
Q 4.6875 15.828125 4.5 23 
z
" id="ArialMT-83"/>
      <path d="M 6.640625 61.46875 
L 6.640625 71.578125 
L 15.4375 71.578125 
L 15.4375 61.46875 
z
M 6.640625 0 
L 6.640625 51.859375 
L 15.4375 51.859375 
L 15.4375 0 
z
" id="ArialMT-105"/>
      <path d="M 6.59375 0 
L 6.59375 51.859375 
L 14.453125 51.859375 
L 14.453125 44.578125 
Q 16.890625 48.390625 20.9375 50.703125 
Q 25 53.03125 30.171875 53.03125 
Q 35.9375 53.03125 39.625 50.640625 
Q 43.3125 48.25 44.828125 43.953125 
Q 50.984375 53.03125 60.84375 53.03125 
Q 68.5625 53.03125 72.703125 48.75 
Q 76.859375 44.484375 76.859375 35.59375 
L 76.859375 0 
L 68.109375 0 
L 68.109375 32.671875 
Q 68.109375 37.9375 67.25 40.25 
Q 66.40625 42.578125 64.15625 43.984375 
Q 61.921875 45.40625 58.890625 45.40625 
Q 53.421875 45.40625 49.796875 41.765625 
Q 46.1875 38.140625 46.1875 30.125 
L 46.1875 0 
L 37.40625 0 
L 37.40625 33.6875 
Q 37.40625 39.546875 35.25 42.46875 
Q 33.109375 45.40625 28.21875 45.40625 
Q 24.515625 45.40625 21.359375 43.453125 
Q 18.21875 41.5 16.796875 37.734375 
Q 15.375 33.984375 15.375 26.90625 
L 15.375 0 
z
" id="ArialMT-109"/>
      <path d="M 40.578125 0 
L 40.578125 7.625 
Q 34.515625 -1.171875 24.125 -1.171875 
Q 19.53125 -1.171875 15.546875 0.578125 
Q 11.578125 2.34375 9.640625 5 
Q 7.71875 7.671875 6.9375 11.53125 
Q 6.390625 14.109375 6.390625 19.734375 
L 6.390625 51.859375 
L 15.1875 51.859375 
L 15.1875 23.09375 
Q 15.1875 16.21875 15.71875 13.8125 
Q 16.546875 10.359375 19.234375 8.375 
Q 21.921875 6.390625 25.875 6.390625 
Q 29.828125 6.390625 33.296875 8.421875 
Q 36.765625 10.453125 38.203125 13.9375 
Q 39.65625 17.4375 39.65625 24.078125 
L 39.65625 51.859375 
L 48.4375 51.859375 
L 48.4375 0 
z
" id="ArialMT-117"/>
      <path d="M 6.390625 0 
L 6.390625 71.578125 
L 15.1875 71.578125 
L 15.1875 0 
z
" id="ArialMT-108"/>
      <path d="M 40.4375 6.390625 
Q 35.546875 2.25 31.03125 0.53125 
Q 26.515625 -1.171875 21.34375 -1.171875 
Q 12.796875 -1.171875 8.203125 3 
Q 3.609375 7.171875 3.609375 13.671875 
Q 3.609375 17.484375 5.34375 20.625 
Q 7.078125 23.78125 9.890625 25.6875 
Q 12.703125 27.59375 16.21875 28.5625 
Q 18.796875 29.25 24.03125 29.890625 
Q 34.671875 31.15625 39.703125 32.90625 
Q 39.75 34.71875 39.75 35.203125 
Q 39.75 40.578125 37.25 42.78125 
Q 33.890625 45.75 27.25 45.75 
Q 21.046875 45.75 18.09375 43.578125 
Q 15.140625 41.40625 13.71875 35.890625 
L 5.125 37.0625 
Q 6.296875 42.578125 8.984375 45.96875 
Q 11.671875 49.359375 16.75 51.1875 
Q 21.828125 53.03125 28.515625 53.03125 
Q 35.15625 53.03125 39.296875 51.46875 
Q 43.453125 49.90625 45.40625 47.53125 
Q 47.359375 45.171875 48.140625 41.546875 
Q 48.578125 39.3125 48.578125 33.453125 
L 48.578125 21.734375 
Q 48.578125 9.46875 49.140625 6.21875 
Q 49.703125 2.984375 51.375 0 
L 42.1875 0 
Q 40.828125 2.734375 40.4375 6.390625 
z
M 39.703125 26.03125 
Q 34.90625 24.078125 25.34375 22.703125 
Q 19.921875 21.921875 17.671875 20.9375 
Q 15.4375 19.96875 14.203125 18.09375 
Q 12.984375 16.21875 12.984375 13.921875 
Q 12.984375 10.40625 15.640625 8.0625 
Q 18.3125 5.71875 23.4375 5.71875 
Q 28.515625 5.71875 32.46875 7.9375 
Q 36.421875 10.15625 38.28125 14.015625 
Q 39.703125 17 39.703125 22.796875 
z
" id="ArialMT-97"/>
      <path d="M 25.78125 7.859375 
L 27.046875 0.09375 
Q 23.34375 -0.6875 20.40625 -0.6875 
Q 15.625 -0.6875 12.984375 0.828125 
Q 10.359375 2.34375 9.28125 4.8125 
Q 8.203125 7.28125 8.203125 15.1875 
L 8.203125 45.015625 
L 1.765625 45.015625 
L 1.765625 51.859375 
L 8.203125 51.859375 
L 8.203125 64.703125 
L 16.9375 69.96875 
L 16.9375 51.859375 
L 25.78125 51.859375 
L 25.78125 45.015625 
L 16.9375 45.015625 
L 16.9375 14.703125 
Q 16.9375 10.9375 17.40625 9.859375 
Q 17.875 8.796875 18.921875 8.15625 
Q 19.96875 7.515625 21.921875 7.515625 
Q 23.390625 7.515625 25.78125 7.859375 
z
" id="ArialMT-116"/>
      <path d="M 3.328125 25.921875 
Q 3.328125 40.328125 11.328125 47.265625 
Q 18.015625 53.03125 27.640625 53.03125 
Q 38.328125 53.03125 45.109375 46.015625 
Q 51.90625 39.015625 51.90625 26.65625 
Q 51.90625 16.65625 48.90625 10.90625 
Q 45.90625 5.171875 40.15625 2 
Q 34.421875 -1.171875 27.640625 -1.171875 
Q 16.75 -1.171875 10.03125 5.8125 
Q 3.328125 12.796875 3.328125 25.921875 
z
M 12.359375 25.921875 
Q 12.359375 15.96875 16.703125 11.015625 
Q 21.046875 6.0625 27.640625 6.0625 
Q 34.1875 6.0625 38.53125 11.03125 
Q 42.875 16.015625 42.875 26.21875 
Q 42.875 35.84375 38.5 40.796875 
Q 34.125 45.75 27.640625 45.75 
Q 21.046875 45.75 16.703125 40.8125 
Q 12.359375 35.890625 12.359375 25.921875 
z
" id="ArialMT-111"/>
      <path d="M 6.59375 0 
L 6.59375 51.859375 
L 14.5 51.859375 
L 14.5 44.484375 
Q 20.21875 53.03125 31 53.03125 
Q 35.6875 53.03125 39.625 51.34375 
Q 43.5625 49.65625 45.515625 46.921875 
Q 47.46875 44.1875 48.25 40.4375 
Q 48.734375 37.984375 48.734375 31.890625 
L 48.734375 0 
L 39.9375 0 
L 39.9375 31.546875 
Q 39.9375 36.921875 38.90625 39.578125 
Q 37.890625 42.234375 35.28125 43.8125 
Q 32.671875 45.40625 29.15625 45.40625 
Q 23.53125 45.40625 19.453125 41.84375 
Q 15.375 38.28125 15.375 28.328125 
L 15.375 0 
z
" id="ArialMT-110"/>
      <path id="ArialMT-32"/>
      <path d="M 7.859375 0 
L 7.859375 71.578125 
L 39.59375 71.578125 
Q 49.171875 71.578125 54.140625 69.640625 
Q 59.125 67.71875 62.109375 62.828125 
Q 65.09375 57.953125 65.09375 52.046875 
Q 65.09375 44.4375 60.15625 39.203125 
Q 55.21875 33.984375 44.921875 32.5625 
Q 48.6875 30.765625 50.640625 29 
Q 54.78125 25.203125 58.5 19.484375 
L 70.953125 0 
L 59.03125 0 
L 49.5625 14.890625 
Q 45.40625 21.34375 42.71875 24.75 
Q 40.046875 28.171875 37.921875 29.53125 
Q 35.796875 30.90625 33.59375 31.453125 
Q 31.984375 31.78125 28.328125 31.78125 
L 17.328125 31.78125 
L 17.328125 0 
z
M 17.328125 39.984375 
L 37.703125 39.984375 
Q 44.1875 39.984375 47.84375 41.328125 
Q 51.515625 42.671875 53.421875 45.625 
Q 55.328125 48.578125 55.328125 52.046875 
Q 55.328125 57.125 51.640625 60.390625 
Q 47.953125 63.671875 39.984375 63.671875 
L 17.328125 63.671875 
z
" id="ArialMT-82"/>
      <path d="M 42.09375 16.703125 
L 51.171875 15.578125 
Q 49.03125 7.625 43.21875 3.21875 
Q 37.40625 -1.171875 28.375 -1.171875 
Q 17 -1.171875 10.328125 5.828125 
Q 3.65625 12.84375 3.65625 25.484375 
Q 3.65625 38.578125 10.390625 45.796875 
Q 17.140625 53.03125 27.875 53.03125 
Q 38.28125 53.03125 44.875 45.953125 
Q 51.46875 38.875 51.46875 26.03125 
Q 51.46875 25.25 51.421875 23.6875 
L 12.75 23.6875 
Q 13.234375 15.140625 17.578125 10.59375 
Q 21.921875 6.0625 28.421875 6.0625 
Q 33.25 6.0625 36.671875 8.59375 
Q 40.09375 11.140625 42.09375 16.703125 
z
M 13.234375 30.90625 
L 42.1875 30.90625 
Q 41.609375 37.453125 38.875 40.71875 
Q 34.671875 45.796875 27.984375 45.796875 
Q 21.921875 45.796875 17.796875 41.75 
Q 13.671875 37.703125 13.234375 30.90625 
z
" id="ArialMT-101"/>
      <path d="M 3.078125 15.484375 
L 11.765625 16.84375 
Q 12.5 11.625 15.84375 8.84375 
Q 19.1875 6.0625 25.203125 6.0625 
Q 31.25 6.0625 34.171875 8.515625 
Q 37.109375 10.984375 37.109375 14.3125 
Q 37.109375 17.28125 34.515625 19 
Q 32.71875 20.171875 25.53125 21.96875 
Q 15.875 24.421875 12.140625 26.203125 
Q 8.40625 27.984375 6.46875 31.125 
Q 4.546875 34.28125 4.546875 38.09375 
Q 4.546875 41.546875 6.125 44.5 
Q 7.71875 47.46875 10.453125 49.421875 
Q 12.5 50.921875 16.03125 51.96875 
Q 19.578125 53.03125 23.640625 53.03125 
Q 29.734375 53.03125 34.34375 51.265625 
Q 38.96875 49.515625 41.15625 46.5 
Q 43.359375 43.5 44.1875 38.484375 
L 35.59375 37.3125 
Q 35.015625 41.3125 32.203125 43.546875 
Q 29.390625 45.796875 24.265625 45.796875 
Q 18.21875 45.796875 15.625 43.796875 
Q 13.03125 41.796875 13.03125 39.109375 
Q 13.03125 37.40625 14.109375 36.03125 
Q 15.1875 34.625 17.484375 33.6875 
Q 18.796875 33.203125 25.25 31.453125 
Q 34.578125 28.953125 38.25 27.359375 
Q 41.9375 25.78125 44.03125 22.75 
Q 46.140625 19.734375 46.140625 15.234375 
Q 46.140625 10.84375 43.578125 6.953125 
Q 41.015625 3.078125 36.171875 0.953125 
Q 31.34375 -1.171875 25.25 -1.171875 
Q 15.140625 -1.171875 9.84375 3.03125 
Q 4.546875 7.234375 3.078125 15.484375 
z
" id="ArialMT-115"/>
     </defs>
     <g style="fill:#262626;" transform="translate(497.02875 680.798437)scale(0.24 -0.24)">
      <use xlink:href="#ArialMT-83"/>
      <use x="66.699219" xlink:href="#ArialMT-105"/>
      <use x="88.916016" xlink:href="#ArialMT-109"/>
      <use x="172.216797" xlink:href="#ArialMT-117"/>
      <use x="227.832031" xlink:href="#ArialMT-108"/>
      <use x="250.048828" xlink:href="#ArialMT-97"/>
      <use x="305.664062" xlink:href="#ArialMT-116"/>
      <use x="333.447266" xlink:href="#ArialMT-105"/>
      <use x="355.664062" xlink:href="#ArialMT-111"/>
      <use x="411.279297" xlink:href="#ArialMT-110"/>
      <use x="466.894531" xlink:href="#ArialMT-32"/>
      <use x="494.677734" xlink:href="#ArialMT-82"/>
      <use x="566.894531" xlink:href="#ArialMT-101"/>
      <use x="622.509766" xlink:href="#ArialMT-115"/>
      <use x="672.509766" xlink:href="#ArialMT-117"/>
      <use x="728.125" xlink:href="#ArialMT-108"/>
      <use x="750.341797" xlink:href="#ArialMT-116"/>
     </g>
    </g>
   </g>
   <g id="matplotlib.axis_2">
    <g id="ytick_1">
     <g id="line2d_7">
      <path clip-path="url(#p216458b3f5)" d="M 144 603.054919 
L 1036.8 603.054919 
" style="fill:none;stroke:#cccccc;stroke-linecap:round;"/>
     </g>
     <g id="text_8">
      <!-- 40 -->
      <g style="fill:#262626;" transform="translate(110.031875 610.928513)scale(0.22 -0.22)">
       <use xlink:href="#ArialMT-52"/>
       <use x="55.615234" xlink:href="#ArialMT-48"/>
      </g>
     </g>
    </g>
    <g id="ytick_2">
     <g id="line2d_8">
      <path clip-path="url(#p216458b3f5)" d="M 144 521.893768 
L 1036.8 521.893768 
" style="fill:none;stroke:#cccccc;stroke-linecap:round;"/>
     </g>
     <g id="text_9">
      <!-- 60 -->
      <g style="fill:#262626;" transform="translate(110.031875 529.767362)scale(0.22 -0.22)">
       <use xlink:href="#ArialMT-54"/>
       <use x="55.615234" xlink:href="#ArialMT-48"/>
      </g>
     </g>
    </g>
    <g id="ytick_3">
     <g id="line2d_9">
      <path clip-path="url(#p216458b3f5)" d="M 144 440.732617 
L 1036.8 440.732617 
" style="fill:none;stroke:#cccccc;stroke-linecap:round;"/>
     </g>
     <g id="text_10">
      <!-- 80 -->
      <g style="fill:#262626;" transform="translate(110.031875 448.60621)scale(0.22 -0.22)">
       <use xlink:href="#ArialMT-56"/>
       <use x="55.615234" xlink:href="#ArialMT-48"/>
      </g>
     </g>
    </g>
    <g id="ytick_4">
     <g id="line2d_10">
      <path clip-path="url(#p216458b3f5)" d="M 144 359.571465 
L 1036.8 359.571465 
" style="fill:none;stroke:#cccccc;stroke-linecap:round;"/>
     </g>
     <g id="text_11">
      <!-- 100 -->
      <g style="fill:#262626;" transform="translate(97.797812 367.445059)scale(0.22 -0.22)">
       <use xlink:href="#ArialMT-49"/>
       <use x="55.615234" xlink:href="#ArialMT-48"/>
       <use x="111.230469" xlink:href="#ArialMT-48"/>
      </g>
     </g>
    </g>
    <g id="ytick_5">
     <g id="line2d_11">
      <path clip-path="url(#p216458b3f5)" d="M 144 278.410314 
L 1036.8 278.410314 
" style="fill:none;stroke:#cccccc;stroke-linecap:round;"/>
     </g>
     <g id="text_12">
      <!-- 120 -->
      <g style="fill:#262626;" transform="translate(97.797812 286.283908)scale(0.22 -0.22)">
       <use xlink:href="#ArialMT-49"/>
       <use x="55.615234" xlink:href="#ArialMT-50"/>
       <use x="111.230469" xlink:href="#ArialMT-48"/>
      </g>
     </g>
    </g>
    <g id="ytick_6">
     <g id="line2d_12">
      <path clip-path="url(#p216458b3f5)" d="M 144 197.249163 
L 1036.8 197.249163 
" style="fill:none;stroke:#cccccc;stroke-linecap:round;"/>
     </g>
     <g id="text_13">
      <!-- 140 -->
      <g style="fill:#262626;" transform="translate(97.797812 205.122756)scale(0.22 -0.22)">
       <use xlink:href="#ArialMT-49"/>
       <use x="55.615234" xlink:href="#ArialMT-52"/>
       <use x="111.230469" xlink:href="#ArialMT-48"/>
      </g>
     </g>
    </g>
    <g id="ytick_7">
     <g id="line2d_13">
      <path clip-path="url(#p216458b3f5)" d="M 144 116.088011 
L 1036.8 116.088011 
" style="fill:none;stroke:#cccccc;stroke-linecap:round;"/>
     </g>
     <g id="text_14">
      <!-- 160 -->
      <g style="fill:#262626;" transform="translate(97.797812 123.961605)scale(0.22 -0.22)">
       <use xlink:href="#ArialMT-49"/>
       <use x="55.615234" xlink:href="#ArialMT-54"/>
       <use x="111.230469" xlink:href="#ArialMT-48"/>
      </g>
     </g>
    </g>
    <g id="text_15">
     <!-- Predicted -->
     <defs>
      <path d="M 7.71875 0 
L 7.71875 71.578125 
L 34.71875 71.578125 
Q 41.84375 71.578125 45.609375 70.90625 
Q 50.875 70.015625 54.4375 67.546875 
Q 58.015625 65.09375 60.1875 60.640625 
Q 62.359375 56.203125 62.359375 50.875 
Q 62.359375 41.75 56.546875 35.421875 
Q 50.734375 29.109375 35.546875 29.109375 
L 17.1875 29.109375 
L 17.1875 0 
z
M 17.1875 37.546875 
L 35.6875 37.546875 
Q 44.875 37.546875 48.734375 40.96875 
Q 52.59375 44.390625 52.59375 50.59375 
Q 52.59375 55.078125 50.3125 58.265625 
Q 48.046875 61.46875 44.34375 62.5 
Q 41.9375 63.140625 35.5 63.140625 
L 17.1875 63.140625 
z
" id="ArialMT-80"/>
      <path d="M 6.5 0 
L 6.5 51.859375 
L 14.40625 51.859375 
L 14.40625 44 
Q 17.4375 49.515625 20 51.265625 
Q 22.5625 53.03125 25.640625 53.03125 
Q 30.078125 53.03125 34.671875 50.203125 
L 31.640625 42.046875 
Q 28.421875 43.953125 25.203125 43.953125 
Q 22.3125 43.953125 20.015625 42.21875 
Q 17.71875 40.484375 16.75 37.40625 
Q 15.28125 32.71875 15.28125 27.15625 
L 15.28125 0 
z
" id="ArialMT-114"/>
      <path d="M 40.234375 0 
L 40.234375 6.546875 
Q 35.296875 -1.171875 25.734375 -1.171875 
Q 19.53125 -1.171875 14.328125 2.25 
Q 9.125 5.671875 6.265625 11.796875 
Q 3.421875 17.921875 3.421875 25.875 
Q 3.421875 33.640625 6 39.96875 
Q 8.59375 46.296875 13.765625 49.65625 
Q 18.953125 53.03125 25.34375 53.03125 
Q 30.03125 53.03125 33.6875 51.046875 
Q 37.359375 49.078125 39.65625 45.90625 
L 39.65625 71.578125 
L 48.390625 71.578125 
L 48.390625 0 
z
M 12.453125 25.875 
Q 12.453125 15.921875 16.640625 10.984375 
Q 20.84375 6.0625 26.5625 6.0625 
Q 32.328125 6.0625 36.34375 10.765625 
Q 40.375 15.484375 40.375 25.140625 
Q 40.375 35.796875 36.265625 40.765625 
Q 32.171875 45.75 26.171875 45.75 
Q 20.3125 45.75 16.375 40.96875 
Q 12.453125 36.1875 12.453125 25.875 
z
" id="ArialMT-100"/>
      <path d="M 40.4375 19 
L 49.078125 17.875 
Q 47.65625 8.9375 41.8125 3.875 
Q 35.984375 -1.171875 27.484375 -1.171875 
Q 16.84375 -1.171875 10.375 5.78125 
Q 3.90625 12.75 3.90625 25.734375 
Q 3.90625 34.125 6.6875 40.421875 
Q 9.46875 46.734375 15.15625 49.875 
Q 20.84375 53.03125 27.546875 53.03125 
Q 35.984375 53.03125 41.359375 48.75 
Q 46.734375 44.484375 48.25 36.625 
L 39.703125 35.296875 
Q 38.484375 40.53125 35.375 43.15625 
Q 32.28125 45.796875 27.875 45.796875 
Q 21.234375 45.796875 17.078125 41.03125 
Q 12.9375 36.28125 12.9375 25.984375 
Q 12.9375 15.53125 16.9375 10.796875 
Q 20.953125 6.0625 27.390625 6.0625 
Q 32.5625 6.0625 36.03125 9.234375 
Q 39.5 12.40625 40.4375 19 
z
" id="ArialMT-99"/>
     </defs>
     <g style="fill:#262626;" transform="translate(89.027812 408.8925)rotate(-90)scale(0.24 -0.24)">
      <use xlink:href="#ArialMT-80"/>
      <use x="66.699219" xlink:href="#ArialMT-114"/>
      <use x="100" xlink:href="#ArialMT-101"/>
      <use x="155.615234" xlink:href="#ArialMT-100"/>
      <use x="211.230469" xlink:href="#ArialMT-105"/>
      <use x="233.447266" xlink:href="#ArialMT-99"/>
      <use x="283.447266" xlink:href="#ArialMT-116"/>
      <use x="311.230469" xlink:href="#ArialMT-101"/>
      <use x="366.845703" xlink:href="#ArialMT-100"/>
     </g>
    </g>
   </g>
   <g id="line2d_14">
    <defs>
     <path d="M -5 0 
L 5 0 
M 0 5 
L 0 -5 
" id="m630123cc1b" style="stroke:#64b5cd;"/>
    </defs>
    <g clip-path="url(#p216458b3f5)">
     <use style="fill:#64b5cd;stroke:#64b5cd;" x="309.329351" xlink:href="#m630123cc1b" y="471.526295"/>
     <use style="fill:#64b5cd;stroke:#64b5cd;" x="943.126941" xlink:href="#m630123cc1b" y="234.741354"/>
     <use style="fill:#64b5cd;stroke:#64b5cd;" x="890.911211" xlink:href="#m630123cc1b" y="142.662415"/>
     <use style="fill:#64b5cd;stroke:#64b5cd;" x="277.836793" xlink:href="#m630123cc1b" y="501.948012"/>
     <use style="fill:#64b5cd;stroke:#64b5cd;" x="914.92308" xlink:href="#m630123cc1b" y="351.487158"/>
     <use style="fill:#64b5cd;stroke:#64b5cd;" x="818.463419" xlink:href="#m630123cc1b" y="393.577263"/>
     <use style="fill:#64b5cd;stroke:#64b5cd;" x="321.04588" xlink:href="#m630123cc1b" y="487.89413"/>
     <use style="fill:#64b5cd;stroke:#64b5cd;" x="909.240213" xlink:href="#m630123cc1b" y="256.894793"/>
     <use style="fill:#64b5cd;stroke:#64b5cd;" x="180.871169" xlink:href="#m630123cc1b" y="544.412617"/>
     <use style="fill:#64b5cd;stroke:#64b5cd;" x="315.152536" xlink:href="#m630123cc1b" y="491.925062"/>
     <use style="fill:#64b5cd;stroke:#64b5cd;" x="881.369606" xlink:href="#m630123cc1b" y="380.712556"/>
     <use style="fill:#64b5cd;stroke:#64b5cd;" x="962.850351" xlink:href="#m630123cc1b" y="340.63494"/>
     <use style="fill:#64b5cd;stroke:#64b5cd;" x="961.341935" xlink:href="#m630123cc1b" y="242.829344"/>
     <use style="fill:#64b5cd;stroke:#64b5cd;" x="884.368897" xlink:href="#m630123cc1b" y="331.329157"/>
     <use style="fill:#64b5cd;stroke:#64b5cd;" x="906.788401" xlink:href="#m630123cc1b" y="247.523295"/>
     <use style="fill:#64b5cd;stroke:#64b5cd;" x="789.110707" xlink:href="#m630123cc1b" y="401.585582"/>
     <use style="fill:#64b5cd;stroke:#64b5cd;" x="697.28153" xlink:href="#m630123cc1b" y="414.251158"/>
     <use style="fill:#64b5cd;stroke:#64b5cd;" x="159.277092" xlink:href="#m630123cc1b" y="547.394866"/>
     <use style="fill:#64b5cd;stroke:#64b5cd;" x="814.006997" xlink:href="#m630123cc1b" y="396.226526"/>
     <use style="fill:#64b5cd;stroke:#64b5cd;" x="849.79812" xlink:href="#m630123cc1b" y="370.747991"/>
     <use style="fill:#64b5cd;stroke:#64b5cd;" x="887.675133" xlink:href="#m630123cc1b" y="326.605318"/>
     <use style="fill:#64b5cd;stroke:#64b5cd;" x="893.805264" xlink:href="#m630123cc1b" y="212.286622"/>
     <use style="fill:#64b5cd;stroke:#64b5cd;" x="982.433442" xlink:href="#m630123cc1b" y="269.387862"/>
     <use style="fill:#64b5cd;stroke:#64b5cd;" x="363.101139" xlink:href="#m630123cc1b" y="475.046793"/>
     <use style="fill:#64b5cd;stroke:#64b5cd;" x="247.729873" xlink:href="#m630123cc1b" y="514.357278"/>
     <use style="fill:#64b5cd;stroke:#64b5cd;" x="162.530709" xlink:href="#m630123cc1b" y="554.818745"/>
     <use style="fill:#64b5cd;stroke:#64b5cd;" x="924.683369" xlink:href="#m630123cc1b" y="320.772604"/>
     <use style="fill:#64b5cd;stroke:#64b5cd;" x="437.886339" xlink:href="#m630123cc1b" y="463.977325"/>
     <use style="fill:#64b5cd;stroke:#64b5cd;" x="846.290177" xlink:href="#m630123cc1b" y="384.47497"/>
     <use style="fill:#64b5cd;stroke:#64b5cd;" x="159.39987" xlink:href="#m630123cc1b" y="557.470567"/>
     <use style="fill:#64b5cd;stroke:#64b5cd;" x="295.709762" xlink:href="#m630123cc1b" y="494.18727"/>
     <use style="fill:#64b5cd;stroke:#64b5cd;" x="974.610729" xlink:href="#m630123cc1b" y="292.721991"/>
     <use style="fill:#64b5cd;stroke:#64b5cd;" x="210.168574" xlink:href="#m630123cc1b" y="530.179795"/>
     <use style="fill:#64b5cd;stroke:#64b5cd;" x="469.226069" xlink:href="#m630123cc1b" y="450.708687"/>
     <use style="fill:#64b5cd;stroke:#64b5cd;" x="944.44242" xlink:href="#m630123cc1b" y="135.309707"/>
     <use style="fill:#64b5cd;stroke:#64b5cd;" x="891.700498" xlink:href="#m630123cc1b" y="364.296173"/>
     <use style="fill:#64b5cd;stroke:#64b5cd;" x="900.058172" xlink:href="#m630123cc1b" y="357.171552"/>
     <use style="fill:#64b5cd;stroke:#64b5cd;" x="471.291076" xlink:href="#m630123cc1b" y="449.144607"/>
     <use style="fill:#64b5cd;stroke:#64b5cd;" x="992.483699" xlink:href="#m630123cc1b" y="140.013232"/>
     <use style="fill:#64b5cd;stroke:#64b5cd;" x="610.714268" xlink:href="#m630123cc1b" y="424.001253"/>
     <use style="fill:#64b5cd;stroke:#64b5cd;" x="954.185732" xlink:href="#m630123cc1b" y="275.164522"/>
     <use style="fill:#64b5cd;stroke:#64b5cd;" x="351.021253" xlink:href="#m630123cc1b" y="477.623616"/>
     <use style="fill:#64b5cd;stroke:#64b5cd;" x="174.378786" xlink:href="#m630123cc1b" y="543.059634"/>
     <use style="fill:#64b5cd;stroke:#64b5cd;" x="481.823675" xlink:href="#m630123cc1b" y="453.445385"/>
     <use style="fill:#64b5cd;stroke:#64b5cd;" x="651.967677" xlink:href="#m630123cc1b" y="422.365269"/>
     <use style="fill:#64b5cd;stroke:#64b5cd;" x="939.250664" xlink:href="#m630123cc1b" y="209.864227"/>
     <use style="fill:#64b5cd;stroke:#64b5cd;" x="877.353635" xlink:href="#m630123cc1b" y="191.432386"/>
     <use style="fill:#64b5cd;stroke:#64b5cd;" x="862.09346" xlink:href="#m630123cc1b" y="386.908256"/>
     <use style="fill:#64b5cd;stroke:#64b5cd;" x="218.298231" xlink:href="#m630123cc1b" y="523.528831"/>
     <use style="fill:#64b5cd;stroke:#64b5cd;" x="867.907875" xlink:href="#m630123cc1b" y="360.295951"/>
     <use style="fill:#64b5cd;stroke:#64b5cd;" x="922.631785" xlink:href="#m630123cc1b" y="114.770295"/>
     <use style="fill:#64b5cd;stroke:#64b5cd;" x="234.329531" xlink:href="#m630123cc1b" y="503.015999"/>
     <use style="fill:#64b5cd;stroke:#64b5cd;" x="955.685377" xlink:href="#m630123cc1b" y="236.891035"/>
     <use style="fill:#64b5cd;stroke:#64b5cd;" x="877.160074" xlink:href="#m630123cc1b" y="362.135408"/>
     <use style="fill:#64b5cd;stroke:#64b5cd;" x="718.750018" xlink:href="#m630123cc1b" y="411.75461"/>
     <use style="fill:#64b5cd;stroke:#64b5cd;" x="934.655259" xlink:href="#m630123cc1b" y="353.37116"/>
     <use style="fill:#64b5cd;stroke:#64b5cd;" x="859.173097" xlink:href="#m630123cc1b" y="378.695464"/>
     <use style="fill:#64b5cd;stroke:#64b5cd;" x="903.075003" xlink:href="#m630123cc1b" y="338.662797"/>
     <use style="fill:#64b5cd;stroke:#64b5cd;" x="187.121389" xlink:href="#m630123cc1b" y="541.420327"/>
     <use style="fill:#64b5cd;stroke:#64b5cd;" x="772.886471" xlink:href="#m630123cc1b" y="408.893563"/>
     <use style="fill:#64b5cd;stroke:#64b5cd;" x="903.24163" xlink:href="#m630123cc1b" y="165.254346"/>
     <use style="fill:#64b5cd;stroke:#64b5cd;" x="565.76875" xlink:href="#m630123cc1b" y="432.018128"/>
     <use style="fill:#64b5cd;stroke:#64b5cd;" x="500.012359" xlink:href="#m630123cc1b" y="444.013154"/>
     <use style="fill:#64b5cd;stroke:#64b5cd;" x="365.377509" xlink:href="#m630123cc1b" y="473.179831"/>
     <use style="fill:#64b5cd;stroke:#64b5cd;" x="224.375743" xlink:href="#m630123cc1b" y="527.622693"/>
     <use style="fill:#64b5cd;stroke:#64b5cd;" x="969.717149" xlink:href="#m630123cc1b" y="266.567263"/>
     <use style="fill:#64b5cd;stroke:#64b5cd;" x="939.601459" xlink:href="#m630123cc1b" y="182.156151"/>
     <use style="fill:#64b5cd;stroke:#64b5cd;" x="296.165795" xlink:href="#m630123cc1b" y="495.993876"/>
     <use style="fill:#64b5cd;stroke:#64b5cd;" x="173.747356" xlink:href="#m630123cc1b" y="545.899245"/>
     <use style="fill:#64b5cd;stroke:#64b5cd;" x="970.626642" xlink:href="#m630123cc1b" y="312.094822"/>
     <use style="fill:#64b5cd;stroke:#64b5cd;" x="296.007937" xlink:href="#m630123cc1b" y="496.37532"/>
     <use style="fill:#64b5cd;stroke:#64b5cd;" x="950.098978" xlink:href="#m630123cc1b" y="152.14894"/>
     <use style="fill:#64b5cd;stroke:#64b5cd;" x="947.415402" xlink:href="#m630123cc1b" y="345.173345"/>
     <use style="fill:#64b5cd;stroke:#64b5cd;" x="883.649769" xlink:href="#m630123cc1b" y="354.642708"/>
     <use style="fill:#64b5cd;stroke:#64b5cd;" x="923.149206" xlink:href="#m630123cc1b" y="124.474897"/>
     <use style="fill:#64b5cd;stroke:#64b5cd;" x="325.774378" xlink:href="#m630123cc1b" y="488.278178"/>
     <use style="fill:#64b5cd;stroke:#64b5cd;" x="885.078834" xlink:href="#m630123cc1b" y="371.098002"/>
     <use style="fill:#64b5cd;stroke:#64b5cd;" x="296.937542" xlink:href="#m630123cc1b" y="499.519583"/>
     <use style="fill:#64b5cd;stroke:#64b5cd;" x="496.422283" xlink:href="#m630123cc1b" y="445.721429"/>
     <use style="fill:#64b5cd;stroke:#64b5cd;" x="867.697398" xlink:href="#m630123cc1b" y="131.141775"/>
     <use style="fill:#64b5cd;stroke:#64b5cd;" x="942.0044" xlink:href="#m630123cc1b" y="257.885447"/>
     <use style="fill:#64b5cd;stroke:#64b5cd;" x="876.431878" xlink:href="#m630123cc1b" y="386.439711"/>
     <use style="fill:#64b5cd;stroke:#64b5cd;" x="1036.8" xlink:href="#m630123cc1b" y="274.237688"/>
     <use style="fill:#64b5cd;stroke:#64b5cd;" x="162.605871" xlink:href="#m630123cc1b" y="552.879081"/>
     <use style="fill:#64b5cd;stroke:#64b5cd;" x="662.48774" xlink:href="#m630123cc1b" y="420.457646"/>
     <use style="fill:#64b5cd;stroke:#64b5cd;" x="923.081549" xlink:href="#m630123cc1b" y="176.366102"/>
     <use style="fill:#64b5cd;stroke:#64b5cd;" x="835.187537" xlink:href="#m630123cc1b" y="402.32809"/>
     <use style="fill:#64b5cd;stroke:#64b5cd;" x="242.669665" xlink:href="#m630123cc1b" y="519.610065"/>
     <use style="fill:#64b5cd;stroke:#64b5cd;" x="272.066227" xlink:href="#m630123cc1b" y="505.791332"/>
     <use style="fill:#64b5cd;stroke:#64b5cd;" x="928.61209" xlink:href="#m630123cc1b" y="122.40481"/>
     <use style="fill:#64b5cd;stroke:#64b5cd;" x="774.026552" xlink:href="#m630123cc1b" y="287.503197"/>
     <use style="fill:#64b5cd;stroke:#64b5cd;" x="920.781547" xlink:href="#m630123cc1b" y="206.571838"/>
     <use style="fill:#64b5cd;stroke:#64b5cd;" x="545.42268" xlink:href="#m630123cc1b" y="433.759697"/>
     <use style="fill:#64b5cd;stroke:#64b5cd;" x="898.527705" xlink:href="#m630123cc1b" y="187.283528"/>
     <use style="fill:#64b5cd;stroke:#64b5cd;" x="979.556929" xlink:href="#m630123cc1b" y="290.249743"/>
     <use style="fill:#64b5cd;stroke:#64b5cd;" x="927.060563" xlink:href="#m630123cc1b" y="297.076768"/>
     <use style="fill:#64b5cd;stroke:#64b5cd;" x="201.451335" xlink:href="#m630123cc1b" y="532.741094"/>
     <use style="fill:#64b5cd;stroke:#64b5cd;" x="193.339217" xlink:href="#m630123cc1b" y="535.843736"/>
     <use style="fill:#64b5cd;stroke:#64b5cd;" x="928.981162" xlink:href="#m630123cc1b" y="225.875239"/>
     <use style="fill:#64b5cd;stroke:#64b5cd;" x="328.184544" xlink:href="#m630123cc1b" y="483.96073"/>
     <use style="fill:#64b5cd;stroke:#64b5cd;" x="928.612828" xlink:href="#m630123cc1b" y="230.708121"/>
     <use style="fill:#64b5cd;stroke:#64b5cd;" x="932.7522" xlink:href="#m630123cc1b" y="253.873656"/>
     <use style="fill:#64b5cd;stroke:#64b5cd;" x="244.502565" xlink:href="#m630123cc1b" y="510.020559"/>
     <use style="fill:#64b5cd;stroke:#64b5cd;" x="899.672298" xlink:href="#m630123cc1b" y="368.1761"/>
     <use style="fill:#64b5cd;stroke:#64b5cd;" x="262.296606" xlink:href="#m630123cc1b" y="510.404113"/>
     <use style="fill:#64b5cd;stroke:#64b5cd;" x="888.464421" xlink:href="#m630123cc1b" y="336.34726"/>
     <use style="fill:#64b5cd;stroke:#64b5cd;" x="232.189686" xlink:href="#m630123cc1b" y="515.043102"/>
     <use style="fill:#64b5cd;stroke:#64b5cd;" x="764.530605" xlink:href="#m630123cc1b" y="407.620961"/>
     <use style="fill:#64b5cd;stroke:#64b5cd;" x="154.977237" xlink:href="#m630123cc1b" y="559.895929"/>
     <use style="fill:#64b5cd;stroke:#64b5cd;" x="170.221873" xlink:href="#m630123cc1b" y="549.53213"/>
     <use style="fill:#64b5cd;stroke:#64b5cd;" x="500.301764" xlink:href="#m630123cc1b" y="441.984264"/>
     <use style="fill:#64b5cd;stroke:#64b5cd;" x="886.456123" xlink:href="#m630123cc1b" y="128.71203"/>
     <use style="fill:#64b5cd;stroke:#64b5cd;" x="882.421989" xlink:href="#m630123cc1b" y="168.831368"/>
     <use style="fill:#64b5cd;stroke:#64b5cd;" x="259.990133" xlink:href="#m630123cc1b" y="511.94891"/>
     <use style="fill:#64b5cd;stroke:#64b5cd;" x="907.517028" xlink:href="#m630123cc1b" y="316.127539"/>
     <use style="fill:#64b5cd;stroke:#64b5cd;" x="154.225654" xlink:href="#m630123cc1b" y="560.170035"/>
     <use style="fill:#64b5cd;stroke:#64b5cd;" x="958.202326" xlink:href="#m630123cc1b" y="249.204713"/>
     <use style="fill:#64b5cd;stroke:#64b5cd;" x="217.526484" xlink:href="#m630123cc1b" y="526.399283"/>
     <use style="fill:#64b5cd;stroke:#64b5cd;" x="295.315119" xlink:href="#m630123cc1b" y="497.821627"/>
     <use style="fill:#64b5cd;stroke:#64b5cd;" x="924.394526" xlink:href="#m630123cc1b" y="159.787081"/>
     <use style="fill:#64b5cd;stroke:#64b5cd;" x="196.552857" xlink:href="#m630123cc1b" y="530.252857"/>
     <use style="fill:#64b5cd;stroke:#64b5cd;" x="469.019683" xlink:href="#m630123cc1b" y="455.051678"/>
     <use style="fill:#64b5cd;stroke:#64b5cd;" x="842.985275" xlink:href="#m630123cc1b" y="155.896901"/>
     <use style="fill:#64b5cd;stroke:#64b5cd;" x="889.499264" xlink:href="#m630123cc1b" y="195.917543"/>
     <use style="fill:#64b5cd;stroke:#64b5cd;" x="666.402863" xlink:href="#m630123cc1b" y="418.259822"/>
     <use style="fill:#64b5cd;stroke:#64b5cd;" x="880.475081" xlink:href="#m630123cc1b" y="375.437651"/>
     <use style="fill:#64b5cd;stroke:#64b5cd;" x="262.463233" xlink:href="#m630123cc1b" y="504.925521"/>
     <use style="fill:#64b5cd;stroke:#64b5cd;" x="987.358722" xlink:href="#m630123cc1b" y="306.382813"/>
     <use style="fill:#64b5cd;stroke:#64b5cd;" x="928.43743" xlink:href="#m630123cc1b" y="349.336788"/>
     <use style="fill:#64b5cd;stroke:#64b5cd;" x="166.205279" xlink:href="#m630123cc1b" y="548.65837"/>
     <use style="fill:#64b5cd;stroke:#64b5cd;" x="891.270775" xlink:href="#m630123cc1b" y="218.018118"/>
     <use style="fill:#64b5cd;stroke:#64b5cd;" x="919.150151" xlink:href="#m630123cc1b" y="176.997413"/>
     <use style="fill:#64b5cd;stroke:#64b5cd;" x="621.281947" xlink:href="#m630123cc1b" y="427.794042"/>
     <use style="fill:#64b5cd;stroke:#64b5cd;" x="888.753826" xlink:href="#m630123cc1b" y="221.254241"/>
     <use style="fill:#64b5cd;stroke:#64b5cd;" x="916.036852" xlink:href="#m630123cc1b" y="285.909389"/>
     <use style="fill:#64b5cd;stroke:#64b5cd;" x="364.026951" xlink:href="#m630123cc1b" y="478.725996"/>
     <use style="fill:#64b5cd;stroke:#64b5cd;" x="863.259851" xlink:href="#m630123cc1b" y="115.196682"/>
     <use style="fill:#64b5cd;stroke:#64b5cd;" x="532.177668" xlink:href="#m630123cc1b" y="439.662047"/>
     <use style="fill:#64b5cd;stroke:#64b5cd;" x="949.169373" xlink:href="#m630123cc1b" y="197.393204"/>
     <use style="fill:#64b5cd;stroke:#64b5cd;" x="889.201089" xlink:href="#m630123cc1b" y="309.003644"/>
     <use style="fill:#64b5cd;stroke:#64b5cd;" x="325.422039" xlink:href="#m630123cc1b" y="486.406636"/>
     <use style="fill:#64b5cd;stroke:#64b5cd;" x="200.775381" xlink:href="#m630123cc1b" y="535.186789"/>
     <use style="fill:#64b5cd;stroke:#64b5cd;" x="928.928542" xlink:href="#m630123cc1b" y="185.035791"/>
     <use style="fill:#64b5cd;stroke:#64b5cd;" x="530.224518" xlink:href="#m630123cc1b" y="435.381157"/>
     <use style="fill:#64b5cd;stroke:#64b5cd;" x="956.071251" xlink:href="#m630123cc1b" y="279.531461"/>
     <use style="fill:#64b5cd;stroke:#64b5cd;" x="867.986804" xlink:href="#m630123cc1b" y="147.21703"/>
     <use style="fill:#64b5cd;stroke:#64b5cd;" x="815.507977" xlink:href="#m630123cc1b" y="399.576233"/>
     <use style="fill:#64b5cd;stroke:#64b5cd;" x="241.371726" xlink:href="#m630123cc1b" y="521.24565"/>
     <use style="fill:#64b5cd;stroke:#64b5cd;" x="426.319248" xlink:href="#m630123cc1b" y="460.719504"/>
     <use style="fill:#64b5cd;stroke:#64b5cd;" x="197.136566" xlink:href="#m630123cc1b" y="533.975427"/>
    </g>
   </g>
   <g id="line2d_15">
    <defs>
     <path d="M -5 0 
L 5 0 
M 0 5 
L 0 -5 
" id="m7ab935d2cb" style="stroke:#8172b3;"/>
    </defs>
    <g clip-path="url(#p216458b3f5)">
     <use style="fill:#8172b3;stroke:#8172b3;" x="879.212221" xlink:href="#m7ab935d2cb" y="152.703583"/>
     <use style="fill:#8172b3;stroke:#8172b3;" x="972.514733" xlink:href="#m7ab935d2cb" y="300.197043"/>
     <use style="fill:#8172b3;stroke:#8172b3;" x="232.466256" xlink:href="#m7ab935d2cb" y="516.346741"/>
     <use style="fill:#8172b3;stroke:#8172b3;" x="345.04898" xlink:href="#m7ab935d2cb" y="482.704922"/>
     <use style="fill:#8172b3;stroke:#8172b3;" x="776.557336" xlink:href="#m7ab935d2cb" y="404.966677"/>
     <use style="fill:#8172b3;stroke:#8172b3;" x="642.656802" xlink:href="#m7ab935d2cb" y="425.942621"/>
     <use style="fill:#8172b3;stroke:#8172b3;" x="859.094168" xlink:href="#m7ab935d2cb" y="377.663858"/>
     <use style="fill:#8172b3;stroke:#8172b3;" x="195.794778" xlink:href="#m7ab935d2cb" y="540.876775"/>
     <use style="fill:#8172b3;stroke:#8172b3;" x="584.474855" xlink:href="#m7ab935d2cb" y="429.396047"/>
     <use style="fill:#8172b3;stroke:#8172b3;" x="988.475874" xlink:href="#m7ab935d2cb" y="304.693845"/>
     <use style="fill:#8172b3;stroke:#8172b3;" x="361.536312" xlink:href="#m7ab935d2cb" y="467.972679"/>
     <use style="fill:#8172b3;stroke:#8172b3;" x="945.942066" xlink:href="#m7ab935d2cb" y="111.109091"/>
     <use style="fill:#8172b3;stroke:#8172b3;" x="947.810045" xlink:href="#m7ab935d2cb" y="201.663342"/>
     <use style="fill:#8172b3;stroke:#8172b3;" x="386.635643" xlink:href="#m7ab935d2cb" y="466.818914"/>
     <use style="fill:#8172b3;stroke:#8172b3;" x="157.409112" xlink:href="#m7ab935d2cb" y="550.945666"/>
     <use style="fill:#8172b3;stroke:#8172b3;" x="669.489852" xlink:href="#m7ab935d2cb" y="416.65514"/>
     <use style="fill:#8172b3;stroke:#8172b3;" x="905.287254" xlink:href="#m7ab935d2cb" y="316.529985"/>
     <use style="fill:#8172b3;stroke:#8172b3;" x="895.059353" xlink:href="#m7ab935d2cb" y="343.618395"/>
     <use style="fill:#8172b3;stroke:#8172b3;" x="834.275472" xlink:href="#m7ab935d2cb" y="390.241154"/>
     <use style="fill:#8172b3;stroke:#8172b3;" x="928.253263" xlink:href="#m7ab935d2cb" y="229.544384"/>
     <use style="fill:#8172b3;stroke:#8172b3;" x="184.525511" xlink:href="#m7ab935d2cb" y="539.344072"/>
     <use style="fill:#8172b3;stroke:#8172b3;" x="984.880232" xlink:href="#m7ab935d2cb" y="332.935142"/>
     <use style="fill:#8172b3;stroke:#8172b3;" x="917.454444" xlink:href="#m7ab935d2cb" y="262.786076"/>
     <use style="fill:#8172b3;stroke:#8172b3;" x="162.881503" xlink:href="#m7ab935d2cb" y="556.01648"/>
     <use style="fill:#8172b3;stroke:#8172b3;" x="935.005482" xlink:href="#m7ab935d2cb" y="328.330888"/>
     <use style="fill:#8172b3;stroke:#8172b3;" x="899.777537" xlink:href="#m7ab935d2cb" y="323.838874"/>
     <use style="fill:#8172b3;stroke:#8172b3;" x="144" xlink:href="#m7ab935d2cb" y="551.728857"/>
     <use style="fill:#8172b3;stroke:#8172b3;" x="442.161534" xlink:href="#m7ab935d2cb" y="458.120781"/>
     <use style="fill:#8172b3;stroke:#8172b3;" x="989.186232" xlink:href="#m7ab935d2cb" y="172.402101"/>
     <use style="fill:#8172b3;stroke:#8172b3;" x="400.313776" xlink:href="#m7ab935d2cb" y="465.707723"/>
     <use style="fill:#8172b3;stroke:#8172b3;" x="186.568888" xlink:href="#m7ab935d2cb" y="537.522373"/>
     <use style="fill:#8172b3;stroke:#8172b3;" x="262.270296" xlink:href="#m7ab935d2cb" y="508.506476"/>
     <use style="fill:#8172b3;stroke:#8172b3;" x="153.260969" xlink:href="#m7ab935d2cb" y="558.163669"/>
     <use style="fill:#8172b3;stroke:#8172b3;" x="340.944687" xlink:href="#m7ab935d2cb" y="480.713436"/>
     <use style="fill:#8172b3;stroke:#8172b3;" x="861.084926" xlink:href="#m7ab935d2cb" y="214.916686"/>
     <use style="fill:#8172b3;stroke:#8172b3;" x="342.330324" xlink:href="#m7ab935d2cb" y="491.284354"/>
     <use style="fill:#8172b3;stroke:#8172b3;" x="246.69503" xlink:href="#m7ab935d2cb" y="517.533791"/>
     <use style="fill:#8172b3;stroke:#8172b3;" x="955.48367" xlink:href="#m7ab935d2cb" y="240.667349"/>
     <use style="fill:#8172b3;stroke:#8172b3;" x="955.158685" xlink:href="#m7ab935d2cb" y="302.494225"/>
     <use style="fill:#8172b3;stroke:#8172b3;" x="435.164961" xlink:href="#m7ab935d2cb" y="456.841759"/>
     <use style="fill:#8172b3;stroke:#8172b3;" x="821.795965" xlink:href="#m7ab935d2cb" y="393.157171"/>
     <use style="fill:#8172b3;stroke:#8172b3;" x="402.772181" xlink:href="#m7ab935d2cb" y="461.907953"/>
     <use style="fill:#8172b3;stroke:#8172b3;" x="149.068978" xlink:href="#m7ab935d2cb" y="561.629298"/>
     <use style="fill:#8172b3;stroke:#8172b3;" x="223.375979" xlink:href="#m7ab935d2cb" y="523.119804"/>
     <use style="fill:#8172b3;stroke:#8172b3;" x="225.226419" xlink:href="#m7ab935d2cb" y="525.939847"/>
     <use style="fill:#8172b3;stroke:#8172b3;" x="874.748364" xlink:href="#m7ab935d2cb" y="283.178206"/>
     <use style="fill:#8172b3;stroke:#8172b3;" x="490.004247" xlink:href="#m7ab935d2cb" y="447.20533"/>
     <use style="fill:#8172b3;stroke:#8172b3;" x="537.763941" xlink:href="#m7ab935d2cb" y="438.230977"/>
     <use style="fill:#8172b3;stroke:#8172b3;" x="934.61141" xlink:href="#m7ab935d2cb" y="265.120257"/>
     <use style="fill:#8172b3;stroke:#8172b3;" x="379.093566" xlink:href="#m7ab935d2cb" y="470.16892"/>
    </g>
   </g>
   <g id="line2d_16">
    <path clip-path="url(#p216458b3f5)" d="M 144 605.290909 
L 1036.8 192.167451 
" style="fill:none;stroke:#c44e52;stroke-linecap:round;stroke-width:1.5;"/>
   </g>
   <g id="patch_3">
    <path d="M 144 630 
L 144 86.4 
" style="fill:none;stroke:#cccccc;stroke-linecap:square;stroke-linejoin:miter;stroke-width:1.25;"/>
   </g>
   <g id="patch_4">
    <path d="M 1036.8 630 
L 1036.8 86.4 
" style="fill:none;stroke:#cccccc;stroke-linecap:square;stroke-linejoin:miter;stroke-width:1.25;"/>
   </g>
   <g id="patch_5">
    <path d="M 144 630 
L 1036.8 630 
" style="fill:none;stroke:#cccccc;stroke-linecap:square;stroke-linejoin:miter;stroke-width:1.25;"/>
   </g>
   <g id="patch_6">
    <path d="M 144 86.4 
L 1036.8 86.4 
" style="fill:none;stroke:#cccccc;stroke-linecap:square;stroke-linejoin:miter;stroke-width:1.25;"/>
   </g>
  </g>
 </g>
 <defs>
  <clipPath id="p216458b3f5">
   <rect height="543.6" width="892.8" x="144" y="86.4"/>
  </clipPath>
 </defs>
</svg>
