<?xml version="1.0" encoding="utf-8" standalone="no"?>
<!DOCTYPE svg PUBLIC "-//W3C//DTD SVG 1.1//EN"
  "http://www.w3.org/Graphics/SVG/1.1/DTD/svg11.dtd">
<!-- Created with matplotlib (https://matplotlib.org/) -->
<svg height="720pt" version="1.1" viewBox="0 0 1152 720" width="1152pt" xmlns="http://www.w3.org/2000/svg" xmlns:xlink="http://www.w3.org/1999/xlink">
 <defs>
  <style type="text/css">
*{stroke-linecap:butt;stroke-linejoin:round;}
  </style>
 </defs>
 <g id="figure_1">
  <g id="patch_1">
   <path d="M 0 720 
L 1152 720 
L 1152 0 
L 0 0 
z
" style="fill:#ffffff;"/>
  </g>
  <g id="axes_1">
   <g id="patch_2">
    <path d="M 144 630 
L 1036.8 630 
L 1036.8 86.4 
L 144 86.4 
z
" style="fill:#ffffff;"/>
   </g>
   <g id="matplotlib.axis_1">
    <g id="xtick_1">
     <g id="line2d_1">
      <path clip-path="url(#peeabd64200)" d="M 144.019639 630 
L 144.019639 86.4 
" style="fill:none;stroke:#cccccc;stroke-linecap:round;"/>
     </g>
     <g id="text_1">
      <!-- 0 -->
      <defs>
       <path d="M 4.15625 35.296875 
Q 4.15625 48 6.765625 55.734375 
Q 9.375 63.484375 14.515625 67.671875 
Q 19.671875 71.875 27.484375 71.875 
Q 33.25 71.875 37.59375 69.546875 
Q 41.9375 67.234375 44.765625 62.859375 
Q 47.609375 58.5 49.21875 52.21875 
Q 50.828125 45.953125 50.828125 35.296875 
Q 50.828125 22.703125 48.234375 14.96875 
Q 45.65625 7.234375 40.5 3 
Q 35.359375 -1.21875 27.484375 -1.21875 
Q 17.140625 -1.21875 11.234375 6.203125 
Q 4.15625 15.140625 4.15625 35.296875 
z
M 13.1875 35.296875 
Q 13.1875 17.671875 17.3125 11.828125 
Q 21.4375 6 27.484375 6 
Q 33.546875 6 37.671875 11.859375 
Q 41.796875 17.71875 41.796875 35.296875 
Q 41.796875 52.984375 37.671875 58.78125 
Q 33.546875 64.59375 27.390625 64.59375 
Q 21.34375 64.59375 17.71875 59.46875 
Q 13.1875 52.9375 13.1875 35.296875 
z
" id="ArialMT-48"/>
      </defs>
      <g style="fill:#262626;" transform="translate(137.902608 655.247187)scale(0.22 -0.22)">
       <use xlink:href="#ArialMT-48"/>
      </g>
     </g>
    </g>
    <g id="xtick_2">
     <g id="line2d_2">
      <path clip-path="url(#peeabd64200)" d="M 284.291754 630 
L 284.291754 86.4 
" style="fill:none;stroke:#cccccc;stroke-linecap:round;"/>
     </g>
     <g id="text_2">
      <!-- 20 -->
      <defs>
       <path d="M 50.34375 8.453125 
L 50.34375 0 
L 3.03125 0 
Q 2.9375 3.171875 4.046875 6.109375 
Q 5.859375 10.9375 9.828125 15.625 
Q 13.8125 20.3125 21.34375 26.46875 
Q 33.015625 36.03125 37.109375 41.625 
Q 41.21875 47.21875 41.21875 52.203125 
Q 41.21875 57.421875 37.46875 61 
Q 33.734375 64.59375 27.734375 64.59375 
Q 21.390625 64.59375 17.578125 60.78125 
Q 13.765625 56.984375 13.71875 50.25 
L 4.6875 51.171875 
Q 5.609375 61.28125 11.65625 66.578125 
Q 17.71875 71.875 27.9375 71.875 
Q 38.234375 71.875 44.234375 66.15625 
Q 50.25 60.453125 50.25 52 
Q 50.25 47.703125 48.484375 43.546875 
Q 46.734375 39.40625 42.65625 34.8125 
Q 38.578125 30.21875 29.109375 22.21875 
Q 21.1875 15.578125 18.9375 13.203125 
Q 16.703125 10.84375 15.234375 8.453125 
z
" id="ArialMT-50"/>
      </defs>
      <g style="fill:#262626;" transform="translate(272.057691 655.247187)scale(0.22 -0.22)">
       <use xlink:href="#ArialMT-50"/>
       <use x="55.615234" xlink:href="#ArialMT-48"/>
      </g>
     </g>
    </g>
    <g id="xtick_3">
     <g id="line2d_3">
      <path clip-path="url(#peeabd64200)" d="M 424.563868 630 
L 424.563868 86.4 
" style="fill:none;stroke:#cccccc;stroke-linecap:round;"/>
     </g>
     <g id="text_3">
      <!-- 40 -->
      <defs>
       <path d="M 32.328125 0 
L 32.328125 17.140625 
L 1.265625 17.140625 
L 1.265625 25.203125 
L 33.9375 71.578125 
L 41.109375 71.578125 
L 41.109375 25.203125 
L 50.78125 25.203125 
L 50.78125 17.140625 
L 41.109375 17.140625 
L 41.109375 0 
z
M 32.328125 25.203125 
L 32.328125 57.46875 
L 9.90625 25.203125 
z
" id="ArialMT-52"/>
      </defs>
      <g style="fill:#262626;" transform="translate(412.329806 655.247187)scale(0.22 -0.22)">
       <use xlink:href="#ArialMT-52"/>
       <use x="55.615234" xlink:href="#ArialMT-48"/>
      </g>
     </g>
    </g>
    <g id="xtick_4">
     <g id="line2d_4">
      <path clip-path="url(#peeabd64200)" d="M 564.835983 630 
L 564.835983 86.4 
" style="fill:none;stroke:#cccccc;stroke-linecap:round;"/>
     </g>
     <g id="text_4">
      <!-- 60 -->
      <defs>
       <path d="M 49.75 54.046875 
L 41.015625 53.375 
Q 39.84375 58.546875 37.703125 60.890625 
Q 34.125 64.65625 28.90625 64.65625 
Q 24.703125 64.65625 21.53125 62.3125 
Q 17.390625 59.28125 14.984375 53.46875 
Q 12.59375 47.65625 12.5 36.921875 
Q 15.671875 41.75 20.265625 44.09375 
Q 24.859375 46.4375 29.890625 46.4375 
Q 38.671875 46.4375 44.84375 39.96875 
Q 51.03125 33.5 51.03125 23.25 
Q 51.03125 16.5 48.125 10.71875 
Q 45.21875 4.9375 40.140625 1.859375 
Q 35.0625 -1.21875 28.609375 -1.21875 
Q 17.625 -1.21875 10.6875 6.859375 
Q 3.765625 14.9375 3.765625 33.5 
Q 3.765625 54.25 11.421875 63.671875 
Q 18.109375 71.875 29.4375 71.875 
Q 37.890625 71.875 43.28125 67.140625 
Q 48.6875 62.40625 49.75 54.046875 
z
M 13.875 23.1875 
Q 13.875 18.65625 15.796875 14.5 
Q 17.71875 10.359375 21.1875 8.171875 
Q 24.65625 6 28.46875 6 
Q 34.03125 6 38.03125 10.484375 
Q 42.046875 14.984375 42.046875 22.703125 
Q 42.046875 30.125 38.078125 34.390625 
Q 34.125 38.671875 28.125 38.671875 
Q 22.171875 38.671875 18.015625 34.390625 
Q 13.875 30.125 13.875 23.1875 
z
" id="ArialMT-54"/>
      </defs>
      <g style="fill:#262626;" transform="translate(552.60192 655.247187)scale(0.22 -0.22)">
       <use xlink:href="#ArialMT-54"/>
       <use x="55.615234" xlink:href="#ArialMT-48"/>
      </g>
     </g>
    </g>
    <g id="xtick_5">
     <g id="line2d_5">
      <path clip-path="url(#peeabd64200)" d="M 705.108097 630 
L 705.108097 86.4 
" style="fill:none;stroke:#cccccc;stroke-linecap:round;"/>
     </g>
     <g id="text_5">
      <!-- 80 -->
      <defs>
       <path d="M 17.671875 38.8125 
Q 12.203125 40.828125 9.5625 44.53125 
Q 6.9375 48.25 6.9375 53.421875 
Q 6.9375 61.234375 12.546875 66.546875 
Q 18.171875 71.875 27.484375 71.875 
Q 36.859375 71.875 42.578125 66.421875 
Q 48.296875 60.984375 48.296875 53.171875 
Q 48.296875 48.1875 45.671875 44.5 
Q 43.0625 40.828125 37.75 38.8125 
Q 44.34375 36.671875 47.78125 31.875 
Q 51.21875 27.09375 51.21875 20.453125 
Q 51.21875 11.28125 44.71875 5.03125 
Q 38.234375 -1.21875 27.640625 -1.21875 
Q 17.046875 -1.21875 10.546875 5.046875 
Q 4.046875 11.328125 4.046875 20.703125 
Q 4.046875 27.6875 7.59375 32.390625 
Q 11.140625 37.109375 17.671875 38.8125 
z
M 15.921875 53.71875 
Q 15.921875 48.640625 19.1875 45.40625 
Q 22.46875 42.1875 27.6875 42.1875 
Q 32.765625 42.1875 36.015625 45.375 
Q 39.265625 48.578125 39.265625 53.21875 
Q 39.265625 58.0625 35.90625 61.359375 
Q 32.5625 64.65625 27.59375 64.65625 
Q 22.5625 64.65625 19.234375 61.421875 
Q 15.921875 58.203125 15.921875 53.71875 
z
M 13.09375 20.65625 
Q 13.09375 16.890625 14.875 13.375 
Q 16.65625 9.859375 20.171875 7.921875 
Q 23.6875 6 27.734375 6 
Q 34.03125 6 38.125 10.046875 
Q 42.234375 14.109375 42.234375 20.359375 
Q 42.234375 26.703125 38.015625 30.859375 
Q 33.796875 35.015625 27.4375 35.015625 
Q 21.234375 35.015625 17.15625 30.90625 
Q 13.09375 26.8125 13.09375 20.65625 
z
" id="ArialMT-56"/>
      </defs>
      <g style="fill:#262626;" transform="translate(692.874035 655.247187)scale(0.22 -0.22)">
       <use xlink:href="#ArialMT-56"/>
       <use x="55.615234" xlink:href="#ArialMT-48"/>
      </g>
     </g>
    </g>
    <g id="xtick_6">
     <g id="line2d_6">
      <path clip-path="url(#peeabd64200)" d="M 845.380212 630 
L 845.380212 86.4 
" style="fill:none;stroke:#cccccc;stroke-linecap:round;"/>
     </g>
     <g id="text_6">
      <!-- 100 -->
      <defs>
       <path d="M 37.25 0 
L 28.46875 0 
L 28.46875 56 
Q 25.296875 52.984375 20.140625 49.953125 
Q 14.984375 46.921875 10.890625 45.40625 
L 10.890625 53.90625 
Q 18.265625 57.375 23.78125 62.296875 
Q 29.296875 67.234375 31.59375 71.875 
L 37.25 71.875 
z
" id="ArialMT-49"/>
      </defs>
      <g style="fill:#262626;" transform="translate(827.029118 655.247187)scale(0.22 -0.22)">
       <use xlink:href="#ArialMT-49"/>
       <use x="55.615234" xlink:href="#ArialMT-48"/>
       <use x="111.230469" xlink:href="#ArialMT-48"/>
      </g>
     </g>
    </g>
    <g id="xtick_7">
     <g id="line2d_7">
      <path clip-path="url(#peeabd64200)" d="M 985.652327 630 
L 985.652327 86.4 
" style="fill:none;stroke:#cccccc;stroke-linecap:round;"/>
     </g>
     <g id="text_7">
      <!-- 120 -->
      <g style="fill:#262626;" transform="translate(967.301233 655.247187)scale(0.22 -0.22)">
       <use xlink:href="#ArialMT-49"/>
       <use x="55.615234" xlink:href="#ArialMT-50"/>
       <use x="111.230469" xlink:href="#ArialMT-48"/>
      </g>
     </g>
    </g>
    <g id="text_8">
     <!-- Sample -->
     <defs>
      <path d="M 4.5 23 
L 13.421875 23.78125 
Q 14.0625 18.40625 16.375 14.96875 
Q 18.703125 11.53125 23.578125 9.40625 
Q 28.46875 7.28125 34.578125 7.28125 
Q 39.984375 7.28125 44.140625 8.890625 
Q 48.296875 10.5 50.3125 13.296875 
Q 52.34375 16.109375 52.34375 19.4375 
Q 52.34375 22.796875 50.390625 25.3125 
Q 48.4375 27.828125 43.953125 29.546875 
Q 41.0625 30.671875 31.203125 33.03125 
Q 21.34375 35.40625 17.390625 37.5 
Q 12.25 40.1875 9.734375 44.15625 
Q 7.234375 48.140625 7.234375 53.078125 
Q 7.234375 58.5 10.296875 63.203125 
Q 13.375 67.921875 19.28125 70.359375 
Q 25.203125 72.796875 32.421875 72.796875 
Q 40.375 72.796875 46.453125 70.234375 
Q 52.546875 67.671875 55.8125 62.6875 
Q 59.078125 57.71875 59.328125 51.421875 
L 50.25 50.734375 
Q 49.515625 57.515625 45.28125 60.984375 
Q 41.0625 64.453125 32.8125 64.453125 
Q 24.21875 64.453125 20.28125 61.296875 
Q 16.359375 58.15625 16.359375 53.71875 
Q 16.359375 49.859375 19.140625 47.359375 
Q 21.875 44.875 33.421875 42.265625 
Q 44.96875 39.65625 49.265625 37.703125 
Q 55.515625 34.8125 58.484375 30.390625 
Q 61.46875 25.984375 61.46875 20.21875 
Q 61.46875 14.5 58.203125 9.4375 
Q 54.9375 4.390625 48.796875 1.578125 
Q 42.671875 -1.21875 35.015625 -1.21875 
Q 25.296875 -1.21875 18.71875 1.609375 
Q 12.15625 4.4375 8.421875 10.125 
Q 4.6875 15.828125 4.5 23 
z
" id="ArialMT-83"/>
      <path d="M 40.4375 6.390625 
Q 35.546875 2.25 31.03125 0.53125 
Q 26.515625 -1.171875 21.34375 -1.171875 
Q 12.796875 -1.171875 8.203125 3 
Q 3.609375 7.171875 3.609375 13.671875 
Q 3.609375 17.484375 5.34375 20.625 
Q 7.078125 23.78125 9.890625 25.6875 
Q 12.703125 27.59375 16.21875 28.5625 
Q 18.796875 29.25 24.03125 29.890625 
Q 34.671875 31.15625 39.703125 32.90625 
Q 39.75 34.71875 39.75 35.203125 
Q 39.75 40.578125 37.25 42.78125 
Q 33.890625 45.75 27.25 45.75 
Q 21.046875 45.75 18.09375 43.578125 
Q 15.140625 41.40625 13.71875 35.890625 
L 5.125 37.0625 
Q 6.296875 42.578125 8.984375 45.96875 
Q 11.671875 49.359375 16.75 51.1875 
Q 21.828125 53.03125 28.515625 53.03125 
Q 35.15625 53.03125 39.296875 51.46875 
Q 43.453125 49.90625 45.40625 47.53125 
Q 47.359375 45.171875 48.140625 41.546875 
Q 48.578125 39.3125 48.578125 33.453125 
L 48.578125 21.734375 
Q 48.578125 9.46875 49.140625 6.21875 
Q 49.703125 2.984375 51.375 0 
L 42.1875 0 
Q 40.828125 2.734375 40.4375 6.390625 
z
M 39.703125 26.03125 
Q 34.90625 24.078125 25.34375 22.703125 
Q 19.921875 21.921875 17.671875 20.9375 
Q 15.4375 19.96875 14.203125 18.09375 
Q 12.984375 16.21875 12.984375 13.921875 
Q 12.984375 10.40625 15.640625 8.0625 
Q 18.3125 5.71875 23.4375 5.71875 
Q 28.515625 5.71875 32.46875 7.9375 
Q 36.421875 10.15625 38.28125 14.015625 
Q 39.703125 17 39.703125 22.796875 
z
" id="ArialMT-97"/>
      <path d="M 6.59375 0 
L 6.59375 51.859375 
L 14.453125 51.859375 
L 14.453125 44.578125 
Q 16.890625 48.390625 20.9375 50.703125 
Q 25 53.03125 30.171875 53.03125 
Q 35.9375 53.03125 39.625 50.640625 
Q 43.3125 48.25 44.828125 43.953125 
Q 50.984375 53.03125 60.84375 53.03125 
Q 68.5625 53.03125 72.703125 48.75 
Q 76.859375 44.484375 76.859375 35.59375 
L 76.859375 0 
L 68.109375 0 
L 68.109375 32.671875 
Q 68.109375 37.9375 67.25 40.25 
Q 66.40625 42.578125 64.15625 43.984375 
Q 61.921875 45.40625 58.890625 45.40625 
Q 53.421875 45.40625 49.796875 41.765625 
Q 46.1875 38.140625 46.1875 30.125 
L 46.1875 0 
L 37.40625 0 
L 37.40625 33.6875 
Q 37.40625 39.546875 35.25 42.46875 
Q 33.109375 45.40625 28.21875 45.40625 
Q 24.515625 45.40625 21.359375 43.453125 
Q 18.21875 41.5 16.796875 37.734375 
Q 15.375 33.984375 15.375 26.90625 
L 15.375 0 
z
" id="ArialMT-109"/>
      <path d="M 6.59375 -19.875 
L 6.59375 51.859375 
L 14.59375 51.859375 
L 14.59375 45.125 
Q 17.4375 49.078125 21 51.046875 
Q 24.5625 53.03125 29.640625 53.03125 
Q 36.28125 53.03125 41.359375 49.609375 
Q 46.4375 46.1875 49.015625 39.953125 
Q 51.609375 33.734375 51.609375 26.3125 
Q 51.609375 18.359375 48.75 11.984375 
Q 45.90625 5.609375 40.453125 2.21875 
Q 35.015625 -1.171875 29 -1.171875 
Q 24.609375 -1.171875 21.109375 0.6875 
Q 17.625 2.546875 15.375 5.375 
L 15.375 -19.875 
z
M 14.546875 25.640625 
Q 14.546875 15.625 18.59375 10.84375 
Q 22.65625 6.0625 28.421875 6.0625 
Q 34.28125 6.0625 38.453125 11.015625 
Q 42.625 15.96875 42.625 26.375 
Q 42.625 36.28125 38.546875 41.203125 
Q 34.46875 46.140625 28.8125 46.140625 
Q 23.1875 46.140625 18.859375 40.890625 
Q 14.546875 35.640625 14.546875 25.640625 
z
" id="ArialMT-112"/>
      <path d="M 6.390625 0 
L 6.390625 71.578125 
L 15.1875 71.578125 
L 15.1875 0 
z
" id="ArialMT-108"/>
      <path d="M 42.09375 16.703125 
L 51.171875 15.578125 
Q 49.03125 7.625 43.21875 3.21875 
Q 37.40625 -1.171875 28.375 -1.171875 
Q 17 -1.171875 10.328125 5.828125 
Q 3.65625 12.84375 3.65625 25.484375 
Q 3.65625 38.578125 10.390625 45.796875 
Q 17.140625 53.03125 27.875 53.03125 
Q 38.28125 53.03125 44.875 45.953125 
Q 51.46875 38.875 51.46875 26.03125 
Q 51.46875 25.25 51.421875 23.6875 
L 12.75 23.6875 
Q 13.234375 15.140625 17.578125 10.59375 
Q 21.921875 6.0625 28.421875 6.0625 
Q 33.25 6.0625 36.671875 8.59375 
Q 40.09375 11.140625 42.09375 16.703125 
z
M 13.234375 30.90625 
L 42.1875 30.90625 
Q 41.609375 37.453125 38.875 40.71875 
Q 34.671875 45.796875 27.984375 45.796875 
Q 21.921875 45.796875 17.796875 41.75 
Q 13.671875 37.703125 13.234375 30.90625 
z
" id="ArialMT-101"/>
     </defs>
     <g style="fill:#262626;" transform="translate(549.714375 681.090937)scale(0.24 -0.24)">
      <use xlink:href="#ArialMT-83"/>
      <use x="66.699219" xlink:href="#ArialMT-97"/>
      <use x="122.314453" xlink:href="#ArialMT-109"/>
      <use x="205.615234" xlink:href="#ArialMT-112"/>
      <use x="261.230469" xlink:href="#ArialMT-108"/>
      <use x="283.447266" xlink:href="#ArialMT-101"/>
     </g>
    </g>
   </g>
   <g id="matplotlib.axis_2">
    <g id="ytick_1">
     <g id="line2d_8">
      <path clip-path="url(#peeabd64200)" d="M 144 622.835862 
L 1036.8 622.835862 
" style="fill:none;stroke:#cccccc;stroke-linecap:round;"/>
     </g>
     <g id="text_9">
      <!-- 60 -->
      <g style="fill:#262626;" transform="translate(110.031875 630.709456)scale(0.22 -0.22)">
       <use xlink:href="#ArialMT-54"/>
       <use x="55.615234" xlink:href="#ArialMT-48"/>
      </g>
     </g>
    </g>
    <g id="ytick_2">
     <g id="line2d_9">
      <path clip-path="url(#peeabd64200)" d="M 144 503.865108 
L 1036.8 503.865108 
" style="fill:none;stroke:#cccccc;stroke-linecap:round;"/>
     </g>
     <g id="text_10">
      <!-- 80 -->
      <g style="fill:#262626;" transform="translate(110.031875 511.738702)scale(0.22 -0.22)">
       <use xlink:href="#ArialMT-56"/>
       <use x="55.615234" xlink:href="#ArialMT-48"/>
      </g>
     </g>
    </g>
    <g id="ytick_3">
     <g id="line2d_10">
      <path clip-path="url(#peeabd64200)" d="M 144 384.894353 
L 1036.8 384.894353 
" style="fill:none;stroke:#cccccc;stroke-linecap:round;"/>
     </g>
     <g id="text_11">
      <!-- 100 -->
      <g style="fill:#262626;" transform="translate(97.797812 392.767947)scale(0.22 -0.22)">
       <use xlink:href="#ArialMT-49"/>
       <use x="55.615234" xlink:href="#ArialMT-48"/>
       <use x="111.230469" xlink:href="#ArialMT-48"/>
      </g>
     </g>
    </g>
    <g id="ytick_4">
     <g id="line2d_11">
      <path clip-path="url(#peeabd64200)" d="M 144 265.923599 
L 1036.8 265.923599 
" style="fill:none;stroke:#cccccc;stroke-linecap:round;"/>
     </g>
     <g id="text_12">
      <!-- 120 -->
      <g style="fill:#262626;" transform="translate(97.797812 273.797192)scale(0.22 -0.22)">
       <use xlink:href="#ArialMT-49"/>
       <use x="55.615234" xlink:href="#ArialMT-50"/>
       <use x="111.230469" xlink:href="#ArialMT-48"/>
      </g>
     </g>
    </g>
    <g id="ytick_5">
     <g id="line2d_12">
      <path clip-path="url(#peeabd64200)" d="M 144 146.952844 
L 1036.8 146.952844 
" style="fill:none;stroke:#cccccc;stroke-linecap:round;"/>
     </g>
     <g id="text_13">
      <!-- 140 -->
      <g style="fill:#262626;" transform="translate(97.797812 154.826438)scale(0.22 -0.22)">
       <use xlink:href="#ArialMT-49"/>
       <use x="55.615234" xlink:href="#ArialMT-52"/>
       <use x="111.230469" xlink:href="#ArialMT-48"/>
      </g>
     </g>
    </g>
   </g>
   <g id="line2d_13">
    <defs>
     <path d="M 0 1.25 
C 0.331504 1.25 0.649475 1.118292 0.883883 0.883883 
C 1.118292 0.649475 1.25 0.331504 1.25 0 
C 1.25 -0.331504 1.118292 -0.649475 0.883883 -0.883883 
C 0.649475 -1.118292 0.331504 -1.25 0 -1.25 
C -0.331504 -1.25 -0.649475 -1.118292 -0.883883 -0.883883 
C -1.118292 -0.649475 -1.25 -0.331504 -1.25 0 
C -1.25 0.331504 -1.118292 0.649475 -0.883883 0.883883 
C -0.649475 1.118292 -0.331504 1.25 0 1.25 
z
" id="m0a2a13016d" style="stroke:#1a1a1a;"/>
    </defs>
    <g clip-path="url(#peeabd64200)">
     <use style="fill:#1a1a1a;stroke:#1a1a1a;" x="144.019639" xlink:href="#m0a2a13016d" y="575.864525"/>
     <use style="fill:#1a1a1a;stroke:#1a1a1a;" x="151.033245" xlink:href="#m0a2a13016d" y="354.216648"/>
     <use style="fill:#1a1a1a;stroke:#1a1a1a;" x="158.046851" xlink:href="#m0a2a13016d" y="340.954368"/>
     <use style="fill:#1a1a1a;stroke:#1a1a1a;" x="165.060457" xlink:href="#m0a2a13016d" y="361.022277"/>
     <use style="fill:#1a1a1a;stroke:#1a1a1a;" x="172.074062" xlink:href="#m0a2a13016d" y="217.917676"/>
     <use style="fill:#1a1a1a;stroke:#1a1a1a;" x="179.087668" xlink:href="#m0a2a13016d" y="163.031048"/>
     <use style="fill:#1a1a1a;stroke:#1a1a1a;" x="186.101274" xlink:href="#m0a2a13016d" y="331.541039"/>
     <use style="fill:#1a1a1a;stroke:#1a1a1a;" x="193.114879" xlink:href="#m0a2a13016d" y="231.274239"/>
     <use style="fill:#1a1a1a;stroke:#1a1a1a;" x="200.128485" xlink:href="#m0a2a13016d" y="414.885366"/>
     <use style="fill:#1a1a1a;stroke:#1a1a1a;" x="207.142091" xlink:href="#m0a2a13016d" y="543.096962"/>
     <use style="fill:#1a1a1a;stroke:#1a1a1a;" x="214.155697" xlink:href="#m0a2a13016d" y="198.337538"/>
     <use style="fill:#1a1a1a;stroke:#1a1a1a;" x="221.169302" xlink:href="#m0a2a13016d" y="272.027263"/>
     <use style="fill:#1a1a1a;stroke:#1a1a1a;" x="228.182908" xlink:href="#m0a2a13016d" y="382.266954"/>
     <use style="fill:#1a1a1a;stroke:#1a1a1a;" x="235.196514" xlink:href="#m0a2a13016d" y="605.290909"/>
     <use style="fill:#1a1a1a;stroke:#1a1a1a;" x="242.21012" xlink:href="#m0a2a13016d" y="410.443606"/>
     <use style="fill:#1a1a1a;stroke:#1a1a1a;" x="249.223725" xlink:href="#m0a2a13016d" y="392.829539"/>
     <use style="fill:#1a1a1a;stroke:#1a1a1a;" x="256.237331" xlink:href="#m0a2a13016d" y="214.836694"/>
     <use style="fill:#1a1a1a;stroke:#1a1a1a;" x="263.250937" xlink:href="#m0a2a13016d" y="381.95282"/>
     <use style="fill:#1a1a1a;stroke:#1a1a1a;" x="270.264542" xlink:href="#m0a2a13016d" y="377.829762"/>
     <use style="fill:#1a1a1a;stroke:#1a1a1a;" x="277.278148" xlink:href="#m0a2a13016d" y="578.943177"/>
     <use style="fill:#1a1a1a;stroke:#1a1a1a;" x="284.291754" xlink:href="#m0a2a13016d" y="210.04989"/>
     <use style="fill:#1a1a1a;stroke:#1a1a1a;" x="291.30536" xlink:href="#m0a2a13016d" y="370.057393"/>
     <use style="fill:#1a1a1a;stroke:#1a1a1a;" x="298.318965" xlink:href="#m0a2a13016d" y="299.232712"/>
     <use style="fill:#1a1a1a;stroke:#1a1a1a;" x="305.332571" xlink:href="#m0a2a13016d" y="392.262428"/>
     <use style="fill:#1a1a1a;stroke:#1a1a1a;" x="312.346177" xlink:href="#m0a2a13016d" y="563.07641"/>
     <use style="fill:#1a1a1a;stroke:#1a1a1a;" x="319.359783" xlink:href="#m0a2a13016d" y="335.213517"/>
     <use style="fill:#1a1a1a;stroke:#1a1a1a;" x="326.373388" xlink:href="#m0a2a13016d" y="240.844629"/>
     <use style="fill:#1a1a1a;stroke:#1a1a1a;" x="333.386994" xlink:href="#m0a2a13016d" y="213.142949"/>
     <use style="fill:#1a1a1a;stroke:#1a1a1a;" x="340.4006" xlink:href="#m0a2a13016d" y="406.568562"/>
     <use style="fill:#1a1a1a;stroke:#1a1a1a;" x="347.414205" xlink:href="#m0a2a13016d" y="496.45138"/>
     <use style="fill:#1a1a1a;stroke:#1a1a1a;" x="354.427811" xlink:href="#m0a2a13016d" y="417.646582"/>
     <use style="fill:#1a1a1a;stroke:#1a1a1a;" x="361.441417" xlink:href="#m0a2a13016d" y="207.594842"/>
     <use style="fill:#1a1a1a;stroke:#1a1a1a;" x="368.455023" xlink:href="#m0a2a13016d" y="215.681831"/>
     <use style="fill:#1a1a1a;stroke:#1a1a1a;" x="375.468628" xlink:href="#m0a2a13016d" y="278.615365"/>
     <use style="fill:#1a1a1a;stroke:#1a1a1a;" x="382.482234" xlink:href="#m0a2a13016d" y="397.40708"/>
     <use style="fill:#1a1a1a;stroke:#1a1a1a;" x="389.49584" xlink:href="#m0a2a13016d" y="242.499689"/>
     <use style="fill:#1a1a1a;stroke:#1a1a1a;" x="396.509446" xlink:href="#m0a2a13016d" y="274.639071"/>
     <use style="fill:#1a1a1a;stroke:#1a1a1a;" x="403.523051" xlink:href="#m0a2a13016d" y="275.295698"/>
     <use style="fill:#1a1a1a;stroke:#1a1a1a;" x="410.536657" xlink:href="#m0a2a13016d" y="512.61147"/>
     <use style="fill:#1a1a1a;stroke:#1a1a1a;" x="417.550263" xlink:href="#m0a2a13016d" y="308.999107"/>
     <use style="fill:#1a1a1a;stroke:#1a1a1a;" x="424.563868" xlink:href="#m0a2a13016d" y="226.997373"/>
     <use style="fill:#1a1a1a;stroke:#1a1a1a;" x="431.577474" xlink:href="#m0a2a13016d" y="548.651241"/>
     <use style="fill:#1a1a1a;stroke:#1a1a1a;" x="438.59108" xlink:href="#m0a2a13016d" y="192.754571"/>
     <use style="fill:#1a1a1a;stroke:#1a1a1a;" x="445.604686" xlink:href="#m0a2a13016d" y="403.356088"/>
     <use style="fill:#1a1a1a;stroke:#1a1a1a;" x="452.618291" xlink:href="#m0a2a13016d" y="203.148121"/>
     <use style="fill:#1a1a1a;stroke:#1a1a1a;" x="459.631897" xlink:href="#m0a2a13016d" y="215.778594"/>
     <use style="fill:#1a1a1a;stroke:#1a1a1a;" x="466.645503" xlink:href="#m0a2a13016d" y="259.650632"/>
     <use style="fill:#1a1a1a;stroke:#1a1a1a;" x="473.659109" xlink:href="#m0a2a13016d" y="258.305441"/>
     <use style="fill:#1a1a1a;stroke:#1a1a1a;" x="480.672714" xlink:href="#m0a2a13016d" y="192.74433"/>
     <use style="fill:#1a1a1a;stroke:#1a1a1a;" x="487.68632" xlink:href="#m0a2a13016d" y="247.307148"/>
     <use style="fill:#1a1a1a;stroke:#1a1a1a;" x="494.699926" xlink:href="#m0a2a13016d" y="357.187717"/>
     <use style="fill:#1a1a1a;stroke:#1a1a1a;" x="501.713531" xlink:href="#m0a2a13016d" y="259.253905"/>
     <use style="fill:#1a1a1a;stroke:#1a1a1a;" x="508.727137" xlink:href="#m0a2a13016d" y="311.500683"/>
     <use style="fill:#1a1a1a;stroke:#1a1a1a;" x="515.740743" xlink:href="#m0a2a13016d" y="234.453899"/>
     <use style="fill:#1a1a1a;stroke:#1a1a1a;" x="522.754349" xlink:href="#m0a2a13016d" y="246.871266"/>
     <use style="fill:#1a1a1a;stroke:#1a1a1a;" x="529.767954" xlink:href="#m0a2a13016d" y="364.237171"/>
     <use style="fill:#1a1a1a;stroke:#1a1a1a;" x="536.78156" xlink:href="#m0a2a13016d" y="243.860215"/>
     <use style="fill:#1a1a1a;stroke:#1a1a1a;" x="543.795166" xlink:href="#m0a2a13016d" y="173.804892"/>
     <use style="fill:#1a1a1a;stroke:#1a1a1a;" x="550.808771" xlink:href="#m0a2a13016d" y="251.613321"/>
     <use style="fill:#1a1a1a;stroke:#1a1a1a;" x="557.822377" xlink:href="#m0a2a13016d" y="426.01448"/>
     <use style="fill:#1a1a1a;stroke:#1a1a1a;" x="564.835983" xlink:href="#m0a2a13016d" y="185.362485"/>
     <use style="fill:#1a1a1a;stroke:#1a1a1a;" x="571.849589" xlink:href="#m0a2a13016d" y="213.769706"/>
     <use style="fill:#1a1a1a;stroke:#1a1a1a;" x="578.863194" xlink:href="#m0a2a13016d" y="406.838724"/>
     <use style="fill:#1a1a1a;stroke:#1a1a1a;" x="585.8768" xlink:href="#m0a2a13016d" y="296.344777"/>
     <use style="fill:#1a1a1a;stroke:#1a1a1a;" x="592.890406" xlink:href="#m0a2a13016d" y="392.836847"/>
     <use style="fill:#1a1a1a;stroke:#1a1a1a;" x="599.904012" xlink:href="#m0a2a13016d" y="191.882607"/>
     <use style="fill:#1a1a1a;stroke:#1a1a1a;" x="606.917617" xlink:href="#m0a2a13016d" y="557.037643"/>
     <use style="fill:#1a1a1a;stroke:#1a1a1a;" x="613.931223" xlink:href="#m0a2a13016d" y="297.899814"/>
     <use style="fill:#1a1a1a;stroke:#1a1a1a;" x="620.944829" xlink:href="#m0a2a13016d" y="250.795699"/>
     <use style="fill:#1a1a1a;stroke:#1a1a1a;" x="627.958434" xlink:href="#m0a2a13016d" y="359.704573"/>
     <use style="fill:#1a1a1a;stroke:#1a1a1a;" x="634.97204" xlink:href="#m0a2a13016d" y="289.447087"/>
     <use style="fill:#1a1a1a;stroke:#1a1a1a;" x="641.985646" xlink:href="#m0a2a13016d" y="414.579629"/>
     <use style="fill:#1a1a1a;stroke:#1a1a1a;" x="648.999252" xlink:href="#m0a2a13016d" y="213.653157"/>
     <use style="fill:#1a1a1a;stroke:#1a1a1a;" x="656.012857" xlink:href="#m0a2a13016d" y="255.75625"/>
     <use style="fill:#1a1a1a;stroke:#1a1a1a;" x="663.026463" xlink:href="#m0a2a13016d" y="186.878061"/>
     <use style="fill:#1a1a1a;stroke:#1a1a1a;" x="670.040069" xlink:href="#m0a2a13016d" y="370.607383"/>
     <use style="fill:#1a1a1a;stroke:#1a1a1a;" x="677.053675" xlink:href="#m0a2a13016d" y="207.450508"/>
     <use style="fill:#1a1a1a;stroke:#1a1a1a;" x="684.06728" xlink:href="#m0a2a13016d" y="563.983717"/>
     <use style="fill:#1a1a1a;stroke:#1a1a1a;" x="691.080886" xlink:href="#m0a2a13016d" y="296.083812"/>
     <use style="fill:#1a1a1a;stroke:#1a1a1a;" x="698.094492" xlink:href="#m0a2a13016d" y="395.00162"/>
     <use style="fill:#1a1a1a;stroke:#1a1a1a;" x="705.108097" xlink:href="#m0a2a13016d" y="159.61796"/>
     <use style="fill:#1a1a1a;stroke:#1a1a1a;" x="712.121703" xlink:href="#m0a2a13016d" y="336.877565"/>
     <use style="fill:#1a1a1a;stroke:#1a1a1a;" x="719.135309" xlink:href="#m0a2a13016d" y="504.094826"/>
     <use style="fill:#1a1a1a;stroke:#1a1a1a;" x="726.148915" xlink:href="#m0a2a13016d" y="325.97901"/>
     <use style="fill:#1a1a1a;stroke:#1a1a1a;" x="733.16252" xlink:href="#m0a2a13016d" y="372.137422"/>
     <use style="fill:#1a1a1a;stroke:#1a1a1a;" x="740.176126" xlink:href="#m0a2a13016d" y="505.905281"/>
     <use style="fill:#1a1a1a;stroke:#1a1a1a;" x="747.189732" xlink:href="#m0a2a13016d" y="215.691764"/>
     <use style="fill:#1a1a1a;stroke:#1a1a1a;" x="754.203338" xlink:href="#m0a2a13016d" y="245.506484"/>
     <use style="fill:#1a1a1a;stroke:#1a1a1a;" x="761.216943" xlink:href="#m0a2a13016d" y="284.485399"/>
     <use style="fill:#1a1a1a;stroke:#1a1a1a;" x="768.230549" xlink:href="#m0a2a13016d" y="291.042997"/>
     <use style="fill:#1a1a1a;stroke:#1a1a1a;" x="775.244155" xlink:href="#m0a2a13016d" y="397.114278"/>
     <use style="fill:#1a1a1a;stroke:#1a1a1a;" x="782.25776" xlink:href="#m0a2a13016d" y="461.207246"/>
     <use style="fill:#1a1a1a;stroke:#1a1a1a;" x="789.271366" xlink:href="#m0a2a13016d" y="400.053701"/>
     <use style="fill:#1a1a1a;stroke:#1a1a1a;" x="796.284972" xlink:href="#m0a2a13016d" y="476.823522"/>
     <use style="fill:#1a1a1a;stroke:#1a1a1a;" x="803.298578" xlink:href="#m0a2a13016d" y="214.839396"/>
     <use style="fill:#1a1a1a;stroke:#1a1a1a;" x="810.312183" xlink:href="#m0a2a13016d" y="371.209774"/>
    </g>
   </g>
   <g id="line2d_14">
    <g clip-path="url(#peeabd64200)">
     <use style="fill:#1a1a1a;stroke:#1a1a1a;" x="817.325789" xlink:href="#m0a2a13016d" y="224.651842"/>
     <use style="fill:#1a1a1a;stroke:#1a1a1a;" x="824.339395" xlink:href="#m0a2a13016d" y="313.642639"/>
     <use style="fill:#1a1a1a;stroke:#1a1a1a;" x="831.353001" xlink:href="#m0a2a13016d" y="224.378732"/>
     <use style="fill:#1a1a1a;stroke:#1a1a1a;" x="838.366606" xlink:href="#m0a2a13016d" y="445.557136"/>
     <use style="fill:#1a1a1a;stroke:#1a1a1a;" x="845.380212" xlink:href="#m0a2a13016d" y="297.595996"/>
     <use style="fill:#1a1a1a;stroke:#1a1a1a;" x="852.393818" xlink:href="#m0a2a13016d" y="429.903136"/>
     <use style="fill:#1a1a1a;stroke:#1a1a1a;" x="859.407423" xlink:href="#m0a2a13016d" y="277.829428"/>
     <use style="fill:#1a1a1a;stroke:#1a1a1a;" x="866.421029" xlink:href="#m0a2a13016d" y="293.451605"/>
     <use style="fill:#1a1a1a;stroke:#1a1a1a;" x="873.434635" xlink:href="#m0a2a13016d" y="451.891711"/>
     <use style="fill:#1a1a1a;stroke:#1a1a1a;" x="880.448241" xlink:href="#m0a2a13016d" y="284.098833"/>
     <use style="fill:#1a1a1a;stroke:#1a1a1a;" x="887.461846" xlink:href="#m0a2a13016d" y="456.76756"/>
     <use style="fill:#1a1a1a;stroke:#1a1a1a;" x="894.475452" xlink:href="#m0a2a13016d" y="410.902891"/>
     <use style="fill:#1a1a1a;stroke:#1a1a1a;" x="901.489058" xlink:href="#m0a2a13016d" y="282.669696"/>
     <use style="fill:#1a1a1a;stroke:#1a1a1a;" x="908.502664" xlink:href="#m0a2a13016d" y="320.412991"/>
     <use style="fill:#1a1a1a;stroke:#1a1a1a;" x="915.516269" xlink:href="#m0a2a13016d" y="276.665523"/>
     <use style="fill:#1a1a1a;stroke:#1a1a1a;" x="922.529875" xlink:href="#m0a2a13016d" y="301.417008"/>
     <use style="fill:#1a1a1a;stroke:#1a1a1a;" x="929.543481" xlink:href="#m0a2a13016d" y="601.029979"/>
     <use style="fill:#1a1a1a;stroke:#1a1a1a;" x="936.557086" xlink:href="#m0a2a13016d" y="378.840161"/>
     <use style="fill:#1a1a1a;stroke:#1a1a1a;" x="943.570692" xlink:href="#m0a2a13016d" y="267.970037"/>
     <use style="fill:#1a1a1a;stroke:#1a1a1a;" x="950.584298" xlink:href="#m0a2a13016d" y="348.440131"/>
     <use style="fill:#1a1a1a;stroke:#1a1a1a;" x="957.597904" xlink:href="#m0a2a13016d" y="267.716268"/>
     <use style="fill:#1a1a1a;stroke:#1a1a1a;" x="964.611509" xlink:href="#m0a2a13016d" y="390.337857"/>
     <use style="fill:#1a1a1a;stroke:#1a1a1a;" x="971.625115" xlink:href="#m0a2a13016d" y="327.756171"/>
     <use style="fill:#1a1a1a;stroke:#1a1a1a;" x="978.638721" xlink:href="#m0a2a13016d" y="450.935655"/>
     <use style="fill:#1a1a1a;stroke:#1a1a1a;" x="985.652327" xlink:href="#m0a2a13016d" y="274.631818"/>
     <use style="fill:#1a1a1a;stroke:#1a1a1a;" x="992.665932" xlink:href="#m0a2a13016d" y="376.251384"/>
     <use style="fill:#1a1a1a;stroke:#1a1a1a;" x="999.679538" xlink:href="#m0a2a13016d" y="277.317382"/>
     <use style="fill:#1a1a1a;stroke:#1a1a1a;" x="1006.693144" xlink:href="#m0a2a13016d" y="323.114806"/>
     <use style="fill:#1a1a1a;stroke:#1a1a1a;" x="1013.706749" xlink:href="#m0a2a13016d" y="240.298381"/>
     <use style="fill:#1a1a1a;stroke:#1a1a1a;" x="1020.720355" xlink:href="#m0a2a13016d" y="250.623313"/>
     <use style="fill:#1a1a1a;stroke:#1a1a1a;" x="1027.733961" xlink:href="#m0a2a13016d" y="320.045303"/>
     <use style="fill:#1a1a1a;stroke:#1a1a1a;" x="1034.747567" xlink:href="#m0a2a13016d" y="265.775956"/>
    </g>
   </g>
   <g id="patch_3">
    <path d="M 144 630 
L 144 86.4 
" style="fill:none;stroke:#cccccc;stroke-linecap:square;stroke-linejoin:miter;stroke-width:1.25;"/>
   </g>
   <g id="patch_4">
    <path d="M 1036.8 630 
L 1036.8 86.4 
" style="fill:none;stroke:#cccccc;stroke-linecap:square;stroke-linejoin:miter;stroke-width:1.25;"/>
   </g>
   <g id="patch_5">
    <path d="M 144 630 
L 1036.8 630 
" style="fill:none;stroke:#cccccc;stroke-linecap:square;stroke-linejoin:miter;stroke-width:1.25;"/>
   </g>
   <g id="patch_6">
    <path d="M 144 86.4 
L 1036.8 86.4 
" style="fill:none;stroke:#cccccc;stroke-linecap:square;stroke-linejoin:miter;stroke-width:1.25;"/>
   </g>
   <g id="text_14">
    <!-- 0 -->
    <g style="fill:#262626;" transform="translate(583.726875 80.4)scale(0.24 -0.24)">
     <use xlink:href="#ArialMT-48"/>
    </g>
   </g>
   <g id="PathCollection_1">
    <defs>
     <path d="M 2.5 0 
L -2.5 -0 
" id="m4e51a7d2cc" style="stroke:#64b5cd;stroke-width:1.5;"/>
    </defs>
    <g clip-path="url(#peeabd64200)">
     <use style="fill:#64b5cd;stroke:#64b5cd;stroke-width:1.5;" x="144.019639" xlink:href="#m4e51a7d2cc" y="580.532516"/>
     <use style="fill:#64b5cd;stroke:#64b5cd;stroke-width:1.5;" x="151.033245" xlink:href="#m4e51a7d2cc" y="362.208793"/>
     <use style="fill:#64b5cd;stroke:#64b5cd;stroke-width:1.5;" x="158.046851" xlink:href="#m4e51a7d2cc" y="341.32412"/>
     <use style="fill:#64b5cd;stroke:#64b5cd;stroke-width:1.5;" x="165.060457" xlink:href="#m4e51a7d2cc" y="340.510799"/>
     <use style="fill:#64b5cd;stroke:#64b5cd;stroke-width:1.5;" x="172.074062" xlink:href="#m4e51a7d2cc" y="272.21485"/>
     <use style="fill:#64b5cd;stroke:#64b5cd;stroke-width:1.5;" x="179.087668" xlink:href="#m4e51a7d2cc" y="175.027951"/>
     <use style="fill:#64b5cd;stroke:#64b5cd;stroke-width:1.5;" x="186.101274" xlink:href="#m4e51a7d2cc" y="322.289621"/>
     <use style="fill:#64b5cd;stroke:#64b5cd;stroke-width:1.5;" x="193.114879" xlink:href="#m4e51a7d2cc" y="209.40025"/>
     <use style="fill:#64b5cd;stroke:#64b5cd;stroke-width:1.5;" x="200.128485" xlink:href="#m4e51a7d2cc" y="381.417935"/>
     <use style="fill:#64b5cd;stroke:#64b5cd;stroke-width:1.5;" x="207.142091" xlink:href="#m4e51a7d2cc" y="547.005404"/>
     <use style="fill:#64b5cd;stroke:#64b5cd;stroke-width:1.5;" x="214.155697" xlink:href="#m4e51a7d2cc" y="223.146265"/>
     <use style="fill:#64b5cd;stroke:#64b5cd;stroke-width:1.5;" x="221.169302" xlink:href="#m4e51a7d2cc" y="244.360149"/>
     <use style="fill:#64b5cd;stroke:#64b5cd;stroke-width:1.5;" x="228.182908" xlink:href="#m4e51a7d2cc" y="413.760166"/>
     <use style="fill:#64b5cd;stroke:#64b5cd;stroke-width:1.5;" x="235.196514" xlink:href="#m4e51a7d2cc" y="601.204816"/>
     <use style="fill:#64b5cd;stroke:#64b5cd;stroke-width:1.5;" x="242.21012" xlink:href="#m4e51a7d2cc" y="382.700004"/>
     <use style="fill:#64b5cd;stroke:#64b5cd;stroke-width:1.5;" x="249.223725" xlink:href="#m4e51a7d2cc" y="394.15739"/>
     <use style="fill:#64b5cd;stroke:#64b5cd;stroke-width:1.5;" x="256.237331" xlink:href="#m4e51a7d2cc" y="111.109091"/>
     <use style="fill:#64b5cd;stroke:#64b5cd;stroke-width:1.5;" x="263.250937" xlink:href="#m4e51a7d2cc" y="413.641669"/>
     <use style="fill:#64b5cd;stroke:#64b5cd;stroke-width:1.5;" x="270.264542" xlink:href="#m4e51a7d2cc" y="362.12746"/>
     <use style="fill:#64b5cd;stroke:#64b5cd;stroke-width:1.5;" x="277.278148" xlink:href="#m4e51a7d2cc" y="537.281087"/>
     <use style="fill:#64b5cd;stroke:#64b5cd;stroke-width:1.5;" x="284.291754" xlink:href="#m4e51a7d2cc" y="196.771847"/>
     <use style="fill:#64b5cd;stroke:#64b5cd;stroke-width:1.5;" x="291.30536" xlink:href="#m4e51a7d2cc" y="362.257505"/>
     <use style="fill:#64b5cd;stroke:#64b5cd;stroke-width:1.5;" x="298.318965" xlink:href="#m4e51a7d2cc" y="261.87763"/>
     <use style="fill:#64b5cd;stroke:#64b5cd;stroke-width:1.5;" x="305.332571" xlink:href="#m4e51a7d2cc" y="330.979429"/>
     <use style="fill:#64b5cd;stroke:#64b5cd;stroke-width:1.5;" x="312.346177" xlink:href="#m4e51a7d2cc" y="560.933892"/>
     <use style="fill:#64b5cd;stroke:#64b5cd;stroke-width:1.5;" x="319.359783" xlink:href="#m4e51a7d2cc" y="331.445315"/>
     <use style="fill:#64b5cd;stroke:#64b5cd;stroke-width:1.5;" x="326.373388" xlink:href="#m4e51a7d2cc" y="195.674201"/>
     <use style="fill:#64b5cd;stroke:#64b5cd;stroke-width:1.5;" x="333.386994" xlink:href="#m4e51a7d2cc" y="223.244049"/>
     <use style="fill:#64b5cd;stroke:#64b5cd;stroke-width:1.5;" x="340.4006" xlink:href="#m4e51a7d2cc" y="404.421075"/>
     <use style="fill:#64b5cd;stroke:#64b5cd;stroke-width:1.5;" x="347.414205" xlink:href="#m4e51a7d2cc" y="512.314459"/>
     <use style="fill:#64b5cd;stroke:#64b5cd;stroke-width:1.5;" x="354.427811" xlink:href="#m4e51a7d2cc" y="422.490971"/>
     <use style="fill:#64b5cd;stroke:#64b5cd;stroke-width:1.5;" x="361.441417" xlink:href="#m4e51a7d2cc" y="237.297778"/>
     <use style="fill:#64b5cd;stroke:#64b5cd;stroke-width:1.5;" x="368.455023" xlink:href="#m4e51a7d2cc" y="208.421067"/>
     <use style="fill:#64b5cd;stroke:#64b5cd;stroke-width:1.5;" x="375.468628" xlink:href="#m4e51a7d2cc" y="330.646848"/>
     <use style="fill:#64b5cd;stroke:#64b5cd;stroke-width:1.5;" x="382.482234" xlink:href="#m4e51a7d2cc" y="449.625487"/>
     <use style="fill:#64b5cd;stroke:#64b5cd;stroke-width:1.5;" x="389.49584" xlink:href="#m4e51a7d2cc" y="198.891178"/>
     <use style="fill:#64b5cd;stroke:#64b5cd;stroke-width:1.5;" x="396.509446" xlink:href="#m4e51a7d2cc" y="246.982857"/>
     <use style="fill:#64b5cd;stroke:#64b5cd;stroke-width:1.5;" x="403.523051" xlink:href="#m4e51a7d2cc" y="273.45032"/>
     <use style="fill:#64b5cd;stroke:#64b5cd;stroke-width:1.5;" x="410.536657" xlink:href="#m4e51a7d2cc" y="518.48628"/>
     <use style="fill:#64b5cd;stroke:#64b5cd;stroke-width:1.5;" x="417.550263" xlink:href="#m4e51a7d2cc" y="304.433811"/>
     <use style="fill:#64b5cd;stroke:#64b5cd;stroke-width:1.5;" x="424.563868" xlink:href="#m4e51a7d2cc" y="200.540309"/>
     <use style="fill:#64b5cd;stroke:#64b5cd;stroke-width:1.5;" x="431.577474" xlink:href="#m4e51a7d2cc" y="544.150733"/>
     <use style="fill:#64b5cd;stroke:#64b5cd;stroke-width:1.5;" x="438.59108" xlink:href="#m4e51a7d2cc" y="201.325428"/>
     <use style="fill:#64b5cd;stroke:#64b5cd;stroke-width:1.5;" x="445.604686" xlink:href="#m4e51a7d2cc" y="412.31974"/>
     <use style="fill:#64b5cd;stroke:#64b5cd;stroke-width:1.5;" x="452.618291" xlink:href="#m4e51a7d2cc" y="203.452196"/>
     <use style="fill:#64b5cd;stroke:#64b5cd;stroke-width:1.5;" x="459.631897" xlink:href="#m4e51a7d2cc" y="176.241831"/>
     <use style="fill:#64b5cd;stroke:#64b5cd;stroke-width:1.5;" x="466.645503" xlink:href="#m4e51a7d2cc" y="242.928856"/>
     <use style="fill:#64b5cd;stroke:#64b5cd;stroke-width:1.5;" x="473.659109" xlink:href="#m4e51a7d2cc" y="259.591284"/>
     <use style="fill:#64b5cd;stroke:#64b5cd;stroke-width:1.5;" x="480.672714" xlink:href="#m4e51a7d2cc" y="199.643555"/>
     <use style="fill:#64b5cd;stroke:#64b5cd;stroke-width:1.5;" x="487.68632" xlink:href="#m4e51a7d2cc" y="302.361611"/>
     <use style="fill:#64b5cd;stroke:#64b5cd;stroke-width:1.5;" x="494.699926" xlink:href="#m4e51a7d2cc" y="375.137756"/>
     <use style="fill:#64b5cd;stroke:#64b5cd;stroke-width:1.5;" x="501.713531" xlink:href="#m4e51a7d2cc" y="246.27777"/>
     <use style="fill:#64b5cd;stroke:#64b5cd;stroke-width:1.5;" x="508.727137" xlink:href="#m4e51a7d2cc" y="278.728078"/>
     <use style="fill:#64b5cd;stroke:#64b5cd;stroke-width:1.5;" x="515.740743" xlink:href="#m4e51a7d2cc" y="207.672358"/>
     <use style="fill:#64b5cd;stroke:#64b5cd;stroke-width:1.5;" x="522.754349" xlink:href="#m4e51a7d2cc" y="266.176728"/>
     <use style="fill:#64b5cd;stroke:#64b5cd;stroke-width:1.5;" x="529.767954" xlink:href="#m4e51a7d2cc" y="396.485773"/>
     <use style="fill:#64b5cd;stroke:#64b5cd;stroke-width:1.5;" x="536.78156" xlink:href="#m4e51a7d2cc" y="199.395153"/>
     <use style="fill:#64b5cd;stroke:#64b5cd;stroke-width:1.5;" x="543.795166" xlink:href="#m4e51a7d2cc" y="185.151305"/>
     <use style="fill:#64b5cd;stroke:#64b5cd;stroke-width:1.5;" x="550.808771" xlink:href="#m4e51a7d2cc" y="223.70655"/>
     <use style="fill:#64b5cd;stroke:#64b5cd;stroke-width:1.5;" x="557.822377" xlink:href="#m4e51a7d2cc" y="434.752492"/>
     <use style="fill:#64b5cd;stroke:#64b5cd;stroke-width:1.5;" x="564.835983" xlink:href="#m4e51a7d2cc" y="220.905065"/>
     <use style="fill:#64b5cd;stroke:#64b5cd;stroke-width:1.5;" x="571.849589" xlink:href="#m4e51a7d2cc" y="246.320463"/>
     <use style="fill:#64b5cd;stroke:#64b5cd;stroke-width:1.5;" x="578.863194" xlink:href="#m4e51a7d2cc" y="418.45441"/>
     <use style="fill:#64b5cd;stroke:#64b5cd;stroke-width:1.5;" x="585.8768" xlink:href="#m4e51a7d2cc" y="279.818656"/>
     <use style="fill:#64b5cd;stroke:#64b5cd;stroke-width:1.5;" x="592.890406" xlink:href="#m4e51a7d2cc" y="405.286204"/>
     <use style="fill:#64b5cd;stroke:#64b5cd;stroke-width:1.5;" x="599.904012" xlink:href="#m4e51a7d2cc" y="183.022155"/>
     <use style="fill:#64b5cd;stroke:#64b5cd;stroke-width:1.5;" x="606.917617" xlink:href="#m4e51a7d2cc" y="559.460091"/>
     <use style="fill:#64b5cd;stroke:#64b5cd;stroke-width:1.5;" x="613.931223" xlink:href="#m4e51a7d2cc" y="322.646266"/>
     <use style="fill:#64b5cd;stroke:#64b5cd;stroke-width:1.5;" x="620.944829" xlink:href="#m4e51a7d2cc" y="226.588893"/>
     <use style="fill:#64b5cd;stroke:#64b5cd;stroke-width:1.5;" x="627.958434" xlink:href="#m4e51a7d2cc" y="383.263302"/>
     <use style="fill:#64b5cd;stroke:#64b5cd;stroke-width:1.5;" x="634.97204" xlink:href="#m4e51a7d2cc" y="277.845255"/>
     <use style="fill:#64b5cd;stroke:#64b5cd;stroke-width:1.5;" x="641.985646" xlink:href="#m4e51a7d2cc" y="426.100104"/>
     <use style="fill:#64b5cd;stroke:#64b5cd;stroke-width:1.5;" x="648.999252" xlink:href="#m4e51a7d2cc" y="197.537947"/>
     <use style="fill:#64b5cd;stroke:#64b5cd;stroke-width:1.5;" x="656.012857" xlink:href="#m4e51a7d2cc" y="249.263046"/>
     <use style="fill:#64b5cd;stroke:#64b5cd;stroke-width:1.5;" x="663.026463" xlink:href="#m4e51a7d2cc" y="220.927656"/>
     <use style="fill:#64b5cd;stroke:#64b5cd;stroke-width:1.5;" x="670.040069" xlink:href="#m4e51a7d2cc" y="411.288062"/>
     <use style="fill:#64b5cd;stroke:#64b5cd;stroke-width:1.5;" x="677.053675" xlink:href="#m4e51a7d2cc" y="264.118206"/>
     <use style="fill:#64b5cd;stroke:#64b5cd;stroke-width:1.5;" x="684.06728" xlink:href="#m4e51a7d2cc" y="572.253059"/>
     <use style="fill:#64b5cd;stroke:#64b5cd;stroke-width:1.5;" x="691.080886" xlink:href="#m4e51a7d2cc" y="302.637973"/>
     <use style="fill:#64b5cd;stroke:#64b5cd;stroke-width:1.5;" x="698.094492" xlink:href="#m4e51a7d2cc" y="364.621737"/>
     <use style="fill:#64b5cd;stroke:#64b5cd;stroke-width:1.5;" x="705.108097" xlink:href="#m4e51a7d2cc" y="191.166975"/>
     <use style="fill:#64b5cd;stroke:#64b5cd;stroke-width:1.5;" x="712.121703" xlink:href="#m4e51a7d2cc" y="335.138364"/>
     <use style="fill:#64b5cd;stroke:#64b5cd;stroke-width:1.5;" x="719.135309" xlink:href="#m4e51a7d2cc" y="477.327346"/>
     <use style="fill:#64b5cd;stroke:#64b5cd;stroke-width:1.5;" x="726.148915" xlink:href="#m4e51a7d2cc" y="295.641808"/>
     <use style="fill:#64b5cd;stroke:#64b5cd;stroke-width:1.5;" x="733.16252" xlink:href="#m4e51a7d2cc" y="392.70811"/>
     <use style="fill:#64b5cd;stroke:#64b5cd;stroke-width:1.5;" x="740.176126" xlink:href="#m4e51a7d2cc" y="526.272947"/>
     <use style="fill:#64b5cd;stroke:#64b5cd;stroke-width:1.5;" x="747.189732" xlink:href="#m4e51a7d2cc" y="227.132075"/>
     <use style="fill:#64b5cd;stroke:#64b5cd;stroke-width:1.5;" x="754.203338" xlink:href="#m4e51a7d2cc" y="270.653761"/>
     <use style="fill:#64b5cd;stroke:#64b5cd;stroke-width:1.5;" x="761.216943" xlink:href="#m4e51a7d2cc" y="254.536398"/>
     <use style="fill:#64b5cd;stroke:#64b5cd;stroke-width:1.5;" x="768.230549" xlink:href="#m4e51a7d2cc" y="292.505228"/>
     <use style="fill:#64b5cd;stroke:#64b5cd;stroke-width:1.5;" x="775.244155" xlink:href="#m4e51a7d2cc" y="364.421469"/>
     <use style="fill:#64b5cd;stroke:#64b5cd;stroke-width:1.5;" x="782.25776" xlink:href="#m4e51a7d2cc" y="489.563304"/>
     <use style="fill:#64b5cd;stroke:#64b5cd;stroke-width:1.5;" x="789.271366" xlink:href="#m4e51a7d2cc" y="410.038172"/>
     <use style="fill:#64b5cd;stroke:#64b5cd;stroke-width:1.5;" x="796.284972" xlink:href="#m4e51a7d2cc" y="497.86298"/>
     <use style="fill:#64b5cd;stroke:#64b5cd;stroke-width:1.5;" x="803.298578" xlink:href="#m4e51a7d2cc" y="222.577481"/>
     <use style="fill:#64b5cd;stroke:#64b5cd;stroke-width:1.5;" x="810.312183" xlink:href="#m4e51a7d2cc" y="410.434021"/>
    </g>
   </g>
   <g id="PathCollection_2">
    <defs>
     <path d="M 2.5 0 
L -2.5 -0 
" id="m565c035416" style="stroke:#8172b3;stroke-width:1.5;"/>
    </defs>
    <g clip-path="url(#peeabd64200)">
     <use style="fill:#8172b3;stroke:#8172b3;stroke-width:1.5;" x="817.325789" xlink:href="#m565c035416" y="165.810974"/>
     <use style="fill:#8172b3;stroke:#8172b3;stroke-width:1.5;" x="824.339395" xlink:href="#m565c035416" y="286.526963"/>
     <use style="fill:#8172b3;stroke:#8172b3;stroke-width:1.5;" x="831.353001" xlink:href="#m565c035416" y="225.289837"/>
     <use style="fill:#8172b3;stroke:#8172b3;stroke-width:1.5;" x="838.366606" xlink:href="#m565c035416" y="383.835025"/>
     <use style="fill:#8172b3;stroke:#8172b3;stroke-width:1.5;" x="845.380212" xlink:href="#m565c035416" y="200.070077"/>
     <use style="fill:#8172b3;stroke:#8172b3;stroke-width:1.5;" x="852.393818" xlink:href="#m565c035416" y="456.651939"/>
     <use style="fill:#8172b3;stroke:#8172b3;stroke-width:1.5;" x="859.407423" xlink:href="#m565c035416" y="227.628291"/>
     <use style="fill:#8172b3;stroke:#8172b3;stroke-width:1.5;" x="866.421029" xlink:href="#m565c035416" y="307.610951"/>
     <use style="fill:#8172b3;stroke:#8172b3;stroke-width:1.5;" x="873.434635" xlink:href="#m565c035416" y="495.818442"/>
     <use style="fill:#8172b3;stroke:#8172b3;stroke-width:1.5;" x="880.448241" xlink:href="#m565c035416" y="276.066922"/>
     <use style="fill:#8172b3;stroke:#8172b3;stroke-width:1.5;" x="887.461846" xlink:href="#m565c035416" y="437.526576"/>
     <use style="fill:#8172b3;stroke:#8172b3;stroke-width:1.5;" x="894.475452" xlink:href="#m565c035416" y="462.595681"/>
     <use style="fill:#8172b3;stroke:#8172b3;stroke-width:1.5;" x="901.489058" xlink:href="#m565c035416" y="274.368189"/>
     <use style="fill:#8172b3;stroke:#8172b3;stroke-width:1.5;" x="908.502664" xlink:href="#m565c035416" y="299.780692"/>
     <use style="fill:#8172b3;stroke:#8172b3;stroke-width:1.5;" x="915.516269" xlink:href="#m565c035416" y="255.519986"/>
     <use style="fill:#8172b3;stroke:#8172b3;stroke-width:1.5;" x="922.529875" xlink:href="#m565c035416" y="293.90552"/>
     <use style="fill:#8172b3;stroke:#8172b3;stroke-width:1.5;" x="929.543481" xlink:href="#m565c035416" y="564.843451"/>
     <use style="fill:#8172b3;stroke:#8172b3;stroke-width:1.5;" x="936.557086" xlink:href="#m565c035416" y="324.195474"/>
     <use style="fill:#8172b3;stroke:#8172b3;stroke-width:1.5;" x="943.570692" xlink:href="#m565c035416" y="314.013887"/>
     <use style="fill:#8172b3;stroke:#8172b3;stroke-width:1.5;" x="950.584298" xlink:href="#m565c035416" y="352.822875"/>
     <use style="fill:#8172b3;stroke:#8172b3;stroke-width:1.5;" x="957.597904" xlink:href="#m565c035416" y="248.799895"/>
     <use style="fill:#8172b3;stroke:#8172b3;stroke-width:1.5;" x="964.611509" xlink:href="#m565c035416" y="353.815764"/>
     <use style="fill:#8172b3;stroke:#8172b3;stroke-width:1.5;" x="971.625115" xlink:href="#m565c035416" y="278.634389"/>
     <use style="fill:#8172b3;stroke:#8172b3;stroke-width:1.5;" x="978.638721" xlink:href="#m565c035416" y="452.630094"/>
     <use style="fill:#8172b3;stroke:#8172b3;stroke-width:1.5;" x="985.652327" xlink:href="#m565c035416" y="211.776653"/>
     <use style="fill:#8172b3;stroke:#8172b3;stroke-width:1.5;" x="992.665932" xlink:href="#m565c035416" y="431.107993"/>
     <use style="fill:#8172b3;stroke:#8172b3;stroke-width:1.5;" x="999.679538" xlink:href="#m565c035416" y="225.920235"/>
     <use style="fill:#8172b3;stroke:#8172b3;stroke-width:1.5;" x="1006.693144" xlink:href="#m565c035416" y="297.721676"/>
     <use style="fill:#8172b3;stroke:#8172b3;stroke-width:1.5;" x="1013.706749" xlink:href="#m565c035416" y="239.376405"/>
     <use style="fill:#8172b3;stroke:#8172b3;stroke-width:1.5;" x="1020.720355" xlink:href="#m565c035416" y="272.283214"/>
     <use style="fill:#8172b3;stroke:#8172b3;stroke-width:1.5;" x="1027.733961" xlink:href="#m565c035416" y="322.810764"/>
     <use style="fill:#8172b3;stroke:#8172b3;stroke-width:1.5;" x="1034.747567" xlink:href="#m565c035416" y="253.520265"/>
    </g>
   </g>
  </g>
 </g>
 <defs>
  <clipPath id="peeabd64200">
   <rect height="543.6" width="892.8" x="144" y="86.4"/>
  </clipPath>
 </defs>
</svg>
