<?xml version="1.0" encoding="utf-8" standalone="no"?>
<!DOCTYPE svg PUBLIC "-//W3C//DTD SVG 1.1//EN"
  "http://www.w3.org/Graphics/SVG/1.1/DTD/svg11.dtd">
<!-- Created with matplotlib (https://matplotlib.org/) -->
<svg height="576pt" version="1.1" viewBox="0 0 864 576" width="864pt" xmlns="http://www.w3.org/2000/svg" xmlns:xlink="http://www.w3.org/1999/xlink">
 <defs>
  <style type="text/css">
*{stroke-linecap:butt;stroke-linejoin:round;}
  </style>
 </defs>
 <g id="figure_1">
  <g id="patch_1">
   <path d="M 0 576 
L 864 576 
L 864 0 
L 0 0 
z
" style="fill:#ffffff;"/>
  </g>
  <g id="axes_1">
   <g id="patch_2">
    <path d="M 72.425 508.7 
L 437.9125 508.7 
L 437.9125 34.8 
L 72.425 34.8 
z
" style="fill:#ffffff;"/>
   </g>
   <g id="matplotlib.axis_1">
    <g id="xtick_1">
     <g id="line2d_1">
      <path clip-path="url(#p31f3b2843d)" d="M 74.07121 508.7 
L 74.07121 34.8 
" style="fill:none;stroke:#cccccc;stroke-linecap:round;"/>
     </g>
     <g id="text_1">
      <!-- 0.0 -->
      <defs>
       <path d="M 4.15625 35.296875 
Q 4.15625 48 6.765625 55.734375 
Q 9.375 63.484375 14.515625 67.671875 
Q 19.671875 71.875 27.484375 71.875 
Q 33.25 71.875 37.59375 69.546875 
Q 41.9375 67.234375 44.765625 62.859375 
Q 47.609375 58.5 49.21875 52.21875 
Q 50.828125 45.953125 50.828125 35.296875 
Q 50.828125 22.703125 48.234375 14.96875 
Q 45.65625 7.234375 40.5 3 
Q 35.359375 -1.21875 27.484375 -1.21875 
Q 17.140625 -1.21875 11.234375 6.203125 
Q 4.15625 15.140625 4.15625 35.296875 
z
M 13.1875 35.296875 
Q 13.1875 17.671875 17.3125 11.828125 
Q 21.4375 6 27.484375 6 
Q 33.546875 6 37.671875 11.859375 
Q 41.796875 17.71875 41.796875 35.296875 
Q 41.796875 52.984375 37.671875 58.78125 
Q 33.546875 64.59375 27.390625 64.59375 
Q 21.34375 64.59375 17.71875 59.46875 
Q 13.1875 52.9375 13.1875 35.296875 
z
" id="ArialMT-48"/>
       <path d="M 9.078125 0 
L 9.078125 10.015625 
L 19.09375 10.015625 
L 19.09375 0 
z
" id="ArialMT-46"/>
      </defs>
      <g style="fill:#262626;" transform="translate(58.78121 533.947187)scale(0.22 -0.22)">
       <use xlink:href="#ArialMT-48"/>
       <use x="55.615234" xlink:href="#ArialMT-46"/>
       <use x="83.398438" xlink:href="#ArialMT-48"/>
      </g>
     </g>
    </g>
    <g id="xtick_2">
     <g id="line2d_2">
      <path clip-path="url(#p31f3b2843d)" d="M 147.186701 508.7 
L 147.186701 34.8 
" style="fill:none;stroke:#cccccc;stroke-linecap:round;"/>
     </g>
     <g id="text_2">
      <!-- 0.2 -->
      <defs>
       <path d="M 50.34375 8.453125 
L 50.34375 0 
L 3.03125 0 
Q 2.9375 3.171875 4.046875 6.109375 
Q 5.859375 10.9375 9.828125 15.625 
Q 13.8125 20.3125 21.34375 26.46875 
Q 33.015625 36.03125 37.109375 41.625 
Q 41.21875 47.21875 41.21875 52.203125 
Q 41.21875 57.421875 37.46875 61 
Q 33.734375 64.59375 27.734375 64.59375 
Q 21.390625 64.59375 17.578125 60.78125 
Q 13.765625 56.984375 13.71875 50.25 
L 4.6875 51.171875 
Q 5.609375 61.28125 11.65625 66.578125 
Q 17.71875 71.875 27.9375 71.875 
Q 38.234375 71.875 44.234375 66.15625 
Q 50.25 60.453125 50.25 52 
Q 50.25 47.703125 48.484375 43.546875 
Q 46.734375 39.40625 42.65625 34.8125 
Q 38.578125 30.21875 29.109375 22.21875 
Q 21.1875 15.578125 18.9375 13.203125 
Q 16.703125 10.84375 15.234375 8.453125 
z
" id="ArialMT-50"/>
      </defs>
      <g style="fill:#262626;" transform="translate(131.896701 533.947187)scale(0.22 -0.22)">
       <use xlink:href="#ArialMT-48"/>
       <use x="55.615234" xlink:href="#ArialMT-46"/>
       <use x="83.398438" xlink:href="#ArialMT-50"/>
      </g>
     </g>
    </g>
    <g id="xtick_3">
     <g id="line2d_3">
      <path clip-path="url(#p31f3b2843d)" d="M 220.302192 508.7 
L 220.302192 34.8 
" style="fill:none;stroke:#cccccc;stroke-linecap:round;"/>
     </g>
     <g id="text_3">
      <!-- 0.4 -->
      <defs>
       <path d="M 32.328125 0 
L 32.328125 17.140625 
L 1.265625 17.140625 
L 1.265625 25.203125 
L 33.9375 71.578125 
L 41.109375 71.578125 
L 41.109375 25.203125 
L 50.78125 25.203125 
L 50.78125 17.140625 
L 41.109375 17.140625 
L 41.109375 0 
z
M 32.328125 25.203125 
L 32.328125 57.46875 
L 9.90625 25.203125 
z
" id="ArialMT-52"/>
      </defs>
      <g style="fill:#262626;" transform="translate(205.012192 533.947187)scale(0.22 -0.22)">
       <use xlink:href="#ArialMT-48"/>
       <use x="55.615234" xlink:href="#ArialMT-46"/>
       <use x="83.398438" xlink:href="#ArialMT-52"/>
      </g>
     </g>
    </g>
    <g id="xtick_4">
     <g id="line2d_4">
      <path clip-path="url(#p31f3b2843d)" d="M 293.417683 508.7 
L 293.417683 34.8 
" style="fill:none;stroke:#cccccc;stroke-linecap:round;"/>
     </g>
     <g id="text_4">
      <!-- 0.6 -->
      <defs>
       <path d="M 49.75 54.046875 
L 41.015625 53.375 
Q 39.84375 58.546875 37.703125 60.890625 
Q 34.125 64.65625 28.90625 64.65625 
Q 24.703125 64.65625 21.53125 62.3125 
Q 17.390625 59.28125 14.984375 53.46875 
Q 12.59375 47.65625 12.5 36.921875 
Q 15.671875 41.75 20.265625 44.09375 
Q 24.859375 46.4375 29.890625 46.4375 
Q 38.671875 46.4375 44.84375 39.96875 
Q 51.03125 33.5 51.03125 23.25 
Q 51.03125 16.5 48.125 10.71875 
Q 45.21875 4.9375 40.140625 1.859375 
Q 35.0625 -1.21875 28.609375 -1.21875 
Q 17.625 -1.21875 10.6875 6.859375 
Q 3.765625 14.9375 3.765625 33.5 
Q 3.765625 54.25 11.421875 63.671875 
Q 18.109375 71.875 29.4375 71.875 
Q 37.890625 71.875 43.28125 67.140625 
Q 48.6875 62.40625 49.75 54.046875 
z
M 13.875 23.1875 
Q 13.875 18.65625 15.796875 14.5 
Q 17.71875 10.359375 21.1875 8.171875 
Q 24.65625 6 28.46875 6 
Q 34.03125 6 38.03125 10.484375 
Q 42.046875 14.984375 42.046875 22.703125 
Q 42.046875 30.125 38.078125 34.390625 
Q 34.125 38.671875 28.125 38.671875 
Q 22.171875 38.671875 18.015625 34.390625 
Q 13.875 30.125 13.875 23.1875 
z
" id="ArialMT-54"/>
      </defs>
      <g style="fill:#262626;" transform="translate(278.127683 533.947187)scale(0.22 -0.22)">
       <use xlink:href="#ArialMT-48"/>
       <use x="55.615234" xlink:href="#ArialMT-46"/>
       <use x="83.398438" xlink:href="#ArialMT-54"/>
      </g>
     </g>
    </g>
    <g id="xtick_5">
     <g id="line2d_5">
      <path clip-path="url(#p31f3b2843d)" d="M 366.533174 508.7 
L 366.533174 34.8 
" style="fill:none;stroke:#cccccc;stroke-linecap:round;"/>
     </g>
     <g id="text_5">
      <!-- 0.8 -->
      <defs>
       <path d="M 17.671875 38.8125 
Q 12.203125 40.828125 9.5625 44.53125 
Q 6.9375 48.25 6.9375 53.421875 
Q 6.9375 61.234375 12.546875 66.546875 
Q 18.171875 71.875 27.484375 71.875 
Q 36.859375 71.875 42.578125 66.421875 
Q 48.296875 60.984375 48.296875 53.171875 
Q 48.296875 48.1875 45.671875 44.5 
Q 43.0625 40.828125 37.75 38.8125 
Q 44.34375 36.671875 47.78125 31.875 
Q 51.21875 27.09375 51.21875 20.453125 
Q 51.21875 11.28125 44.71875 5.03125 
Q 38.234375 -1.21875 27.640625 -1.21875 
Q 17.046875 -1.21875 10.546875 5.046875 
Q 4.046875 11.328125 4.046875 20.703125 
Q 4.046875 27.6875 7.59375 32.390625 
Q 11.140625 37.109375 17.671875 38.8125 
z
M 15.921875 53.71875 
Q 15.921875 48.640625 19.1875 45.40625 
Q 22.46875 42.1875 27.6875 42.1875 
Q 32.765625 42.1875 36.015625 45.375 
Q 39.265625 48.578125 39.265625 53.21875 
Q 39.265625 58.0625 35.90625 61.359375 
Q 32.5625 64.65625 27.59375 64.65625 
Q 22.5625 64.65625 19.234375 61.421875 
Q 15.921875 58.203125 15.921875 53.71875 
z
M 13.09375 20.65625 
Q 13.09375 16.890625 14.875 13.375 
Q 16.65625 9.859375 20.171875 7.921875 
Q 23.6875 6 27.734375 6 
Q 34.03125 6 38.125 10.046875 
Q 42.234375 14.109375 42.234375 20.359375 
Q 42.234375 26.703125 38.015625 30.859375 
Q 33.796875 35.015625 27.4375 35.015625 
Q 21.234375 35.015625 17.15625 30.90625 
Q 13.09375 26.8125 13.09375 20.65625 
z
" id="ArialMT-56"/>
      </defs>
      <g style="fill:#262626;" transform="translate(351.243174 533.947187)scale(0.22 -0.22)">
       <use xlink:href="#ArialMT-48"/>
       <use x="55.615234" xlink:href="#ArialMT-46"/>
       <use x="83.398438" xlink:href="#ArialMT-56"/>
      </g>
     </g>
    </g>
    <g id="text_6">
     <!-- Simulation Result -->
     <defs>
      <path d="M 4.5 23 
L 13.421875 23.78125 
Q 14.0625 18.40625 16.375 14.96875 
Q 18.703125 11.53125 23.578125 9.40625 
Q 28.46875 7.28125 34.578125 7.28125 
Q 39.984375 7.28125 44.140625 8.890625 
Q 48.296875 10.5 50.3125 13.296875 
Q 52.34375 16.109375 52.34375 19.4375 
Q 52.34375 22.796875 50.390625 25.3125 
Q 48.4375 27.828125 43.953125 29.546875 
Q 41.0625 30.671875 31.203125 33.03125 
Q 21.34375 35.40625 17.390625 37.5 
Q 12.25 40.1875 9.734375 44.15625 
Q 7.234375 48.140625 7.234375 53.078125 
Q 7.234375 58.5 10.296875 63.203125 
Q 13.375 67.921875 19.28125 70.359375 
Q 25.203125 72.796875 32.421875 72.796875 
Q 40.375 72.796875 46.453125 70.234375 
Q 52.546875 67.671875 55.8125 62.6875 
Q 59.078125 57.71875 59.328125 51.421875 
L 50.25 50.734375 
Q 49.515625 57.515625 45.28125 60.984375 
Q 41.0625 64.453125 32.8125 64.453125 
Q 24.21875 64.453125 20.28125 61.296875 
Q 16.359375 58.15625 16.359375 53.71875 
Q 16.359375 49.859375 19.140625 47.359375 
Q 21.875 44.875 33.421875 42.265625 
Q 44.96875 39.65625 49.265625 37.703125 
Q 55.515625 34.8125 58.484375 30.390625 
Q 61.46875 25.984375 61.46875 20.21875 
Q 61.46875 14.5 58.203125 9.4375 
Q 54.9375 4.390625 48.796875 1.578125 
Q 42.671875 -1.21875 35.015625 -1.21875 
Q 25.296875 -1.21875 18.71875 1.609375 
Q 12.15625 4.4375 8.421875 10.125 
Q 4.6875 15.828125 4.5 23 
z
" id="ArialMT-83"/>
      <path d="M 6.640625 61.46875 
L 6.640625 71.578125 
L 15.4375 71.578125 
L 15.4375 61.46875 
z
M 6.640625 0 
L 6.640625 51.859375 
L 15.4375 51.859375 
L 15.4375 0 
z
" id="ArialMT-105"/>
      <path d="M 6.59375 0 
L 6.59375 51.859375 
L 14.453125 51.859375 
L 14.453125 44.578125 
Q 16.890625 48.390625 20.9375 50.703125 
Q 25 53.03125 30.171875 53.03125 
Q 35.9375 53.03125 39.625 50.640625 
Q 43.3125 48.25 44.828125 43.953125 
Q 50.984375 53.03125 60.84375 53.03125 
Q 68.5625 53.03125 72.703125 48.75 
Q 76.859375 44.484375 76.859375 35.59375 
L 76.859375 0 
L 68.109375 0 
L 68.109375 32.671875 
Q 68.109375 37.9375 67.25 40.25 
Q 66.40625 42.578125 64.15625 43.984375 
Q 61.921875 45.40625 58.890625 45.40625 
Q 53.421875 45.40625 49.796875 41.765625 
Q 46.1875 38.140625 46.1875 30.125 
L 46.1875 0 
L 37.40625 0 
L 37.40625 33.6875 
Q 37.40625 39.546875 35.25 42.46875 
Q 33.109375 45.40625 28.21875 45.40625 
Q 24.515625 45.40625 21.359375 43.453125 
Q 18.21875 41.5 16.796875 37.734375 
Q 15.375 33.984375 15.375 26.90625 
L 15.375 0 
z
" id="ArialMT-109"/>
      <path d="M 40.578125 0 
L 40.578125 7.625 
Q 34.515625 -1.171875 24.125 -1.171875 
Q 19.53125 -1.171875 15.546875 0.578125 
Q 11.578125 2.34375 9.640625 5 
Q 7.71875 7.671875 6.9375 11.53125 
Q 6.390625 14.109375 6.390625 19.734375 
L 6.390625 51.859375 
L 15.1875 51.859375 
L 15.1875 23.09375 
Q 15.1875 16.21875 15.71875 13.8125 
Q 16.546875 10.359375 19.234375 8.375 
Q 21.921875 6.390625 25.875 6.390625 
Q 29.828125 6.390625 33.296875 8.421875 
Q 36.765625 10.453125 38.203125 13.9375 
Q 39.65625 17.4375 39.65625 24.078125 
L 39.65625 51.859375 
L 48.4375 51.859375 
L 48.4375 0 
z
" id="ArialMT-117"/>
      <path d="M 6.390625 0 
L 6.390625 71.578125 
L 15.1875 71.578125 
L 15.1875 0 
z
" id="ArialMT-108"/>
      <path d="M 40.4375 6.390625 
Q 35.546875 2.25 31.03125 0.53125 
Q 26.515625 -1.171875 21.34375 -1.171875 
Q 12.796875 -1.171875 8.203125 3 
Q 3.609375 7.171875 3.609375 13.671875 
Q 3.609375 17.484375 5.34375 20.625 
Q 7.078125 23.78125 9.890625 25.6875 
Q 12.703125 27.59375 16.21875 28.5625 
Q 18.796875 29.25 24.03125 29.890625 
Q 34.671875 31.15625 39.703125 32.90625 
Q 39.75 34.71875 39.75 35.203125 
Q 39.75 40.578125 37.25 42.78125 
Q 33.890625 45.75 27.25 45.75 
Q 21.046875 45.75 18.09375 43.578125 
Q 15.140625 41.40625 13.71875 35.890625 
L 5.125 37.0625 
Q 6.296875 42.578125 8.984375 45.96875 
Q 11.671875 49.359375 16.75 51.1875 
Q 21.828125 53.03125 28.515625 53.03125 
Q 35.15625 53.03125 39.296875 51.46875 
Q 43.453125 49.90625 45.40625 47.53125 
Q 47.359375 45.171875 48.140625 41.546875 
Q 48.578125 39.3125 48.578125 33.453125 
L 48.578125 21.734375 
Q 48.578125 9.46875 49.140625 6.21875 
Q 49.703125 2.984375 51.375 0 
L 42.1875 0 
Q 40.828125 2.734375 40.4375 6.390625 
z
M 39.703125 26.03125 
Q 34.90625 24.078125 25.34375 22.703125 
Q 19.921875 21.921875 17.671875 20.9375 
Q 15.4375 19.96875 14.203125 18.09375 
Q 12.984375 16.21875 12.984375 13.921875 
Q 12.984375 10.40625 15.640625 8.0625 
Q 18.3125 5.71875 23.4375 5.71875 
Q 28.515625 5.71875 32.46875 7.9375 
Q 36.421875 10.15625 38.28125 14.015625 
Q 39.703125 17 39.703125 22.796875 
z
" id="ArialMT-97"/>
      <path d="M 25.78125 7.859375 
L 27.046875 0.09375 
Q 23.34375 -0.6875 20.40625 -0.6875 
Q 15.625 -0.6875 12.984375 0.828125 
Q 10.359375 2.34375 9.28125 4.8125 
Q 8.203125 7.28125 8.203125 15.1875 
L 8.203125 45.015625 
L 1.765625 45.015625 
L 1.765625 51.859375 
L 8.203125 51.859375 
L 8.203125 64.703125 
L 16.9375 69.96875 
L 16.9375 51.859375 
L 25.78125 51.859375 
L 25.78125 45.015625 
L 16.9375 45.015625 
L 16.9375 14.703125 
Q 16.9375 10.9375 17.40625 9.859375 
Q 17.875 8.796875 18.921875 8.15625 
Q 19.96875 7.515625 21.921875 7.515625 
Q 23.390625 7.515625 25.78125 7.859375 
z
" id="ArialMT-116"/>
      <path d="M 3.328125 25.921875 
Q 3.328125 40.328125 11.328125 47.265625 
Q 18.015625 53.03125 27.640625 53.03125 
Q 38.328125 53.03125 45.109375 46.015625 
Q 51.90625 39.015625 51.90625 26.65625 
Q 51.90625 16.65625 48.90625 10.90625 
Q 45.90625 5.171875 40.15625 2 
Q 34.421875 -1.171875 27.640625 -1.171875 
Q 16.75 -1.171875 10.03125 5.8125 
Q 3.328125 12.796875 3.328125 25.921875 
z
M 12.359375 25.921875 
Q 12.359375 15.96875 16.703125 11.015625 
Q 21.046875 6.0625 27.640625 6.0625 
Q 34.1875 6.0625 38.53125 11.03125 
Q 42.875 16.015625 42.875 26.21875 
Q 42.875 35.84375 38.5 40.796875 
Q 34.125 45.75 27.640625 45.75 
Q 21.046875 45.75 16.703125 40.8125 
Q 12.359375 35.890625 12.359375 25.921875 
z
" id="ArialMT-111"/>
      <path d="M 6.59375 0 
L 6.59375 51.859375 
L 14.5 51.859375 
L 14.5 44.484375 
Q 20.21875 53.03125 31 53.03125 
Q 35.6875 53.03125 39.625 51.34375 
Q 43.5625 49.65625 45.515625 46.921875 
Q 47.46875 44.1875 48.25 40.4375 
Q 48.734375 37.984375 48.734375 31.890625 
L 48.734375 0 
L 39.9375 0 
L 39.9375 31.546875 
Q 39.9375 36.921875 38.90625 39.578125 
Q 37.890625 42.234375 35.28125 43.8125 
Q 32.671875 45.40625 29.15625 45.40625 
Q 23.53125 45.40625 19.453125 41.84375 
Q 15.375 38.28125 15.375 28.328125 
L 15.375 0 
z
" id="ArialMT-110"/>
      <path id="ArialMT-32"/>
      <path d="M 7.859375 0 
L 7.859375 71.578125 
L 39.59375 71.578125 
Q 49.171875 71.578125 54.140625 69.640625 
Q 59.125 67.71875 62.109375 62.828125 
Q 65.09375 57.953125 65.09375 52.046875 
Q 65.09375 44.4375 60.15625 39.203125 
Q 55.21875 33.984375 44.921875 32.5625 
Q 48.6875 30.765625 50.640625 29 
Q 54.78125 25.203125 58.5 19.484375 
L 70.953125 0 
L 59.03125 0 
L 49.5625 14.890625 
Q 45.40625 21.34375 42.71875 24.75 
Q 40.046875 28.171875 37.921875 29.53125 
Q 35.796875 30.90625 33.59375 31.453125 
Q 31.984375 31.78125 28.328125 31.78125 
L 17.328125 31.78125 
L 17.328125 0 
z
M 17.328125 39.984375 
L 37.703125 39.984375 
Q 44.1875 39.984375 47.84375 41.328125 
Q 51.515625 42.671875 53.421875 45.625 
Q 55.328125 48.578125 55.328125 52.046875 
Q 55.328125 57.125 51.640625 60.390625 
Q 47.953125 63.671875 39.984375 63.671875 
L 17.328125 63.671875 
z
" id="ArialMT-82"/>
      <path d="M 42.09375 16.703125 
L 51.171875 15.578125 
Q 49.03125 7.625 43.21875 3.21875 
Q 37.40625 -1.171875 28.375 -1.171875 
Q 17 -1.171875 10.328125 5.828125 
Q 3.65625 12.84375 3.65625 25.484375 
Q 3.65625 38.578125 10.390625 45.796875 
Q 17.140625 53.03125 27.875 53.03125 
Q 38.28125 53.03125 44.875 45.953125 
Q 51.46875 38.875 51.46875 26.03125 
Q 51.46875 25.25 51.421875 23.6875 
L 12.75 23.6875 
Q 13.234375 15.140625 17.578125 10.59375 
Q 21.921875 6.0625 28.421875 6.0625 
Q 33.25 6.0625 36.671875 8.59375 
Q 40.09375 11.140625 42.09375 16.703125 
z
M 13.234375 30.90625 
L 42.1875 30.90625 
Q 41.609375 37.453125 38.875 40.71875 
Q 34.671875 45.796875 27.984375 45.796875 
Q 21.921875 45.796875 17.796875 41.75 
Q 13.671875 37.703125 13.234375 30.90625 
z
" id="ArialMT-101"/>
      <path d="M 3.078125 15.484375 
L 11.765625 16.84375 
Q 12.5 11.625 15.84375 8.84375 
Q 19.1875 6.0625 25.203125 6.0625 
Q 31.25 6.0625 34.171875 8.515625 
Q 37.109375 10.984375 37.109375 14.3125 
Q 37.109375 17.28125 34.515625 19 
Q 32.71875 20.171875 25.53125 21.96875 
Q 15.875 24.421875 12.140625 26.203125 
Q 8.40625 27.984375 6.46875 31.125 
Q 4.546875 34.28125 4.546875 38.09375 
Q 4.546875 41.546875 6.125 44.5 
Q 7.71875 47.46875 10.453125 49.421875 
Q 12.5 50.921875 16.03125 51.96875 
Q 19.578125 53.03125 23.640625 53.03125 
Q 29.734375 53.03125 34.34375 51.265625 
Q 38.96875 49.515625 41.15625 46.5 
Q 43.359375 43.5 44.1875 38.484375 
L 35.59375 37.3125 
Q 35.015625 41.3125 32.203125 43.546875 
Q 29.390625 45.796875 24.265625 45.796875 
Q 18.21875 45.796875 15.625 43.796875 
Q 13.03125 41.796875 13.03125 39.109375 
Q 13.03125 37.40625 14.109375 36.03125 
Q 15.1875 34.625 17.484375 33.6875 
Q 18.796875 33.203125 25.25 31.453125 
Q 34.578125 28.953125 38.25 27.359375 
Q 41.9375 25.78125 44.03125 22.75 
Q 46.140625 19.734375 46.140625 15.234375 
Q 46.140625 10.84375 43.578125 6.953125 
Q 41.015625 3.078125 36.171875 0.953125 
Q 31.34375 -1.171875 25.25 -1.171875 
Q 15.140625 -1.171875 9.84375 3.03125 
Q 4.546875 7.234375 3.078125 15.484375 
z
" id="ArialMT-115"/>
     </defs>
     <g style="fill:#262626;" transform="translate(161.7975 559.498437)scale(0.24 -0.24)">
      <use xlink:href="#ArialMT-83"/>
      <use x="66.699219" xlink:href="#ArialMT-105"/>
      <use x="88.916016" xlink:href="#ArialMT-109"/>
      <use x="172.216797" xlink:href="#ArialMT-117"/>
      <use x="227.832031" xlink:href="#ArialMT-108"/>
      <use x="250.048828" xlink:href="#ArialMT-97"/>
      <use x="305.664062" xlink:href="#ArialMT-116"/>
      <use x="333.447266" xlink:href="#ArialMT-105"/>
      <use x="355.664062" xlink:href="#ArialMT-111"/>
      <use x="411.279297" xlink:href="#ArialMT-110"/>
      <use x="466.894531" xlink:href="#ArialMT-32"/>
      <use x="494.677734" xlink:href="#ArialMT-82"/>
      <use x="566.894531" xlink:href="#ArialMT-101"/>
      <use x="622.509766" xlink:href="#ArialMT-115"/>
      <use x="672.509766" xlink:href="#ArialMT-117"/>
      <use x="728.125" xlink:href="#ArialMT-108"/>
      <use x="750.341797" xlink:href="#ArialMT-116"/>
     </g>
    </g>
   </g>
   <g id="matplotlib.axis_2">
    <g id="ytick_1">
     <g id="line2d_6">
      <path clip-path="url(#p31f3b2843d)" d="M 72.425 465.188404 
L 437.9125 465.188404 
" style="fill:none;stroke:#cccccc;stroke-linecap:round;"/>
     </g>
     <g id="text_7">
      <!-- −4 -->
      <defs>
       <path d="M 52.828125 31.203125 
L 5.5625 31.203125 
L 5.5625 39.40625 
L 52.828125 39.40625 
z
" id="ArialMT-8722"/>
      </defs>
      <g style="fill:#262626;" transform="translate(37.841562 473.061998)scale(0.22 -0.22)">
       <use xlink:href="#ArialMT-8722"/>
       <use x="58.398438" xlink:href="#ArialMT-52"/>
      </g>
     </g>
    </g>
    <g id="ytick_2">
     <g id="line2d_7">
      <path clip-path="url(#p31f3b2843d)" d="M 72.425 406.781619 
L 437.9125 406.781619 
" style="fill:none;stroke:#cccccc;stroke-linecap:round;"/>
     </g>
     <g id="text_8">
      <!-- −3 -->
      <defs>
       <path d="M 4.203125 18.890625 
L 12.984375 20.0625 
Q 14.5 12.59375 18.140625 9.296875 
Q 21.78125 6 27 6 
Q 33.203125 6 37.46875 10.296875 
Q 41.75 14.59375 41.75 20.953125 
Q 41.75 27 37.796875 30.921875 
Q 33.84375 34.859375 27.734375 34.859375 
Q 25.25 34.859375 21.53125 33.890625 
L 22.515625 41.609375 
Q 23.390625 41.5 23.921875 41.5 
Q 29.546875 41.5 34.03125 44.421875 
Q 38.53125 47.359375 38.53125 53.46875 
Q 38.53125 58.296875 35.25 61.46875 
Q 31.984375 64.65625 26.8125 64.65625 
Q 21.6875 64.65625 18.265625 61.421875 
Q 14.84375 58.203125 13.875 51.765625 
L 5.078125 53.328125 
Q 6.6875 62.15625 12.390625 67.015625 
Q 18.109375 71.875 26.609375 71.875 
Q 32.46875 71.875 37.390625 69.359375 
Q 42.328125 66.84375 44.9375 62.5 
Q 47.5625 58.15625 47.5625 53.265625 
Q 47.5625 48.640625 45.0625 44.828125 
Q 42.578125 41.015625 37.703125 38.765625 
Q 44.046875 37.3125 47.5625 32.6875 
Q 51.078125 28.078125 51.078125 21.140625 
Q 51.078125 11.765625 44.234375 5.25 
Q 37.40625 -1.265625 26.953125 -1.265625 
Q 17.53125 -1.265625 11.296875 4.34375 
Q 5.078125 9.96875 4.203125 18.890625 
z
" id="ArialMT-51"/>
      </defs>
      <g style="fill:#262626;" transform="translate(37.841562 414.655213)scale(0.22 -0.22)">
       <use xlink:href="#ArialMT-8722"/>
       <use x="58.398438" xlink:href="#ArialMT-51"/>
      </g>
     </g>
    </g>
    <g id="ytick_3">
     <g id="line2d_8">
      <path clip-path="url(#p31f3b2843d)" d="M 72.425 348.374834 
L 437.9125 348.374834 
" style="fill:none;stroke:#cccccc;stroke-linecap:round;"/>
     </g>
     <g id="text_9">
      <!-- −2 -->
      <g style="fill:#262626;" transform="translate(37.841562 356.248428)scale(0.22 -0.22)">
       <use xlink:href="#ArialMT-8722"/>
       <use x="58.398438" xlink:href="#ArialMT-50"/>
      </g>
     </g>
    </g>
    <g id="ytick_4">
     <g id="line2d_9">
      <path clip-path="url(#p31f3b2843d)" d="M 72.425 289.968049 
L 437.9125 289.968049 
" style="fill:none;stroke:#cccccc;stroke-linecap:round;"/>
     </g>
     <g id="text_10">
      <!-- −1 -->
      <defs>
       <path d="M 37.25 0 
L 28.46875 0 
L 28.46875 56 
Q 25.296875 52.984375 20.140625 49.953125 
Q 14.984375 46.921875 10.890625 45.40625 
L 10.890625 53.90625 
Q 18.265625 57.375 23.78125 62.296875 
Q 29.296875 67.234375 31.59375 71.875 
L 37.25 71.875 
z
" id="ArialMT-49"/>
      </defs>
      <g style="fill:#262626;" transform="translate(37.841562 297.841643)scale(0.22 -0.22)">
       <use xlink:href="#ArialMT-8722"/>
       <use x="58.398438" xlink:href="#ArialMT-49"/>
      </g>
     </g>
    </g>
    <g id="ytick_5">
     <g id="line2d_10">
      <path clip-path="url(#p31f3b2843d)" d="M 72.425 231.561264 
L 437.9125 231.561264 
" style="fill:none;stroke:#cccccc;stroke-linecap:round;"/>
     </g>
     <g id="text_11">
      <!-- 0 -->
      <g style="fill:#262626;" transform="translate(50.690937 239.434858)scale(0.22 -0.22)">
       <use xlink:href="#ArialMT-48"/>
      </g>
     </g>
    </g>
    <g id="ytick_6">
     <g id="line2d_11">
      <path clip-path="url(#p31f3b2843d)" d="M 72.425 173.154479 
L 437.9125 173.154479 
" style="fill:none;stroke:#cccccc;stroke-linecap:round;"/>
     </g>
     <g id="text_12">
      <!-- 1 -->
      <g style="fill:#262626;" transform="translate(50.690937 181.028073)scale(0.22 -0.22)">
       <use xlink:href="#ArialMT-49"/>
      </g>
     </g>
    </g>
    <g id="ytick_7">
     <g id="line2d_12">
      <path clip-path="url(#p31f3b2843d)" d="M 72.425 114.747694 
L 437.9125 114.747694 
" style="fill:none;stroke:#cccccc;stroke-linecap:round;"/>
     </g>
     <g id="text_13">
      <!-- 2 -->
      <g style="fill:#262626;" transform="translate(50.690937 122.621288)scale(0.22 -0.22)">
       <use xlink:href="#ArialMT-50"/>
      </g>
     </g>
    </g>
    <g id="ytick_8">
     <g id="line2d_13">
      <path clip-path="url(#p31f3b2843d)" d="M 72.425 56.340909 
L 437.9125 56.340909 
" style="fill:none;stroke:#cccccc;stroke-linecap:round;"/>
     </g>
     <g id="text_14">
      <!-- 3 -->
      <g style="fill:#262626;" transform="translate(50.690937 64.214503)scale(0.22 -0.22)">
       <use xlink:href="#ArialMT-51"/>
      </g>
     </g>
    </g>
    <g id="text_15">
     <!-- Z-Score -->
     <defs>
      <path d="M 2 0 
L 2 8.796875 
L 38.671875 54.640625 
Q 42.578125 59.515625 46.09375 63.140625 
L 6.15625 63.140625 
L 6.15625 71.578125 
L 57.421875 71.578125 
L 57.421875 63.140625 
L 17.234375 13.484375 
L 12.890625 8.453125 
L 58.59375 8.453125 
L 58.59375 0 
z
" id="ArialMT-90"/>
      <path d="M 3.171875 21.484375 
L 3.171875 30.328125 
L 30.171875 30.328125 
L 30.171875 21.484375 
z
" id="ArialMT-45"/>
      <path d="M 40.4375 19 
L 49.078125 17.875 
Q 47.65625 8.9375 41.8125 3.875 
Q 35.984375 -1.171875 27.484375 -1.171875 
Q 16.84375 -1.171875 10.375 5.78125 
Q 3.90625 12.75 3.90625 25.734375 
Q 3.90625 34.125 6.6875 40.421875 
Q 9.46875 46.734375 15.15625 49.875 
Q 20.84375 53.03125 27.546875 53.03125 
Q 35.984375 53.03125 41.359375 48.75 
Q 46.734375 44.484375 48.25 36.625 
L 39.703125 35.296875 
Q 38.484375 40.53125 35.375 43.15625 
Q 32.28125 45.796875 27.875 45.796875 
Q 21.234375 45.796875 17.078125 41.03125 
Q 12.9375 36.28125 12.9375 25.984375 
Q 12.9375 15.53125 16.9375 10.796875 
Q 20.953125 6.0625 27.390625 6.0625 
Q 32.5625 6.0625 36.03125 9.234375 
Q 39.5 12.40625 40.4375 19 
z
" id="ArialMT-99"/>
      <path d="M 6.5 0 
L 6.5 51.859375 
L 14.40625 51.859375 
L 14.40625 44 
Q 17.4375 49.515625 20 51.265625 
Q 22.5625 53.03125 25.640625 53.03125 
Q 30.078125 53.03125 34.671875 50.203125 
L 31.640625 42.046875 
Q 28.421875 43.953125 25.203125 43.953125 
Q 22.3125 43.953125 20.015625 42.21875 
Q 17.71875 40.484375 16.75 37.40625 
Q 15.28125 32.71875 15.28125 27.15625 
L 15.28125 0 
z
" id="ArialMT-114"/>
     </defs>
     <g style="fill:#262626;" transform="translate(29.071562 314.42125)rotate(-90)scale(0.24 -0.24)">
      <use xlink:href="#ArialMT-90"/>
      <use x="61.083984" xlink:href="#ArialMT-45"/>
      <use x="94.384766" xlink:href="#ArialMT-83"/>
      <use x="161.083984" xlink:href="#ArialMT-99"/>
      <use x="211.083984" xlink:href="#ArialMT-111"/>
      <use x="266.699219" xlink:href="#ArialMT-114"/>
      <use x="300" xlink:href="#ArialMT-101"/>
     </g>
    </g>
   </g>
   <g id="PathCollection_1">
    <defs>
     <path d="M -2.5 2.5 
L 2.5 -2.5 
M -2.5 -2.5 
L 2.5 2.5 
" id="mac3367c36d" style="stroke:#c44e52;stroke-opacity:0.5;"/>
    </defs>
    <g clip-path="url(#p31f3b2843d)">
     <use style="fill:#c44e52;fill-opacity:0.5;stroke:#c44e52;stroke-opacity:0.5;" x="408.816832" xlink:href="#mac3367c36d" y="269.05605"/>
     <use style="fill:#c44e52;fill-opacity:0.5;stroke:#c44e52;stroke-opacity:0.5;" x="402.485945" xlink:href="#mac3367c36d" y="183.805791"/>
     <use style="fill:#c44e52;fill-opacity:0.5;stroke:#c44e52;stroke-opacity:0.5;" x="332.006415" xlink:href="#mac3367c36d" y="210.503199"/>
     <use style="fill:#c44e52;fill-opacity:0.5;stroke:#c44e52;stroke-opacity:0.5;" x="390.905005" xlink:href="#mac3367c36d" y="216.229943"/>
     <use style="fill:#c44e52;fill-opacity:0.5;stroke:#c44e52;stroke-opacity:0.5;" x="317.789514" xlink:href="#mac3367c36d" y="233.740728"/>
     <use style="fill:#c44e52;fill-opacity:0.5;stroke:#c44e52;stroke-opacity:0.5;" x="396.444057" xlink:href="#mac3367c36d" y="218.040745"/>
     <use style="fill:#c44e52;fill-opacity:0.5;stroke:#c44e52;stroke-opacity:0.5;" x="396.78786" xlink:href="#mac3367c36d" y="192.299105"/>
     <use style="fill:#c44e52;fill-opacity:0.5;stroke:#c44e52;stroke-opacity:0.5;" x="397.071371" xlink:href="#mac3367c36d" y="262.029573"/>
     <use style="fill:#c44e52;fill-opacity:0.5;stroke:#c44e52;stroke-opacity:0.5;" x="355.024254" xlink:href="#mac3367c36d" y="199.77659"/>
     <use style="fill:#c44e52;fill-opacity:0.5;stroke:#c44e52;stroke-opacity:0.5;" x="426.302187" xlink:href="#mac3367c36d" y="241.471927"/>
     <use style="fill:#c44e52;fill-opacity:0.5;stroke:#c44e52;stroke-opacity:0.5;" x="359.296124" xlink:href="#mac3367c36d" y="216.049806"/>
     <use style="fill:#c44e52;fill-opacity:0.5;stroke:#c44e52;stroke-opacity:0.5;" x="426.9592" xlink:href="#mac3367c36d" y="198.041558"/>
     <use style="fill:#c44e52;fill-opacity:0.5;stroke:#c44e52;stroke-opacity:0.5;" x="354.347259" xlink:href="#mac3367c36d" y="217.944621"/>
     <use style="fill:#c44e52;fill-opacity:0.5;stroke:#c44e52;stroke-opacity:0.5;" x="366.69711" xlink:href="#mac3367c36d" y="234.340522"/>
     <use style="fill:#c44e52;fill-opacity:0.5;stroke:#c44e52;stroke-opacity:0.5;" x="333.457119" xlink:href="#mac3367c36d" y="224.61413"/>
     <use style="fill:#c44e52;fill-opacity:0.5;stroke:#c44e52;stroke-opacity:0.5;" x="320.497495" xlink:href="#mac3367c36d" y="259.921667"/>
     <use style="fill:#c44e52;fill-opacity:0.5;stroke:#c44e52;stroke-opacity:0.5;" x="415.460082" xlink:href="#mac3367c36d" y="273.30461"/>
     <use style="fill:#c44e52;fill-opacity:0.5;stroke:#c44e52;stroke-opacity:0.5;" x="430.286887" xlink:href="#mac3367c36d" y="262.989567"/>
     <use style="fill:#c44e52;fill-opacity:0.5;stroke:#c44e52;stroke-opacity:0.5;" x="350.865569" xlink:href="#mac3367c36d" y="193.670457"/>
     <use style="fill:#c44e52;fill-opacity:0.5;stroke:#c44e52;stroke-opacity:0.5;" x="411.883289" xlink:href="#mac3367c36d" y="236.254922"/>
     <use style="fill:#c44e52;fill-opacity:0.5;stroke:#c44e52;stroke-opacity:0.5;" x="342.340549" xlink:href="#mac3367c36d" y="210.983053"/>
     <use style="fill:#c44e52;fill-opacity:0.5;stroke:#c44e52;stroke-opacity:0.5;" x="398.790009" xlink:href="#mac3367c36d" y="189.600031"/>
     <use style="fill:#c44e52;fill-opacity:0.5;stroke:#c44e52;stroke-opacity:0.5;" x="377.743101" xlink:href="#mac3367c36d" y="214.343801"/>
     <use style="fill:#c44e52;fill-opacity:0.5;stroke:#c44e52;stroke-opacity:0.5;" x="338.505569" xlink:href="#mac3367c36d" y="246.202502"/>
     <use style="fill:#c44e52;fill-opacity:0.5;stroke:#c44e52;stroke-opacity:0.5;" x="424.688974" xlink:href="#mac3367c36d" y="293.082218"/>
     <use style="fill:#c44e52;fill-opacity:0.5;stroke:#c44e52;stroke-opacity:0.5;" x="372.219935" xlink:href="#mac3367c36d" y="191.656603"/>
     <use style="fill:#c44e52;fill-opacity:0.5;stroke:#c44e52;stroke-opacity:0.5;" x="361.60404" xlink:href="#mac3367c36d" y="235.679984"/>
     <use style="fill:#c44e52;fill-opacity:0.5;stroke:#c44e52;stroke-opacity:0.5;" x="328.974653" xlink:href="#mac3367c36d" y="215.708157"/>
     <use style="fill:#c44e52;fill-opacity:0.5;stroke:#c44e52;stroke-opacity:0.5;" x="429.720843" xlink:href="#mac3367c36d" y="205.034637"/>
     <use style="fill:#c44e52;fill-opacity:0.5;stroke:#c44e52;stroke-opacity:0.5;" x="426.650356" xlink:href="#mac3367c36d" y="284.016511"/>
     <use style="fill:#c44e52;fill-opacity:0.5;stroke:#c44e52;stroke-opacity:0.5;" x="423.031508" xlink:href="#mac3367c36d" y="378.889512"/>
     <use style="fill:#c44e52;fill-opacity:0.5;stroke:#c44e52;stroke-opacity:0.5;" x="420.815887" xlink:href="#mac3367c36d" y="236.488942"/>
     <use style="fill:#c44e52;fill-opacity:0.5;stroke:#c44e52;stroke-opacity:0.5;" x="382.593224" xlink:href="#mac3367c36d" y="195.890791"/>
     <use style="fill:#c44e52;fill-opacity:0.5;stroke:#c44e52;stroke-opacity:0.5;" x="400.321394" xlink:href="#mac3367c36d" y="220.417204"/>
     <use style="fill:#c44e52;fill-opacity:0.5;stroke:#c44e52;stroke-opacity:0.5;" x="422.809946" xlink:href="#mac3367c36d" y="231.911907"/>
     <use style="fill:#c44e52;fill-opacity:0.5;stroke:#c44e52;stroke-opacity:0.5;" x="337.812584" xlink:href="#mac3367c36d" y="206.620003"/>
     <use style="fill:#c44e52;fill-opacity:0.5;stroke:#c44e52;stroke-opacity:0.5;" x="398.331614" xlink:href="#mac3367c36d" y="256.138452"/>
     <use style="fill:#c44e52;fill-opacity:0.5;stroke:#c44e52;stroke-opacity:0.5;" x="363.051484" xlink:href="#mac3367c36d" y="166.884923"/>
     <use style="fill:#c44e52;fill-opacity:0.5;stroke:#c44e52;stroke-opacity:0.5;" x="415.276835" xlink:href="#mac3367c36d" y="226.939272"/>
     <use style="fill:#c44e52;fill-opacity:0.5;stroke:#c44e52;stroke-opacity:0.5;" x="321.851485" xlink:href="#mac3367c36d" y="273.302851"/>
     <use style="fill:#c44e52;fill-opacity:0.5;stroke:#c44e52;stroke-opacity:0.5;" x="400.320039" xlink:href="#mac3367c36d" y="197.302688"/>
     <use style="fill:#c44e52;fill-opacity:0.5;stroke:#c44e52;stroke-opacity:0.5;" x="424.851483" xlink:href="#mac3367c36d" y="325.534083"/>
     <use style="fill:#c44e52;fill-opacity:0.5;stroke:#c44e52;stroke-opacity:0.5;" x="395.201558" xlink:href="#mac3367c36d" y="261.823228"/>
     <use style="fill:#c44e52;fill-opacity:0.5;stroke:#c44e52;stroke-opacity:0.5;" x="347.007205" xlink:href="#mac3367c36d" y="239.37822"/>
     <use style="fill:#c44e52;fill-opacity:0.5;stroke:#c44e52;stroke-opacity:0.5;" x="434.909698" xlink:href="#mac3367c36d" y="223.739338"/>
     <use style="fill:#c44e52;fill-opacity:0.5;stroke:#c44e52;stroke-opacity:0.5;" x="346.503452" xlink:href="#mac3367c36d" y="236.762095"/>
     <use style="fill:#c44e52;fill-opacity:0.5;stroke:#c44e52;stroke-opacity:0.5;" x="396.437822" xlink:href="#mac3367c36d" y="186.554566"/>
     <use style="fill:#c44e52;fill-opacity:0.5;stroke:#c44e52;stroke-opacity:0.5;" x="404.614159" xlink:href="#mac3367c36d" y="284.393269"/>
     <use style="fill:#c44e52;fill-opacity:0.5;stroke:#c44e52;stroke-opacity:0.5;" x="401.862882" xlink:href="#mac3367c36d" y="291.070249"/>
     <use style="fill:#c44e52;fill-opacity:0.5;stroke:#c44e52;stroke-opacity:0.5;" x="383.56576" xlink:href="#mac3367c36d" y="222.392412"/>
     <use style="fill:#c44e52;fill-opacity:0.5;stroke:#c44e52;stroke-opacity:0.5;" x="425.538658" xlink:href="#mac3367c36d" y="284.104702"/>
     <use style="fill:#c44e52;fill-opacity:0.5;stroke:#c44e52;stroke-opacity:0.5;" x="356.29438" xlink:href="#mac3367c36d" y="206.736396"/>
     <use style="fill:#c44e52;fill-opacity:0.5;stroke:#c44e52;stroke-opacity:0.5;" x="351.742636" xlink:href="#mac3367c36d" y="183.619459"/>
    </g>
   </g>
   <g id="PathCollection_2">
    <defs>
     <path d="M 0 1.25 
C 0.331504 1.25 0.649475 1.118292 0.883883 0.883883 
C 1.118292 0.649475 1.25 0.331504 1.25 0 
C 1.25 -0.331504 1.118292 -0.649475 0.883883 -0.883883 
C 0.649475 -1.118292 0.331504 -1.25 0 -1.25 
C -0.331504 -1.25 -0.649475 -1.118292 -0.883883 -0.883883 
C -1.118292 -0.649475 -1.25 -0.331504 -1.25 0 
C -1.25 0.331504 -1.118292 0.649475 -0.883883 0.883883 
C -0.649475 1.118292 -0.331504 1.25 0 1.25 
z
" id="m2d2a2a0956" style="stroke:#1a1a1a;stroke-opacity:0.5;"/>
    </defs>
    <g clip-path="url(#p31f3b2843d)">
     <use style="fill:#1a1a1a;fill-opacity:0.5;stroke:#1a1a1a;stroke-opacity:0.5;" x="132.9698" xlink:href="#m2d2a2a0956" y="201.718135"/>
     <use style="fill:#1a1a1a;fill-opacity:0.5;stroke:#1a1a1a;stroke-opacity:0.5;" x="232.371496" xlink:href="#m2d2a2a0956" y="216.756631"/>
     <use style="fill:#1a1a1a;fill-opacity:0.5;stroke:#1a1a1a;stroke-opacity:0.5;" x="310.840316" xlink:href="#m2d2a2a0956" y="151.555456"/>
     <use style="fill:#1a1a1a;fill-opacity:0.5;stroke:#1a1a1a;stroke-opacity:0.5;" x="271.920075" xlink:href="#m2d2a2a0956" y="245.473381"/>
     <use style="fill:#1a1a1a;fill-opacity:0.5;stroke:#1a1a1a;stroke-opacity:0.5;" x="97.681421" xlink:href="#m2d2a2a0956" y="242.746335"/>
     <use style="fill:#1a1a1a;fill-opacity:0.5;stroke:#1a1a1a;stroke-opacity:0.5;" x="230.826392" xlink:href="#m2d2a2a0956" y="214.838854"/>
     <use style="fill:#1a1a1a;fill-opacity:0.5;stroke:#1a1a1a;stroke-opacity:0.5;" x="310.477965" xlink:href="#m2d2a2a0956" y="192.938837"/>
     <use style="fill:#1a1a1a;fill-opacity:0.5;stroke:#1a1a1a;stroke-opacity:0.5;" x="332.93957" xlink:href="#m2d2a2a0956" y="197.127101"/>
     <use style="fill:#1a1a1a;fill-opacity:0.5;stroke:#1a1a1a;stroke-opacity:0.5;" x="138.584879" xlink:href="#m2d2a2a0956" y="262.11999"/>
     <use style="fill:#1a1a1a;fill-opacity:0.5;stroke:#1a1a1a;stroke-opacity:0.5;" x="139.143997" xlink:href="#m2d2a2a0956" y="205.041483"/>
     <use style="fill:#1a1a1a;fill-opacity:0.5;stroke:#1a1a1a;stroke-opacity:0.5;" x="325.405711" xlink:href="#m2d2a2a0956" y="183.076591"/>
     <use style="fill:#1a1a1a;fill-opacity:0.5;stroke:#1a1a1a;stroke-opacity:0.5;" x="105.742525" xlink:href="#m2d2a2a0956" y="247.142876"/>
     <use style="fill:#1a1a1a;fill-opacity:0.5;stroke:#1a1a1a;stroke-opacity:0.5;" x="151.863802" xlink:href="#m2d2a2a0956" y="226.966086"/>
     <use style="fill:#1a1a1a;fill-opacity:0.5;stroke:#1a1a1a;stroke-opacity:0.5;" x="273.535401" xlink:href="#m2d2a2a0956" y="199.507079"/>
     <use style="fill:#1a1a1a;fill-opacity:0.5;stroke:#1a1a1a;stroke-opacity:0.5;" x="204.268094" xlink:href="#m2d2a2a0956" y="197.484597"/>
     <use style="fill:#1a1a1a;fill-opacity:0.5;stroke:#1a1a1a;stroke-opacity:0.5;" x="89.841218" xlink:href="#m2d2a2a0956" y="248.656649"/>
     <use style="fill:#1a1a1a;fill-opacity:0.5;stroke:#1a1a1a;stroke-opacity:0.5;" x="279.168798" xlink:href="#m2d2a2a0956" y="168.770176"/>
     <use style="fill:#1a1a1a;fill-opacity:0.5;stroke:#1a1a1a;stroke-opacity:0.5;" x="254.709482" xlink:href="#m2d2a2a0956" y="228.205349"/>
     <use style="fill:#1a1a1a;fill-opacity:0.5;stroke:#1a1a1a;stroke-opacity:0.5;" x="297.159815" xlink:href="#m2d2a2a0956" y="204.562569"/>
     <use style="fill:#1a1a1a;fill-opacity:0.5;stroke:#1a1a1a;stroke-opacity:0.5;" x="307.261241" xlink:href="#m2d2a2a0956" y="182.899971"/>
     <use style="fill:#1a1a1a;fill-opacity:0.5;stroke:#1a1a1a;stroke-opacity:0.5;" x="257.981341" xlink:href="#m2d2a2a0956" y="219.320801"/>
     <use style="fill:#1a1a1a;fill-opacity:0.5;stroke:#1a1a1a;stroke-opacity:0.5;" x="110.628956" xlink:href="#m2d2a2a0956" y="252.359732"/>
     <use style="fill:#1a1a1a;fill-opacity:0.5;stroke:#1a1a1a;stroke-opacity:0.5;" x="286.106134" xlink:href="#m2d2a2a0956" y="231.352775"/>
     <use style="fill:#1a1a1a;fill-opacity:0.5;stroke:#1a1a1a;stroke-opacity:0.5;" x="131.288231" xlink:href="#m2d2a2a0956" y="250.407711"/>
     <use style="fill:#1a1a1a;fill-opacity:0.5;stroke:#1a1a1a;stroke-opacity:0.5;" x="128.257592" xlink:href="#m2d2a2a0956" y="244.704667"/>
     <use style="fill:#1a1a1a;fill-opacity:0.5;stroke:#1a1a1a;stroke-opacity:0.5;" x="346.890207" xlink:href="#m2d2a2a0956" y="188.364683"/>
     <use style="fill:#1a1a1a;fill-opacity:0.5;stroke:#1a1a1a;stroke-opacity:0.5;" x="198.215221" xlink:href="#m2d2a2a0956" y="287.426909"/>
     <use style="fill:#1a1a1a;fill-opacity:0.5;stroke:#1a1a1a;stroke-opacity:0.5;" x="293.417683" xlink:href="#m2d2a2a0956" y="235.10305"/>
     <use style="fill:#1a1a1a;fill-opacity:0.5;stroke:#1a1a1a;stroke-opacity:0.5;" x="74.07121" xlink:href="#m2d2a2a0956" y="236.844863"/>
     <use style="fill:#1a1a1a;fill-opacity:0.5;stroke:#1a1a1a;stroke-opacity:0.5;" x="84.59541" xlink:href="#m2d2a2a0956" y="224.506321"/>
     <use style="fill:#1a1a1a;fill-opacity:0.5;stroke:#1a1a1a;stroke-opacity:0.5;" x="124.185519" xlink:href="#m2d2a2a0956" y="214.485868"/>
     <use style="fill:#1a1a1a;fill-opacity:0.5;stroke:#1a1a1a;stroke-opacity:0.5;" x="187.121267" xlink:href="#m2d2a2a0956" y="283.035835"/>
     <use style="fill:#1a1a1a;fill-opacity:0.5;stroke:#1a1a1a;stroke-opacity:0.5;" x="286.106134" xlink:href="#m2d2a2a0956" y="227.363015"/>
     <use style="fill:#1a1a1a;fill-opacity:0.5;stroke:#1a1a1a;stroke-opacity:0.5;" x="163.803858" xlink:href="#m2d2a2a0956" y="238.989383"/>
     <use style="fill:#1a1a1a;fill-opacity:0.5;stroke:#1a1a1a;stroke-opacity:0.5;" x="150.297999" xlink:href="#m2d2a2a0956" y="227.428825"/>
     <use style="fill:#1a1a1a;fill-opacity:0.5;stroke:#1a1a1a;stroke-opacity:0.5;" x="126.720296" xlink:href="#m2d2a2a0956" y="254.652602"/>
     <use style="fill:#1a1a1a;fill-opacity:0.5;stroke:#1a1a1a;stroke-opacity:0.5;" x="231.6477" xlink:href="#m2d2a2a0956" y="212.276389"/>
     <use style="fill:#1a1a1a;fill-opacity:0.5;stroke:#1a1a1a;stroke-opacity:0.5;" x="81.687407" xlink:href="#m2d2a2a0956" y="258.921828"/>
     <use style="fill:#1a1a1a;fill-opacity:0.5;stroke:#1a1a1a;stroke-opacity:0.5;" x="182.082731" xlink:href="#m2d2a2a0956" y="288.755354"/>
     <use style="fill:#1a1a1a;fill-opacity:0.5;stroke:#1a1a1a;stroke-opacity:0.5;" x="309.259373" xlink:href="#m2d2a2a0956" y="206.709502"/>
     <use style="fill:#1a1a1a;fill-opacity:0.5;stroke:#1a1a1a;stroke-opacity:0.5;" x="92.75628" xlink:href="#m2d2a2a0956" y="228.154617"/>
     <use style="fill:#1a1a1a;fill-opacity:0.5;stroke:#1a1a1a;stroke-opacity:0.5;" x="225.443125" xlink:href="#m2d2a2a0956" y="199.989667"/>
     <use style="fill:#1a1a1a;fill-opacity:0.5;stroke:#1a1a1a;stroke-opacity:0.5;" x="112.062593" xlink:href="#m2d2a2a0956" y="230.097613"/>
     <use style="fill:#1a1a1a;fill-opacity:0.5;stroke:#1a1a1a;stroke-opacity:0.5;" x="279.937473" xlink:href="#m2d2a2a0956" y="209.823131"/>
     <use style="fill:#1a1a1a;fill-opacity:0.5;stroke:#1a1a1a;stroke-opacity:0.5;" x="281.100737" xlink:href="#m2d2a2a0956" y="237.973942"/>
     <use style="fill:#1a1a1a;fill-opacity:0.5;stroke:#1a1a1a;stroke-opacity:0.5;" x="313.981415" xlink:href="#m2d2a2a0956" y="167.443751"/>
     <use style="fill:#1a1a1a;fill-opacity:0.5;stroke:#1a1a1a;stroke-opacity:0.5;" x="84.903135" xlink:href="#m2d2a2a0956" y="259.507008"/>
     <use style="fill:#1a1a1a;fill-opacity:0.5;stroke:#1a1a1a;stroke-opacity:0.5;" x="76.845992" xlink:href="#m2d2a2a0956" y="243.639714"/>
     <use style="fill:#1a1a1a;fill-opacity:0.5;stroke:#1a1a1a;stroke-opacity:0.5;" x="106.566984" xlink:href="#m2d2a2a0956" y="225.851696"/>
     <use style="fill:#1a1a1a;fill-opacity:0.5;stroke:#1a1a1a;stroke-opacity:0.5;" x="229.831028" xlink:href="#m2d2a2a0956" y="237.622202"/>
     <use style="fill:#1a1a1a;fill-opacity:0.5;stroke:#1a1a1a;stroke-opacity:0.5;" x="288.579158" xlink:href="#m2d2a2a0956" y="238.443291"/>
     <use style="fill:#1a1a1a;fill-opacity:0.5;stroke:#1a1a1a;stroke-opacity:0.5;" x="192.950921" xlink:href="#m2d2a2a0956" y="284.596902"/>
     <use style="fill:#1a1a1a;fill-opacity:0.5;stroke:#1a1a1a;stroke-opacity:0.5;" x="131.416694" xlink:href="#m2d2a2a0956" y="283.330181"/>
     <use style="fill:#1a1a1a;fill-opacity:0.5;stroke:#1a1a1a;stroke-opacity:0.5;" x="266.109488" xlink:href="#m2d2a2a0956" y="229.108535"/>
     <use style="fill:#1a1a1a;fill-opacity:0.5;stroke:#1a1a1a;stroke-opacity:0.5;" x="188.175689" xlink:href="#m2d2a2a0956" y="241.096683"/>
     <use style="fill:#1a1a1a;fill-opacity:0.5;stroke:#1a1a1a;stroke-opacity:0.5;" x="144.570243" xlink:href="#m2d2a2a0956" y="236.14822"/>
     <use style="fill:#1a1a1a;fill-opacity:0.5;stroke:#1a1a1a;stroke-opacity:0.5;" x="274.458339" xlink:href="#m2d2a2a0956" y="183.236424"/>
     <use style="fill:#1a1a1a;fill-opacity:0.5;stroke:#1a1a1a;stroke-opacity:0.5;" x="82.195154" xlink:href="#m2d2a2a0956" y="272.162658"/>
     <use style="fill:#1a1a1a;fill-opacity:0.5;stroke:#1a1a1a;stroke-opacity:0.5;" x="244.884125" xlink:href="#m2d2a2a0956" y="196.534322"/>
     <use style="fill:#1a1a1a;fill-opacity:0.5;stroke:#1a1a1a;stroke-opacity:0.5;" x="221.58492" xlink:href="#m2d2a2a0956" y="188.477669"/>
     <use style="fill:#1a1a1a;fill-opacity:0.5;stroke:#1a1a1a;stroke-opacity:0.5;" x="104.862573" xlink:href="#m2d2a2a0956" y="243.845328"/>
     <use style="fill:#1a1a1a;fill-opacity:0.5;stroke:#1a1a1a;stroke-opacity:0.5;" x="318.932658" xlink:href="#m2d2a2a0956" y="181.121676"/>
     <use style="fill:#1a1a1a;fill-opacity:0.5;stroke:#1a1a1a;stroke-opacity:0.5;" x="104.535998" xlink:href="#m2d2a2a0956" y="268.56071"/>
     <use style="fill:#1a1a1a;fill-opacity:0.5;stroke:#1a1a1a;stroke-opacity:0.5;" x="240.528299" xlink:href="#m2d2a2a0956" y="242.305401"/>
     <use style="fill:#1a1a1a;fill-opacity:0.5;stroke:#1a1a1a;stroke-opacity:0.5;" x="262.39899" xlink:href="#m2d2a2a0956" y="248.928175"/>
     <use style="fill:#1a1a1a;fill-opacity:0.5;stroke:#1a1a1a;stroke-opacity:0.5;" x="248.519768" xlink:href="#m2d2a2a0956" y="209.526295"/>
     <use style="fill:#1a1a1a;fill-opacity:0.5;stroke:#1a1a1a;stroke-opacity:0.5;" x="161.510009" xlink:href="#m2d2a2a0956" y="240.41292"/>
     <use style="fill:#1a1a1a;fill-opacity:0.5;stroke:#1a1a1a;stroke-opacity:0.5;" x="116.721914" xlink:href="#m2d2a2a0956" y="272.894755"/>
     <use style="fill:#1a1a1a;fill-opacity:0.5;stroke:#1a1a1a;stroke-opacity:0.5;" x="221.051135" xlink:href="#m2d2a2a0956" y="210.028177"/>
     <use style="fill:#1a1a1a;fill-opacity:0.5;stroke:#1a1a1a;stroke-opacity:0.5;" x="76.779192" xlink:href="#m2d2a2a0956" y="245.516507"/>
     <use style="fill:#1a1a1a;fill-opacity:0.5;stroke:#1a1a1a;stroke-opacity:0.5;" x="101.766472" xlink:href="#m2d2a2a0956" y="245.425417"/>
     <use style="fill:#1a1a1a;fill-opacity:0.5;stroke:#1a1a1a;stroke-opacity:0.5;" x="79.843486" xlink:href="#m2d2a2a0956" y="240.765636"/>
     <use style="fill:#1a1a1a;fill-opacity:0.5;stroke:#1a1a1a;stroke-opacity:0.5;" x="275.579265" xlink:href="#m2d2a2a0956" y="210.705111"/>
     <use style="fill:#1a1a1a;fill-opacity:0.5;stroke:#1a1a1a;stroke-opacity:0.5;" x="255.629866" xlink:href="#m2d2a2a0956" y="231.13881"/>
     <use style="fill:#1a1a1a;fill-opacity:0.5;stroke:#1a1a1a;stroke-opacity:0.5;" x="128.907829" xlink:href="#m2d2a2a0956" y="224.653236"/>
     <use style="fill:#1a1a1a;fill-opacity:0.5;stroke:#1a1a1a;stroke-opacity:0.5;" x="225.841245" xlink:href="#m2d2a2a0956" y="243.333612"/>
     <use style="fill:#1a1a1a;fill-opacity:0.5;stroke:#1a1a1a;stroke-opacity:0.5;" x="95.107549" xlink:href="#m2d2a2a0956" y="230.627725"/>
     <use style="fill:#1a1a1a;fill-opacity:0.5;stroke:#1a1a1a;stroke-opacity:0.5;" x="156.326138" xlink:href="#m2d2a2a0956" y="263.216982"/>
     <use style="fill:#1a1a1a;fill-opacity:0.5;stroke:#1a1a1a;stroke-opacity:0.5;" x="95.966049" xlink:href="#m2d2a2a0956" y="258.869329"/>
     <use style="fill:#1a1a1a;fill-opacity:0.5;stroke:#1a1a1a;stroke-opacity:0.5;" x="74.07121" xlink:href="#m2d2a2a0956" y="274.52859"/>
     <use style="fill:#1a1a1a;fill-opacity:0.5;stroke:#1a1a1a;stroke-opacity:0.5;" x="283.106524" xlink:href="#m2d2a2a0956" y="184.887801"/>
     <use style="fill:#1a1a1a;fill-opacity:0.5;stroke:#1a1a1a;stroke-opacity:0.5;" x="254.990932" xlink:href="#m2d2a2a0956" y="255.302129"/>
     <use style="fill:#1a1a1a;fill-opacity:0.5;stroke:#1a1a1a;stroke-opacity:0.5;" x="213.69212" xlink:href="#m2d2a2a0956" y="284.117689"/>
     <use style="fill:#1a1a1a;fill-opacity:0.5;stroke:#1a1a1a;stroke-opacity:0.5;" x="79.554872" xlink:href="#m2d2a2a0956" y="252.317296"/>
     <use style="fill:#1a1a1a;fill-opacity:0.5;stroke:#1a1a1a;stroke-opacity:0.5;" x="84.25592" xlink:href="#m2d2a2a0956" y="244.166715"/>
     <use style="fill:#1a1a1a;fill-opacity:0.5;stroke:#1a1a1a;stroke-opacity:0.5;" x="230.841362" xlink:href="#m2d2a2a0956" y="252.812696"/>
     <use style="fill:#1a1a1a;fill-opacity:0.5;stroke:#1a1a1a;stroke-opacity:0.5;" x="88.965107" xlink:href="#m2d2a2a0956" y="250.676945"/>
     <use style="fill:#1a1a1a;fill-opacity:0.5;stroke:#1a1a1a;stroke-opacity:0.5;" x="96.781325" xlink:href="#m2d2a2a0956" y="285.162093"/>
     <use style="fill:#1a1a1a;fill-opacity:0.5;stroke:#1a1a1a;stroke-opacity:0.5;" x="83.419759" xlink:href="#m2d2a2a0956" y="239.406057"/>
     <use style="fill:#1a1a1a;fill-opacity:0.5;stroke:#1a1a1a;stroke-opacity:0.5;" x="80.440156" xlink:href="#m2d2a2a0956" y="222.028448"/>
     <use style="fill:#1a1a1a;fill-opacity:0.5;stroke:#1a1a1a;stroke-opacity:0.5;" x="301.541627" xlink:href="#m2d2a2a0956" y="160.756159"/>
     <use style="fill:#1a1a1a;fill-opacity:0.5;stroke:#1a1a1a;stroke-opacity:0.5;" x="111.064167" xlink:href="#m2d2a2a0956" y="254.02307"/>
     <use style="fill:#1a1a1a;fill-opacity:0.5;stroke:#1a1a1a;stroke-opacity:0.5;" x="347.8552" xlink:href="#m2d2a2a0956" y="176.439491"/>
     <use style="fill:#1a1a1a;fill-opacity:0.5;stroke:#1a1a1a;stroke-opacity:0.5;" x="130.569544" xlink:href="#m2d2a2a0956" y="266.833974"/>
     <use style="fill:#1a1a1a;fill-opacity:0.5;stroke:#1a1a1a;stroke-opacity:0.5;" x="290.285883" xlink:href="#m2d2a2a0956" y="260.195788"/>
     <use style="fill:#1a1a1a;fill-opacity:0.5;stroke:#1a1a1a;stroke-opacity:0.5;" x="200.168941" xlink:href="#m2d2a2a0956" y="243.509268"/>
     <use style="fill:#1a1a1a;fill-opacity:0.5;stroke:#1a1a1a;stroke-opacity:0.5;" x="124.797269" xlink:href="#m2d2a2a0956" y="260.159462"/>
    </g>
   </g>
   <g id="patch_3">
    <path clip-path="url(#p31f3b2843d)" d="M 74.07121 348.374834 
L 437.9125 348.374834 
L 437.9125 114.747694 
L 74.07121 114.747694 
z
" style="fill:#55a868;opacity:0.05;stroke:#55a868;stroke-linejoin:miter;"/>
   </g>
   <g id="patch_4">
    <path clip-path="url(#p31f3b2843d)" d="M 74.07121 406.781619 
L 437.9125 406.781619 
L 437.9125 348.374834 
L 74.07121 348.374834 
z
" style="fill:#ffa500;opacity:0.05;stroke:#ffa500;stroke-linejoin:miter;"/>
   </g>
   <g id="patch_5">
    <path clip-path="url(#p31f3b2843d)" d="M 74.07121 114.747694 
L 437.9125 114.747694 
L 437.9125 56.340909 
L 74.07121 56.340909 
z
" style="fill:#ffa500;opacity:0.05;stroke:#ffa500;stroke-linejoin:miter;"/>
   </g>
   <g id="patch_6">
    <path clip-path="url(#p31f3b2843d)" d="M 74.07121 487.159091 
L 437.9125 487.159091 
L 437.9125 406.781619 
L 74.07121 406.781619 
z
" style="fill:#c44e52;opacity:0.05;stroke:#c44e52;stroke-linejoin:miter;"/>
   </g>
   <g id="patch_7">
    <path clip-path="url(#p31f3b2843d)" d="M 74.07121 56.340909 
L 437.9125 56.340909 
L 437.9125 73.608352 
L 74.07121 73.608352 
z
" style="fill:#c44e52;opacity:0.05;stroke:#c44e52;stroke-linejoin:miter;"/>
   </g>
   <g id="line2d_14">
    <path clip-path="url(#p31f3b2843d)" d="M 191.41706 487.159091 
L 191.41706 73.608352 
" style="fill:none;stroke:#ccb974;stroke-linecap:round;stroke-width:2;"/>
   </g>
   <g id="patch_8">
    <path d="M 72.425 508.7 
L 72.425 34.8 
" style="fill:none;stroke:#cccccc;stroke-linecap:square;stroke-linejoin:miter;stroke-width:1.25;"/>
   </g>
   <g id="patch_9">
    <path d="M 437.9125 508.7 
L 437.9125 34.8 
" style="fill:none;stroke:#cccccc;stroke-linecap:square;stroke-linejoin:miter;stroke-width:1.25;"/>
   </g>
   <g id="patch_10">
    <path d="M 72.425 508.7 
L 437.9125 508.7 
" style="fill:none;stroke:#cccccc;stroke-linecap:square;stroke-linejoin:miter;stroke-width:1.25;"/>
   </g>
   <g id="patch_11">
    <path d="M 72.425 34.8 
L 437.9125 34.8 
" style="fill:none;stroke:#cccccc;stroke-linecap:square;stroke-linejoin:miter;stroke-width:1.25;"/>
   </g>
   <g id="text_16">
    <!-- Train -->
    <defs>
     <path d="M 25.921875 0 
L 25.921875 63.140625 
L 2.34375 63.140625 
L 2.34375 71.578125 
L 59.078125 71.578125 
L 59.078125 63.140625 
L 35.40625 63.140625 
L 35.40625 0 
z
" id="ArialMT-84"/>
    </defs>
    <g style="fill:#262626;" transform="translate(227.836875 28.8)scale(0.24 -0.24)">
     <use xlink:href="#ArialMT-84"/>
     <use x="61.037109" xlink:href="#ArialMT-114"/>
     <use x="94.337891" xlink:href="#ArialMT-97"/>
     <use x="149.953125" xlink:href="#ArialMT-105"/>
     <use x="172.169922" xlink:href="#ArialMT-110"/>
    </g>
   </g>
   <g id="legend_1">
    <g id="patch_12">
     <path d="M 200.494688 497.7 
L 422.5125 497.7 
Q 426.9125 497.7 426.9125 493.3 
L 426.9125 402.140937 
Q 426.9125 397.740937 422.5125 397.740937 
L 200.494688 397.740937 
Q 196.094688 397.740937 196.094688 402.140937 
L 196.094688 493.3 
Q 196.094688 497.7 200.494688 497.7 
z
" style="fill:#ffffff;opacity:0.8;stroke:#cccccc;stroke-linejoin:miter;"/>
    </g>
    <g id="line2d_15">
     <path d="M 204.894688 414.588125 
L 248.894688 414.588125 
" style="fill:none;stroke:#ccb974;stroke-linecap:round;stroke-width:2;"/>
    </g>
    <g id="line2d_16"/>
    <g id="text_17">
     <!-- Observed Data -->
     <defs>
      <path d="M 4.828125 34.859375 
Q 4.828125 52.6875 14.390625 62.765625 
Q 23.96875 72.859375 39.109375 72.859375 
Q 49.03125 72.859375 56.984375 68.109375 
Q 64.9375 63.375 69.109375 54.90625 
Q 73.296875 46.4375 73.296875 35.6875 
Q 73.296875 24.8125 68.890625 16.21875 
Q 64.5 7.625 56.4375 3.203125 
Q 48.390625 -1.21875 39.0625 -1.21875 
Q 28.953125 -1.21875 20.984375 3.65625 
Q 13.03125 8.546875 8.921875 16.984375 
Q 4.828125 25.4375 4.828125 34.859375 
z
M 14.59375 34.71875 
Q 14.59375 21.78125 21.546875 14.328125 
Q 28.515625 6.890625 39.015625 6.890625 
Q 49.703125 6.890625 56.609375 14.40625 
Q 63.53125 21.921875 63.53125 35.75 
Q 63.53125 44.484375 60.578125 51 
Q 57.625 57.515625 51.921875 61.109375 
Q 46.234375 64.703125 39.15625 64.703125 
Q 29.109375 64.703125 21.84375 57.78125 
Q 14.59375 50.875 14.59375 34.71875 
z
" id="ArialMT-79"/>
      <path d="M 14.703125 0 
L 6.546875 0 
L 6.546875 71.578125 
L 15.328125 71.578125 
L 15.328125 46.046875 
Q 20.90625 53.03125 29.546875 53.03125 
Q 34.328125 53.03125 38.59375 51.09375 
Q 42.875 49.171875 45.625 45.671875 
Q 48.390625 42.1875 49.953125 37.25 
Q 51.515625 32.328125 51.515625 26.703125 
Q 51.515625 13.375 44.921875 6.09375 
Q 38.328125 -1.171875 29.109375 -1.171875 
Q 19.921875 -1.171875 14.703125 6.5 
z
M 14.59375 26.3125 
Q 14.59375 17 17.140625 12.84375 
Q 21.296875 6.0625 28.375 6.0625 
Q 34.125 6.0625 38.328125 11.0625 
Q 42.53125 16.0625 42.53125 25.984375 
Q 42.53125 36.140625 38.5 40.96875 
Q 34.46875 45.796875 28.765625 45.796875 
Q 23 45.796875 18.796875 40.796875 
Q 14.59375 35.796875 14.59375 26.3125 
z
" id="ArialMT-98"/>
      <path d="M 21 0 
L 1.265625 51.859375 
L 10.546875 51.859375 
L 21.6875 20.796875 
Q 23.484375 15.765625 25 10.359375 
Q 26.171875 14.453125 28.265625 20.21875 
L 39.796875 51.859375 
L 48.828125 51.859375 
L 29.203125 0 
z
" id="ArialMT-118"/>
      <path d="M 40.234375 0 
L 40.234375 6.546875 
Q 35.296875 -1.171875 25.734375 -1.171875 
Q 19.53125 -1.171875 14.328125 2.25 
Q 9.125 5.671875 6.265625 11.796875 
Q 3.421875 17.921875 3.421875 25.875 
Q 3.421875 33.640625 6 39.96875 
Q 8.59375 46.296875 13.765625 49.65625 
Q 18.953125 53.03125 25.34375 53.03125 
Q 30.03125 53.03125 33.6875 51.046875 
Q 37.359375 49.078125 39.65625 45.90625 
L 39.65625 71.578125 
L 48.390625 71.578125 
L 48.390625 0 
z
M 12.453125 25.875 
Q 12.453125 15.921875 16.640625 10.984375 
Q 20.84375 6.0625 26.5625 6.0625 
Q 32.328125 6.0625 36.34375 10.765625 
Q 40.375 15.484375 40.375 25.140625 
Q 40.375 35.796875 36.265625 40.765625 
Q 32.171875 45.75 26.171875 45.75 
Q 20.3125 45.75 16.375 40.96875 
Q 12.453125 36.1875 12.453125 25.875 
z
" id="ArialMT-100"/>
      <path d="M 7.71875 0 
L 7.71875 71.578125 
L 32.375 71.578125 
Q 40.71875 71.578125 45.125 70.5625 
Q 51.265625 69.140625 55.609375 65.4375 
Q 61.28125 60.640625 64.078125 53.1875 
Q 66.890625 45.75 66.890625 36.1875 
Q 66.890625 28.03125 64.984375 21.734375 
Q 63.09375 15.4375 60.109375 11.296875 
Q 57.125 7.171875 53.578125 4.796875 
Q 50.046875 2.4375 45.046875 1.21875 
Q 40.046875 0 33.546875 0 
z
M 17.1875 8.453125 
L 32.46875 8.453125 
Q 39.546875 8.453125 43.578125 9.765625 
Q 47.609375 11.078125 50 13.484375 
Q 53.375 16.84375 55.25 22.53125 
Q 57.125 28.21875 57.125 36.328125 
Q 57.125 47.5625 53.4375 53.59375 
Q 49.75 59.625 44.484375 61.671875 
Q 40.671875 63.140625 32.234375 63.140625 
L 17.1875 63.140625 
z
" id="ArialMT-68"/>
     </defs>
     <g style="fill:#262626;" transform="translate(266.494688 422.288125)scale(0.22 -0.22)">
      <use xlink:href="#ArialMT-79"/>
      <use x="77.783203" xlink:href="#ArialMT-98"/>
      <use x="133.398438" xlink:href="#ArialMT-115"/>
      <use x="183.398438" xlink:href="#ArialMT-101"/>
      <use x="239.013672" xlink:href="#ArialMT-114"/>
      <use x="272.314453" xlink:href="#ArialMT-118"/>
      <use x="322.314453" xlink:href="#ArialMT-101"/>
      <use x="377.929688" xlink:href="#ArialMT-100"/>
      <use x="433.544922" xlink:href="#ArialMT-32"/>
      <use x="461.328125" xlink:href="#ArialMT-68"/>
      <use x="533.544922" xlink:href="#ArialMT-97"/>
      <use x="589.160156" xlink:href="#ArialMT-116"/>
      <use x="616.943359" xlink:href="#ArialMT-97"/>
     </g>
    </g>
    <g id="PathCollection_3">
     <g>
      <use style="fill:#c44e52;fill-opacity:0.5;stroke:#c44e52;stroke-opacity:0.5;" x="226.894688" xlink:href="#mac3367c36d" y="447.632812"/>
     </g>
    </g>
    <g id="text_18">
     <!-- Implausible -->
     <defs>
      <path d="M 9.328125 0 
L 9.328125 71.578125 
L 18.796875 71.578125 
L 18.796875 0 
z
" id="ArialMT-73"/>
      <path d="M 6.59375 -19.875 
L 6.59375 51.859375 
L 14.59375 51.859375 
L 14.59375 45.125 
Q 17.4375 49.078125 21 51.046875 
Q 24.5625 53.03125 29.640625 53.03125 
Q 36.28125 53.03125 41.359375 49.609375 
Q 46.4375 46.1875 49.015625 39.953125 
Q 51.609375 33.734375 51.609375 26.3125 
Q 51.609375 18.359375 48.75 11.984375 
Q 45.90625 5.609375 40.453125 2.21875 
Q 35.015625 -1.171875 29 -1.171875 
Q 24.609375 -1.171875 21.109375 0.6875 
Q 17.625 2.546875 15.375 5.375 
L 15.375 -19.875 
z
M 14.546875 25.640625 
Q 14.546875 15.625 18.59375 10.84375 
Q 22.65625 6.0625 28.421875 6.0625 
Q 34.28125 6.0625 38.453125 11.015625 
Q 42.625 15.96875 42.625 26.375 
Q 42.625 36.28125 38.546875 41.203125 
Q 34.46875 46.140625 28.8125 46.140625 
Q 23.1875 46.140625 18.859375 40.890625 
Q 14.546875 35.640625 14.546875 25.640625 
z
" id="ArialMT-112"/>
     </defs>
     <g style="fill:#262626;" transform="translate(266.494688 453.407812)scale(0.22 -0.22)">
      <use xlink:href="#ArialMT-73"/>
      <use x="27.783203" xlink:href="#ArialMT-109"/>
      <use x="111.083984" xlink:href="#ArialMT-112"/>
      <use x="166.699219" xlink:href="#ArialMT-108"/>
      <use x="188.916016" xlink:href="#ArialMT-97"/>
      <use x="244.53125" xlink:href="#ArialMT-117"/>
      <use x="300.146484" xlink:href="#ArialMT-115"/>
      <use x="350.146484" xlink:href="#ArialMT-105"/>
      <use x="372.363281" xlink:href="#ArialMT-98"/>
      <use x="427.978516" xlink:href="#ArialMT-108"/>
      <use x="450.195312" xlink:href="#ArialMT-101"/>
     </g>
    </g>
    <g id="PathCollection_4">
     <g>
      <use style="fill:#1a1a1a;fill-opacity:0.5;stroke:#1a1a1a;stroke-opacity:0.5;" x="226.894688" xlink:href="#m2d2a2a0956" y="478.7525"/>
     </g>
    </g>
    <g id="text_19">
     <!-- Not Implausible -->
     <defs>
      <path d="M 7.625 0 
L 7.625 71.578125 
L 17.328125 71.578125 
L 54.9375 15.375 
L 54.9375 71.578125 
L 64.015625 71.578125 
L 64.015625 0 
L 54.296875 0 
L 16.703125 56.25 
L 16.703125 0 
z
" id="ArialMT-78"/>
     </defs>
     <g style="fill:#262626;" transform="translate(266.494688 484.5275)scale(0.22 -0.22)">
      <use xlink:href="#ArialMT-78"/>
      <use x="72.216797" xlink:href="#ArialMT-111"/>
      <use x="127.832031" xlink:href="#ArialMT-116"/>
      <use x="155.615234" xlink:href="#ArialMT-32"/>
      <use x="183.398438" xlink:href="#ArialMT-73"/>
      <use x="211.181641" xlink:href="#ArialMT-109"/>
      <use x="294.482422" xlink:href="#ArialMT-112"/>
      <use x="350.097656" xlink:href="#ArialMT-108"/>
      <use x="372.314453" xlink:href="#ArialMT-97"/>
      <use x="427.929688" xlink:href="#ArialMT-117"/>
      <use x="483.544922" xlink:href="#ArialMT-115"/>
      <use x="533.544922" xlink:href="#ArialMT-105"/>
      <use x="555.761719" xlink:href="#ArialMT-98"/>
      <use x="611.376953" xlink:href="#ArialMT-108"/>
      <use x="633.59375" xlink:href="#ArialMT-101"/>
     </g>
    </g>
   </g>
  </g>
  <g id="axes_2">
   <g id="patch_13">
    <path d="M 481.7125 508.7 
L 847.2 508.7 
L 847.2 34.8 
L 481.7125 34.8 
z
" style="fill:#ffffff;"/>
   </g>
   <g id="matplotlib.axis_3">
    <g id="xtick_6">
     <g id="line2d_17">
      <path clip-path="url(#pa05aa05f61)" d="M 483.35871 508.7 
L 483.35871 34.8 
" style="fill:none;stroke:#cccccc;stroke-linecap:round;"/>
     </g>
     <g id="text_20">
      <!-- 0.0 -->
      <g style="fill:#262626;" transform="translate(468.06871 533.947187)scale(0.22 -0.22)">
       <use xlink:href="#ArialMT-48"/>
       <use x="55.615234" xlink:href="#ArialMT-46"/>
       <use x="83.398438" xlink:href="#ArialMT-48"/>
      </g>
     </g>
    </g>
    <g id="xtick_7">
     <g id="line2d_18">
      <path clip-path="url(#pa05aa05f61)" d="M 556.474201 508.7 
L 556.474201 34.8 
" style="fill:none;stroke:#cccccc;stroke-linecap:round;"/>
     </g>
     <g id="text_21">
      <!-- 0.2 -->
      <g style="fill:#262626;" transform="translate(541.184201 533.947187)scale(0.22 -0.22)">
       <use xlink:href="#ArialMT-48"/>
       <use x="55.615234" xlink:href="#ArialMT-46"/>
       <use x="83.398438" xlink:href="#ArialMT-50"/>
      </g>
     </g>
    </g>
    <g id="xtick_8">
     <g id="line2d_19">
      <path clip-path="url(#pa05aa05f61)" d="M 629.589692 508.7 
L 629.589692 34.8 
" style="fill:none;stroke:#cccccc;stroke-linecap:round;"/>
     </g>
     <g id="text_22">
      <!-- 0.4 -->
      <g style="fill:#262626;" transform="translate(614.299692 533.947187)scale(0.22 -0.22)">
       <use xlink:href="#ArialMT-48"/>
       <use x="55.615234" xlink:href="#ArialMT-46"/>
       <use x="83.398438" xlink:href="#ArialMT-52"/>
      </g>
     </g>
    </g>
    <g id="xtick_9">
     <g id="line2d_20">
      <path clip-path="url(#pa05aa05f61)" d="M 702.705183 508.7 
L 702.705183 34.8 
" style="fill:none;stroke:#cccccc;stroke-linecap:round;"/>
     </g>
     <g id="text_23">
      <!-- 0.6 -->
      <g style="fill:#262626;" transform="translate(687.415183 533.947187)scale(0.22 -0.22)">
       <use xlink:href="#ArialMT-48"/>
       <use x="55.615234" xlink:href="#ArialMT-46"/>
       <use x="83.398438" xlink:href="#ArialMT-54"/>
      </g>
     </g>
    </g>
    <g id="xtick_10">
     <g id="line2d_21">
      <path clip-path="url(#pa05aa05f61)" d="M 775.820674 508.7 
L 775.820674 34.8 
" style="fill:none;stroke:#cccccc;stroke-linecap:round;"/>
     </g>
     <g id="text_24">
      <!-- 0.8 -->
      <g style="fill:#262626;" transform="translate(760.530674 533.947187)scale(0.22 -0.22)">
       <use xlink:href="#ArialMT-48"/>
       <use x="55.615234" xlink:href="#ArialMT-46"/>
       <use x="83.398438" xlink:href="#ArialMT-56"/>
      </g>
     </g>
    </g>
    <g id="text_25">
     <!-- Simulation Result -->
     <g style="fill:#262626;" transform="translate(571.085 559.498437)scale(0.24 -0.24)">
      <use xlink:href="#ArialMT-83"/>
      <use x="66.699219" xlink:href="#ArialMT-105"/>
      <use x="88.916016" xlink:href="#ArialMT-109"/>
      <use x="172.216797" xlink:href="#ArialMT-117"/>
      <use x="227.832031" xlink:href="#ArialMT-108"/>
      <use x="250.048828" xlink:href="#ArialMT-97"/>
      <use x="305.664062" xlink:href="#ArialMT-116"/>
      <use x="333.447266" xlink:href="#ArialMT-105"/>
      <use x="355.664062" xlink:href="#ArialMT-111"/>
      <use x="411.279297" xlink:href="#ArialMT-110"/>
      <use x="466.894531" xlink:href="#ArialMT-32"/>
      <use x="494.677734" xlink:href="#ArialMT-82"/>
      <use x="566.894531" xlink:href="#ArialMT-101"/>
      <use x="622.509766" xlink:href="#ArialMT-115"/>
      <use x="672.509766" xlink:href="#ArialMT-117"/>
      <use x="728.125" xlink:href="#ArialMT-108"/>
      <use x="750.341797" xlink:href="#ArialMT-116"/>
     </g>
    </g>
   </g>
   <g id="matplotlib.axis_4">
    <g id="ytick_9">
     <g id="line2d_22">
      <path clip-path="url(#pa05aa05f61)" d="M 481.7125 465.188404 
L 847.2 465.188404 
" style="fill:none;stroke:#cccccc;stroke-linecap:round;"/>
     </g>
    </g>
    <g id="ytick_10">
     <g id="line2d_23">
      <path clip-path="url(#pa05aa05f61)" d="M 481.7125 406.781619 
L 847.2 406.781619 
" style="fill:none;stroke:#cccccc;stroke-linecap:round;"/>
     </g>
    </g>
    <g id="ytick_11">
     <g id="line2d_24">
      <path clip-path="url(#pa05aa05f61)" d="M 481.7125 348.374834 
L 847.2 348.374834 
" style="fill:none;stroke:#cccccc;stroke-linecap:round;"/>
     </g>
    </g>
    <g id="ytick_12">
     <g id="line2d_25">
      <path clip-path="url(#pa05aa05f61)" d="M 481.7125 289.968049 
L 847.2 289.968049 
" style="fill:none;stroke:#cccccc;stroke-linecap:round;"/>
     </g>
    </g>
    <g id="ytick_13">
     <g id="line2d_26">
      <path clip-path="url(#pa05aa05f61)" d="M 481.7125 231.561264 
L 847.2 231.561264 
" style="fill:none;stroke:#cccccc;stroke-linecap:round;"/>
     </g>
    </g>
    <g id="ytick_14">
     <g id="line2d_27">
      <path clip-path="url(#pa05aa05f61)" d="M 481.7125 173.154479 
L 847.2 173.154479 
" style="fill:none;stroke:#cccccc;stroke-linecap:round;"/>
     </g>
    </g>
    <g id="ytick_15">
     <g id="line2d_28">
      <path clip-path="url(#pa05aa05f61)" d="M 481.7125 114.747694 
L 847.2 114.747694 
" style="fill:none;stroke:#cccccc;stroke-linecap:round;"/>
     </g>
    </g>
    <g id="ytick_16">
     <g id="line2d_29">
      <path clip-path="url(#pa05aa05f61)" d="M 481.7125 56.340909 
L 847.2 56.340909 
" style="fill:none;stroke:#cccccc;stroke-linecap:round;"/>
     </g>
    </g>
    <g id="text_26">
     <!-- Z-Score -->
     <g style="fill:#262626;" transform="translate(472.9425 314.42125)rotate(-90)scale(0.24 -0.24)">
      <use xlink:href="#ArialMT-90"/>
      <use x="61.083984" xlink:href="#ArialMT-45"/>
      <use x="94.384766" xlink:href="#ArialMT-83"/>
      <use x="161.083984" xlink:href="#ArialMT-99"/>
      <use x="211.083984" xlink:href="#ArialMT-111"/>
      <use x="266.699219" xlink:href="#ArialMT-114"/>
      <use x="300" xlink:href="#ArialMT-101"/>
     </g>
    </g>
   </g>
   <g id="PathCollection_5">
    <g clip-path="url(#pa05aa05f61)">
     <use style="fill:#c44e52;fill-opacity:0.5;stroke:#c44e52;stroke-opacity:0.5;" x="826.422598" xlink:href="#mac3367c36d" y="189.194067"/>
     <use style="fill:#c44e52;fill-opacity:0.5;stroke:#c44e52;stroke-opacity:0.5;" x="748.199267" xlink:href="#mac3367c36d" y="251.069121"/>
     <use style="fill:#c44e52;fill-opacity:0.5;stroke:#c44e52;stroke-opacity:0.5;" x="793.133736" xlink:href="#mac3367c36d" y="288.987271"/>
     <use style="fill:#c44e52;fill-opacity:0.5;stroke:#c44e52;stroke-opacity:0.5;" x="821.927805" xlink:href="#mac3367c36d" y="292.631445"/>
     <use style="fill:#c44e52;fill-opacity:0.5;stroke:#c44e52;stroke-opacity:0.5;" x="807.022827" xlink:href="#mac3367c36d" y="164.122189"/>
     <use style="fill:#c44e52;fill-opacity:0.5;stroke:#c44e52;stroke-opacity:0.5;" x="841.807914" xlink:href="#mac3367c36d" y="466.917389"/>
     <use style="fill:#c44e52;fill-opacity:0.5;stroke:#c44e52;stroke-opacity:0.5;" x="773.480979" xlink:href="#mac3367c36d" y="338.513814"/>
     <use style="fill:#c44e52;fill-opacity:0.5;stroke:#c44e52;stroke-opacity:0.5;" x="793.304814" xlink:href="#mac3367c36d" y="228.221064"/>
     <use style="fill:#c44e52;fill-opacity:0.5;stroke:#c44e52;stroke-opacity:0.5;" x="831.334288" xlink:href="#mac3367c36d" y="265.673433"/>
     <use style="fill:#c44e52;fill-opacity:0.5;stroke:#c44e52;stroke-opacity:0.5;" x="817.600955" xlink:href="#mac3367c36d" y="277.447839"/>
     <use style="fill:#c44e52;fill-opacity:0.5;stroke:#c44e52;stroke-opacity:0.5;" x="787.194195" xlink:href="#mac3367c36d" y="261.647405"/>
     <use style="fill:#c44e52;fill-opacity:0.5;stroke:#c44e52;stroke-opacity:0.5;" x="785.336995" xlink:href="#mac3367c36d" y="201.490925"/>
     <use style="fill:#c44e52;fill-opacity:0.5;stroke:#c44e52;stroke-opacity:0.5;" x="837.61668" xlink:href="#mac3367c36d" y="345.690406"/>
     <use style="fill:#c44e52;fill-opacity:0.5;stroke:#c44e52;stroke-opacity:0.5;" x="786.411574" xlink:href="#mac3367c36d" y="262.909609"/>
     <use style="fill:#c44e52;fill-opacity:0.5;stroke:#c44e52;stroke-opacity:0.5;" x="783.445017" xlink:href="#mac3367c36d" y="278.471721"/>
    </g>
   </g>
   <g id="PathCollection_6">
    <g clip-path="url(#pa05aa05f61)">
     <use style="fill:#1a1a1a;fill-opacity:0.5;stroke:#1a1a1a;stroke-opacity:0.5;" x="805.429427" xlink:href="#m2d2a2a0956" y="141.160763"/>
     <use style="fill:#1a1a1a;fill-opacity:0.5;stroke:#1a1a1a;stroke-opacity:0.5;" x="689.938987" xlink:href="#m2d2a2a0956" y="137.157623"/>
     <use style="fill:#1a1a1a;fill-opacity:0.5;stroke:#1a1a1a;stroke-opacity:0.5;" x="688.949304" xlink:href="#m2d2a2a0956" y="234.759849"/>
     <use style="fill:#1a1a1a;fill-opacity:0.5;stroke:#1a1a1a;stroke-opacity:0.5;" x="605.217862" xlink:href="#m2d2a2a0956" y="310.140252"/>
     <use style="fill:#1a1a1a;fill-opacity:0.5;stroke:#1a1a1a;stroke-opacity:0.5;" x="492.498147" xlink:href="#m2d2a2a0956" y="234.348855"/>
     <use style="fill:#1a1a1a;fill-opacity:0.5;stroke:#1a1a1a;stroke-opacity:0.5;" x="729.120384" xlink:href="#m2d2a2a0956" y="93.409913"/>
     <use style="fill:#1a1a1a;fill-opacity:0.5;stroke:#1a1a1a;stroke-opacity:0.5;" x="708.290394" xlink:href="#m2d2a2a0956" y="151.697058"/>
     <use style="fill:#1a1a1a;fill-opacity:0.5;stroke:#1a1a1a;stroke-opacity:0.5;" x="506.37655" xlink:href="#m2d2a2a0956" y="332.116706"/>
     <use style="fill:#1a1a1a;fill-opacity:0.5;stroke:#1a1a1a;stroke-opacity:0.5;" x="580.846032" xlink:href="#m2d2a2a0956" y="228.446245"/>
     <use style="fill:#1a1a1a;fill-opacity:0.5;stroke:#1a1a1a;stroke-opacity:0.5;" x="743.66517" xlink:href="#m2d2a2a0956" y="241.131322"/>
     <use style="fill:#1a1a1a;fill-opacity:0.5;stroke:#1a1a1a;stroke-opacity:0.5;" x="572.315891" xlink:href="#m2d2a2a0956" y="270.698117"/>
     <use style="fill:#1a1a1a;fill-opacity:0.5;stroke:#1a1a1a;stroke-opacity:0.5;" x="483.35871" xlink:href="#m2d2a2a0956" y="243.561108"/>
     <use style="fill:#1a1a1a;fill-opacity:0.5;stroke:#1a1a1a;stroke-opacity:0.5;" x="595.681059" xlink:href="#m2d2a2a0956" y="257.463842"/>
     <use style="fill:#1a1a1a;fill-opacity:0.5;stroke:#1a1a1a;stroke-opacity:0.5;" x="496.415048" xlink:href="#m2d2a2a0956" y="313.048205"/>
     <use style="fill:#1a1a1a;fill-opacity:0.5;stroke:#1a1a1a;stroke-opacity:0.5;" x="607.655045" xlink:href="#m2d2a2a0956" y="222.269899"/>
     <use style="fill:#1a1a1a;fill-opacity:0.5;stroke:#1a1a1a;stroke-opacity:0.5;" x="630.750256" xlink:href="#m2d2a2a0956" y="165.66633"/>
     <use style="fill:#1a1a1a;fill-opacity:0.5;stroke:#1a1a1a;stroke-opacity:0.5;" x="563.374659" xlink:href="#m2d2a2a0956" y="268.807779"/>
     <use style="fill:#1a1a1a;fill-opacity:0.5;stroke:#1a1a1a;stroke-opacity:0.5;" x="532.526564" xlink:href="#m2d2a2a0956" y="215.815956"/>
     <use style="fill:#1a1a1a;fill-opacity:0.5;stroke:#1a1a1a;stroke-opacity:0.5;" x="717.540211" xlink:href="#m2d2a2a0956" y="201.777566"/>
     <use style="fill:#1a1a1a;fill-opacity:0.5;stroke:#1a1a1a;stroke-opacity:0.5;" x="722.431357" xlink:href="#m2d2a2a0956" y="134.814106"/>
     <use style="fill:#1a1a1a;fill-opacity:0.5;stroke:#1a1a1a;stroke-opacity:0.5;" x="493.837045" xlink:href="#m2d2a2a0956" y="233.482789"/>
     <use style="fill:#1a1a1a;fill-opacity:0.5;stroke:#1a1a1a;stroke-opacity:0.5;" x="711.545945" xlink:href="#m2d2a2a0956" y="203.819164"/>
     <use style="fill:#1a1a1a;fill-opacity:0.5;stroke:#1a1a1a;stroke-opacity:0.5;" x="744.89454" xlink:href="#m2d2a2a0956" y="195.284572"/>
     <use style="fill:#1a1a1a;fill-opacity:0.5;stroke:#1a1a1a;stroke-opacity:0.5;" x="745.590231" xlink:href="#m2d2a2a0956" y="147.962804"/>
     <use style="fill:#1a1a1a;fill-opacity:0.5;stroke:#1a1a1a;stroke-opacity:0.5;" x="785.070224" xlink:href="#m2d2a2a0956" y="188.349667"/>
     <use style="fill:#1a1a1a;fill-opacity:0.5;stroke:#1a1a1a;stroke-opacity:0.5;" x="758.760393" xlink:href="#m2d2a2a0956" y="188.439327"/>
     <use style="fill:#1a1a1a;fill-opacity:0.5;stroke:#1a1a1a;stroke-opacity:0.5;" x="483.35871" xlink:href="#m2d2a2a0956" y="331.692502"/>
     <use style="fill:#1a1a1a;fill-opacity:0.5;stroke:#1a1a1a;stroke-opacity:0.5;" x="612.255321" xlink:href="#m2d2a2a0956" y="250.601681"/>
     <use style="fill:#1a1a1a;fill-opacity:0.5;stroke:#1a1a1a;stroke-opacity:0.5;" x="574.370671" xlink:href="#m2d2a2a0956" y="231.068294"/>
     <use style="fill:#1a1a1a;fill-opacity:0.5;stroke:#1a1a1a;stroke-opacity:0.5;" x="656.246382" xlink:href="#m2d2a2a0956" y="123.720836"/>
     <use style="fill:#1a1a1a;fill-opacity:0.5;stroke:#1a1a1a;stroke-opacity:0.5;" x="533.162016" xlink:href="#m2d2a2a0956" y="268.401022"/>
     <use style="fill:#1a1a1a;fill-opacity:0.5;stroke:#1a1a1a;stroke-opacity:0.5;" x="501.372672" xlink:href="#m2d2a2a0956" y="239.083877"/>
     <use style="fill:#1a1a1a;fill-opacity:0.5;stroke:#1a1a1a;stroke-opacity:0.5;" x="530.699676" xlink:href="#m2d2a2a0956" y="231.176896"/>
     <use style="fill:#1a1a1a;fill-opacity:0.5;stroke:#1a1a1a;stroke-opacity:0.5;" x="522.196038" xlink:href="#m2d2a2a0956" y="241.46241"/>
     <use style="fill:#1a1a1a;fill-opacity:0.5;stroke:#1a1a1a;stroke-opacity:0.5;" x="500.374304" xlink:href="#m2d2a2a0956" y="255.473256"/>
    </g>
   </g>
   <g id="patch_14">
    <path clip-path="url(#pa05aa05f61)" d="M 483.35871 348.374834 
L 847.2 348.374834 
L 847.2 114.747694 
L 483.35871 114.747694 
z
" style="fill:#55a868;opacity:0.05;stroke:#55a868;stroke-linejoin:miter;"/>
   </g>
   <g id="patch_15">
    <path clip-path="url(#pa05aa05f61)" d="M 483.35871 406.781619 
L 847.2 406.781619 
L 847.2 348.374834 
L 483.35871 348.374834 
z
" style="fill:#ffa500;opacity:0.05;stroke:#ffa500;stroke-linejoin:miter;"/>
   </g>
   <g id="patch_16">
    <path clip-path="url(#pa05aa05f61)" d="M 483.35871 114.747694 
L 847.2 114.747694 
L 847.2 56.340909 
L 483.35871 56.340909 
z
" style="fill:#ffa500;opacity:0.05;stroke:#ffa500;stroke-linejoin:miter;"/>
   </g>
   <g id="patch_17">
    <path clip-path="url(#pa05aa05f61)" d="M 483.35871 487.159091 
L 847.2 487.159091 
L 847.2 406.781619 
L 483.35871 406.781619 
z
" style="fill:#c44e52;opacity:0.05;stroke:#c44e52;stroke-linejoin:miter;"/>
   </g>
   <g id="patch_18">
    <path clip-path="url(#pa05aa05f61)" d="M 483.35871 56.340909 
L 847.2 56.340909 
L 847.2 73.608352 
L 483.35871 73.608352 
z
" style="fill:#c44e52;opacity:0.05;stroke:#c44e52;stroke-linejoin:miter;"/>
   </g>
   <g id="line2d_30">
    <path clip-path="url(#pa05aa05f61)" d="M 600.70456 487.159091 
L 600.70456 73.608352 
" style="fill:none;stroke:#ccb974;stroke-linecap:round;stroke-width:2;"/>
   </g>
   <g id="patch_19">
    <path d="M 481.7125 508.7 
L 481.7125 34.8 
" style="fill:none;stroke:#cccccc;stroke-linecap:square;stroke-linejoin:miter;stroke-width:1.25;"/>
   </g>
   <g id="patch_20">
    <path d="M 847.2 508.7 
L 847.2 34.8 
" style="fill:none;stroke:#cccccc;stroke-linecap:square;stroke-linejoin:miter;stroke-width:1.25;"/>
   </g>
   <g id="patch_21">
    <path d="M 481.7125 508.7 
L 847.2 508.7 
" style="fill:none;stroke:#cccccc;stroke-linecap:square;stroke-linejoin:miter;stroke-width:1.25;"/>
   </g>
   <g id="patch_22">
    <path d="M 481.7125 34.8 
L 847.2 34.8 
" style="fill:none;stroke:#cccccc;stroke-linecap:square;stroke-linejoin:miter;stroke-width:1.25;"/>
   </g>
   <g id="text_27">
    <!-- Test -->
    <g style="fill:#262626;" transform="translate(641.140625 28.8)scale(0.24 -0.24)">
     <use xlink:href="#ArialMT-84"/>
     <use x="60.912109" xlink:href="#ArialMT-101"/>
     <use x="116.527344" xlink:href="#ArialMT-115"/>
     <use x="166.527344" xlink:href="#ArialMT-116"/>
    </g>
   </g>
   <g id="legend_2">
    <g id="patch_23">
     <path d="M 609.782188 497.7 
L 831.8 497.7 
Q 836.2 497.7 836.2 493.3 
L 836.2 402.140937 
Q 836.2 397.740937 831.8 397.740937 
L 609.782188 397.740937 
Q 605.382188 397.740937 605.382188 402.140937 
L 605.382188 493.3 
Q 605.382188 497.7 609.782188 497.7 
z
" style="fill:#ffffff;opacity:0.8;stroke:#cccccc;stroke-linejoin:miter;"/>
    </g>
    <g id="line2d_31">
     <path d="M 614.182188 414.588125 
L 658.182188 414.588125 
" style="fill:none;stroke:#ccb974;stroke-linecap:round;stroke-width:2;"/>
    </g>
    <g id="line2d_32"/>
    <g id="text_28">
     <!-- Observed Data -->
     <g style="fill:#262626;" transform="translate(675.782188 422.288125)scale(0.22 -0.22)">
      <use xlink:href="#ArialMT-79"/>
      <use x="77.783203" xlink:href="#ArialMT-98"/>
      <use x="133.398438" xlink:href="#ArialMT-115"/>
      <use x="183.398438" xlink:href="#ArialMT-101"/>
      <use x="239.013672" xlink:href="#ArialMT-114"/>
      <use x="272.314453" xlink:href="#ArialMT-118"/>
      <use x="322.314453" xlink:href="#ArialMT-101"/>
      <use x="377.929688" xlink:href="#ArialMT-100"/>
      <use x="433.544922" xlink:href="#ArialMT-32"/>
      <use x="461.328125" xlink:href="#ArialMT-68"/>
      <use x="533.544922" xlink:href="#ArialMT-97"/>
      <use x="589.160156" xlink:href="#ArialMT-116"/>
      <use x="616.943359" xlink:href="#ArialMT-97"/>
     </g>
    </g>
    <g id="PathCollection_7">
     <g>
      <use style="fill:#c44e52;fill-opacity:0.5;stroke:#c44e52;stroke-opacity:0.5;" x="636.182188" xlink:href="#mac3367c36d" y="447.632812"/>
     </g>
    </g>
    <g id="text_29">
     <!-- Implausible -->
     <g style="fill:#262626;" transform="translate(675.782188 453.407812)scale(0.22 -0.22)">
      <use xlink:href="#ArialMT-73"/>
      <use x="27.783203" xlink:href="#ArialMT-109"/>
      <use x="111.083984" xlink:href="#ArialMT-112"/>
      <use x="166.699219" xlink:href="#ArialMT-108"/>
      <use x="188.916016" xlink:href="#ArialMT-97"/>
      <use x="244.53125" xlink:href="#ArialMT-117"/>
      <use x="300.146484" xlink:href="#ArialMT-115"/>
      <use x="350.146484" xlink:href="#ArialMT-105"/>
      <use x="372.363281" xlink:href="#ArialMT-98"/>
      <use x="427.978516" xlink:href="#ArialMT-108"/>
      <use x="450.195312" xlink:href="#ArialMT-101"/>
     </g>
    </g>
    <g id="PathCollection_8">
     <g>
      <use style="fill:#1a1a1a;fill-opacity:0.5;stroke:#1a1a1a;stroke-opacity:0.5;" x="636.182188" xlink:href="#m2d2a2a0956" y="478.7525"/>
     </g>
    </g>
    <g id="text_30">
     <!-- Not Implausible -->
     <g style="fill:#262626;" transform="translate(675.782188 484.5275)scale(0.22 -0.22)">
      <use xlink:href="#ArialMT-78"/>
      <use x="72.216797" xlink:href="#ArialMT-111"/>
      <use x="127.832031" xlink:href="#ArialMT-116"/>
      <use x="155.615234" xlink:href="#ArialMT-32"/>
      <use x="183.398438" xlink:href="#ArialMT-73"/>
      <use x="211.181641" xlink:href="#ArialMT-109"/>
      <use x="294.482422" xlink:href="#ArialMT-112"/>
      <use x="350.097656" xlink:href="#ArialMT-108"/>
      <use x="372.314453" xlink:href="#ArialMT-97"/>
      <use x="427.929688" xlink:href="#ArialMT-117"/>
      <use x="483.544922" xlink:href="#ArialMT-115"/>
      <use x="533.544922" xlink:href="#ArialMT-105"/>
      <use x="555.761719" xlink:href="#ArialMT-98"/>
      <use x="611.376953" xlink:href="#ArialMT-108"/>
      <use x="633.59375" xlink:href="#ArialMT-101"/>
     </g>
    </g>
   </g>
  </g>
 </g>
 <defs>
  <clipPath id="p31f3b2843d">
   <rect height="473.9" width="365.4875" x="72.425" y="34.8"/>
  </clipPath>
  <clipPath id="pa05aa05f61">
   <rect height="473.9" width="365.4875" x="481.7125" y="34.8"/>
  </clipPath>
 </defs>
</svg>
