<?xml version="1.0" encoding="utf-8" standalone="no"?>
<!DOCTYPE svg PUBLIC "-//W3C//DTD SVG 1.1//EN"
  "http://www.w3.org/Graphics/SVG/1.1/DTD/svg11.dtd">
<!-- Created with matplotlib (https://matplotlib.org/) -->
<svg height="720pt" version="1.1" viewBox="0 0 1152 720" width="1152pt" xmlns="http://www.w3.org/2000/svg" xmlns:xlink="http://www.w3.org/1999/xlink">
 <defs>
  <style type="text/css">
*{stroke-linecap:butt;stroke-linejoin:round;}
  </style>
 </defs>
 <g id="figure_1">
  <g id="patch_1">
   <path d="M 0 720 
L 1152 720 
L 1152 0 
L 0 0 
z
" style="fill:#ffffff;"/>
  </g>
  <g id="axes_1">
   <g id="patch_2">
    <path d="M 144 630 
L 1036.8 630 
L 1036.8 86.4 
L 144 86.4 
z
" style="fill:#ffffff;"/>
   </g>
   <g id="matplotlib.axis_1">
    <g id="xtick_1">
     <g id="line2d_1">
      <path clip-path="url(#p77916617ee)" d="M 144 630 
L 144 86.4 
" style="fill:none;stroke:#cccccc;stroke-linecap:round;"/>
     </g>
     <g id="text_1">
      <!-- 0.0 -->
      <defs>
       <path d="M 4.15625 35.296875 
Q 4.15625 48 6.765625 55.734375 
Q 9.375 63.484375 14.515625 67.671875 
Q 19.671875 71.875 27.484375 71.875 
Q 33.25 71.875 37.59375 69.546875 
Q 41.9375 67.234375 44.765625 62.859375 
Q 47.609375 58.5 49.21875 52.21875 
Q 50.828125 45.953125 50.828125 35.296875 
Q 50.828125 22.703125 48.234375 14.96875 
Q 45.65625 7.234375 40.5 3 
Q 35.359375 -1.21875 27.484375 -1.21875 
Q 17.140625 -1.21875 11.234375 6.203125 
Q 4.15625 15.140625 4.15625 35.296875 
z
M 13.1875 35.296875 
Q 13.1875 17.671875 17.3125 11.828125 
Q 21.4375 6 27.484375 6 
Q 33.546875 6 37.671875 11.859375 
Q 41.796875 17.71875 41.796875 35.296875 
Q 41.796875 52.984375 37.671875 58.78125 
Q 33.546875 64.59375 27.390625 64.59375 
Q 21.34375 64.59375 17.71875 59.46875 
Q 13.1875 52.9375 13.1875 35.296875 
z
" id="ArialMT-48"/>
       <path d="M 9.078125 0 
L 9.078125 10.015625 
L 19.09375 10.015625 
L 19.09375 0 
z
" id="ArialMT-46"/>
      </defs>
      <g style="fill:#262626;" transform="translate(128.71 655.247187)scale(0.22 -0.22)">
       <use xlink:href="#ArialMT-48"/>
       <use x="55.615234" xlink:href="#ArialMT-46"/>
       <use x="83.398438" xlink:href="#ArialMT-48"/>
      </g>
     </g>
    </g>
    <g id="xtick_2">
     <g id="line2d_2">
      <path clip-path="url(#p77916617ee)" d="M 295.607547 630 
L 295.607547 86.4 
" style="fill:none;stroke:#cccccc;stroke-linecap:round;"/>
     </g>
     <g id="text_2">
      <!-- 0.1 -->
      <defs>
       <path d="M 37.25 0 
L 28.46875 0 
L 28.46875 56 
Q 25.296875 52.984375 20.140625 49.953125 
Q 14.984375 46.921875 10.890625 45.40625 
L 10.890625 53.90625 
Q 18.265625 57.375 23.78125 62.296875 
Q 29.296875 67.234375 31.59375 71.875 
L 37.25 71.875 
z
" id="ArialMT-49"/>
      </defs>
      <g style="fill:#262626;" transform="translate(280.317547 655.247187)scale(0.22 -0.22)">
       <use xlink:href="#ArialMT-48"/>
       <use x="55.615234" xlink:href="#ArialMT-46"/>
       <use x="83.398438" xlink:href="#ArialMT-49"/>
      </g>
     </g>
    </g>
    <g id="xtick_3">
     <g id="line2d_3">
      <path clip-path="url(#p77916617ee)" d="M 447.215094 630 
L 447.215094 86.4 
" style="fill:none;stroke:#cccccc;stroke-linecap:round;"/>
     </g>
     <g id="text_3">
      <!-- 0.2 -->
      <defs>
       <path d="M 50.34375 8.453125 
L 50.34375 0 
L 3.03125 0 
Q 2.9375 3.171875 4.046875 6.109375 
Q 5.859375 10.9375 9.828125 15.625 
Q 13.8125 20.3125 21.34375 26.46875 
Q 33.015625 36.03125 37.109375 41.625 
Q 41.21875 47.21875 41.21875 52.203125 
Q 41.21875 57.421875 37.46875 61 
Q 33.734375 64.59375 27.734375 64.59375 
Q 21.390625 64.59375 17.578125 60.78125 
Q 13.765625 56.984375 13.71875 50.25 
L 4.6875 51.171875 
Q 5.609375 61.28125 11.65625 66.578125 
Q 17.71875 71.875 27.9375 71.875 
Q 38.234375 71.875 44.234375 66.15625 
Q 50.25 60.453125 50.25 52 
Q 50.25 47.703125 48.484375 43.546875 
Q 46.734375 39.40625 42.65625 34.8125 
Q 38.578125 30.21875 29.109375 22.21875 
Q 21.1875 15.578125 18.9375 13.203125 
Q 16.703125 10.84375 15.234375 8.453125 
z
" id="ArialMT-50"/>
      </defs>
      <g style="fill:#262626;" transform="translate(431.925094 655.247187)scale(0.22 -0.22)">
       <use xlink:href="#ArialMT-48"/>
       <use x="55.615234" xlink:href="#ArialMT-46"/>
       <use x="83.398438" xlink:href="#ArialMT-50"/>
      </g>
     </g>
    </g>
    <g id="xtick_4">
     <g id="line2d_4">
      <path clip-path="url(#p77916617ee)" d="M 598.822642 630 
L 598.822642 86.4 
" style="fill:none;stroke:#cccccc;stroke-linecap:round;"/>
     </g>
     <g id="text_4">
      <!-- 0.3 -->
      <defs>
       <path d="M 4.203125 18.890625 
L 12.984375 20.0625 
Q 14.5 12.59375 18.140625 9.296875 
Q 21.78125 6 27 6 
Q 33.203125 6 37.46875 10.296875 
Q 41.75 14.59375 41.75 20.953125 
Q 41.75 27 37.796875 30.921875 
Q 33.84375 34.859375 27.734375 34.859375 
Q 25.25 34.859375 21.53125 33.890625 
L 22.515625 41.609375 
Q 23.390625 41.5 23.921875 41.5 
Q 29.546875 41.5 34.03125 44.421875 
Q 38.53125 47.359375 38.53125 53.46875 
Q 38.53125 58.296875 35.25 61.46875 
Q 31.984375 64.65625 26.8125 64.65625 
Q 21.6875 64.65625 18.265625 61.421875 
Q 14.84375 58.203125 13.875 51.765625 
L 5.078125 53.328125 
Q 6.6875 62.15625 12.390625 67.015625 
Q 18.109375 71.875 26.609375 71.875 
Q 32.46875 71.875 37.390625 69.359375 
Q 42.328125 66.84375 44.9375 62.5 
Q 47.5625 58.15625 47.5625 53.265625 
Q 47.5625 48.640625 45.0625 44.828125 
Q 42.578125 41.015625 37.703125 38.765625 
Q 44.046875 37.3125 47.5625 32.6875 
Q 51.078125 28.078125 51.078125 21.140625 
Q 51.078125 11.765625 44.234375 5.25 
Q 37.40625 -1.265625 26.953125 -1.265625 
Q 17.53125 -1.265625 11.296875 4.34375 
Q 5.078125 9.96875 4.203125 18.890625 
z
" id="ArialMT-51"/>
      </defs>
      <g style="fill:#262626;" transform="translate(583.532642 655.247187)scale(0.22 -0.22)">
       <use xlink:href="#ArialMT-48"/>
       <use x="55.615234" xlink:href="#ArialMT-46"/>
       <use x="83.398438" xlink:href="#ArialMT-51"/>
      </g>
     </g>
    </g>
    <g id="xtick_5">
     <g id="line2d_5">
      <path clip-path="url(#p77916617ee)" d="M 750.430189 630 
L 750.430189 86.4 
" style="fill:none;stroke:#cccccc;stroke-linecap:round;"/>
     </g>
     <g id="text_5">
      <!-- 0.4 -->
      <defs>
       <path d="M 32.328125 0 
L 32.328125 17.140625 
L 1.265625 17.140625 
L 1.265625 25.203125 
L 33.9375 71.578125 
L 41.109375 71.578125 
L 41.109375 25.203125 
L 50.78125 25.203125 
L 50.78125 17.140625 
L 41.109375 17.140625 
L 41.109375 0 
z
M 32.328125 25.203125 
L 32.328125 57.46875 
L 9.90625 25.203125 
z
" id="ArialMT-52"/>
      </defs>
      <g style="fill:#262626;" transform="translate(735.140189 655.247187)scale(0.22 -0.22)">
       <use xlink:href="#ArialMT-48"/>
       <use x="55.615234" xlink:href="#ArialMT-46"/>
       <use x="83.398438" xlink:href="#ArialMT-52"/>
      </g>
     </g>
    </g>
    <g id="xtick_6">
     <g id="line2d_6">
      <path clip-path="url(#p77916617ee)" d="M 902.037736 630 
L 902.037736 86.4 
" style="fill:none;stroke:#cccccc;stroke-linecap:round;"/>
     </g>
     <g id="text_6">
      <!-- 0.5 -->
      <defs>
       <path d="M 4.15625 18.75 
L 13.375 19.53125 
Q 14.40625 12.796875 18.140625 9.390625 
Q 21.875 6 27.15625 6 
Q 33.5 6 37.890625 10.78125 
Q 42.28125 15.578125 42.28125 23.484375 
Q 42.28125 31 38.0625 35.34375 
Q 33.84375 39.703125 27 39.703125 
Q 22.75 39.703125 19.328125 37.765625 
Q 15.921875 35.84375 13.96875 32.765625 
L 5.71875 33.84375 
L 12.640625 70.609375 
L 48.25 70.609375 
L 48.25 62.203125 
L 19.671875 62.203125 
L 15.828125 42.96875 
Q 22.265625 47.46875 29.34375 47.46875 
Q 38.71875 47.46875 45.15625 40.96875 
Q 51.609375 34.46875 51.609375 24.265625 
Q 51.609375 14.546875 45.953125 7.46875 
Q 39.0625 -1.21875 27.15625 -1.21875 
Q 17.390625 -1.21875 11.203125 4.25 
Q 5.03125 9.71875 4.15625 18.75 
z
" id="ArialMT-53"/>
      </defs>
      <g style="fill:#262626;" transform="translate(886.747736 655.247187)scale(0.22 -0.22)">
       <use xlink:href="#ArialMT-48"/>
       <use x="55.615234" xlink:href="#ArialMT-46"/>
       <use x="83.398438" xlink:href="#ArialMT-53"/>
      </g>
     </g>
    </g>
    <g id="text_7">
     <!-- Simulation Result -->
     <defs>
      <path d="M 4.5 23 
L 13.421875 23.78125 
Q 14.0625 18.40625 16.375 14.96875 
Q 18.703125 11.53125 23.578125 9.40625 
Q 28.46875 7.28125 34.578125 7.28125 
Q 39.984375 7.28125 44.140625 8.890625 
Q 48.296875 10.5 50.3125 13.296875 
Q 52.34375 16.109375 52.34375 19.4375 
Q 52.34375 22.796875 50.390625 25.3125 
Q 48.4375 27.828125 43.953125 29.546875 
Q 41.0625 30.671875 31.203125 33.03125 
Q 21.34375 35.40625 17.390625 37.5 
Q 12.25 40.1875 9.734375 44.15625 
Q 7.234375 48.140625 7.234375 53.078125 
Q 7.234375 58.5 10.296875 63.203125 
Q 13.375 67.921875 19.28125 70.359375 
Q 25.203125 72.796875 32.421875 72.796875 
Q 40.375 72.796875 46.453125 70.234375 
Q 52.546875 67.671875 55.8125 62.6875 
Q 59.078125 57.71875 59.328125 51.421875 
L 50.25 50.734375 
Q 49.515625 57.515625 45.28125 60.984375 
Q 41.0625 64.453125 32.8125 64.453125 
Q 24.21875 64.453125 20.28125 61.296875 
Q 16.359375 58.15625 16.359375 53.71875 
Q 16.359375 49.859375 19.140625 47.359375 
Q 21.875 44.875 33.421875 42.265625 
Q 44.96875 39.65625 49.265625 37.703125 
Q 55.515625 34.8125 58.484375 30.390625 
Q 61.46875 25.984375 61.46875 20.21875 
Q 61.46875 14.5 58.203125 9.4375 
Q 54.9375 4.390625 48.796875 1.578125 
Q 42.671875 -1.21875 35.015625 -1.21875 
Q 25.296875 -1.21875 18.71875 1.609375 
Q 12.15625 4.4375 8.421875 10.125 
Q 4.6875 15.828125 4.5 23 
z
" id="ArialMT-83"/>
      <path d="M 6.640625 61.46875 
L 6.640625 71.578125 
L 15.4375 71.578125 
L 15.4375 61.46875 
z
M 6.640625 0 
L 6.640625 51.859375 
L 15.4375 51.859375 
L 15.4375 0 
z
" id="ArialMT-105"/>
      <path d="M 6.59375 0 
L 6.59375 51.859375 
L 14.453125 51.859375 
L 14.453125 44.578125 
Q 16.890625 48.390625 20.9375 50.703125 
Q 25 53.03125 30.171875 53.03125 
Q 35.9375 53.03125 39.625 50.640625 
Q 43.3125 48.25 44.828125 43.953125 
Q 50.984375 53.03125 60.84375 53.03125 
Q 68.5625 53.03125 72.703125 48.75 
Q 76.859375 44.484375 76.859375 35.59375 
L 76.859375 0 
L 68.109375 0 
L 68.109375 32.671875 
Q 68.109375 37.9375 67.25 40.25 
Q 66.40625 42.578125 64.15625 43.984375 
Q 61.921875 45.40625 58.890625 45.40625 
Q 53.421875 45.40625 49.796875 41.765625 
Q 46.1875 38.140625 46.1875 30.125 
L 46.1875 0 
L 37.40625 0 
L 37.40625 33.6875 
Q 37.40625 39.546875 35.25 42.46875 
Q 33.109375 45.40625 28.21875 45.40625 
Q 24.515625 45.40625 21.359375 43.453125 
Q 18.21875 41.5 16.796875 37.734375 
Q 15.375 33.984375 15.375 26.90625 
L 15.375 0 
z
" id="ArialMT-109"/>
      <path d="M 40.578125 0 
L 40.578125 7.625 
Q 34.515625 -1.171875 24.125 -1.171875 
Q 19.53125 -1.171875 15.546875 0.578125 
Q 11.578125 2.34375 9.640625 5 
Q 7.71875 7.671875 6.9375 11.53125 
Q 6.390625 14.109375 6.390625 19.734375 
L 6.390625 51.859375 
L 15.1875 51.859375 
L 15.1875 23.09375 
Q 15.1875 16.21875 15.71875 13.8125 
Q 16.546875 10.359375 19.234375 8.375 
Q 21.921875 6.390625 25.875 6.390625 
Q 29.828125 6.390625 33.296875 8.421875 
Q 36.765625 10.453125 38.203125 13.9375 
Q 39.65625 17.4375 39.65625 24.078125 
L 39.65625 51.859375 
L 48.4375 51.859375 
L 48.4375 0 
z
" id="ArialMT-117"/>
      <path d="M 6.390625 0 
L 6.390625 71.578125 
L 15.1875 71.578125 
L 15.1875 0 
z
" id="ArialMT-108"/>
      <path d="M 40.4375 6.390625 
Q 35.546875 2.25 31.03125 0.53125 
Q 26.515625 -1.171875 21.34375 -1.171875 
Q 12.796875 -1.171875 8.203125 3 
Q 3.609375 7.171875 3.609375 13.671875 
Q 3.609375 17.484375 5.34375 20.625 
Q 7.078125 23.78125 9.890625 25.6875 
Q 12.703125 27.59375 16.21875 28.5625 
Q 18.796875 29.25 24.03125 29.890625 
Q 34.671875 31.15625 39.703125 32.90625 
Q 39.75 34.71875 39.75 35.203125 
Q 39.75 40.578125 37.25 42.78125 
Q 33.890625 45.75 27.25 45.75 
Q 21.046875 45.75 18.09375 43.578125 
Q 15.140625 41.40625 13.71875 35.890625 
L 5.125 37.0625 
Q 6.296875 42.578125 8.984375 45.96875 
Q 11.671875 49.359375 16.75 51.1875 
Q 21.828125 53.03125 28.515625 53.03125 
Q 35.15625 53.03125 39.296875 51.46875 
Q 43.453125 49.90625 45.40625 47.53125 
Q 47.359375 45.171875 48.140625 41.546875 
Q 48.578125 39.3125 48.578125 33.453125 
L 48.578125 21.734375 
Q 48.578125 9.46875 49.140625 6.21875 
Q 49.703125 2.984375 51.375 0 
L 42.1875 0 
Q 40.828125 2.734375 40.4375 6.390625 
z
M 39.703125 26.03125 
Q 34.90625 24.078125 25.34375 22.703125 
Q 19.921875 21.921875 17.671875 20.9375 
Q 15.4375 19.96875 14.203125 18.09375 
Q 12.984375 16.21875 12.984375 13.921875 
Q 12.984375 10.40625 15.640625 8.0625 
Q 18.3125 5.71875 23.4375 5.71875 
Q 28.515625 5.71875 32.46875 7.9375 
Q 36.421875 10.15625 38.28125 14.015625 
Q 39.703125 17 39.703125 22.796875 
z
" id="ArialMT-97"/>
      <path d="M 25.78125 7.859375 
L 27.046875 0.09375 
Q 23.34375 -0.6875 20.40625 -0.6875 
Q 15.625 -0.6875 12.984375 0.828125 
Q 10.359375 2.34375 9.28125 4.8125 
Q 8.203125 7.28125 8.203125 15.1875 
L 8.203125 45.015625 
L 1.765625 45.015625 
L 1.765625 51.859375 
L 8.203125 51.859375 
L 8.203125 64.703125 
L 16.9375 69.96875 
L 16.9375 51.859375 
L 25.78125 51.859375 
L 25.78125 45.015625 
L 16.9375 45.015625 
L 16.9375 14.703125 
Q 16.9375 10.9375 17.40625 9.859375 
Q 17.875 8.796875 18.921875 8.15625 
Q 19.96875 7.515625 21.921875 7.515625 
Q 23.390625 7.515625 25.78125 7.859375 
z
" id="ArialMT-116"/>
      <path d="M 3.328125 25.921875 
Q 3.328125 40.328125 11.328125 47.265625 
Q 18.015625 53.03125 27.640625 53.03125 
Q 38.328125 53.03125 45.109375 46.015625 
Q 51.90625 39.015625 51.90625 26.65625 
Q 51.90625 16.65625 48.90625 10.90625 
Q 45.90625 5.171875 40.15625 2 
Q 34.421875 -1.171875 27.640625 -1.171875 
Q 16.75 -1.171875 10.03125 5.8125 
Q 3.328125 12.796875 3.328125 25.921875 
z
M 12.359375 25.921875 
Q 12.359375 15.96875 16.703125 11.015625 
Q 21.046875 6.0625 27.640625 6.0625 
Q 34.1875 6.0625 38.53125 11.03125 
Q 42.875 16.015625 42.875 26.21875 
Q 42.875 35.84375 38.5 40.796875 
Q 34.125 45.75 27.640625 45.75 
Q 21.046875 45.75 16.703125 40.8125 
Q 12.359375 35.890625 12.359375 25.921875 
z
" id="ArialMT-111"/>
      <path d="M 6.59375 0 
L 6.59375 51.859375 
L 14.5 51.859375 
L 14.5 44.484375 
Q 20.21875 53.03125 31 53.03125 
Q 35.6875 53.03125 39.625 51.34375 
Q 43.5625 49.65625 45.515625 46.921875 
Q 47.46875 44.1875 48.25 40.4375 
Q 48.734375 37.984375 48.734375 31.890625 
L 48.734375 0 
L 39.9375 0 
L 39.9375 31.546875 
Q 39.9375 36.921875 38.90625 39.578125 
Q 37.890625 42.234375 35.28125 43.8125 
Q 32.671875 45.40625 29.15625 45.40625 
Q 23.53125 45.40625 19.453125 41.84375 
Q 15.375 38.28125 15.375 28.328125 
L 15.375 0 
z
" id="ArialMT-110"/>
      <path id="ArialMT-32"/>
      <path d="M 7.859375 0 
L 7.859375 71.578125 
L 39.59375 71.578125 
Q 49.171875 71.578125 54.140625 69.640625 
Q 59.125 67.71875 62.109375 62.828125 
Q 65.09375 57.953125 65.09375 52.046875 
Q 65.09375 44.4375 60.15625 39.203125 
Q 55.21875 33.984375 44.921875 32.5625 
Q 48.6875 30.765625 50.640625 29 
Q 54.78125 25.203125 58.5 19.484375 
L 70.953125 0 
L 59.03125 0 
L 49.5625 14.890625 
Q 45.40625 21.34375 42.71875 24.75 
Q 40.046875 28.171875 37.921875 29.53125 
Q 35.796875 30.90625 33.59375 31.453125 
Q 31.984375 31.78125 28.328125 31.78125 
L 17.328125 31.78125 
L 17.328125 0 
z
M 17.328125 39.984375 
L 37.703125 39.984375 
Q 44.1875 39.984375 47.84375 41.328125 
Q 51.515625 42.671875 53.421875 45.625 
Q 55.328125 48.578125 55.328125 52.046875 
Q 55.328125 57.125 51.640625 60.390625 
Q 47.953125 63.671875 39.984375 63.671875 
L 17.328125 63.671875 
z
" id="ArialMT-82"/>
      <path d="M 42.09375 16.703125 
L 51.171875 15.578125 
Q 49.03125 7.625 43.21875 3.21875 
Q 37.40625 -1.171875 28.375 -1.171875 
Q 17 -1.171875 10.328125 5.828125 
Q 3.65625 12.84375 3.65625 25.484375 
Q 3.65625 38.578125 10.390625 45.796875 
Q 17.140625 53.03125 27.875 53.03125 
Q 38.28125 53.03125 44.875 45.953125 
Q 51.46875 38.875 51.46875 26.03125 
Q 51.46875 25.25 51.421875 23.6875 
L 12.75 23.6875 
Q 13.234375 15.140625 17.578125 10.59375 
Q 21.921875 6.0625 28.421875 6.0625 
Q 33.25 6.0625 36.671875 8.59375 
Q 40.09375 11.140625 42.09375 16.703125 
z
M 13.234375 30.90625 
L 42.1875 30.90625 
Q 41.609375 37.453125 38.875 40.71875 
Q 34.671875 45.796875 27.984375 45.796875 
Q 21.921875 45.796875 17.796875 41.75 
Q 13.671875 37.703125 13.234375 30.90625 
z
" id="ArialMT-101"/>
      <path d="M 3.078125 15.484375 
L 11.765625 16.84375 
Q 12.5 11.625 15.84375 8.84375 
Q 19.1875 6.0625 25.203125 6.0625 
Q 31.25 6.0625 34.171875 8.515625 
Q 37.109375 10.984375 37.109375 14.3125 
Q 37.109375 17.28125 34.515625 19 
Q 32.71875 20.171875 25.53125 21.96875 
Q 15.875 24.421875 12.140625 26.203125 
Q 8.40625 27.984375 6.46875 31.125 
Q 4.546875 34.28125 4.546875 38.09375 
Q 4.546875 41.546875 6.125 44.5 
Q 7.71875 47.46875 10.453125 49.421875 
Q 12.5 50.921875 16.03125 51.96875 
Q 19.578125 53.03125 23.640625 53.03125 
Q 29.734375 53.03125 34.34375 51.265625 
Q 38.96875 49.515625 41.15625 46.5 
Q 43.359375 43.5 44.1875 38.484375 
L 35.59375 37.3125 
Q 35.015625 41.3125 32.203125 43.546875 
Q 29.390625 45.796875 24.265625 45.796875 
Q 18.21875 45.796875 15.625 43.796875 
Q 13.03125 41.796875 13.03125 39.109375 
Q 13.03125 37.40625 14.109375 36.03125 
Q 15.1875 34.625 17.484375 33.6875 
Q 18.796875 33.203125 25.25 31.453125 
Q 34.578125 28.953125 38.25 27.359375 
Q 41.9375 25.78125 44.03125 22.75 
Q 46.140625 19.734375 46.140625 15.234375 
Q 46.140625 10.84375 43.578125 6.953125 
Q 41.015625 3.078125 36.171875 0.953125 
Q 31.34375 -1.171875 25.25 -1.171875 
Q 15.140625 -1.171875 9.84375 3.03125 
Q 4.546875 7.234375 3.078125 15.484375 
z
" id="ArialMT-115"/>
     </defs>
     <g style="fill:#262626;" transform="translate(497.02875 680.798437)scale(0.24 -0.24)">
      <use xlink:href="#ArialMT-83"/>
      <use x="66.699219" xlink:href="#ArialMT-105"/>
      <use x="88.916016" xlink:href="#ArialMT-109"/>
      <use x="172.216797" xlink:href="#ArialMT-117"/>
      <use x="227.832031" xlink:href="#ArialMT-108"/>
      <use x="250.048828" xlink:href="#ArialMT-97"/>
      <use x="305.664062" xlink:href="#ArialMT-116"/>
      <use x="333.447266" xlink:href="#ArialMT-105"/>
      <use x="355.664062" xlink:href="#ArialMT-111"/>
      <use x="411.279297" xlink:href="#ArialMT-110"/>
      <use x="466.894531" xlink:href="#ArialMT-32"/>
      <use x="494.677734" xlink:href="#ArialMT-82"/>
      <use x="566.894531" xlink:href="#ArialMT-101"/>
      <use x="622.509766" xlink:href="#ArialMT-115"/>
      <use x="672.509766" xlink:href="#ArialMT-117"/>
      <use x="728.125" xlink:href="#ArialMT-108"/>
      <use x="750.341797" xlink:href="#ArialMT-116"/>
     </g>
    </g>
   </g>
   <g id="matplotlib.axis_2">
    <g id="ytick_1">
     <g id="line2d_7">
      <path clip-path="url(#p77916617ee)" d="M 144 605.290909 
L 1036.8 605.290909 
" style="fill:none;stroke:#cccccc;stroke-linecap:round;"/>
     </g>
     <g id="text_8">
      <!-- 0.0 -->
      <g style="fill:#262626;" transform="translate(103.92 613.164503)scale(0.22 -0.22)">
       <use xlink:href="#ArialMT-48"/>
       <use x="55.615234" xlink:href="#ArialMT-46"/>
       <use x="83.398438" xlink:href="#ArialMT-48"/>
      </g>
     </g>
    </g>
    <g id="ytick_2">
     <g id="line2d_8">
      <path clip-path="url(#p77916617ee)" d="M 144 521.373242 
L 1036.8 521.373242 
" style="fill:none;stroke:#cccccc;stroke-linecap:round;"/>
     </g>
     <g id="text_9">
      <!-- 0.1 -->
      <g style="fill:#262626;" transform="translate(103.92 529.246836)scale(0.22 -0.22)">
       <use xlink:href="#ArialMT-48"/>
       <use x="55.615234" xlink:href="#ArialMT-46"/>
       <use x="83.398438" xlink:href="#ArialMT-49"/>
      </g>
     </g>
    </g>
    <g id="ytick_3">
     <g id="line2d_9">
      <path clip-path="url(#p77916617ee)" d="M 144 437.455575 
L 1036.8 437.455575 
" style="fill:none;stroke:#cccccc;stroke-linecap:round;"/>
     </g>
     <g id="text_10">
      <!-- 0.2 -->
      <g style="fill:#262626;" transform="translate(103.92 445.329168)scale(0.22 -0.22)">
       <use xlink:href="#ArialMT-48"/>
       <use x="55.615234" xlink:href="#ArialMT-46"/>
       <use x="83.398438" xlink:href="#ArialMT-50"/>
      </g>
     </g>
    </g>
    <g id="ytick_4">
     <g id="line2d_10">
      <path clip-path="url(#p77916617ee)" d="M 144 353.537907 
L 1036.8 353.537907 
" style="fill:none;stroke:#cccccc;stroke-linecap:round;"/>
     </g>
     <g id="text_11">
      <!-- 0.3 -->
      <g style="fill:#262626;" transform="translate(103.92 361.411501)scale(0.22 -0.22)">
       <use xlink:href="#ArialMT-48"/>
       <use x="55.615234" xlink:href="#ArialMT-46"/>
       <use x="83.398438" xlink:href="#ArialMT-51"/>
      </g>
     </g>
    </g>
    <g id="ytick_5">
     <g id="line2d_11">
      <path clip-path="url(#p77916617ee)" d="M 144 269.62024 
L 1036.8 269.62024 
" style="fill:none;stroke:#cccccc;stroke-linecap:round;"/>
     </g>
     <g id="text_12">
      <!-- 0.4 -->
      <g style="fill:#262626;" transform="translate(103.92 277.493834)scale(0.22 -0.22)">
       <use xlink:href="#ArialMT-48"/>
       <use x="55.615234" xlink:href="#ArialMT-46"/>
       <use x="83.398438" xlink:href="#ArialMT-52"/>
      </g>
     </g>
    </g>
    <g id="ytick_6">
     <g id="line2d_12">
      <path clip-path="url(#p77916617ee)" d="M 144 185.702573 
L 1036.8 185.702573 
" style="fill:none;stroke:#cccccc;stroke-linecap:round;"/>
     </g>
     <g id="text_13">
      <!-- 0.5 -->
      <g style="fill:#262626;" transform="translate(103.92 193.576167)scale(0.22 -0.22)">
       <use xlink:href="#ArialMT-48"/>
       <use x="55.615234" xlink:href="#ArialMT-46"/>
       <use x="83.398438" xlink:href="#ArialMT-53"/>
      </g>
     </g>
    </g>
    <g id="ytick_7">
     <g id="line2d_13">
      <path clip-path="url(#p77916617ee)" d="M 144 101.784906 
L 1036.8 101.784906 
" style="fill:none;stroke:#cccccc;stroke-linecap:round;"/>
     </g>
     <g id="text_14">
      <!-- 0.6 -->
      <defs>
       <path d="M 49.75 54.046875 
L 41.015625 53.375 
Q 39.84375 58.546875 37.703125 60.890625 
Q 34.125 64.65625 28.90625 64.65625 
Q 24.703125 64.65625 21.53125 62.3125 
Q 17.390625 59.28125 14.984375 53.46875 
Q 12.59375 47.65625 12.5 36.921875 
Q 15.671875 41.75 20.265625 44.09375 
Q 24.859375 46.4375 29.890625 46.4375 
Q 38.671875 46.4375 44.84375 39.96875 
Q 51.03125 33.5 51.03125 23.25 
Q 51.03125 16.5 48.125 10.71875 
Q 45.21875 4.9375 40.140625 1.859375 
Q 35.0625 -1.21875 28.609375 -1.21875 
Q 17.625 -1.21875 10.6875 6.859375 
Q 3.765625 14.9375 3.765625 33.5 
Q 3.765625 54.25 11.421875 63.671875 
Q 18.109375 71.875 29.4375 71.875 
Q 37.890625 71.875 43.28125 67.140625 
Q 48.6875 62.40625 49.75 54.046875 
z
M 13.875 23.1875 
Q 13.875 18.65625 15.796875 14.5 
Q 17.71875 10.359375 21.1875 8.171875 
Q 24.65625 6 28.46875 6 
Q 34.03125 6 38.03125 10.484375 
Q 42.046875 14.984375 42.046875 22.703125 
Q 42.046875 30.125 38.078125 34.390625 
Q 34.125 38.671875 28.125 38.671875 
Q 22.171875 38.671875 18.015625 34.390625 
Q 13.875 30.125 13.875 23.1875 
z
" id="ArialMT-54"/>
      </defs>
      <g style="fill:#262626;" transform="translate(103.92 109.658499)scale(0.22 -0.22)">
       <use xlink:href="#ArialMT-48"/>
       <use x="55.615234" xlink:href="#ArialMT-46"/>
       <use x="83.398438" xlink:href="#ArialMT-54"/>
      </g>
     </g>
    </g>
    <g id="text_15">
     <!-- Predicted -->
     <defs>
      <path d="M 7.71875 0 
L 7.71875 71.578125 
L 34.71875 71.578125 
Q 41.84375 71.578125 45.609375 70.90625 
Q 50.875 70.015625 54.4375 67.546875 
Q 58.015625 65.09375 60.1875 60.640625 
Q 62.359375 56.203125 62.359375 50.875 
Q 62.359375 41.75 56.546875 35.421875 
Q 50.734375 29.109375 35.546875 29.109375 
L 17.1875 29.109375 
L 17.1875 0 
z
M 17.1875 37.546875 
L 35.6875 37.546875 
Q 44.875 37.546875 48.734375 40.96875 
Q 52.59375 44.390625 52.59375 50.59375 
Q 52.59375 55.078125 50.3125 58.265625 
Q 48.046875 61.46875 44.34375 62.5 
Q 41.9375 63.140625 35.5 63.140625 
L 17.1875 63.140625 
z
" id="ArialMT-80"/>
      <path d="M 6.5 0 
L 6.5 51.859375 
L 14.40625 51.859375 
L 14.40625 44 
Q 17.4375 49.515625 20 51.265625 
Q 22.5625 53.03125 25.640625 53.03125 
Q 30.078125 53.03125 34.671875 50.203125 
L 31.640625 42.046875 
Q 28.421875 43.953125 25.203125 43.953125 
Q 22.3125 43.953125 20.015625 42.21875 
Q 17.71875 40.484375 16.75 37.40625 
Q 15.28125 32.71875 15.28125 27.15625 
L 15.28125 0 
z
" id="ArialMT-114"/>
      <path d="M 40.234375 0 
L 40.234375 6.546875 
Q 35.296875 -1.171875 25.734375 -1.171875 
Q 19.53125 -1.171875 14.328125 2.25 
Q 9.125 5.671875 6.265625 11.796875 
Q 3.421875 17.921875 3.421875 25.875 
Q 3.421875 33.640625 6 39.96875 
Q 8.59375 46.296875 13.765625 49.65625 
Q 18.953125 53.03125 25.34375 53.03125 
Q 30.03125 53.03125 33.6875 51.046875 
Q 37.359375 49.078125 39.65625 45.90625 
L 39.65625 71.578125 
L 48.390625 71.578125 
L 48.390625 0 
z
M 12.453125 25.875 
Q 12.453125 15.921875 16.640625 10.984375 
Q 20.84375 6.0625 26.5625 6.0625 
Q 32.328125 6.0625 36.34375 10.765625 
Q 40.375 15.484375 40.375 25.140625 
Q 40.375 35.796875 36.265625 40.765625 
Q 32.171875 45.75 26.171875 45.75 
Q 20.3125 45.75 16.375 40.96875 
Q 12.453125 36.1875 12.453125 25.875 
z
" id="ArialMT-100"/>
      <path d="M 40.4375 19 
L 49.078125 17.875 
Q 47.65625 8.9375 41.8125 3.875 
Q 35.984375 -1.171875 27.484375 -1.171875 
Q 16.84375 -1.171875 10.375 5.78125 
Q 3.90625 12.75 3.90625 25.734375 
Q 3.90625 34.125 6.6875 40.421875 
Q 9.46875 46.734375 15.15625 49.875 
Q 20.84375 53.03125 27.546875 53.03125 
Q 35.984375 53.03125 41.359375 48.75 
Q 46.734375 44.484375 48.25 36.625 
L 39.703125 35.296875 
Q 38.484375 40.53125 35.375 43.15625 
Q 32.28125 45.796875 27.875 45.796875 
Q 21.234375 45.796875 17.078125 41.03125 
Q 12.9375 36.28125 12.9375 25.984375 
Q 12.9375 15.53125 16.9375 10.796875 
Q 20.953125 6.0625 27.390625 6.0625 
Q 32.5625 6.0625 36.03125 9.234375 
Q 39.5 12.40625 40.4375 19 
z
" id="ArialMT-99"/>
     </defs>
     <g style="fill:#262626;" transform="translate(95.15 408.8925)rotate(-90)scale(0.24 -0.24)">
      <use xlink:href="#ArialMT-80"/>
      <use x="66.699219" xlink:href="#ArialMT-114"/>
      <use x="100" xlink:href="#ArialMT-101"/>
      <use x="155.615234" xlink:href="#ArialMT-100"/>
      <use x="211.230469" xlink:href="#ArialMT-105"/>
      <use x="233.447266" xlink:href="#ArialMT-99"/>
      <use x="283.447266" xlink:href="#ArialMT-116"/>
      <use x="311.230469" xlink:href="#ArialMT-101"/>
      <use x="366.845703" xlink:href="#ArialMT-100"/>
     </g>
    </g>
   </g>
   <g id="line2d_14">
    <defs>
     <path d="M -5 0 
L 5 0 
M 0 5 
L 0 -5 
" id="mb8a072b0f8" style="stroke:#64b5cd;"/>
    </defs>
    <g clip-path="url(#p77916617ee)">
     <use style="fill:#64b5cd;stroke:#64b5cd;" x="437.107925" xlink:href="#mb8a072b0f8" y="357.302588"/>
     <use style="fill:#64b5cd;stroke:#64b5cd;" x="267.955856" xlink:href="#mb8a072b0f8" y="517.413746"/>
     <use style="fill:#64b5cd;stroke:#64b5cd;" x="144" xlink:href="#mb8a072b0f8" y="483.128569"/>
     <use style="fill:#64b5cd;stroke:#64b5cd;" x="663.016828" xlink:href="#mb8a072b0f8" y="468.331229"/>
     <use style="fill:#64b5cd;stroke:#64b5cd;" x="843.079245" xlink:href="#mb8a072b0f8" y="374.31414"/>
     <use style="fill:#64b5cd;stroke:#64b5cd;" x="317.716981" xlink:href="#mb8a072b0f8" y="509.086475"/>
     <use style="fill:#64b5cd;stroke:#64b5cd;" x="329.298113" xlink:href="#mb8a072b0f8" y="479.802997"/>
     <use style="fill:#64b5cd;stroke:#64b5cd;" x="339.622642" xlink:href="#mb8a072b0f8" y="466.980113"/>
     <use style="fill:#64b5cd;stroke:#64b5cd;" x="506.173585" xlink:href="#mb8a072b0f8" y="494.612356"/>
     <use style="fill:#64b5cd;stroke:#64b5cd;" x="440.068611" xlink:href="#mb8a072b0f8" y="383.463829"/>
     <use style="fill:#64b5cd;stroke:#64b5cd;" x="204.643019" xlink:href="#mb8a072b0f8" y="485.703805"/>
     <use style="fill:#64b5cd;stroke:#64b5cd;" x="278.762264" xlink:href="#mb8a072b0f8" y="484.520347"/>
     <use style="fill:#64b5cd;stroke:#64b5cd;" x="144" xlink:href="#mb8a072b0f8" y="511.548206"/>
     <use style="fill:#64b5cd;stroke:#64b5cd;" x="817.811321" xlink:href="#mb8a072b0f8" y="465.05907"/>
     <use style="fill:#64b5cd;stroke:#64b5cd;" x="434.581132" xlink:href="#mb8a072b0f8" y="375.150726"/>
     <use style="fill:#64b5cd;stroke:#64b5cd;" x="473.398013" xlink:href="#mb8a072b0f8" y="409.294637"/>
     <use style="fill:#64b5cd;stroke:#64b5cd;" x="393.069542" xlink:href="#mb8a072b0f8" y="472.721259"/>
     <use style="fill:#64b5cd;stroke:#64b5cd;" x="376.57976" xlink:href="#mb8a072b0f8" y="511.555726"/>
     <use style="fill:#64b5cd;stroke:#64b5cd;" x="144" xlink:href="#mb8a072b0f8" y="397.438291"/>
     <use style="fill:#64b5cd;stroke:#64b5cd;" x="189.121294" xlink:href="#mb8a072b0f8" y="487.904236"/>
     <use style="fill:#64b5cd;stroke:#64b5cd;" x="342.080212" xlink:href="#mb8a072b0f8" y="458.72012"/>
     <use style="fill:#64b5cd;stroke:#64b5cd;" x="672.491098" xlink:href="#mb8a072b0f8" y="460.785641"/>
     <use style="fill:#64b5cd;stroke:#64b5cd;" x="463.975728" xlink:href="#mb8a072b0f8" y="476.992594"/>
     <use style="fill:#64b5cd;stroke:#64b5cd;" x="165.453898" xlink:href="#mb8a072b0f8" y="526.489513"/>
     <use style="fill:#64b5cd;stroke:#64b5cd;" x="484.567678" xlink:href="#mb8a072b0f8" y="504.764662"/>
     <use style="fill:#64b5cd;stroke:#64b5cd;" x="278.762264" xlink:href="#mb8a072b0f8" y="426.335425"/>
     <use style="fill:#64b5cd;stroke:#64b5cd;" x="245.071698" xlink:href="#mb8a072b0f8" y="449.279435"/>
     <use style="fill:#64b5cd;stroke:#64b5cd;" x="699.89434" xlink:href="#mb8a072b0f8" y="284.170847"/>
     <use style="fill:#64b5cd;stroke:#64b5cd;" x="384.045283" xlink:href="#mb8a072b0f8" y="483.941558"/>
     <use style="fill:#64b5cd;stroke:#64b5cd;" x="649.358491" xlink:href="#mb8a072b0f8" y="449.088727"/>
     <use style="fill:#64b5cd;stroke:#64b5cd;" x="263.44837" xlink:href="#mb8a072b0f8" y="539.967499"/>
     <use style="fill:#64b5cd;stroke:#64b5cd;" x="608.298113" xlink:href="#mb8a072b0f8" y="445.116951"/>
     <use style="fill:#64b5cd;stroke:#64b5cd;" x="252.660699" xlink:href="#mb8a072b0f8" y="534.607814"/>
     <use style="fill:#64b5cd;stroke:#64b5cd;" x="649.358491" xlink:href="#mb8a072b0f8" y="420.919008"/>
     <use style="fill:#64b5cd;stroke:#64b5cd;" x="388.528302" xlink:href="#mb8a072b0f8" y="485.407994"/>
     <use style="fill:#64b5cd;stroke:#64b5cd;" x="568.501132" xlink:href="#mb8a072b0f8" y="459.326545"/>
     <use style="fill:#64b5cd;stroke:#64b5cd;" x="176.958162" xlink:href="#mb8a072b0f8" y="526.1712"/>
     <use style="fill:#64b5cd;stroke:#64b5cd;" x="181.901887" xlink:href="#mb8a072b0f8" y="460.599283"/>
     <use style="fill:#64b5cd;stroke:#64b5cd;" x="144" xlink:href="#mb8a072b0f8" y="522.084933"/>
     <use style="fill:#64b5cd;stroke:#64b5cd;" x="317.425607" xlink:href="#mb8a072b0f8" y="489.742767"/>
     <use style="fill:#64b5cd;stroke:#64b5cd;" x="223.625813" xlink:href="#mb8a072b0f8" y="494.631042"/>
     <use style="fill:#64b5cd;stroke:#64b5cd;" x="228.226415" xlink:href="#mb8a072b0f8" y="475.361365"/>
     <use style="fill:#64b5cd;stroke:#64b5cd;" x="389.376377" xlink:href="#mb8a072b0f8" y="510.488221"/>
     <use style="fill:#64b5cd;stroke:#64b5cd;" x="657.223992" xlink:href="#mb8a072b0f8" y="460.927772"/>
     <use style="fill:#64b5cd;stroke:#64b5cd;" x="496.698113" xlink:href="#mb8a072b0f8" y="446.973491"/>
     <use style="fill:#64b5cd;stroke:#64b5cd;" x="406.214311" xlink:href="#mb8a072b0f8" y="408.189779"/>
     <use style="fill:#64b5cd;stroke:#64b5cd;" x="481.739585" xlink:href="#mb8a072b0f8" y="476.694965"/>
     <use style="fill:#64b5cd;stroke:#64b5cd;" x="487.0035" xlink:href="#mb8a072b0f8" y="430.382853"/>
     <use style="fill:#64b5cd;stroke:#64b5cd;" x="497.524325" xlink:href="#mb8a072b0f8" y="463.038591"/>
     <use style="fill:#64b5cd;stroke:#64b5cd;" x="364.075472" xlink:href="#mb8a072b0f8" y="435.831043"/>
     <use style="fill:#64b5cd;stroke:#64b5cd;" x="355.099116" xlink:href="#mb8a072b0f8" y="476.851545"/>
     <use style="fill:#64b5cd;stroke:#64b5cd;" x="144" xlink:href="#mb8a072b0f8" y="438.751057"/>
     <use style="fill:#64b5cd;stroke:#64b5cd;" x="649.358491" xlink:href="#mb8a072b0f8" y="445.125925"/>
     <use style="fill:#64b5cd;stroke:#64b5cd;" x="199.130017" xlink:href="#mb8a072b0f8" y="482.979292"/>
     <use style="fill:#64b5cd;stroke:#64b5cd;" x="144" xlink:href="#mb8a072b0f8" y="485.98366"/>
     <use style="fill:#64b5cd;stroke:#64b5cd;" x="548.286792" xlink:href="#mb8a072b0f8" y="446.790876"/>
     <use style="fill:#64b5cd;stroke:#64b5cd;" x="510.384906" xlink:href="#mb8a072b0f8" y="391.407798"/>
     <use style="fill:#64b5cd;stroke:#64b5cd;" x="537.056604" xlink:href="#mb8a072b0f8" y="438.780486"/>
     <use style="fill:#64b5cd;stroke:#64b5cd;" x="312.45283" xlink:href="#mb8a072b0f8" y="486.624233"/>
     <use style="fill:#64b5cd;stroke:#64b5cd;" x="540.160425" xlink:href="#mb8a072b0f8" y="439.867251"/>
     <use style="fill:#64b5cd;stroke:#64b5cd;" x="548.286792" xlink:href="#mb8a072b0f8" y="346.343511"/>
     <use style="fill:#64b5cd;stroke:#64b5cd;" x="413.524528" xlink:href="#mb8a072b0f8" y="471.310323"/>
     <use style="fill:#64b5cd;stroke:#64b5cd;" x="380.886792" xlink:href="#mb8a072b0f8" y="312.783609"/>
     <use style="fill:#64b5cd;stroke:#64b5cd;" x="248.556929" xlink:href="#mb8a072b0f8" y="503.999053"/>
     <use style="fill:#64b5cd;stroke:#64b5cd;" x="466.166038" xlink:href="#mb8a072b0f8" y="473.518636"/>
     <use style="fill:#64b5cd;stroke:#64b5cd;" x="264.482819" xlink:href="#mb8a072b0f8" y="504.27406"/>
     <use style="fill:#64b5cd;stroke:#64b5cd;" x="243.306254" xlink:href="#mb8a072b0f8" y="513.076626"/>
     <use style="fill:#64b5cd;stroke:#64b5cd;" x="559.91451" xlink:href="#mb8a072b0f8" y="501.405271"/>
     <use style="fill:#64b5cd;stroke:#64b5cd;" x="318.067925" xlink:href="#mb8a072b0f8" y="512.044448"/>
     <use style="fill:#64b5cd;stroke:#64b5cd;" x="144" xlink:href="#mb8a072b0f8" y="471.555313"/>
     <use style="fill:#64b5cd;stroke:#64b5cd;" x="348.702173" xlink:href="#mb8a072b0f8" y="472.592123"/>
     <use style="fill:#64b5cd;stroke:#64b5cd;" x="333.509434" xlink:href="#mb8a072b0f8" y="510.197671"/>
     <use style="fill:#64b5cd;stroke:#64b5cd;" x="144" xlink:href="#mb8a072b0f8" y="509.956153"/>
     <use style="fill:#64b5cd;stroke:#64b5cd;" x="465.99833" xlink:href="#mb8a072b0f8" y="487.568254"/>
     <use style="fill:#64b5cd;stroke:#64b5cd;" x="379.833962" xlink:href="#mb8a072b0f8" y="475.306117"/>
     <use style="fill:#64b5cd;stroke:#64b5cd;" x="526.628571" xlink:href="#mb8a072b0f8" y="439.077626"/>
     <use style="fill:#64b5cd;stroke:#64b5cd;" x="302.118301" xlink:href="#mb8a072b0f8" y="458.520924"/>
     <use style="fill:#64b5cd;stroke:#64b5cd;" x="441.957029" xlink:href="#mb8a072b0f8" y="490.040814"/>
     <use style="fill:#64b5cd;stroke:#64b5cd;" x="514.596226" xlink:href="#mb8a072b0f8" y="466.088355"/>
     <use style="fill:#64b5cd;stroke:#64b5cd;" x="421.94717" xlink:href="#mb8a072b0f8" y="469.213891"/>
     <use style="fill:#64b5cd;stroke:#64b5cd;" x="554.465848" xlink:href="#mb8a072b0f8" y="444.418606"/>
     <use style="fill:#64b5cd;stroke:#64b5cd;" x="349.698682" xlink:href="#mb8a072b0f8" y="479.461776"/>
     <use style="fill:#64b5cd;stroke:#64b5cd;" x="472.483019" xlink:href="#mb8a072b0f8" y="417.776333"/>
     <use style="fill:#64b5cd;stroke:#64b5cd;" x="416.893585" xlink:href="#mb8a072b0f8" y="480.436044"/>
     <use style="fill:#64b5cd;stroke:#64b5cd;" x="991.218646" xlink:href="#mb8a072b0f8" y="406.517204"/>
     <use style="fill:#64b5cd;stroke:#64b5cd;" x="410.337583" xlink:href="#mb8a072b0f8" y="462.792031"/>
     <use style="fill:#64b5cd;stroke:#64b5cd;" x="573.554717" xlink:href="#mb8a072b0f8" y="461.978252"/>
     <use style="fill:#64b5cd;stroke:#64b5cd;" x="504.580112" xlink:href="#mb8a072b0f8" y="424.178079"/>
     <use style="fill:#64b5cd;stroke:#64b5cd;" x="320.875472" xlink:href="#mb8a072b0f8" y="496.37553"/>
     <use style="fill:#64b5cd;stroke:#64b5cd;" x="231.888433" xlink:href="#mb8a072b0f8" y="509.269584"/>
     <use style="fill:#64b5cd;stroke:#64b5cd;" x="245.071698" xlink:href="#mb8a072b0f8" y="432.928982"/>
     <use style="fill:#64b5cd;stroke:#64b5cd;" x="456.592881" xlink:href="#mb8a072b0f8" y="402.1674"/>
     <use style="fill:#64b5cd;stroke:#64b5cd;" x="479.619761" xlink:href="#mb8a072b0f8" y="484.218433"/>
     <use style="fill:#64b5cd;stroke:#64b5cd;" x="304.030189" xlink:href="#mb8a072b0f8" y="489.099641"/>
     <use style="fill:#64b5cd;stroke:#64b5cd;" x="295.607547" xlink:href="#mb8a072b0f8" y="444.723273"/>
     <use style="fill:#64b5cd;stroke:#64b5cd;" x="304.354136" xlink:href="#mb8a072b0f8" y="489.889401"/>
     <use style="fill:#64b5cd;stroke:#64b5cd;" x="447.215094" xlink:href="#mb8a072b0f8" y="460.826318"/>
     <use style="fill:#64b5cd;stroke:#64b5cd;" x="767.275472" xlink:href="#mb8a072b0f8" y="435.398534"/>
     <use style="fill:#64b5cd;stroke:#64b5cd;" x="362.988679" xlink:href="#mb8a072b0f8" y="508.213463"/>
     <use style="fill:#64b5cd;stroke:#64b5cd;" x="339.622642" xlink:href="#mb8a072b0f8" y="406.873751"/>
     <use style="fill:#64b5cd;stroke:#64b5cd;" x="346.143396" xlink:href="#mb8a072b0f8" y="495.045104"/>
     <use style="fill:#64b5cd;stroke:#64b5cd;" x="447.215094" xlink:href="#mb8a072b0f8" y="442.220881"/>
     <use style="fill:#64b5cd;stroke:#64b5cd;" x="220.569468" xlink:href="#mb8a072b0f8" y="476.427866"/>
     <use style="fill:#64b5cd;stroke:#64b5cd;" x="699.89434" xlink:href="#mb8a072b0f8" y="439.585074"/>
     <use style="fill:#64b5cd;stroke:#64b5cd;" x="373.32234" xlink:href="#mb8a072b0f8" y="485.171309"/>
     <use style="fill:#64b5cd;stroke:#64b5cd;" x="845.654764" xlink:href="#mb8a072b0f8" y="452.014243"/>
     <use style="fill:#64b5cd;stroke:#64b5cd;" x="671.919137" xlink:href="#mb8a072b0f8" y="334.462811"/>
     <use style="fill:#64b5cd;stroke:#64b5cd;" x="410.777229" xlink:href="#mb8a072b0f8" y="445.412311"/>
     <use style="fill:#64b5cd;stroke:#64b5cd;" x="649.358491" xlink:href="#mb8a072b0f8" y="469.685478"/>
     <use style="fill:#64b5cd;stroke:#64b5cd;" x="228.226415" xlink:href="#mb8a072b0f8" y="517.465256"/>
     <use style="fill:#64b5cd;stroke:#64b5cd;" x="304.525638" xlink:href="#mb8a072b0f8" y="386.317321"/>
     <use style="fill:#64b5cd;stroke:#64b5cd;" x="871.716226" xlink:href="#mb8a072b0f8" y="158.641043"/>
     <use style="fill:#64b5cd;stroke:#64b5cd;" x="486.520755" xlink:href="#mb8a072b0f8" y="450.33517"/>
     <use style="fill:#64b5cd;stroke:#64b5cd;" x="413.524528" xlink:href="#mb8a072b0f8" y="381.812643"/>
     <use style="fill:#64b5cd;stroke:#64b5cd;" x="144" xlink:href="#mb8a072b0f8" y="495.574485"/>
     <use style="fill:#64b5cd;stroke:#64b5cd;" x="234.964528" xlink:href="#mb8a072b0f8" y="450.479751"/>
     <use style="fill:#64b5cd;stroke:#64b5cd;" x="466.448888" xlink:href="#mb8a072b0f8" y="490.144229"/>
     <use style="fill:#64b5cd;stroke:#64b5cd;" x="338.177154" xlink:href="#mb8a072b0f8" y="495.638958"/>
     <use style="fill:#64b5cd;stroke:#64b5cd;" x="517.965283" xlink:href="#mb8a072b0f8" y="431.582982"/>
     <use style="fill:#64b5cd;stroke:#64b5cd;" x="144" xlink:href="#mb8a072b0f8" y="435.683307"/>
     <use style="fill:#64b5cd;stroke:#64b5cd;" x="409.313208" xlink:href="#mb8a072b0f8" y="396.53318"/>
     <use style="fill:#64b5cd;stroke:#64b5cd;" x="447.215094" xlink:href="#mb8a072b0f8" y="496.462256"/>
     <use style="fill:#64b5cd;stroke:#64b5cd;" x="144" xlink:href="#mb8a072b0f8" y="497.268414"/>
     <use style="fill:#64b5cd;stroke:#64b5cd;" x="489.328302" xlink:href="#mb8a072b0f8" y="388.871294"/>
     <use style="fill:#64b5cd;stroke:#64b5cd;" x="1003.109434" xlink:href="#mb8a072b0f8" y="488.157993"/>
     <use style="fill:#64b5cd;stroke:#64b5cd;" x="309.548471" xlink:href="#mb8a072b0f8" y="408.05655"/>
     <use style="fill:#64b5cd;stroke:#64b5cd;" x="280.583376" xlink:href="#mb8a072b0f8" y="497.143174"/>
     <use style="fill:#64b5cd;stroke:#64b5cd;" x="379.833962" xlink:href="#mb8a072b0f8" y="520.732947"/>
     <use style="fill:#64b5cd;stroke:#64b5cd;" x="864.135849" xlink:href="#mb8a072b0f8" y="372.375031"/>
     <use style="fill:#64b5cd;stroke:#64b5cd;" x="523.018868" xlink:href="#mb8a072b0f8" y="395.777242"/>
     <use style="fill:#64b5cd;stroke:#64b5cd;" x="740.826091" xlink:href="#mb8a072b0f8" y="444.726406"/>
     <use style="fill:#64b5cd;stroke:#64b5cd;" x="369.36257" xlink:href="#mb8a072b0f8" y="398.644053"/>
     <use style="fill:#64b5cd;stroke:#64b5cd;" x="447.215094" xlink:href="#mb8a072b0f8" y="469.973071"/>
     <use style="fill:#64b5cd;stroke:#64b5cd;" x="237.852291" xlink:href="#mb8a072b0f8" y="472.419416"/>
     <use style="fill:#64b5cd;stroke:#64b5cd;" x="356.250566" xlink:href="#mb8a072b0f8" y="472.940679"/>
     <use style="fill:#64b5cd;stroke:#64b5cd;" x="259.144973" xlink:href="#mb8a072b0f8" y="396.195127"/>
     <use style="fill:#64b5cd;stroke:#64b5cd;" x="144" xlink:href="#mb8a072b0f8" y="489.083851"/>
     <use style="fill:#64b5cd;stroke:#64b5cd;" x="288.38814" xlink:href="#mb8a072b0f8" y="522.775061"/>
     <use style="fill:#64b5cd;stroke:#64b5cd;" x="229.492978" xlink:href="#mb8a072b0f8" y="494.217946"/>
     <use style="fill:#64b5cd;stroke:#64b5cd;" x="162.488725" xlink:href="#mb8a072b0f8" y="477.702026"/>
     <use style="fill:#64b5cd;stroke:#64b5cd;" x="255.178868" xlink:href="#mb8a072b0f8" y="490.032763"/>
     <use style="fill:#64b5cd;stroke:#64b5cd;" x="401.446778" xlink:href="#mb8a072b0f8" y="496.540235"/>
     <use style="fill:#64b5cd;stroke:#64b5cd;" x="436.385984" xlink:href="#mb8a072b0f8" y="456.566557"/>
     <use style="fill:#64b5cd;stroke:#64b5cd;" x="457.980127" xlink:href="#mb8a072b0f8" y="449.048388"/>
     <use style="fill:#64b5cd;stroke:#64b5cd;" x="295.607547" xlink:href="#mb8a072b0f8" y="442.545811"/>
     <use style="fill:#64b5cd;stroke:#64b5cd;" x="389.970947" xlink:href="#mb8a072b0f8" y="460.666493"/>
     <use style="fill:#64b5cd;stroke:#64b5cd;" x="329.298113" xlink:href="#mb8a072b0f8" y="444.242"/>
     <use style="fill:#64b5cd;stroke:#64b5cd;" x="1036.8" xlink:href="#mb8a072b0f8" y="297.671874"/>
     <use style="fill:#64b5cd;stroke:#64b5cd;" x="558.393962" xlink:href="#mb8a072b0f8" y="493.782997"/>
     <use style="fill:#64b5cd;stroke:#64b5cd;" x="634.752754" xlink:href="#mb8a072b0f8" y="451.502574"/>
    </g>
   </g>
   <g id="line2d_15">
    <defs>
     <path d="M -5 0 
L 5 0 
M 0 5 
L 0 -5 
" id="mc3e5eb6adf" style="stroke:#8172b3;"/>
    </defs>
    <g clip-path="url(#p77916617ee)">
     <use style="fill:#8172b3;stroke:#8172b3;" x="531.717662" xlink:href="#mc3e5eb6adf" y="526.077528"/>
     <use style="fill:#8172b3;stroke:#8172b3;" x="406.786415" xlink:href="#mc3e5eb6adf" y="494.224179"/>
     <use style="fill:#8172b3;stroke:#8172b3;" x="640.935849" xlink:href="#mc3e5eb6adf" y="465.982274"/>
     <use style="fill:#8172b3;stroke:#8172b3;" x="302.54384" xlink:href="#mc3e5eb6adf" y="485.459977"/>
     <use style="fill:#8172b3;stroke:#8172b3;" x="276.794932" xlink:href="#mc3e5eb6adf" y="519.345148"/>
     <use style="fill:#8172b3;stroke:#8172b3;" x="672.329331" xlink:href="#mc3e5eb6adf" y="490.575711"/>
     <use style="fill:#8172b3;stroke:#8172b3;" x="373.708405" xlink:href="#mc3e5eb6adf" y="451.754936"/>
     <use style="fill:#8172b3;stroke:#8172b3;" x="355.742384" xlink:href="#mc3e5eb6adf" y="403.921689"/>
     <use style="fill:#8172b3;stroke:#8172b3;" x="144" xlink:href="#mc3e5eb6adf" y="403.705182"/>
     <use style="fill:#8172b3;stroke:#8172b3;" x="413.524528" xlink:href="#mc3e5eb6adf" y="472.8016"/>
     <use style="fill:#8172b3;stroke:#8172b3;" x="658.893556" xlink:href="#mc3e5eb6adf" y="400.366379"/>
     <use style="fill:#8172b3;stroke:#8172b3;" x="388.256604" xlink:href="#mc3e5eb6adf" y="488.123111"/>
     <use style="fill:#8172b3;stroke:#8172b3;" x="430.369811" xlink:href="#mc3e5eb6adf" y="438.4458"/>
     <use style="fill:#8172b3;stroke:#8172b3;" x="320.875472" xlink:href="#mc3e5eb6adf" y="504.321838"/>
     <use style="fill:#8172b3;stroke:#8172b3;" x="514.596226" xlink:href="#mc3e5eb6adf" y="436.934296"/>
     <use style="fill:#8172b3;stroke:#8172b3;" x="544.945579" xlink:href="#mc3e5eb6adf" y="471.091878"/>
     <use style="fill:#8172b3;stroke:#8172b3;" x="674.626415" xlink:href="#mc3e5eb6adf" y="450.198397"/>
     <use style="fill:#8172b3;stroke:#8172b3;" x="219.803774" xlink:href="#mc3e5eb6adf" y="529.278375"/>
     <use style="fill:#8172b3;stroke:#8172b3;" x="312.45283" xlink:href="#mc3e5eb6adf" y="481.85658"/>
     <use style="fill:#8172b3;stroke:#8172b3;" x="431.320755" xlink:href="#mc3e5eb6adf" y="352.248763"/>
     <use style="fill:#8172b3;stroke:#8172b3;" x="553.750127" xlink:href="#mc3e5eb6adf" y="519.268193"/>
     <use style="fill:#8172b3;stroke:#8172b3;" x="320.875472" xlink:href="#mc3e5eb6adf" y="456.061873"/>
     <use style="fill:#8172b3;stroke:#8172b3;" x="270.339623" xlink:href="#mc3e5eb6adf" y="490.256641"/>
     <use style="fill:#8172b3;stroke:#8172b3;" x="270.339623" xlink:href="#mc3e5eb6adf" y="429.063655"/>
     <use style="fill:#8172b3;stroke:#8172b3;" x="548.286792" xlink:href="#mc3e5eb6adf" y="453.974214"/>
     <use style="fill:#8172b3;stroke:#8172b3;" x="527.375407" xlink:href="#mc3e5eb6adf" y="458.334437"/>
     <use style="fill:#8172b3;stroke:#8172b3;" x="464.060377" xlink:href="#mc3e5eb6adf" y="465.739377"/>
     <use style="fill:#8172b3;stroke:#8172b3;" x="144" xlink:href="#mc3e5eb6adf" y="526.52102"/>
     <use style="fill:#8172b3;stroke:#8172b3;" x="497.750943" xlink:href="#mc3e5eb6adf" y="478.780689"/>
     <use style="fill:#8172b3;stroke:#8172b3;" x="312.45283" xlink:href="#mc3e5eb6adf" y="510.590843"/>
     <use style="fill:#8172b3;stroke:#8172b3;" x="235.883362" xlink:href="#mc3e5eb6adf" y="510.186195"/>
     <use style="fill:#8172b3;stroke:#8172b3;" x="559.190793" xlink:href="#mc3e5eb6adf" y="372.268434"/>
     <use style="fill:#8172b3;stroke:#8172b3;" x="699.89434" xlink:href="#mc3e5eb6adf" y="392.739489"/>
     <use style="fill:#8172b3;stroke:#8172b3;" x="528.565486" xlink:href="#mc3e5eb6adf" y="489.100442"/>
     <use style="fill:#8172b3;stroke:#8172b3;" x="214.750189" xlink:href="#mc3e5eb6adf" y="517.015394"/>
     <use style="fill:#8172b3;stroke:#8172b3;" x="326.593031" xlink:href="#mc3e5eb6adf" y="510.668932"/>
     <use style="fill:#8172b3;stroke:#8172b3;" x="346.143396" xlink:href="#mc3e5eb6adf" y="373.83424"/>
     <use style="fill:#8172b3;stroke:#8172b3;" x="586.188679" xlink:href="#mc3e5eb6adf" y="396.514978"/>
     <use style="fill:#8172b3;stroke:#8172b3;" x="557.475129" xlink:href="#mc3e5eb6adf" y="487.7086"/>
     <use style="fill:#8172b3;stroke:#8172b3;" x="352.460377" xlink:href="#mc3e5eb6adf" y="484.390044"/>
     <use style="fill:#8172b3;stroke:#8172b3;" x="457.322264" xlink:href="#mc3e5eb6adf" y="374.925449"/>
     <use style="fill:#8172b3;stroke:#8172b3;" x="689.189702" xlink:href="#mc3e5eb6adf" y="454.582202"/>
     <use style="fill:#8172b3;stroke:#8172b3;" x="613.12524" xlink:href="#mc3e5eb6adf" y="393.597125"/>
     <use style="fill:#8172b3;stroke:#8172b3;" x="342.984906" xlink:href="#mc3e5eb6adf" y="288.496404"/>
     <use style="fill:#8172b3;stroke:#8172b3;" x="315.821887" xlink:href="#mc3e5eb6adf" y="513.77537"/>
     <use style="fill:#8172b3;stroke:#8172b3;" x="409.313208" xlink:href="#mc3e5eb6adf" y="513.934972"/>
     <use style="fill:#8172b3;stroke:#8172b3;" x="295.607547" xlink:href="#mc3e5eb6adf" y="452.871849"/>
     <use style="fill:#8172b3;stroke:#8172b3;" x="233.708608" xlink:href="#mc3e5eb6adf" y="488.27775"/>
     <use style="fill:#8172b3;stroke:#8172b3;" x="681.962264" xlink:href="#mc3e5eb6adf" y="486.140238"/>
     <use style="fill:#8172b3;stroke:#8172b3;" x="203.45394" xlink:href="#mc3e5eb6adf" y="484.246693"/>
    </g>
   </g>
   <g id="line2d_16">
    <path clip-path="url(#p77916617ee)" d="M 144 605.290909 
L 1036.8 111.109091 
" style="fill:none;stroke:#c44e52;stroke-linecap:round;stroke-width:1.5;"/>
   </g>
   <g id="patch_3">
    <path d="M 144 630 
L 144 86.4 
" style="fill:none;stroke:#cccccc;stroke-linecap:square;stroke-linejoin:miter;stroke-width:1.25;"/>
   </g>
   <g id="patch_4">
    <path d="M 1036.8 630 
L 1036.8 86.4 
" style="fill:none;stroke:#cccccc;stroke-linecap:square;stroke-linejoin:miter;stroke-width:1.25;"/>
   </g>
   <g id="patch_5">
    <path d="M 144 630 
L 1036.8 630 
" style="fill:none;stroke:#cccccc;stroke-linecap:square;stroke-linejoin:miter;stroke-width:1.25;"/>
   </g>
   <g id="patch_6">
    <path d="M 144 86.4 
L 1036.8 86.4 
" style="fill:none;stroke:#cccccc;stroke-linecap:square;stroke-linejoin:miter;stroke-width:1.25;"/>
   </g>
  </g>
 </g>
 <defs>
  <clipPath id="p77916617ee">
   <rect height="543.6" width="892.8" x="144" y="86.4"/>
  </clipPath>
 </defs>
</svg>
