<?xml version="1.0" encoding="utf-8" standalone="no"?>
<!DOCTYPE svg PUBLIC "-//W3C//DTD SVG 1.1//EN"
  "http://www.w3.org/Graphics/SVG/1.1/DTD/svg11.dtd">
<!-- Created with matplotlib (https://matplotlib.org/) -->
<svg height="720pt" version="1.1" viewBox="0 0 1152 720" width="1152pt" xmlns="http://www.w3.org/2000/svg" xmlns:xlink="http://www.w3.org/1999/xlink">
 <defs>
  <style type="text/css">
*{stroke-linecap:butt;stroke-linejoin:round;}
  </style>
 </defs>
 <g id="figure_1">
  <g id="patch_1">
   <path d="M 0 720 
L 1152 720 
L 1152 0 
L 0 0 
z
" style="fill:#ffffff;"/>
  </g>
  <g id="axes_1">
   <g id="patch_2">
    <path d="M 144 630 
L 1036.8 630 
L 1036.8 86.4 
L 144 86.4 
z
" style="fill:#ffffff;"/>
   </g>
   <g id="matplotlib.axis_1">
    <g id="xtick_1">
     <g id="line2d_1">
      <path clip-path="url(#p6be6bd0cb5)" d="M 144 630 
L 144 86.4 
" style="fill:none;stroke:#cccccc;stroke-linecap:round;"/>
     </g>
     <g id="text_1">
      <!-- 0.0 -->
      <defs>
       <path d="M 4.15625 35.296875 
Q 4.15625 48 6.765625 55.734375 
Q 9.375 63.484375 14.515625 67.671875 
Q 19.671875 71.875 27.484375 71.875 
Q 33.25 71.875 37.59375 69.546875 
Q 41.9375 67.234375 44.765625 62.859375 
Q 47.609375 58.5 49.21875 52.21875 
Q 50.828125 45.953125 50.828125 35.296875 
Q 50.828125 22.703125 48.234375 14.96875 
Q 45.65625 7.234375 40.5 3 
Q 35.359375 -1.21875 27.484375 -1.21875 
Q 17.140625 -1.21875 11.234375 6.203125 
Q 4.15625 15.140625 4.15625 35.296875 
z
M 13.1875 35.296875 
Q 13.1875 17.671875 17.3125 11.828125 
Q 21.4375 6 27.484375 6 
Q 33.546875 6 37.671875 11.859375 
Q 41.796875 17.71875 41.796875 35.296875 
Q 41.796875 52.984375 37.671875 58.78125 
Q 33.546875 64.59375 27.390625 64.59375 
Q 21.34375 64.59375 17.71875 59.46875 
Q 13.1875 52.9375 13.1875 35.296875 
z
" id="ArialMT-48"/>
       <path d="M 9.078125 0 
L 9.078125 10.015625 
L 19.09375 10.015625 
L 19.09375 0 
z
" id="ArialMT-46"/>
      </defs>
      <g style="fill:#262626;" transform="translate(128.71 655.247187)scale(0.22 -0.22)">
       <use xlink:href="#ArialMT-48"/>
       <use x="55.615234" xlink:href="#ArialMT-46"/>
       <use x="83.398438" xlink:href="#ArialMT-48"/>
      </g>
     </g>
    </g>
    <g id="xtick_2">
     <g id="line2d_2">
      <path clip-path="url(#p6be6bd0cb5)" d="M 331.528767 630 
L 331.528767 86.4 
" style="fill:none;stroke:#cccccc;stroke-linecap:round;"/>
     </g>
     <g id="text_2">
      <!-- 0.2 -->
      <defs>
       <path d="M 50.34375 8.453125 
L 50.34375 0 
L 3.03125 0 
Q 2.9375 3.171875 4.046875 6.109375 
Q 5.859375 10.9375 9.828125 15.625 
Q 13.8125 20.3125 21.34375 26.46875 
Q 33.015625 36.03125 37.109375 41.625 
Q 41.21875 47.21875 41.21875 52.203125 
Q 41.21875 57.421875 37.46875 61 
Q 33.734375 64.59375 27.734375 64.59375 
Q 21.390625 64.59375 17.578125 60.78125 
Q 13.765625 56.984375 13.71875 50.25 
L 4.6875 51.171875 
Q 5.609375 61.28125 11.65625 66.578125 
Q 17.71875 71.875 27.9375 71.875 
Q 38.234375 71.875 44.234375 66.15625 
Q 50.25 60.453125 50.25 52 
Q 50.25 47.703125 48.484375 43.546875 
Q 46.734375 39.40625 42.65625 34.8125 
Q 38.578125 30.21875 29.109375 22.21875 
Q 21.1875 15.578125 18.9375 13.203125 
Q 16.703125 10.84375 15.234375 8.453125 
z
" id="ArialMT-50"/>
      </defs>
      <g style="fill:#262626;" transform="translate(316.238767 655.247187)scale(0.22 -0.22)">
       <use xlink:href="#ArialMT-48"/>
       <use x="55.615234" xlink:href="#ArialMT-46"/>
       <use x="83.398438" xlink:href="#ArialMT-50"/>
      </g>
     </g>
    </g>
    <g id="xtick_3">
     <g id="line2d_3">
      <path clip-path="url(#p6be6bd0cb5)" d="M 519.057534 630 
L 519.057534 86.4 
" style="fill:none;stroke:#cccccc;stroke-linecap:round;"/>
     </g>
     <g id="text_3">
      <!-- 0.4 -->
      <defs>
       <path d="M 32.328125 0 
L 32.328125 17.140625 
L 1.265625 17.140625 
L 1.265625 25.203125 
L 33.9375 71.578125 
L 41.109375 71.578125 
L 41.109375 25.203125 
L 50.78125 25.203125 
L 50.78125 17.140625 
L 41.109375 17.140625 
L 41.109375 0 
z
M 32.328125 25.203125 
L 32.328125 57.46875 
L 9.90625 25.203125 
z
" id="ArialMT-52"/>
      </defs>
      <g style="fill:#262626;" transform="translate(503.767534 655.247187)scale(0.22 -0.22)">
       <use xlink:href="#ArialMT-48"/>
       <use x="55.615234" xlink:href="#ArialMT-46"/>
       <use x="83.398438" xlink:href="#ArialMT-52"/>
      </g>
     </g>
    </g>
    <g id="xtick_4">
     <g id="line2d_4">
      <path clip-path="url(#p6be6bd0cb5)" d="M 706.586301 630 
L 706.586301 86.4 
" style="fill:none;stroke:#cccccc;stroke-linecap:round;"/>
     </g>
     <g id="text_4">
      <!-- 0.6 -->
      <defs>
       <path d="M 49.75 54.046875 
L 41.015625 53.375 
Q 39.84375 58.546875 37.703125 60.890625 
Q 34.125 64.65625 28.90625 64.65625 
Q 24.703125 64.65625 21.53125 62.3125 
Q 17.390625 59.28125 14.984375 53.46875 
Q 12.59375 47.65625 12.5 36.921875 
Q 15.671875 41.75 20.265625 44.09375 
Q 24.859375 46.4375 29.890625 46.4375 
Q 38.671875 46.4375 44.84375 39.96875 
Q 51.03125 33.5 51.03125 23.25 
Q 51.03125 16.5 48.125 10.71875 
Q 45.21875 4.9375 40.140625 1.859375 
Q 35.0625 -1.21875 28.609375 -1.21875 
Q 17.625 -1.21875 10.6875 6.859375 
Q 3.765625 14.9375 3.765625 33.5 
Q 3.765625 54.25 11.421875 63.671875 
Q 18.109375 71.875 29.4375 71.875 
Q 37.890625 71.875 43.28125 67.140625 
Q 48.6875 62.40625 49.75 54.046875 
z
M 13.875 23.1875 
Q 13.875 18.65625 15.796875 14.5 
Q 17.71875 10.359375 21.1875 8.171875 
Q 24.65625 6 28.46875 6 
Q 34.03125 6 38.03125 10.484375 
Q 42.046875 14.984375 42.046875 22.703125 
Q 42.046875 30.125 38.078125 34.390625 
Q 34.125 38.671875 28.125 38.671875 
Q 22.171875 38.671875 18.015625 34.390625 
Q 13.875 30.125 13.875 23.1875 
z
" id="ArialMT-54"/>
      </defs>
      <g style="fill:#262626;" transform="translate(691.296301 655.247187)scale(0.22 -0.22)">
       <use xlink:href="#ArialMT-48"/>
       <use x="55.615234" xlink:href="#ArialMT-46"/>
       <use x="83.398438" xlink:href="#ArialMT-54"/>
      </g>
     </g>
    </g>
    <g id="xtick_5">
     <g id="line2d_5">
      <path clip-path="url(#p6be6bd0cb5)" d="M 894.115068 630 
L 894.115068 86.4 
" style="fill:none;stroke:#cccccc;stroke-linecap:round;"/>
     </g>
     <g id="text_5">
      <!-- 0.8 -->
      <defs>
       <path d="M 17.671875 38.8125 
Q 12.203125 40.828125 9.5625 44.53125 
Q 6.9375 48.25 6.9375 53.421875 
Q 6.9375 61.234375 12.546875 66.546875 
Q 18.171875 71.875 27.484375 71.875 
Q 36.859375 71.875 42.578125 66.421875 
Q 48.296875 60.984375 48.296875 53.171875 
Q 48.296875 48.1875 45.671875 44.5 
Q 43.0625 40.828125 37.75 38.8125 
Q 44.34375 36.671875 47.78125 31.875 
Q 51.21875 27.09375 51.21875 20.453125 
Q 51.21875 11.28125 44.71875 5.03125 
Q 38.234375 -1.21875 27.640625 -1.21875 
Q 17.046875 -1.21875 10.546875 5.046875 
Q 4.046875 11.328125 4.046875 20.703125 
Q 4.046875 27.6875 7.59375 32.390625 
Q 11.140625 37.109375 17.671875 38.8125 
z
M 15.921875 53.71875 
Q 15.921875 48.640625 19.1875 45.40625 
Q 22.46875 42.1875 27.6875 42.1875 
Q 32.765625 42.1875 36.015625 45.375 
Q 39.265625 48.578125 39.265625 53.21875 
Q 39.265625 58.0625 35.90625 61.359375 
Q 32.5625 64.65625 27.59375 64.65625 
Q 22.5625 64.65625 19.234375 61.421875 
Q 15.921875 58.203125 15.921875 53.71875 
z
M 13.09375 20.65625 
Q 13.09375 16.890625 14.875 13.375 
Q 16.65625 9.859375 20.171875 7.921875 
Q 23.6875 6 27.734375 6 
Q 34.03125 6 38.125 10.046875 
Q 42.234375 14.109375 42.234375 20.359375 
Q 42.234375 26.703125 38.015625 30.859375 
Q 33.796875 35.015625 27.4375 35.015625 
Q 21.234375 35.015625 17.15625 30.90625 
Q 13.09375 26.8125 13.09375 20.65625 
z
" id="ArialMT-56"/>
      </defs>
      <g style="fill:#262626;" transform="translate(878.825068 655.247187)scale(0.22 -0.22)">
       <use xlink:href="#ArialMT-48"/>
       <use x="55.615234" xlink:href="#ArialMT-46"/>
       <use x="83.398438" xlink:href="#ArialMT-56"/>
      </g>
     </g>
    </g>
    <g id="text_6">
     <!-- Simulation Result -->
     <defs>
      <path d="M 4.5 23 
L 13.421875 23.78125 
Q 14.0625 18.40625 16.375 14.96875 
Q 18.703125 11.53125 23.578125 9.40625 
Q 28.46875 7.28125 34.578125 7.28125 
Q 39.984375 7.28125 44.140625 8.890625 
Q 48.296875 10.5 50.3125 13.296875 
Q 52.34375 16.109375 52.34375 19.4375 
Q 52.34375 22.796875 50.390625 25.3125 
Q 48.4375 27.828125 43.953125 29.546875 
Q 41.0625 30.671875 31.203125 33.03125 
Q 21.34375 35.40625 17.390625 37.5 
Q 12.25 40.1875 9.734375 44.15625 
Q 7.234375 48.140625 7.234375 53.078125 
Q 7.234375 58.5 10.296875 63.203125 
Q 13.375 67.921875 19.28125 70.359375 
Q 25.203125 72.796875 32.421875 72.796875 
Q 40.375 72.796875 46.453125 70.234375 
Q 52.546875 67.671875 55.8125 62.6875 
Q 59.078125 57.71875 59.328125 51.421875 
L 50.25 50.734375 
Q 49.515625 57.515625 45.28125 60.984375 
Q 41.0625 64.453125 32.8125 64.453125 
Q 24.21875 64.453125 20.28125 61.296875 
Q 16.359375 58.15625 16.359375 53.71875 
Q 16.359375 49.859375 19.140625 47.359375 
Q 21.875 44.875 33.421875 42.265625 
Q 44.96875 39.65625 49.265625 37.703125 
Q 55.515625 34.8125 58.484375 30.390625 
Q 61.46875 25.984375 61.46875 20.21875 
Q 61.46875 14.5 58.203125 9.4375 
Q 54.9375 4.390625 48.796875 1.578125 
Q 42.671875 -1.21875 35.015625 -1.21875 
Q 25.296875 -1.21875 18.71875 1.609375 
Q 12.15625 4.4375 8.421875 10.125 
Q 4.6875 15.828125 4.5 23 
z
" id="ArialMT-83"/>
      <path d="M 6.640625 61.46875 
L 6.640625 71.578125 
L 15.4375 71.578125 
L 15.4375 61.46875 
z
M 6.640625 0 
L 6.640625 51.859375 
L 15.4375 51.859375 
L 15.4375 0 
z
" id="ArialMT-105"/>
      <path d="M 6.59375 0 
L 6.59375 51.859375 
L 14.453125 51.859375 
L 14.453125 44.578125 
Q 16.890625 48.390625 20.9375 50.703125 
Q 25 53.03125 30.171875 53.03125 
Q 35.9375 53.03125 39.625 50.640625 
Q 43.3125 48.25 44.828125 43.953125 
Q 50.984375 53.03125 60.84375 53.03125 
Q 68.5625 53.03125 72.703125 48.75 
Q 76.859375 44.484375 76.859375 35.59375 
L 76.859375 0 
L 68.109375 0 
L 68.109375 32.671875 
Q 68.109375 37.9375 67.25 40.25 
Q 66.40625 42.578125 64.15625 43.984375 
Q 61.921875 45.40625 58.890625 45.40625 
Q 53.421875 45.40625 49.796875 41.765625 
Q 46.1875 38.140625 46.1875 30.125 
L 46.1875 0 
L 37.40625 0 
L 37.40625 33.6875 
Q 37.40625 39.546875 35.25 42.46875 
Q 33.109375 45.40625 28.21875 45.40625 
Q 24.515625 45.40625 21.359375 43.453125 
Q 18.21875 41.5 16.796875 37.734375 
Q 15.375 33.984375 15.375 26.90625 
L 15.375 0 
z
" id="ArialMT-109"/>
      <path d="M 40.578125 0 
L 40.578125 7.625 
Q 34.515625 -1.171875 24.125 -1.171875 
Q 19.53125 -1.171875 15.546875 0.578125 
Q 11.578125 2.34375 9.640625 5 
Q 7.71875 7.671875 6.9375 11.53125 
Q 6.390625 14.109375 6.390625 19.734375 
L 6.390625 51.859375 
L 15.1875 51.859375 
L 15.1875 23.09375 
Q 15.1875 16.21875 15.71875 13.8125 
Q 16.546875 10.359375 19.234375 8.375 
Q 21.921875 6.390625 25.875 6.390625 
Q 29.828125 6.390625 33.296875 8.421875 
Q 36.765625 10.453125 38.203125 13.9375 
Q 39.65625 17.4375 39.65625 24.078125 
L 39.65625 51.859375 
L 48.4375 51.859375 
L 48.4375 0 
z
" id="ArialMT-117"/>
      <path d="M 6.390625 0 
L 6.390625 71.578125 
L 15.1875 71.578125 
L 15.1875 0 
z
" id="ArialMT-108"/>
      <path d="M 40.4375 6.390625 
Q 35.546875 2.25 31.03125 0.53125 
Q 26.515625 -1.171875 21.34375 -1.171875 
Q 12.796875 -1.171875 8.203125 3 
Q 3.609375 7.171875 3.609375 13.671875 
Q 3.609375 17.484375 5.34375 20.625 
Q 7.078125 23.78125 9.890625 25.6875 
Q 12.703125 27.59375 16.21875 28.5625 
Q 18.796875 29.25 24.03125 29.890625 
Q 34.671875 31.15625 39.703125 32.90625 
Q 39.75 34.71875 39.75 35.203125 
Q 39.75 40.578125 37.25 42.78125 
Q 33.890625 45.75 27.25 45.75 
Q 21.046875 45.75 18.09375 43.578125 
Q 15.140625 41.40625 13.71875 35.890625 
L 5.125 37.0625 
Q 6.296875 42.578125 8.984375 45.96875 
Q 11.671875 49.359375 16.75 51.1875 
Q 21.828125 53.03125 28.515625 53.03125 
Q 35.15625 53.03125 39.296875 51.46875 
Q 43.453125 49.90625 45.40625 47.53125 
Q 47.359375 45.171875 48.140625 41.546875 
Q 48.578125 39.3125 48.578125 33.453125 
L 48.578125 21.734375 
Q 48.578125 9.46875 49.140625 6.21875 
Q 49.703125 2.984375 51.375 0 
L 42.1875 0 
Q 40.828125 2.734375 40.4375 6.390625 
z
M 39.703125 26.03125 
Q 34.90625 24.078125 25.34375 22.703125 
Q 19.921875 21.921875 17.671875 20.9375 
Q 15.4375 19.96875 14.203125 18.09375 
Q 12.984375 16.21875 12.984375 13.921875 
Q 12.984375 10.40625 15.640625 8.0625 
Q 18.3125 5.71875 23.4375 5.71875 
Q 28.515625 5.71875 32.46875 7.9375 
Q 36.421875 10.15625 38.28125 14.015625 
Q 39.703125 17 39.703125 22.796875 
z
" id="ArialMT-97"/>
      <path d="M 25.78125 7.859375 
L 27.046875 0.09375 
Q 23.34375 -0.6875 20.40625 -0.6875 
Q 15.625 -0.6875 12.984375 0.828125 
Q 10.359375 2.34375 9.28125 4.8125 
Q 8.203125 7.28125 8.203125 15.1875 
L 8.203125 45.015625 
L 1.765625 45.015625 
L 1.765625 51.859375 
L 8.203125 51.859375 
L 8.203125 64.703125 
L 16.9375 69.96875 
L 16.9375 51.859375 
L 25.78125 51.859375 
L 25.78125 45.015625 
L 16.9375 45.015625 
L 16.9375 14.703125 
Q 16.9375 10.9375 17.40625 9.859375 
Q 17.875 8.796875 18.921875 8.15625 
Q 19.96875 7.515625 21.921875 7.515625 
Q 23.390625 7.515625 25.78125 7.859375 
z
" id="ArialMT-116"/>
      <path d="M 3.328125 25.921875 
Q 3.328125 40.328125 11.328125 47.265625 
Q 18.015625 53.03125 27.640625 53.03125 
Q 38.328125 53.03125 45.109375 46.015625 
Q 51.90625 39.015625 51.90625 26.65625 
Q 51.90625 16.65625 48.90625 10.90625 
Q 45.90625 5.171875 40.15625 2 
Q 34.421875 -1.171875 27.640625 -1.171875 
Q 16.75 -1.171875 10.03125 5.8125 
Q 3.328125 12.796875 3.328125 25.921875 
z
M 12.359375 25.921875 
Q 12.359375 15.96875 16.703125 11.015625 
Q 21.046875 6.0625 27.640625 6.0625 
Q 34.1875 6.0625 38.53125 11.03125 
Q 42.875 16.015625 42.875 26.21875 
Q 42.875 35.84375 38.5 40.796875 
Q 34.125 45.75 27.640625 45.75 
Q 21.046875 45.75 16.703125 40.8125 
Q 12.359375 35.890625 12.359375 25.921875 
z
" id="ArialMT-111"/>
      <path d="M 6.59375 0 
L 6.59375 51.859375 
L 14.5 51.859375 
L 14.5 44.484375 
Q 20.21875 53.03125 31 53.03125 
Q 35.6875 53.03125 39.625 51.34375 
Q 43.5625 49.65625 45.515625 46.921875 
Q 47.46875 44.1875 48.25 40.4375 
Q 48.734375 37.984375 48.734375 31.890625 
L 48.734375 0 
L 39.9375 0 
L 39.9375 31.546875 
Q 39.9375 36.921875 38.90625 39.578125 
Q 37.890625 42.234375 35.28125 43.8125 
Q 32.671875 45.40625 29.15625 45.40625 
Q 23.53125 45.40625 19.453125 41.84375 
Q 15.375 38.28125 15.375 28.328125 
L 15.375 0 
z
" id="ArialMT-110"/>
      <path id="ArialMT-32"/>
      <path d="M 7.859375 0 
L 7.859375 71.578125 
L 39.59375 71.578125 
Q 49.171875 71.578125 54.140625 69.640625 
Q 59.125 67.71875 62.109375 62.828125 
Q 65.09375 57.953125 65.09375 52.046875 
Q 65.09375 44.4375 60.15625 39.203125 
Q 55.21875 33.984375 44.921875 32.5625 
Q 48.6875 30.765625 50.640625 29 
Q 54.78125 25.203125 58.5 19.484375 
L 70.953125 0 
L 59.03125 0 
L 49.5625 14.890625 
Q 45.40625 21.34375 42.71875 24.75 
Q 40.046875 28.171875 37.921875 29.53125 
Q 35.796875 30.90625 33.59375 31.453125 
Q 31.984375 31.78125 28.328125 31.78125 
L 17.328125 31.78125 
L 17.328125 0 
z
M 17.328125 39.984375 
L 37.703125 39.984375 
Q 44.1875 39.984375 47.84375 41.328125 
Q 51.515625 42.671875 53.421875 45.625 
Q 55.328125 48.578125 55.328125 52.046875 
Q 55.328125 57.125 51.640625 60.390625 
Q 47.953125 63.671875 39.984375 63.671875 
L 17.328125 63.671875 
z
" id="ArialMT-82"/>
      <path d="M 42.09375 16.703125 
L 51.171875 15.578125 
Q 49.03125 7.625 43.21875 3.21875 
Q 37.40625 -1.171875 28.375 -1.171875 
Q 17 -1.171875 10.328125 5.828125 
Q 3.65625 12.84375 3.65625 25.484375 
Q 3.65625 38.578125 10.390625 45.796875 
Q 17.140625 53.03125 27.875 53.03125 
Q 38.28125 53.03125 44.875 45.953125 
Q 51.46875 38.875 51.46875 26.03125 
Q 51.46875 25.25 51.421875 23.6875 
L 12.75 23.6875 
Q 13.234375 15.140625 17.578125 10.59375 
Q 21.921875 6.0625 28.421875 6.0625 
Q 33.25 6.0625 36.671875 8.59375 
Q 40.09375 11.140625 42.09375 16.703125 
z
M 13.234375 30.90625 
L 42.1875 30.90625 
Q 41.609375 37.453125 38.875 40.71875 
Q 34.671875 45.796875 27.984375 45.796875 
Q 21.921875 45.796875 17.796875 41.75 
Q 13.671875 37.703125 13.234375 30.90625 
z
" id="ArialMT-101"/>
      <path d="M 3.078125 15.484375 
L 11.765625 16.84375 
Q 12.5 11.625 15.84375 8.84375 
Q 19.1875 6.0625 25.203125 6.0625 
Q 31.25 6.0625 34.171875 8.515625 
Q 37.109375 10.984375 37.109375 14.3125 
Q 37.109375 17.28125 34.515625 19 
Q 32.71875 20.171875 25.53125 21.96875 
Q 15.875 24.421875 12.140625 26.203125 
Q 8.40625 27.984375 6.46875 31.125 
Q 4.546875 34.28125 4.546875 38.09375 
Q 4.546875 41.546875 6.125 44.5 
Q 7.71875 47.46875 10.453125 49.421875 
Q 12.5 50.921875 16.03125 51.96875 
Q 19.578125 53.03125 23.640625 53.03125 
Q 29.734375 53.03125 34.34375 51.265625 
Q 38.96875 49.515625 41.15625 46.5 
Q 43.359375 43.5 44.1875 38.484375 
L 35.59375 37.3125 
Q 35.015625 41.3125 32.203125 43.546875 
Q 29.390625 45.796875 24.265625 45.796875 
Q 18.21875 45.796875 15.625 43.796875 
Q 13.03125 41.796875 13.03125 39.109375 
Q 13.03125 37.40625 14.109375 36.03125 
Q 15.1875 34.625 17.484375 33.6875 
Q 18.796875 33.203125 25.25 31.453125 
Q 34.578125 28.953125 38.25 27.359375 
Q 41.9375 25.78125 44.03125 22.75 
Q 46.140625 19.734375 46.140625 15.234375 
Q 46.140625 10.84375 43.578125 6.953125 
Q 41.015625 3.078125 36.171875 0.953125 
Q 31.34375 -1.171875 25.25 -1.171875 
Q 15.140625 -1.171875 9.84375 3.03125 
Q 4.546875 7.234375 3.078125 15.484375 
z
" id="ArialMT-115"/>
     </defs>
     <g style="fill:#262626;" transform="translate(497.02875 680.798437)scale(0.24 -0.24)">
      <use xlink:href="#ArialMT-83"/>
      <use x="66.699219" xlink:href="#ArialMT-105"/>
      <use x="88.916016" xlink:href="#ArialMT-109"/>
      <use x="172.216797" xlink:href="#ArialMT-117"/>
      <use x="227.832031" xlink:href="#ArialMT-108"/>
      <use x="250.048828" xlink:href="#ArialMT-97"/>
      <use x="305.664062" xlink:href="#ArialMT-116"/>
      <use x="333.447266" xlink:href="#ArialMT-105"/>
      <use x="355.664062" xlink:href="#ArialMT-111"/>
      <use x="411.279297" xlink:href="#ArialMT-110"/>
      <use x="466.894531" xlink:href="#ArialMT-32"/>
      <use x="494.677734" xlink:href="#ArialMT-82"/>
      <use x="566.894531" xlink:href="#ArialMT-101"/>
      <use x="622.509766" xlink:href="#ArialMT-115"/>
      <use x="672.509766" xlink:href="#ArialMT-117"/>
      <use x="728.125" xlink:href="#ArialMT-108"/>
      <use x="750.341797" xlink:href="#ArialMT-116"/>
     </g>
    </g>
   </g>
   <g id="matplotlib.axis_2">
    <g id="ytick_1">
     <g id="line2d_6">
      <path clip-path="url(#p6be6bd0cb5)" d="M 144 615.419182 
L 1036.8 615.419182 
" style="fill:none;stroke:#cccccc;stroke-linecap:round;"/>
     </g>
     <g id="text_7">
      <!-- −0.2 -->
      <defs>
       <path d="M 52.828125 31.203125 
L 5.5625 31.203125 
L 5.5625 39.40625 
L 52.828125 39.40625 
z
" id="ArialMT-8722"/>
      </defs>
      <g style="fill:#262626;" transform="translate(91.070625 623.292776)scale(0.22 -0.22)">
       <use xlink:href="#ArialMT-8722"/>
       <use x="58.398438" xlink:href="#ArialMT-48"/>
       <use x="114.013672" xlink:href="#ArialMT-46"/>
       <use x="141.796875" xlink:href="#ArialMT-50"/>
      </g>
     </g>
    </g>
    <g id="ytick_2">
     <g id="line2d_7">
      <path clip-path="url(#p6be6bd0cb5)" d="M 144 538.263793 
L 1036.8 538.263793 
" style="fill:none;stroke:#cccccc;stroke-linecap:round;"/>
     </g>
     <g id="text_8">
      <!-- 0.0 -->
      <g style="fill:#262626;" transform="translate(103.92 546.137387)scale(0.22 -0.22)">
       <use xlink:href="#ArialMT-48"/>
       <use x="55.615234" xlink:href="#ArialMT-46"/>
       <use x="83.398438" xlink:href="#ArialMT-48"/>
      </g>
     </g>
    </g>
    <g id="ytick_3">
     <g id="line2d_8">
      <path clip-path="url(#p6be6bd0cb5)" d="M 144 461.108404 
L 1036.8 461.108404 
" style="fill:none;stroke:#cccccc;stroke-linecap:round;"/>
     </g>
     <g id="text_9">
      <!-- 0.2 -->
      <g style="fill:#262626;" transform="translate(103.92 468.981998)scale(0.22 -0.22)">
       <use xlink:href="#ArialMT-48"/>
       <use x="55.615234" xlink:href="#ArialMT-46"/>
       <use x="83.398438" xlink:href="#ArialMT-50"/>
      </g>
     </g>
    </g>
    <g id="ytick_4">
     <g id="line2d_9">
      <path clip-path="url(#p6be6bd0cb5)" d="M 144 383.953015 
L 1036.8 383.953015 
" style="fill:none;stroke:#cccccc;stroke-linecap:round;"/>
     </g>
     <g id="text_10">
      <!-- 0.4 -->
      <g style="fill:#262626;" transform="translate(103.92 391.826608)scale(0.22 -0.22)">
       <use xlink:href="#ArialMT-48"/>
       <use x="55.615234" xlink:href="#ArialMT-46"/>
       <use x="83.398438" xlink:href="#ArialMT-52"/>
      </g>
     </g>
    </g>
    <g id="ytick_5">
     <g id="line2d_10">
      <path clip-path="url(#p6be6bd0cb5)" d="M 144 306.797625 
L 1036.8 306.797625 
" style="fill:none;stroke:#cccccc;stroke-linecap:round;"/>
     </g>
     <g id="text_11">
      <!-- 0.6 -->
      <g style="fill:#262626;" transform="translate(103.92 314.671219)scale(0.22 -0.22)">
       <use xlink:href="#ArialMT-48"/>
       <use x="55.615234" xlink:href="#ArialMT-46"/>
       <use x="83.398438" xlink:href="#ArialMT-54"/>
      </g>
     </g>
    </g>
    <g id="ytick_6">
     <g id="line2d_11">
      <path clip-path="url(#p6be6bd0cb5)" d="M 144 229.642236 
L 1036.8 229.642236 
" style="fill:none;stroke:#cccccc;stroke-linecap:round;"/>
     </g>
     <g id="text_12">
      <!-- 0.8 -->
      <g style="fill:#262626;" transform="translate(103.92 237.51583)scale(0.22 -0.22)">
       <use xlink:href="#ArialMT-48"/>
       <use x="55.615234" xlink:href="#ArialMT-46"/>
       <use x="83.398438" xlink:href="#ArialMT-56"/>
      </g>
     </g>
    </g>
    <g id="ytick_7">
     <g id="line2d_12">
      <path clip-path="url(#p6be6bd0cb5)" d="M 144 152.486847 
L 1036.8 152.486847 
" style="fill:none;stroke:#cccccc;stroke-linecap:round;"/>
     </g>
     <g id="text_13">
      <!-- 1.0 -->
      <defs>
       <path d="M 37.25 0 
L 28.46875 0 
L 28.46875 56 
Q 25.296875 52.984375 20.140625 49.953125 
Q 14.984375 46.921875 10.890625 45.40625 
L 10.890625 53.90625 
Q 18.265625 57.375 23.78125 62.296875 
Q 29.296875 67.234375 31.59375 71.875 
L 37.25 71.875 
z
" id="ArialMT-49"/>
      </defs>
      <g style="fill:#262626;" transform="translate(103.92 160.360441)scale(0.22 -0.22)">
       <use xlink:href="#ArialMT-49"/>
       <use x="55.615234" xlink:href="#ArialMT-46"/>
       <use x="83.398438" xlink:href="#ArialMT-48"/>
      </g>
     </g>
    </g>
    <g id="text_14">
     <!-- Predicted -->
     <defs>
      <path d="M 7.71875 0 
L 7.71875 71.578125 
L 34.71875 71.578125 
Q 41.84375 71.578125 45.609375 70.90625 
Q 50.875 70.015625 54.4375 67.546875 
Q 58.015625 65.09375 60.1875 60.640625 
Q 62.359375 56.203125 62.359375 50.875 
Q 62.359375 41.75 56.546875 35.421875 
Q 50.734375 29.109375 35.546875 29.109375 
L 17.1875 29.109375 
L 17.1875 0 
z
M 17.1875 37.546875 
L 35.6875 37.546875 
Q 44.875 37.546875 48.734375 40.96875 
Q 52.59375 44.390625 52.59375 50.59375 
Q 52.59375 55.078125 50.3125 58.265625 
Q 48.046875 61.46875 44.34375 62.5 
Q 41.9375 63.140625 35.5 63.140625 
L 17.1875 63.140625 
z
" id="ArialMT-80"/>
      <path d="M 6.5 0 
L 6.5 51.859375 
L 14.40625 51.859375 
L 14.40625 44 
Q 17.4375 49.515625 20 51.265625 
Q 22.5625 53.03125 25.640625 53.03125 
Q 30.078125 53.03125 34.671875 50.203125 
L 31.640625 42.046875 
Q 28.421875 43.953125 25.203125 43.953125 
Q 22.3125 43.953125 20.015625 42.21875 
Q 17.71875 40.484375 16.75 37.40625 
Q 15.28125 32.71875 15.28125 27.15625 
L 15.28125 0 
z
" id="ArialMT-114"/>
      <path d="M 40.234375 0 
L 40.234375 6.546875 
Q 35.296875 -1.171875 25.734375 -1.171875 
Q 19.53125 -1.171875 14.328125 2.25 
Q 9.125 5.671875 6.265625 11.796875 
Q 3.421875 17.921875 3.421875 25.875 
Q 3.421875 33.640625 6 39.96875 
Q 8.59375 46.296875 13.765625 49.65625 
Q 18.953125 53.03125 25.34375 53.03125 
Q 30.03125 53.03125 33.6875 51.046875 
Q 37.359375 49.078125 39.65625 45.90625 
L 39.65625 71.578125 
L 48.390625 71.578125 
L 48.390625 0 
z
M 12.453125 25.875 
Q 12.453125 15.921875 16.640625 10.984375 
Q 20.84375 6.0625 26.5625 6.0625 
Q 32.328125 6.0625 36.34375 10.765625 
Q 40.375 15.484375 40.375 25.140625 
Q 40.375 35.796875 36.265625 40.765625 
Q 32.171875 45.75 26.171875 45.75 
Q 20.3125 45.75 16.375 40.96875 
Q 12.453125 36.1875 12.453125 25.875 
z
" id="ArialMT-100"/>
      <path d="M 40.4375 19 
L 49.078125 17.875 
Q 47.65625 8.9375 41.8125 3.875 
Q 35.984375 -1.171875 27.484375 -1.171875 
Q 16.84375 -1.171875 10.375 5.78125 
Q 3.90625 12.75 3.90625 25.734375 
Q 3.90625 34.125 6.6875 40.421875 
Q 9.46875 46.734375 15.15625 49.875 
Q 20.84375 53.03125 27.546875 53.03125 
Q 35.984375 53.03125 41.359375 48.75 
Q 46.734375 44.484375 48.25 36.625 
L 39.703125 35.296875 
Q 38.484375 40.53125 35.375 43.15625 
Q 32.28125 45.796875 27.875 45.796875 
Q 21.234375 45.796875 17.078125 41.03125 
Q 12.9375 36.28125 12.9375 25.984375 
Q 12.9375 15.53125 16.9375 10.796875 
Q 20.953125 6.0625 27.390625 6.0625 
Q 32.5625 6.0625 36.03125 9.234375 
Q 39.5 12.40625 40.4375 19 
z
" id="ArialMT-99"/>
     </defs>
     <g style="fill:#262626;" transform="translate(82.300625 408.8925)rotate(-90)scale(0.24 -0.24)">
      <use xlink:href="#ArialMT-80"/>
      <use x="66.699219" xlink:href="#ArialMT-114"/>
      <use x="100" xlink:href="#ArialMT-101"/>
      <use x="155.615234" xlink:href="#ArialMT-100"/>
      <use x="211.230469" xlink:href="#ArialMT-105"/>
      <use x="233.447266" xlink:href="#ArialMT-99"/>
      <use x="283.447266" xlink:href="#ArialMT-116"/>
      <use x="311.230469" xlink:href="#ArialMT-101"/>
      <use x="366.845703" xlink:href="#ArialMT-100"/>
     </g>
    </g>
   </g>
   <g id="LineCollection_1">
    <path clip-path="url(#p6be6bd0cb5)" d="M 525.637491 428.455912 
L 525.637491 318.018237 
" style="fill:none;stroke:#64b5cd;stroke-width:0.5;"/>
    <path clip-path="url(#p6be6bd0cb5)" d="M 383.620091 485.893403 
L 383.620091 373.33446 
" style="fill:none;stroke:#64b5cd;stroke-width:0.5;"/>
    <path clip-path="url(#p6be6bd0cb5)" d="M 425.293151 453.73887 
L 425.293151 340.127879 
" style="fill:none;stroke:#64b5cd;stroke-width:0.5;"/>
    <path clip-path="url(#p6be6bd0cb5)" d="M 679.184838 406.371181 
L 679.184838 296.228668 
" style="fill:none;stroke:#64b5cd;stroke-width:0.5;"/>
    <path clip-path="url(#p6be6bd0cb5)" d="M 849.837443 315.215182 
L 849.837443 205.352283 
" style="fill:none;stroke:#64b5cd;stroke-width:0.5;"/>
    <path clip-path="url(#p6be6bd0cb5)" d="M 430.143033 459.443967 
L 430.143033 336.464688 
" style="fill:none;stroke:#64b5cd;stroke-width:0.5;"/>
    <path clip-path="url(#p6be6bd0cb5)" d="M 512.806575 438.680747 
L 512.806575 331.013904 
" style="fill:none;stroke:#64b5cd;stroke-width:0.5;"/>
    <path clip-path="url(#p6be6bd0cb5)" d="M 839.419178 325.576669 
L 839.419178 218.424589 
" style="fill:none;stroke:#64b5cd;stroke-width:0.5;"/>
    <path clip-path="url(#p6be6bd0cb5)" d="M 390.565601 493.769904 
L 390.565601 381.332116 
" style="fill:none;stroke:#64b5cd;stroke-width:0.5;"/>
    <path clip-path="url(#p6be6bd0cb5)" d="M 514.151907 416.189535 
L 514.151907 302.910592 
" style="fill:none;stroke:#64b5cd;stroke-width:0.5;"/>
    <path clip-path="url(#p6be6bd0cb5)" d="M 712.167515 367.963786 
L 712.167515 244.137711 
" style="fill:none;stroke:#64b5cd;stroke-width:0.5;"/>
    <path clip-path="url(#p6be6bd0cb5)" d="M 620.858865 382.64566 
L 620.858865 271.746648 
" style="fill:none;stroke:#64b5cd;stroke-width:0.5;"/>
    <path clip-path="url(#p6be6bd0cb5)" d="M 1000.749073 228.321379 
L 1000.749073 111.109091 
" style="fill:none;stroke:#64b5cd;stroke-width:0.5;"/>
    <path clip-path="url(#p6be6bd0cb5)" d="M 772.855866 361.708497 
L 772.855866 247.838909 
" style="fill:none;stroke:#64b5cd;stroke-width:0.5;"/>
    <path clip-path="url(#p6be6bd0cb5)" d="M 551.320548 425.413535 
L 551.320548 308.062737 
" style="fill:none;stroke:#64b5cd;stroke-width:0.5;"/>
    <path clip-path="url(#p6be6bd0cb5)" d="M 529.573166 465.123642 
L 529.573166 356.860882 
" style="fill:none;stroke:#64b5cd;stroke-width:0.5;"/>
    <path clip-path="url(#p6be6bd0cb5)" d="M 993.315068 228.810162 
L 993.315068 116.138637 
" style="fill:none;stroke:#64b5cd;stroke-width:0.5;"/>
    <path clip-path="url(#p6be6bd0cb5)" d="M 550.312329 427.779383 
L 550.312329 321.050023 
" style="fill:none;stroke:#64b5cd;stroke-width:0.5;"/>
    <path clip-path="url(#p6be6bd0cb5)" d="M 144 595.600786 
L 144 474.27545 
" style="fill:none;stroke:#64b5cd;stroke-width:0.5;"/>
    <path clip-path="url(#p6be6bd0cb5)" d="M 907.07291 258.983719 
L 907.07291 141.840531 
" style="fill:none;stroke:#64b5cd;stroke-width:0.5;"/>
    <path clip-path="url(#p6be6bd0cb5)" d="M 762.967499 394.035833 
L 762.967499 287.212825 
" style="fill:none;stroke:#64b5cd;stroke-width:0.5;"/>
    <path clip-path="url(#p6be6bd0cb5)" d="M 292.650852 553.387056 
L 292.650852 444.373718 
" style="fill:none;stroke:#64b5cd;stroke-width:0.5;"/>
    <path clip-path="url(#p6be6bd0cb5)" d="M 673.595129 409.753643 
L 673.595129 301.023282 
" style="fill:none;stroke:#64b5cd;stroke-width:0.5;"/>
    <path clip-path="url(#p6be6bd0cb5)" d="M 859.233438 309.478887 
L 859.233438 200.672659 
" style="fill:none;stroke:#64b5cd;stroke-width:0.5;"/>
    <path clip-path="url(#p6be6bd0cb5)" d="M 921.293151 291.05614 
L 921.293151 173.895178 
" style="fill:none;stroke:#64b5cd;stroke-width:0.5;"/>
    <path clip-path="url(#p6be6bd0cb5)" d="M 634.132005 405.748907 
L 634.132005 299.033504 
" style="fill:none;stroke:#64b5cd;stroke-width:0.5;"/>
    <path clip-path="url(#p6be6bd0cb5)" d="M 511.617653 434.691847 
L 511.617653 320.463888 
" style="fill:none;stroke:#64b5cd;stroke-width:0.5;"/>
    <path clip-path="url(#p6be6bd0cb5)" d="M 463.127902 481.00229 
L 463.127902 373.118192 
" style="fill:none;stroke:#64b5cd;stroke-width:0.5;"/>
    <path clip-path="url(#p6be6bd0cb5)" d="M 919.816981 285.944636 
L 919.816981 177.31381 
" style="fill:none;stroke:#64b5cd;stroke-width:0.5;"/>
    <path clip-path="url(#p6be6bd0cb5)" d="M 745.654795 371.653084 
L 745.654795 259.915061 
" style="fill:none;stroke:#64b5cd;stroke-width:0.5;"/>
    <path clip-path="url(#p6be6bd0cb5)" d="M 375.219282 512.220624 
L 375.219282 396.406471 
" style="fill:none;stroke:#64b5cd;stroke-width:0.5;"/>
    <path clip-path="url(#p6be6bd0cb5)" d="M 637.312615 412.125148 
L 637.312615 287.19835 
" style="fill:none;stroke:#64b5cd;stroke-width:0.5;"/>
    <path clip-path="url(#p6be6bd0cb5)" d="M 144 605.119545 
L 144 492.437143 
" style="fill:none;stroke:#64b5cd;stroke-width:0.5;"/>
    <path clip-path="url(#p6be6bd0cb5)" d="M 743.050228 380.879273 
L 743.050228 266.873774 
" style="fill:none;stroke:#64b5cd;stroke-width:0.5;"/>
    <path clip-path="url(#p6be6bd0cb5)" d="M 731.590137 330.875801 
L 731.590137 219.75476 
" style="fill:none;stroke:#64b5cd;stroke-width:0.5;"/>
    <path clip-path="url(#p6be6bd0cb5)" d="M 748.712329 379.746933 
L 748.712329 266.445879 
" style="fill:none;stroke:#64b5cd;stroke-width:0.5;"/>
    <path clip-path="url(#p6be6bd0cb5)" d="M 497.569863 451.56584 
L 497.569863 341.106553 
" style="fill:none;stroke:#64b5cd;stroke-width:0.5;"/>
    <path clip-path="url(#p6be6bd0cb5)" d="M 524.216819 413.206025 
L 524.216819 304.524088 
" style="fill:none;stroke:#64b5cd;stroke-width:0.5;"/>
    <path clip-path="url(#p6be6bd0cb5)" d="M 609.891781 396.493981 
L 609.891781 285.920585 
" style="fill:none;stroke:#64b5cd;stroke-width:0.5;"/>
    <path clip-path="url(#p6be6bd0cb5)" d="M 713.531811 344.591001 
L 713.531811 234.827819 
" style="fill:none;stroke:#64b5cd;stroke-width:0.5;"/>
    <path clip-path="url(#p6be6bd0cb5)" d="M 916.177276 262.337454 
L 916.177276 146.991218 
" style="fill:none;stroke:#64b5cd;stroke-width:0.5;"/>
    <path clip-path="url(#p6be6bd0cb5)" d="M 943.601826 279.031548 
L 943.601826 162.299018 
" style="fill:none;stroke:#64b5cd;stroke-width:0.5;"/>
    <path clip-path="url(#p6be6bd0cb5)" d="M 448.133193 459.881983 
L 448.133193 350.095267 
" style="fill:none;stroke:#64b5cd;stroke-width:0.5;"/>
    <path clip-path="url(#p6be6bd0cb5)" d="M 400.735812 469.142713 
L 400.735812 357.223231 
" style="fill:none;stroke:#64b5cd;stroke-width:0.5;"/>
    <path clip-path="url(#p6be6bd0cb5)" d="M 276.928166 513.513844 
L 276.928166 394.600335 
" style="fill:none;stroke:#64b5cd;stroke-width:0.5;"/>
    <path clip-path="url(#p6be6bd0cb5)" d="M 463.532257 474.319891 
L 463.532257 364.945318 
" style="fill:none;stroke:#64b5cd;stroke-width:0.5;"/>
    <path clip-path="url(#p6be6bd0cb5)" d="M 581.309882 414.55081 
L 581.309882 286.118759 
" style="fill:none;stroke:#64b5cd;stroke-width:0.5;"/>
    <path clip-path="url(#p6be6bd0cb5)" d="M 439.905782 477.379342 
L 439.905782 355.945276 
" style="fill:none;stroke:#64b5cd;stroke-width:0.5;"/>
    <path clip-path="url(#p6be6bd0cb5)" d="M 598.689671 431.30394 
L 598.689671 314.213081 
" style="fill:none;stroke:#64b5cd;stroke-width:0.5;"/>
    <path clip-path="url(#p6be6bd0cb5)" d="M 876.020187 274.836779 
L 876.020187 149.219844 
" style="fill:none;stroke:#64b5cd;stroke-width:0.5;"/>
    <path clip-path="url(#p6be6bd0cb5)" d="M 440.295452 477.789115 
L 440.295452 363.223782 
" style="fill:none;stroke:#64b5cd;stroke-width:0.5;"/>
    <path clip-path="url(#p6be6bd0cb5)" d="M 730.628451 345.215526 
L 730.628451 225.203009 
" style="fill:none;stroke:#64b5cd;stroke-width:0.5;"/>
    <path clip-path="url(#p6be6bd0cb5)" d="M 1036.8 222.341374 
L 1036.8 111.630833 
" style="fill:none;stroke:#64b5cd;stroke-width:0.5;"/>
    <path clip-path="url(#p6be6bd0cb5)" d="M 730.628451 367.957447 
L 730.628451 246.225707 
" style="fill:none;stroke:#64b5cd;stroke-width:0.5;"/>
    <path clip-path="url(#p6be6bd0cb5)" d="M 777.46771 340.762498 
L 777.46771 220.038314 
" style="fill:none;stroke:#64b5cd;stroke-width:0.5;"/>
    <path clip-path="url(#p6be6bd0cb5)" d="M 273.484149 535.5769 
L 273.484149 420.912847 
" style="fill:none;stroke:#64b5cd;stroke-width:0.5;"/>
    <path clip-path="url(#p6be6bd0cb5)" d="M 560.358513 401.333429 
L 560.358513 294.373471 
" style="fill:none;stroke:#64b5cd;stroke-width:0.5;"/>
    <path clip-path="url(#p6be6bd0cb5)" d="M 653.589041 413.812766 
L 653.589041 306.37672 
" style="fill:none;stroke:#64b5cd;stroke-width:0.5;"/>
    <path clip-path="url(#p6be6bd0cb5)" d="M 382.035871 498.415099 
L 382.035871 388.56603 
" style="fill:none;stroke:#64b5cd;stroke-width:0.5;"/>
    <path clip-path="url(#p6be6bd0cb5)" d="M 712.539596 337.497173 
L 712.539596 229.126457 
" style="fill:none;stroke:#64b5cd;stroke-width:0.5;"/>
    <path clip-path="url(#p6be6bd0cb5)" d="M 770.794521 323.426485 
L 770.794521 207.656048 
" style="fill:none;stroke:#64b5cd;stroke-width:0.5;"/>
    <path clip-path="url(#p6be6bd0cb5)" d="M 476.51906 459.129718 
L 476.51906 350.773663 
" style="fill:none;stroke:#64b5cd;stroke-width:0.5;"/>
    <path clip-path="url(#p6be6bd0cb5)" d="M 834.446824 307.65611 
L 834.446824 186.801187 
" style="fill:none;stroke:#64b5cd;stroke-width:0.5;"/>
    <path clip-path="url(#p6be6bd0cb5)" d="M 694.356164 380.498738 
L 694.356164 258.610131 
" style="fill:none;stroke:#64b5cd;stroke-width:0.5;"/>
    <path clip-path="url(#p6be6bd0cb5)" d="M 973.171313 273.928461 
L 973.171313 160.017318 
" style="fill:none;stroke:#64b5cd;stroke-width:0.5;"/>
    <path clip-path="url(#p6be6bd0cb5)" d="M 282.042009 535.173548 
L 282.042009 412.500356 
" style="fill:none;stroke:#64b5cd;stroke-width:0.5;"/>
    <path clip-path="url(#p6be6bd0cb5)" d="M 272.926027 527.961605 
L 272.926027 413.127602 
" style="fill:none;stroke:#64b5cd;stroke-width:0.5;"/>
    <path clip-path="url(#p6be6bd0cb5)" d="M 655.328438 353.648032 
L 655.328438 240.119674 
" style="fill:none;stroke:#64b5cd;stroke-width:0.5;"/>
    <path clip-path="url(#p6be6bd0cb5)" d="M 474.779909 457.930823 
L 474.779909 345.219279 
" style="fill:none;stroke:#64b5cd;stroke-width:0.5;"/>
    <path clip-path="url(#p6be6bd0cb5)" d="M 521.574699 455.657331 
L 521.574699 346.068425 
" style="fill:none;stroke:#64b5cd;stroke-width:0.5;"/>
    <path clip-path="url(#p6be6bd0cb5)" d="M 662.052006 400.936884 
L 662.052006 288.335967 
" style="fill:none;stroke:#64b5cd;stroke-width:0.5;"/>
    <path clip-path="url(#p6be6bd0cb5)" d="M 501.06235 471.593338 
L 501.06235 361.261104 
" style="fill:none;stroke:#64b5cd;stroke-width:0.5;"/>
    <path clip-path="url(#p6be6bd0cb5)" d="M 381.378186 499.897058 
L 381.378186 381.848918 
" style="fill:none;stroke:#64b5cd;stroke-width:0.5;"/>
    <path clip-path="url(#p6be6bd0cb5)" d="M 694.356164 377.442575 
L 694.356164 268.311632 
" style="fill:none;stroke:#64b5cd;stroke-width:0.5;"/>
    <path clip-path="url(#p6be6bd0cb5)" d="M 866.537309 324.550152 
L 866.537309 218.571962 
" style="fill:none;stroke:#64b5cd;stroke-width:0.5;"/>
    <path clip-path="url(#p6be6bd0cb5)" d="M 715.337644 382.823618 
L 715.337644 272.014371 
" style="fill:none;stroke:#64b5cd;stroke-width:0.5;"/>
    <path clip-path="url(#p6be6bd0cb5)" d="M 726.475716 337.693286 
L 726.475716 228.051688 
" style="fill:none;stroke:#64b5cd;stroke-width:0.5;"/>
    <path clip-path="url(#p6be6bd0cb5)" d="M 970.739726 253.901545 
L 970.739726 141.232294 
" style="fill:none;stroke:#64b5cd;stroke-width:0.5;"/>
    <path clip-path="url(#p6be6bd0cb5)" d="M 344.461786 496.599711 
L 344.461786 391.032153 
" style="fill:none;stroke:#64b5cd;stroke-width:0.5;"/>
    <path clip-path="url(#p6be6bd0cb5)" d="M 606.417247 396.274431 
L 606.417247 287.83425 
" style="fill:none;stroke:#64b5cd;stroke-width:0.5;"/>
    <path clip-path="url(#p6be6bd0cb5)" d="M 577.256117 394.407966 
L 577.256117 286.318136 
" style="fill:none;stroke:#64b5cd;stroke-width:0.5;"/>
    <path clip-path="url(#p6be6bd0cb5)" d="M 346.531068 489.68601 
L 346.531068 374.346232 
" style="fill:none;stroke:#64b5cd;stroke-width:0.5;"/>
    <path clip-path="url(#p6be6bd0cb5)" d="M 403.003875 484.344929 
L 403.003875 371.71281 
" style="fill:none;stroke:#64b5cd;stroke-width:0.5;"/>
    <path clip-path="url(#p6be6bd0cb5)" d="M 698.062267 374.091828 
L 698.062267 242.586908 
" style="fill:none;stroke:#64b5cd;stroke-width:0.5;"/>
    <path clip-path="url(#p6be6bd0cb5)" d="M 277.770521 551.77056 
L 277.770521 423.526843 
" style="fill:none;stroke:#64b5cd;stroke-width:0.5;"/>
    <path clip-path="url(#p6be6bd0cb5)" d="M 582.442914 430.673463 
L 582.442914 309.847874 
" style="fill:none;stroke:#64b5cd;stroke-width:0.5;"/>
    <path clip-path="url(#p6be6bd0cb5)" d="M 955.844507 251.706615 
L 955.844507 143.769892 
" style="fill:none;stroke:#64b5cd;stroke-width:0.5;"/>
    <path clip-path="url(#p6be6bd0cb5)" d="M 449.046795 451.577189 
L 449.046795 338.460293 
" style="fill:none;stroke:#64b5cd;stroke-width:0.5;"/>
    <path clip-path="url(#p6be6bd0cb5)" d="M 343.2319 475.853711 
L 343.2319 366.055934 
" style="fill:none;stroke:#64b5cd;stroke-width:0.5;"/>
    <path clip-path="url(#p6be6bd0cb5)" d="M 780.258317 341.651339 
L 780.258317 233.543238 
" style="fill:none;stroke:#64b5cd;stroke-width:0.5;"/>
    <path clip-path="url(#p6be6bd0cb5)" d="M 567.978082 421.80513 
L 567.978082 303.289314 
" style="fill:none;stroke:#64b5cd;stroke-width:0.5;"/>
    <path clip-path="url(#p6be6bd0cb5)" d="M 606.570959 414.037697 
L 606.570959 295.49849 
" style="fill:none;stroke:#64b5cd;stroke-width:0.5;"/>
    <path clip-path="url(#p6be6bd0cb5)" d="M 335.13509 491.235453 
L 335.13509 383.013723 
" style="fill:none;stroke:#64b5cd;stroke-width:0.5;"/>
    <path clip-path="url(#p6be6bd0cb5)" d="M 629.565558 360.818998 
L 629.565558 249.892251 
" style="fill:none;stroke:#64b5cd;stroke-width:0.5;"/>
    <path clip-path="url(#p6be6bd0cb5)" d="M 297.432628 481.368541 
L 297.432628 374.612373 
" style="fill:none;stroke:#64b5cd;stroke-width:0.5;"/>
    <path clip-path="url(#p6be6bd0cb5)" d="M 908.540358 279.197605 
L 908.540358 162.468166 
" style="fill:none;stroke:#64b5cd;stroke-width:0.5;"/>
    <path clip-path="url(#p6be6bd0cb5)" d="M 801.652968 302.418143 
L 801.652968 192.595062 
" style="fill:none;stroke:#64b5cd;stroke-width:0.5;"/>
    <path clip-path="url(#p6be6bd0cb5)" d="M 462.17554 493.222039 
L 462.17554 376.824927 
" style="fill:none;stroke:#64b5cd;stroke-width:0.5;"/>
    <path clip-path="url(#p6be6bd0cb5)" d="M 525.623093 426.575865 
L 525.623093 321.176526 
" style="fill:none;stroke:#64b5cd;stroke-width:0.5;"/>
    <path clip-path="url(#p6be6bd0cb5)" d="M 904.059776 298.744104 
L 904.059776 176.677578 
" style="fill:none;stroke:#64b5cd;stroke-width:0.5;"/>
    <path clip-path="url(#p6be6bd0cb5)" d="M 349.760731 480.312779 
L 349.760731 364.403218 
" style="fill:none;stroke:#64b5cd;stroke-width:0.5;"/>
    <path clip-path="url(#p6be6bd0cb5)" d="M 674.253755 380.064065 
L 674.253755 270.197996 
" style="fill:none;stroke:#64b5cd;stroke-width:0.5;"/>
    <path clip-path="url(#p6be6bd0cb5)" d="M 975.370154 257.073914 
L 975.370154 145.534117 
" style="fill:none;stroke:#64b5cd;stroke-width:0.5;"/>
    <path clip-path="url(#p6be6bd0cb5)" d="M 147.906849 579.038566 
L 147.906849 463.477697 
" style="fill:none;stroke:#64b5cd;stroke-width:0.5;"/>
    <path clip-path="url(#p6be6bd0cb5)" d="M 548.714283 425.99484 
L 548.714283 307.405424 
" style="fill:none;stroke:#64b5cd;stroke-width:0.5;"/>
    <path clip-path="url(#p6be6bd0cb5)" d="M 622.098455 407.166983 
L 622.098455 300.160101 
" style="fill:none;stroke:#64b5cd;stroke-width:0.5;"/>
    <path clip-path="url(#p6be6bd0cb5)" d="M 909.063014 300.837756 
L 909.063014 192.511184 
" style="fill:none;stroke:#64b5cd;stroke-width:0.5;"/>
    <path clip-path="url(#p6be6bd0cb5)" d="M 389.573386 475.778164 
L 389.573386 360.173931 
" style="fill:none;stroke:#64b5cd;stroke-width:0.5;"/>
    <path clip-path="url(#p6be6bd0cb5)" d="M 459.673425 433.782749 
L 459.673425 329.923327 
" style="fill:none;stroke:#64b5cd;stroke-width:0.5;"/>
    <path clip-path="url(#p6be6bd0cb5)" d="M 441.424658 430.081933 
L 441.424658 320.568613 
" style="fill:none;stroke:#64b5cd;stroke-width:0.5;"/>
    <path clip-path="url(#p6be6bd0cb5)" d="M 626.136741 433.865998 
L 626.136741 328.148312 
" style="fill:none;stroke:#64b5cd;stroke-width:0.5;"/>
    <path clip-path="url(#p6be6bd0cb5)" d="M 534.305626 435.130776 
L 534.305626 315.480844 
" style="fill:none;stroke:#64b5cd;stroke-width:0.5;"/>
    <path clip-path="url(#p6be6bd0cb5)" d="M 401.852055 480.865239 
L 401.852055 373.423001 
" style="fill:none;stroke:#64b5cd;stroke-width:0.5;"/>
    <path clip-path="url(#p6be6bd0cb5)" d="M 745.676085 360.247203 
L 745.676085 232.276738 
" style="fill:none;stroke:#64b5cd;stroke-width:0.5;"/>
    <path clip-path="url(#p6be6bd0cb5)" d="M 744.944458 339.494626 
L 744.944458 224.694245 
" style="fill:none;stroke:#64b5cd;stroke-width:0.5;"/>
    <path clip-path="url(#p6be6bd0cb5)" d="M 583.623843 416.404433 
L 583.623843 296.515139 
" style="fill:none;stroke:#64b5cd;stroke-width:0.5;"/>
    <path clip-path="url(#p6be6bd0cb5)" d="M 686.982194 417.166672 
L 686.982194 303.56093 
" style="fill:none;stroke:#64b5cd;stroke-width:0.5;"/>
    <path clip-path="url(#p6be6bd0cb5)" d="M 433.414475 470.956095 
L 433.414475 353.334279 
" style="fill:none;stroke:#64b5cd;stroke-width:0.5;"/>
    <path clip-path="url(#p6be6bd0cb5)" d="M 716.238517 362.49574 
L 716.238517 256.031573 
" style="fill:none;stroke:#64b5cd;stroke-width:0.5;"/>
    <path clip-path="url(#p6be6bd0cb5)" d="M 770.171787 308.624623 
L 770.171787 200.343422 
" style="fill:none;stroke:#64b5cd;stroke-width:0.5;"/>
    <path clip-path="url(#p6be6bd0cb5)" d="M 552.627499 420.408648 
L 552.627499 308.961515 
" style="fill:none;stroke:#64b5cd;stroke-width:0.5;"/>
    <path clip-path="url(#p6be6bd0cb5)" d="M 156.240781 586.444232 
L 156.240781 469.456202 
" style="fill:none;stroke:#64b5cd;stroke-width:0.5;"/>
    <path clip-path="url(#p6be6bd0cb5)" d="M 481.551781 425.019821 
L 481.551781 319.444317 
" style="fill:none;stroke:#64b5cd;stroke-width:0.5;"/>
    <path clip-path="url(#p6be6bd0cb5)" d="M 906.269711 301.31753 
L 906.269711 178.873213 
" style="fill:none;stroke:#64b5cd;stroke-width:0.5;"/>
    <path clip-path="url(#p6be6bd0cb5)" d="M 373.527397 476.387213 
L 373.527397 363.991306 
" style="fill:none;stroke:#64b5cd;stroke-width:0.5;"/>
    <path clip-path="url(#p6be6bd0cb5)" d="M 787.190771 333.742404 
L 787.190771 221.749455 
" style="fill:none;stroke:#64b5cd;stroke-width:0.5;"/>
    <path clip-path="url(#p6be6bd0cb5)" d="M 873.278539 303.537262 
L 873.278539 184.606538 
" style="fill:none;stroke:#64b5cd;stroke-width:0.5;"/>
    <path clip-path="url(#p6be6bd0cb5)" d="M 638.281121 361.473676 
L 638.281121 249.417019 
" style="fill:none;stroke:#64b5cd;stroke-width:0.5;"/>
    <path clip-path="url(#p6be6bd0cb5)" d="M 709.167818 356.042025 
L 709.167818 240.089791 
" style="fill:none;stroke:#64b5cd;stroke-width:0.5;"/>
    <path clip-path="url(#p6be6bd0cb5)" d="M 935.837976 277.81762 
L 935.837976 151.464089 
" style="fill:none;stroke:#64b5cd;stroke-width:0.5;"/>
    <path clip-path="url(#p6be6bd0cb5)" d="M 144 580.373785 
L 144 466.118045 
" style="fill:none;stroke:#64b5cd;stroke-width:0.5;"/>
    <path clip-path="url(#p6be6bd0cb5)" d="M 147.906849 605.290909 
L 147.906849 487.684036 
" style="fill:none;stroke:#64b5cd;stroke-width:0.5;"/>
    <path clip-path="url(#p6be6bd0cb5)" d="M 640 430.443353 
L 640 325.451473 
" style="fill:none;stroke:#64b5cd;stroke-width:0.5;"/>
    <path clip-path="url(#p6be6bd0cb5)" d="M 582.486382 410.25015 
L 582.486382 303.286172 
" style="fill:none;stroke:#64b5cd;stroke-width:0.5;"/>
    <path clip-path="url(#p6be6bd0cb5)" d="M 614.384658 384.147508 
L 614.384658 273.932642 
" style="fill:none;stroke:#64b5cd;stroke-width:0.5;"/>
    <path clip-path="url(#p6be6bd0cb5)" d="M 735.887671 363.270665 
L 735.887671 249.050392 
" style="fill:none;stroke:#64b5cd;stroke-width:0.5;"/>
    <path clip-path="url(#p6be6bd0cb5)" d="M 817.398755 328.497902 
L 817.398755 212.631929 
" style="fill:none;stroke:#64b5cd;stroke-width:0.5;"/>
    <path clip-path="url(#p6be6bd0cb5)" d="M 183.068493 525.386003 
L 183.068493 408.2962 
" style="fill:none;stroke:#64b5cd;stroke-width:0.5;"/>
    <path clip-path="url(#p6be6bd0cb5)" d="M 786.779524 326.048662 
L 786.779524 213.877108 
" style="fill:none;stroke:#64b5cd;stroke-width:0.5;"/>
    <path clip-path="url(#p6be6bd0cb5)" d="M 517.601942 413.080423 
L 517.601942 303.999619 
" style="fill:none;stroke:#64b5cd;stroke-width:0.5;"/>
    <path clip-path="url(#p6be6bd0cb5)" d="M 801.771357 335.400441 
L 801.771357 216.481564 
" style="fill:none;stroke:#64b5cd;stroke-width:0.5;"/>
    <path clip-path="url(#p6be6bd0cb5)" d="M 383.219389 496.344073 
L 383.219389 381.323182 
" style="fill:none;stroke:#64b5cd;stroke-width:0.5;"/>
    <path clip-path="url(#p6be6bd0cb5)" d="M 439.307756 477.362383 
L 439.307756 356.311176 
" style="fill:none;stroke:#64b5cd;stroke-width:0.5;"/>
    <path clip-path="url(#p6be6bd0cb5)" d="M 973.088833 234.524046 
L 973.088833 120.965514 
" style="fill:none;stroke:#64b5cd;stroke-width:0.5;"/>
    <path clip-path="url(#p6be6bd0cb5)" d="M 832.855671 367.276982 
L 832.855671 257.125699 
" style="fill:none;stroke:#64b5cd;stroke-width:0.5;"/>
    <path clip-path="url(#p6be6bd0cb5)" d="M 676.581699 421.424462 
L 676.581699 309.661369 
" style="fill:none;stroke:#64b5cd;stroke-width:0.5;"/>
    <path clip-path="url(#p6be6bd0cb5)" d="M 597.194521 374.757258 
L 597.194521 264.490177 
" style="fill:none;stroke:#64b5cd;stroke-width:0.5;"/>
    <path clip-path="url(#p6be6bd0cb5)" d="M 823.791781 337.987902 
L 823.791781 230.974365 
" style="fill:none;stroke:#64b5cd;stroke-width:0.5;"/>
    <path clip-path="url(#p6be6bd0cb5)" d="M 986.520548 265.314423 
L 986.520548 146.163536 
" style="fill:none;stroke:#64b5cd;stroke-width:0.5;"/>
    <path clip-path="url(#p6be6bd0cb5)" d="M 894.115068 303.792915 
L 894.115068 191.315769 
" style="fill:none;stroke:#64b5cd;stroke-width:0.5;"/>
   </g>
   <g id="LineCollection_2">
    <path clip-path="url(#p6be6bd0cb5)" d="M 494.906102 469.018883 
L 494.906102 354.849579 
" style="fill:none;stroke:#8172b3;stroke-width:0.5;"/>
    <path clip-path="url(#p6be6bd0cb5)" d="M 534.684932 428.203605 
L 534.684932 316.616035 
" style="fill:none;stroke:#8172b3;stroke-width:0.5;"/>
    <path clip-path="url(#p6be6bd0cb5)" d="M 879.026547 300.033434 
L 879.026547 153.968479 
" style="fill:none;stroke:#8172b3;stroke-width:0.5;"/>
    <path clip-path="url(#p6be6bd0cb5)" d="M 284.646575 465.894447 
L 284.646575 339.638685 
" style="fill:none;stroke:#8172b3;stroke-width:0.5;"/>
    <path clip-path="url(#p6be6bd0cb5)" d="M 309.765667 494.945781 
L 309.765667 367.130275 
" style="fill:none;stroke:#8172b3;stroke-width:0.5;"/>
    <path clip-path="url(#p6be6bd0cb5)" d="M 782.490802 325.196732 
L 782.490802 212.782207 
" style="fill:none;stroke:#8172b3;stroke-width:0.5;"/>
    <path clip-path="url(#p6be6bd0cb5)" d="M 830.303196 398.422877 
L 830.303196 201.973705 
" style="fill:none;stroke:#8172b3;stroke-width:0.5;"/>
    <path clip-path="url(#p6be6bd0cb5)" d="M 272.144658 527.092034 
L 272.144658 386.556186 
" style="fill:none;stroke:#8172b3;stroke-width:0.5;"/>
    <path clip-path="url(#p6be6bd0cb5)" d="M 525.894521 395.580535 
L 525.894521 287.161188 
" style="fill:none;stroke:#8172b3;stroke-width:0.5;"/>
    <path clip-path="url(#p6be6bd0cb5)" d="M 810.596033 305.704521 
L 810.596033 196.089077 
" style="fill:none;stroke:#8172b3;stroke-width:0.5;"/>
    <path clip-path="url(#p6be6bd0cb5)" d="M 621.620184 430.190529 
L 621.620184 318.097153 
" style="fill:none;stroke:#8172b3;stroke-width:0.5;"/>
    <path clip-path="url(#p6be6bd0cb5)" d="M 633.658447 400.550677 
L 633.658447 279.007398 
" style="fill:none;stroke:#8172b3;stroke-width:0.5;"/>
    <path clip-path="url(#p6be6bd0cb5)" d="M 475.896151 433.909581 
L 475.896151 314.191607 
" style="fill:none;stroke:#8172b3;stroke-width:0.5;"/>
    <path clip-path="url(#p6be6bd0cb5)" d="M 561.677709 435.538355 
L 561.677709 305.648849 
" style="fill:none;stroke:#8172b3;stroke-width:0.5;"/>
    <path clip-path="url(#p6be6bd0cb5)" d="M 608.292237 424.355617 
L 608.292237 266.915123 
" style="fill:none;stroke:#8172b3;stroke-width:0.5;"/>
    <path clip-path="url(#p6be6bd0cb5)" d="M 983.617435 286.818363 
L 983.617435 146.650263 
" style="fill:none;stroke:#8172b3;stroke-width:0.5;"/>
    <path clip-path="url(#p6be6bd0cb5)" d="M 326.67448 498.73271 
L 326.67448 385.861364 
" style="fill:none;stroke:#8172b3;stroke-width:0.5;"/>
    <path clip-path="url(#p6be6bd0cb5)" d="M 668.228144 368.368806 
L 668.228144 257.853588 
" style="fill:none;stroke:#8172b3;stroke-width:0.5;"/>
    <path clip-path="url(#p6be6bd0cb5)" d="M 774.512666 481.776569 
L 774.512666 232.651493 
" style="fill:none;stroke:#8172b3;stroke-width:0.5;"/>
    <path clip-path="url(#p6be6bd0cb5)" d="M 666.787031 373.38216 
L 666.787031 264.194291 
" style="fill:none;stroke:#8172b3;stroke-width:0.5;"/>
    <path clip-path="url(#p6be6bd0cb5)" d="M 725.339178 365.773203 
L 725.339178 257.070472 
" style="fill:none;stroke:#8172b3;stroke-width:0.5;"/>
    <path clip-path="url(#p6be6bd0cb5)" d="M 745.944191 402.475887 
L 745.944191 296.553346 
" style="fill:none;stroke:#8172b3;stroke-width:0.5;"/>
    <path clip-path="url(#p6be6bd0cb5)" d="M 697.534789 402.15678 
L 697.534789 288.346937 
" style="fill:none;stroke:#8172b3;stroke-width:0.5;"/>
    <path clip-path="url(#p6be6bd0cb5)" d="M 337.044319 504.466247 
L 337.044319 390.768302 
" style="fill:none;stroke:#8172b3;stroke-width:0.5;"/>
    <path clip-path="url(#p6be6bd0cb5)" d="M 380.643444 500.276703 
L 380.643444 346.492131 
" style="fill:none;stroke:#8172b3;stroke-width:0.5;"/>
    <path clip-path="url(#p6be6bd0cb5)" d="M 765.30743 319.547644 
L 765.30743 209.06987 
" style="fill:none;stroke:#8172b3;stroke-width:0.5;"/>
    <path clip-path="url(#p6be6bd0cb5)" d="M 651.890411 455.354778 
L 651.890411 224.109811 
" style="fill:none;stroke:#8172b3;stroke-width:0.5;"/>
    <path clip-path="url(#p6be6bd0cb5)" d="M 168.261713 529.93383 
L 168.261713 391.715755 
" style="fill:none;stroke:#8172b3;stroke-width:0.5;"/>
    <path clip-path="url(#p6be6bd0cb5)" d="M 394.038356 465.080273 
L 394.038356 347.977361 
" style="fill:none;stroke:#8172b3;stroke-width:0.5;"/>
    <path clip-path="url(#p6be6bd0cb5)" d="M 403.299036 444.170448 
L 403.299036 329.307407 
" style="fill:none;stroke:#8172b3;stroke-width:0.5;"/>
    <path clip-path="url(#p6be6bd0cb5)" d="M 411.541041 498.251226 
L 411.541041 377.947005 
" style="fill:none;stroke:#8172b3;stroke-width:0.5;"/>
    <path clip-path="url(#p6be6bd0cb5)" d="M 552.262918 430.159738 
L 552.262918 305.006567 
" style="fill:none;stroke:#8172b3;stroke-width:0.5;"/>
    <path clip-path="url(#p6be6bd0cb5)" d="M 183.778829 596.966357 
L 183.778829 468.38313 
" style="fill:none;stroke:#8172b3;stroke-width:0.5;"/>
    <path clip-path="url(#p6be6bd0cb5)" d="M 657.299895 398.147108 
L 657.299895 286.80883 
" style="fill:none;stroke:#8172b3;stroke-width:0.5;"/>
    <path clip-path="url(#p6be6bd0cb5)" d="M 312.77589 517.034402 
L 312.77589 391.833014 
" style="fill:none;stroke:#8172b3;stroke-width:0.5;"/>
    <path clip-path="url(#p6be6bd0cb5)" d="M 736.632347 360.938208 
L 736.632347 246.53601 
" style="fill:none;stroke:#8172b3;stroke-width:0.5;"/>
    <path clip-path="url(#p6be6bd0cb5)" d="M 465.808625 452.981791 
L 465.808625 333.406937 
" style="fill:none;stroke:#8172b3;stroke-width:0.5;"/>
    <path clip-path="url(#p6be6bd0cb5)" d="M 632.561788 387.143786 
L 632.561788 280.215899 
" style="fill:none;stroke:#8172b3;stroke-width:0.5;"/>
    <path clip-path="url(#p6be6bd0cb5)" d="M 498.607761 392.062851 
L 498.607761 273.376206 
" style="fill:none;stroke:#8172b3;stroke-width:0.5;"/>
    <path clip-path="url(#p6be6bd0cb5)" d="M 417.479452 433.329778 
L 417.479452 312.270122 
" style="fill:none;stroke:#8172b3;stroke-width:0.5;"/>
    <path clip-path="url(#p6be6bd0cb5)" d="M 431.081076 456.857493 
L 431.081076 342.42994 
" style="fill:none;stroke:#8172b3;stroke-width:0.5;"/>
    <path clip-path="url(#p6be6bd0cb5)" d="M 694.084384 391.511969 
L 694.084384 256.967917 
" style="fill:none;stroke:#8172b3;stroke-width:0.5;"/>
    <path clip-path="url(#p6be6bd0cb5)" d="M 272.926027 492.571494 
L 272.926027 363.063819 
" style="fill:none;stroke:#8172b3;stroke-width:0.5;"/>
    <path clip-path="url(#p6be6bd0cb5)" d="M 457.850228 473.002473 
L 457.850228 341.867878 
" style="fill:none;stroke:#8172b3;stroke-width:0.5;"/>
    <path clip-path="url(#p6be6bd0cb5)" d="M 795.912134 350.902716 
L 795.912134 229.876089 
" style="fill:none;stroke:#8172b3;stroke-width:0.5;"/>
    <path clip-path="url(#p6be6bd0cb5)" d="M 305.844715 499.291509 
L 305.844715 352.199768 
" style="fill:none;stroke:#8172b3;stroke-width:0.5;"/>
    <path clip-path="url(#p6be6bd0cb5)" d="M 371.534904 494.742711 
L 371.534904 377.032723 
" style="fill:none;stroke:#8172b3;stroke-width:0.5;"/>
    <path clip-path="url(#p6be6bd0cb5)" d="M 423.060665 458.489269 
L 423.060665 338.726372 
" style="fill:none;stroke:#8172b3;stroke-width:0.5;"/>
    <path clip-path="url(#p6be6bd0cb5)" d="M 346.652055 495.223163 
L 346.652055 378.329489 
" style="fill:none;stroke:#8172b3;stroke-width:0.5;"/>
    <path clip-path="url(#p6be6bd0cb5)" d="M 332.94944 494.509149 
L 332.94944 367.988557 
" style="fill:none;stroke:#8172b3;stroke-width:0.5;"/>
   </g>
   <g id="line2d_13">
    <path clip-path="url(#p6be6bd0cb5)" d="M 144 538.263793 
L 1036.8 170.937049 
" style="fill:none;stroke:#c44e52;stroke-linecap:round;stroke-width:1.5;"/>
   </g>
   <g id="line2d_14">
    <defs>
     <path d="M 0 3 
C 0.795609 3 1.55874 2.683901 2.12132 2.12132 
C 2.683901 1.55874 3 0.795609 3 0 
C 3 -0.795609 2.683901 -1.55874 2.12132 -2.12132 
C 1.55874 -2.683901 0.795609 -3 0 -3 
C -0.795609 -3 -1.55874 -2.683901 -2.12132 -2.12132 
C -2.683901 -1.55874 -3 -0.795609 -3 0 
C -3 0.795609 -2.683901 1.55874 -2.12132 2.12132 
C -1.55874 2.683901 -0.795609 3 0 3 
z
" id="m9694752a55" style="stroke:#64b5cd;"/>
    </defs>
    <g clip-path="url(#p6be6bd0cb5)">
     <use style="fill:#64b5cd;stroke:#64b5cd;" x="525.637491" xlink:href="#m9694752a55" y="373.237075"/>
     <use style="fill:#64b5cd;stroke:#64b5cd;" x="383.620091" xlink:href="#m9694752a55" y="429.613931"/>
     <use style="fill:#64b5cd;stroke:#64b5cd;" x="425.293151" xlink:href="#m9694752a55" y="396.933374"/>
     <use style="fill:#64b5cd;stroke:#64b5cd;" x="679.184838" xlink:href="#m9694752a55" y="351.299924"/>
     <use style="fill:#64b5cd;stroke:#64b5cd;" x="849.837443" xlink:href="#m9694752a55" y="260.283732"/>
     <use style="fill:#64b5cd;stroke:#64b5cd;" x="430.143033" xlink:href="#m9694752a55" y="397.954328"/>
     <use style="fill:#64b5cd;stroke:#64b5cd;" x="512.806575" xlink:href="#m9694752a55" y="384.847325"/>
     <use style="fill:#64b5cd;stroke:#64b5cd;" x="839.419178" xlink:href="#m9694752a55" y="272.000629"/>
     <use style="fill:#64b5cd;stroke:#64b5cd;" x="390.565601" xlink:href="#m9694752a55" y="437.55101"/>
     <use style="fill:#64b5cd;stroke:#64b5cd;" x="514.151907" xlink:href="#m9694752a55" y="359.550063"/>
     <use style="fill:#64b5cd;stroke:#64b5cd;" x="712.167515" xlink:href="#m9694752a55" y="306.050748"/>
     <use style="fill:#64b5cd;stroke:#64b5cd;" x="620.858865" xlink:href="#m9694752a55" y="327.196154"/>
     <use style="fill:#64b5cd;stroke:#64b5cd;" x="1000.749073" xlink:href="#m9694752a55" y="169.715235"/>
     <use style="fill:#64b5cd;stroke:#64b5cd;" x="772.855866" xlink:href="#m9694752a55" y="304.773703"/>
     <use style="fill:#64b5cd;stroke:#64b5cd;" x="551.320548" xlink:href="#m9694752a55" y="366.738136"/>
     <use style="fill:#64b5cd;stroke:#64b5cd;" x="529.573166" xlink:href="#m9694752a55" y="410.992262"/>
     <use style="fill:#64b5cd;stroke:#64b5cd;" x="993.315068" xlink:href="#m9694752a55" y="172.474399"/>
     <use style="fill:#64b5cd;stroke:#64b5cd;" x="550.312329" xlink:href="#m9694752a55" y="374.414703"/>
     <use style="fill:#64b5cd;stroke:#64b5cd;" x="144" xlink:href="#m9694752a55" y="534.938118"/>
     <use style="fill:#64b5cd;stroke:#64b5cd;" x="907.07291" xlink:href="#m9694752a55" y="200.412125"/>
     <use style="fill:#64b5cd;stroke:#64b5cd;" x="762.967499" xlink:href="#m9694752a55" y="340.624329"/>
     <use style="fill:#64b5cd;stroke:#64b5cd;" x="292.650852" xlink:href="#m9694752a55" y="498.880387"/>
     <use style="fill:#64b5cd;stroke:#64b5cd;" x="673.595129" xlink:href="#m9694752a55" y="355.388463"/>
     <use style="fill:#64b5cd;stroke:#64b5cd;" x="859.233438" xlink:href="#m9694752a55" y="255.075773"/>
     <use style="fill:#64b5cd;stroke:#64b5cd;" x="921.293151" xlink:href="#m9694752a55" y="232.475659"/>
     <use style="fill:#64b5cd;stroke:#64b5cd;" x="634.132005" xlink:href="#m9694752a55" y="352.391206"/>
     <use style="fill:#64b5cd;stroke:#64b5cd;" x="511.617653" xlink:href="#m9694752a55" y="377.577868"/>
     <use style="fill:#64b5cd;stroke:#64b5cd;" x="463.127902" xlink:href="#m9694752a55" y="427.060241"/>
     <use style="fill:#64b5cd;stroke:#64b5cd;" x="919.816981" xlink:href="#m9694752a55" y="231.629223"/>
     <use style="fill:#64b5cd;stroke:#64b5cd;" x="745.654795" xlink:href="#m9694752a55" y="315.784072"/>
     <use style="fill:#64b5cd;stroke:#64b5cd;" x="375.219282" xlink:href="#m9694752a55" y="454.313547"/>
     <use style="fill:#64b5cd;stroke:#64b5cd;" x="637.312615" xlink:href="#m9694752a55" y="349.661749"/>
     <use style="fill:#64b5cd;stroke:#64b5cd;" x="144" xlink:href="#m9694752a55" y="548.778344"/>
     <use style="fill:#64b5cd;stroke:#64b5cd;" x="743.050228" xlink:href="#m9694752a55" y="323.876524"/>
     <use style="fill:#64b5cd;stroke:#64b5cd;" x="731.590137" xlink:href="#m9694752a55" y="275.315281"/>
     <use style="fill:#64b5cd;stroke:#64b5cd;" x="748.712329" xlink:href="#m9694752a55" y="323.096406"/>
     <use style="fill:#64b5cd;stroke:#64b5cd;" x="497.569863" xlink:href="#m9694752a55" y="396.336197"/>
     <use style="fill:#64b5cd;stroke:#64b5cd;" x="524.216819" xlink:href="#m9694752a55" y="358.865056"/>
     <use style="fill:#64b5cd;stroke:#64b5cd;" x="609.891781" xlink:href="#m9694752a55" y="341.207283"/>
     <use style="fill:#64b5cd;stroke:#64b5cd;" x="713.531811" xlink:href="#m9694752a55" y="289.70941"/>
     <use style="fill:#64b5cd;stroke:#64b5cd;" x="916.177276" xlink:href="#m9694752a55" y="204.664336"/>
     <use style="fill:#64b5cd;stroke:#64b5cd;" x="943.601826" xlink:href="#m9694752a55" y="220.665283"/>
     <use style="fill:#64b5cd;stroke:#64b5cd;" x="448.133193" xlink:href="#m9694752a55" y="404.988625"/>
     <use style="fill:#64b5cd;stroke:#64b5cd;" x="400.735812" xlink:href="#m9694752a55" y="413.182972"/>
     <use style="fill:#64b5cd;stroke:#64b5cd;" x="276.928166" xlink:href="#m9694752a55" y="454.05709"/>
     <use style="fill:#64b5cd;stroke:#64b5cd;" x="463.532257" xlink:href="#m9694752a55" y="419.632604"/>
     <use style="fill:#64b5cd;stroke:#64b5cd;" x="581.309882" xlink:href="#m9694752a55" y="350.334785"/>
     <use style="fill:#64b5cd;stroke:#64b5cd;" x="439.905782" xlink:href="#m9694752a55" y="416.662309"/>
     <use style="fill:#64b5cd;stroke:#64b5cd;" x="598.689671" xlink:href="#m9694752a55" y="372.75851"/>
     <use style="fill:#64b5cd;stroke:#64b5cd;" x="876.020187" xlink:href="#m9694752a55" y="212.028311"/>
     <use style="fill:#64b5cd;stroke:#64b5cd;" x="440.295452" xlink:href="#m9694752a55" y="420.506449"/>
     <use style="fill:#64b5cd;stroke:#64b5cd;" x="730.628451" xlink:href="#m9694752a55" y="285.209268"/>
     <use style="fill:#64b5cd;stroke:#64b5cd;" x="1036.8" xlink:href="#m9694752a55" y="166.986104"/>
     <use style="fill:#64b5cd;stroke:#64b5cd;" x="730.628451" xlink:href="#m9694752a55" y="307.091577"/>
     <use style="fill:#64b5cd;stroke:#64b5cd;" x="777.46771" xlink:href="#m9694752a55" y="280.400406"/>
     <use style="fill:#64b5cd;stroke:#64b5cd;" x="273.484149" xlink:href="#m9694752a55" y="478.244873"/>
     <use style="fill:#64b5cd;stroke:#64b5cd;" x="560.358513" xlink:href="#m9694752a55" y="347.85345"/>
     <use style="fill:#64b5cd;stroke:#64b5cd;" x="653.589041" xlink:href="#m9694752a55" y="360.094743"/>
     <use style="fill:#64b5cd;stroke:#64b5cd;" x="382.035871" xlink:href="#m9694752a55" y="443.490565"/>
     <use style="fill:#64b5cd;stroke:#64b5cd;" x="712.539596" xlink:href="#m9694752a55" y="283.311815"/>
     <use style="fill:#64b5cd;stroke:#64b5cd;" x="770.794521" xlink:href="#m9694752a55" y="265.541266"/>
     <use style="fill:#64b5cd;stroke:#64b5cd;" x="476.51906" xlink:href="#m9694752a55" y="404.951691"/>
     <use style="fill:#64b5cd;stroke:#64b5cd;" x="834.446824" xlink:href="#m9694752a55" y="247.228648"/>
     <use style="fill:#64b5cd;stroke:#64b5cd;" x="694.356164" xlink:href="#m9694752a55" y="319.554434"/>
     <use style="fill:#64b5cd;stroke:#64b5cd;" x="973.171313" xlink:href="#m9694752a55" y="216.97289"/>
     <use style="fill:#64b5cd;stroke:#64b5cd;" x="282.042009" xlink:href="#m9694752a55" y="473.836952"/>
     <use style="fill:#64b5cd;stroke:#64b5cd;" x="272.926027" xlink:href="#m9694752a55" y="470.544604"/>
     <use style="fill:#64b5cd;stroke:#64b5cd;" x="655.328438" xlink:href="#m9694752a55" y="296.883853"/>
     <use style="fill:#64b5cd;stroke:#64b5cd;" x="474.779909" xlink:href="#m9694752a55" y="401.575051"/>
     <use style="fill:#64b5cd;stroke:#64b5cd;" x="521.574699" xlink:href="#m9694752a55" y="400.862878"/>
     <use style="fill:#64b5cd;stroke:#64b5cd;" x="662.052006" xlink:href="#m9694752a55" y="344.636426"/>
     <use style="fill:#64b5cd;stroke:#64b5cd;" x="501.06235" xlink:href="#m9694752a55" y="416.427221"/>
     <use style="fill:#64b5cd;stroke:#64b5cd;" x="381.378186" xlink:href="#m9694752a55" y="440.872988"/>
     <use style="fill:#64b5cd;stroke:#64b5cd;" x="694.356164" xlink:href="#m9694752a55" y="322.877103"/>
     <use style="fill:#64b5cd;stroke:#64b5cd;" x="866.537309" xlink:href="#m9694752a55" y="271.561057"/>
     <use style="fill:#64b5cd;stroke:#64b5cd;" x="715.337644" xlink:href="#m9694752a55" y="327.418995"/>
     <use style="fill:#64b5cd;stroke:#64b5cd;" x="726.475716" xlink:href="#m9694752a55" y="282.872487"/>
     <use style="fill:#64b5cd;stroke:#64b5cd;" x="970.739726" xlink:href="#m9694752a55" y="197.56692"/>
     <use style="fill:#64b5cd;stroke:#64b5cd;" x="344.461786" xlink:href="#m9694752a55" y="443.815932"/>
     <use style="fill:#64b5cd;stroke:#64b5cd;" x="606.417247" xlink:href="#m9694752a55" y="342.054341"/>
     <use style="fill:#64b5cd;stroke:#64b5cd;" x="577.256117" xlink:href="#m9694752a55" y="340.363051"/>
     <use style="fill:#64b5cd;stroke:#64b5cd;" x="346.531068" xlink:href="#m9694752a55" y="432.016121"/>
     <use style="fill:#64b5cd;stroke:#64b5cd;" x="403.003875" xlink:href="#m9694752a55" y="428.028869"/>
     <use style="fill:#64b5cd;stroke:#64b5cd;" x="698.062267" xlink:href="#m9694752a55" y="308.339368"/>
     <use style="fill:#64b5cd;stroke:#64b5cd;" x="277.770521" xlink:href="#m9694752a55" y="487.648701"/>
     <use style="fill:#64b5cd;stroke:#64b5cd;" x="582.442914" xlink:href="#m9694752a55" y="370.260668"/>
     <use style="fill:#64b5cd;stroke:#64b5cd;" x="955.844507" xlink:href="#m9694752a55" y="197.738254"/>
     <use style="fill:#64b5cd;stroke:#64b5cd;" x="449.046795" xlink:href="#m9694752a55" y="395.018741"/>
     <use style="fill:#64b5cd;stroke:#64b5cd;" x="343.2319" xlink:href="#m9694752a55" y="420.954823"/>
     <use style="fill:#64b5cd;stroke:#64b5cd;" x="780.258317" xlink:href="#m9694752a55" y="287.597289"/>
     <use style="fill:#64b5cd;stroke:#64b5cd;" x="567.978082" xlink:href="#m9694752a55" y="362.547222"/>
     <use style="fill:#64b5cd;stroke:#64b5cd;" x="606.570959" xlink:href="#m9694752a55" y="354.768093"/>
     <use style="fill:#64b5cd;stroke:#64b5cd;" x="335.13509" xlink:href="#m9694752a55" y="437.124588"/>
     <use style="fill:#64b5cd;stroke:#64b5cd;" x="629.565558" xlink:href="#m9694752a55" y="305.355625"/>
     <use style="fill:#64b5cd;stroke:#64b5cd;" x="297.432628" xlink:href="#m9694752a55" y="427.990457"/>
     <use style="fill:#64b5cd;stroke:#64b5cd;" x="908.540358" xlink:href="#m9694752a55" y="220.832885"/>
     <use style="fill:#64b5cd;stroke:#64b5cd;" x="801.652968" xlink:href="#m9694752a55" y="247.506602"/>
     <use style="fill:#64b5cd;stroke:#64b5cd;" x="462.17554" xlink:href="#m9694752a55" y="435.023483"/>
     <use style="fill:#64b5cd;stroke:#64b5cd;" x="525.623093" xlink:href="#m9694752a55" y="373.876195"/>
     <use style="fill:#64b5cd;stroke:#64b5cd;" x="904.059776" xlink:href="#m9694752a55" y="237.710841"/>
     <use style="fill:#64b5cd;stroke:#64b5cd;" x="349.760731" xlink:href="#m9694752a55" y="422.357998"/>
     <use style="fill:#64b5cd;stroke:#64b5cd;" x="674.253755" xlink:href="#m9694752a55" y="325.131031"/>
     <use style="fill:#64b5cd;stroke:#64b5cd;" x="975.370154" xlink:href="#m9694752a55" y="201.304015"/>
     <use style="fill:#64b5cd;stroke:#64b5cd;" x="147.906849" xlink:href="#m9694752a55" y="521.258131"/>
     <use style="fill:#64b5cd;stroke:#64b5cd;" x="548.714283" xlink:href="#m9694752a55" y="366.700132"/>
     <use style="fill:#64b5cd;stroke:#64b5cd;" x="622.098455" xlink:href="#m9694752a55" y="353.663542"/>
     <use style="fill:#64b5cd;stroke:#64b5cd;" x="909.063014" xlink:href="#m9694752a55" y="246.67447"/>
     <use style="fill:#64b5cd;stroke:#64b5cd;" x="389.573386" xlink:href="#m9694752a55" y="417.976048"/>
     <use style="fill:#64b5cd;stroke:#64b5cd;" x="459.673425" xlink:href="#m9694752a55" y="381.853038"/>
     <use style="fill:#64b5cd;stroke:#64b5cd;" x="441.424658" xlink:href="#m9694752a55" y="375.325273"/>
     <use style="fill:#64b5cd;stroke:#64b5cd;" x="626.136741" xlink:href="#m9694752a55" y="381.007155"/>
     <use style="fill:#64b5cd;stroke:#64b5cd;" x="534.305626" xlink:href="#m9694752a55" y="375.30581"/>
     <use style="fill:#64b5cd;stroke:#64b5cd;" x="401.852055" xlink:href="#m9694752a55" y="427.14412"/>
     <use style="fill:#64b5cd;stroke:#64b5cd;" x="745.676085" xlink:href="#m9694752a55" y="296.261971"/>
     <use style="fill:#64b5cd;stroke:#64b5cd;" x="744.944458" xlink:href="#m9694752a55" y="282.094435"/>
     <use style="fill:#64b5cd;stroke:#64b5cd;" x="583.623843" xlink:href="#m9694752a55" y="356.459786"/>
     <use style="fill:#64b5cd;stroke:#64b5cd;" x="686.982194" xlink:href="#m9694752a55" y="360.363801"/>
     <use style="fill:#64b5cd;stroke:#64b5cd;" x="433.414475" xlink:href="#m9694752a55" y="412.145187"/>
     <use style="fill:#64b5cd;stroke:#64b5cd;" x="716.238517" xlink:href="#m9694752a55" y="309.263656"/>
     <use style="fill:#64b5cd;stroke:#64b5cd;" x="770.171787" xlink:href="#m9694752a55" y="254.484023"/>
     <use style="fill:#64b5cd;stroke:#64b5cd;" x="552.627499" xlink:href="#m9694752a55" y="364.685081"/>
     <use style="fill:#64b5cd;stroke:#64b5cd;" x="156.240781" xlink:href="#m9694752a55" y="527.950217"/>
     <use style="fill:#64b5cd;stroke:#64b5cd;" x="481.551781" xlink:href="#m9694752a55" y="372.232069"/>
     <use style="fill:#64b5cd;stroke:#64b5cd;" x="906.269711" xlink:href="#m9694752a55" y="240.095371"/>
     <use style="fill:#64b5cd;stroke:#64b5cd;" x="373.527397" xlink:href="#m9694752a55" y="420.189259"/>
     <use style="fill:#64b5cd;stroke:#64b5cd;" x="787.190771" xlink:href="#m9694752a55" y="277.74593"/>
     <use style="fill:#64b5cd;stroke:#64b5cd;" x="873.278539" xlink:href="#m9694752a55" y="244.0719"/>
     <use style="fill:#64b5cd;stroke:#64b5cd;" x="638.281121" xlink:href="#m9694752a55" y="305.445347"/>
     <use style="fill:#64b5cd;stroke:#64b5cd;" x="709.167818" xlink:href="#m9694752a55" y="298.065908"/>
     <use style="fill:#64b5cd;stroke:#64b5cd;" x="935.837976" xlink:href="#m9694752a55" y="214.640855"/>
     <use style="fill:#64b5cd;stroke:#64b5cd;" x="144" xlink:href="#m9694752a55" y="523.245915"/>
     <use style="fill:#64b5cd;stroke:#64b5cd;" x="147.906849" xlink:href="#m9694752a55" y="546.487473"/>
     <use style="fill:#64b5cd;stroke:#64b5cd;" x="640" xlink:href="#m9694752a55" y="377.947413"/>
     <use style="fill:#64b5cd;stroke:#64b5cd;" x="582.486382" xlink:href="#m9694752a55" y="356.768161"/>
     <use style="fill:#64b5cd;stroke:#64b5cd;" x="614.384658" xlink:href="#m9694752a55" y="329.040075"/>
     <use style="fill:#64b5cd;stroke:#64b5cd;" x="735.887671" xlink:href="#m9694752a55" y="306.160528"/>
     <use style="fill:#64b5cd;stroke:#64b5cd;" x="817.398755" xlink:href="#m9694752a55" y="270.564916"/>
     <use style="fill:#64b5cd;stroke:#64b5cd;" x="183.068493" xlink:href="#m9694752a55" y="466.841101"/>
     <use style="fill:#64b5cd;stroke:#64b5cd;" x="786.779524" xlink:href="#m9694752a55" y="269.962885"/>
     <use style="fill:#64b5cd;stroke:#64b5cd;" x="517.601942" xlink:href="#m9694752a55" y="358.540021"/>
     <use style="fill:#64b5cd;stroke:#64b5cd;" x="801.771357" xlink:href="#m9694752a55" y="275.941002"/>
     <use style="fill:#64b5cd;stroke:#64b5cd;" x="383.219389" xlink:href="#m9694752a55" y="438.833627"/>
     <use style="fill:#64b5cd;stroke:#64b5cd;" x="439.307756" xlink:href="#m9694752a55" y="416.836779"/>
     <use style="fill:#64b5cd;stroke:#64b5cd;" x="973.088833" xlink:href="#m9694752a55" y="177.74478"/>
     <use style="fill:#64b5cd;stroke:#64b5cd;" x="832.855671" xlink:href="#m9694752a55" y="312.20134"/>
     <use style="fill:#64b5cd;stroke:#64b5cd;" x="676.581699" xlink:href="#m9694752a55" y="365.542916"/>
     <use style="fill:#64b5cd;stroke:#64b5cd;" x="597.194521" xlink:href="#m9694752a55" y="319.623718"/>
     <use style="fill:#64b5cd;stroke:#64b5cd;" x="823.791781" xlink:href="#m9694752a55" y="284.481134"/>
     <use style="fill:#64b5cd;stroke:#64b5cd;" x="986.520548" xlink:href="#m9694752a55" y="205.73898"/>
     <use style="fill:#64b5cd;stroke:#64b5cd;" x="894.115068" xlink:href="#m9694752a55" y="247.554342"/>
    </g>
   </g>
   <g id="line2d_15">
    <defs>
     <path d="M 0 3 
C 0.795609 3 1.55874 2.683901 2.12132 2.12132 
C 2.683901 1.55874 3 0.795609 3 0 
C 3 -0.795609 2.683901 -1.55874 2.12132 -2.12132 
C 1.55874 -2.683901 0.795609 -3 0 -3 
C -0.795609 -3 -1.55874 -2.683901 -2.12132 -2.12132 
C -2.683901 -1.55874 -3 -0.795609 -3 0 
C -3 0.795609 -2.683901 1.55874 -2.12132 2.12132 
C -1.55874 2.683901 -0.795609 3 0 3 
z
" id="m62a21d45b7" style="stroke:#8172b3;"/>
    </defs>
    <g clip-path="url(#p6be6bd0cb5)">
     <use style="fill:#8172b3;stroke:#8172b3;" x="494.906102" xlink:href="#m62a21d45b7" y="411.934231"/>
     <use style="fill:#8172b3;stroke:#8172b3;" x="534.684932" xlink:href="#m62a21d45b7" y="372.40982"/>
     <use style="fill:#8172b3;stroke:#8172b3;" x="879.026547" xlink:href="#m62a21d45b7" y="227.000956"/>
     <use style="fill:#8172b3;stroke:#8172b3;" x="284.646575" xlink:href="#m62a21d45b7" y="402.766566"/>
     <use style="fill:#8172b3;stroke:#8172b3;" x="309.765667" xlink:href="#m62a21d45b7" y="431.038028"/>
     <use style="fill:#8172b3;stroke:#8172b3;" x="782.490802" xlink:href="#m62a21d45b7" y="268.989469"/>
     <use style="fill:#8172b3;stroke:#8172b3;" x="830.303196" xlink:href="#m62a21d45b7" y="300.198291"/>
     <use style="fill:#8172b3;stroke:#8172b3;" x="272.144658" xlink:href="#m62a21d45b7" y="456.82411"/>
     <use style="fill:#8172b3;stroke:#8172b3;" x="525.894521" xlink:href="#m62a21d45b7" y="341.370861"/>
     <use style="fill:#8172b3;stroke:#8172b3;" x="810.596033" xlink:href="#m62a21d45b7" y="250.896799"/>
     <use style="fill:#8172b3;stroke:#8172b3;" x="621.620184" xlink:href="#m62a21d45b7" y="374.143841"/>
     <use style="fill:#8172b3;stroke:#8172b3;" x="633.658447" xlink:href="#m62a21d45b7" y="339.779037"/>
     <use style="fill:#8172b3;stroke:#8172b3;" x="475.896151" xlink:href="#m62a21d45b7" y="374.050594"/>
     <use style="fill:#8172b3;stroke:#8172b3;" x="561.677709" xlink:href="#m62a21d45b7" y="370.593602"/>
     <use style="fill:#8172b3;stroke:#8172b3;" x="608.292237" xlink:href="#m62a21d45b7" y="345.63537"/>
     <use style="fill:#8172b3;stroke:#8172b3;" x="983.617435" xlink:href="#m62a21d45b7" y="216.734313"/>
     <use style="fill:#8172b3;stroke:#8172b3;" x="326.67448" xlink:href="#m62a21d45b7" y="442.297037"/>
     <use style="fill:#8172b3;stroke:#8172b3;" x="668.228144" xlink:href="#m62a21d45b7" y="313.111197"/>
     <use style="fill:#8172b3;stroke:#8172b3;" x="774.512666" xlink:href="#m62a21d45b7" y="357.214031"/>
     <use style="fill:#8172b3;stroke:#8172b3;" x="666.787031" xlink:href="#m62a21d45b7" y="318.788225"/>
     <use style="fill:#8172b3;stroke:#8172b3;" x="725.339178" xlink:href="#m62a21d45b7" y="311.421837"/>
     <use style="fill:#8172b3;stroke:#8172b3;" x="745.944191" xlink:href="#m62a21d45b7" y="349.514616"/>
     <use style="fill:#8172b3;stroke:#8172b3;" x="697.534789" xlink:href="#m62a21d45b7" y="345.251858"/>
     <use style="fill:#8172b3;stroke:#8172b3;" x="337.044319" xlink:href="#m62a21d45b7" y="447.617275"/>
     <use style="fill:#8172b3;stroke:#8172b3;" x="380.643444" xlink:href="#m62a21d45b7" y="423.384417"/>
     <use style="fill:#8172b3;stroke:#8172b3;" x="765.30743" xlink:href="#m62a21d45b7" y="264.308757"/>
     <use style="fill:#8172b3;stroke:#8172b3;" x="651.890411" xlink:href="#m62a21d45b7" y="339.732294"/>
     <use style="fill:#8172b3;stroke:#8172b3;" x="168.261713" xlink:href="#m62a21d45b7" y="460.824793"/>
     <use style="fill:#8172b3;stroke:#8172b3;" x="394.038356" xlink:href="#m62a21d45b7" y="406.528817"/>
     <use style="fill:#8172b3;stroke:#8172b3;" x="403.299036" xlink:href="#m62a21d45b7" y="386.738928"/>
     <use style="fill:#8172b3;stroke:#8172b3;" x="411.541041" xlink:href="#m62a21d45b7" y="438.099115"/>
     <use style="fill:#8172b3;stroke:#8172b3;" x="552.262918" xlink:href="#m62a21d45b7" y="367.583153"/>
     <use style="fill:#8172b3;stroke:#8172b3;" x="183.778829" xlink:href="#m62a21d45b7" y="532.674743"/>
     <use style="fill:#8172b3;stroke:#8172b3;" x="657.299895" xlink:href="#m62a21d45b7" y="342.477969"/>
     <use style="fill:#8172b3;stroke:#8172b3;" x="312.77589" xlink:href="#m62a21d45b7" y="454.433708"/>
     <use style="fill:#8172b3;stroke:#8172b3;" x="736.632347" xlink:href="#m62a21d45b7" y="303.737109"/>
     <use style="fill:#8172b3;stroke:#8172b3;" x="465.808625" xlink:href="#m62a21d45b7" y="393.194364"/>
     <use style="fill:#8172b3;stroke:#8172b3;" x="632.561788" xlink:href="#m62a21d45b7" y="333.679842"/>
     <use style="fill:#8172b3;stroke:#8172b3;" x="498.607761" xlink:href="#m62a21d45b7" y="332.719528"/>
     <use style="fill:#8172b3;stroke:#8172b3;" x="417.479452" xlink:href="#m62a21d45b7" y="372.79995"/>
     <use style="fill:#8172b3;stroke:#8172b3;" x="431.081076" xlink:href="#m62a21d45b7" y="399.643717"/>
     <use style="fill:#8172b3;stroke:#8172b3;" x="694.084384" xlink:href="#m62a21d45b7" y="324.239943"/>
     <use style="fill:#8172b3;stroke:#8172b3;" x="272.926027" xlink:href="#m62a21d45b7" y="427.817657"/>
     <use style="fill:#8172b3;stroke:#8172b3;" x="457.850228" xlink:href="#m62a21d45b7" y="407.435175"/>
     <use style="fill:#8172b3;stroke:#8172b3;" x="795.912134" xlink:href="#m62a21d45b7" y="290.389402"/>
     <use style="fill:#8172b3;stroke:#8172b3;" x="305.844715" xlink:href="#m62a21d45b7" y="425.745639"/>
     <use style="fill:#8172b3;stroke:#8172b3;" x="371.534904" xlink:href="#m62a21d45b7" y="435.887717"/>
     <use style="fill:#8172b3;stroke:#8172b3;" x="423.060665" xlink:href="#m62a21d45b7" y="398.60782"/>
     <use style="fill:#8172b3;stroke:#8172b3;" x="346.652055" xlink:href="#m62a21d45b7" y="436.776326"/>
     <use style="fill:#8172b3;stroke:#8172b3;" x="332.94944" xlink:href="#m62a21d45b7" y="431.248853"/>
    </g>
   </g>
   <g id="patch_3">
    <path d="M 144 630 
L 144 86.4 
" style="fill:none;stroke:#cccccc;stroke-linecap:square;stroke-linejoin:miter;stroke-width:1.25;"/>
   </g>
   <g id="patch_4">
    <path d="M 1036.8 630 
L 1036.8 86.4 
" style="fill:none;stroke:#cccccc;stroke-linecap:square;stroke-linejoin:miter;stroke-width:1.25;"/>
   </g>
   <g id="patch_5">
    <path d="M 144 630 
L 1036.8 630 
" style="fill:none;stroke:#cccccc;stroke-linecap:square;stroke-linejoin:miter;stroke-width:1.25;"/>
   </g>
   <g id="patch_6">
    <path d="M 144 86.4 
L 1036.8 86.4 
" style="fill:none;stroke:#cccccc;stroke-linecap:square;stroke-linejoin:miter;stroke-width:1.25;"/>
   </g>
  </g>
 </g>
 <defs>
  <clipPath id="p6be6bd0cb5">
   <rect height="543.6" width="892.8" x="144" y="86.4"/>
  </clipPath>
 </defs>
</svg>
