<?xml version="1.0" encoding="utf-8" standalone="no"?>
<!DOCTYPE svg PUBLIC "-//W3C//DTD SVG 1.1//EN"
  "http://www.w3.org/Graphics/SVG/1.1/DTD/svg11.dtd">
<!-- Created with matplotlib (https://matplotlib.org/) -->
<svg height="288pt" version="1.1" viewBox="0 0 432 288" width="432pt" xmlns="http://www.w3.org/2000/svg" xmlns:xlink="http://www.w3.org/1999/xlink">
 <defs>
  <style type="text/css">
*{stroke-linecap:butt;stroke-linejoin:round;}
  </style>
 </defs>
 <g id="figure_1">
  <g id="patch_1">
   <path d="M 0 288 
L 432 288 
L 432 0 
L 0 0 
z
" style="fill:#ffffff;"/>
  </g>
  <g id="axes_1">
   <g id="patch_2">
    <path d="M 54 252 
L 388.8 252 
L 388.8 34.56 
L 54 34.56 
z
" style="fill:#ffffff;"/>
   </g>
   <g id="matplotlib.axis_1">
    <g id="xtick_1">
     <g id="line2d_1">
      <path clip-path="url(#p443bb315f6)" d="M 67.007914 252 
L 67.007914 34.56 
" style="fill:none;stroke:#cccccc;stroke-linecap:round;"/>
     </g>
     <g id="text_1">
      <!-- −4 -->
      <defs>
       <path d="M 52.828125 31.203125 
L 5.5625 31.203125 
L 5.5625 39.40625 
L 52.828125 39.40625 
z
" id="ArialMT-8722"/>
       <path d="M 32.328125 0 
L 32.328125 17.140625 
L 1.265625 17.140625 
L 1.265625 25.203125 
L 33.9375 71.578125 
L 41.109375 71.578125 
L 41.109375 25.203125 
L 50.78125 25.203125 
L 50.78125 17.140625 
L 41.109375 17.140625 
L 41.109375 0 
z
M 32.328125 25.203125 
L 32.328125 57.46875 
L 9.90625 25.203125 
z
" id="ArialMT-52"/>
      </defs>
      <g style="fill:#262626;" transform="translate(54.466195 277.247187)scale(0.22 -0.22)">
       <use xlink:href="#ArialMT-8722"/>
       <use x="58.398438" xlink:href="#ArialMT-52"/>
      </g>
     </g>
    </g>
    <g id="xtick_2">
     <g id="line2d_2">
      <path clip-path="url(#p443bb315f6)" d="M 152.10589 252 
L 152.10589 34.56 
" style="fill:none;stroke:#cccccc;stroke-linecap:round;"/>
     </g>
     <g id="text_2">
      <!-- −2 -->
      <defs>
       <path d="M 50.34375 8.453125 
L 50.34375 0 
L 3.03125 0 
Q 2.9375 3.171875 4.046875 6.109375 
Q 5.859375 10.9375 9.828125 15.625 
Q 13.8125 20.3125 21.34375 26.46875 
Q 33.015625 36.03125 37.109375 41.625 
Q 41.21875 47.21875 41.21875 52.203125 
Q 41.21875 57.421875 37.46875 61 
Q 33.734375 64.59375 27.734375 64.59375 
Q 21.390625 64.59375 17.578125 60.78125 
Q 13.765625 56.984375 13.71875 50.25 
L 4.6875 51.171875 
Q 5.609375 61.28125 11.65625 66.578125 
Q 17.71875 71.875 27.9375 71.875 
Q 38.234375 71.875 44.234375 66.15625 
Q 50.25 60.453125 50.25 52 
Q 50.25 47.703125 48.484375 43.546875 
Q 46.734375 39.40625 42.65625 34.8125 
Q 38.578125 30.21875 29.109375 22.21875 
Q 21.1875 15.578125 18.9375 13.203125 
Q 16.703125 10.84375 15.234375 8.453125 
z
" id="ArialMT-50"/>
      </defs>
      <g style="fill:#262626;" transform="translate(139.564172 277.247187)scale(0.22 -0.22)">
       <use xlink:href="#ArialMT-8722"/>
       <use x="58.398438" xlink:href="#ArialMT-50"/>
      </g>
     </g>
    </g>
    <g id="xtick_3">
     <g id="line2d_3">
      <path clip-path="url(#p443bb315f6)" d="M 237.203867 252 
L 237.203867 34.56 
" style="fill:none;stroke:#cccccc;stroke-linecap:round;"/>
     </g>
     <g id="text_3">
      <!-- 0 -->
      <defs>
       <path d="M 4.15625 35.296875 
Q 4.15625 48 6.765625 55.734375 
Q 9.375 63.484375 14.515625 67.671875 
Q 19.671875 71.875 27.484375 71.875 
Q 33.25 71.875 37.59375 69.546875 
Q 41.9375 67.234375 44.765625 62.859375 
Q 47.609375 58.5 49.21875 52.21875 
Q 50.828125 45.953125 50.828125 35.296875 
Q 50.828125 22.703125 48.234375 14.96875 
Q 45.65625 7.234375 40.5 3 
Q 35.359375 -1.21875 27.484375 -1.21875 
Q 17.140625 -1.21875 11.234375 6.203125 
Q 4.15625 15.140625 4.15625 35.296875 
z
M 13.1875 35.296875 
Q 13.1875 17.671875 17.3125 11.828125 
Q 21.4375 6 27.484375 6 
Q 33.546875 6 37.671875 11.859375 
Q 41.796875 17.71875 41.796875 35.296875 
Q 41.796875 52.984375 37.671875 58.78125 
Q 33.546875 64.59375 27.390625 64.59375 
Q 21.34375 64.59375 17.71875 59.46875 
Q 13.1875 52.9375 13.1875 35.296875 
z
" id="ArialMT-48"/>
      </defs>
      <g style="fill:#262626;" transform="translate(231.086835 277.247187)scale(0.22 -0.22)">
       <use xlink:href="#ArialMT-48"/>
      </g>
     </g>
    </g>
    <g id="xtick_4">
     <g id="line2d_4">
      <path clip-path="url(#p443bb315f6)" d="M 322.301843 252 
L 322.301843 34.56 
" style="fill:none;stroke:#cccccc;stroke-linecap:round;"/>
     </g>
     <g id="text_4">
      <!-- 2 -->
      <g style="fill:#262626;" transform="translate(316.184812 277.247187)scale(0.22 -0.22)">
       <use xlink:href="#ArialMT-50"/>
      </g>
     </g>
    </g>
    <g id="text_5">
     <!-- Yerr_normalized -->
     <defs>
      <path d="M 27.875 0 
L 27.875 30.328125 
L 0.296875 71.578125 
L 11.8125 71.578125 
L 25.921875 50 
Q 29.828125 43.953125 33.203125 37.890625 
Q 36.421875 43.5 41.015625 50.53125 
L 54.890625 71.578125 
L 65.921875 71.578125 
L 37.359375 30.328125 
L 37.359375 0 
z
" id="ArialMT-89"/>
      <path d="M 42.09375 16.703125 
L 51.171875 15.578125 
Q 49.03125 7.625 43.21875 3.21875 
Q 37.40625 -1.171875 28.375 -1.171875 
Q 17 -1.171875 10.328125 5.828125 
Q 3.65625 12.84375 3.65625 25.484375 
Q 3.65625 38.578125 10.390625 45.796875 
Q 17.140625 53.03125 27.875 53.03125 
Q 38.28125 53.03125 44.875 45.953125 
Q 51.46875 38.875 51.46875 26.03125 
Q 51.46875 25.25 51.421875 23.6875 
L 12.75 23.6875 
Q 13.234375 15.140625 17.578125 10.59375 
Q 21.921875 6.0625 28.421875 6.0625 
Q 33.25 6.0625 36.671875 8.59375 
Q 40.09375 11.140625 42.09375 16.703125 
z
M 13.234375 30.90625 
L 42.1875 30.90625 
Q 41.609375 37.453125 38.875 40.71875 
Q 34.671875 45.796875 27.984375 45.796875 
Q 21.921875 45.796875 17.796875 41.75 
Q 13.671875 37.703125 13.234375 30.90625 
z
" id="ArialMT-101"/>
      <path d="M 6.5 0 
L 6.5 51.859375 
L 14.40625 51.859375 
L 14.40625 44 
Q 17.4375 49.515625 20 51.265625 
Q 22.5625 53.03125 25.640625 53.03125 
Q 30.078125 53.03125 34.671875 50.203125 
L 31.640625 42.046875 
Q 28.421875 43.953125 25.203125 43.953125 
Q 22.3125 43.953125 20.015625 42.21875 
Q 17.71875 40.484375 16.75 37.40625 
Q 15.28125 32.71875 15.28125 27.15625 
L 15.28125 0 
z
" id="ArialMT-114"/>
      <path d="M -1.515625 -19.875 
L -1.515625 -13.53125 
L 56.734375 -13.53125 
L 56.734375 -19.875 
z
" id="ArialMT-95"/>
      <path d="M 6.59375 0 
L 6.59375 51.859375 
L 14.5 51.859375 
L 14.5 44.484375 
Q 20.21875 53.03125 31 53.03125 
Q 35.6875 53.03125 39.625 51.34375 
Q 43.5625 49.65625 45.515625 46.921875 
Q 47.46875 44.1875 48.25 40.4375 
Q 48.734375 37.984375 48.734375 31.890625 
L 48.734375 0 
L 39.9375 0 
L 39.9375 31.546875 
Q 39.9375 36.921875 38.90625 39.578125 
Q 37.890625 42.234375 35.28125 43.8125 
Q 32.671875 45.40625 29.15625 45.40625 
Q 23.53125 45.40625 19.453125 41.84375 
Q 15.375 38.28125 15.375 28.328125 
L 15.375 0 
z
" id="ArialMT-110"/>
      <path d="M 3.328125 25.921875 
Q 3.328125 40.328125 11.328125 47.265625 
Q 18.015625 53.03125 27.640625 53.03125 
Q 38.328125 53.03125 45.109375 46.015625 
Q 51.90625 39.015625 51.90625 26.65625 
Q 51.90625 16.65625 48.90625 10.90625 
Q 45.90625 5.171875 40.15625 2 
Q 34.421875 -1.171875 27.640625 -1.171875 
Q 16.75 -1.171875 10.03125 5.8125 
Q 3.328125 12.796875 3.328125 25.921875 
z
M 12.359375 25.921875 
Q 12.359375 15.96875 16.703125 11.015625 
Q 21.046875 6.0625 27.640625 6.0625 
Q 34.1875 6.0625 38.53125 11.03125 
Q 42.875 16.015625 42.875 26.21875 
Q 42.875 35.84375 38.5 40.796875 
Q 34.125 45.75 27.640625 45.75 
Q 21.046875 45.75 16.703125 40.8125 
Q 12.359375 35.890625 12.359375 25.921875 
z
" id="ArialMT-111"/>
      <path d="M 6.59375 0 
L 6.59375 51.859375 
L 14.453125 51.859375 
L 14.453125 44.578125 
Q 16.890625 48.390625 20.9375 50.703125 
Q 25 53.03125 30.171875 53.03125 
Q 35.9375 53.03125 39.625 50.640625 
Q 43.3125 48.25 44.828125 43.953125 
Q 50.984375 53.03125 60.84375 53.03125 
Q 68.5625 53.03125 72.703125 48.75 
Q 76.859375 44.484375 76.859375 35.59375 
L 76.859375 0 
L 68.109375 0 
L 68.109375 32.671875 
Q 68.109375 37.9375 67.25 40.25 
Q 66.40625 42.578125 64.15625 43.984375 
Q 61.921875 45.40625 58.890625 45.40625 
Q 53.421875 45.40625 49.796875 41.765625 
Q 46.1875 38.140625 46.1875 30.125 
L 46.1875 0 
L 37.40625 0 
L 37.40625 33.6875 
Q 37.40625 39.546875 35.25 42.46875 
Q 33.109375 45.40625 28.21875 45.40625 
Q 24.515625 45.40625 21.359375 43.453125 
Q 18.21875 41.5 16.796875 37.734375 
Q 15.375 33.984375 15.375 26.90625 
L 15.375 0 
z
" id="ArialMT-109"/>
      <path d="M 40.4375 6.390625 
Q 35.546875 2.25 31.03125 0.53125 
Q 26.515625 -1.171875 21.34375 -1.171875 
Q 12.796875 -1.171875 8.203125 3 
Q 3.609375 7.171875 3.609375 13.671875 
Q 3.609375 17.484375 5.34375 20.625 
Q 7.078125 23.78125 9.890625 25.6875 
Q 12.703125 27.59375 16.21875 28.5625 
Q 18.796875 29.25 24.03125 29.890625 
Q 34.671875 31.15625 39.703125 32.90625 
Q 39.75 34.71875 39.75 35.203125 
Q 39.75 40.578125 37.25 42.78125 
Q 33.890625 45.75 27.25 45.75 
Q 21.046875 45.75 18.09375 43.578125 
Q 15.140625 41.40625 13.71875 35.890625 
L 5.125 37.0625 
Q 6.296875 42.578125 8.984375 45.96875 
Q 11.671875 49.359375 16.75 51.1875 
Q 21.828125 53.03125 28.515625 53.03125 
Q 35.15625 53.03125 39.296875 51.46875 
Q 43.453125 49.90625 45.40625 47.53125 
Q 47.359375 45.171875 48.140625 41.546875 
Q 48.578125 39.3125 48.578125 33.453125 
L 48.578125 21.734375 
Q 48.578125 9.46875 49.140625 6.21875 
Q 49.703125 2.984375 51.375 0 
L 42.1875 0 
Q 40.828125 2.734375 40.4375 6.390625 
z
M 39.703125 26.03125 
Q 34.90625 24.078125 25.34375 22.703125 
Q 19.921875 21.921875 17.671875 20.9375 
Q 15.4375 19.96875 14.203125 18.09375 
Q 12.984375 16.21875 12.984375 13.921875 
Q 12.984375 10.40625 15.640625 8.0625 
Q 18.3125 5.71875 23.4375 5.71875 
Q 28.515625 5.71875 32.46875 7.9375 
Q 36.421875 10.15625 38.28125 14.015625 
Q 39.703125 17 39.703125 22.796875 
z
" id="ArialMT-97"/>
      <path d="M 6.390625 0 
L 6.390625 71.578125 
L 15.1875 71.578125 
L 15.1875 0 
z
" id="ArialMT-108"/>
      <path d="M 6.640625 61.46875 
L 6.640625 71.578125 
L 15.4375 71.578125 
L 15.4375 61.46875 
z
M 6.640625 0 
L 6.640625 51.859375 
L 15.4375 51.859375 
L 15.4375 0 
z
" id="ArialMT-105"/>
      <path d="M 1.953125 0 
L 1.953125 7.125 
L 34.96875 45.015625 
Q 29.34375 44.734375 25.046875 44.734375 
L 3.90625 44.734375 
L 3.90625 51.859375 
L 46.296875 51.859375 
L 46.296875 46.046875 
L 18.21875 13.140625 
L 12.796875 7.125 
Q 18.703125 7.5625 23.875 7.5625 
L 47.859375 7.5625 
L 47.859375 0 
z
" id="ArialMT-122"/>
      <path d="M 40.234375 0 
L 40.234375 6.546875 
Q 35.296875 -1.171875 25.734375 -1.171875 
Q 19.53125 -1.171875 14.328125 2.25 
Q 9.125 5.671875 6.265625 11.796875 
Q 3.421875 17.921875 3.421875 25.875 
Q 3.421875 33.640625 6 39.96875 
Q 8.59375 46.296875 13.765625 49.65625 
Q 18.953125 53.03125 25.34375 53.03125 
Q 30.03125 53.03125 33.6875 51.046875 
Q 37.359375 49.078125 39.65625 45.90625 
L 39.65625 71.578125 
L 48.390625 71.578125 
L 48.390625 0 
z
M 12.453125 25.875 
Q 12.453125 15.921875 16.640625 10.984375 
Q 20.84375 6.0625 26.5625 6.0625 
Q 32.328125 6.0625 36.34375 10.765625 
Q 40.375 15.484375 40.375 25.140625 
Q 40.375 35.796875 36.265625 40.765625 
Q 32.171875 45.75 26.171875 45.75 
Q 20.3125 45.75 16.375 40.96875 
Q 12.453125 36.1875 12.453125 25.875 
z
" id="ArialMT-100"/>
     </defs>
     <g style="fill:#262626;" transform="translate(133.385625 302.798437)scale(0.24 -0.24)">
      <use xlink:href="#ArialMT-89"/>
      <use x="66.558594" xlink:href="#ArialMT-101"/>
      <use x="122.173828" xlink:href="#ArialMT-114"/>
      <use x="155.474609" xlink:href="#ArialMT-114"/>
      <use x="188.775391" xlink:href="#ArialMT-95"/>
      <use x="244.390625" xlink:href="#ArialMT-110"/>
      <use x="300.005859" xlink:href="#ArialMT-111"/>
      <use x="355.621094" xlink:href="#ArialMT-114"/>
      <use x="388.921875" xlink:href="#ArialMT-109"/>
      <use x="472.222656" xlink:href="#ArialMT-97"/>
      <use x="527.837891" xlink:href="#ArialMT-108"/>
      <use x="550.054688" xlink:href="#ArialMT-105"/>
      <use x="572.271484" xlink:href="#ArialMT-122"/>
      <use x="622.271484" xlink:href="#ArialMT-101"/>
      <use x="677.886719" xlink:href="#ArialMT-100"/>
     </g>
    </g>
   </g>
   <g id="matplotlib.axis_2">
    <g id="ytick_1">
     <g id="line2d_5">
      <path clip-path="url(#p443bb315f6)" d="M 54 252 
L 388.8 252 
" style="fill:none;stroke:#cccccc;stroke-linecap:round;"/>
     </g>
     <g id="text_6">
      <!-- 0.0 -->
      <defs>
       <path d="M 9.078125 0 
L 9.078125 10.015625 
L 19.09375 10.015625 
L 19.09375 0 
z
" id="ArialMT-46"/>
      </defs>
      <g style="fill:#262626;" transform="translate(13.92 259.873594)scale(0.22 -0.22)">
       <use xlink:href="#ArialMT-48"/>
       <use x="55.615234" xlink:href="#ArialMT-46"/>
       <use x="83.398438" xlink:href="#ArialMT-48"/>
      </g>
     </g>
    </g>
    <g id="ytick_2">
     <g id="line2d_6">
      <path clip-path="url(#p443bb315f6)" d="M 54 149.603942 
L 388.8 149.603942 
" style="fill:none;stroke:#cccccc;stroke-linecap:round;"/>
     </g>
     <g id="text_7">
      <!-- 0.2 -->
      <g style="fill:#262626;" transform="translate(13.92 157.477536)scale(0.22 -0.22)">
       <use xlink:href="#ArialMT-48"/>
       <use x="55.615234" xlink:href="#ArialMT-46"/>
       <use x="83.398438" xlink:href="#ArialMT-50"/>
      </g>
     </g>
    </g>
    <g id="ytick_3">
     <g id="line2d_7">
      <path clip-path="url(#p443bb315f6)" d="M 54 47.207884 
L 388.8 47.207884 
" style="fill:none;stroke:#cccccc;stroke-linecap:round;"/>
     </g>
     <g id="text_8">
      <!-- 0.4 -->
      <g style="fill:#262626;" transform="translate(13.92 55.081478)scale(0.22 -0.22)">
       <use xlink:href="#ArialMT-48"/>
       <use x="55.615234" xlink:href="#ArialMT-46"/>
       <use x="83.398438" xlink:href="#ArialMT-52"/>
      </g>
     </g>
    </g>
   </g>
   <g id="patch_3">
    <path clip-path="url(#p443bb315f6)" d="M 114.101782 252 
L 131.984818 252 
L 131.984818 245.909244 
L 114.101782 245.909244 
z
" style="fill:#4c72b0;opacity:0.4;stroke:#ffffff;stroke-linejoin:miter;"/>
   </g>
   <g id="patch_4">
    <path clip-path="url(#p443bb315f6)" d="M 131.984818 252 
L 149.867854 252 
L 149.867854 221.546218 
L 131.984818 221.546218 
z
" style="fill:#4c72b0;opacity:0.4;stroke:#ffffff;stroke-linejoin:miter;"/>
   </g>
   <g id="patch_5">
    <path clip-path="url(#p443bb315f6)" d="M 149.867854 252 
L 167.750891 252 
L 167.750891 191.092437 
L 149.867854 191.092437 
z
" style="fill:#4c72b0;opacity:0.4;stroke:#ffffff;stroke-linejoin:miter;"/>
   </g>
   <g id="patch_6">
    <path clip-path="url(#p443bb315f6)" d="M 167.750891 252 
L 185.633927 252 
L 185.633927 215.455462 
L 167.750891 215.455462 
z
" style="fill:#4c72b0;opacity:0.4;stroke:#ffffff;stroke-linejoin:miter;"/>
   </g>
   <g id="patch_7">
    <path clip-path="url(#p443bb315f6)" d="M 185.633927 252 
L 203.516964 252 
L 203.516964 148.457143 
L 185.633927 148.457143 
z
" style="fill:#4c72b0;opacity:0.4;stroke:#ffffff;stroke-linejoin:miter;"/>
   </g>
   <g id="patch_8">
    <path clip-path="url(#p443bb315f6)" d="M 203.516964 252 
L 221.4 252 
L 221.4 51.005042 
L 203.516964 51.005042 
z
" style="fill:#4c72b0;opacity:0.4;stroke:#ffffff;stroke-linejoin:miter;"/>
   </g>
   <g id="patch_9">
    <path clip-path="url(#p443bb315f6)" d="M 221.4 252 
L 239.283036 252 
L 239.283036 63.186555 
L 221.4 63.186555 
z
" style="fill:#4c72b0;opacity:0.4;stroke:#ffffff;stroke-linejoin:miter;"/>
   </g>
   <g id="patch_10">
    <path clip-path="url(#p443bb315f6)" d="M 239.283036 252 
L 257.166073 252 
L 257.166073 44.914286 
L 239.283036 44.914286 
z
" style="fill:#4c72b0;opacity:0.4;stroke:#ffffff;stroke-linejoin:miter;"/>
   </g>
   <g id="patch_11">
    <path clip-path="url(#p443bb315f6)" d="M 257.166073 252 
L 275.049109 252 
L 275.049109 75.368067 
L 257.166073 75.368067 
z
" style="fill:#4c72b0;opacity:0.4;stroke:#ffffff;stroke-linejoin:miter;"/>
   </g>
   <g id="patch_12">
    <path clip-path="url(#p443bb315f6)" d="M 275.049109 252 
L 292.932146 252 
L 292.932146 136.27563 
L 275.049109 136.27563 
z
" style="fill:#4c72b0;opacity:0.4;stroke:#ffffff;stroke-linejoin:miter;"/>
   </g>
   <g id="patch_13">
    <path clip-path="url(#p443bb315f6)" d="M 292.932146 252 
L 310.815182 252 
L 310.815182 203.27395 
L 292.932146 203.27395 
z
" style="fill:#4c72b0;opacity:0.4;stroke:#ffffff;stroke-linejoin:miter;"/>
   </g>
   <g id="patch_14">
    <path clip-path="url(#p443bb315f6)" d="M 310.815182 252 
L 328.698218 252 
L 328.698218 209.364706 
L 310.815182 209.364706 
z
" style="fill:#4c72b0;opacity:0.4;stroke:#ffffff;stroke-linejoin:miter;"/>
   </g>
   <g id="LineCollection_1">
    <path clip-path="url(#p443bb315f6)" d="M 252.951003 252 
L 252.951003 241.128 
" style="fill:none;stroke:#4c72b0;"/>
    <path clip-path="url(#p443bb315f6)" d="M 198.544146 252 
L 198.544146 241.128 
" style="fill:none;stroke:#4c72b0;"/>
    <path clip-path="url(#p443bb315f6)" d="M 241.212766 252 
L 241.212766 241.128 
" style="fill:none;stroke:#4c72b0;"/>
    <path clip-path="url(#p443bb315f6)" d="M 296.039876 252 
L 296.039876 241.128 
" style="fill:none;stroke:#4c72b0;"/>
    <path clip-path="url(#p443bb315f6)" d="M 280.610797 252 
L 280.610797 241.128 
" style="fill:none;stroke:#4c72b0;"/>
    <path clip-path="url(#p443bb315f6)" d="M 190.769392 252 
L 190.769392 241.128 
" style="fill:none;stroke:#4c72b0;"/>
    <path clip-path="url(#p443bb315f6)" d="M 246.303695 252 
L 246.303695 241.128 
" style="fill:none;stroke:#4c72b0;"/>
    <path clip-path="url(#p443bb315f6)" d="M 243.19532 252 
L 243.19532 241.128 
" style="fill:none;stroke:#4c72b0;"/>
    <path clip-path="url(#p443bb315f6)" d="M 215.151509 252 
L 215.151509 241.128 
" style="fill:none;stroke:#4c72b0;"/>
    <path clip-path="url(#p443bb315f6)" d="M 245.554755 252 
L 245.554755 241.128 
" style="fill:none;stroke:#4c72b0;"/>
    <path clip-path="url(#p443bb315f6)" d="M 270.425619 252 
L 270.425619 241.128 
" style="fill:none;stroke:#4c72b0;"/>
    <path clip-path="url(#p443bb315f6)" d="M 257.726854 252 
L 257.726854 241.128 
" style="fill:none;stroke:#4c72b0;"/>
    <path clip-path="url(#p443bb315f6)" d="M 216.469261 252 
L 216.469261 241.128 
" style="fill:none;stroke:#4c72b0;"/>
    <path clip-path="url(#p443bb315f6)" d="M 274.691836 252 
L 274.691836 241.128 
" style="fill:none;stroke:#4c72b0;"/>
    <path clip-path="url(#p443bb315f6)" d="M 267.917737 252 
L 267.917737 241.128 
" style="fill:none;stroke:#4c72b0;"/>
    <path clip-path="url(#p443bb315f6)" d="M 260.874099 252 
L 260.874099 241.128 
" style="fill:none;stroke:#4c72b0;"/>
    <path clip-path="url(#p443bb315f6)" d="M 217.263619 252 
L 217.263619 241.128 
" style="fill:none;stroke:#4c72b0;"/>
    <path clip-path="url(#p443bb315f6)" d="M 280.883923 252 
L 280.883923 241.128 
" style="fill:none;stroke:#4c72b0;"/>
    <path clip-path="url(#p443bb315f6)" d="M 135.105108 252 
L 135.105108 241.128 
" style="fill:none;stroke:#4c72b0;"/>
    <path clip-path="url(#p443bb315f6)" d="M 159.069974 252 
L 159.069974 241.128 
" style="fill:none;stroke:#4c72b0;"/>
    <path clip-path="url(#p443bb315f6)" d="M 321.927827 252 
L 321.927827 241.128 
" style="fill:none;stroke:#4c72b0;"/>
    <path clip-path="url(#p443bb315f6)" d="M 158.744187 252 
L 158.744187 241.128 
" style="fill:none;stroke:#4c72b0;"/>
    <path clip-path="url(#p443bb315f6)" d="M 316.448225 252 
L 316.448225 241.128 
" style="fill:none;stroke:#4c72b0;"/>
    <path clip-path="url(#p443bb315f6)" d="M 251.6921 252 
L 251.6921 241.128 
" style="fill:none;stroke:#4c72b0;"/>
    <path clip-path="url(#p443bb315f6)" d="M 306.941892 252 
L 306.941892 241.128 
" style="fill:none;stroke:#4c72b0;"/>
    <path clip-path="url(#p443bb315f6)" d="M 280.588587 252 
L 280.588587 241.128 
" style="fill:none;stroke:#4c72b0;"/>
    <path clip-path="url(#p443bb315f6)" d="M 239.776394 252 
L 239.776394 241.128 
" style="fill:none;stroke:#4c72b0;"/>
    <path clip-path="url(#p443bb315f6)" d="M 229.649311 252 
L 229.649311 241.128 
" style="fill:none;stroke:#4c72b0;"/>
    <path clip-path="url(#p443bb315f6)" d="M 270.697242 252 
L 270.697242 241.128 
" style="fill:none;stroke:#4c72b0;"/>
    <path clip-path="url(#p443bb315f6)" d="M 299.493446 252 
L 299.493446 241.128 
" style="fill:none;stroke:#4c72b0;"/>
    <path clip-path="url(#p443bb315f6)" d="M 211.598981 252 
L 211.598981 241.128 
" style="fill:none;stroke:#4c72b0;"/>
    <path clip-path="url(#p443bb315f6)" d="M 241.075651 252 
L 241.075651 241.128 
" style="fill:none;stroke:#4c72b0;"/>
    <path clip-path="url(#p443bb315f6)" d="M 159.24652 252 
L 159.24652 241.128 
" style="fill:none;stroke:#4c72b0;"/>
    <path clip-path="url(#p443bb315f6)" d="M 279.370604 252 
L 279.370604 241.128 
" style="fill:none;stroke:#4c72b0;"/>
    <path clip-path="url(#p443bb315f6)" d="M 253.998456 252 
L 253.998456 241.128 
" style="fill:none;stroke:#4c72b0;"/>
    <path clip-path="url(#p443bb315f6)" d="M 328.698218 252 
L 328.698218 241.128 
" style="fill:none;stroke:#4c72b0;"/>
    <path clip-path="url(#p443bb315f6)" d="M 245.812658 252 
L 245.812658 241.128 
" style="fill:none;stroke:#4c72b0;"/>
    <path clip-path="url(#p443bb315f6)" d="M 242.30574 252 
L 242.30574 241.128 
" style="fill:none;stroke:#4c72b0;"/>
    <path clip-path="url(#p443bb315f6)" d="M 250.331448 252 
L 250.331448 241.128 
" style="fill:none;stroke:#4c72b0;"/>
    <path clip-path="url(#p443bb315f6)" d="M 292.771868 252 
L 292.771868 241.128 
" style="fill:none;stroke:#4c72b0;"/>
    <path clip-path="url(#p443bb315f6)" d="M 197.70983 252 
L 197.70983 241.128 
" style="fill:none;stroke:#4c72b0;"/>
    <path clip-path="url(#p443bb315f6)" d="M 193.382413 252 
L 193.382413 241.128 
" style="fill:none;stroke:#4c72b0;"/>
    <path clip-path="url(#p443bb315f6)" d="M 242.572242 252 
L 242.572242 241.128 
" style="fill:none;stroke:#4c72b0;"/>
    <path clip-path="url(#p443bb315f6)" d="M 205.368796 252 
L 205.368796 241.128 
" style="fill:none;stroke:#4c72b0;"/>
    <path clip-path="url(#p443bb315f6)" d="M 161.889075 252 
L 161.889075 241.128 
" style="fill:none;stroke:#4c72b0;"/>
    <path clip-path="url(#p443bb315f6)" d="M 218.762329 252 
L 218.762329 241.128 
" style="fill:none;stroke:#4c72b0;"/>
    <path clip-path="url(#p443bb315f6)" d="M 242.419516 252 
L 242.419516 241.128 
" style="fill:none;stroke:#4c72b0;"/>
    <path clip-path="url(#p443bb315f6)" d="M 211.843695 252 
L 211.843695 241.128 
" style="fill:none;stroke:#4c72b0;"/>
    <path clip-path="url(#p443bb315f6)" d="M 272.087106 252 
L 272.087106 241.128 
" style="fill:none;stroke:#4c72b0;"/>
    <path clip-path="url(#p443bb315f6)" d="M 152.281678 252 
L 152.281678 241.128 
" style="fill:none;stroke:#4c72b0;"/>
    <path clip-path="url(#p443bb315f6)" d="M 206.261447 252 
L 206.261447 241.128 
" style="fill:none;stroke:#4c72b0;"/>
    <path clip-path="url(#p443bb315f6)" d="M 194.979404 252 
L 194.979404 241.128 
" style="fill:none;stroke:#4c72b0;"/>
    <path clip-path="url(#p443bb315f6)" d="M 227.300611 252 
L 227.300611 241.128 
" style="fill:none;stroke:#4c72b0;"/>
    <path clip-path="url(#p443bb315f6)" d="M 262.026859 252 
L 262.026859 241.128 
" style="fill:none;stroke:#4c72b0;"/>
    <path clip-path="url(#p443bb315f6)" d="M 264.553344 252 
L 264.553344 241.128 
" style="fill:none;stroke:#4c72b0;"/>
    <path clip-path="url(#p443bb315f6)" d="M 165.925145 252 
L 165.925145 241.128 
" style="fill:none;stroke:#4c72b0;"/>
    <path clip-path="url(#p443bb315f6)" d="M 236.043335 252 
L 236.043335 241.128 
" style="fill:none;stroke:#4c72b0;"/>
    <path clip-path="url(#p443bb315f6)" d="M 270.847466 252 
L 270.847466 241.128 
" style="fill:none;stroke:#4c72b0;"/>
    <path clip-path="url(#p443bb315f6)" d="M 217.94463 252 
L 217.94463 241.128 
" style="fill:none;stroke:#4c72b0;"/>
    <path clip-path="url(#p443bb315f6)" d="M 249.331243 252 
L 249.331243 241.128 
" style="fill:none;stroke:#4c72b0;"/>
    <path clip-path="url(#p443bb315f6)" d="M 211.503526 252 
L 211.503526 241.128 
" style="fill:none;stroke:#4c72b0;"/>
    <path clip-path="url(#p443bb315f6)" d="M 227.065216 252 
L 227.065216 241.128 
" style="fill:none;stroke:#4c72b0;"/>
    <path clip-path="url(#p443bb315f6)" d="M 205.298124 252 
L 205.298124 241.128 
" style="fill:none;stroke:#4c72b0;"/>
    <path clip-path="url(#p443bb315f6)" d="M 268.992314 252 
L 268.992314 241.128 
" style="fill:none;stroke:#4c72b0;"/>
    <path clip-path="url(#p443bb315f6)" d="M 297.698956 252 
L 297.698956 241.128 
" style="fill:none;stroke:#4c72b0;"/>
    <path clip-path="url(#p443bb315f6)" d="M 169.594191 252 
L 169.594191 241.128 
" style="fill:none;stroke:#4c72b0;"/>
    <path clip-path="url(#p443bb315f6)" d="M 133.822402 252 
L 133.822402 241.128 
" style="fill:none;stroke:#4c72b0;"/>
    <path clip-path="url(#p443bb315f6)" d="M 225.758449 252 
L 225.758449 241.128 
" style="fill:none;stroke:#4c72b0;"/>
    <path clip-path="url(#p443bb315f6)" d="M 217.938359 252 
L 217.938359 241.128 
" style="fill:none;stroke:#4c72b0;"/>
    <path clip-path="url(#p443bb315f6)" d="M 278.266413 252 
L 278.266413 241.128 
" style="fill:none;stroke:#4c72b0;"/>
    <path clip-path="url(#p443bb315f6)" d="M 256.385656 252 
L 256.385656 241.128 
" style="fill:none;stroke:#4c72b0;"/>
    <path clip-path="url(#p443bb315f6)" d="M 250.081897 252 
L 250.081897 241.128 
" style="fill:none;stroke:#4c72b0;"/>
    <path clip-path="url(#p443bb315f6)" d="M 219.401858 252 
L 219.401858 241.128 
" style="fill:none;stroke:#4c72b0;"/>
    <path clip-path="url(#p443bb315f6)" d="M 285.247299 252 
L 285.247299 241.128 
" style="fill:none;stroke:#4c72b0;"/>
    <path clip-path="url(#p443bb315f6)" d="M 306.027534 252 
L 306.027534 241.128 
" style="fill:none;stroke:#4c72b0;"/>
    <path clip-path="url(#p443bb315f6)" d="M 292.540475 252 
L 292.540475 241.128 
" style="fill:none;stroke:#4c72b0;"/>
    <path clip-path="url(#p443bb315f6)" d="M 269.114552 252 
L 269.114552 241.128 
" style="fill:none;stroke:#4c72b0;"/>
    <path clip-path="url(#p443bb315f6)" d="M 215.635865 252 
L 215.635865 241.128 
" style="fill:none;stroke:#4c72b0;"/>
    <path clip-path="url(#p443bb315f6)" d="M 228.943246 252 
L 228.943246 241.128 
" style="fill:none;stroke:#4c72b0;"/>
    <path clip-path="url(#p443bb315f6)" d="M 235.044897 252 
L 235.044897 241.128 
" style="fill:none;stroke:#4c72b0;"/>
    <path clip-path="url(#p443bb315f6)" d="M 270.143061 252 
L 270.143061 241.128 
" style="fill:none;stroke:#4c72b0;"/>
    <path clip-path="url(#p443bb315f6)" d="M 166.105877 252 
L 166.105877 241.128 
" style="fill:none;stroke:#4c72b0;"/>
    <path clip-path="url(#p443bb315f6)" d="M 222.584145 252 
L 222.584145 241.128 
" style="fill:none;stroke:#4c72b0;"/>
    <path clip-path="url(#p443bb315f6)" d="M 242.901389 252 
L 242.901389 241.128 
" style="fill:none;stroke:#4c72b0;"/>
    <path clip-path="url(#p443bb315f6)" d="M 186.104777 252 
L 186.104777 241.128 
" style="fill:none;stroke:#4c72b0;"/>
    <path clip-path="url(#p443bb315f6)" d="M 262.763041 252 
L 262.763041 241.128 
" style="fill:none;stroke:#4c72b0;"/>
    <path clip-path="url(#p443bb315f6)" d="M 231.204549 252 
L 231.204549 241.128 
" style="fill:none;stroke:#4c72b0;"/>
    <path clip-path="url(#p443bb315f6)" d="M 234.954952 252 
L 234.954952 241.128 
" style="fill:none;stroke:#4c72b0;"/>
    <path clip-path="url(#p443bb315f6)" d="M 192.51971 252 
L 192.51971 241.128 
" style="fill:none;stroke:#4c72b0;"/>
    <path clip-path="url(#p443bb315f6)" d="M 289.172611 252 
L 289.172611 241.128 
" style="fill:none;stroke:#4c72b0;"/>
    <path clip-path="url(#p443bb315f6)" d="M 244.426257 252 
L 244.426257 241.128 
" style="fill:none;stroke:#4c72b0;"/>
    <path clip-path="url(#p443bb315f6)" d="M 256.237477 252 
L 256.237477 241.128 
" style="fill:none;stroke:#4c72b0;"/>
    <path clip-path="url(#p443bb315f6)" d="M 229.1414 252 
L 229.1414 241.128 
" style="fill:none;stroke:#4c72b0;"/>
    <path clip-path="url(#p443bb315f6)" d="M 229.346037 252 
L 229.346037 241.128 
" style="fill:none;stroke:#4c72b0;"/>
    <path clip-path="url(#p443bb315f6)" d="M 201.830999 252 
L 201.830999 241.128 
" style="fill:none;stroke:#4c72b0;"/>
    <path clip-path="url(#p443bb315f6)" d="M 226.104452 252 
L 226.104452 241.128 
" style="fill:none;stroke:#4c72b0;"/>
    <path clip-path="url(#p443bb315f6)" d="M 219.224766 252 
L 219.224766 241.128 
" style="fill:none;stroke:#4c72b0;"/>
    <path clip-path="url(#p443bb315f6)" d="M 232.263346 252 
L 232.263346 241.128 
" style="fill:none;stroke:#4c72b0;"/>
    <path clip-path="url(#p443bb315f6)" d="M 240.833604 252 
L 240.833604 241.128 
" style="fill:none;stroke:#4c72b0;"/>
    <path clip-path="url(#p443bb315f6)" d="M 224.387242 252 
L 224.387242 241.128 
" style="fill:none;stroke:#4c72b0;"/>
    <path clip-path="url(#p443bb315f6)" d="M 203.310741 252 
L 203.310741 241.128 
" style="fill:none;stroke:#4c72b0;"/>
    <path clip-path="url(#p443bb315f6)" d="M 283.060483 252 
L 283.060483 241.128 
" style="fill:none;stroke:#4c72b0;"/>
    <path clip-path="url(#p443bb315f6)" d="M 243.947738 252 
L 243.947738 241.128 
" style="fill:none;stroke:#4c72b0;"/>
    <path clip-path="url(#p443bb315f6)" d="M 142.438319 252 
L 142.438319 241.128 
" style="fill:none;stroke:#4c72b0;"/>
    <path clip-path="url(#p443bb315f6)" d="M 258.383681 252 
L 258.383681 241.128 
" style="fill:none;stroke:#4c72b0;"/>
    <path clip-path="url(#p443bb315f6)" d="M 287.629503 252 
L 287.629503 241.128 
" style="fill:none;stroke:#4c72b0;"/>
    <path clip-path="url(#p443bb315f6)" d="M 292.690173 252 
L 292.690173 241.128 
" style="fill:none;stroke:#4c72b0;"/>
    <path clip-path="url(#p443bb315f6)" d="M 217.026925 252 
L 217.026925 241.128 
" style="fill:none;stroke:#4c72b0;"/>
    <path clip-path="url(#p443bb315f6)" d="M 213.540362 252 
L 213.540362 241.128 
" style="fill:none;stroke:#4c72b0;"/>
    <path clip-path="url(#p443bb315f6)" d="M 228.567922 252 
L 228.567922 241.128 
" style="fill:none;stroke:#4c72b0;"/>
    <path clip-path="url(#p443bb315f6)" d="M 283.428428 252 
L 283.428428 241.128 
" style="fill:none;stroke:#4c72b0;"/>
    <path clip-path="url(#p443bb315f6)" d="M 252.283324 252 
L 252.283324 241.128 
" style="fill:none;stroke:#4c72b0;"/>
    <path clip-path="url(#p443bb315f6)" d="M 223.989477 252 
L 223.989477 241.128 
" style="fill:none;stroke:#4c72b0;"/>
    <path clip-path="url(#p443bb315f6)" d="M 212.036285 252 
L 212.036285 241.128 
" style="fill:none;stroke:#4c72b0;"/>
    <path clip-path="url(#p443bb315f6)" d="M 212.068738 252 
L 212.068738 241.128 
" style="fill:none;stroke:#4c72b0;"/>
    <path clip-path="url(#p443bb315f6)" d="M 233.265307 252 
L 233.265307 241.128 
" style="fill:none;stroke:#4c72b0;"/>
    <path clip-path="url(#p443bb315f6)" d="M 316.387975 252 
L 316.387975 241.128 
" style="fill:none;stroke:#4c72b0;"/>
    <path clip-path="url(#p443bb315f6)" d="M 232.684911 252 
L 232.684911 241.128 
" style="fill:none;stroke:#4c72b0;"/>
    <path clip-path="url(#p443bb315f6)" d="M 285.673302 252 
L 285.673302 241.128 
" style="fill:none;stroke:#4c72b0;"/>
    <path clip-path="url(#p443bb315f6)" d="M 217.785293 252 
L 217.785293 241.128 
" style="fill:none;stroke:#4c72b0;"/>
    <path clip-path="url(#p443bb315f6)" d="M 247.956159 252 
L 247.956159 241.128 
" style="fill:none;stroke:#4c72b0;"/>
    <path clip-path="url(#p443bb315f6)" d="M 147.904696 252 
L 147.904696 241.128 
" style="fill:none;stroke:#4c72b0;"/>
    <path clip-path="url(#p443bb315f6)" d="M 214.346913 252 
L 214.346913 241.128 
" style="fill:none;stroke:#4c72b0;"/>
    <path clip-path="url(#p443bb315f6)" d="M 262.715076 252 
L 262.715076 241.128 
" style="fill:none;stroke:#4c72b0;"/>
    <path clip-path="url(#p443bb315f6)" d="M 194.685466 252 
L 194.685466 241.128 
" style="fill:none;stroke:#4c72b0;"/>
    <path clip-path="url(#p443bb315f6)" d="M 293.057492 252 
L 293.057492 241.128 
" style="fill:none;stroke:#4c72b0;"/>
    <path clip-path="url(#p443bb315f6)" d="M 246.354331 252 
L 246.354331 241.128 
" style="fill:none;stroke:#4c72b0;"/>
    <path clip-path="url(#p443bb315f6)" d="M 236.610879 252 
L 236.610879 241.128 
" style="fill:none;stroke:#4c72b0;"/>
    <path clip-path="url(#p443bb315f6)" d="M 275.227469 252 
L 275.227469 241.128 
" style="fill:none;stroke:#4c72b0;"/>
    <path clip-path="url(#p443bb315f6)" d="M 197.582384 252 
L 197.582384 241.128 
" style="fill:none;stroke:#4c72b0;"/>
    <path clip-path="url(#p443bb315f6)" d="M 114.101782 252 
L 114.101782 241.128 
" style="fill:none;stroke:#4c72b0;"/>
    <path clip-path="url(#p443bb315f6)" d="M 144.936855 252 
L 144.936855 241.128 
" style="fill:none;stroke:#4c72b0;"/>
    <path clip-path="url(#p443bb315f6)" d="M 271.286575 252 
L 271.286575 241.128 
" style="fill:none;stroke:#4c72b0;"/>
    <path clip-path="url(#p443bb315f6)" d="M 267.467347 252 
L 267.467347 241.128 
" style="fill:none;stroke:#4c72b0;"/>
    <path clip-path="url(#p443bb315f6)" d="M 260.317776 252 
L 260.317776 241.128 
" style="fill:none;stroke:#4c72b0;"/>
    <path clip-path="url(#p443bb315f6)" d="M 274.74633 252 
L 274.74633 241.128 
" style="fill:none;stroke:#4c72b0;"/>
    <path clip-path="url(#p443bb315f6)" d="M 203.058482 252 
L 203.058482 241.128 
" style="fill:none;stroke:#4c72b0;"/>
    <path clip-path="url(#p443bb315f6)" d="M 159.971446 252 
L 159.971446 241.128 
" style="fill:none;stroke:#4c72b0;"/>
    <path clip-path="url(#p443bb315f6)" d="M 240.197013 252 
L 240.197013 241.128 
" style="fill:none;stroke:#4c72b0;"/>
    <path clip-path="url(#p443bb315f6)" d="M 273.498489 252 
L 273.498489 241.128 
" style="fill:none;stroke:#4c72b0;"/>
    <path clip-path="url(#p443bb315f6)" d="M 211.215521 252 
L 211.215521 241.128 
" style="fill:none;stroke:#4c72b0;"/>
    <path clip-path="url(#p443bb315f6)" d="M 213.285272 252 
L 213.285272 241.128 
" style="fill:none;stroke:#4c72b0;"/>
    <path clip-path="url(#p443bb315f6)" d="M 217.247815 252 
L 217.247815 241.128 
" style="fill:none;stroke:#4c72b0;"/>
    <path clip-path="url(#p443bb315f6)" d="M 211.081827 252 
L 211.081827 241.128 
" style="fill:none;stroke:#4c72b0;"/>
    <path clip-path="url(#p443bb315f6)" d="M 305.674284 252 
L 305.674284 241.128 
" style="fill:none;stroke:#4c72b0;"/>
    <path clip-path="url(#p443bb315f6)" d="M 285.120483 252 
L 285.120483 241.128 
" style="fill:none;stroke:#4c72b0;"/>
    <path clip-path="url(#p443bb315f6)" d="M 221.573314 252 
L 221.573314 241.128 
" style="fill:none;stroke:#4c72b0;"/>
    <path clip-path="url(#p443bb315f6)" d="M 314.270215 252 
L 314.270215 241.128 
" style="fill:none;stroke:#4c72b0;"/>
    <path clip-path="url(#p443bb315f6)" d="M 261.351081 252 
L 261.351081 241.128 
" style="fill:none;stroke:#4c72b0;"/>
    <path clip-path="url(#p443bb315f6)" d="M 251.466622 252 
L 251.466622 241.128 
" style="fill:none;stroke:#4c72b0;"/>
    <path clip-path="url(#p443bb315f6)" d="M 221.329492 252 
L 221.329492 241.128 
" style="fill:none;stroke:#4c72b0;"/>
    <path clip-path="url(#p443bb315f6)" d="M 241.92094 252 
L 241.92094 241.128 
" style="fill:none;stroke:#4c72b0;"/>
    <path clip-path="url(#p443bb315f6)" d="M 218.401479 252 
L 218.401479 241.128 
" style="fill:none;stroke:#4c72b0;"/>
    <path clip-path="url(#p443bb315f6)" d="M 192.696403 252 
L 192.696403 241.128 
" style="fill:none;stroke:#4c72b0;"/>
    <path clip-path="url(#p443bb315f6)" d="M 203.539593 252 
L 203.539593 241.128 
" style="fill:none;stroke:#4c72b0;"/>
    <path clip-path="url(#p443bb315f6)" d="M 276.704553 252 
L 276.704553 241.128 
" style="fill:none;stroke:#4c72b0;"/>
    <path clip-path="url(#p443bb315f6)" d="M 234.15027 252 
L 234.15027 241.128 
" style="fill:none;stroke:#4c72b0;"/>
    <path clip-path="url(#p443bb315f6)" d="M 191.693678 252 
L 191.693678 241.128 
" style="fill:none;stroke:#4c72b0;"/>
    <path clip-path="url(#p443bb315f6)" d="M 255.827251 252 
L 255.827251 241.128 
" style="fill:none;stroke:#4c72b0;"/>
    <path clip-path="url(#p443bb315f6)" d="M 223.821682 252 
L 223.821682 241.128 
" style="fill:none;stroke:#4c72b0;"/>
    <path clip-path="url(#p443bb315f6)" d="M 268.602504 252 
L 268.602504 241.128 
" style="fill:none;stroke:#4c72b0;"/>
    <path clip-path="url(#p443bb315f6)" d="M 265.176141 252 
L 265.176141 241.128 
" style="fill:none;stroke:#4c72b0;"/>
    <path clip-path="url(#p443bb315f6)" d="M 247.481118 252 
L 247.481118 241.128 
" style="fill:none;stroke:#4c72b0;"/>
    <path clip-path="url(#p443bb315f6)" d="M 250.606902 252 
L 250.606902 241.128 
" style="fill:none;stroke:#4c72b0;"/>
    <path clip-path="url(#p443bb315f6)" d="M 251.304241 252 
L 251.304241 241.128 
" style="fill:none;stroke:#4c72b0;"/>
    <path clip-path="url(#p443bb315f6)" d="M 230.075845 252 
L 230.075845 241.128 
" style="fill:none;stroke:#4c72b0;"/>
    <path clip-path="url(#p443bb315f6)" d="M 211.452509 252 
L 211.452509 241.128 
" style="fill:none;stroke:#4c72b0;"/>
    <path clip-path="url(#p443bb315f6)" d="M 271.826113 252 
L 271.826113 241.128 
" style="fill:none;stroke:#4c72b0;"/>
    <path clip-path="url(#p443bb315f6)" d="M 301.988627 252 
L 301.988627 241.128 
" style="fill:none;stroke:#4c72b0;"/>
    <path clip-path="url(#p443bb315f6)" d="M 260.938204 252 
L 260.938204 241.128 
" style="fill:none;stroke:#4c72b0;"/>
    <path clip-path="url(#p443bb315f6)" d="M 280.296385 252 
L 280.296385 241.128 
" style="fill:none;stroke:#4c72b0;"/>
    <path clip-path="url(#p443bb315f6)" d="M 323.204903 252 
L 323.204903 241.128 
" style="fill:none;stroke:#4c72b0;"/>
    <path clip-path="url(#p443bb315f6)" d="M 318.117982 252 
L 318.117982 241.128 
" style="fill:none;stroke:#4c72b0;"/>
    <path clip-path="url(#p443bb315f6)" d="M 190.623131 252 
L 190.623131 241.128 
" style="fill:none;stroke:#4c72b0;"/>
    <path clip-path="url(#p443bb315f6)" d="M 205.264698 252 
L 205.264698 241.128 
" style="fill:none;stroke:#4c72b0;"/>
    <path clip-path="url(#p443bb315f6)" d="M 222.88253 252 
L 222.88253 241.128 
" style="fill:none;stroke:#4c72b0;"/>
    <path clip-path="url(#p443bb315f6)" d="M 252.617737 252 
L 252.617737 241.128 
" style="fill:none;stroke:#4c72b0;"/>
    <path clip-path="url(#p443bb315f6)" d="M 161.102862 252 
L 161.102862 241.128 
" style="fill:none;stroke:#4c72b0;"/>
    <path clip-path="url(#p443bb315f6)" d="M 201.17724 252 
L 201.17724 241.128 
" style="fill:none;stroke:#4c72b0;"/>
    <path clip-path="url(#p443bb315f6)" d="M 221.646151 252 
L 221.646151 241.128 
" style="fill:none;stroke:#4c72b0;"/>
    <path clip-path="url(#p443bb315f6)" d="M 231.907627 252 
L 231.907627 241.128 
" style="fill:none;stroke:#4c72b0;"/>
    <path clip-path="url(#p443bb315f6)" d="M 238.954666 252 
L 238.954666 241.128 
" style="fill:none;stroke:#4c72b0;"/>
    <path clip-path="url(#p443bb315f6)" d="M 151.104643 252 
L 151.104643 241.128 
" style="fill:none;stroke:#4c72b0;"/>
    <path clip-path="url(#p443bb315f6)" d="M 287.274631 252 
L 287.274631 241.128 
" style="fill:none;stroke:#4c72b0;"/>
    <path clip-path="url(#p443bb315f6)" d="M 172.680353 252 
L 172.680353 241.128 
" style="fill:none;stroke:#4c72b0;"/>
    <path clip-path="url(#p443bb315f6)" d="M 204.603659 252 
L 204.603659 241.128 
" style="fill:none;stroke:#4c72b0;"/>
    <path clip-path="url(#p443bb315f6)" d="M 241.466296 252 
L 241.466296 241.128 
" style="fill:none;stroke:#4c72b0;"/>
    <path clip-path="url(#p443bb315f6)" d="M 266.265167 252 
L 266.265167 241.128 
" style="fill:none;stroke:#4c72b0;"/>
    <path clip-path="url(#p443bb315f6)" d="M 227.453026 252 
L 227.453026 241.128 
" style="fill:none;stroke:#4c72b0;"/>
    <path clip-path="url(#p443bb315f6)" d="M 231.984412 252 
L 231.984412 241.128 
" style="fill:none;stroke:#4c72b0;"/>
    <path clip-path="url(#p443bb315f6)" d="M 226.352909 252 
L 226.352909 241.128 
" style="fill:none;stroke:#4c72b0;"/>
    <path clip-path="url(#p443bb315f6)" d="M 264.652199 252 
L 264.652199 241.128 
" style="fill:none;stroke:#4c72b0;"/>
    <path clip-path="url(#p443bb315f6)" d="M 181.66602 252 
L 181.66602 241.128 
" style="fill:none;stroke:#4c72b0;"/>
    <path clip-path="url(#p443bb315f6)" d="M 181.62197 252 
L 181.62197 241.128 
" style="fill:none;stroke:#4c72b0;"/>
    <path clip-path="url(#p443bb315f6)" d="M 272.707567 252 
L 272.707567 241.128 
" style="fill:none;stroke:#4c72b0;"/>
    <path clip-path="url(#p443bb315f6)" d="M 173.63544 252 
L 173.63544 241.128 
" style="fill:none;stroke:#4c72b0;"/>
    <path clip-path="url(#p443bb315f6)" d="M 199.904255 252 
L 199.904255 241.128 
" style="fill:none;stroke:#4c72b0;"/>
    <path clip-path="url(#p443bb315f6)" d="M 211.876374 252 
L 211.876374 241.128 
" style="fill:none;stroke:#4c72b0;"/>
    <path clip-path="url(#p443bb315f6)" d="M 207.907116 252 
L 207.907116 241.128 
" style="fill:none;stroke:#4c72b0;"/>
    <path clip-path="url(#p443bb315f6)" d="M 182.058639 252 
L 182.058639 241.128 
" style="fill:none;stroke:#4c72b0;"/>
   </g>
   <g id="line2d_8">
    <path clip-path="url(#p443bb315f6)" d="M 69.218182 251.927783 
L 78.804438 251.802726 
L 85.99413 251.453519 
L 90.787258 251.022923 
L 95.580387 250.384659 
L 100.373515 249.505988 
L 105.166643 248.354705 
L 109.959771 246.876942 
L 112.356335 245.987218 
L 114.752899 244.975751 
L 117.149463 243.823896 
L 119.546027 242.512468 
L 121.942591 241.023681 
L 124.339155 239.343337 
L 126.735719 237.463 
L 129.132283 235.381922 
L 131.528848 233.108534 
L 136.321976 228.069321 
L 148.304796 214.543668 
L 150.70136 212.101691 
L 153.097924 209.855544 
L 155.494488 207.824116 
L 157.891052 206.002115 
L 162.68418 202.821439 
L 167.477309 199.690165 
L 169.873873 197.839215 
L 172.270437 195.608887 
L 174.667001 192.858467 
L 177.063565 189.461685 
L 179.460129 185.316943 
L 181.856693 180.355474 
L 184.253257 174.546785 
L 186.649821 167.901168 
L 189.046385 160.469477 
L 191.442949 152.340625 
L 193.839513 143.637378 
L 198.632641 125.134828 
L 203.42577 106.396135 
L 205.822334 97.425863 
L 208.218898 88.973275 
L 210.615462 81.206188 
L 213.012026 74.265307 
L 215.40859 68.257009 
L 217.805154 63.248425 
L 220.201718 59.265568 
L 222.598282 56.294909 
L 224.994846 54.288225 
L 227.39141 53.170069 
L 229.787974 52.846717 
L 232.184538 53.21531 
L 234.581102 54.171952 
L 236.977666 55.617926 
L 239.37423 57.463689 
L 241.770795 59.630875 
L 244.167359 62.052969 
L 248.960487 67.456577 
L 253.753615 73.39658 
L 258.546743 79.840761 
L 260.943307 83.31754 
L 263.339871 87.030089 
L 265.736435 91.03938 
L 268.132999 95.406692 
L 270.529563 100.184846 
L 272.926127 105.40969 
L 275.322691 111.093139 
L 277.719256 117.218826 
L 280.11582 123.740979 
L 284.908948 137.660649 
L 292.09864 159.131452 
L 296.891768 172.569346 
L 299.288332 178.775344 
L 301.684896 184.580889 
L 304.08146 189.974431 
L 306.478024 194.968531 
L 308.874588 199.595864 
L 311.271152 203.903464 
L 316.064281 211.777677 
L 320.857409 218.990319 
L 325.650537 225.763347 
L 330.443665 232.0696 
L 332.840229 234.98448 
L 335.236793 237.695771 
L 337.633357 240.171994 
L 340.029921 242.388599 
L 342.426485 244.330868 
L 344.823049 245.995237 
L 347.219613 247.389114 
L 349.616178 248.52946 
L 352.012742 249.440517 
L 354.409306 250.151155 
L 356.80587 250.692227 
L 361.598998 251.385573 
L 366.392126 251.732247 
L 373.581818 251.915726 
L 373.581818 251.915726 
" style="fill:none;stroke:#4c72b0;stroke-linecap:round;stroke-width:1.5;"/>
   </g>
   <g id="patch_15">
    <path d="M 54 252 
L 54 34.56 
" style="fill:none;stroke:#cccccc;stroke-linecap:square;stroke-linejoin:miter;stroke-width:1.25;"/>
   </g>
   <g id="patch_16">
    <path d="M 388.8 252 
L 388.8 34.56 
" style="fill:none;stroke:#cccccc;stroke-linecap:square;stroke-linejoin:miter;stroke-width:1.25;"/>
   </g>
   <g id="patch_17">
    <path d="M 54 252 
L 388.8 252 
" style="fill:none;stroke:#cccccc;stroke-linecap:square;stroke-linejoin:miter;stroke-width:1.25;"/>
   </g>
   <g id="patch_18">
    <path d="M 54 34.56 
L 388.8 34.56 
" style="fill:none;stroke:#cccccc;stroke-linecap:square;stroke-linejoin:miter;stroke-width:1.25;"/>
   </g>
  </g>
 </g>
 <defs>
  <clipPath id="p443bb315f6">
   <rect height="217.44" width="334.8" x="54" y="34.56"/>
  </clipPath>
 </defs>
</svg>
