<?xml version="1.0" encoding="utf-8" standalone="no"?>
<!DOCTYPE svg PUBLIC "-//W3C//DTD SVG 1.1//EN"
  "http://www.w3.org/Graphics/SVG/1.1/DTD/svg11.dtd">
<!-- Created with matplotlib (https://matplotlib.org/) -->
<svg height="720pt" version="1.1" viewBox="0 0 1152 720" width="1152pt" xmlns="http://www.w3.org/2000/svg" xmlns:xlink="http://www.w3.org/1999/xlink">
 <defs>
  <style type="text/css">
*{stroke-linecap:butt;stroke-linejoin:round;}
  </style>
 </defs>
 <g id="figure_1">
  <g id="patch_1">
   <path d="M 0 720 
L 1152 720 
L 1152 0 
L 0 0 
z
" style="fill:#ffffff;"/>
  </g>
  <g id="axes_1">
   <g id="patch_2">
    <path d="M 144 630 
L 1036.8 630 
L 1036.8 86.4 
L 144 86.4 
z
" style="fill:#ffffff;"/>
   </g>
   <g id="matplotlib.axis_1">
    <g id="xtick_1">
     <g id="line2d_1">
      <path clip-path="url(#pb306458ee0)" d="M 212.958665 630 
L 212.958665 86.4 
" style="fill:none;stroke:#cccccc;stroke-linecap:round;"/>
     </g>
     <g id="text_1">
      <!-- 70 -->
      <defs>
       <path d="M 4.734375 62.203125 
L 4.734375 70.65625 
L 51.078125 70.65625 
L 51.078125 63.8125 
Q 44.234375 56.546875 37.515625 44.484375 
Q 30.8125 32.421875 27.15625 19.671875 
Q 24.515625 10.6875 23.78125 0 
L 14.75 0 
Q 14.890625 8.453125 18.0625 20.40625 
Q 21.234375 32.375 27.171875 43.484375 
Q 33.109375 54.59375 39.796875 62.203125 
z
" id="ArialMT-55"/>
       <path d="M 4.15625 35.296875 
Q 4.15625 48 6.765625 55.734375 
Q 9.375 63.484375 14.515625 67.671875 
Q 19.671875 71.875 27.484375 71.875 
Q 33.25 71.875 37.59375 69.546875 
Q 41.9375 67.234375 44.765625 62.859375 
Q 47.609375 58.5 49.21875 52.21875 
Q 50.828125 45.953125 50.828125 35.296875 
Q 50.828125 22.703125 48.234375 14.96875 
Q 45.65625 7.234375 40.5 3 
Q 35.359375 -1.21875 27.484375 -1.21875 
Q 17.140625 -1.21875 11.234375 6.203125 
Q 4.15625 15.140625 4.15625 35.296875 
z
M 13.1875 35.296875 
Q 13.1875 17.671875 17.3125 11.828125 
Q 21.4375 6 27.484375 6 
Q 33.546875 6 37.671875 11.859375 
Q 41.796875 17.71875 41.796875 35.296875 
Q 41.796875 52.984375 37.671875 58.78125 
Q 33.546875 64.59375 27.390625 64.59375 
Q 21.34375 64.59375 17.71875 59.46875 
Q 13.1875 52.9375 13.1875 35.296875 
z
" id="ArialMT-48"/>
      </defs>
      <g style="fill:#262626;" transform="translate(200.724602 655.247187)scale(0.22 -0.22)">
       <use xlink:href="#ArialMT-55"/>
       <use x="55.615234" xlink:href="#ArialMT-48"/>
      </g>
     </g>
    </g>
    <g id="xtick_2">
     <g id="line2d_2">
      <path clip-path="url(#pb306458ee0)" d="M 321.32228 630 
L 321.32228 86.4 
" style="fill:none;stroke:#cccccc;stroke-linecap:round;"/>
     </g>
     <g id="text_2">
      <!-- 80 -->
      <defs>
       <path d="M 17.671875 38.8125 
Q 12.203125 40.828125 9.5625 44.53125 
Q 6.9375 48.25 6.9375 53.421875 
Q 6.9375 61.234375 12.546875 66.546875 
Q 18.171875 71.875 27.484375 71.875 
Q 36.859375 71.875 42.578125 66.421875 
Q 48.296875 60.984375 48.296875 53.171875 
Q 48.296875 48.1875 45.671875 44.5 
Q 43.0625 40.828125 37.75 38.8125 
Q 44.34375 36.671875 47.78125 31.875 
Q 51.21875 27.09375 51.21875 20.453125 
Q 51.21875 11.28125 44.71875 5.03125 
Q 38.234375 -1.21875 27.640625 -1.21875 
Q 17.046875 -1.21875 10.546875 5.046875 
Q 4.046875 11.328125 4.046875 20.703125 
Q 4.046875 27.6875 7.59375 32.390625 
Q 11.140625 37.109375 17.671875 38.8125 
z
M 15.921875 53.71875 
Q 15.921875 48.640625 19.1875 45.40625 
Q 22.46875 42.1875 27.6875 42.1875 
Q 32.765625 42.1875 36.015625 45.375 
Q 39.265625 48.578125 39.265625 53.21875 
Q 39.265625 58.0625 35.90625 61.359375 
Q 32.5625 64.65625 27.59375 64.65625 
Q 22.5625 64.65625 19.234375 61.421875 
Q 15.921875 58.203125 15.921875 53.71875 
z
M 13.09375 20.65625 
Q 13.09375 16.890625 14.875 13.375 
Q 16.65625 9.859375 20.171875 7.921875 
Q 23.6875 6 27.734375 6 
Q 34.03125 6 38.125 10.046875 
Q 42.234375 14.109375 42.234375 20.359375 
Q 42.234375 26.703125 38.015625 30.859375 
Q 33.796875 35.015625 27.4375 35.015625 
Q 21.234375 35.015625 17.15625 30.90625 
Q 13.09375 26.8125 13.09375 20.65625 
z
" id="ArialMT-56"/>
      </defs>
      <g style="fill:#262626;" transform="translate(309.088218 655.247187)scale(0.22 -0.22)">
       <use xlink:href="#ArialMT-56"/>
       <use x="55.615234" xlink:href="#ArialMT-48"/>
      </g>
     </g>
    </g>
    <g id="xtick_3">
     <g id="line2d_3">
      <path clip-path="url(#pb306458ee0)" d="M 429.685896 630 
L 429.685896 86.4 
" style="fill:none;stroke:#cccccc;stroke-linecap:round;"/>
     </g>
     <g id="text_3">
      <!-- 90 -->
      <defs>
       <path d="M 5.46875 16.546875 
L 13.921875 17.328125 
Q 14.984375 11.375 18.015625 8.6875 
Q 21.046875 6 25.78125 6 
Q 29.828125 6 32.875 7.859375 
Q 35.9375 9.71875 37.890625 12.8125 
Q 39.84375 15.921875 41.15625 21.1875 
Q 42.484375 26.46875 42.484375 31.9375 
Q 42.484375 32.515625 42.4375 33.6875 
Q 39.796875 29.5 35.234375 26.875 
Q 30.671875 24.265625 25.34375 24.265625 
Q 16.453125 24.265625 10.296875 30.703125 
Q 4.15625 37.15625 4.15625 47.703125 
Q 4.15625 58.59375 10.578125 65.234375 
Q 17 71.875 26.65625 71.875 
Q 33.640625 71.875 39.421875 68.109375 
Q 45.21875 64.359375 48.21875 57.390625 
Q 51.21875 50.4375 51.21875 37.25 
Q 51.21875 23.53125 48.234375 15.40625 
Q 45.265625 7.28125 39.375 3.03125 
Q 33.5 -1.21875 25.59375 -1.21875 
Q 17.1875 -1.21875 11.859375 3.4375 
Q 6.546875 8.109375 5.46875 16.546875 
z
M 41.453125 48.140625 
Q 41.453125 55.71875 37.421875 60.15625 
Q 33.40625 64.59375 27.734375 64.59375 
Q 21.875 64.59375 17.53125 59.8125 
Q 13.1875 55.03125 13.1875 47.40625 
Q 13.1875 40.578125 17.3125 36.296875 
Q 21.4375 32.03125 27.484375 32.03125 
Q 33.59375 32.03125 37.515625 36.296875 
Q 41.453125 40.578125 41.453125 48.140625 
z
" id="ArialMT-57"/>
      </defs>
      <g style="fill:#262626;" transform="translate(417.451834 655.247187)scale(0.22 -0.22)">
       <use xlink:href="#ArialMT-57"/>
       <use x="55.615234" xlink:href="#ArialMT-48"/>
      </g>
     </g>
    </g>
    <g id="xtick_4">
     <g id="line2d_4">
      <path clip-path="url(#pb306458ee0)" d="M 538.049512 630 
L 538.049512 86.4 
" style="fill:none;stroke:#cccccc;stroke-linecap:round;"/>
     </g>
     <g id="text_4">
      <!-- 100 -->
      <defs>
       <path d="M 37.25 0 
L 28.46875 0 
L 28.46875 56 
Q 25.296875 52.984375 20.140625 49.953125 
Q 14.984375 46.921875 10.890625 45.40625 
L 10.890625 53.90625 
Q 18.265625 57.375 23.78125 62.296875 
Q 29.296875 67.234375 31.59375 71.875 
L 37.25 71.875 
z
" id="ArialMT-49"/>
      </defs>
      <g style="fill:#262626;" transform="translate(519.698418 655.247187)scale(0.22 -0.22)">
       <use xlink:href="#ArialMT-49"/>
       <use x="55.615234" xlink:href="#ArialMT-48"/>
       <use x="111.230469" xlink:href="#ArialMT-48"/>
      </g>
     </g>
    </g>
    <g id="xtick_5">
     <g id="line2d_5">
      <path clip-path="url(#pb306458ee0)" d="M 646.413128 630 
L 646.413128 86.4 
" style="fill:none;stroke:#cccccc;stroke-linecap:round;"/>
     </g>
     <g id="text_5">
      <!-- 110 -->
      <g style="fill:#262626;" transform="translate(628.074065 655.247187)scale(0.22 -0.22)">
       <use xlink:href="#ArialMT-49"/>
       <use x="55.505859" xlink:href="#ArialMT-49"/>
       <use x="111.121094" xlink:href="#ArialMT-48"/>
      </g>
     </g>
    </g>
    <g id="xtick_6">
     <g id="line2d_6">
      <path clip-path="url(#pb306458ee0)" d="M 754.776744 630 
L 754.776744 86.4 
" style="fill:none;stroke:#cccccc;stroke-linecap:round;"/>
     </g>
     <g id="text_6">
      <!-- 120 -->
      <defs>
       <path d="M 50.34375 8.453125 
L 50.34375 0 
L 3.03125 0 
Q 2.9375 3.171875 4.046875 6.109375 
Q 5.859375 10.9375 9.828125 15.625 
Q 13.8125 20.3125 21.34375 26.46875 
Q 33.015625 36.03125 37.109375 41.625 
Q 41.21875 47.21875 41.21875 52.203125 
Q 41.21875 57.421875 37.46875 61 
Q 33.734375 64.59375 27.734375 64.59375 
Q 21.390625 64.59375 17.578125 60.78125 
Q 13.765625 56.984375 13.71875 50.25 
L 4.6875 51.171875 
Q 5.609375 61.28125 11.65625 66.578125 
Q 17.71875 71.875 27.9375 71.875 
Q 38.234375 71.875 44.234375 66.15625 
Q 50.25 60.453125 50.25 52 
Q 50.25 47.703125 48.484375 43.546875 
Q 46.734375 39.40625 42.65625 34.8125 
Q 38.578125 30.21875 29.109375 22.21875 
Q 21.1875 15.578125 18.9375 13.203125 
Q 16.703125 10.84375 15.234375 8.453125 
z
" id="ArialMT-50"/>
      </defs>
      <g style="fill:#262626;" transform="translate(736.42565 655.247187)scale(0.22 -0.22)">
       <use xlink:href="#ArialMT-49"/>
       <use x="55.615234" xlink:href="#ArialMT-50"/>
       <use x="111.230469" xlink:href="#ArialMT-48"/>
      </g>
     </g>
    </g>
    <g id="xtick_7">
     <g id="line2d_7">
      <path clip-path="url(#pb306458ee0)" d="M 863.140359 630 
L 863.140359 86.4 
" style="fill:none;stroke:#cccccc;stroke-linecap:round;"/>
     </g>
     <g id="text_7">
      <!-- 130 -->
      <defs>
       <path d="M 4.203125 18.890625 
L 12.984375 20.0625 
Q 14.5 12.59375 18.140625 9.296875 
Q 21.78125 6 27 6 
Q 33.203125 6 37.46875 10.296875 
Q 41.75 14.59375 41.75 20.953125 
Q 41.75 27 37.796875 30.921875 
Q 33.84375 34.859375 27.734375 34.859375 
Q 25.25 34.859375 21.53125 33.890625 
L 22.515625 41.609375 
Q 23.390625 41.5 23.921875 41.5 
Q 29.546875 41.5 34.03125 44.421875 
Q 38.53125 47.359375 38.53125 53.46875 
Q 38.53125 58.296875 35.25 61.46875 
Q 31.984375 64.65625 26.8125 64.65625 
Q 21.6875 64.65625 18.265625 61.421875 
Q 14.84375 58.203125 13.875 51.765625 
L 5.078125 53.328125 
Q 6.6875 62.15625 12.390625 67.015625 
Q 18.109375 71.875 26.609375 71.875 
Q 32.46875 71.875 37.390625 69.359375 
Q 42.328125 66.84375 44.9375 62.5 
Q 47.5625 58.15625 47.5625 53.265625 
Q 47.5625 48.640625 45.0625 44.828125 
Q 42.578125 41.015625 37.703125 38.765625 
Q 44.046875 37.3125 47.5625 32.6875 
Q 51.078125 28.078125 51.078125 21.140625 
Q 51.078125 11.765625 44.234375 5.25 
Q 37.40625 -1.265625 26.953125 -1.265625 
Q 17.53125 -1.265625 11.296875 4.34375 
Q 5.078125 9.96875 4.203125 18.890625 
z
" id="ArialMT-51"/>
      </defs>
      <g style="fill:#262626;" transform="translate(844.789266 655.247187)scale(0.22 -0.22)">
       <use xlink:href="#ArialMT-49"/>
       <use x="55.615234" xlink:href="#ArialMT-51"/>
       <use x="111.230469" xlink:href="#ArialMT-48"/>
      </g>
     </g>
    </g>
    <g id="xtick_8">
     <g id="line2d_8">
      <path clip-path="url(#pb306458ee0)" d="M 971.503975 630 
L 971.503975 86.4 
" style="fill:none;stroke:#cccccc;stroke-linecap:round;"/>
     </g>
     <g id="text_8">
      <!-- 140 -->
      <defs>
       <path d="M 32.328125 0 
L 32.328125 17.140625 
L 1.265625 17.140625 
L 1.265625 25.203125 
L 33.9375 71.578125 
L 41.109375 71.578125 
L 41.109375 25.203125 
L 50.78125 25.203125 
L 50.78125 17.140625 
L 41.109375 17.140625 
L 41.109375 0 
z
M 32.328125 25.203125 
L 32.328125 57.46875 
L 9.90625 25.203125 
z
" id="ArialMT-52"/>
      </defs>
      <g style="fill:#262626;" transform="translate(953.152881 655.247187)scale(0.22 -0.22)">
       <use xlink:href="#ArialMT-49"/>
       <use x="55.615234" xlink:href="#ArialMT-52"/>
       <use x="111.230469" xlink:href="#ArialMT-48"/>
      </g>
     </g>
    </g>
    <g id="text_9">
     <!-- Simulation Result -->
     <defs>
      <path d="M 4.5 23 
L 13.421875 23.78125 
Q 14.0625 18.40625 16.375 14.96875 
Q 18.703125 11.53125 23.578125 9.40625 
Q 28.46875 7.28125 34.578125 7.28125 
Q 39.984375 7.28125 44.140625 8.890625 
Q 48.296875 10.5 50.3125 13.296875 
Q 52.34375 16.109375 52.34375 19.4375 
Q 52.34375 22.796875 50.390625 25.3125 
Q 48.4375 27.828125 43.953125 29.546875 
Q 41.0625 30.671875 31.203125 33.03125 
Q 21.34375 35.40625 17.390625 37.5 
Q 12.25 40.1875 9.734375 44.15625 
Q 7.234375 48.140625 7.234375 53.078125 
Q 7.234375 58.5 10.296875 63.203125 
Q 13.375 67.921875 19.28125 70.359375 
Q 25.203125 72.796875 32.421875 72.796875 
Q 40.375 72.796875 46.453125 70.234375 
Q 52.546875 67.671875 55.8125 62.6875 
Q 59.078125 57.71875 59.328125 51.421875 
L 50.25 50.734375 
Q 49.515625 57.515625 45.28125 60.984375 
Q 41.0625 64.453125 32.8125 64.453125 
Q 24.21875 64.453125 20.28125 61.296875 
Q 16.359375 58.15625 16.359375 53.71875 
Q 16.359375 49.859375 19.140625 47.359375 
Q 21.875 44.875 33.421875 42.265625 
Q 44.96875 39.65625 49.265625 37.703125 
Q 55.515625 34.8125 58.484375 30.390625 
Q 61.46875 25.984375 61.46875 20.21875 
Q 61.46875 14.5 58.203125 9.4375 
Q 54.9375 4.390625 48.796875 1.578125 
Q 42.671875 -1.21875 35.015625 -1.21875 
Q 25.296875 -1.21875 18.71875 1.609375 
Q 12.15625 4.4375 8.421875 10.125 
Q 4.6875 15.828125 4.5 23 
z
" id="ArialMT-83"/>
      <path d="M 6.640625 61.46875 
L 6.640625 71.578125 
L 15.4375 71.578125 
L 15.4375 61.46875 
z
M 6.640625 0 
L 6.640625 51.859375 
L 15.4375 51.859375 
L 15.4375 0 
z
" id="ArialMT-105"/>
      <path d="M 6.59375 0 
L 6.59375 51.859375 
L 14.453125 51.859375 
L 14.453125 44.578125 
Q 16.890625 48.390625 20.9375 50.703125 
Q 25 53.03125 30.171875 53.03125 
Q 35.9375 53.03125 39.625 50.640625 
Q 43.3125 48.25 44.828125 43.953125 
Q 50.984375 53.03125 60.84375 53.03125 
Q 68.5625 53.03125 72.703125 48.75 
Q 76.859375 44.484375 76.859375 35.59375 
L 76.859375 0 
L 68.109375 0 
L 68.109375 32.671875 
Q 68.109375 37.9375 67.25 40.25 
Q 66.40625 42.578125 64.15625 43.984375 
Q 61.921875 45.40625 58.890625 45.40625 
Q 53.421875 45.40625 49.796875 41.765625 
Q 46.1875 38.140625 46.1875 30.125 
L 46.1875 0 
L 37.40625 0 
L 37.40625 33.6875 
Q 37.40625 39.546875 35.25 42.46875 
Q 33.109375 45.40625 28.21875 45.40625 
Q 24.515625 45.40625 21.359375 43.453125 
Q 18.21875 41.5 16.796875 37.734375 
Q 15.375 33.984375 15.375 26.90625 
L 15.375 0 
z
" id="ArialMT-109"/>
      <path d="M 40.578125 0 
L 40.578125 7.625 
Q 34.515625 -1.171875 24.125 -1.171875 
Q 19.53125 -1.171875 15.546875 0.578125 
Q 11.578125 2.34375 9.640625 5 
Q 7.71875 7.671875 6.9375 11.53125 
Q 6.390625 14.109375 6.390625 19.734375 
L 6.390625 51.859375 
L 15.1875 51.859375 
L 15.1875 23.09375 
Q 15.1875 16.21875 15.71875 13.8125 
Q 16.546875 10.359375 19.234375 8.375 
Q 21.921875 6.390625 25.875 6.390625 
Q 29.828125 6.390625 33.296875 8.421875 
Q 36.765625 10.453125 38.203125 13.9375 
Q 39.65625 17.4375 39.65625 24.078125 
L 39.65625 51.859375 
L 48.4375 51.859375 
L 48.4375 0 
z
" id="ArialMT-117"/>
      <path d="M 6.390625 0 
L 6.390625 71.578125 
L 15.1875 71.578125 
L 15.1875 0 
z
" id="ArialMT-108"/>
      <path d="M 40.4375 6.390625 
Q 35.546875 2.25 31.03125 0.53125 
Q 26.515625 -1.171875 21.34375 -1.171875 
Q 12.796875 -1.171875 8.203125 3 
Q 3.609375 7.171875 3.609375 13.671875 
Q 3.609375 17.484375 5.34375 20.625 
Q 7.078125 23.78125 9.890625 25.6875 
Q 12.703125 27.59375 16.21875 28.5625 
Q 18.796875 29.25 24.03125 29.890625 
Q 34.671875 31.15625 39.703125 32.90625 
Q 39.75 34.71875 39.75 35.203125 
Q 39.75 40.578125 37.25 42.78125 
Q 33.890625 45.75 27.25 45.75 
Q 21.046875 45.75 18.09375 43.578125 
Q 15.140625 41.40625 13.71875 35.890625 
L 5.125 37.0625 
Q 6.296875 42.578125 8.984375 45.96875 
Q 11.671875 49.359375 16.75 51.1875 
Q 21.828125 53.03125 28.515625 53.03125 
Q 35.15625 53.03125 39.296875 51.46875 
Q 43.453125 49.90625 45.40625 47.53125 
Q 47.359375 45.171875 48.140625 41.546875 
Q 48.578125 39.3125 48.578125 33.453125 
L 48.578125 21.734375 
Q 48.578125 9.46875 49.140625 6.21875 
Q 49.703125 2.984375 51.375 0 
L 42.1875 0 
Q 40.828125 2.734375 40.4375 6.390625 
z
M 39.703125 26.03125 
Q 34.90625 24.078125 25.34375 22.703125 
Q 19.921875 21.921875 17.671875 20.9375 
Q 15.4375 19.96875 14.203125 18.09375 
Q 12.984375 16.21875 12.984375 13.921875 
Q 12.984375 10.40625 15.640625 8.0625 
Q 18.3125 5.71875 23.4375 5.71875 
Q 28.515625 5.71875 32.46875 7.9375 
Q 36.421875 10.15625 38.28125 14.015625 
Q 39.703125 17 39.703125 22.796875 
z
" id="ArialMT-97"/>
      <path d="M 25.78125 7.859375 
L 27.046875 0.09375 
Q 23.34375 -0.6875 20.40625 -0.6875 
Q 15.625 -0.6875 12.984375 0.828125 
Q 10.359375 2.34375 9.28125 4.8125 
Q 8.203125 7.28125 8.203125 15.1875 
L 8.203125 45.015625 
L 1.765625 45.015625 
L 1.765625 51.859375 
L 8.203125 51.859375 
L 8.203125 64.703125 
L 16.9375 69.96875 
L 16.9375 51.859375 
L 25.78125 51.859375 
L 25.78125 45.015625 
L 16.9375 45.015625 
L 16.9375 14.703125 
Q 16.9375 10.9375 17.40625 9.859375 
Q 17.875 8.796875 18.921875 8.15625 
Q 19.96875 7.515625 21.921875 7.515625 
Q 23.390625 7.515625 25.78125 7.859375 
z
" id="ArialMT-116"/>
      <path d="M 3.328125 25.921875 
Q 3.328125 40.328125 11.328125 47.265625 
Q 18.015625 53.03125 27.640625 53.03125 
Q 38.328125 53.03125 45.109375 46.015625 
Q 51.90625 39.015625 51.90625 26.65625 
Q 51.90625 16.65625 48.90625 10.90625 
Q 45.90625 5.171875 40.15625 2 
Q 34.421875 -1.171875 27.640625 -1.171875 
Q 16.75 -1.171875 10.03125 5.8125 
Q 3.328125 12.796875 3.328125 25.921875 
z
M 12.359375 25.921875 
Q 12.359375 15.96875 16.703125 11.015625 
Q 21.046875 6.0625 27.640625 6.0625 
Q 34.1875 6.0625 38.53125 11.03125 
Q 42.875 16.015625 42.875 26.21875 
Q 42.875 35.84375 38.5 40.796875 
Q 34.125 45.75 27.640625 45.75 
Q 21.046875 45.75 16.703125 40.8125 
Q 12.359375 35.890625 12.359375 25.921875 
z
" id="ArialMT-111"/>
      <path d="M 6.59375 0 
L 6.59375 51.859375 
L 14.5 51.859375 
L 14.5 44.484375 
Q 20.21875 53.03125 31 53.03125 
Q 35.6875 53.03125 39.625 51.34375 
Q 43.5625 49.65625 45.515625 46.921875 
Q 47.46875 44.1875 48.25 40.4375 
Q 48.734375 37.984375 48.734375 31.890625 
L 48.734375 0 
L 39.9375 0 
L 39.9375 31.546875 
Q 39.9375 36.921875 38.90625 39.578125 
Q 37.890625 42.234375 35.28125 43.8125 
Q 32.671875 45.40625 29.15625 45.40625 
Q 23.53125 45.40625 19.453125 41.84375 
Q 15.375 38.28125 15.375 28.328125 
L 15.375 0 
z
" id="ArialMT-110"/>
      <path id="ArialMT-32"/>
      <path d="M 7.859375 0 
L 7.859375 71.578125 
L 39.59375 71.578125 
Q 49.171875 71.578125 54.140625 69.640625 
Q 59.125 67.71875 62.109375 62.828125 
Q 65.09375 57.953125 65.09375 52.046875 
Q 65.09375 44.4375 60.15625 39.203125 
Q 55.21875 33.984375 44.921875 32.5625 
Q 48.6875 30.765625 50.640625 29 
Q 54.78125 25.203125 58.5 19.484375 
L 70.953125 0 
L 59.03125 0 
L 49.5625 14.890625 
Q 45.40625 21.34375 42.71875 24.75 
Q 40.046875 28.171875 37.921875 29.53125 
Q 35.796875 30.90625 33.59375 31.453125 
Q 31.984375 31.78125 28.328125 31.78125 
L 17.328125 31.78125 
L 17.328125 0 
z
M 17.328125 39.984375 
L 37.703125 39.984375 
Q 44.1875 39.984375 47.84375 41.328125 
Q 51.515625 42.671875 53.421875 45.625 
Q 55.328125 48.578125 55.328125 52.046875 
Q 55.328125 57.125 51.640625 60.390625 
Q 47.953125 63.671875 39.984375 63.671875 
L 17.328125 63.671875 
z
" id="ArialMT-82"/>
      <path d="M 42.09375 16.703125 
L 51.171875 15.578125 
Q 49.03125 7.625 43.21875 3.21875 
Q 37.40625 -1.171875 28.375 -1.171875 
Q 17 -1.171875 10.328125 5.828125 
Q 3.65625 12.84375 3.65625 25.484375 
Q 3.65625 38.578125 10.390625 45.796875 
Q 17.140625 53.03125 27.875 53.03125 
Q 38.28125 53.03125 44.875 45.953125 
Q 51.46875 38.875 51.46875 26.03125 
Q 51.46875 25.25 51.421875 23.6875 
L 12.75 23.6875 
Q 13.234375 15.140625 17.578125 10.59375 
Q 21.921875 6.0625 28.421875 6.0625 
Q 33.25 6.0625 36.671875 8.59375 
Q 40.09375 11.140625 42.09375 16.703125 
z
M 13.234375 30.90625 
L 42.1875 30.90625 
Q 41.609375 37.453125 38.875 40.71875 
Q 34.671875 45.796875 27.984375 45.796875 
Q 21.921875 45.796875 17.796875 41.75 
Q 13.671875 37.703125 13.234375 30.90625 
z
" id="ArialMT-101"/>
      <path d="M 3.078125 15.484375 
L 11.765625 16.84375 
Q 12.5 11.625 15.84375 8.84375 
Q 19.1875 6.0625 25.203125 6.0625 
Q 31.25 6.0625 34.171875 8.515625 
Q 37.109375 10.984375 37.109375 14.3125 
Q 37.109375 17.28125 34.515625 19 
Q 32.71875 20.171875 25.53125 21.96875 
Q 15.875 24.421875 12.140625 26.203125 
Q 8.40625 27.984375 6.46875 31.125 
Q 4.546875 34.28125 4.546875 38.09375 
Q 4.546875 41.546875 6.125 44.5 
Q 7.71875 47.46875 10.453125 49.421875 
Q 12.5 50.921875 16.03125 51.96875 
Q 19.578125 53.03125 23.640625 53.03125 
Q 29.734375 53.03125 34.34375 51.265625 
Q 38.96875 49.515625 41.15625 46.5 
Q 43.359375 43.5 44.1875 38.484375 
L 35.59375 37.3125 
Q 35.015625 41.3125 32.203125 43.546875 
Q 29.390625 45.796875 24.265625 45.796875 
Q 18.21875 45.796875 15.625 43.796875 
Q 13.03125 41.796875 13.03125 39.109375 
Q 13.03125 37.40625 14.109375 36.03125 
Q 15.1875 34.625 17.484375 33.6875 
Q 18.796875 33.203125 25.25 31.453125 
Q 34.578125 28.953125 38.25 27.359375 
Q 41.9375 25.78125 44.03125 22.75 
Q 46.140625 19.734375 46.140625 15.234375 
Q 46.140625 10.84375 43.578125 6.953125 
Q 41.015625 3.078125 36.171875 0.953125 
Q 31.34375 -1.171875 25.25 -1.171875 
Q 15.140625 -1.171875 9.84375 3.03125 
Q 4.546875 7.234375 3.078125 15.484375 
z
" id="ArialMT-115"/>
     </defs>
     <g style="fill:#262626;" transform="translate(497.02875 680.798437)scale(0.24 -0.24)">
      <use xlink:href="#ArialMT-83"/>
      <use x="66.699219" xlink:href="#ArialMT-105"/>
      <use x="88.916016" xlink:href="#ArialMT-109"/>
      <use x="172.216797" xlink:href="#ArialMT-117"/>
      <use x="227.832031" xlink:href="#ArialMT-108"/>
      <use x="250.048828" xlink:href="#ArialMT-97"/>
      <use x="305.664062" xlink:href="#ArialMT-116"/>
      <use x="333.447266" xlink:href="#ArialMT-105"/>
      <use x="355.664062" xlink:href="#ArialMT-111"/>
      <use x="411.279297" xlink:href="#ArialMT-110"/>
      <use x="466.894531" xlink:href="#ArialMT-32"/>
      <use x="494.677734" xlink:href="#ArialMT-82"/>
      <use x="566.894531" xlink:href="#ArialMT-101"/>
      <use x="622.509766" xlink:href="#ArialMT-115"/>
      <use x="672.509766" xlink:href="#ArialMT-117"/>
      <use x="728.125" xlink:href="#ArialMT-108"/>
      <use x="750.341797" xlink:href="#ArialMT-116"/>
     </g>
    </g>
   </g>
   <g id="matplotlib.axis_2">
    <g id="ytick_1">
     <g id="line2d_9">
      <path clip-path="url(#pb306458ee0)" d="M 144 584.740958 
L 1036.8 584.740958 
" style="fill:none;stroke:#cccccc;stroke-linecap:round;"/>
     </g>
     <g id="text_10">
      <!-- 60 -->
      <defs>
       <path d="M 49.75 54.046875 
L 41.015625 53.375 
Q 39.84375 58.546875 37.703125 60.890625 
Q 34.125 64.65625 28.90625 64.65625 
Q 24.703125 64.65625 21.53125 62.3125 
Q 17.390625 59.28125 14.984375 53.46875 
Q 12.59375 47.65625 12.5 36.921875 
Q 15.671875 41.75 20.265625 44.09375 
Q 24.859375 46.4375 29.890625 46.4375 
Q 38.671875 46.4375 44.84375 39.96875 
Q 51.03125 33.5 51.03125 23.25 
Q 51.03125 16.5 48.125 10.71875 
Q 45.21875 4.9375 40.140625 1.859375 
Q 35.0625 -1.21875 28.609375 -1.21875 
Q 17.625 -1.21875 10.6875 6.859375 
Q 3.765625 14.9375 3.765625 33.5 
Q 3.765625 54.25 11.421875 63.671875 
Q 18.109375 71.875 29.4375 71.875 
Q 37.890625 71.875 43.28125 67.140625 
Q 48.6875 62.40625 49.75 54.046875 
z
M 13.875 23.1875 
Q 13.875 18.65625 15.796875 14.5 
Q 17.71875 10.359375 21.1875 8.171875 
Q 24.65625 6 28.46875 6 
Q 34.03125 6 38.03125 10.484375 
Q 42.046875 14.984375 42.046875 22.703125 
Q 42.046875 30.125 38.078125 34.390625 
Q 34.125 38.671875 28.125 38.671875 
Q 22.171875 38.671875 18.015625 34.390625 
Q 13.875 30.125 13.875 23.1875 
z
" id="ArialMT-54"/>
      </defs>
      <g style="fill:#262626;" transform="translate(110.031875 592.614551)scale(0.22 -0.22)">
       <use xlink:href="#ArialMT-54"/>
       <use x="55.615234" xlink:href="#ArialMT-48"/>
      </g>
     </g>
    </g>
    <g id="ytick_2">
     <g id="line2d_10">
      <path clip-path="url(#pb306458ee0)" d="M 144 477.153934 
L 1036.8 477.153934 
" style="fill:none;stroke:#cccccc;stroke-linecap:round;"/>
     </g>
     <g id="text_11">
      <!-- 80 -->
      <g style="fill:#262626;" transform="translate(110.031875 485.027527)scale(0.22 -0.22)">
       <use xlink:href="#ArialMT-56"/>
       <use x="55.615234" xlink:href="#ArialMT-48"/>
      </g>
     </g>
    </g>
    <g id="ytick_3">
     <g id="line2d_11">
      <path clip-path="url(#pb306458ee0)" d="M 144 369.566909 
L 1036.8 369.566909 
" style="fill:none;stroke:#cccccc;stroke-linecap:round;"/>
     </g>
     <g id="text_12">
      <!-- 100 -->
      <g style="fill:#262626;" transform="translate(97.797812 377.440503)scale(0.22 -0.22)">
       <use xlink:href="#ArialMT-49"/>
       <use x="55.615234" xlink:href="#ArialMT-48"/>
       <use x="111.230469" xlink:href="#ArialMT-48"/>
      </g>
     </g>
    </g>
    <g id="ytick_4">
     <g id="line2d_12">
      <path clip-path="url(#pb306458ee0)" d="M 144 261.979885 
L 1036.8 261.979885 
" style="fill:none;stroke:#cccccc;stroke-linecap:round;"/>
     </g>
     <g id="text_13">
      <!-- 120 -->
      <g style="fill:#262626;" transform="translate(97.797812 269.853479)scale(0.22 -0.22)">
       <use xlink:href="#ArialMT-49"/>
       <use x="55.615234" xlink:href="#ArialMT-50"/>
       <use x="111.230469" xlink:href="#ArialMT-48"/>
      </g>
     </g>
    </g>
    <g id="ytick_5">
     <g id="line2d_13">
      <path clip-path="url(#pb306458ee0)" d="M 144 154.392861 
L 1036.8 154.392861 
" style="fill:none;stroke:#cccccc;stroke-linecap:round;"/>
     </g>
     <g id="text_14">
      <!-- 140 -->
      <g style="fill:#262626;" transform="translate(97.797812 162.266455)scale(0.22 -0.22)">
       <use xlink:href="#ArialMT-49"/>
       <use x="55.615234" xlink:href="#ArialMT-52"/>
       <use x="111.230469" xlink:href="#ArialMT-48"/>
      </g>
     </g>
    </g>
    <g id="text_15">
     <!-- Predicted -->
     <defs>
      <path d="M 7.71875 0 
L 7.71875 71.578125 
L 34.71875 71.578125 
Q 41.84375 71.578125 45.609375 70.90625 
Q 50.875 70.015625 54.4375 67.546875 
Q 58.015625 65.09375 60.1875 60.640625 
Q 62.359375 56.203125 62.359375 50.875 
Q 62.359375 41.75 56.546875 35.421875 
Q 50.734375 29.109375 35.546875 29.109375 
L 17.1875 29.109375 
L 17.1875 0 
z
M 17.1875 37.546875 
L 35.6875 37.546875 
Q 44.875 37.546875 48.734375 40.96875 
Q 52.59375 44.390625 52.59375 50.59375 
Q 52.59375 55.078125 50.3125 58.265625 
Q 48.046875 61.46875 44.34375 62.5 
Q 41.9375 63.140625 35.5 63.140625 
L 17.1875 63.140625 
z
" id="ArialMT-80"/>
      <path d="M 6.5 0 
L 6.5 51.859375 
L 14.40625 51.859375 
L 14.40625 44 
Q 17.4375 49.515625 20 51.265625 
Q 22.5625 53.03125 25.640625 53.03125 
Q 30.078125 53.03125 34.671875 50.203125 
L 31.640625 42.046875 
Q 28.421875 43.953125 25.203125 43.953125 
Q 22.3125 43.953125 20.015625 42.21875 
Q 17.71875 40.484375 16.75 37.40625 
Q 15.28125 32.71875 15.28125 27.15625 
L 15.28125 0 
z
" id="ArialMT-114"/>
      <path d="M 40.234375 0 
L 40.234375 6.546875 
Q 35.296875 -1.171875 25.734375 -1.171875 
Q 19.53125 -1.171875 14.328125 2.25 
Q 9.125 5.671875 6.265625 11.796875 
Q 3.421875 17.921875 3.421875 25.875 
Q 3.421875 33.640625 6 39.96875 
Q 8.59375 46.296875 13.765625 49.65625 
Q 18.953125 53.03125 25.34375 53.03125 
Q 30.03125 53.03125 33.6875 51.046875 
Q 37.359375 49.078125 39.65625 45.90625 
L 39.65625 71.578125 
L 48.390625 71.578125 
L 48.390625 0 
z
M 12.453125 25.875 
Q 12.453125 15.921875 16.640625 10.984375 
Q 20.84375 6.0625 26.5625 6.0625 
Q 32.328125 6.0625 36.34375 10.765625 
Q 40.375 15.484375 40.375 25.140625 
Q 40.375 35.796875 36.265625 40.765625 
Q 32.171875 45.75 26.171875 45.75 
Q 20.3125 45.75 16.375 40.96875 
Q 12.453125 36.1875 12.453125 25.875 
z
" id="ArialMT-100"/>
      <path d="M 40.4375 19 
L 49.078125 17.875 
Q 47.65625 8.9375 41.8125 3.875 
Q 35.984375 -1.171875 27.484375 -1.171875 
Q 16.84375 -1.171875 10.375 5.78125 
Q 3.90625 12.75 3.90625 25.734375 
Q 3.90625 34.125 6.6875 40.421875 
Q 9.46875 46.734375 15.15625 49.875 
Q 20.84375 53.03125 27.546875 53.03125 
Q 35.984375 53.03125 41.359375 48.75 
Q 46.734375 44.484375 48.25 36.625 
L 39.703125 35.296875 
Q 38.484375 40.53125 35.375 43.15625 
Q 32.28125 45.796875 27.875 45.796875 
Q 21.234375 45.796875 17.078125 41.03125 
Q 12.9375 36.28125 12.9375 25.984375 
Q 12.9375 15.53125 16.9375 10.796875 
Q 20.953125 6.0625 27.390625 6.0625 
Q 32.5625 6.0625 36.03125 9.234375 
Q 39.5 12.40625 40.4375 19 
z
" id="ArialMT-99"/>
     </defs>
     <g style="fill:#262626;" transform="translate(89.027812 408.8925)rotate(-90)scale(0.24 -0.24)">
      <use xlink:href="#ArialMT-80"/>
      <use x="66.699219" xlink:href="#ArialMT-114"/>
      <use x="100" xlink:href="#ArialMT-101"/>
      <use x="155.615234" xlink:href="#ArialMT-100"/>
      <use x="211.230469" xlink:href="#ArialMT-105"/>
      <use x="233.447266" xlink:href="#ArialMT-99"/>
      <use x="283.447266" xlink:href="#ArialMT-116"/>
      <use x="311.230469" xlink:href="#ArialMT-101"/>
      <use x="366.845703" xlink:href="#ArialMT-100"/>
     </g>
    </g>
   </g>
   <g id="LineCollection_1">
    <path clip-path="url(#pb306458ee0)" d="M 181.658417 580.630802 
L 181.658417 499.803392 
" style="fill:none;stroke:#64b5cd;stroke-width:0.5;"/>
    <path clip-path="url(#pb306458ee0)" d="M 579.375455 385.651134 
L 579.375455 305.159662 
" style="fill:none;stroke:#64b5cd;stroke-width:0.5;"/>
    <path clip-path="url(#pb306458ee0)" d="M 617.420749 372.065049 
L 617.420749 293.652016 
" style="fill:none;stroke:#64b5cd;stroke-width:0.5;"/>
    <path clip-path="url(#pb306458ee0)" d="M 618.902365 383.934379 
L 618.902365 305.166451 
" style="fill:none;stroke:#64b5cd;stroke-width:0.5;"/>
    <path clip-path="url(#pb306458ee0)" d="M 743.316065 297.091419 
L 743.316065 212.260139 
" style="fill:none;stroke:#64b5cd;stroke-width:0.5;"/>
    <path clip-path="url(#pb306458ee0)" d="M 920.359976 208.07637 
L 920.359976 127.229993 
" style="fill:none;stroke:#64b5cd;stroke-width:0.5;"/>
    <path clip-path="url(#pb306458ee0)" d="M 652.09561 366.421256 
L 652.09561 281.191468 
" style="fill:none;stroke:#64b5cd;stroke-width:0.5;"/>
    <path clip-path="url(#pb306458ee0)" d="M 857.744476 271.44593 
L 857.744476 187.749822 
" style="fill:none;stroke:#64b5cd;stroke-width:0.5;"/>
    <path clip-path="url(#pb306458ee0)" d="M 544.382451 413.026057 
L 544.382451 331.631893 
" style="fill:none;stroke:#64b5cd;stroke-width:0.5;"/>
    <path clip-path="url(#pb306458ee0)" d="M 242.734253 558.981991 
L 242.734253 481.540764 
" style="fill:none;stroke:#64b5cd;stroke-width:0.5;"/>
    <path clip-path="url(#pb306458ee0)" d="M 832.703567 259.000676 
L 832.703567 177.130706 
" style="fill:none;stroke:#64b5cd;stroke-width:0.5;"/>
    <path clip-path="url(#pb306458ee0)" d="M 794.058554 295.362866 
L 794.058554 215.903917 
" style="fill:none;stroke:#64b5cd;stroke-width:0.5;"/>
    <path clip-path="url(#pb306458ee0)" d="M 485.465096 417.914636 
L 485.465096 336.589405 
" style="fill:none;stroke:#64b5cd;stroke-width:0.5;"/>
    <path clip-path="url(#pb306458ee0)" d="M 144 605.290909 
L 144 524.760039 
" style="fill:none;stroke:#64b5cd;stroke-width:0.5;"/>
    <path clip-path="url(#pb306458ee0)" d="M 542.046925 417.678641 
L 542.046925 337.605528 
" style="fill:none;stroke:#64b5cd;stroke-width:0.5;"/>
    <path clip-path="url(#pb306458ee0)" d="M 521.175178 421.638356 
L 521.175178 341.159189 
" style="fill:none;stroke:#64b5cd;stroke-width:0.5;"/>
    <path clip-path="url(#pb306458ee0)" d="M 1036.8 195.230201 
L 1036.8 111.109091 
" style="fill:none;stroke:#64b5cd;stroke-width:0.5;"/>
    <path clip-path="url(#pb306458ee0)" d="M 485.68096 421.640319 
L 485.68096 343.167854 
" style="fill:none;stroke:#64b5cd;stroke-width:0.5;"/>
    <path clip-path="url(#pb306458ee0)" d="M 579.523619 386.000857 
L 579.523619 307.116343 
" style="fill:none;stroke:#64b5cd;stroke-width:0.5;"/>
    <path clip-path="url(#pb306458ee0)" d="M 260.448894 571.08308 
L 260.448894 491.253818 
" style="fill:none;stroke:#64b5cd;stroke-width:0.5;"/>
    <path clip-path="url(#pb306458ee0)" d="M 880.749447 247.063519 
L 880.749447 162.774359 
" style="fill:none;stroke:#64b5cd;stroke-width:0.5;"/>
    <path clip-path="url(#pb306458ee0)" d="M 579.286717 391.459402 
L 579.286717 311.12684 
" style="fill:none;stroke:#64b5cd;stroke-width:0.5;"/>
    <path clip-path="url(#pb306458ee0)" d="M 762.147224 310.989108 
L 762.147224 227.186045 
" style="fill:none;stroke:#64b5cd;stroke-width:0.5;"/>
    <path clip-path="url(#pb306458ee0)" d="M 636.265518 386.459355 
L 636.265518 302.042778 
" style="fill:none;stroke:#64b5cd;stroke-width:0.5;"/>
    <path clip-path="url(#pb306458ee0)" d="M 217.360936 576.561204 
L 217.360936 498.378244 
" style="fill:none;stroke:#64b5cd;stroke-width:0.5;"/>
    <path clip-path="url(#pb306458ee0)" d="M 635.41682 368.688431 
L 635.41682 288.272231 
" style="fill:none;stroke:#64b5cd;stroke-width:0.5;"/>
    <path clip-path="url(#pb306458ee0)" d="M 882.749014 256.706864 
L 882.749014 176.809181 
" style="fill:none;stroke:#64b5cd;stroke-width:0.5;"/>
    <path clip-path="url(#pb306458ee0)" d="M 832.525435 261.475674 
L 832.525435 177.23979 
" style="fill:none;stroke:#64b5cd;stroke-width:0.5;"/>
    <path clip-path="url(#pb306458ee0)" d="M 502.477977 432.132008 
L 502.477977 350.501095 
" style="fill:none;stroke:#64b5cd;stroke-width:0.5;"/>
    <path clip-path="url(#pb306458ee0)" d="M 305.930224 521.118475 
L 305.930224 435.942559 
" style="fill:none;stroke:#64b5cd;stroke-width:0.5;"/>
    <path clip-path="url(#pb306458ee0)" d="M 469.56032 454.412724 
L 469.56032 376.707599 
" style="fill:none;stroke:#64b5cd;stroke-width:0.5;"/>
    <path clip-path="url(#pb306458ee0)" d="M 806.923969 267.328015 
L 806.923969 183.469147 
" style="fill:none;stroke:#64b5cd;stroke-width:0.5;"/>
    <path clip-path="url(#pb306458ee0)" d="M 859.528239 264.124964 
L 859.528239 177.163286 
" style="fill:none;stroke:#64b5cd;stroke-width:0.5;"/>
    <path clip-path="url(#pb306458ee0)" d="M 636.871376 331.119265 
L 636.871376 250.378544 
" style="fill:none;stroke:#64b5cd;stroke-width:0.5;"/>
    <path clip-path="url(#pb306458ee0)" d="M 420.12978 444.743973 
L 420.12978 363.026803 
" style="fill:none;stroke:#64b5cd;stroke-width:0.5;"/>
    <path clip-path="url(#pb306458ee0)" d="M 876.888695 258.070709 
L 876.888695 178.787338 
" style="fill:none;stroke:#64b5cd;stroke-width:0.5;"/>
    <path clip-path="url(#pb306458ee0)" d="M 789.280807 303.167149 
L 789.280807 220.538847 
" style="fill:none;stroke:#64b5cd;stroke-width:0.5;"/>
    <path clip-path="url(#pb306458ee0)" d="M 741.065429 311.538368 
L 741.065429 229.219508 
" style="fill:none;stroke:#64b5cd;stroke-width:0.5;"/>
    <path clip-path="url(#pb306458ee0)" d="M 294.687111 530.386562 
L 294.687111 450.30417 
" style="fill:none;stroke:#64b5cd;stroke-width:0.5;"/>
    <path clip-path="url(#pb306458ee0)" d="M 684.62327 333.721645 
L 684.62327 256.234051 
" style="fill:none;stroke:#64b5cd;stroke-width:0.5;"/>
    <path clip-path="url(#pb306458ee0)" d="M 873.884497 253.37823 
L 873.884497 170.229174 
" style="fill:none;stroke:#64b5cd;stroke-width:0.5;"/>
    <path clip-path="url(#pb306458ee0)" d="M 247.934563 562.309389 
L 247.934563 480.482391 
" style="fill:none;stroke:#64b5cd;stroke-width:0.5;"/>
    <path clip-path="url(#pb306458ee0)" d="M 872.454257 242.367812 
L 872.454257 163.506021 
" style="fill:none;stroke:#64b5cd;stroke-width:0.5;"/>
    <path clip-path="url(#pb306458ee0)" d="M 488.089098 437.012974 
L 488.089098 354.645495 
" style="fill:none;stroke:#64b5cd;stroke-width:0.5;"/>
    <path clip-path="url(#pb306458ee0)" d="M 868.579956 238.60987 
L 868.579956 159.447294 
" style="fill:none;stroke:#64b5cd;stroke-width:0.5;"/>
    <path clip-path="url(#pb306458ee0)" d="M 918.148669 237.920222 
L 918.148669 156.434101 
" style="fill:none;stroke:#64b5cd;stroke-width:0.5;"/>
    <path clip-path="url(#pb306458ee0)" d="M 796.66592 294.719733 
L 796.66592 210.470507 
" style="fill:none;stroke:#64b5cd;stroke-width:0.5;"/>
    <path clip-path="url(#pb306458ee0)" d="M 766.312225 299.195481 
L 766.312225 217.484663 
" style="fill:none;stroke:#64b5cd;stroke-width:0.5;"/>
    <path clip-path="url(#pb306458ee0)" d="M 875.5181 236.748495 
L 875.5181 154.313279 
" style="fill:none;stroke:#64b5cd;stroke-width:0.5;"/>
    <path clip-path="url(#pb306458ee0)" d="M 688.398165 317.918889 
L 688.398165 235.022283 
" style="fill:none;stroke:#64b5cd;stroke-width:0.5;"/>
    <path clip-path="url(#pb306458ee0)" d="M 555.822959 390.884814 
L 555.822959 311.226109 
" style="fill:none;stroke:#64b5cd;stroke-width:0.5;"/>
    <path clip-path="url(#pb306458ee0)" d="M 790.565253 288.826599 
L 790.565253 206.051825 
" style="fill:none;stroke:#64b5cd;stroke-width:0.5;"/>
    <path clip-path="url(#pb306458ee0)" d="M 731.451016 324.005757 
L 731.451016 244.687342 
" style="fill:none;stroke:#64b5cd;stroke-width:0.5;"/>
    <path clip-path="url(#pb306458ee0)" d="M 860.892152 248.358454 
L 860.892152 165.411724 
" style="fill:none;stroke:#64b5cd;stroke-width:0.5;"/>
    <path clip-path="url(#pb306458ee0)" d="M 754.315622 286.395368 
L 754.315622 206.484473 
" style="fill:none;stroke:#64b5cd;stroke-width:0.5;"/>
    <path clip-path="url(#pb306458ee0)" d="M 516.933598 413.356948 
L 516.933598 329.428433 
" style="fill:none;stroke:#64b5cd;stroke-width:0.5;"/>
    <path clip-path="url(#pb306458ee0)" d="M 875.970611 252.569777 
L 875.970611 170.634777 
" style="fill:none;stroke:#64b5cd;stroke-width:0.5;"/>
    <path clip-path="url(#pb306458ee0)" d="M 901.918414 236.22231 
L 901.918414 154.708679 
" style="fill:none;stroke:#64b5cd;stroke-width:0.5;"/>
    <path clip-path="url(#pb306458ee0)" d="M 831.682905 276.822655 
L 831.682905 196.370272 
" style="fill:none;stroke:#64b5cd;stroke-width:0.5;"/>
    <path clip-path="url(#pb306458ee0)" d="M 447.223692 444.317562 
L 447.223692 364.912473 
" style="fill:none;stroke:#64b5cd;stroke-width:0.5;"/>
    <path clip-path="url(#pb306458ee0)" d="M 836.786328 247.684805 
L 836.786328 164.579142 
" style="fill:none;stroke:#64b5cd;stroke-width:0.5;"/>
    <path clip-path="url(#pb306458ee0)" d="M 790.487481 282.815918 
L 790.487481 200.598928 
" style="fill:none;stroke:#64b5cd;stroke-width:0.5;"/>
    <path clip-path="url(#pb306458ee0)" d="M 476.913661 434.379396 
L 476.913661 352.531322 
" style="fill:none;stroke:#64b5cd;stroke-width:0.5;"/>
    <path clip-path="url(#pb306458ee0)" d="M 729.464326 325.456903 
L 729.464326 239.933488 
" style="fill:none;stroke:#64b5cd;stroke-width:0.5;"/>
    <path clip-path="url(#pb306458ee0)" d="M 500.901985 425.359009 
L 500.901985 339.890777 
" style="fill:none;stroke:#64b5cd;stroke-width:0.5;"/>
    <path clip-path="url(#pb306458ee0)" d="M 905.797054 244.965588 
L 905.797054 165.777439 
" style="fill:none;stroke:#64b5cd;stroke-width:0.5;"/>
    <path clip-path="url(#pb306458ee0)" d="M 220.045737 574.607487 
L 220.045737 488.534159 
" style="fill:none;stroke:#64b5cd;stroke-width:0.5;"/>
    <path clip-path="url(#pb306458ee0)" d="M 651.445915 343.15773 
L 651.445915 264.233928 
" style="fill:none;stroke:#64b5cd;stroke-width:0.5;"/>
    <path clip-path="url(#pb306458ee0)" d="M 826.432184 274.134193 
L 826.432184 196.492499 
" style="fill:none;stroke:#64b5cd;stroke-width:0.5;"/>
    <path clip-path="url(#pb306458ee0)" d="M 541.020772 393.562753 
L 541.020772 314.201034 
" style="fill:none;stroke:#64b5cd;stroke-width:0.5;"/>
    <path clip-path="url(#pb306458ee0)" d="M 733.059242 316.461118 
L 733.059242 235.404955 
" style="fill:none;stroke:#64b5cd;stroke-width:0.5;"/>
    <path clip-path="url(#pb306458ee0)" d="M 462.985617 438.341405 
L 462.985617 355.598911 
" style="fill:none;stroke:#64b5cd;stroke-width:0.5;"/>
    <path clip-path="url(#pb306458ee0)" d="M 879.353855 240.382667 
L 879.353855 162.261811 
" style="fill:none;stroke:#64b5cd;stroke-width:0.5;"/>
    <path clip-path="url(#pb306458ee0)" d="M 785.127022 305.692008 
L 785.127022 225.259601 
" style="fill:none;stroke:#64b5cd;stroke-width:0.5;"/>
    <path clip-path="url(#pb306458ee0)" d="M 836.745175 255.703054 
L 836.745175 172.047158 
" style="fill:none;stroke:#64b5cd;stroke-width:0.5;"/>
    <path clip-path="url(#pb306458ee0)" d="M 489.96849 420.004289 
L 489.96849 335.548714 
" style="fill:none;stroke:#64b5cd;stroke-width:0.5;"/>
    <path clip-path="url(#pb306458ee0)" d="M 758.0656 262.649952 
L 758.0656 184.141416 
" style="fill:none;stroke:#64b5cd;stroke-width:0.5;"/>
    <path clip-path="url(#pb306458ee0)" d="M 196.740981 559.217057 
L 196.740981 483.254893 
" style="fill:none;stroke:#64b5cd;stroke-width:0.5;"/>
    <path clip-path="url(#pb306458ee0)" d="M 687.89472 332.660018 
L 687.89472 251.076208 
" style="fill:none;stroke:#64b5cd;stroke-width:0.5;"/>
    <path clip-path="url(#pb306458ee0)" d="M 574.979832 396.892938 
L 574.979832 313.365624 
" style="fill:none;stroke:#64b5cd;stroke-width:0.5;"/>
    <path clip-path="url(#pb306458ee0)" d="M 890.959758 222.155965 
L 890.959758 141.987336 
" style="fill:none;stroke:#64b5cd;stroke-width:0.5;"/>
    <path clip-path="url(#pb306458ee0)" d="M 628.689248 371.99542 
L 628.689248 290.220653 
" style="fill:none;stroke:#64b5cd;stroke-width:0.5;"/>
    <path clip-path="url(#pb306458ee0)" d="M 369.665722 502.370983 
L 369.665722 418.501547 
" style="fill:none;stroke:#64b5cd;stroke-width:0.5;"/>
    <path clip-path="url(#pb306458ee0)" d="M 700.63953 336.082801 
L 700.63953 255.444351 
" style="fill:none;stroke:#64b5cd;stroke-width:0.5;"/>
    <path clip-path="url(#pb306458ee0)" d="M 523.815308 409.328188 
L 523.815308 331.845703 
" style="fill:none;stroke:#64b5cd;stroke-width:0.5;"/>
    <path clip-path="url(#pb306458ee0)" d="M 280.502257 510.892821 
L 280.502257 431.60346 
" style="fill:none;stroke:#64b5cd;stroke-width:0.5;"/>
    <path clip-path="url(#pb306458ee0)" d="M 825.442678 277.594653 
L 825.442678 197.857993 
" style="fill:none;stroke:#64b5cd;stroke-width:0.5;"/>
    <path clip-path="url(#pb306458ee0)" d="M 746.159878 300.634314 
L 746.159878 217.671173 
" style="fill:none;stroke:#64b5cd;stroke-width:0.5;"/>
    <path clip-path="url(#pb306458ee0)" d="M 775.520636 306.218587 
L 775.520636 225.043849 
" style="fill:none;stroke:#64b5cd;stroke-width:0.5;"/>
    <path clip-path="url(#pb306458ee0)" d="M 706.353389 324.55745 
L 706.353389 243.713683 
" style="fill:none;stroke:#64b5cd;stroke-width:0.5;"/>
    <path clip-path="url(#pb306458ee0)" d="M 575.344656 408.285736 
L 575.344656 331.00082 
" style="fill:none;stroke:#64b5cd;stroke-width:0.5;"/>
    <path clip-path="url(#pb306458ee0)" d="M 347.37566 482.202564 
L 347.37566 403.028858 
" style="fill:none;stroke:#64b5cd;stroke-width:0.5;"/>
    <path clip-path="url(#pb306458ee0)" d="M 492.245395 426.894282 
L 492.245395 347.918748 
" style="fill:none;stroke:#64b5cd;stroke-width:0.5;"/>
    <path clip-path="url(#pb306458ee0)" d="M 332.256267 505.293719 
L 332.256267 423.829547 
" style="fill:none;stroke:#64b5cd;stroke-width:0.5;"/>
    <path clip-path="url(#pb306458ee0)" d="M 833.739713 254.466297 
L 833.739713 176.897657 
" style="fill:none;stroke:#64b5cd;stroke-width:0.5;"/>
    <path clip-path="url(#pb306458ee0)" d="M 491.524284 416.794 
L 491.524284 335.892035 
" style="fill:none;stroke:#64b5cd;stroke-width:0.5;"/>
   </g>
   <g id="LineCollection_2">
    <path clip-path="url(#pb306458ee0)" d="M 937.150403 270.43529 
L 937.150403 185.748962 
" style="fill:none;stroke:#8172b3;stroke-width:0.5;"/>
    <path clip-path="url(#pb306458ee0)" d="M 717.243905 342.191862 
L 717.243905 252.920832 
" style="fill:none;stroke:#8172b3;stroke-width:0.5;"/>
    <path clip-path="url(#pb306458ee0)" d="M 828.798655 275.165535 
L 828.798655 193.120651 
" style="fill:none;stroke:#8172b3;stroke-width:0.5;"/>
    <path clip-path="url(#pb306458ee0)" d="M 539.979275 465.699541 
L 539.979275 371.114089 
" style="fill:none;stroke:#8172b3;stroke-width:0.5;"/>
    <path clip-path="url(#pb306458ee0)" d="M 874.741112 358.791145 
L 874.741112 262.238791 
" style="fill:none;stroke:#8172b3;stroke-width:0.5;"/>
    <path clip-path="url(#pb306458ee0)" d="M 407.329799 489.794291 
L 407.329799 390.102968 
" style="fill:none;stroke:#8172b3;stroke-width:0.5;"/>
    <path clip-path="url(#pb306458ee0)" d="M 824.538728 315.313351 
L 824.538728 227.307415 
" style="fill:none;stroke:#8172b3;stroke-width:0.5;"/>
    <path clip-path="url(#pb306458ee0)" d="M 678.835522 323.176497 
L 678.835522 232.172582 
" style="fill:none;stroke:#8172b3;stroke-width:0.5;"/>
    <path clip-path="url(#pb306458ee0)" d="M 335.980769 472.760817 
L 335.980769 390.144107 
" style="fill:none;stroke:#8172b3;stroke-width:0.5;"/>
    <path clip-path="url(#pb306458ee0)" d="M 736.298804 318.737039 
L 736.298804 235.245649 
" style="fill:none;stroke:#8172b3;stroke-width:0.5;"/>
    <path clip-path="url(#pb306458ee0)" d="M 442.170184 478.77976 
L 442.170184 396.048493 
" style="fill:none;stroke:#8172b3;stroke-width:0.5;"/>
    <path clip-path="url(#pb306458ee0)" d="M 396.502174 448.022467 
L 396.502174 356.01574 
" style="fill:none;stroke:#8172b3;stroke-width:0.5;"/>
    <path clip-path="url(#pb306458ee0)" d="M 739.39336 300.303195 
L 739.39336 211.235203 
" style="fill:none;stroke:#8172b3;stroke-width:0.5;"/>
    <path clip-path="url(#pb306458ee0)" d="M 693.099786 328.544423 
L 693.099786 238.367719 
" style="fill:none;stroke:#8172b3;stroke-width:0.5;"/>
    <path clip-path="url(#pb306458ee0)" d="M 773.728848 331.745152 
L 773.728848 219.401612 
" style="fill:none;stroke:#8172b3;stroke-width:0.5;"/>
    <path clip-path="url(#pb306458ee0)" d="M 703.802499 359.411715 
L 703.802499 264.163356 
" style="fill:none;stroke:#8172b3;stroke-width:0.5;"/>
    <path clip-path="url(#pb306458ee0)" d="M 210.23895 598.843436 
L 210.23895 515.008549 
" style="fill:none;stroke:#8172b3;stroke-width:0.5;"/>
    <path clip-path="url(#pb306458ee0)" d="M 648.623746 398.274364 
L 648.623746 309.4497 
" style="fill:none;stroke:#8172b3;stroke-width:0.5;"/>
    <path clip-path="url(#pb306458ee0)" d="M 667.17139 328.228727 
L 667.17139 244.392695 
" style="fill:none;stroke:#8172b3;stroke-width:0.5;"/>
    <path clip-path="url(#pb306458ee0)" d="M 596.47364 384.052731 
L 596.47364 295.560182 
" style="fill:none;stroke:#8172b3;stroke-width:0.5;"/>
    <path clip-path="url(#pb306458ee0)" d="M 785.970736 303.795532 
L 785.970736 223.559448 
" style="fill:none;stroke:#8172b3;stroke-width:0.5;"/>
    <path clip-path="url(#pb306458ee0)" d="M 594.66491 400.077639 
L 594.66491 304.420888 
" style="fill:none;stroke:#8172b3;stroke-width:0.5;"/>
    <path clip-path="url(#pb306458ee0)" d="M 731.621688 369.574307 
L 731.621688 281.726149 
" style="fill:none;stroke:#8172b3;stroke-width:0.5;"/>
    <path clip-path="url(#pb306458ee0)" d="M 414.656334 488.044124 
L 414.656334 392.935119 
" style="fill:none;stroke:#8172b3;stroke-width:0.5;"/>
    <path clip-path="url(#pb306458ee0)" d="M 853.415419 318.765545 
L 853.415419 234.094325 
" style="fill:none;stroke:#8172b3;stroke-width:0.5;"/>
    <path clip-path="url(#pb306458ee0)" d="M 453.862821 429.173552 
L 453.862821 333.644481 
" style="fill:none;stroke:#8172b3;stroke-width:0.5;"/>
    <path clip-path="url(#pb306458ee0)" d="M 827.650268 313.633464 
L 827.650268 228.478695 
" style="fill:none;stroke:#8172b3;stroke-width:0.5;"/>
    <path clip-path="url(#pb306458ee0)" d="M 696.850664 346.88276 
L 696.850664 257.879854 
" style="fill:none;stroke:#8172b3;stroke-width:0.5;"/>
    <path clip-path="url(#pb306458ee0)" d="M 803.137365 255.114446 
L 803.137365 170.784204 
" style="fill:none;stroke:#8172b3;stroke-width:0.5;"/>
    <path clip-path="url(#pb306458ee0)" d="M 743.191528 279.313867 
L 743.191528 196.945262 
" style="fill:none;stroke:#8172b3;stroke-width:0.5;"/>
    <path clip-path="url(#pb306458ee0)" d="M 651.146251 362.25734 
L 651.146251 271.356321 
" style="fill:none;stroke:#8172b3;stroke-width:0.5;"/>
    <path clip-path="url(#pb306458ee0)" d="M 777.37171 326.687417 
L 777.37171 223.419879 
" style="fill:none;stroke:#8172b3;stroke-width:0.5;"/>
   </g>
   <g id="line2d_14">
    <path clip-path="url(#pb306458ee0)" d="M 144 565.179681 
L 1036.8 121.978822 
" style="fill:none;stroke:#c44e52;stroke-linecap:round;stroke-width:1.5;"/>
   </g>
   <g id="line2d_15">
    <defs>
     <path d="M 0 3 
C 0.795609 3 1.55874 2.683901 2.12132 2.12132 
C 2.683901 1.55874 3 0.795609 3 0 
C 3 -0.795609 2.683901 -1.55874 2.12132 -2.12132 
C 1.55874 -2.683901 0.795609 -3 0 -3 
C -0.795609 -3 -1.55874 -2.683901 -2.12132 -2.12132 
C -2.683901 -1.55874 -3 -0.795609 -3 0 
C -3 0.795609 -2.683901 1.55874 -2.12132 2.12132 
C -1.55874 2.683901 -0.795609 3 0 3 
z
" id="m1df5fae73c" style="stroke:#64b5cd;"/>
    </defs>
    <g clip-path="url(#pb306458ee0)">
     <use style="fill:#64b5cd;stroke:#64b5cd;" x="181.658417" xlink:href="#m1df5fae73c" y="540.217097"/>
     <use style="fill:#64b5cd;stroke:#64b5cd;" x="579.375455" xlink:href="#m1df5fae73c" y="345.405398"/>
     <use style="fill:#64b5cd;stroke:#64b5cd;" x="617.420749" xlink:href="#m1df5fae73c" y="332.858532"/>
     <use style="fill:#64b5cd;stroke:#64b5cd;" x="618.902365" xlink:href="#m1df5fae73c" y="344.550415"/>
     <use style="fill:#64b5cd;stroke:#64b5cd;" x="743.316065" xlink:href="#m1df5fae73c" y="254.675779"/>
     <use style="fill:#64b5cd;stroke:#64b5cd;" x="920.359976" xlink:href="#m1df5fae73c" y="167.653181"/>
     <use style="fill:#64b5cd;stroke:#64b5cd;" x="652.09561" xlink:href="#m1df5fae73c" y="323.806362"/>
     <use style="fill:#64b5cd;stroke:#64b5cd;" x="857.744476" xlink:href="#m1df5fae73c" y="229.597876"/>
     <use style="fill:#64b5cd;stroke:#64b5cd;" x="544.382451" xlink:href="#m1df5fae73c" y="372.328975"/>
     <use style="fill:#64b5cd;stroke:#64b5cd;" x="242.734253" xlink:href="#m1df5fae73c" y="520.261377"/>
     <use style="fill:#64b5cd;stroke:#64b5cd;" x="832.703567" xlink:href="#m1df5fae73c" y="218.065691"/>
     <use style="fill:#64b5cd;stroke:#64b5cd;" x="794.058554" xlink:href="#m1df5fae73c" y="255.633392"/>
     <use style="fill:#64b5cd;stroke:#64b5cd;" x="485.465096" xlink:href="#m1df5fae73c" y="377.25202"/>
     <use style="fill:#64b5cd;stroke:#64b5cd;" x="144" xlink:href="#m1df5fae73c" y="565.025474"/>
     <use style="fill:#64b5cd;stroke:#64b5cd;" x="542.046925" xlink:href="#m1df5fae73c" y="377.642085"/>
     <use style="fill:#64b5cd;stroke:#64b5cd;" x="521.175178" xlink:href="#m1df5fae73c" y="381.398773"/>
     <use style="fill:#64b5cd;stroke:#64b5cd;" x="1036.8" xlink:href="#m1df5fae73c" y="153.169646"/>
     <use style="fill:#64b5cd;stroke:#64b5cd;" x="485.68096" xlink:href="#m1df5fae73c" y="382.404087"/>
     <use style="fill:#64b5cd;stroke:#64b5cd;" x="579.523619" xlink:href="#m1df5fae73c" y="346.5586"/>
     <use style="fill:#64b5cd;stroke:#64b5cd;" x="260.448894" xlink:href="#m1df5fae73c" y="531.168449"/>
     <use style="fill:#64b5cd;stroke:#64b5cd;" x="880.749447" xlink:href="#m1df5fae73c" y="204.918939"/>
     <use style="fill:#64b5cd;stroke:#64b5cd;" x="579.286717" xlink:href="#m1df5fae73c" y="351.293121"/>
     <use style="fill:#64b5cd;stroke:#64b5cd;" x="762.147224" xlink:href="#m1df5fae73c" y="269.087576"/>
     <use style="fill:#64b5cd;stroke:#64b5cd;" x="636.265518" xlink:href="#m1df5fae73c" y="344.251066"/>
     <use style="fill:#64b5cd;stroke:#64b5cd;" x="217.360936" xlink:href="#m1df5fae73c" y="537.469724"/>
     <use style="fill:#64b5cd;stroke:#64b5cd;" x="635.41682" xlink:href="#m1df5fae73c" y="328.480331"/>
     <use style="fill:#64b5cd;stroke:#64b5cd;" x="882.749014" xlink:href="#m1df5fae73c" y="216.758022"/>
     <use style="fill:#64b5cd;stroke:#64b5cd;" x="832.525435" xlink:href="#m1df5fae73c" y="219.357732"/>
     <use style="fill:#64b5cd;stroke:#64b5cd;" x="502.477977" xlink:href="#m1df5fae73c" y="391.316552"/>
     <use style="fill:#64b5cd;stroke:#64b5cd;" x="305.930224" xlink:href="#m1df5fae73c" y="478.530517"/>
     <use style="fill:#64b5cd;stroke:#64b5cd;" x="469.56032" xlink:href="#m1df5fae73c" y="415.560161"/>
     <use style="fill:#64b5cd;stroke:#64b5cd;" x="806.923969" xlink:href="#m1df5fae73c" y="225.398581"/>
     <use style="fill:#64b5cd;stroke:#64b5cd;" x="859.528239" xlink:href="#m1df5fae73c" y="220.644125"/>
     <use style="fill:#64b5cd;stroke:#64b5cd;" x="636.871376" xlink:href="#m1df5fae73c" y="290.748904"/>
     <use style="fill:#64b5cd;stroke:#64b5cd;" x="420.12978" xlink:href="#m1df5fae73c" y="403.885388"/>
     <use style="fill:#64b5cd;stroke:#64b5cd;" x="876.888695" xlink:href="#m1df5fae73c" y="218.429023"/>
     <use style="fill:#64b5cd;stroke:#64b5cd;" x="789.280807" xlink:href="#m1df5fae73c" y="261.852998"/>
     <use style="fill:#64b5cd;stroke:#64b5cd;" x="741.065429" xlink:href="#m1df5fae73c" y="270.378938"/>
     <use style="fill:#64b5cd;stroke:#64b5cd;" x="294.687111" xlink:href="#m1df5fae73c" y="490.345366"/>
     <use style="fill:#64b5cd;stroke:#64b5cd;" x="684.62327" xlink:href="#m1df5fae73c" y="294.977848"/>
     <use style="fill:#64b5cd;stroke:#64b5cd;" x="873.884497" xlink:href="#m1df5fae73c" y="211.803702"/>
     <use style="fill:#64b5cd;stroke:#64b5cd;" x="247.934563" xlink:href="#m1df5fae73c" y="521.39589"/>
     <use style="fill:#64b5cd;stroke:#64b5cd;" x="872.454257" xlink:href="#m1df5fae73c" y="202.936916"/>
     <use style="fill:#64b5cd;stroke:#64b5cd;" x="488.089098" xlink:href="#m1df5fae73c" y="395.829234"/>
     <use style="fill:#64b5cd;stroke:#64b5cd;" x="868.579956" xlink:href="#m1df5fae73c" y="199.028582"/>
     <use style="fill:#64b5cd;stroke:#64b5cd;" x="918.148669" xlink:href="#m1df5fae73c" y="197.177162"/>
     <use style="fill:#64b5cd;stroke:#64b5cd;" x="796.66592" xlink:href="#m1df5fae73c" y="252.59512"/>
     <use style="fill:#64b5cd;stroke:#64b5cd;" x="766.312225" xlink:href="#m1df5fae73c" y="258.340072"/>
     <use style="fill:#64b5cd;stroke:#64b5cd;" x="875.5181" xlink:href="#m1df5fae73c" y="195.530887"/>
     <use style="fill:#64b5cd;stroke:#64b5cd;" x="688.398165" xlink:href="#m1df5fae73c" y="276.470586"/>
     <use style="fill:#64b5cd;stroke:#64b5cd;" x="555.822959" xlink:href="#m1df5fae73c" y="351.055462"/>
     <use style="fill:#64b5cd;stroke:#64b5cd;" x="790.565253" xlink:href="#m1df5fae73c" y="247.439212"/>
     <use style="fill:#64b5cd;stroke:#64b5cd;" x="731.451016" xlink:href="#m1df5fae73c" y="284.34655"/>
     <use style="fill:#64b5cd;stroke:#64b5cd;" x="860.892152" xlink:href="#m1df5fae73c" y="206.885089"/>
     <use style="fill:#64b5cd;stroke:#64b5cd;" x="754.315622" xlink:href="#m1df5fae73c" y="246.439921"/>
     <use style="fill:#64b5cd;stroke:#64b5cd;" x="516.933598" xlink:href="#m1df5fae73c" y="371.392691"/>
     <use style="fill:#64b5cd;stroke:#64b5cd;" x="875.970611" xlink:href="#m1df5fae73c" y="211.602277"/>
     <use style="fill:#64b5cd;stroke:#64b5cd;" x="901.918414" xlink:href="#m1df5fae73c" y="195.465495"/>
     <use style="fill:#64b5cd;stroke:#64b5cd;" x="831.682905" xlink:href="#m1df5fae73c" y="236.596463"/>
     <use style="fill:#64b5cd;stroke:#64b5cd;" x="447.223692" xlink:href="#m1df5fae73c" y="404.615017"/>
     <use style="fill:#64b5cd;stroke:#64b5cd;" x="836.786328" xlink:href="#m1df5fae73c" y="206.131974"/>
     <use style="fill:#64b5cd;stroke:#64b5cd;" x="790.487481" xlink:href="#m1df5fae73c" y="241.707423"/>
     <use style="fill:#64b5cd;stroke:#64b5cd;" x="476.913661" xlink:href="#m1df5fae73c" y="393.455359"/>
     <use style="fill:#64b5cd;stroke:#64b5cd;" x="729.464326" xlink:href="#m1df5fae73c" y="282.695195"/>
     <use style="fill:#64b5cd;stroke:#64b5cd;" x="500.901985" xlink:href="#m1df5fae73c" y="382.624893"/>
     <use style="fill:#64b5cd;stroke:#64b5cd;" x="905.797054" xlink:href="#m1df5fae73c" y="205.371514"/>
     <use style="fill:#64b5cd;stroke:#64b5cd;" x="220.045737" xlink:href="#m1df5fae73c" y="531.570823"/>
     <use style="fill:#64b5cd;stroke:#64b5cd;" x="651.445915" xlink:href="#m1df5fae73c" y="303.695829"/>
     <use style="fill:#64b5cd;stroke:#64b5cd;" x="826.432184" xlink:href="#m1df5fae73c" y="235.313346"/>
     <use style="fill:#64b5cd;stroke:#64b5cd;" x="541.020772" xlink:href="#m1df5fae73c" y="353.881893"/>
     <use style="fill:#64b5cd;stroke:#64b5cd;" x="733.059242" xlink:href="#m1df5fae73c" y="275.933037"/>
     <use style="fill:#64b5cd;stroke:#64b5cd;" x="462.985617" xlink:href="#m1df5fae73c" y="396.970158"/>
     <use style="fill:#64b5cd;stroke:#64b5cd;" x="879.353855" xlink:href="#m1df5fae73c" y="201.322239"/>
     <use style="fill:#64b5cd;stroke:#64b5cd;" x="785.127022" xlink:href="#m1df5fae73c" y="265.475804"/>
     <use style="fill:#64b5cd;stroke:#64b5cd;" x="836.745175" xlink:href="#m1df5fae73c" y="213.875106"/>
     <use style="fill:#64b5cd;stroke:#64b5cd;" x="489.96849" xlink:href="#m1df5fae73c" y="377.776501"/>
     <use style="fill:#64b5cd;stroke:#64b5cd;" x="758.0656" xlink:href="#m1df5fae73c" y="223.395684"/>
     <use style="fill:#64b5cd;stroke:#64b5cd;" x="196.740981" xlink:href="#m1df5fae73c" y="521.235975"/>
     <use style="fill:#64b5cd;stroke:#64b5cd;" x="687.89472" xlink:href="#m1df5fae73c" y="291.868113"/>
     <use style="fill:#64b5cd;stroke:#64b5cd;" x="574.979832" xlink:href="#m1df5fae73c" y="355.129281"/>
     <use style="fill:#64b5cd;stroke:#64b5cd;" x="890.959758" xlink:href="#m1df5fae73c" y="182.07165"/>
     <use style="fill:#64b5cd;stroke:#64b5cd;" x="628.689248" xlink:href="#m1df5fae73c" y="331.108036"/>
     <use style="fill:#64b5cd;stroke:#64b5cd;" x="369.665722" xlink:href="#m1df5fae73c" y="460.436265"/>
     <use style="fill:#64b5cd;stroke:#64b5cd;" x="700.63953" xlink:href="#m1df5fae73c" y="295.763576"/>
     <use style="fill:#64b5cd;stroke:#64b5cd;" x="523.815308" xlink:href="#m1df5fae73c" y="370.586945"/>
     <use style="fill:#64b5cd;stroke:#64b5cd;" x="280.502257" xlink:href="#m1df5fae73c" y="471.248141"/>
     <use style="fill:#64b5cd;stroke:#64b5cd;" x="825.442678" xlink:href="#m1df5fae73c" y="237.726323"/>
     <use style="fill:#64b5cd;stroke:#64b5cd;" x="746.159878" xlink:href="#m1df5fae73c" y="259.152743"/>
     <use style="fill:#64b5cd;stroke:#64b5cd;" x="775.520636" xlink:href="#m1df5fae73c" y="265.631218"/>
     <use style="fill:#64b5cd;stroke:#64b5cd;" x="706.353389" xlink:href="#m1df5fae73c" y="284.135566"/>
     <use style="fill:#64b5cd;stroke:#64b5cd;" x="575.344656" xlink:href="#m1df5fae73c" y="369.643278"/>
     <use style="fill:#64b5cd;stroke:#64b5cd;" x="347.37566" xlink:href="#m1df5fae73c" y="442.615711"/>
     <use style="fill:#64b5cd;stroke:#64b5cd;" x="492.245395" xlink:href="#m1df5fae73c" y="387.406515"/>
     <use style="fill:#64b5cd;stroke:#64b5cd;" x="332.256267" xlink:href="#m1df5fae73c" y="464.561633"/>
     <use style="fill:#64b5cd;stroke:#64b5cd;" x="833.739713" xlink:href="#m1df5fae73c" y="215.681977"/>
     <use style="fill:#64b5cd;stroke:#64b5cd;" x="491.524284" xlink:href="#m1df5fae73c" y="376.343018"/>
    </g>
   </g>
   <g id="line2d_16">
    <defs>
     <path d="M 0 3 
C 0.795609 3 1.55874 2.683901 2.12132 2.12132 
C 2.683901 1.55874 3 0.795609 3 0 
C 3 -0.795609 2.683901 -1.55874 2.12132 -2.12132 
C 1.55874 -2.683901 0.795609 -3 0 -3 
C -0.795609 -3 -1.55874 -2.683901 -2.12132 -2.12132 
C -2.683901 -1.55874 -3 -0.795609 -3 0 
C -3 0.795609 -2.683901 1.55874 -2.12132 2.12132 
C -1.55874 2.683901 -0.795609 3 0 3 
z
" id="m57621aa910" style="stroke:#8172b3;"/>
    </defs>
    <g clip-path="url(#pb306458ee0)">
     <use style="fill:#8172b3;stroke:#8172b3;" x="937.150403" xlink:href="#m57621aa910" y="228.092126"/>
     <use style="fill:#8172b3;stroke:#8172b3;" x="717.243905" xlink:href="#m57621aa910" y="297.556347"/>
     <use style="fill:#8172b3;stroke:#8172b3;" x="828.798655" xlink:href="#m57621aa910" y="234.143093"/>
     <use style="fill:#8172b3;stroke:#8172b3;" x="539.979275" xlink:href="#m57621aa910" y="418.406815"/>
     <use style="fill:#8172b3;stroke:#8172b3;" x="874.741112" xlink:href="#m57621aa910" y="310.514968"/>
     <use style="fill:#8172b3;stroke:#8172b3;" x="407.329799" xlink:href="#m57621aa910" y="439.94863"/>
     <use style="fill:#8172b3;stroke:#8172b3;" x="824.538728" xlink:href="#m57621aa910" y="271.310383"/>
     <use style="fill:#8172b3;stroke:#8172b3;" x="678.835522" xlink:href="#m57621aa910" y="277.674539"/>
     <use style="fill:#8172b3;stroke:#8172b3;" x="335.980769" xlink:href="#m57621aa910" y="431.452462"/>
     <use style="fill:#8172b3;stroke:#8172b3;" x="736.298804" xlink:href="#m57621aa910" y="276.991344"/>
     <use style="fill:#8172b3;stroke:#8172b3;" x="442.170184" xlink:href="#m57621aa910" y="437.414126"/>
     <use style="fill:#8172b3;stroke:#8172b3;" x="396.502174" xlink:href="#m57621aa910" y="402.019103"/>
     <use style="fill:#8172b3;stroke:#8172b3;" x="739.39336" xlink:href="#m57621aa910" y="255.769199"/>
     <use style="fill:#8172b3;stroke:#8172b3;" x="693.099786" xlink:href="#m57621aa910" y="283.456071"/>
     <use style="fill:#8172b3;stroke:#8172b3;" x="773.728848" xlink:href="#m57621aa910" y="275.573382"/>
     <use style="fill:#8172b3;stroke:#8172b3;" x="703.802499" xlink:href="#m57621aa910" y="311.787536"/>
     <use style="fill:#8172b3;stroke:#8172b3;" x="210.23895" xlink:href="#m57621aa910" y="556.925992"/>
     <use style="fill:#8172b3;stroke:#8172b3;" x="648.623746" xlink:href="#m57621aa910" y="353.862032"/>
     <use style="fill:#8172b3;stroke:#8172b3;" x="667.17139" xlink:href="#m57621aa910" y="286.310711"/>
     <use style="fill:#8172b3;stroke:#8172b3;" x="596.47364" xlink:href="#m57621aa910" y="339.806457"/>
     <use style="fill:#8172b3;stroke:#8172b3;" x="785.970736" xlink:href="#m57621aa910" y="263.67749"/>
     <use style="fill:#8172b3;stroke:#8172b3;" x="594.66491" xlink:href="#m57621aa910" y="352.249264"/>
     <use style="fill:#8172b3;stroke:#8172b3;" x="731.621688" xlink:href="#m57621aa910" y="325.650228"/>
     <use style="fill:#8172b3;stroke:#8172b3;" x="414.656334" xlink:href="#m57621aa910" y="440.489621"/>
     <use style="fill:#8172b3;stroke:#8172b3;" x="853.415419" xlink:href="#m57621aa910" y="276.429935"/>
     <use style="fill:#8172b3;stroke:#8172b3;" x="453.862821" xlink:href="#m57621aa910" y="381.409017"/>
     <use style="fill:#8172b3;stroke:#8172b3;" x="827.650268" xlink:href="#m57621aa910" y="271.056079"/>
     <use style="fill:#8172b3;stroke:#8172b3;" x="696.850664" xlink:href="#m57621aa910" y="302.381307"/>
     <use style="fill:#8172b3;stroke:#8172b3;" x="803.137365" xlink:href="#m57621aa910" y="212.949325"/>
     <use style="fill:#8172b3;stroke:#8172b3;" x="743.191528" xlink:href="#m57621aa910" y="238.129564"/>
     <use style="fill:#8172b3;stroke:#8172b3;" x="651.146251" xlink:href="#m57621aa910" y="316.806831"/>
     <use style="fill:#8172b3;stroke:#8172b3;" x="777.37171" xlink:href="#m57621aa910" y="275.053648"/>
    </g>
   </g>
   <g id="patch_3">
    <path d="M 144 630 
L 144 86.4 
" style="fill:none;stroke:#cccccc;stroke-linecap:square;stroke-linejoin:miter;stroke-width:1.25;"/>
   </g>
   <g id="patch_4">
    <path d="M 1036.8 630 
L 1036.8 86.4 
" style="fill:none;stroke:#cccccc;stroke-linecap:square;stroke-linejoin:miter;stroke-width:1.25;"/>
   </g>
   <g id="patch_5">
    <path d="M 144 630 
L 1036.8 630 
" style="fill:none;stroke:#cccccc;stroke-linecap:square;stroke-linejoin:miter;stroke-width:1.25;"/>
   </g>
   <g id="patch_6">
    <path d="M 144 86.4 
L 1036.8 86.4 
" style="fill:none;stroke:#cccccc;stroke-linecap:square;stroke-linejoin:miter;stroke-width:1.25;"/>
   </g>
  </g>
 </g>
 <defs>
  <clipPath id="pb306458ee0">
   <rect height="543.6" width="892.8" x="144" y="86.4"/>
  </clipPath>
 </defs>
</svg>
