<?xml version="1.0" encoding="utf-8" standalone="no"?>
<!DOCTYPE svg PUBLIC "-//W3C//DTD SVG 1.1//EN"
  "http://www.w3.org/Graphics/SVG/1.1/DTD/svg11.dtd">
<!-- Created with matplotlib (https://matplotlib.org/) -->
<svg height="720pt" version="1.1" viewBox="0 0 1152 720" width="1152pt" xmlns="http://www.w3.org/2000/svg" xmlns:xlink="http://www.w3.org/1999/xlink">
 <defs>
  <style type="text/css">
*{stroke-linecap:butt;stroke-linejoin:round;}
  </style>
 </defs>
 <g id="figure_1">
  <g id="patch_1">
   <path d="M 0 720 
L 1152 720 
L 1152 0 
L 0 0 
z
" style="fill:#ffffff;"/>
  </g>
  <g id="axes_1">
   <g id="patch_2">
    <path d="M 144 630 
L 1036.8 630 
L 1036.8 86.4 
L 144 86.4 
z
" style="fill:#ffffff;"/>
   </g>
   <g id="matplotlib.axis_1">
    <g id="xtick_1">
     <g id="line2d_1">
      <path clip-path="url(#p49132ce19f)" d="M 144 630 
L 144 86.4 
" style="fill:none;stroke:#cccccc;stroke-linecap:round;"/>
     </g>
     <g id="text_1">
      <!-- 0.0 -->
      <defs>
       <path d="M 4.15625 35.296875 
Q 4.15625 48 6.765625 55.734375 
Q 9.375 63.484375 14.515625 67.671875 
Q 19.671875 71.875 27.484375 71.875 
Q 33.25 71.875 37.59375 69.546875 
Q 41.9375 67.234375 44.765625 62.859375 
Q 47.609375 58.5 49.21875 52.21875 
Q 50.828125 45.953125 50.828125 35.296875 
Q 50.828125 22.703125 48.234375 14.96875 
Q 45.65625 7.234375 40.5 3 
Q 35.359375 -1.21875 27.484375 -1.21875 
Q 17.140625 -1.21875 11.234375 6.203125 
Q 4.15625 15.140625 4.15625 35.296875 
z
M 13.1875 35.296875 
Q 13.1875 17.671875 17.3125 11.828125 
Q 21.4375 6 27.484375 6 
Q 33.546875 6 37.671875 11.859375 
Q 41.796875 17.71875 41.796875 35.296875 
Q 41.796875 52.984375 37.671875 58.78125 
Q 33.546875 64.59375 27.390625 64.59375 
Q 21.34375 64.59375 17.71875 59.46875 
Q 13.1875 52.9375 13.1875 35.296875 
z
" id="ArialMT-48"/>
       <path d="M 9.078125 0 
L 9.078125 10.015625 
L 19.09375 10.015625 
L 19.09375 0 
z
" id="ArialMT-46"/>
      </defs>
      <g style="fill:#262626;" transform="translate(128.71 655.247187)scale(0.22 -0.22)">
       <use xlink:href="#ArialMT-48"/>
       <use x="55.615234" xlink:href="#ArialMT-46"/>
       <use x="83.398438" xlink:href="#ArialMT-48"/>
      </g>
     </g>
    </g>
    <g id="xtick_2">
     <g id="line2d_2">
      <path clip-path="url(#p49132ce19f)" d="M 324.905066 630 
L 324.905066 86.4 
" style="fill:none;stroke:#cccccc;stroke-linecap:round;"/>
     </g>
     <g id="text_2">
      <!-- 0.2 -->
      <defs>
       <path d="M 50.34375 8.453125 
L 50.34375 0 
L 3.03125 0 
Q 2.9375 3.171875 4.046875 6.109375 
Q 5.859375 10.9375 9.828125 15.625 
Q 13.8125 20.3125 21.34375 26.46875 
Q 33.015625 36.03125 37.109375 41.625 
Q 41.21875 47.21875 41.21875 52.203125 
Q 41.21875 57.421875 37.46875 61 
Q 33.734375 64.59375 27.734375 64.59375 
Q 21.390625 64.59375 17.578125 60.78125 
Q 13.765625 56.984375 13.71875 50.25 
L 4.6875 51.171875 
Q 5.609375 61.28125 11.65625 66.578125 
Q 17.71875 71.875 27.9375 71.875 
Q 38.234375 71.875 44.234375 66.15625 
Q 50.25 60.453125 50.25 52 
Q 50.25 47.703125 48.484375 43.546875 
Q 46.734375 39.40625 42.65625 34.8125 
Q 38.578125 30.21875 29.109375 22.21875 
Q 21.1875 15.578125 18.9375 13.203125 
Q 16.703125 10.84375 15.234375 8.453125 
z
" id="ArialMT-50"/>
      </defs>
      <g style="fill:#262626;" transform="translate(309.615066 655.247187)scale(0.22 -0.22)">
       <use xlink:href="#ArialMT-48"/>
       <use x="55.615234" xlink:href="#ArialMT-46"/>
       <use x="83.398438" xlink:href="#ArialMT-50"/>
      </g>
     </g>
    </g>
    <g id="xtick_3">
     <g id="line2d_3">
      <path clip-path="url(#p49132ce19f)" d="M 505.810131 630 
L 505.810131 86.4 
" style="fill:none;stroke:#cccccc;stroke-linecap:round;"/>
     </g>
     <g id="text_3">
      <!-- 0.4 -->
      <defs>
       <path d="M 32.328125 0 
L 32.328125 17.140625 
L 1.265625 17.140625 
L 1.265625 25.203125 
L 33.9375 71.578125 
L 41.109375 71.578125 
L 41.109375 25.203125 
L 50.78125 25.203125 
L 50.78125 17.140625 
L 41.109375 17.140625 
L 41.109375 0 
z
M 32.328125 25.203125 
L 32.328125 57.46875 
L 9.90625 25.203125 
z
" id="ArialMT-52"/>
      </defs>
      <g style="fill:#262626;" transform="translate(490.520131 655.247187)scale(0.22 -0.22)">
       <use xlink:href="#ArialMT-48"/>
       <use x="55.615234" xlink:href="#ArialMT-46"/>
       <use x="83.398438" xlink:href="#ArialMT-52"/>
      </g>
     </g>
    </g>
    <g id="xtick_4">
     <g id="line2d_4">
      <path clip-path="url(#p49132ce19f)" d="M 686.715197 630 
L 686.715197 86.4 
" style="fill:none;stroke:#cccccc;stroke-linecap:round;"/>
     </g>
     <g id="text_4">
      <!-- 0.6 -->
      <defs>
       <path d="M 49.75 54.046875 
L 41.015625 53.375 
Q 39.84375 58.546875 37.703125 60.890625 
Q 34.125 64.65625 28.90625 64.65625 
Q 24.703125 64.65625 21.53125 62.3125 
Q 17.390625 59.28125 14.984375 53.46875 
Q 12.59375 47.65625 12.5 36.921875 
Q 15.671875 41.75 20.265625 44.09375 
Q 24.859375 46.4375 29.890625 46.4375 
Q 38.671875 46.4375 44.84375 39.96875 
Q 51.03125 33.5 51.03125 23.25 
Q 51.03125 16.5 48.125 10.71875 
Q 45.21875 4.9375 40.140625 1.859375 
Q 35.0625 -1.21875 28.609375 -1.21875 
Q 17.625 -1.21875 10.6875 6.859375 
Q 3.765625 14.9375 3.765625 33.5 
Q 3.765625 54.25 11.421875 63.671875 
Q 18.109375 71.875 29.4375 71.875 
Q 37.890625 71.875 43.28125 67.140625 
Q 48.6875 62.40625 49.75 54.046875 
z
M 13.875 23.1875 
Q 13.875 18.65625 15.796875 14.5 
Q 17.71875 10.359375 21.1875 8.171875 
Q 24.65625 6 28.46875 6 
Q 34.03125 6 38.03125 10.484375 
Q 42.046875 14.984375 42.046875 22.703125 
Q 42.046875 30.125 38.078125 34.390625 
Q 34.125 38.671875 28.125 38.671875 
Q 22.171875 38.671875 18.015625 34.390625 
Q 13.875 30.125 13.875 23.1875 
z
" id="ArialMT-54"/>
      </defs>
      <g style="fill:#262626;" transform="translate(671.425197 655.247187)scale(0.22 -0.22)">
       <use xlink:href="#ArialMT-48"/>
       <use x="55.615234" xlink:href="#ArialMT-46"/>
       <use x="83.398438" xlink:href="#ArialMT-54"/>
      </g>
     </g>
    </g>
    <g id="xtick_5">
     <g id="line2d_5">
      <path clip-path="url(#p49132ce19f)" d="M 867.620263 630 
L 867.620263 86.4 
" style="fill:none;stroke:#cccccc;stroke-linecap:round;"/>
     </g>
     <g id="text_5">
      <!-- 0.8 -->
      <defs>
       <path d="M 17.671875 38.8125 
Q 12.203125 40.828125 9.5625 44.53125 
Q 6.9375 48.25 6.9375 53.421875 
Q 6.9375 61.234375 12.546875 66.546875 
Q 18.171875 71.875 27.484375 71.875 
Q 36.859375 71.875 42.578125 66.421875 
Q 48.296875 60.984375 48.296875 53.171875 
Q 48.296875 48.1875 45.671875 44.5 
Q 43.0625 40.828125 37.75 38.8125 
Q 44.34375 36.671875 47.78125 31.875 
Q 51.21875 27.09375 51.21875 20.453125 
Q 51.21875 11.28125 44.71875 5.03125 
Q 38.234375 -1.21875 27.640625 -1.21875 
Q 17.046875 -1.21875 10.546875 5.046875 
Q 4.046875 11.328125 4.046875 20.703125 
Q 4.046875 27.6875 7.59375 32.390625 
Q 11.140625 37.109375 17.671875 38.8125 
z
M 15.921875 53.71875 
Q 15.921875 48.640625 19.1875 45.40625 
Q 22.46875 42.1875 27.6875 42.1875 
Q 32.765625 42.1875 36.015625 45.375 
Q 39.265625 48.578125 39.265625 53.21875 
Q 39.265625 58.0625 35.90625 61.359375 
Q 32.5625 64.65625 27.59375 64.65625 
Q 22.5625 64.65625 19.234375 61.421875 
Q 15.921875 58.203125 15.921875 53.71875 
z
M 13.09375 20.65625 
Q 13.09375 16.890625 14.875 13.375 
Q 16.65625 9.859375 20.171875 7.921875 
Q 23.6875 6 27.734375 6 
Q 34.03125 6 38.125 10.046875 
Q 42.234375 14.109375 42.234375 20.359375 
Q 42.234375 26.703125 38.015625 30.859375 
Q 33.796875 35.015625 27.4375 35.015625 
Q 21.234375 35.015625 17.15625 30.90625 
Q 13.09375 26.8125 13.09375 20.65625 
z
" id="ArialMT-56"/>
      </defs>
      <g style="fill:#262626;" transform="translate(852.330263 655.247187)scale(0.22 -0.22)">
       <use xlink:href="#ArialMT-48"/>
       <use x="55.615234" xlink:href="#ArialMT-46"/>
       <use x="83.398438" xlink:href="#ArialMT-56"/>
      </g>
     </g>
    </g>
    <g id="text_6">
     <!-- Simulation Result -->
     <defs>
      <path d="M 4.5 23 
L 13.421875 23.78125 
Q 14.0625 18.40625 16.375 14.96875 
Q 18.703125 11.53125 23.578125 9.40625 
Q 28.46875 7.28125 34.578125 7.28125 
Q 39.984375 7.28125 44.140625 8.890625 
Q 48.296875 10.5 50.3125 13.296875 
Q 52.34375 16.109375 52.34375 19.4375 
Q 52.34375 22.796875 50.390625 25.3125 
Q 48.4375 27.828125 43.953125 29.546875 
Q 41.0625 30.671875 31.203125 33.03125 
Q 21.34375 35.40625 17.390625 37.5 
Q 12.25 40.1875 9.734375 44.15625 
Q 7.234375 48.140625 7.234375 53.078125 
Q 7.234375 58.5 10.296875 63.203125 
Q 13.375 67.921875 19.28125 70.359375 
Q 25.203125 72.796875 32.421875 72.796875 
Q 40.375 72.796875 46.453125 70.234375 
Q 52.546875 67.671875 55.8125 62.6875 
Q 59.078125 57.71875 59.328125 51.421875 
L 50.25 50.734375 
Q 49.515625 57.515625 45.28125 60.984375 
Q 41.0625 64.453125 32.8125 64.453125 
Q 24.21875 64.453125 20.28125 61.296875 
Q 16.359375 58.15625 16.359375 53.71875 
Q 16.359375 49.859375 19.140625 47.359375 
Q 21.875 44.875 33.421875 42.265625 
Q 44.96875 39.65625 49.265625 37.703125 
Q 55.515625 34.8125 58.484375 30.390625 
Q 61.46875 25.984375 61.46875 20.21875 
Q 61.46875 14.5 58.203125 9.4375 
Q 54.9375 4.390625 48.796875 1.578125 
Q 42.671875 -1.21875 35.015625 -1.21875 
Q 25.296875 -1.21875 18.71875 1.609375 
Q 12.15625 4.4375 8.421875 10.125 
Q 4.6875 15.828125 4.5 23 
z
" id="ArialMT-83"/>
      <path d="M 6.640625 61.46875 
L 6.640625 71.578125 
L 15.4375 71.578125 
L 15.4375 61.46875 
z
M 6.640625 0 
L 6.640625 51.859375 
L 15.4375 51.859375 
L 15.4375 0 
z
" id="ArialMT-105"/>
      <path d="M 6.59375 0 
L 6.59375 51.859375 
L 14.453125 51.859375 
L 14.453125 44.578125 
Q 16.890625 48.390625 20.9375 50.703125 
Q 25 53.03125 30.171875 53.03125 
Q 35.9375 53.03125 39.625 50.640625 
Q 43.3125 48.25 44.828125 43.953125 
Q 50.984375 53.03125 60.84375 53.03125 
Q 68.5625 53.03125 72.703125 48.75 
Q 76.859375 44.484375 76.859375 35.59375 
L 76.859375 0 
L 68.109375 0 
L 68.109375 32.671875 
Q 68.109375 37.9375 67.25 40.25 
Q 66.40625 42.578125 64.15625 43.984375 
Q 61.921875 45.40625 58.890625 45.40625 
Q 53.421875 45.40625 49.796875 41.765625 
Q 46.1875 38.140625 46.1875 30.125 
L 46.1875 0 
L 37.40625 0 
L 37.40625 33.6875 
Q 37.40625 39.546875 35.25 42.46875 
Q 33.109375 45.40625 28.21875 45.40625 
Q 24.515625 45.40625 21.359375 43.453125 
Q 18.21875 41.5 16.796875 37.734375 
Q 15.375 33.984375 15.375 26.90625 
L 15.375 0 
z
" id="ArialMT-109"/>
      <path d="M 40.578125 0 
L 40.578125 7.625 
Q 34.515625 -1.171875 24.125 -1.171875 
Q 19.53125 -1.171875 15.546875 0.578125 
Q 11.578125 2.34375 9.640625 5 
Q 7.71875 7.671875 6.9375 11.53125 
Q 6.390625 14.109375 6.390625 19.734375 
L 6.390625 51.859375 
L 15.1875 51.859375 
L 15.1875 23.09375 
Q 15.1875 16.21875 15.71875 13.8125 
Q 16.546875 10.359375 19.234375 8.375 
Q 21.921875 6.390625 25.875 6.390625 
Q 29.828125 6.390625 33.296875 8.421875 
Q 36.765625 10.453125 38.203125 13.9375 
Q 39.65625 17.4375 39.65625 24.078125 
L 39.65625 51.859375 
L 48.4375 51.859375 
L 48.4375 0 
z
" id="ArialMT-117"/>
      <path d="M 6.390625 0 
L 6.390625 71.578125 
L 15.1875 71.578125 
L 15.1875 0 
z
" id="ArialMT-108"/>
      <path d="M 40.4375 6.390625 
Q 35.546875 2.25 31.03125 0.53125 
Q 26.515625 -1.171875 21.34375 -1.171875 
Q 12.796875 -1.171875 8.203125 3 
Q 3.609375 7.171875 3.609375 13.671875 
Q 3.609375 17.484375 5.34375 20.625 
Q 7.078125 23.78125 9.890625 25.6875 
Q 12.703125 27.59375 16.21875 28.5625 
Q 18.796875 29.25 24.03125 29.890625 
Q 34.671875 31.15625 39.703125 32.90625 
Q 39.75 34.71875 39.75 35.203125 
Q 39.75 40.578125 37.25 42.78125 
Q 33.890625 45.75 27.25 45.75 
Q 21.046875 45.75 18.09375 43.578125 
Q 15.140625 41.40625 13.71875 35.890625 
L 5.125 37.0625 
Q 6.296875 42.578125 8.984375 45.96875 
Q 11.671875 49.359375 16.75 51.1875 
Q 21.828125 53.03125 28.515625 53.03125 
Q 35.15625 53.03125 39.296875 51.46875 
Q 43.453125 49.90625 45.40625 47.53125 
Q 47.359375 45.171875 48.140625 41.546875 
Q 48.578125 39.3125 48.578125 33.453125 
L 48.578125 21.734375 
Q 48.578125 9.46875 49.140625 6.21875 
Q 49.703125 2.984375 51.375 0 
L 42.1875 0 
Q 40.828125 2.734375 40.4375 6.390625 
z
M 39.703125 26.03125 
Q 34.90625 24.078125 25.34375 22.703125 
Q 19.921875 21.921875 17.671875 20.9375 
Q 15.4375 19.96875 14.203125 18.09375 
Q 12.984375 16.21875 12.984375 13.921875 
Q 12.984375 10.40625 15.640625 8.0625 
Q 18.3125 5.71875 23.4375 5.71875 
Q 28.515625 5.71875 32.46875 7.9375 
Q 36.421875 10.15625 38.28125 14.015625 
Q 39.703125 17 39.703125 22.796875 
z
" id="ArialMT-97"/>
      <path d="M 25.78125 7.859375 
L 27.046875 0.09375 
Q 23.34375 -0.6875 20.40625 -0.6875 
Q 15.625 -0.6875 12.984375 0.828125 
Q 10.359375 2.34375 9.28125 4.8125 
Q 8.203125 7.28125 8.203125 15.1875 
L 8.203125 45.015625 
L 1.765625 45.015625 
L 1.765625 51.859375 
L 8.203125 51.859375 
L 8.203125 64.703125 
L 16.9375 69.96875 
L 16.9375 51.859375 
L 25.78125 51.859375 
L 25.78125 45.015625 
L 16.9375 45.015625 
L 16.9375 14.703125 
Q 16.9375 10.9375 17.40625 9.859375 
Q 17.875 8.796875 18.921875 8.15625 
Q 19.96875 7.515625 21.921875 7.515625 
Q 23.390625 7.515625 25.78125 7.859375 
z
" id="ArialMT-116"/>
      <path d="M 3.328125 25.921875 
Q 3.328125 40.328125 11.328125 47.265625 
Q 18.015625 53.03125 27.640625 53.03125 
Q 38.328125 53.03125 45.109375 46.015625 
Q 51.90625 39.015625 51.90625 26.65625 
Q 51.90625 16.65625 48.90625 10.90625 
Q 45.90625 5.171875 40.15625 2 
Q 34.421875 -1.171875 27.640625 -1.171875 
Q 16.75 -1.171875 10.03125 5.8125 
Q 3.328125 12.796875 3.328125 25.921875 
z
M 12.359375 25.921875 
Q 12.359375 15.96875 16.703125 11.015625 
Q 21.046875 6.0625 27.640625 6.0625 
Q 34.1875 6.0625 38.53125 11.03125 
Q 42.875 16.015625 42.875 26.21875 
Q 42.875 35.84375 38.5 40.796875 
Q 34.125 45.75 27.640625 45.75 
Q 21.046875 45.75 16.703125 40.8125 
Q 12.359375 35.890625 12.359375 25.921875 
z
" id="ArialMT-111"/>
      <path d="M 6.59375 0 
L 6.59375 51.859375 
L 14.5 51.859375 
L 14.5 44.484375 
Q 20.21875 53.03125 31 53.03125 
Q 35.6875 53.03125 39.625 51.34375 
Q 43.5625 49.65625 45.515625 46.921875 
Q 47.46875 44.1875 48.25 40.4375 
Q 48.734375 37.984375 48.734375 31.890625 
L 48.734375 0 
L 39.9375 0 
L 39.9375 31.546875 
Q 39.9375 36.921875 38.90625 39.578125 
Q 37.890625 42.234375 35.28125 43.8125 
Q 32.671875 45.40625 29.15625 45.40625 
Q 23.53125 45.40625 19.453125 41.84375 
Q 15.375 38.28125 15.375 28.328125 
L 15.375 0 
z
" id="ArialMT-110"/>
      <path id="ArialMT-32"/>
      <path d="M 7.859375 0 
L 7.859375 71.578125 
L 39.59375 71.578125 
Q 49.171875 71.578125 54.140625 69.640625 
Q 59.125 67.71875 62.109375 62.828125 
Q 65.09375 57.953125 65.09375 52.046875 
Q 65.09375 44.4375 60.15625 39.203125 
Q 55.21875 33.984375 44.921875 32.5625 
Q 48.6875 30.765625 50.640625 29 
Q 54.78125 25.203125 58.5 19.484375 
L 70.953125 0 
L 59.03125 0 
L 49.5625 14.890625 
Q 45.40625 21.34375 42.71875 24.75 
Q 40.046875 28.171875 37.921875 29.53125 
Q 35.796875 30.90625 33.59375 31.453125 
Q 31.984375 31.78125 28.328125 31.78125 
L 17.328125 31.78125 
L 17.328125 0 
z
M 17.328125 39.984375 
L 37.703125 39.984375 
Q 44.1875 39.984375 47.84375 41.328125 
Q 51.515625 42.671875 53.421875 45.625 
Q 55.328125 48.578125 55.328125 52.046875 
Q 55.328125 57.125 51.640625 60.390625 
Q 47.953125 63.671875 39.984375 63.671875 
L 17.328125 63.671875 
z
" id="ArialMT-82"/>
      <path d="M 42.09375 16.703125 
L 51.171875 15.578125 
Q 49.03125 7.625 43.21875 3.21875 
Q 37.40625 -1.171875 28.375 -1.171875 
Q 17 -1.171875 10.328125 5.828125 
Q 3.65625 12.84375 3.65625 25.484375 
Q 3.65625 38.578125 10.390625 45.796875 
Q 17.140625 53.03125 27.875 53.03125 
Q 38.28125 53.03125 44.875 45.953125 
Q 51.46875 38.875 51.46875 26.03125 
Q 51.46875 25.25 51.421875 23.6875 
L 12.75 23.6875 
Q 13.234375 15.140625 17.578125 10.59375 
Q 21.921875 6.0625 28.421875 6.0625 
Q 33.25 6.0625 36.671875 8.59375 
Q 40.09375 11.140625 42.09375 16.703125 
z
M 13.234375 30.90625 
L 42.1875 30.90625 
Q 41.609375 37.453125 38.875 40.71875 
Q 34.671875 45.796875 27.984375 45.796875 
Q 21.921875 45.796875 17.796875 41.75 
Q 13.671875 37.703125 13.234375 30.90625 
z
" id="ArialMT-101"/>
      <path d="M 3.078125 15.484375 
L 11.765625 16.84375 
Q 12.5 11.625 15.84375 8.84375 
Q 19.1875 6.0625 25.203125 6.0625 
Q 31.25 6.0625 34.171875 8.515625 
Q 37.109375 10.984375 37.109375 14.3125 
Q 37.109375 17.28125 34.515625 19 
Q 32.71875 20.171875 25.53125 21.96875 
Q 15.875 24.421875 12.140625 26.203125 
Q 8.40625 27.984375 6.46875 31.125 
Q 4.546875 34.28125 4.546875 38.09375 
Q 4.546875 41.546875 6.125 44.5 
Q 7.71875 47.46875 10.453125 49.421875 
Q 12.5 50.921875 16.03125 51.96875 
Q 19.578125 53.03125 23.640625 53.03125 
Q 29.734375 53.03125 34.34375 51.265625 
Q 38.96875 49.515625 41.15625 46.5 
Q 43.359375 43.5 44.1875 38.484375 
L 35.59375 37.3125 
Q 35.015625 41.3125 32.203125 43.546875 
Q 29.390625 45.796875 24.265625 45.796875 
Q 18.21875 45.796875 15.625 43.796875 
Q 13.03125 41.796875 13.03125 39.109375 
Q 13.03125 37.40625 14.109375 36.03125 
Q 15.1875 34.625 17.484375 33.6875 
Q 18.796875 33.203125 25.25 31.453125 
Q 34.578125 28.953125 38.25 27.359375 
Q 41.9375 25.78125 44.03125 22.75 
Q 46.140625 19.734375 46.140625 15.234375 
Q 46.140625 10.84375 43.578125 6.953125 
Q 41.015625 3.078125 36.171875 0.953125 
Q 31.34375 -1.171875 25.25 -1.171875 
Q 15.140625 -1.171875 9.84375 3.03125 
Q 4.546875 7.234375 3.078125 15.484375 
z
" id="ArialMT-115"/>
     </defs>
     <g style="fill:#262626;" transform="translate(497.02875 680.798437)scale(0.24 -0.24)">
      <use xlink:href="#ArialMT-83"/>
      <use x="66.699219" xlink:href="#ArialMT-105"/>
      <use x="88.916016" xlink:href="#ArialMT-109"/>
      <use x="172.216797" xlink:href="#ArialMT-117"/>
      <use x="227.832031" xlink:href="#ArialMT-108"/>
      <use x="250.048828" xlink:href="#ArialMT-97"/>
      <use x="305.664062" xlink:href="#ArialMT-116"/>
      <use x="333.447266" xlink:href="#ArialMT-105"/>
      <use x="355.664062" xlink:href="#ArialMT-111"/>
      <use x="411.279297" xlink:href="#ArialMT-110"/>
      <use x="466.894531" xlink:href="#ArialMT-32"/>
      <use x="494.677734" xlink:href="#ArialMT-82"/>
      <use x="566.894531" xlink:href="#ArialMT-101"/>
      <use x="622.509766" xlink:href="#ArialMT-115"/>
      <use x="672.509766" xlink:href="#ArialMT-117"/>
      <use x="728.125" xlink:href="#ArialMT-108"/>
      <use x="750.341797" xlink:href="#ArialMT-116"/>
     </g>
    </g>
   </g>
   <g id="matplotlib.axis_2">
    <g id="ytick_1">
     <g id="line2d_6">
      <path clip-path="url(#p49132ce19f)" d="M 144 605.290909 
L 1036.8 605.290909 
" style="fill:none;stroke:#cccccc;stroke-linecap:round;"/>
     </g>
     <g id="text_7">
      <!-- 0.0 -->
      <g style="fill:#262626;" transform="translate(103.92 613.164503)scale(0.22 -0.22)">
       <use xlink:href="#ArialMT-48"/>
       <use x="55.615234" xlink:href="#ArialMT-46"/>
       <use x="83.398438" xlink:href="#ArialMT-48"/>
      </g>
     </g>
    </g>
    <g id="ytick_2">
     <g id="line2d_7">
      <path clip-path="url(#p49132ce19f)" d="M 144 544.282442 
L 1036.8 544.282442 
" style="fill:none;stroke:#cccccc;stroke-linecap:round;"/>
     </g>
     <g id="text_8">
      <!-- 0.2 -->
      <g style="fill:#262626;" transform="translate(103.92 552.156036)scale(0.22 -0.22)">
       <use xlink:href="#ArialMT-48"/>
       <use x="55.615234" xlink:href="#ArialMT-46"/>
       <use x="83.398438" xlink:href="#ArialMT-50"/>
      </g>
     </g>
    </g>
    <g id="ytick_3">
     <g id="line2d_8">
      <path clip-path="url(#p49132ce19f)" d="M 144 483.273975 
L 1036.8 483.273975 
" style="fill:none;stroke:#cccccc;stroke-linecap:round;"/>
     </g>
     <g id="text_9">
      <!-- 0.4 -->
      <g style="fill:#262626;" transform="translate(103.92 491.147568)scale(0.22 -0.22)">
       <use xlink:href="#ArialMT-48"/>
       <use x="55.615234" xlink:href="#ArialMT-46"/>
       <use x="83.398438" xlink:href="#ArialMT-52"/>
      </g>
     </g>
    </g>
    <g id="ytick_4">
     <g id="line2d_9">
      <path clip-path="url(#p49132ce19f)" d="M 144 422.265507 
L 1036.8 422.265507 
" style="fill:none;stroke:#cccccc;stroke-linecap:round;"/>
     </g>
     <g id="text_10">
      <!-- 0.6 -->
      <g style="fill:#262626;" transform="translate(103.92 430.139101)scale(0.22 -0.22)">
       <use xlink:href="#ArialMT-48"/>
       <use x="55.615234" xlink:href="#ArialMT-46"/>
       <use x="83.398438" xlink:href="#ArialMT-54"/>
      </g>
     </g>
    </g>
    <g id="ytick_5">
     <g id="line2d_10">
      <path clip-path="url(#p49132ce19f)" d="M 144 361.25704 
L 1036.8 361.25704 
" style="fill:none;stroke:#cccccc;stroke-linecap:round;"/>
     </g>
     <g id="text_11">
      <!-- 0.8 -->
      <g style="fill:#262626;" transform="translate(103.92 369.130634)scale(0.22 -0.22)">
       <use xlink:href="#ArialMT-48"/>
       <use x="55.615234" xlink:href="#ArialMT-46"/>
       <use x="83.398438" xlink:href="#ArialMT-56"/>
      </g>
     </g>
    </g>
    <g id="ytick_6">
     <g id="line2d_11">
      <path clip-path="url(#p49132ce19f)" d="M 144 300.248573 
L 1036.8 300.248573 
" style="fill:none;stroke:#cccccc;stroke-linecap:round;"/>
     </g>
     <g id="text_12">
      <!-- 1.0 -->
      <defs>
       <path d="M 37.25 0 
L 28.46875 0 
L 28.46875 56 
Q 25.296875 52.984375 20.140625 49.953125 
Q 14.984375 46.921875 10.890625 45.40625 
L 10.890625 53.90625 
Q 18.265625 57.375 23.78125 62.296875 
Q 29.296875 67.234375 31.59375 71.875 
L 37.25 71.875 
z
" id="ArialMT-49"/>
      </defs>
      <g style="fill:#262626;" transform="translate(103.92 308.122167)scale(0.22 -0.22)">
       <use xlink:href="#ArialMT-49"/>
       <use x="55.615234" xlink:href="#ArialMT-46"/>
       <use x="83.398438" xlink:href="#ArialMT-48"/>
      </g>
     </g>
    </g>
    <g id="ytick_7">
     <g id="line2d_12">
      <path clip-path="url(#p49132ce19f)" d="M 144 239.240106 
L 1036.8 239.240106 
" style="fill:none;stroke:#cccccc;stroke-linecap:round;"/>
     </g>
     <g id="text_13">
      <!-- 1.2 -->
      <g style="fill:#262626;" transform="translate(103.92 247.1137)scale(0.22 -0.22)">
       <use xlink:href="#ArialMT-49"/>
       <use x="55.615234" xlink:href="#ArialMT-46"/>
       <use x="83.398438" xlink:href="#ArialMT-50"/>
      </g>
     </g>
    </g>
    <g id="ytick_8">
     <g id="line2d_13">
      <path clip-path="url(#p49132ce19f)" d="M 144 178.231639 
L 1036.8 178.231639 
" style="fill:none;stroke:#cccccc;stroke-linecap:round;"/>
     </g>
     <g id="text_14">
      <!-- 1.4 -->
      <g style="fill:#262626;" transform="translate(103.92 186.105232)scale(0.22 -0.22)">
       <use xlink:href="#ArialMT-49"/>
       <use x="55.615234" xlink:href="#ArialMT-46"/>
       <use x="83.398438" xlink:href="#ArialMT-52"/>
      </g>
     </g>
    </g>
    <g id="ytick_9">
     <g id="line2d_14">
      <path clip-path="url(#p49132ce19f)" d="M 144 117.223171 
L 1036.8 117.223171 
" style="fill:none;stroke:#cccccc;stroke-linecap:round;"/>
     </g>
     <g id="text_15">
      <!-- 1.6 -->
      <g style="fill:#262626;" transform="translate(103.92 125.096765)scale(0.22 -0.22)">
       <use xlink:href="#ArialMT-49"/>
       <use x="55.615234" xlink:href="#ArialMT-46"/>
       <use x="83.398438" xlink:href="#ArialMT-54"/>
      </g>
     </g>
    </g>
    <g id="text_16">
     <!-- Predicted -->
     <defs>
      <path d="M 7.71875 0 
L 7.71875 71.578125 
L 34.71875 71.578125 
Q 41.84375 71.578125 45.609375 70.90625 
Q 50.875 70.015625 54.4375 67.546875 
Q 58.015625 65.09375 60.1875 60.640625 
Q 62.359375 56.203125 62.359375 50.875 
Q 62.359375 41.75 56.546875 35.421875 
Q 50.734375 29.109375 35.546875 29.109375 
L 17.1875 29.109375 
L 17.1875 0 
z
M 17.1875 37.546875 
L 35.6875 37.546875 
Q 44.875 37.546875 48.734375 40.96875 
Q 52.59375 44.390625 52.59375 50.59375 
Q 52.59375 55.078125 50.3125 58.265625 
Q 48.046875 61.46875 44.34375 62.5 
Q 41.9375 63.140625 35.5 63.140625 
L 17.1875 63.140625 
z
" id="ArialMT-80"/>
      <path d="M 6.5 0 
L 6.5 51.859375 
L 14.40625 51.859375 
L 14.40625 44 
Q 17.4375 49.515625 20 51.265625 
Q 22.5625 53.03125 25.640625 53.03125 
Q 30.078125 53.03125 34.671875 50.203125 
L 31.640625 42.046875 
Q 28.421875 43.953125 25.203125 43.953125 
Q 22.3125 43.953125 20.015625 42.21875 
Q 17.71875 40.484375 16.75 37.40625 
Q 15.28125 32.71875 15.28125 27.15625 
L 15.28125 0 
z
" id="ArialMT-114"/>
      <path d="M 40.234375 0 
L 40.234375 6.546875 
Q 35.296875 -1.171875 25.734375 -1.171875 
Q 19.53125 -1.171875 14.328125 2.25 
Q 9.125 5.671875 6.265625 11.796875 
Q 3.421875 17.921875 3.421875 25.875 
Q 3.421875 33.640625 6 39.96875 
Q 8.59375 46.296875 13.765625 49.65625 
Q 18.953125 53.03125 25.34375 53.03125 
Q 30.03125 53.03125 33.6875 51.046875 
Q 37.359375 49.078125 39.65625 45.90625 
L 39.65625 71.578125 
L 48.390625 71.578125 
L 48.390625 0 
z
M 12.453125 25.875 
Q 12.453125 15.921875 16.640625 10.984375 
Q 20.84375 6.0625 26.5625 6.0625 
Q 32.328125 6.0625 36.34375 10.765625 
Q 40.375 15.484375 40.375 25.140625 
Q 40.375 35.796875 36.265625 40.765625 
Q 32.171875 45.75 26.171875 45.75 
Q 20.3125 45.75 16.375 40.96875 
Q 12.453125 36.1875 12.453125 25.875 
z
" id="ArialMT-100"/>
      <path d="M 40.4375 19 
L 49.078125 17.875 
Q 47.65625 8.9375 41.8125 3.875 
Q 35.984375 -1.171875 27.484375 -1.171875 
Q 16.84375 -1.171875 10.375 5.78125 
Q 3.90625 12.75 3.90625 25.734375 
Q 3.90625 34.125 6.6875 40.421875 
Q 9.46875 46.734375 15.15625 49.875 
Q 20.84375 53.03125 27.546875 53.03125 
Q 35.984375 53.03125 41.359375 48.75 
Q 46.734375 44.484375 48.25 36.625 
L 39.703125 35.296875 
Q 38.484375 40.53125 35.375 43.15625 
Q 32.28125 45.796875 27.875 45.796875 
Q 21.234375 45.796875 17.078125 41.03125 
Q 12.9375 36.28125 12.9375 25.984375 
Q 12.9375 15.53125 16.9375 10.796875 
Q 20.953125 6.0625 27.390625 6.0625 
Q 32.5625 6.0625 36.03125 9.234375 
Q 39.5 12.40625 40.4375 19 
z
" id="ArialMT-99"/>
     </defs>
     <g style="fill:#262626;" transform="translate(95.15 408.8925)rotate(-90)scale(0.24 -0.24)">
      <use xlink:href="#ArialMT-80"/>
      <use x="66.699219" xlink:href="#ArialMT-114"/>
      <use x="100" xlink:href="#ArialMT-101"/>
      <use x="155.615234" xlink:href="#ArialMT-100"/>
      <use x="211.230469" xlink:href="#ArialMT-105"/>
      <use x="233.447266" xlink:href="#ArialMT-99"/>
      <use x="283.447266" xlink:href="#ArialMT-116"/>
      <use x="311.230469" xlink:href="#ArialMT-101"/>
      <use x="366.845703" xlink:href="#ArialMT-100"/>
     </g>
    </g>
   </g>
   <g id="line2d_15">
    <defs>
     <path d="M -5 0 
L 5 0 
M 0 5 
L 0 -5 
" id="m5cd3c5b09a" style="stroke:#64b5cd;"/>
    </defs>
    <g clip-path="url(#p49132ce19f)">
     <use style="fill:#64b5cd;stroke:#64b5cd;" x="289.729081" xlink:href="#m5cd3c5b09a" y="514.312924"/>
     <use style="fill:#64b5cd;stroke:#64b5cd;" x="535.672451" xlink:href="#m5cd3c5b09a" y="491.611368"/>
     <use style="fill:#64b5cd;stroke:#64b5cd;" x="729.822921" xlink:href="#m5cd3c5b09a" y="472.781293"/>
     <use style="fill:#64b5cd;stroke:#64b5cd;" x="972.24006" xlink:href="#m5cd3c5b09a" y="207.940886"/>
     <use style="fill:#64b5cd;stroke:#64b5cd;" x="633.525016" xlink:href="#m5cd3c5b09a" y="517.191438"/>
     <use style="fill:#64b5cd;stroke:#64b5cd;" x="956.575945" xlink:href="#m5cd3c5b09a" y="402.556183"/>
     <use style="fill:#64b5cd;stroke:#64b5cd;" x="782.192871" xlink:href="#m5cd3c5b09a" y="450.121719"/>
     <use style="fill:#64b5cd;stroke:#64b5cd;" x="202.417261" xlink:href="#m5cd3c5b09a" y="529.828117"/>
     <use style="fill:#64b5cd;stroke:#64b5cd;" x="927.921951" xlink:href="#m5cd3c5b09a" y="307.751976"/>
     <use style="fill:#64b5cd;stroke:#64b5cd;" x="531.849497" xlink:href="#m5cd3c5b09a" y="502.31771"/>
     <use style="fill:#64b5cd;stroke:#64b5cd;" x="747.016886" xlink:href="#m5cd3c5b09a" y="394.860763"/>
     <use style="fill:#64b5cd;stroke:#64b5cd;" x="941.62688" xlink:href="#m5cd3c5b09a" y="424.087891"/>
     <use style="fill:#64b5cd;stroke:#64b5cd;" x="942.477531" xlink:href="#m5cd3c5b09a" y="406.746575"/>
     <use style="fill:#64b5cd;stroke:#64b5cd;" x="943.179005" xlink:href="#m5cd3c5b09a" y="304.39129"/>
     <use style="fill:#64b5cd;stroke:#64b5cd;" x="728.926379" xlink:href="#m5cd3c5b09a" y="423.220132"/>
     <use style="fill:#64b5cd;stroke:#64b5cd;" x="784.501719" xlink:href="#m5cd3c5b09a" y="475.679133"/>
     <use style="fill:#64b5cd;stroke:#64b5cd;" x="303.622117" xlink:href="#m5cd3c5b09a" y="514.651615"/>
     <use style="fill:#64b5cd;stroke:#64b5cd;" x="305.005508" xlink:href="#m5cd3c5b09a" y="534.81381"/>
     <use style="fill:#64b5cd;stroke:#64b5cd;" x="765.861163" xlink:href="#m5cd3c5b09a" y="440.004815"/>
     <use style="fill:#64b5cd;stroke:#64b5cd;" x="222.362343" xlink:href="#m5cd3c5b09a" y="552.932508"/>
     <use style="fill:#64b5cd;stroke:#64b5cd;" x="336.477322" xlink:href="#m5cd3c5b09a" y="507.092124"/>
     <use style="fill:#64b5cd;stroke:#64b5cd;" x="637.521714" xlink:href="#m5cd3c5b09a" y="492.188056"/>
     <use style="fill:#64b5cd;stroke:#64b5cd;" x="839.144465" xlink:href="#m5cd3c5b09a" y="459.185701"/>
     <use style="fill:#64b5cd;stroke:#64b5cd;" x="1015.502975" xlink:href="#m5cd3c5b09a" y="302.024688"/>
     <use style="fill:#64b5cd;stroke:#64b5cd;" x="849.714084" xlink:href="#m5cd3c5b09a" y="322.591096"/>
     <use style="fill:#64b5cd;stroke:#64b5cd;" x="1017.128581" xlink:href="#m5cd3c5b09a" y="383.041073"/>
     <use style="fill:#64b5cd;stroke:#64b5cd;" x="837.469418" xlink:href="#m5cd3c5b09a" y="416.605892"/>
     <use style="fill:#64b5cd;stroke:#64b5cd;" x="868.025879" xlink:href="#m5cd3c5b09a" y="311.587582"/>
     <use style="fill:#64b5cd;stroke:#64b5cd;" x="466.137968" xlink:href="#m5cd3c5b09a" y="519.845296"/>
     <use style="fill:#64b5cd;stroke:#64b5cd;" x="183.01874" xlink:href="#m5cd3c5b09a" y="536.047624"/>
     <use style="fill:#64b5cd;stroke:#64b5cd;" x="651.460076" xlink:href="#m5cd3c5b09a" y="479.177971"/>
     <use style="fill:#64b5cd;stroke:#64b5cd;" x="785.782257" xlink:href="#m5cd3c5b09a" y="481.093536"/>
     <use style="fill:#64b5cd;stroke:#64b5cd;" x="590.941927" xlink:href="#m5cd3c5b09a" y="444.068068"/>
     <use style="fill:#64b5cd;stroke:#64b5cd;" x="753.717073" xlink:href="#m5cd3c5b09a" y="350.27607"/>
     <use style="fill:#64b5cd;stroke:#64b5cd;" x="988.677036" xlink:href="#m5cd3c5b09a" y="261.88943"/>
     <use style="fill:#64b5cd;stroke:#64b5cd;" x="695.974118" xlink:href="#m5cd3c5b09a" y="407.295714"/>
     <use style="fill:#64b5cd;stroke:#64b5cd;" x="1025.362068" xlink:href="#m5cd3c5b09a" y="324.525245"/>
     <use style="fill:#64b5cd;stroke:#64b5cd;" x="828.854891" xlink:href="#m5cd3c5b09a" y="481.993119"/>
     <use style="fill:#64b5cd;stroke:#64b5cd;" x="720.967443" xlink:href="#m5cd3c5b09a" y="525.559254"/>
     <use style="fill:#64b5cd;stroke:#64b5cd;" x="599.037282" xlink:href="#m5cd3c5b09a" y="517.73048"/>
     <use style="fill:#64b5cd;stroke:#64b5cd;" x="234.452533" xlink:href="#m5cd3c5b09a" y="551.433453"/>
     <use style="fill:#64b5cd;stroke:#64b5cd;" x="979.827202" xlink:href="#m5cd3c5b09a" y="360.929385"/>
     <use style="fill:#64b5cd;stroke:#64b5cd;" x="807.761969" xlink:href="#m5cd3c5b09a" y="418.079103"/>
     <use style="fill:#64b5cd;stroke:#64b5cd;" x="668.62469" xlink:href="#m5cd3c5b09a" y="454.64144"/>
     <use style="fill:#64b5cd;stroke:#64b5cd;" x="947.431321" xlink:href="#m5cd3c5b09a" y="450.790441"/>
     <use style="fill:#64b5cd;stroke:#64b5cd;" x="285.56848" xlink:href="#m5cd3c5b09a" y="522.40386"/>
     <use style="fill:#64b5cd;stroke:#64b5cd;" x="895.35628" xlink:href="#m5cd3c5b09a" y="352.649387"/>
     <use style="fill:#64b5cd;stroke:#64b5cd;" x="278.06996" xlink:href="#m5cd3c5b09a" y="535.717827"/>
     <use style="fill:#64b5cd;stroke:#64b5cd;" x="819.018902" xlink:href="#m5cd3c5b09a" y="494.323787"/>
     <use style="fill:#64b5cd;stroke:#64b5cd;" x="798.273321" xlink:href="#m5cd3c5b09a" y="353.36071"/>
     <use style="fill:#64b5cd;stroke:#64b5cd;" x="1011.511504" xlink:href="#m5cd3c5b09a" y="203.413208"/>
     <use style="fill:#64b5cd;stroke:#64b5cd;" x="451.161726" xlink:href="#m5cd3c5b09a" y="504.565534"/>
     <use style="fill:#64b5cd;stroke:#64b5cd;" x="686.715197" xlink:href="#m5cd3c5b09a" y="401.417005"/>
     <use style="fill:#64b5cd;stroke:#64b5cd;" x="144" xlink:href="#m5cd3c5b09a" y="573.802335"/>
     <use style="fill:#64b5cd;stroke:#64b5cd;" x="170.039366" xlink:href="#m5cd3c5b09a" y="567.015044"/>
     <use style="fill:#64b5cd;stroke:#64b5cd;" x="267.994685" xlink:href="#m5cd3c5b09a" y="531.501377"/>
     <use style="fill:#64b5cd;stroke:#64b5cd;" x="423.712652" xlink:href="#m5cd3c5b09a" y="395.039748"/>
     <use style="fill:#64b5cd;stroke:#64b5cd;" x="881.690657" xlink:href="#m5cd3c5b09a" y="425.88413"/>
     <use style="fill:#64b5cd;stroke:#64b5cd;" x="668.62469" xlink:href="#m5cd3c5b09a" y="444.942616"/>
     <use style="fill:#64b5cd;stroke:#64b5cd;" x="855.424416" xlink:href="#m5cd3c5b09a" y="311.345528"/>
     <use style="fill:#64b5cd;stroke:#64b5cd;" x="366.019853" xlink:href="#m5cd3c5b09a" y="479.769821"/>
     <use style="fill:#64b5cd;stroke:#64b5cd;" x="774.691574" xlink:href="#m5cd3c5b09a" y="448.463421"/>
     <use style="fill:#64b5cd;stroke:#64b5cd;" x="332.603154" xlink:href="#m5cd3c5b09a" y="532.583877"/>
     <use style="fill:#64b5cd;stroke:#64b5cd;" x="1023.961541" xlink:href="#m5cd3c5b09a" y="349.792252"/>
     <use style="fill:#64b5cd;stroke:#64b5cd;" x="274.266325" xlink:href="#m5cd3c5b09a" y="502.447321"/>
     <use style="fill:#64b5cd;stroke:#64b5cd;" x="1016.364428" xlink:href="#m5cd3c5b09a" y="281.993777"/>
     <use style="fill:#64b5cd;stroke:#64b5cd;" x="1007.410541" xlink:href="#m5cd3c5b09a" y="150.95963"/>
     <use style="fill:#64b5cd;stroke:#64b5cd;" x="533.881607" xlink:href="#m5cd3c5b09a" y="494.883994"/>
     <use style="fill:#64b5cd;stroke:#64b5cd;" x="1001.928569" xlink:href="#m5cd3c5b09a" y="305.485621"/>
     <use style="fill:#64b5cd;stroke:#64b5cd;" x="907.356635" xlink:href="#m5cd3c5b09a" y="405.684926"/>
     <use style="fill:#64b5cd;stroke:#64b5cd;" x="951.220331" xlink:href="#m5cd3c5b09a" y="388.739758"/>
     <use style="fill:#64b5cd;stroke:#64b5cd;" x="1006.862344" xlink:href="#m5cd3c5b09a" y="348.392258"/>
     <use style="fill:#64b5cd;stroke:#64b5cd;" x="162.844278" xlink:href="#m5cd3c5b09a" y="570.134523"/>
     <use style="fill:#64b5cd;stroke:#64b5cd;" x="411.24612" xlink:href="#m5cd3c5b09a" y="495.767548"/>
     <use style="fill:#64b5cd;stroke:#64b5cd;" x="796.558709" xlink:href="#m5cd3c5b09a" y="493.950281"/>
     <use style="fill:#64b5cd;stroke:#64b5cd;" x="725.911295" xlink:href="#m5cd3c5b09a" y="462.584809"/>
     <use style="fill:#64b5cd;stroke:#64b5cd;" x="190.231295" xlink:href="#m5cd3c5b09a" y="554.678683"/>
     <use style="fill:#64b5cd;stroke:#64b5cd;" x="518.530019" xlink:href="#m5cd3c5b09a" y="465.071783"/>
     <use style="fill:#64b5cd;stroke:#64b5cd;" x="237.999691" xlink:href="#m5cd3c5b09a" y="550.396161"/>
     <use style="fill:#64b5cd;stroke:#64b5cd;" x="653.361958" xlink:href="#m5cd3c5b09a" y="485.694579"/>
     <use style="fill:#64b5cd;stroke:#64b5cd;" x="656.24015" xlink:href="#m5cd3c5b09a" y="393.287254"/>
     <use style="fill:#64b5cd;stroke:#64b5cd;" x="946.297144" xlink:href="#m5cd3c5b09a" y="356.493863"/>
     <use style="fill:#64b5cd;stroke:#64b5cd;" x="737.594747" xlink:href="#m5cd3c5b09a" y="496.809928"/>
     <use style="fill:#64b5cd;stroke:#64b5cd;" x="170.80075" xlink:href="#m5cd3c5b09a" y="550.46519"/>
     <use style="fill:#64b5cd;stroke:#64b5cd;" x="150.865467" xlink:href="#m5cd3c5b09a" y="570.05321"/>
     <use style="fill:#64b5cd;stroke:#64b5cd;" x="859.005736" xlink:href="#m5cd3c5b09a" y="445.537298"/>
     <use style="fill:#64b5cd;stroke:#64b5cd;" x="224.402251" xlink:href="#m5cd3c5b09a" y="548.363136"/>
     <use style="fill:#64b5cd;stroke:#64b5cd;" x="529.386731" xlink:href="#m5cd3c5b09a" y="509.192859"/>
     <use style="fill:#64b5cd;stroke:#64b5cd;" x="674.743538" xlink:href="#m5cd3c5b09a" y="449.201988"/>
     <use style="fill:#64b5cd;stroke:#64b5cd;" x="988.22364" xlink:href="#m5cd3c5b09a" y="294.962608"/>
     <use style="fill:#64b5cd;stroke:#64b5cd;" x="438.136598" xlink:href="#m5cd3c5b09a" y="508.859651"/>
     <use style="fill:#64b5cd;stroke:#64b5cd;" x="757.067167" xlink:href="#m5cd3c5b09a" y="331.453354"/>
     <use style="fill:#64b5cd;stroke:#64b5cd;" x="951.21698" xlink:href="#m5cd3c5b09a" y="429.550038"/>
     <use style="fill:#64b5cd;stroke:#64b5cd;" x="1011.913589" xlink:href="#m5cd3c5b09a" y="269.29211"/>
     <use style="fill:#64b5cd;stroke:#64b5cd;" x="285.886326" xlink:href="#m5cd3c5b09a" y="539.433868"/>
     <use style="fill:#64b5cd;stroke:#64b5cd;" x="619.148245" xlink:href="#m5cd3c5b09a" y="461.592798"/>
     <use style="fill:#64b5cd;stroke:#64b5cd;" x="426.321542" xlink:href="#m5cd3c5b09a" y="490.735706"/>
     <use style="fill:#64b5cd;stroke:#64b5cd;" x="318.431326" xlink:href="#m5cd3c5b09a" y="523.160086"/>
     <use style="fill:#64b5cd;stroke:#64b5cd;" x="639.805283" xlink:href="#m5cd3c5b09a" y="486.106125"/>
     <use style="fill:#64b5cd;stroke:#64b5cd;" x="164.100563" xlink:href="#m5cd3c5b09a" y="528.043849"/>
     <use style="fill:#64b5cd;stroke:#64b5cd;" x="566.631662" xlink:href="#m5cd3c5b09a" y="473.473549"/>
     <use style="fill:#64b5cd;stroke:#64b5cd;" x="508.983904" xlink:href="#m5cd3c5b09a" y="512.283507"/>
     <use style="fill:#64b5cd;stroke:#64b5cd;" x="220.185135" xlink:href="#m5cd3c5b09a" y="568.882251"/>
     <use style="fill:#64b5cd;stroke:#64b5cd;" x="749.845295" xlink:href="#m5cd3c5b09a" y="449.361735"/>
     <use style="fill:#64b5cd;stroke:#64b5cd;" x="938.552644" xlink:href="#m5cd3c5b09a" y="260.934511"/>
     <use style="fill:#64b5cd;stroke:#64b5cd;" x="219.377111" xlink:href="#m5cd3c5b09a" y="527.146871"/>
     <use style="fill:#64b5cd;stroke:#64b5cd;" x="555.854316" xlink:href="#m5cd3c5b09a" y="500.097516"/>
     <use style="fill:#64b5cd;stroke:#64b5cd;" x="819.308384" xlink:href="#m5cd3c5b09a" y="381.682551"/>
     <use style="fill:#64b5cd;stroke:#64b5cd;" x="609.967593" xlink:href="#m5cd3c5b09a" y="433.713647"/>
     <use style="fill:#64b5cd;stroke:#64b5cd;" x="1036.8" xlink:href="#m5cd3c5b09a" y="295.672775"/>
     <use style="fill:#64b5cd;stroke:#64b5cd;" x="575.627105" xlink:href="#m5cd3c5b09a" y="506.489349"/>
     <use style="fill:#64b5cd;stroke:#64b5cd;" x="360.344327" xlink:href="#m5cd3c5b09a" y="521.35932"/>
     <use style="fill:#64b5cd;stroke:#64b5cd;" x="249.527955" xlink:href="#m5cd3c5b09a" y="494.556854"/>
     <use style="fill:#64b5cd;stroke:#64b5cd;" x="507.663192" xlink:href="#m5cd3c5b09a" y="491.206554"/>
     <use style="fill:#64b5cd;stroke:#64b5cd;" x="150.700188" xlink:href="#m5cd3c5b09a" y="556.949932"/>
     <use style="fill:#64b5cd;stroke:#64b5cd;" x="818.061978" xlink:href="#m5cd3c5b09a" y="419.954171"/>
     <use style="fill:#64b5cd;stroke:#64b5cd;" x="212.524646" xlink:href="#m5cd3c5b09a" y="563.408244"/>
     <use style="fill:#64b5cd;stroke:#64b5cd;" x="158.281979" xlink:href="#m5cd3c5b09a" y="545.415156"/>
     <use style="fill:#64b5cd;stroke:#64b5cd;" x="642.57872" xlink:href="#m5cd3c5b09a" y="524.459011"/>
     <use style="fill:#64b5cd;stroke:#64b5cd;" x="593.219174" xlink:href="#m5cd3c5b09a" y="490.432745"/>
     <use style="fill:#64b5cd;stroke:#64b5cd;" x="279.678799" xlink:href="#m5cd3c5b09a" y="517.123175"/>
     <use style="fill:#64b5cd;stroke:#64b5cd;" x="519.515061" xlink:href="#m5cd3c5b09a" y="458.026816"/>
     <use style="fill:#64b5cd;stroke:#64b5cd;" x="196.048891" xlink:href="#m5cd3c5b09a" y="574.801713"/>
     <use style="fill:#64b5cd;stroke:#64b5cd;" x="347.518199" xlink:href="#m5cd3c5b09a" y="480.857875"/>
     <use style="fill:#64b5cd;stroke:#64b5cd;" x="198.173023" xlink:href="#m5cd3c5b09a" y="552.756868"/>
     <use style="fill:#64b5cd;stroke:#64b5cd;" x="144" xlink:href="#m5cd3c5b09a" y="538.66649"/>
     <use style="fill:#64b5cd;stroke:#64b5cd;" x="941.611453" xlink:href="#m5cd3c5b09a" y="302.473945"/>
     <use style="fill:#64b5cd;stroke:#64b5cd;" x="961.841651" xlink:href="#m5cd3c5b09a" y="323.995787"/>
     <use style="fill:#64b5cd;stroke:#64b5cd;" x="661.202944" xlink:href="#m5cd3c5b09a" y="431.485718"/>
     <use style="fill:#64b5cd;stroke:#64b5cd;" x="591.638302" xlink:href="#m5cd3c5b09a" y="490.671495"/>
     <use style="fill:#64b5cd;stroke:#64b5cd;" x="489.455245" xlink:href="#m5cd3c5b09a" y="484.657629"/>
     <use style="fill:#64b5cd;stroke:#64b5cd;" x="955.034338" xlink:href="#m5cd3c5b09a" y="218.762769"/>
     <use style="fill:#64b5cd;stroke:#64b5cd;" x="157.56788" xlink:href="#m5cd3c5b09a" y="550.200968"/>
     <use style="fill:#64b5cd;stroke:#64b5cd;" x="169.199386" xlink:href="#m5cd3c5b09a" y="569.762144"/>
     <use style="fill:#64b5cd;stroke:#64b5cd;" x="909.76292" xlink:href="#m5cd3c5b09a" y="407.973468"/>
     <use style="fill:#64b5cd;stroke:#64b5cd;" x="531.886537" xlink:href="#m5cd3c5b09a" y="446.181967"/>
     <use style="fill:#64b5cd;stroke:#64b5cd;" x="180.851032" xlink:href="#m5cd3c5b09a" y="563.556661"/>
     <use style="fill:#64b5cd;stroke:#64b5cd;" x="200.19021" xlink:href="#m5cd3c5b09a" y="549.530025"/>
     <use style="fill:#64b5cd;stroke:#64b5cd;" x="1013.613824" xlink:href="#m5cd3c5b09a" y="218.181852"/>
     <use style="fill:#64b5cd;stroke:#64b5cd;" x="167.130527" xlink:href="#m5cd3c5b09a" y="563.877292"/>
     <use style="fill:#64b5cd;stroke:#64b5cd;" x="159.758281" xlink:href="#m5cd3c5b09a" y="562.514507"/>
     <use style="fill:#64b5cd;stroke:#64b5cd;" x="706.81576" xlink:href="#m5cd3c5b09a" y="488.627084"/>
     <use style="fill:#64b5cd;stroke:#64b5cd;" x="235.529349" xlink:href="#m5cd3c5b09a" y="528.052954"/>
     <use style="fill:#64b5cd;stroke:#64b5cd;" x="821.406523" xlink:href="#m5cd3c5b09a" y="417.517703"/>
     <use style="fill:#64b5cd;stroke:#64b5cd;" x="842.287058" xlink:href="#m5cd3c5b09a" y="400.326479"/>
     <use style="fill:#64b5cd;stroke:#64b5cd;" x="283.790278" xlink:href="#m5cd3c5b09a" y="514.789681"/>
     <use style="fill:#64b5cd;stroke:#64b5cd;" x="678.96638" xlink:href="#m5cd3c5b09a" y="383.062392"/>
     <use style="fill:#64b5cd;stroke:#64b5cd;" x="831.024963" xlink:href="#m5cd3c5b09a" y="465.297187"/>
     <use style="fill:#64b5cd;stroke:#64b5cd;" x="455.995693" xlink:href="#m5cd3c5b09a" y="493.522051"/>
     <use style="fill:#64b5cd;stroke:#64b5cd;" x="269.508299" xlink:href="#m5cd3c5b09a" y="499.666383"/>
    </g>
   </g>
   <g id="line2d_16">
    <defs>
     <path d="M -5 0 
L 5 0 
M 0 5 
L 0 -5 
" id="mef404a6e0d" style="stroke:#8172b3;"/>
    </defs>
    <g clip-path="url(#p49132ce19f)">
     <use style="fill:#8172b3;stroke:#8172b3;" x="940.879339" xlink:href="#mef404a6e0d" y="446.477941"/>
     <use style="fill:#8172b3;stroke:#8172b3;" x="992.821422" xlink:href="#mef404a6e0d" y="380.034273"/>
     <use style="fill:#8172b3;stroke:#8172b3;" x="655.128598" xlink:href="#mef404a6e0d" y="537.937187"/>
     <use style="fill:#8172b3;stroke:#8172b3;" x="652.679888" xlink:href="#mef404a6e0d" y="440.275765"/>
     <use style="fill:#8172b3;stroke:#8172b3;" x="799.278349" xlink:href="#mef404a6e0d" y="434.972115"/>
     <use style="fill:#8172b3;stroke:#8172b3;" x="445.508443" xlink:href="#mef404a6e0d" y="452.98178"/>
     <use style="fill:#8172b3;stroke:#8172b3;" x="166.613133" xlink:href="#mef404a6e0d" y="567.414043"/>
     <use style="fill:#8172b3;stroke:#8172b3;" x="752.072667" xlink:href="#mef404a6e0d" y="450.163874"/>
     <use style="fill:#8172b3;stroke:#8172b3;" x="700.534334" xlink:href="#mef404a6e0d" y="455.285099"/>
     <use style="fill:#8172b3;stroke:#8172b3;" x="910.456883" xlink:href="#mef404a6e0d" y="390.767837"/>
     <use style="fill:#8172b3;stroke:#8172b3;" x="200.951595" xlink:href="#mef404a6e0d" y="525.801711"/>
     <use style="fill:#8172b3;stroke:#8172b3;" x="385.206754" xlink:href="#mef404a6e0d" y="484.48723"/>
     <use style="fill:#8172b3;stroke:#8172b3;" x="788.05992" xlink:href="#mef404a6e0d" y="354.043543"/>
     <use style="fill:#8172b3;stroke:#8172b3;" x="981.700238" xlink:href="#mef404a6e0d" y="229.561287"/>
     <use style="fill:#8172b3;stroke:#8172b3;" x="944.821788" xlink:href="#mef404a6e0d" y="427.843225"/>
     <use style="fill:#8172b3;stroke:#8172b3;" x="364.101163" xlink:href="#mef404a6e0d" y="497.683278"/>
     <use style="fill:#8172b3;stroke:#8172b3;" x="144" xlink:href="#mef404a6e0d" y="548.660579"/>
     <use style="fill:#8172b3;stroke:#8172b3;" x="1030.888344" xlink:href="#mef404a6e0d" y="111.109091"/>
     <use style="fill:#8172b3;stroke:#8172b3;" x="421.91213" xlink:href="#mef404a6e0d" y="510.276846"/>
     <use style="fill:#8172b3;stroke:#8172b3;" x="861.831301" xlink:href="#mef404a6e0d" y="285.90438"/>
     <use style="fill:#8172b3;stroke:#8172b3;" x="910.88017" xlink:href="#mef404a6e0d" y="385.129113"/>
     <use style="fill:#8172b3;stroke:#8172b3;" x="176.304476" xlink:href="#mef404a6e0d" y="539.933338"/>
     <use style="fill:#8172b3;stroke:#8172b3;" x="451.538612" xlink:href="#mef404a6e0d" y="491.614235"/>
     <use style="fill:#8172b3;stroke:#8172b3;" x="1004.974109" xlink:href="#mef404a6e0d" y="388.580011"/>
     <use style="fill:#8172b3;stroke:#8172b3;" x="970.994586" xlink:href="#mef404a6e0d" y="307.009139"/>
     <use style="fill:#8172b3;stroke:#8172b3;" x="508.68164" xlink:href="#mef404a6e0d" y="485.952057"/>
     <use style="fill:#8172b3;stroke:#8172b3;" x="895.761051" xlink:href="#mef404a6e0d" y="336.18423"/>
     <use style="fill:#8172b3;stroke:#8172b3;" x="341.978435" xlink:href="#mef404a6e0d" y="528.346887"/>
     <use style="fill:#8172b3;stroke:#8172b3;" x="891.165896" xlink:href="#mef404a6e0d" y="331.529937"/>
     <use style="fill:#8172b3;stroke:#8172b3;" x="265.652932" xlink:href="#mef404a6e0d" y="538.199908"/>
     <use style="fill:#8172b3;stroke:#8172b3;" x="1020.518237" xlink:href="#mef404a6e0d" y="212.454684"/>
     <use style="fill:#8172b3;stroke:#8172b3;" x="723.420573" xlink:href="#mef404a6e0d" y="372.437737"/>
     <use style="fill:#8172b3;stroke:#8172b3;" x="893.824661" xlink:href="#mef404a6e0d" y="415.717522"/>
     <use style="fill:#8172b3;stroke:#8172b3;" x="735.522429" xlink:href="#mef404a6e0d" y="473.488354"/>
     <use style="fill:#8172b3;stroke:#8172b3;" x="169.925885" xlink:href="#mef404a6e0d" y="561.545777"/>
     <use style="fill:#8172b3;stroke:#8172b3;" x="886.484695" xlink:href="#mef404a6e0d" y="325.512276"/>
     <use style="fill:#8172b3;stroke:#8172b3;" x="708.589339" xlink:href="#mef404a6e0d" y="504.664931"/>
     <use style="fill:#8172b3;stroke:#8172b3;" x="791.101671" xlink:href="#mef404a6e0d" y="397.176697"/>
     <use style="fill:#8172b3;stroke:#8172b3;" x="792.822976" xlink:href="#mef404a6e0d" y="467.709425"/>
     <use style="fill:#8172b3;stroke:#8172b3;" x="890.505843" xlink:href="#mef404a6e0d" y="449.464561"/>
     <use style="fill:#8172b3;stroke:#8172b3;" x="825.409081" xlink:href="#mef404a6e0d" y="346.716192"/>
     <use style="fill:#8172b3;stroke:#8172b3;" x="144" xlink:href="#mef404a6e0d" y="541.830816"/>
     <use style="fill:#8172b3;stroke:#8172b3;" x="462.920784" xlink:href="#mef404a6e0d" y="494.959321"/>
     <use style="fill:#8172b3;stroke:#8172b3;" x="369.185176" xlink:href="#mef404a6e0d" y="497.967489"/>
     <use style="fill:#8172b3;stroke:#8172b3;" x="571.765103" xlink:href="#mef404a6e0d" y="506.15738"/>
     <use style="fill:#8172b3;stroke:#8172b3;" x="267.22519" xlink:href="#mef404a6e0d" y="531.188075"/>
     <use style="fill:#8172b3;stroke:#8172b3;" x="188.570813" xlink:href="#mef404a6e0d" y="547.489053"/>
     <use style="fill:#8172b3;stroke:#8172b3;" x="261.132776" xlink:href="#mef404a6e0d" y="565.50174"/>
     <use style="fill:#8172b3;stroke:#8172b3;" x="240.09276" xlink:href="#mef404a6e0d" y="553.600957"/>
     <use style="fill:#8172b3;stroke:#8172b3;" x="186.100615" xlink:href="#mef404a6e0d" y="556.518048"/>
    </g>
   </g>
   <g id="line2d_17">
    <path clip-path="url(#p49132ce19f)" d="M 144 605.290909 
L 1036.8 304.202826 
" style="fill:none;stroke:#c44e52;stroke-linecap:round;stroke-width:1.5;"/>
   </g>
   <g id="patch_3">
    <path d="M 144 630 
L 144 86.4 
" style="fill:none;stroke:#cccccc;stroke-linecap:square;stroke-linejoin:miter;stroke-width:1.25;"/>
   </g>
   <g id="patch_4">
    <path d="M 1036.8 630 
L 1036.8 86.4 
" style="fill:none;stroke:#cccccc;stroke-linecap:square;stroke-linejoin:miter;stroke-width:1.25;"/>
   </g>
   <g id="patch_5">
    <path d="M 144 630 
L 1036.8 630 
" style="fill:none;stroke:#cccccc;stroke-linecap:square;stroke-linejoin:miter;stroke-width:1.25;"/>
   </g>
   <g id="patch_6">
    <path d="M 144 86.4 
L 1036.8 86.4 
" style="fill:none;stroke:#cccccc;stroke-linecap:square;stroke-linejoin:miter;stroke-width:1.25;"/>
   </g>
  </g>
 </g>
 <defs>
  <clipPath id="p49132ce19f">
   <rect height="543.6" width="892.8" x="144" y="86.4"/>
  </clipPath>
 </defs>
</svg>
