<?xml version="1.0" encoding="utf-8" standalone="no"?>
<!DOCTYPE svg PUBLIC "-//W3C//DTD SVG 1.1//EN"
  "http://www.w3.org/Graphics/SVG/1.1/DTD/svg11.dtd">
<!-- Created with matplotlib (https://matplotlib.org/) -->
<svg height="720pt" version="1.1" viewBox="0 0 1152 720" width="1152pt" xmlns="http://www.w3.org/2000/svg" xmlns:xlink="http://www.w3.org/1999/xlink">
 <defs>
  <style type="text/css">
*{stroke-linecap:butt;stroke-linejoin:round;}
  </style>
 </defs>
 <g id="figure_1">
  <g id="patch_1">
   <path d="M 0 720 
L 1152 720 
L 1152 0 
L 0 0 
z
" style="fill:#ffffff;"/>
  </g>
  <g id="axes_1">
   <g id="patch_2">
    <path d="M 144 630 
L 1036.8 630 
L 1036.8 86.4 
L 144 86.4 
z
" style="fill:#ffffff;"/>
   </g>
   <g id="matplotlib.axis_1">
    <g id="xtick_1">
     <g id="line2d_1">
      <path clip-path="url(#p33147de1f7)" d="M 247.232069 630 
L 247.232069 86.4 
" style="fill:none;stroke:#cccccc;stroke-linecap:round;"/>
     </g>
     <g id="text_1">
      <!-- 59 -->
      <defs>
       <path d="M 4.15625 18.75 
L 13.375 19.53125 
Q 14.40625 12.796875 18.140625 9.390625 
Q 21.875 6 27.15625 6 
Q 33.5 6 37.890625 10.78125 
Q 42.28125 15.578125 42.28125 23.484375 
Q 42.28125 31 38.0625 35.34375 
Q 33.84375 39.703125 27 39.703125 
Q 22.75 39.703125 19.328125 37.765625 
Q 15.921875 35.84375 13.96875 32.765625 
L 5.71875 33.84375 
L 12.640625 70.609375 
L 48.25 70.609375 
L 48.25 62.203125 
L 19.671875 62.203125 
L 15.828125 42.96875 
Q 22.265625 47.46875 29.34375 47.46875 
Q 38.71875 47.46875 45.15625 40.96875 
Q 51.609375 34.46875 51.609375 24.265625 
Q 51.609375 14.546875 45.953125 7.46875 
Q 39.0625 -1.21875 27.15625 -1.21875 
Q 17.390625 -1.21875 11.203125 4.25 
Q 5.03125 9.71875 4.15625 18.75 
z
" id="ArialMT-53"/>
       <path d="M 5.46875 16.546875 
L 13.921875 17.328125 
Q 14.984375 11.375 18.015625 8.6875 
Q 21.046875 6 25.78125 6 
Q 29.828125 6 32.875 7.859375 
Q 35.9375 9.71875 37.890625 12.8125 
Q 39.84375 15.921875 41.15625 21.1875 
Q 42.484375 26.46875 42.484375 31.9375 
Q 42.484375 32.515625 42.4375 33.6875 
Q 39.796875 29.5 35.234375 26.875 
Q 30.671875 24.265625 25.34375 24.265625 
Q 16.453125 24.265625 10.296875 30.703125 
Q 4.15625 37.15625 4.15625 47.703125 
Q 4.15625 58.59375 10.578125 65.234375 
Q 17 71.875 26.65625 71.875 
Q 33.640625 71.875 39.421875 68.109375 
Q 45.21875 64.359375 48.21875 57.390625 
Q 51.21875 50.4375 51.21875 37.25 
Q 51.21875 23.53125 48.234375 15.40625 
Q 45.265625 7.28125 39.375 3.03125 
Q 33.5 -1.21875 25.59375 -1.21875 
Q 17.1875 -1.21875 11.859375 3.4375 
Q 6.546875 8.109375 5.46875 16.546875 
z
M 41.453125 48.140625 
Q 41.453125 55.71875 37.421875 60.15625 
Q 33.40625 64.59375 27.734375 64.59375 
Q 21.875 64.59375 17.53125 59.8125 
Q 13.1875 55.03125 13.1875 47.40625 
Q 13.1875 40.578125 17.3125 36.296875 
Q 21.4375 32.03125 27.484375 32.03125 
Q 33.59375 32.03125 37.515625 36.296875 
Q 41.453125 40.578125 41.453125 48.140625 
z
" id="ArialMT-57"/>
      </defs>
      <g style="fill:#262626;" transform="translate(234.998006 655.247187)scale(0.22 -0.22)">
       <use xlink:href="#ArialMT-53"/>
       <use x="55.615234" xlink:href="#ArialMT-57"/>
      </g>
     </g>
    </g>
    <g id="xtick_2">
     <g id="line2d_2">
      <path clip-path="url(#p33147de1f7)" d="M 377.609864 630 
L 377.609864 86.4 
" style="fill:none;stroke:#cccccc;stroke-linecap:round;"/>
     </g>
     <g id="text_2">
      <!-- 60 -->
      <defs>
       <path d="M 49.75 54.046875 
L 41.015625 53.375 
Q 39.84375 58.546875 37.703125 60.890625 
Q 34.125 64.65625 28.90625 64.65625 
Q 24.703125 64.65625 21.53125 62.3125 
Q 17.390625 59.28125 14.984375 53.46875 
Q 12.59375 47.65625 12.5 36.921875 
Q 15.671875 41.75 20.265625 44.09375 
Q 24.859375 46.4375 29.890625 46.4375 
Q 38.671875 46.4375 44.84375 39.96875 
Q 51.03125 33.5 51.03125 23.25 
Q 51.03125 16.5 48.125 10.71875 
Q 45.21875 4.9375 40.140625 1.859375 
Q 35.0625 -1.21875 28.609375 -1.21875 
Q 17.625 -1.21875 10.6875 6.859375 
Q 3.765625 14.9375 3.765625 33.5 
Q 3.765625 54.25 11.421875 63.671875 
Q 18.109375 71.875 29.4375 71.875 
Q 37.890625 71.875 43.28125 67.140625 
Q 48.6875 62.40625 49.75 54.046875 
z
M 13.875 23.1875 
Q 13.875 18.65625 15.796875 14.5 
Q 17.71875 10.359375 21.1875 8.171875 
Q 24.65625 6 28.46875 6 
Q 34.03125 6 38.03125 10.484375 
Q 42.046875 14.984375 42.046875 22.703125 
Q 42.046875 30.125 38.078125 34.390625 
Q 34.125 38.671875 28.125 38.671875 
Q 22.171875 38.671875 18.015625 34.390625 
Q 13.875 30.125 13.875 23.1875 
z
" id="ArialMT-54"/>
       <path d="M 4.15625 35.296875 
Q 4.15625 48 6.765625 55.734375 
Q 9.375 63.484375 14.515625 67.671875 
Q 19.671875 71.875 27.484375 71.875 
Q 33.25 71.875 37.59375 69.546875 
Q 41.9375 67.234375 44.765625 62.859375 
Q 47.609375 58.5 49.21875 52.21875 
Q 50.828125 45.953125 50.828125 35.296875 
Q 50.828125 22.703125 48.234375 14.96875 
Q 45.65625 7.234375 40.5 3 
Q 35.359375 -1.21875 27.484375 -1.21875 
Q 17.140625 -1.21875 11.234375 6.203125 
Q 4.15625 15.140625 4.15625 35.296875 
z
M 13.1875 35.296875 
Q 13.1875 17.671875 17.3125 11.828125 
Q 21.4375 6 27.484375 6 
Q 33.546875 6 37.671875 11.859375 
Q 41.796875 17.71875 41.796875 35.296875 
Q 41.796875 52.984375 37.671875 58.78125 
Q 33.546875 64.59375 27.390625 64.59375 
Q 21.34375 64.59375 17.71875 59.46875 
Q 13.1875 52.9375 13.1875 35.296875 
z
" id="ArialMT-48"/>
      </defs>
      <g style="fill:#262626;" transform="translate(365.375802 655.247187)scale(0.22 -0.22)">
       <use xlink:href="#ArialMT-54"/>
       <use x="55.615234" xlink:href="#ArialMT-48"/>
      </g>
     </g>
    </g>
    <g id="xtick_3">
     <g id="line2d_3">
      <path clip-path="url(#p33147de1f7)" d="M 507.98766 630 
L 507.98766 86.4 
" style="fill:none;stroke:#cccccc;stroke-linecap:round;"/>
     </g>
     <g id="text_3">
      <!-- 61 -->
      <defs>
       <path d="M 37.25 0 
L 28.46875 0 
L 28.46875 56 
Q 25.296875 52.984375 20.140625 49.953125 
Q 14.984375 46.921875 10.890625 45.40625 
L 10.890625 53.90625 
Q 18.265625 57.375 23.78125 62.296875 
Q 29.296875 67.234375 31.59375 71.875 
L 37.25 71.875 
z
" id="ArialMT-49"/>
      </defs>
      <g style="fill:#262626;" transform="translate(495.753598 655.247187)scale(0.22 -0.22)">
       <use xlink:href="#ArialMT-54"/>
       <use x="55.615234" xlink:href="#ArialMT-49"/>
      </g>
     </g>
    </g>
    <g id="xtick_4">
     <g id="line2d_4">
      <path clip-path="url(#p33147de1f7)" d="M 638.365456 630 
L 638.365456 86.4 
" style="fill:none;stroke:#cccccc;stroke-linecap:round;"/>
     </g>
     <g id="text_4">
      <!-- 62 -->
      <defs>
       <path d="M 50.34375 8.453125 
L 50.34375 0 
L 3.03125 0 
Q 2.9375 3.171875 4.046875 6.109375 
Q 5.859375 10.9375 9.828125 15.625 
Q 13.8125 20.3125 21.34375 26.46875 
Q 33.015625 36.03125 37.109375 41.625 
Q 41.21875 47.21875 41.21875 52.203125 
Q 41.21875 57.421875 37.46875 61 
Q 33.734375 64.59375 27.734375 64.59375 
Q 21.390625 64.59375 17.578125 60.78125 
Q 13.765625 56.984375 13.71875 50.25 
L 4.6875 51.171875 
Q 5.609375 61.28125 11.65625 66.578125 
Q 17.71875 71.875 27.9375 71.875 
Q 38.234375 71.875 44.234375 66.15625 
Q 50.25 60.453125 50.25 52 
Q 50.25 47.703125 48.484375 43.546875 
Q 46.734375 39.40625 42.65625 34.8125 
Q 38.578125 30.21875 29.109375 22.21875 
Q 21.1875 15.578125 18.9375 13.203125 
Q 16.703125 10.84375 15.234375 8.453125 
z
" id="ArialMT-50"/>
      </defs>
      <g style="fill:#262626;" transform="translate(626.131393 655.247187)scale(0.22 -0.22)">
       <use xlink:href="#ArialMT-54"/>
       <use x="55.615234" xlink:href="#ArialMT-50"/>
      </g>
     </g>
    </g>
    <g id="xtick_5">
     <g id="line2d_5">
      <path clip-path="url(#p33147de1f7)" d="M 768.743252 630 
L 768.743252 86.4 
" style="fill:none;stroke:#cccccc;stroke-linecap:round;"/>
     </g>
     <g id="text_5">
      <!-- 63 -->
      <defs>
       <path d="M 4.203125 18.890625 
L 12.984375 20.0625 
Q 14.5 12.59375 18.140625 9.296875 
Q 21.78125 6 27 6 
Q 33.203125 6 37.46875 10.296875 
Q 41.75 14.59375 41.75 20.953125 
Q 41.75 27 37.796875 30.921875 
Q 33.84375 34.859375 27.734375 34.859375 
Q 25.25 34.859375 21.53125 33.890625 
L 22.515625 41.609375 
Q 23.390625 41.5 23.921875 41.5 
Q 29.546875 41.5 34.03125 44.421875 
Q 38.53125 47.359375 38.53125 53.46875 
Q 38.53125 58.296875 35.25 61.46875 
Q 31.984375 64.65625 26.8125 64.65625 
Q 21.6875 64.65625 18.265625 61.421875 
Q 14.84375 58.203125 13.875 51.765625 
L 5.078125 53.328125 
Q 6.6875 62.15625 12.390625 67.015625 
Q 18.109375 71.875 26.609375 71.875 
Q 32.46875 71.875 37.390625 69.359375 
Q 42.328125 66.84375 44.9375 62.5 
Q 47.5625 58.15625 47.5625 53.265625 
Q 47.5625 48.640625 45.0625 44.828125 
Q 42.578125 41.015625 37.703125 38.765625 
Q 44.046875 37.3125 47.5625 32.6875 
Q 51.078125 28.078125 51.078125 21.140625 
Q 51.078125 11.765625 44.234375 5.25 
Q 37.40625 -1.265625 26.953125 -1.265625 
Q 17.53125 -1.265625 11.296875 4.34375 
Q 5.078125 9.96875 4.203125 18.890625 
z
" id="ArialMT-51"/>
      </defs>
      <g style="fill:#262626;" transform="translate(756.509189 655.247187)scale(0.22 -0.22)">
       <use xlink:href="#ArialMT-54"/>
       <use x="55.615234" xlink:href="#ArialMT-51"/>
      </g>
     </g>
    </g>
    <g id="xtick_6">
     <g id="line2d_6">
      <path clip-path="url(#p33147de1f7)" d="M 899.121048 630 
L 899.121048 86.4 
" style="fill:none;stroke:#cccccc;stroke-linecap:round;"/>
     </g>
     <g id="text_6">
      <!-- 64 -->
      <defs>
       <path d="M 32.328125 0 
L 32.328125 17.140625 
L 1.265625 17.140625 
L 1.265625 25.203125 
L 33.9375 71.578125 
L 41.109375 71.578125 
L 41.109375 25.203125 
L 50.78125 25.203125 
L 50.78125 17.140625 
L 41.109375 17.140625 
L 41.109375 0 
z
M 32.328125 25.203125 
L 32.328125 57.46875 
L 9.90625 25.203125 
z
" id="ArialMT-52"/>
      </defs>
      <g style="fill:#262626;" transform="translate(886.886985 655.247187)scale(0.22 -0.22)">
       <use xlink:href="#ArialMT-54"/>
       <use x="55.615234" xlink:href="#ArialMT-52"/>
      </g>
     </g>
    </g>
    <g id="xtick_7">
     <g id="line2d_7">
      <path clip-path="url(#p33147de1f7)" d="M 1029.498843 630 
L 1029.498843 86.4 
" style="fill:none;stroke:#cccccc;stroke-linecap:round;"/>
     </g>
     <g id="text_7">
      <!-- 65 -->
      <g style="fill:#262626;" transform="translate(1017.264781 655.247187)scale(0.22 -0.22)">
       <use xlink:href="#ArialMT-54"/>
       <use x="55.615234" xlink:href="#ArialMT-53"/>
      </g>
     </g>
    </g>
    <g id="text_8">
     <!-- Simulation Result -->
     <defs>
      <path d="M 4.5 23 
L 13.421875 23.78125 
Q 14.0625 18.40625 16.375 14.96875 
Q 18.703125 11.53125 23.578125 9.40625 
Q 28.46875 7.28125 34.578125 7.28125 
Q 39.984375 7.28125 44.140625 8.890625 
Q 48.296875 10.5 50.3125 13.296875 
Q 52.34375 16.109375 52.34375 19.4375 
Q 52.34375 22.796875 50.390625 25.3125 
Q 48.4375 27.828125 43.953125 29.546875 
Q 41.0625 30.671875 31.203125 33.03125 
Q 21.34375 35.40625 17.390625 37.5 
Q 12.25 40.1875 9.734375 44.15625 
Q 7.234375 48.140625 7.234375 53.078125 
Q 7.234375 58.5 10.296875 63.203125 
Q 13.375 67.921875 19.28125 70.359375 
Q 25.203125 72.796875 32.421875 72.796875 
Q 40.375 72.796875 46.453125 70.234375 
Q 52.546875 67.671875 55.8125 62.6875 
Q 59.078125 57.71875 59.328125 51.421875 
L 50.25 50.734375 
Q 49.515625 57.515625 45.28125 60.984375 
Q 41.0625 64.453125 32.8125 64.453125 
Q 24.21875 64.453125 20.28125 61.296875 
Q 16.359375 58.15625 16.359375 53.71875 
Q 16.359375 49.859375 19.140625 47.359375 
Q 21.875 44.875 33.421875 42.265625 
Q 44.96875 39.65625 49.265625 37.703125 
Q 55.515625 34.8125 58.484375 30.390625 
Q 61.46875 25.984375 61.46875 20.21875 
Q 61.46875 14.5 58.203125 9.4375 
Q 54.9375 4.390625 48.796875 1.578125 
Q 42.671875 -1.21875 35.015625 -1.21875 
Q 25.296875 -1.21875 18.71875 1.609375 
Q 12.15625 4.4375 8.421875 10.125 
Q 4.6875 15.828125 4.5 23 
z
" id="ArialMT-83"/>
      <path d="M 6.640625 61.46875 
L 6.640625 71.578125 
L 15.4375 71.578125 
L 15.4375 61.46875 
z
M 6.640625 0 
L 6.640625 51.859375 
L 15.4375 51.859375 
L 15.4375 0 
z
" id="ArialMT-105"/>
      <path d="M 6.59375 0 
L 6.59375 51.859375 
L 14.453125 51.859375 
L 14.453125 44.578125 
Q 16.890625 48.390625 20.9375 50.703125 
Q 25 53.03125 30.171875 53.03125 
Q 35.9375 53.03125 39.625 50.640625 
Q 43.3125 48.25 44.828125 43.953125 
Q 50.984375 53.03125 60.84375 53.03125 
Q 68.5625 53.03125 72.703125 48.75 
Q 76.859375 44.484375 76.859375 35.59375 
L 76.859375 0 
L 68.109375 0 
L 68.109375 32.671875 
Q 68.109375 37.9375 67.25 40.25 
Q 66.40625 42.578125 64.15625 43.984375 
Q 61.921875 45.40625 58.890625 45.40625 
Q 53.421875 45.40625 49.796875 41.765625 
Q 46.1875 38.140625 46.1875 30.125 
L 46.1875 0 
L 37.40625 0 
L 37.40625 33.6875 
Q 37.40625 39.546875 35.25 42.46875 
Q 33.109375 45.40625 28.21875 45.40625 
Q 24.515625 45.40625 21.359375 43.453125 
Q 18.21875 41.5 16.796875 37.734375 
Q 15.375 33.984375 15.375 26.90625 
L 15.375 0 
z
" id="ArialMT-109"/>
      <path d="M 40.578125 0 
L 40.578125 7.625 
Q 34.515625 -1.171875 24.125 -1.171875 
Q 19.53125 -1.171875 15.546875 0.578125 
Q 11.578125 2.34375 9.640625 5 
Q 7.71875 7.671875 6.9375 11.53125 
Q 6.390625 14.109375 6.390625 19.734375 
L 6.390625 51.859375 
L 15.1875 51.859375 
L 15.1875 23.09375 
Q 15.1875 16.21875 15.71875 13.8125 
Q 16.546875 10.359375 19.234375 8.375 
Q 21.921875 6.390625 25.875 6.390625 
Q 29.828125 6.390625 33.296875 8.421875 
Q 36.765625 10.453125 38.203125 13.9375 
Q 39.65625 17.4375 39.65625 24.078125 
L 39.65625 51.859375 
L 48.4375 51.859375 
L 48.4375 0 
z
" id="ArialMT-117"/>
      <path d="M 6.390625 0 
L 6.390625 71.578125 
L 15.1875 71.578125 
L 15.1875 0 
z
" id="ArialMT-108"/>
      <path d="M 40.4375 6.390625 
Q 35.546875 2.25 31.03125 0.53125 
Q 26.515625 -1.171875 21.34375 -1.171875 
Q 12.796875 -1.171875 8.203125 3 
Q 3.609375 7.171875 3.609375 13.671875 
Q 3.609375 17.484375 5.34375 20.625 
Q 7.078125 23.78125 9.890625 25.6875 
Q 12.703125 27.59375 16.21875 28.5625 
Q 18.796875 29.25 24.03125 29.890625 
Q 34.671875 31.15625 39.703125 32.90625 
Q 39.75 34.71875 39.75 35.203125 
Q 39.75 40.578125 37.25 42.78125 
Q 33.890625 45.75 27.25 45.75 
Q 21.046875 45.75 18.09375 43.578125 
Q 15.140625 41.40625 13.71875 35.890625 
L 5.125 37.0625 
Q 6.296875 42.578125 8.984375 45.96875 
Q 11.671875 49.359375 16.75 51.1875 
Q 21.828125 53.03125 28.515625 53.03125 
Q 35.15625 53.03125 39.296875 51.46875 
Q 43.453125 49.90625 45.40625 47.53125 
Q 47.359375 45.171875 48.140625 41.546875 
Q 48.578125 39.3125 48.578125 33.453125 
L 48.578125 21.734375 
Q 48.578125 9.46875 49.140625 6.21875 
Q 49.703125 2.984375 51.375 0 
L 42.1875 0 
Q 40.828125 2.734375 40.4375 6.390625 
z
M 39.703125 26.03125 
Q 34.90625 24.078125 25.34375 22.703125 
Q 19.921875 21.921875 17.671875 20.9375 
Q 15.4375 19.96875 14.203125 18.09375 
Q 12.984375 16.21875 12.984375 13.921875 
Q 12.984375 10.40625 15.640625 8.0625 
Q 18.3125 5.71875 23.4375 5.71875 
Q 28.515625 5.71875 32.46875 7.9375 
Q 36.421875 10.15625 38.28125 14.015625 
Q 39.703125 17 39.703125 22.796875 
z
" id="ArialMT-97"/>
      <path d="M 25.78125 7.859375 
L 27.046875 0.09375 
Q 23.34375 -0.6875 20.40625 -0.6875 
Q 15.625 -0.6875 12.984375 0.828125 
Q 10.359375 2.34375 9.28125 4.8125 
Q 8.203125 7.28125 8.203125 15.1875 
L 8.203125 45.015625 
L 1.765625 45.015625 
L 1.765625 51.859375 
L 8.203125 51.859375 
L 8.203125 64.703125 
L 16.9375 69.96875 
L 16.9375 51.859375 
L 25.78125 51.859375 
L 25.78125 45.015625 
L 16.9375 45.015625 
L 16.9375 14.703125 
Q 16.9375 10.9375 17.40625 9.859375 
Q 17.875 8.796875 18.921875 8.15625 
Q 19.96875 7.515625 21.921875 7.515625 
Q 23.390625 7.515625 25.78125 7.859375 
z
" id="ArialMT-116"/>
      <path d="M 3.328125 25.921875 
Q 3.328125 40.328125 11.328125 47.265625 
Q 18.015625 53.03125 27.640625 53.03125 
Q 38.328125 53.03125 45.109375 46.015625 
Q 51.90625 39.015625 51.90625 26.65625 
Q 51.90625 16.65625 48.90625 10.90625 
Q 45.90625 5.171875 40.15625 2 
Q 34.421875 -1.171875 27.640625 -1.171875 
Q 16.75 -1.171875 10.03125 5.8125 
Q 3.328125 12.796875 3.328125 25.921875 
z
M 12.359375 25.921875 
Q 12.359375 15.96875 16.703125 11.015625 
Q 21.046875 6.0625 27.640625 6.0625 
Q 34.1875 6.0625 38.53125 11.03125 
Q 42.875 16.015625 42.875 26.21875 
Q 42.875 35.84375 38.5 40.796875 
Q 34.125 45.75 27.640625 45.75 
Q 21.046875 45.75 16.703125 40.8125 
Q 12.359375 35.890625 12.359375 25.921875 
z
" id="ArialMT-111"/>
      <path d="M 6.59375 0 
L 6.59375 51.859375 
L 14.5 51.859375 
L 14.5 44.484375 
Q 20.21875 53.03125 31 53.03125 
Q 35.6875 53.03125 39.625 51.34375 
Q 43.5625 49.65625 45.515625 46.921875 
Q 47.46875 44.1875 48.25 40.4375 
Q 48.734375 37.984375 48.734375 31.890625 
L 48.734375 0 
L 39.9375 0 
L 39.9375 31.546875 
Q 39.9375 36.921875 38.90625 39.578125 
Q 37.890625 42.234375 35.28125 43.8125 
Q 32.671875 45.40625 29.15625 45.40625 
Q 23.53125 45.40625 19.453125 41.84375 
Q 15.375 38.28125 15.375 28.328125 
L 15.375 0 
z
" id="ArialMT-110"/>
      <path id="ArialMT-32"/>
      <path d="M 7.859375 0 
L 7.859375 71.578125 
L 39.59375 71.578125 
Q 49.171875 71.578125 54.140625 69.640625 
Q 59.125 67.71875 62.109375 62.828125 
Q 65.09375 57.953125 65.09375 52.046875 
Q 65.09375 44.4375 60.15625 39.203125 
Q 55.21875 33.984375 44.921875 32.5625 
Q 48.6875 30.765625 50.640625 29 
Q 54.78125 25.203125 58.5 19.484375 
L 70.953125 0 
L 59.03125 0 
L 49.5625 14.890625 
Q 45.40625 21.34375 42.71875 24.75 
Q 40.046875 28.171875 37.921875 29.53125 
Q 35.796875 30.90625 33.59375 31.453125 
Q 31.984375 31.78125 28.328125 31.78125 
L 17.328125 31.78125 
L 17.328125 0 
z
M 17.328125 39.984375 
L 37.703125 39.984375 
Q 44.1875 39.984375 47.84375 41.328125 
Q 51.515625 42.671875 53.421875 45.625 
Q 55.328125 48.578125 55.328125 52.046875 
Q 55.328125 57.125 51.640625 60.390625 
Q 47.953125 63.671875 39.984375 63.671875 
L 17.328125 63.671875 
z
" id="ArialMT-82"/>
      <path d="M 42.09375 16.703125 
L 51.171875 15.578125 
Q 49.03125 7.625 43.21875 3.21875 
Q 37.40625 -1.171875 28.375 -1.171875 
Q 17 -1.171875 10.328125 5.828125 
Q 3.65625 12.84375 3.65625 25.484375 
Q 3.65625 38.578125 10.390625 45.796875 
Q 17.140625 53.03125 27.875 53.03125 
Q 38.28125 53.03125 44.875 45.953125 
Q 51.46875 38.875 51.46875 26.03125 
Q 51.46875 25.25 51.421875 23.6875 
L 12.75 23.6875 
Q 13.234375 15.140625 17.578125 10.59375 
Q 21.921875 6.0625 28.421875 6.0625 
Q 33.25 6.0625 36.671875 8.59375 
Q 40.09375 11.140625 42.09375 16.703125 
z
M 13.234375 30.90625 
L 42.1875 30.90625 
Q 41.609375 37.453125 38.875 40.71875 
Q 34.671875 45.796875 27.984375 45.796875 
Q 21.921875 45.796875 17.796875 41.75 
Q 13.671875 37.703125 13.234375 30.90625 
z
" id="ArialMT-101"/>
      <path d="M 3.078125 15.484375 
L 11.765625 16.84375 
Q 12.5 11.625 15.84375 8.84375 
Q 19.1875 6.0625 25.203125 6.0625 
Q 31.25 6.0625 34.171875 8.515625 
Q 37.109375 10.984375 37.109375 14.3125 
Q 37.109375 17.28125 34.515625 19 
Q 32.71875 20.171875 25.53125 21.96875 
Q 15.875 24.421875 12.140625 26.203125 
Q 8.40625 27.984375 6.46875 31.125 
Q 4.546875 34.28125 4.546875 38.09375 
Q 4.546875 41.546875 6.125 44.5 
Q 7.71875 47.46875 10.453125 49.421875 
Q 12.5 50.921875 16.03125 51.96875 
Q 19.578125 53.03125 23.640625 53.03125 
Q 29.734375 53.03125 34.34375 51.265625 
Q 38.96875 49.515625 41.15625 46.5 
Q 43.359375 43.5 44.1875 38.484375 
L 35.59375 37.3125 
Q 35.015625 41.3125 32.203125 43.546875 
Q 29.390625 45.796875 24.265625 45.796875 
Q 18.21875 45.796875 15.625 43.796875 
Q 13.03125 41.796875 13.03125 39.109375 
Q 13.03125 37.40625 14.109375 36.03125 
Q 15.1875 34.625 17.484375 33.6875 
Q 18.796875 33.203125 25.25 31.453125 
Q 34.578125 28.953125 38.25 27.359375 
Q 41.9375 25.78125 44.03125 22.75 
Q 46.140625 19.734375 46.140625 15.234375 
Q 46.140625 10.84375 43.578125 6.953125 
Q 41.015625 3.078125 36.171875 0.953125 
Q 31.34375 -1.171875 25.25 -1.171875 
Q 15.140625 -1.171875 9.84375 3.03125 
Q 4.546875 7.234375 3.078125 15.484375 
z
" id="ArialMT-115"/>
     </defs>
     <g style="fill:#262626;" transform="translate(497.02875 680.798437)scale(0.24 -0.24)">
      <use xlink:href="#ArialMT-83"/>
      <use x="66.699219" xlink:href="#ArialMT-105"/>
      <use x="88.916016" xlink:href="#ArialMT-109"/>
      <use x="172.216797" xlink:href="#ArialMT-117"/>
      <use x="227.832031" xlink:href="#ArialMT-108"/>
      <use x="250.048828" xlink:href="#ArialMT-97"/>
      <use x="305.664062" xlink:href="#ArialMT-116"/>
      <use x="333.447266" xlink:href="#ArialMT-105"/>
      <use x="355.664062" xlink:href="#ArialMT-111"/>
      <use x="411.279297" xlink:href="#ArialMT-110"/>
      <use x="466.894531" xlink:href="#ArialMT-32"/>
      <use x="494.677734" xlink:href="#ArialMT-82"/>
      <use x="566.894531" xlink:href="#ArialMT-101"/>
      <use x="622.509766" xlink:href="#ArialMT-115"/>
      <use x="672.509766" xlink:href="#ArialMT-117"/>
      <use x="728.125" xlink:href="#ArialMT-108"/>
      <use x="750.341797" xlink:href="#ArialMT-116"/>
     </g>
    </g>
   </g>
   <g id="matplotlib.axis_2">
    <g id="ytick_1">
     <g id="line2d_8">
      <path clip-path="url(#p33147de1f7)" d="M 144 620.316587 
L 1036.8 620.316587 
" style="fill:none;stroke:#cccccc;stroke-linecap:round;"/>
     </g>
     <g id="text_9">
      <!-- 58 -->
      <defs>
       <path d="M 17.671875 38.8125 
Q 12.203125 40.828125 9.5625 44.53125 
Q 6.9375 48.25 6.9375 53.421875 
Q 6.9375 61.234375 12.546875 66.546875 
Q 18.171875 71.875 27.484375 71.875 
Q 36.859375 71.875 42.578125 66.421875 
Q 48.296875 60.984375 48.296875 53.171875 
Q 48.296875 48.1875 45.671875 44.5 
Q 43.0625 40.828125 37.75 38.8125 
Q 44.34375 36.671875 47.78125 31.875 
Q 51.21875 27.09375 51.21875 20.453125 
Q 51.21875 11.28125 44.71875 5.03125 
Q 38.234375 -1.21875 27.640625 -1.21875 
Q 17.046875 -1.21875 10.546875 5.046875 
Q 4.046875 11.328125 4.046875 20.703125 
Q 4.046875 27.6875 7.59375 32.390625 
Q 11.140625 37.109375 17.671875 38.8125 
z
M 15.921875 53.71875 
Q 15.921875 48.640625 19.1875 45.40625 
Q 22.46875 42.1875 27.6875 42.1875 
Q 32.765625 42.1875 36.015625 45.375 
Q 39.265625 48.578125 39.265625 53.21875 
Q 39.265625 58.0625 35.90625 61.359375 
Q 32.5625 64.65625 27.59375 64.65625 
Q 22.5625 64.65625 19.234375 61.421875 
Q 15.921875 58.203125 15.921875 53.71875 
z
M 13.09375 20.65625 
Q 13.09375 16.890625 14.875 13.375 
Q 16.65625 9.859375 20.171875 7.921875 
Q 23.6875 6 27.734375 6 
Q 34.03125 6 38.125 10.046875 
Q 42.234375 14.109375 42.234375 20.359375 
Q 42.234375 26.703125 38.015625 30.859375 
Q 33.796875 35.015625 27.4375 35.015625 
Q 21.234375 35.015625 17.15625 30.90625 
Q 13.09375 26.8125 13.09375 20.65625 
z
" id="ArialMT-56"/>
      </defs>
      <g style="fill:#262626;" transform="translate(110.031875 628.19018)scale(0.22 -0.22)">
       <use xlink:href="#ArialMT-53"/>
       <use x="55.615234" xlink:href="#ArialMT-56"/>
      </g>
     </g>
    </g>
    <g id="ytick_2">
     <g id="line2d_9">
      <path clip-path="url(#p33147de1f7)" d="M 144 548.149991 
L 1036.8 548.149991 
" style="fill:none;stroke:#cccccc;stroke-linecap:round;"/>
     </g>
     <g id="text_10">
      <!-- 59 -->
      <g style="fill:#262626;" transform="translate(110.031875 556.023585)scale(0.22 -0.22)">
       <use xlink:href="#ArialMT-53"/>
       <use x="55.615234" xlink:href="#ArialMT-57"/>
      </g>
     </g>
    </g>
    <g id="ytick_3">
     <g id="line2d_10">
      <path clip-path="url(#p33147de1f7)" d="M 144 475.983396 
L 1036.8 475.983396 
" style="fill:none;stroke:#cccccc;stroke-linecap:round;"/>
     </g>
     <g id="text_11">
      <!-- 60 -->
      <g style="fill:#262626;" transform="translate(110.031875 483.85699)scale(0.22 -0.22)">
       <use xlink:href="#ArialMT-54"/>
       <use x="55.615234" xlink:href="#ArialMT-48"/>
      </g>
     </g>
    </g>
    <g id="ytick_4">
     <g id="line2d_11">
      <path clip-path="url(#p33147de1f7)" d="M 144 403.816801 
L 1036.8 403.816801 
" style="fill:none;stroke:#cccccc;stroke-linecap:round;"/>
     </g>
     <g id="text_12">
      <!-- 61 -->
      <g style="fill:#262626;" transform="translate(110.031875 411.690395)scale(0.22 -0.22)">
       <use xlink:href="#ArialMT-54"/>
       <use x="55.615234" xlink:href="#ArialMT-49"/>
      </g>
     </g>
    </g>
    <g id="ytick_5">
     <g id="line2d_12">
      <path clip-path="url(#p33147de1f7)" d="M 144 331.650206 
L 1036.8 331.650206 
" style="fill:none;stroke:#cccccc;stroke-linecap:round;"/>
     </g>
     <g id="text_13">
      <!-- 62 -->
      <g style="fill:#262626;" transform="translate(110.031875 339.5238)scale(0.22 -0.22)">
       <use xlink:href="#ArialMT-54"/>
       <use x="55.615234" xlink:href="#ArialMT-50"/>
      </g>
     </g>
    </g>
    <g id="ytick_6">
     <g id="line2d_13">
      <path clip-path="url(#p33147de1f7)" d="M 144 259.483611 
L 1036.8 259.483611 
" style="fill:none;stroke:#cccccc;stroke-linecap:round;"/>
     </g>
     <g id="text_14">
      <!-- 63 -->
      <g style="fill:#262626;" transform="translate(110.031875 267.357204)scale(0.22 -0.22)">
       <use xlink:href="#ArialMT-54"/>
       <use x="55.615234" xlink:href="#ArialMT-51"/>
      </g>
     </g>
    </g>
    <g id="ytick_7">
     <g id="line2d_14">
      <path clip-path="url(#p33147de1f7)" d="M 144 187.317015 
L 1036.8 187.317015 
" style="fill:none;stroke:#cccccc;stroke-linecap:round;"/>
     </g>
     <g id="text_15">
      <!-- 64 -->
      <g style="fill:#262626;" transform="translate(110.031875 195.190609)scale(0.22 -0.22)">
       <use xlink:href="#ArialMT-54"/>
       <use x="55.615234" xlink:href="#ArialMT-52"/>
      </g>
     </g>
    </g>
    <g id="ytick_8">
     <g id="line2d_15">
      <path clip-path="url(#p33147de1f7)" d="M 144 115.15042 
L 1036.8 115.15042 
" style="fill:none;stroke:#cccccc;stroke-linecap:round;"/>
     </g>
     <g id="text_16">
      <!-- 65 -->
      <g style="fill:#262626;" transform="translate(110.031875 123.024014)scale(0.22 -0.22)">
       <use xlink:href="#ArialMT-54"/>
       <use x="55.615234" xlink:href="#ArialMT-53"/>
      </g>
     </g>
    </g>
    <g id="text_17">
     <!-- Predicted -->
     <defs>
      <path d="M 7.71875 0 
L 7.71875 71.578125 
L 34.71875 71.578125 
Q 41.84375 71.578125 45.609375 70.90625 
Q 50.875 70.015625 54.4375 67.546875 
Q 58.015625 65.09375 60.1875 60.640625 
Q 62.359375 56.203125 62.359375 50.875 
Q 62.359375 41.75 56.546875 35.421875 
Q 50.734375 29.109375 35.546875 29.109375 
L 17.1875 29.109375 
L 17.1875 0 
z
M 17.1875 37.546875 
L 35.6875 37.546875 
Q 44.875 37.546875 48.734375 40.96875 
Q 52.59375 44.390625 52.59375 50.59375 
Q 52.59375 55.078125 50.3125 58.265625 
Q 48.046875 61.46875 44.34375 62.5 
Q 41.9375 63.140625 35.5 63.140625 
L 17.1875 63.140625 
z
" id="ArialMT-80"/>
      <path d="M 6.5 0 
L 6.5 51.859375 
L 14.40625 51.859375 
L 14.40625 44 
Q 17.4375 49.515625 20 51.265625 
Q 22.5625 53.03125 25.640625 53.03125 
Q 30.078125 53.03125 34.671875 50.203125 
L 31.640625 42.046875 
Q 28.421875 43.953125 25.203125 43.953125 
Q 22.3125 43.953125 20.015625 42.21875 
Q 17.71875 40.484375 16.75 37.40625 
Q 15.28125 32.71875 15.28125 27.15625 
L 15.28125 0 
z
" id="ArialMT-114"/>
      <path d="M 40.234375 0 
L 40.234375 6.546875 
Q 35.296875 -1.171875 25.734375 -1.171875 
Q 19.53125 -1.171875 14.328125 2.25 
Q 9.125 5.671875 6.265625 11.796875 
Q 3.421875 17.921875 3.421875 25.875 
Q 3.421875 33.640625 6 39.96875 
Q 8.59375 46.296875 13.765625 49.65625 
Q 18.953125 53.03125 25.34375 53.03125 
Q 30.03125 53.03125 33.6875 51.046875 
Q 37.359375 49.078125 39.65625 45.90625 
L 39.65625 71.578125 
L 48.390625 71.578125 
L 48.390625 0 
z
M 12.453125 25.875 
Q 12.453125 15.921875 16.640625 10.984375 
Q 20.84375 6.0625 26.5625 6.0625 
Q 32.328125 6.0625 36.34375 10.765625 
Q 40.375 15.484375 40.375 25.140625 
Q 40.375 35.796875 36.265625 40.765625 
Q 32.171875 45.75 26.171875 45.75 
Q 20.3125 45.75 16.375 40.96875 
Q 12.453125 36.1875 12.453125 25.875 
z
" id="ArialMT-100"/>
      <path d="M 40.4375 19 
L 49.078125 17.875 
Q 47.65625 8.9375 41.8125 3.875 
Q 35.984375 -1.171875 27.484375 -1.171875 
Q 16.84375 -1.171875 10.375 5.78125 
Q 3.90625 12.75 3.90625 25.734375 
Q 3.90625 34.125 6.6875 40.421875 
Q 9.46875 46.734375 15.15625 49.875 
Q 20.84375 53.03125 27.546875 53.03125 
Q 35.984375 53.03125 41.359375 48.75 
Q 46.734375 44.484375 48.25 36.625 
L 39.703125 35.296875 
Q 38.484375 40.53125 35.375 43.15625 
Q 32.28125 45.796875 27.875 45.796875 
Q 21.234375 45.796875 17.078125 41.03125 
Q 12.9375 36.28125 12.9375 25.984375 
Q 12.9375 15.53125 16.9375 10.796875 
Q 20.953125 6.0625 27.390625 6.0625 
Q 32.5625 6.0625 36.03125 9.234375 
Q 39.5 12.40625 40.4375 19 
z
" id="ArialMT-99"/>
     </defs>
     <g style="fill:#262626;" transform="translate(101.261875 408.8925)rotate(-90)scale(0.24 -0.24)">
      <use xlink:href="#ArialMT-80"/>
      <use x="66.699219" xlink:href="#ArialMT-114"/>
      <use x="100" xlink:href="#ArialMT-101"/>
      <use x="155.615234" xlink:href="#ArialMT-100"/>
      <use x="211.230469" xlink:href="#ArialMT-105"/>
      <use x="233.447266" xlink:href="#ArialMT-99"/>
      <use x="283.447266" xlink:href="#ArialMT-116"/>
      <use x="311.230469" xlink:href="#ArialMT-101"/>
      <use x="366.845703" xlink:href="#ArialMT-100"/>
     </g>
    </g>
   </g>
   <g id="LineCollection_1">
    <path clip-path="url(#p33147de1f7)" d="M 759.486428 500.862809 
L 759.486428 178.715218 
" style="fill:none;stroke:#64b5cd;stroke-width:0.5;"/>
    <path clip-path="url(#p33147de1f7)" d="M 628.707841 464.605958 
L 628.707841 142.865312 
" style="fill:none;stroke:#64b5cd;stroke-width:0.5;"/>
    <path clip-path="url(#p33147de1f7)" d="M 539.669465 490.39375 
L 539.669465 168.311746 
" style="fill:none;stroke:#64b5cd;stroke-width:0.5;"/>
    <path clip-path="url(#p33147de1f7)" d="M 752.054894 480.62661 
L 752.054894 158.531712 
" style="fill:none;stroke:#64b5cd;stroke-width:0.5;"/>
    <path clip-path="url(#p33147de1f7)" d="M 705.379643 489.440517 
L 705.379643 167.748886 
" style="fill:none;stroke:#64b5cd;stroke-width:0.5;"/>
    <path clip-path="url(#p33147de1f7)" d="M 816.983036 485.476337 
L 816.983036 163.281916 
" style="fill:none;stroke:#64b5cd;stroke-width:0.5;"/>
    <path clip-path="url(#p33147de1f7)" d="M 532.889819 502.748476 
L 532.889819 178.279513 
" style="fill:none;stroke:#64b5cd;stroke-width:0.5;"/>
    <path clip-path="url(#p33147de1f7)" d="M 544.754199 481.917507 
L 544.754199 160.236381 
" style="fill:none;stroke:#64b5cd;stroke-width:0.5;"/>
    <path clip-path="url(#p33147de1f7)" d="M 636.540167 471.231955 
L 636.540167 149.175801 
" style="fill:none;stroke:#64b5cd;stroke-width:0.5;"/>
    <path clip-path="url(#p33147de1f7)" d="M 736.148803 492.146764 
L 736.148803 169.762557 
" style="fill:none;stroke:#64b5cd;stroke-width:0.5;"/>
    <path clip-path="url(#p33147de1f7)" d="M 432.031827 475.707181 
L 432.031827 153.974433 
" style="fill:none;stroke:#64b5cd;stroke-width:0.5;"/>
    <path clip-path="url(#p33147de1f7)" d="M 722.328756 483.925811 
L 722.328756 162.251845 
" style="fill:none;stroke:#64b5cd;stroke-width:0.5;"/>
    <path clip-path="url(#p33147de1f7)" d="M 360.13924 509.487148 
L 360.13924 187.675926 
" style="fill:none;stroke:#64b5cd;stroke-width:0.5;"/>
    <path clip-path="url(#p33147de1f7)" d="M 369.917574 502.993628 
L 369.917574 181.29686 
" style="fill:none;stroke:#64b5cd;stroke-width:0.5;"/>
    <path clip-path="url(#p33147de1f7)" d="M 638.495834 503.335445 
L 638.495834 178.280554 
" style="fill:none;stroke:#64b5cd;stroke-width:0.5;"/>
    <path clip-path="url(#p33147de1f7)" d="M 691.298841 480.43088 
L 691.298841 158.707604 
" style="fill:none;stroke:#64b5cd;stroke-width:0.5;"/>
    <path clip-path="url(#p33147de1f7)" d="M 267.049494 491.944407 
L 267.049494 169.262421 
" style="fill:none;stroke:#64b5cd;stroke-width:0.5;"/>
    <path clip-path="url(#p33147de1f7)" d="M 979.824903 486.475486 
L 979.824903 164.354032 
" style="fill:none;stroke:#64b5cd;stroke-width:0.5;"/>
    <path clip-path="url(#p33147de1f7)" d="M 701.859443 505.422369 
L 701.859443 183.097622 
" style="fill:none;stroke:#64b5cd;stroke-width:0.5;"/>
    <path clip-path="url(#p33147de1f7)" d="M 610.464608 502.110863 
L 610.464608 180.427743 
" style="fill:none;stroke:#64b5cd;stroke-width:0.5;"/>
    <path clip-path="url(#p33147de1f7)" d="M 627.022588 485.801727 
L 627.022588 164.112991 
" style="fill:none;stroke:#64b5cd;stroke-width:0.5;"/>
    <path clip-path="url(#p33147de1f7)" d="M 786.083499 480.974086 
L 786.083499 159.075733 
" style="fill:none;stroke:#64b5cd;stroke-width:0.5;"/>
    <path clip-path="url(#p33147de1f7)" d="M 545.145332 499.16712 
L 545.145332 177.433336 
" style="fill:none;stroke:#64b5cd;stroke-width:0.5;"/>
    <path clip-path="url(#p33147de1f7)" d="M 598.860984 468.630651 
L 598.860984 146.641001 
" style="fill:none;stroke:#64b5cd;stroke-width:0.5;"/>
    <path clip-path="url(#p33147de1f7)" d="M 666.135927 490.977665 
L 666.135927 168.22533 
" style="fill:none;stroke:#64b5cd;stroke-width:0.5;"/>
    <path clip-path="url(#p33147de1f7)" d="M 624.936543 483.932808 
L 624.936543 162.22466 
" style="fill:none;stroke:#64b5cd;stroke-width:0.5;"/>
    <path clip-path="url(#p33147de1f7)" d="M 746.448649 472.905 
L 746.448649 150.962474 
" style="fill:none;stroke:#64b5cd;stroke-width:0.5;"/>
    <path clip-path="url(#p33147de1f7)" d="M 696.253197 463.723497 
L 696.253197 141.898375 
" style="fill:none;stroke:#64b5cd;stroke-width:0.5;"/>
    <path clip-path="url(#p33147de1f7)" d="M 642.798301 498.821529 
L 642.798301 175.597818 
" style="fill:none;stroke:#64b5cd;stroke-width:0.5;"/>
    <path clip-path="url(#p33147de1f7)" d="M 648.534924 496.85094 
L 648.534924 174.46008 
" style="fill:none;stroke:#64b5cd;stroke-width:0.5;"/>
    <path clip-path="url(#p33147de1f7)" d="M 929.499074 455.428416 
L 929.499074 133.628565 
" style="fill:none;stroke:#64b5cd;stroke-width:0.5;"/>
    <path clip-path="url(#p33147de1f7)" d="M 650.763745 500.243282 
L 650.763745 175.423987 
" style="fill:none;stroke:#64b5cd;stroke-width:0.5;"/>
    <path clip-path="url(#p33147de1f7)" d="M 649.708324 503.459881 
L 649.708324 181.655615 
" style="fill:none;stroke:#64b5cd;stroke-width:0.5;"/>
    <path clip-path="url(#p33147de1f7)" d="M 507.205393 502.061607 
L 507.205393 179.493067 
" style="fill:none;stroke:#64b5cd;stroke-width:0.5;"/>
    <path clip-path="url(#p33147de1f7)" d="M 666.918193 468.461949 
L 666.918193 146.686648 
" style="fill:none;stroke:#64b5cd;stroke-width:0.5;"/>
    <path clip-path="url(#p33147de1f7)" d="M 641.624901 490.906561 
L 641.624901 167.986431 
" style="fill:none;stroke:#64b5cd;stroke-width:0.5;"/>
    <path clip-path="url(#p33147de1f7)" d="M 521.677329 513.663823 
L 521.677329 189.698462 
" style="fill:none;stroke:#64b5cd;stroke-width:0.5;"/>
    <path clip-path="url(#p33147de1f7)" d="M 632.628833 482.057331 
L 632.628833 159.702744 
" style="fill:none;stroke:#64b5cd;stroke-width:0.5;"/>
    <path clip-path="url(#p33147de1f7)" d="M 648.143791 461.5176 
L 648.143791 139.810344 
" style="fill:none;stroke:#64b5cd;stroke-width:0.5;"/>
    <path clip-path="url(#p33147de1f7)" d="M 548.535155 482.644163 
L 548.535155 160.828614 
" style="fill:none;stroke:#64b5cd;stroke-width:0.5;"/>
    <path clip-path="url(#p33147de1f7)" d="M 675.131994 496.114238 
L 675.131994 174.390707 
" style="fill:none;stroke:#64b5cd;stroke-width:0.5;"/>
    <path clip-path="url(#p33147de1f7)" d="M 694.688664 489.329431 
L 694.688664 167.194749 
" style="fill:none;stroke:#64b5cd;stroke-width:0.5;"/>
    <path clip-path="url(#p33147de1f7)" d="M 884.127601 478.20525 
L 884.127601 153.854948 
" style="fill:none;stroke:#64b5cd;stroke-width:0.5;"/>
    <path clip-path="url(#p33147de1f7)" d="M 687.909018 500.846057 
L 687.909018 179.164944 
" style="fill:none;stroke:#64b5cd;stroke-width:0.5;"/>
    <path clip-path="url(#p33147de1f7)" d="M 1015.809175 499.14716 
L 1015.809175 176.62177 
" style="fill:none;stroke:#64b5cd;stroke-width:0.5;"/>
    <path clip-path="url(#p33147de1f7)" d="M 665.484038 500.477357 
L 665.484038 178.408531 
" style="fill:none;stroke:#64b5cd;stroke-width:0.5;"/>
    <path clip-path="url(#p33147de1f7)" d="M 574.93842 467.990338 
L 574.93842 145.942391 
" style="fill:none;stroke:#64b5cd;stroke-width:0.5;"/>
    <path clip-path="url(#p33147de1f7)" d="M 547.62251 486.981315 
L 547.62251 163.058695 
" style="fill:none;stroke:#64b5cd;stroke-width:0.5;"/>
    <path clip-path="url(#p33147de1f7)" d="M 925.457362 491.767867 
L 925.457362 170.058884 
" style="fill:none;stroke:#64b5cd;stroke-width:0.5;"/>
    <path clip-path="url(#p33147de1f7)" d="M 769.134777 488.596395 
L 769.134777 164.896507 
" style="fill:none;stroke:#64b5cd;stroke-width:0.5;"/>
    <path clip-path="url(#p33147de1f7)" d="M 589.995294 478.530368 
L 589.995294 156.070838 
" style="fill:none;stroke:#64b5cd;stroke-width:0.5;"/>
    <path clip-path="url(#p33147de1f7)" d="M 567.439935 475.844091 
L 567.439935 154.146746 
" style="fill:none;stroke:#64b5cd;stroke-width:0.5;"/>
    <path clip-path="url(#p33147de1f7)" d="M 768.87363 481.460268 
L 768.87363 159.600497 
" style="fill:none;stroke:#64b5cd;stroke-width:0.5;"/>
    <path clip-path="url(#p33147de1f7)" d="M 689.524711 495.754077 
L 689.524711 173.847627 
" style="fill:none;stroke:#64b5cd;stroke-width:0.5;"/>
    <path clip-path="url(#p33147de1f7)" d="M 602.381184 489.614951 
L 602.381184 167.915804 
" style="fill:none;stroke:#64b5cd;stroke-width:0.5;"/>
    <path clip-path="url(#p33147de1f7)" d="M 502.381415 489.664022 
L 502.381415 167.985752 
" style="fill:none;stroke:#64b5cd;stroke-width:0.5;"/>
    <path clip-path="url(#p33147de1f7)" d="M 815.465225 499.635995 
L 815.465225 177.947436 
" style="fill:none;stroke:#64b5cd;stroke-width:0.5;"/>
    <path clip-path="url(#p33147de1f7)" d="M 757.661139 467.36799 
L 757.661139 145.525117 
" style="fill:none;stroke:#64b5cd;stroke-width:0.5;"/>
    <path clip-path="url(#p33147de1f7)" d="M 435.758361 507.236057 
L 435.758361 184.414717 
" style="fill:none;stroke:#64b5cd;stroke-width:0.5;"/>
    <path clip-path="url(#p33147de1f7)" d="M 495.589371 504.563369 
L 495.589371 182.791272 
" style="fill:none;stroke:#64b5cd;stroke-width:0.5;"/>
    <path clip-path="url(#p33147de1f7)" d="M 574.93842 498.721942 
L 574.93842 176.432922 
" style="fill:none;stroke:#64b5cd;stroke-width:0.5;"/>
    <path clip-path="url(#p33147de1f7)" d="M 745.405626 499.246473 
L 745.405626 177.552473 
" style="fill:none;stroke:#64b5cd;stroke-width:0.5;"/>
    <path clip-path="url(#p33147de1f7)" d="M 540.842865 489.734713 
L 540.842865 166.857504 
" style="fill:none;stroke:#64b5cd;stroke-width:0.5;"/>
    <path clip-path="url(#p33147de1f7)" d="M 369.396063 472.866739 
L 369.396063 151.103765 
" style="fill:none;stroke:#64b5cd;stroke-width:0.5;"/>
    <path clip-path="url(#p33147de1f7)" d="M 771.481186 460.33905 
L 771.481186 138.606894 
" style="fill:none;stroke:#64b5cd;stroke-width:0.5;"/>
    <path clip-path="url(#p33147de1f7)" d="M 593.77625 489.052022 
L 593.77625 166.954669 
" style="fill:none;stroke:#64b5cd;stroke-width:0.5;"/>
    <path clip-path="url(#p33147de1f7)" d="M 755.705472 485.29694 
L 755.705472 163.614735 
" style="fill:none;stroke:#64b5cd;stroke-width:0.5;"/>
    <path clip-path="url(#p33147de1f7)" d="M 666.52706 449.306885 
L 666.52706 127.562832 
" style="fill:none;stroke:#64b5cd;stroke-width:0.5;"/>
    <path clip-path="url(#p33147de1f7)" d="M 654.401925 490.758383 
L 654.401925 166.362042 
" style="fill:none;stroke:#64b5cd;stroke-width:0.5;"/>
    <path clip-path="url(#p33147de1f7)" d="M 632.759211 487.764769 
L 632.759211 164.700342 
" style="fill:none;stroke:#64b5cd;stroke-width:0.5;"/>
    <path clip-path="url(#p33147de1f7)" d="M 654.141169 486.079777 
L 654.141169 164.369517 
" style="fill:none;stroke:#64b5cd;stroke-width:0.5;"/>
    <path clip-path="url(#p33147de1f7)" d="M 570.240121 476.777886 
L 570.240121 154.989048 
" style="fill:none;stroke:#64b5cd;stroke-width:0.5;"/>
    <path clip-path="url(#p33147de1f7)" d="M 759.486428 510.385882 
L 759.486428 186.579746 
" style="fill:none;stroke:#64b5cd;stroke-width:0.5;"/>
    <path clip-path="url(#p33147de1f7)" d="M 602.64194 491.408755 
L 602.64194 169.721304 
" style="fill:none;stroke:#64b5cd;stroke-width:0.5;"/>
    <path clip-path="url(#p33147de1f7)" d="M 434.641993 483.457963 
L 434.641993 161.771092 
" style="fill:none;stroke:#64b5cd;stroke-width:0.5;"/>
    <path clip-path="url(#p33147de1f7)" d="M 472.5249 460.652576 
L 472.5249 138.776675 
" style="fill:none;stroke:#64b5cd;stroke-width:0.5;"/>
    <path clip-path="url(#p33147de1f7)" d="M 858.443175 480.502656 
L 858.443175 158.799617 
" style="fill:none;stroke:#64b5cd;stroke-width:0.5;"/>
    <path clip-path="url(#p33147de1f7)" d="M 739.509392 470.386445 
L 739.509392 148.39262 
" style="fill:none;stroke:#64b5cd;stroke-width:0.5;"/>
    <path clip-path="url(#p33147de1f7)" d="M 755.444717 480.580221 
L 755.444717 158.692084 
" style="fill:none;stroke:#64b5cd;stroke-width:0.5;"/>
    <path clip-path="url(#p33147de1f7)" d="M 540.842865 500.477438 
L 540.842865 177.421067 
" style="fill:none;stroke:#64b5cd;stroke-width:0.5;"/>
    <path clip-path="url(#p33147de1f7)" d="M 437.322895 485.005213 
L 437.322895 163.31776 
" style="fill:none;stroke:#64b5cd;stroke-width:0.5;"/>
    <path clip-path="url(#p33147de1f7)" d="M 617.113875 492.992619 
L 617.113875 169.378595 
" style="fill:none;stroke:#64b5cd;stroke-width:0.5;"/>
    <path clip-path="url(#p33147de1f7)" d="M 1008.638396 485.568401 
L 1008.638396 163.802616 
" style="fill:none;stroke:#64b5cd;stroke-width:0.5;"/>
    <path clip-path="url(#p33147de1f7)" d="M 568.743713 488.444314 
L 568.743713 166.764365 
" style="fill:none;stroke:#64b5cd;stroke-width:0.5;"/>
    <path clip-path="url(#p33147de1f7)" d="M 789.885597 489.414812 
L 789.885597 167.721115 
" style="fill:none;stroke:#64b5cd;stroke-width:0.5;"/>
    <path clip-path="url(#p33147de1f7)" d="M 567.179179 495.159433 
L 567.179179 171.818703 
" style="fill:none;stroke:#64b5cd;stroke-width:0.5;"/>
    <path clip-path="url(#p33147de1f7)" d="M 587.778871 488.516171 
L 587.778871 166.335551 
" style="fill:none;stroke:#64b5cd;stroke-width:0.5;"/>
    <path clip-path="url(#p33147de1f7)" d="M 569.326563 491.556976 
L 569.326563 169.875385 
" style="fill:none;stroke:#64b5cd;stroke-width:0.5;"/>
    <path clip-path="url(#p33147de1f7)" d="M 757.530761 479.813383 
L 757.530761 158.103388 
" style="fill:none;stroke:#64b5cd;stroke-width:0.5;"/>
    <path clip-path="url(#p33147de1f7)" d="M 670.04726 485.790004 
L 670.04726 164.113432 
" style="fill:none;stroke:#64b5cd;stroke-width:0.5;"/>
    <path clip-path="url(#p33147de1f7)" d="M 611.116497 492.145481 
L 611.116497 170.352047 
" style="fill:none;stroke:#64b5cd;stroke-width:0.5;"/>
    <path clip-path="url(#p33147de1f7)" d="M 841.754817 463.898322 
L 841.754817 142.163523 
" style="fill:none;stroke:#64b5cd;stroke-width:0.5;"/>
    <path clip-path="url(#p33147de1f7)" d="M 499.513103 493.762633 
L 499.513103 172.05599 
" style="fill:none;stroke:#64b5cd;stroke-width:0.5;"/>
    <path clip-path="url(#p33147de1f7)" d="M 885.561757 514.129513 
L 885.561757 189.515194 
" style="fill:none;stroke:#64b5cd;stroke-width:0.5;"/>
    <path clip-path="url(#p33147de1f7)" d="M 685.040707 485.65191 
L 685.040707 163.456598 
" style="fill:none;stroke:#64b5cd;stroke-width:0.5;"/>
    <path clip-path="url(#p33147de1f7)" d="M 588.170005 462.324777 
L 588.170005 140.33858 
" style="fill:none;stroke:#64b5cd;stroke-width:0.5;"/>
    <path clip-path="url(#p33147de1f7)" d="M 805.546594 491.468177 
L 805.546594 169.784203 
" style="fill:none;stroke:#64b5cd;stroke-width:0.5;"/>
    <path clip-path="url(#p33147de1f7)" d="M 611.768386 492.056438 
L 611.768386 169.18833 
" style="fill:none;stroke:#64b5cd;stroke-width:0.5;"/>
    <path clip-path="url(#p33147de1f7)" d="M 478.131145 501.432234 
L 478.131145 179.543815 
" style="fill:none;stroke:#64b5cd;stroke-width:0.5;"/>
    <path clip-path="url(#p33147de1f7)" d="M 407.46638 506.842167 
L 407.46638 184.097998 
" style="fill:none;stroke:#64b5cd;stroke-width:0.5;"/>
    <path clip-path="url(#p33147de1f7)" d="M 457.531453 487.919726 
L 457.531453 165.811988 
" style="fill:none;stroke:#64b5cd;stroke-width:0.5;"/>
    <path clip-path="url(#p33147de1f7)" d="M 638.626212 478.420048 
L 638.626212 156.264546 
" style="fill:none;stroke:#64b5cd;stroke-width:0.5;"/>
    <path clip-path="url(#p33147de1f7)" d="M 462.048737 498.807966 
L 462.048737 176.15083 
" style="fill:none;stroke:#64b5cd;stroke-width:0.5;"/>
    <path clip-path="url(#p33147de1f7)" d="M 716.070622 496.752529 
L 716.070622 174.922724 
" style="fill:none;stroke:#64b5cd;stroke-width:0.5;"/>
    <path clip-path="url(#p33147de1f7)" d="M 684.043362 472.037792 
L 684.043362 150.189099 
" style="fill:none;stroke:#64b5cd;stroke-width:0.5;"/>
    <path clip-path="url(#p33147de1f7)" d="M 729.108402 503.456496 
L 729.108402 181.477162 
" style="fill:none;stroke:#64b5cd;stroke-width:0.5;"/>
    <path clip-path="url(#p33147de1f7)" d="M 816.852658 469.079718 
L 816.852658 147.341791 
" style="fill:none;stroke:#64b5cd;stroke-width:0.5;"/>
    <path clip-path="url(#p33147de1f7)" d="M 371.873241 492.115377 
L 371.873241 169.520863 
" style="fill:none;stroke:#64b5cd;stroke-width:0.5;"/>
    <path clip-path="url(#p33147de1f7)" d="M 696.311143 492.391319 
L 696.311143 170.701622 
" style="fill:none;stroke:#64b5cd;stroke-width:0.5;"/>
    <path clip-path="url(#p33147de1f7)" d="M 551.012333 508.208202 
L 551.012333 183.588779 
" style="fill:none;stroke:#64b5cd;stroke-width:0.5;"/>
    <path clip-path="url(#p33147de1f7)" d="M 744.492982 494.858613 
L 744.492982 172.805717 
" style="fill:none;stroke:#64b5cd;stroke-width:0.5;"/>
    <path clip-path="url(#p33147de1f7)" d="M 646.318502 468.95475 
L 646.318502 146.831299 
" style="fill:none;stroke:#64b5cd;stroke-width:0.5;"/>
    <path clip-path="url(#p33147de1f7)" d="M 574.610714 502.745601 
L 574.610714 180.744286 
" style="fill:none;stroke:#64b5cd;stroke-width:0.5;"/>
    <path clip-path="url(#p33147de1f7)" d="M 613.984808 471.541886 
L 613.984808 149.86803 
" style="fill:none;stroke:#64b5cd;stroke-width:0.5;"/>
    <path clip-path="url(#p33147de1f7)" d="M 686.865996 468.631796 
L 686.865996 146.757007 
" style="fill:none;stroke:#64b5cd;stroke-width:0.5;"/>
    <path clip-path="url(#p33147de1f7)" d="M 1036.8 468.103765 
L 1036.8 146.379695 
" style="fill:none;stroke:#64b5cd;stroke-width:0.5;"/>
    <path clip-path="url(#p33147de1f7)" d="M 478.261523 495.877113 
L 478.261523 174.194152 
" style="fill:none;stroke:#64b5cd;stroke-width:0.5;"/>
    <path clip-path="url(#p33147de1f7)" d="M 623.226493 499.89009 
L 623.226493 176.330294 
" style="fill:none;stroke:#64b5cd;stroke-width:0.5;"/>
    <path clip-path="url(#p33147de1f7)" d="M 947.751965 473.672081 
L 947.751965 151.478787 
" style="fill:none;stroke:#64b5cd;stroke-width:0.5;"/>
    <path clip-path="url(#p33147de1f7)" d="M 619.069542 505.266424 
L 619.069542 183.014528 
" style="fill:none;stroke:#64b5cd;stroke-width:0.5;"/>
    <path clip-path="url(#p33147de1f7)" d="M 739.900917 462.616838 
L 739.900917 140.671427 
" style="fill:none;stroke:#64b5cd;stroke-width:0.5;"/>
    <path clip-path="url(#p33147de1f7)" d="M 592.993983 492.842225 
L 592.993983 171.161185 
" style="fill:none;stroke:#64b5cd;stroke-width:0.5;"/>
    <path clip-path="url(#p33147de1f7)" d="M 616.701078 459.602974 
L 616.701078 137.851184 
" style="fill:none;stroke:#64b5cd;stroke-width:0.5;"/>
    <path clip-path="url(#p33147de1f7)" d="M 641.624901 490.540528 
L 641.624901 168.866238 
" style="fill:none;stroke:#64b5cd;stroke-width:0.5;"/>
    <path clip-path="url(#p33147de1f7)" d="M 882.041556 494.236888 
L 882.041556 172.067318 
" style="fill:none;stroke:#64b5cd;stroke-width:0.5;"/>
    <path clip-path="url(#p33147de1f7)" d="M 747.752427 478.752456 
L 747.752427 156.870954 
" style="fill:none;stroke:#64b5cd;stroke-width:0.5;"/>
    <path clip-path="url(#p33147de1f7)" d="M 597.426828 485.157422 
L 597.426828 162.007615 
" style="fill:none;stroke:#64b5cd;stroke-width:0.5;"/>
    <path clip-path="url(#p33147de1f7)" d="M 562.615957 488.577991 
L 562.615957 166.894943 
" style="fill:none;stroke:#64b5cd;stroke-width:0.5;"/>
    <path clip-path="url(#p33147de1f7)" d="M 750.359983 480.059311 
L 750.359983 158.136243 
" style="fill:none;stroke:#64b5cd;stroke-width:0.5;"/>
    <path clip-path="url(#p33147de1f7)" d="M 331.847258 501.263301 
L 331.847258 179.313732 
" style="fill:none;stroke:#64b5cd;stroke-width:0.5;"/>
    <path clip-path="url(#p33147de1f7)" d="M 735.366536 488.839432 
L 735.366536 166.335562 
" style="fill:none;stroke:#64b5cd;stroke-width:0.5;"/>
    <path clip-path="url(#p33147de1f7)" d="M 666.583496 502.792245 
L 666.583496 180.928427 
" style="fill:none;stroke:#64b5cd;stroke-width:0.5;"/>
    <path clip-path="url(#p33147de1f7)" d="M 518.287506 479.409312 
L 518.287506 157.264053 
" style="fill:none;stroke:#64b5cd;stroke-width:0.5;"/>
    <path clip-path="url(#p33147de1f7)" d="M 913.984116 461.485566 
L 913.984116 139.709879 
" style="fill:none;stroke:#64b5cd;stroke-width:0.5;"/>
    <path clip-path="url(#p33147de1f7)" d="M 413.760665 509.696669 
L 413.760665 186.381225 
" style="fill:none;stroke:#64b5cd;stroke-width:0.5;"/>
    <path clip-path="url(#p33147de1f7)" d="M 665.484038 493.560025 
L 665.484038 171.346018 
" style="fill:none;stroke:#64b5cd;stroke-width:0.5;"/>
    <path clip-path="url(#p33147de1f7)" d="M 819.329837 485.5437 
L 819.329837 163.844628 
" style="fill:none;stroke:#64b5cd;stroke-width:0.5;"/>
    <path clip-path="url(#p33147de1f7)" d="M 533.020197 492.495033 
L 533.020197 170.806677 
" style="fill:none;stroke:#64b5cd;stroke-width:0.5;"/>
    <path clip-path="url(#p33147de1f7)" d="M 723.632534 485.77896 
L 723.632534 163.527044 
" style="fill:none;stroke:#64b5cd;stroke-width:0.5;"/>
    <path clip-path="url(#p33147de1f7)" d="M 322.404852 498.223323 
L 322.404852 176.071646 
" style="fill:none;stroke:#64b5cd;stroke-width:0.5;"/>
    <path clip-path="url(#p33147de1f7)" d="M 749.056205 495.932729 
L 749.056205 174.228091 
" style="fill:none;stroke:#64b5cd;stroke-width:0.5;"/>
    <path clip-path="url(#p33147de1f7)" d="M 851.533152 490.210076 
L 851.533152 168.494501 
" style="fill:none;stroke:#64b5cd;stroke-width:0.5;"/>
    <path clip-path="url(#p33147de1f7)" d="M 410.98658 472.645926 
L 410.98658 150.956582 
" style="fill:none;stroke:#64b5cd;stroke-width:0.5;"/>
    <path clip-path="url(#p33147de1f7)" d="M 466.918655 475.737791 
L 466.918655 154.051169 
" style="fill:none;stroke:#64b5cd;stroke-width:0.5;"/>
    <path clip-path="url(#p33147de1f7)" d="M 618.769595 498.887048 
L 618.769595 177.17779 
" style="fill:none;stroke:#64b5cd;stroke-width:0.5;"/>
    <path clip-path="url(#p33147de1f7)" d="M 740.320892 492.378897 
L 740.320892 170.666004 
" style="fill:none;stroke:#64b5cd;stroke-width:0.5;"/>
    <path clip-path="url(#p33147de1f7)" d="M 488.952502 499.136487 
L 488.952502 174.20255 
" style="fill:none;stroke:#64b5cd;stroke-width:0.5;"/>
    <path clip-path="url(#p33147de1f7)" d="M 761.18134 477.34713 
L 761.18134 155.080121 
" style="fill:none;stroke:#64b5cd;stroke-width:0.5;"/>
    <path clip-path="url(#p33147de1f7)" d="M 857.791286 467.264677 
L 857.791286 145.349303 
" style="fill:none;stroke:#64b5cd;stroke-width:0.5;"/>
    <path clip-path="url(#p33147de1f7)" d="M 531.716419 485.95022 
L 531.716419 164.263684 
" style="fill:none;stroke:#64b5cd;stroke-width:0.5;"/>
   </g>
   <g id="LineCollection_2">
    <path clip-path="url(#p33147de1f7)" d="M 585.823204 473.448156 
L 585.823204 151.360796 
" style="fill:none;stroke:#8172b3;stroke-width:0.5;"/>
    <path clip-path="url(#p33147de1f7)" d="M 497.024963 500.316176 
L 497.024963 177.84645 
" style="fill:none;stroke:#8172b3;stroke-width:0.5;"/>
    <path clip-path="url(#p33147de1f7)" d="M 545.965577 491.904449 
L 545.965577 170.220245 
" style="fill:none;stroke:#8172b3;stroke-width:0.5;"/>
    <path clip-path="url(#p33147de1f7)" d="M 438.757051 511.236305 
L 438.757051 187.015822 
" style="fill:none;stroke:#8172b3;stroke-width:0.5;"/>
    <path clip-path="url(#p33147de1f7)" d="M 706.621299 496.8824 
L 706.621299 175.192198 
" style="fill:none;stroke:#8172b3;stroke-width:0.5;"/>
    <path clip-path="url(#p33147de1f7)" d="M 500.034615 473.08745 
L 500.034615 151.014313 
" style="fill:none;stroke:#8172b3;stroke-width:0.5;"/>
    <path clip-path="url(#p33147de1f7)" d="M 144 501.648337 
L 144 178.935007 
" style="fill:none;stroke:#8172b3;stroke-width:0.5;"/>
    <path clip-path="url(#p33147de1f7)" d="M 567.700691 482.860302 
L 567.700691 160.726076 
" style="fill:none;stroke:#8172b3;stroke-width:0.5;"/>
    <path clip-path="url(#p33147de1f7)" d="M 493.631747 477.118111 
L 493.631747 154.792521 
" style="fill:none;stroke:#8172b3;stroke-width:0.5;"/>
    <path clip-path="url(#p33147de1f7)" d="M 767.568677 508.349895 
L 767.568677 185.941864 
" style="fill:none;stroke:#8172b3;stroke-width:0.5;"/>
    <path clip-path="url(#p33147de1f7)" d="M 332.759903 503.267592 
L 332.759903 181.026034 
" style="fill:none;stroke:#8172b3;stroke-width:0.5;"/>
    <path clip-path="url(#p33147de1f7)" d="M 641.885656 466.510981 
L 641.885656 144.722175 
" style="fill:none;stroke:#8172b3;stroke-width:0.5;"/>
    <path clip-path="url(#p33147de1f7)" d="M 445.927829 480.265435 
L 445.927829 158.200547 
" style="fill:none;stroke:#8172b3;stroke-width:0.5;"/>
    <path clip-path="url(#p33147de1f7)" d="M 721.416112 484.455078 
L 721.416112 162.756474 
" style="fill:none;stroke:#8172b3;stroke-width:0.5;"/>
    <path clip-path="url(#p33147de1f7)" d="M 540.451731 511.250797 
L 540.451731 188.679478 
" style="fill:none;stroke:#8172b3;stroke-width:0.5;"/>
    <path clip-path="url(#p33147de1f7)" d="M 709.421355 501.700941 
L 709.421355 179.46518 
" style="fill:none;stroke:#8172b3;stroke-width:0.5;"/>
    <path clip-path="url(#p33147de1f7)" d="M 847.100307 470.965819 
L 847.100307 148.77789 
" style="fill:none;stroke:#8172b3;stroke-width:0.5;"/>
    <path clip-path="url(#p33147de1f7)" d="M 439.539317 520.328248 
L 439.539317 197.296269 
" style="fill:none;stroke:#8172b3;stroke-width:0.5;"/>
    <path clip-path="url(#p33147de1f7)" d="M 594.819272 493.832232 
L 594.819272 170.579246 
" style="fill:none;stroke:#8172b3;stroke-width:0.5;"/>
    <path clip-path="url(#p33147de1f7)" d="M 418.809248 486.921392 
L 418.809248 164.889554 
" style="fill:none;stroke:#8172b3;stroke-width:0.5;"/>
    <path clip-path="url(#p33147de1f7)" d="M 769.134385 523.109592 
L 769.134385 199.028938 
" style="fill:none;stroke:#8172b3;stroke-width:0.5;"/>
    <path clip-path="url(#p33147de1f7)" d="M 847.49144 481.769052 
L 847.49144 159.811822 
" style="fill:none;stroke:#8172b3;stroke-width:0.5;"/>
    <path clip-path="url(#p33147de1f7)" d="M 502.772548 488.11306 
L 502.772548 166.405777 
" style="fill:none;stroke:#8172b3;stroke-width:0.5;"/>
    <path clip-path="url(#p33147de1f7)" d="M 728.195757 505.460581 
L 728.195757 182.343165 
" style="fill:none;stroke:#8172b3;stroke-width:0.5;"/>
    <path clip-path="url(#p33147de1f7)" d="M 641.885656 504.389914 
L 641.885656 180.868183 
" style="fill:none;stroke:#8172b3;stroke-width:0.5;"/>
    <path clip-path="url(#p33147de1f7)" d="M 880.998534 474.753174 
L 880.998534 152.665099 
" style="fill:none;stroke:#8172b3;stroke-width:0.5;"/>
    <path clip-path="url(#p33147de1f7)" d="M 697.817731 493.922712 
L 697.817731 172.212587 
" style="fill:none;stroke:#8172b3;stroke-width:0.5;"/>
    <path clip-path="url(#p33147de1f7)" d="M 798.860523 508.905714 
L 798.860523 184.924666 
" style="fill:none;stroke:#8172b3;stroke-width:0.5;"/>
    <path clip-path="url(#p33147de1f7)" d="M 559.356512 475.970495 
L 559.356512 154.2827 
" style="fill:none;stroke:#8172b3;stroke-width:0.5;"/>
    <path clip-path="url(#p33147de1f7)" d="M 670.04726 471.80113 
L 670.04726 149.690946 
" style="fill:none;stroke:#8172b3;stroke-width:0.5;"/>
    <path clip-path="url(#p33147de1f7)" d="M 765.744563 501.752438 
L 765.744563 176.896017 
" style="fill:none;stroke:#8172b3;stroke-width:0.5;"/>
    <path clip-path="url(#p33147de1f7)" d="M 346.188816 474.771508 
L 346.188816 152.647073 
" style="fill:none;stroke:#8172b3;stroke-width:0.5;"/>
    <path clip-path="url(#p33147de1f7)" d="M 927.543407 472.092871 
L 927.543407 150.404053 
" style="fill:none;stroke:#8172b3;stroke-width:0.5;"/>
    <path clip-path="url(#p33147de1f7)" d="M 446.188585 493.139229 
L 446.188585 171.447851 
" style="fill:none;stroke:#8172b3;stroke-width:0.5;"/>
    <path clip-path="url(#p33147de1f7)" d="M 783.215187 459.884833 
L 783.215187 137.884872 
" style="fill:none;stroke:#8172b3;stroke-width:0.5;"/>
    <path clip-path="url(#p33147de1f7)" d="M 681.302688 498.673335 
L 681.302688 176.348277 
" style="fill:none;stroke:#8172b3;stroke-width:0.5;"/>
    <path clip-path="url(#p33147de1f7)" d="M 676.305395 465.771436 
L 676.305395 143.760335 
" style="fill:none;stroke:#8172b3;stroke-width:0.5;"/>
    <path clip-path="url(#p33147de1f7)" d="M 813.20208 474.55828 
L 813.20208 152.824 
" style="fill:none;stroke:#8172b3;stroke-width:0.5;"/>
    <path clip-path="url(#p33147de1f7)" d="M 471.967368 472.840662 
L 471.967368 151.016499 
" style="fill:none;stroke:#8172b3;stroke-width:0.5;"/>
    <path clip-path="url(#p33147de1f7)" d="M 873.019387 472.488065 
L 873.019387 150.777614 
" style="fill:none;stroke:#8172b3;stroke-width:0.5;"/>
    <path clip-path="url(#p33147de1f7)" d="M 651.272858 494.607196 
L 651.272858 172.858804 
" style="fill:none;stroke:#8172b3;stroke-width:0.5;"/>
    <path clip-path="url(#p33147de1f7)" d="M 642.667923 499.61154 
L 642.667923 177.928743 
" style="fill:none;stroke:#8172b3;stroke-width:0.5;"/>
    <path clip-path="url(#p33147de1f7)" d="M 567.048802 506.576512 
L 567.048802 182.359642 
" style="fill:none;stroke:#8172b3;stroke-width:0.5;"/>
    <path clip-path="url(#p33147de1f7)" d="M 913.085436 503.516895 
L 913.085436 179.623552 
" style="fill:none;stroke:#8172b3;stroke-width:0.5;"/>
    <path clip-path="url(#p33147de1f7)" d="M 684.872966 499.362783 
L 684.872966 175.867811 
" style="fill:none;stroke:#8172b3;stroke-width:0.5;"/>
    <path clip-path="url(#p33147de1f7)" d="M 541.625132 472.956558 
L 541.625132 151.180568 
" style="fill:none;stroke:#8172b3;stroke-width:0.5;"/>
    <path clip-path="url(#p33147de1f7)" d="M 842.667462 489.346791 
L 842.667462 164.300655 
" style="fill:none;stroke:#8172b3;stroke-width:0.5;"/>
    <path clip-path="url(#p33147de1f7)" d="M 987.12606 506.86776 
L 987.12606 183.386059 
" style="fill:none;stroke:#8172b3;stroke-width:0.5;"/>
    <path clip-path="url(#p33147de1f7)" d="M 481.912101 515.763446 
L 481.912101 191.091721 
" style="fill:none;stroke:#8172b3;stroke-width:0.5;"/>
    <path clip-path="url(#p33147de1f7)" d="M 657.530992 454.808804 
L 657.530992 132.698259 
" style="fill:none;stroke:#8172b3;stroke-width:0.5;"/>
   </g>
   <g id="line2d_16">
    <path clip-path="url(#p33147de1f7)" d="M 144 605.290909 
L 1036.8 111.109091 
" style="fill:none;stroke:#c44e52;stroke-linecap:round;stroke-width:1.5;"/>
   </g>
   <g id="line2d_17">
    <defs>
     <path d="M 0 3 
C 0.795609 3 1.55874 2.683901 2.12132 2.12132 
C 2.683901 1.55874 3 0.795609 3 0 
C 3 -0.795609 2.683901 -1.55874 2.12132 -2.12132 
C 1.55874 -2.683901 0.795609 -3 0 -3 
C -0.795609 -3 -1.55874 -2.683901 -2.12132 -2.12132 
C -2.683901 -1.55874 -3 -0.795609 -3 0 
C -3 0.795609 -2.683901 1.55874 -2.12132 2.12132 
C -1.55874 2.683901 -0.795609 3 0 3 
z
" id="m6bd682cb57" style="stroke:#64b5cd;"/>
    </defs>
    <g clip-path="url(#p33147de1f7)">
     <use style="fill:#64b5cd;stroke:#64b5cd;" x="759.486428" xlink:href="#m6bd682cb57" y="339.789014"/>
     <use style="fill:#64b5cd;stroke:#64b5cd;" x="628.707841" xlink:href="#m6bd682cb57" y="303.735635"/>
     <use style="fill:#64b5cd;stroke:#64b5cd;" x="539.669465" xlink:href="#m6bd682cb57" y="329.352748"/>
     <use style="fill:#64b5cd;stroke:#64b5cd;" x="752.054894" xlink:href="#m6bd682cb57" y="319.579161"/>
     <use style="fill:#64b5cd;stroke:#64b5cd;" x="705.379643" xlink:href="#m6bd682cb57" y="328.594702"/>
     <use style="fill:#64b5cd;stroke:#64b5cd;" x="816.983036" xlink:href="#m6bd682cb57" y="324.379126"/>
     <use style="fill:#64b5cd;stroke:#64b5cd;" x="532.889819" xlink:href="#m6bd682cb57" y="340.513994"/>
     <use style="fill:#64b5cd;stroke:#64b5cd;" x="544.754199" xlink:href="#m6bd682cb57" y="321.076944"/>
     <use style="fill:#64b5cd;stroke:#64b5cd;" x="636.540167" xlink:href="#m6bd682cb57" y="310.203878"/>
     <use style="fill:#64b5cd;stroke:#64b5cd;" x="736.148803" xlink:href="#m6bd682cb57" y="330.95466"/>
     <use style="fill:#64b5cd;stroke:#64b5cd;" x="432.031827" xlink:href="#m6bd682cb57" y="314.840807"/>
     <use style="fill:#64b5cd;stroke:#64b5cd;" x="722.328756" xlink:href="#m6bd682cb57" y="323.088828"/>
     <use style="fill:#64b5cd;stroke:#64b5cd;" x="360.13924" xlink:href="#m6bd682cb57" y="348.581537"/>
     <use style="fill:#64b5cd;stroke:#64b5cd;" x="369.917574" xlink:href="#m6bd682cb57" y="342.145244"/>
     <use style="fill:#64b5cd;stroke:#64b5cd;" x="638.495834" xlink:href="#m6bd682cb57" y="340.808"/>
     <use style="fill:#64b5cd;stroke:#64b5cd;" x="691.298841" xlink:href="#m6bd682cb57" y="319.569242"/>
     <use style="fill:#64b5cd;stroke:#64b5cd;" x="267.049494" xlink:href="#m6bd682cb57" y="330.603414"/>
     <use style="fill:#64b5cd;stroke:#64b5cd;" x="979.824903" xlink:href="#m6bd682cb57" y="325.414759"/>
     <use style="fill:#64b5cd;stroke:#64b5cd;" x="701.859443" xlink:href="#m6bd682cb57" y="344.259995"/>
     <use style="fill:#64b5cd;stroke:#64b5cd;" x="610.464608" xlink:href="#m6bd682cb57" y="341.269303"/>
     <use style="fill:#64b5cd;stroke:#64b5cd;" x="627.022588" xlink:href="#m6bd682cb57" y="324.957359"/>
     <use style="fill:#64b5cd;stroke:#64b5cd;" x="786.083499" xlink:href="#m6bd682cb57" y="320.02491"/>
     <use style="fill:#64b5cd;stroke:#64b5cd;" x="545.145332" xlink:href="#m6bd682cb57" y="338.300228"/>
     <use style="fill:#64b5cd;stroke:#64b5cd;" x="598.860984" xlink:href="#m6bd682cb57" y="307.635826"/>
     <use style="fill:#64b5cd;stroke:#64b5cd;" x="666.135927" xlink:href="#m6bd682cb57" y="329.601498"/>
     <use style="fill:#64b5cd;stroke:#64b5cd;" x="624.936543" xlink:href="#m6bd682cb57" y="323.078734"/>
     <use style="fill:#64b5cd;stroke:#64b5cd;" x="746.448649" xlink:href="#m6bd682cb57" y="311.933737"/>
     <use style="fill:#64b5cd;stroke:#64b5cd;" x="696.253197" xlink:href="#m6bd682cb57" y="302.810936"/>
     <use style="fill:#64b5cd;stroke:#64b5cd;" x="642.798301" xlink:href="#m6bd682cb57" y="337.209674"/>
     <use style="fill:#64b5cd;stroke:#64b5cd;" x="648.534924" xlink:href="#m6bd682cb57" y="335.65551"/>
     <use style="fill:#64b5cd;stroke:#64b5cd;" x="929.499074" xlink:href="#m6bd682cb57" y="294.52849"/>
     <use style="fill:#64b5cd;stroke:#64b5cd;" x="650.763745" xlink:href="#m6bd682cb57" y="337.833634"/>
     <use style="fill:#64b5cd;stroke:#64b5cd;" x="649.708324" xlink:href="#m6bd682cb57" y="342.557748"/>
     <use style="fill:#64b5cd;stroke:#64b5cd;" x="507.205393" xlink:href="#m6bd682cb57" y="340.777337"/>
     <use style="fill:#64b5cd;stroke:#64b5cd;" x="666.918193" xlink:href="#m6bd682cb57" y="307.574298"/>
     <use style="fill:#64b5cd;stroke:#64b5cd;" x="641.624901" xlink:href="#m6bd682cb57" y="329.446496"/>
     <use style="fill:#64b5cd;stroke:#64b5cd;" x="521.677329" xlink:href="#m6bd682cb57" y="351.681142"/>
     <use style="fill:#64b5cd;stroke:#64b5cd;" x="632.628833" xlink:href="#m6bd682cb57" y="320.880038"/>
     <use style="fill:#64b5cd;stroke:#64b5cd;" x="648.143791" xlink:href="#m6bd682cb57" y="300.663972"/>
     <use style="fill:#64b5cd;stroke:#64b5cd;" x="548.535155" xlink:href="#m6bd682cb57" y="321.736388"/>
     <use style="fill:#64b5cd;stroke:#64b5cd;" x="675.131994" xlink:href="#m6bd682cb57" y="335.252472"/>
     <use style="fill:#64b5cd;stroke:#64b5cd;" x="694.688664" xlink:href="#m6bd682cb57" y="328.26209"/>
     <use style="fill:#64b5cd;stroke:#64b5cd;" x="884.127601" xlink:href="#m6bd682cb57" y="316.030099"/>
     <use style="fill:#64b5cd;stroke:#64b5cd;" x="687.909018" xlink:href="#m6bd682cb57" y="340.005501"/>
     <use style="fill:#64b5cd;stroke:#64b5cd;" x="1015.809175" xlink:href="#m6bd682cb57" y="337.884465"/>
     <use style="fill:#64b5cd;stroke:#64b5cd;" x="665.484038" xlink:href="#m6bd682cb57" y="339.442944"/>
     <use style="fill:#64b5cd;stroke:#64b5cd;" x="574.93842" xlink:href="#m6bd682cb57" y="306.966365"/>
     <use style="fill:#64b5cd;stroke:#64b5cd;" x="547.62251" xlink:href="#m6bd682cb57" y="325.020005"/>
     <use style="fill:#64b5cd;stroke:#64b5cd;" x="925.457362" xlink:href="#m6bd682cb57" y="330.913376"/>
     <use style="fill:#64b5cd;stroke:#64b5cd;" x="769.134777" xlink:href="#m6bd682cb57" y="326.746451"/>
     <use style="fill:#64b5cd;stroke:#64b5cd;" x="589.995294" xlink:href="#m6bd682cb57" y="317.300603"/>
     <use style="fill:#64b5cd;stroke:#64b5cd;" x="567.439935" xlink:href="#m6bd682cb57" y="314.995419"/>
     <use style="fill:#64b5cd;stroke:#64b5cd;" x="768.87363" xlink:href="#m6bd682cb57" y="320.530382"/>
     <use style="fill:#64b5cd;stroke:#64b5cd;" x="689.524711" xlink:href="#m6bd682cb57" y="334.800852"/>
     <use style="fill:#64b5cd;stroke:#64b5cd;" x="602.381184" xlink:href="#m6bd682cb57" y="328.765377"/>
     <use style="fill:#64b5cd;stroke:#64b5cd;" x="502.381415" xlink:href="#m6bd682cb57" y="328.824887"/>
     <use style="fill:#64b5cd;stroke:#64b5cd;" x="815.465225" xlink:href="#m6bd682cb57" y="338.791715"/>
     <use style="fill:#64b5cd;stroke:#64b5cd;" x="757.661139" xlink:href="#m6bd682cb57" y="306.446554"/>
     <use style="fill:#64b5cd;stroke:#64b5cd;" x="435.758361" xlink:href="#m6bd682cb57" y="345.825387"/>
     <use style="fill:#64b5cd;stroke:#64b5cd;" x="495.589371" xlink:href="#m6bd682cb57" y="343.677321"/>
     <use style="fill:#64b5cd;stroke:#64b5cd;" x="574.93842" xlink:href="#m6bd682cb57" y="337.577432"/>
     <use style="fill:#64b5cd;stroke:#64b5cd;" x="745.405626" xlink:href="#m6bd682cb57" y="338.399473"/>
     <use style="fill:#64b5cd;stroke:#64b5cd;" x="540.842865" xlink:href="#m6bd682cb57" y="328.296109"/>
     <use style="fill:#64b5cd;stroke:#64b5cd;" x="369.396063" xlink:href="#m6bd682cb57" y="311.985252"/>
     <use style="fill:#64b5cd;stroke:#64b5cd;" x="771.481186" xlink:href="#m6bd682cb57" y="299.472972"/>
     <use style="fill:#64b5cd;stroke:#64b5cd;" x="593.77625" xlink:href="#m6bd682cb57" y="328.003346"/>
     <use style="fill:#64b5cd;stroke:#64b5cd;" x="755.705472" xlink:href="#m6bd682cb57" y="324.455838"/>
     <use style="fill:#64b5cd;stroke:#64b5cd;" x="666.52706" xlink:href="#m6bd682cb57" y="288.434859"/>
     <use style="fill:#64b5cd;stroke:#64b5cd;" x="654.401925" xlink:href="#m6bd682cb57" y="328.560212"/>
     <use style="fill:#64b5cd;stroke:#64b5cd;" x="632.759211" xlink:href="#m6bd682cb57" y="326.232556"/>
     <use style="fill:#64b5cd;stroke:#64b5cd;" x="654.141169" xlink:href="#m6bd682cb57" y="325.224647"/>
     <use style="fill:#64b5cd;stroke:#64b5cd;" x="570.240121" xlink:href="#m6bd682cb57" y="315.883467"/>
     <use style="fill:#64b5cd;stroke:#64b5cd;" x="759.486428" xlink:href="#m6bd682cb57" y="348.482814"/>
     <use style="fill:#64b5cd;stroke:#64b5cd;" x="602.64194" xlink:href="#m6bd682cb57" y="330.56503"/>
     <use style="fill:#64b5cd;stroke:#64b5cd;" x="434.641993" xlink:href="#m6bd682cb57" y="322.614527"/>
     <use style="fill:#64b5cd;stroke:#64b5cd;" x="472.5249" xlink:href="#m6bd682cb57" y="299.714626"/>
     <use style="fill:#64b5cd;stroke:#64b5cd;" x="858.443175" xlink:href="#m6bd682cb57" y="319.651136"/>
     <use style="fill:#64b5cd;stroke:#64b5cd;" x="739.509392" xlink:href="#m6bd682cb57" y="309.389532"/>
     <use style="fill:#64b5cd;stroke:#64b5cd;" x="755.444717" xlink:href="#m6bd682cb57" y="319.636152"/>
     <use style="fill:#64b5cd;stroke:#64b5cd;" x="540.842865" xlink:href="#m6bd682cb57" y="338.949252"/>
     <use style="fill:#64b5cd;stroke:#64b5cd;" x="437.322895" xlink:href="#m6bd682cb57" y="324.161487"/>
     <use style="fill:#64b5cd;stroke:#64b5cd;" x="617.113875" xlink:href="#m6bd682cb57" y="331.185607"/>
     <use style="fill:#64b5cd;stroke:#64b5cd;" x="1008.638396" xlink:href="#m6bd682cb57" y="324.685508"/>
     <use style="fill:#64b5cd;stroke:#64b5cd;" x="568.743713" xlink:href="#m6bd682cb57" y="327.60434"/>
     <use style="fill:#64b5cd;stroke:#64b5cd;" x="789.885597" xlink:href="#m6bd682cb57" y="328.567964"/>
     <use style="fill:#64b5cd;stroke:#64b5cd;" x="567.179179" xlink:href="#m6bd682cb57" y="333.489068"/>
     <use style="fill:#64b5cd;stroke:#64b5cd;" x="587.778871" xlink:href="#m6bd682cb57" y="327.425861"/>
     <use style="fill:#64b5cd;stroke:#64b5cd;" x="569.326563" xlink:href="#m6bd682cb57" y="330.71618"/>
     <use style="fill:#64b5cd;stroke:#64b5cd;" x="757.530761" xlink:href="#m6bd682cb57" y="318.958386"/>
     <use style="fill:#64b5cd;stroke:#64b5cd;" x="670.04726" xlink:href="#m6bd682cb57" y="324.951718"/>
     <use style="fill:#64b5cd;stroke:#64b5cd;" x="611.116497" xlink:href="#m6bd682cb57" y="331.248764"/>
     <use style="fill:#64b5cd;stroke:#64b5cd;" x="841.754817" xlink:href="#m6bd682cb57" y="303.030923"/>
     <use style="fill:#64b5cd;stroke:#64b5cd;" x="499.513103" xlink:href="#m6bd682cb57" y="332.909312"/>
     <use style="fill:#64b5cd;stroke:#64b5cd;" x="885.561757" xlink:href="#m6bd682cb57" y="351.822353"/>
     <use style="fill:#64b5cd;stroke:#64b5cd;" x="685.040707" xlink:href="#m6bd682cb57" y="324.554254"/>
     <use style="fill:#64b5cd;stroke:#64b5cd;" x="588.170005" xlink:href="#m6bd682cb57" y="301.331678"/>
     <use style="fill:#64b5cd;stroke:#64b5cd;" x="805.546594" xlink:href="#m6bd682cb57" y="330.62619"/>
     <use style="fill:#64b5cd;stroke:#64b5cd;" x="611.768386" xlink:href="#m6bd682cb57" y="330.622384"/>
     <use style="fill:#64b5cd;stroke:#64b5cd;" x="478.131145" xlink:href="#m6bd682cb57" y="340.488024"/>
     <use style="fill:#64b5cd;stroke:#64b5cd;" x="407.46638" xlink:href="#m6bd682cb57" y="345.470082"/>
     <use style="fill:#64b5cd;stroke:#64b5cd;" x="457.531453" xlink:href="#m6bd682cb57" y="326.865857"/>
     <use style="fill:#64b5cd;stroke:#64b5cd;" x="638.626212" xlink:href="#m6bd682cb57" y="317.342297"/>
     <use style="fill:#64b5cd;stroke:#64b5cd;" x="462.048737" xlink:href="#m6bd682cb57" y="337.479398"/>
     <use style="fill:#64b5cd;stroke:#64b5cd;" x="716.070622" xlink:href="#m6bd682cb57" y="335.837627"/>
     <use style="fill:#64b5cd;stroke:#64b5cd;" x="684.043362" xlink:href="#m6bd682cb57" y="311.113445"/>
     <use style="fill:#64b5cd;stroke:#64b5cd;" x="729.108402" xlink:href="#m6bd682cb57" y="342.466829"/>
     <use style="fill:#64b5cd;stroke:#64b5cd;" x="816.852658" xlink:href="#m6bd682cb57" y="308.210755"/>
     <use style="fill:#64b5cd;stroke:#64b5cd;" x="371.873241" xlink:href="#m6bd682cb57" y="330.81812"/>
     <use style="fill:#64b5cd;stroke:#64b5cd;" x="696.311143" xlink:href="#m6bd682cb57" y="331.546471"/>
     <use style="fill:#64b5cd;stroke:#64b5cd;" x="551.012333" xlink:href="#m6bd682cb57" y="345.898491"/>
     <use style="fill:#64b5cd;stroke:#64b5cd;" x="744.492982" xlink:href="#m6bd682cb57" y="333.832165"/>
     <use style="fill:#64b5cd;stroke:#64b5cd;" x="646.318502" xlink:href="#m6bd682cb57" y="307.893024"/>
     <use style="fill:#64b5cd;stroke:#64b5cd;" x="574.610714" xlink:href="#m6bd682cb57" y="341.744943"/>
     <use style="fill:#64b5cd;stroke:#64b5cd;" x="613.984808" xlink:href="#m6bd682cb57" y="310.704958"/>
     <use style="fill:#64b5cd;stroke:#64b5cd;" x="686.865996" xlink:href="#m6bd682cb57" y="307.694402"/>
     <use style="fill:#64b5cd;stroke:#64b5cd;" x="1036.8" xlink:href="#m6bd682cb57" y="307.24173"/>
     <use style="fill:#64b5cd;stroke:#64b5cd;" x="478.261523" xlink:href="#m6bd682cb57" y="335.035633"/>
     <use style="fill:#64b5cd;stroke:#64b5cd;" x="623.226493" xlink:href="#m6bd682cb57" y="338.110192"/>
     <use style="fill:#64b5cd;stroke:#64b5cd;" x="947.751965" xlink:href="#m6bd682cb57" y="312.575434"/>
     <use style="fill:#64b5cd;stroke:#64b5cd;" x="619.069542" xlink:href="#m6bd682cb57" y="344.140476"/>
     <use style="fill:#64b5cd;stroke:#64b5cd;" x="739.900917" xlink:href="#m6bd682cb57" y="301.644132"/>
     <use style="fill:#64b5cd;stroke:#64b5cd;" x="592.993983" xlink:href="#m6bd682cb57" y="332.001705"/>
     <use style="fill:#64b5cd;stroke:#64b5cd;" x="616.701078" xlink:href="#m6bd682cb57" y="298.727079"/>
     <use style="fill:#64b5cd;stroke:#64b5cd;" x="641.624901" xlink:href="#m6bd682cb57" y="329.703383"/>
     <use style="fill:#64b5cd;stroke:#64b5cd;" x="882.041556" xlink:href="#m6bd682cb57" y="333.152103"/>
     <use style="fill:#64b5cd;stroke:#64b5cd;" x="747.752427" xlink:href="#m6bd682cb57" y="317.811705"/>
     <use style="fill:#64b5cd;stroke:#64b5cd;" x="597.426828" xlink:href="#m6bd682cb57" y="323.582519"/>
     <use style="fill:#64b5cd;stroke:#64b5cd;" x="562.615957" xlink:href="#m6bd682cb57" y="327.736467"/>
     <use style="fill:#64b5cd;stroke:#64b5cd;" x="750.359983" xlink:href="#m6bd682cb57" y="319.097777"/>
     <use style="fill:#64b5cd;stroke:#64b5cd;" x="331.847258" xlink:href="#m6bd682cb57" y="340.288517"/>
     <use style="fill:#64b5cd;stroke:#64b5cd;" x="735.366536" xlink:href="#m6bd682cb57" y="327.587497"/>
     <use style="fill:#64b5cd;stroke:#64b5cd;" x="666.583496" xlink:href="#m6bd682cb57" y="341.860336"/>
     <use style="fill:#64b5cd;stroke:#64b5cd;" x="518.287506" xlink:href="#m6bd682cb57" y="318.336683"/>
     <use style="fill:#64b5cd;stroke:#64b5cd;" x="913.984116" xlink:href="#m6bd682cb57" y="300.597723"/>
     <use style="fill:#64b5cd;stroke:#64b5cd;" x="413.760665" xlink:href="#m6bd682cb57" y="348.038947"/>
     <use style="fill:#64b5cd;stroke:#64b5cd;" x="665.484038" xlink:href="#m6bd682cb57" y="332.453021"/>
     <use style="fill:#64b5cd;stroke:#64b5cd;" x="819.329837" xlink:href="#m6bd682cb57" y="324.694164"/>
     <use style="fill:#64b5cd;stroke:#64b5cd;" x="533.020197" xlink:href="#m6bd682cb57" y="331.650855"/>
     <use style="fill:#64b5cd;stroke:#64b5cd;" x="723.632534" xlink:href="#m6bd682cb57" y="324.653002"/>
     <use style="fill:#64b5cd;stroke:#64b5cd;" x="322.404852" xlink:href="#m6bd682cb57" y="337.147484"/>
     <use style="fill:#64b5cd;stroke:#64b5cd;" x="749.056205" xlink:href="#m6bd682cb57" y="335.08041"/>
     <use style="fill:#64b5cd;stroke:#64b5cd;" x="851.533152" xlink:href="#m6bd682cb57" y="329.352289"/>
     <use style="fill:#64b5cd;stroke:#64b5cd;" x="410.98658" xlink:href="#m6bd682cb57" y="311.801254"/>
     <use style="fill:#64b5cd;stroke:#64b5cd;" x="466.918655" xlink:href="#m6bd682cb57" y="314.89448"/>
     <use style="fill:#64b5cd;stroke:#64b5cd;" x="618.769595" xlink:href="#m6bd682cb57" y="338.032419"/>
     <use style="fill:#64b5cd;stroke:#64b5cd;" x="740.320892" xlink:href="#m6bd682cb57" y="331.522451"/>
     <use style="fill:#64b5cd;stroke:#64b5cd;" x="488.952502" xlink:href="#m6bd682cb57" y="336.669518"/>
     <use style="fill:#64b5cd;stroke:#64b5cd;" x="761.18134" xlink:href="#m6bd682cb57" y="316.213625"/>
     <use style="fill:#64b5cd;stroke:#64b5cd;" x="857.791286" xlink:href="#m6bd682cb57" y="306.30699"/>
     <use style="fill:#64b5cd;stroke:#64b5cd;" x="531.716419" xlink:href="#m6bd682cb57" y="325.106952"/>
    </g>
   </g>
   <g id="line2d_18">
    <defs>
     <path d="M 0 3 
C 0.795609 3 1.55874 2.683901 2.12132 2.12132 
C 2.683901 1.55874 3 0.795609 3 0 
C 3 -0.795609 2.683901 -1.55874 2.12132 -2.12132 
C 1.55874 -2.683901 0.795609 -3 0 -3 
C -0.795609 -3 -1.55874 -2.683901 -2.12132 -2.12132 
C -2.683901 -1.55874 -3 -0.795609 -3 0 
C -3 0.795609 -2.683901 1.55874 -2.12132 2.12132 
C -1.55874 2.683901 -0.795609 3 0 3 
z
" id="m5eb2b1a50b" style="stroke:#8172b3;"/>
    </defs>
    <g clip-path="url(#p33147de1f7)">
     <use style="fill:#8172b3;stroke:#8172b3;" x="585.823204" xlink:href="#m5eb2b1a50b" y="312.404476"/>
     <use style="fill:#8172b3;stroke:#8172b3;" x="497.024963" xlink:href="#m5eb2b1a50b" y="339.081313"/>
     <use style="fill:#8172b3;stroke:#8172b3;" x="545.965577" xlink:href="#m5eb2b1a50b" y="331.062347"/>
     <use style="fill:#8172b3;stroke:#8172b3;" x="438.757051" xlink:href="#m5eb2b1a50b" y="349.126063"/>
     <use style="fill:#8172b3;stroke:#8172b3;" x="706.621299" xlink:href="#m5eb2b1a50b" y="336.037299"/>
     <use style="fill:#8172b3;stroke:#8172b3;" x="500.034615" xlink:href="#m5eb2b1a50b" y="312.050881"/>
     <use style="fill:#8172b3;stroke:#8172b3;" x="144" xlink:href="#m5eb2b1a50b" y="340.291672"/>
     <use style="fill:#8172b3;stroke:#8172b3;" x="567.700691" xlink:href="#m5eb2b1a50b" y="321.793189"/>
     <use style="fill:#8172b3;stroke:#8172b3;" x="493.631747" xlink:href="#m5eb2b1a50b" y="315.955316"/>
     <use style="fill:#8172b3;stroke:#8172b3;" x="767.568677" xlink:href="#m5eb2b1a50b" y="347.145879"/>
     <use style="fill:#8172b3;stroke:#8172b3;" x="332.759903" xlink:href="#m5eb2b1a50b" y="342.146813"/>
     <use style="fill:#8172b3;stroke:#8172b3;" x="641.885656" xlink:href="#m5eb2b1a50b" y="305.616578"/>
     <use style="fill:#8172b3;stroke:#8172b3;" x="445.927829" xlink:href="#m5eb2b1a50b" y="319.232991"/>
     <use style="fill:#8172b3;stroke:#8172b3;" x="721.416112" xlink:href="#m5eb2b1a50b" y="323.605776"/>
     <use style="fill:#8172b3;stroke:#8172b3;" x="540.451731" xlink:href="#m5eb2b1a50b" y="349.965137"/>
     <use style="fill:#8172b3;stroke:#8172b3;" x="709.421355" xlink:href="#m5eb2b1a50b" y="340.583061"/>
     <use style="fill:#8172b3;stroke:#8172b3;" x="847.100307" xlink:href="#m5eb2b1a50b" y="309.871855"/>
     <use style="fill:#8172b3;stroke:#8172b3;" x="439.539317" xlink:href="#m5eb2b1a50b" y="358.812258"/>
     <use style="fill:#8172b3;stroke:#8172b3;" x="594.819272" xlink:href="#m5eb2b1a50b" y="332.205739"/>
     <use style="fill:#8172b3;stroke:#8172b3;" x="418.809248" xlink:href="#m5eb2b1a50b" y="325.905473"/>
     <use style="fill:#8172b3;stroke:#8172b3;" x="769.134385" xlink:href="#m5eb2b1a50b" y="361.069265"/>
     <use style="fill:#8172b3;stroke:#8172b3;" x="847.49144" xlink:href="#m5eb2b1a50b" y="320.790437"/>
     <use style="fill:#8172b3;stroke:#8172b3;" x="502.772548" xlink:href="#m5eb2b1a50b" y="327.259418"/>
     <use style="fill:#8172b3;stroke:#8172b3;" x="728.195757" xlink:href="#m5eb2b1a50b" y="343.901873"/>
     <use style="fill:#8172b3;stroke:#8172b3;" x="641.885656" xlink:href="#m5eb2b1a50b" y="342.629048"/>
     <use style="fill:#8172b3;stroke:#8172b3;" x="880.998534" xlink:href="#m5eb2b1a50b" y="313.709137"/>
     <use style="fill:#8172b3;stroke:#8172b3;" x="697.817731" xlink:href="#m5eb2b1a50b" y="333.067649"/>
     <use style="fill:#8172b3;stroke:#8172b3;" x="798.860523" xlink:href="#m5eb2b1a50b" y="346.91519"/>
     <use style="fill:#8172b3;stroke:#8172b3;" x="559.356512" xlink:href="#m5eb2b1a50b" y="315.126597"/>
     <use style="fill:#8172b3;stroke:#8172b3;" x="670.04726" xlink:href="#m5eb2b1a50b" y="310.746038"/>
     <use style="fill:#8172b3;stroke:#8172b3;" x="765.744563" xlink:href="#m5eb2b1a50b" y="339.324227"/>
     <use style="fill:#8172b3;stroke:#8172b3;" x="346.188816" xlink:href="#m5eb2b1a50b" y="313.70929"/>
     <use style="fill:#8172b3;stroke:#8172b3;" x="927.543407" xlink:href="#m5eb2b1a50b" y="311.248462"/>
     <use style="fill:#8172b3;stroke:#8172b3;" x="446.188585" xlink:href="#m5eb2b1a50b" y="332.29354"/>
     <use style="fill:#8172b3;stroke:#8172b3;" x="783.215187" xlink:href="#m5eb2b1a50b" y="298.884852"/>
     <use style="fill:#8172b3;stroke:#8172b3;" x="681.302688" xlink:href="#m5eb2b1a50b" y="337.510806"/>
     <use style="fill:#8172b3;stroke:#8172b3;" x="676.305395" xlink:href="#m5eb2b1a50b" y="304.765885"/>
     <use style="fill:#8172b3;stroke:#8172b3;" x="813.20208" xlink:href="#m5eb2b1a50b" y="313.69114"/>
     <use style="fill:#8172b3;stroke:#8172b3;" x="471.967368" xlink:href="#m5eb2b1a50b" y="311.92858"/>
     <use style="fill:#8172b3;stroke:#8172b3;" x="873.019387" xlink:href="#m5eb2b1a50b" y="311.632839"/>
     <use style="fill:#8172b3;stroke:#8172b3;" x="651.272858" xlink:href="#m5eb2b1a50b" y="333.733"/>
     <use style="fill:#8172b3;stroke:#8172b3;" x="642.667923" xlink:href="#m5eb2b1a50b" y="338.770141"/>
     <use style="fill:#8172b3;stroke:#8172b3;" x="567.048802" xlink:href="#m5eb2b1a50b" y="344.468077"/>
     <use style="fill:#8172b3;stroke:#8172b3;" x="913.085436" xlink:href="#m5eb2b1a50b" y="341.570223"/>
     <use style="fill:#8172b3;stroke:#8172b3;" x="684.872966" xlink:href="#m5eb2b1a50b" y="337.615297"/>
     <use style="fill:#8172b3;stroke:#8172b3;" x="541.625132" xlink:href="#m5eb2b1a50b" y="312.068563"/>
     <use style="fill:#8172b3;stroke:#8172b3;" x="842.667462" xlink:href="#m5eb2b1a50b" y="326.823723"/>
     <use style="fill:#8172b3;stroke:#8172b3;" x="987.12606" xlink:href="#m5eb2b1a50b" y="345.126909"/>
     <use style="fill:#8172b3;stroke:#8172b3;" x="481.912101" xlink:href="#m5eb2b1a50b" y="353.427583"/>
     <use style="fill:#8172b3;stroke:#8172b3;" x="657.530992" xlink:href="#m5eb2b1a50b" y="293.753531"/>
    </g>
   </g>
   <g id="patch_3">
    <path d="M 144 630 
L 144 86.4 
" style="fill:none;stroke:#cccccc;stroke-linecap:square;stroke-linejoin:miter;stroke-width:1.25;"/>
   </g>
   <g id="patch_4">
    <path d="M 1036.8 630 
L 1036.8 86.4 
" style="fill:none;stroke:#cccccc;stroke-linecap:square;stroke-linejoin:miter;stroke-width:1.25;"/>
   </g>
   <g id="patch_5">
    <path d="M 144 630 
L 1036.8 630 
" style="fill:none;stroke:#cccccc;stroke-linecap:square;stroke-linejoin:miter;stroke-width:1.25;"/>
   </g>
   <g id="patch_6">
    <path d="M 144 86.4 
L 1036.8 86.4 
" style="fill:none;stroke:#cccccc;stroke-linecap:square;stroke-linejoin:miter;stroke-width:1.25;"/>
   </g>
  </g>
 </g>
 <defs>
  <clipPath id="p33147de1f7">
   <rect height="543.6" width="892.8" x="144" y="86.4"/>
  </clipPath>
 </defs>
</svg>
