<?xml version="1.0" encoding="utf-8" standalone="no"?>
<!DOCTYPE svg PUBLIC "-//W3C//DTD SVG 1.1//EN"
  "http://www.w3.org/Graphics/SVG/1.1/DTD/svg11.dtd">
<!-- Created with matplotlib (https://matplotlib.org/) -->
<svg height="288pt" version="1.1" viewBox="0 0 432 288" width="432pt" xmlns="http://www.w3.org/2000/svg" xmlns:xlink="http://www.w3.org/1999/xlink">
 <defs>
  <style type="text/css">
*{stroke-linecap:butt;stroke-linejoin:round;}
  </style>
 </defs>
 <g id="figure_1">
  <g id="patch_1">
   <path d="M 0 288 
L 432 288 
L 432 0 
L 0 0 
z
" style="fill:#ffffff;"/>
  </g>
  <g id="axes_1">
   <g id="patch_2">
    <path d="M 54 252 
L 388.8 252 
L 388.8 34.56 
L 54 34.56 
z
" style="fill:#ffffff;"/>
   </g>
   <g id="matplotlib.axis_1">
    <g id="xtick_1">
     <g id="line2d_1">
      <path clip-path="url(#p0f5e6af61d)" d="M 87.851823 252 
L 87.851823 34.56 
" style="fill:none;stroke:#cccccc;stroke-linecap:round;"/>
     </g>
     <g id="text_1">
      <!-- −4 -->
      <defs>
       <path d="M 52.828125 31.203125 
L 5.5625 31.203125 
L 5.5625 39.40625 
L 52.828125 39.40625 
z
" id="ArialMT-8722"/>
       <path d="M 32.328125 0 
L 32.328125 17.140625 
L 1.265625 17.140625 
L 1.265625 25.203125 
L 33.9375 71.578125 
L 41.109375 71.578125 
L 41.109375 25.203125 
L 50.78125 25.203125 
L 50.78125 17.140625 
L 41.109375 17.140625 
L 41.109375 0 
z
M 32.328125 25.203125 
L 32.328125 57.46875 
L 9.90625 25.203125 
z
" id="ArialMT-52"/>
      </defs>
      <g style="fill:#262626;" transform="translate(75.310104 277.247187)scale(0.22 -0.22)">
       <use xlink:href="#ArialMT-8722"/>
       <use x="58.398438" xlink:href="#ArialMT-52"/>
      </g>
     </g>
    </g>
    <g id="xtick_2">
     <g id="line2d_2">
      <path clip-path="url(#p0f5e6af61d)" d="M 161.378496 252 
L 161.378496 34.56 
" style="fill:none;stroke:#cccccc;stroke-linecap:round;"/>
     </g>
     <g id="text_2">
      <!-- −2 -->
      <defs>
       <path d="M 50.34375 8.453125 
L 50.34375 0 
L 3.03125 0 
Q 2.9375 3.171875 4.046875 6.109375 
Q 5.859375 10.9375 9.828125 15.625 
Q 13.8125 20.3125 21.34375 26.46875 
Q 33.015625 36.03125 37.109375 41.625 
Q 41.21875 47.21875 41.21875 52.203125 
Q 41.21875 57.421875 37.46875 61 
Q 33.734375 64.59375 27.734375 64.59375 
Q 21.390625 64.59375 17.578125 60.78125 
Q 13.765625 56.984375 13.71875 50.25 
L 4.6875 51.171875 
Q 5.609375 61.28125 11.65625 66.578125 
Q 17.71875 71.875 27.9375 71.875 
Q 38.234375 71.875 44.234375 66.15625 
Q 50.25 60.453125 50.25 52 
Q 50.25 47.703125 48.484375 43.546875 
Q 46.734375 39.40625 42.65625 34.8125 
Q 38.578125 30.21875 29.109375 22.21875 
Q 21.1875 15.578125 18.9375 13.203125 
Q 16.703125 10.84375 15.234375 8.453125 
z
" id="ArialMT-50"/>
      </defs>
      <g style="fill:#262626;" transform="translate(148.836777 277.247187)scale(0.22 -0.22)">
       <use xlink:href="#ArialMT-8722"/>
       <use x="58.398438" xlink:href="#ArialMT-50"/>
      </g>
     </g>
    </g>
    <g id="xtick_3">
     <g id="line2d_3">
      <path clip-path="url(#p0f5e6af61d)" d="M 234.905169 252 
L 234.905169 34.56 
" style="fill:none;stroke:#cccccc;stroke-linecap:round;"/>
     </g>
     <g id="text_3">
      <!-- 0 -->
      <defs>
       <path d="M 4.15625 35.296875 
Q 4.15625 48 6.765625 55.734375 
Q 9.375 63.484375 14.515625 67.671875 
Q 19.671875 71.875 27.484375 71.875 
Q 33.25 71.875 37.59375 69.546875 
Q 41.9375 67.234375 44.765625 62.859375 
Q 47.609375 58.5 49.21875 52.21875 
Q 50.828125 45.953125 50.828125 35.296875 
Q 50.828125 22.703125 48.234375 14.96875 
Q 45.65625 7.234375 40.5 3 
Q 35.359375 -1.21875 27.484375 -1.21875 
Q 17.140625 -1.21875 11.234375 6.203125 
Q 4.15625 15.140625 4.15625 35.296875 
z
M 13.1875 35.296875 
Q 13.1875 17.671875 17.3125 11.828125 
Q 21.4375 6 27.484375 6 
Q 33.546875 6 37.671875 11.859375 
Q 41.796875 17.71875 41.796875 35.296875 
Q 41.796875 52.984375 37.671875 58.78125 
Q 33.546875 64.59375 27.390625 64.59375 
Q 21.34375 64.59375 17.71875 59.46875 
Q 13.1875 52.9375 13.1875 35.296875 
z
" id="ArialMT-48"/>
      </defs>
      <g style="fill:#262626;" transform="translate(228.788138 277.247187)scale(0.22 -0.22)">
       <use xlink:href="#ArialMT-48"/>
      </g>
     </g>
    </g>
    <g id="xtick_4">
     <g id="line2d_4">
      <path clip-path="url(#p0f5e6af61d)" d="M 308.431842 252 
L 308.431842 34.56 
" style="fill:none;stroke:#cccccc;stroke-linecap:round;"/>
     </g>
     <g id="text_4">
      <!-- 2 -->
      <g style="fill:#262626;" transform="translate(302.314811 277.247187)scale(0.22 -0.22)">
       <use xlink:href="#ArialMT-50"/>
      </g>
     </g>
    </g>
    <g id="xtick_5">
     <g id="line2d_5">
      <path clip-path="url(#p0f5e6af61d)" d="M 381.958516 252 
L 381.958516 34.56 
" style="fill:none;stroke:#cccccc;stroke-linecap:round;"/>
     </g>
     <g id="text_5">
      <!-- 4 -->
      <g style="fill:#262626;" transform="translate(375.841484 277.247187)scale(0.22 -0.22)">
       <use xlink:href="#ArialMT-52"/>
      </g>
     </g>
    </g>
    <g id="text_6">
     <!-- Yerr_normalized -->
     <defs>
      <path d="M 27.875 0 
L 27.875 30.328125 
L 0.296875 71.578125 
L 11.8125 71.578125 
L 25.921875 50 
Q 29.828125 43.953125 33.203125 37.890625 
Q 36.421875 43.5 41.015625 50.53125 
L 54.890625 71.578125 
L 65.921875 71.578125 
L 37.359375 30.328125 
L 37.359375 0 
z
" id="ArialMT-89"/>
      <path d="M 42.09375 16.703125 
L 51.171875 15.578125 
Q 49.03125 7.625 43.21875 3.21875 
Q 37.40625 -1.171875 28.375 -1.171875 
Q 17 -1.171875 10.328125 5.828125 
Q 3.65625 12.84375 3.65625 25.484375 
Q 3.65625 38.578125 10.390625 45.796875 
Q 17.140625 53.03125 27.875 53.03125 
Q 38.28125 53.03125 44.875 45.953125 
Q 51.46875 38.875 51.46875 26.03125 
Q 51.46875 25.25 51.421875 23.6875 
L 12.75 23.6875 
Q 13.234375 15.140625 17.578125 10.59375 
Q 21.921875 6.0625 28.421875 6.0625 
Q 33.25 6.0625 36.671875 8.59375 
Q 40.09375 11.140625 42.09375 16.703125 
z
M 13.234375 30.90625 
L 42.1875 30.90625 
Q 41.609375 37.453125 38.875 40.71875 
Q 34.671875 45.796875 27.984375 45.796875 
Q 21.921875 45.796875 17.796875 41.75 
Q 13.671875 37.703125 13.234375 30.90625 
z
" id="ArialMT-101"/>
      <path d="M 6.5 0 
L 6.5 51.859375 
L 14.40625 51.859375 
L 14.40625 44 
Q 17.4375 49.515625 20 51.265625 
Q 22.5625 53.03125 25.640625 53.03125 
Q 30.078125 53.03125 34.671875 50.203125 
L 31.640625 42.046875 
Q 28.421875 43.953125 25.203125 43.953125 
Q 22.3125 43.953125 20.015625 42.21875 
Q 17.71875 40.484375 16.75 37.40625 
Q 15.28125 32.71875 15.28125 27.15625 
L 15.28125 0 
z
" id="ArialMT-114"/>
      <path d="M -1.515625 -19.875 
L -1.515625 -13.53125 
L 56.734375 -13.53125 
L 56.734375 -19.875 
z
" id="ArialMT-95"/>
      <path d="M 6.59375 0 
L 6.59375 51.859375 
L 14.5 51.859375 
L 14.5 44.484375 
Q 20.21875 53.03125 31 53.03125 
Q 35.6875 53.03125 39.625 51.34375 
Q 43.5625 49.65625 45.515625 46.921875 
Q 47.46875 44.1875 48.25 40.4375 
Q 48.734375 37.984375 48.734375 31.890625 
L 48.734375 0 
L 39.9375 0 
L 39.9375 31.546875 
Q 39.9375 36.921875 38.90625 39.578125 
Q 37.890625 42.234375 35.28125 43.8125 
Q 32.671875 45.40625 29.15625 45.40625 
Q 23.53125 45.40625 19.453125 41.84375 
Q 15.375 38.28125 15.375 28.328125 
L 15.375 0 
z
" id="ArialMT-110"/>
      <path d="M 3.328125 25.921875 
Q 3.328125 40.328125 11.328125 47.265625 
Q 18.015625 53.03125 27.640625 53.03125 
Q 38.328125 53.03125 45.109375 46.015625 
Q 51.90625 39.015625 51.90625 26.65625 
Q 51.90625 16.65625 48.90625 10.90625 
Q 45.90625 5.171875 40.15625 2 
Q 34.421875 -1.171875 27.640625 -1.171875 
Q 16.75 -1.171875 10.03125 5.8125 
Q 3.328125 12.796875 3.328125 25.921875 
z
M 12.359375 25.921875 
Q 12.359375 15.96875 16.703125 11.015625 
Q 21.046875 6.0625 27.640625 6.0625 
Q 34.1875 6.0625 38.53125 11.03125 
Q 42.875 16.015625 42.875 26.21875 
Q 42.875 35.84375 38.5 40.796875 
Q 34.125 45.75 27.640625 45.75 
Q 21.046875 45.75 16.703125 40.8125 
Q 12.359375 35.890625 12.359375 25.921875 
z
" id="ArialMT-111"/>
      <path d="M 6.59375 0 
L 6.59375 51.859375 
L 14.453125 51.859375 
L 14.453125 44.578125 
Q 16.890625 48.390625 20.9375 50.703125 
Q 25 53.03125 30.171875 53.03125 
Q 35.9375 53.03125 39.625 50.640625 
Q 43.3125 48.25 44.828125 43.953125 
Q 50.984375 53.03125 60.84375 53.03125 
Q 68.5625 53.03125 72.703125 48.75 
Q 76.859375 44.484375 76.859375 35.59375 
L 76.859375 0 
L 68.109375 0 
L 68.109375 32.671875 
Q 68.109375 37.9375 67.25 40.25 
Q 66.40625 42.578125 64.15625 43.984375 
Q 61.921875 45.40625 58.890625 45.40625 
Q 53.421875 45.40625 49.796875 41.765625 
Q 46.1875 38.140625 46.1875 30.125 
L 46.1875 0 
L 37.40625 0 
L 37.40625 33.6875 
Q 37.40625 39.546875 35.25 42.46875 
Q 33.109375 45.40625 28.21875 45.40625 
Q 24.515625 45.40625 21.359375 43.453125 
Q 18.21875 41.5 16.796875 37.734375 
Q 15.375 33.984375 15.375 26.90625 
L 15.375 0 
z
" id="ArialMT-109"/>
      <path d="M 40.4375 6.390625 
Q 35.546875 2.25 31.03125 0.53125 
Q 26.515625 -1.171875 21.34375 -1.171875 
Q 12.796875 -1.171875 8.203125 3 
Q 3.609375 7.171875 3.609375 13.671875 
Q 3.609375 17.484375 5.34375 20.625 
Q 7.078125 23.78125 9.890625 25.6875 
Q 12.703125 27.59375 16.21875 28.5625 
Q 18.796875 29.25 24.03125 29.890625 
Q 34.671875 31.15625 39.703125 32.90625 
Q 39.75 34.71875 39.75 35.203125 
Q 39.75 40.578125 37.25 42.78125 
Q 33.890625 45.75 27.25 45.75 
Q 21.046875 45.75 18.09375 43.578125 
Q 15.140625 41.40625 13.71875 35.890625 
L 5.125 37.0625 
Q 6.296875 42.578125 8.984375 45.96875 
Q 11.671875 49.359375 16.75 51.1875 
Q 21.828125 53.03125 28.515625 53.03125 
Q 35.15625 53.03125 39.296875 51.46875 
Q 43.453125 49.90625 45.40625 47.53125 
Q 47.359375 45.171875 48.140625 41.546875 
Q 48.578125 39.3125 48.578125 33.453125 
L 48.578125 21.734375 
Q 48.578125 9.46875 49.140625 6.21875 
Q 49.703125 2.984375 51.375 0 
L 42.1875 0 
Q 40.828125 2.734375 40.4375 6.390625 
z
M 39.703125 26.03125 
Q 34.90625 24.078125 25.34375 22.703125 
Q 19.921875 21.921875 17.671875 20.9375 
Q 15.4375 19.96875 14.203125 18.09375 
Q 12.984375 16.21875 12.984375 13.921875 
Q 12.984375 10.40625 15.640625 8.0625 
Q 18.3125 5.71875 23.4375 5.71875 
Q 28.515625 5.71875 32.46875 7.9375 
Q 36.421875 10.15625 38.28125 14.015625 
Q 39.703125 17 39.703125 22.796875 
z
" id="ArialMT-97"/>
      <path d="M 6.390625 0 
L 6.390625 71.578125 
L 15.1875 71.578125 
L 15.1875 0 
z
" id="ArialMT-108"/>
      <path d="M 6.640625 61.46875 
L 6.640625 71.578125 
L 15.4375 71.578125 
L 15.4375 61.46875 
z
M 6.640625 0 
L 6.640625 51.859375 
L 15.4375 51.859375 
L 15.4375 0 
z
" id="ArialMT-105"/>
      <path d="M 1.953125 0 
L 1.953125 7.125 
L 34.96875 45.015625 
Q 29.34375 44.734375 25.046875 44.734375 
L 3.90625 44.734375 
L 3.90625 51.859375 
L 46.296875 51.859375 
L 46.296875 46.046875 
L 18.21875 13.140625 
L 12.796875 7.125 
Q 18.703125 7.5625 23.875 7.5625 
L 47.859375 7.5625 
L 47.859375 0 
z
" id="ArialMT-122"/>
      <path d="M 40.234375 0 
L 40.234375 6.546875 
Q 35.296875 -1.171875 25.734375 -1.171875 
Q 19.53125 -1.171875 14.328125 2.25 
Q 9.125 5.671875 6.265625 11.796875 
Q 3.421875 17.921875 3.421875 25.875 
Q 3.421875 33.640625 6 39.96875 
Q 8.59375 46.296875 13.765625 49.65625 
Q 18.953125 53.03125 25.34375 53.03125 
Q 30.03125 53.03125 33.6875 51.046875 
Q 37.359375 49.078125 39.65625 45.90625 
L 39.65625 71.578125 
L 48.390625 71.578125 
L 48.390625 0 
z
M 12.453125 25.875 
Q 12.453125 15.921875 16.640625 10.984375 
Q 20.84375 6.0625 26.5625 6.0625 
Q 32.328125 6.0625 36.34375 10.765625 
Q 40.375 15.484375 40.375 25.140625 
Q 40.375 35.796875 36.265625 40.765625 
Q 32.171875 45.75 26.171875 45.75 
Q 20.3125 45.75 16.375 40.96875 
Q 12.453125 36.1875 12.453125 25.875 
z
" id="ArialMT-100"/>
     </defs>
     <g style="fill:#262626;" transform="translate(133.385625 302.798437)scale(0.24 -0.24)">
      <use xlink:href="#ArialMT-89"/>
      <use x="66.558594" xlink:href="#ArialMT-101"/>
      <use x="122.173828" xlink:href="#ArialMT-114"/>
      <use x="155.474609" xlink:href="#ArialMT-114"/>
      <use x="188.775391" xlink:href="#ArialMT-95"/>
      <use x="244.390625" xlink:href="#ArialMT-110"/>
      <use x="300.005859" xlink:href="#ArialMT-111"/>
      <use x="355.621094" xlink:href="#ArialMT-114"/>
      <use x="388.921875" xlink:href="#ArialMT-109"/>
      <use x="472.222656" xlink:href="#ArialMT-97"/>
      <use x="527.837891" xlink:href="#ArialMT-108"/>
      <use x="550.054688" xlink:href="#ArialMT-105"/>
      <use x="572.271484" xlink:href="#ArialMT-122"/>
      <use x="622.271484" xlink:href="#ArialMT-101"/>
      <use x="677.886719" xlink:href="#ArialMT-100"/>
     </g>
    </g>
   </g>
   <g id="matplotlib.axis_2">
    <g id="ytick_1">
     <g id="line2d_6">
      <path clip-path="url(#p0f5e6af61d)" d="M 54 252 
L 388.8 252 
" style="fill:none;stroke:#cccccc;stroke-linecap:round;"/>
     </g>
     <g id="text_7">
      <!-- 0.0 -->
      <defs>
       <path d="M 9.078125 0 
L 9.078125 10.015625 
L 19.09375 10.015625 
L 19.09375 0 
z
" id="ArialMT-46"/>
      </defs>
      <g style="fill:#262626;" transform="translate(13.92 259.873594)scale(0.22 -0.22)">
       <use xlink:href="#ArialMT-48"/>
       <use x="55.615234" xlink:href="#ArialMT-46"/>
       <use x="83.398438" xlink:href="#ArialMT-48"/>
      </g>
     </g>
    </g>
    <g id="ytick_2">
     <g id="line2d_7">
      <path clip-path="url(#p0f5e6af61d)" d="M 54 148.725095 
L 388.8 148.725095 
" style="fill:none;stroke:#cccccc;stroke-linecap:round;"/>
     </g>
     <g id="text_8">
      <!-- 0.2 -->
      <g style="fill:#262626;" transform="translate(13.92 156.598689)scale(0.22 -0.22)">
       <use xlink:href="#ArialMT-48"/>
       <use x="55.615234" xlink:href="#ArialMT-46"/>
       <use x="83.398438" xlink:href="#ArialMT-50"/>
      </g>
     </g>
    </g>
    <g id="ytick_3">
     <g id="line2d_8">
      <path clip-path="url(#p0f5e6af61d)" d="M 54 45.45019 
L 388.8 45.45019 
" style="fill:none;stroke:#cccccc;stroke-linecap:round;"/>
     </g>
     <g id="text_9">
      <!-- 0.4 -->
      <g style="fill:#262626;" transform="translate(13.92 53.323784)scale(0.22 -0.22)">
       <use xlink:href="#ArialMT-48"/>
       <use x="55.615234" xlink:href="#ArialMT-46"/>
       <use x="83.398438" xlink:href="#ArialMT-52"/>
      </g>
     </g>
    </g>
   </g>
   <g id="patch_3">
    <path clip-path="url(#p0f5e6af61d)" d="M 111.166227 252 
L 128.125269 252 
L 128.125269 246.403089 
L 111.166227 246.403089 
z
" style="fill:#4c72b0;opacity:0.4;stroke:#ffffff;stroke-linejoin:miter;"/>
   </g>
   <g id="patch_4">
    <path clip-path="url(#p0f5e6af61d)" d="M 128.125269 252 
L 145.084311 252 
L 145.084311 246.403089 
L 128.125269 246.403089 
z
" style="fill:#4c72b0;opacity:0.4;stroke:#ffffff;stroke-linejoin:miter;"/>
   </g>
   <g id="patch_5">
    <path clip-path="url(#p0f5e6af61d)" d="M 145.084311 252 
L 162.043353 252 
L 162.043353 224.015444 
L 145.084311 224.015444 
z
" style="fill:#4c72b0;opacity:0.4;stroke:#ffffff;stroke-linejoin:miter;"/>
   </g>
   <g id="patch_6">
    <path clip-path="url(#p0f5e6af61d)" d="M 162.043353 252 
L 179.002395 252 
L 179.002395 224.015444 
L 162.043353 224.015444 
z
" style="fill:#4c72b0;opacity:0.4;stroke:#ffffff;stroke-linejoin:miter;"/>
   </g>
   <g id="patch_7">
    <path clip-path="url(#p0f5e6af61d)" d="M 179.002395 252 
L 195.961437 252 
L 195.961437 140.061776 
L 179.002395 140.061776 
z
" style="fill:#4c72b0;opacity:0.4;stroke:#ffffff;stroke-linejoin:miter;"/>
   </g>
   <g id="patch_8">
    <path clip-path="url(#p0f5e6af61d)" d="M 195.961437 252 
L 212.920479 252 
L 212.920479 106.480309 
L 195.961437 106.480309 
z
" style="fill:#4c72b0;opacity:0.4;stroke:#ffffff;stroke-linejoin:miter;"/>
   </g>
   <g id="patch_9">
    <path clip-path="url(#p0f5e6af61d)" d="M 212.920479 252 
L 229.879521 252 
L 229.879521 72.898842 
L 212.920479 72.898842 
z
" style="fill:#4c72b0;opacity:0.4;stroke:#ffffff;stroke-linejoin:miter;"/>
   </g>
   <g id="patch_10">
    <path clip-path="url(#p0f5e6af61d)" d="M 229.879521 252 
L 246.838563 252 
L 246.838563 44.914286 
L 229.879521 44.914286 
z
" style="fill:#4c72b0;opacity:0.4;stroke:#ffffff;stroke-linejoin:miter;"/>
   </g>
   <g id="patch_11">
    <path clip-path="url(#p0f5e6af61d)" d="M 246.838563 252 
L 263.797605 252 
L 263.797605 78.495753 
L 246.838563 78.495753 
z
" style="fill:#4c72b0;opacity:0.4;stroke:#ffffff;stroke-linejoin:miter;"/>
   </g>
   <g id="patch_12">
    <path clip-path="url(#p0f5e6af61d)" d="M 263.797605 252 
L 280.756647 252 
L 280.756647 151.255598 
L 263.797605 151.255598 
z
" style="fill:#4c72b0;opacity:0.4;stroke:#ffffff;stroke-linejoin:miter;"/>
   </g>
   <g id="patch_13">
    <path clip-path="url(#p0f5e6af61d)" d="M 280.756647 252 
L 297.715689 252 
L 297.715689 179.240154 
L 280.756647 179.240154 
z
" style="fill:#4c72b0;opacity:0.4;stroke:#ffffff;stroke-linejoin:miter;"/>
   </g>
   <g id="patch_14">
    <path clip-path="url(#p0f5e6af61d)" d="M 297.715689 252 
L 314.674731 252 
L 314.674731 218.418533 
L 297.715689 218.418533 
z
" style="fill:#4c72b0;opacity:0.4;stroke:#ffffff;stroke-linejoin:miter;"/>
   </g>
   <g id="patch_15">
    <path clip-path="url(#p0f5e6af61d)" d="M 314.674731 252 
L 331.633773 252 
L 331.633773 224.015444 
L 314.674731 224.015444 
z
" style="fill:#4c72b0;opacity:0.4;stroke:#ffffff;stroke-linejoin:miter;"/>
   </g>
   <g id="LineCollection_1">
    <path clip-path="url(#p0f5e6af61d)" d="M 267.678742 252 
L 267.678742 241.128 
" style="fill:none;stroke:#4c72b0;"/>
    <path clip-path="url(#p0f5e6af61d)" d="M 227.446334 252 
L 227.446334 241.128 
" style="fill:none;stroke:#4c72b0;"/>
    <path clip-path="url(#p0f5e6af61d)" d="M 211.575201 252 
L 211.575201 241.128 
" style="fill:none;stroke:#4c72b0;"/>
    <path clip-path="url(#p0f5e6af61d)" d="M 261.658847 252 
L 261.658847 241.128 
" style="fill:none;stroke:#4c72b0;"/>
    <path clip-path="url(#p0f5e6af61d)" d="M 251.375205 252 
L 251.375205 241.128 
" style="fill:none;stroke:#4c72b0;"/>
    <path clip-path="url(#p0f5e6af61d)" d="M 274.250885 252 
L 274.250885 241.128 
" style="fill:none;stroke:#4c72b0;"/>
    <path clip-path="url(#p0f5e6af61d)" d="M 209.944105 252 
L 209.944105 241.128 
" style="fill:none;stroke:#4c72b0;"/>
    <path clip-path="url(#p0f5e6af61d)" d="M 206.348398 252 
L 206.348398 241.128 
" style="fill:none;stroke:#4c72b0;"/>
    <path clip-path="url(#p0f5e6af61d)" d="M 228.378557 252 
L 228.378557 241.128 
" style="fill:none;stroke:#4c72b0;"/>
    <path clip-path="url(#p0f5e6af61d)" d="M 253.246653 252 
L 253.246653 241.128 
" style="fill:none;stroke:#4c72b0;"/>
    <path clip-path="url(#p0f5e6af61d)" d="M 182.134102 252 
L 182.134102 241.128 
" style="fill:none;stroke:#4c72b0;"/>
    <path clip-path="url(#p0f5e6af61d)" d="M 251.482364 252 
L 251.482364 241.128 
" style="fill:none;stroke:#4c72b0;"/>
    <path clip-path="url(#p0f5e6af61d)" d="M 169.944886 252 
L 169.944886 241.128 
" style="fill:none;stroke:#4c72b0;"/>
    <path clip-path="url(#p0f5e6af61d)" d="M 169.971854 252 
L 169.971854 241.128 
" style="fill:none;stroke:#4c72b0;"/>
    <path clip-path="url(#p0f5e6af61d)" d="M 236.878576 252 
L 236.878576 241.128 
" style="fill:none;stroke:#4c72b0;"/>
    <path clip-path="url(#p0f5e6af61d)" d="M 248.525611 252 
L 248.525611 241.128 
" style="fill:none;stroke:#4c72b0;"/>
    <path clip-path="url(#p0f5e6af61d)" d="M 132.838336 252 
L 132.838336 241.128 
" style="fill:none;stroke:#4c72b0;"/>
    <path clip-path="url(#p0f5e6af61d)" d="M 318.53466 252 
L 318.53466 241.128 
" style="fill:none;stroke:#4c72b0;"/>
    <path clip-path="url(#p0f5e6af61d)" d="M 254.193221 252 
L 254.193221 241.128 
" style="fill:none;stroke:#4c72b0;"/>
    <path clip-path="url(#p0f5e6af61d)" d="M 231.199231 252 
L 231.199231 241.128 
" style="fill:none;stroke:#4c72b0;"/>
    <path clip-path="url(#p0f5e6af61d)" d="M 231.640229 252 
L 231.640229 241.128 
" style="fill:none;stroke:#4c72b0;"/>
    <path clip-path="url(#p0f5e6af61d)" d="M 274.083886 252 
L 274.083886 241.128 
" style="fill:none;stroke:#4c72b0;"/>
    <path clip-path="url(#p0f5e6af61d)" d="M 212.242559 252 
L 212.242559 241.128 
" style="fill:none;stroke:#4c72b0;"/>
    <path clip-path="url(#p0f5e6af61d)" d="M 219.424611 252 
L 219.424611 241.128 
" style="fill:none;stroke:#4c72b0;"/>
    <path clip-path="url(#p0f5e6af61d)" d="M 233.187147 252 
L 233.187147 241.128 
" style="fill:none;stroke:#4c72b0;"/>
    <path clip-path="url(#p0f5e6af61d)" d="M 230.734216 252 
L 230.734216 241.128 
" style="fill:none;stroke:#4c72b0;"/>
    <path clip-path="url(#p0f5e6af61d)" d="M 259.670631 252 
L 259.670631 241.128 
" style="fill:none;stroke:#4c72b0;"/>
    <path clip-path="url(#p0f5e6af61d)" d="M 244.196556 252 
L 244.196556 241.128 
" style="fill:none;stroke:#4c72b0;"/>
    <path clip-path="url(#p0f5e6af61d)" d="M 236.100612 252 
L 236.100612 241.128 
" style="fill:none;stroke:#4c72b0;"/>
    <path clip-path="url(#p0f5e6af61d)" d="M 236.758509 252 
L 236.758509 241.128 
" style="fill:none;stroke:#4c72b0;"/>
    <path clip-path="url(#p0f5e6af61d)" d="M 299.583355 252 
L 299.583355 241.128 
" style="fill:none;stroke:#4c72b0;"/>
    <path clip-path="url(#p0f5e6af61d)" d="M 238.604129 252 
L 238.604129 241.128 
" style="fill:none;stroke:#4c72b0;"/>
    <path clip-path="url(#p0f5e6af61d)" d="M 240.435177 252 
L 240.435177 241.128 
" style="fill:none;stroke:#4c72b0;"/>
    <path clip-path="url(#p0f5e6af61d)" d="M 203.330622 252 
L 203.330622 241.128 
" style="fill:none;stroke:#4c72b0;"/>
    <path clip-path="url(#p0f5e6af61d)" d="M 239.063636 252 
L 239.063636 241.128 
" style="fill:none;stroke:#4c72b0;"/>
    <path clip-path="url(#p0f5e6af61d)" d="M 232.216359 252 
L 232.216359 241.128 
" style="fill:none;stroke:#4c72b0;"/>
    <path clip-path="url(#p0f5e6af61d)" d="M 205.346202 252 
L 205.346202 241.128 
" style="fill:none;stroke:#4c72b0;"/>
    <path clip-path="url(#p0f5e6af61d)" d="M 222.723253 252 
L 222.723253 241.128 
" style="fill:none;stroke:#4c72b0;"/>
    <path clip-path="url(#p0f5e6af61d)" d="M 230.173694 252 
L 230.173694 241.128 
" style="fill:none;stroke:#4c72b0;"/>
    <path clip-path="url(#p0f5e6af61d)" d="M 215.558584 252 
L 215.558584 241.128 
" style="fill:none;stroke:#4c72b0;"/>
    <path clip-path="url(#p0f5e6af61d)" d="M 243.998075 252 
L 243.998075 241.128 
" style="fill:none;stroke:#4c72b0;"/>
    <path clip-path="url(#p0f5e6af61d)" d="M 245.081677 252 
L 245.081677 241.128 
" style="fill:none;stroke:#4c72b0;"/>
    <path clip-path="url(#p0f5e6af61d)" d="M 280.759716 252 
L 280.759716 241.128 
" style="fill:none;stroke:#4c72b0;"/>
    <path clip-path="url(#p0f5e6af61d)" d="M 249.892016 252 
L 249.892016 241.128 
" style="fill:none;stroke:#4c72b0;"/>
    <path clip-path="url(#p0f5e6af61d)" d="M 330.769499 252 
L 330.769499 241.128 
" style="fill:none;stroke:#4c72b0;"/>
    <path clip-path="url(#p0f5e6af61d)" d="M 242.80629 252 
L 242.80629 241.128 
" style="fill:none;stroke:#4c72b0;"/>
    <path clip-path="url(#p0f5e6af61d)" d="M 211.362958 252 
L 211.362958 241.128 
" style="fill:none;stroke:#4c72b0;"/>
    <path clip-path="url(#p0f5e6af61d)" d="M 199.732425 252 
L 199.732425 241.128 
" style="fill:none;stroke:#4c72b0;"/>
    <path clip-path="url(#p0f5e6af61d)" d="M 310.305022 252 
L 310.305022 241.128 
" style="fill:none;stroke:#4c72b0;"/>
    <path clip-path="url(#p0f5e6af61d)" d="M 263.358425 252 
L 263.358425 241.128 
" style="fill:none;stroke:#4c72b0;"/>
    <path clip-path="url(#p0f5e6af61d)" d="M 209.52847 252 
L 209.52847 241.128 
" style="fill:none;stroke:#4c72b0;"/>
    <path clip-path="url(#p0f5e6af61d)" d="M 215.604701 252 
L 215.604701 241.128 
" style="fill:none;stroke:#4c72b0;"/>
    <path clip-path="url(#p0f5e6af61d)" d="M 270.402218 252 
L 270.402218 241.128 
" style="fill:none;stroke:#4c72b0;"/>
    <path clip-path="url(#p0f5e6af61d)" d="M 246.840983 252 
L 246.840983 241.128 
" style="fill:none;stroke:#4c72b0;"/>
    <path clip-path="url(#p0f5e6af61d)" d="M 230.542347 252 
L 230.542347 241.128 
" style="fill:none;stroke:#4c72b0;"/>
    <path clip-path="url(#p0f5e6af61d)" d="M 200.604239 252 
L 200.604239 241.128 
" style="fill:none;stroke:#4c72b0;"/>
    <path clip-path="url(#p0f5e6af61d)" d="M 282.174641 252 
L 282.174641 241.128 
" style="fill:none;stroke:#4c72b0;"/>
    <path clip-path="url(#p0f5e6af61d)" d="M 261.327788 252 
L 261.327788 241.128 
" style="fill:none;stroke:#4c72b0;"/>
    <path clip-path="url(#p0f5e6af61d)" d="M 182.104731 252 
L 182.104731 241.128 
" style="fill:none;stroke:#4c72b0;"/>
    <path clip-path="url(#p0f5e6af61d)" d="M 202.061708 252 
L 202.061708 241.128 
" style="fill:none;stroke:#4c72b0;"/>
    <path clip-path="url(#p0f5e6af61d)" d="M 216.459824 252 
L 216.459824 241.128 
" style="fill:none;stroke:#4c72b0;"/>
    <path clip-path="url(#p0f5e6af61d)" d="M 263.54913 252 
L 263.54913 241.128 
" style="fill:none;stroke:#4c72b0;"/>
    <path clip-path="url(#p0f5e6af61d)" d="M 200.574461 252 
L 200.574461 241.128 
" style="fill:none;stroke:#4c72b0;"/>
    <path clip-path="url(#p0f5e6af61d)" d="M 165.715639 252 
L 165.715639 241.128 
" style="fill:none;stroke:#4c72b0;"/>
    <path clip-path="url(#p0f5e6af61d)" d="M 260.585388 252 
L 260.585388 241.128 
" style="fill:none;stroke:#4c72b0;"/>
    <path clip-path="url(#p0f5e6af61d)" d="M 223.559843 252 
L 223.559843 241.128 
" style="fill:none;stroke:#4c72b0;"/>
    <path clip-path="url(#p0f5e6af61d)" d="M 261.203005 252 
L 261.203005 241.128 
" style="fill:none;stroke:#4c72b0;"/>
    <path clip-path="url(#p0f5e6af61d)" d="M 229.587893 252 
L 229.587893 241.128 
" style="fill:none;stroke:#4c72b0;"/>
    <path clip-path="url(#p0f5e6af61d)" d="M 228.332127 252 
L 228.332127 241.128 
" style="fill:none;stroke:#4c72b0;"/>
    <path clip-path="url(#p0f5e6af61d)" d="M 222.538564 252 
L 222.538564 241.128 
" style="fill:none;stroke:#4c72b0;"/>
    <path clip-path="url(#p0f5e6af61d)" d="M 242.187343 252 
L 242.187343 241.128 
" style="fill:none;stroke:#4c72b0;"/>
    <path clip-path="url(#p0f5e6af61d)" d="M 218.40413 252 
L 218.40413 241.128 
" style="fill:none;stroke:#4c72b0;"/>
    <path clip-path="url(#p0f5e6af61d)" d="M 264.156801 252 
L 264.156801 241.128 
" style="fill:none;stroke:#4c72b0;"/>
    <path clip-path="url(#p0f5e6af61d)" d="M 230.462868 252 
L 230.462868 241.128 
" style="fill:none;stroke:#4c72b0;"/>
    <path clip-path="url(#p0f5e6af61d)" d="M 183.412792 252 
L 183.412792 241.128 
" style="fill:none;stroke:#4c72b0;"/>
    <path clip-path="url(#p0f5e6af61d)" d="M 185.968854 252 
L 185.968854 241.128 
" style="fill:none;stroke:#4c72b0;"/>
    <path clip-path="url(#p0f5e6af61d)" d="M 290.339105 252 
L 290.339105 241.128 
" style="fill:none;stroke:#4c72b0;"/>
    <path clip-path="url(#p0f5e6af61d)" d="M 256.322484 252 
L 256.322484 241.128 
" style="fill:none;stroke:#4c72b0;"/>
    <path clip-path="url(#p0f5e6af61d)" d="M 266.295514 252 
L 266.295514 241.128 
" style="fill:none;stroke:#4c72b0;"/>
    <path clip-path="url(#p0f5e6af61d)" d="M 211.059348 252 
L 211.059348 241.128 
" style="fill:none;stroke:#4c72b0;"/>
    <path clip-path="url(#p0f5e6af61d)" d="M 186.150368 252 
L 186.150368 241.128 
" style="fill:none;stroke:#4c72b0;"/>
    <path clip-path="url(#p0f5e6af61d)" d="M 220.30146 252 
L 220.30146 241.128 
" style="fill:none;stroke:#4c72b0;"/>
    <path clip-path="url(#p0f5e6af61d)" d="M 323.316861 252 
L 323.316861 241.128 
" style="fill:none;stroke:#4c72b0;"/>
    <path clip-path="url(#p0f5e6af61d)" d="M 217.064223 252 
L 217.064223 241.128 
" style="fill:none;stroke:#4c72b0;"/>
    <path clip-path="url(#p0f5e6af61d)" d="M 274.436412 252 
L 274.436412 241.128 
" style="fill:none;stroke:#4c72b0;"/>
    <path clip-path="url(#p0f5e6af61d)" d="M 208.910526 252 
L 208.910526 241.128 
" style="fill:none;stroke:#4c72b0;"/>
    <path clip-path="url(#p0f5e6af61d)" d="M 217.973667 252 
L 217.973667 241.128 
" style="fill:none;stroke:#4c72b0;"/>
    <path clip-path="url(#p0f5e6af61d)" d="M 217.169784 252 
L 217.169784 241.128 
" style="fill:none;stroke:#4c72b0;"/>
    <path clip-path="url(#p0f5e6af61d)" d="M 263.347221 252 
L 263.347221 241.128 
" style="fill:none;stroke:#4c72b0;"/>
    <path clip-path="url(#p0f5e6af61d)" d="M 241.728342 252 
L 241.728342 241.128 
" style="fill:none;stroke:#4c72b0;"/>
    <path clip-path="url(#p0f5e6af61d)" d="M 225.531435 252 
L 225.531435 241.128 
" style="fill:none;stroke:#4c72b0;"/>
    <path clip-path="url(#p0f5e6af61d)" d="M 280.913024 252 
L 280.913024 241.128 
" style="fill:none;stroke:#4c72b0;"/>
    <path clip-path="url(#p0f5e6af61d)" d="M 205.808273 252 
L 205.808273 241.128 
" style="fill:none;stroke:#4c72b0;"/>
    <path clip-path="url(#p0f5e6af61d)" d="M 297.484171 252 
L 297.484171 241.128 
" style="fill:none;stroke:#4c72b0;"/>
    <path clip-path="url(#p0f5e6af61d)" d="M 240.074198 252 
L 240.074198 241.128 
" style="fill:none;stroke:#4c72b0;"/>
    <path clip-path="url(#p0f5e6af61d)" d="M 213.99472 252 
L 213.99472 241.128 
" style="fill:none;stroke:#4c72b0;"/>
    <path clip-path="url(#p0f5e6af61d)" d="M 281.162374 252 
L 281.162374 241.128 
" style="fill:none;stroke:#4c72b0;"/>
    <path clip-path="url(#p0f5e6af61d)" d="M 225.187715 252 
L 225.187715 241.128 
" style="fill:none;stroke:#4c72b0;"/>
    <path clip-path="url(#p0f5e6af61d)" d="M 195.93546 252 
L 195.93546 241.128 
" style="fill:none;stroke:#4c72b0;"/>
    <path clip-path="url(#p0f5e6af61d)" d="M 175.064787 252 
L 175.064787 241.128 
" style="fill:none;stroke:#4c72b0;"/>
    <path clip-path="url(#p0f5e6af61d)" d="M 188.521418 252 
L 188.521418 241.128 
" style="fill:none;stroke:#4c72b0;"/>
    <path clip-path="url(#p0f5e6af61d)" d="M 227.171333 252 
L 227.171333 241.128 
" style="fill:none;stroke:#4c72b0;"/>
    <path clip-path="url(#p0f5e6af61d)" d="M 190.39798 252 
L 190.39798 241.128 
" style="fill:none;stroke:#4c72b0;"/>
    <path clip-path="url(#p0f5e6af61d)" d="M 254.121183 252 
L 254.121183 241.128 
" style="fill:none;stroke:#4c72b0;"/>
    <path clip-path="url(#p0f5e6af61d)" d="M 244.842436 252 
L 244.842436 241.128 
" style="fill:none;stroke:#4c72b0;"/>
    <path clip-path="url(#p0f5e6af61d)" d="M 260.324813 252 
L 260.324813 241.128 
" style="fill:none;stroke:#4c72b0;"/>
    <path clip-path="url(#p0f5e6af61d)" d="M 276.861439 252 
L 276.861439 241.128 
" style="fill:none;stroke:#4c72b0;"/>
    <path clip-path="url(#p0f5e6af61d)" d="M 159.779084 252 
L 159.779084 241.128 
" style="fill:none;stroke:#4c72b0;"/>
    <path clip-path="url(#p0f5e6af61d)" d="M 250.66236 252 
L 250.66236 241.128 
" style="fill:none;stroke:#4c72b0;"/>
    <path clip-path="url(#p0f5e6af61d)" d="M 217.006497 252 
L 217.006497 241.128 
" style="fill:none;stroke:#4c72b0;"/>
    <path clip-path="url(#p0f5e6af61d)" d="M 266.923463 252 
L 266.923463 241.128 
" style="fill:none;stroke:#4c72b0;"/>
    <path clip-path="url(#p0f5e6af61d)" d="M 226.377387 252 
L 226.377387 241.128 
" style="fill:none;stroke:#4c72b0;"/>
    <path clip-path="url(#p0f5e6af61d)" d="M 220.87007 252 
L 220.87007 241.128 
" style="fill:none;stroke:#4c72b0;"/>
    <path clip-path="url(#p0f5e6af61d)" d="M 219.523993 252 
L 219.523993 241.128 
" style="fill:none;stroke:#4c72b0;"/>
    <path clip-path="url(#p0f5e6af61d)" d="M 243.725104 252 
L 243.725104 241.128 
" style="fill:none;stroke:#4c72b0;"/>
    <path clip-path="url(#p0f5e6af61d)" d="M 331.633773 252 
L 331.633773 241.128 
" style="fill:none;stroke:#4c72b0;"/>
    <path clip-path="url(#p0f5e6af61d)" d="M 195.432267 252 
L 195.432267 241.128 
" style="fill:none;stroke:#4c72b0;"/>
    <path clip-path="url(#p0f5e6af61d)" d="M 231.596691 252 
L 231.596691 241.128 
" style="fill:none;stroke:#4c72b0;"/>
    <path clip-path="url(#p0f5e6af61d)" d="M 301.870077 252 
L 301.870077 241.128 
" style="fill:none;stroke:#4c72b0;"/>
    <path clip-path="url(#p0f5e6af61d)" d="M 233.181023 252 
L 233.181023 241.128 
" style="fill:none;stroke:#4c72b0;"/>
    <path clip-path="url(#p0f5e6af61d)" d="M 253.422348 252 
L 253.422348 241.128 
" style="fill:none;stroke:#4c72b0;"/>
    <path clip-path="url(#p0f5e6af61d)" d="M 224.467388 252 
L 224.467388 241.128 
" style="fill:none;stroke:#4c72b0;"/>
    <path clip-path="url(#p0f5e6af61d)" d="M 222.160381 252 
L 222.160381 241.128 
" style="fill:none;stroke:#4c72b0;"/>
    <path clip-path="url(#p0f5e6af61d)" d="M 235.432865 252 
L 235.432865 241.128 
" style="fill:none;stroke:#4c72b0;"/>
    <path clip-path="url(#p0f5e6af61d)" d="M 295.373422 252 
L 295.373422 241.128 
" style="fill:none;stroke:#4c72b0;"/>
    <path clip-path="url(#p0f5e6af61d)" d="M 263.576114 252 
L 263.576114 241.128 
" style="fill:none;stroke:#4c72b0;"/>
    <path clip-path="url(#p0f5e6af61d)" d="M 212.280461 252 
L 212.280461 241.128 
" style="fill:none;stroke:#4c72b0;"/>
    <path clip-path="url(#p0f5e6af61d)" d="M 216.056596 252 
L 216.056596 241.128 
" style="fill:none;stroke:#4c72b0;"/>
    <path clip-path="url(#p0f5e6af61d)" d="M 264.262496 252 
L 264.262496 241.128 
" style="fill:none;stroke:#4c72b0;"/>
    <path clip-path="url(#p0f5e6af61d)" d="M 158.766228 252 
L 158.766228 241.128 
" style="fill:none;stroke:#4c72b0;"/>
    <path clip-path="url(#p0f5e6af61d)" d="M 250.791705 252 
L 250.791705 241.128 
" style="fill:none;stroke:#4c72b0;"/>
    <path clip-path="url(#p0f5e6af61d)" d="M 244.306424 252 
L 244.306424 241.128 
" style="fill:none;stroke:#4c72b0;"/>
    <path clip-path="url(#p0f5e6af61d)" d="M 197.751848 252 
L 197.751848 241.128 
" style="fill:none;stroke:#4c72b0;"/>
    <path clip-path="url(#p0f5e6af61d)" d="M 298.182233 252 
L 298.182233 241.128 
" style="fill:none;stroke:#4c72b0;"/>
    <path clip-path="url(#p0f5e6af61d)" d="M 183.07457 252 
L 183.07457 241.128 
" style="fill:none;stroke:#4c72b0;"/>
    <path clip-path="url(#p0f5e6af61d)" d="M 239.047497 252 
L 239.047497 241.128 
" style="fill:none;stroke:#4c72b0;"/>
    <path clip-path="url(#p0f5e6af61d)" d="M 284.085901 252 
L 284.085901 241.128 
" style="fill:none;stroke:#4c72b0;"/>
    <path clip-path="url(#p0f5e6af61d)" d="M 207.916016 252 
L 207.916016 241.128 
" style="fill:none;stroke:#4c72b0;"/>
    <path clip-path="url(#p0f5e6af61d)" d="M 249.170869 252 
L 249.170869 241.128 
" style="fill:none;stroke:#4c72b0;"/>
    <path clip-path="url(#p0f5e6af61d)" d="M 156.636901 252 
L 156.636901 241.128 
" style="fill:none;stroke:#4c72b0;"/>
    <path clip-path="url(#p0f5e6af61d)" d="M 263.348101 252 
L 263.348101 241.128 
" style="fill:none;stroke:#4c72b0;"/>
    <path clip-path="url(#p0f5e6af61d)" d="M 285.839753 252 
L 285.839753 241.128 
" style="fill:none;stroke:#4c72b0;"/>
    <path clip-path="url(#p0f5e6af61d)" d="M 170.58271 252 
L 170.58271 241.128 
" style="fill:none;stroke:#4c72b0;"/>
    <path clip-path="url(#p0f5e6af61d)" d="M 184.224404 252 
L 184.224404 241.128 
" style="fill:none;stroke:#4c72b0;"/>
    <path clip-path="url(#p0f5e6af61d)" d="M 230.936285 252 
L 230.936285 241.128 
" style="fill:none;stroke:#4c72b0;"/>
    <path clip-path="url(#p0f5e6af61d)" d="M 264.432818 252 
L 264.432818 241.128 
" style="fill:none;stroke:#4c72b0;"/>
    <path clip-path="url(#p0f5e6af61d)" d="M 190.195224 252 
L 190.195224 241.128 
" style="fill:none;stroke:#4c72b0;"/>
    <path clip-path="url(#p0f5e6af61d)" d="M 254.242578 252 
L 254.242578 241.128 
" style="fill:none;stroke:#4c72b0;"/>
    <path clip-path="url(#p0f5e6af61d)" d="M 285.794093 252 
L 285.794093 241.128 
" style="fill:none;stroke:#4c72b0;"/>
    <path clip-path="url(#p0f5e6af61d)" d="M 204.386986 252 
L 204.386986 241.128 
" style="fill:none;stroke:#4c72b0;"/>
    <path clip-path="url(#p0f5e6af61d)" d="M 215.336606 252 
L 215.336606 241.128 
" style="fill:none;stroke:#4c72b0;"/>
    <path clip-path="url(#p0f5e6af61d)" d="M 199.971328 252 
L 199.971328 241.128 
" style="fill:none;stroke:#4c72b0;"/>
    <path clip-path="url(#p0f5e6af61d)" d="M 214.905378 252 
L 214.905378 241.128 
" style="fill:none;stroke:#4c72b0;"/>
    <path clip-path="url(#p0f5e6af61d)" d="M 190.011453 252 
L 190.011453 241.128 
" style="fill:none;stroke:#4c72b0;"/>
    <path clip-path="url(#p0f5e6af61d)" d="M 252.541933 252 
L 252.541933 241.128 
" style="fill:none;stroke:#4c72b0;"/>
    <path clip-path="url(#p0f5e6af61d)" d="M 194.055271 252 
L 194.055271 241.128 
" style="fill:none;stroke:#4c72b0;"/>
    <path clip-path="url(#p0f5e6af61d)" d="M 111.166227 252 
L 111.166227 241.128 
" style="fill:none;stroke:#4c72b0;"/>
    <path clip-path="url(#p0f5e6af61d)" d="M 209.964882 252 
L 209.964882 241.128 
" style="fill:none;stroke:#4c72b0;"/>
    <path clip-path="url(#p0f5e6af61d)" d="M 185.526835 252 
L 185.526835 241.128 
" style="fill:none;stroke:#4c72b0;"/>
    <path clip-path="url(#p0f5e6af61d)" d="M 268.428181 252 
L 268.428181 241.128 
" style="fill:none;stroke:#4c72b0;"/>
    <path clip-path="url(#p0f5e6af61d)" d="M 157.894487 252 
L 157.894487 241.128 
" style="fill:none;stroke:#4c72b0;"/>
    <path clip-path="url(#p0f5e6af61d)" d="M 231.83894 252 
L 231.83894 241.128 
" style="fill:none;stroke:#4c72b0;"/>
    <path clip-path="url(#p0f5e6af61d)" d="M 184.917621 252 
L 184.917621 241.128 
" style="fill:none;stroke:#4c72b0;"/>
    <path clip-path="url(#p0f5e6af61d)" d="M 250.643816 252 
L 250.643816 241.128 
" style="fill:none;stroke:#4c72b0;"/>
    <path clip-path="url(#p0f5e6af61d)" d="M 211.322307 252 
L 211.322307 241.128 
" style="fill:none;stroke:#4c72b0;"/>
    <path clip-path="url(#p0f5e6af61d)" d="M 253.278247 252 
L 253.278247 241.128 
" style="fill:none;stroke:#4c72b0;"/>
    <path clip-path="url(#p0f5e6af61d)" d="M 274.832335 252 
L 274.832335 241.128 
" style="fill:none;stroke:#4c72b0;"/>
    <path clip-path="url(#p0f5e6af61d)" d="M 188.602975 252 
L 188.602975 241.128 
" style="fill:none;stroke:#4c72b0;"/>
    <path clip-path="url(#p0f5e6af61d)" d="M 215.446169 252 
L 215.446169 241.128 
" style="fill:none;stroke:#4c72b0;"/>
    <path clip-path="url(#p0f5e6af61d)" d="M 181.451473 252 
L 181.451473 241.128 
" style="fill:none;stroke:#4c72b0;"/>
    <path clip-path="url(#p0f5e6af61d)" d="M 272.265461 252 
L 272.265461 241.128 
" style="fill:none;stroke:#4c72b0;"/>
    <path clip-path="url(#p0f5e6af61d)" d="M 289.033816 252 
L 289.033816 241.128 
" style="fill:none;stroke:#4c72b0;"/>
    <path clip-path="url(#p0f5e6af61d)" d="M 203.300937 252 
L 203.300937 241.128 
" style="fill:none;stroke:#4c72b0;"/>
    <path clip-path="url(#p0f5e6af61d)" d="M 260.767177 252 
L 260.767177 241.128 
" style="fill:none;stroke:#4c72b0;"/>
    <path clip-path="url(#p0f5e6af61d)" d="M 238.381697 252 
L 238.381697 241.128 
" style="fill:none;stroke:#4c72b0;"/>
    <path clip-path="url(#p0f5e6af61d)" d="M 290.181346 252 
L 290.181346 241.128 
" style="fill:none;stroke:#4c72b0;"/>
    <path clip-path="url(#p0f5e6af61d)" d="M 255.531417 252 
L 255.531417 241.128 
" style="fill:none;stroke:#4c72b0;"/>
    <path clip-path="url(#p0f5e6af61d)" d="M 280.13942 252 
L 280.13942 241.128 
" style="fill:none;stroke:#4c72b0;"/>
    <path clip-path="url(#p0f5e6af61d)" d="M 209.181325 252 
L 209.181325 241.128 
" style="fill:none;stroke:#4c72b0;"/>
    <path clip-path="url(#p0f5e6af61d)" d="M 234.118436 252 
L 234.118436 241.128 
" style="fill:none;stroke:#4c72b0;"/>
    <path clip-path="url(#p0f5e6af61d)" d="M 268.39531 252 
L 268.39531 241.128 
" style="fill:none;stroke:#4c72b0;"/>
    <path clip-path="url(#p0f5e6af61d)" d="M 152.520163 252 
L 152.520163 241.128 
" style="fill:none;stroke:#4c72b0;"/>
    <path clip-path="url(#p0f5e6af61d)" d="M 302.199025 252 
L 302.199025 241.128 
" style="fill:none;stroke:#4c72b0;"/>
    <path clip-path="url(#p0f5e6af61d)" d="M 185.267628 252 
L 185.267628 241.128 
" style="fill:none;stroke:#4c72b0;"/>
    <path clip-path="url(#p0f5e6af61d)" d="M 261.974752 252 
L 261.974752 241.128 
" style="fill:none;stroke:#4c72b0;"/>
    <path clip-path="url(#p0f5e6af61d)" d="M 243.076891 252 
L 243.076891 241.128 
" style="fill:none;stroke:#4c72b0;"/>
    <path clip-path="url(#p0f5e6af61d)" d="M 237.337155 252 
L 237.337155 241.128 
" style="fill:none;stroke:#4c72b0;"/>
    <path clip-path="url(#p0f5e6af61d)" d="M 278.375517 252 
L 278.375517 241.128 
" style="fill:none;stroke:#4c72b0;"/>
    <path clip-path="url(#p0f5e6af61d)" d="M 191.653556 252 
L 191.653556 241.128 
" style="fill:none;stroke:#4c72b0;"/>
    <path clip-path="url(#p0f5e6af61d)" d="M 291.830664 252 
L 291.830664 241.128 
" style="fill:none;stroke:#4c72b0;"/>
    <path clip-path="url(#p0f5e6af61d)" d="M 237.068477 252 
L 237.068477 241.128 
" style="fill:none;stroke:#4c72b0;"/>
    <path clip-path="url(#p0f5e6af61d)" d="M 238.306149 252 
L 238.306149 241.128 
" style="fill:none;stroke:#4c72b0;"/>
    <path clip-path="url(#p0f5e6af61d)" d="M 220.365182 252 
L 220.365182 241.128 
" style="fill:none;stroke:#4c72b0;"/>
    <path clip-path="url(#p0f5e6af61d)" d="M 306.61117 252 
L 306.61117 241.128 
" style="fill:none;stroke:#4c72b0;"/>
    <path clip-path="url(#p0f5e6af61d)" d="M 240.483203 252 
L 240.483203 241.128 
" style="fill:none;stroke:#4c72b0;"/>
    <path clip-path="url(#p0f5e6af61d)" d="M 209.314737 252 
L 209.314737 241.128 
" style="fill:none;stroke:#4c72b0;"/>
    <path clip-path="url(#p0f5e6af61d)" d="M 275.259305 252 
L 275.259305 241.128 
" style="fill:none;stroke:#4c72b0;"/>
    <path clip-path="url(#p0f5e6af61d)" d="M 320.430724 252 
L 320.430724 241.128 
" style="fill:none;stroke:#4c72b0;"/>
    <path clip-path="url(#p0f5e6af61d)" d="M 196.05138 252 
L 196.05138 241.128 
" style="fill:none;stroke:#4c72b0;"/>
    <path clip-path="url(#p0f5e6af61d)" d="M 223.569397 252 
L 223.569397 241.128 
" style="fill:none;stroke:#4c72b0;"/>
   </g>
   <g id="line2d_9">
    <path clip-path="url(#p0f5e6af61d)" d="M 69.218182 251.928493 
L 76.407874 251.86339 
L 83.597566 251.595138 
L 88.390694 251.251489 
L 95.580387 250.45837 
L 112.356335 248.284581 
L 121.942591 247.30391 
L 126.735719 246.556024 
L 129.132283 246.014755 
L 131.528848 245.316324 
L 133.925412 244.42711 
L 136.321976 243.316742 
L 138.71854 241.960678 
L 141.115104 240.342517 
L 143.511668 238.455379 
L 145.908232 236.30175 
L 148.304796 233.891407 
L 150.70136 231.237532 
L 153.097924 228.351634 
L 155.494488 225.238407 
L 157.891052 221.891888 
L 160.287616 218.294173 
L 162.68418 214.417418 
L 165.080744 210.229078 
L 167.477309 205.699397 
L 169.873873 200.809428 
L 172.270437 195.557503 
L 174.667001 189.962283 
L 179.460129 177.905036 
L 184.253257 165.038687 
L 191.442949 144.863157 
L 198.632641 123.792804 
L 205.822334 102.470642 
L 208.218898 95.707135 
L 210.615462 89.332744 
L 213.012026 83.482585 
L 215.40859 78.276661 
L 217.805154 73.810044 
L 220.201718 70.147501 
L 222.598282 67.322644 
L 224.994846 65.340677 
L 227.39141 64.183192 
L 229.787974 63.813488 
L 232.184538 64.181356 
L 234.581102 65.22697 
L 236.977666 66.884174 
L 239.37423 69.083797 
L 241.770795 71.757561 
L 244.167359 74.842704 
L 246.563923 78.286856 
L 248.960487 82.052188 
L 251.357051 86.11767 
L 253.753615 90.478486 
L 256.150179 95.142248 
L 258.546743 100.122461 
L 260.943307 105.430434 
L 263.339871 111.067294 
L 268.132999 123.247196 
L 272.926127 136.312741 
L 282.512384 162.779855 
L 287.305512 175.120835 
L 292.09864 186.455127 
L 294.495204 191.704056 
L 296.891768 196.660808 
L 299.288332 201.316232 
L 301.684896 205.660964 
L 304.08146 209.686472 
L 306.478024 213.387365 
L 308.874588 216.764352 
L 311.271152 219.827038 
L 313.667717 222.595733 
L 316.064281 225.101604 
L 318.460845 227.384872 
L 323.253973 231.466608 
L 328.047101 235.180559 
L 335.236793 240.437038 
L 340.029921 243.652965 
L 342.426485 245.105038 
L 344.823049 246.420607 
L 347.219613 247.582082 
L 349.616178 248.58005 
L 352.012742 249.413851 
L 354.409306 250.090867 
L 356.80587 250.624878 
L 361.598998 251.338011 
L 366.392126 251.710055 
L 373.581818 251.913749 
L 373.581818 251.913749 
" style="fill:none;stroke:#4c72b0;stroke-linecap:round;stroke-width:1.5;"/>
   </g>
   <g id="patch_16">
    <path d="M 54 252 
L 54 34.56 
" style="fill:none;stroke:#cccccc;stroke-linecap:square;stroke-linejoin:miter;stroke-width:1.25;"/>
   </g>
   <g id="patch_17">
    <path d="M 388.8 252 
L 388.8 34.56 
" style="fill:none;stroke:#cccccc;stroke-linecap:square;stroke-linejoin:miter;stroke-width:1.25;"/>
   </g>
   <g id="patch_18">
    <path d="M 54 252 
L 388.8 252 
" style="fill:none;stroke:#cccccc;stroke-linecap:square;stroke-linejoin:miter;stroke-width:1.25;"/>
   </g>
   <g id="patch_19">
    <path d="M 54 34.56 
L 388.8 34.56 
" style="fill:none;stroke:#cccccc;stroke-linecap:square;stroke-linejoin:miter;stroke-width:1.25;"/>
   </g>
  </g>
 </g>
 <defs>
  <clipPath id="p0f5e6af61d">
   <rect height="217.44" width="334.8" x="54" y="34.56"/>
  </clipPath>
 </defs>
</svg>
