<?xml version="1.0" encoding="utf-8" standalone="no"?>
<!DOCTYPE svg PUBLIC "-//W3C//DTD SVG 1.1//EN"
  "http://www.w3.org/Graphics/SVG/1.1/DTD/svg11.dtd">
<!-- Created with matplotlib (https://matplotlib.org/) -->
<svg height="576pt" version="1.1" viewBox="0 0 864 576" width="864pt" xmlns="http://www.w3.org/2000/svg" xmlns:xlink="http://www.w3.org/1999/xlink">
 <defs>
  <style type="text/css">
*{stroke-linecap:butt;stroke-linejoin:round;}
  </style>
 </defs>
 <g id="figure_1">
  <g id="patch_1">
   <path d="M 0 576 
L 864 576 
L 864 0 
L 0 0 
z
" style="fill:#ffffff;"/>
  </g>
  <g id="axes_1">
   <g id="patch_2">
    <path d="M 72.425 508.7 
L 429.912458 508.7 
L 429.912458 34.8 
L 72.425 34.8 
z
" style="fill:#ffffff;"/>
   </g>
   <g id="matplotlib.axis_1">
    <g id="xtick_1">
     <g id="line2d_1">
      <path clip-path="url(#p948c466204)" d="M 73.881166 508.7 
L 73.881166 34.8 
" style="fill:none;stroke:#cccccc;stroke-linecap:round;"/>
     </g>
     <g id="text_1">
      <!-- 0.00 -->
      <defs>
       <path d="M 4.15625 35.296875 
Q 4.15625 48 6.765625 55.734375 
Q 9.375 63.484375 14.515625 67.671875 
Q 19.671875 71.875 27.484375 71.875 
Q 33.25 71.875 37.59375 69.546875 
Q 41.9375 67.234375 44.765625 62.859375 
Q 47.609375 58.5 49.21875 52.21875 
Q 50.828125 45.953125 50.828125 35.296875 
Q 50.828125 22.703125 48.234375 14.96875 
Q 45.65625 7.234375 40.5 3 
Q 35.359375 -1.21875 27.484375 -1.21875 
Q 17.140625 -1.21875 11.234375 6.203125 
Q 4.15625 15.140625 4.15625 35.296875 
z
M 13.1875 35.296875 
Q 13.1875 17.671875 17.3125 11.828125 
Q 21.4375 6 27.484375 6 
Q 33.546875 6 37.671875 11.859375 
Q 41.796875 17.71875 41.796875 35.296875 
Q 41.796875 52.984375 37.671875 58.78125 
Q 33.546875 64.59375 27.390625 64.59375 
Q 21.34375 64.59375 17.71875 59.46875 
Q 13.1875 52.9375 13.1875 35.296875 
z
" id="ArialMT-48"/>
       <path d="M 9.078125 0 
L 9.078125 10.015625 
L 19.09375 10.015625 
L 19.09375 0 
z
" id="ArialMT-46"/>
      </defs>
      <g style="fill:#262626;" transform="translate(52.474135 533.947187)scale(0.22 -0.22)">
       <use xlink:href="#ArialMT-48"/>
       <use x="55.615234" xlink:href="#ArialMT-46"/>
       <use x="83.398438" xlink:href="#ArialMT-48"/>
       <use x="139.013672" xlink:href="#ArialMT-48"/>
      </g>
     </g>
    </g>
    <g id="xtick_2">
     <g id="line2d_2">
      <path clip-path="url(#p948c466204)" d="M 162.521957 508.7 
L 162.521957 34.8 
" style="fill:none;stroke:#cccccc;stroke-linecap:round;"/>
     </g>
     <g id="text_2">
      <!-- 0.25 -->
      <defs>
       <path d="M 50.34375 8.453125 
L 50.34375 0 
L 3.03125 0 
Q 2.9375 3.171875 4.046875 6.109375 
Q 5.859375 10.9375 9.828125 15.625 
Q 13.8125 20.3125 21.34375 26.46875 
Q 33.015625 36.03125 37.109375 41.625 
Q 41.21875 47.21875 41.21875 52.203125 
Q 41.21875 57.421875 37.46875 61 
Q 33.734375 64.59375 27.734375 64.59375 
Q 21.390625 64.59375 17.578125 60.78125 
Q 13.765625 56.984375 13.71875 50.25 
L 4.6875 51.171875 
Q 5.609375 61.28125 11.65625 66.578125 
Q 17.71875 71.875 27.9375 71.875 
Q 38.234375 71.875 44.234375 66.15625 
Q 50.25 60.453125 50.25 52 
Q 50.25 47.703125 48.484375 43.546875 
Q 46.734375 39.40625 42.65625 34.8125 
Q 38.578125 30.21875 29.109375 22.21875 
Q 21.1875 15.578125 18.9375 13.203125 
Q 16.703125 10.84375 15.234375 8.453125 
z
" id="ArialMT-50"/>
       <path d="M 4.15625 18.75 
L 13.375 19.53125 
Q 14.40625 12.796875 18.140625 9.390625 
Q 21.875 6 27.15625 6 
Q 33.5 6 37.890625 10.78125 
Q 42.28125 15.578125 42.28125 23.484375 
Q 42.28125 31 38.0625 35.34375 
Q 33.84375 39.703125 27 39.703125 
Q 22.75 39.703125 19.328125 37.765625 
Q 15.921875 35.84375 13.96875 32.765625 
L 5.71875 33.84375 
L 12.640625 70.609375 
L 48.25 70.609375 
L 48.25 62.203125 
L 19.671875 62.203125 
L 15.828125 42.96875 
Q 22.265625 47.46875 29.34375 47.46875 
Q 38.71875 47.46875 45.15625 40.96875 
Q 51.609375 34.46875 51.609375 24.265625 
Q 51.609375 14.546875 45.953125 7.46875 
Q 39.0625 -1.21875 27.15625 -1.21875 
Q 17.390625 -1.21875 11.203125 4.25 
Q 5.03125 9.71875 4.15625 18.75 
z
" id="ArialMT-53"/>
      </defs>
      <g style="fill:#262626;" transform="translate(141.114926 533.947187)scale(0.22 -0.22)">
       <use xlink:href="#ArialMT-48"/>
       <use x="55.615234" xlink:href="#ArialMT-46"/>
       <use x="83.398438" xlink:href="#ArialMT-50"/>
       <use x="139.013672" xlink:href="#ArialMT-53"/>
      </g>
     </g>
    </g>
    <g id="xtick_3">
     <g id="line2d_3">
      <path clip-path="url(#p948c466204)" d="M 251.162749 508.7 
L 251.162749 34.8 
" style="fill:none;stroke:#cccccc;stroke-linecap:round;"/>
     </g>
     <g id="text_3">
      <!-- 0.50 -->
      <g style="fill:#262626;" transform="translate(229.755717 533.947187)scale(0.22 -0.22)">
       <use xlink:href="#ArialMT-48"/>
       <use x="55.615234" xlink:href="#ArialMT-46"/>
       <use x="83.398438" xlink:href="#ArialMT-53"/>
       <use x="139.013672" xlink:href="#ArialMT-48"/>
      </g>
     </g>
    </g>
    <g id="xtick_4">
     <g id="line2d_4">
      <path clip-path="url(#p948c466204)" d="M 339.80354 508.7 
L 339.80354 34.8 
" style="fill:none;stroke:#cccccc;stroke-linecap:round;"/>
     </g>
     <g id="text_4">
      <!-- 0.75 -->
      <defs>
       <path d="M 4.734375 62.203125 
L 4.734375 70.65625 
L 51.078125 70.65625 
L 51.078125 63.8125 
Q 44.234375 56.546875 37.515625 44.484375 
Q 30.8125 32.421875 27.15625 19.671875 
Q 24.515625 10.6875 23.78125 0 
L 14.75 0 
Q 14.890625 8.453125 18.0625 20.40625 
Q 21.234375 32.375 27.171875 43.484375 
Q 33.109375 54.59375 39.796875 62.203125 
z
" id="ArialMT-55"/>
      </defs>
      <g style="fill:#262626;" transform="translate(318.396509 533.947187)scale(0.22 -0.22)">
       <use xlink:href="#ArialMT-48"/>
       <use x="55.615234" xlink:href="#ArialMT-46"/>
       <use x="83.398438" xlink:href="#ArialMT-55"/>
       <use x="139.013672" xlink:href="#ArialMT-53"/>
      </g>
     </g>
    </g>
    <g id="xtick_5">
     <g id="line2d_5">
      <path clip-path="url(#p948c466204)" d="M 428.444332 508.7 
L 428.444332 34.8 
" style="fill:none;stroke:#cccccc;stroke-linecap:round;"/>
     </g>
     <g id="text_5">
      <!-- 1.00 -->
      <defs>
       <path d="M 37.25 0 
L 28.46875 0 
L 28.46875 56 
Q 25.296875 52.984375 20.140625 49.953125 
Q 14.984375 46.921875 10.890625 45.40625 
L 10.890625 53.90625 
Q 18.265625 57.375 23.78125 62.296875 
Q 29.296875 67.234375 31.59375 71.875 
L 37.25 71.875 
z
" id="ArialMT-49"/>
      </defs>
      <g style="fill:#262626;" transform="translate(407.0373 533.947187)scale(0.22 -0.22)">
       <use xlink:href="#ArialMT-49"/>
       <use x="55.615234" xlink:href="#ArialMT-46"/>
       <use x="83.398438" xlink:href="#ArialMT-48"/>
       <use x="139.013672" xlink:href="#ArialMT-48"/>
      </g>
     </g>
    </g>
    <g id="text_6">
     <!-- Simulation Result -->
     <defs>
      <path d="M 4.5 23 
L 13.421875 23.78125 
Q 14.0625 18.40625 16.375 14.96875 
Q 18.703125 11.53125 23.578125 9.40625 
Q 28.46875 7.28125 34.578125 7.28125 
Q 39.984375 7.28125 44.140625 8.890625 
Q 48.296875 10.5 50.3125 13.296875 
Q 52.34375 16.109375 52.34375 19.4375 
Q 52.34375 22.796875 50.390625 25.3125 
Q 48.4375 27.828125 43.953125 29.546875 
Q 41.0625 30.671875 31.203125 33.03125 
Q 21.34375 35.40625 17.390625 37.5 
Q 12.25 40.1875 9.734375 44.15625 
Q 7.234375 48.140625 7.234375 53.078125 
Q 7.234375 58.5 10.296875 63.203125 
Q 13.375 67.921875 19.28125 70.359375 
Q 25.203125 72.796875 32.421875 72.796875 
Q 40.375 72.796875 46.453125 70.234375 
Q 52.546875 67.671875 55.8125 62.6875 
Q 59.078125 57.71875 59.328125 51.421875 
L 50.25 50.734375 
Q 49.515625 57.515625 45.28125 60.984375 
Q 41.0625 64.453125 32.8125 64.453125 
Q 24.21875 64.453125 20.28125 61.296875 
Q 16.359375 58.15625 16.359375 53.71875 
Q 16.359375 49.859375 19.140625 47.359375 
Q 21.875 44.875 33.421875 42.265625 
Q 44.96875 39.65625 49.265625 37.703125 
Q 55.515625 34.8125 58.484375 30.390625 
Q 61.46875 25.984375 61.46875 20.21875 
Q 61.46875 14.5 58.203125 9.4375 
Q 54.9375 4.390625 48.796875 1.578125 
Q 42.671875 -1.21875 35.015625 -1.21875 
Q 25.296875 -1.21875 18.71875 1.609375 
Q 12.15625 4.4375 8.421875 10.125 
Q 4.6875 15.828125 4.5 23 
z
" id="ArialMT-83"/>
      <path d="M 6.640625 61.46875 
L 6.640625 71.578125 
L 15.4375 71.578125 
L 15.4375 61.46875 
z
M 6.640625 0 
L 6.640625 51.859375 
L 15.4375 51.859375 
L 15.4375 0 
z
" id="ArialMT-105"/>
      <path d="M 6.59375 0 
L 6.59375 51.859375 
L 14.453125 51.859375 
L 14.453125 44.578125 
Q 16.890625 48.390625 20.9375 50.703125 
Q 25 53.03125 30.171875 53.03125 
Q 35.9375 53.03125 39.625 50.640625 
Q 43.3125 48.25 44.828125 43.953125 
Q 50.984375 53.03125 60.84375 53.03125 
Q 68.5625 53.03125 72.703125 48.75 
Q 76.859375 44.484375 76.859375 35.59375 
L 76.859375 0 
L 68.109375 0 
L 68.109375 32.671875 
Q 68.109375 37.9375 67.25 40.25 
Q 66.40625 42.578125 64.15625 43.984375 
Q 61.921875 45.40625 58.890625 45.40625 
Q 53.421875 45.40625 49.796875 41.765625 
Q 46.1875 38.140625 46.1875 30.125 
L 46.1875 0 
L 37.40625 0 
L 37.40625 33.6875 
Q 37.40625 39.546875 35.25 42.46875 
Q 33.109375 45.40625 28.21875 45.40625 
Q 24.515625 45.40625 21.359375 43.453125 
Q 18.21875 41.5 16.796875 37.734375 
Q 15.375 33.984375 15.375 26.90625 
L 15.375 0 
z
" id="ArialMT-109"/>
      <path d="M 40.578125 0 
L 40.578125 7.625 
Q 34.515625 -1.171875 24.125 -1.171875 
Q 19.53125 -1.171875 15.546875 0.578125 
Q 11.578125 2.34375 9.640625 5 
Q 7.71875 7.671875 6.9375 11.53125 
Q 6.390625 14.109375 6.390625 19.734375 
L 6.390625 51.859375 
L 15.1875 51.859375 
L 15.1875 23.09375 
Q 15.1875 16.21875 15.71875 13.8125 
Q 16.546875 10.359375 19.234375 8.375 
Q 21.921875 6.390625 25.875 6.390625 
Q 29.828125 6.390625 33.296875 8.421875 
Q 36.765625 10.453125 38.203125 13.9375 
Q 39.65625 17.4375 39.65625 24.078125 
L 39.65625 51.859375 
L 48.4375 51.859375 
L 48.4375 0 
z
" id="ArialMT-117"/>
      <path d="M 6.390625 0 
L 6.390625 71.578125 
L 15.1875 71.578125 
L 15.1875 0 
z
" id="ArialMT-108"/>
      <path d="M 40.4375 6.390625 
Q 35.546875 2.25 31.03125 0.53125 
Q 26.515625 -1.171875 21.34375 -1.171875 
Q 12.796875 -1.171875 8.203125 3 
Q 3.609375 7.171875 3.609375 13.671875 
Q 3.609375 17.484375 5.34375 20.625 
Q 7.078125 23.78125 9.890625 25.6875 
Q 12.703125 27.59375 16.21875 28.5625 
Q 18.796875 29.25 24.03125 29.890625 
Q 34.671875 31.15625 39.703125 32.90625 
Q 39.75 34.71875 39.75 35.203125 
Q 39.75 40.578125 37.25 42.78125 
Q 33.890625 45.75 27.25 45.75 
Q 21.046875 45.75 18.09375 43.578125 
Q 15.140625 41.40625 13.71875 35.890625 
L 5.125 37.0625 
Q 6.296875 42.578125 8.984375 45.96875 
Q 11.671875 49.359375 16.75 51.1875 
Q 21.828125 53.03125 28.515625 53.03125 
Q 35.15625 53.03125 39.296875 51.46875 
Q 43.453125 49.90625 45.40625 47.53125 
Q 47.359375 45.171875 48.140625 41.546875 
Q 48.578125 39.3125 48.578125 33.453125 
L 48.578125 21.734375 
Q 48.578125 9.46875 49.140625 6.21875 
Q 49.703125 2.984375 51.375 0 
L 42.1875 0 
Q 40.828125 2.734375 40.4375 6.390625 
z
M 39.703125 26.03125 
Q 34.90625 24.078125 25.34375 22.703125 
Q 19.921875 21.921875 17.671875 20.9375 
Q 15.4375 19.96875 14.203125 18.09375 
Q 12.984375 16.21875 12.984375 13.921875 
Q 12.984375 10.40625 15.640625 8.0625 
Q 18.3125 5.71875 23.4375 5.71875 
Q 28.515625 5.71875 32.46875 7.9375 
Q 36.421875 10.15625 38.28125 14.015625 
Q 39.703125 17 39.703125 22.796875 
z
" id="ArialMT-97"/>
      <path d="M 25.78125 7.859375 
L 27.046875 0.09375 
Q 23.34375 -0.6875 20.40625 -0.6875 
Q 15.625 -0.6875 12.984375 0.828125 
Q 10.359375 2.34375 9.28125 4.8125 
Q 8.203125 7.28125 8.203125 15.1875 
L 8.203125 45.015625 
L 1.765625 45.015625 
L 1.765625 51.859375 
L 8.203125 51.859375 
L 8.203125 64.703125 
L 16.9375 69.96875 
L 16.9375 51.859375 
L 25.78125 51.859375 
L 25.78125 45.015625 
L 16.9375 45.015625 
L 16.9375 14.703125 
Q 16.9375 10.9375 17.40625 9.859375 
Q 17.875 8.796875 18.921875 8.15625 
Q 19.96875 7.515625 21.921875 7.515625 
Q 23.390625 7.515625 25.78125 7.859375 
z
" id="ArialMT-116"/>
      <path d="M 3.328125 25.921875 
Q 3.328125 40.328125 11.328125 47.265625 
Q 18.015625 53.03125 27.640625 53.03125 
Q 38.328125 53.03125 45.109375 46.015625 
Q 51.90625 39.015625 51.90625 26.65625 
Q 51.90625 16.65625 48.90625 10.90625 
Q 45.90625 5.171875 40.15625 2 
Q 34.421875 -1.171875 27.640625 -1.171875 
Q 16.75 -1.171875 10.03125 5.8125 
Q 3.328125 12.796875 3.328125 25.921875 
z
M 12.359375 25.921875 
Q 12.359375 15.96875 16.703125 11.015625 
Q 21.046875 6.0625 27.640625 6.0625 
Q 34.1875 6.0625 38.53125 11.03125 
Q 42.875 16.015625 42.875 26.21875 
Q 42.875 35.84375 38.5 40.796875 
Q 34.125 45.75 27.640625 45.75 
Q 21.046875 45.75 16.703125 40.8125 
Q 12.359375 35.890625 12.359375 25.921875 
z
" id="ArialMT-111"/>
      <path d="M 6.59375 0 
L 6.59375 51.859375 
L 14.5 51.859375 
L 14.5 44.484375 
Q 20.21875 53.03125 31 53.03125 
Q 35.6875 53.03125 39.625 51.34375 
Q 43.5625 49.65625 45.515625 46.921875 
Q 47.46875 44.1875 48.25 40.4375 
Q 48.734375 37.984375 48.734375 31.890625 
L 48.734375 0 
L 39.9375 0 
L 39.9375 31.546875 
Q 39.9375 36.921875 38.90625 39.578125 
Q 37.890625 42.234375 35.28125 43.8125 
Q 32.671875 45.40625 29.15625 45.40625 
Q 23.53125 45.40625 19.453125 41.84375 
Q 15.375 38.28125 15.375 28.328125 
L 15.375 0 
z
" id="ArialMT-110"/>
      <path id="ArialMT-32"/>
      <path d="M 7.859375 0 
L 7.859375 71.578125 
L 39.59375 71.578125 
Q 49.171875 71.578125 54.140625 69.640625 
Q 59.125 67.71875 62.109375 62.828125 
Q 65.09375 57.953125 65.09375 52.046875 
Q 65.09375 44.4375 60.15625 39.203125 
Q 55.21875 33.984375 44.921875 32.5625 
Q 48.6875 30.765625 50.640625 29 
Q 54.78125 25.203125 58.5 19.484375 
L 70.953125 0 
L 59.03125 0 
L 49.5625 14.890625 
Q 45.40625 21.34375 42.71875 24.75 
Q 40.046875 28.171875 37.921875 29.53125 
Q 35.796875 30.90625 33.59375 31.453125 
Q 31.984375 31.78125 28.328125 31.78125 
L 17.328125 31.78125 
L 17.328125 0 
z
M 17.328125 39.984375 
L 37.703125 39.984375 
Q 44.1875 39.984375 47.84375 41.328125 
Q 51.515625 42.671875 53.421875 45.625 
Q 55.328125 48.578125 55.328125 52.046875 
Q 55.328125 57.125 51.640625 60.390625 
Q 47.953125 63.671875 39.984375 63.671875 
L 17.328125 63.671875 
z
" id="ArialMT-82"/>
      <path d="M 42.09375 16.703125 
L 51.171875 15.578125 
Q 49.03125 7.625 43.21875 3.21875 
Q 37.40625 -1.171875 28.375 -1.171875 
Q 17 -1.171875 10.328125 5.828125 
Q 3.65625 12.84375 3.65625 25.484375 
Q 3.65625 38.578125 10.390625 45.796875 
Q 17.140625 53.03125 27.875 53.03125 
Q 38.28125 53.03125 44.875 45.953125 
Q 51.46875 38.875 51.46875 26.03125 
Q 51.46875 25.25 51.421875 23.6875 
L 12.75 23.6875 
Q 13.234375 15.140625 17.578125 10.59375 
Q 21.921875 6.0625 28.421875 6.0625 
Q 33.25 6.0625 36.671875 8.59375 
Q 40.09375 11.140625 42.09375 16.703125 
z
M 13.234375 30.90625 
L 42.1875 30.90625 
Q 41.609375 37.453125 38.875 40.71875 
Q 34.671875 45.796875 27.984375 45.796875 
Q 21.921875 45.796875 17.796875 41.75 
Q 13.671875 37.703125 13.234375 30.90625 
z
" id="ArialMT-101"/>
      <path d="M 3.078125 15.484375 
L 11.765625 16.84375 
Q 12.5 11.625 15.84375 8.84375 
Q 19.1875 6.0625 25.203125 6.0625 
Q 31.25 6.0625 34.171875 8.515625 
Q 37.109375 10.984375 37.109375 14.3125 
Q 37.109375 17.28125 34.515625 19 
Q 32.71875 20.171875 25.53125 21.96875 
Q 15.875 24.421875 12.140625 26.203125 
Q 8.40625 27.984375 6.46875 31.125 
Q 4.546875 34.28125 4.546875 38.09375 
Q 4.546875 41.546875 6.125 44.5 
Q 7.71875 47.46875 10.453125 49.421875 
Q 12.5 50.921875 16.03125 51.96875 
Q 19.578125 53.03125 23.640625 53.03125 
Q 29.734375 53.03125 34.34375 51.265625 
Q 38.96875 49.515625 41.15625 46.5 
Q 43.359375 43.5 44.1875 38.484375 
L 35.59375 37.3125 
Q 35.015625 41.3125 32.203125 43.546875 
Q 29.390625 45.796875 24.265625 45.796875 
Q 18.21875 45.796875 15.625 43.796875 
Q 13.03125 41.796875 13.03125 39.109375 
Q 13.03125 37.40625 14.109375 36.03125 
Q 15.1875 34.625 17.484375 33.6875 
Q 18.796875 33.203125 25.25 31.453125 
Q 34.578125 28.953125 38.25 27.359375 
Q 41.9375 25.78125 44.03125 22.75 
Q 46.140625 19.734375 46.140625 15.234375 
Q 46.140625 10.84375 43.578125 6.953125 
Q 41.015625 3.078125 36.171875 0.953125 
Q 31.34375 -1.171875 25.25 -1.171875 
Q 15.140625 -1.171875 9.84375 3.03125 
Q 4.546875 7.234375 3.078125 15.484375 
z
" id="ArialMT-115"/>
     </defs>
     <g style="fill:#262626;" transform="translate(157.797479 559.498437)scale(0.24 -0.24)">
      <use xlink:href="#ArialMT-83"/>
      <use x="66.699219" xlink:href="#ArialMT-105"/>
      <use x="88.916016" xlink:href="#ArialMT-109"/>
      <use x="172.216797" xlink:href="#ArialMT-117"/>
      <use x="227.832031" xlink:href="#ArialMT-108"/>
      <use x="250.048828" xlink:href="#ArialMT-97"/>
      <use x="305.664062" xlink:href="#ArialMT-116"/>
      <use x="333.447266" xlink:href="#ArialMT-105"/>
      <use x="355.664062" xlink:href="#ArialMT-111"/>
      <use x="411.279297" xlink:href="#ArialMT-110"/>
      <use x="466.894531" xlink:href="#ArialMT-32"/>
      <use x="494.677734" xlink:href="#ArialMT-82"/>
      <use x="566.894531" xlink:href="#ArialMT-101"/>
      <use x="622.509766" xlink:href="#ArialMT-115"/>
      <use x="672.509766" xlink:href="#ArialMT-117"/>
      <use x="728.125" xlink:href="#ArialMT-108"/>
      <use x="750.341797" xlink:href="#ArialMT-116"/>
     </g>
    </g>
   </g>
   <g id="matplotlib.axis_2">
    <g id="ytick_1">
     <g id="line2d_6">
      <path clip-path="url(#p948c466204)" d="M 72.425 502.288352 
L 429.912458 502.288352 
" style="fill:none;stroke:#cccccc;stroke-linecap:round;"/>
     </g>
     <g id="text_7">
      <!-- −5 -->
      <defs>
       <path d="M 52.828125 31.203125 
L 5.5625 31.203125 
L 5.5625 39.40625 
L 52.828125 39.40625 
z
" id="ArialMT-8722"/>
      </defs>
      <g style="fill:#262626;" transform="translate(37.841562 510.161946)scale(0.22 -0.22)">
       <use xlink:href="#ArialMT-8722"/>
       <use x="58.398438" xlink:href="#ArialMT-53"/>
      </g>
     </g>
    </g>
    <g id="ytick_2">
     <g id="line2d_7">
      <path clip-path="url(#p948c466204)" d="M 72.425 446.544922 
L 429.912458 446.544922 
" style="fill:none;stroke:#cccccc;stroke-linecap:round;"/>
     </g>
     <g id="text_8">
      <!-- −4 -->
      <defs>
       <path d="M 32.328125 0 
L 32.328125 17.140625 
L 1.265625 17.140625 
L 1.265625 25.203125 
L 33.9375 71.578125 
L 41.109375 71.578125 
L 41.109375 25.203125 
L 50.78125 25.203125 
L 50.78125 17.140625 
L 41.109375 17.140625 
L 41.109375 0 
z
M 32.328125 25.203125 
L 32.328125 57.46875 
L 9.90625 25.203125 
z
" id="ArialMT-52"/>
      </defs>
      <g style="fill:#262626;" transform="translate(37.841562 454.418516)scale(0.22 -0.22)">
       <use xlink:href="#ArialMT-8722"/>
       <use x="58.398438" xlink:href="#ArialMT-52"/>
      </g>
     </g>
    </g>
    <g id="ytick_3">
     <g id="line2d_8">
      <path clip-path="url(#p948c466204)" d="M 72.425 390.801491 
L 429.912458 390.801491 
" style="fill:none;stroke:#cccccc;stroke-linecap:round;"/>
     </g>
     <g id="text_9">
      <!-- −3 -->
      <defs>
       <path d="M 4.203125 18.890625 
L 12.984375 20.0625 
Q 14.5 12.59375 18.140625 9.296875 
Q 21.78125 6 27 6 
Q 33.203125 6 37.46875 10.296875 
Q 41.75 14.59375 41.75 20.953125 
Q 41.75 27 37.796875 30.921875 
Q 33.84375 34.859375 27.734375 34.859375 
Q 25.25 34.859375 21.53125 33.890625 
L 22.515625 41.609375 
Q 23.390625 41.5 23.921875 41.5 
Q 29.546875 41.5 34.03125 44.421875 
Q 38.53125 47.359375 38.53125 53.46875 
Q 38.53125 58.296875 35.25 61.46875 
Q 31.984375 64.65625 26.8125 64.65625 
Q 21.6875 64.65625 18.265625 61.421875 
Q 14.84375 58.203125 13.875 51.765625 
L 5.078125 53.328125 
Q 6.6875 62.15625 12.390625 67.015625 
Q 18.109375 71.875 26.609375 71.875 
Q 32.46875 71.875 37.390625 69.359375 
Q 42.328125 66.84375 44.9375 62.5 
Q 47.5625 58.15625 47.5625 53.265625 
Q 47.5625 48.640625 45.0625 44.828125 
Q 42.578125 41.015625 37.703125 38.765625 
Q 44.046875 37.3125 47.5625 32.6875 
Q 51.078125 28.078125 51.078125 21.140625 
Q 51.078125 11.765625 44.234375 5.25 
Q 37.40625 -1.265625 26.953125 -1.265625 
Q 17.53125 -1.265625 11.296875 4.34375 
Q 5.078125 9.96875 4.203125 18.890625 
z
" id="ArialMT-51"/>
      </defs>
      <g style="fill:#262626;" transform="translate(37.841562 398.675085)scale(0.22 -0.22)">
       <use xlink:href="#ArialMT-8722"/>
       <use x="58.398438" xlink:href="#ArialMT-51"/>
      </g>
     </g>
    </g>
    <g id="ytick_4">
     <g id="line2d_9">
      <path clip-path="url(#p948c466204)" d="M 72.425 335.058061 
L 429.912458 335.058061 
" style="fill:none;stroke:#cccccc;stroke-linecap:round;"/>
     </g>
     <g id="text_10">
      <!-- −2 -->
      <g style="fill:#262626;" transform="translate(37.841562 342.931655)scale(0.22 -0.22)">
       <use xlink:href="#ArialMT-8722"/>
       <use x="58.398438" xlink:href="#ArialMT-50"/>
      </g>
     </g>
    </g>
    <g id="ytick_5">
     <g id="line2d_10">
      <path clip-path="url(#p948c466204)" d="M 72.425 279.314631 
L 429.912458 279.314631 
" style="fill:none;stroke:#cccccc;stroke-linecap:round;"/>
     </g>
     <g id="text_11">
      <!-- −1 -->
      <g style="fill:#262626;" transform="translate(37.841562 287.188224)scale(0.22 -0.22)">
       <use xlink:href="#ArialMT-8722"/>
       <use x="58.398438" xlink:href="#ArialMT-49"/>
      </g>
     </g>
    </g>
    <g id="ytick_6">
     <g id="line2d_11">
      <path clip-path="url(#p948c466204)" d="M 72.425 223.5712 
L 429.912458 223.5712 
" style="fill:none;stroke:#cccccc;stroke-linecap:round;"/>
     </g>
     <g id="text_12">
      <!-- 0 -->
      <g style="fill:#262626;" transform="translate(50.690937 231.444794)scale(0.22 -0.22)">
       <use xlink:href="#ArialMT-48"/>
      </g>
     </g>
    </g>
    <g id="ytick_7">
     <g id="line2d_12">
      <path clip-path="url(#p948c466204)" d="M 72.425 167.82777 
L 429.912458 167.82777 
" style="fill:none;stroke:#cccccc;stroke-linecap:round;"/>
     </g>
     <g id="text_13">
      <!-- 1 -->
      <g style="fill:#262626;" transform="translate(50.690937 175.701364)scale(0.22 -0.22)">
       <use xlink:href="#ArialMT-49"/>
      </g>
     </g>
    </g>
    <g id="ytick_8">
     <g id="line2d_13">
      <path clip-path="url(#p948c466204)" d="M 72.425 112.084339 
L 429.912458 112.084339 
" style="fill:none;stroke:#cccccc;stroke-linecap:round;"/>
     </g>
     <g id="text_14">
      <!-- 2 -->
      <g style="fill:#262626;" transform="translate(50.690937 119.957933)scale(0.22 -0.22)">
       <use xlink:href="#ArialMT-50"/>
      </g>
     </g>
    </g>
    <g id="ytick_9">
     <g id="line2d_14">
      <path clip-path="url(#p948c466204)" d="M 72.425 56.340909 
L 429.912458 56.340909 
" style="fill:none;stroke:#cccccc;stroke-linecap:round;"/>
     </g>
     <g id="text_15">
      <!-- 3 -->
      <g style="fill:#262626;" transform="translate(50.690937 64.214503)scale(0.22 -0.22)">
       <use xlink:href="#ArialMT-51"/>
      </g>
     </g>
    </g>
    <g id="text_16">
     <!-- Z-Score -->
     <defs>
      <path d="M 2 0 
L 2 8.796875 
L 38.671875 54.640625 
Q 42.578125 59.515625 46.09375 63.140625 
L 6.15625 63.140625 
L 6.15625 71.578125 
L 57.421875 71.578125 
L 57.421875 63.140625 
L 17.234375 13.484375 
L 12.890625 8.453125 
L 58.59375 8.453125 
L 58.59375 0 
z
" id="ArialMT-90"/>
      <path d="M 3.171875 21.484375 
L 3.171875 30.328125 
L 30.171875 30.328125 
L 30.171875 21.484375 
z
" id="ArialMT-45"/>
      <path d="M 40.4375 19 
L 49.078125 17.875 
Q 47.65625 8.9375 41.8125 3.875 
Q 35.984375 -1.171875 27.484375 -1.171875 
Q 16.84375 -1.171875 10.375 5.78125 
Q 3.90625 12.75 3.90625 25.734375 
Q 3.90625 34.125 6.6875 40.421875 
Q 9.46875 46.734375 15.15625 49.875 
Q 20.84375 53.03125 27.546875 53.03125 
Q 35.984375 53.03125 41.359375 48.75 
Q 46.734375 44.484375 48.25 36.625 
L 39.703125 35.296875 
Q 38.484375 40.53125 35.375 43.15625 
Q 32.28125 45.796875 27.875 45.796875 
Q 21.234375 45.796875 17.078125 41.03125 
Q 12.9375 36.28125 12.9375 25.984375 
Q 12.9375 15.53125 16.9375 10.796875 
Q 20.953125 6.0625 27.390625 6.0625 
Q 32.5625 6.0625 36.03125 9.234375 
Q 39.5 12.40625 40.4375 19 
z
" id="ArialMT-99"/>
      <path d="M 6.5 0 
L 6.5 51.859375 
L 14.40625 51.859375 
L 14.40625 44 
Q 17.4375 49.515625 20 51.265625 
Q 22.5625 53.03125 25.640625 53.03125 
Q 30.078125 53.03125 34.671875 50.203125 
L 31.640625 42.046875 
Q 28.421875 43.953125 25.203125 43.953125 
Q 22.3125 43.953125 20.015625 42.21875 
Q 17.71875 40.484375 16.75 37.40625 
Q 15.28125 32.71875 15.28125 27.15625 
L 15.28125 0 
z
" id="ArialMT-114"/>
     </defs>
     <g style="fill:#262626;" transform="translate(29.071562 314.42125)rotate(-90)scale(0.24 -0.24)">
      <use xlink:href="#ArialMT-90"/>
      <use x="61.083984" xlink:href="#ArialMT-45"/>
      <use x="94.384766" xlink:href="#ArialMT-83"/>
      <use x="161.083984" xlink:href="#ArialMT-99"/>
      <use x="211.083984" xlink:href="#ArialMT-111"/>
      <use x="266.699219" xlink:href="#ArialMT-114"/>
      <use x="300" xlink:href="#ArialMT-101"/>
     </g>
    </g>
   </g>
   <g id="PathCollection_1">
    <defs>
     <path d="M 0 1.25 
C 0.331504 1.25 0.649475 1.118292 0.883883 0.883883 
C 1.118292 0.649475 1.25 0.331504 1.25 0 
C 1.25 -0.331504 1.118292 -0.649475 0.883883 -0.883883 
C 0.649475 -1.118292 0.331504 -1.25 0 -1.25 
C -0.331504 -1.25 -0.649475 -1.118292 -0.883883 -0.883883 
C -1.118292 -0.649475 -1.25 -0.331504 -1.25 0 
C -1.25 0.331504 -1.118292 0.649475 -0.883883 0.883883 
C -0.649475 1.118292 -0.331504 1.25 0 1.25 
z
" id="mafd56c32b1" style="stroke:#1a1a1a;stroke-opacity:0.5;"/>
    </defs>
    <g clip-path="url(#p948c466204)">
     <use style="fill:#1a1a1a;fill-opacity:0.5;stroke:#1a1a1a;stroke-opacity:0.5;" x="249.474353" xlink:href="#mafd56c32b1" y="262.273259"/>
     <use style="fill:#1a1a1a;fill-opacity:0.5;stroke:#1a1a1a;stroke-opacity:0.5;" x="219.646023" xlink:href="#mafd56c32b1" y="321.432434"/>
     <use style="fill:#1a1a1a;fill-opacity:0.5;stroke:#1a1a1a;stroke-opacity:0.5;" x="156.612571" xlink:href="#mafd56c32b1" y="322.883776"/>
     <use style="fill:#1a1a1a;fill-opacity:0.5;stroke:#1a1a1a;stroke-opacity:0.5;" x="376.808919" xlink:href="#mafd56c32b1" y="191.741193"/>
     <use style="fill:#1a1a1a;fill-opacity:0.5;stroke:#1a1a1a;stroke-opacity:0.5;" x="428.444332" xlink:href="#mafd56c32b1" y="122.494725"/>
     <use style="fill:#1a1a1a;fill-opacity:0.5;stroke:#1a1a1a;stroke-opacity:0.5;" x="282.447734" xlink:href="#mafd56c32b1" y="285.105832"/>
     <use style="fill:#1a1a1a;fill-opacity:0.5;stroke:#1a1a1a;stroke-opacity:0.5;" x="395.942708" xlink:href="#mafd56c32b1" y="190.451945"/>
     <use style="fill:#1a1a1a;fill-opacity:0.5;stroke:#1a1a1a;stroke-opacity:0.5;" x="249.192953" xlink:href="#mafd56c32b1" y="276.487934"/>
     <use style="fill:#1a1a1a;fill-opacity:0.5;stroke:#1a1a1a;stroke-opacity:0.5;" x="333.894154" xlink:href="#mafd56c32b1" y="216.318278"/>
     <use style="fill:#1a1a1a;fill-opacity:0.5;stroke:#1a1a1a;stroke-opacity:0.5;" x="300.801592" xlink:href="#mafd56c32b1" y="222.101061"/>
     <use style="fill:#1a1a1a;fill-opacity:0.5;stroke:#1a1a1a;stroke-opacity:0.5;" x="234.616468" xlink:href="#mafd56c32b1" y="308.984461"/>
     <use style="fill:#1a1a1a;fill-opacity:0.5;stroke:#1a1a1a;stroke-opacity:0.5;" x="353.305118" xlink:href="#mafd56c32b1" y="218.13672"/>
     <use style="fill:#1a1a1a;fill-opacity:0.5;stroke:#1a1a1a;stroke-opacity:0.5;" x="329.43424" xlink:href="#mafd56c32b1" y="246.071745"/>
     <use style="fill:#1a1a1a;fill-opacity:0.5;stroke:#1a1a1a;stroke-opacity:0.5;" x="280.384988" xlink:href="#mafd56c32b1" y="273.555119"/>
     <use style="fill:#1a1a1a;fill-opacity:0.5;stroke:#1a1a1a;stroke-opacity:0.5;" x="378.21455" xlink:href="#mafd56c32b1" y="204.869694"/>
     <use style="fill:#1a1a1a;fill-opacity:0.5;stroke:#1a1a1a;stroke-opacity:0.5;" x="425.798338" xlink:href="#mafd56c32b1" y="197.570452"/>
     <use style="fill:#1a1a1a;fill-opacity:0.5;stroke:#1a1a1a;stroke-opacity:0.5;" x="278.713265" xlink:href="#mafd56c32b1" y="282.438014"/>
     <use style="fill:#1a1a1a;fill-opacity:0.5;stroke:#1a1a1a;stroke-opacity:0.5;" x="301.81463" xlink:href="#mafd56c32b1" y="163.058821"/>
     <use style="fill:#1a1a1a;fill-opacity:0.5;stroke:#1a1a1a;stroke-opacity:0.5;" x="359.414335" xlink:href="#mafd56c32b1" y="211.852087"/>
     <use style="fill:#1a1a1a;fill-opacity:0.5;stroke:#1a1a1a;stroke-opacity:0.5;" x="350.440435" xlink:href="#mafd56c32b1" y="182.019835"/>
     <use style="fill:#1a1a1a;fill-opacity:0.5;stroke:#1a1a1a;stroke-opacity:0.5;" x="399.741599" xlink:href="#mafd56c32b1" y="186.292941"/>
     <use style="fill:#1a1a1a;fill-opacity:0.5;stroke:#1a1a1a;stroke-opacity:0.5;" x="319.500342" xlink:href="#mafd56c32b1" y="124.185626"/>
     <use style="fill:#1a1a1a;fill-opacity:0.5;stroke:#1a1a1a;stroke-opacity:0.5;" x="258.549481" xlink:href="#mafd56c32b1" y="237.875099"/>
     <use style="fill:#1a1a1a;fill-opacity:0.5;stroke:#1a1a1a;stroke-opacity:0.5;" x="314.688649" xlink:href="#mafd56c32b1" y="148.994554"/>
     <use style="fill:#1a1a1a;fill-opacity:0.5;stroke:#1a1a1a;stroke-opacity:0.5;" x="310.25661" xlink:href="#mafd56c32b1" y="234.632893"/>
     <use style="fill:#1a1a1a;fill-opacity:0.5;stroke:#1a1a1a;stroke-opacity:0.5;" x="369.350471" xlink:href="#mafd56c32b1" y="174.526263"/>
     <use style="fill:#1a1a1a;fill-opacity:0.5;stroke:#1a1a1a;stroke-opacity:0.5;" x="316.240798" xlink:href="#mafd56c32b1" y="198.055315"/>
     <use style="fill:#1a1a1a;fill-opacity:0.5;stroke:#1a1a1a;stroke-opacity:0.5;" x="371.965243" xlink:href="#mafd56c32b1" y="199.121533"/>
     <use style="fill:#1a1a1a;fill-opacity:0.5;stroke:#1a1a1a;stroke-opacity:0.5;" x="318.135791" xlink:href="#mafd56c32b1" y="213.844377"/>
     <use style="fill:#1a1a1a;fill-opacity:0.5;stroke:#1a1a1a;stroke-opacity:0.5;" x="294.498247" xlink:href="#mafd56c32b1" y="217.254748"/>
     <use style="fill:#1a1a1a;fill-opacity:0.5;stroke:#1a1a1a;stroke-opacity:0.5;" x="366.986716" xlink:href="#mafd56c32b1" y="235.672616"/>
     <use style="fill:#1a1a1a;fill-opacity:0.5;stroke:#1a1a1a;stroke-opacity:0.5;" x="189.705133" xlink:href="#mafd56c32b1" y="264.288557"/>
     <use style="fill:#1a1a1a;fill-opacity:0.5;stroke:#1a1a1a;stroke-opacity:0.5;" x="348.667619" xlink:href="#mafd56c32b1" y="244.841285"/>
     <use style="fill:#1a1a1a;fill-opacity:0.5;stroke:#1a1a1a;stroke-opacity:0.5;" x="215.049834" xlink:href="#mafd56c32b1" y="259.056559"/>
     <use style="fill:#1a1a1a;fill-opacity:0.5;stroke:#1a1a1a;stroke-opacity:0.5;" x="400.867196" xlink:href="#mafd56c32b1" y="206.531899"/>
     <use style="fill:#1a1a1a;fill-opacity:0.5;stroke:#1a1a1a;stroke-opacity:0.5;" x="269.93374" xlink:href="#mafd56c32b1" y="238.996162"/>
     <use style="fill:#1a1a1a;fill-opacity:0.5;stroke:#1a1a1a;stroke-opacity:0.5;" x="314.304134" xlink:href="#mafd56c32b1" y="245.714726"/>
     <use style="fill:#1a1a1a;fill-opacity:0.5;stroke:#1a1a1a;stroke-opacity:0.5;" x="180.250116" xlink:href="#mafd56c32b1" y="292.578692"/>
     <use style="fill:#1a1a1a;fill-opacity:0.5;stroke:#1a1a1a;stroke-opacity:0.5;" x="387.078629" xlink:href="#mafd56c32b1" y="168.347585"/>
     <use style="fill:#1a1a1a;fill-opacity:0.5;stroke:#1a1a1a;stroke-opacity:0.5;" x="233.015815" xlink:href="#mafd56c32b1" y="231.475929"/>
     <use style="fill:#1a1a1a;fill-opacity:0.5;stroke:#1a1a1a;stroke-opacity:0.5;" x="327.14057" xlink:href="#mafd56c32b1" y="195.029287"/>
     <use style="fill:#1a1a1a;fill-opacity:0.5;stroke:#1a1a1a;stroke-opacity:0.5;" x="262.057148" xlink:href="#mafd56c32b1" y="214.49655"/>
     <use style="fill:#1a1a1a;fill-opacity:0.5;stroke:#1a1a1a;stroke-opacity:0.5;" x="359.819203" xlink:href="#mafd56c32b1" y="254.966898"/>
     <use style="fill:#1a1a1a;fill-opacity:0.5;stroke:#1a1a1a;stroke-opacity:0.5;" x="260.57593" xlink:href="#mafd56c32b1" y="236.962029"/>
     <use style="fill:#1a1a1a;fill-opacity:0.5;stroke:#1a1a1a;stroke-opacity:0.5;" x="222.857286" xlink:href="#mafd56c32b1" y="247.233828"/>
     <use style="fill:#1a1a1a;fill-opacity:0.5;stroke:#1a1a1a;stroke-opacity:0.5;" x="233.43459" xlink:href="#mafd56c32b1" y="245.163381"/>
     <use style="fill:#1a1a1a;fill-opacity:0.5;stroke:#1a1a1a;stroke-opacity:0.5;" x="369.350471" xlink:href="#mafd56c32b1" y="167.64314"/>
     <use style="fill:#1a1a1a;fill-opacity:0.5;stroke:#1a1a1a;stroke-opacity:0.5;" x="378.343015" xlink:href="#mafd56c32b1" y="192.883104"/>
     <use style="fill:#1a1a1a;fill-opacity:0.5;stroke:#1a1a1a;stroke-opacity:0.5;" x="271.8456" xlink:href="#mafd56c32b1" y="238.414811"/>
     <use style="fill:#1a1a1a;fill-opacity:0.5;stroke:#1a1a1a;stroke-opacity:0.5;" x="392.988015" xlink:href="#mafd56c32b1" y="153.605583"/>
     <use style="fill:#1a1a1a;fill-opacity:0.5;stroke:#1a1a1a;stroke-opacity:0.5;" x="286.619065" xlink:href="#mafd56c32b1" y="208.827654"/>
     <use style="fill:#1a1a1a;fill-opacity:0.5;stroke:#1a1a1a;stroke-opacity:0.5;" x="401.934936" xlink:href="#mafd56c32b1" y="179.856103"/>
     <use style="fill:#1a1a1a;fill-opacity:0.5;stroke:#1a1a1a;stroke-opacity:0.5;" x="203.88766" xlink:href="#mafd56c32b1" y="251.935194"/>
     <use style="fill:#1a1a1a;fill-opacity:0.5;stroke:#1a1a1a;stroke-opacity:0.5;" x="372.633463" xlink:href="#mafd56c32b1" y="201.777469"/>
     <use style="fill:#1a1a1a;fill-opacity:0.5;stroke:#1a1a1a;stroke-opacity:0.5;" x="176.276563" xlink:href="#mafd56c32b1" y="309.222905"/>
     <use style="fill:#1a1a1a;fill-opacity:0.5;stroke:#1a1a1a;stroke-opacity:0.5;" x="374.326796" xlink:href="#mafd56c32b1" y="230.431703"/>
     <use style="fill:#1a1a1a;fill-opacity:0.5;stroke:#1a1a1a;stroke-opacity:0.5;" x="396.692406" xlink:href="#mafd56c32b1" y="206.010213"/>
     <use style="fill:#1a1a1a;fill-opacity:0.5;stroke:#1a1a1a;stroke-opacity:0.5;" x="398.897401" xlink:href="#mafd56c32b1" y="158.944435"/>
     <use style="fill:#1a1a1a;fill-opacity:0.5;stroke:#1a1a1a;stroke-opacity:0.5;" x="73.881166" xlink:href="#mafd56c32b1" y="357.330941"/>
     <use style="fill:#1a1a1a;fill-opacity:0.5;stroke:#1a1a1a;stroke-opacity:0.5;" x="354.577005" xlink:href="#mafd56c32b1" y="214.517813"/>
     <use style="fill:#1a1a1a;fill-opacity:0.5;stroke:#1a1a1a;stroke-opacity:0.5;" x="383.420437" xlink:href="#mafd56c32b1" y="88.834349"/>
     <use style="fill:#1a1a1a;fill-opacity:0.5;stroke:#1a1a1a;stroke-opacity:0.5;" x="292.407852" xlink:href="#mafd56c32b1" y="258.443194"/>
     <use style="fill:#1a1a1a;fill-opacity:0.5;stroke:#1a1a1a;stroke-opacity:0.5;" x="219.877764" xlink:href="#mafd56c32b1" y="224.199827"/>
     <use style="fill:#1a1a1a;fill-opacity:0.5;stroke:#1a1a1a;stroke-opacity:0.5;" x="292.528451" xlink:href="#mafd56c32b1" y="242.712865"/>
     <use style="fill:#1a1a1a;fill-opacity:0.5;stroke:#1a1a1a;stroke-opacity:0.5;" x="194.432642" xlink:href="#mafd56c32b1" y="319.46339"/>
     <use style="fill:#1a1a1a;fill-opacity:0.5;stroke:#1a1a1a;stroke-opacity:0.5;" x="206.251414" xlink:href="#mafd56c32b1" y="261.328266"/>
     <use style="fill:#1a1a1a;fill-opacity:0.5;stroke:#1a1a1a;stroke-opacity:0.5;" x="323.219134" xlink:href="#mafd56c32b1" y="197.476548"/>
     <use style="fill:#1a1a1a;fill-opacity:0.5;stroke:#1a1a1a;stroke-opacity:0.5;" x="262.981521" xlink:href="#mafd56c32b1" y="265.541482"/>
     <use style="fill:#1a1a1a;fill-opacity:0.5;stroke:#1a1a1a;stroke-opacity:0.5;" x="251.162749" xlink:href="#mafd56c32b1" y="218.530823"/>
     <use style="fill:#1a1a1a;fill-opacity:0.5;stroke:#1a1a1a;stroke-opacity:0.5;" x="257.072135" xlink:href="#mafd56c32b1" y="275.471567"/>
     <use style="fill:#1a1a1a;fill-opacity:0.5;stroke:#1a1a1a;stroke-opacity:0.5;" x="396.211316" xlink:href="#mafd56c32b1" y="106.917418"/>
     <use style="fill:#1a1a1a;fill-opacity:0.5;stroke:#1a1a1a;stroke-opacity:0.5;" x="395.652362" xlink:href="#mafd56c32b1" y="212.848302"/>
     <use style="fill:#1a1a1a;fill-opacity:0.5;stroke:#1a1a1a;stroke-opacity:0.5;" x="428.444332" xlink:href="#mafd56c32b1" y="122.246203"/>
     <use style="fill:#1a1a1a;fill-opacity:0.5;stroke:#1a1a1a;stroke-opacity:0.5;" x="252.640095" xlink:href="#mafd56c32b1" y="173.302509"/>
     <use style="fill:#1a1a1a;fill-opacity:0.5;stroke:#1a1a1a;stroke-opacity:0.5;" x="203.88766" xlink:href="#mafd56c32b1" y="262.380402"/>
     <use style="fill:#1a1a1a;fill-opacity:0.5;stroke:#1a1a1a;stroke-opacity:0.5;" x="234.616468" xlink:href="#mafd56c32b1" y="294.164599"/>
     <use style="fill:#1a1a1a;fill-opacity:0.5;stroke:#1a1a1a;stroke-opacity:0.5;" x="311.555376" xlink:href="#mafd56c32b1" y="282.479282"/>
     <use style="fill:#1a1a1a;fill-opacity:0.5;stroke:#1a1a1a;stroke-opacity:0.5;" x="255.662281" xlink:href="#mafd56c32b1" y="243.605686"/>
     <use style="fill:#1a1a1a;fill-opacity:0.5;stroke:#1a1a1a;stroke-opacity:0.5;" x="73.881166" xlink:href="#mafd56c32b1" y="468.02339"/>
     <use style="fill:#1a1a1a;fill-opacity:0.5;stroke:#1a1a1a;stroke-opacity:0.5;" x="294.907555" xlink:href="#mafd56c32b1" y="180.760135"/>
     <use style="fill:#1a1a1a;fill-opacity:0.5;stroke:#1a1a1a;stroke-opacity:0.5;" x="384.645352" xlink:href="#mafd56c32b1" y="204.684673"/>
     <use style="fill:#1a1a1a;fill-opacity:0.5;stroke:#1a1a1a;stroke-opacity:0.5;" x="351.941076" xlink:href="#mafd56c32b1" y="167.759383"/>
     <use style="fill:#1a1a1a;fill-opacity:0.5;stroke:#1a1a1a;stroke-opacity:0.5;" x="385.108833" xlink:href="#mafd56c32b1" y="182.77525"/>
     <use style="fill:#1a1a1a;fill-opacity:0.5;stroke:#1a1a1a;stroke-opacity:0.5;" x="388.260506" xlink:href="#mafd56c32b1" y="175.906751"/>
     <use style="fill:#1a1a1a;fill-opacity:0.5;stroke:#1a1a1a;stroke-opacity:0.5;" x="292.48402" xlink:href="#mafd56c32b1" y="147.391318"/>
     <use style="fill:#1a1a1a;fill-opacity:0.5;stroke:#1a1a1a;stroke-opacity:0.5;" x="251.162749" xlink:href="#mafd56c32b1" y="213.634484"/>
     <use style="fill:#1a1a1a;fill-opacity:0.5;stroke:#1a1a1a;stroke-opacity:0.5;" x="232.913174" xlink:href="#mafd56c32b1" y="224.67039"/>
     <use style="fill:#1a1a1a;fill-opacity:0.5;stroke:#1a1a1a;stroke-opacity:0.5;" x="314.367487" xlink:href="#mafd56c32b1" y="163.537168"/>
     <use style="fill:#1a1a1a;fill-opacity:0.5;stroke:#1a1a1a;stroke-opacity:0.5;" x="216.745445" xlink:href="#mafd56c32b1" y="236.395964"/>
     <use style="fill:#1a1a1a;fill-opacity:0.5;stroke:#1a1a1a;stroke-opacity:0.5;" x="298.437837" xlink:href="#mafd56c32b1" y="246.863347"/>
     <use style="fill:#1a1a1a;fill-opacity:0.5;stroke:#1a1a1a;stroke-opacity:0.5;" x="273.111897" xlink:href="#mafd56c32b1" y="195.834858"/>
     <use style="fill:#1a1a1a;fill-opacity:0.5;stroke:#1a1a1a;stroke-opacity:0.5;" x="348.381681" xlink:href="#mafd56c32b1" y="217.236791"/>
     <use style="fill:#1a1a1a;fill-opacity:0.5;stroke:#1a1a1a;stroke-opacity:0.5;" x="387.777589" xlink:href="#mafd56c32b1" y="193.832138"/>
     <use style="fill:#1a1a1a;fill-opacity:0.5;stroke:#1a1a1a;stroke-opacity:0.5;" x="383.231579" xlink:href="#mafd56c32b1" y="219.036254"/>
     <use style="fill:#1a1a1a;fill-opacity:0.5;stroke:#1a1a1a;stroke-opacity:0.5;" x="289.573758" xlink:href="#mafd56c32b1" y="265.200315"/>
     <use style="fill:#1a1a1a;fill-opacity:0.5;stroke:#1a1a1a;stroke-opacity:0.5;" x="365.973679" xlink:href="#mafd56c32b1" y="137.239979"/>
     <use style="fill:#1a1a1a;fill-opacity:0.5;stroke:#1a1a1a;stroke-opacity:0.5;" x="339.80354" xlink:href="#mafd56c32b1" y="140.149859"/>
     <use style="fill:#1a1a1a;fill-opacity:0.5;stroke:#1a1a1a;stroke-opacity:0.5;" x="280.106681" xlink:href="#mafd56c32b1" y="202.792791"/>
     <use style="fill:#1a1a1a;fill-opacity:0.5;stroke:#1a1a1a;stroke-opacity:0.5;" x="289.573758" xlink:href="#mafd56c32b1" y="264.618155"/>
     <use style="fill:#1a1a1a;fill-opacity:0.5;stroke:#1a1a1a;stroke-opacity:0.5;" x="243.618852" xlink:href="#mafd56c32b1" y="246.492868"/>
     <use style="fill:#1a1a1a;fill-opacity:0.5;stroke:#1a1a1a;stroke-opacity:0.5;" x="361.000251" xlink:href="#mafd56c32b1" y="98.523032"/>
     <use style="fill:#1a1a1a;fill-opacity:0.5;stroke:#1a1a1a;stroke-opacity:0.5;" x="339.279038" xlink:href="#mafd56c32b1" y="236.320865"/>
     <use style="fill:#1a1a1a;fill-opacity:0.5;stroke:#1a1a1a;stroke-opacity:0.5;" x="390.624261" xlink:href="#mafd56c32b1" y="230.200074"/>
     <use style="fill:#1a1a1a;fill-opacity:0.5;stroke:#1a1a1a;stroke-opacity:0.5;" x="302.377428" xlink:href="#mafd56c32b1" y="210.156814"/>
     <use style="fill:#1a1a1a;fill-opacity:0.5;stroke:#1a1a1a;stroke-opacity:0.5;" x="371.714225" xlink:href="#mafd56c32b1" y="167.846645"/>
     <use style="fill:#1a1a1a;fill-opacity:0.5;stroke:#1a1a1a;stroke-opacity:0.5;" x="367.662075" xlink:href="#mafd56c32b1" y="200.329743"/>
     <use style="fill:#1a1a1a;fill-opacity:0.5;stroke:#1a1a1a;stroke-opacity:0.5;" x="335.138235" xlink:href="#mafd56c32b1" y="184.570331"/>
     <use style="fill:#1a1a1a;fill-opacity:0.5;stroke:#1a1a1a;stroke-opacity:0.5;" x="390.033322" xlink:href="#mafd56c32b1" y="152.561741"/>
     <use style="fill:#1a1a1a;fill-opacity:0.5;stroke:#1a1a1a;stroke-opacity:0.5;" x="313.838056" xlink:href="#mafd56c32b1" y="139.678009"/>
     <use style="fill:#1a1a1a;fill-opacity:0.5;stroke:#1a1a1a;stroke-opacity:0.5;" x="168.431343" xlink:href="#mafd56c32b1" y="279.767399"/>
     <use style="fill:#1a1a1a;fill-opacity:0.5;stroke:#1a1a1a;stroke-opacity:0.5;" x="297.124641" xlink:href="#mafd56c32b1" y="211.943184"/>
     <use style="fill:#1a1a1a;fill-opacity:0.5;stroke:#1a1a1a;stroke-opacity:0.5;" x="283.992671" xlink:href="#mafd56c32b1" y="208.482318"/>
     <use style="fill:#1a1a1a;fill-opacity:0.5;stroke:#1a1a1a;stroke-opacity:0.5;" x="310.25661" xlink:href="#mafd56c32b1" y="225.524307"/>
     <use style="fill:#1a1a1a;fill-opacity:0.5;stroke:#1a1a1a;stroke-opacity:0.5;" x="382.646589" xlink:href="#mafd56c32b1" y="167.924044"/>
     <use style="fill:#1a1a1a;fill-opacity:0.5;stroke:#1a1a1a;stroke-opacity:0.5;" x="294.034765" xlink:href="#mafd56c32b1" y="207.202531"/>
     <use style="fill:#1a1a1a;fill-opacity:0.5;stroke:#1a1a1a;stroke-opacity:0.5;" x="253.732047" xlink:href="#mafd56c32b1" y="203.273434"/>
     <use style="fill:#1a1a1a;fill-opacity:0.5;stroke:#1a1a1a;stroke-opacity:0.5;" x="307.115408" xlink:href="#mafd56c32b1" y="253.228132"/>
     <use style="fill:#1a1a1a;fill-opacity:0.5;stroke:#1a1a1a;stroke-opacity:0.5;" x="399.3384" xlink:href="#mafd56c32b1" y="176.527623"/>
     <use style="fill:#1a1a1a;fill-opacity:0.5;stroke:#1a1a1a;stroke-opacity:0.5;" x="292.217431" xlink:href="#mafd56c32b1" y="248.984941"/>
     <use style="fill:#1a1a1a;fill-opacity:0.5;stroke:#1a1a1a;stroke-opacity:0.5;" x="184.443873" xlink:href="#mafd56c32b1" y="281.400181"/>
     <use style="fill:#1a1a1a;fill-opacity:0.5;stroke:#1a1a1a;stroke-opacity:0.5;" x="357.531698" xlink:href="#mafd56c32b1" y="210.040316"/>
     <use style="fill:#1a1a1a;fill-opacity:0.5;stroke:#1a1a1a;stroke-opacity:0.5;" x="225.309185" xlink:href="#mafd56c32b1" y="260.347773"/>
     <use style="fill:#1a1a1a;fill-opacity:0.5;stroke:#1a1a1a;stroke-opacity:0.5;" x="314.984119" xlink:href="#mafd56c32b1" y="212.139206"/>
     <use style="fill:#1a1a1a;fill-opacity:0.5;stroke:#1a1a1a;stroke-opacity:0.5;" x="225.555409" xlink:href="#mafd56c32b1" y="220.762259"/>
     <use style="fill:#1a1a1a;fill-opacity:0.5;stroke:#1a1a1a;stroke-opacity:0.5;" x="363.524315" xlink:href="#mafd56c32b1" y="127.160099"/>
     <use style="fill:#1a1a1a;fill-opacity:0.5;stroke:#1a1a1a;stroke-opacity:0.5;" x="172.652333" xlink:href="#mafd56c32b1" y="270.986461"/>
     <use style="fill:#1a1a1a;fill-opacity:0.5;stroke:#1a1a1a;stroke-opacity:0.5;" x="203.88766" xlink:href="#mafd56c32b1" y="270.313969"/>
     <use style="fill:#1a1a1a;fill-opacity:0.5;stroke:#1a1a1a;stroke-opacity:0.5;" x="403.213245" xlink:href="#mafd56c32b1" y="204.344198"/>
     <use style="fill:#1a1a1a;fill-opacity:0.5;stroke:#1a1a1a;stroke-opacity:0.5;" x="276.177941" xlink:href="#mafd56c32b1" y="287.472589"/>
     <use style="fill:#1a1a1a;fill-opacity:0.5;stroke:#1a1a1a;stroke-opacity:0.5;" x="221.615818" xlink:href="#mafd56c32b1" y="253.784736"/>
     <use style="fill:#1a1a1a;fill-opacity:0.5;stroke:#1a1a1a;stroke-opacity:0.5;" x="295.061045" xlink:href="#mafd56c32b1" y="204.303217"/>
     <use style="fill:#1a1a1a;fill-opacity:0.5;stroke:#1a1a1a;stroke-opacity:0.5;" x="256.454736" xlink:href="#mafd56c32b1" y="235.313384"/>
     <use style="fill:#1a1a1a;fill-opacity:0.5;stroke:#1a1a1a;stroke-opacity:0.5;" x="132.975027" xlink:href="#mafd56c32b1" y="325.33914"/>
     <use style="fill:#1a1a1a;fill-opacity:0.5;stroke:#1a1a1a;stroke-opacity:0.5;" x="255.044827" xlink:href="#mafd56c32b1" y="190.026115"/>
     <use style="fill:#1a1a1a;fill-opacity:0.5;stroke:#1a1a1a;stroke-opacity:0.5;" x="382.595646" xlink:href="#mafd56c32b1" y="156.879137"/>
     <use style="fill:#1a1a1a;fill-opacity:0.5;stroke:#1a1a1a;stroke-opacity:0.5;" x="218.661125" xlink:href="#mafd56c32b1" y="229.427369"/>
     <use style="fill:#1a1a1a;fill-opacity:0.5;stroke:#1a1a1a;stroke-opacity:0.5;" x="76.24492" xlink:href="#mafd56c32b1" y="376.97419"/>
     <use style="fill:#1a1a1a;fill-opacity:0.5;stroke:#1a1a1a;stroke-opacity:0.5;" x="238.190926" xlink:href="#mafd56c32b1" y="245.203835"/>
     <use style="fill:#1a1a1a;fill-opacity:0.5;stroke:#1a1a1a;stroke-opacity:0.5;" x="254.684899" xlink:href="#mafd56c32b1" y="227.571083"/>
     <use style="fill:#1a1a1a;fill-opacity:0.5;stroke:#1a1a1a;stroke-opacity:0.5;" x="359.895453" xlink:href="#mafd56c32b1" y="199.466673"/>
     <use style="fill:#1a1a1a;fill-opacity:0.5;stroke:#1a1a1a;stroke-opacity:0.5;" x="365.41088" xlink:href="#mafd56c32b1" y="224.617152"/>
     <use style="fill:#1a1a1a;fill-opacity:0.5;stroke:#1a1a1a;stroke-opacity:0.5;" x="316.165996" xlink:href="#mafd56c32b1" y="223.597997"/>
     <use style="fill:#1a1a1a;fill-opacity:0.5;stroke:#1a1a1a;stroke-opacity:0.5;" x="182.42091" xlink:href="#mafd56c32b1" y="348.629888"/>
     <use style="fill:#1a1a1a;fill-opacity:0.5;stroke:#1a1a1a;stroke-opacity:0.5;" x="232.566778" xlink:href="#mafd56c32b1" y="236.72662"/>
     <use style="fill:#1a1a1a;fill-opacity:0.5;stroke:#1a1a1a;stroke-opacity:0.5;" x="211.324191" xlink:href="#mafd56c32b1" y="318.488993"/>
     <use style="fill:#1a1a1a;fill-opacity:0.5;stroke:#1a1a1a;stroke-opacity:0.5;" x="409.418991" xlink:href="#mafd56c32b1" y="186.190868"/>
     <use style="fill:#1a1a1a;fill-opacity:0.5;stroke:#1a1a1a;stroke-opacity:0.5;" x="346.990631" xlink:href="#mafd56c32b1" y="218.896853"/>
     <use style="fill:#1a1a1a;fill-opacity:0.5;stroke:#1a1a1a;stroke-opacity:0.5;" x="242.29867" xlink:href="#mafd56c32b1" y="280.496065"/>
     <use style="fill:#1a1a1a;fill-opacity:0.5;stroke:#1a1a1a;stroke-opacity:0.5;" x="172.243851" xlink:href="#mafd56c32b1" y="298.476308"/>
     <use style="fill:#1a1a1a;fill-opacity:0.5;stroke:#1a1a1a;stroke-opacity:0.5;" x="353.986067" xlink:href="#mafd56c32b1" y="174.944959"/>
    </g>
   </g>
   <g id="patch_3">
    <path clip-path="url(#p948c466204)" d="M 73.881166 335.058061 
L 429.912458 335.058061 
L 429.912458 112.084339 
L 73.881166 112.084339 
z
" style="fill:#55a868;opacity:0.05;stroke:#55a868;stroke-linejoin:miter;"/>
   </g>
   <g id="patch_4">
    <path clip-path="url(#p948c466204)" d="M 73.881166 390.801491 
L 429.912458 390.801491 
L 429.912458 335.058061 
L 73.881166 335.058061 
z
" style="fill:#ffa500;opacity:0.05;stroke:#ffa500;stroke-linejoin:miter;"/>
   </g>
   <g id="patch_5">
    <path clip-path="url(#p948c466204)" d="M 73.881166 112.084339 
L 429.912458 112.084339 
L 429.912458 56.340909 
L 73.881166 56.340909 
z
" style="fill:#ffa500;opacity:0.05;stroke:#ffa500;stroke-linejoin:miter;"/>
   </g>
   <g id="patch_6">
    <path clip-path="url(#p948c466204)" d="M 73.881166 487.159091 
L 429.912458 487.159091 
L 429.912458 390.801491 
L 73.881166 390.801491 
z
" style="fill:#c44e52;opacity:0.05;stroke:#c44e52;stroke-linejoin:miter;"/>
   </g>
   <g id="patch_7">
    <path clip-path="url(#p948c466204)" d="M 73.881166 56.340909 
L 429.912458 56.340909 
L 429.912458 69.698648 
L 73.881166 69.698648 
z
" style="fill:#c44e52;opacity:0.05;stroke:#c44e52;stroke-linejoin:miter;"/>
   </g>
   <g id="line2d_15">
    <path clip-path="url(#p948c466204)" d="M 302.983519 487.159091 
L 302.983519 69.698648 
" style="fill:none;stroke:#ccb974;stroke-linecap:round;stroke-width:2;"/>
   </g>
   <g id="patch_8">
    <path d="M 72.425 508.7 
L 72.425 34.8 
" style="fill:none;stroke:#cccccc;stroke-linecap:square;stroke-linejoin:miter;stroke-width:1.25;"/>
   </g>
   <g id="patch_9">
    <path d="M 429.912458 508.7 
L 429.912458 34.8 
" style="fill:none;stroke:#cccccc;stroke-linecap:square;stroke-linejoin:miter;stroke-width:1.25;"/>
   </g>
   <g id="patch_10">
    <path d="M 72.425 508.7 
L 429.912458 508.7 
" style="fill:none;stroke:#cccccc;stroke-linecap:square;stroke-linejoin:miter;stroke-width:1.25;"/>
   </g>
   <g id="patch_11">
    <path d="M 72.425 34.8 
L 429.912458 34.8 
" style="fill:none;stroke:#cccccc;stroke-linecap:square;stroke-linejoin:miter;stroke-width:1.25;"/>
   </g>
   <g id="text_17">
    <!-- Train -->
    <defs>
     <path d="M 25.921875 0 
L 25.921875 63.140625 
L 2.34375 63.140625 
L 2.34375 71.578125 
L 59.078125 71.578125 
L 59.078125 63.140625 
L 35.40625 63.140625 
L 35.40625 0 
z
" id="ArialMT-84"/>
    </defs>
    <g style="fill:#262626;" transform="translate(223.836854 28.8)scale(0.24 -0.24)">
     <use xlink:href="#ArialMT-84"/>
     <use x="61.037109" xlink:href="#ArialMT-114"/>
     <use x="94.337891" xlink:href="#ArialMT-97"/>
     <use x="149.953125" xlink:href="#ArialMT-105"/>
     <use x="172.169922" xlink:href="#ArialMT-110"/>
    </g>
   </g>
   <g id="legend_1">
    <g id="patch_12">
     <path d="M 87.825 497.7 
L 309.842813 497.7 
Q 314.242813 497.7 314.242813 493.3 
L 314.242813 433.260625 
Q 314.242813 428.860625 309.842813 428.860625 
L 87.825 428.860625 
Q 83.425 428.860625 83.425 433.260625 
L 83.425 493.3 
Q 83.425 497.7 87.825 497.7 
z
" style="fill:#ffffff;opacity:0.8;stroke:#cccccc;stroke-linejoin:miter;"/>
    </g>
    <g id="line2d_16">
     <path d="M 92.225 445.707812 
L 136.225 445.707812 
" style="fill:none;stroke:#ccb974;stroke-linecap:round;stroke-width:2;"/>
    </g>
    <g id="line2d_17"/>
    <g id="text_18">
     <!-- Observed Data -->
     <defs>
      <path d="M 4.828125 34.859375 
Q 4.828125 52.6875 14.390625 62.765625 
Q 23.96875 72.859375 39.109375 72.859375 
Q 49.03125 72.859375 56.984375 68.109375 
Q 64.9375 63.375 69.109375 54.90625 
Q 73.296875 46.4375 73.296875 35.6875 
Q 73.296875 24.8125 68.890625 16.21875 
Q 64.5 7.625 56.4375 3.203125 
Q 48.390625 -1.21875 39.0625 -1.21875 
Q 28.953125 -1.21875 20.984375 3.65625 
Q 13.03125 8.546875 8.921875 16.984375 
Q 4.828125 25.4375 4.828125 34.859375 
z
M 14.59375 34.71875 
Q 14.59375 21.78125 21.546875 14.328125 
Q 28.515625 6.890625 39.015625 6.890625 
Q 49.703125 6.890625 56.609375 14.40625 
Q 63.53125 21.921875 63.53125 35.75 
Q 63.53125 44.484375 60.578125 51 
Q 57.625 57.515625 51.921875 61.109375 
Q 46.234375 64.703125 39.15625 64.703125 
Q 29.109375 64.703125 21.84375 57.78125 
Q 14.59375 50.875 14.59375 34.71875 
z
" id="ArialMT-79"/>
      <path d="M 14.703125 0 
L 6.546875 0 
L 6.546875 71.578125 
L 15.328125 71.578125 
L 15.328125 46.046875 
Q 20.90625 53.03125 29.546875 53.03125 
Q 34.328125 53.03125 38.59375 51.09375 
Q 42.875 49.171875 45.625 45.671875 
Q 48.390625 42.1875 49.953125 37.25 
Q 51.515625 32.328125 51.515625 26.703125 
Q 51.515625 13.375 44.921875 6.09375 
Q 38.328125 -1.171875 29.109375 -1.171875 
Q 19.921875 -1.171875 14.703125 6.5 
z
M 14.59375 26.3125 
Q 14.59375 17 17.140625 12.84375 
Q 21.296875 6.0625 28.375 6.0625 
Q 34.125 6.0625 38.328125 11.0625 
Q 42.53125 16.0625 42.53125 25.984375 
Q 42.53125 36.140625 38.5 40.96875 
Q 34.46875 45.796875 28.765625 45.796875 
Q 23 45.796875 18.796875 40.796875 
Q 14.59375 35.796875 14.59375 26.3125 
z
" id="ArialMT-98"/>
      <path d="M 21 0 
L 1.265625 51.859375 
L 10.546875 51.859375 
L 21.6875 20.796875 
Q 23.484375 15.765625 25 10.359375 
Q 26.171875 14.453125 28.265625 20.21875 
L 39.796875 51.859375 
L 48.828125 51.859375 
L 29.203125 0 
z
" id="ArialMT-118"/>
      <path d="M 40.234375 0 
L 40.234375 6.546875 
Q 35.296875 -1.171875 25.734375 -1.171875 
Q 19.53125 -1.171875 14.328125 2.25 
Q 9.125 5.671875 6.265625 11.796875 
Q 3.421875 17.921875 3.421875 25.875 
Q 3.421875 33.640625 6 39.96875 
Q 8.59375 46.296875 13.765625 49.65625 
Q 18.953125 53.03125 25.34375 53.03125 
Q 30.03125 53.03125 33.6875 51.046875 
Q 37.359375 49.078125 39.65625 45.90625 
L 39.65625 71.578125 
L 48.390625 71.578125 
L 48.390625 0 
z
M 12.453125 25.875 
Q 12.453125 15.921875 16.640625 10.984375 
Q 20.84375 6.0625 26.5625 6.0625 
Q 32.328125 6.0625 36.34375 10.765625 
Q 40.375 15.484375 40.375 25.140625 
Q 40.375 35.796875 36.265625 40.765625 
Q 32.171875 45.75 26.171875 45.75 
Q 20.3125 45.75 16.375 40.96875 
Q 12.453125 36.1875 12.453125 25.875 
z
" id="ArialMT-100"/>
      <path d="M 7.71875 0 
L 7.71875 71.578125 
L 32.375 71.578125 
Q 40.71875 71.578125 45.125 70.5625 
Q 51.265625 69.140625 55.609375 65.4375 
Q 61.28125 60.640625 64.078125 53.1875 
Q 66.890625 45.75 66.890625 36.1875 
Q 66.890625 28.03125 64.984375 21.734375 
Q 63.09375 15.4375 60.109375 11.296875 
Q 57.125 7.171875 53.578125 4.796875 
Q 50.046875 2.4375 45.046875 1.21875 
Q 40.046875 0 33.546875 0 
z
M 17.1875 8.453125 
L 32.46875 8.453125 
Q 39.546875 8.453125 43.578125 9.765625 
Q 47.609375 11.078125 50 13.484375 
Q 53.375 16.84375 55.25 22.53125 
Q 57.125 28.21875 57.125 36.328125 
Q 57.125 47.5625 53.4375 53.59375 
Q 49.75 59.625 44.484375 61.671875 
Q 40.671875 63.140625 32.234375 63.140625 
L 17.1875 63.140625 
z
" id="ArialMT-68"/>
     </defs>
     <g style="fill:#262626;" transform="translate(153.825 453.407812)scale(0.22 -0.22)">
      <use xlink:href="#ArialMT-79"/>
      <use x="77.783203" xlink:href="#ArialMT-98"/>
      <use x="133.398438" xlink:href="#ArialMT-115"/>
      <use x="183.398438" xlink:href="#ArialMT-101"/>
      <use x="239.013672" xlink:href="#ArialMT-114"/>
      <use x="272.314453" xlink:href="#ArialMT-118"/>
      <use x="322.314453" xlink:href="#ArialMT-101"/>
      <use x="377.929688" xlink:href="#ArialMT-100"/>
      <use x="433.544922" xlink:href="#ArialMT-32"/>
      <use x="461.328125" xlink:href="#ArialMT-68"/>
      <use x="533.544922" xlink:href="#ArialMT-97"/>
      <use x="589.160156" xlink:href="#ArialMT-116"/>
      <use x="616.943359" xlink:href="#ArialMT-97"/>
     </g>
    </g>
    <g id="PathCollection_2">
     <g>
      <use style="fill:#1a1a1a;fill-opacity:0.5;stroke:#1a1a1a;stroke-opacity:0.5;" x="114.225" xlink:href="#mafd56c32b1" y="478.7525"/>
     </g>
    </g>
    <g id="text_19">
     <!-- Not Implausible -->
     <defs>
      <path d="M 7.625 0 
L 7.625 71.578125 
L 17.328125 71.578125 
L 54.9375 15.375 
L 54.9375 71.578125 
L 64.015625 71.578125 
L 64.015625 0 
L 54.296875 0 
L 16.703125 56.25 
L 16.703125 0 
z
" id="ArialMT-78"/>
      <path d="M 9.328125 0 
L 9.328125 71.578125 
L 18.796875 71.578125 
L 18.796875 0 
z
" id="ArialMT-73"/>
      <path d="M 6.59375 -19.875 
L 6.59375 51.859375 
L 14.59375 51.859375 
L 14.59375 45.125 
Q 17.4375 49.078125 21 51.046875 
Q 24.5625 53.03125 29.640625 53.03125 
Q 36.28125 53.03125 41.359375 49.609375 
Q 46.4375 46.1875 49.015625 39.953125 
Q 51.609375 33.734375 51.609375 26.3125 
Q 51.609375 18.359375 48.75 11.984375 
Q 45.90625 5.609375 40.453125 2.21875 
Q 35.015625 -1.171875 29 -1.171875 
Q 24.609375 -1.171875 21.109375 0.6875 
Q 17.625 2.546875 15.375 5.375 
L 15.375 -19.875 
z
M 14.546875 25.640625 
Q 14.546875 15.625 18.59375 10.84375 
Q 22.65625 6.0625 28.421875 6.0625 
Q 34.28125 6.0625 38.453125 11.015625 
Q 42.625 15.96875 42.625 26.375 
Q 42.625 36.28125 38.546875 41.203125 
Q 34.46875 46.140625 28.8125 46.140625 
Q 23.1875 46.140625 18.859375 40.890625 
Q 14.546875 35.640625 14.546875 25.640625 
z
" id="ArialMT-112"/>
     </defs>
     <g style="fill:#262626;" transform="translate(153.825 484.5275)scale(0.22 -0.22)">
      <use xlink:href="#ArialMT-78"/>
      <use x="72.216797" xlink:href="#ArialMT-111"/>
      <use x="127.832031" xlink:href="#ArialMT-116"/>
      <use x="155.615234" xlink:href="#ArialMT-32"/>
      <use x="183.398438" xlink:href="#ArialMT-73"/>
      <use x="211.181641" xlink:href="#ArialMT-109"/>
      <use x="294.482422" xlink:href="#ArialMT-112"/>
      <use x="350.097656" xlink:href="#ArialMT-108"/>
      <use x="372.314453" xlink:href="#ArialMT-97"/>
      <use x="427.929688" xlink:href="#ArialMT-117"/>
      <use x="483.544922" xlink:href="#ArialMT-115"/>
      <use x="533.544922" xlink:href="#ArialMT-105"/>
      <use x="555.761719" xlink:href="#ArialMT-98"/>
      <use x="611.376953" xlink:href="#ArialMT-108"/>
      <use x="633.59375" xlink:href="#ArialMT-101"/>
     </g>
    </g>
   </g>
  </g>
  <g id="axes_2">
   <g id="patch_13">
    <path d="M 481.7125 508.7 
L 839.199958 508.7 
L 839.199958 34.8 
L 481.7125 34.8 
z
" style="fill:#ffffff;"/>
   </g>
   <g id="matplotlib.axis_3">
    <g id="xtick_6">
     <g id="line2d_18">
      <path clip-path="url(#pc028577b6e)" d="M 483.168666 508.7 
L 483.168666 34.8 
" style="fill:none;stroke:#cccccc;stroke-linecap:round;"/>
     </g>
     <g id="text_20">
      <!-- 0.00 -->
      <g style="fill:#262626;" transform="translate(461.761635 533.947187)scale(0.22 -0.22)">
       <use xlink:href="#ArialMT-48"/>
       <use x="55.615234" xlink:href="#ArialMT-46"/>
       <use x="83.398438" xlink:href="#ArialMT-48"/>
       <use x="139.013672" xlink:href="#ArialMT-48"/>
      </g>
     </g>
    </g>
    <g id="xtick_7">
     <g id="line2d_19">
      <path clip-path="url(#pc028577b6e)" d="M 571.809457 508.7 
L 571.809457 34.8 
" style="fill:none;stroke:#cccccc;stroke-linecap:round;"/>
     </g>
     <g id="text_21">
      <!-- 0.25 -->
      <g style="fill:#262626;" transform="translate(550.402426 533.947187)scale(0.22 -0.22)">
       <use xlink:href="#ArialMT-48"/>
       <use x="55.615234" xlink:href="#ArialMT-46"/>
       <use x="83.398438" xlink:href="#ArialMT-50"/>
       <use x="139.013672" xlink:href="#ArialMT-53"/>
      </g>
     </g>
    </g>
    <g id="xtick_8">
     <g id="line2d_20">
      <path clip-path="url(#pc028577b6e)" d="M 660.450249 508.7 
L 660.450249 34.8 
" style="fill:none;stroke:#cccccc;stroke-linecap:round;"/>
     </g>
     <g id="text_22">
      <!-- 0.50 -->
      <g style="fill:#262626;" transform="translate(639.043217 533.947187)scale(0.22 -0.22)">
       <use xlink:href="#ArialMT-48"/>
       <use x="55.615234" xlink:href="#ArialMT-46"/>
       <use x="83.398438" xlink:href="#ArialMT-53"/>
       <use x="139.013672" xlink:href="#ArialMT-48"/>
      </g>
     </g>
    </g>
    <g id="xtick_9">
     <g id="line2d_21">
      <path clip-path="url(#pc028577b6e)" d="M 749.09104 508.7 
L 749.09104 34.8 
" style="fill:none;stroke:#cccccc;stroke-linecap:round;"/>
     </g>
     <g id="text_23">
      <!-- 0.75 -->
      <g style="fill:#262626;" transform="translate(727.684009 533.947187)scale(0.22 -0.22)">
       <use xlink:href="#ArialMT-48"/>
       <use x="55.615234" xlink:href="#ArialMT-46"/>
       <use x="83.398438" xlink:href="#ArialMT-55"/>
       <use x="139.013672" xlink:href="#ArialMT-53"/>
      </g>
     </g>
    </g>
    <g id="xtick_10">
     <g id="line2d_22">
      <path clip-path="url(#pc028577b6e)" d="M 837.731832 508.7 
L 837.731832 34.8 
" style="fill:none;stroke:#cccccc;stroke-linecap:round;"/>
     </g>
     <g id="text_24">
      <!-- 1.00 -->
      <g style="fill:#262626;" transform="translate(816.3248 533.947187)scale(0.22 -0.22)">
       <use xlink:href="#ArialMT-49"/>
       <use x="55.615234" xlink:href="#ArialMT-46"/>
       <use x="83.398438" xlink:href="#ArialMT-48"/>
       <use x="139.013672" xlink:href="#ArialMT-48"/>
      </g>
     </g>
    </g>
    <g id="text_25">
     <!-- Simulation Result -->
     <g style="fill:#262626;" transform="translate(567.084979 559.498437)scale(0.24 -0.24)">
      <use xlink:href="#ArialMT-83"/>
      <use x="66.699219" xlink:href="#ArialMT-105"/>
      <use x="88.916016" xlink:href="#ArialMT-109"/>
      <use x="172.216797" xlink:href="#ArialMT-117"/>
      <use x="227.832031" xlink:href="#ArialMT-108"/>
      <use x="250.048828" xlink:href="#ArialMT-97"/>
      <use x="305.664062" xlink:href="#ArialMT-116"/>
      <use x="333.447266" xlink:href="#ArialMT-105"/>
      <use x="355.664062" xlink:href="#ArialMT-111"/>
      <use x="411.279297" xlink:href="#ArialMT-110"/>
      <use x="466.894531" xlink:href="#ArialMT-32"/>
      <use x="494.677734" xlink:href="#ArialMT-82"/>
      <use x="566.894531" xlink:href="#ArialMT-101"/>
      <use x="622.509766" xlink:href="#ArialMT-115"/>
      <use x="672.509766" xlink:href="#ArialMT-117"/>
      <use x="728.125" xlink:href="#ArialMT-108"/>
      <use x="750.341797" xlink:href="#ArialMT-116"/>
     </g>
    </g>
   </g>
   <g id="matplotlib.axis_4">
    <g id="ytick_10">
     <g id="line2d_23">
      <path clip-path="url(#pc028577b6e)" d="M 481.7125 502.288352 
L 839.199958 502.288352 
" style="fill:none;stroke:#cccccc;stroke-linecap:round;"/>
     </g>
    </g>
    <g id="ytick_11">
     <g id="line2d_24">
      <path clip-path="url(#pc028577b6e)" d="M 481.7125 446.544922 
L 839.199958 446.544922 
" style="fill:none;stroke:#cccccc;stroke-linecap:round;"/>
     </g>
    </g>
    <g id="ytick_12">
     <g id="line2d_25">
      <path clip-path="url(#pc028577b6e)" d="M 481.7125 390.801491 
L 839.199958 390.801491 
" style="fill:none;stroke:#cccccc;stroke-linecap:round;"/>
     </g>
    </g>
    <g id="ytick_13">
     <g id="line2d_26">
      <path clip-path="url(#pc028577b6e)" d="M 481.7125 335.058061 
L 839.199958 335.058061 
" style="fill:none;stroke:#cccccc;stroke-linecap:round;"/>
     </g>
    </g>
    <g id="ytick_14">
     <g id="line2d_27">
      <path clip-path="url(#pc028577b6e)" d="M 481.7125 279.314631 
L 839.199958 279.314631 
" style="fill:none;stroke:#cccccc;stroke-linecap:round;"/>
     </g>
    </g>
    <g id="ytick_15">
     <g id="line2d_28">
      <path clip-path="url(#pc028577b6e)" d="M 481.7125 223.5712 
L 839.199958 223.5712 
" style="fill:none;stroke:#cccccc;stroke-linecap:round;"/>
     </g>
    </g>
    <g id="ytick_16">
     <g id="line2d_29">
      <path clip-path="url(#pc028577b6e)" d="M 481.7125 167.82777 
L 839.199958 167.82777 
" style="fill:none;stroke:#cccccc;stroke-linecap:round;"/>
     </g>
    </g>
    <g id="ytick_17">
     <g id="line2d_30">
      <path clip-path="url(#pc028577b6e)" d="M 481.7125 112.084339 
L 839.199958 112.084339 
" style="fill:none;stroke:#cccccc;stroke-linecap:round;"/>
     </g>
    </g>
    <g id="ytick_18">
     <g id="line2d_31">
      <path clip-path="url(#pc028577b6e)" d="M 481.7125 56.340909 
L 839.199958 56.340909 
" style="fill:none;stroke:#cccccc;stroke-linecap:round;"/>
     </g>
    </g>
    <g id="text_26">
     <!-- Z-Score -->
     <g style="fill:#262626;" transform="translate(472.9425 314.42125)rotate(-90)scale(0.24 -0.24)">
      <use xlink:href="#ArialMT-90"/>
      <use x="61.083984" xlink:href="#ArialMT-45"/>
      <use x="94.384766" xlink:href="#ArialMT-83"/>
      <use x="161.083984" xlink:href="#ArialMT-99"/>
      <use x="211.083984" xlink:href="#ArialMT-111"/>
      <use x="266.699219" xlink:href="#ArialMT-114"/>
      <use x="300" xlink:href="#ArialMT-101"/>
     </g>
    </g>
   </g>
   <g id="PathCollection_3">
    <g clip-path="url(#pc028577b6e)">
     <use style="fill:#1a1a1a;fill-opacity:0.5;stroke:#1a1a1a;stroke-opacity:0.5;" x="757.669181" xlink:href="#mafd56c32b1" y="205.603786"/>
     <use style="fill:#1a1a1a;fill-opacity:0.5;stroke:#1a1a1a;stroke-opacity:0.5;" x="731.362882" xlink:href="#mafd56c32b1" y="173.021398"/>
     <use style="fill:#1a1a1a;fill-opacity:0.5;stroke:#1a1a1a;stroke-opacity:0.5;" x="693.542811" xlink:href="#mafd56c32b1" y="235.174636"/>
     <use style="fill:#1a1a1a;fill-opacity:0.5;stroke:#1a1a1a;stroke-opacity:0.5;" x="759.823333" xlink:href="#mafd56c32b1" y="217.748834"/>
     <use style="fill:#1a1a1a;fill-opacity:0.5;stroke:#1a1a1a;stroke-opacity:0.5;" x="668.255098" xlink:href="#mafd56c32b1" y="196.288521"/>
     <use style="fill:#1a1a1a;fill-opacity:0.5;stroke:#1a1a1a;stroke-opacity:0.5;" x="660.450249" xlink:href="#mafd56c32b1" y="252.153084"/>
     <use style="fill:#1a1a1a;fill-opacity:0.5;stroke:#1a1a1a;stroke-opacity:0.5;" x="613.17516" xlink:href="#mafd56c32b1" y="280.424201"/>
     <use style="fill:#1a1a1a;fill-opacity:0.5;stroke:#1a1a1a;stroke-opacity:0.5;" x="699.846156" xlink:href="#mafd56c32b1" y="189.546926"/>
     <use style="fill:#1a1a1a;fill-opacity:0.5;stroke:#1a1a1a;stroke-opacity:0.5;" x="760.909812" xlink:href="#mafd56c32b1" y="196.574954"/>
     <use style="fill:#1a1a1a;fill-opacity:0.5;stroke:#1a1a1a;stroke-opacity:0.5;" x="670.878577" xlink:href="#mafd56c32b1" y="213.749668"/>
     <use style="fill:#1a1a1a;fill-opacity:0.5;stroke:#1a1a1a;stroke-opacity:0.5;" x="705.361583" xlink:href="#mafd56c32b1" y="286.272214"/>
     <use style="fill:#1a1a1a;fill-opacity:0.5;stroke:#1a1a1a;stroke-opacity:0.5;" x="636.561241" xlink:href="#mafd56c32b1" y="305.501982"/>
     <use style="fill:#1a1a1a;fill-opacity:0.5;stroke:#1a1a1a;stroke-opacity:0.5;" x="778.637971" xlink:href="#mafd56c32b1" y="174.571729"/>
     <use style="fill:#1a1a1a;fill-opacity:0.5;stroke:#1a1a1a;stroke-opacity:0.5;" x="666.359635" xlink:href="#mafd56c32b1" y="259.577649"/>
     <use style="fill:#1a1a1a;fill-opacity:0.5;stroke:#1a1a1a;stroke-opacity:0.5;" x="764.50683" xlink:href="#mafd56c32b1" y="174.985155"/>
     <use style="fill:#1a1a1a;fill-opacity:0.5;stroke:#1a1a1a;stroke-opacity:0.5;" x="626.05233" xlink:href="#mafd56c32b1" y="228.158372"/>
     <use style="fill:#1a1a1a;fill-opacity:0.5;stroke:#1a1a1a;stroke-opacity:0.5;" x="558.142375" xlink:href="#mafd56c32b1" y="297.308945"/>
     <use style="fill:#1a1a1a;fill-opacity:0.5;stroke:#1a1a1a;stroke-opacity:0.5;" x="800.330654" xlink:href="#mafd56c32b1" y="134.755707"/>
     <use style="fill:#1a1a1a;fill-opacity:0.5;stroke:#1a1a1a;stroke-opacity:0.5;" x="739.242063" xlink:href="#mafd56c32b1" y="228.241041"/>
     <use style="fill:#1a1a1a;fill-opacity:0.5;stroke:#1a1a1a;stroke-opacity:0.5;" x="666.880151" xlink:href="#mafd56c32b1" y="234.362152"/>
     <use style="fill:#1a1a1a;fill-opacity:0.5;stroke:#1a1a1a;stroke-opacity:0.5;" x="694.762813" xlink:href="#mafd56c32b1" y="227.823744"/>
     <use style="fill:#1a1a1a;fill-opacity:0.5;stroke:#1a1a1a;stroke-opacity:0.5;" x="676.208612" xlink:href="#mafd56c32b1" y="253.674566"/>
     <use style="fill:#1a1a1a;fill-opacity:0.5;stroke:#1a1a1a;stroke-opacity:0.5;" x="571.809457" xlink:href="#mafd56c32b1" y="300.377855"/>
     <use style="fill:#1a1a1a;fill-opacity:0.5;stroke:#1a1a1a;stroke-opacity:0.5;" x="699.846156" xlink:href="#mafd56c32b1" y="248.321591"/>
     <use style="fill:#1a1a1a;fill-opacity:0.5;stroke:#1a1a1a;stroke-opacity:0.5;" x="757.955119" xlink:href="#mafd56c32b1" y="146.614545"/>
     <use style="fill:#1a1a1a;fill-opacity:0.5;stroke:#1a1a1a;stroke-opacity:0.5;" x="799.911761" xlink:href="#mafd56c32b1" y="201.702865"/>
     <use style="fill:#1a1a1a;fill-opacity:0.5;stroke:#1a1a1a;stroke-opacity:0.5;" x="597.042967" xlink:href="#mafd56c32b1" y="244.745358"/>
     <use style="fill:#1a1a1a;fill-opacity:0.5;stroke:#1a1a1a;stroke-opacity:0.5;" x="654.540863" xlink:href="#mafd56c32b1" y="238.941951"/>
     <use style="fill:#1a1a1a;fill-opacity:0.5;stroke:#1a1a1a;stroke-opacity:0.5;" x="692.951872" xlink:href="#mafd56c32b1" y="240.973053"/>
     <use style="fill:#1a1a1a;fill-opacity:0.5;stroke:#1a1a1a;stroke-opacity:0.5;" x="796.366129" xlink:href="#mafd56c32b1" y="212.716857"/>
     <use style="fill:#1a1a1a;fill-opacity:0.5;stroke:#1a1a1a;stroke-opacity:0.5;" x="613.245094" xlink:href="#mafd56c32b1" y="257.483943"/>
     <use style="fill:#1a1a1a;fill-opacity:0.5;stroke:#1a1a1a;stroke-opacity:0.5;" x="565.900071" xlink:href="#mafd56c32b1" y="373.759747"/>
     <use style="fill:#1a1a1a;fill-opacity:0.5;stroke:#1a1a1a;stroke-opacity:0.5;" x="824.452312" xlink:href="#mafd56c32b1" y="166.251832"/>
     <use style="fill:#1a1a1a;fill-opacity:0.5;stroke:#1a1a1a;stroke-opacity:0.5;" x="561.960481" xlink:href="#mafd56c32b1" y="292.932803"/>
     <use style="fill:#1a1a1a;fill-opacity:0.5;stroke:#1a1a1a;stroke-opacity:0.5;" x="698.383863" xlink:href="#mafd56c32b1" y="186.645512"/>
     <use style="fill:#1a1a1a;fill-opacity:0.5;stroke:#1a1a1a;stroke-opacity:0.5;" x="695.906565" xlink:href="#mafd56c32b1" y="186.892004"/>
     <use style="fill:#1a1a1a;fill-opacity:0.5;stroke:#1a1a1a;stroke-opacity:0.5;" x="837.731832" xlink:href="#mafd56c32b1" y="129.877345"/>
     <use style="fill:#1a1a1a;fill-opacity:0.5;stroke:#1a1a1a;stroke-opacity:0.5;" x="564.001719" xlink:href="#mafd56c32b1" y="304.342639"/>
     <use style="fill:#1a1a1a;fill-opacity:0.5;stroke:#1a1a1a;stroke-opacity:0.5;" x="743.181654" xlink:href="#mafd56c32b1" y="209.273504"/>
     <use style="fill:#1a1a1a;fill-opacity:0.5;stroke:#1a1a1a;stroke-opacity:0.5;" x="691.016039" xlink:href="#mafd56c32b1" y="223.628306"/>
     <use style="fill:#1a1a1a;fill-opacity:0.5;stroke:#1a1a1a;stroke-opacity:0.5;" x="773.048011" xlink:href="#mafd56c32b1" y="167.026423"/>
     <use style="fill:#1a1a1a;fill-opacity:0.5;stroke:#1a1a1a;stroke-opacity:0.5;" x="778.637971" xlink:href="#mafd56c32b1" y="130.141856"/>
     <use style="fill:#1a1a1a;fill-opacity:0.5;stroke:#1a1a1a;stroke-opacity:0.5;" x="695.906565" xlink:href="#mafd56c32b1" y="301.889286"/>
     <use style="fill:#1a1a1a;fill-opacity:0.5;stroke:#1a1a1a;stroke-opacity:0.5;" x="644.178026" xlink:href="#mafd56c32b1" y="224.568502"/>
     <use style="fill:#1a1a1a;fill-opacity:0.5;stroke:#1a1a1a;stroke-opacity:0.5;" x="635.124308" xlink:href="#mafd56c32b1" y="221.468393"/>
     <use style="fill:#1a1a1a;fill-opacity:0.5;stroke:#1a1a1a;stroke-opacity:0.5;" x="648.631477" xlink:href="#mafd56c32b1" y="258.649084"/>
     <use style="fill:#1a1a1a;fill-opacity:0.5;stroke:#1a1a1a;stroke-opacity:0.5;" x="758.260777" xlink:href="#mafd56c32b1" y="182.572555"/>
     <use style="fill:#1a1a1a;fill-opacity:0.5;stroke:#1a1a1a;stroke-opacity:0.5;" x="825.913059" xlink:href="#mafd56c32b1" y="141.041391"/>
     <use style="fill:#1a1a1a;fill-opacity:0.5;stroke:#1a1a1a;stroke-opacity:0.5;" x="788.257901" xlink:href="#mafd56c32b1" y="119.895744"/>
     <use style="fill:#1a1a1a;fill-opacity:0.5;stroke:#1a1a1a;stroke-opacity:0.5;" x="577.30048" xlink:href="#mafd56c32b1" y="285.19063"/>
    </g>
   </g>
   <g id="patch_14">
    <path clip-path="url(#pc028577b6e)" d="M 483.168666 335.058061 
L 839.199958 335.058061 
L 839.199958 112.084339 
L 483.168666 112.084339 
z
" style="fill:#55a868;opacity:0.05;stroke:#55a868;stroke-linejoin:miter;"/>
   </g>
   <g id="patch_15">
    <path clip-path="url(#pc028577b6e)" d="M 483.168666 390.801491 
L 839.199958 390.801491 
L 839.199958 335.058061 
L 483.168666 335.058061 
z
" style="fill:#ffa500;opacity:0.05;stroke:#ffa500;stroke-linejoin:miter;"/>
   </g>
   <g id="patch_16">
    <path clip-path="url(#pc028577b6e)" d="M 483.168666 112.084339 
L 839.199958 112.084339 
L 839.199958 56.340909 
L 483.168666 56.340909 
z
" style="fill:#ffa500;opacity:0.05;stroke:#ffa500;stroke-linejoin:miter;"/>
   </g>
   <g id="patch_17">
    <path clip-path="url(#pc028577b6e)" d="M 483.168666 487.159091 
L 839.199958 487.159091 
L 839.199958 390.801491 
L 483.168666 390.801491 
z
" style="fill:#c44e52;opacity:0.05;stroke:#c44e52;stroke-linejoin:miter;"/>
   </g>
   <g id="patch_18">
    <path clip-path="url(#pc028577b6e)" d="M 483.168666 56.340909 
L 839.199958 56.340909 
L 839.199958 69.698648 
L 483.168666 69.698648 
z
" style="fill:#c44e52;opacity:0.05;stroke:#c44e52;stroke-linejoin:miter;"/>
   </g>
   <g id="line2d_32">
    <path clip-path="url(#pc028577b6e)" d="M 712.271019 487.159091 
L 712.271019 69.698648 
" style="fill:none;stroke:#ccb974;stroke-linecap:round;stroke-width:2;"/>
   </g>
   <g id="patch_19">
    <path d="M 481.7125 508.7 
L 481.7125 34.8 
" style="fill:none;stroke:#cccccc;stroke-linecap:square;stroke-linejoin:miter;stroke-width:1.25;"/>
   </g>
   <g id="patch_20">
    <path d="M 839.199958 508.7 
L 839.199958 34.8 
" style="fill:none;stroke:#cccccc;stroke-linecap:square;stroke-linejoin:miter;stroke-width:1.25;"/>
   </g>
   <g id="patch_21">
    <path d="M 481.7125 508.7 
L 839.199958 508.7 
" style="fill:none;stroke:#cccccc;stroke-linecap:square;stroke-linejoin:miter;stroke-width:1.25;"/>
   </g>
   <g id="patch_22">
    <path d="M 481.7125 34.8 
L 839.199958 34.8 
" style="fill:none;stroke:#cccccc;stroke-linecap:square;stroke-linejoin:miter;stroke-width:1.25;"/>
   </g>
   <g id="text_27">
    <!-- Test -->
    <g style="fill:#262626;" transform="translate(637.140604 28.8)scale(0.24 -0.24)">
     <use xlink:href="#ArialMT-84"/>
     <use x="60.912109" xlink:href="#ArialMT-101"/>
     <use x="116.527344" xlink:href="#ArialMT-115"/>
     <use x="166.527344" xlink:href="#ArialMT-116"/>
    </g>
   </g>
   <g id="legend_2">
    <g id="patch_23">
     <path d="M 497.1125 497.7 
L 719.130313 497.7 
Q 723.530313 497.7 723.530313 493.3 
L 723.530313 433.260625 
Q 723.530313 428.860625 719.130313 428.860625 
L 497.1125 428.860625 
Q 492.7125 428.860625 492.7125 433.260625 
L 492.7125 493.3 
Q 492.7125 497.7 497.1125 497.7 
z
" style="fill:#ffffff;opacity:0.8;stroke:#cccccc;stroke-linejoin:miter;"/>
    </g>
    <g id="line2d_33">
     <path d="M 501.5125 445.707812 
L 545.5125 445.707812 
" style="fill:none;stroke:#ccb974;stroke-linecap:round;stroke-width:2;"/>
    </g>
    <g id="line2d_34"/>
    <g id="text_28">
     <!-- Observed Data -->
     <g style="fill:#262626;" transform="translate(563.1125 453.407812)scale(0.22 -0.22)">
      <use xlink:href="#ArialMT-79"/>
      <use x="77.783203" xlink:href="#ArialMT-98"/>
      <use x="133.398438" xlink:href="#ArialMT-115"/>
      <use x="183.398438" xlink:href="#ArialMT-101"/>
      <use x="239.013672" xlink:href="#ArialMT-114"/>
      <use x="272.314453" xlink:href="#ArialMT-118"/>
      <use x="322.314453" xlink:href="#ArialMT-101"/>
      <use x="377.929688" xlink:href="#ArialMT-100"/>
      <use x="433.544922" xlink:href="#ArialMT-32"/>
      <use x="461.328125" xlink:href="#ArialMT-68"/>
      <use x="533.544922" xlink:href="#ArialMT-97"/>
      <use x="589.160156" xlink:href="#ArialMT-116"/>
      <use x="616.943359" xlink:href="#ArialMT-97"/>
     </g>
    </g>
    <g id="PathCollection_4">
     <g>
      <use style="fill:#1a1a1a;fill-opacity:0.5;stroke:#1a1a1a;stroke-opacity:0.5;" x="523.5125" xlink:href="#mafd56c32b1" y="478.7525"/>
     </g>
    </g>
    <g id="text_29">
     <!-- Not Implausible -->
     <g style="fill:#262626;" transform="translate(563.1125 484.5275)scale(0.22 -0.22)">
      <use xlink:href="#ArialMT-78"/>
      <use x="72.216797" xlink:href="#ArialMT-111"/>
      <use x="127.832031" xlink:href="#ArialMT-116"/>
      <use x="155.615234" xlink:href="#ArialMT-32"/>
      <use x="183.398438" xlink:href="#ArialMT-73"/>
      <use x="211.181641" xlink:href="#ArialMT-109"/>
      <use x="294.482422" xlink:href="#ArialMT-112"/>
      <use x="350.097656" xlink:href="#ArialMT-108"/>
      <use x="372.314453" xlink:href="#ArialMT-97"/>
      <use x="427.929688" xlink:href="#ArialMT-117"/>
      <use x="483.544922" xlink:href="#ArialMT-115"/>
      <use x="533.544922" xlink:href="#ArialMT-105"/>
      <use x="555.761719" xlink:href="#ArialMT-98"/>
      <use x="611.376953" xlink:href="#ArialMT-108"/>
      <use x="633.59375" xlink:href="#ArialMT-101"/>
     </g>
    </g>
   </g>
  </g>
 </g>
 <defs>
  <clipPath id="p948c466204">
   <rect height="473.9" width="357.487458" x="72.425" y="34.8"/>
  </clipPath>
  <clipPath id="pc028577b6e">
   <rect height="473.9" width="357.487458" x="481.7125" y="34.8"/>
  </clipPath>
 </defs>
</svg>
