<?xml version="1.0" encoding="utf-8" standalone="no"?>
<!DOCTYPE svg PUBLIC "-//W3C//DTD SVG 1.1//EN"
  "http://www.w3.org/Graphics/SVG/1.1/DTD/svg11.dtd">
<!-- Created with matplotlib (https://matplotlib.org/) -->
<svg height="720pt" version="1.1" viewBox="0 0 1152 720" width="1152pt" xmlns="http://www.w3.org/2000/svg" xmlns:xlink="http://www.w3.org/1999/xlink">
 <defs>
  <style type="text/css">
*{stroke-linecap:butt;stroke-linejoin:round;}
  </style>
 </defs>
 <g id="figure_1">
  <g id="patch_1">
   <path d="M 0 720 
L 1152 720 
L 1152 0 
L 0 0 
z
" style="fill:#ffffff;"/>
  </g>
  <g id="axes_1">
   <g id="patch_2">
    <path d="M 144 630 
L 1036.8 630 
L 1036.8 86.4 
L 144 86.4 
z
" style="fill:#ffffff;"/>
   </g>
   <g id="matplotlib.axis_1">
    <g id="xtick_1">
     <g id="line2d_1">
      <path clip-path="url(#p21a1d99dd9)" d="M 247.232069 630 
L 247.232069 86.4 
" style="fill:none;stroke:#cccccc;stroke-linecap:round;"/>
     </g>
     <g id="text_1">
      <!-- 59 -->
      <defs>
       <path d="M 4.15625 18.75 
L 13.375 19.53125 
Q 14.40625 12.796875 18.140625 9.390625 
Q 21.875 6 27.15625 6 
Q 33.5 6 37.890625 10.78125 
Q 42.28125 15.578125 42.28125 23.484375 
Q 42.28125 31 38.0625 35.34375 
Q 33.84375 39.703125 27 39.703125 
Q 22.75 39.703125 19.328125 37.765625 
Q 15.921875 35.84375 13.96875 32.765625 
L 5.71875 33.84375 
L 12.640625 70.609375 
L 48.25 70.609375 
L 48.25 62.203125 
L 19.671875 62.203125 
L 15.828125 42.96875 
Q 22.265625 47.46875 29.34375 47.46875 
Q 38.71875 47.46875 45.15625 40.96875 
Q 51.609375 34.46875 51.609375 24.265625 
Q 51.609375 14.546875 45.953125 7.46875 
Q 39.0625 -1.21875 27.15625 -1.21875 
Q 17.390625 -1.21875 11.203125 4.25 
Q 5.03125 9.71875 4.15625 18.75 
z
" id="ArialMT-53"/>
       <path d="M 5.46875 16.546875 
L 13.921875 17.328125 
Q 14.984375 11.375 18.015625 8.6875 
Q 21.046875 6 25.78125 6 
Q 29.828125 6 32.875 7.859375 
Q 35.9375 9.71875 37.890625 12.8125 
Q 39.84375 15.921875 41.15625 21.1875 
Q 42.484375 26.46875 42.484375 31.9375 
Q 42.484375 32.515625 42.4375 33.6875 
Q 39.796875 29.5 35.234375 26.875 
Q 30.671875 24.265625 25.34375 24.265625 
Q 16.453125 24.265625 10.296875 30.703125 
Q 4.15625 37.15625 4.15625 47.703125 
Q 4.15625 58.59375 10.578125 65.234375 
Q 17 71.875 26.65625 71.875 
Q 33.640625 71.875 39.421875 68.109375 
Q 45.21875 64.359375 48.21875 57.390625 
Q 51.21875 50.4375 51.21875 37.25 
Q 51.21875 23.53125 48.234375 15.40625 
Q 45.265625 7.28125 39.375 3.03125 
Q 33.5 -1.21875 25.59375 -1.21875 
Q 17.1875 -1.21875 11.859375 3.4375 
Q 6.546875 8.109375 5.46875 16.546875 
z
M 41.453125 48.140625 
Q 41.453125 55.71875 37.421875 60.15625 
Q 33.40625 64.59375 27.734375 64.59375 
Q 21.875 64.59375 17.53125 59.8125 
Q 13.1875 55.03125 13.1875 47.40625 
Q 13.1875 40.578125 17.3125 36.296875 
Q 21.4375 32.03125 27.484375 32.03125 
Q 33.59375 32.03125 37.515625 36.296875 
Q 41.453125 40.578125 41.453125 48.140625 
z
" id="ArialMT-57"/>
      </defs>
      <g style="fill:#262626;" transform="translate(234.998006 655.247187)scale(0.22 -0.22)">
       <use xlink:href="#ArialMT-53"/>
       <use x="55.615234" xlink:href="#ArialMT-57"/>
      </g>
     </g>
    </g>
    <g id="xtick_2">
     <g id="line2d_2">
      <path clip-path="url(#p21a1d99dd9)" d="M 377.609864 630 
L 377.609864 86.4 
" style="fill:none;stroke:#cccccc;stroke-linecap:round;"/>
     </g>
     <g id="text_2">
      <!-- 60 -->
      <defs>
       <path d="M 49.75 54.046875 
L 41.015625 53.375 
Q 39.84375 58.546875 37.703125 60.890625 
Q 34.125 64.65625 28.90625 64.65625 
Q 24.703125 64.65625 21.53125 62.3125 
Q 17.390625 59.28125 14.984375 53.46875 
Q 12.59375 47.65625 12.5 36.921875 
Q 15.671875 41.75 20.265625 44.09375 
Q 24.859375 46.4375 29.890625 46.4375 
Q 38.671875 46.4375 44.84375 39.96875 
Q 51.03125 33.5 51.03125 23.25 
Q 51.03125 16.5 48.125 10.71875 
Q 45.21875 4.9375 40.140625 1.859375 
Q 35.0625 -1.21875 28.609375 -1.21875 
Q 17.625 -1.21875 10.6875 6.859375 
Q 3.765625 14.9375 3.765625 33.5 
Q 3.765625 54.25 11.421875 63.671875 
Q 18.109375 71.875 29.4375 71.875 
Q 37.890625 71.875 43.28125 67.140625 
Q 48.6875 62.40625 49.75 54.046875 
z
M 13.875 23.1875 
Q 13.875 18.65625 15.796875 14.5 
Q 17.71875 10.359375 21.1875 8.171875 
Q 24.65625 6 28.46875 6 
Q 34.03125 6 38.03125 10.484375 
Q 42.046875 14.984375 42.046875 22.703125 
Q 42.046875 30.125 38.078125 34.390625 
Q 34.125 38.671875 28.125 38.671875 
Q 22.171875 38.671875 18.015625 34.390625 
Q 13.875 30.125 13.875 23.1875 
z
" id="ArialMT-54"/>
       <path d="M 4.15625 35.296875 
Q 4.15625 48 6.765625 55.734375 
Q 9.375 63.484375 14.515625 67.671875 
Q 19.671875 71.875 27.484375 71.875 
Q 33.25 71.875 37.59375 69.546875 
Q 41.9375 67.234375 44.765625 62.859375 
Q 47.609375 58.5 49.21875 52.21875 
Q 50.828125 45.953125 50.828125 35.296875 
Q 50.828125 22.703125 48.234375 14.96875 
Q 45.65625 7.234375 40.5 3 
Q 35.359375 -1.21875 27.484375 -1.21875 
Q 17.140625 -1.21875 11.234375 6.203125 
Q 4.15625 15.140625 4.15625 35.296875 
z
M 13.1875 35.296875 
Q 13.1875 17.671875 17.3125 11.828125 
Q 21.4375 6 27.484375 6 
Q 33.546875 6 37.671875 11.859375 
Q 41.796875 17.71875 41.796875 35.296875 
Q 41.796875 52.984375 37.671875 58.78125 
Q 33.546875 64.59375 27.390625 64.59375 
Q 21.34375 64.59375 17.71875 59.46875 
Q 13.1875 52.9375 13.1875 35.296875 
z
" id="ArialMT-48"/>
      </defs>
      <g style="fill:#262626;" transform="translate(365.375802 655.247187)scale(0.22 -0.22)">
       <use xlink:href="#ArialMT-54"/>
       <use x="55.615234" xlink:href="#ArialMT-48"/>
      </g>
     </g>
    </g>
    <g id="xtick_3">
     <g id="line2d_3">
      <path clip-path="url(#p21a1d99dd9)" d="M 507.98766 630 
L 507.98766 86.4 
" style="fill:none;stroke:#cccccc;stroke-linecap:round;"/>
     </g>
     <g id="text_3">
      <!-- 61 -->
      <defs>
       <path d="M 37.25 0 
L 28.46875 0 
L 28.46875 56 
Q 25.296875 52.984375 20.140625 49.953125 
Q 14.984375 46.921875 10.890625 45.40625 
L 10.890625 53.90625 
Q 18.265625 57.375 23.78125 62.296875 
Q 29.296875 67.234375 31.59375 71.875 
L 37.25 71.875 
z
" id="ArialMT-49"/>
      </defs>
      <g style="fill:#262626;" transform="translate(495.753598 655.247187)scale(0.22 -0.22)">
       <use xlink:href="#ArialMT-54"/>
       <use x="55.615234" xlink:href="#ArialMT-49"/>
      </g>
     </g>
    </g>
    <g id="xtick_4">
     <g id="line2d_4">
      <path clip-path="url(#p21a1d99dd9)" d="M 638.365456 630 
L 638.365456 86.4 
" style="fill:none;stroke:#cccccc;stroke-linecap:round;"/>
     </g>
     <g id="text_4">
      <!-- 62 -->
      <defs>
       <path d="M 50.34375 8.453125 
L 50.34375 0 
L 3.03125 0 
Q 2.9375 3.171875 4.046875 6.109375 
Q 5.859375 10.9375 9.828125 15.625 
Q 13.8125 20.3125 21.34375 26.46875 
Q 33.015625 36.03125 37.109375 41.625 
Q 41.21875 47.21875 41.21875 52.203125 
Q 41.21875 57.421875 37.46875 61 
Q 33.734375 64.59375 27.734375 64.59375 
Q 21.390625 64.59375 17.578125 60.78125 
Q 13.765625 56.984375 13.71875 50.25 
L 4.6875 51.171875 
Q 5.609375 61.28125 11.65625 66.578125 
Q 17.71875 71.875 27.9375 71.875 
Q 38.234375 71.875 44.234375 66.15625 
Q 50.25 60.453125 50.25 52 
Q 50.25 47.703125 48.484375 43.546875 
Q 46.734375 39.40625 42.65625 34.8125 
Q 38.578125 30.21875 29.109375 22.21875 
Q 21.1875 15.578125 18.9375 13.203125 
Q 16.703125 10.84375 15.234375 8.453125 
z
" id="ArialMT-50"/>
      </defs>
      <g style="fill:#262626;" transform="translate(626.131393 655.247187)scale(0.22 -0.22)">
       <use xlink:href="#ArialMT-54"/>
       <use x="55.615234" xlink:href="#ArialMT-50"/>
      </g>
     </g>
    </g>
    <g id="xtick_5">
     <g id="line2d_5">
      <path clip-path="url(#p21a1d99dd9)" d="M 768.743252 630 
L 768.743252 86.4 
" style="fill:none;stroke:#cccccc;stroke-linecap:round;"/>
     </g>
     <g id="text_5">
      <!-- 63 -->
      <defs>
       <path d="M 4.203125 18.890625 
L 12.984375 20.0625 
Q 14.5 12.59375 18.140625 9.296875 
Q 21.78125 6 27 6 
Q 33.203125 6 37.46875 10.296875 
Q 41.75 14.59375 41.75 20.953125 
Q 41.75 27 37.796875 30.921875 
Q 33.84375 34.859375 27.734375 34.859375 
Q 25.25 34.859375 21.53125 33.890625 
L 22.515625 41.609375 
Q 23.390625 41.5 23.921875 41.5 
Q 29.546875 41.5 34.03125 44.421875 
Q 38.53125 47.359375 38.53125 53.46875 
Q 38.53125 58.296875 35.25 61.46875 
Q 31.984375 64.65625 26.8125 64.65625 
Q 21.6875 64.65625 18.265625 61.421875 
Q 14.84375 58.203125 13.875 51.765625 
L 5.078125 53.328125 
Q 6.6875 62.15625 12.390625 67.015625 
Q 18.109375 71.875 26.609375 71.875 
Q 32.46875 71.875 37.390625 69.359375 
Q 42.328125 66.84375 44.9375 62.5 
Q 47.5625 58.15625 47.5625 53.265625 
Q 47.5625 48.640625 45.0625 44.828125 
Q 42.578125 41.015625 37.703125 38.765625 
Q 44.046875 37.3125 47.5625 32.6875 
Q 51.078125 28.078125 51.078125 21.140625 
Q 51.078125 11.765625 44.234375 5.25 
Q 37.40625 -1.265625 26.953125 -1.265625 
Q 17.53125 -1.265625 11.296875 4.34375 
Q 5.078125 9.96875 4.203125 18.890625 
z
" id="ArialMT-51"/>
      </defs>
      <g style="fill:#262626;" transform="translate(756.509189 655.247187)scale(0.22 -0.22)">
       <use xlink:href="#ArialMT-54"/>
       <use x="55.615234" xlink:href="#ArialMT-51"/>
      </g>
     </g>
    </g>
    <g id="xtick_6">
     <g id="line2d_6">
      <path clip-path="url(#p21a1d99dd9)" d="M 899.121048 630 
L 899.121048 86.4 
" style="fill:none;stroke:#cccccc;stroke-linecap:round;"/>
     </g>
     <g id="text_6">
      <!-- 64 -->
      <defs>
       <path d="M 32.328125 0 
L 32.328125 17.140625 
L 1.265625 17.140625 
L 1.265625 25.203125 
L 33.9375 71.578125 
L 41.109375 71.578125 
L 41.109375 25.203125 
L 50.78125 25.203125 
L 50.78125 17.140625 
L 41.109375 17.140625 
L 41.109375 0 
z
M 32.328125 25.203125 
L 32.328125 57.46875 
L 9.90625 25.203125 
z
" id="ArialMT-52"/>
      </defs>
      <g style="fill:#262626;" transform="translate(886.886985 655.247187)scale(0.22 -0.22)">
       <use xlink:href="#ArialMT-54"/>
       <use x="55.615234" xlink:href="#ArialMT-52"/>
      </g>
     </g>
    </g>
    <g id="xtick_7">
     <g id="line2d_7">
      <path clip-path="url(#p21a1d99dd9)" d="M 1029.498843 630 
L 1029.498843 86.4 
" style="fill:none;stroke:#cccccc;stroke-linecap:round;"/>
     </g>
     <g id="text_7">
      <!-- 65 -->
      <g style="fill:#262626;" transform="translate(1017.264781 655.247187)scale(0.22 -0.22)">
       <use xlink:href="#ArialMT-54"/>
       <use x="55.615234" xlink:href="#ArialMT-53"/>
      </g>
     </g>
    </g>
    <g id="text_8">
     <!-- Simulation Result -->
     <defs>
      <path d="M 4.5 23 
L 13.421875 23.78125 
Q 14.0625 18.40625 16.375 14.96875 
Q 18.703125 11.53125 23.578125 9.40625 
Q 28.46875 7.28125 34.578125 7.28125 
Q 39.984375 7.28125 44.140625 8.890625 
Q 48.296875 10.5 50.3125 13.296875 
Q 52.34375 16.109375 52.34375 19.4375 
Q 52.34375 22.796875 50.390625 25.3125 
Q 48.4375 27.828125 43.953125 29.546875 
Q 41.0625 30.671875 31.203125 33.03125 
Q 21.34375 35.40625 17.390625 37.5 
Q 12.25 40.1875 9.734375 44.15625 
Q 7.234375 48.140625 7.234375 53.078125 
Q 7.234375 58.5 10.296875 63.203125 
Q 13.375 67.921875 19.28125 70.359375 
Q 25.203125 72.796875 32.421875 72.796875 
Q 40.375 72.796875 46.453125 70.234375 
Q 52.546875 67.671875 55.8125 62.6875 
Q 59.078125 57.71875 59.328125 51.421875 
L 50.25 50.734375 
Q 49.515625 57.515625 45.28125 60.984375 
Q 41.0625 64.453125 32.8125 64.453125 
Q 24.21875 64.453125 20.28125 61.296875 
Q 16.359375 58.15625 16.359375 53.71875 
Q 16.359375 49.859375 19.140625 47.359375 
Q 21.875 44.875 33.421875 42.265625 
Q 44.96875 39.65625 49.265625 37.703125 
Q 55.515625 34.8125 58.484375 30.390625 
Q 61.46875 25.984375 61.46875 20.21875 
Q 61.46875 14.5 58.203125 9.4375 
Q 54.9375 4.390625 48.796875 1.578125 
Q 42.671875 -1.21875 35.015625 -1.21875 
Q 25.296875 -1.21875 18.71875 1.609375 
Q 12.15625 4.4375 8.421875 10.125 
Q 4.6875 15.828125 4.5 23 
z
" id="ArialMT-83"/>
      <path d="M 6.640625 61.46875 
L 6.640625 71.578125 
L 15.4375 71.578125 
L 15.4375 61.46875 
z
M 6.640625 0 
L 6.640625 51.859375 
L 15.4375 51.859375 
L 15.4375 0 
z
" id="ArialMT-105"/>
      <path d="M 6.59375 0 
L 6.59375 51.859375 
L 14.453125 51.859375 
L 14.453125 44.578125 
Q 16.890625 48.390625 20.9375 50.703125 
Q 25 53.03125 30.171875 53.03125 
Q 35.9375 53.03125 39.625 50.640625 
Q 43.3125 48.25 44.828125 43.953125 
Q 50.984375 53.03125 60.84375 53.03125 
Q 68.5625 53.03125 72.703125 48.75 
Q 76.859375 44.484375 76.859375 35.59375 
L 76.859375 0 
L 68.109375 0 
L 68.109375 32.671875 
Q 68.109375 37.9375 67.25 40.25 
Q 66.40625 42.578125 64.15625 43.984375 
Q 61.921875 45.40625 58.890625 45.40625 
Q 53.421875 45.40625 49.796875 41.765625 
Q 46.1875 38.140625 46.1875 30.125 
L 46.1875 0 
L 37.40625 0 
L 37.40625 33.6875 
Q 37.40625 39.546875 35.25 42.46875 
Q 33.109375 45.40625 28.21875 45.40625 
Q 24.515625 45.40625 21.359375 43.453125 
Q 18.21875 41.5 16.796875 37.734375 
Q 15.375 33.984375 15.375 26.90625 
L 15.375 0 
z
" id="ArialMT-109"/>
      <path d="M 40.578125 0 
L 40.578125 7.625 
Q 34.515625 -1.171875 24.125 -1.171875 
Q 19.53125 -1.171875 15.546875 0.578125 
Q 11.578125 2.34375 9.640625 5 
Q 7.71875 7.671875 6.9375 11.53125 
Q 6.390625 14.109375 6.390625 19.734375 
L 6.390625 51.859375 
L 15.1875 51.859375 
L 15.1875 23.09375 
Q 15.1875 16.21875 15.71875 13.8125 
Q 16.546875 10.359375 19.234375 8.375 
Q 21.921875 6.390625 25.875 6.390625 
Q 29.828125 6.390625 33.296875 8.421875 
Q 36.765625 10.453125 38.203125 13.9375 
Q 39.65625 17.4375 39.65625 24.078125 
L 39.65625 51.859375 
L 48.4375 51.859375 
L 48.4375 0 
z
" id="ArialMT-117"/>
      <path d="M 6.390625 0 
L 6.390625 71.578125 
L 15.1875 71.578125 
L 15.1875 0 
z
" id="ArialMT-108"/>
      <path d="M 40.4375 6.390625 
Q 35.546875 2.25 31.03125 0.53125 
Q 26.515625 -1.171875 21.34375 -1.171875 
Q 12.796875 -1.171875 8.203125 3 
Q 3.609375 7.171875 3.609375 13.671875 
Q 3.609375 17.484375 5.34375 20.625 
Q 7.078125 23.78125 9.890625 25.6875 
Q 12.703125 27.59375 16.21875 28.5625 
Q 18.796875 29.25 24.03125 29.890625 
Q 34.671875 31.15625 39.703125 32.90625 
Q 39.75 34.71875 39.75 35.203125 
Q 39.75 40.578125 37.25 42.78125 
Q 33.890625 45.75 27.25 45.75 
Q 21.046875 45.75 18.09375 43.578125 
Q 15.140625 41.40625 13.71875 35.890625 
L 5.125 37.0625 
Q 6.296875 42.578125 8.984375 45.96875 
Q 11.671875 49.359375 16.75 51.1875 
Q 21.828125 53.03125 28.515625 53.03125 
Q 35.15625 53.03125 39.296875 51.46875 
Q 43.453125 49.90625 45.40625 47.53125 
Q 47.359375 45.171875 48.140625 41.546875 
Q 48.578125 39.3125 48.578125 33.453125 
L 48.578125 21.734375 
Q 48.578125 9.46875 49.140625 6.21875 
Q 49.703125 2.984375 51.375 0 
L 42.1875 0 
Q 40.828125 2.734375 40.4375 6.390625 
z
M 39.703125 26.03125 
Q 34.90625 24.078125 25.34375 22.703125 
Q 19.921875 21.921875 17.671875 20.9375 
Q 15.4375 19.96875 14.203125 18.09375 
Q 12.984375 16.21875 12.984375 13.921875 
Q 12.984375 10.40625 15.640625 8.0625 
Q 18.3125 5.71875 23.4375 5.71875 
Q 28.515625 5.71875 32.46875 7.9375 
Q 36.421875 10.15625 38.28125 14.015625 
Q 39.703125 17 39.703125 22.796875 
z
" id="ArialMT-97"/>
      <path d="M 25.78125 7.859375 
L 27.046875 0.09375 
Q 23.34375 -0.6875 20.40625 -0.6875 
Q 15.625 -0.6875 12.984375 0.828125 
Q 10.359375 2.34375 9.28125 4.8125 
Q 8.203125 7.28125 8.203125 15.1875 
L 8.203125 45.015625 
L 1.765625 45.015625 
L 1.765625 51.859375 
L 8.203125 51.859375 
L 8.203125 64.703125 
L 16.9375 69.96875 
L 16.9375 51.859375 
L 25.78125 51.859375 
L 25.78125 45.015625 
L 16.9375 45.015625 
L 16.9375 14.703125 
Q 16.9375 10.9375 17.40625 9.859375 
Q 17.875 8.796875 18.921875 8.15625 
Q 19.96875 7.515625 21.921875 7.515625 
Q 23.390625 7.515625 25.78125 7.859375 
z
" id="ArialMT-116"/>
      <path d="M 3.328125 25.921875 
Q 3.328125 40.328125 11.328125 47.265625 
Q 18.015625 53.03125 27.640625 53.03125 
Q 38.328125 53.03125 45.109375 46.015625 
Q 51.90625 39.015625 51.90625 26.65625 
Q 51.90625 16.65625 48.90625 10.90625 
Q 45.90625 5.171875 40.15625 2 
Q 34.421875 -1.171875 27.640625 -1.171875 
Q 16.75 -1.171875 10.03125 5.8125 
Q 3.328125 12.796875 3.328125 25.921875 
z
M 12.359375 25.921875 
Q 12.359375 15.96875 16.703125 11.015625 
Q 21.046875 6.0625 27.640625 6.0625 
Q 34.1875 6.0625 38.53125 11.03125 
Q 42.875 16.015625 42.875 26.21875 
Q 42.875 35.84375 38.5 40.796875 
Q 34.125 45.75 27.640625 45.75 
Q 21.046875 45.75 16.703125 40.8125 
Q 12.359375 35.890625 12.359375 25.921875 
z
" id="ArialMT-111"/>
      <path d="M 6.59375 0 
L 6.59375 51.859375 
L 14.5 51.859375 
L 14.5 44.484375 
Q 20.21875 53.03125 31 53.03125 
Q 35.6875 53.03125 39.625 51.34375 
Q 43.5625 49.65625 45.515625 46.921875 
Q 47.46875 44.1875 48.25 40.4375 
Q 48.734375 37.984375 48.734375 31.890625 
L 48.734375 0 
L 39.9375 0 
L 39.9375 31.546875 
Q 39.9375 36.921875 38.90625 39.578125 
Q 37.890625 42.234375 35.28125 43.8125 
Q 32.671875 45.40625 29.15625 45.40625 
Q 23.53125 45.40625 19.453125 41.84375 
Q 15.375 38.28125 15.375 28.328125 
L 15.375 0 
z
" id="ArialMT-110"/>
      <path id="ArialMT-32"/>
      <path d="M 7.859375 0 
L 7.859375 71.578125 
L 39.59375 71.578125 
Q 49.171875 71.578125 54.140625 69.640625 
Q 59.125 67.71875 62.109375 62.828125 
Q 65.09375 57.953125 65.09375 52.046875 
Q 65.09375 44.4375 60.15625 39.203125 
Q 55.21875 33.984375 44.921875 32.5625 
Q 48.6875 30.765625 50.640625 29 
Q 54.78125 25.203125 58.5 19.484375 
L 70.953125 0 
L 59.03125 0 
L 49.5625 14.890625 
Q 45.40625 21.34375 42.71875 24.75 
Q 40.046875 28.171875 37.921875 29.53125 
Q 35.796875 30.90625 33.59375 31.453125 
Q 31.984375 31.78125 28.328125 31.78125 
L 17.328125 31.78125 
L 17.328125 0 
z
M 17.328125 39.984375 
L 37.703125 39.984375 
Q 44.1875 39.984375 47.84375 41.328125 
Q 51.515625 42.671875 53.421875 45.625 
Q 55.328125 48.578125 55.328125 52.046875 
Q 55.328125 57.125 51.640625 60.390625 
Q 47.953125 63.671875 39.984375 63.671875 
L 17.328125 63.671875 
z
" id="ArialMT-82"/>
      <path d="M 42.09375 16.703125 
L 51.171875 15.578125 
Q 49.03125 7.625 43.21875 3.21875 
Q 37.40625 -1.171875 28.375 -1.171875 
Q 17 -1.171875 10.328125 5.828125 
Q 3.65625 12.84375 3.65625 25.484375 
Q 3.65625 38.578125 10.390625 45.796875 
Q 17.140625 53.03125 27.875 53.03125 
Q 38.28125 53.03125 44.875 45.953125 
Q 51.46875 38.875 51.46875 26.03125 
Q 51.46875 25.25 51.421875 23.6875 
L 12.75 23.6875 
Q 13.234375 15.140625 17.578125 10.59375 
Q 21.921875 6.0625 28.421875 6.0625 
Q 33.25 6.0625 36.671875 8.59375 
Q 40.09375 11.140625 42.09375 16.703125 
z
M 13.234375 30.90625 
L 42.1875 30.90625 
Q 41.609375 37.453125 38.875 40.71875 
Q 34.671875 45.796875 27.984375 45.796875 
Q 21.921875 45.796875 17.796875 41.75 
Q 13.671875 37.703125 13.234375 30.90625 
z
" id="ArialMT-101"/>
      <path d="M 3.078125 15.484375 
L 11.765625 16.84375 
Q 12.5 11.625 15.84375 8.84375 
Q 19.1875 6.0625 25.203125 6.0625 
Q 31.25 6.0625 34.171875 8.515625 
Q 37.109375 10.984375 37.109375 14.3125 
Q 37.109375 17.28125 34.515625 19 
Q 32.71875 20.171875 25.53125 21.96875 
Q 15.875 24.421875 12.140625 26.203125 
Q 8.40625 27.984375 6.46875 31.125 
Q 4.546875 34.28125 4.546875 38.09375 
Q 4.546875 41.546875 6.125 44.5 
Q 7.71875 47.46875 10.453125 49.421875 
Q 12.5 50.921875 16.03125 51.96875 
Q 19.578125 53.03125 23.640625 53.03125 
Q 29.734375 53.03125 34.34375 51.265625 
Q 38.96875 49.515625 41.15625 46.5 
Q 43.359375 43.5 44.1875 38.484375 
L 35.59375 37.3125 
Q 35.015625 41.3125 32.203125 43.546875 
Q 29.390625 45.796875 24.265625 45.796875 
Q 18.21875 45.796875 15.625 43.796875 
Q 13.03125 41.796875 13.03125 39.109375 
Q 13.03125 37.40625 14.109375 36.03125 
Q 15.1875 34.625 17.484375 33.6875 
Q 18.796875 33.203125 25.25 31.453125 
Q 34.578125 28.953125 38.25 27.359375 
Q 41.9375 25.78125 44.03125 22.75 
Q 46.140625 19.734375 46.140625 15.234375 
Q 46.140625 10.84375 43.578125 6.953125 
Q 41.015625 3.078125 36.171875 0.953125 
Q 31.34375 -1.171875 25.25 -1.171875 
Q 15.140625 -1.171875 9.84375 3.03125 
Q 4.546875 7.234375 3.078125 15.484375 
z
" id="ArialMT-115"/>
     </defs>
     <g style="fill:#262626;" transform="translate(497.02875 680.798437)scale(0.24 -0.24)">
      <use xlink:href="#ArialMT-83"/>
      <use x="66.699219" xlink:href="#ArialMT-105"/>
      <use x="88.916016" xlink:href="#ArialMT-109"/>
      <use x="172.216797" xlink:href="#ArialMT-117"/>
      <use x="227.832031" xlink:href="#ArialMT-108"/>
      <use x="250.048828" xlink:href="#ArialMT-97"/>
      <use x="305.664062" xlink:href="#ArialMT-116"/>
      <use x="333.447266" xlink:href="#ArialMT-105"/>
      <use x="355.664062" xlink:href="#ArialMT-111"/>
      <use x="411.279297" xlink:href="#ArialMT-110"/>
      <use x="466.894531" xlink:href="#ArialMT-32"/>
      <use x="494.677734" xlink:href="#ArialMT-82"/>
      <use x="566.894531" xlink:href="#ArialMT-101"/>
      <use x="622.509766" xlink:href="#ArialMT-115"/>
      <use x="672.509766" xlink:href="#ArialMT-117"/>
      <use x="728.125" xlink:href="#ArialMT-108"/>
      <use x="750.341797" xlink:href="#ArialMT-116"/>
     </g>
    </g>
   </g>
   <g id="matplotlib.axis_2">
    <g id="ytick_1">
     <g id="line2d_8">
      <path clip-path="url(#p21a1d99dd9)" d="M 144 620.316587 
L 1036.8 620.316587 
" style="fill:none;stroke:#cccccc;stroke-linecap:round;"/>
     </g>
     <g id="text_9">
      <!-- 58 -->
      <defs>
       <path d="M 17.671875 38.8125 
Q 12.203125 40.828125 9.5625 44.53125 
Q 6.9375 48.25 6.9375 53.421875 
Q 6.9375 61.234375 12.546875 66.546875 
Q 18.171875 71.875 27.484375 71.875 
Q 36.859375 71.875 42.578125 66.421875 
Q 48.296875 60.984375 48.296875 53.171875 
Q 48.296875 48.1875 45.671875 44.5 
Q 43.0625 40.828125 37.75 38.8125 
Q 44.34375 36.671875 47.78125 31.875 
Q 51.21875 27.09375 51.21875 20.453125 
Q 51.21875 11.28125 44.71875 5.03125 
Q 38.234375 -1.21875 27.640625 -1.21875 
Q 17.046875 -1.21875 10.546875 5.046875 
Q 4.046875 11.328125 4.046875 20.703125 
Q 4.046875 27.6875 7.59375 32.390625 
Q 11.140625 37.109375 17.671875 38.8125 
z
M 15.921875 53.71875 
Q 15.921875 48.640625 19.1875 45.40625 
Q 22.46875 42.1875 27.6875 42.1875 
Q 32.765625 42.1875 36.015625 45.375 
Q 39.265625 48.578125 39.265625 53.21875 
Q 39.265625 58.0625 35.90625 61.359375 
Q 32.5625 64.65625 27.59375 64.65625 
Q 22.5625 64.65625 19.234375 61.421875 
Q 15.921875 58.203125 15.921875 53.71875 
z
M 13.09375 20.65625 
Q 13.09375 16.890625 14.875 13.375 
Q 16.65625 9.859375 20.171875 7.921875 
Q 23.6875 6 27.734375 6 
Q 34.03125 6 38.125 10.046875 
Q 42.234375 14.109375 42.234375 20.359375 
Q 42.234375 26.703125 38.015625 30.859375 
Q 33.796875 35.015625 27.4375 35.015625 
Q 21.234375 35.015625 17.15625 30.90625 
Q 13.09375 26.8125 13.09375 20.65625 
z
" id="ArialMT-56"/>
      </defs>
      <g style="fill:#262626;" transform="translate(110.031875 628.19018)scale(0.22 -0.22)">
       <use xlink:href="#ArialMT-53"/>
       <use x="55.615234" xlink:href="#ArialMT-56"/>
      </g>
     </g>
    </g>
    <g id="ytick_2">
     <g id="line2d_9">
      <path clip-path="url(#p21a1d99dd9)" d="M 144 548.149991 
L 1036.8 548.149991 
" style="fill:none;stroke:#cccccc;stroke-linecap:round;"/>
     </g>
     <g id="text_10">
      <!-- 59 -->
      <g style="fill:#262626;" transform="translate(110.031875 556.023585)scale(0.22 -0.22)">
       <use xlink:href="#ArialMT-53"/>
       <use x="55.615234" xlink:href="#ArialMT-57"/>
      </g>
     </g>
    </g>
    <g id="ytick_3">
     <g id="line2d_10">
      <path clip-path="url(#p21a1d99dd9)" d="M 144 475.983396 
L 1036.8 475.983396 
" style="fill:none;stroke:#cccccc;stroke-linecap:round;"/>
     </g>
     <g id="text_11">
      <!-- 60 -->
      <g style="fill:#262626;" transform="translate(110.031875 483.85699)scale(0.22 -0.22)">
       <use xlink:href="#ArialMT-54"/>
       <use x="55.615234" xlink:href="#ArialMT-48"/>
      </g>
     </g>
    </g>
    <g id="ytick_4">
     <g id="line2d_11">
      <path clip-path="url(#p21a1d99dd9)" d="M 144 403.816801 
L 1036.8 403.816801 
" style="fill:none;stroke:#cccccc;stroke-linecap:round;"/>
     </g>
     <g id="text_12">
      <!-- 61 -->
      <g style="fill:#262626;" transform="translate(110.031875 411.690395)scale(0.22 -0.22)">
       <use xlink:href="#ArialMT-54"/>
       <use x="55.615234" xlink:href="#ArialMT-49"/>
      </g>
     </g>
    </g>
    <g id="ytick_5">
     <g id="line2d_12">
      <path clip-path="url(#p21a1d99dd9)" d="M 144 331.650206 
L 1036.8 331.650206 
" style="fill:none;stroke:#cccccc;stroke-linecap:round;"/>
     </g>
     <g id="text_13">
      <!-- 62 -->
      <g style="fill:#262626;" transform="translate(110.031875 339.5238)scale(0.22 -0.22)">
       <use xlink:href="#ArialMT-54"/>
       <use x="55.615234" xlink:href="#ArialMT-50"/>
      </g>
     </g>
    </g>
    <g id="ytick_6">
     <g id="line2d_13">
      <path clip-path="url(#p21a1d99dd9)" d="M 144 259.483611 
L 1036.8 259.483611 
" style="fill:none;stroke:#cccccc;stroke-linecap:round;"/>
     </g>
     <g id="text_14">
      <!-- 63 -->
      <g style="fill:#262626;" transform="translate(110.031875 267.357204)scale(0.22 -0.22)">
       <use xlink:href="#ArialMT-54"/>
       <use x="55.615234" xlink:href="#ArialMT-51"/>
      </g>
     </g>
    </g>
    <g id="ytick_7">
     <g id="line2d_14">
      <path clip-path="url(#p21a1d99dd9)" d="M 144 187.317015 
L 1036.8 187.317015 
" style="fill:none;stroke:#cccccc;stroke-linecap:round;"/>
     </g>
     <g id="text_15">
      <!-- 64 -->
      <g style="fill:#262626;" transform="translate(110.031875 195.190609)scale(0.22 -0.22)">
       <use xlink:href="#ArialMT-54"/>
       <use x="55.615234" xlink:href="#ArialMT-52"/>
      </g>
     </g>
    </g>
    <g id="ytick_8">
     <g id="line2d_15">
      <path clip-path="url(#p21a1d99dd9)" d="M 144 115.15042 
L 1036.8 115.15042 
" style="fill:none;stroke:#cccccc;stroke-linecap:round;"/>
     </g>
     <g id="text_16">
      <!-- 65 -->
      <g style="fill:#262626;" transform="translate(110.031875 123.024014)scale(0.22 -0.22)">
       <use xlink:href="#ArialMT-54"/>
       <use x="55.615234" xlink:href="#ArialMT-53"/>
      </g>
     </g>
    </g>
    <g id="text_17">
     <!-- Predicted -->
     <defs>
      <path d="M 7.71875 0 
L 7.71875 71.578125 
L 34.71875 71.578125 
Q 41.84375 71.578125 45.609375 70.90625 
Q 50.875 70.015625 54.4375 67.546875 
Q 58.015625 65.09375 60.1875 60.640625 
Q 62.359375 56.203125 62.359375 50.875 
Q 62.359375 41.75 56.546875 35.421875 
Q 50.734375 29.109375 35.546875 29.109375 
L 17.1875 29.109375 
L 17.1875 0 
z
M 17.1875 37.546875 
L 35.6875 37.546875 
Q 44.875 37.546875 48.734375 40.96875 
Q 52.59375 44.390625 52.59375 50.59375 
Q 52.59375 55.078125 50.3125 58.265625 
Q 48.046875 61.46875 44.34375 62.5 
Q 41.9375 63.140625 35.5 63.140625 
L 17.1875 63.140625 
z
" id="ArialMT-80"/>
      <path d="M 6.5 0 
L 6.5 51.859375 
L 14.40625 51.859375 
L 14.40625 44 
Q 17.4375 49.515625 20 51.265625 
Q 22.5625 53.03125 25.640625 53.03125 
Q 30.078125 53.03125 34.671875 50.203125 
L 31.640625 42.046875 
Q 28.421875 43.953125 25.203125 43.953125 
Q 22.3125 43.953125 20.015625 42.21875 
Q 17.71875 40.484375 16.75 37.40625 
Q 15.28125 32.71875 15.28125 27.15625 
L 15.28125 0 
z
" id="ArialMT-114"/>
      <path d="M 40.234375 0 
L 40.234375 6.546875 
Q 35.296875 -1.171875 25.734375 -1.171875 
Q 19.53125 -1.171875 14.328125 2.25 
Q 9.125 5.671875 6.265625 11.796875 
Q 3.421875 17.921875 3.421875 25.875 
Q 3.421875 33.640625 6 39.96875 
Q 8.59375 46.296875 13.765625 49.65625 
Q 18.953125 53.03125 25.34375 53.03125 
Q 30.03125 53.03125 33.6875 51.046875 
Q 37.359375 49.078125 39.65625 45.90625 
L 39.65625 71.578125 
L 48.390625 71.578125 
L 48.390625 0 
z
M 12.453125 25.875 
Q 12.453125 15.921875 16.640625 10.984375 
Q 20.84375 6.0625 26.5625 6.0625 
Q 32.328125 6.0625 36.34375 10.765625 
Q 40.375 15.484375 40.375 25.140625 
Q 40.375 35.796875 36.265625 40.765625 
Q 32.171875 45.75 26.171875 45.75 
Q 20.3125 45.75 16.375 40.96875 
Q 12.453125 36.1875 12.453125 25.875 
z
" id="ArialMT-100"/>
      <path d="M 40.4375 19 
L 49.078125 17.875 
Q 47.65625 8.9375 41.8125 3.875 
Q 35.984375 -1.171875 27.484375 -1.171875 
Q 16.84375 -1.171875 10.375 5.78125 
Q 3.90625 12.75 3.90625 25.734375 
Q 3.90625 34.125 6.6875 40.421875 
Q 9.46875 46.734375 15.15625 49.875 
Q 20.84375 53.03125 27.546875 53.03125 
Q 35.984375 53.03125 41.359375 48.75 
Q 46.734375 44.484375 48.25 36.625 
L 39.703125 35.296875 
Q 38.484375 40.53125 35.375 43.15625 
Q 32.28125 45.796875 27.875 45.796875 
Q 21.234375 45.796875 17.078125 41.03125 
Q 12.9375 36.28125 12.9375 25.984375 
Q 12.9375 15.53125 16.9375 10.796875 
Q 20.953125 6.0625 27.390625 6.0625 
Q 32.5625 6.0625 36.03125 9.234375 
Q 39.5 12.40625 40.4375 19 
z
" id="ArialMT-99"/>
     </defs>
     <g style="fill:#262626;" transform="translate(101.261875 408.8925)rotate(-90)scale(0.24 -0.24)">
      <use xlink:href="#ArialMT-80"/>
      <use x="66.699219" xlink:href="#ArialMT-114"/>
      <use x="100" xlink:href="#ArialMT-101"/>
      <use x="155.615234" xlink:href="#ArialMT-100"/>
      <use x="211.230469" xlink:href="#ArialMT-105"/>
      <use x="233.447266" xlink:href="#ArialMT-99"/>
      <use x="283.447266" xlink:href="#ArialMT-116"/>
      <use x="311.230469" xlink:href="#ArialMT-101"/>
      <use x="366.845703" xlink:href="#ArialMT-100"/>
     </g>
    </g>
   </g>
   <g id="line2d_16">
    <defs>
     <path d="M -5 0 
L 5 0 
M 0 5 
L 0 -5 
" id="m651ae965b6" style="stroke:#64b5cd;"/>
    </defs>
    <g clip-path="url(#p21a1d99dd9)">
     <use style="fill:#64b5cd;stroke:#64b5cd;" x="759.486428" xlink:href="#m651ae965b6" y="336.260844"/>
     <use style="fill:#64b5cd;stroke:#64b5cd;" x="628.707841" xlink:href="#m651ae965b6" y="320.688505"/>
     <use style="fill:#64b5cd;stroke:#64b5cd;" x="539.669465" xlink:href="#m651ae965b6" y="335.273621"/>
     <use style="fill:#64b5cd;stroke:#64b5cd;" x="752.054894" xlink:href="#m651ae965b6" y="327.212945"/>
     <use style="fill:#64b5cd;stroke:#64b5cd;" x="705.379643" xlink:href="#m651ae965b6" y="330.565288"/>
     <use style="fill:#64b5cd;stroke:#64b5cd;" x="816.983036" xlink:href="#m651ae965b6" y="318.804162"/>
     <use style="fill:#64b5cd;stroke:#64b5cd;" x="532.889819" xlink:href="#m651ae965b6" y="335.460191"/>
     <use style="fill:#64b5cd;stroke:#64b5cd;" x="544.754199" xlink:href="#m651ae965b6" y="321.031678"/>
     <use style="fill:#64b5cd;stroke:#64b5cd;" x="636.540167" xlink:href="#m651ae965b6" y="318.391297"/>
     <use style="fill:#64b5cd;stroke:#64b5cd;" x="736.148803" xlink:href="#m651ae965b6" y="317.625549"/>
     <use style="fill:#64b5cd;stroke:#64b5cd;" x="432.031827" xlink:href="#m651ae965b6" y="330.485541"/>
     <use style="fill:#64b5cd;stroke:#64b5cd;" x="722.328756" xlink:href="#m651ae965b6" y="321.417914"/>
     <use style="fill:#64b5cd;stroke:#64b5cd;" x="360.13924" xlink:href="#m651ae965b6" y="343.629974"/>
     <use style="fill:#64b5cd;stroke:#64b5cd;" x="369.917574" xlink:href="#m651ae965b6" y="338.276441"/>
     <use style="fill:#64b5cd;stroke:#64b5cd;" x="638.495834" xlink:href="#m651ae965b6" y="335.892532"/>
     <use style="fill:#64b5cd;stroke:#64b5cd;" x="691.298841" xlink:href="#m651ae965b6" y="332.129165"/>
     <use style="fill:#64b5cd;stroke:#64b5cd;" x="267.049494" xlink:href="#m651ae965b6" y="314.030256"/>
     <use style="fill:#64b5cd;stroke:#64b5cd;" x="979.824903" xlink:href="#m651ae965b6" y="325.486437"/>
     <use style="fill:#64b5cd;stroke:#64b5cd;" x="701.859443" xlink:href="#m651ae965b6" y="338.674861"/>
     <use style="fill:#64b5cd;stroke:#64b5cd;" x="610.464608" xlink:href="#m651ae965b6" y="338.991502"/>
     <use style="fill:#64b5cd;stroke:#64b5cd;" x="627.022588" xlink:href="#m651ae965b6" y="330.790507"/>
     <use style="fill:#64b5cd;stroke:#64b5cd;" x="786.083499" xlink:href="#m651ae965b6" y="335.542532"/>
     <use style="fill:#64b5cd;stroke:#64b5cd;" x="545.145332" xlink:href="#m651ae965b6" y="333.70168"/>
     <use style="fill:#64b5cd;stroke:#64b5cd;" x="598.860984" xlink:href="#m651ae965b6" y="319.671282"/>
     <use style="fill:#64b5cd;stroke:#64b5cd;" x="666.135927" xlink:href="#m651ae965b6" y="312.522581"/>
     <use style="fill:#64b5cd;stroke:#64b5cd;" x="624.936543" xlink:href="#m651ae965b6" y="329.96434"/>
     <use style="fill:#64b5cd;stroke:#64b5cd;" x="746.448649" xlink:href="#m651ae965b6" y="325.969238"/>
     <use style="fill:#64b5cd;stroke:#64b5cd;" x="696.253197" xlink:href="#m651ae965b6" y="319.922149"/>
     <use style="fill:#64b5cd;stroke:#64b5cd;" x="642.798301" xlink:href="#m651ae965b6" y="331.810157"/>
     <use style="fill:#64b5cd;stroke:#64b5cd;" x="648.534924" xlink:href="#m651ae965b6" y="330.073198"/>
     <use style="fill:#64b5cd;stroke:#64b5cd;" x="929.499074" xlink:href="#m651ae965b6" y="311.90919"/>
     <use style="fill:#64b5cd;stroke:#64b5cd;" x="650.763745" xlink:href="#m651ae965b6" y="332.874613"/>
     <use style="fill:#64b5cd;stroke:#64b5cd;" x="649.708324" xlink:href="#m651ae965b6" y="337.46206"/>
     <use style="fill:#64b5cd;stroke:#64b5cd;" x="507.205393" xlink:href="#m651ae965b6" y="335.217843"/>
     <use style="fill:#64b5cd;stroke:#64b5cd;" x="666.918193" xlink:href="#m651ae965b6" y="324.937445"/>
     <use style="fill:#64b5cd;stroke:#64b5cd;" x="641.624901" xlink:href="#m651ae965b6" y="323.96745"/>
     <use style="fill:#64b5cd;stroke:#64b5cd;" x="521.677329" xlink:href="#m651ae965b6" y="331.614047"/>
     <use style="fill:#64b5cd;stroke:#64b5cd;" x="632.628833" xlink:href="#m651ae965b6" y="308.192011"/>
     <use style="fill:#64b5cd;stroke:#64b5cd;" x="648.143791" xlink:href="#m651ae965b6" y="315.893209"/>
     <use style="fill:#64b5cd;stroke:#64b5cd;" x="548.535155" xlink:href="#m651ae965b6" y="339.07523"/>
     <use style="fill:#64b5cd;stroke:#64b5cd;" x="675.131994" xlink:href="#m651ae965b6" y="331.179196"/>
     <use style="fill:#64b5cd;stroke:#64b5cd;" x="694.688664" xlink:href="#m651ae965b6" y="322.723304"/>
     <use style="fill:#64b5cd;stroke:#64b5cd;" x="884.127601" xlink:href="#m651ae965b6" y="295.86873"/>
     <use style="fill:#64b5cd;stroke:#64b5cd;" x="687.909018" xlink:href="#m651ae965b6" y="336.992892"/>
     <use style="fill:#64b5cd;stroke:#64b5cd;" x="1015.809175" xlink:href="#m651ae965b6" y="332.317688"/>
     <use style="fill:#64b5cd;stroke:#64b5cd;" x="665.484038" xlink:href="#m651ae965b6" y="333.913906"/>
     <use style="fill:#64b5cd;stroke:#64b5cd;" x="574.93842" xlink:href="#m651ae965b6" y="315.287553"/>
     <use style="fill:#64b5cd;stroke:#64b5cd;" x="547.62251" xlink:href="#m651ae965b6" y="304.979402"/>
     <use style="fill:#64b5cd;stroke:#64b5cd;" x="925.457362" xlink:href="#m651ae965b6" y="337.587313"/>
     <use style="fill:#64b5cd;stroke:#64b5cd;" x="769.134777" xlink:href="#m651ae965b6" y="321.474719"/>
     <use style="fill:#64b5cd;stroke:#64b5cd;" x="589.995294" xlink:href="#m651ae965b6" y="302.942514"/>
     <use style="fill:#64b5cd;stroke:#64b5cd;" x="567.439935" xlink:href="#m651ae965b6" y="328.7119"/>
     <use style="fill:#64b5cd;stroke:#64b5cd;" x="768.87363" xlink:href="#m651ae965b6" y="337.01923"/>
     <use style="fill:#64b5cd;stroke:#64b5cd;" x="689.524711" xlink:href="#m651ae965b6" y="329.428051"/>
     <use style="fill:#64b5cd;stroke:#64b5cd;" x="602.381184" xlink:href="#m651ae965b6" y="342.029675"/>
     <use style="fill:#64b5cd;stroke:#64b5cd;" x="502.381415" xlink:href="#m651ae965b6" y="331.927272"/>
     <use style="fill:#64b5cd;stroke:#64b5cd;" x="815.465225" xlink:href="#m651ae965b6" y="336.968138"/>
     <use style="fill:#64b5cd;stroke:#64b5cd;" x="757.661139" xlink:href="#m651ae965b6" y="323.38598"/>
     <use style="fill:#64b5cd;stroke:#64b5cd;" x="435.758361" xlink:href="#m651ae965b6" y="328.35862"/>
     <use style="fill:#64b5cd;stroke:#64b5cd;" x="495.589371" xlink:href="#m651ae965b6" y="338.873285"/>
     <use style="fill:#64b5cd;stroke:#64b5cd;" x="574.93842" xlink:href="#m651ae965b6" y="326.430914"/>
     <use style="fill:#64b5cd;stroke:#64b5cd;" x="745.405626" xlink:href="#m651ae965b6" y="335.026198"/>
     <use style="fill:#64b5cd;stroke:#64b5cd;" x="540.842865" xlink:href="#m651ae965b6" y="310.573022"/>
     <use style="fill:#64b5cd;stroke:#64b5cd;" x="369.396063" xlink:href="#m651ae965b6" y="329.259674"/>
     <use style="fill:#64b5cd;stroke:#64b5cd;" x="771.481186" xlink:href="#m651ae965b6" y="314.1132"/>
     <use style="fill:#64b5cd;stroke:#64b5cd;" x="593.77625" xlink:href="#m651ae965b6" y="331.526705"/>
     <use style="fill:#64b5cd;stroke:#64b5cd;" x="755.705472" xlink:href="#m651ae965b6" y="324.195665"/>
     <use style="fill:#64b5cd;stroke:#64b5cd;" x="666.52706" xlink:href="#m651ae965b6" y="304.436972"/>
     <use style="fill:#64b5cd;stroke:#64b5cd;" x="654.401925" xlink:href="#m651ae965b6" y="308.402962"/>
     <use style="fill:#64b5cd;stroke:#64b5cd;" x="632.759211" xlink:href="#m651ae965b6" y="307.716054"/>
     <use style="fill:#64b5cd;stroke:#64b5cd;" x="654.141169" xlink:href="#m651ae965b6" y="338.839184"/>
     <use style="fill:#64b5cd;stroke:#64b5cd;" x="570.240121" xlink:href="#m651ae965b6" y="333.28238"/>
     <use style="fill:#64b5cd;stroke:#64b5cd;" x="759.486428" xlink:href="#m651ae965b6" y="328.560768"/>
     <use style="fill:#64b5cd;stroke:#64b5cd;" x="602.64194" xlink:href="#m651ae965b6" y="341.711576"/>
     <use style="fill:#64b5cd;stroke:#64b5cd;" x="434.641993" xlink:href="#m651ae965b6" y="331.836387"/>
     <use style="fill:#64b5cd;stroke:#64b5cd;" x="472.5249" xlink:href="#m651ae965b6" y="316.455837"/>
     <use style="fill:#64b5cd;stroke:#64b5cd;" x="858.443175" xlink:href="#m651ae965b6" y="331.029127"/>
     <use style="fill:#64b5cd;stroke:#64b5cd;" x="739.509392" xlink:href="#m651ae965b6" y="322.490139"/>
     <use style="fill:#64b5cd;stroke:#64b5cd;" x="755.444717" xlink:href="#m651ae965b6" y="335.473834"/>
     <use style="fill:#64b5cd;stroke:#64b5cd;" x="540.842865" xlink:href="#m651ae965b6" y="333.496305"/>
     <use style="fill:#64b5cd;stroke:#64b5cd;" x="437.322895" xlink:href="#m651ae965b6" y="336.337665"/>
     <use style="fill:#64b5cd;stroke:#64b5cd;" x="617.113875" xlink:href="#m651ae965b6" y="311.485029"/>
     <use style="fill:#64b5cd;stroke:#64b5cd;" x="1008.638396" xlink:href="#m651ae965b6" y="319.993025"/>
     <use style="fill:#64b5cd;stroke:#64b5cd;" x="568.743713" xlink:href="#m651ae965b6" y="331.181211"/>
     <use style="fill:#64b5cd;stroke:#64b5cd;" x="789.885597" xlink:href="#m651ae965b6" y="334.208732"/>
     <use style="fill:#64b5cd;stroke:#64b5cd;" x="567.179179" xlink:href="#m651ae965b6" y="314.220648"/>
     <use style="fill:#64b5cd;stroke:#64b5cd;" x="587.778871" xlink:href="#m651ae965b6" y="322.63322"/>
     <use style="fill:#64b5cd;stroke:#64b5cd;" x="569.326563" xlink:href="#m651ae965b6" y="331.089382"/>
     <use style="fill:#64b5cd;stroke:#64b5cd;" x="757.530761" xlink:href="#m651ae965b6" y="327.873266"/>
     <use style="fill:#64b5cd;stroke:#64b5cd;" x="670.04726" xlink:href="#m651ae965b6" y="329.031339"/>
     <use style="fill:#64b5cd;stroke:#64b5cd;" x="611.116497" xlink:href="#m651ae965b6" y="326.239074"/>
     <use style="fill:#64b5cd;stroke:#64b5cd;" x="841.754817" xlink:href="#m651ae965b6" y="319.658054"/>
     <use style="fill:#64b5cd;stroke:#64b5cd;" x="499.513103" xlink:href="#m651ae965b6" y="344.892601"/>
     <use style="fill:#64b5cd;stroke:#64b5cd;" x="885.561757" xlink:href="#m651ae965b6" y="331.639851"/>
     <use style="fill:#64b5cd;stroke:#64b5cd;" x="685.040707" xlink:href="#m651ae965b6" y="317.115697"/>
     <use style="fill:#64b5cd;stroke:#64b5cd;" x="588.170005" xlink:href="#m651ae965b6" y="313.717482"/>
     <use style="fill:#64b5cd;stroke:#64b5cd;" x="805.546594" xlink:href="#m651ae965b6" y="340.245153"/>
     <use style="fill:#64b5cd;stroke:#64b5cd;" x="611.768386" xlink:href="#m651ae965b6" y="325.126759"/>
     <use style="fill:#64b5cd;stroke:#64b5cd;" x="478.131145" xlink:href="#m651ae965b6" y="335.14283"/>
     <use style="fill:#64b5cd;stroke:#64b5cd;" x="407.46638" xlink:href="#m651ae965b6" y="328.627224"/>
     <use style="fill:#64b5cd;stroke:#64b5cd;" x="457.531453" xlink:href="#m651ae965b6" y="330.335708"/>
     <use style="fill:#64b5cd;stroke:#64b5cd;" x="638.626212" xlink:href="#m651ae965b6" y="314.597257"/>
     <use style="fill:#64b5cd;stroke:#64b5cd;" x="462.048737" xlink:href="#m651ae965b6" y="331.938063"/>
     <use style="fill:#64b5cd;stroke:#64b5cd;" x="716.070622" xlink:href="#m651ae965b6" y="330.651206"/>
     <use style="fill:#64b5cd;stroke:#64b5cd;" x="684.043362" xlink:href="#m651ae965b6" y="328.092624"/>
     <use style="fill:#64b5cd;stroke:#64b5cd;" x="729.108402" xlink:href="#m651ae965b6" y="336.997645"/>
     <use style="fill:#64b5cd;stroke:#64b5cd;" x="816.852658" xlink:href="#m651ae965b6" y="324.583826"/>
     <use style="fill:#64b5cd;stroke:#64b5cd;" x="371.873241" xlink:href="#m651ae965b6" y="314.909319"/>
     <use style="fill:#64b5cd;stroke:#64b5cd;" x="696.311143" xlink:href="#m651ae965b6" y="334.026371"/>
     <use style="fill:#64b5cd;stroke:#64b5cd;" x="551.012333" xlink:href="#m651ae965b6" y="340.86966"/>
     <use style="fill:#64b5cd;stroke:#64b5cd;" x="744.492982" xlink:href="#m651ae965b6" y="342.908725"/>
     <use style="fill:#64b5cd;stroke:#64b5cd;" x="646.318502" xlink:href="#m651ae965b6" y="308.603611"/>
     <use style="fill:#64b5cd;stroke:#64b5cd;" x="574.610714" xlink:href="#m651ae965b6" y="336.2545"/>
     <use style="fill:#64b5cd;stroke:#64b5cd;" x="613.984808" xlink:href="#m651ae965b6" y="311.517237"/>
     <use style="fill:#64b5cd;stroke:#64b5cd;" x="686.865996" xlink:href="#m651ae965b6" y="324.087401"/>
     <use style="fill:#64b5cd;stroke:#64b5cd;" x="1036.8" xlink:href="#m651ae965b6" y="322.588443"/>
     <use style="fill:#64b5cd;stroke:#64b5cd;" x="478.261523" xlink:href="#m651ae965b6" y="333.970522"/>
     <use style="fill:#64b5cd;stroke:#64b5cd;" x="623.226493" xlink:href="#m651ae965b6" y="332.796529"/>
     <use style="fill:#64b5cd;stroke:#64b5cd;" x="947.751965" xlink:href="#m651ae965b6" y="306.805365"/>
     <use style="fill:#64b5cd;stroke:#64b5cd;" x="619.069542" xlink:href="#m651ae965b6" y="338.561331"/>
     <use style="fill:#64b5cd;stroke:#64b5cd;" x="739.900917" xlink:href="#m651ae965b6" y="315.932809"/>
     <use style="fill:#64b5cd;stroke:#64b5cd;" x="592.993983" xlink:href="#m651ae965b6" y="333.943886"/>
     <use style="fill:#64b5cd;stroke:#64b5cd;" x="616.701078" xlink:href="#m651ae965b6" y="315.777709"/>
     <use style="fill:#64b5cd;stroke:#64b5cd;" x="641.624901" xlink:href="#m651ae965b6" y="330.99975"/>
     <use style="fill:#64b5cd;stroke:#64b5cd;" x="882.041556" xlink:href="#m651ae965b6" y="328.973584"/>
     <use style="fill:#64b5cd;stroke:#64b5cd;" x="747.752427" xlink:href="#m651ae965b6" y="333.786194"/>
     <use style="fill:#64b5cd;stroke:#64b5cd;" x="597.426828" xlink:href="#m651ae965b6" y="304.845741"/>
     <use style="fill:#64b5cd;stroke:#64b5cd;" x="562.615957" xlink:href="#m651ae965b6" y="332.370048"/>
     <use style="fill:#64b5cd;stroke:#64b5cd;" x="750.359983" xlink:href="#m651ae965b6" y="333.84351"/>
     <use style="fill:#64b5cd;stroke:#64b5cd;" x="331.847258" xlink:href="#m651ae965b6" y="334.85004"/>
     <use style="fill:#64b5cd;stroke:#64b5cd;" x="735.366536" xlink:href="#m651ae965b6" y="312.691255"/>
     <use style="fill:#64b5cd;stroke:#64b5cd;" x="666.583496" xlink:href="#m651ae965b6" y="336.585102"/>
     <use style="fill:#64b5cd;stroke:#64b5cd;" x="518.287506" xlink:href="#m651ae965b6" y="316.886716"/>
     <use style="fill:#64b5cd;stroke:#64b5cd;" x="913.984116" xlink:href="#m651ae965b6" y="317.433718"/>
     <use style="fill:#64b5cd;stroke:#64b5cd;" x="413.760665" xlink:href="#m651ae965b6" y="342.655141"/>
     <use style="fill:#64b5cd;stroke:#64b5cd;" x="665.484038" xlink:href="#m651ae965b6" y="325.695994"/>
     <use style="fill:#64b5cd;stroke:#64b5cd;" x="819.329837" xlink:href="#m651ae965b6" y="339.007621"/>
     <use style="fill:#64b5cd;stroke:#64b5cd;" x="533.020197" xlink:href="#m651ae965b6" y="330.95398"/>
     <use style="fill:#64b5cd;stroke:#64b5cd;" x="723.632534" xlink:href="#m651ae965b6" y="315.642589"/>
     <use style="fill:#64b5cd;stroke:#64b5cd;" x="322.404852" xlink:href="#m651ae965b6" y="335.42121"/>
     <use style="fill:#64b5cd;stroke:#64b5cd;" x="749.056205" xlink:href="#m651ae965b6" y="332.566021"/>
     <use style="fill:#64b5cd;stroke:#64b5cd;" x="851.533152" xlink:href="#m651ae965b6" y="325.016949"/>
     <use style="fill:#64b5cd;stroke:#64b5cd;" x="410.98658" xlink:href="#m651ae965b6" y="316.879487"/>
     <use style="fill:#64b5cd;stroke:#64b5cd;" x="466.918655" xlink:href="#m651ae965b6" y="315.74508"/>
     <use style="fill:#64b5cd;stroke:#64b5cd;" x="618.769595" xlink:href="#m651ae965b6" y="333.81965"/>
     <use style="fill:#64b5cd;stroke:#64b5cd;" x="740.320892" xlink:href="#m651ae965b6" y="339.772716"/>
     <use style="fill:#64b5cd;stroke:#64b5cd;" x="488.952502" xlink:href="#m651ae965b6" y="316.603029"/>
     <use style="fill:#64b5cd;stroke:#64b5cd;" x="761.18134" xlink:href="#m651ae965b6" y="305.94697"/>
     <use style="fill:#64b5cd;stroke:#64b5cd;" x="857.791286" xlink:href="#m651ae965b6" y="321.453125"/>
     <use style="fill:#64b5cd;stroke:#64b5cd;" x="531.716419" xlink:href="#m651ae965b6" y="323.960069"/>
    </g>
   </g>
   <g id="line2d_17">
    <defs>
     <path d="M -5 0 
L 5 0 
M 0 5 
L 0 -5 
" id="m696b69e2ad" style="stroke:#8172b3;"/>
    </defs>
    <g clip-path="url(#p21a1d99dd9)">
     <use style="fill:#8172b3;stroke:#8172b3;" x="585.823204" xlink:href="#m696b69e2ad" y="317.950268"/>
     <use style="fill:#8172b3;stroke:#8172b3;" x="497.024963" xlink:href="#m696b69e2ad" y="333.508427"/>
     <use style="fill:#8172b3;stroke:#8172b3;" x="545.965577" xlink:href="#m696b69e2ad" y="339.069424"/>
     <use style="fill:#8172b3;stroke:#8172b3;" x="438.757051" xlink:href="#m696b69e2ad" y="343.985386"/>
     <use style="fill:#8172b3;stroke:#8172b3;" x="706.621299" xlink:href="#m696b69e2ad" y="332.428846"/>
     <use style="fill:#8172b3;stroke:#8172b3;" x="500.034615" xlink:href="#m696b69e2ad" y="318.908153"/>
     <use style="fill:#8172b3;stroke:#8172b3;" x="144" xlink:href="#m696b69e2ad" y="334.758406"/>
     <use style="fill:#8172b3;stroke:#8172b3;" x="567.700691" xlink:href="#m696b69e2ad" y="316.237137"/>
     <use style="fill:#8172b3;stroke:#8172b3;" x="493.631747" xlink:href="#m696b69e2ad" y="303.806401"/>
     <use style="fill:#8172b3;stroke:#8172b3;" x="767.568677" xlink:href="#m696b69e2ad" y="333.425678"/>
     <use style="fill:#8172b3;stroke:#8172b3;" x="332.759903" xlink:href="#m696b69e2ad" y="332.438973"/>
     <use style="fill:#8172b3;stroke:#8172b3;" x="641.885656" xlink:href="#m696b69e2ad" y="322.997959"/>
     <use style="fill:#8172b3;stroke:#8172b3;" x="445.927829" xlink:href="#m696b69e2ad" y="328.879494"/>
     <use style="fill:#8172b3;stroke:#8172b3;" x="721.416112" xlink:href="#m696b69e2ad" y="320.08975"/>
     <use style="fill:#8172b3;stroke:#8172b3;" x="540.451731" xlink:href="#m696b69e2ad" y="334.287715"/>
     <use style="fill:#8172b3;stroke:#8172b3;" x="709.421355" xlink:href="#m696b69e2ad" y="332.488777"/>
     <use style="fill:#8172b3;stroke:#8172b3;" x="847.100307" xlink:href="#m696b69e2ad" y="303.404911"/>
     <use style="fill:#8172b3;stroke:#8172b3;" x="439.539317" xlink:href="#m696b69e2ad" y="340.473008"/>
     <use style="fill:#8172b3;stroke:#8172b3;" x="594.819272" xlink:href="#m696b69e2ad" y="313.210314"/>
     <use style="fill:#8172b3;stroke:#8172b3;" x="418.809248" xlink:href="#m696b69e2ad" y="336.312048"/>
     <use style="fill:#8172b3;stroke:#8172b3;" x="769.134385" xlink:href="#m696b69e2ad" y="340.948537"/>
     <use style="fill:#8172b3;stroke:#8172b3;" x="847.49144" xlink:href="#m696b69e2ad" y="334.237345"/>
     <use style="fill:#8172b3;stroke:#8172b3;" x="502.772548" xlink:href="#m696b69e2ad" y="337.606608"/>
     <use style="fill:#8172b3;stroke:#8172b3;" x="728.195757" xlink:href="#m696b69e2ad" y="338.469957"/>
     <use style="fill:#8172b3;stroke:#8172b3;" x="641.885656" xlink:href="#m696b69e2ad" y="337.302498"/>
     <use style="fill:#8172b3;stroke:#8172b3;" x="880.998534" xlink:href="#m696b69e2ad" y="318.199395"/>
     <use style="fill:#8172b3;stroke:#8172b3;" x="697.817731" xlink:href="#m696b69e2ad" y="343.837747"/>
     <use style="fill:#8172b3;stroke:#8172b3;" x="798.860523" xlink:href="#m696b69e2ad" y="341.709519"/>
     <use style="fill:#8172b3;stroke:#8172b3;" x="559.356512" xlink:href="#m696b69e2ad" y="319.142695"/>
     <use style="fill:#8172b3;stroke:#8172b3;" x="670.04726" xlink:href="#m696b69e2ad" y="312.393675"/>
     <use style="fill:#8172b3;stroke:#8172b3;" x="765.744563" xlink:href="#m696b69e2ad" y="334.363492"/>
     <use style="fill:#8172b3;stroke:#8172b3;" x="346.188816" xlink:href="#m696b69e2ad" y="313.25584"/>
     <use style="fill:#8172b3;stroke:#8172b3;" x="927.543407" xlink:href="#m696b69e2ad" y="318.710371"/>
     <use style="fill:#8172b3;stroke:#8172b3;" x="446.188585" xlink:href="#m696b69e2ad" y="329.500386"/>
     <use style="fill:#8172b3;stroke:#8172b3;" x="783.215187" xlink:href="#m696b69e2ad" y="310.655797"/>
     <use style="fill:#8172b3;stroke:#8172b3;" x="681.302688" xlink:href="#m696b69e2ad" y="325.749601"/>
     <use style="fill:#8172b3;stroke:#8172b3;" x="676.305395" xlink:href="#m696b69e2ad" y="315.966817"/>
     <use style="fill:#8172b3;stroke:#8172b3;" x="813.20208" xlink:href="#m696b69e2ad" y="329.914744"/>
     <use style="fill:#8172b3;stroke:#8172b3;" x="471.967368" xlink:href="#m696b69e2ad" y="329.193"/>
     <use style="fill:#8172b3;stroke:#8172b3;" x="873.019387" xlink:href="#m696b69e2ad" y="326.221936"/>
     <use style="fill:#8172b3;stroke:#8172b3;" x="651.272858" xlink:href="#m696b69e2ad" y="329.235389"/>
     <use style="fill:#8172b3;stroke:#8172b3;" x="642.667923" xlink:href="#m696b69e2ad" y="336.704326"/>
     <use style="fill:#8172b3;stroke:#8172b3;" x="567.048802" xlink:href="#m696b69e2ad" y="339.336318"/>
     <use style="fill:#8172b3;stroke:#8172b3;" x="913.085436" xlink:href="#m696b69e2ad" y="336.35948"/>
     <use style="fill:#8172b3;stroke:#8172b3;" x="684.872966" xlink:href="#m696b69e2ad" y="318.102759"/>
     <use style="fill:#8172b3;stroke:#8172b3;" x="541.625132" xlink:href="#m696b69e2ad" y="329.249032"/>
     <use style="fill:#8172b3;stroke:#8172b3;" x="842.667462" xlink:href="#m696b69e2ad" y="306.792069"/>
     <use style="fill:#8172b3;stroke:#8172b3;" x="987.12606" xlink:href="#m696b69e2ad" y="325.590503"/>
     <use style="fill:#8172b3;stroke:#8172b3;" x="481.912101" xlink:href="#m696b69e2ad" y="333.303435"/>
     <use style="fill:#8172b3;stroke:#8172b3;" x="657.530992" xlink:href="#m696b69e2ad" y="296.25813"/>
    </g>
   </g>
   <g id="line2d_18">
    <path clip-path="url(#p21a1d99dd9)" d="M 144 605.290909 
L 1036.8 111.109091 
" style="fill:none;stroke:#c44e52;stroke-linecap:round;stroke-width:1.5;"/>
   </g>
   <g id="patch_3">
    <path d="M 144 630 
L 144 86.4 
" style="fill:none;stroke:#cccccc;stroke-linecap:square;stroke-linejoin:miter;stroke-width:1.25;"/>
   </g>
   <g id="patch_4">
    <path d="M 1036.8 630 
L 1036.8 86.4 
" style="fill:none;stroke:#cccccc;stroke-linecap:square;stroke-linejoin:miter;stroke-width:1.25;"/>
   </g>
   <g id="patch_5">
    <path d="M 144 630 
L 1036.8 630 
" style="fill:none;stroke:#cccccc;stroke-linecap:square;stroke-linejoin:miter;stroke-width:1.25;"/>
   </g>
   <g id="patch_6">
    <path d="M 144 86.4 
L 1036.8 86.4 
" style="fill:none;stroke:#cccccc;stroke-linecap:square;stroke-linejoin:miter;stroke-width:1.25;"/>
   </g>
  </g>
 </g>
 <defs>
  <clipPath id="p21a1d99dd9">
   <rect height="543.6" width="892.8" x="144" y="86.4"/>
  </clipPath>
 </defs>
</svg>
