<?xml version="1.0" encoding="utf-8" standalone="no"?>
<!DOCTYPE svg PUBLIC "-//W3C//DTD SVG 1.1//EN"
  "http://www.w3.org/Graphics/SVG/1.1/DTD/svg11.dtd">
<!-- Created with matplotlib (https://matplotlib.org/) -->
<svg height="288pt" version="1.1" viewBox="0 0 432 288" width="432pt" xmlns="http://www.w3.org/2000/svg" xmlns:xlink="http://www.w3.org/1999/xlink">
 <defs>
  <style type="text/css">
*{stroke-linecap:butt;stroke-linejoin:round;}
  </style>
 </defs>
 <g id="figure_1">
  <g id="patch_1">
   <path d="M 0 288 
L 432 288 
L 432 0 
L 0 0 
z
" style="fill:#ffffff;"/>
  </g>
  <g id="axes_1">
   <g id="patch_2">
    <path d="M 54 252 
L 388.8 252 
L 388.8 34.56 
L 54 34.56 
z
" style="fill:#ffffff;"/>
   </g>
   <g id="matplotlib.axis_1">
    <g id="xtick_1">
     <g id="line2d_1">
      <path clip-path="url(#pbec946764d)" d="M 65.92595 252 
L 65.92595 34.56 
" style="fill:none;stroke:#cccccc;stroke-linecap:round;"/>
     </g>
     <g id="text_1">
      <!-- 61.8 -->
      <defs>
       <path d="M 49.75 54.046875 
L 41.015625 53.375 
Q 39.84375 58.546875 37.703125 60.890625 
Q 34.125 64.65625 28.90625 64.65625 
Q 24.703125 64.65625 21.53125 62.3125 
Q 17.390625 59.28125 14.984375 53.46875 
Q 12.59375 47.65625 12.5 36.921875 
Q 15.671875 41.75 20.265625 44.09375 
Q 24.859375 46.4375 29.890625 46.4375 
Q 38.671875 46.4375 44.84375 39.96875 
Q 51.03125 33.5 51.03125 23.25 
Q 51.03125 16.5 48.125 10.71875 
Q 45.21875 4.9375 40.140625 1.859375 
Q 35.0625 -1.21875 28.609375 -1.21875 
Q 17.625 -1.21875 10.6875 6.859375 
Q 3.765625 14.9375 3.765625 33.5 
Q 3.765625 54.25 11.421875 63.671875 
Q 18.109375 71.875 29.4375 71.875 
Q 37.890625 71.875 43.28125 67.140625 
Q 48.6875 62.40625 49.75 54.046875 
z
M 13.875 23.1875 
Q 13.875 18.65625 15.796875 14.5 
Q 17.71875 10.359375 21.1875 8.171875 
Q 24.65625 6 28.46875 6 
Q 34.03125 6 38.03125 10.484375 
Q 42.046875 14.984375 42.046875 22.703125 
Q 42.046875 30.125 38.078125 34.390625 
Q 34.125 38.671875 28.125 38.671875 
Q 22.171875 38.671875 18.015625 34.390625 
Q 13.875 30.125 13.875 23.1875 
z
" id="ArialMT-54"/>
       <path d="M 37.25 0 
L 28.46875 0 
L 28.46875 56 
Q 25.296875 52.984375 20.140625 49.953125 
Q 14.984375 46.921875 10.890625 45.40625 
L 10.890625 53.90625 
Q 18.265625 57.375 23.78125 62.296875 
Q 29.296875 67.234375 31.59375 71.875 
L 37.25 71.875 
z
" id="ArialMT-49"/>
       <path d="M 9.078125 0 
L 9.078125 10.015625 
L 19.09375 10.015625 
L 19.09375 0 
z
" id="ArialMT-46"/>
       <path d="M 17.671875 38.8125 
Q 12.203125 40.828125 9.5625 44.53125 
Q 6.9375 48.25 6.9375 53.421875 
Q 6.9375 61.234375 12.546875 66.546875 
Q 18.171875 71.875 27.484375 71.875 
Q 36.859375 71.875 42.578125 66.421875 
Q 48.296875 60.984375 48.296875 53.171875 
Q 48.296875 48.1875 45.671875 44.5 
Q 43.0625 40.828125 37.75 38.8125 
Q 44.34375 36.671875 47.78125 31.875 
Q 51.21875 27.09375 51.21875 20.453125 
Q 51.21875 11.28125 44.71875 5.03125 
Q 38.234375 -1.21875 27.640625 -1.21875 
Q 17.046875 -1.21875 10.546875 5.046875 
Q 4.046875 11.328125 4.046875 20.703125 
Q 4.046875 27.6875 7.59375 32.390625 
Q 11.140625 37.109375 17.671875 38.8125 
z
M 15.921875 53.71875 
Q 15.921875 48.640625 19.1875 45.40625 
Q 22.46875 42.1875 27.6875 42.1875 
Q 32.765625 42.1875 36.015625 45.375 
Q 39.265625 48.578125 39.265625 53.21875 
Q 39.265625 58.0625 35.90625 61.359375 
Q 32.5625 64.65625 27.59375 64.65625 
Q 22.5625 64.65625 19.234375 61.421875 
Q 15.921875 58.203125 15.921875 53.71875 
z
M 13.09375 20.65625 
Q 13.09375 16.890625 14.875 13.375 
Q 16.65625 9.859375 20.171875 7.921875 
Q 23.6875 6 27.734375 6 
Q 34.03125 6 38.125 10.046875 
Q 42.234375 14.109375 42.234375 20.359375 
Q 42.234375 26.703125 38.015625 30.859375 
Q 33.796875 35.015625 27.4375 35.015625 
Q 21.234375 35.015625 17.15625 30.90625 
Q 13.09375 26.8125 13.09375 20.65625 
z
" id="ArialMT-56"/>
      </defs>
      <g style="fill:#262626;" transform="translate(44.518919 277.247187)scale(0.22 -0.22)">
       <use xlink:href="#ArialMT-54"/>
       <use x="55.615234" xlink:href="#ArialMT-49"/>
       <use x="111.230469" xlink:href="#ArialMT-46"/>
       <use x="139.013672" xlink:href="#ArialMT-56"/>
      </g>
     </g>
    </g>
    <g id="xtick_2">
     <g id="line2d_2">
      <path clip-path="url(#pbec946764d)" d="M 153.231667 252 
L 153.231667 34.56 
" style="fill:none;stroke:#cccccc;stroke-linecap:round;"/>
     </g>
     <g id="text_2">
      <!-- 62.0 -->
      <defs>
       <path d="M 50.34375 8.453125 
L 50.34375 0 
L 3.03125 0 
Q 2.9375 3.171875 4.046875 6.109375 
Q 5.859375 10.9375 9.828125 15.625 
Q 13.8125 20.3125 21.34375 26.46875 
Q 33.015625 36.03125 37.109375 41.625 
Q 41.21875 47.21875 41.21875 52.203125 
Q 41.21875 57.421875 37.46875 61 
Q 33.734375 64.59375 27.734375 64.59375 
Q 21.390625 64.59375 17.578125 60.78125 
Q 13.765625 56.984375 13.71875 50.25 
L 4.6875 51.171875 
Q 5.609375 61.28125 11.65625 66.578125 
Q 17.71875 71.875 27.9375 71.875 
Q 38.234375 71.875 44.234375 66.15625 
Q 50.25 60.453125 50.25 52 
Q 50.25 47.703125 48.484375 43.546875 
Q 46.734375 39.40625 42.65625 34.8125 
Q 38.578125 30.21875 29.109375 22.21875 
Q 21.1875 15.578125 18.9375 13.203125 
Q 16.703125 10.84375 15.234375 8.453125 
z
" id="ArialMT-50"/>
       <path d="M 4.15625 35.296875 
Q 4.15625 48 6.765625 55.734375 
Q 9.375 63.484375 14.515625 67.671875 
Q 19.671875 71.875 27.484375 71.875 
Q 33.25 71.875 37.59375 69.546875 
Q 41.9375 67.234375 44.765625 62.859375 
Q 47.609375 58.5 49.21875 52.21875 
Q 50.828125 45.953125 50.828125 35.296875 
Q 50.828125 22.703125 48.234375 14.96875 
Q 45.65625 7.234375 40.5 3 
Q 35.359375 -1.21875 27.484375 -1.21875 
Q 17.140625 -1.21875 11.234375 6.203125 
Q 4.15625 15.140625 4.15625 35.296875 
z
M 13.1875 35.296875 
Q 13.1875 17.671875 17.3125 11.828125 
Q 21.4375 6 27.484375 6 
Q 33.546875 6 37.671875 11.859375 
Q 41.796875 17.71875 41.796875 35.296875 
Q 41.796875 52.984375 37.671875 58.78125 
Q 33.546875 64.59375 27.390625 64.59375 
Q 21.34375 64.59375 17.71875 59.46875 
Q 13.1875 52.9375 13.1875 35.296875 
z
" id="ArialMT-48"/>
      </defs>
      <g style="fill:#262626;" transform="translate(131.824636 277.247187)scale(0.22 -0.22)">
       <use xlink:href="#ArialMT-54"/>
       <use x="55.615234" xlink:href="#ArialMT-50"/>
       <use x="111.230469" xlink:href="#ArialMT-46"/>
       <use x="139.013672" xlink:href="#ArialMT-48"/>
      </g>
     </g>
    </g>
    <g id="xtick_3">
     <g id="line2d_3">
      <path clip-path="url(#pbec946764d)" d="M 240.537385 252 
L 240.537385 34.56 
" style="fill:none;stroke:#cccccc;stroke-linecap:round;"/>
     </g>
     <g id="text_3">
      <!-- 62.2 -->
      <g style="fill:#262626;" transform="translate(219.130354 277.247187)scale(0.22 -0.22)">
       <use xlink:href="#ArialMT-54"/>
       <use x="55.615234" xlink:href="#ArialMT-50"/>
       <use x="111.230469" xlink:href="#ArialMT-46"/>
       <use x="139.013672" xlink:href="#ArialMT-50"/>
      </g>
     </g>
    </g>
    <g id="xtick_4">
     <g id="line2d_4">
      <path clip-path="url(#pbec946764d)" d="M 327.843102 252 
L 327.843102 34.56 
" style="fill:none;stroke:#cccccc;stroke-linecap:round;"/>
     </g>
     <g id="text_4">
      <!-- 62.4 -->
      <defs>
       <path d="M 32.328125 0 
L 32.328125 17.140625 
L 1.265625 17.140625 
L 1.265625 25.203125 
L 33.9375 71.578125 
L 41.109375 71.578125 
L 41.109375 25.203125 
L 50.78125 25.203125 
L 50.78125 17.140625 
L 41.109375 17.140625 
L 41.109375 0 
z
M 32.328125 25.203125 
L 32.328125 57.46875 
L 9.90625 25.203125 
z
" id="ArialMT-52"/>
      </defs>
      <g style="fill:#262626;" transform="translate(306.436071 277.247187)scale(0.22 -0.22)">
       <use xlink:href="#ArialMT-54"/>
       <use x="55.615234" xlink:href="#ArialMT-50"/>
       <use x="111.230469" xlink:href="#ArialMT-46"/>
       <use x="139.013672" xlink:href="#ArialMT-52"/>
      </g>
     </g>
    </g>
    <g id="text_5">
     <!-- Fitted values -->
     <defs>
      <path d="M 8.203125 0 
L 8.203125 71.578125 
L 56.5 71.578125 
L 56.5 63.140625 
L 17.671875 63.140625 
L 17.671875 40.96875 
L 51.265625 40.96875 
L 51.265625 32.515625 
L 17.671875 32.515625 
L 17.671875 0 
z
" id="ArialMT-70"/>
      <path d="M 6.640625 61.46875 
L 6.640625 71.578125 
L 15.4375 71.578125 
L 15.4375 61.46875 
z
M 6.640625 0 
L 6.640625 51.859375 
L 15.4375 51.859375 
L 15.4375 0 
z
" id="ArialMT-105"/>
      <path d="M 25.78125 7.859375 
L 27.046875 0.09375 
Q 23.34375 -0.6875 20.40625 -0.6875 
Q 15.625 -0.6875 12.984375 0.828125 
Q 10.359375 2.34375 9.28125 4.8125 
Q 8.203125 7.28125 8.203125 15.1875 
L 8.203125 45.015625 
L 1.765625 45.015625 
L 1.765625 51.859375 
L 8.203125 51.859375 
L 8.203125 64.703125 
L 16.9375 69.96875 
L 16.9375 51.859375 
L 25.78125 51.859375 
L 25.78125 45.015625 
L 16.9375 45.015625 
L 16.9375 14.703125 
Q 16.9375 10.9375 17.40625 9.859375 
Q 17.875 8.796875 18.921875 8.15625 
Q 19.96875 7.515625 21.921875 7.515625 
Q 23.390625 7.515625 25.78125 7.859375 
z
" id="ArialMT-116"/>
      <path d="M 42.09375 16.703125 
L 51.171875 15.578125 
Q 49.03125 7.625 43.21875 3.21875 
Q 37.40625 -1.171875 28.375 -1.171875 
Q 17 -1.171875 10.328125 5.828125 
Q 3.65625 12.84375 3.65625 25.484375 
Q 3.65625 38.578125 10.390625 45.796875 
Q 17.140625 53.03125 27.875 53.03125 
Q 38.28125 53.03125 44.875 45.953125 
Q 51.46875 38.875 51.46875 26.03125 
Q 51.46875 25.25 51.421875 23.6875 
L 12.75 23.6875 
Q 13.234375 15.140625 17.578125 10.59375 
Q 21.921875 6.0625 28.421875 6.0625 
Q 33.25 6.0625 36.671875 8.59375 
Q 40.09375 11.140625 42.09375 16.703125 
z
M 13.234375 30.90625 
L 42.1875 30.90625 
Q 41.609375 37.453125 38.875 40.71875 
Q 34.671875 45.796875 27.984375 45.796875 
Q 21.921875 45.796875 17.796875 41.75 
Q 13.671875 37.703125 13.234375 30.90625 
z
" id="ArialMT-101"/>
      <path d="M 40.234375 0 
L 40.234375 6.546875 
Q 35.296875 -1.171875 25.734375 -1.171875 
Q 19.53125 -1.171875 14.328125 2.25 
Q 9.125 5.671875 6.265625 11.796875 
Q 3.421875 17.921875 3.421875 25.875 
Q 3.421875 33.640625 6 39.96875 
Q 8.59375 46.296875 13.765625 49.65625 
Q 18.953125 53.03125 25.34375 53.03125 
Q 30.03125 53.03125 33.6875 51.046875 
Q 37.359375 49.078125 39.65625 45.90625 
L 39.65625 71.578125 
L 48.390625 71.578125 
L 48.390625 0 
z
M 12.453125 25.875 
Q 12.453125 15.921875 16.640625 10.984375 
Q 20.84375 6.0625 26.5625 6.0625 
Q 32.328125 6.0625 36.34375 10.765625 
Q 40.375 15.484375 40.375 25.140625 
Q 40.375 35.796875 36.265625 40.765625 
Q 32.171875 45.75 26.171875 45.75 
Q 20.3125 45.75 16.375 40.96875 
Q 12.453125 36.1875 12.453125 25.875 
z
" id="ArialMT-100"/>
      <path id="ArialMT-32"/>
      <path d="M 21 0 
L 1.265625 51.859375 
L 10.546875 51.859375 
L 21.6875 20.796875 
Q 23.484375 15.765625 25 10.359375 
Q 26.171875 14.453125 28.265625 20.21875 
L 39.796875 51.859375 
L 48.828125 51.859375 
L 29.203125 0 
z
" id="ArialMT-118"/>
      <path d="M 40.4375 6.390625 
Q 35.546875 2.25 31.03125 0.53125 
Q 26.515625 -1.171875 21.34375 -1.171875 
Q 12.796875 -1.171875 8.203125 3 
Q 3.609375 7.171875 3.609375 13.671875 
Q 3.609375 17.484375 5.34375 20.625 
Q 7.078125 23.78125 9.890625 25.6875 
Q 12.703125 27.59375 16.21875 28.5625 
Q 18.796875 29.25 24.03125 29.890625 
Q 34.671875 31.15625 39.703125 32.90625 
Q 39.75 34.71875 39.75 35.203125 
Q 39.75 40.578125 37.25 42.78125 
Q 33.890625 45.75 27.25 45.75 
Q 21.046875 45.75 18.09375 43.578125 
Q 15.140625 41.40625 13.71875 35.890625 
L 5.125 37.0625 
Q 6.296875 42.578125 8.984375 45.96875 
Q 11.671875 49.359375 16.75 51.1875 
Q 21.828125 53.03125 28.515625 53.03125 
Q 35.15625 53.03125 39.296875 51.46875 
Q 43.453125 49.90625 45.40625 47.53125 
Q 47.359375 45.171875 48.140625 41.546875 
Q 48.578125 39.3125 48.578125 33.453125 
L 48.578125 21.734375 
Q 48.578125 9.46875 49.140625 6.21875 
Q 49.703125 2.984375 51.375 0 
L 42.1875 0 
Q 40.828125 2.734375 40.4375 6.390625 
z
M 39.703125 26.03125 
Q 34.90625 24.078125 25.34375 22.703125 
Q 19.921875 21.921875 17.671875 20.9375 
Q 15.4375 19.96875 14.203125 18.09375 
Q 12.984375 16.21875 12.984375 13.921875 
Q 12.984375 10.40625 15.640625 8.0625 
Q 18.3125 5.71875 23.4375 5.71875 
Q 28.515625 5.71875 32.46875 7.9375 
Q 36.421875 10.15625 38.28125 14.015625 
Q 39.703125 17 39.703125 22.796875 
z
" id="ArialMT-97"/>
      <path d="M 6.390625 0 
L 6.390625 71.578125 
L 15.1875 71.578125 
L 15.1875 0 
z
" id="ArialMT-108"/>
      <path d="M 40.578125 0 
L 40.578125 7.625 
Q 34.515625 -1.171875 24.125 -1.171875 
Q 19.53125 -1.171875 15.546875 0.578125 
Q 11.578125 2.34375 9.640625 5 
Q 7.71875 7.671875 6.9375 11.53125 
Q 6.390625 14.109375 6.390625 19.734375 
L 6.390625 51.859375 
L 15.1875 51.859375 
L 15.1875 23.09375 
Q 15.1875 16.21875 15.71875 13.8125 
Q 16.546875 10.359375 19.234375 8.375 
Q 21.921875 6.390625 25.875 6.390625 
Q 29.828125 6.390625 33.296875 8.421875 
Q 36.765625 10.453125 38.203125 13.9375 
Q 39.65625 17.4375 39.65625 24.078125 
L 39.65625 51.859375 
L 48.4375 51.859375 
L 48.4375 0 
z
" id="ArialMT-117"/>
      <path d="M 3.078125 15.484375 
L 11.765625 16.84375 
Q 12.5 11.625 15.84375 8.84375 
Q 19.1875 6.0625 25.203125 6.0625 
Q 31.25 6.0625 34.171875 8.515625 
Q 37.109375 10.984375 37.109375 14.3125 
Q 37.109375 17.28125 34.515625 19 
Q 32.71875 20.171875 25.53125 21.96875 
Q 15.875 24.421875 12.140625 26.203125 
Q 8.40625 27.984375 6.46875 31.125 
Q 4.546875 34.28125 4.546875 38.09375 
Q 4.546875 41.546875 6.125 44.5 
Q 7.71875 47.46875 10.453125 49.421875 
Q 12.5 50.921875 16.03125 51.96875 
Q 19.578125 53.03125 23.640625 53.03125 
Q 29.734375 53.03125 34.34375 51.265625 
Q 38.96875 49.515625 41.15625 46.5 
Q 43.359375 43.5 44.1875 38.484375 
L 35.59375 37.3125 
Q 35.015625 41.3125 32.203125 43.546875 
Q 29.390625 45.796875 24.265625 45.796875 
Q 18.21875 45.796875 15.625 43.796875 
Q 13.03125 41.796875 13.03125 39.109375 
Q 13.03125 37.40625 14.109375 36.03125 
Q 15.1875 34.625 17.484375 33.6875 
Q 18.796875 33.203125 25.25 31.453125 
Q 34.578125 28.953125 38.25 27.359375 
Q 41.9375 25.78125 44.03125 22.75 
Q 46.140625 19.734375 46.140625 15.234375 
Q 46.140625 10.84375 43.578125 6.953125 
Q 41.015625 3.078125 36.171875 0.953125 
Q 31.34375 -1.171875 25.25 -1.171875 
Q 15.140625 -1.171875 9.84375 3.03125 
Q 4.546875 7.234375 3.078125 15.484375 
z
" id="ArialMT-115"/>
     </defs>
     <g style="fill:#262626;" transform="translate(153.37125 302.798437)scale(0.24 -0.24)">
      <use xlink:href="#ArialMT-70"/>
      <use x="61.083984" xlink:href="#ArialMT-105"/>
      <use x="83.300781" xlink:href="#ArialMT-116"/>
      <use x="111.083984" xlink:href="#ArialMT-116"/>
      <use x="138.867188" xlink:href="#ArialMT-101"/>
      <use x="194.482422" xlink:href="#ArialMT-100"/>
      <use x="250.097656" xlink:href="#ArialMT-32"/>
      <use x="277.880859" xlink:href="#ArialMT-118"/>
      <use x="327.880859" xlink:href="#ArialMT-97"/>
      <use x="383.496094" xlink:href="#ArialMT-108"/>
      <use x="405.712891" xlink:href="#ArialMT-117"/>
      <use x="461.328125" xlink:href="#ArialMT-101"/>
      <use x="516.943359" xlink:href="#ArialMT-115"/>
     </g>
    </g>
   </g>
   <g id="matplotlib.axis_2">
    <g id="ytick_1">
     <g id="line2d_5">
      <path clip-path="url(#pbec946764d)" d="M 54 203.214569 
L 388.8 203.214569 
" style="fill:none;stroke:#cccccc;stroke-linecap:round;"/>
     </g>
     <g id="text_6">
      <!-- −0.25 -->
      <defs>
       <path d="M 52.828125 31.203125 
L 5.5625 31.203125 
L 5.5625 39.40625 
L 52.828125 39.40625 
z
" id="ArialMT-8722"/>
       <path d="M 4.15625 18.75 
L 13.375 19.53125 
Q 14.40625 12.796875 18.140625 9.390625 
Q 21.875 6 27.15625 6 
Q 33.5 6 37.890625 10.78125 
Q 42.28125 15.578125 42.28125 23.484375 
Q 42.28125 31 38.0625 35.34375 
Q 33.84375 39.703125 27 39.703125 
Q 22.75 39.703125 19.328125 37.765625 
Q 15.921875 35.84375 13.96875 32.765625 
L 5.71875 33.84375 
L 12.640625 70.609375 
L 48.25 70.609375 
L 48.25 62.203125 
L 19.671875 62.203125 
L 15.828125 42.96875 
Q 22.265625 47.46875 29.34375 47.46875 
Q 38.71875 47.46875 45.15625 40.96875 
Q 51.609375 34.46875 51.609375 24.265625 
Q 51.609375 14.546875 45.953125 7.46875 
Q 39.0625 -1.21875 27.15625 -1.21875 
Q 17.390625 -1.21875 11.203125 4.25 
Q 5.03125 9.71875 4.15625 18.75 
z
" id="ArialMT-53"/>
      </defs>
      <g style="fill:#262626;" transform="translate(-11.163438 211.088163)scale(0.22 -0.22)">
       <use xlink:href="#ArialMT-8722"/>
       <use x="58.398438" xlink:href="#ArialMT-48"/>
       <use x="114.013672" xlink:href="#ArialMT-46"/>
       <use x="141.796875" xlink:href="#ArialMT-50"/>
       <use x="197.412109" xlink:href="#ArialMT-53"/>
      </g>
     </g>
    </g>
    <g id="ytick_2">
     <g id="line2d_6">
      <path clip-path="url(#pbec946764d)" d="M 54 140.763953 
L 388.8 140.763953 
" style="fill:none;stroke:#cccccc;stroke-linecap:round;"/>
     </g>
     <g id="text_7">
      <!-- 0.00 -->
      <g style="fill:#262626;" transform="translate(1.685938 148.637547)scale(0.22 -0.22)">
       <use xlink:href="#ArialMT-48"/>
       <use x="55.615234" xlink:href="#ArialMT-46"/>
       <use x="83.398438" xlink:href="#ArialMT-48"/>
       <use x="139.013672" xlink:href="#ArialMT-48"/>
      </g>
     </g>
    </g>
    <g id="ytick_3">
     <g id="line2d_7">
      <path clip-path="url(#pbec946764d)" d="M 54 78.313338 
L 388.8 78.313338 
" style="fill:none;stroke:#cccccc;stroke-linecap:round;"/>
     </g>
     <g id="text_8">
      <!-- 0.25 -->
      <g style="fill:#262626;" transform="translate(1.685938 86.186932)scale(0.22 -0.22)">
       <use xlink:href="#ArialMT-48"/>
       <use x="55.615234" xlink:href="#ArialMT-46"/>
       <use x="83.398438" xlink:href="#ArialMT-50"/>
       <use x="139.013672" xlink:href="#ArialMT-53"/>
      </g>
     </g>
    </g>
    <g id="text_9">
     <!-- Pearson Residuals -->
     <defs>
      <path d="M 7.71875 0 
L 7.71875 71.578125 
L 34.71875 71.578125 
Q 41.84375 71.578125 45.609375 70.90625 
Q 50.875 70.015625 54.4375 67.546875 
Q 58.015625 65.09375 60.1875 60.640625 
Q 62.359375 56.203125 62.359375 50.875 
Q 62.359375 41.75 56.546875 35.421875 
Q 50.734375 29.109375 35.546875 29.109375 
L 17.1875 29.109375 
L 17.1875 0 
z
M 17.1875 37.546875 
L 35.6875 37.546875 
Q 44.875 37.546875 48.734375 40.96875 
Q 52.59375 44.390625 52.59375 50.59375 
Q 52.59375 55.078125 50.3125 58.265625 
Q 48.046875 61.46875 44.34375 62.5 
Q 41.9375 63.140625 35.5 63.140625 
L 17.1875 63.140625 
z
" id="ArialMT-80"/>
      <path d="M 6.5 0 
L 6.5 51.859375 
L 14.40625 51.859375 
L 14.40625 44 
Q 17.4375 49.515625 20 51.265625 
Q 22.5625 53.03125 25.640625 53.03125 
Q 30.078125 53.03125 34.671875 50.203125 
L 31.640625 42.046875 
Q 28.421875 43.953125 25.203125 43.953125 
Q 22.3125 43.953125 20.015625 42.21875 
Q 17.71875 40.484375 16.75 37.40625 
Q 15.28125 32.71875 15.28125 27.15625 
L 15.28125 0 
z
" id="ArialMT-114"/>
      <path d="M 3.328125 25.921875 
Q 3.328125 40.328125 11.328125 47.265625 
Q 18.015625 53.03125 27.640625 53.03125 
Q 38.328125 53.03125 45.109375 46.015625 
Q 51.90625 39.015625 51.90625 26.65625 
Q 51.90625 16.65625 48.90625 10.90625 
Q 45.90625 5.171875 40.15625 2 
Q 34.421875 -1.171875 27.640625 -1.171875 
Q 16.75 -1.171875 10.03125 5.8125 
Q 3.328125 12.796875 3.328125 25.921875 
z
M 12.359375 25.921875 
Q 12.359375 15.96875 16.703125 11.015625 
Q 21.046875 6.0625 27.640625 6.0625 
Q 34.1875 6.0625 38.53125 11.03125 
Q 42.875 16.015625 42.875 26.21875 
Q 42.875 35.84375 38.5 40.796875 
Q 34.125 45.75 27.640625 45.75 
Q 21.046875 45.75 16.703125 40.8125 
Q 12.359375 35.890625 12.359375 25.921875 
z
" id="ArialMT-111"/>
      <path d="M 6.59375 0 
L 6.59375 51.859375 
L 14.5 51.859375 
L 14.5 44.484375 
Q 20.21875 53.03125 31 53.03125 
Q 35.6875 53.03125 39.625 51.34375 
Q 43.5625 49.65625 45.515625 46.921875 
Q 47.46875 44.1875 48.25 40.4375 
Q 48.734375 37.984375 48.734375 31.890625 
L 48.734375 0 
L 39.9375 0 
L 39.9375 31.546875 
Q 39.9375 36.921875 38.90625 39.578125 
Q 37.890625 42.234375 35.28125 43.8125 
Q 32.671875 45.40625 29.15625 45.40625 
Q 23.53125 45.40625 19.453125 41.84375 
Q 15.375 38.28125 15.375 28.328125 
L 15.375 0 
z
" id="ArialMT-110"/>
      <path d="M 7.859375 0 
L 7.859375 71.578125 
L 39.59375 71.578125 
Q 49.171875 71.578125 54.140625 69.640625 
Q 59.125 67.71875 62.109375 62.828125 
Q 65.09375 57.953125 65.09375 52.046875 
Q 65.09375 44.4375 60.15625 39.203125 
Q 55.21875 33.984375 44.921875 32.5625 
Q 48.6875 30.765625 50.640625 29 
Q 54.78125 25.203125 58.5 19.484375 
L 70.953125 0 
L 59.03125 0 
L 49.5625 14.890625 
Q 45.40625 21.34375 42.71875 24.75 
Q 40.046875 28.171875 37.921875 29.53125 
Q 35.796875 30.90625 33.59375 31.453125 
Q 31.984375 31.78125 28.328125 31.78125 
L 17.328125 31.78125 
L 17.328125 0 
z
M 17.328125 39.984375 
L 37.703125 39.984375 
Q 44.1875 39.984375 47.84375 41.328125 
Q 51.515625 42.671875 53.421875 45.625 
Q 55.328125 48.578125 55.328125 52.046875 
Q 55.328125 57.125 51.640625 60.390625 
Q 47.953125 63.671875 39.984375 63.671875 
L 17.328125 63.671875 
z
" id="ArialMT-82"/>
     </defs>
     <g style="fill:#262626;" transform="translate(-19.933438 243.9975)rotate(-90)scale(0.24 -0.24)">
      <use xlink:href="#ArialMT-80"/>
      <use x="66.699219" xlink:href="#ArialMT-101"/>
      <use x="122.314453" xlink:href="#ArialMT-97"/>
      <use x="177.929688" xlink:href="#ArialMT-114"/>
      <use x="211.230469" xlink:href="#ArialMT-115"/>
      <use x="261.230469" xlink:href="#ArialMT-111"/>
      <use x="316.845703" xlink:href="#ArialMT-110"/>
      <use x="372.460938" xlink:href="#ArialMT-32"/>
      <use x="400.244141" xlink:href="#ArialMT-82"/>
      <use x="472.460938" xlink:href="#ArialMT-101"/>
      <use x="528.076172" xlink:href="#ArialMT-115"/>
      <use x="578.076172" xlink:href="#ArialMT-105"/>
      <use x="600.292969" xlink:href="#ArialMT-100"/>
      <use x="655.908203" xlink:href="#ArialMT-117"/>
      <use x="711.523438" xlink:href="#ArialMT-97"/>
      <use x="767.138672" xlink:href="#ArialMT-108"/>
      <use x="789.355469" xlink:href="#ArialMT-115"/>
     </g>
    </g>
   </g>
   <g id="PathCollection_1">
    <defs>
     <path d="M -3 0 
L 3 0 
M 0 3 
L 0 -3 
" id="mde0a940c37" style="stroke:#4c72b0;stroke-width:1.5;"/>
    </defs>
    <g clip-path="url(#pbec946764d)">
     <use style="fill:#4c72b0;stroke:#4c72b0;stroke-width:1.5;" x="125.342375" xlink:href="#mde0a940c37" y="109.248369"/>
     <use style="fill:#4c72b0;stroke:#4c72b0;stroke-width:1.5;" x="219.537913" xlink:href="#mde0a940c37" y="147.924025"/>
     <use style="fill:#4c72b0;stroke:#4c72b0;stroke-width:1.5;" x="131.313989" xlink:href="#mde0a940c37" y="163.195942"/>
     <use style="fill:#4c72b0;stroke:#4c72b0;stroke-width:1.5;" x="180.072221" xlink:href="#mde0a940c37" y="115.063194"/>
     <use style="fill:#4c72b0;stroke:#4c72b0;stroke-width:1.5;" x="159.794229" xlink:href="#mde0a940c37" y="124.936188"/>
     <use style="fill:#4c72b0;stroke:#4c72b0;stroke-width:1.5;" x="230.936115" xlink:href="#mde0a940c37" y="103.00216"/>
     <use style="fill:#4c72b0;stroke:#4c72b0;stroke-width:1.5;" x="130.185442" xlink:href="#mde0a940c37" y="164.764758"/>
     <use style="fill:#4c72b0;stroke:#4c72b0;stroke-width:1.5;" x="217.46209" xlink:href="#mde0a940c37" y="168.177933"/>
     <use style="fill:#4c72b0;stroke:#4c72b0;stroke-width:1.5;" x="233.433492" xlink:href="#mde0a940c37" y="147.027539"/>
     <use style="fill:#4c72b0;stroke:#4c72b0;stroke-width:1.5;" x="238.065426" xlink:href="#mde0a940c37" y="123.163146"/>
     <use style="fill:#4c72b0;stroke:#4c72b0;stroke-width:1.5;" x="160.276608" xlink:href="#mde0a940c37" y="191.476693"/>
     <use style="fill:#4c72b0;stroke:#4c72b0;stroke-width:1.5;" x="215.125786" xlink:href="#mde0a940c37" y="124.849464"/>
     <use style="fill:#4c72b0;stroke:#4c72b0;stroke-width:1.5;" x="80.767234" xlink:href="#mde0a940c37" y="203.282345"/>
     <use style="fill:#4c72b0;stroke:#4c72b0;stroke-width:1.5;" x="113.150225" xlink:href="#mde0a940c37" y="203.218938"/>
     <use style="fill:#4c72b0;stroke:#4c72b0;stroke-width:1.5;" x="127.570257" xlink:href="#mde0a940c37" y="138.866372"/>
     <use style="fill:#4c72b0;stroke:#4c72b0;stroke-width:1.5;" x="150.334492" xlink:href="#mde0a940c37" y="127.672372"/>
     <use style="fill:#4c72b0;stroke:#4c72b0;stroke-width:1.5;" x="259.812997" xlink:href="#mde0a940c37" y="238.669862"/>
     <use style="fill:#4c72b0;stroke:#4c72b0;stroke-width:1.5;" x="190.515697" xlink:href="#mde0a940c37" y="60.441267"/>
     <use style="fill:#4c72b0;stroke:#4c72b0;stroke-width:1.5;" x="110.740223" xlink:href="#mde0a940c37" y="122.211248"/>
     <use style="fill:#4c72b0;stroke:#4c72b0;stroke-width:1.5;" x="108.824896" xlink:href="#mde0a940c37" y="144.328732"/>
     <use style="fill:#4c72b0;stroke:#4c72b0;stroke-width:1.5;" x="158.431898" xlink:href="#mde0a940c37" y="143.901652"/>
     <use style="fill:#4c72b0;stroke:#4c72b0;stroke-width:1.5;" x="129.687375" xlink:href="#mde0a940c37" y="103.092108"/>
     <use style="fill:#4c72b0;stroke:#4c72b0;stroke-width:1.5;" x="140.822501" xlink:href="#mde0a940c37" y="162.550441"/>
     <use style="fill:#4c72b0;stroke:#4c72b0;stroke-width:1.5;" x="225.690992" xlink:href="#mde0a940c37" y="155.622754"/>
     <use style="fill:#4c72b0;stroke:#4c72b0;stroke-width:1.5;" x="268.932778" xlink:href="#mde0a940c37" y="142.411661"/>
     <use style="fill:#4c72b0;stroke:#4c72b0;stroke-width:1.5;" x="163.429304" xlink:href="#mde0a940c37" y="144.771986"/>
     <use style="fill:#4c72b0;stroke:#4c72b0;stroke-width:1.5;" x="187.595281" xlink:href="#mde0a940c37" y="116.976465"/>
     <use style="fill:#4c72b0;stroke:#4c72b0;stroke-width:1.5;" x="224.173519" xlink:href="#mde0a940c37" y="131.845495"/>
     <use style="fill:#4c72b0;stroke:#4c72b0;stroke-width:1.5;" x="152.264139" xlink:href="#mde0a940c37" y="139.614969"/>
     <use style="fill:#4c72b0;stroke:#4c72b0;stroke-width:1.5;" x="162.770831" xlink:href="#mde0a940c37" y="138.982985"/>
     <use style="fill:#4c72b0;stroke:#4c72b0;stroke-width:1.5;" x="272.643119" xlink:href="#mde0a940c37" y="78.737125"/>
     <use style="fill:#4c72b0;stroke:#4c72b0;stroke-width:1.5;" x="145.825349" xlink:href="#mde0a940c37" y="137.208322"/>
     <use style="fill:#4c72b0;stroke:#4c72b0;stroke-width:1.5;" x="118.076337" xlink:href="#mde0a940c37" y="135.445496"/>
     <use style="fill:#4c72b0;stroke:#4c72b0;stroke-width:1.5;" x="131.651381" xlink:href="#mde0a940c37" y="171.122995"/>
     <use style="fill:#4c72b0;stroke:#4c72b0;stroke-width:1.5;" x="193.836492" xlink:href="#mde0a940c37" y="136.770162"/>
     <use style="fill:#4c72b0;stroke:#4c72b0;stroke-width:1.5;" x="199.703899" xlink:href="#mde0a940c37" y="143.346008"/>
     <use style="fill:#4c72b0;stroke:#4c72b0;stroke-width:1.5;" x="153.450389" xlink:href="#mde0a940c37" y="169.17356"/>
     <use style="fill:#4c72b0;stroke:#4c72b0;stroke-width:1.5;" x="295.127966" xlink:href="#mde0a940c37" y="152.441667"/>
     <use style="fill:#4c72b0;stroke:#4c72b0;stroke-width:1.5;" x="248.54418" xlink:href="#mde0a940c37" y="145.303483"/>
     <use style="fill:#4c72b0;stroke:#4c72b0;stroke-width:1.5;" x="108.318432" xlink:href="#mde0a940c37" y="159.373795"/>
     <use style="fill:#4c72b0;stroke:#4c72b0;stroke-width:1.5;" x="156.08076" xlink:href="#mde0a940c37" y="132.025038"/>
     <use style="fill:#4c72b0;stroke:#4c72b0;stroke-width:1.5;" x="207.229611" xlink:href="#mde0a940c37" y="130.992849"/>
     <use style="fill:#4c72b0;stroke:#4c72b0;stroke-width:1.5;" x="369.670272" xlink:href="#mde0a940c37" y="96.867395"/>
     <use style="fill:#4c72b0;stroke:#4c72b0;stroke-width:1.5;" x="120.914288" xlink:href="#mde0a940c37" y="126.351184"/>
     <use style="fill:#4c72b0;stroke:#4c72b0;stroke-width:1.5;" x="149.194136" xlink:href="#mde0a940c37" y="48.619936"/>
     <use style="fill:#4c72b0;stroke:#4c72b0;stroke-width:1.5;" x="139.538769" xlink:href="#mde0a940c37" y="133.168105"/>
     <use style="fill:#4c72b0;stroke:#4c72b0;stroke-width:1.5;" x="252.207735" xlink:href="#mde0a940c37" y="163.349588"/>
     <use style="fill:#4c72b0;stroke:#4c72b0;stroke-width:1.5;" x="314.560715" xlink:href="#mde0a940c37" y="174.468882"/>
     <use style="fill:#4c72b0;stroke:#4c72b0;stroke-width:1.5;" x="117.318696" xlink:href="#mde0a940c37" y="68.247504"/>
     <use style="fill:#4c72b0;stroke:#4c72b0;stroke-width:1.5;" x="214.78218" xlink:href="#mde0a940c37" y="113.447998"/>
     <use style="fill:#4c72b0;stroke:#4c72b0;stroke-width:1.5;" x="326.88165" xlink:href="#mde0a940c37" y="165.076142"/>
     <use style="fill:#4c72b0;stroke:#4c72b0;stroke-width:1.5;" x="171.005187" xlink:href="#mde0a940c37" y="159.307935"/>
     <use style="fill:#4c72b0;stroke:#4c72b0;stroke-width:1.5;" x="120.75497" xlink:href="#mde0a940c37" y="106.626535"/>
     <use style="fill:#4c72b0;stroke:#4c72b0;stroke-width:1.5;" x="166.673263" xlink:href="#mde0a940c37" y="129.295049"/>
     <use style="fill:#4c72b0;stroke:#4c72b0;stroke-width:1.5;" x="90.447288" xlink:href="#mde0a940c37" y="144.962022"/>
     <use style="fill:#4c72b0;stroke:#4c72b0;stroke-width:1.5;" x="151.555724" xlink:href="#mde0a940c37" y="173.732291"/>
     <use style="fill:#4c72b0;stroke:#4c72b0;stroke-width:1.5;" x="121.064021" xlink:href="#mde0a940c37" y="95.305287"/>
     <use style="fill:#4c72b0;stroke:#4c72b0;stroke-width:1.5;" x="203.22115" xlink:href="#mde0a940c37" y="115.392062"/>
     <use style="fill:#4c72b0;stroke:#4c72b0;stroke-width:1.5;" x="173.142146" xlink:href="#mde0a940c37" y="191.492866"/>
     <use style="fill:#4c72b0;stroke:#4c72b0;stroke-width:1.5;" x="109.539977" xlink:href="#mde0a940c37" y="172.355978"/>
     <use style="fill:#4c72b0;stroke:#4c72b0;stroke-width:1.5;" x="184.802645" xlink:href="#mde0a940c37" y="158.481817"/>
     <use style="fill:#4c72b0;stroke:#4c72b0;stroke-width:1.5;" x="132.810624" xlink:href="#mde0a940c37" y="113.223272"/>
     <use style="fill:#4c72b0;stroke:#4c72b0;stroke-width:1.5;" x="280.725465" xlink:href="#mde0a940c37" y="173.682447"/>
     <use style="fill:#4c72b0;stroke:#4c72b0;stroke-width:1.5;" x="167.69176" xlink:href="#mde0a940c37" y="207.245651"/>
     <use style="fill:#4c72b0;stroke:#4c72b0;stroke-width:1.5;" x="259.311279" xlink:href="#mde0a940c37" y="116.130405"/>
     <use style="fill:#4c72b0;stroke:#4c72b0;stroke-width:1.5;" x="153.978711" xlink:href="#mde0a940c37" y="151.668026"/>
     <use style="fill:#4c72b0;stroke:#4c72b0;stroke-width:1.5;" x="198.323447" xlink:href="#mde0a940c37" y="115.509601"/>
     <use style="fill:#4c72b0;stroke:#4c72b0;stroke-width:1.5;" x="317.841824" xlink:href="#mde0a940c37" y="145.859024"/>
     <use style="fill:#4c72b0;stroke:#4c72b0;stroke-width:1.5;" x="293.851941" xlink:href="#mde0a940c37" y="147.065089"/>
     <use style="fill:#4c72b0;stroke:#4c72b0;stroke-width:1.5;" x="298.006979" xlink:href="#mde0a940c37" y="152.618085"/>
     <use style="fill:#4c72b0;stroke:#4c72b0;stroke-width:1.5;" x="109.74625" xlink:href="#mde0a940c37" y="133.75928"/>
     <use style="fill:#4c72b0;stroke:#4c72b0;stroke-width:1.5;" x="143.358804" xlink:href="#mde0a940c37" y="156.626329"/>
     <use style="fill:#4c72b0;stroke:#4c72b0;stroke-width:1.5;" x="171.919373" xlink:href="#mde0a940c37" y="112.65932"/>
     <use style="fill:#4c72b0;stroke:#4c72b0;stroke-width:1.5;" x="92.371436" xlink:href="#mde0a940c37" y="145.038348"/>
     <use style="fill:#4c72b0;stroke:#4c72b0;stroke-width:1.5;" x="152.105474" xlink:href="#mde0a940c37" y="190.255347"/>
     <use style="fill:#4c72b0;stroke:#4c72b0;stroke-width:1.5;" x="245.140902" xlink:href="#mde0a940c37" y="187.717977"/>
     <use style="fill:#4c72b0;stroke:#4c72b0;stroke-width:1.5;" x="156.988512" xlink:href="#mde0a940c37" y="87.488975"/>
     <use style="fill:#4c72b0;stroke:#4c72b0;stroke-width:1.5;" x="208.640002" xlink:href="#mde0a940c37" y="120.200379"/>
     <use style="fill:#4c72b0;stroke:#4c72b0;stroke-width:1.5;" x="130.102918" xlink:href="#mde0a940c37" y="110.58116"/>
     <use style="fill:#4c72b0;stroke:#4c72b0;stroke-width:1.5;" x="142.064797" xlink:href="#mde0a940c37" y="163.687383"/>
     <use style="fill:#4c72b0;stroke:#4c72b0;stroke-width:1.5;" x="124.877689" xlink:href="#mde0a940c37" y="187.647743"/>
     <use style="fill:#4c72b0;stroke:#4c72b0;stroke-width:1.5;" x="275.208824" xlink:href="#mde0a940c37" y="154.768351"/>
     <use style="fill:#4c72b0;stroke:#4c72b0;stroke-width:1.5;" x="223.744799" xlink:href="#mde0a940c37" y="55.900168"/>
     <use style="fill:#4c72b0;stroke:#4c72b0;stroke-width:1.5;" x="156.068568" xlink:href="#mde0a940c37" y="157.910348"/>
     <use style="fill:#4c72b0;stroke:#4c72b0;stroke-width:1.5;" x="137.755394" xlink:href="#mde0a940c37" y="102.758809"/>
     <use style="fill:#4c72b0;stroke:#4c72b0;stroke-width:1.5;" x="258.661338" xlink:href="#mde0a940c37" y="165.69941"/>
     <use style="fill:#4c72b0;stroke:#4c72b0;stroke-width:1.5;" x="207.774524" xlink:href="#mde0a940c37" y="157.02079"/>
     <use style="fill:#4c72b0;stroke:#4c72b0;stroke-width:1.5;" x="156.624033" xlink:href="#mde0a940c37" y="157.808722"/>
     <use style="fill:#4c72b0;stroke:#4c72b0;stroke-width:1.5;" x="176.078" xlink:href="#mde0a940c37" y="113.439254"/>
     <use style="fill:#4c72b0;stroke:#4c72b0;stroke-width:1.5;" x="169.072935" xlink:href="#mde0a940c37" y="134.207983"/>
     <use style="fill:#4c72b0;stroke:#4c72b0;stroke-width:1.5;" x="185.963065" xlink:href="#mde0a940c37" y="149.767796"/>
     <use style="fill:#4c72b0;stroke:#4c72b0;stroke-width:1.5;" x="225.771007" xlink:href="#mde0a940c37" y="96.604014"/>
     <use style="fill:#4c72b0;stroke:#4c72b0;stroke-width:1.5;" x="73.129728" xlink:href="#mde0a940c37" y="168.771045"/>
     <use style="fill:#4c72b0;stroke:#4c72b0;stroke-width:1.5;" x="153.294304" xlink:href="#mde0a940c37" y="80.618081"/>
     <use style="fill:#4c72b0;stroke:#4c72b0;stroke-width:1.5;" x="241.149472" xlink:href="#mde0a940c37" y="135.803946"/>
     <use style="fill:#4c72b0;stroke:#4c72b0;stroke-width:1.5;" x="261.704939" xlink:href="#mde0a940c37" y="160.821255"/>
     <use style="fill:#4c72b0;stroke:#4c72b0;stroke-width:1.5;" x="101.241682" xlink:href="#mde0a940c37" y="96.262457"/>
     <use style="fill:#4c72b0;stroke:#4c72b0;stroke-width:1.5;" x="192.691348" xlink:href="#mde0a940c37" y="150.096794"/>
     <use style="fill:#4c72b0;stroke:#4c72b0;stroke-width:1.5;" x="132.105129" xlink:href="#mde0a940c37" y="178.233155"/>
     <use style="fill:#4c72b0;stroke:#4c72b0;stroke-width:1.5;" x="171.517384" xlink:href="#mde0a940c37" y="198.258335"/>
     <use style="fill:#4c72b0;stroke:#4c72b0;stroke-width:1.5;" x="161.182936" xlink:href="#mde0a940c37" y="185.337767"/>
     <use style="fill:#4c72b0;stroke:#4c72b0;stroke-width:1.5;" x="256.383264" xlink:href="#mde0a940c37" y="148.182976"/>
     <use style="fill:#4c72b0;stroke:#4c72b0;stroke-width:1.5;" x="151.490448" xlink:href="#mde0a940c37" y="183.542089"/>
     <use style="fill:#4c72b0;stroke:#4c72b0;stroke-width:1.5;" x="159.274521" xlink:href="#mde0a940c37" y="122.297116"/>
     <use style="fill:#4c72b0;stroke:#4c72b0;stroke-width:1.5;" x="174.751125" xlink:href="#mde0a940c37" y="131.216841"/>
     <use style="fill:#4c72b0;stroke:#4c72b0;stroke-width:1.5;" x="120.885535" xlink:href="#mde0a940c37" y="116.318007"/>
     <use style="fill:#4c72b0;stroke:#4c72b0;stroke-width:1.5;" x="195.975497" xlink:href="#mde0a940c37" y="100.47074"/>
     <use style="fill:#4c72b0;stroke:#4c72b0;stroke-width:1.5;" x="254.495635" xlink:href="#mde0a940c37" y="212.834451"/>
     <use style="fill:#4c72b0;stroke:#4c72b0;stroke-width:1.5;" x="138.858477" xlink:href="#mde0a940c37" y="125.615376"/>
     <use style="fill:#4c72b0;stroke:#4c72b0;stroke-width:1.5;" x="97.464104" xlink:href="#mde0a940c37" y="157.98448"/>
     <use style="fill:#4c72b0;stroke:#4c72b0;stroke-width:1.5;" x="85.129999" xlink:href="#mde0a940c37" y="109.951734"/>
     <use style="fill:#4c72b0;stroke:#4c72b0;stroke-width:1.5;" x="292.638234" xlink:href="#mde0a940c37" y="148.93915"/>
     <use style="fill:#4c72b0;stroke:#4c72b0;stroke-width:1.5;" x="125.380747" xlink:href="#mde0a940c37" y="154.260317"/>
     <use style="fill:#4c72b0;stroke:#4c72b0;stroke-width:1.5;" x="275.014001" xlink:href="#mde0a940c37" y="155.513965"/>
     <use style="fill:#4c72b0;stroke:#4c72b0;stroke-width:1.5;" x="198.978324" xlink:href="#mde0a940c37" y="132.294092"/>
     <use style="fill:#4c72b0;stroke:#4c72b0;stroke-width:1.5;" x="208.045375" xlink:href="#mde0a940c37" y="47.890138"/>
     <use style="fill:#4c72b0;stroke:#4c72b0;stroke-width:1.5;" x="139.196302" xlink:href="#mde0a940c37" y="178.711999"/>
     <use style="fill:#4c72b0;stroke:#4c72b0;stroke-width:1.5;" x="146.297674" xlink:href="#mde0a940c37" y="143.944207"/>
     <use style="fill:#4c72b0;stroke:#4c72b0;stroke-width:1.5;" x="303.515651" xlink:href="#mde0a940c37" y="76.580578"/>
     <use style="fill:#4c72b0;stroke:#4c72b0;stroke-width:1.5;" x="111.426954" xlink:href="#mde0a940c37" y="142.422347"/>
     <use style="fill:#4c72b0;stroke:#4c72b0;stroke-width:1.5;" x="248.304646" xlink:href="#mde0a940c37" y="122.997896"/>
     <use style="fill:#4c72b0;stroke:#4c72b0;stroke-width:1.5;" x="139.357421" xlink:href="#mde0a940c37" y="150.798488"/>
     <use style="fill:#4c72b0;stroke:#4c72b0;stroke-width:1.5;" x="249.242826" xlink:href="#mde0a940c37" y="152.991558"/>
     <use style="fill:#4c72b0;stroke:#4c72b0;stroke-width:1.5;" x="157.166211" xlink:href="#mde0a940c37" y="140.256812"/>
     <use style="fill:#4c72b0;stroke:#4c72b0;stroke-width:1.5;" x="169.422285" xlink:href="#mde0a940c37" y="82.664069"/>
     <use style="fill:#4c72b0;stroke:#4c72b0;stroke-width:1.5;" x="140.311288" xlink:href="#mde0a940c37" y="113.20115"/>
     <use style="fill:#4c72b0;stroke:#4c72b0;stroke-width:1.5;" x="315.369221" xlink:href="#mde0a940c37" y="162.444175"/>
     <use style="fill:#4c72b0;stroke:#4c72b0;stroke-width:1.5;" x="148.877413" xlink:href="#mde0a940c37" y="158.881156"/>
     <use style="fill:#4c72b0;stroke:#4c72b0;stroke-width:1.5;" x="139.964586" xlink:href="#mde0a940c37" y="112.541116"/>
     <use style="fill:#4c72b0;stroke:#4c72b0;stroke-width:1.5;" x="133.876186" xlink:href="#mde0a940c37" y="213.968809"/>
     <use style="fill:#4c72b0;stroke:#4c72b0;stroke-width:1.5;" x="267.912483" xlink:href="#mde0a940c37" y="125.52733"/>
     <use style="fill:#4c72b0;stroke:#4c72b0;stroke-width:1.5;" x="123.380967" xlink:href="#mde0a940c37" y="131.72323"/>
     <use style="fill:#4c72b0;stroke:#4c72b0;stroke-width:1.5;" x="242.534553" xlink:href="#mde0a940c37" y="176.413994"/>
     <use style="fill:#4c72b0;stroke:#4c72b0;stroke-width:1.5;" x="239.225794" xlink:href="#mde0a940c37" y="80.043478"/>
     <use style="fill:#4c72b0;stroke:#4c72b0;stroke-width:1.5;" x="86.663907" xlink:href="#mde0a940c37" y="190.640765"/>
     <use style="fill:#4c72b0;stroke:#4c72b0;stroke-width:1.5;" x="189.248102" xlink:href="#mde0a940c37" y="136.785325"/>
     <use style="fill:#4c72b0;stroke:#4c72b0;stroke-width:1.5;" x="108.727392" xlink:href="#mde0a940c37" y="93.456448"/>
     <use style="fill:#4c72b0;stroke:#4c72b0;stroke-width:1.5;" x="157.443067" xlink:href="#mde0a940c37" y="166.701756"/>
     <use style="fill:#4c72b0;stroke:#4c72b0;stroke-width:1.5;" x="250.060153" xlink:href="#mde0a940c37" y="127.077362"/>
     <use style="fill:#4c72b0;stroke:#4c72b0;stroke-width:1.5;" x="130.421237" xlink:href="#mde0a940c37" y="216.020887"/>
     <use style="fill:#4c72b0;stroke:#4c72b0;stroke-width:1.5;" x="147.691994" xlink:href="#mde0a940c37" y="113.424079"/>
     <use style="fill:#4c72b0;stroke:#4c72b0;stroke-width:1.5;" x="193.355579" xlink:href="#mde0a940c37" y="91.845943"/>
     <use style="fill:#4c72b0;stroke:#4c72b0;stroke-width:1.5;" x="242.578282" xlink:href="#mde0a940c37" y="202.483778"/>
     <use style="fill:#4c72b0;stroke:#4c72b0;stroke-width:1.5;" x="249.440199" xlink:href="#mde0a940c37" y="189.387915"/>
     <use style="fill:#4c72b0;stroke:#4c72b0;stroke-width:1.5;" x="140.108911" xlink:href="#mde0a940c37" y="144.579454"/>
     <use style="fill:#4c72b0;stroke:#4c72b0;stroke-width:1.5;" x="104.099409" xlink:href="#mde0a940c37" y="112.358539"/>
     <use style="fill:#4c72b0;stroke:#4c72b0;stroke-width:1.5;" x="244.250547" xlink:href="#mde0a940c37" y="183.66351"/>
     <use style="fill:#4c72b0;stroke:#4c72b0;stroke-width:1.5;" x="308.707992" xlink:href="#mde0a940c37" y="122.231534"/>
     <use style="fill:#4c72b0;stroke:#4c72b0;stroke-width:1.5;" x="214.9128" xlink:href="#mde0a940c37" y="91.909219"/>
     <use style="fill:#4c72b0;stroke:#4c72b0;stroke-width:1.5;" x="199.748543" xlink:href="#mde0a940c37" y="170.070422"/>
    </g>
   </g>
   <g id="patch_3">
    <path d="M 54 252 
L 54 34.56 
" style="fill:none;stroke:#cccccc;stroke-linecap:square;stroke-linejoin:miter;stroke-width:1.25;"/>
   </g>
   <g id="patch_4">
    <path d="M 388.8 252 
L 388.8 34.56 
" style="fill:none;stroke:#cccccc;stroke-linecap:square;stroke-linejoin:miter;stroke-width:1.25;"/>
   </g>
   <g id="patch_5">
    <path d="M 54 252 
L 388.8 252 
" style="fill:none;stroke:#cccccc;stroke-linecap:square;stroke-linejoin:miter;stroke-width:1.25;"/>
   </g>
   <g id="patch_6">
    <path d="M 54 34.56 
L 388.8 34.56 
" style="fill:none;stroke:#cccccc;stroke-linecap:square;stroke-linejoin:miter;stroke-width:1.25;"/>
   </g>
   <g id="text_10">
    <!-- Residual Dependence Plot -->
    <defs>
     <path d="M 7.71875 0 
L 7.71875 71.578125 
L 32.375 71.578125 
Q 40.71875 71.578125 45.125 70.5625 
Q 51.265625 69.140625 55.609375 65.4375 
Q 61.28125 60.640625 64.078125 53.1875 
Q 66.890625 45.75 66.890625 36.1875 
Q 66.890625 28.03125 64.984375 21.734375 
Q 63.09375 15.4375 60.109375 11.296875 
Q 57.125 7.171875 53.578125 4.796875 
Q 50.046875 2.4375 45.046875 1.21875 
Q 40.046875 0 33.546875 0 
z
M 17.1875 8.453125 
L 32.46875 8.453125 
Q 39.546875 8.453125 43.578125 9.765625 
Q 47.609375 11.078125 50 13.484375 
Q 53.375 16.84375 55.25 22.53125 
Q 57.125 28.21875 57.125 36.328125 
Q 57.125 47.5625 53.4375 53.59375 
Q 49.75 59.625 44.484375 61.671875 
Q 40.671875 63.140625 32.234375 63.140625 
L 17.1875 63.140625 
z
" id="ArialMT-68"/>
     <path d="M 6.59375 -19.875 
L 6.59375 51.859375 
L 14.59375 51.859375 
L 14.59375 45.125 
Q 17.4375 49.078125 21 51.046875 
Q 24.5625 53.03125 29.640625 53.03125 
Q 36.28125 53.03125 41.359375 49.609375 
Q 46.4375 46.1875 49.015625 39.953125 
Q 51.609375 33.734375 51.609375 26.3125 
Q 51.609375 18.359375 48.75 11.984375 
Q 45.90625 5.609375 40.453125 2.21875 
Q 35.015625 -1.171875 29 -1.171875 
Q 24.609375 -1.171875 21.109375 0.6875 
Q 17.625 2.546875 15.375 5.375 
L 15.375 -19.875 
z
M 14.546875 25.640625 
Q 14.546875 15.625 18.59375 10.84375 
Q 22.65625 6.0625 28.421875 6.0625 
Q 34.28125 6.0625 38.453125 11.015625 
Q 42.625 15.96875 42.625 26.375 
Q 42.625 36.28125 38.546875 41.203125 
Q 34.46875 46.140625 28.8125 46.140625 
Q 23.1875 46.140625 18.859375 40.890625 
Q 14.546875 35.640625 14.546875 25.640625 
z
" id="ArialMT-112"/>
     <path d="M 40.4375 19 
L 49.078125 17.875 
Q 47.65625 8.9375 41.8125 3.875 
Q 35.984375 -1.171875 27.484375 -1.171875 
Q 16.84375 -1.171875 10.375 5.78125 
Q 3.90625 12.75 3.90625 25.734375 
Q 3.90625 34.125 6.6875 40.421875 
Q 9.46875 46.734375 15.15625 49.875 
Q 20.84375 53.03125 27.546875 53.03125 
Q 35.984375 53.03125 41.359375 48.75 
Q 46.734375 44.484375 48.25 36.625 
L 39.703125 35.296875 
Q 38.484375 40.53125 35.375 43.15625 
Q 32.28125 45.796875 27.875 45.796875 
Q 21.234375 45.796875 17.078125 41.03125 
Q 12.9375 36.28125 12.9375 25.984375 
Q 12.9375 15.53125 16.9375 10.796875 
Q 20.953125 6.0625 27.390625 6.0625 
Q 32.5625 6.0625 36.03125 9.234375 
Q 39.5 12.40625 40.4375 19 
z
" id="ArialMT-99"/>
    </defs>
    <g style="fill:#262626;" transform="translate(79.3125 28.56)scale(0.24 -0.24)">
     <use xlink:href="#ArialMT-82"/>
     <use x="72.216797" xlink:href="#ArialMT-101"/>
     <use x="127.832031" xlink:href="#ArialMT-115"/>
     <use x="177.832031" xlink:href="#ArialMT-105"/>
     <use x="200.048828" xlink:href="#ArialMT-100"/>
     <use x="255.664062" xlink:href="#ArialMT-117"/>
     <use x="311.279297" xlink:href="#ArialMT-97"/>
     <use x="366.894531" xlink:href="#ArialMT-108"/>
     <use x="389.111328" xlink:href="#ArialMT-32"/>
     <use x="416.894531" xlink:href="#ArialMT-68"/>
     <use x="489.111328" xlink:href="#ArialMT-101"/>
     <use x="544.726562" xlink:href="#ArialMT-112"/>
     <use x="600.341797" xlink:href="#ArialMT-101"/>
     <use x="655.957031" xlink:href="#ArialMT-110"/>
     <use x="711.572266" xlink:href="#ArialMT-100"/>
     <use x="767.1875" xlink:href="#ArialMT-101"/>
     <use x="822.802734" xlink:href="#ArialMT-110"/>
     <use x="878.417969" xlink:href="#ArialMT-99"/>
     <use x="928.417969" xlink:href="#ArialMT-101"/>
     <use x="984.033203" xlink:href="#ArialMT-32"/>
     <use x="1011.816406" xlink:href="#ArialMT-80"/>
     <use x="1078.515625" xlink:href="#ArialMT-108"/>
     <use x="1100.732422" xlink:href="#ArialMT-111"/>
     <use x="1156.347656" xlink:href="#ArialMT-116"/>
    </g>
   </g>
  </g>
 </g>
 <defs>
  <clipPath id="pbec946764d">
   <rect height="217.44" width="334.8" x="54" y="34.56"/>
  </clipPath>
 </defs>
</svg>
