<?xml version="1.0" encoding="utf-8" standalone="no"?>
<!DOCTYPE svg PUBLIC "-//W3C//DTD SVG 1.1//EN"
  "http://www.w3.org/Graphics/SVG/1.1/DTD/svg11.dtd">
<!-- Created with matplotlib (https://matplotlib.org/) -->
<svg height="432pt" version="1.1" viewBox="0 0 1152 432" width="1152pt" xmlns="http://www.w3.org/2000/svg" xmlns:xlink="http://www.w3.org/1999/xlink">
 <defs>
  <style type="text/css">
*{stroke-linecap:butt;stroke-linejoin:round;}
  </style>
 </defs>
 <g id="figure_1">
  <g id="patch_1">
   <path d="M 0 432 
L 1152 432 
L 1152 0 
L 0 0 
z
" style="fill:#ffffff;"/>
  </g>
  <g id="axes_1">
   <g id="patch_2">
    <path d="M 144 378 
L 1036.8 378 
L 1036.8 51.84 
L 144 51.84 
z
" style="fill:#ffffff;"/>
   </g>
   <g id="matplotlib.axis_1">
    <g id="xtick_1">
     <g id="line2d_1">
      <path clip-path="url(#p8c4e0bb278)" d="M 176.500994 378 
L 176.500994 51.84 
" style="fill:none;stroke:#cccccc;stroke-linecap:round;"/>
     </g>
     <g id="line2d_2"/>
     <g id="text_1">
      <!-- 0.025 -->
      <defs>
       <path d="M 4.15625 35.296875 
Q 4.15625 48 6.765625 55.734375 
Q 9.375 63.484375 14.515625 67.671875 
Q 19.671875 71.875 27.484375 71.875 
Q 33.25 71.875 37.59375 69.546875 
Q 41.9375 67.234375 44.765625 62.859375 
Q 47.609375 58.5 49.21875 52.21875 
Q 50.828125 45.953125 50.828125 35.296875 
Q 50.828125 22.703125 48.234375 14.96875 
Q 45.65625 7.234375 40.5 3 
Q 35.359375 -1.21875 27.484375 -1.21875 
Q 17.140625 -1.21875 11.234375 6.203125 
Q 4.15625 15.140625 4.15625 35.296875 
z
M 13.1875 35.296875 
Q 13.1875 17.671875 17.3125 11.828125 
Q 21.4375 6 27.484375 6 
Q 33.546875 6 37.671875 11.859375 
Q 41.796875 17.71875 41.796875 35.296875 
Q 41.796875 52.984375 37.671875 58.78125 
Q 33.546875 64.59375 27.390625 64.59375 
Q 21.34375 64.59375 17.71875 59.46875 
Q 13.1875 52.9375 13.1875 35.296875 
z
" id="ArialMT-48"/>
       <path d="M 9.078125 0 
L 9.078125 10.015625 
L 19.09375 10.015625 
L 19.09375 0 
z
" id="ArialMT-46"/>
       <path d="M 50.34375 8.453125 
L 50.34375 0 
L 3.03125 0 
Q 2.9375 3.171875 4.046875 6.109375 
Q 5.859375 10.9375 9.828125 15.625 
Q 13.8125 20.3125 21.34375 26.46875 
Q 33.015625 36.03125 37.109375 41.625 
Q 41.21875 47.21875 41.21875 52.203125 
Q 41.21875 57.421875 37.46875 61 
Q 33.734375 64.59375 27.734375 64.59375 
Q 21.390625 64.59375 17.578125 60.78125 
Q 13.765625 56.984375 13.71875 50.25 
L 4.6875 51.171875 
Q 5.609375 61.28125 11.65625 66.578125 
Q 17.71875 71.875 27.9375 71.875 
Q 38.234375 71.875 44.234375 66.15625 
Q 50.25 60.453125 50.25 52 
Q 50.25 47.703125 48.484375 43.546875 
Q 46.734375 39.40625 42.65625 34.8125 
Q 38.578125 30.21875 29.109375 22.21875 
Q 21.1875 15.578125 18.9375 13.203125 
Q 16.703125 10.84375 15.234375 8.453125 
z
" id="ArialMT-50"/>
       <path d="M 4.15625 18.75 
L 13.375 19.53125 
Q 14.40625 12.796875 18.140625 9.390625 
Q 21.875 6 27.15625 6 
Q 33.5 6 37.890625 10.78125 
Q 42.28125 15.578125 42.28125 23.484375 
Q 42.28125 31 38.0625 35.34375 
Q 33.84375 39.703125 27 39.703125 
Q 22.75 39.703125 19.328125 37.765625 
Q 15.921875 35.84375 13.96875 32.765625 
L 5.71875 33.84375 
L 12.640625 70.609375 
L 48.25 70.609375 
L 48.25 62.203125 
L 19.671875 62.203125 
L 15.828125 42.96875 
Q 22.265625 47.46875 29.34375 47.46875 
Q 38.71875 47.46875 45.15625 40.96875 
Q 51.609375 34.46875 51.609375 24.265625 
Q 51.609375 14.546875 45.953125 7.46875 
Q 39.0625 -1.21875 27.15625 -1.21875 
Q 17.390625 -1.21875 11.203125 4.25 
Q 5.03125 9.71875 4.15625 18.75 
z
" id="ArialMT-53"/>
      </defs>
      <g style="fill:#262626;" transform="translate(151.479119 399.315625)scale(0.2 -0.2)">
       <use xlink:href="#ArialMT-48"/>
       <use x="55.615234" xlink:href="#ArialMT-46"/>
       <use x="83.398438" xlink:href="#ArialMT-48"/>
       <use x="139.013672" xlink:href="#ArialMT-50"/>
       <use x="194.628906" xlink:href="#ArialMT-53"/>
      </g>
     </g>
    </g>
    <g id="xtick_2">
     <g id="line2d_3">
      <path clip-path="url(#p8c4e0bb278)" d="M 277.631463 378 
L 277.631463 51.84 
" style="fill:none;stroke:#cccccc;stroke-linecap:round;"/>
     </g>
     <g id="line2d_4"/>
     <g id="text_2">
      <!-- 0.050 -->
      <g style="fill:#262626;" transform="translate(252.609588 399.315625)scale(0.2 -0.2)">
       <use xlink:href="#ArialMT-48"/>
       <use x="55.615234" xlink:href="#ArialMT-46"/>
       <use x="83.398438" xlink:href="#ArialMT-48"/>
       <use x="139.013672" xlink:href="#ArialMT-53"/>
       <use x="194.628906" xlink:href="#ArialMT-48"/>
      </g>
     </g>
    </g>
    <g id="xtick_3">
     <g id="line2d_5">
      <path clip-path="url(#p8c4e0bb278)" d="M 378.761932 378 
L 378.761932 51.84 
" style="fill:none;stroke:#cccccc;stroke-linecap:round;"/>
     </g>
     <g id="line2d_6"/>
     <g id="text_3">
      <!-- 0.075 -->
      <defs>
       <path d="M 4.734375 62.203125 
L 4.734375 70.65625 
L 51.078125 70.65625 
L 51.078125 63.8125 
Q 44.234375 56.546875 37.515625 44.484375 
Q 30.8125 32.421875 27.15625 19.671875 
Q 24.515625 10.6875 23.78125 0 
L 14.75 0 
Q 14.890625 8.453125 18.0625 20.40625 
Q 21.234375 32.375 27.171875 43.484375 
Q 33.109375 54.59375 39.796875 62.203125 
z
" id="ArialMT-55"/>
      </defs>
      <g style="fill:#262626;" transform="translate(353.740057 399.315625)scale(0.2 -0.2)">
       <use xlink:href="#ArialMT-48"/>
       <use x="55.615234" xlink:href="#ArialMT-46"/>
       <use x="83.398438" xlink:href="#ArialMT-48"/>
       <use x="139.013672" xlink:href="#ArialMT-55"/>
       <use x="194.628906" xlink:href="#ArialMT-53"/>
      </g>
     </g>
    </g>
    <g id="xtick_4">
     <g id="line2d_7">
      <path clip-path="url(#p8c4e0bb278)" d="M 479.8924 378 
L 479.8924 51.84 
" style="fill:none;stroke:#cccccc;stroke-linecap:round;"/>
     </g>
     <g id="line2d_8"/>
     <g id="text_4">
      <!-- 0.100 -->
      <defs>
       <path d="M 37.25 0 
L 28.46875 0 
L 28.46875 56 
Q 25.296875 52.984375 20.140625 49.953125 
Q 14.984375 46.921875 10.890625 45.40625 
L 10.890625 53.90625 
Q 18.265625 57.375 23.78125 62.296875 
Q 29.296875 67.234375 31.59375 71.875 
L 37.25 71.875 
z
" id="ArialMT-49"/>
      </defs>
      <g style="fill:#262626;" transform="translate(454.870525 399.315625)scale(0.2 -0.2)">
       <use xlink:href="#ArialMT-48"/>
       <use x="55.615234" xlink:href="#ArialMT-46"/>
       <use x="83.398438" xlink:href="#ArialMT-49"/>
       <use x="139.013672" xlink:href="#ArialMT-48"/>
       <use x="194.628906" xlink:href="#ArialMT-48"/>
      </g>
     </g>
    </g>
    <g id="xtick_5">
     <g id="line2d_9">
      <path clip-path="url(#p8c4e0bb278)" d="M 581.022869 378 
L 581.022869 51.84 
" style="fill:none;stroke:#cccccc;stroke-linecap:round;"/>
     </g>
     <g id="line2d_10"/>
     <g id="text_5">
      <!-- 0.125 -->
      <g style="fill:#262626;" transform="translate(556.000994 399.315625)scale(0.2 -0.2)">
       <use xlink:href="#ArialMT-48"/>
       <use x="55.615234" xlink:href="#ArialMT-46"/>
       <use x="83.398438" xlink:href="#ArialMT-49"/>
       <use x="139.013672" xlink:href="#ArialMT-50"/>
       <use x="194.628906" xlink:href="#ArialMT-53"/>
      </g>
     </g>
    </g>
    <g id="xtick_6">
     <g id="line2d_11">
      <path clip-path="url(#p8c4e0bb278)" d="M 682.153338 378 
L 682.153338 51.84 
" style="fill:none;stroke:#cccccc;stroke-linecap:round;"/>
     </g>
     <g id="line2d_12"/>
     <g id="text_6">
      <!-- 0.150 -->
      <g style="fill:#262626;" transform="translate(657.131463 399.315625)scale(0.2 -0.2)">
       <use xlink:href="#ArialMT-48"/>
       <use x="55.615234" xlink:href="#ArialMT-46"/>
       <use x="83.398438" xlink:href="#ArialMT-49"/>
       <use x="139.013672" xlink:href="#ArialMT-53"/>
       <use x="194.628906" xlink:href="#ArialMT-48"/>
      </g>
     </g>
    </g>
    <g id="xtick_7">
     <g id="line2d_13">
      <path clip-path="url(#p8c4e0bb278)" d="M 783.283807 378 
L 783.283807 51.84 
" style="fill:none;stroke:#cccccc;stroke-linecap:round;"/>
     </g>
     <g id="line2d_14"/>
     <g id="text_7">
      <!-- 0.175 -->
      <g style="fill:#262626;" transform="translate(758.261932 399.315625)scale(0.2 -0.2)">
       <use xlink:href="#ArialMT-48"/>
       <use x="55.615234" xlink:href="#ArialMT-46"/>
       <use x="83.398438" xlink:href="#ArialMT-49"/>
       <use x="139.013672" xlink:href="#ArialMT-55"/>
       <use x="194.628906" xlink:href="#ArialMT-53"/>
      </g>
     </g>
    </g>
    <g id="xtick_8">
     <g id="line2d_15">
      <path clip-path="url(#p8c4e0bb278)" d="M 884.414276 378 
L 884.414276 51.84 
" style="fill:none;stroke:#cccccc;stroke-linecap:round;"/>
     </g>
     <g id="line2d_16"/>
     <g id="text_8">
      <!-- 0.200 -->
      <g style="fill:#262626;" transform="translate(859.392401 399.315625)scale(0.2 -0.2)">
       <use xlink:href="#ArialMT-48"/>
       <use x="55.615234" xlink:href="#ArialMT-46"/>
       <use x="83.398438" xlink:href="#ArialMT-50"/>
       <use x="139.013672" xlink:href="#ArialMT-48"/>
       <use x="194.628906" xlink:href="#ArialMT-48"/>
      </g>
     </g>
    </g>
    <g id="xtick_9">
     <g id="line2d_17">
      <path clip-path="url(#p8c4e0bb278)" d="M 985.544744 378 
L 985.544744 51.84 
" style="fill:none;stroke:#cccccc;stroke-linecap:round;"/>
     </g>
     <g id="line2d_18"/>
     <g id="text_9">
      <!-- 0.225 -->
      <g style="fill:#262626;" transform="translate(960.522869 399.315625)scale(0.2 -0.2)">
       <use xlink:href="#ArialMT-48"/>
       <use x="55.615234" xlink:href="#ArialMT-46"/>
       <use x="83.398438" xlink:href="#ArialMT-50"/>
       <use x="139.013672" xlink:href="#ArialMT-50"/>
       <use x="194.628906" xlink:href="#ArialMT-53"/>
      </g>
     </g>
    </g>
    <g id="text_10">
     <!-- Observed values -->
     <defs>
      <path d="M 4.828125 34.859375 
Q 4.828125 52.6875 14.390625 62.765625 
Q 23.96875 72.859375 39.109375 72.859375 
Q 49.03125 72.859375 56.984375 68.109375 
Q 64.9375 63.375 69.109375 54.90625 
Q 73.296875 46.4375 73.296875 35.6875 
Q 73.296875 24.8125 68.890625 16.21875 
Q 64.5 7.625 56.4375 3.203125 
Q 48.390625 -1.21875 39.0625 -1.21875 
Q 28.953125 -1.21875 20.984375 3.65625 
Q 13.03125 8.546875 8.921875 16.984375 
Q 4.828125 25.4375 4.828125 34.859375 
z
M 14.59375 34.71875 
Q 14.59375 21.78125 21.546875 14.328125 
Q 28.515625 6.890625 39.015625 6.890625 
Q 49.703125 6.890625 56.609375 14.40625 
Q 63.53125 21.921875 63.53125 35.75 
Q 63.53125 44.484375 60.578125 51 
Q 57.625 57.515625 51.921875 61.109375 
Q 46.234375 64.703125 39.15625 64.703125 
Q 29.109375 64.703125 21.84375 57.78125 
Q 14.59375 50.875 14.59375 34.71875 
z
" id="ArialMT-79"/>
      <path d="M 14.703125 0 
L 6.546875 0 
L 6.546875 71.578125 
L 15.328125 71.578125 
L 15.328125 46.046875 
Q 20.90625 53.03125 29.546875 53.03125 
Q 34.328125 53.03125 38.59375 51.09375 
Q 42.875 49.171875 45.625 45.671875 
Q 48.390625 42.1875 49.953125 37.25 
Q 51.515625 32.328125 51.515625 26.703125 
Q 51.515625 13.375 44.921875 6.09375 
Q 38.328125 -1.171875 29.109375 -1.171875 
Q 19.921875 -1.171875 14.703125 6.5 
z
M 14.59375 26.3125 
Q 14.59375 17 17.140625 12.84375 
Q 21.296875 6.0625 28.375 6.0625 
Q 34.125 6.0625 38.328125 11.0625 
Q 42.53125 16.0625 42.53125 25.984375 
Q 42.53125 36.140625 38.5 40.96875 
Q 34.46875 45.796875 28.765625 45.796875 
Q 23 45.796875 18.796875 40.796875 
Q 14.59375 35.796875 14.59375 26.3125 
z
" id="ArialMT-98"/>
      <path d="M 3.078125 15.484375 
L 11.765625 16.84375 
Q 12.5 11.625 15.84375 8.84375 
Q 19.1875 6.0625 25.203125 6.0625 
Q 31.25 6.0625 34.171875 8.515625 
Q 37.109375 10.984375 37.109375 14.3125 
Q 37.109375 17.28125 34.515625 19 
Q 32.71875 20.171875 25.53125 21.96875 
Q 15.875 24.421875 12.140625 26.203125 
Q 8.40625 27.984375 6.46875 31.125 
Q 4.546875 34.28125 4.546875 38.09375 
Q 4.546875 41.546875 6.125 44.5 
Q 7.71875 47.46875 10.453125 49.421875 
Q 12.5 50.921875 16.03125 51.96875 
Q 19.578125 53.03125 23.640625 53.03125 
Q 29.734375 53.03125 34.34375 51.265625 
Q 38.96875 49.515625 41.15625 46.5 
Q 43.359375 43.5 44.1875 38.484375 
L 35.59375 37.3125 
Q 35.015625 41.3125 32.203125 43.546875 
Q 29.390625 45.796875 24.265625 45.796875 
Q 18.21875 45.796875 15.625 43.796875 
Q 13.03125 41.796875 13.03125 39.109375 
Q 13.03125 37.40625 14.109375 36.03125 
Q 15.1875 34.625 17.484375 33.6875 
Q 18.796875 33.203125 25.25 31.453125 
Q 34.578125 28.953125 38.25 27.359375 
Q 41.9375 25.78125 44.03125 22.75 
Q 46.140625 19.734375 46.140625 15.234375 
Q 46.140625 10.84375 43.578125 6.953125 
Q 41.015625 3.078125 36.171875 0.953125 
Q 31.34375 -1.171875 25.25 -1.171875 
Q 15.140625 -1.171875 9.84375 3.03125 
Q 4.546875 7.234375 3.078125 15.484375 
z
" id="ArialMT-115"/>
      <path d="M 42.09375 16.703125 
L 51.171875 15.578125 
Q 49.03125 7.625 43.21875 3.21875 
Q 37.40625 -1.171875 28.375 -1.171875 
Q 17 -1.171875 10.328125 5.828125 
Q 3.65625 12.84375 3.65625 25.484375 
Q 3.65625 38.578125 10.390625 45.796875 
Q 17.140625 53.03125 27.875 53.03125 
Q 38.28125 53.03125 44.875 45.953125 
Q 51.46875 38.875 51.46875 26.03125 
Q 51.46875 25.25 51.421875 23.6875 
L 12.75 23.6875 
Q 13.234375 15.140625 17.578125 10.59375 
Q 21.921875 6.0625 28.421875 6.0625 
Q 33.25 6.0625 36.671875 8.59375 
Q 40.09375 11.140625 42.09375 16.703125 
z
M 13.234375 30.90625 
L 42.1875 30.90625 
Q 41.609375 37.453125 38.875 40.71875 
Q 34.671875 45.796875 27.984375 45.796875 
Q 21.921875 45.796875 17.796875 41.75 
Q 13.671875 37.703125 13.234375 30.90625 
z
" id="ArialMT-101"/>
      <path d="M 6.5 0 
L 6.5 51.859375 
L 14.40625 51.859375 
L 14.40625 44 
Q 17.4375 49.515625 20 51.265625 
Q 22.5625 53.03125 25.640625 53.03125 
Q 30.078125 53.03125 34.671875 50.203125 
L 31.640625 42.046875 
Q 28.421875 43.953125 25.203125 43.953125 
Q 22.3125 43.953125 20.015625 42.21875 
Q 17.71875 40.484375 16.75 37.40625 
Q 15.28125 32.71875 15.28125 27.15625 
L 15.28125 0 
z
" id="ArialMT-114"/>
      <path d="M 21 0 
L 1.265625 51.859375 
L 10.546875 51.859375 
L 21.6875 20.796875 
Q 23.484375 15.765625 25 10.359375 
Q 26.171875 14.453125 28.265625 20.21875 
L 39.796875 51.859375 
L 48.828125 51.859375 
L 29.203125 0 
z
" id="ArialMT-118"/>
      <path d="M 40.234375 0 
L 40.234375 6.546875 
Q 35.296875 -1.171875 25.734375 -1.171875 
Q 19.53125 -1.171875 14.328125 2.25 
Q 9.125 5.671875 6.265625 11.796875 
Q 3.421875 17.921875 3.421875 25.875 
Q 3.421875 33.640625 6 39.96875 
Q 8.59375 46.296875 13.765625 49.65625 
Q 18.953125 53.03125 25.34375 53.03125 
Q 30.03125 53.03125 33.6875 51.046875 
Q 37.359375 49.078125 39.65625 45.90625 
L 39.65625 71.578125 
L 48.390625 71.578125 
L 48.390625 0 
z
M 12.453125 25.875 
Q 12.453125 15.921875 16.640625 10.984375 
Q 20.84375 6.0625 26.5625 6.0625 
Q 32.328125 6.0625 36.34375 10.765625 
Q 40.375 15.484375 40.375 25.140625 
Q 40.375 35.796875 36.265625 40.765625 
Q 32.171875 45.75 26.171875 45.75 
Q 20.3125 45.75 16.375 40.96875 
Q 12.453125 36.1875 12.453125 25.875 
z
" id="ArialMT-100"/>
      <path id="ArialMT-32"/>
      <path d="M 40.4375 6.390625 
Q 35.546875 2.25 31.03125 0.53125 
Q 26.515625 -1.171875 21.34375 -1.171875 
Q 12.796875 -1.171875 8.203125 3 
Q 3.609375 7.171875 3.609375 13.671875 
Q 3.609375 17.484375 5.34375 20.625 
Q 7.078125 23.78125 9.890625 25.6875 
Q 12.703125 27.59375 16.21875 28.5625 
Q 18.796875 29.25 24.03125 29.890625 
Q 34.671875 31.15625 39.703125 32.90625 
Q 39.75 34.71875 39.75 35.203125 
Q 39.75 40.578125 37.25 42.78125 
Q 33.890625 45.75 27.25 45.75 
Q 21.046875 45.75 18.09375 43.578125 
Q 15.140625 41.40625 13.71875 35.890625 
L 5.125 37.0625 
Q 6.296875 42.578125 8.984375 45.96875 
Q 11.671875 49.359375 16.75 51.1875 
Q 21.828125 53.03125 28.515625 53.03125 
Q 35.15625 53.03125 39.296875 51.46875 
Q 43.453125 49.90625 45.40625 47.53125 
Q 47.359375 45.171875 48.140625 41.546875 
Q 48.578125 39.3125 48.578125 33.453125 
L 48.578125 21.734375 
Q 48.578125 9.46875 49.140625 6.21875 
Q 49.703125 2.984375 51.375 0 
L 42.1875 0 
Q 40.828125 2.734375 40.4375 6.390625 
z
M 39.703125 26.03125 
Q 34.90625 24.078125 25.34375 22.703125 
Q 19.921875 21.921875 17.671875 20.9375 
Q 15.4375 19.96875 14.203125 18.09375 
Q 12.984375 16.21875 12.984375 13.921875 
Q 12.984375 10.40625 15.640625 8.0625 
Q 18.3125 5.71875 23.4375 5.71875 
Q 28.515625 5.71875 32.46875 7.9375 
Q 36.421875 10.15625 38.28125 14.015625 
Q 39.703125 17 39.703125 22.796875 
z
" id="ArialMT-97"/>
      <path d="M 6.390625 0 
L 6.390625 71.578125 
L 15.1875 71.578125 
L 15.1875 0 
z
" id="ArialMT-108"/>
      <path d="M 40.578125 0 
L 40.578125 7.625 
Q 34.515625 -1.171875 24.125 -1.171875 
Q 19.53125 -1.171875 15.546875 0.578125 
Q 11.578125 2.34375 9.640625 5 
Q 7.71875 7.671875 6.9375 11.53125 
Q 6.390625 14.109375 6.390625 19.734375 
L 6.390625 51.859375 
L 15.1875 51.859375 
L 15.1875 23.09375 
Q 15.1875 16.21875 15.71875 13.8125 
Q 16.546875 10.359375 19.234375 8.375 
Q 21.921875 6.390625 25.875 6.390625 
Q 29.828125 6.390625 33.296875 8.421875 
Q 36.765625 10.453125 38.203125 13.9375 
Q 39.65625 17.4375 39.65625 24.078125 
L 39.65625 51.859375 
L 48.4375 51.859375 
L 48.4375 0 
z
" id="ArialMT-117"/>
     </defs>
     <g style="fill:#262626;" transform="translate(507.862188 423.037813)scale(0.22 -0.22)">
      <use xlink:href="#ArialMT-79"/>
      <use x="77.783203" xlink:href="#ArialMT-98"/>
      <use x="133.398438" xlink:href="#ArialMT-115"/>
      <use x="183.398438" xlink:href="#ArialMT-101"/>
      <use x="239.013672" xlink:href="#ArialMT-114"/>
      <use x="272.314453" xlink:href="#ArialMT-118"/>
      <use x="322.314453" xlink:href="#ArialMT-101"/>
      <use x="377.929688" xlink:href="#ArialMT-100"/>
      <use x="433.544922" xlink:href="#ArialMT-32"/>
      <use x="461.328125" xlink:href="#ArialMT-118"/>
      <use x="511.328125" xlink:href="#ArialMT-97"/>
      <use x="566.943359" xlink:href="#ArialMT-108"/>
      <use x="589.160156" xlink:href="#ArialMT-117"/>
      <use x="644.775391" xlink:href="#ArialMT-101"/>
      <use x="700.390625" xlink:href="#ArialMT-115"/>
     </g>
    </g>
   </g>
   <g id="matplotlib.axis_2">
    <g id="ytick_1">
     <g id="line2d_19">
      <path clip-path="url(#p8c4e0bb278)" d="M 144 333.310428 
L 1036.8 333.310428 
" style="fill:none;stroke:#cccccc;stroke-linecap:round;"/>
     </g>
     <g id="line2d_20"/>
     <g id="text_11">
      <!-- 0.050 -->
      <g style="fill:#262626;" transform="translate(86.95625 340.46824)scale(0.2 -0.2)">
       <use xlink:href="#ArialMT-48"/>
       <use x="55.615234" xlink:href="#ArialMT-46"/>
       <use x="83.398438" xlink:href="#ArialMT-48"/>
       <use x="139.013672" xlink:href="#ArialMT-53"/>
       <use x="194.628906" xlink:href="#ArialMT-48"/>
      </g>
     </g>
    </g>
    <g id="ytick_2">
     <g id="line2d_21">
      <path clip-path="url(#p8c4e0bb278)" d="M 144 288.345664 
L 1036.8 288.345664 
" style="fill:none;stroke:#cccccc;stroke-linecap:round;"/>
     </g>
     <g id="line2d_22"/>
     <g id="text_12">
      <!-- 0.075 -->
      <g style="fill:#262626;" transform="translate(86.95625 295.503477)scale(0.2 -0.2)">
       <use xlink:href="#ArialMT-48"/>
       <use x="55.615234" xlink:href="#ArialMT-46"/>
       <use x="83.398438" xlink:href="#ArialMT-48"/>
       <use x="139.013672" xlink:href="#ArialMT-55"/>
       <use x="194.628906" xlink:href="#ArialMT-53"/>
      </g>
     </g>
    </g>
    <g id="ytick_3">
     <g id="line2d_23">
      <path clip-path="url(#p8c4e0bb278)" d="M 144 243.380901 
L 1036.8 243.380901 
" style="fill:none;stroke:#cccccc;stroke-linecap:round;"/>
     </g>
     <g id="line2d_24"/>
     <g id="text_13">
      <!-- 0.100 -->
      <g style="fill:#262626;" transform="translate(86.95625 250.538714)scale(0.2 -0.2)">
       <use xlink:href="#ArialMT-48"/>
       <use x="55.615234" xlink:href="#ArialMT-46"/>
       <use x="83.398438" xlink:href="#ArialMT-49"/>
       <use x="139.013672" xlink:href="#ArialMT-48"/>
       <use x="194.628906" xlink:href="#ArialMT-48"/>
      </g>
     </g>
    </g>
    <g id="ytick_4">
     <g id="line2d_25">
      <path clip-path="url(#p8c4e0bb278)" d="M 144 198.416138 
L 1036.8 198.416138 
" style="fill:none;stroke:#cccccc;stroke-linecap:round;"/>
     </g>
     <g id="line2d_26"/>
     <g id="text_14">
      <!-- 0.125 -->
      <g style="fill:#262626;" transform="translate(86.95625 205.57395)scale(0.2 -0.2)">
       <use xlink:href="#ArialMT-48"/>
       <use x="55.615234" xlink:href="#ArialMT-46"/>
       <use x="83.398438" xlink:href="#ArialMT-49"/>
       <use x="139.013672" xlink:href="#ArialMT-50"/>
       <use x="194.628906" xlink:href="#ArialMT-53"/>
      </g>
     </g>
    </g>
    <g id="ytick_5">
     <g id="line2d_27">
      <path clip-path="url(#p8c4e0bb278)" d="M 144 153.451375 
L 1036.8 153.451375 
" style="fill:none;stroke:#cccccc;stroke-linecap:round;"/>
     </g>
     <g id="line2d_28"/>
     <g id="text_15">
      <!-- 0.150 -->
      <g style="fill:#262626;" transform="translate(86.95625 160.609187)scale(0.2 -0.2)">
       <use xlink:href="#ArialMT-48"/>
       <use x="55.615234" xlink:href="#ArialMT-46"/>
       <use x="83.398438" xlink:href="#ArialMT-49"/>
       <use x="139.013672" xlink:href="#ArialMT-53"/>
       <use x="194.628906" xlink:href="#ArialMT-48"/>
      </g>
     </g>
    </g>
    <g id="ytick_6">
     <g id="line2d_29">
      <path clip-path="url(#p8c4e0bb278)" d="M 144 108.486611 
L 1036.8 108.486611 
" style="fill:none;stroke:#cccccc;stroke-linecap:round;"/>
     </g>
     <g id="line2d_30"/>
     <g id="text_16">
      <!-- 0.175 -->
      <g style="fill:#262626;" transform="translate(86.95625 115.644424)scale(0.2 -0.2)">
       <use xlink:href="#ArialMT-48"/>
       <use x="55.615234" xlink:href="#ArialMT-46"/>
       <use x="83.398438" xlink:href="#ArialMT-49"/>
       <use x="139.013672" xlink:href="#ArialMT-55"/>
       <use x="194.628906" xlink:href="#ArialMT-53"/>
      </g>
     </g>
    </g>
    <g id="ytick_7">
     <g id="line2d_31">
      <path clip-path="url(#p8c4e0bb278)" d="M 144 63.521848 
L 1036.8 63.521848 
" style="fill:none;stroke:#cccccc;stroke-linecap:round;"/>
     </g>
     <g id="line2d_32"/>
     <g id="text_17">
      <!-- 0.200 -->
      <g style="fill:#262626;" transform="translate(86.95625 70.679661)scale(0.2 -0.2)">
       <use xlink:href="#ArialMT-48"/>
       <use x="55.615234" xlink:href="#ArialMT-46"/>
       <use x="83.398438" xlink:href="#ArialMT-50"/>
       <use x="139.013672" xlink:href="#ArialMT-48"/>
       <use x="194.628906" xlink:href="#ArialMT-48"/>
      </g>
     </g>
    </g>
    <g id="text_18">
     <!-- Fitted values -->
     <defs>
      <path d="M 8.203125 0 
L 8.203125 71.578125 
L 56.5 71.578125 
L 56.5 63.140625 
L 17.671875 63.140625 
L 17.671875 40.96875 
L 51.265625 40.96875 
L 51.265625 32.515625 
L 17.671875 32.515625 
L 17.671875 0 
z
" id="ArialMT-70"/>
      <path d="M 6.640625 61.46875 
L 6.640625 71.578125 
L 15.4375 71.578125 
L 15.4375 61.46875 
z
M 6.640625 0 
L 6.640625 51.859375 
L 15.4375 51.859375 
L 15.4375 0 
z
" id="ArialMT-105"/>
      <path d="M 25.78125 7.859375 
L 27.046875 0.09375 
Q 23.34375 -0.6875 20.40625 -0.6875 
Q 15.625 -0.6875 12.984375 0.828125 
Q 10.359375 2.34375 9.28125 4.8125 
Q 8.203125 7.28125 8.203125 15.1875 
L 8.203125 45.015625 
L 1.765625 45.015625 
L 1.765625 51.859375 
L 8.203125 51.859375 
L 8.203125 64.703125 
L 16.9375 69.96875 
L 16.9375 51.859375 
L 25.78125 51.859375 
L 25.78125 45.015625 
L 16.9375 45.015625 
L 16.9375 14.703125 
Q 16.9375 10.9375 17.40625 9.859375 
Q 17.875 8.796875 18.921875 8.15625 
Q 19.96875 7.515625 21.921875 7.515625 
Q 23.390625 7.515625 25.78125 7.859375 
z
" id="ArialMT-116"/>
     </defs>
     <g style="fill:#262626;" transform="translate(78.58375 277.279688)rotate(-90)scale(0.22 -0.22)">
      <use xlink:href="#ArialMT-70"/>
      <use x="61.083984" xlink:href="#ArialMT-105"/>
      <use x="83.300781" xlink:href="#ArialMT-116"/>
      <use x="111.083984" xlink:href="#ArialMT-116"/>
      <use x="138.867188" xlink:href="#ArialMT-101"/>
      <use x="194.482422" xlink:href="#ArialMT-100"/>
      <use x="250.097656" xlink:href="#ArialMT-32"/>
      <use x="277.880859" xlink:href="#ArialMT-118"/>
      <use x="327.880859" xlink:href="#ArialMT-97"/>
      <use x="383.496094" xlink:href="#ArialMT-108"/>
      <use x="405.712891" xlink:href="#ArialMT-117"/>
      <use x="461.328125" xlink:href="#ArialMT-101"/>
      <use x="516.943359" xlink:href="#ArialMT-115"/>
     </g>
    </g>
   </g>
   <g id="PathCollection_1">
    <defs>
     <path d="M -3.5 0 
L 3.5 0 
M 0 3.5 
L 0 -3.5 
" id="m8e9456cd8a" style="stroke:#4c72b0;stroke-width:1.75;"/>
    </defs>
    <g clip-path="url(#p8c4e0bb278)">
     <use style="fill:#4c72b0;stroke:#4c72b0;stroke-width:1.75;" x="481.359832" xlink:href="#m8e9456cd8a" y="232.884572"/>
     <use style="fill:#4c72b0;stroke:#4c72b0;stroke-width:1.75;" x="402.918602" xlink:href="#m8e9456cd8a" y="343.873997"/>
     <use style="fill:#4c72b0;stroke:#4c72b0;stroke-width:1.75;" x="329.558418" xlink:href="#m8e9456cd8a" y="312.852134"/>
     <use style="fill:#4c72b0;stroke:#4c72b0;stroke-width:1.75;" x="275.628879" xlink:href="#m8e9456cd8a" y="327.036969"/>
     <use style="fill:#4c72b0;stroke:#4c72b0;stroke-width:1.75;" x="377.332526" xlink:href="#m8e9456cd8a" y="289.381167"/>
     <use style="fill:#4c72b0;stroke:#4c72b0;stroke-width:1.75;" x="416.22673" xlink:href="#m8e9456cd8a" y="242.332047"/>
     <use style="fill:#4c72b0;stroke:#4c72b0;stroke-width:1.75;" x="614.479923" xlink:href="#m8e9456cd8a" y="167.784897"/>
     <use style="fill:#4c72b0;stroke:#4c72b0;stroke-width:1.75;" x="361.174024" xlink:href="#m8e9456cd8a" y="323.348457"/>
     <use style="fill:#4c72b0;stroke:#4c72b0;stroke-width:1.75;" x="286.328868" xlink:href="#m8e9456cd8a" y="332.987984"/>
     <use style="fill:#4c72b0;stroke:#4c72b0;stroke-width:1.75;" x="461.68296" xlink:href="#m8e9456cd8a" y="253.408389"/>
     <use style="fill:#4c72b0;stroke:#4c72b0;stroke-width:1.75;" x="442.479973" xlink:href="#m8e9456cd8a" y="264.227306"/>
     <use style="fill:#4c72b0;stroke:#4c72b0;stroke-width:1.75;" x="299.643434" xlink:href="#m8e9456cd8a" y="259.99567"/>
     <use style="fill:#4c72b0;stroke:#4c72b0;stroke-width:1.75;" x="302.567743" xlink:href="#m8e9456cd8a" y="321.820758"/>
     <use style="fill:#4c72b0;stroke:#4c72b0;stroke-width:1.75;" x="312.511977" xlink:href="#m8e9456cd8a" y="286.589226"/>
     <use style="fill:#4c72b0;stroke:#4c72b0;stroke-width:1.75;" x="230.346255" xlink:href="#m8e9456cd8a" y="327.34667"/>
     <use style="fill:#4c72b0;stroke:#4c72b0;stroke-width:1.75;" x="306.465307" xlink:href="#m8e9456cd8a" y="325.071645"/>
     <use style="fill:#4c72b0;stroke:#4c72b0;stroke-width:1.75;" x="344.237028" xlink:href="#m8e9456cd8a" y="299.26687"/>
     <use style="fill:#4c72b0;stroke:#4c72b0;stroke-width:1.75;" x="300.002609" xlink:href="#m8e9456cd8a" y="245.821197"/>
     <use style="fill:#4c72b0;stroke:#4c72b0;stroke-width:1.75;" x="545.868203" xlink:href="#m8e9456cd8a" y="283.860972"/>
     <use style="fill:#4c72b0;stroke:#4c72b0;stroke-width:1.75;" x="263.338096" xlink:href="#m8e9456cd8a" y="328.978895"/>
     <use style="fill:#4c72b0;stroke:#4c72b0;stroke-width:1.75;" x="350.438524" xlink:href="#m8e9456cd8a" y="298.3001"/>
     <use style="fill:#4c72b0;stroke:#4c72b0;stroke-width:1.75;" x="328.579574" xlink:href="#m8e9456cd8a" y="315.552713"/>
     <use style="fill:#4c72b0;stroke:#4c72b0;stroke-width:1.75;" x="294.486541" xlink:href="#m8e9456cd8a" y="322.980915"/>
     <use style="fill:#4c72b0;stroke:#4c72b0;stroke-width:1.75;" x="313.216947" xlink:href="#m8e9456cd8a" y="298.695318"/>
     <use style="fill:#4c72b0;stroke:#4c72b0;stroke-width:1.75;" x="297.803039" xlink:href="#m8e9456cd8a" y="304.968759"/>
     <use style="fill:#4c72b0;stroke:#4c72b0;stroke-width:1.75;" x="334.076376" xlink:href="#m8e9456cd8a" y="299.616076"/>
     <use style="fill:#4c72b0;stroke:#4c72b0;stroke-width:1.75;" x="252.53339" xlink:href="#m8e9456cd8a" y="323.720634"/>
     <use style="fill:#4c72b0;stroke:#4c72b0;stroke-width:1.75;" x="792.265789" xlink:href="#m8e9456cd8a" y="130.541824"/>
     <use style="fill:#4c72b0;stroke:#4c72b0;stroke-width:1.75;" x="333.685899" xlink:href="#m8e9456cd8a" y="290.261881"/>
     <use style="fill:#4c72b0;stroke:#4c72b0;stroke-width:1.75;" x="508.78682" xlink:href="#m8e9456cd8a" y="243.201855"/>
     <use style="fill:#4c72b0;stroke:#4c72b0;stroke-width:1.75;" x="303.676022" xlink:href="#m8e9456cd8a" y="296.345367"/>
     <use style="fill:#4c72b0;stroke:#4c72b0;stroke-width:1.75;" x="342.110284" xlink:href="#m8e9456cd8a" y="312.40746"/>
     <use style="fill:#4c72b0;stroke:#4c72b0;stroke-width:1.75;" x="317.821541" xlink:href="#m8e9456cd8a" y="310.445768"/>
     <use style="fill:#4c72b0;stroke:#4c72b0;stroke-width:1.75;" x="292.300938" xlink:href="#m8e9456cd8a" y="318.901411"/>
     <use style="fill:#4c72b0;stroke:#4c72b0;stroke-width:1.75;" x="470.857567" xlink:href="#m8e9456cd8a" y="229.064797"/>
     <use style="fill:#4c72b0;stroke:#4c72b0;stroke-width:1.75;" x="369.215693" xlink:href="#m8e9456cd8a" y="290.632006"/>
     <use style="fill:#4c72b0;stroke:#4c72b0;stroke-width:1.75;" x="397.619816" xlink:href="#m8e9456cd8a" y="252.262389"/>
     <use style="fill:#4c72b0;stroke:#4c72b0;stroke-width:1.75;" x="333.850957" xlink:href="#m8e9456cd8a" y="324.119179"/>
     <use style="fill:#4c72b0;stroke:#4c72b0;stroke-width:1.75;" x="573.095778" xlink:href="#m8e9456cd8a" y="275.988526"/>
     <use style="fill:#4c72b0;stroke:#4c72b0;stroke-width:1.75;" x="638.75483" xlink:href="#m8e9456cd8a" y="158.686875"/>
     <use style="fill:#4c72b0;stroke:#4c72b0;stroke-width:1.75;" x="837.487621" xlink:href="#m8e9456cd8a" y="140.193464"/>
     <use style="fill:#4c72b0;stroke:#4c72b0;stroke-width:1.75;" x="318.767576" xlink:href="#m8e9456cd8a" y="315.137549"/>
     <use style="fill:#4c72b0;stroke:#4c72b0;stroke-width:1.75;" x="331.962969" xlink:href="#m8e9456cd8a" y="318.952509"/>
     <use style="fill:#4c72b0;stroke:#4c72b0;stroke-width:1.75;" x="302.124336" xlink:href="#m8e9456cd8a" y="331.675204"/>
     <use style="fill:#4c72b0;stroke:#4c72b0;stroke-width:1.75;" x="310.787521" xlink:href="#m8e9456cd8a" y="308.813113"/>
     <use style="fill:#4c72b0;stroke:#4c72b0;stroke-width:1.75;" x="276.309496" xlink:href="#m8e9456cd8a" y="310.262513"/>
     <use style="fill:#4c72b0;stroke:#4c72b0;stroke-width:1.75;" x="494.740922" xlink:href="#m8e9456cd8a" y="248.647972"/>
     <use style="fill:#4c72b0;stroke:#4c72b0;stroke-width:1.75;" x="731.868737" xlink:href="#m8e9456cd8a" y="85.966003"/>
     <use style="fill:#4c72b0;stroke:#4c72b0;stroke-width:1.75;" x="439.085369" xlink:href="#m8e9456cd8a" y="195.703501"/>
     <use style="fill:#4c72b0;stroke:#4c72b0;stroke-width:1.75;" x="395.466965" xlink:href="#m8e9456cd8a" y="297.916979"/>
     <use style="fill:#4c72b0;stroke:#4c72b0;stroke-width:1.75;" x="338.909671" xlink:href="#m8e9456cd8a" y="319.003737"/>
     <use style="fill:#4c72b0;stroke:#4c72b0;stroke-width:1.75;" x="432.937214" xlink:href="#m8e9456cd8a" y="324.358581"/>
     <use style="fill:#4c72b0;stroke:#4c72b0;stroke-width:1.75;" x="324.969129" xlink:href="#m8e9456cd8a" y="316.958623"/>
     <use style="fill:#4c72b0;stroke:#4c72b0;stroke-width:1.75;" x="438.170413" xlink:href="#m8e9456cd8a" y="250.894482"/>
     <use style="fill:#4c72b0;stroke:#4c72b0;stroke-width:1.75;" x="362.604993" xlink:href="#m8e9456cd8a" y="311.771118"/>
     <use style="fill:#4c72b0;stroke:#4c72b0;stroke-width:1.75;" x="281.1799" xlink:href="#m8e9456cd8a" y="273.436662"/>
     <use style="fill:#4c72b0;stroke:#4c72b0;stroke-width:1.75;" x="297.599899" xlink:href="#m8e9456cd8a" y="301.159305"/>
     <use style="fill:#4c72b0;stroke:#4c72b0;stroke-width:1.75;" x="423.383382" xlink:href="#m8e9456cd8a" y="253.766315"/>
     <use style="fill:#4c72b0;stroke:#4c72b0;stroke-width:1.75;" x="335.296528" xlink:href="#m8e9456cd8a" y="329.757772"/>
     <use style="fill:#4c72b0;stroke:#4c72b0;stroke-width:1.75;" x="281.934887" xlink:href="#m8e9456cd8a" y="312.158647"/>
     <use style="fill:#4c72b0;stroke:#4c72b0;stroke-width:1.75;" x="937.041034" xlink:href="#m8e9456cd8a" y="107.012312"/>
     <use style="fill:#4c72b0;stroke:#4c72b0;stroke-width:1.75;" x="285.136004" xlink:href="#m8e9456cd8a" y="322.234865"/>
     <use style="fill:#4c72b0;stroke:#4c72b0;stroke-width:1.75;" x="453.891213" xlink:href="#m8e9456cd8a" y="246.25079"/>
     <use style="fill:#4c72b0;stroke:#4c72b0;stroke-width:1.75;" x="346.264735" xlink:href="#m8e9456cd8a" y="275.119724"/>
     <use style="fill:#4c72b0;stroke:#4c72b0;stroke-width:1.75;" x="331.423167" xlink:href="#m8e9456cd8a" y="325.368099"/>
     <use style="fill:#4c72b0;stroke:#4c72b0;stroke-width:1.75;" x="357.209537" xlink:href="#m8e9456cd8a" y="304.748972"/>
     <use style="fill:#4c72b0;stroke:#4c72b0;stroke-width:1.75;" x="351.442326" xlink:href="#m8e9456cd8a" y="301.187782"/>
     <use style="fill:#4c72b0;stroke:#4c72b0;stroke-width:1.75;" x="374.932938" xlink:href="#m8e9456cd8a" y="272.301237"/>
     <use style="fill:#4c72b0;stroke:#4c72b0;stroke-width:1.75;" x="442.528661" xlink:href="#m8e9456cd8a" y="300.265208"/>
     <use style="fill:#4c72b0;stroke:#4c72b0;stroke-width:1.75;" x="230.346255" xlink:href="#m8e9456cd8a" y="323.137907"/>
     <use style="fill:#4c72b0;stroke:#4c72b0;stroke-width:1.75;" x="565.700071" xlink:href="#m8e9456cd8a" y="239.339379"/>
     <use style="fill:#4c72b0;stroke:#4c72b0;stroke-width:1.75;" x="279.199377" xlink:href="#m8e9456cd8a" y="308.131332"/>
     <use style="fill:#4c72b0;stroke:#4c72b0;stroke-width:1.75;" x="452.729823" xlink:href="#m8e9456cd8a" y="276.969239"/>
     <use style="fill:#4c72b0;stroke:#4c72b0;stroke-width:1.75;" x="586.947685" xlink:href="#m8e9456cd8a" y="172.86995"/>
     <use style="fill:#4c72b0;stroke:#4c72b0;stroke-width:1.75;" x="422.253727" xlink:href="#m8e9456cd8a" y="291.873313"/>
     <use style="fill:#4c72b0;stroke:#4c72b0;stroke-width:1.75;" x="409.607202" xlink:href="#m8e9456cd8a" y="280.808978"/>
     <use style="fill:#4c72b0;stroke:#4c72b0;stroke-width:1.75;" x="373.539231" xlink:href="#m8e9456cd8a" y="290.260695"/>
     <use style="fill:#4c72b0;stroke:#4c72b0;stroke-width:1.75;" x="326.390796" xlink:href="#m8e9456cd8a" y="321.699671"/>
     <use style="fill:#4c72b0;stroke:#4c72b0;stroke-width:1.75;" x="329.871043" xlink:href="#m8e9456cd8a" y="326.72067"/>
     <use style="fill:#4c72b0;stroke:#4c72b0;stroke-width:1.75;" x="364.177195" xlink:href="#m8e9456cd8a" y="291.499424"/>
     <use style="fill:#4c72b0;stroke:#4c72b0;stroke-width:1.75;" x="352.235907" xlink:href="#m8e9456cd8a" y="304.692865"/>
     <use style="fill:#4c72b0;stroke:#4c72b0;stroke-width:1.75;" x="431.171875" xlink:href="#m8e9456cd8a" y="220.689165"/>
     <use style="fill:#4c72b0;stroke:#4c72b0;stroke-width:1.75;" x="592.519898" xlink:href="#m8e9456cd8a" y="184.904747"/>
     <use style="fill:#4c72b0;stroke:#4c72b0;stroke-width:1.75;" x="310.275098" xlink:href="#m8e9456cd8a" y="321.792391"/>
     <use style="fill:#4c72b0;stroke:#4c72b0;stroke-width:1.75;" x="287.517945" xlink:href="#m8e9456cd8a" y="327.314981"/>
     <use style="fill:#4c72b0;stroke:#4c72b0;stroke-width:1.75;" x="314.086545" xlink:href="#m8e9456cd8a" y="320.484378"/>
     <use style="fill:#4c72b0;stroke:#4c72b0;stroke-width:1.75;" x="391.266133" xlink:href="#m8e9456cd8a" y="273.987723"/>
     <use style="fill:#4c72b0;stroke:#4c72b0;stroke-width:1.75;" x="408.996814" xlink:href="#m8e9456cd8a" y="260.834042"/>
     <use style="fill:#4c72b0;stroke:#4c72b0;stroke-width:1.75;" x="446.615042" xlink:href="#m8e9456cd8a" y="256.481956"/>
     <use style="fill:#4c72b0;stroke:#4c72b0;stroke-width:1.75;" x="303.492856" xlink:href="#m8e9456cd8a" y="321.391625"/>
     <use style="fill:#4c72b0;stroke:#4c72b0;stroke-width:1.75;" x="337.33828" xlink:href="#m8e9456cd8a" y="268.497005"/>
     <use style="fill:#4c72b0;stroke:#4c72b0;stroke-width:1.75;" x="264.043544" xlink:href="#m8e9456cd8a" y="322.696543"/>
     <use style="fill:#4c72b0;stroke:#4c72b0;stroke-width:1.75;" x="317.39216" xlink:href="#m8e9456cd8a" y="320.759193"/>
     <use style="fill:#4c72b0;stroke:#4c72b0;stroke-width:1.75;" x="452.371341" xlink:href="#m8e9456cd8a" y="290.559647"/>
     <use style="fill:#4c72b0;stroke:#4c72b0;stroke-width:1.75;" x="492.462289" xlink:href="#m8e9456cd8a" y="255.670642"/>
     <use style="fill:#4c72b0;stroke:#4c72b0;stroke-width:1.75;" x="339.102924" xlink:href="#m8e9456cd8a" y="332.828844"/>
     <use style="fill:#4c72b0;stroke:#4c72b0;stroke-width:1.75;" x="448.664891" xlink:href="#m8e9456cd8a" y="255.451905"/>
     <use style="fill:#4c72b0;stroke:#4c72b0;stroke-width:1.75;" x="503.714753" xlink:href="#m8e9456cd8a" y="226.941673"/>
     <use style="fill:#4c72b0;stroke:#4c72b0;stroke-width:1.75;" x="250.813718" xlink:href="#m8e9456cd8a" y="280.774468"/>
     <use style="fill:#4c72b0;stroke:#4c72b0;stroke-width:1.75;" x="318.86913" xlink:href="#m8e9456cd8a" y="332.487773"/>
     <use style="fill:#4c72b0;stroke:#4c72b0;stroke-width:1.75;" x="340.05571" xlink:href="#m8e9456cd8a" y="301.731812"/>
     <use style="fill:#4c72b0;stroke:#4c72b0;stroke-width:1.75;" x="410.82769" xlink:href="#m8e9456cd8a" y="276.389415"/>
     <use style="fill:#4c72b0;stroke:#4c72b0;stroke-width:1.75;" x="334.67942" xlink:href="#m8e9456cd8a" y="292.731025"/>
     <use style="fill:#4c72b0;stroke:#4c72b0;stroke-width:1.75;" x="294.030998" xlink:href="#m8e9456cd8a" y="281.906516"/>
     <use style="fill:#4c72b0;stroke:#4c72b0;stroke-width:1.75;" x="425.163955" xlink:href="#m8e9456cd8a" y="301.764074"/>
     <use style="fill:#4c72b0;stroke:#4c72b0;stroke-width:1.75;" x="638.845702" xlink:href="#m8e9456cd8a" y="243.786041"/>
     <use style="fill:#4c72b0;stroke:#4c72b0;stroke-width:1.75;" x="375.840694" xlink:href="#m8e9456cd8a" y="284.050651"/>
     <use style="fill:#4c72b0;stroke:#4c72b0;stroke-width:1.75;" x="389.933321" xlink:href="#m8e9456cd8a" y="310.740091"/>
     <use style="fill:#4c72b0;stroke:#4c72b0;stroke-width:1.75;" x="474.299932" xlink:href="#m8e9456cd8a" y="262.992337"/>
     <use style="fill:#4c72b0;stroke:#4c72b0;stroke-width:1.75;" x="378.761932" xlink:href="#m8e9456cd8a" y="310.286588"/>
     <use style="fill:#4c72b0;stroke:#4c72b0;stroke-width:1.75;" x="322.453549" xlink:href="#m8e9456cd8a" y="325.464731"/>
     <use style="fill:#4c72b0;stroke:#4c72b0;stroke-width:1.75;" x="315.846663" xlink:href="#m8e9456cd8a" y="328.638464"/>
     <use style="fill:#4c72b0;stroke:#4c72b0;stroke-width:1.75;" x="304.098565" xlink:href="#m8e9456cd8a" y="312.136411"/>
     <use style="fill:#4c72b0;stroke:#4c72b0;stroke-width:1.75;" x="478.758378" xlink:href="#m8e9456cd8a" y="242.654443"/>
     <use style="fill:#4c72b0;stroke:#4c72b0;stroke-width:1.75;" x="268.938813" xlink:href="#m8e9456cd8a" y="316.325808"/>
     <use style="fill:#4c72b0;stroke:#4c72b0;stroke-width:1.75;" x="481.492883" xlink:href="#m8e9456cd8a" y="260.325154"/>
     <use style="fill:#4c72b0;stroke:#4c72b0;stroke-width:1.75;" x="417.437577" xlink:href="#m8e9456cd8a" y="318.324697"/>
     <use style="fill:#4c72b0;stroke:#4c72b0;stroke-width:1.75;" x="375.406269" xlink:href="#m8e9456cd8a" y="275.320742"/>
     <use style="fill:#4c72b0;stroke:#4c72b0;stroke-width:1.75;" x="306.079828" xlink:href="#m8e9456cd8a" y="304.960734"/>
     <use style="fill:#4c72b0;stroke:#4c72b0;stroke-width:1.75;" x="245.372124" xlink:href="#m8e9456cd8a" y="325.369804"/>
     <use style="fill:#4c72b0;stroke:#4c72b0;stroke-width:1.75;" x="318.975726" xlink:href="#m8e9456cd8a" y="313.216534"/>
     <use style="fill:#4c72b0;stroke:#4c72b0;stroke-width:1.75;" x="330.252195" xlink:href="#m8e9456cd8a" y="313.450005"/>
     <use style="fill:#4c72b0;stroke:#4c72b0;stroke-width:1.75;" x="356.905896" xlink:href="#m8e9456cd8a" y="253.813384"/>
     <use style="fill:#4c72b0;stroke:#4c72b0;stroke-width:1.75;" x="846.862153" xlink:href="#m8e9456cd8a" y="125.09869"/>
     <use style="fill:#4c72b0;stroke:#4c72b0;stroke-width:1.75;" x="378.66346" xlink:href="#m8e9456cd8a" y="272.416007"/>
     <use style="fill:#4c72b0;stroke:#4c72b0;stroke-width:1.75;" x="336.796227" xlink:href="#m8e9456cd8a" y="319.139228"/>
     <use style="fill:#4c72b0;stroke:#4c72b0;stroke-width:1.75;" x="980.359909" xlink:href="#m8e9456cd8a" y="116.823185"/>
     <use style="fill:#4c72b0;stroke:#4c72b0;stroke-width:1.75;" x="384.934214" xlink:href="#m8e9456cd8a" y="234.199646"/>
     <use style="fill:#4c72b0;stroke:#4c72b0;stroke-width:1.75;" x="247.752006" xlink:href="#m8e9456cd8a" y="328.665626"/>
     <use style="fill:#4c72b0;stroke:#4c72b0;stroke-width:1.75;" x="401.819875" xlink:href="#m8e9456cd8a" y="267.60152"/>
     <use style="fill:#4c72b0;stroke:#4c72b0;stroke-width:1.75;" x="390.783832" xlink:href="#m8e9456cd8a" y="289.356605"/>
     <use style="fill:#4c72b0;stroke:#4c72b0;stroke-width:1.75;" x="462.128516" xlink:href="#m8e9456cd8a" y="277.343252"/>
     <use style="fill:#4c72b0;stroke:#4c72b0;stroke-width:1.75;" x="235.617891" xlink:href="#m8e9456cd8a" y="342.488086"/>
     <use style="fill:#4c72b0;stroke:#4c72b0;stroke-width:1.75;" x="382.547564" xlink:href="#m8e9456cd8a" y="284.430116"/>
     <use style="fill:#4c72b0;stroke:#4c72b0;stroke-width:1.75;" x="408.386008" xlink:href="#m8e9456cd8a" y="270.716632"/>
     <use style="fill:#4c72b0;stroke:#4c72b0;stroke-width:1.75;" x="374.680433" xlink:href="#m8e9456cd8a" y="268.007248"/>
     <use style="fill:#4c72b0;stroke:#4c72b0;stroke-width:1.75;" x="646.250349" xlink:href="#m8e9456cd8a" y="204.011312"/>
     <use style="fill:#4c72b0;stroke:#4c72b0;stroke-width:1.75;" x="268.510943" xlink:href="#m8e9456cd8a" y="310.191933"/>
     <use style="fill:#4c72b0;stroke:#4c72b0;stroke-width:1.75;" x="461.543834" xlink:href="#m8e9456cd8a" y="250.567739"/>
     <use style="fill:#4c72b0;stroke:#4c72b0;stroke-width:1.75;" x="418.556954" xlink:href="#m8e9456cd8a" y="256.036178"/>
     <use style="fill:#4c72b0;stroke:#4c72b0;stroke-width:1.75;" x="276.734298" xlink:href="#m8e9456cd8a" y="337.790722"/>
     <use style="fill:#4c72b0;stroke:#4c72b0;stroke-width:1.75;" x="200.440091" xlink:href="#m8e9456cd8a" y="331.175408"/>
     <use style="fill:#4c72b0;stroke:#4c72b0;stroke-width:1.75;" x="385.302708" xlink:href="#m8e9456cd8a" y="295.176364"/>
     <use style="fill:#4c72b0;stroke:#4c72b0;stroke-width:1.75;" x="570.891402" xlink:href="#m8e9456cd8a" y="192.350721"/>
     <use style="fill:#4c72b0;stroke:#4c72b0;stroke-width:1.75;" x="696.863224" xlink:href="#m8e9456cd8a" y="208.458821"/>
     <use style="fill:#4c72b0;stroke:#4c72b0;stroke-width:1.75;" x="473.513317" xlink:href="#m8e9456cd8a" y="297.059882"/>
     <use style="fill:#4c72b0;stroke:#4c72b0;stroke-width:1.75;" x="334.836577" xlink:href="#m8e9456cd8a" y="308.211856"/>
     <use style="fill:#4c72b0;stroke:#4c72b0;stroke-width:1.75;" x="324.862962" xlink:href="#m8e9456cd8a" y="299.257834"/>
     <use style="fill:#4c72b0;stroke:#4c72b0;stroke-width:1.75;" x="382.646529" xlink:href="#m8e9456cd8a" y="303.746178"/>
     <use style="fill:#4c72b0;stroke:#4c72b0;stroke-width:1.75;" x="333.968984" xlink:href="#m8e9456cd8a" y="306.747447"/>
    </g>
   </g>
   <g id="patch_3">
    <path d="M 144 378 
L 144 51.84 
" style="fill:none;stroke:#cccccc;stroke-linecap:square;stroke-linejoin:miter;"/>
   </g>
   <g id="patch_4">
    <path d="M 1036.8 378 
L 1036.8 51.84 
" style="fill:none;stroke:#cccccc;stroke-linecap:square;stroke-linejoin:miter;"/>
   </g>
   <g id="patch_5">
    <path d="M 144 378 
L 1036.8 378 
" style="fill:none;stroke:#cccccc;stroke-linecap:square;stroke-linejoin:miter;"/>
   </g>
   <g id="patch_6">
    <path d="M 144 51.84 
L 1036.8 51.84 
" style="fill:none;stroke:#cccccc;stroke-linecap:square;stroke-linejoin:miter;"/>
   </g>
   <g id="text_19">
    <!-- Model Fit Plot -->
    <defs>
     <path d="M 7.421875 0 
L 7.421875 71.578125 
L 21.6875 71.578125 
L 38.625 20.90625 
Q 40.96875 13.8125 42.046875 10.296875 
Q 43.265625 14.203125 45.84375 21.78125 
L 62.984375 71.578125 
L 75.734375 71.578125 
L 75.734375 0 
L 66.609375 0 
L 66.609375 59.90625 
L 45.796875 0 
L 37.25 0 
L 16.546875 60.9375 
L 16.546875 0 
z
" id="ArialMT-77"/>
     <path d="M 3.328125 25.921875 
Q 3.328125 40.328125 11.328125 47.265625 
Q 18.015625 53.03125 27.640625 53.03125 
Q 38.328125 53.03125 45.109375 46.015625 
Q 51.90625 39.015625 51.90625 26.65625 
Q 51.90625 16.65625 48.90625 10.90625 
Q 45.90625 5.171875 40.15625 2 
Q 34.421875 -1.171875 27.640625 -1.171875 
Q 16.75 -1.171875 10.03125 5.8125 
Q 3.328125 12.796875 3.328125 25.921875 
z
M 12.359375 25.921875 
Q 12.359375 15.96875 16.703125 11.015625 
Q 21.046875 6.0625 27.640625 6.0625 
Q 34.1875 6.0625 38.53125 11.03125 
Q 42.875 16.015625 42.875 26.21875 
Q 42.875 35.84375 38.5 40.796875 
Q 34.125 45.75 27.640625 45.75 
Q 21.046875 45.75 16.703125 40.8125 
Q 12.359375 35.890625 12.359375 25.921875 
z
" id="ArialMT-111"/>
     <path d="M 7.71875 0 
L 7.71875 71.578125 
L 34.71875 71.578125 
Q 41.84375 71.578125 45.609375 70.90625 
Q 50.875 70.015625 54.4375 67.546875 
Q 58.015625 65.09375 60.1875 60.640625 
Q 62.359375 56.203125 62.359375 50.875 
Q 62.359375 41.75 56.546875 35.421875 
Q 50.734375 29.109375 35.546875 29.109375 
L 17.1875 29.109375 
L 17.1875 0 
z
M 17.1875 37.546875 
L 35.6875 37.546875 
Q 44.875 37.546875 48.734375 40.96875 
Q 52.59375 44.390625 52.59375 50.59375 
Q 52.59375 55.078125 50.3125 58.265625 
Q 48.046875 61.46875 44.34375 62.5 
Q 41.9375 63.140625 35.5 63.140625 
L 17.1875 63.140625 
z
" id="ArialMT-80"/>
    </defs>
    <g style="fill:#262626;" transform="translate(517.044375 45.84)scale(0.24 -0.24)">
     <use xlink:href="#ArialMT-77"/>
     <use x="83.300781" xlink:href="#ArialMT-111"/>
     <use x="138.916016" xlink:href="#ArialMT-100"/>
     <use x="194.53125" xlink:href="#ArialMT-101"/>
     <use x="250.146484" xlink:href="#ArialMT-108"/>
     <use x="272.363281" xlink:href="#ArialMT-32"/>
     <use x="300.146484" xlink:href="#ArialMT-70"/>
     <use x="361.230469" xlink:href="#ArialMT-105"/>
     <use x="383.447266" xlink:href="#ArialMT-116"/>
     <use x="411.230469" xlink:href="#ArialMT-32"/>
     <use x="439.013672" xlink:href="#ArialMT-80"/>
     <use x="505.712891" xlink:href="#ArialMT-108"/>
     <use x="527.929688" xlink:href="#ArialMT-111"/>
     <use x="583.544922" xlink:href="#ArialMT-116"/>
    </g>
   </g>
  </g>
 </g>
 <defs>
  <clipPath id="p8c4e0bb278">
   <rect height="326.16" width="892.8" x="144" y="51.84"/>
  </clipPath>
 </defs>
</svg>
