<?xml version="1.0" encoding="utf-8" standalone="no"?>
<!DOCTYPE svg PUBLIC "-//W3C//DTD SVG 1.1//EN"
  "http://www.w3.org/Graphics/SVG/1.1/DTD/svg11.dtd">
<!-- Created with matplotlib (https://matplotlib.org/) -->
<svg height="720pt" version="1.1" viewBox="0 0 1152 720" width="1152pt" xmlns="http://www.w3.org/2000/svg" xmlns:xlink="http://www.w3.org/1999/xlink">
 <defs>
  <style type="text/css">
*{stroke-linecap:butt;stroke-linejoin:round;}
  </style>
 </defs>
 <g id="figure_1">
  <g id="patch_1">
   <path d="M 0 720 
L 1152 720 
L 1152 0 
L 0 0 
z
" style="fill:#ffffff;"/>
  </g>
  <g id="axes_1">
   <g id="patch_2">
    <path d="M 144 630 
L 1036.8 630 
L 1036.8 86.4 
L 144 86.4 
z
" style="fill:#ffffff;"/>
   </g>
   <g id="matplotlib.axis_1">
    <g id="xtick_1">
     <g id="line2d_1">
      <path clip-path="url(#p1e8078e012)" d="M 239.400973 630 
L 239.400973 86.4 
" style="fill:none;stroke:#cccccc;stroke-linecap:round;"/>
     </g>
     <g id="line2d_2"/>
     <g id="text_1">
      <!-- 0.050 -->
      <defs>
       <path d="M 4.15625 35.296875 
Q 4.15625 48 6.765625 55.734375 
Q 9.375 63.484375 14.515625 67.671875 
Q 19.671875 71.875 27.484375 71.875 
Q 33.25 71.875 37.59375 69.546875 
Q 41.9375 67.234375 44.765625 62.859375 
Q 47.609375 58.5 49.21875 52.21875 
Q 50.828125 45.953125 50.828125 35.296875 
Q 50.828125 22.703125 48.234375 14.96875 
Q 45.65625 7.234375 40.5 3 
Q 35.359375 -1.21875 27.484375 -1.21875 
Q 17.140625 -1.21875 11.234375 6.203125 
Q 4.15625 15.140625 4.15625 35.296875 
z
M 13.1875 35.296875 
Q 13.1875 17.671875 17.3125 11.828125 
Q 21.4375 6 27.484375 6 
Q 33.546875 6 37.671875 11.859375 
Q 41.796875 17.71875 41.796875 35.296875 
Q 41.796875 52.984375 37.671875 58.78125 
Q 33.546875 64.59375 27.390625 64.59375 
Q 21.34375 64.59375 17.71875 59.46875 
Q 13.1875 52.9375 13.1875 35.296875 
z
" id="ArialMT-48"/>
       <path d="M 9.078125 0 
L 9.078125 10.015625 
L 19.09375 10.015625 
L 19.09375 0 
z
" id="ArialMT-46"/>
       <path d="M 4.15625 18.75 
L 13.375 19.53125 
Q 14.40625 12.796875 18.140625 9.390625 
Q 21.875 6 27.15625 6 
Q 33.5 6 37.890625 10.78125 
Q 42.28125 15.578125 42.28125 23.484375 
Q 42.28125 31 38.0625 35.34375 
Q 33.84375 39.703125 27 39.703125 
Q 22.75 39.703125 19.328125 37.765625 
Q 15.921875 35.84375 13.96875 32.765625 
L 5.71875 33.84375 
L 12.640625 70.609375 
L 48.25 70.609375 
L 48.25 62.203125 
L 19.671875 62.203125 
L 15.828125 42.96875 
Q 22.265625 47.46875 29.34375 47.46875 
Q 38.71875 47.46875 45.15625 40.96875 
Q 51.609375 34.46875 51.609375 24.265625 
Q 51.609375 14.546875 45.953125 7.46875 
Q 39.0625 -1.21875 27.15625 -1.21875 
Q 17.390625 -1.21875 11.203125 4.25 
Q 5.03125 9.71875 4.15625 18.75 
z
" id="ArialMT-53"/>
      </defs>
      <g style="fill:#262626;" transform="translate(214.379098 651.315625)scale(0.2 -0.2)">
       <use xlink:href="#ArialMT-48"/>
       <use x="55.615234" xlink:href="#ArialMT-46"/>
       <use x="83.398438" xlink:href="#ArialMT-48"/>
       <use x="139.013672" xlink:href="#ArialMT-53"/>
       <use x="194.628906" xlink:href="#ArialMT-48"/>
      </g>
     </g>
    </g>
    <g id="xtick_2">
     <g id="line2d_3">
      <path clip-path="url(#p1e8078e012)" d="M 342.015191 630 
L 342.015191 86.4 
" style="fill:none;stroke:#cccccc;stroke-linecap:round;"/>
     </g>
     <g id="line2d_4"/>
     <g id="text_2">
      <!-- 0.075 -->
      <defs>
       <path d="M 4.734375 62.203125 
L 4.734375 70.65625 
L 51.078125 70.65625 
L 51.078125 63.8125 
Q 44.234375 56.546875 37.515625 44.484375 
Q 30.8125 32.421875 27.15625 19.671875 
Q 24.515625 10.6875 23.78125 0 
L 14.75 0 
Q 14.890625 8.453125 18.0625 20.40625 
Q 21.234375 32.375 27.171875 43.484375 
Q 33.109375 54.59375 39.796875 62.203125 
z
" id="ArialMT-55"/>
      </defs>
      <g style="fill:#262626;" transform="translate(316.993316 651.315625)scale(0.2 -0.2)">
       <use xlink:href="#ArialMT-48"/>
       <use x="55.615234" xlink:href="#ArialMT-46"/>
       <use x="83.398438" xlink:href="#ArialMT-48"/>
       <use x="139.013672" xlink:href="#ArialMT-55"/>
       <use x="194.628906" xlink:href="#ArialMT-53"/>
      </g>
     </g>
    </g>
    <g id="xtick_3">
     <g id="line2d_5">
      <path clip-path="url(#p1e8078e012)" d="M 444.629409 630 
L 444.629409 86.4 
" style="fill:none;stroke:#cccccc;stroke-linecap:round;"/>
     </g>
     <g id="line2d_6"/>
     <g id="text_3">
      <!-- 0.100 -->
      <defs>
       <path d="M 37.25 0 
L 28.46875 0 
L 28.46875 56 
Q 25.296875 52.984375 20.140625 49.953125 
Q 14.984375 46.921875 10.890625 45.40625 
L 10.890625 53.90625 
Q 18.265625 57.375 23.78125 62.296875 
Q 29.296875 67.234375 31.59375 71.875 
L 37.25 71.875 
z
" id="ArialMT-49"/>
      </defs>
      <g style="fill:#262626;" transform="translate(419.607534 651.315625)scale(0.2 -0.2)">
       <use xlink:href="#ArialMT-48"/>
       <use x="55.615234" xlink:href="#ArialMT-46"/>
       <use x="83.398438" xlink:href="#ArialMT-49"/>
       <use x="139.013672" xlink:href="#ArialMT-48"/>
       <use x="194.628906" xlink:href="#ArialMT-48"/>
      </g>
     </g>
    </g>
    <g id="xtick_4">
     <g id="line2d_7">
      <path clip-path="url(#p1e8078e012)" d="M 547.243627 630 
L 547.243627 86.4 
" style="fill:none;stroke:#cccccc;stroke-linecap:round;"/>
     </g>
     <g id="line2d_8"/>
     <g id="text_4">
      <!-- 0.125 -->
      <defs>
       <path d="M 50.34375 8.453125 
L 50.34375 0 
L 3.03125 0 
Q 2.9375 3.171875 4.046875 6.109375 
Q 5.859375 10.9375 9.828125 15.625 
Q 13.8125 20.3125 21.34375 26.46875 
Q 33.015625 36.03125 37.109375 41.625 
Q 41.21875 47.21875 41.21875 52.203125 
Q 41.21875 57.421875 37.46875 61 
Q 33.734375 64.59375 27.734375 64.59375 
Q 21.390625 64.59375 17.578125 60.78125 
Q 13.765625 56.984375 13.71875 50.25 
L 4.6875 51.171875 
Q 5.609375 61.28125 11.65625 66.578125 
Q 17.71875 71.875 27.9375 71.875 
Q 38.234375 71.875 44.234375 66.15625 
Q 50.25 60.453125 50.25 52 
Q 50.25 47.703125 48.484375 43.546875 
Q 46.734375 39.40625 42.65625 34.8125 
Q 38.578125 30.21875 29.109375 22.21875 
Q 21.1875 15.578125 18.9375 13.203125 
Q 16.703125 10.84375 15.234375 8.453125 
z
" id="ArialMT-50"/>
      </defs>
      <g style="fill:#262626;" transform="translate(522.221752 651.315625)scale(0.2 -0.2)">
       <use xlink:href="#ArialMT-48"/>
       <use x="55.615234" xlink:href="#ArialMT-46"/>
       <use x="83.398438" xlink:href="#ArialMT-49"/>
       <use x="139.013672" xlink:href="#ArialMT-50"/>
       <use x="194.628906" xlink:href="#ArialMT-53"/>
      </g>
     </g>
    </g>
    <g id="xtick_5">
     <g id="line2d_9">
      <path clip-path="url(#p1e8078e012)" d="M 649.857845 630 
L 649.857845 86.4 
" style="fill:none;stroke:#cccccc;stroke-linecap:round;"/>
     </g>
     <g id="line2d_10"/>
     <g id="text_5">
      <!-- 0.150 -->
      <g style="fill:#262626;" transform="translate(624.83597 651.315625)scale(0.2 -0.2)">
       <use xlink:href="#ArialMT-48"/>
       <use x="55.615234" xlink:href="#ArialMT-46"/>
       <use x="83.398438" xlink:href="#ArialMT-49"/>
       <use x="139.013672" xlink:href="#ArialMT-53"/>
       <use x="194.628906" xlink:href="#ArialMT-48"/>
      </g>
     </g>
    </g>
    <g id="xtick_6">
     <g id="line2d_11">
      <path clip-path="url(#p1e8078e012)" d="M 752.472063 630 
L 752.472063 86.4 
" style="fill:none;stroke:#cccccc;stroke-linecap:round;"/>
     </g>
     <g id="line2d_12"/>
     <g id="text_6">
      <!-- 0.175 -->
      <g style="fill:#262626;" transform="translate(727.450188 651.315625)scale(0.2 -0.2)">
       <use xlink:href="#ArialMT-48"/>
       <use x="55.615234" xlink:href="#ArialMT-46"/>
       <use x="83.398438" xlink:href="#ArialMT-49"/>
       <use x="139.013672" xlink:href="#ArialMT-55"/>
       <use x="194.628906" xlink:href="#ArialMT-53"/>
      </g>
     </g>
    </g>
    <g id="xtick_7">
     <g id="line2d_13">
      <path clip-path="url(#p1e8078e012)" d="M 855.08628 630 
L 855.08628 86.4 
" style="fill:none;stroke:#cccccc;stroke-linecap:round;"/>
     </g>
     <g id="line2d_14"/>
     <g id="text_7">
      <!-- 0.200 -->
      <g style="fill:#262626;" transform="translate(830.064405 651.315625)scale(0.2 -0.2)">
       <use xlink:href="#ArialMT-48"/>
       <use x="55.615234" xlink:href="#ArialMT-46"/>
       <use x="83.398438" xlink:href="#ArialMT-50"/>
       <use x="139.013672" xlink:href="#ArialMT-48"/>
       <use x="194.628906" xlink:href="#ArialMT-48"/>
      </g>
     </g>
    </g>
    <g id="xtick_8">
     <g id="line2d_15">
      <path clip-path="url(#p1e8078e012)" d="M 957.700498 630 
L 957.700498 86.4 
" style="fill:none;stroke:#cccccc;stroke-linecap:round;"/>
     </g>
     <g id="line2d_16"/>
     <g id="text_8">
      <!-- 0.225 -->
      <g style="fill:#262626;" transform="translate(932.678623 651.315625)scale(0.2 -0.2)">
       <use xlink:href="#ArialMT-48"/>
       <use x="55.615234" xlink:href="#ArialMT-46"/>
       <use x="83.398438" xlink:href="#ArialMT-50"/>
       <use x="139.013672" xlink:href="#ArialMT-50"/>
       <use x="194.628906" xlink:href="#ArialMT-53"/>
      </g>
     </g>
    </g>
    <g id="text_9">
     <!-- Simulation Result -->
     <defs>
      <path d="M 4.5 23 
L 13.421875 23.78125 
Q 14.0625 18.40625 16.375 14.96875 
Q 18.703125 11.53125 23.578125 9.40625 
Q 28.46875 7.28125 34.578125 7.28125 
Q 39.984375 7.28125 44.140625 8.890625 
Q 48.296875 10.5 50.3125 13.296875 
Q 52.34375 16.109375 52.34375 19.4375 
Q 52.34375 22.796875 50.390625 25.3125 
Q 48.4375 27.828125 43.953125 29.546875 
Q 41.0625 30.671875 31.203125 33.03125 
Q 21.34375 35.40625 17.390625 37.5 
Q 12.25 40.1875 9.734375 44.15625 
Q 7.234375 48.140625 7.234375 53.078125 
Q 7.234375 58.5 10.296875 63.203125 
Q 13.375 67.921875 19.28125 70.359375 
Q 25.203125 72.796875 32.421875 72.796875 
Q 40.375 72.796875 46.453125 70.234375 
Q 52.546875 67.671875 55.8125 62.6875 
Q 59.078125 57.71875 59.328125 51.421875 
L 50.25 50.734375 
Q 49.515625 57.515625 45.28125 60.984375 
Q 41.0625 64.453125 32.8125 64.453125 
Q 24.21875 64.453125 20.28125 61.296875 
Q 16.359375 58.15625 16.359375 53.71875 
Q 16.359375 49.859375 19.140625 47.359375 
Q 21.875 44.875 33.421875 42.265625 
Q 44.96875 39.65625 49.265625 37.703125 
Q 55.515625 34.8125 58.484375 30.390625 
Q 61.46875 25.984375 61.46875 20.21875 
Q 61.46875 14.5 58.203125 9.4375 
Q 54.9375 4.390625 48.796875 1.578125 
Q 42.671875 -1.21875 35.015625 -1.21875 
Q 25.296875 -1.21875 18.71875 1.609375 
Q 12.15625 4.4375 8.421875 10.125 
Q 4.6875 15.828125 4.5 23 
z
" id="ArialMT-83"/>
      <path d="M 6.640625 61.46875 
L 6.640625 71.578125 
L 15.4375 71.578125 
L 15.4375 61.46875 
z
M 6.640625 0 
L 6.640625 51.859375 
L 15.4375 51.859375 
L 15.4375 0 
z
" id="ArialMT-105"/>
      <path d="M 6.59375 0 
L 6.59375 51.859375 
L 14.453125 51.859375 
L 14.453125 44.578125 
Q 16.890625 48.390625 20.9375 50.703125 
Q 25 53.03125 30.171875 53.03125 
Q 35.9375 53.03125 39.625 50.640625 
Q 43.3125 48.25 44.828125 43.953125 
Q 50.984375 53.03125 60.84375 53.03125 
Q 68.5625 53.03125 72.703125 48.75 
Q 76.859375 44.484375 76.859375 35.59375 
L 76.859375 0 
L 68.109375 0 
L 68.109375 32.671875 
Q 68.109375 37.9375 67.25 40.25 
Q 66.40625 42.578125 64.15625 43.984375 
Q 61.921875 45.40625 58.890625 45.40625 
Q 53.421875 45.40625 49.796875 41.765625 
Q 46.1875 38.140625 46.1875 30.125 
L 46.1875 0 
L 37.40625 0 
L 37.40625 33.6875 
Q 37.40625 39.546875 35.25 42.46875 
Q 33.109375 45.40625 28.21875 45.40625 
Q 24.515625 45.40625 21.359375 43.453125 
Q 18.21875 41.5 16.796875 37.734375 
Q 15.375 33.984375 15.375 26.90625 
L 15.375 0 
z
" id="ArialMT-109"/>
      <path d="M 40.578125 0 
L 40.578125 7.625 
Q 34.515625 -1.171875 24.125 -1.171875 
Q 19.53125 -1.171875 15.546875 0.578125 
Q 11.578125 2.34375 9.640625 5 
Q 7.71875 7.671875 6.9375 11.53125 
Q 6.390625 14.109375 6.390625 19.734375 
L 6.390625 51.859375 
L 15.1875 51.859375 
L 15.1875 23.09375 
Q 15.1875 16.21875 15.71875 13.8125 
Q 16.546875 10.359375 19.234375 8.375 
Q 21.921875 6.390625 25.875 6.390625 
Q 29.828125 6.390625 33.296875 8.421875 
Q 36.765625 10.453125 38.203125 13.9375 
Q 39.65625 17.4375 39.65625 24.078125 
L 39.65625 51.859375 
L 48.4375 51.859375 
L 48.4375 0 
z
" id="ArialMT-117"/>
      <path d="M 6.390625 0 
L 6.390625 71.578125 
L 15.1875 71.578125 
L 15.1875 0 
z
" id="ArialMT-108"/>
      <path d="M 40.4375 6.390625 
Q 35.546875 2.25 31.03125 0.53125 
Q 26.515625 -1.171875 21.34375 -1.171875 
Q 12.796875 -1.171875 8.203125 3 
Q 3.609375 7.171875 3.609375 13.671875 
Q 3.609375 17.484375 5.34375 20.625 
Q 7.078125 23.78125 9.890625 25.6875 
Q 12.703125 27.59375 16.21875 28.5625 
Q 18.796875 29.25 24.03125 29.890625 
Q 34.671875 31.15625 39.703125 32.90625 
Q 39.75 34.71875 39.75 35.203125 
Q 39.75 40.578125 37.25 42.78125 
Q 33.890625 45.75 27.25 45.75 
Q 21.046875 45.75 18.09375 43.578125 
Q 15.140625 41.40625 13.71875 35.890625 
L 5.125 37.0625 
Q 6.296875 42.578125 8.984375 45.96875 
Q 11.671875 49.359375 16.75 51.1875 
Q 21.828125 53.03125 28.515625 53.03125 
Q 35.15625 53.03125 39.296875 51.46875 
Q 43.453125 49.90625 45.40625 47.53125 
Q 47.359375 45.171875 48.140625 41.546875 
Q 48.578125 39.3125 48.578125 33.453125 
L 48.578125 21.734375 
Q 48.578125 9.46875 49.140625 6.21875 
Q 49.703125 2.984375 51.375 0 
L 42.1875 0 
Q 40.828125 2.734375 40.4375 6.390625 
z
M 39.703125 26.03125 
Q 34.90625 24.078125 25.34375 22.703125 
Q 19.921875 21.921875 17.671875 20.9375 
Q 15.4375 19.96875 14.203125 18.09375 
Q 12.984375 16.21875 12.984375 13.921875 
Q 12.984375 10.40625 15.640625 8.0625 
Q 18.3125 5.71875 23.4375 5.71875 
Q 28.515625 5.71875 32.46875 7.9375 
Q 36.421875 10.15625 38.28125 14.015625 
Q 39.703125 17 39.703125 22.796875 
z
" id="ArialMT-97"/>
      <path d="M 25.78125 7.859375 
L 27.046875 0.09375 
Q 23.34375 -0.6875 20.40625 -0.6875 
Q 15.625 -0.6875 12.984375 0.828125 
Q 10.359375 2.34375 9.28125 4.8125 
Q 8.203125 7.28125 8.203125 15.1875 
L 8.203125 45.015625 
L 1.765625 45.015625 
L 1.765625 51.859375 
L 8.203125 51.859375 
L 8.203125 64.703125 
L 16.9375 69.96875 
L 16.9375 51.859375 
L 25.78125 51.859375 
L 25.78125 45.015625 
L 16.9375 45.015625 
L 16.9375 14.703125 
Q 16.9375 10.9375 17.40625 9.859375 
Q 17.875 8.796875 18.921875 8.15625 
Q 19.96875 7.515625 21.921875 7.515625 
Q 23.390625 7.515625 25.78125 7.859375 
z
" id="ArialMT-116"/>
      <path d="M 3.328125 25.921875 
Q 3.328125 40.328125 11.328125 47.265625 
Q 18.015625 53.03125 27.640625 53.03125 
Q 38.328125 53.03125 45.109375 46.015625 
Q 51.90625 39.015625 51.90625 26.65625 
Q 51.90625 16.65625 48.90625 10.90625 
Q 45.90625 5.171875 40.15625 2 
Q 34.421875 -1.171875 27.640625 -1.171875 
Q 16.75 -1.171875 10.03125 5.8125 
Q 3.328125 12.796875 3.328125 25.921875 
z
M 12.359375 25.921875 
Q 12.359375 15.96875 16.703125 11.015625 
Q 21.046875 6.0625 27.640625 6.0625 
Q 34.1875 6.0625 38.53125 11.03125 
Q 42.875 16.015625 42.875 26.21875 
Q 42.875 35.84375 38.5 40.796875 
Q 34.125 45.75 27.640625 45.75 
Q 21.046875 45.75 16.703125 40.8125 
Q 12.359375 35.890625 12.359375 25.921875 
z
" id="ArialMT-111"/>
      <path d="M 6.59375 0 
L 6.59375 51.859375 
L 14.5 51.859375 
L 14.5 44.484375 
Q 20.21875 53.03125 31 53.03125 
Q 35.6875 53.03125 39.625 51.34375 
Q 43.5625 49.65625 45.515625 46.921875 
Q 47.46875 44.1875 48.25 40.4375 
Q 48.734375 37.984375 48.734375 31.890625 
L 48.734375 0 
L 39.9375 0 
L 39.9375 31.546875 
Q 39.9375 36.921875 38.90625 39.578125 
Q 37.890625 42.234375 35.28125 43.8125 
Q 32.671875 45.40625 29.15625 45.40625 
Q 23.53125 45.40625 19.453125 41.84375 
Q 15.375 38.28125 15.375 28.328125 
L 15.375 0 
z
" id="ArialMT-110"/>
      <path id="ArialMT-32"/>
      <path d="M 7.859375 0 
L 7.859375 71.578125 
L 39.59375 71.578125 
Q 49.171875 71.578125 54.140625 69.640625 
Q 59.125 67.71875 62.109375 62.828125 
Q 65.09375 57.953125 65.09375 52.046875 
Q 65.09375 44.4375 60.15625 39.203125 
Q 55.21875 33.984375 44.921875 32.5625 
Q 48.6875 30.765625 50.640625 29 
Q 54.78125 25.203125 58.5 19.484375 
L 70.953125 0 
L 59.03125 0 
L 49.5625 14.890625 
Q 45.40625 21.34375 42.71875 24.75 
Q 40.046875 28.171875 37.921875 29.53125 
Q 35.796875 30.90625 33.59375 31.453125 
Q 31.984375 31.78125 28.328125 31.78125 
L 17.328125 31.78125 
L 17.328125 0 
z
M 17.328125 39.984375 
L 37.703125 39.984375 
Q 44.1875 39.984375 47.84375 41.328125 
Q 51.515625 42.671875 53.421875 45.625 
Q 55.328125 48.578125 55.328125 52.046875 
Q 55.328125 57.125 51.640625 60.390625 
Q 47.953125 63.671875 39.984375 63.671875 
L 17.328125 63.671875 
z
" id="ArialMT-82"/>
      <path d="M 42.09375 16.703125 
L 51.171875 15.578125 
Q 49.03125 7.625 43.21875 3.21875 
Q 37.40625 -1.171875 28.375 -1.171875 
Q 17 -1.171875 10.328125 5.828125 
Q 3.65625 12.84375 3.65625 25.484375 
Q 3.65625 38.578125 10.390625 45.796875 
Q 17.140625 53.03125 27.875 53.03125 
Q 38.28125 53.03125 44.875 45.953125 
Q 51.46875 38.875 51.46875 26.03125 
Q 51.46875 25.25 51.421875 23.6875 
L 12.75 23.6875 
Q 13.234375 15.140625 17.578125 10.59375 
Q 21.921875 6.0625 28.421875 6.0625 
Q 33.25 6.0625 36.671875 8.59375 
Q 40.09375 11.140625 42.09375 16.703125 
z
M 13.234375 30.90625 
L 42.1875 30.90625 
Q 41.609375 37.453125 38.875 40.71875 
Q 34.671875 45.796875 27.984375 45.796875 
Q 21.921875 45.796875 17.796875 41.75 
Q 13.671875 37.703125 13.234375 30.90625 
z
" id="ArialMT-101"/>
      <path d="M 3.078125 15.484375 
L 11.765625 16.84375 
Q 12.5 11.625 15.84375 8.84375 
Q 19.1875 6.0625 25.203125 6.0625 
Q 31.25 6.0625 34.171875 8.515625 
Q 37.109375 10.984375 37.109375 14.3125 
Q 37.109375 17.28125 34.515625 19 
Q 32.71875 20.171875 25.53125 21.96875 
Q 15.875 24.421875 12.140625 26.203125 
Q 8.40625 27.984375 6.46875 31.125 
Q 4.546875 34.28125 4.546875 38.09375 
Q 4.546875 41.546875 6.125 44.5 
Q 7.71875 47.46875 10.453125 49.421875 
Q 12.5 50.921875 16.03125 51.96875 
Q 19.578125 53.03125 23.640625 53.03125 
Q 29.734375 53.03125 34.34375 51.265625 
Q 38.96875 49.515625 41.15625 46.5 
Q 43.359375 43.5 44.1875 38.484375 
L 35.59375 37.3125 
Q 35.015625 41.3125 32.203125 43.546875 
Q 29.390625 45.796875 24.265625 45.796875 
Q 18.21875 45.796875 15.625 43.796875 
Q 13.03125 41.796875 13.03125 39.109375 
Q 13.03125 37.40625 14.109375 36.03125 
Q 15.1875 34.625 17.484375 33.6875 
Q 18.796875 33.203125 25.25 31.453125 
Q 34.578125 28.953125 38.25 27.359375 
Q 41.9375 25.78125 44.03125 22.75 
Q 46.140625 19.734375 46.140625 15.234375 
Q 46.140625 10.84375 43.578125 6.953125 
Q 41.015625 3.078125 36.171875 0.953125 
Q 31.34375 -1.171875 25.25 -1.171875 
Q 15.140625 -1.171875 9.84375 3.03125 
Q 4.546875 7.234375 3.078125 15.484375 
z
" id="ArialMT-115"/>
     </defs>
     <g style="fill:#262626;" transform="translate(504.809687 675.037812)scale(0.22 -0.22)">
      <use xlink:href="#ArialMT-83"/>
      <use x="66.699219" xlink:href="#ArialMT-105"/>
      <use x="88.916016" xlink:href="#ArialMT-109"/>
      <use x="172.216797" xlink:href="#ArialMT-117"/>
      <use x="227.832031" xlink:href="#ArialMT-108"/>
      <use x="250.048828" xlink:href="#ArialMT-97"/>
      <use x="305.664062" xlink:href="#ArialMT-116"/>
      <use x="333.447266" xlink:href="#ArialMT-105"/>
      <use x="355.664062" xlink:href="#ArialMT-111"/>
      <use x="411.279297" xlink:href="#ArialMT-110"/>
      <use x="466.894531" xlink:href="#ArialMT-32"/>
      <use x="494.677734" xlink:href="#ArialMT-82"/>
      <use x="566.894531" xlink:href="#ArialMT-101"/>
      <use x="622.509766" xlink:href="#ArialMT-115"/>
      <use x="672.509766" xlink:href="#ArialMT-117"/>
      <use x="728.125" xlink:href="#ArialMT-108"/>
      <use x="750.341797" xlink:href="#ArialMT-116"/>
     </g>
    </g>
   </g>
   <g id="matplotlib.axis_2">
    <g id="ytick_1">
     <g id="line2d_17">
      <path clip-path="url(#p1e8078e012)" d="M 144 556.551442 
L 1036.8 556.551442 
" style="fill:none;stroke:#cccccc;stroke-linecap:round;"/>
     </g>
     <g id="line2d_18"/>
     <g id="text_10">
      <!-- 0.05 -->
      <g style="fill:#262626;" transform="translate(98.078125 563.709254)scale(0.2 -0.2)">
       <use xlink:href="#ArialMT-48"/>
       <use x="55.615234" xlink:href="#ArialMT-46"/>
       <use x="83.398438" xlink:href="#ArialMT-48"/>
       <use x="139.013672" xlink:href="#ArialMT-53"/>
      </g>
     </g>
    </g>
    <g id="ytick_2">
     <g id="line2d_19">
      <path clip-path="url(#p1e8078e012)" d="M 144 451.702148 
L 1036.8 451.702148 
" style="fill:none;stroke:#cccccc;stroke-linecap:round;"/>
     </g>
     <g id="line2d_20"/>
     <g id="text_11">
      <!-- 0.10 -->
      <g style="fill:#262626;" transform="translate(98.078125 458.859961)scale(0.2 -0.2)">
       <use xlink:href="#ArialMT-48"/>
       <use x="55.615234" xlink:href="#ArialMT-46"/>
       <use x="83.398438" xlink:href="#ArialMT-49"/>
       <use x="139.013672" xlink:href="#ArialMT-48"/>
      </g>
     </g>
    </g>
    <g id="ytick_3">
     <g id="line2d_21">
      <path clip-path="url(#p1e8078e012)" d="M 144 346.852855 
L 1036.8 346.852855 
" style="fill:none;stroke:#cccccc;stroke-linecap:round;"/>
     </g>
     <g id="line2d_22"/>
     <g id="text_12">
      <!-- 0.15 -->
      <g style="fill:#262626;" transform="translate(98.078125 354.010667)scale(0.2 -0.2)">
       <use xlink:href="#ArialMT-48"/>
       <use x="55.615234" xlink:href="#ArialMT-46"/>
       <use x="83.398438" xlink:href="#ArialMT-49"/>
       <use x="139.013672" xlink:href="#ArialMT-53"/>
      </g>
     </g>
    </g>
    <g id="ytick_4">
     <g id="line2d_23">
      <path clip-path="url(#p1e8078e012)" d="M 144 242.003561 
L 1036.8 242.003561 
" style="fill:none;stroke:#cccccc;stroke-linecap:round;"/>
     </g>
     <g id="line2d_24"/>
     <g id="text_13">
      <!-- 0.20 -->
      <g style="fill:#262626;" transform="translate(98.078125 249.161374)scale(0.2 -0.2)">
       <use xlink:href="#ArialMT-48"/>
       <use x="55.615234" xlink:href="#ArialMT-46"/>
       <use x="83.398438" xlink:href="#ArialMT-50"/>
       <use x="139.013672" xlink:href="#ArialMT-48"/>
      </g>
     </g>
    </g>
    <g id="ytick_5">
     <g id="line2d_25">
      <path clip-path="url(#p1e8078e012)" d="M 144 137.154268 
L 1036.8 137.154268 
" style="fill:none;stroke:#cccccc;stroke-linecap:round;"/>
     </g>
     <g id="line2d_26"/>
     <g id="text_14">
      <!-- 0.25 -->
      <g style="fill:#262626;" transform="translate(98.078125 144.31208)scale(0.2 -0.2)">
       <use xlink:href="#ArialMT-48"/>
       <use x="55.615234" xlink:href="#ArialMT-46"/>
       <use x="83.398438" xlink:href="#ArialMT-50"/>
       <use x="139.013672" xlink:href="#ArialMT-53"/>
      </g>
     </g>
    </g>
    <g id="text_15">
     <!-- Predicted -->
     <defs>
      <path d="M 7.71875 0 
L 7.71875 71.578125 
L 34.71875 71.578125 
Q 41.84375 71.578125 45.609375 70.90625 
Q 50.875 70.015625 54.4375 67.546875 
Q 58.015625 65.09375 60.1875 60.640625 
Q 62.359375 56.203125 62.359375 50.875 
Q 62.359375 41.75 56.546875 35.421875 
Q 50.734375 29.109375 35.546875 29.109375 
L 17.1875 29.109375 
L 17.1875 0 
z
M 17.1875 37.546875 
L 35.6875 37.546875 
Q 44.875 37.546875 48.734375 40.96875 
Q 52.59375 44.390625 52.59375 50.59375 
Q 52.59375 55.078125 50.3125 58.265625 
Q 48.046875 61.46875 44.34375 62.5 
Q 41.9375 63.140625 35.5 63.140625 
L 17.1875 63.140625 
z
" id="ArialMT-80"/>
      <path d="M 6.5 0 
L 6.5 51.859375 
L 14.40625 51.859375 
L 14.40625 44 
Q 17.4375 49.515625 20 51.265625 
Q 22.5625 53.03125 25.640625 53.03125 
Q 30.078125 53.03125 34.671875 50.203125 
L 31.640625 42.046875 
Q 28.421875 43.953125 25.203125 43.953125 
Q 22.3125 43.953125 20.015625 42.21875 
Q 17.71875 40.484375 16.75 37.40625 
Q 15.28125 32.71875 15.28125 27.15625 
L 15.28125 0 
z
" id="ArialMT-114"/>
      <path d="M 40.234375 0 
L 40.234375 6.546875 
Q 35.296875 -1.171875 25.734375 -1.171875 
Q 19.53125 -1.171875 14.328125 2.25 
Q 9.125 5.671875 6.265625 11.796875 
Q 3.421875 17.921875 3.421875 25.875 
Q 3.421875 33.640625 6 39.96875 
Q 8.59375 46.296875 13.765625 49.65625 
Q 18.953125 53.03125 25.34375 53.03125 
Q 30.03125 53.03125 33.6875 51.046875 
Q 37.359375 49.078125 39.65625 45.90625 
L 39.65625 71.578125 
L 48.390625 71.578125 
L 48.390625 0 
z
M 12.453125 25.875 
Q 12.453125 15.921875 16.640625 10.984375 
Q 20.84375 6.0625 26.5625 6.0625 
Q 32.328125 6.0625 36.34375 10.765625 
Q 40.375 15.484375 40.375 25.140625 
Q 40.375 35.796875 36.265625 40.765625 
Q 32.171875 45.75 26.171875 45.75 
Q 20.3125 45.75 16.375 40.96875 
Q 12.453125 36.1875 12.453125 25.875 
z
" id="ArialMT-100"/>
      <path d="M 40.4375 19 
L 49.078125 17.875 
Q 47.65625 8.9375 41.8125 3.875 
Q 35.984375 -1.171875 27.484375 -1.171875 
Q 16.84375 -1.171875 10.375 5.78125 
Q 3.90625 12.75 3.90625 25.734375 
Q 3.90625 34.125 6.6875 40.421875 
Q 9.46875 46.734375 15.15625 49.875 
Q 20.84375 53.03125 27.546875 53.03125 
Q 35.984375 53.03125 41.359375 48.75 
Q 46.734375 44.484375 48.25 36.625 
L 39.703125 35.296875 
Q 38.484375 40.53125 35.375 43.15625 
Q 32.28125 45.796875 27.875 45.796875 
Q 21.234375 45.796875 17.078125 41.03125 
Q 12.9375 36.28125 12.9375 25.984375 
Q 12.9375 15.53125 16.9375 10.796875 
Q 20.953125 6.0625 27.390625 6.0625 
Q 32.5625 6.0625 36.03125 9.234375 
Q 39.5 12.40625 40.4375 19 
z
" id="ArialMT-99"/>
     </defs>
     <g style="fill:#262626;" transform="translate(89.705625 404.668125)rotate(-90)scale(0.22 -0.22)">
      <use xlink:href="#ArialMT-80"/>
      <use x="66.699219" xlink:href="#ArialMT-114"/>
      <use x="100" xlink:href="#ArialMT-101"/>
      <use x="155.615234" xlink:href="#ArialMT-100"/>
      <use x="211.230469" xlink:href="#ArialMT-105"/>
      <use x="233.447266" xlink:href="#ArialMT-99"/>
      <use x="283.447266" xlink:href="#ArialMT-116"/>
      <use x="311.230469" xlink:href="#ArialMT-101"/>
      <use x="366.845703" xlink:href="#ArialMT-100"/>
     </g>
    </g>
   </g>
   <g id="line2d_27">
    <defs>
     <path d="M -5 0 
L 5 0 
M 0 5 
L 0 -5 
" id="m3f01967e75" style="stroke:#00bfbf;"/>
    </defs>
    <g clip-path="url(#p1e8078e012)">
     <use style="fill:#00bfbf;stroke:#00bfbf;" x="446.11837" xlink:href="#m3f01967e75" y="439.464424"/>
     <use style="fill:#00bfbf;stroke:#00bfbf;" x="366.52628" xlink:href="#m3f01967e75" y="568.867561"/>
     <use style="fill:#00bfbf;stroke:#00bfbf;" x="292.089782" xlink:href="#m3f01967e75" y="532.699013"/>
     <use style="fill:#00bfbf;stroke:#00bfbf;" x="237.369009" xlink:href="#m3f01967e75" y="549.237184"/>
     <use style="fill:#00bfbf;stroke:#00bfbf;" x="340.564814" xlink:href="#m3f01967e75" y="505.334092"/>
     <use style="fill:#00bfbf;stroke:#00bfbf;" x="380.029659" xlink:href="#m3f01967e75" y="450.479284"/>
     <use style="fill:#00bfbf;stroke:#00bfbf;" x="581.19155" xlink:href="#m3f01967e75" y="363.564382"/>
     <use style="fill:#00bfbf;stroke:#00bfbf;" x="324.16924" xlink:href="#m3f01967e75" y="544.936729"/>
     <use style="fill:#00bfbf;stroke:#00bfbf;" x="248.225984" xlink:href="#m3f01967e75" y="556.175503"/>
     <use style="fill:#00bfbf;stroke:#00bfbf;" x="426.152806" xlink:href="#m3f01967e75" y="463.393247"/>
     <use style="fill:#00bfbf;stroke:#00bfbf;" x="406.66808" xlink:href="#m3f01967e75" y="476.007078"/>
     <use style="fill:#00bfbf;stroke:#00bfbf;" x="261.735896" xlink:href="#m3f01967e75" y="471.073392"/>
     <use style="fill:#00bfbf;stroke:#00bfbf;" x="264.703109" xlink:href="#m3f01967e75" y="543.155577"/>
     <use style="fill:#00bfbf;stroke:#00bfbf;" x="274.793242" xlink:href="#m3f01967e75" y="502.078954"/>
     <use style="fill:#00bfbf;stroke:#00bfbf;" x="191.422014" xlink:href="#m3f01967e75" y="549.598266"/>
     <use style="fill:#00bfbf;stroke:#00bfbf;" x="268.657857" xlink:href="#m3f01967e75" y="546.945802"/>
     <use style="fill:#00bfbf;stroke:#00bfbf;" x="306.983751" xlink:href="#m3f01967e75" y="516.859884"/>
     <use style="fill:#00bfbf;stroke:#00bfbf;" x="262.100341" xlink:href="#m3f01967e75" y="454.547301"/>
     <use style="fill:#00bfbf;stroke:#00bfbf;" x="511.573184" xlink:href="#m3f01967e75" y="498.898069"/>
     <use style="fill:#00bfbf;stroke:#00bfbf;" x="224.897899" xlink:href="#m3f01967e75" y="551.501286"/>
     <use style="fill:#00bfbf;stroke:#00bfbf;" x="313.276233" xlink:href="#m3f01967e75" y="515.732723"/>
     <use style="fill:#00bfbf;stroke:#00bfbf;" x="291.096576" xlink:href="#m3f01967e75" y="535.847632"/>
     <use style="fill:#00bfbf;stroke:#00bfbf;" x="256.503343" xlink:href="#m3f01967e75" y="544.508211"/>
     <use style="fill:#00bfbf;stroke:#00bfbf;" x="275.508554" xlink:href="#m3f01967e75" y="516.193509"/>
     <use style="fill:#00bfbf;stroke:#00bfbf;" x="259.868499" xlink:href="#m3f01967e75" y="523.507746"/>
     <use style="fill:#00bfbf;stroke:#00bfbf;" x="296.674025" xlink:href="#m3f01967e75" y="517.267025"/>
     <use style="fill:#00bfbf;stroke:#00bfbf;" x="213.934671" xlink:href="#m3f01967e75" y="545.370653"/>
     <use style="fill:#00bfbf;stroke:#00bfbf;" x="761.585825" xlink:href="#m3f01967e75" y="320.142493"/>
     <use style="fill:#00bfbf;stroke:#00bfbf;" x="296.27782" xlink:href="#m3f01967e75" y="506.360922"/>
     <use style="fill:#00bfbf;stroke:#00bfbf;" x="473.947757" xlink:href="#m3f01967e75" y="451.493397"/>
     <use style="fill:#00bfbf;stroke:#00bfbf;" x="265.827649" xlink:href="#m3f01967e75" y="513.453689"/>
     <use style="fill:#00bfbf;stroke:#00bfbf;" x="304.825804" xlink:href="#m3f01967e75" y="532.180565"/>
     <use style="fill:#00bfbf;stroke:#00bfbf;" x="280.180706" xlink:href="#m3f01967e75" y="529.893418"/>
     <use style="fill:#00bfbf;stroke:#00bfbf;" x="254.285673" xlink:href="#m3f01967e75" y="539.751896"/>
     <use style="fill:#00bfbf;stroke:#00bfbf;" x="435.46202" xlink:href="#m3f01967e75" y="435.010929"/>
     <use style="fill:#00bfbf;stroke:#00bfbf;" x="332.328893" xlink:href="#m3f01967e75" y="506.792453"/>
     <use style="fill:#00bfbf;stroke:#00bfbf;" x="361.149752" xlink:href="#m3f01967e75" y="462.05712"/>
     <use style="fill:#00bfbf;stroke:#00bfbf;" x="296.445299" xlink:href="#m3f01967e75" y="545.835318"/>
     <use style="fill:#00bfbf;stroke:#00bfbf;" x="539.200232" xlink:href="#m3f01967e75" y="489.719544"/>
     <use style="fill:#00bfbf;stroke:#00bfbf;" x="605.822609" xlink:href="#m3f01967e75" y="352.956952"/>
     <use style="fill:#00bfbf;stroke:#00bfbf;" x="807.471135" xlink:href="#m3f01967e75" y="331.395389"/>
     <use style="fill:#00bfbf;stroke:#00bfbf;" x="281.14062" xlink:href="#m3f01967e75" y="535.363589"/>
     <use style="fill:#00bfbf;stroke:#00bfbf;" x="294.529611" xlink:href="#m3f01967e75" y="539.811471"/>
     <use style="fill:#00bfbf;stroke:#00bfbf;" x="264.253197" xlink:href="#m3f01967e75" y="554.644926"/>
     <use style="fill:#00bfbf;stroke:#00bfbf;" x="273.043485" xlink:href="#m3f01967e75" y="527.989898"/>
     <use style="fill:#00bfbf;stroke:#00bfbf;" x="238.059611" xlink:href="#m3f01967e75" y="529.67976"/>
     <use style="fill:#00bfbf;stroke:#00bfbf;" x="459.695782" xlink:href="#m3f01967e75" y="457.843053"/>
     <use style="fill:#00bfbf;stroke:#00bfbf;" x="700.302649" xlink:href="#m3f01967e75" y="268.171316"/>
     <use style="fill:#00bfbf;stroke:#00bfbf;" x="403.223672" xlink:href="#m3f01967e75" y="396.114825"/>
     <use style="fill:#00bfbf;stroke:#00bfbf;" x="358.965314" xlink:href="#m3f01967e75" y="515.286039"/>
     <use style="fill:#00bfbf;stroke:#00bfbf;" x="301.578233" xlink:href="#m3f01967e75" y="539.871198"/>
     <use style="fill:#00bfbf;stroke:#00bfbf;" x="396.985314" xlink:href="#m3f01967e75" y="546.114438"/>
     <use style="fill:#00bfbf;stroke:#00bfbf;" x="287.433161" xlink:href="#m3f01967e75" y="537.486789"/>
     <use style="fill:#00bfbf;stroke:#00bfbf;" x="402.295292" xlink:href="#m3f01967e75" y="460.462271"/>
     <use style="fill:#00bfbf;stroke:#00bfbf;" x="325.621204" xlink:href="#m3f01967e75" y="531.438651"/>
     <use style="fill:#00bfbf;stroke:#00bfbf;" x="243.001472" xlink:href="#m3f01967e75" y="486.744313"/>
     <use style="fill:#00bfbf;stroke:#00bfbf;" x="259.66238" xlink:href="#m3f01967e75" y="519.066284"/>
     <use style="fill:#00bfbf;stroke:#00bfbf;" x="387.291311" xlink:href="#m3f01967e75" y="463.810555"/>
     <use style="fill:#00bfbf;stroke:#00bfbf;" x="297.912079" xlink:href="#m3f01967e75" y="552.409383"/>
     <use style="fill:#00bfbf;stroke:#00bfbf;" x="243.767536" xlink:href="#m3f01967e75" y="531.890472"/>
     <use style="fill:#00bfbf;stroke:#00bfbf;" x="908.485159" xlink:href="#m3f01967e75" y="292.709315"/>
     <use style="fill:#00bfbf;stroke:#00bfbf;" x="247.015618" xlink:href="#m3f01967e75" y="543.638387"/>
     <use style="fill:#00bfbf;stroke:#00bfbf;" x="418.246742" xlink:href="#m3f01967e75" y="455.048166"/>
     <use style="fill:#00bfbf;stroke:#00bfbf;" x="309.041207" xlink:href="#m3f01967e75" y="488.706604"/>
     <use style="fill:#00bfbf;stroke:#00bfbf;" x="293.98189" xlink:href="#m3f01967e75" y="547.29144"/>
     <use style="fill:#00bfbf;stroke:#00bfbf;" x="320.146587" xlink:href="#m3f01967e75" y="523.251494"/>
     <use style="fill:#00bfbf;stroke:#00bfbf;" x="314.294763" xlink:href="#m3f01967e75" y="519.099486"/>
     <use style="fill:#00bfbf;stroke:#00bfbf;" x="338.13002" xlink:href="#m3f01967e75" y="485.420515"/>
     <use style="fill:#00bfbf;stroke:#00bfbf;" x="406.717482" xlink:href="#m3f01967e75" y="518.023852"/>
     <use style="fill:#00bfbf;stroke:#00bfbf;" x="191.422014" xlink:href="#m3f01967e75" y="544.691248"/>
     <use style="fill:#00bfbf;stroke:#00bfbf;" x="531.696018" xlink:href="#m3f01967e75" y="446.990117"/>
     <use style="fill:#00bfbf;stroke:#00bfbf;" x="240.991892" xlink:href="#m3f01967e75" y="527.195006"/>
     <use style="fill:#00bfbf;stroke:#00bfbf;" x="417.068312" xlink:href="#m3f01967e75" y="490.862963"/>
     <use style="fill:#00bfbf;stroke:#00bfbf;" x="553.255369" xlink:href="#m3f01967e75" y="369.49307"/>
     <use style="fill:#00bfbf;stroke:#00bfbf;" x="386.145082" xlink:href="#m3f01967e75" y="508.239698"/>
     <use style="fill:#00bfbf;stroke:#00bfbf;" x="373.313012" xlink:href="#m3f01967e75" y="495.339733"/>
     <use style="fill:#00bfbf;stroke:#00bfbf;" x="336.715865" xlink:href="#m3f01967e75" y="506.359539"/>
     <use style="fill:#00bfbf;stroke:#00bfbf;" x="288.875686" xlink:href="#m3f01967e75" y="543.014401"/>
     <use style="fill:#00bfbf;stroke:#00bfbf;" x="292.406993" xlink:href="#m3f01967e75" y="548.868409"/>
     <use style="fill:#00bfbf;stroke:#00bfbf;" x="327.216473" xlink:href="#m3f01967e75" y="507.803779"/>
     <use style="fill:#00bfbf;stroke:#00bfbf;" x="315.099987" xlink:href="#m3f01967e75" y="523.186079"/>
     <use style="fill:#00bfbf;stroke:#00bfbf;" x="395.194074" xlink:href="#m3f01967e75" y="425.245737"/>
     <use style="fill:#00bfbf;stroke:#00bfbf;" x="558.909336" xlink:href="#m3f01967e75" y="383.524502"/>
     <use style="fill:#00bfbf;stroke:#00bfbf;" x="272.523544" xlink:href="#m3f01967e75" y="543.122504"/>
     <use style="fill:#00bfbf;stroke:#00bfbf;" x="249.432506" xlink:href="#m3f01967e75" y="549.561319"/>
     <use style="fill:#00bfbf;stroke:#00bfbf;" x="276.390911" xlink:href="#m3f01967e75" y="541.597484"/>
     <use style="fill:#00bfbf;stroke:#00bfbf;" x="354.702849" xlink:href="#m3f01967e75" y="487.386797"/>
     <use style="fill:#00bfbf;stroke:#00bfbf;" x="372.693669" xlink:href="#m3f01967e75" y="472.050854"/>
     <use style="fill:#00bfbf;stroke:#00bfbf;" x="410.863818" xlink:href="#m3f01967e75" y="466.976734"/>
     <use style="fill:#00bfbf;stroke:#00bfbf;" x="265.641795" xlink:href="#m3f01967e75" y="542.655248"/>
     <use style="fill:#00bfbf;stroke:#00bfbf;" x="299.983787" xlink:href="#m3f01967e75" y="480.985142"/>
     <use style="fill:#00bfbf;stroke:#00bfbf;" x="225.613697" xlink:href="#m3f01967e75" y="544.176659"/>
     <use style="fill:#00bfbf;stroke:#00bfbf;" x="279.745025" xlink:href="#m3f01967e75" y="541.917894"/>
     <use style="fill:#00bfbf;stroke:#00bfbf;" x="416.704571" xlink:href="#m3f01967e75" y="506.708089"/>
     <use style="fill:#00bfbf;stroke:#00bfbf;" x="457.383719" xlink:href="#m3f01967e75" y="466.03082"/>
     <use style="fill:#00bfbf;stroke:#00bfbf;" x="301.774322" xlink:href="#m3f01967e75" y="555.989961"/>
     <use style="fill:#00bfbf;stroke:#00bfbf;" x="412.943741" xlink:href="#m3f01967e75" y="465.775793"/>
     <use style="fill:#00bfbf;stroke:#00bfbf;" x="468.801275" xlink:href="#m3f01967e75" y="432.535569"/>
     <use style="fill:#00bfbf;stroke:#00bfbf;" x="212.189768" xlink:href="#m3f01967e75" y="495.299499"/>
     <use style="fill:#00bfbf;stroke:#00bfbf;" x="281.243664" xlink:href="#m3f01967e75" y="555.592304"/>
     <use style="fill:#00bfbf;stroke:#00bfbf;" x="302.741086" xlink:href="#m3f01967e75" y="519.733772"/>
     <use style="fill:#00bfbf;stroke:#00bfbf;" x="374.551407" xlink:href="#m3f01967e75" y="490.186943"/>
     <use style="fill:#00bfbf;stroke:#00bfbf;" x="297.285917" xlink:href="#m3f01967e75" y="509.23971"/>
     <use style="fill:#00bfbf;stroke:#00bfbf;" x="256.041117" xlink:href="#m3f01967e75" y="496.619359"/>
     <use style="fill:#00bfbf;stroke:#00bfbf;" x="389.098008" xlink:href="#m3f01967e75" y="519.771387"/>
     <use style="fill:#00bfbf;stroke:#00bfbf;" x="605.914815" xlink:href="#m3f01967e75" y="452.174503"/>
     <use style="fill:#00bfbf;stroke:#00bfbf;" x="339.051094" xlink:href="#m3f01967e75" y="499.119217"/>
     <use style="fill:#00bfbf;stroke:#00bfbf;" x="353.350483" xlink:href="#m3f01967e75" y="530.236571"/>
     <use style="fill:#00bfbf;stroke:#00bfbf;" x="438.95489" xlink:href="#m3f01967e75" y="474.567221"/>
     <use style="fill:#00bfbf;stroke:#00bfbf;" x="342.015191" xlink:href="#m3f01967e75" y="529.70783"/>
     <use style="fill:#00bfbf;stroke:#00bfbf;" x="284.880672" xlink:href="#m3f01967e75" y="547.404103"/>
     <use style="fill:#00bfbf;stroke:#00bfbf;" x="278.176853" xlink:href="#m3f01967e75" y="551.104375"/>
     <use style="fill:#00bfbf;stroke:#00bfbf;" x="266.256391" xlink:href="#m3f01967e75" y="531.864548"/>
     <use style="fill:#00bfbf;stroke:#00bfbf;" x="443.478749" xlink:href="#m3f01967e75" y="450.855167"/>
     <use style="fill:#00bfbf;stroke:#00bfbf;" x="230.580788" xlink:href="#m3f01967e75" y="536.748987"/>
     <use style="fill:#00bfbf;stroke:#00bfbf;" x="446.253373" xlink:href="#m3f01967e75" y="471.457539"/>
     <use style="fill:#00bfbf;stroke:#00bfbf;" x="381.258272" xlink:href="#m3f01967e75" y="539.079502"/>
     <use style="fill:#00bfbf;stroke:#00bfbf;" x="338.610295" xlink:href="#m3f01967e75" y="488.940972"/>
     <use style="fill:#00bfbf;stroke:#00bfbf;" x="268.266723" xlink:href="#m3f01967e75" y="523.498389"/>
     <use style="fill:#00bfbf;stroke:#00bfbf;" x="206.668337" xlink:href="#m3f01967e75" y="547.293428"/>
     <use style="fill:#00bfbf;stroke:#00bfbf;" x="281.351824" xlink:href="#m3f01967e75" y="533.123869"/>
     <use style="fill:#00bfbf;stroke:#00bfbf;" x="292.793737" xlink:href="#m3f01967e75" y="533.396073"/>
     <use style="fill:#00bfbf;stroke:#00bfbf;" x="319.838492" xlink:href="#m3f01967e75" y="463.865433"/>
     <use style="fill:#00bfbf;stroke:#00bfbf;" x="816.983207" xlink:href="#m3f01967e75" y="313.796315"/>
     <use style="fill:#00bfbf;stroke:#00bfbf;" x="341.915275" xlink:href="#m3f01967e75" y="485.554326"/>
     <use style="fill:#00bfbf;stroke:#00bfbf;" x="299.433781" xlink:href="#m3f01967e75" y="540.029167"/>
     <use style="fill:#00bfbf;stroke:#00bfbf;" x="952.439593" xlink:href="#m3f01967e75" y="304.147862"/>
     <use style="fill:#00bfbf;stroke:#00bfbf;" x="348.278031" xlink:href="#m3f01967e75" y="440.997676"/>
     <use style="fill:#00bfbf;stroke:#00bfbf;" x="209.083136" xlink:href="#m3f01967e75" y="551.136044"/>
     <use style="fill:#00bfbf;stroke:#00bfbf;" x="365.411432" xlink:href="#m3f01967e75" y="479.941091"/>
     <use style="fill:#00bfbf;stroke:#00bfbf;" x="354.213473" xlink:href="#m3f01967e75" y="505.305456"/>
     <use style="fill:#00bfbf;stroke:#00bfbf;" x="426.604899" xlink:href="#m3f01967e75" y="491.299026"/>
     <use style="fill:#00bfbf;stroke:#00bfbf;" x="196.770994" xlink:href="#m3f01967e75" y="567.25172"/>
     <use style="fill:#00bfbf;stroke:#00bfbf;" x="345.856365" xlink:href="#m3f01967e75" y="499.561637"/>
     <use style="fill:#00bfbf;stroke:#00bfbf;" x="372.073902" xlink:href="#m3f01967e75" y="483.573016"/>
     <use style="fill:#00bfbf;stroke:#00bfbf;" x="337.87381" xlink:href="#m3f01967e75" y="480.414132"/>
     <use style="fill:#00bfbf;stroke:#00bfbf;" x="613.4281" xlink:href="#m3f01967e75" y="405.800943"/>
     <use style="fill:#00bfbf;stroke:#00bfbf;" x="230.146641" xlink:href="#m3f01967e75" y="529.597471"/>
     <use style="fill:#00bfbf;stroke:#00bfbf;" x="426.01164" xlink:href="#m3f01967e75" y="460.081319"/>
     <use style="fill:#00bfbf;stroke:#00bfbf;" x="382.394071" xlink:href="#m3f01967e75" y="466.457"/>
     <use style="fill:#00bfbf;stroke:#00bfbf;" x="238.490645" xlink:href="#m3f01967e75" y="561.775039"/>
     <use style="fill:#00bfbf;stroke:#00bfbf;" x="161.077078" xlink:href="#m3f01967e75" y="554.062212"/>
     <use style="fill:#00bfbf;stroke:#00bfbf;" x="348.651932" xlink:href="#m3f01967e75" y="512.090742"/>
     <use style="fill:#00bfbf;stroke:#00bfbf;" x="536.963514" xlink:href="#m3f01967e75" y="392.205801"/>
     <use style="fill:#00bfbf;stroke:#00bfbf;" x="664.783549" xlink:href="#m3f01967e75" y="410.986317"/>
     <use style="fill:#00bfbf;stroke:#00bfbf;" x="438.156734" xlink:href="#m3f01967e75" y="514.286746"/>
     <use style="fill:#00bfbf;stroke:#00bfbf;" x="297.44538" xlink:href="#m3f01967e75" y="527.288889"/>
     <use style="fill:#00bfbf;stroke:#00bfbf;" x="287.325436" xlink:href="#m3f01967e75" y="516.849349"/>
     <use style="fill:#00bfbf;stroke:#00bfbf;" x="345.956782" xlink:href="#m3f01967e75" y="522.082333"/>
     <use style="fill:#00bfbf;stroke:#00bfbf;" x="296.565058" xlink:href="#m3f01967e75" y="525.581527"/>
    </g>
   </g>
   <g id="line2d_28">
    <defs>
     <path d="M -5 0 
L 5 0 
M 0 5 
L 0 -5 
" id="mf7a2119c77" style="stroke:#bf00bf;"/>
    </defs>
    <g clip-path="url(#p1e8078e012)">
     <use style="fill:#bf00bf;stroke:#bf00bf;" x="409.708111" xlink:href="#mf7a2119c77" y="527.797918"/>
     <use style="fill:#bf00bf;stroke:#bf00bf;" x="327.49032" xlink:href="#mf7a2119c77" y="500.816264"/>
     <use style="fill:#bf00bf;stroke:#bf00bf;" x="357.261552" xlink:href="#mf7a2119c77" y="519.624481"/>
     <use style="fill:#bf00bf;stroke:#bf00bf;" x="288.163327" xlink:href="#mf7a2119c77" y="486.813075"/>
     <use style="fill:#bf00bf;stroke:#bf00bf;" x="917.205578" xlink:href="#mf7a2119c77" y="280.068413"/>
     <use style="fill:#bf00bf;stroke:#bf00bf;" x="535.749163" xlink:href="#mf7a2119c77" y="508.499328"/>
     <use style="fill:#bf00bf;stroke:#bf00bf;" x="492.38393" xlink:href="#mf7a2119c77" y="436.169866"/>
     <use style="fill:#bf00bf;stroke:#bf00bf;" x="413.820298" xlink:href="#mf7a2119c77" y="484.780516"/>
     <use style="fill:#bf00bf;stroke:#bf00bf;" x="369.359381" xlink:href="#mf7a2119c77" y="518.789871"/>
     <use style="fill:#bf00bf;stroke:#bf00bf;" x="256.874513" xlink:href="#mf7a2119c77" y="514.119435"/>
     <use style="fill:#bf00bf;stroke:#bf00bf;" x="314.353279" xlink:href="#mf7a2119c77" y="511.257607"/>
     <use style="fill:#bf00bf;stroke:#bf00bf;" x="309.444486" xlink:href="#mf7a2119c77" y="497.797969"/>
     <use style="fill:#bf00bf;stroke:#bf00bf;" x="233.29872" xlink:href="#mf7a2119c77" y="524.290157"/>
     <use style="fill:#bf00bf;stroke:#bf00bf;" x="329.047165" xlink:href="#mf7a2119c77" y="488.129852"/>
     <use style="fill:#bf00bf;stroke:#bf00bf;" x="424.655401" xlink:href="#mf7a2119c77" y="481.328661"/>
     <use style="fill:#bf00bf;stroke:#bf00bf;" x="789.514618" xlink:href="#mf7a2119c77" y="353.83311"/>
     <use style="fill:#bf00bf;stroke:#bf00bf;" x="502.91673" xlink:href="#mf7a2119c77" y="417.882604"/>
     <use style="fill:#bf00bf;stroke:#bf00bf;" x="202.024611" xlink:href="#mf7a2119c77" y="560.559128"/>
     <use style="fill:#bf00bf;stroke:#bf00bf;" x="295.020488" xlink:href="#mf7a2119c77" y="546.509447"/>
     <use style="fill:#bf00bf;stroke:#bf00bf;" x="789.427533" xlink:href="#mf7a2119c77" y="304.510864"/>
     <use style="fill:#bf00bf;stroke:#bf00bf;" x="406.5986" xlink:href="#mf7a2119c77" y="512.890826"/>
     <use style="fill:#bf00bf;stroke:#bf00bf;" x="349.244584" xlink:href="#mf7a2119c77" y="521.415776"/>
     <use style="fill:#bf00bf;stroke:#bf00bf;" x="493.613974" xlink:href="#mf7a2119c77" y="515.952755"/>
     <use style="fill:#bf00bf;stroke:#bf00bf;" x="400.744083" xlink:href="#mf7a2119c77" y="496.429572"/>
     <use style="fill:#bf00bf;stroke:#bf00bf;" x="187.796354" xlink:href="#mf7a2119c77" y="539.131504"/>
     <use style="fill:#bf00bf;stroke:#bf00bf;" x="404.478281" xlink:href="#mf7a2119c77" y="450.817493"/>
     <use style="fill:#bf00bf;stroke:#bf00bf;" x="1036.8" xlink:href="#mf7a2119c77" y="261.449023"/>
     <use style="fill:#bf00bf;stroke:#bf00bf;" x="849.318736" xlink:href="#mf7a2119c77" y="287.557099"/>
     <use style="fill:#bf00bf;stroke:#bf00bf;" x="317.246242" xlink:href="#mf7a2119c77" y="472.886255"/>
     <use style="fill:#bf00bf;stroke:#bf00bf;" x="472.778764" xlink:href="#mf7a2119c77" y="368.249463"/>
     <use style="fill:#bf00bf;stroke:#bf00bf;" x="896.198277" xlink:href="#mf7a2119c77" y="319.488863"/>
     <use style="fill:#bf00bf;stroke:#bf00bf;" x="364.891618" xlink:href="#mf7a2119c77" y="535.231525"/>
     <use style="fill:#bf00bf;stroke:#bf00bf;" x="305.101166" xlink:href="#mf7a2119c77" y="535.55583"/>
     <use style="fill:#bf00bf;stroke:#bf00bf;" x="302.745265" xlink:href="#mf7a2119c77" y="519.568794"/>
     <use style="fill:#bf00bf;stroke:#bf00bf;" x="373.245605" xlink:href="#mf7a2119c77" y="509.348603"/>
     <use style="fill:#bf00bf;stroke:#bf00bf;" x="144" xlink:href="#mf7a2119c77" y="554.690175"/>
     <use style="fill:#bf00bf;stroke:#bf00bf;" x="254.449605" xlink:href="#mf7a2119c77" y="536.793439"/>
     <use style="fill:#bf00bf;stroke:#bf00bf;" x="408.562521" xlink:href="#mf7a2119c77" y="508.262265"/>
     <use style="fill:#bf00bf;stroke:#bf00bf;" x="342.967644" xlink:href="#mf7a2119c77" y="504.196611"/>
     <use style="fill:#bf00bf;stroke:#bf00bf;" x="210.006507" xlink:href="#mf7a2119c77" y="558.359943"/>
     <use style="fill:#bf00bf;stroke:#bf00bf;" x="326.197189" xlink:href="#mf7a2119c77" y="495.840226"/>
     <use style="fill:#bf00bf;stroke:#bf00bf;" x="257.525519" xlink:href="#mf7a2119c77" y="536.30924"/>
     <use style="fill:#bf00bf;stroke:#bf00bf;" x="515.529665" xlink:href="#mf7a2119c77" y="425.507461"/>
     <use style="fill:#bf00bf;stroke:#bf00bf;" x="286.951748" xlink:href="#mf7a2119c77" y="467.77385"/>
     <use style="fill:#bf00bf;stroke:#bf00bf;" x="540.017274" xlink:href="#mf7a2119c77" y="367.001961"/>
     <use style="fill:#bf00bf;stroke:#bf00bf;" x="233.902781" xlink:href="#mf7a2119c77" y="550.468134"/>
     <use style="fill:#bf00bf;stroke:#bf00bf;" x="341.174091" xlink:href="#mf7a2119c77" y="508.483814"/>
     <use style="fill:#bf00bf;stroke:#bf00bf;" x="997.096654" xlink:href="#mf7a2119c77" y="111.109091"/>
     <use style="fill:#bf00bf;stroke:#bf00bf;" x="307.92596" xlink:href="#mf7a2119c77" y="501.401073"/>
     <use style="fill:#bf00bf;stroke:#bf00bf;" x="486.587223" xlink:href="#mf7a2119c77" y="487.707401"/>
    </g>
   </g>
   <g id="line2d_29">
    <path clip-path="url(#p1e8078e012)" d="M 144 605.290909 
L 1036.8 149.167717 
" style="fill:none;stroke:#ff0000;stroke-linecap:round;stroke-width:1.75;"/>
   </g>
   <g id="patch_3">
    <path d="M 144 630 
L 144 86.4 
" style="fill:none;stroke:#cccccc;stroke-linecap:square;stroke-linejoin:miter;"/>
   </g>
   <g id="patch_4">
    <path d="M 1036.8 630 
L 1036.8 86.4 
" style="fill:none;stroke:#cccccc;stroke-linecap:square;stroke-linejoin:miter;"/>
   </g>
   <g id="patch_5">
    <path d="M 144 630 
L 1036.8 630 
" style="fill:none;stroke:#cccccc;stroke-linecap:square;stroke-linejoin:miter;"/>
   </g>
   <g id="patch_6">
    <path d="M 144 86.4 
L 1036.8 86.4 
" style="fill:none;stroke:#cccccc;stroke-linecap:square;stroke-linejoin:miter;"/>
   </g>
  </g>
 </g>
 <defs>
  <clipPath id="p1e8078e012">
   <rect height="543.6" width="892.8" x="144" y="86.4"/>
  </clipPath>
 </defs>
</svg>
