<?xml version="1.0" encoding="utf-8" standalone="no"?>
<!DOCTYPE svg PUBLIC "-//W3C//DTD SVG 1.1//EN"
  "http://www.w3.org/Graphics/SVG/1.1/DTD/svg11.dtd">
<!-- Created with matplotlib (https://matplotlib.org/) -->
<svg height="720pt" version="1.1" viewBox="0 0 1152 720" width="1152pt" xmlns="http://www.w3.org/2000/svg" xmlns:xlink="http://www.w3.org/1999/xlink">
 <defs>
  <style type="text/css">
*{stroke-linecap:butt;stroke-linejoin:round;}
  </style>
 </defs>
 <g id="figure_1">
  <g id="patch_1">
   <path d="M 0 720 
L 1152 720 
L 1152 0 
L 0 0 
z
" style="fill:#ffffff;"/>
  </g>
  <g id="axes_1">
   <g id="patch_2">
    <path d="M 144 630 
L 1036.8 630 
L 1036.8 86.4 
L 144 86.4 
z
" style="fill:#ffffff;"/>
   </g>
   <g id="matplotlib.axis_1">
    <g id="xtick_1">
     <g id="line2d_1">
      <path clip-path="url(#p9abafeeb6b)" d="M 179.642533 630 
L 179.642533 86.4 
" style="fill:none;stroke:#cccccc;stroke-linecap:round;"/>
     </g>
     <g id="text_1">
      <!-- 0.35 -->
      <defs>
       <path d="M 4.15625 35.296875 
Q 4.15625 48 6.765625 55.734375 
Q 9.375 63.484375 14.515625 67.671875 
Q 19.671875 71.875 27.484375 71.875 
Q 33.25 71.875 37.59375 69.546875 
Q 41.9375 67.234375 44.765625 62.859375 
Q 47.609375 58.5 49.21875 52.21875 
Q 50.828125 45.953125 50.828125 35.296875 
Q 50.828125 22.703125 48.234375 14.96875 
Q 45.65625 7.234375 40.5 3 
Q 35.359375 -1.21875 27.484375 -1.21875 
Q 17.140625 -1.21875 11.234375 6.203125 
Q 4.15625 15.140625 4.15625 35.296875 
z
M 13.1875 35.296875 
Q 13.1875 17.671875 17.3125 11.828125 
Q 21.4375 6 27.484375 6 
Q 33.546875 6 37.671875 11.859375 
Q 41.796875 17.71875 41.796875 35.296875 
Q 41.796875 52.984375 37.671875 58.78125 
Q 33.546875 64.59375 27.390625 64.59375 
Q 21.34375 64.59375 17.71875 59.46875 
Q 13.1875 52.9375 13.1875 35.296875 
z
" id="ArialMT-48"/>
       <path d="M 9.078125 0 
L 9.078125 10.015625 
L 19.09375 10.015625 
L 19.09375 0 
z
" id="ArialMT-46"/>
       <path d="M 4.203125 18.890625 
L 12.984375 20.0625 
Q 14.5 12.59375 18.140625 9.296875 
Q 21.78125 6 27 6 
Q 33.203125 6 37.46875 10.296875 
Q 41.75 14.59375 41.75 20.953125 
Q 41.75 27 37.796875 30.921875 
Q 33.84375 34.859375 27.734375 34.859375 
Q 25.25 34.859375 21.53125 33.890625 
L 22.515625 41.609375 
Q 23.390625 41.5 23.921875 41.5 
Q 29.546875 41.5 34.03125 44.421875 
Q 38.53125 47.359375 38.53125 53.46875 
Q 38.53125 58.296875 35.25 61.46875 
Q 31.984375 64.65625 26.8125 64.65625 
Q 21.6875 64.65625 18.265625 61.421875 
Q 14.84375 58.203125 13.875 51.765625 
L 5.078125 53.328125 
Q 6.6875 62.15625 12.390625 67.015625 
Q 18.109375 71.875 26.609375 71.875 
Q 32.46875 71.875 37.390625 69.359375 
Q 42.328125 66.84375 44.9375 62.5 
Q 47.5625 58.15625 47.5625 53.265625 
Q 47.5625 48.640625 45.0625 44.828125 
Q 42.578125 41.015625 37.703125 38.765625 
Q 44.046875 37.3125 47.5625 32.6875 
Q 51.078125 28.078125 51.078125 21.140625 
Q 51.078125 11.765625 44.234375 5.25 
Q 37.40625 -1.265625 26.953125 -1.265625 
Q 17.53125 -1.265625 11.296875 4.34375 
Q 5.078125 9.96875 4.203125 18.890625 
z
" id="ArialMT-51"/>
       <path d="M 4.15625 18.75 
L 13.375 19.53125 
Q 14.40625 12.796875 18.140625 9.390625 
Q 21.875 6 27.15625 6 
Q 33.5 6 37.890625 10.78125 
Q 42.28125 15.578125 42.28125 23.484375 
Q 42.28125 31 38.0625 35.34375 
Q 33.84375 39.703125 27 39.703125 
Q 22.75 39.703125 19.328125 37.765625 
Q 15.921875 35.84375 13.96875 32.765625 
L 5.71875 33.84375 
L 12.640625 70.609375 
L 48.25 70.609375 
L 48.25 62.203125 
L 19.671875 62.203125 
L 15.828125 42.96875 
Q 22.265625 47.46875 29.34375 47.46875 
Q 38.71875 47.46875 45.15625 40.96875 
Q 51.609375 34.46875 51.609375 24.265625 
Q 51.609375 14.546875 45.953125 7.46875 
Q 39.0625 -1.21875 27.15625 -1.21875 
Q 17.390625 -1.21875 11.203125 4.25 
Q 5.03125 9.71875 4.15625 18.75 
z
" id="ArialMT-53"/>
      </defs>
      <g style="fill:#262626;" transform="translate(158.235502 655.247187)scale(0.22 -0.22)">
       <use xlink:href="#ArialMT-48"/>
       <use x="55.615234" xlink:href="#ArialMT-46"/>
       <use x="83.398438" xlink:href="#ArialMT-51"/>
       <use x="139.013672" xlink:href="#ArialMT-53"/>
      </g>
     </g>
    </g>
    <g id="xtick_2">
     <g id="line2d_2">
      <path clip-path="url(#p9abafeeb6b)" d="M 303.139072 630 
L 303.139072 86.4 
" style="fill:none;stroke:#cccccc;stroke-linecap:round;"/>
     </g>
     <g id="text_2">
      <!-- 0.40 -->
      <defs>
       <path d="M 32.328125 0 
L 32.328125 17.140625 
L 1.265625 17.140625 
L 1.265625 25.203125 
L 33.9375 71.578125 
L 41.109375 71.578125 
L 41.109375 25.203125 
L 50.78125 25.203125 
L 50.78125 17.140625 
L 41.109375 17.140625 
L 41.109375 0 
z
M 32.328125 25.203125 
L 32.328125 57.46875 
L 9.90625 25.203125 
z
" id="ArialMT-52"/>
      </defs>
      <g style="fill:#262626;" transform="translate(281.732041 655.247187)scale(0.22 -0.22)">
       <use xlink:href="#ArialMT-48"/>
       <use x="55.615234" xlink:href="#ArialMT-46"/>
       <use x="83.398438" xlink:href="#ArialMT-52"/>
       <use x="139.013672" xlink:href="#ArialMT-48"/>
      </g>
     </g>
    </g>
    <g id="xtick_3">
     <g id="line2d_3">
      <path clip-path="url(#p9abafeeb6b)" d="M 426.635612 630 
L 426.635612 86.4 
" style="fill:none;stroke:#cccccc;stroke-linecap:round;"/>
     </g>
     <g id="text_3">
      <!-- 0.45 -->
      <g style="fill:#262626;" transform="translate(405.22858 655.247187)scale(0.22 -0.22)">
       <use xlink:href="#ArialMT-48"/>
       <use x="55.615234" xlink:href="#ArialMT-46"/>
       <use x="83.398438" xlink:href="#ArialMT-52"/>
       <use x="139.013672" xlink:href="#ArialMT-53"/>
      </g>
     </g>
    </g>
    <g id="xtick_4">
     <g id="line2d_4">
      <path clip-path="url(#p9abafeeb6b)" d="M 550.132151 630 
L 550.132151 86.4 
" style="fill:none;stroke:#cccccc;stroke-linecap:round;"/>
     </g>
     <g id="text_4">
      <!-- 0.50 -->
      <g style="fill:#262626;" transform="translate(528.72512 655.247187)scale(0.22 -0.22)">
       <use xlink:href="#ArialMT-48"/>
       <use x="55.615234" xlink:href="#ArialMT-46"/>
       <use x="83.398438" xlink:href="#ArialMT-53"/>
       <use x="139.013672" xlink:href="#ArialMT-48"/>
      </g>
     </g>
    </g>
    <g id="xtick_5">
     <g id="line2d_5">
      <path clip-path="url(#p9abafeeb6b)" d="M 673.62869 630 
L 673.62869 86.4 
" style="fill:none;stroke:#cccccc;stroke-linecap:round;"/>
     </g>
     <g id="text_5">
      <!-- 0.55 -->
      <g style="fill:#262626;" transform="translate(652.221659 655.247187)scale(0.22 -0.22)">
       <use xlink:href="#ArialMT-48"/>
       <use x="55.615234" xlink:href="#ArialMT-46"/>
       <use x="83.398438" xlink:href="#ArialMT-53"/>
       <use x="139.013672" xlink:href="#ArialMT-53"/>
      </g>
     </g>
    </g>
    <g id="xtick_6">
     <g id="line2d_6">
      <path clip-path="url(#p9abafeeb6b)" d="M 797.125229 630 
L 797.125229 86.4 
" style="fill:none;stroke:#cccccc;stroke-linecap:round;"/>
     </g>
     <g id="text_6">
      <!-- 0.60 -->
      <defs>
       <path d="M 49.75 54.046875 
L 41.015625 53.375 
Q 39.84375 58.546875 37.703125 60.890625 
Q 34.125 64.65625 28.90625 64.65625 
Q 24.703125 64.65625 21.53125 62.3125 
Q 17.390625 59.28125 14.984375 53.46875 
Q 12.59375 47.65625 12.5 36.921875 
Q 15.671875 41.75 20.265625 44.09375 
Q 24.859375 46.4375 29.890625 46.4375 
Q 38.671875 46.4375 44.84375 39.96875 
Q 51.03125 33.5 51.03125 23.25 
Q 51.03125 16.5 48.125 10.71875 
Q 45.21875 4.9375 40.140625 1.859375 
Q 35.0625 -1.21875 28.609375 -1.21875 
Q 17.625 -1.21875 10.6875 6.859375 
Q 3.765625 14.9375 3.765625 33.5 
Q 3.765625 54.25 11.421875 63.671875 
Q 18.109375 71.875 29.4375 71.875 
Q 37.890625 71.875 43.28125 67.140625 
Q 48.6875 62.40625 49.75 54.046875 
z
M 13.875 23.1875 
Q 13.875 18.65625 15.796875 14.5 
Q 17.71875 10.359375 21.1875 8.171875 
Q 24.65625 6 28.46875 6 
Q 34.03125 6 38.03125 10.484375 
Q 42.046875 14.984375 42.046875 22.703125 
Q 42.046875 30.125 38.078125 34.390625 
Q 34.125 38.671875 28.125 38.671875 
Q 22.171875 38.671875 18.015625 34.390625 
Q 13.875 30.125 13.875 23.1875 
z
" id="ArialMT-54"/>
      </defs>
      <g style="fill:#262626;" transform="translate(775.718198 655.247187)scale(0.22 -0.22)">
       <use xlink:href="#ArialMT-48"/>
       <use x="55.615234" xlink:href="#ArialMT-46"/>
       <use x="83.398438" xlink:href="#ArialMT-54"/>
       <use x="139.013672" xlink:href="#ArialMT-48"/>
      </g>
     </g>
    </g>
    <g id="xtick_7">
     <g id="line2d_7">
      <path clip-path="url(#p9abafeeb6b)" d="M 920.621768 630 
L 920.621768 86.4 
" style="fill:none;stroke:#cccccc;stroke-linecap:round;"/>
     </g>
     <g id="text_7">
      <!-- 0.65 -->
      <g style="fill:#262626;" transform="translate(899.214737 655.247187)scale(0.22 -0.22)">
       <use xlink:href="#ArialMT-48"/>
       <use x="55.615234" xlink:href="#ArialMT-46"/>
       <use x="83.398438" xlink:href="#ArialMT-54"/>
       <use x="139.013672" xlink:href="#ArialMT-53"/>
      </g>
     </g>
    </g>
    <g id="text_8">
     <!-- Simulation Result -->
     <defs>
      <path d="M 4.5 23 
L 13.421875 23.78125 
Q 14.0625 18.40625 16.375 14.96875 
Q 18.703125 11.53125 23.578125 9.40625 
Q 28.46875 7.28125 34.578125 7.28125 
Q 39.984375 7.28125 44.140625 8.890625 
Q 48.296875 10.5 50.3125 13.296875 
Q 52.34375 16.109375 52.34375 19.4375 
Q 52.34375 22.796875 50.390625 25.3125 
Q 48.4375 27.828125 43.953125 29.546875 
Q 41.0625 30.671875 31.203125 33.03125 
Q 21.34375 35.40625 17.390625 37.5 
Q 12.25 40.1875 9.734375 44.15625 
Q 7.234375 48.140625 7.234375 53.078125 
Q 7.234375 58.5 10.296875 63.203125 
Q 13.375 67.921875 19.28125 70.359375 
Q 25.203125 72.796875 32.421875 72.796875 
Q 40.375 72.796875 46.453125 70.234375 
Q 52.546875 67.671875 55.8125 62.6875 
Q 59.078125 57.71875 59.328125 51.421875 
L 50.25 50.734375 
Q 49.515625 57.515625 45.28125 60.984375 
Q 41.0625 64.453125 32.8125 64.453125 
Q 24.21875 64.453125 20.28125 61.296875 
Q 16.359375 58.15625 16.359375 53.71875 
Q 16.359375 49.859375 19.140625 47.359375 
Q 21.875 44.875 33.421875 42.265625 
Q 44.96875 39.65625 49.265625 37.703125 
Q 55.515625 34.8125 58.484375 30.390625 
Q 61.46875 25.984375 61.46875 20.21875 
Q 61.46875 14.5 58.203125 9.4375 
Q 54.9375 4.390625 48.796875 1.578125 
Q 42.671875 -1.21875 35.015625 -1.21875 
Q 25.296875 -1.21875 18.71875 1.609375 
Q 12.15625 4.4375 8.421875 10.125 
Q 4.6875 15.828125 4.5 23 
z
" id="ArialMT-83"/>
      <path d="M 6.640625 61.46875 
L 6.640625 71.578125 
L 15.4375 71.578125 
L 15.4375 61.46875 
z
M 6.640625 0 
L 6.640625 51.859375 
L 15.4375 51.859375 
L 15.4375 0 
z
" id="ArialMT-105"/>
      <path d="M 6.59375 0 
L 6.59375 51.859375 
L 14.453125 51.859375 
L 14.453125 44.578125 
Q 16.890625 48.390625 20.9375 50.703125 
Q 25 53.03125 30.171875 53.03125 
Q 35.9375 53.03125 39.625 50.640625 
Q 43.3125 48.25 44.828125 43.953125 
Q 50.984375 53.03125 60.84375 53.03125 
Q 68.5625 53.03125 72.703125 48.75 
Q 76.859375 44.484375 76.859375 35.59375 
L 76.859375 0 
L 68.109375 0 
L 68.109375 32.671875 
Q 68.109375 37.9375 67.25 40.25 
Q 66.40625 42.578125 64.15625 43.984375 
Q 61.921875 45.40625 58.890625 45.40625 
Q 53.421875 45.40625 49.796875 41.765625 
Q 46.1875 38.140625 46.1875 30.125 
L 46.1875 0 
L 37.40625 0 
L 37.40625 33.6875 
Q 37.40625 39.546875 35.25 42.46875 
Q 33.109375 45.40625 28.21875 45.40625 
Q 24.515625 45.40625 21.359375 43.453125 
Q 18.21875 41.5 16.796875 37.734375 
Q 15.375 33.984375 15.375 26.90625 
L 15.375 0 
z
" id="ArialMT-109"/>
      <path d="M 40.578125 0 
L 40.578125 7.625 
Q 34.515625 -1.171875 24.125 -1.171875 
Q 19.53125 -1.171875 15.546875 0.578125 
Q 11.578125 2.34375 9.640625 5 
Q 7.71875 7.671875 6.9375 11.53125 
Q 6.390625 14.109375 6.390625 19.734375 
L 6.390625 51.859375 
L 15.1875 51.859375 
L 15.1875 23.09375 
Q 15.1875 16.21875 15.71875 13.8125 
Q 16.546875 10.359375 19.234375 8.375 
Q 21.921875 6.390625 25.875 6.390625 
Q 29.828125 6.390625 33.296875 8.421875 
Q 36.765625 10.453125 38.203125 13.9375 
Q 39.65625 17.4375 39.65625 24.078125 
L 39.65625 51.859375 
L 48.4375 51.859375 
L 48.4375 0 
z
" id="ArialMT-117"/>
      <path d="M 6.390625 0 
L 6.390625 71.578125 
L 15.1875 71.578125 
L 15.1875 0 
z
" id="ArialMT-108"/>
      <path d="M 40.4375 6.390625 
Q 35.546875 2.25 31.03125 0.53125 
Q 26.515625 -1.171875 21.34375 -1.171875 
Q 12.796875 -1.171875 8.203125 3 
Q 3.609375 7.171875 3.609375 13.671875 
Q 3.609375 17.484375 5.34375 20.625 
Q 7.078125 23.78125 9.890625 25.6875 
Q 12.703125 27.59375 16.21875 28.5625 
Q 18.796875 29.25 24.03125 29.890625 
Q 34.671875 31.15625 39.703125 32.90625 
Q 39.75 34.71875 39.75 35.203125 
Q 39.75 40.578125 37.25 42.78125 
Q 33.890625 45.75 27.25 45.75 
Q 21.046875 45.75 18.09375 43.578125 
Q 15.140625 41.40625 13.71875 35.890625 
L 5.125 37.0625 
Q 6.296875 42.578125 8.984375 45.96875 
Q 11.671875 49.359375 16.75 51.1875 
Q 21.828125 53.03125 28.515625 53.03125 
Q 35.15625 53.03125 39.296875 51.46875 
Q 43.453125 49.90625 45.40625 47.53125 
Q 47.359375 45.171875 48.140625 41.546875 
Q 48.578125 39.3125 48.578125 33.453125 
L 48.578125 21.734375 
Q 48.578125 9.46875 49.140625 6.21875 
Q 49.703125 2.984375 51.375 0 
L 42.1875 0 
Q 40.828125 2.734375 40.4375 6.390625 
z
M 39.703125 26.03125 
Q 34.90625 24.078125 25.34375 22.703125 
Q 19.921875 21.921875 17.671875 20.9375 
Q 15.4375 19.96875 14.203125 18.09375 
Q 12.984375 16.21875 12.984375 13.921875 
Q 12.984375 10.40625 15.640625 8.0625 
Q 18.3125 5.71875 23.4375 5.71875 
Q 28.515625 5.71875 32.46875 7.9375 
Q 36.421875 10.15625 38.28125 14.015625 
Q 39.703125 17 39.703125 22.796875 
z
" id="ArialMT-97"/>
      <path d="M 25.78125 7.859375 
L 27.046875 0.09375 
Q 23.34375 -0.6875 20.40625 -0.6875 
Q 15.625 -0.6875 12.984375 0.828125 
Q 10.359375 2.34375 9.28125 4.8125 
Q 8.203125 7.28125 8.203125 15.1875 
L 8.203125 45.015625 
L 1.765625 45.015625 
L 1.765625 51.859375 
L 8.203125 51.859375 
L 8.203125 64.703125 
L 16.9375 69.96875 
L 16.9375 51.859375 
L 25.78125 51.859375 
L 25.78125 45.015625 
L 16.9375 45.015625 
L 16.9375 14.703125 
Q 16.9375 10.9375 17.40625 9.859375 
Q 17.875 8.796875 18.921875 8.15625 
Q 19.96875 7.515625 21.921875 7.515625 
Q 23.390625 7.515625 25.78125 7.859375 
z
" id="ArialMT-116"/>
      <path d="M 3.328125 25.921875 
Q 3.328125 40.328125 11.328125 47.265625 
Q 18.015625 53.03125 27.640625 53.03125 
Q 38.328125 53.03125 45.109375 46.015625 
Q 51.90625 39.015625 51.90625 26.65625 
Q 51.90625 16.65625 48.90625 10.90625 
Q 45.90625 5.171875 40.15625 2 
Q 34.421875 -1.171875 27.640625 -1.171875 
Q 16.75 -1.171875 10.03125 5.8125 
Q 3.328125 12.796875 3.328125 25.921875 
z
M 12.359375 25.921875 
Q 12.359375 15.96875 16.703125 11.015625 
Q 21.046875 6.0625 27.640625 6.0625 
Q 34.1875 6.0625 38.53125 11.03125 
Q 42.875 16.015625 42.875 26.21875 
Q 42.875 35.84375 38.5 40.796875 
Q 34.125 45.75 27.640625 45.75 
Q 21.046875 45.75 16.703125 40.8125 
Q 12.359375 35.890625 12.359375 25.921875 
z
" id="ArialMT-111"/>
      <path d="M 6.59375 0 
L 6.59375 51.859375 
L 14.5 51.859375 
L 14.5 44.484375 
Q 20.21875 53.03125 31 53.03125 
Q 35.6875 53.03125 39.625 51.34375 
Q 43.5625 49.65625 45.515625 46.921875 
Q 47.46875 44.1875 48.25 40.4375 
Q 48.734375 37.984375 48.734375 31.890625 
L 48.734375 0 
L 39.9375 0 
L 39.9375 31.546875 
Q 39.9375 36.921875 38.90625 39.578125 
Q 37.890625 42.234375 35.28125 43.8125 
Q 32.671875 45.40625 29.15625 45.40625 
Q 23.53125 45.40625 19.453125 41.84375 
Q 15.375 38.28125 15.375 28.328125 
L 15.375 0 
z
" id="ArialMT-110"/>
      <path id="ArialMT-32"/>
      <path d="M 7.859375 0 
L 7.859375 71.578125 
L 39.59375 71.578125 
Q 49.171875 71.578125 54.140625 69.640625 
Q 59.125 67.71875 62.109375 62.828125 
Q 65.09375 57.953125 65.09375 52.046875 
Q 65.09375 44.4375 60.15625 39.203125 
Q 55.21875 33.984375 44.921875 32.5625 
Q 48.6875 30.765625 50.640625 29 
Q 54.78125 25.203125 58.5 19.484375 
L 70.953125 0 
L 59.03125 0 
L 49.5625 14.890625 
Q 45.40625 21.34375 42.71875 24.75 
Q 40.046875 28.171875 37.921875 29.53125 
Q 35.796875 30.90625 33.59375 31.453125 
Q 31.984375 31.78125 28.328125 31.78125 
L 17.328125 31.78125 
L 17.328125 0 
z
M 17.328125 39.984375 
L 37.703125 39.984375 
Q 44.1875 39.984375 47.84375 41.328125 
Q 51.515625 42.671875 53.421875 45.625 
Q 55.328125 48.578125 55.328125 52.046875 
Q 55.328125 57.125 51.640625 60.390625 
Q 47.953125 63.671875 39.984375 63.671875 
L 17.328125 63.671875 
z
" id="ArialMT-82"/>
      <path d="M 42.09375 16.703125 
L 51.171875 15.578125 
Q 49.03125 7.625 43.21875 3.21875 
Q 37.40625 -1.171875 28.375 -1.171875 
Q 17 -1.171875 10.328125 5.828125 
Q 3.65625 12.84375 3.65625 25.484375 
Q 3.65625 38.578125 10.390625 45.796875 
Q 17.140625 53.03125 27.875 53.03125 
Q 38.28125 53.03125 44.875 45.953125 
Q 51.46875 38.875 51.46875 26.03125 
Q 51.46875 25.25 51.421875 23.6875 
L 12.75 23.6875 
Q 13.234375 15.140625 17.578125 10.59375 
Q 21.921875 6.0625 28.421875 6.0625 
Q 33.25 6.0625 36.671875 8.59375 
Q 40.09375 11.140625 42.09375 16.703125 
z
M 13.234375 30.90625 
L 42.1875 30.90625 
Q 41.609375 37.453125 38.875 40.71875 
Q 34.671875 45.796875 27.984375 45.796875 
Q 21.921875 45.796875 17.796875 41.75 
Q 13.671875 37.703125 13.234375 30.90625 
z
" id="ArialMT-101"/>
      <path d="M 3.078125 15.484375 
L 11.765625 16.84375 
Q 12.5 11.625 15.84375 8.84375 
Q 19.1875 6.0625 25.203125 6.0625 
Q 31.25 6.0625 34.171875 8.515625 
Q 37.109375 10.984375 37.109375 14.3125 
Q 37.109375 17.28125 34.515625 19 
Q 32.71875 20.171875 25.53125 21.96875 
Q 15.875 24.421875 12.140625 26.203125 
Q 8.40625 27.984375 6.46875 31.125 
Q 4.546875 34.28125 4.546875 38.09375 
Q 4.546875 41.546875 6.125 44.5 
Q 7.71875 47.46875 10.453125 49.421875 
Q 12.5 50.921875 16.03125 51.96875 
Q 19.578125 53.03125 23.640625 53.03125 
Q 29.734375 53.03125 34.34375 51.265625 
Q 38.96875 49.515625 41.15625 46.5 
Q 43.359375 43.5 44.1875 38.484375 
L 35.59375 37.3125 
Q 35.015625 41.3125 32.203125 43.546875 
Q 29.390625 45.796875 24.265625 45.796875 
Q 18.21875 45.796875 15.625 43.796875 
Q 13.03125 41.796875 13.03125 39.109375 
Q 13.03125 37.40625 14.109375 36.03125 
Q 15.1875 34.625 17.484375 33.6875 
Q 18.796875 33.203125 25.25 31.453125 
Q 34.578125 28.953125 38.25 27.359375 
Q 41.9375 25.78125 44.03125 22.75 
Q 46.140625 19.734375 46.140625 15.234375 
Q 46.140625 10.84375 43.578125 6.953125 
Q 41.015625 3.078125 36.171875 0.953125 
Q 31.34375 -1.171875 25.25 -1.171875 
Q 15.140625 -1.171875 9.84375 3.03125 
Q 4.546875 7.234375 3.078125 15.484375 
z
" id="ArialMT-115"/>
     </defs>
     <g style="fill:#262626;" transform="translate(497.02875 680.798437)scale(0.24 -0.24)">
      <use xlink:href="#ArialMT-83"/>
      <use x="66.699219" xlink:href="#ArialMT-105"/>
      <use x="88.916016" xlink:href="#ArialMT-109"/>
      <use x="172.216797" xlink:href="#ArialMT-117"/>
      <use x="227.832031" xlink:href="#ArialMT-108"/>
      <use x="250.048828" xlink:href="#ArialMT-97"/>
      <use x="305.664062" xlink:href="#ArialMT-116"/>
      <use x="333.447266" xlink:href="#ArialMT-105"/>
      <use x="355.664062" xlink:href="#ArialMT-111"/>
      <use x="411.279297" xlink:href="#ArialMT-110"/>
      <use x="466.894531" xlink:href="#ArialMT-32"/>
      <use x="494.677734" xlink:href="#ArialMT-82"/>
      <use x="566.894531" xlink:href="#ArialMT-101"/>
      <use x="622.509766" xlink:href="#ArialMT-115"/>
      <use x="672.509766" xlink:href="#ArialMT-117"/>
      <use x="728.125" xlink:href="#ArialMT-108"/>
      <use x="750.341797" xlink:href="#ArialMT-116"/>
     </g>
    </g>
   </g>
   <g id="matplotlib.axis_2">
    <g id="ytick_1">
     <g id="line2d_8">
      <path clip-path="url(#p9abafeeb6b)" d="M 144 596.081527 
L 1036.8 596.081527 
" style="fill:none;stroke:#cccccc;stroke-linecap:round;"/>
     </g>
     <g id="text_9">
      <!-- 0.2 -->
      <defs>
       <path d="M 50.34375 8.453125 
L 50.34375 0 
L 3.03125 0 
Q 2.9375 3.171875 4.046875 6.109375 
Q 5.859375 10.9375 9.828125 15.625 
Q 13.8125 20.3125 21.34375 26.46875 
Q 33.015625 36.03125 37.109375 41.625 
Q 41.21875 47.21875 41.21875 52.203125 
Q 41.21875 57.421875 37.46875 61 
Q 33.734375 64.59375 27.734375 64.59375 
Q 21.390625 64.59375 17.578125 60.78125 
Q 13.765625 56.984375 13.71875 50.25 
L 4.6875 51.171875 
Q 5.609375 61.28125 11.65625 66.578125 
Q 17.71875 71.875 27.9375 71.875 
Q 38.234375 71.875 44.234375 66.15625 
Q 50.25 60.453125 50.25 52 
Q 50.25 47.703125 48.484375 43.546875 
Q 46.734375 39.40625 42.65625 34.8125 
Q 38.578125 30.21875 29.109375 22.21875 
Q 21.1875 15.578125 18.9375 13.203125 
Q 16.703125 10.84375 15.234375 8.453125 
z
" id="ArialMT-50"/>
      </defs>
      <g style="fill:#262626;" transform="translate(103.92 603.955121)scale(0.22 -0.22)">
       <use xlink:href="#ArialMT-48"/>
       <use x="55.615234" xlink:href="#ArialMT-46"/>
       <use x="83.398438" xlink:href="#ArialMT-50"/>
      </g>
     </g>
    </g>
    <g id="ytick_2">
     <g id="line2d_9">
      <path clip-path="url(#p9abafeeb6b)" d="M 144 519.695672 
L 1036.8 519.695672 
" style="fill:none;stroke:#cccccc;stroke-linecap:round;"/>
     </g>
     <g id="text_10">
      <!-- 0.3 -->
      <g style="fill:#262626;" transform="translate(103.92 527.569266)scale(0.22 -0.22)">
       <use xlink:href="#ArialMT-48"/>
       <use x="55.615234" xlink:href="#ArialMT-46"/>
       <use x="83.398438" xlink:href="#ArialMT-51"/>
      </g>
     </g>
    </g>
    <g id="ytick_3">
     <g id="line2d_10">
      <path clip-path="url(#p9abafeeb6b)" d="M 144 443.309817 
L 1036.8 443.309817 
" style="fill:none;stroke:#cccccc;stroke-linecap:round;"/>
     </g>
     <g id="text_11">
      <!-- 0.4 -->
      <g style="fill:#262626;" transform="translate(103.92 451.183411)scale(0.22 -0.22)">
       <use xlink:href="#ArialMT-48"/>
       <use x="55.615234" xlink:href="#ArialMT-46"/>
       <use x="83.398438" xlink:href="#ArialMT-52"/>
      </g>
     </g>
    </g>
    <g id="ytick_4">
     <g id="line2d_11">
      <path clip-path="url(#p9abafeeb6b)" d="M 144 366.923963 
L 1036.8 366.923963 
" style="fill:none;stroke:#cccccc;stroke-linecap:round;"/>
     </g>
     <g id="text_12">
      <!-- 0.5 -->
      <g style="fill:#262626;" transform="translate(103.92 374.797556)scale(0.22 -0.22)">
       <use xlink:href="#ArialMT-48"/>
       <use x="55.615234" xlink:href="#ArialMT-46"/>
       <use x="83.398438" xlink:href="#ArialMT-53"/>
      </g>
     </g>
    </g>
    <g id="ytick_5">
     <g id="line2d_12">
      <path clip-path="url(#p9abafeeb6b)" d="M 144 290.538108 
L 1036.8 290.538108 
" style="fill:none;stroke:#cccccc;stroke-linecap:round;"/>
     </g>
     <g id="text_13">
      <!-- 0.6 -->
      <g style="fill:#262626;" transform="translate(103.92 298.411701)scale(0.22 -0.22)">
       <use xlink:href="#ArialMT-48"/>
       <use x="55.615234" xlink:href="#ArialMT-46"/>
       <use x="83.398438" xlink:href="#ArialMT-54"/>
      </g>
     </g>
    </g>
    <g id="ytick_6">
     <g id="line2d_13">
      <path clip-path="url(#p9abafeeb6b)" d="M 144 214.152253 
L 1036.8 214.152253 
" style="fill:none;stroke:#cccccc;stroke-linecap:round;"/>
     </g>
     <g id="text_14">
      <!-- 0.7 -->
      <defs>
       <path d="M 4.734375 62.203125 
L 4.734375 70.65625 
L 51.078125 70.65625 
L 51.078125 63.8125 
Q 44.234375 56.546875 37.515625 44.484375 
Q 30.8125 32.421875 27.15625 19.671875 
Q 24.515625 10.6875 23.78125 0 
L 14.75 0 
Q 14.890625 8.453125 18.0625 20.40625 
Q 21.234375 32.375 27.171875 43.484375 
Q 33.109375 54.59375 39.796875 62.203125 
z
" id="ArialMT-55"/>
      </defs>
      <g style="fill:#262626;" transform="translate(103.92 222.025846)scale(0.22 -0.22)">
       <use xlink:href="#ArialMT-48"/>
       <use x="55.615234" xlink:href="#ArialMT-46"/>
       <use x="83.398438" xlink:href="#ArialMT-55"/>
      </g>
     </g>
    </g>
    <g id="ytick_7">
     <g id="line2d_14">
      <path clip-path="url(#p9abafeeb6b)" d="M 144 137.766398 
L 1036.8 137.766398 
" style="fill:none;stroke:#cccccc;stroke-linecap:round;"/>
     </g>
     <g id="text_15">
      <!-- 0.8 -->
      <defs>
       <path d="M 17.671875 38.8125 
Q 12.203125 40.828125 9.5625 44.53125 
Q 6.9375 48.25 6.9375 53.421875 
Q 6.9375 61.234375 12.546875 66.546875 
Q 18.171875 71.875 27.484375 71.875 
Q 36.859375 71.875 42.578125 66.421875 
Q 48.296875 60.984375 48.296875 53.171875 
Q 48.296875 48.1875 45.671875 44.5 
Q 43.0625 40.828125 37.75 38.8125 
Q 44.34375 36.671875 47.78125 31.875 
Q 51.21875 27.09375 51.21875 20.453125 
Q 51.21875 11.28125 44.71875 5.03125 
Q 38.234375 -1.21875 27.640625 -1.21875 
Q 17.046875 -1.21875 10.546875 5.046875 
Q 4.046875 11.328125 4.046875 20.703125 
Q 4.046875 27.6875 7.59375 32.390625 
Q 11.140625 37.109375 17.671875 38.8125 
z
M 15.921875 53.71875 
Q 15.921875 48.640625 19.1875 45.40625 
Q 22.46875 42.1875 27.6875 42.1875 
Q 32.765625 42.1875 36.015625 45.375 
Q 39.265625 48.578125 39.265625 53.21875 
Q 39.265625 58.0625 35.90625 61.359375 
Q 32.5625 64.65625 27.59375 64.65625 
Q 22.5625 64.65625 19.234375 61.421875 
Q 15.921875 58.203125 15.921875 53.71875 
z
M 13.09375 20.65625 
Q 13.09375 16.890625 14.875 13.375 
Q 16.65625 9.859375 20.171875 7.921875 
Q 23.6875 6 27.734375 6 
Q 34.03125 6 38.125 10.046875 
Q 42.234375 14.109375 42.234375 20.359375 
Q 42.234375 26.703125 38.015625 30.859375 
Q 33.796875 35.015625 27.4375 35.015625 
Q 21.234375 35.015625 17.15625 30.90625 
Q 13.09375 26.8125 13.09375 20.65625 
z
" id="ArialMT-56"/>
      </defs>
      <g style="fill:#262626;" transform="translate(103.92 145.639992)scale(0.22 -0.22)">
       <use xlink:href="#ArialMT-48"/>
       <use x="55.615234" xlink:href="#ArialMT-46"/>
       <use x="83.398438" xlink:href="#ArialMT-56"/>
      </g>
     </g>
    </g>
    <g id="text_16">
     <!-- Predicted -->
     <defs>
      <path d="M 7.71875 0 
L 7.71875 71.578125 
L 34.71875 71.578125 
Q 41.84375 71.578125 45.609375 70.90625 
Q 50.875 70.015625 54.4375 67.546875 
Q 58.015625 65.09375 60.1875 60.640625 
Q 62.359375 56.203125 62.359375 50.875 
Q 62.359375 41.75 56.546875 35.421875 
Q 50.734375 29.109375 35.546875 29.109375 
L 17.1875 29.109375 
L 17.1875 0 
z
M 17.1875 37.546875 
L 35.6875 37.546875 
Q 44.875 37.546875 48.734375 40.96875 
Q 52.59375 44.390625 52.59375 50.59375 
Q 52.59375 55.078125 50.3125 58.265625 
Q 48.046875 61.46875 44.34375 62.5 
Q 41.9375 63.140625 35.5 63.140625 
L 17.1875 63.140625 
z
" id="ArialMT-80"/>
      <path d="M 6.5 0 
L 6.5 51.859375 
L 14.40625 51.859375 
L 14.40625 44 
Q 17.4375 49.515625 20 51.265625 
Q 22.5625 53.03125 25.640625 53.03125 
Q 30.078125 53.03125 34.671875 50.203125 
L 31.640625 42.046875 
Q 28.421875 43.953125 25.203125 43.953125 
Q 22.3125 43.953125 20.015625 42.21875 
Q 17.71875 40.484375 16.75 37.40625 
Q 15.28125 32.71875 15.28125 27.15625 
L 15.28125 0 
z
" id="ArialMT-114"/>
      <path d="M 40.234375 0 
L 40.234375 6.546875 
Q 35.296875 -1.171875 25.734375 -1.171875 
Q 19.53125 -1.171875 14.328125 2.25 
Q 9.125 5.671875 6.265625 11.796875 
Q 3.421875 17.921875 3.421875 25.875 
Q 3.421875 33.640625 6 39.96875 
Q 8.59375 46.296875 13.765625 49.65625 
Q 18.953125 53.03125 25.34375 53.03125 
Q 30.03125 53.03125 33.6875 51.046875 
Q 37.359375 49.078125 39.65625 45.90625 
L 39.65625 71.578125 
L 48.390625 71.578125 
L 48.390625 0 
z
M 12.453125 25.875 
Q 12.453125 15.921875 16.640625 10.984375 
Q 20.84375 6.0625 26.5625 6.0625 
Q 32.328125 6.0625 36.34375 10.765625 
Q 40.375 15.484375 40.375 25.140625 
Q 40.375 35.796875 36.265625 40.765625 
Q 32.171875 45.75 26.171875 45.75 
Q 20.3125 45.75 16.375 40.96875 
Q 12.453125 36.1875 12.453125 25.875 
z
" id="ArialMT-100"/>
      <path d="M 40.4375 19 
L 49.078125 17.875 
Q 47.65625 8.9375 41.8125 3.875 
Q 35.984375 -1.171875 27.484375 -1.171875 
Q 16.84375 -1.171875 10.375 5.78125 
Q 3.90625 12.75 3.90625 25.734375 
Q 3.90625 34.125 6.6875 40.421875 
Q 9.46875 46.734375 15.15625 49.875 
Q 20.84375 53.03125 27.546875 53.03125 
Q 35.984375 53.03125 41.359375 48.75 
Q 46.734375 44.484375 48.25 36.625 
L 39.703125 35.296875 
Q 38.484375 40.53125 35.375 43.15625 
Q 32.28125 45.796875 27.875 45.796875 
Q 21.234375 45.796875 17.078125 41.03125 
Q 12.9375 36.28125 12.9375 25.984375 
Q 12.9375 15.53125 16.9375 10.796875 
Q 20.953125 6.0625 27.390625 6.0625 
Q 32.5625 6.0625 36.03125 9.234375 
Q 39.5 12.40625 40.4375 19 
z
" id="ArialMT-99"/>
     </defs>
     <g style="fill:#262626;" transform="translate(95.15 408.8925)rotate(-90)scale(0.24 -0.24)">
      <use xlink:href="#ArialMT-80"/>
      <use x="66.699219" xlink:href="#ArialMT-114"/>
      <use x="100" xlink:href="#ArialMT-101"/>
      <use x="155.615234" xlink:href="#ArialMT-100"/>
      <use x="211.230469" xlink:href="#ArialMT-105"/>
      <use x="233.447266" xlink:href="#ArialMT-99"/>
      <use x="283.447266" xlink:href="#ArialMT-116"/>
      <use x="311.230469" xlink:href="#ArialMT-101"/>
      <use x="366.845703" xlink:href="#ArialMT-100"/>
     </g>
    </g>
   </g>
   <g id="LineCollection_1">
    <path clip-path="url(#p9abafeeb6b)" d="M 176.756253 554.042992 
L 176.756253 428.376713 
" style="fill:none;stroke:#64b5cd;stroke-width:0.5;"/>
    <path clip-path="url(#p9abafeeb6b)" d="M 905.362074 323.811912 
L 905.362074 198.145632 
" style="fill:none;stroke:#64b5cd;stroke-width:0.5;"/>
    <path clip-path="url(#p9abafeeb6b)" d="M 331.862468 493.331155 
L 331.862468 367.664876 
" style="fill:none;stroke:#64b5cd;stroke-width:0.5;"/>
    <path clip-path="url(#p9abafeeb6b)" d="M 216.879809 534.757836 
L 216.879809 409.091557 
" style="fill:none;stroke:#64b5cd;stroke-width:0.5;"/>
    <path clip-path="url(#p9abafeeb6b)" d="M 188.151487 522.260467 
L 188.151487 396.594188 
" style="fill:none;stroke:#64b5cd;stroke-width:0.5;"/>
    <path clip-path="url(#p9abafeeb6b)" d="M 919.275599 314.62245 
L 919.275599 188.956171 
" style="fill:none;stroke:#64b5cd;stroke-width:0.5;"/>
    <path clip-path="url(#p9abafeeb6b)" d="M 916.96507 322.775184 
L 916.96507 197.108904 
" style="fill:none;stroke:#64b5cd;stroke-width:0.5;"/>
    <path clip-path="url(#p9abafeeb6b)" d="M 922.752374 352.606564 
L 922.752374 226.940285 
" style="fill:none;stroke:#64b5cd;stroke-width:0.5;"/>
    <path clip-path="url(#p9abafeeb6b)" d="M 183.738405 539.479789 
L 183.738405 413.81351 
" style="fill:none;stroke:#64b5cd;stroke-width:0.5;"/>
    <path clip-path="url(#p9abafeeb6b)" d="M 921.024269 343.790565 
L 921.024269 218.124286 
" style="fill:none;stroke:#64b5cd;stroke-width:0.5;"/>
    <path clip-path="url(#p9abafeeb6b)" d="M 907.902477 320.987683 
L 907.902477 195.321404 
" style="fill:none;stroke:#64b5cd;stroke-width:0.5;"/>
    <path clip-path="url(#p9abafeeb6b)" d="M 945.090958 327.839893 
L 945.090958 202.173613 
" style="fill:none;stroke:#64b5cd;stroke-width:0.5;"/>
    <path clip-path="url(#p9abafeeb6b)" d="M 769.083976 404.941668 
L 769.083976 279.275389 
" style="fill:none;stroke:#64b5cd;stroke-width:0.5;"/>
    <path clip-path="url(#p9abafeeb6b)" d="M 294.261182 479.63157 
L 294.261182 353.96529 
" style="fill:none;stroke:#64b5cd;stroke-width:0.5;"/>
    <path clip-path="url(#p9abafeeb6b)" d="M 183.135385 493.700465 
L 183.135385 368.034186 
" style="fill:none;stroke:#64b5cd;stroke-width:0.5;"/>
    <path clip-path="url(#p9abafeeb6b)" d="M 923.226193 334.992653 
L 923.226193 209.326374 
" style="fill:none;stroke:#64b5cd;stroke-width:0.5;"/>
    <path clip-path="url(#p9abafeeb6b)" d="M 871.9192 349.077016 
L 871.9192 223.410736 
" style="fill:none;stroke:#64b5cd;stroke-width:0.5;"/>
    <path clip-path="url(#p9abafeeb6b)" d="M 894.007144 337.984956 
L 894.007144 212.318676 
" style="fill:none;stroke:#64b5cd;stroke-width:0.5;"/>
    <path clip-path="url(#p9abafeeb6b)" d="M 171.43081 542.106593 
L 171.43081 416.440314 
" style="fill:none;stroke:#64b5cd;stroke-width:0.5;"/>
    <path clip-path="url(#p9abafeeb6b)" d="M 923.768737 319.72343 
L 923.768737 194.05715 
" style="fill:none;stroke:#64b5cd;stroke-width:0.5;"/>
    <path clip-path="url(#p9abafeeb6b)" d="M 879.812981 344.500697 
L 879.812981 218.834418 
" style="fill:none;stroke:#64b5cd;stroke-width:0.5;"/>
    <path clip-path="url(#p9abafeeb6b)" d="M 890.556079 380.12681 
L 890.556079 254.460531 
" style="fill:none;stroke:#64b5cd;stroke-width:0.5;"/>
    <path clip-path="url(#p9abafeeb6b)" d="M 922.938288 319.652964 
L 922.938288 193.986685 
" style="fill:none;stroke:#64b5cd;stroke-width:0.5;"/>
    <path clip-path="url(#p9abafeeb6b)" d="M 156.832636 588.433457 
L 156.832636 462.767178 
" style="fill:none;stroke:#64b5cd;stroke-width:0.5;"/>
    <path clip-path="url(#p9abafeeb6b)" d="M 180.225558 523.141581 
L 180.225558 397.475302 
" style="fill:none;stroke:#64b5cd;stroke-width:0.5;"/>
    <path clip-path="url(#p9abafeeb6b)" d="M 174.851606 537.774708 
L 174.851606 412.108428 
" style="fill:none;stroke:#64b5cd;stroke-width:0.5;"/>
    <path clip-path="url(#p9abafeeb6b)" d="M 204.187074 549.920268 
L 204.187074 424.253989 
" style="fill:none;stroke:#64b5cd;stroke-width:0.5;"/>
    <path clip-path="url(#p9abafeeb6b)" d="M 899.567698 295.979678 
L 899.567698 170.313399 
" style="fill:none;stroke:#64b5cd;stroke-width:0.5;"/>
    <path clip-path="url(#p9abafeeb6b)" d="M 904.981091 285.247527 
L 904.981091 159.581247 
" style="fill:none;stroke:#64b5cd;stroke-width:0.5;"/>
    <path clip-path="url(#p9abafeeb6b)" d="M 359.634133 475.37365 
L 359.634133 349.707371 
" style="fill:none;stroke:#64b5cd;stroke-width:0.5;"/>
    <path clip-path="url(#p9abafeeb6b)" d="M 918.406262 314.330947 
L 918.406262 188.664668 
" style="fill:none;stroke:#64b5cd;stroke-width:0.5;"/>
    <path clip-path="url(#p9abafeeb6b)" d="M 175.196789 503.272263 
L 175.196789 377.605984 
" style="fill:none;stroke:#64b5cd;stroke-width:0.5;"/>
    <path clip-path="url(#p9abafeeb6b)" d="M 190.115627 540.956857 
L 190.115627 415.290577 
" style="fill:none;stroke:#64b5cd;stroke-width:0.5;"/>
    <path clip-path="url(#p9abafeeb6b)" d="M 174.103312 513.92821 
L 174.103312 388.261931 
" style="fill:none;stroke:#64b5cd;stroke-width:0.5;"/>
    <path clip-path="url(#p9abafeeb6b)" d="M 194.862106 498.459191 
L 194.862106 372.792911 
" style="fill:none;stroke:#64b5cd;stroke-width:0.5;"/>
    <path clip-path="url(#p9abafeeb6b)" d="M 177.894055 497.18518 
L 177.894055 371.518901 
" style="fill:none;stroke:#64b5cd;stroke-width:0.5;"/>
    <path clip-path="url(#p9abafeeb6b)" d="M 916.338843 302.993872 
L 916.338843 177.327593 
" style="fill:none;stroke:#64b5cd;stroke-width:0.5;"/>
    <path clip-path="url(#p9abafeeb6b)" d="M 927.354201 307.859259 
L 927.354201 182.19298 
" style="fill:none;stroke:#64b5cd;stroke-width:0.5;"/>
    <path clip-path="url(#p9abafeeb6b)" d="M 587.8236 429.897155 
L 587.8236 304.230876 
" style="fill:none;stroke:#64b5cd;stroke-width:0.5;"/>
    <path clip-path="url(#p9abafeeb6b)" d="M 226.300536 507.981361 
L 226.300536 382.315082 
" style="fill:none;stroke:#64b5cd;stroke-width:0.5;"/>
    <path clip-path="url(#p9abafeeb6b)" d="M 228.742052 535.466511 
L 228.742052 409.800232 
" style="fill:none;stroke:#64b5cd;stroke-width:0.5;"/>
    <path clip-path="url(#p9abafeeb6b)" d="M 913.471606 314.971244 
L 913.471606 189.304965 
" style="fill:none;stroke:#64b5cd;stroke-width:0.5;"/>
    <path clip-path="url(#p9abafeeb6b)" d="M 170.316375 565.995749 
L 170.316375 440.329469 
" style="fill:none;stroke:#64b5cd;stroke-width:0.5;"/>
    <path clip-path="url(#p9abafeeb6b)" d="M 907.436171 292.212106 
L 907.436171 166.545827 
" style="fill:none;stroke:#64b5cd;stroke-width:0.5;"/>
    <path clip-path="url(#p9abafeeb6b)" d="M 931.292709 312.739201 
L 931.292709 187.072922 
" style="fill:none;stroke:#64b5cd;stroke-width:0.5;"/>
    <path clip-path="url(#p9abafeeb6b)" d="M 879.123272 339.607658 
L 879.123272 213.941379 
" style="fill:none;stroke:#64b5cd;stroke-width:0.5;"/>
    <path clip-path="url(#p9abafeeb6b)" d="M 871.302318 311.797073 
L 871.302318 186.130794 
" style="fill:none;stroke:#64b5cd;stroke-width:0.5;"/>
    <path clip-path="url(#p9abafeeb6b)" d="M 144 532.636335 
L 144 406.970056 
" style="fill:none;stroke:#64b5cd;stroke-width:0.5;"/>
    <path clip-path="url(#p9abafeeb6b)" d="M 186.088624 504.518255 
L 186.088624 378.851975 
" style="fill:none;stroke:#64b5cd;stroke-width:0.5;"/>
    <path clip-path="url(#p9abafeeb6b)" d="M 754.946019 377.690824 
L 754.946019 252.024545 
" style="fill:none;stroke:#64b5cd;stroke-width:0.5;"/>
    <path clip-path="url(#p9abafeeb6b)" d="M 828.999772 350.400867 
L 828.999772 224.734588 
" style="fill:none;stroke:#64b5cd;stroke-width:0.5;"/>
    <path clip-path="url(#p9abafeeb6b)" d="M 191.145956 533.808497 
L 191.145956 408.142218 
" style="fill:none;stroke:#64b5cd;stroke-width:0.5;"/>
    <path clip-path="url(#p9abafeeb6b)" d="M 921.336614 291.206696 
L 921.336614 165.540416 
" style="fill:none;stroke:#64b5cd;stroke-width:0.5;"/>
    <path clip-path="url(#p9abafeeb6b)" d="M 906.586628 311.424969 
L 906.586628 185.758689 
" style="fill:none;stroke:#64b5cd;stroke-width:0.5;"/>
    <path clip-path="url(#p9abafeeb6b)" d="M 1001.039685 314.502375 
L 1001.039685 188.836096 
" style="fill:none;stroke:#64b5cd;stroke-width:0.5;"/>
    <path clip-path="url(#p9abafeeb6b)" d="M 915.185372 316.166833 
L 915.185372 190.500554 
" style="fill:none;stroke:#64b5cd;stroke-width:0.5;"/>
    <path clip-path="url(#p9abafeeb6b)" d="M 190.046397 562.638171 
L 190.046397 436.971891 
" style="fill:none;stroke:#64b5cd;stroke-width:0.5;"/>
    <path clip-path="url(#p9abafeeb6b)" d="M 875.027675 355.7487 
L 875.027675 230.082421 
" style="fill:none;stroke:#64b5cd;stroke-width:0.5;"/>
    <path clip-path="url(#p9abafeeb6b)" d="M 209.263398 563.231635 
L 209.263398 437.565356 
" style="fill:none;stroke:#64b5cd;stroke-width:0.5;"/>
    <path clip-path="url(#p9abafeeb6b)" d="M 853.727942 384.88568 
L 853.727942 259.219401 
" style="fill:none;stroke:#64b5cd;stroke-width:0.5;"/>
    <path clip-path="url(#p9abafeeb6b)" d="M 430.176484 418.956074 
L 430.176484 293.289795 
" style="fill:none;stroke:#64b5cd;stroke-width:0.5;"/>
    <path clip-path="url(#p9abafeeb6b)" d="M 929.070054 312.463212 
L 929.070054 186.796932 
" style="fill:none;stroke:#64b5cd;stroke-width:0.5;"/>
    <path clip-path="url(#p9abafeeb6b)" d="M 179.084854 534.798002 
L 179.084854 409.131722 
" style="fill:none;stroke:#64b5cd;stroke-width:0.5;"/>
    <path clip-path="url(#p9abafeeb6b)" d="M 188.131541 551.487697 
L 188.131541 425.821418 
" style="fill:none;stroke:#64b5cd;stroke-width:0.5;"/>
    <path clip-path="url(#p9abafeeb6b)" d="M 919.284168 327.441514 
L 919.284168 201.775234 
" style="fill:none;stroke:#64b5cd;stroke-width:0.5;"/>
    <path clip-path="url(#p9abafeeb6b)" d="M 185.15944 558.528955 
L 185.15944 432.862675 
" style="fill:none;stroke:#64b5cd;stroke-width:0.5;"/>
    <path clip-path="url(#p9abafeeb6b)" d="M 897.143908 311.983378 
L 897.143908 186.317099 
" style="fill:none;stroke:#64b5cd;stroke-width:0.5;"/>
    <path clip-path="url(#p9abafeeb6b)" d="M 828.055702 383.595015 
L 828.055702 257.928736 
" style="fill:none;stroke:#64b5cd;stroke-width:0.5;"/>
    <path clip-path="url(#p9abafeeb6b)" d="M 224.630993 484.905219 
L 224.630993 359.23894 
" style="fill:none;stroke:#64b5cd;stroke-width:0.5;"/>
    <path clip-path="url(#p9abafeeb6b)" d="M 676.12211 403.366382 
L 676.12211 277.700103 
" style="fill:none;stroke:#64b5cd;stroke-width:0.5;"/>
    <path clip-path="url(#p9abafeeb6b)" d="M 207.376834 521.748109 
L 207.376834 396.08183 
" style="fill:none;stroke:#64b5cd;stroke-width:0.5;"/>
    <path clip-path="url(#p9abafeeb6b)" d="M 917.530758 350.657473 
L 917.530758 224.991194 
" style="fill:none;stroke:#64b5cd;stroke-width:0.5;"/>
    <path clip-path="url(#p9abafeeb6b)" d="M 200.112492 562.280109 
L 200.112492 436.61383 
" style="fill:none;stroke:#64b5cd;stroke-width:0.5;"/>
    <path clip-path="url(#p9abafeeb6b)" d="M 204.725476 516.734968 
L 204.725476 391.068689 
" style="fill:none;stroke:#64b5cd;stroke-width:0.5;"/>
    <path clip-path="url(#p9abafeeb6b)" d="M 1036.8 253.538297 
L 1036.8 127.872018 
" style="fill:none;stroke:#64b5cd;stroke-width:0.5;"/>
    <path clip-path="url(#p9abafeeb6b)" d="M 913.269508 347.533217 
L 913.269508 221.866938 
" style="fill:none;stroke:#64b5cd;stroke-width:0.5;"/>
    <path clip-path="url(#p9abafeeb6b)" d="M 192.270805 519.611767 
L 192.270805 393.945487 
" style="fill:none;stroke:#64b5cd;stroke-width:0.5;"/>
    <path clip-path="url(#p9abafeeb6b)" d="M 898.875047 295.057367 
L 898.875047 169.391088 
" style="fill:none;stroke:#64b5cd;stroke-width:0.5;"/>
    <path clip-path="url(#p9abafeeb6b)" d="M 173.377672 541.061539 
L 173.377672 415.39526 
" style="fill:none;stroke:#64b5cd;stroke-width:0.5;"/>
    <path clip-path="url(#p9abafeeb6b)" d="M 900.342743 308.851882 
L 900.342743 183.185602 
" style="fill:none;stroke:#64b5cd;stroke-width:0.5;"/>
    <path clip-path="url(#p9abafeeb6b)" d="M 926.306392 322.011122 
L 926.306392 196.344842 
" style="fill:none;stroke:#64b5cd;stroke-width:0.5;"/>
    <path clip-path="url(#p9abafeeb6b)" d="M 905.682656 346.088222 
L 905.682656 220.421943 
" style="fill:none;stroke:#64b5cd;stroke-width:0.5;"/>
    <path clip-path="url(#p9abafeeb6b)" d="M 181.149925 528.035401 
L 181.149925 402.369122 
" style="fill:none;stroke:#64b5cd;stroke-width:0.5;"/>
    <path clip-path="url(#p9abafeeb6b)" d="M 162.877248 543.605141 
L 162.877248 417.938862 
" style="fill:none;stroke:#64b5cd;stroke-width:0.5;"/>
    <path clip-path="url(#p9abafeeb6b)" d="M 251.666967 502.121443 
L 251.666967 376.455163 
" style="fill:none;stroke:#64b5cd;stroke-width:0.5;"/>
    <path clip-path="url(#p9abafeeb6b)" d="M 896.95304 331.798764 
L 896.95304 206.132485 
" style="fill:none;stroke:#64b5cd;stroke-width:0.5;"/>
    <path clip-path="url(#p9abafeeb6b)" d="M 920.540556 297.597618 
L 920.540556 171.931338 
" style="fill:none;stroke:#64b5cd;stroke-width:0.5;"/>
    <path clip-path="url(#p9abafeeb6b)" d="M 905.029301 300.493392 
L 905.029301 174.827112 
" style="fill:none;stroke:#64b5cd;stroke-width:0.5;"/>
    <path clip-path="url(#p9abafeeb6b)" d="M 175.046644 534.360405 
L 175.046644 408.694125 
" style="fill:none;stroke:#64b5cd;stroke-width:0.5;"/>
    <path clip-path="url(#p9abafeeb6b)" d="M 184.746877 581.717398 
L 184.746877 456.051119 
" style="fill:none;stroke:#64b5cd;stroke-width:0.5;"/>
    <path clip-path="url(#p9abafeeb6b)" d="M 206.450009 520.635727 
L 206.450009 394.969447 
" style="fill:none;stroke:#64b5cd;stroke-width:0.5;"/>
    <path clip-path="url(#p9abafeeb6b)" d="M 918.334231 362.47437 
L 918.334231 236.80809 
" style="fill:none;stroke:#64b5cd;stroke-width:0.5;"/>
    <path clip-path="url(#p9abafeeb6b)" d="M 913.329385 308.307959 
L 913.329385 182.641679 
" style="fill:none;stroke:#64b5cd;stroke-width:0.5;"/>
    <path clip-path="url(#p9abafeeb6b)" d="M 948.101884 324.939361 
L 948.101884 199.273082 
" style="fill:none;stroke:#64b5cd;stroke-width:0.5;"/>
    <path clip-path="url(#p9abafeeb6b)" d="M 682.066314 403.872831 
L 682.066314 278.206551 
" style="fill:none;stroke:#64b5cd;stroke-width:0.5;"/>
    <path clip-path="url(#p9abafeeb6b)" d="M 530.582014 458.810126 
L 530.582014 333.143847 
" style="fill:none;stroke:#64b5cd;stroke-width:0.5;"/>
   </g>
   <g id="LineCollection_2">
    <path clip-path="url(#p9abafeeb6b)" d="M 922.905868 288.987415 
L 922.905868 158.136028 
" style="fill:none;stroke:#8172b3;stroke-width:0.5;"/>
    <path clip-path="url(#p9abafeeb6b)" d="M 936.43285 443.78596 
L 936.43285 312.934573 
" style="fill:none;stroke:#8172b3;stroke-width:0.5;"/>
    <path clip-path="url(#p9abafeeb6b)" d="M 209.503296 479.699378 
L 209.503296 348.847991 
" style="fill:none;stroke:#8172b3;stroke-width:0.5;"/>
    <path clip-path="url(#p9abafeeb6b)" d="M 191.539194 457.80207 
L 191.539194 326.950683 
" style="fill:none;stroke:#8172b3;stroke-width:0.5;"/>
    <path clip-path="url(#p9abafeeb6b)" d="M 157.208183 521.33204 
L 157.208183 390.480653 
" style="fill:none;stroke:#8172b3;stroke-width:0.5;"/>
    <path clip-path="url(#p9abafeeb6b)" d="M 171.178994 538.087908 
L 171.178994 407.236521 
" style="fill:none;stroke:#8172b3;stroke-width:0.5;"/>
    <path clip-path="url(#p9abafeeb6b)" d="M 170.962106 560.016142 
L 170.962106 429.164755 
" style="fill:none;stroke:#8172b3;stroke-width:0.5;"/>
    <path clip-path="url(#p9abafeeb6b)" d="M 170.848685 605.290909 
L 170.848685 474.439522 
" style="fill:none;stroke:#8172b3;stroke-width:0.5;"/>
    <path clip-path="url(#p9abafeeb6b)" d="M 188.488133 550.133074 
L 188.488133 419.281687 
" style="fill:none;stroke:#8172b3;stroke-width:0.5;"/>
    <path clip-path="url(#p9abafeeb6b)" d="M 179.845452 580.375595 
L 179.845452 449.524208 
" style="fill:none;stroke:#8172b3;stroke-width:0.5;"/>
    <path clip-path="url(#p9abafeeb6b)" d="M 208.231795 539.41788 
L 208.231795 408.566494 
" style="fill:none;stroke:#8172b3;stroke-width:0.5;"/>
    <path clip-path="url(#p9abafeeb6b)" d="M 927.406582 335.25394 
L 927.406582 204.402553 
" style="fill:none;stroke:#8172b3;stroke-width:0.5;"/>
    <path clip-path="url(#p9abafeeb6b)" d="M 187.519496 496.977187 
L 187.519496 366.1258 
" style="fill:none;stroke:#8172b3;stroke-width:0.5;"/>
    <path clip-path="url(#p9abafeeb6b)" d="M 932.692148 340.860752 
L 932.692148 210.009366 
" style="fill:none;stroke:#8172b3;stroke-width:0.5;"/>
    <path clip-path="url(#p9abafeeb6b)" d="M 213.723812 512.548654 
L 213.723812 381.697267 
" style="fill:none;stroke:#8172b3;stroke-width:0.5;"/>
    <path clip-path="url(#p9abafeeb6b)" d="M 812.486997 427.345106 
L 812.486997 296.49372 
" style="fill:none;stroke:#8172b3;stroke-width:0.5;"/>
    <path clip-path="url(#p9abafeeb6b)" d="M 887.976572 409.425633 
L 887.976572 278.574246 
" style="fill:none;stroke:#8172b3;stroke-width:0.5;"/>
    <path clip-path="url(#p9abafeeb6b)" d="M 184.503311 572.691039 
L 184.503311 441.839652 
" style="fill:none;stroke:#8172b3;stroke-width:0.5;"/>
    <path clip-path="url(#p9abafeeb6b)" d="M 803.796236 345.162692 
L 803.796236 214.311305 
" style="fill:none;stroke:#8172b3;stroke-width:0.5;"/>
    <path clip-path="url(#p9abafeeb6b)" d="M 308.109833 475.451127 
L 308.109833 344.59974 
" style="fill:none;stroke:#8172b3;stroke-width:0.5;"/>
    <path clip-path="url(#p9abafeeb6b)" d="M 445.566492 464.646776 
L 445.566492 333.795389 
" style="fill:none;stroke:#8172b3;stroke-width:0.5;"/>
    <path clip-path="url(#p9abafeeb6b)" d="M 179.490582 530.270984 
L 179.490582 399.419597 
" style="fill:none;stroke:#8172b3;stroke-width:0.5;"/>
    <path clip-path="url(#p9abafeeb6b)" d="M 916.771895 241.960478 
L 916.771895 111.109091 
" style="fill:none;stroke:#8172b3;stroke-width:0.5;"/>
    <path clip-path="url(#p9abafeeb6b)" d="M 924.4948 245.599658 
L 924.4948 114.748271 
" style="fill:none;stroke:#8172b3;stroke-width:0.5;"/>
    <path clip-path="url(#p9abafeeb6b)" d="M 767.91184 466.411857 
L 767.91184 335.560471 
" style="fill:none;stroke:#8172b3;stroke-width:0.5;"/>
    <path clip-path="url(#p9abafeeb6b)" d="M 890.203671 310.984998 
L 890.203671 180.133611 
" style="fill:none;stroke:#8172b3;stroke-width:0.5;"/>
    <path clip-path="url(#p9abafeeb6b)" d="M 910.133112 331.944291 
L 910.133112 201.092904 
" style="fill:none;stroke:#8172b3;stroke-width:0.5;"/>
    <path clip-path="url(#p9abafeeb6b)" d="M 907.741335 385.16231 
L 907.741335 254.310924 
" style="fill:none;stroke:#8172b3;stroke-width:0.5;"/>
    <path clip-path="url(#p9abafeeb6b)" d="M 330.644305 573.119915 
L 330.644305 442.268528 
" style="fill:none;stroke:#8172b3;stroke-width:0.5;"/>
    <path clip-path="url(#p9abafeeb6b)" d="M 879.041049 273.538149 
L 879.041049 142.686762 
" style="fill:none;stroke:#8172b3;stroke-width:0.5;"/>
    <path clip-path="url(#p9abafeeb6b)" d="M 186.966998 575.846411 
L 186.966998 444.995024 
" style="fill:none;stroke:#8172b3;stroke-width:0.5;"/>
    <path clip-path="url(#p9abafeeb6b)" d="M 621.639598 446.727475 
L 621.639598 315.876088 
" style="fill:none;stroke:#8172b3;stroke-width:0.5;"/>
   </g>
   <g id="line2d_15">
    <path clip-path="url(#p9abafeeb6b)" d="M 144 492.525667 
L 1036.8 216.415535 
" style="fill:none;stroke:#c44e52;stroke-linecap:round;stroke-width:1.5;"/>
   </g>
   <g id="line2d_16">
    <defs>
     <path d="M 0 3 
C 0.795609 3 1.55874 2.683901 2.12132 2.12132 
C 2.683901 1.55874 3 0.795609 3 0 
C 3 -0.795609 2.683901 -1.55874 2.12132 -2.12132 
C 1.55874 -2.683901 0.795609 -3 0 -3 
C -0.795609 -3 -1.55874 -2.683901 -2.12132 -2.12132 
C -2.683901 -1.55874 -3 -0.795609 -3 0 
C -3 0.795609 -2.683901 1.55874 -2.12132 2.12132 
C -1.55874 2.683901 -0.795609 3 0 3 
z
" id="m0a9e05b143" style="stroke:#64b5cd;"/>
    </defs>
    <g clip-path="url(#p9abafeeb6b)">
     <use style="fill:#64b5cd;stroke:#64b5cd;" x="176.756253" xlink:href="#m0a9e05b143" y="491.209852"/>
     <use style="fill:#64b5cd;stroke:#64b5cd;" x="905.362074" xlink:href="#m0a9e05b143" y="260.978772"/>
     <use style="fill:#64b5cd;stroke:#64b5cd;" x="331.862468" xlink:href="#m0a9e05b143" y="430.498016"/>
     <use style="fill:#64b5cd;stroke:#64b5cd;" x="216.879809" xlink:href="#m0a9e05b143" y="471.924697"/>
     <use style="fill:#64b5cd;stroke:#64b5cd;" x="188.151487" xlink:href="#m0a9e05b143" y="459.427327"/>
     <use style="fill:#64b5cd;stroke:#64b5cd;" x="919.275599" xlink:href="#m0a9e05b143" y="251.789311"/>
     <use style="fill:#64b5cd;stroke:#64b5cd;" x="916.96507" xlink:href="#m0a9e05b143" y="259.942044"/>
     <use style="fill:#64b5cd;stroke:#64b5cd;" x="922.752374" xlink:href="#m0a9e05b143" y="289.773424"/>
     <use style="fill:#64b5cd;stroke:#64b5cd;" x="183.738405" xlink:href="#m0a9e05b143" y="476.64665"/>
     <use style="fill:#64b5cd;stroke:#64b5cd;" x="921.024269" xlink:href="#m0a9e05b143" y="280.957425"/>
     <use style="fill:#64b5cd;stroke:#64b5cd;" x="907.902477" xlink:href="#m0a9e05b143" y="258.154543"/>
     <use style="fill:#64b5cd;stroke:#64b5cd;" x="945.090958" xlink:href="#m0a9e05b143" y="265.006753"/>
     <use style="fill:#64b5cd;stroke:#64b5cd;" x="769.083976" xlink:href="#m0a9e05b143" y="342.108528"/>
     <use style="fill:#64b5cd;stroke:#64b5cd;" x="294.261182" xlink:href="#m0a9e05b143" y="416.79843"/>
     <use style="fill:#64b5cd;stroke:#64b5cd;" x="183.135385" xlink:href="#m0a9e05b143" y="430.867326"/>
     <use style="fill:#64b5cd;stroke:#64b5cd;" x="923.226193" xlink:href="#m0a9e05b143" y="272.159514"/>
     <use style="fill:#64b5cd;stroke:#64b5cd;" x="871.9192" xlink:href="#m0a9e05b143" y="286.243876"/>
     <use style="fill:#64b5cd;stroke:#64b5cd;" x="894.007144" xlink:href="#m0a9e05b143" y="275.151816"/>
     <use style="fill:#64b5cd;stroke:#64b5cd;" x="171.43081" xlink:href="#m0a9e05b143" y="479.273453"/>
     <use style="fill:#64b5cd;stroke:#64b5cd;" x="923.768737" xlink:href="#m0a9e05b143" y="256.89029"/>
     <use style="fill:#64b5cd;stroke:#64b5cd;" x="879.812981" xlink:href="#m0a9e05b143" y="281.667558"/>
     <use style="fill:#64b5cd;stroke:#64b5cd;" x="890.556079" xlink:href="#m0a9e05b143" y="317.293671"/>
     <use style="fill:#64b5cd;stroke:#64b5cd;" x="922.938288" xlink:href="#m0a9e05b143" y="256.819824"/>
     <use style="fill:#64b5cd;stroke:#64b5cd;" x="156.832636" xlink:href="#m0a9e05b143" y="525.600318"/>
     <use style="fill:#64b5cd;stroke:#64b5cd;" x="180.225558" xlink:href="#m0a9e05b143" y="460.308442"/>
     <use style="fill:#64b5cd;stroke:#64b5cd;" x="174.851606" xlink:href="#m0a9e05b143" y="474.941568"/>
     <use style="fill:#64b5cd;stroke:#64b5cd;" x="204.187074" xlink:href="#m0a9e05b143" y="487.087128"/>
     <use style="fill:#64b5cd;stroke:#64b5cd;" x="899.567698" xlink:href="#m0a9e05b143" y="233.146538"/>
     <use style="fill:#64b5cd;stroke:#64b5cd;" x="904.981091" xlink:href="#m0a9e05b143" y="222.414387"/>
     <use style="fill:#64b5cd;stroke:#64b5cd;" x="359.634133" xlink:href="#m0a9e05b143" y="412.540511"/>
     <use style="fill:#64b5cd;stroke:#64b5cd;" x="918.406262" xlink:href="#m0a9e05b143" y="251.497808"/>
     <use style="fill:#64b5cd;stroke:#64b5cd;" x="175.196789" xlink:href="#m0a9e05b143" y="440.439123"/>
     <use style="fill:#64b5cd;stroke:#64b5cd;" x="190.115627" xlink:href="#m0a9e05b143" y="478.123717"/>
     <use style="fill:#64b5cd;stroke:#64b5cd;" x="174.103312" xlink:href="#m0a9e05b143" y="451.095071"/>
     <use style="fill:#64b5cd;stroke:#64b5cd;" x="194.862106" xlink:href="#m0a9e05b143" y="435.626051"/>
     <use style="fill:#64b5cd;stroke:#64b5cd;" x="177.894055" xlink:href="#m0a9e05b143" y="434.35204"/>
     <use style="fill:#64b5cd;stroke:#64b5cd;" x="916.338843" xlink:href="#m0a9e05b143" y="240.160733"/>
     <use style="fill:#64b5cd;stroke:#64b5cd;" x="927.354201" xlink:href="#m0a9e05b143" y="245.02612"/>
     <use style="fill:#64b5cd;stroke:#64b5cd;" x="587.8236" xlink:href="#m0a9e05b143" y="367.064016"/>
     <use style="fill:#64b5cd;stroke:#64b5cd;" x="226.300536" xlink:href="#m0a9e05b143" y="445.148221"/>
     <use style="fill:#64b5cd;stroke:#64b5cd;" x="228.742052" xlink:href="#m0a9e05b143" y="472.633372"/>
     <use style="fill:#64b5cd;stroke:#64b5cd;" x="913.471606" xlink:href="#m0a9e05b143" y="252.138104"/>
     <use style="fill:#64b5cd;stroke:#64b5cd;" x="170.316375" xlink:href="#m0a9e05b143" y="503.162609"/>
     <use style="fill:#64b5cd;stroke:#64b5cd;" x="907.436171" xlink:href="#m0a9e05b143" y="229.378967"/>
     <use style="fill:#64b5cd;stroke:#64b5cd;" x="931.292709" xlink:href="#m0a9e05b143" y="249.906062"/>
     <use style="fill:#64b5cd;stroke:#64b5cd;" x="879.123272" xlink:href="#m0a9e05b143" y="276.774519"/>
     <use style="fill:#64b5cd;stroke:#64b5cd;" x="871.302318" xlink:href="#m0a9e05b143" y="248.963934"/>
     <use style="fill:#64b5cd;stroke:#64b5cd;" x="144" xlink:href="#m0a9e05b143" y="469.803196"/>
     <use style="fill:#64b5cd;stroke:#64b5cd;" x="186.088624" xlink:href="#m0a9e05b143" y="441.685115"/>
     <use style="fill:#64b5cd;stroke:#64b5cd;" x="754.946019" xlink:href="#m0a9e05b143" y="314.857685"/>
     <use style="fill:#64b5cd;stroke:#64b5cd;" x="828.999772" xlink:href="#m0a9e05b143" y="287.567728"/>
     <use style="fill:#64b5cd;stroke:#64b5cd;" x="191.145956" xlink:href="#m0a9e05b143" y="470.975358"/>
     <use style="fill:#64b5cd;stroke:#64b5cd;" x="921.336614" xlink:href="#m0a9e05b143" y="228.373556"/>
     <use style="fill:#64b5cd;stroke:#64b5cd;" x="906.586628" xlink:href="#m0a9e05b143" y="248.591829"/>
     <use style="fill:#64b5cd;stroke:#64b5cd;" x="1001.039685" xlink:href="#m0a9e05b143" y="251.669235"/>
     <use style="fill:#64b5cd;stroke:#64b5cd;" x="915.185372" xlink:href="#m0a9e05b143" y="253.333694"/>
     <use style="fill:#64b5cd;stroke:#64b5cd;" x="190.046397" xlink:href="#m0a9e05b143" y="499.805031"/>
     <use style="fill:#64b5cd;stroke:#64b5cd;" x="875.027675" xlink:href="#m0a9e05b143" y="292.91556"/>
     <use style="fill:#64b5cd;stroke:#64b5cd;" x="209.263398" xlink:href="#m0a9e05b143" y="500.398496"/>
     <use style="fill:#64b5cd;stroke:#64b5cd;" x="853.727942" xlink:href="#m0a9e05b143" y="322.05254"/>
     <use style="fill:#64b5cd;stroke:#64b5cd;" x="430.176484" xlink:href="#m0a9e05b143" y="356.122935"/>
     <use style="fill:#64b5cd;stroke:#64b5cd;" x="929.070054" xlink:href="#m0a9e05b143" y="249.630072"/>
     <use style="fill:#64b5cd;stroke:#64b5cd;" x="179.084854" xlink:href="#m0a9e05b143" y="471.964862"/>
     <use style="fill:#64b5cd;stroke:#64b5cd;" x="188.131541" xlink:href="#m0a9e05b143" y="488.654557"/>
     <use style="fill:#64b5cd;stroke:#64b5cd;" x="919.284168" xlink:href="#m0a9e05b143" y="264.608374"/>
     <use style="fill:#64b5cd;stroke:#64b5cd;" x="185.15944" xlink:href="#m0a9e05b143" y="495.695815"/>
     <use style="fill:#64b5cd;stroke:#64b5cd;" x="897.143908" xlink:href="#m0a9e05b143" y="249.150238"/>
     <use style="fill:#64b5cd;stroke:#64b5cd;" x="828.055702" xlink:href="#m0a9e05b143" y="320.761876"/>
     <use style="fill:#64b5cd;stroke:#64b5cd;" x="224.630993" xlink:href="#m0a9e05b143" y="422.072079"/>
     <use style="fill:#64b5cd;stroke:#64b5cd;" x="676.12211" xlink:href="#m0a9e05b143" y="340.533242"/>
     <use style="fill:#64b5cd;stroke:#64b5cd;" x="207.376834" xlink:href="#m0a9e05b143" y="458.91497"/>
     <use style="fill:#64b5cd;stroke:#64b5cd;" x="917.530758" xlink:href="#m0a9e05b143" y="287.824334"/>
     <use style="fill:#64b5cd;stroke:#64b5cd;" x="200.112492" xlink:href="#m0a9e05b143" y="499.446969"/>
     <use style="fill:#64b5cd;stroke:#64b5cd;" x="204.725476" xlink:href="#m0a9e05b143" y="453.901829"/>
     <use style="fill:#64b5cd;stroke:#64b5cd;" x="1036.8" xlink:href="#m0a9e05b143" y="190.705157"/>
     <use style="fill:#64b5cd;stroke:#64b5cd;" x="913.269508" xlink:href="#m0a9e05b143" y="284.700077"/>
     <use style="fill:#64b5cd;stroke:#64b5cd;" x="192.270805" xlink:href="#m0a9e05b143" y="456.778627"/>
     <use style="fill:#64b5cd;stroke:#64b5cd;" x="898.875047" xlink:href="#m0a9e05b143" y="232.224228"/>
     <use style="fill:#64b5cd;stroke:#64b5cd;" x="173.377672" xlink:href="#m0a9e05b143" y="478.2284"/>
     <use style="fill:#64b5cd;stroke:#64b5cd;" x="900.342743" xlink:href="#m0a9e05b143" y="246.018742"/>
     <use style="fill:#64b5cd;stroke:#64b5cd;" x="926.306392" xlink:href="#m0a9e05b143" y="259.177982"/>
     <use style="fill:#64b5cd;stroke:#64b5cd;" x="905.682656" xlink:href="#m0a9e05b143" y="283.255083"/>
     <use style="fill:#64b5cd;stroke:#64b5cd;" x="181.149925" xlink:href="#m0a9e05b143" y="465.202262"/>
     <use style="fill:#64b5cd;stroke:#64b5cd;" x="162.877248" xlink:href="#m0a9e05b143" y="480.772001"/>
     <use style="fill:#64b5cd;stroke:#64b5cd;" x="251.666967" xlink:href="#m0a9e05b143" y="439.288303"/>
     <use style="fill:#64b5cd;stroke:#64b5cd;" x="896.95304" xlink:href="#m0a9e05b143" y="268.965624"/>
     <use style="fill:#64b5cd;stroke:#64b5cd;" x="920.540556" xlink:href="#m0a9e05b143" y="234.764478"/>
     <use style="fill:#64b5cd;stroke:#64b5cd;" x="905.029301" xlink:href="#m0a9e05b143" y="237.660252"/>
     <use style="fill:#64b5cd;stroke:#64b5cd;" x="175.046644" xlink:href="#m0a9e05b143" y="471.527265"/>
     <use style="fill:#64b5cd;stroke:#64b5cd;" x="184.746877" xlink:href="#m0a9e05b143" y="518.884258"/>
     <use style="fill:#64b5cd;stroke:#64b5cd;" x="206.450009" xlink:href="#m0a9e05b143" y="457.802587"/>
     <use style="fill:#64b5cd;stroke:#64b5cd;" x="918.334231" xlink:href="#m0a9e05b143" y="299.64123"/>
     <use style="fill:#64b5cd;stroke:#64b5cd;" x="913.329385" xlink:href="#m0a9e05b143" y="245.474819"/>
     <use style="fill:#64b5cd;stroke:#64b5cd;" x="948.101884" xlink:href="#m0a9e05b143" y="262.106221"/>
     <use style="fill:#64b5cd;stroke:#64b5cd;" x="682.066314" xlink:href="#m0a9e05b143" y="341.039691"/>
     <use style="fill:#64b5cd;stroke:#64b5cd;" x="530.582014" xlink:href="#m0a9e05b143" y="395.976986"/>
    </g>
   </g>
   <g id="line2d_17">
    <defs>
     <path d="M 0 3 
C 0.795609 3 1.55874 2.683901 2.12132 2.12132 
C 2.683901 1.55874 3 0.795609 3 0 
C 3 -0.795609 2.683901 -1.55874 2.12132 -2.12132 
C 1.55874 -2.683901 0.795609 -3 0 -3 
C -0.795609 -3 -1.55874 -2.683901 -2.12132 -2.12132 
C -2.683901 -1.55874 -3 -0.795609 -3 0 
C -3 0.795609 -2.683901 1.55874 -2.12132 2.12132 
C -1.55874 2.683901 -0.795609 3 0 3 
z
" id="mdddc34a8ed" style="stroke:#8172b3;"/>
    </defs>
    <g clip-path="url(#p9abafeeb6b)">
     <use style="fill:#8172b3;stroke:#8172b3;" x="922.905868" xlink:href="#mdddc34a8ed" y="223.561722"/>
     <use style="fill:#8172b3;stroke:#8172b3;" x="936.43285" xlink:href="#mdddc34a8ed" y="378.360267"/>
     <use style="fill:#8172b3;stroke:#8172b3;" x="209.503296" xlink:href="#mdddc34a8ed" y="414.273685"/>
     <use style="fill:#8172b3;stroke:#8172b3;" x="191.539194" xlink:href="#mdddc34a8ed" y="392.376376"/>
     <use style="fill:#8172b3;stroke:#8172b3;" x="157.208183" xlink:href="#mdddc34a8ed" y="455.906347"/>
     <use style="fill:#8172b3;stroke:#8172b3;" x="171.178994" xlink:href="#mdddc34a8ed" y="472.662214"/>
     <use style="fill:#8172b3;stroke:#8172b3;" x="170.962106" xlink:href="#mdddc34a8ed" y="494.590448"/>
     <use style="fill:#8172b3;stroke:#8172b3;" x="170.848685" xlink:href="#mdddc34a8ed" y="539.865216"/>
     <use style="fill:#8172b3;stroke:#8172b3;" x="188.488133" xlink:href="#mdddc34a8ed" y="484.70738"/>
     <use style="fill:#8172b3;stroke:#8172b3;" x="179.845452" xlink:href="#mdddc34a8ed" y="514.949901"/>
     <use style="fill:#8172b3;stroke:#8172b3;" x="208.231795" xlink:href="#mdddc34a8ed" y="473.992187"/>
     <use style="fill:#8172b3;stroke:#8172b3;" x="927.406582" xlink:href="#mdddc34a8ed" y="269.828246"/>
     <use style="fill:#8172b3;stroke:#8172b3;" x="187.519496" xlink:href="#mdddc34a8ed" y="431.551494"/>
     <use style="fill:#8172b3;stroke:#8172b3;" x="932.692148" xlink:href="#mdddc34a8ed" y="275.435059"/>
     <use style="fill:#8172b3;stroke:#8172b3;" x="213.723812" xlink:href="#mdddc34a8ed" y="447.122961"/>
     <use style="fill:#8172b3;stroke:#8172b3;" x="812.486997" xlink:href="#mdddc34a8ed" y="361.919413"/>
     <use style="fill:#8172b3;stroke:#8172b3;" x="887.976572" xlink:href="#mdddc34a8ed" y="343.99994"/>
     <use style="fill:#8172b3;stroke:#8172b3;" x="184.503311" xlink:href="#mdddc34a8ed" y="507.265345"/>
     <use style="fill:#8172b3;stroke:#8172b3;" x="803.796236" xlink:href="#mdddc34a8ed" y="279.736999"/>
     <use style="fill:#8172b3;stroke:#8172b3;" x="308.109833" xlink:href="#mdddc34a8ed" y="410.025433"/>
     <use style="fill:#8172b3;stroke:#8172b3;" x="445.566492" xlink:href="#mdddc34a8ed" y="399.221083"/>
     <use style="fill:#8172b3;stroke:#8172b3;" x="179.490582" xlink:href="#mdddc34a8ed" y="464.84529"/>
     <use style="fill:#8172b3;stroke:#8172b3;" x="916.771895" xlink:href="#mdddc34a8ed" y="176.534784"/>
     <use style="fill:#8172b3;stroke:#8172b3;" x="924.4948" xlink:href="#mdddc34a8ed" y="180.173964"/>
     <use style="fill:#8172b3;stroke:#8172b3;" x="767.91184" xlink:href="#mdddc34a8ed" y="400.986164"/>
     <use style="fill:#8172b3;stroke:#8172b3;" x="890.203671" xlink:href="#mdddc34a8ed" y="245.559304"/>
     <use style="fill:#8172b3;stroke:#8172b3;" x="910.133112" xlink:href="#mdddc34a8ed" y="266.518597"/>
     <use style="fill:#8172b3;stroke:#8172b3;" x="907.741335" xlink:href="#mdddc34a8ed" y="319.736617"/>
     <use style="fill:#8172b3;stroke:#8172b3;" x="330.644305" xlink:href="#mdddc34a8ed" y="507.694221"/>
     <use style="fill:#8172b3;stroke:#8172b3;" x="879.041049" xlink:href="#mdddc34a8ed" y="208.112455"/>
     <use style="fill:#8172b3;stroke:#8172b3;" x="186.966998" xlink:href="#mdddc34a8ed" y="510.420718"/>
     <use style="fill:#8172b3;stroke:#8172b3;" x="621.639598" xlink:href="#mdddc34a8ed" y="381.301781"/>
    </g>
   </g>
   <g id="patch_3">
    <path d="M 144 630 
L 144 86.4 
" style="fill:none;stroke:#cccccc;stroke-linecap:square;stroke-linejoin:miter;stroke-width:1.25;"/>
   </g>
   <g id="patch_4">
    <path d="M 1036.8 630 
L 1036.8 86.4 
" style="fill:none;stroke:#cccccc;stroke-linecap:square;stroke-linejoin:miter;stroke-width:1.25;"/>
   </g>
   <g id="patch_5">
    <path d="M 144 630 
L 1036.8 630 
" style="fill:none;stroke:#cccccc;stroke-linecap:square;stroke-linejoin:miter;stroke-width:1.25;"/>
   </g>
   <g id="patch_6">
    <path d="M 144 86.4 
L 1036.8 86.4 
" style="fill:none;stroke:#cccccc;stroke-linecap:square;stroke-linejoin:miter;stroke-width:1.25;"/>
   </g>
  </g>
 </g>
 <defs>
  <clipPath id="p9abafeeb6b">
   <rect height="543.6" width="892.8" x="144" y="86.4"/>
  </clipPath>
 </defs>
</svg>
