<?xml version="1.0" encoding="utf-8" standalone="no"?>
<!DOCTYPE svg PUBLIC "-//W3C//DTD SVG 1.1//EN"
  "http://www.w3.org/Graphics/SVG/1.1/DTD/svg11.dtd">
<!-- Created with matplotlib (https://matplotlib.org/) -->
<svg height="720pt" version="1.1" viewBox="0 0 1152 720" width="1152pt" xmlns="http://www.w3.org/2000/svg" xmlns:xlink="http://www.w3.org/1999/xlink">
 <defs>
  <style type="text/css">
*{stroke-linecap:butt;stroke-linejoin:round;}
  </style>
 </defs>
 <g id="figure_1">
  <g id="patch_1">
   <path d="M 0 720 
L 1152 720 
L 1152 0 
L 0 0 
z
" style="fill:#ffffff;"/>
  </g>
  <g id="axes_1">
   <g id="patch_2">
    <path d="M 117.92 637.58 
L 1120.08 637.58 
L 1120.08 31.92 
L 117.92 31.92 
z
" style="fill:#ffffff;"/>
   </g>
   <g id="matplotlib.axis_1">
    <g id="xtick_1">
     <g id="line2d_1">
      <path clip-path="url(#pd69f235188)" d="M 211.102384 637.58 
L 211.102384 31.92 
" style="fill:none;stroke:#cccccc;stroke-linecap:round;"/>
     </g>
     <g id="text_1">
      <!-- −0.15 -->
      <defs>
       <path d="M 52.828125 31.203125 
L 5.5625 31.203125 
L 5.5625 39.40625 
L 52.828125 39.40625 
z
" id="ArialMT-8722"/>
       <path d="M 4.15625 35.296875 
Q 4.15625 48 6.765625 55.734375 
Q 9.375 63.484375 14.515625 67.671875 
Q 19.671875 71.875 27.484375 71.875 
Q 33.25 71.875 37.59375 69.546875 
Q 41.9375 67.234375 44.765625 62.859375 
Q 47.609375 58.5 49.21875 52.21875 
Q 50.828125 45.953125 50.828125 35.296875 
Q 50.828125 22.703125 48.234375 14.96875 
Q 45.65625 7.234375 40.5 3 
Q 35.359375 -1.21875 27.484375 -1.21875 
Q 17.140625 -1.21875 11.234375 6.203125 
Q 4.15625 15.140625 4.15625 35.296875 
z
M 13.1875 35.296875 
Q 13.1875 17.671875 17.3125 11.828125 
Q 21.4375 6 27.484375 6 
Q 33.546875 6 37.671875 11.859375 
Q 41.796875 17.71875 41.796875 35.296875 
Q 41.796875 52.984375 37.671875 58.78125 
Q 33.546875 64.59375 27.390625 64.59375 
Q 21.34375 64.59375 17.71875 59.46875 
Q 13.1875 52.9375 13.1875 35.296875 
z
" id="ArialMT-48"/>
       <path d="M 9.078125 0 
L 9.078125 10.015625 
L 19.09375 10.015625 
L 19.09375 0 
z
" id="ArialMT-46"/>
       <path d="M 37.25 0 
L 28.46875 0 
L 28.46875 56 
Q 25.296875 52.984375 20.140625 49.953125 
Q 14.984375 46.921875 10.890625 45.40625 
L 10.890625 53.90625 
Q 18.265625 57.375 23.78125 62.296875 
Q 29.296875 67.234375 31.59375 71.875 
L 37.25 71.875 
z
" id="ArialMT-49"/>
       <path d="M 4.15625 18.75 
L 13.375 19.53125 
Q 14.40625 12.796875 18.140625 9.390625 
Q 21.875 6 27.15625 6 
Q 33.5 6 37.890625 10.78125 
Q 42.28125 15.578125 42.28125 23.484375 
Q 42.28125 31 38.0625 35.34375 
Q 33.84375 39.703125 27 39.703125 
Q 22.75 39.703125 19.328125 37.765625 
Q 15.921875 35.84375 13.96875 32.765625 
L 5.71875 33.84375 
L 12.640625 70.609375 
L 48.25 70.609375 
L 48.25 62.203125 
L 19.671875 62.203125 
L 15.828125 42.96875 
Q 22.265625 47.46875 29.34375 47.46875 
Q 38.71875 47.46875 45.15625 40.96875 
Q 51.609375 34.46875 51.609375 24.265625 
Q 51.609375 14.546875 45.953125 7.46875 
Q 39.0625 -1.21875 27.15625 -1.21875 
Q 17.390625 -1.21875 11.203125 4.25 
Q 5.03125 9.71875 4.15625 18.75 
z
" id="ArialMT-53"/>
      </defs>
      <g style="fill:#262626;" transform="translate(183.270665 662.827188)scale(0.22 -0.22)">
       <use xlink:href="#ArialMT-8722"/>
       <use x="58.398438" xlink:href="#ArialMT-48"/>
       <use x="114.013672" xlink:href="#ArialMT-46"/>
       <use x="141.796875" xlink:href="#ArialMT-49"/>
       <use x="197.412109" xlink:href="#ArialMT-53"/>
      </g>
     </g>
    </g>
    <g id="xtick_2">
     <g id="line2d_2">
      <path clip-path="url(#pd69f235188)" d="M 374.889746 637.58 
L 374.889746 31.92 
" style="fill:none;stroke:#cccccc;stroke-linecap:round;"/>
     </g>
     <g id="text_2">
      <!-- −0.10 -->
      <g style="fill:#262626;" transform="translate(347.058028 662.827188)scale(0.22 -0.22)">
       <use xlink:href="#ArialMT-8722"/>
       <use x="58.398438" xlink:href="#ArialMT-48"/>
       <use x="114.013672" xlink:href="#ArialMT-46"/>
       <use x="141.796875" xlink:href="#ArialMT-49"/>
       <use x="197.412109" xlink:href="#ArialMT-48"/>
      </g>
     </g>
    </g>
    <g id="xtick_3">
     <g id="line2d_3">
      <path clip-path="url(#pd69f235188)" d="M 538.677109 637.58 
L 538.677109 31.92 
" style="fill:none;stroke:#cccccc;stroke-linecap:round;"/>
     </g>
     <g id="text_3">
      <!-- −0.05 -->
      <g style="fill:#262626;" transform="translate(510.84539 662.827188)scale(0.22 -0.22)">
       <use xlink:href="#ArialMT-8722"/>
       <use x="58.398438" xlink:href="#ArialMT-48"/>
       <use x="114.013672" xlink:href="#ArialMT-46"/>
       <use x="141.796875" xlink:href="#ArialMT-48"/>
       <use x="197.412109" xlink:href="#ArialMT-53"/>
      </g>
     </g>
    </g>
    <g id="xtick_4">
     <g id="line2d_4">
      <path clip-path="url(#pd69f235188)" d="M 702.464471 637.58 
L 702.464471 31.92 
" style="fill:none;stroke:#cccccc;stroke-linecap:round;"/>
     </g>
     <g id="text_4">
      <!-- 0.00 -->
      <g style="fill:#262626;" transform="translate(681.05744 662.827188)scale(0.22 -0.22)">
       <use xlink:href="#ArialMT-48"/>
       <use x="55.615234" xlink:href="#ArialMT-46"/>
       <use x="83.398438" xlink:href="#ArialMT-48"/>
       <use x="139.013672" xlink:href="#ArialMT-48"/>
      </g>
     </g>
    </g>
    <g id="xtick_5">
     <g id="line2d_5">
      <path clip-path="url(#pd69f235188)" d="M 866.251834 637.58 
L 866.251834 31.92 
" style="fill:none;stroke:#cccccc;stroke-linecap:round;"/>
     </g>
     <g id="text_5">
      <!-- 0.05 -->
      <g style="fill:#262626;" transform="translate(844.844803 662.827188)scale(0.22 -0.22)">
       <use xlink:href="#ArialMT-48"/>
       <use x="55.615234" xlink:href="#ArialMT-46"/>
       <use x="83.398438" xlink:href="#ArialMT-48"/>
       <use x="139.013672" xlink:href="#ArialMT-53"/>
      </g>
     </g>
    </g>
    <g id="xtick_6">
     <g id="line2d_6">
      <path clip-path="url(#pd69f235188)" d="M 1030.039196 637.58 
L 1030.039196 31.92 
" style="fill:none;stroke:#cccccc;stroke-linecap:round;"/>
     </g>
     <g id="text_6">
      <!-- 0.10 -->
      <g style="fill:#262626;" transform="translate(1008.632165 662.827188)scale(0.22 -0.22)">
       <use xlink:href="#ArialMT-48"/>
       <use x="55.615234" xlink:href="#ArialMT-46"/>
       <use x="83.398438" xlink:href="#ArialMT-49"/>
       <use x="139.013672" xlink:href="#ArialMT-48"/>
      </g>
     </g>
    </g>
    <g id="text_7">
     <!-- Yerr -->
     <defs>
      <path d="M 27.875 0 
L 27.875 30.328125 
L 0.296875 71.578125 
L 11.8125 71.578125 
L 25.921875 50 
Q 29.828125 43.953125 33.203125 37.890625 
Q 36.421875 43.5 41.015625 50.53125 
L 54.890625 71.578125 
L 65.921875 71.578125 
L 37.359375 30.328125 
L 37.359375 0 
z
" id="ArialMT-89"/>
      <path d="M 42.09375 16.703125 
L 51.171875 15.578125 
Q 49.03125 7.625 43.21875 3.21875 
Q 37.40625 -1.171875 28.375 -1.171875 
Q 17 -1.171875 10.328125 5.828125 
Q 3.65625 12.84375 3.65625 25.484375 
Q 3.65625 38.578125 10.390625 45.796875 
Q 17.140625 53.03125 27.875 53.03125 
Q 38.28125 53.03125 44.875 45.953125 
Q 51.46875 38.875 51.46875 26.03125 
Q 51.46875 25.25 51.421875 23.6875 
L 12.75 23.6875 
Q 13.234375 15.140625 17.578125 10.59375 
Q 21.921875 6.0625 28.421875 6.0625 
Q 33.25 6.0625 36.671875 8.59375 
Q 40.09375 11.140625 42.09375 16.703125 
z
M 13.234375 30.90625 
L 42.1875 30.90625 
Q 41.609375 37.453125 38.875 40.71875 
Q 34.671875 45.796875 27.984375 45.796875 
Q 21.921875 45.796875 17.796875 41.75 
Q 13.671875 37.703125 13.234375 30.90625 
z
" id="ArialMT-101"/>
      <path d="M 6.5 0 
L 6.5 51.859375 
L 14.40625 51.859375 
L 14.40625 44 
Q 17.4375 49.515625 20 51.265625 
Q 22.5625 53.03125 25.640625 53.03125 
Q 30.078125 53.03125 34.671875 50.203125 
L 31.640625 42.046875 
Q 28.421875 43.953125 25.203125 43.953125 
Q 22.3125 43.953125 20.015625 42.21875 
Q 17.71875 40.484375 16.75 37.40625 
Q 15.28125 32.71875 15.28125 27.15625 
L 15.28125 0 
z
" id="ArialMT-114"/>
     </defs>
     <g style="fill:#262626;" transform="translate(596.348125 688.378438)scale(0.24 -0.24)">
      <use xlink:href="#ArialMT-89"/>
      <use x="66.558594" xlink:href="#ArialMT-101"/>
      <use x="122.173828" xlink:href="#ArialMT-114"/>
      <use x="155.474609" xlink:href="#ArialMT-114"/>
     </g>
    </g>
   </g>
   <g id="matplotlib.axis_2">
    <g id="ytick_1">
     <g id="line2d_7">
      <path clip-path="url(#pd69f235188)" d="M 117.92 558.854362 
L 1120.08 558.854362 
" style="fill:none;stroke:#cccccc;stroke-linecap:round;"/>
     </g>
     <g id="text_8">
      <!-- −0.15 -->
      <g style="fill:#262626;" transform="translate(52.756562 566.727956)scale(0.22 -0.22)">
       <use xlink:href="#ArialMT-8722"/>
       <use x="58.398438" xlink:href="#ArialMT-48"/>
       <use x="114.013672" xlink:href="#ArialMT-46"/>
       <use x="141.796875" xlink:href="#ArialMT-49"/>
       <use x="197.412109" xlink:href="#ArialMT-53"/>
      </g>
     </g>
    </g>
    <g id="ytick_2">
     <g id="line2d_8">
      <path clip-path="url(#pd69f235188)" d="M 117.92 468.867412 
L 1120.08 468.867412 
" style="fill:none;stroke:#cccccc;stroke-linecap:round;"/>
     </g>
     <g id="text_9">
      <!-- −0.10 -->
      <g style="fill:#262626;" transform="translate(52.756562 476.741006)scale(0.22 -0.22)">
       <use xlink:href="#ArialMT-8722"/>
       <use x="58.398438" xlink:href="#ArialMT-48"/>
       <use x="114.013672" xlink:href="#ArialMT-46"/>
       <use x="141.796875" xlink:href="#ArialMT-49"/>
       <use x="197.412109" xlink:href="#ArialMT-48"/>
      </g>
     </g>
    </g>
    <g id="ytick_3">
     <g id="line2d_9">
      <path clip-path="url(#pd69f235188)" d="M 117.92 378.880462 
L 1120.08 378.880462 
" style="fill:none;stroke:#cccccc;stroke-linecap:round;"/>
     </g>
     <g id="text_10">
      <!-- −0.05 -->
      <g style="fill:#262626;" transform="translate(52.756562 386.754056)scale(0.22 -0.22)">
       <use xlink:href="#ArialMT-8722"/>
       <use x="58.398438" xlink:href="#ArialMT-48"/>
       <use x="114.013672" xlink:href="#ArialMT-46"/>
       <use x="141.796875" xlink:href="#ArialMT-48"/>
       <use x="197.412109" xlink:href="#ArialMT-53"/>
      </g>
     </g>
    </g>
    <g id="ytick_4">
     <g id="line2d_10">
      <path clip-path="url(#pd69f235188)" d="M 117.92 288.893512 
L 1120.08 288.893512 
" style="fill:none;stroke:#cccccc;stroke-linecap:round;"/>
     </g>
     <g id="text_11">
      <!-- 0.00 -->
      <g style="fill:#262626;" transform="translate(65.605937 296.767106)scale(0.22 -0.22)">
       <use xlink:href="#ArialMT-48"/>
       <use x="55.615234" xlink:href="#ArialMT-46"/>
       <use x="83.398438" xlink:href="#ArialMT-48"/>
       <use x="139.013672" xlink:href="#ArialMT-48"/>
      </g>
     </g>
    </g>
    <g id="ytick_5">
     <g id="line2d_11">
      <path clip-path="url(#pd69f235188)" d="M 117.92 198.906562 
L 1120.08 198.906562 
" style="fill:none;stroke:#cccccc;stroke-linecap:round;"/>
     </g>
     <g id="text_12">
      <!-- 0.05 -->
      <g style="fill:#262626;" transform="translate(65.605937 206.780156)scale(0.22 -0.22)">
       <use xlink:href="#ArialMT-48"/>
       <use x="55.615234" xlink:href="#ArialMT-46"/>
       <use x="83.398438" xlink:href="#ArialMT-48"/>
       <use x="139.013672" xlink:href="#ArialMT-53"/>
      </g>
     </g>
    </g>
    <g id="ytick_6">
     <g id="line2d_12">
      <path clip-path="url(#pd69f235188)" d="M 117.92 108.919612 
L 1120.08 108.919612 
" style="fill:none;stroke:#cccccc;stroke-linecap:round;"/>
     </g>
     <g id="text_13">
      <!-- 0.10 -->
      <g style="fill:#262626;" transform="translate(65.605937 116.793206)scale(0.22 -0.22)">
       <use xlink:href="#ArialMT-48"/>
       <use x="55.615234" xlink:href="#ArialMT-46"/>
       <use x="83.398438" xlink:href="#ArialMT-49"/>
       <use x="139.013672" xlink:href="#ArialMT-48"/>
      </g>
     </g>
    </g>
    <g id="text_14">
     <!-- Predicted -->
     <defs>
      <path d="M 7.71875 0 
L 7.71875 71.578125 
L 34.71875 71.578125 
Q 41.84375 71.578125 45.609375 70.90625 
Q 50.875 70.015625 54.4375 67.546875 
Q 58.015625 65.09375 60.1875 60.640625 
Q 62.359375 56.203125 62.359375 50.875 
Q 62.359375 41.75 56.546875 35.421875 
Q 50.734375 29.109375 35.546875 29.109375 
L 17.1875 29.109375 
L 17.1875 0 
z
M 17.1875 37.546875 
L 35.6875 37.546875 
Q 44.875 37.546875 48.734375 40.96875 
Q 52.59375 44.390625 52.59375 50.59375 
Q 52.59375 55.078125 50.3125 58.265625 
Q 48.046875 61.46875 44.34375 62.5 
Q 41.9375 63.140625 35.5 63.140625 
L 17.1875 63.140625 
z
" id="ArialMT-80"/>
      <path d="M 40.234375 0 
L 40.234375 6.546875 
Q 35.296875 -1.171875 25.734375 -1.171875 
Q 19.53125 -1.171875 14.328125 2.25 
Q 9.125 5.671875 6.265625 11.796875 
Q 3.421875 17.921875 3.421875 25.875 
Q 3.421875 33.640625 6 39.96875 
Q 8.59375 46.296875 13.765625 49.65625 
Q 18.953125 53.03125 25.34375 53.03125 
Q 30.03125 53.03125 33.6875 51.046875 
Q 37.359375 49.078125 39.65625 45.90625 
L 39.65625 71.578125 
L 48.390625 71.578125 
L 48.390625 0 
z
M 12.453125 25.875 
Q 12.453125 15.921875 16.640625 10.984375 
Q 20.84375 6.0625 26.5625 6.0625 
Q 32.328125 6.0625 36.34375 10.765625 
Q 40.375 15.484375 40.375 25.140625 
Q 40.375 35.796875 36.265625 40.765625 
Q 32.171875 45.75 26.171875 45.75 
Q 20.3125 45.75 16.375 40.96875 
Q 12.453125 36.1875 12.453125 25.875 
z
" id="ArialMT-100"/>
      <path d="M 6.640625 61.46875 
L 6.640625 71.578125 
L 15.4375 71.578125 
L 15.4375 61.46875 
z
M 6.640625 0 
L 6.640625 51.859375 
L 15.4375 51.859375 
L 15.4375 0 
z
" id="ArialMT-105"/>
      <path d="M 40.4375 19 
L 49.078125 17.875 
Q 47.65625 8.9375 41.8125 3.875 
Q 35.984375 -1.171875 27.484375 -1.171875 
Q 16.84375 -1.171875 10.375 5.78125 
Q 3.90625 12.75 3.90625 25.734375 
Q 3.90625 34.125 6.6875 40.421875 
Q 9.46875 46.734375 15.15625 49.875 
Q 20.84375 53.03125 27.546875 53.03125 
Q 35.984375 53.03125 41.359375 48.75 
Q 46.734375 44.484375 48.25 36.625 
L 39.703125 35.296875 
Q 38.484375 40.53125 35.375 43.15625 
Q 32.28125 45.796875 27.875 45.796875 
Q 21.234375 45.796875 17.078125 41.03125 
Q 12.9375 36.28125 12.9375 25.984375 
Q 12.9375 15.53125 16.9375 10.796875 
Q 20.953125 6.0625 27.390625 6.0625 
Q 32.5625 6.0625 36.03125 9.234375 
Q 39.5 12.40625 40.4375 19 
z
" id="ArialMT-99"/>
      <path d="M 25.78125 7.859375 
L 27.046875 0.09375 
Q 23.34375 -0.6875 20.40625 -0.6875 
Q 15.625 -0.6875 12.984375 0.828125 
Q 10.359375 2.34375 9.28125 4.8125 
Q 8.203125 7.28125 8.203125 15.1875 
L 8.203125 45.015625 
L 1.765625 45.015625 
L 1.765625 51.859375 
L 8.203125 51.859375 
L 8.203125 64.703125 
L 16.9375 69.96875 
L 16.9375 51.859375 
L 25.78125 51.859375 
L 25.78125 45.015625 
L 16.9375 45.015625 
L 16.9375 14.703125 
Q 16.9375 10.9375 17.40625 9.859375 
Q 17.875 8.796875 18.921875 8.15625 
Q 19.96875 7.515625 21.921875 7.515625 
Q 23.390625 7.515625 25.78125 7.859375 
z
" id="ArialMT-116"/>
     </defs>
     <g style="fill:#262626;" transform="translate(43.986562 385.4425)rotate(-90)scale(0.24 -0.24)">
      <use xlink:href="#ArialMT-80"/>
      <use x="66.699219" xlink:href="#ArialMT-114"/>
      <use x="100" xlink:href="#ArialMT-101"/>
      <use x="155.615234" xlink:href="#ArialMT-100"/>
      <use x="211.230469" xlink:href="#ArialMT-105"/>
      <use x="233.447266" xlink:href="#ArialMT-99"/>
      <use x="283.447266" xlink:href="#ArialMT-116"/>
      <use x="311.230469" xlink:href="#ArialMT-101"/>
      <use x="366.845703" xlink:href="#ArialMT-100"/>
     </g>
    </g>
   </g>
   <g id="LineCollection_1">
    <path clip-path="url(#pd69f235188)" d="M 117.92 473.838714 
L 117.92 231.510452 
" style="fill:none;stroke:#8172b3;stroke-width:0.5;"/>
    <path clip-path="url(#pd69f235188)" d="M 798.959017 408.827582 
L 798.959017 179.239399 
" style="fill:none;stroke:#8172b3;stroke-width:0.5;"/>
    <path clip-path="url(#pd69f235188)" d="M 452.105374 499.657988 
L 452.105374 272.705129 
" style="fill:none;stroke:#8172b3;stroke-width:0.5;"/>
    <path clip-path="url(#pd69f235188)" d="M 559.952838 490.18676 
L 559.952838 263.79784 
" style="fill:none;stroke:#8172b3;stroke-width:0.5;"/>
    <path clip-path="url(#pd69f235188)" d="M 536.123613 426.938674 
L 536.123613 202.21597 
" style="fill:none;stroke:#8172b3;stroke-width:0.5;"/>
    <path clip-path="url(#pd69f235188)" d="M 657.177899 383.619951 
L 657.177899 155.028307 
" style="fill:none;stroke:#8172b3;stroke-width:0.5;"/>
    <path clip-path="url(#pd69f235188)" d="M 639.014524 375.707169 
L 639.014524 143.032026 
" style="fill:none;stroke:#8172b3;stroke-width:0.5;"/>
    <path clip-path="url(#pd69f235188)" d="M 749.421771 350.003999 
L 749.421771 121.472884 
" style="fill:none;stroke:#8172b3;stroke-width:0.5;"/>
    <path clip-path="url(#pd69f235188)" d="M 634.174968 440.376302 
L 634.174968 214.292221 
" style="fill:none;stroke:#8172b3;stroke-width:0.5;"/>
    <path clip-path="url(#pd69f235188)" d="M 768.269828 453.245425 
L 768.269828 227.646982 
" style="fill:none;stroke:#8172b3;stroke-width:0.5;"/>
    <path clip-path="url(#pd69f235188)" d="M 672.926382 434.22505 
L 672.926382 206.300338 
" style="fill:none;stroke:#8172b3;stroke-width:0.5;"/>
    <path clip-path="url(#pd69f235188)" d="M 731.865921 405.872941 
L 731.865921 177.398445 
" style="fill:none;stroke:#8172b3;stroke-width:0.5;"/>
    <path clip-path="url(#pd69f235188)" d="M 601.45943 474.489809 
L 601.45943 249.341651 
" style="fill:none;stroke:#8172b3;stroke-width:0.5;"/>
    <path clip-path="url(#pd69f235188)" d="M 755.229653 339.843184 
L 755.229653 114.731408 
" style="fill:none;stroke:#8172b3;stroke-width:0.5;"/>
    <path clip-path="url(#pd69f235188)" d="M 614.473486 373.269661 
L 614.473486 138.129069 
" style="fill:none;stroke:#8172b3;stroke-width:0.5;"/>
    <path clip-path="url(#pd69f235188)" d="M 1092.693533 356.439083 
L 1092.693533 129.263467 
" style="fill:none;stroke:#8172b3;stroke-width:0.5;"/>
    <path clip-path="url(#pd69f235188)" d="M 802.633176 382.737435 
L 802.633176 153.518236 
" style="fill:none;stroke:#8172b3;stroke-width:0.5;"/>
    <path clip-path="url(#pd69f235188)" d="M 325.163292 448.467613 
L 325.163292 218.309534 
" style="fill:none;stroke:#8172b3;stroke-width:0.5;"/>
    <path clip-path="url(#pd69f235188)" d="M 924.038377 327.92311 
L 924.038377 102.53189 
" style="fill:none;stroke:#8172b3;stroke-width:0.5;"/>
    <path clip-path="url(#pd69f235188)" d="M 469.853078 470.129798 
L 469.853078 241.513235 
" style="fill:none;stroke:#8172b3;stroke-width:0.5;"/>
    <path clip-path="url(#pd69f235188)" d="M 755.84455 446.69493 
L 755.84455 216.563704 
" style="fill:none;stroke:#8172b3;stroke-width:0.5;"/>
    <path clip-path="url(#pd69f235188)" d="M 743.457029 382.788757 
L 743.457029 151.584201 
" style="fill:none;stroke:#8172b3;stroke-width:0.5;"/>
    <path clip-path="url(#pd69f235188)" d="M 862.338316 366.652541 
L 862.338316 140.647501 
" style="fill:none;stroke:#8172b3;stroke-width:0.5;"/>
    <path clip-path="url(#pd69f235188)" d="M 728.406379 464.415718 
L 728.406379 227.463541 
" style="fill:none;stroke:#8172b3;stroke-width:0.5;"/>
    <path clip-path="url(#pd69f235188)" d="M 967.18947 378.108754 
L 967.18947 146.208601 
" style="fill:none;stroke:#8172b3;stroke-width:0.5;"/>
    <path clip-path="url(#pd69f235188)" d="M 497.572419 363.838794 
L 497.572419 136.516973 
" style="fill:none;stroke:#8172b3;stroke-width:0.5;"/>
    <path clip-path="url(#pd69f235188)" d="M 867.680396 426.174736 
L 867.680396 200.999181 
" style="fill:none;stroke:#8172b3;stroke-width:0.5;"/>
    <path clip-path="url(#pd69f235188)" d="M 1120.08 321.153839 
L 1120.08 91.962875 
" style="fill:none;stroke:#8172b3;stroke-width:0.5;"/>
    <path clip-path="url(#pd69f235188)" d="M 450.003035 454.694233 
L 450.003035 226.301284 
" style="fill:none;stroke:#8172b3;stroke-width:0.5;"/>
    <path clip-path="url(#pd69f235188)" d="M 876.675278 401.216427 
L 876.675278 177.034449 
" style="fill:none;stroke:#8172b3;stroke-width:0.5;"/>
    <path clip-path="url(#pd69f235188)" d="M 683.341616 341.181906 
L 683.341616 110.610777 
" style="fill:none;stroke:#8172b3;stroke-width:0.5;"/>
    <path clip-path="url(#pd69f235188)" d="M 912.880843 424.245704 
L 912.880843 197.932652 
" style="fill:none;stroke:#8172b3;stroke-width:0.5;"/>
   </g>
   <g id="LineCollection_2">
    <path clip-path="url(#pd69f235188)" d="M 792.161213 343.853575 
L 792.161213 115.161739 
" style="fill:none;stroke:#64b5cd;stroke-width:0.5;"/>
    <path clip-path="url(#pd69f235188)" d="M 648.610151 394.189014 
L 648.610151 169.585231 
" style="fill:none;stroke:#64b5cd;stroke-width:0.5;"/>
    <path clip-path="url(#pd69f235188)" d="M 637.54621 474.724377 
L 637.54621 249.025445 
" style="fill:none;stroke:#64b5cd;stroke-width:0.5;"/>
    <path clip-path="url(#pd69f235188)" d="M 712.535656 426.360208 
L 712.535656 201.223273 
" style="fill:none;stroke:#64b5cd;stroke-width:0.5;"/>
    <path clip-path="url(#pd69f235188)" d="M 593.812976 418.230021 
L 593.812976 192.76562 
" style="fill:none;stroke:#64b5cd;stroke-width:0.5;"/>
    <path clip-path="url(#pd69f235188)" d="M 781.134802 422.826439 
L 781.134802 193.092703 
" style="fill:none;stroke:#64b5cd;stroke-width:0.5;"/>
    <path clip-path="url(#pd69f235188)" d="M 707.807426 398.018513 
L 707.807426 173.416717 
" style="fill:none;stroke:#64b5cd;stroke-width:0.5;"/>
    <path clip-path="url(#pd69f235188)" d="M 1056.996367 343.461158 
L 1056.996367 117.530054 
" style="fill:none;stroke:#64b5cd;stroke-width:0.5;"/>
    <path clip-path="url(#pd69f235188)" d="M 581.37178 437.911707 
L 581.37178 212.133304 
" style="fill:none;stroke:#64b5cd;stroke-width:0.5;"/>
    <path clip-path="url(#pd69f235188)" d="M 969.024981 373.310493 
L 969.024981 143.524169 
" style="fill:none;stroke:#64b5cd;stroke-width:0.5;"/>
    <path clip-path="url(#pd69f235188)" d="M 540.968528 402.540309 
L 540.968528 175.598402 
" style="fill:none;stroke:#64b5cd;stroke-width:0.5;"/>
    <path clip-path="url(#pd69f235188)" d="M 724.139816 329.61076 
L 724.139816 99.222979 
" style="fill:none;stroke:#64b5cd;stroke-width:0.5;"/>
    <path clip-path="url(#pd69f235188)" d="M 867.042598 352.475266 
L 867.042598 124.258423 
" style="fill:none;stroke:#64b5cd;stroke-width:0.5;"/>
    <path clip-path="url(#pd69f235188)" d="M 734.972726 480.879859 
L 734.972726 254.983741 
" style="fill:none;stroke:#64b5cd;stroke-width:0.5;"/>
    <path clip-path="url(#pd69f235188)" d="M 413.515325 479.831426 
L 413.515325 254.48395 
" style="fill:none;stroke:#64b5cd;stroke-width:0.5;"/>
    <path clip-path="url(#pd69f235188)" d="M 857.666881 324.690887 
L 857.666881 99.77182 
" style="fill:none;stroke:#64b5cd;stroke-width:0.5;"/>
    <path clip-path="url(#pd69f235188)" d="M 864.392408 375.431722 
L 864.392408 147.560256 
" style="fill:none;stroke:#64b5cd;stroke-width:0.5;"/>
    <path clip-path="url(#pd69f235188)" d="M 809.798468 396.582377 
L 809.798468 171.603408 
" style="fill:none;stroke:#64b5cd;stroke-width:0.5;"/>
    <path clip-path="url(#pd69f235188)" d="M 695.508044 424.25065 
L 695.508044 193.165753 
" style="fill:none;stroke:#64b5cd;stroke-width:0.5;"/>
    <path clip-path="url(#pd69f235188)" d="M 673.05976 431.327032 
L 673.05976 203.003816 
" style="fill:none;stroke:#64b5cd;stroke-width:0.5;"/>
    <path clip-path="url(#pd69f235188)" d="M 902.352795 321.90617 
L 902.352795 96.431072 
" style="fill:none;stroke:#64b5cd;stroke-width:0.5;"/>
    <path clip-path="url(#pd69f235188)" d="M 825.065379 315.606623 
L 825.065379 91.105514 
" style="fill:none;stroke:#64b5cd;stroke-width:0.5;"/>
    <path clip-path="url(#pd69f235188)" d="M 711.386023 451.20403 
L 711.386023 219.479888 
" style="fill:none;stroke:#64b5cd;stroke-width:0.5;"/>
    <path clip-path="url(#pd69f235188)" d="M 801.2768 334.799993 
L 801.2768 100.203709 
" style="fill:none;stroke:#64b5cd;stroke-width:0.5;"/>
    <path clip-path="url(#pd69f235188)" d="M 651.681236 463.750151 
L 651.681236 233.565537 
" style="fill:none;stroke:#64b5cd;stroke-width:0.5;"/>
    <path clip-path="url(#pd69f235188)" d="M 623.012607 452.198836 
L 623.012607 222.035498 
" style="fill:none;stroke:#64b5cd;stroke-width:0.5;"/>
    <path clip-path="url(#pd69f235188)" d="M 691.731093 402.33749 
L 691.731093 177.626668 
" style="fill:none;stroke:#64b5cd;stroke-width:0.5;"/>
    <path clip-path="url(#pd69f235188)" d="M 625.97177 418.57477 
L 625.97177 193.057053 
" style="fill:none;stroke:#64b5cd;stroke-width:0.5;"/>
    <path clip-path="url(#pd69f235188)" d="M 562.561823 466.266942 
L 562.561823 230.857393 
" style="fill:none;stroke:#64b5cd;stroke-width:0.5;"/>
    <path clip-path="url(#pd69f235188)" d="M 429.972056 453.159689 
L 429.972056 225.184063 
" style="fill:none;stroke:#64b5cd;stroke-width:0.5;"/>
    <path clip-path="url(#pd69f235188)" d="M 736.061238 386.604143 
L 736.061238 159.689667 
" style="fill:none;stroke:#64b5cd;stroke-width:0.5;"/>
    <path clip-path="url(#pd69f235188)" d="M 470.715584 485.372559 
L 470.715584 259.15246 
" style="fill:none;stroke:#64b5cd;stroke-width:0.5;"/>
    <path clip-path="url(#pd69f235188)" d="M 618.683244 389.808077 
L 618.683244 162.022194 
" style="fill:none;stroke:#64b5cd;stroke-width:0.5;"/>
    <path clip-path="url(#pd69f235188)" d="M 413.983836 503.383037 
L 413.983836 274.300744 
" style="fill:none;stroke:#64b5cd;stroke-width:0.5;"/>
    <path clip-path="url(#pd69f235188)" d="M 564.534363 469.277912 
L 564.534363 242.773956 
" style="fill:none;stroke:#64b5cd;stroke-width:0.5;"/>
    <path clip-path="url(#pd69f235188)" d="M 442.761625 491.046985 
L 442.761625 266.199274 
" style="fill:none;stroke:#64b5cd;stroke-width:0.5;"/>
    <path clip-path="url(#pd69f235188)" d="M 611.449322 436.866806 
L 611.449322 209.27811 
" style="fill:none;stroke:#64b5cd;stroke-width:0.5;"/>
    <path clip-path="url(#pd69f235188)" d="M 753.267439 413.665079 
L 753.267439 184.301827 
" style="fill:none;stroke:#64b5cd;stroke-width:0.5;"/>
    <path clip-path="url(#pd69f235188)" d="M 858.023324 410.642632 
L 858.023324 182.729218 
" style="fill:none;stroke:#64b5cd;stroke-width:0.5;"/>
    <path clip-path="url(#pd69f235188)" d="M 587.299779 502.013585 
L 587.299779 271.366094 
" style="fill:none;stroke:#64b5cd;stroke-width:0.5;"/>
    <path clip-path="url(#pd69f235188)" d="M 787.866758 406.9163 
L 787.866758 182.103697 
" style="fill:none;stroke:#64b5cd;stroke-width:0.5;"/>
    <path clip-path="url(#pd69f235188)" d="M 672.75529 327.036519 
L 672.75529 102.293417 
" style="fill:none;stroke:#64b5cd;stroke-width:0.5;"/>
    <path clip-path="url(#pd69f235188)" d="M 874.170766 358.687164 
L 874.170766 130.811345 
" style="fill:none;stroke:#64b5cd;stroke-width:0.5;"/>
    <path clip-path="url(#pd69f235188)" d="M 653.474485 398.433292 
L 653.474485 172.153282 
" style="fill:none;stroke:#64b5cd;stroke-width:0.5;"/>
    <path clip-path="url(#pd69f235188)" d="M 883.46035 328.39451 
L 883.46035 103.529449 
" style="fill:none;stroke:#64b5cd;stroke-width:0.5;"/>
    <path clip-path="url(#pd69f235188)" d="M 743.457478 346.790926 
L 743.457478 120.868178 
" style="fill:none;stroke:#64b5cd;stroke-width:0.5;"/>
    <path clip-path="url(#pd69f235188)" d="M 790.271014 324.284161 
L 790.271014 94.887967 
" style="fill:none;stroke:#64b5cd;stroke-width:0.5;"/>
    <path clip-path="url(#pd69f235188)" d="M 587.964503 413.307129 
L 587.964503 187.191718 
" style="fill:none;stroke:#64b5cd;stroke-width:0.5;"/>
    <path clip-path="url(#pd69f235188)" d="M 561.267364 462.65832 
L 561.267364 236.4927 
" style="fill:none;stroke:#64b5cd;stroke-width:0.5;"/>
    <path clip-path="url(#pd69f235188)" d="M 799.321856 361.450847 
L 799.321856 132.554594 
" style="fill:none;stroke:#64b5cd;stroke-width:0.5;"/>
    <path clip-path="url(#pd69f235188)" d="M 674.003245 346.430326 
L 674.003245 118.942141 
" style="fill:none;stroke:#64b5cd;stroke-width:0.5;"/>
    <path clip-path="url(#pd69f235188)" d="M 607.356306 475.377567 
L 607.356306 250.105728 
" style="fill:none;stroke:#64b5cd;stroke-width:0.5;"/>
    <path clip-path="url(#pd69f235188)" d="M 627.490103 401.823038 
L 627.490103 176.542256 
" style="fill:none;stroke:#64b5cd;stroke-width:0.5;"/>
    <path clip-path="url(#pd69f235188)" d="M 739.786888 411.063986 
L 739.786888 183.322209 
" style="fill:none;stroke:#64b5cd;stroke-width:0.5;"/>
    <path clip-path="url(#pd69f235188)" d="M 740.102341 353.118584 
L 740.102341 127.097898 
" style="fill:none;stroke:#64b5cd;stroke-width:0.5;"/>
    <path clip-path="url(#pd69f235188)" d="M 397.030886 446.357025 
L 397.030886 218.936392 
" style="fill:none;stroke:#64b5cd;stroke-width:0.5;"/>
    <path clip-path="url(#pd69f235188)" d="M 790.379762 333.127138 
L 790.379762 102.806593 
" style="fill:none;stroke:#64b5cd;stroke-width:0.5;"/>
    <path clip-path="url(#pd69f235188)" d="M 716.713024 318.469463 
L 716.713024 93.37296 
" style="fill:none;stroke:#64b5cd;stroke-width:0.5;"/>
    <path clip-path="url(#pd69f235188)" d="M 699.051852 409.857858 
L 699.051852 185.149745 
" style="fill:none;stroke:#64b5cd;stroke-width:0.5;"/>
    <path clip-path="url(#pd69f235188)" d="M 872.659791 316.371797 
L 872.659791 89.921243 
" style="fill:none;stroke:#64b5cd;stroke-width:0.5;"/>
    <path clip-path="url(#pd69f235188)" d="M 466.13918 454.538884 
L 466.13918 227.576394 
" style="fill:none;stroke:#64b5cd;stroke-width:0.5;"/>
    <path clip-path="url(#pd69f235188)" d="M 573.727725 462.850815 
L 573.727725 227.504868 
" style="fill:none;stroke:#64b5cd;stroke-width:0.5;"/>
    <path clip-path="url(#pd69f235188)" d="M 676.899418 430.982073 
L 676.899418 203.610581 
" style="fill:none;stroke:#64b5cd;stroke-width:0.5;"/>
    <path clip-path="url(#pd69f235188)" d="M 697.648895 391.799218 
L 697.648895 164.863038 
" style="fill:none;stroke:#64b5cd;stroke-width:0.5;"/>
    <path clip-path="url(#pd69f235188)" d="M 615.400962 397.860237 
L 615.400962 168.005775 
" style="fill:none;stroke:#64b5cd;stroke-width:0.5;"/>
    <path clip-path="url(#pd69f235188)" d="M 819.562145 397.666916 
L 819.562145 169.880073 
" style="fill:none;stroke:#64b5cd;stroke-width:0.5;"/>
    <path clip-path="url(#pd69f235188)" d="M 477.995083 447.744512 
L 477.995083 216.076605 
" style="fill:none;stroke:#64b5cd;stroke-width:0.5;"/>
    <path clip-path="url(#pd69f235188)" d="M 866.498757 328.488095 
L 866.498757 102.725655 
" style="fill:none;stroke:#64b5cd;stroke-width:0.5;"/>
    <path clip-path="url(#pd69f235188)" d="M 453.975874 497.148341 
L 453.975874 271.364637 
" style="fill:none;stroke:#64b5cd;stroke-width:0.5;"/>
    <path clip-path="url(#pd69f235188)" d="M 731.90158 381.573316 
L 731.90158 153.576387 
" style="fill:none;stroke:#64b5cd;stroke-width:0.5;"/>
    <path clip-path="url(#pd69f235188)" d="M 710.543408 480.184117 
L 710.543408 254.7933 
" style="fill:none;stroke:#64b5cd;stroke-width:0.5;"/>
    <path clip-path="url(#pd69f235188)" d="M 1045.188189 317.209969 
L 1045.188189 93.095971 
" style="fill:none;stroke:#64b5cd;stroke-width:0.5;"/>
    <path clip-path="url(#pd69f235188)" d="M 954.300083 326.040247 
L 954.300083 88.885933 
" style="fill:none;stroke:#64b5cd;stroke-width:0.5;"/>
    <path clip-path="url(#pd69f235188)" d="M 546.96979 492.32984 
L 546.96979 267.891629 
" style="fill:none;stroke:#64b5cd;stroke-width:0.5;"/>
    <path clip-path="url(#pd69f235188)" d="M 752.065438 435.310151 
L 752.065438 209.206241 
" style="fill:none;stroke:#64b5cd;stroke-width:0.5;"/>
    <path clip-path="url(#pd69f235188)" d="M 861.642119 313.596271 
L 861.642119 89.169159 
" style="fill:none;stroke:#64b5cd;stroke-width:0.5;"/>
    <path clip-path="url(#pd69f235188)" d="M 604.091773 486.015677 
L 604.091773 258.72713 
" style="fill:none;stroke:#64b5cd;stroke-width:0.5;"/>
    <path clip-path="url(#pd69f235188)" d="M 668.811787 372.679685 
L 668.811787 146.685284 
" style="fill:none;stroke:#64b5cd;stroke-width:0.5;"/>
    <path clip-path="url(#pd69f235188)" d="M 694.69707 364.210109 
L 694.69707 134.530495 
" style="fill:none;stroke:#64b5cd;stroke-width:0.5;"/>
    <path clip-path="url(#pd69f235188)" d="M 781.322363 394.67997 
L 781.322363 168.771827 
" style="fill:none;stroke:#64b5cd;stroke-width:0.5;"/>
    <path clip-path="url(#pd69f235188)" d="M 692.292647 403.549658 
L 692.292647 178.285015 
" style="fill:none;stroke:#64b5cd;stroke-width:0.5;"/>
    <path clip-path="url(#pd69f235188)" d="M 756.138626 367.771085 
L 756.138626 139.306272 
" style="fill:none;stroke:#64b5cd;stroke-width:0.5;"/>
    <path clip-path="url(#pd69f235188)" d="M 598.961717 443.679979 
L 598.961717 214.93916 
" style="fill:none;stroke:#64b5cd;stroke-width:0.5;"/>
    <path clip-path="url(#pd69f235188)" d="M 778.646057 353.319623 
L 778.646057 122.899303 
" style="fill:none;stroke:#64b5cd;stroke-width:0.5;"/>
    <path clip-path="url(#pd69f235188)" d="M 544.182092 471.413059 
L 544.182092 242.801689 
" style="fill:none;stroke:#64b5cd;stroke-width:0.5;"/>
    <path clip-path="url(#pd69f235188)" d="M 693.257771 384.154682 
L 693.257771 157.152234 
" style="fill:none;stroke:#64b5cd;stroke-width:0.5;"/>
    <path clip-path="url(#pd69f235188)" d="M 685.730074 440.634681 
L 685.730074 214.911853 
" style="fill:none;stroke:#64b5cd;stroke-width:0.5;"/>
    <path clip-path="url(#pd69f235188)" d="M 807.744476 415.311804 
L 807.744476 190.869924 
" style="fill:none;stroke:#64b5cd;stroke-width:0.5;"/>
    <path clip-path="url(#pd69f235188)" d="M 611.326338 460.602313 
L 611.326338 229.687589 
" style="fill:none;stroke:#64b5cd;stroke-width:0.5;"/>
    <path clip-path="url(#pd69f235188)" d="M 937.996402 329.881289 
L 937.996402 92.526179 
" style="fill:none;stroke:#64b5cd;stroke-width:0.5;"/>
    <path clip-path="url(#pd69f235188)" d="M 639.89417 422.620992 
L 639.89417 192.990534 
" style="fill:none;stroke:#64b5cd;stroke-width:0.5;"/>
    <path clip-path="url(#pd69f235188)" d="M 1052.782717 324.296801 
L 1052.782717 98.269783 
" style="fill:none;stroke:#64b5cd;stroke-width:0.5;"/>
    <path clip-path="url(#pd69f235188)" d="M 605.715899 404.252692 
L 605.715899 177.644779 
" style="fill:none;stroke:#64b5cd;stroke-width:0.5;"/>
    <path clip-path="url(#pd69f235188)" d="M 749.485169 345.479774 
L 749.485169 120.723707 
" style="fill:none;stroke:#64b5cd;stroke-width:0.5;"/>
    <path clip-path="url(#pd69f235188)" d="M 814.659172 376.878643 
L 814.659172 149.932605 
" style="fill:none;stroke:#64b5cd;stroke-width:0.5;"/>
    <path clip-path="url(#pd69f235188)" d="M 705.952769 403.965933 
L 705.952769 177.20717 
" style="fill:none;stroke:#64b5cd;stroke-width:0.5;"/>
   </g>
   <g id="line2d_13">
    <path clip-path="url(#pd69f235188)" d="M 117.92 610.05 
L 1120.08 59.45 
" style="fill:none;stroke:#c44e52;stroke-linecap:round;stroke-width:1.5;"/>
   </g>
   <g id="line2d_14">
    <defs>
     <path d="M 0 3 
C 0.795609 3 1.55874 2.683901 2.12132 2.12132 
C 2.683901 1.55874 3 0.795609 3 0 
C 3 -0.795609 2.683901 -1.55874 2.12132 -2.12132 
C 1.55874 -2.683901 0.795609 -3 0 -3 
C -0.795609 -3 -1.55874 -2.683901 -2.12132 -2.12132 
C -2.683901 -1.55874 -3 -0.795609 -3 0 
C -3 0.795609 -2.683901 1.55874 -2.12132 2.12132 
C -1.55874 2.683901 -0.795609 3 0 3 
z
" id="m9942f6b29d" style="stroke:#8172b3;"/>
    </defs>
    <g clip-path="url(#pd69f235188)">
     <use style="fill:#8172b3;stroke:#8172b3;" x="117.92" xlink:href="#m9942f6b29d" y="352.674583"/>
     <use style="fill:#8172b3;stroke:#8172b3;" x="798.959017" xlink:href="#m9942f6b29d" y="294.03349"/>
     <use style="fill:#8172b3;stroke:#8172b3;" x="452.105374" xlink:href="#m9942f6b29d" y="386.181558"/>
     <use style="fill:#8172b3;stroke:#8172b3;" x="559.952838" xlink:href="#m9942f6b29d" y="376.9923"/>
     <use style="fill:#8172b3;stroke:#8172b3;" x="536.123613" xlink:href="#m9942f6b29d" y="314.577322"/>
     <use style="fill:#8172b3;stroke:#8172b3;" x="657.177899" xlink:href="#m9942f6b29d" y="269.324129"/>
     <use style="fill:#8172b3;stroke:#8172b3;" x="639.014524" xlink:href="#m9942f6b29d" y="259.369598"/>
     <use style="fill:#8172b3;stroke:#8172b3;" x="749.421771" xlink:href="#m9942f6b29d" y="235.738441"/>
     <use style="fill:#8172b3;stroke:#8172b3;" x="634.174968" xlink:href="#m9942f6b29d" y="327.334262"/>
     <use style="fill:#8172b3;stroke:#8172b3;" x="768.269828" xlink:href="#m9942f6b29d" y="340.446203"/>
     <use style="fill:#8172b3;stroke:#8172b3;" x="672.926382" xlink:href="#m9942f6b29d" y="320.262694"/>
     <use style="fill:#8172b3;stroke:#8172b3;" x="731.865921" xlink:href="#m9942f6b29d" y="291.635693"/>
     <use style="fill:#8172b3;stroke:#8172b3;" x="601.45943" xlink:href="#m9942f6b29d" y="361.91573"/>
     <use style="fill:#8172b3;stroke:#8172b3;" x="755.229653" xlink:href="#m9942f6b29d" y="227.287296"/>
     <use style="fill:#8172b3;stroke:#8172b3;" x="614.473486" xlink:href="#m9942f6b29d" y="255.699365"/>
     <use style="fill:#8172b3;stroke:#8172b3;" x="1092.693533" xlink:href="#m9942f6b29d" y="242.851275"/>
     <use style="fill:#8172b3;stroke:#8172b3;" x="802.633176" xlink:href="#m9942f6b29d" y="268.127836"/>
     <use style="fill:#8172b3;stroke:#8172b3;" x="325.163292" xlink:href="#m9942f6b29d" y="333.388574"/>
     <use style="fill:#8172b3;stroke:#8172b3;" x="924.038377" xlink:href="#m9942f6b29d" y="215.2275"/>
     <use style="fill:#8172b3;stroke:#8172b3;" x="469.853078" xlink:href="#m9942f6b29d" y="355.821516"/>
     <use style="fill:#8172b3;stroke:#8172b3;" x="755.84455" xlink:href="#m9942f6b29d" y="331.629317"/>
     <use style="fill:#8172b3;stroke:#8172b3;" x="743.457029" xlink:href="#m9942f6b29d" y="267.186479"/>
     <use style="fill:#8172b3;stroke:#8172b3;" x="862.338316" xlink:href="#m9942f6b29d" y="253.650021"/>
     <use style="fill:#8172b3;stroke:#8172b3;" x="728.406379" xlink:href="#m9942f6b29d" y="345.93963"/>
     <use style="fill:#8172b3;stroke:#8172b3;" x="967.18947" xlink:href="#m9942f6b29d" y="262.158677"/>
     <use style="fill:#8172b3;stroke:#8172b3;" x="497.572419" xlink:href="#m9942f6b29d" y="250.177884"/>
     <use style="fill:#8172b3;stroke:#8172b3;" x="867.680396" xlink:href="#m9942f6b29d" y="313.586959"/>
     <use style="fill:#8172b3;stroke:#8172b3;" x="1120.08" xlink:href="#m9942f6b29d" y="206.558357"/>
     <use style="fill:#8172b3;stroke:#8172b3;" x="450.003035" xlink:href="#m9942f6b29d" y="340.497759"/>
     <use style="fill:#8172b3;stroke:#8172b3;" x="876.675278" xlink:href="#m9942f6b29d" y="289.125438"/>
     <use style="fill:#8172b3;stroke:#8172b3;" x="683.341616" xlink:href="#m9942f6b29d" y="225.896341"/>
     <use style="fill:#8172b3;stroke:#8172b3;" x="912.880843" xlink:href="#m9942f6b29d" y="311.089178"/>
    </g>
   </g>
   <g id="line2d_15">
    <defs>
     <path d="M 0 3 
C 0.795609 3 1.55874 2.683901 2.12132 2.12132 
C 2.683901 1.55874 3 0.795609 3 0 
C 3 -0.795609 2.683901 -1.55874 2.12132 -2.12132 
C 1.55874 -2.683901 0.795609 -3 0 -3 
C -0.795609 -3 -1.55874 -2.683901 -2.12132 -2.12132 
C -2.683901 -1.55874 -3 -0.795609 -3 0 
C -3 0.795609 -2.683901 1.55874 -2.12132 2.12132 
C -1.55874 2.683901 -0.795609 3 0 3 
z
" id="mf9f2ed10e5" style="stroke:#64b5cd;"/>
    </defs>
    <g clip-path="url(#pd69f235188)">
     <use style="fill:#64b5cd;stroke:#64b5cd;" x="792.161213" xlink:href="#mf9f2ed10e5" y="229.507657"/>
     <use style="fill:#64b5cd;stroke:#64b5cd;" x="648.610151" xlink:href="#mf9f2ed10e5" y="281.887122"/>
     <use style="fill:#64b5cd;stroke:#64b5cd;" x="637.54621" xlink:href="#mf9f2ed10e5" y="361.874911"/>
     <use style="fill:#64b5cd;stroke:#64b5cd;" x="712.535656" xlink:href="#mf9f2ed10e5" y="313.79174"/>
     <use style="fill:#64b5cd;stroke:#64b5cd;" x="593.812976" xlink:href="#mf9f2ed10e5" y="305.497821"/>
     <use style="fill:#64b5cd;stroke:#64b5cd;" x="781.134802" xlink:href="#mf9f2ed10e5" y="307.959571"/>
     <use style="fill:#64b5cd;stroke:#64b5cd;" x="707.807426" xlink:href="#mf9f2ed10e5" y="285.717615"/>
     <use style="fill:#64b5cd;stroke:#64b5cd;" x="1056.996367" xlink:href="#mf9f2ed10e5" y="230.495606"/>
     <use style="fill:#64b5cd;stroke:#64b5cd;" x="581.37178" xlink:href="#mf9f2ed10e5" y="325.022506"/>
     <use style="fill:#64b5cd;stroke:#64b5cd;" x="969.024981" xlink:href="#mf9f2ed10e5" y="258.417331"/>
     <use style="fill:#64b5cd;stroke:#64b5cd;" x="540.968528" xlink:href="#mf9f2ed10e5" y="289.069355"/>
     <use style="fill:#64b5cd;stroke:#64b5cd;" x="724.139816" xlink:href="#mf9f2ed10e5" y="214.41687"/>
     <use style="fill:#64b5cd;stroke:#64b5cd;" x="867.042598" xlink:href="#mf9f2ed10e5" y="238.366845"/>
     <use style="fill:#64b5cd;stroke:#64b5cd;" x="734.972726" xlink:href="#mf9f2ed10e5" y="367.9318"/>
     <use style="fill:#64b5cd;stroke:#64b5cd;" x="413.515325" xlink:href="#mf9f2ed10e5" y="367.157688"/>
     <use style="fill:#64b5cd;stroke:#64b5cd;" x="857.666881" xlink:href="#mf9f2ed10e5" y="212.231353"/>
     <use style="fill:#64b5cd;stroke:#64b5cd;" x="864.392408" xlink:href="#mf9f2ed10e5" y="261.495989"/>
     <use style="fill:#64b5cd;stroke:#64b5cd;" x="809.798468" xlink:href="#mf9f2ed10e5" y="284.092892"/>
     <use style="fill:#64b5cd;stroke:#64b5cd;" x="695.508044" xlink:href="#mf9f2ed10e5" y="308.708201"/>
     <use style="fill:#64b5cd;stroke:#64b5cd;" x="673.05976" xlink:href="#mf9f2ed10e5" y="317.165424"/>
     <use style="fill:#64b5cd;stroke:#64b5cd;" x="902.352795" xlink:href="#mf9f2ed10e5" y="209.168621"/>
     <use style="fill:#64b5cd;stroke:#64b5cd;" x="825.065379" xlink:href="#mf9f2ed10e5" y="203.356069"/>
     <use style="fill:#64b5cd;stroke:#64b5cd;" x="711.386023" xlink:href="#mf9f2ed10e5" y="335.341959"/>
     <use style="fill:#64b5cd;stroke:#64b5cd;" x="801.2768" xlink:href="#mf9f2ed10e5" y="217.501851"/>
     <use style="fill:#64b5cd;stroke:#64b5cd;" x="651.681236" xlink:href="#mf9f2ed10e5" y="348.657844"/>
     <use style="fill:#64b5cd;stroke:#64b5cd;" x="623.012607" xlink:href="#mf9f2ed10e5" y="337.117167"/>
     <use style="fill:#64b5cd;stroke:#64b5cd;" x="691.731093" xlink:href="#mf9f2ed10e5" y="289.982079"/>
     <use style="fill:#64b5cd;stroke:#64b5cd;" x="625.97177" xlink:href="#mf9f2ed10e5" y="305.815911"/>
     <use style="fill:#64b5cd;stroke:#64b5cd;" x="562.561823" xlink:href="#mf9f2ed10e5" y="348.562168"/>
     <use style="fill:#64b5cd;stroke:#64b5cd;" x="429.972056" xlink:href="#mf9f2ed10e5" y="339.171876"/>
     <use style="fill:#64b5cd;stroke:#64b5cd;" x="736.061238" xlink:href="#mf9f2ed10e5" y="273.146905"/>
     <use style="fill:#64b5cd;stroke:#64b5cd;" x="470.715584" xlink:href="#mf9f2ed10e5" y="372.262509"/>
     <use style="fill:#64b5cd;stroke:#64b5cd;" x="618.683244" xlink:href="#mf9f2ed10e5" y="275.915135"/>
     <use style="fill:#64b5cd;stroke:#64b5cd;" x="413.983836" xlink:href="#mf9f2ed10e5" y="388.841891"/>
     <use style="fill:#64b5cd;stroke:#64b5cd;" x="564.534363" xlink:href="#mf9f2ed10e5" y="356.025934"/>
     <use style="fill:#64b5cd;stroke:#64b5cd;" x="442.761625" xlink:href="#mf9f2ed10e5" y="378.623129"/>
     <use style="fill:#64b5cd;stroke:#64b5cd;" x="611.449322" xlink:href="#mf9f2ed10e5" y="323.072458"/>
     <use style="fill:#64b5cd;stroke:#64b5cd;" x="753.267439" xlink:href="#mf9f2ed10e5" y="298.983453"/>
     <use style="fill:#64b5cd;stroke:#64b5cd;" x="858.023324" xlink:href="#mf9f2ed10e5" y="296.685925"/>
     <use style="fill:#64b5cd;stroke:#64b5cd;" x="587.299779" xlink:href="#mf9f2ed10e5" y="386.68984"/>
     <use style="fill:#64b5cd;stroke:#64b5cd;" x="787.866758" xlink:href="#mf9f2ed10e5" y="294.509998"/>
     <use style="fill:#64b5cd;stroke:#64b5cd;" x="672.75529" xlink:href="#mf9f2ed10e5" y="214.664968"/>
     <use style="fill:#64b5cd;stroke:#64b5cd;" x="874.170766" xlink:href="#mf9f2ed10e5" y="244.749255"/>
     <use style="fill:#64b5cd;stroke:#64b5cd;" x="653.474485" xlink:href="#mf9f2ed10e5" y="285.293287"/>
     <use style="fill:#64b5cd;stroke:#64b5cd;" x="883.46035" xlink:href="#mf9f2ed10e5" y="215.96198"/>
     <use style="fill:#64b5cd;stroke:#64b5cd;" x="743.457478" xlink:href="#mf9f2ed10e5" y="233.829552"/>
     <use style="fill:#64b5cd;stroke:#64b5cd;" x="790.271014" xlink:href="#mf9f2ed10e5" y="209.586064"/>
     <use style="fill:#64b5cd;stroke:#64b5cd;" x="587.964503" xlink:href="#mf9f2ed10e5" y="300.249424"/>
     <use style="fill:#64b5cd;stroke:#64b5cd;" x="561.267364" xlink:href="#mf9f2ed10e5" y="349.57551"/>
     <use style="fill:#64b5cd;stroke:#64b5cd;" x="799.321856" xlink:href="#mf9f2ed10e5" y="247.002721"/>
     <use style="fill:#64b5cd;stroke:#64b5cd;" x="674.003245" xlink:href="#mf9f2ed10e5" y="232.686234"/>
     <use style="fill:#64b5cd;stroke:#64b5cd;" x="607.356306" xlink:href="#mf9f2ed10e5" y="362.741648"/>
     <use style="fill:#64b5cd;stroke:#64b5cd;" x="627.490103" xlink:href="#mf9f2ed10e5" y="289.182647"/>
     <use style="fill:#64b5cd;stroke:#64b5cd;" x="739.786888" xlink:href="#mf9f2ed10e5" y="297.193097"/>
     <use style="fill:#64b5cd;stroke:#64b5cd;" x="740.102341" xlink:href="#mf9f2ed10e5" y="240.108241"/>
     <use style="fill:#64b5cd;stroke:#64b5cd;" x="397.030886" xlink:href="#mf9f2ed10e5" y="332.646708"/>
     <use style="fill:#64b5cd;stroke:#64b5cd;" x="790.379762" xlink:href="#mf9f2ed10e5" y="217.966865"/>
     <use style="fill:#64b5cd;stroke:#64b5cd;" x="716.713024" xlink:href="#mf9f2ed10e5" y="205.921211"/>
     <use style="fill:#64b5cd;stroke:#64b5cd;" x="699.051852" xlink:href="#mf9f2ed10e5" y="297.503801"/>
     <use style="fill:#64b5cd;stroke:#64b5cd;" x="872.659791" xlink:href="#mf9f2ed10e5" y="203.14652"/>
     <use style="fill:#64b5cd;stroke:#64b5cd;" x="466.13918" xlink:href="#mf9f2ed10e5" y="341.057639"/>
     <use style="fill:#64b5cd;stroke:#64b5cd;" x="573.727725" xlink:href="#mf9f2ed10e5" y="345.177841"/>
     <use style="fill:#64b5cd;stroke:#64b5cd;" x="676.899418" xlink:href="#mf9f2ed10e5" y="317.296327"/>
     <use style="fill:#64b5cd;stroke:#64b5cd;" x="697.648895" xlink:href="#mf9f2ed10e5" y="278.331128"/>
     <use style="fill:#64b5cd;stroke:#64b5cd;" x="615.400962" xlink:href="#mf9f2ed10e5" y="282.933006"/>
     <use style="fill:#64b5cd;stroke:#64b5cd;" x="819.562145" xlink:href="#mf9f2ed10e5" y="283.773495"/>
     <use style="fill:#64b5cd;stroke:#64b5cd;" x="477.995083" xlink:href="#mf9f2ed10e5" y="331.910558"/>
     <use style="fill:#64b5cd;stroke:#64b5cd;" x="866.498757" xlink:href="#mf9f2ed10e5" y="215.606875"/>
     <use style="fill:#64b5cd;stroke:#64b5cd;" x="453.975874" xlink:href="#mf9f2ed10e5" y="384.256489"/>
     <use style="fill:#64b5cd;stroke:#64b5cd;" x="731.90158" xlink:href="#mf9f2ed10e5" y="267.574851"/>
     <use style="fill:#64b5cd;stroke:#64b5cd;" x="710.543408" xlink:href="#mf9f2ed10e5" y="367.488709"/>
     <use style="fill:#64b5cd;stroke:#64b5cd;" x="1045.188189" xlink:href="#mf9f2ed10e5" y="205.15297"/>
     <use style="fill:#64b5cd;stroke:#64b5cd;" x="954.300083" xlink:href="#mf9f2ed10e5" y="207.46309"/>
     <use style="fill:#64b5cd;stroke:#64b5cd;" x="546.96979" xlink:href="#mf9f2ed10e5" y="380.110735"/>
     <use style="fill:#64b5cd;stroke:#64b5cd;" x="752.065438" xlink:href="#mf9f2ed10e5" y="322.258196"/>
     <use style="fill:#64b5cd;stroke:#64b5cd;" x="861.642119" xlink:href="#mf9f2ed10e5" y="201.382715"/>
     <use style="fill:#64b5cd;stroke:#64b5cd;" x="604.091773" xlink:href="#mf9f2ed10e5" y="372.371404"/>
     <use style="fill:#64b5cd;stroke:#64b5cd;" x="668.811787" xlink:href="#mf9f2ed10e5" y="259.682485"/>
     <use style="fill:#64b5cd;stroke:#64b5cd;" x="694.69707" xlink:href="#mf9f2ed10e5" y="249.370302"/>
     <use style="fill:#64b5cd;stroke:#64b5cd;" x="781.322363" xlink:href="#mf9f2ed10e5" y="281.725898"/>
     <use style="fill:#64b5cd;stroke:#64b5cd;" x="692.292647" xlink:href="#mf9f2ed10e5" y="290.917337"/>
     <use style="fill:#64b5cd;stroke:#64b5cd;" x="756.138626" xlink:href="#mf9f2ed10e5" y="253.538678"/>
     <use style="fill:#64b5cd;stroke:#64b5cd;" x="598.961717" xlink:href="#mf9f2ed10e5" y="329.309569"/>
     <use style="fill:#64b5cd;stroke:#64b5cd;" x="778.646057" xlink:href="#mf9f2ed10e5" y="238.109463"/>
     <use style="fill:#64b5cd;stroke:#64b5cd;" x="544.182092" xlink:href="#mf9f2ed10e5" y="357.107374"/>
     <use style="fill:#64b5cd;stroke:#64b5cd;" x="693.257771" xlink:href="#mf9f2ed10e5" y="270.653458"/>
     <use style="fill:#64b5cd;stroke:#64b5cd;" x="685.730074" xlink:href="#mf9f2ed10e5" y="327.773267"/>
     <use style="fill:#64b5cd;stroke:#64b5cd;" x="807.744476" xlink:href="#mf9f2ed10e5" y="303.090864"/>
     <use style="fill:#64b5cd;stroke:#64b5cd;" x="611.326338" xlink:href="#mf9f2ed10e5" y="345.144951"/>
     <use style="fill:#64b5cd;stroke:#64b5cd;" x="937.996402" xlink:href="#mf9f2ed10e5" y="211.203734"/>
     <use style="fill:#64b5cd;stroke:#64b5cd;" x="639.89417" xlink:href="#mf9f2ed10e5" y="307.805763"/>
     <use style="fill:#64b5cd;stroke:#64b5cd;" x="1052.782717" xlink:href="#mf9f2ed10e5" y="211.283292"/>
     <use style="fill:#64b5cd;stroke:#64b5cd;" x="605.715899" xlink:href="#mf9f2ed10e5" y="290.948735"/>
     <use style="fill:#64b5cd;stroke:#64b5cd;" x="749.485169" xlink:href="#mf9f2ed10e5" y="233.101741"/>
     <use style="fill:#64b5cd;stroke:#64b5cd;" x="814.659172" xlink:href="#mf9f2ed10e5" y="263.405624"/>
     <use style="fill:#64b5cd;stroke:#64b5cd;" x="705.952769" xlink:href="#mf9f2ed10e5" y="290.586552"/>
    </g>
   </g>
   <g id="patch_3">
    <path d="M 117.92 637.58 
L 117.92 31.92 
" style="fill:none;stroke:#cccccc;stroke-linecap:square;stroke-linejoin:miter;stroke-width:1.25;"/>
   </g>
   <g id="patch_4">
    <path d="M 1120.08 637.58 
L 1120.08 31.92 
" style="fill:none;stroke:#cccccc;stroke-linecap:square;stroke-linejoin:miter;stroke-width:1.25;"/>
   </g>
   <g id="patch_5">
    <path d="M 117.92 637.58 
L 1120.08 637.58 
" style="fill:none;stroke:#cccccc;stroke-linecap:square;stroke-linejoin:miter;stroke-width:1.25;"/>
   </g>
   <g id="patch_6">
    <path d="M 117.92 31.92 
L 1120.08 31.92 
" style="fill:none;stroke:#cccccc;stroke-linecap:square;stroke-linejoin:miter;stroke-width:1.25;"/>
   </g>
  </g>
 </g>
 <defs>
  <clipPath id="pd69f235188">
   <rect height="605.66" width="1002.16" x="117.92" y="31.92"/>
  </clipPath>
 </defs>
</svg>
