<?xml version="1.0" encoding="utf-8" standalone="no"?>
<!DOCTYPE svg PUBLIC "-//W3C//DTD SVG 1.1//EN"
  "http://www.w3.org/Graphics/SVG/1.1/DTD/svg11.dtd">
<!-- Created with matplotlib (https://matplotlib.org/) -->
<svg height="720pt" version="1.1" viewBox="0 0 1152 720" width="1152pt" xmlns="http://www.w3.org/2000/svg" xmlns:xlink="http://www.w3.org/1999/xlink">
 <defs>
  <style type="text/css">
*{stroke-linecap:butt;stroke-linejoin:round;}
  </style>
 </defs>
 <g id="figure_1">
  <g id="patch_1">
   <path d="M 0 720 
L 1152 720 
L 1152 0 
L 0 0 
z
" style="fill:#ffffff;"/>
  </g>
  <g id="axes_1">
   <g id="patch_2">
    <path d="M 102.8 652.7 
L 1135.2 652.7 
L 1135.2 16.8 
L 102.8 16.8 
z
" style="fill:#ffffff;"/>
   </g>
   <g id="matplotlib.axis_1">
    <g id="xtick_1">
     <g id="line2d_1">
      <path clip-path="url(#peecced8567)" d="M 146.039258 652.7 
L 146.039258 16.8 
" style="fill:none;stroke:#cccccc;stroke-linecap:round;"/>
     </g>
     <g id="text_1">
      <!-- −0.10 -->
      <defs>
       <path d="M 52.828125 31.203125 
L 5.5625 31.203125 
L 5.5625 39.40625 
L 52.828125 39.40625 
z
" id="ArialMT-8722"/>
       <path d="M 4.15625 35.296875 
Q 4.15625 48 6.765625 55.734375 
Q 9.375 63.484375 14.515625 67.671875 
Q 19.671875 71.875 27.484375 71.875 
Q 33.25 71.875 37.59375 69.546875 
Q 41.9375 67.234375 44.765625 62.859375 
Q 47.609375 58.5 49.21875 52.21875 
Q 50.828125 45.953125 50.828125 35.296875 
Q 50.828125 22.703125 48.234375 14.96875 
Q 45.65625 7.234375 40.5 3 
Q 35.359375 -1.21875 27.484375 -1.21875 
Q 17.140625 -1.21875 11.234375 6.203125 
Q 4.15625 15.140625 4.15625 35.296875 
z
M 13.1875 35.296875 
Q 13.1875 17.671875 17.3125 11.828125 
Q 21.4375 6 27.484375 6 
Q 33.546875 6 37.671875 11.859375 
Q 41.796875 17.71875 41.796875 35.296875 
Q 41.796875 52.984375 37.671875 58.78125 
Q 33.546875 64.59375 27.390625 64.59375 
Q 21.34375 64.59375 17.71875 59.46875 
Q 13.1875 52.9375 13.1875 35.296875 
z
" id="ArialMT-48"/>
       <path d="M 9.078125 0 
L 9.078125 10.015625 
L 19.09375 10.015625 
L 19.09375 0 
z
" id="ArialMT-46"/>
       <path d="M 37.25 0 
L 28.46875 0 
L 28.46875 56 
Q 25.296875 52.984375 20.140625 49.953125 
Q 14.984375 46.921875 10.890625 45.40625 
L 10.890625 53.90625 
Q 18.265625 57.375 23.78125 62.296875 
Q 29.296875 67.234375 31.59375 71.875 
L 37.25 71.875 
z
" id="ArialMT-49"/>
      </defs>
      <g style="fill:#262626;" transform="translate(118.207539 677.947188)scale(0.22 -0.22)">
       <use xlink:href="#ArialMT-8722"/>
       <use x="58.398438" xlink:href="#ArialMT-48"/>
       <use x="114.013672" xlink:href="#ArialMT-46"/>
       <use x="141.796875" xlink:href="#ArialMT-49"/>
       <use x="197.412109" xlink:href="#ArialMT-48"/>
      </g>
     </g>
    </g>
    <g id="xtick_2">
     <g id="line2d_2">
      <path clip-path="url(#peecced8567)" d="M 328.290269 652.7 
L 328.290269 16.8 
" style="fill:none;stroke:#cccccc;stroke-linecap:round;"/>
     </g>
     <g id="text_2">
      <!-- −0.05 -->
      <defs>
       <path d="M 4.15625 18.75 
L 13.375 19.53125 
Q 14.40625 12.796875 18.140625 9.390625 
Q 21.875 6 27.15625 6 
Q 33.5 6 37.890625 10.78125 
Q 42.28125 15.578125 42.28125 23.484375 
Q 42.28125 31 38.0625 35.34375 
Q 33.84375 39.703125 27 39.703125 
Q 22.75 39.703125 19.328125 37.765625 
Q 15.921875 35.84375 13.96875 32.765625 
L 5.71875 33.84375 
L 12.640625 70.609375 
L 48.25 70.609375 
L 48.25 62.203125 
L 19.671875 62.203125 
L 15.828125 42.96875 
Q 22.265625 47.46875 29.34375 47.46875 
Q 38.71875 47.46875 45.15625 40.96875 
Q 51.609375 34.46875 51.609375 24.265625 
Q 51.609375 14.546875 45.953125 7.46875 
Q 39.0625 -1.21875 27.15625 -1.21875 
Q 17.390625 -1.21875 11.203125 4.25 
Q 5.03125 9.71875 4.15625 18.75 
z
" id="ArialMT-53"/>
      </defs>
      <g style="fill:#262626;" transform="translate(300.458551 677.947188)scale(0.22 -0.22)">
       <use xlink:href="#ArialMT-8722"/>
       <use x="58.398438" xlink:href="#ArialMT-48"/>
       <use x="114.013672" xlink:href="#ArialMT-46"/>
       <use x="141.796875" xlink:href="#ArialMT-48"/>
       <use x="197.412109" xlink:href="#ArialMT-53"/>
      </g>
     </g>
    </g>
    <g id="xtick_3">
     <g id="line2d_3">
      <path clip-path="url(#peecced8567)" d="M 510.54128 652.7 
L 510.54128 16.8 
" style="fill:none;stroke:#cccccc;stroke-linecap:round;"/>
     </g>
     <g id="text_3">
      <!-- 0.00 -->
      <g style="fill:#262626;" transform="translate(489.134249 677.947188)scale(0.22 -0.22)">
       <use xlink:href="#ArialMT-48"/>
       <use x="55.615234" xlink:href="#ArialMT-46"/>
       <use x="83.398438" xlink:href="#ArialMT-48"/>
       <use x="139.013672" xlink:href="#ArialMT-48"/>
      </g>
     </g>
    </g>
    <g id="xtick_4">
     <g id="line2d_4">
      <path clip-path="url(#peecced8567)" d="M 692.792292 652.7 
L 692.792292 16.8 
" style="fill:none;stroke:#cccccc;stroke-linecap:round;"/>
     </g>
     <g id="text_4">
      <!-- 0.05 -->
      <g style="fill:#262626;" transform="translate(671.38526 677.947188)scale(0.22 -0.22)">
       <use xlink:href="#ArialMT-48"/>
       <use x="55.615234" xlink:href="#ArialMT-46"/>
       <use x="83.398438" xlink:href="#ArialMT-48"/>
       <use x="139.013672" xlink:href="#ArialMT-53"/>
      </g>
     </g>
    </g>
    <g id="xtick_5">
     <g id="line2d_5">
      <path clip-path="url(#peecced8567)" d="M 875.043303 652.7 
L 875.043303 16.8 
" style="fill:none;stroke:#cccccc;stroke-linecap:round;"/>
     </g>
     <g id="text_5">
      <!-- 0.10 -->
      <g style="fill:#262626;" transform="translate(853.636272 677.947188)scale(0.22 -0.22)">
       <use xlink:href="#ArialMT-48"/>
       <use x="55.615234" xlink:href="#ArialMT-46"/>
       <use x="83.398438" xlink:href="#ArialMT-49"/>
       <use x="139.013672" xlink:href="#ArialMT-48"/>
      </g>
     </g>
    </g>
    <g id="xtick_6">
     <g id="line2d_6">
      <path clip-path="url(#peecced8567)" d="M 1057.294314 652.7 
L 1057.294314 16.8 
" style="fill:none;stroke:#cccccc;stroke-linecap:round;"/>
     </g>
     <g id="text_6">
      <!-- 0.15 -->
      <g style="fill:#262626;" transform="translate(1035.887283 677.947188)scale(0.22 -0.22)">
       <use xlink:href="#ArialMT-48"/>
       <use x="55.615234" xlink:href="#ArialMT-46"/>
       <use x="83.398438" xlink:href="#ArialMT-49"/>
       <use x="139.013672" xlink:href="#ArialMT-53"/>
      </g>
     </g>
    </g>
    <g id="text_7">
     <!-- Yerr -->
     <defs>
      <path d="M 27.875 0 
L 27.875 30.328125 
L 0.296875 71.578125 
L 11.8125 71.578125 
L 25.921875 50 
Q 29.828125 43.953125 33.203125 37.890625 
Q 36.421875 43.5 41.015625 50.53125 
L 54.890625 71.578125 
L 65.921875 71.578125 
L 37.359375 30.328125 
L 37.359375 0 
z
" id="ArialMT-89"/>
      <path d="M 42.09375 16.703125 
L 51.171875 15.578125 
Q 49.03125 7.625 43.21875 3.21875 
Q 37.40625 -1.171875 28.375 -1.171875 
Q 17 -1.171875 10.328125 5.828125 
Q 3.65625 12.84375 3.65625 25.484375 
Q 3.65625 38.578125 10.390625 45.796875 
Q 17.140625 53.03125 27.875 53.03125 
Q 38.28125 53.03125 44.875 45.953125 
Q 51.46875 38.875 51.46875 26.03125 
Q 51.46875 25.25 51.421875 23.6875 
L 12.75 23.6875 
Q 13.234375 15.140625 17.578125 10.59375 
Q 21.921875 6.0625 28.421875 6.0625 
Q 33.25 6.0625 36.671875 8.59375 
Q 40.09375 11.140625 42.09375 16.703125 
z
M 13.234375 30.90625 
L 42.1875 30.90625 
Q 41.609375 37.453125 38.875 40.71875 
Q 34.671875 45.796875 27.984375 45.796875 
Q 21.921875 45.796875 17.796875 41.75 
Q 13.671875 37.703125 13.234375 30.90625 
z
" id="ArialMT-101"/>
      <path d="M 6.5 0 
L 6.5 51.859375 
L 14.40625 51.859375 
L 14.40625 44 
Q 17.4375 49.515625 20 51.265625 
Q 22.5625 53.03125 25.640625 53.03125 
Q 30.078125 53.03125 34.671875 50.203125 
L 31.640625 42.046875 
Q 28.421875 43.953125 25.203125 43.953125 
Q 22.3125 43.953125 20.015625 42.21875 
Q 17.71875 40.484375 16.75 37.40625 
Q 15.28125 32.71875 15.28125 27.15625 
L 15.28125 0 
z
" id="ArialMT-114"/>
     </defs>
     <g style="fill:#262626;" transform="translate(596.348125 703.498438)scale(0.24 -0.24)">
      <use xlink:href="#ArialMT-89"/>
      <use x="66.558594" xlink:href="#ArialMT-101"/>
      <use x="122.173828" xlink:href="#ArialMT-114"/>
      <use x="155.474609" xlink:href="#ArialMT-114"/>
     </g>
    </g>
   </g>
   <g id="matplotlib.axis_2">
    <g id="ytick_1">
     <g id="line2d_7">
      <path clip-path="url(#peecced8567)" d="M 102.8 599.583694 
L 1135.2 599.583694 
" style="fill:none;stroke:#cccccc;stroke-linecap:round;"/>
     </g>
     <g id="text_8">
      <!-- −0.10 -->
      <g style="fill:#262626;" transform="translate(37.636562 607.457287)scale(0.22 -0.22)">
       <use xlink:href="#ArialMT-8722"/>
       <use x="58.398438" xlink:href="#ArialMT-48"/>
       <use x="114.013672" xlink:href="#ArialMT-46"/>
       <use x="141.796875" xlink:href="#ArialMT-49"/>
       <use x="197.412109" xlink:href="#ArialMT-48"/>
      </g>
     </g>
    </g>
    <g id="ytick_2">
     <g id="line2d_8">
      <path clip-path="url(#peecced8567)" d="M 102.8 497.532499 
L 1135.2 497.532499 
" style="fill:none;stroke:#cccccc;stroke-linecap:round;"/>
     </g>
     <g id="text_9">
      <!-- −0.05 -->
      <g style="fill:#262626;" transform="translate(37.636562 505.406093)scale(0.22 -0.22)">
       <use xlink:href="#ArialMT-8722"/>
       <use x="58.398438" xlink:href="#ArialMT-48"/>
       <use x="114.013672" xlink:href="#ArialMT-46"/>
       <use x="141.796875" xlink:href="#ArialMT-48"/>
       <use x="197.412109" xlink:href="#ArialMT-53"/>
      </g>
     </g>
    </g>
    <g id="ytick_3">
     <g id="line2d_9">
      <path clip-path="url(#peecced8567)" d="M 102.8 395.481305 
L 1135.2 395.481305 
" style="fill:none;stroke:#cccccc;stroke-linecap:round;"/>
     </g>
     <g id="text_10">
      <!-- 0.00 -->
      <g style="fill:#262626;" transform="translate(50.485937 403.354899)scale(0.22 -0.22)">
       <use xlink:href="#ArialMT-48"/>
       <use x="55.615234" xlink:href="#ArialMT-46"/>
       <use x="83.398438" xlink:href="#ArialMT-48"/>
       <use x="139.013672" xlink:href="#ArialMT-48"/>
      </g>
     </g>
    </g>
    <g id="ytick_4">
     <g id="line2d_10">
      <path clip-path="url(#peecced8567)" d="M 102.8 293.430111 
L 1135.2 293.430111 
" style="fill:none;stroke:#cccccc;stroke-linecap:round;"/>
     </g>
     <g id="text_11">
      <!-- 0.05 -->
      <g style="fill:#262626;" transform="translate(50.485937 301.303705)scale(0.22 -0.22)">
       <use xlink:href="#ArialMT-48"/>
       <use x="55.615234" xlink:href="#ArialMT-46"/>
       <use x="83.398438" xlink:href="#ArialMT-48"/>
       <use x="139.013672" xlink:href="#ArialMT-53"/>
      </g>
     </g>
    </g>
    <g id="ytick_5">
     <g id="line2d_11">
      <path clip-path="url(#peecced8567)" d="M 102.8 191.378917 
L 1135.2 191.378917 
" style="fill:none;stroke:#cccccc;stroke-linecap:round;"/>
     </g>
     <g id="text_12">
      <!-- 0.10 -->
      <g style="fill:#262626;" transform="translate(50.485937 199.252511)scale(0.22 -0.22)">
       <use xlink:href="#ArialMT-48"/>
       <use x="55.615234" xlink:href="#ArialMT-46"/>
       <use x="83.398438" xlink:href="#ArialMT-49"/>
       <use x="139.013672" xlink:href="#ArialMT-48"/>
      </g>
     </g>
    </g>
    <g id="ytick_6">
     <g id="line2d_12">
      <path clip-path="url(#peecced8567)" d="M 102.8 89.327723 
L 1135.2 89.327723 
" style="fill:none;stroke:#cccccc;stroke-linecap:round;"/>
     </g>
     <g id="text_13">
      <!-- 0.15 -->
      <g style="fill:#262626;" transform="translate(50.485937 97.201317)scale(0.22 -0.22)">
       <use xlink:href="#ArialMT-48"/>
       <use x="55.615234" xlink:href="#ArialMT-46"/>
       <use x="83.398438" xlink:href="#ArialMT-49"/>
       <use x="139.013672" xlink:href="#ArialMT-53"/>
      </g>
     </g>
    </g>
    <g id="text_14">
     <!-- Predicted -->
     <defs>
      <path d="M 7.71875 0 
L 7.71875 71.578125 
L 34.71875 71.578125 
Q 41.84375 71.578125 45.609375 70.90625 
Q 50.875 70.015625 54.4375 67.546875 
Q 58.015625 65.09375 60.1875 60.640625 
Q 62.359375 56.203125 62.359375 50.875 
Q 62.359375 41.75 56.546875 35.421875 
Q 50.734375 29.109375 35.546875 29.109375 
L 17.1875 29.109375 
L 17.1875 0 
z
M 17.1875 37.546875 
L 35.6875 37.546875 
Q 44.875 37.546875 48.734375 40.96875 
Q 52.59375 44.390625 52.59375 50.59375 
Q 52.59375 55.078125 50.3125 58.265625 
Q 48.046875 61.46875 44.34375 62.5 
Q 41.9375 63.140625 35.5 63.140625 
L 17.1875 63.140625 
z
" id="ArialMT-80"/>
      <path d="M 40.234375 0 
L 40.234375 6.546875 
Q 35.296875 -1.171875 25.734375 -1.171875 
Q 19.53125 -1.171875 14.328125 2.25 
Q 9.125 5.671875 6.265625 11.796875 
Q 3.421875 17.921875 3.421875 25.875 
Q 3.421875 33.640625 6 39.96875 
Q 8.59375 46.296875 13.765625 49.65625 
Q 18.953125 53.03125 25.34375 53.03125 
Q 30.03125 53.03125 33.6875 51.046875 
Q 37.359375 49.078125 39.65625 45.90625 
L 39.65625 71.578125 
L 48.390625 71.578125 
L 48.390625 0 
z
M 12.453125 25.875 
Q 12.453125 15.921875 16.640625 10.984375 
Q 20.84375 6.0625 26.5625 6.0625 
Q 32.328125 6.0625 36.34375 10.765625 
Q 40.375 15.484375 40.375 25.140625 
Q 40.375 35.796875 36.265625 40.765625 
Q 32.171875 45.75 26.171875 45.75 
Q 20.3125 45.75 16.375 40.96875 
Q 12.453125 36.1875 12.453125 25.875 
z
" id="ArialMT-100"/>
      <path d="M 6.640625 61.46875 
L 6.640625 71.578125 
L 15.4375 71.578125 
L 15.4375 61.46875 
z
M 6.640625 0 
L 6.640625 51.859375 
L 15.4375 51.859375 
L 15.4375 0 
z
" id="ArialMT-105"/>
      <path d="M 40.4375 19 
L 49.078125 17.875 
Q 47.65625 8.9375 41.8125 3.875 
Q 35.984375 -1.171875 27.484375 -1.171875 
Q 16.84375 -1.171875 10.375 5.78125 
Q 3.90625 12.75 3.90625 25.734375 
Q 3.90625 34.125 6.6875 40.421875 
Q 9.46875 46.734375 15.15625 49.875 
Q 20.84375 53.03125 27.546875 53.03125 
Q 35.984375 53.03125 41.359375 48.75 
Q 46.734375 44.484375 48.25 36.625 
L 39.703125 35.296875 
Q 38.484375 40.53125 35.375 43.15625 
Q 32.28125 45.796875 27.875 45.796875 
Q 21.234375 45.796875 17.078125 41.03125 
Q 12.9375 36.28125 12.9375 25.984375 
Q 12.9375 15.53125 16.9375 10.796875 
Q 20.953125 6.0625 27.390625 6.0625 
Q 32.5625 6.0625 36.03125 9.234375 
Q 39.5 12.40625 40.4375 19 
z
" id="ArialMT-99"/>
      <path d="M 25.78125 7.859375 
L 27.046875 0.09375 
Q 23.34375 -0.6875 20.40625 -0.6875 
Q 15.625 -0.6875 12.984375 0.828125 
Q 10.359375 2.34375 9.28125 4.8125 
Q 8.203125 7.28125 8.203125 15.1875 
L 8.203125 45.015625 
L 1.765625 45.015625 
L 1.765625 51.859375 
L 8.203125 51.859375 
L 8.203125 64.703125 
L 16.9375 69.96875 
L 16.9375 51.859375 
L 25.78125 51.859375 
L 25.78125 45.015625 
L 16.9375 45.015625 
L 16.9375 14.703125 
Q 16.9375 10.9375 17.40625 9.859375 
Q 17.875 8.796875 18.921875 8.15625 
Q 19.96875 7.515625 21.921875 7.515625 
Q 23.390625 7.515625 25.78125 7.859375 
z
" id="ArialMT-116"/>
     </defs>
     <g style="fill:#262626;" transform="translate(28.866562 385.4425)rotate(-90)scale(0.24 -0.24)">
      <use xlink:href="#ArialMT-80"/>
      <use x="66.699219" xlink:href="#ArialMT-114"/>
      <use x="100" xlink:href="#ArialMT-101"/>
      <use x="155.615234" xlink:href="#ArialMT-100"/>
      <use x="211.230469" xlink:href="#ArialMT-105"/>
      <use x="233.447266" xlink:href="#ArialMT-99"/>
      <use x="283.447266" xlink:href="#ArialMT-116"/>
      <use x="311.230469" xlink:href="#ArialMT-101"/>
      <use x="366.845703" xlink:href="#ArialMT-100"/>
     </g>
    </g>
   </g>
   <g id="LineCollection_1">
    <path clip-path="url(#peecced8567)" d="M 376.561645 570.29823 
L 376.561645 220.664381 
" style="fill:none;stroke:#8172b3;stroke-width:0.5;"/>
    <path clip-path="url(#peecced8567)" d="M 1135.2 570.29823 
L 1135.2 220.664381 
" style="fill:none;stroke:#8172b3;stroke-width:0.5;"/>
    <path clip-path="url(#peecced8567)" d="M 233.801393 570.29823 
L 233.801393 220.664381 
" style="fill:none;stroke:#8172b3;stroke-width:0.5;"/>
    <path clip-path="url(#peecced8567)" d="M 102.8 570.29823 
L 102.8 220.664381 
" style="fill:none;stroke:#8172b3;stroke-width:0.5;"/>
    <path clip-path="url(#peecced8567)" d="M 355.291374 570.29823 
L 355.291374 220.664381 
" style="fill:none;stroke:#8172b3;stroke-width:0.5;"/>
    <path clip-path="url(#peecced8567)" d="M 455.865437 570.29823 
L 455.865437 220.664381 
" style="fill:none;stroke:#8172b3;stroke-width:0.5;"/>
    <path clip-path="url(#peecced8567)" d="M 560.18366 570.29823 
L 560.18366 220.664381 
" style="fill:none;stroke:#8172b3;stroke-width:0.5;"/>
    <path clip-path="url(#peecced8567)" d="M 776.060783 570.29823 
L 776.060783 220.664381 
" style="fill:none;stroke:#8172b3;stroke-width:0.5;"/>
    <path clip-path="url(#peecced8567)" d="M 538.887293 570.29823 
L 538.887293 220.664381 
" style="fill:none;stroke:#8172b3;stroke-width:0.5;"/>
    <path clip-path="url(#peecced8567)" d="M 670.445633 570.29823 
L 670.445633 220.664381 
" style="fill:none;stroke:#8172b3;stroke-width:0.5;"/>
    <path clip-path="url(#peecced8567)" d="M 516.89284 570.29823 
L 516.89284 220.664381 
" style="fill:none;stroke:#8172b3;stroke-width:0.5;"/>
    <path clip-path="url(#peecced8567)" d="M 603.980634 570.29823 
L 603.980634 220.664381 
" style="fill:none;stroke:#8172b3;stroke-width:0.5;"/>
    <path clip-path="url(#peecced8567)" d="M 283.805775 570.29823 
L 283.805775 220.664381 
" style="fill:none;stroke:#8172b3;stroke-width:0.5;"/>
    <path clip-path="url(#peecced8567)" d="M 638.535733 570.29823 
L 638.535733 220.664381 
" style="fill:none;stroke:#8172b3;stroke-width:0.5;"/>
    <path clip-path="url(#peecced8567)" d="M 396.781747 570.29823 
L 396.781747 220.664381 
" style="fill:none;stroke:#8172b3;stroke-width:0.5;"/>
    <path clip-path="url(#peecced8567)" d="M 873.832584 570.29823 
L 873.832584 220.664381 
" style="fill:none;stroke:#8172b3;stroke-width:0.5;"/>
    <path clip-path="url(#peecced8567)" d="M 899.72785 570.29823 
L 899.72785 220.664381 
" style="fill:none;stroke:#8172b3;stroke-width:0.5;"/>
    <path clip-path="url(#peecced8567)" d="M 640.649937 570.29823 
L 640.649937 220.664381 
" style="fill:none;stroke:#8172b3;stroke-width:0.5;"/>
    <path clip-path="url(#peecced8567)" d="M 468.844775 570.29823 
L 468.844775 220.664381 
" style="fill:none;stroke:#8172b3;stroke-width:0.5;"/>
    <path clip-path="url(#peecced8567)" d="M 359.048753 570.29823 
L 359.048753 220.664381 
" style="fill:none;stroke:#8172b3;stroke-width:0.5;"/>
    <path clip-path="url(#peecced8567)" d="M 510.344757 570.29823 
L 510.344757 220.664381 
" style="fill:none;stroke:#8172b3;stroke-width:0.5;"/>
    <path clip-path="url(#peecced8567)" d="M 430.830124 570.29823 
L 430.830124 220.664381 
" style="fill:none;stroke:#8172b3;stroke-width:0.5;"/>
    <path clip-path="url(#peecced8567)" d="M 143.103782 570.29823 
L 143.103782 220.664381 
" style="fill:none;stroke:#8172b3;stroke-width:0.5;"/>
    <path clip-path="url(#peecced8567)" d="M 171.866551 570.29823 
L 171.866551 220.664381 
" style="fill:none;stroke:#8172b3;stroke-width:0.5;"/>
    <path clip-path="url(#peecced8567)" d="M 994.471206 570.29823 
L 994.471206 220.664381 
" style="fill:none;stroke:#8172b3;stroke-width:0.5;"/>
    <path clip-path="url(#peecced8567)" d="M 433.27033 570.29823 
L 433.27033 220.664381 
" style="fill:none;stroke:#8172b3;stroke-width:0.5;"/>
    <path clip-path="url(#peecced8567)" d="M 562.696016 570.29823 
L 562.696016 220.664381 
" style="fill:none;stroke:#8172b3;stroke-width:0.5;"/>
    <path clip-path="url(#peecced8567)" d="M 813.114864 570.29823 
L 813.114864 220.664381 
" style="fill:none;stroke:#8172b3;stroke-width:0.5;"/>
    <path clip-path="url(#peecced8567)" d="M 858.365218 570.29823 
L 858.365218 220.664381 
" style="fill:none;stroke:#8172b3;stroke-width:0.5;"/>
    <path clip-path="url(#peecced8567)" d="M 238.106167 570.29823 
L 238.106167 220.664381 
" style="fill:none;stroke:#8172b3;stroke-width:0.5;"/>
    <path clip-path="url(#peecced8567)" d="M 659.342714 570.29823 
L 659.342714 220.664381 
" style="fill:none;stroke:#8172b3;stroke-width:0.5;"/>
    <path clip-path="url(#peecced8567)" d="M 684.6778 570.29823 
L 684.6778 220.664381 
" style="fill:none;stroke:#8172b3;stroke-width:0.5;"/>
   </g>
   <g id="LineCollection_2">
    <path clip-path="url(#peecced8567)" d="M 568.855801 554.270054 
L 568.855801 218.49077 
" style="fill:none;stroke:#64b5cd;stroke-width:0.5;"/>
    <path clip-path="url(#peecced8567)" d="M 536.437547 559.32943 
L 536.437547 223.550146 
" style="fill:none;stroke:#64b5cd;stroke-width:0.5;"/>
    <path clip-path="url(#peecced8567)" d="M 484.549854 567.427317 
L 484.549854 231.648032 
" style="fill:none;stroke:#64b5cd;stroke-width:0.5;"/>
    <path clip-path="url(#peecced8567)" d="M 523.363073 561.369906 
L 523.363073 225.590622 
" style="fill:none;stroke:#64b5cd;stroke-width:0.5;"/>
    <path clip-path="url(#peecced8567)" d="M 381.905056 583.446643 
L 381.905056 247.667359 
" style="fill:none;stroke:#64b5cd;stroke-width:0.5;"/>
    <path clip-path="url(#peecced8567)" d="M 504.109507 564.374727 
L 504.109507 228.595442 
" style="fill:none;stroke:#64b5cd;stroke-width:0.5;"/>
    <path clip-path="url(#peecced8567)" d="M 553.318656 556.694869 
L 553.318656 220.915584 
" style="fill:none;stroke:#64b5cd;stroke-width:0.5;"/>
    <path clip-path="url(#peecced8567)" d="M 762.516746 524.046234 
L 762.516746 188.266949 
" style="fill:none;stroke:#64b5cd;stroke-width:0.5;"/>
    <path clip-path="url(#peecced8567)" d="M 486.794721 567.07697 
L 486.794721 231.297685 
" style="fill:none;stroke:#64b5cd;stroke-width:0.5;"/>
    <path clip-path="url(#peecced8567)" d="M 700.656506 533.700492 
L 700.656506 197.921208 
" style="fill:none;stroke:#64b5cd;stroke-width:0.5;"/>
    <path clip-path="url(#peecced8567)" d="M 522.950824 561.434244 
L 522.950824 225.65496 
" style="fill:none;stroke:#64b5cd;stroke-width:0.5;"/>
    <path clip-path="url(#peecced8567)" d="M 644.371401 542.484663 
L 644.371401 206.705379 
" style="fill:none;stroke:#64b5cd;stroke-width:0.5;"/>
    <path clip-path="url(#peecced8567)" d="M 794.34604 519.078775 
L 794.34604 183.29949 
" style="fill:none;stroke:#64b5cd;stroke-width:0.5;"/>
    <path clip-path="url(#peecced8567)" d="M 316.984087 593.578576 
L 316.984087 257.799292 
" style="fill:none;stroke:#64b5cd;stroke-width:0.5;"/>
    <path clip-path="url(#peecced8567)" d="M 182.695982 614.536336 
L 182.695982 278.757052 
" style="fill:none;stroke:#64b5cd;stroke-width:0.5;"/>
    <path clip-path="url(#peecced8567)" d="M 646.956805 542.081171 
L 646.956805 206.301886 
" style="fill:none;stroke:#64b5cd;stroke-width:0.5;"/>
    <path clip-path="url(#peecced8567)" d="M 635.160912 543.922104 
L 635.160912 208.14282 
" style="fill:none;stroke:#64b5cd;stroke-width:0.5;"/>
    <path clip-path="url(#peecced8567)" d="M 606.970683 548.321631 
L 606.970683 212.542346 
" style="fill:none;stroke:#64b5cd;stroke-width:0.5;"/>
    <path clip-path="url(#peecced8567)" d="M 478.991554 568.294776 
L 478.991554 232.515492 
" style="fill:none;stroke:#64b5cd;stroke-width:0.5;"/>
    <path clip-path="url(#peecced8567)" d="M 547.049359 557.673291 
L 547.049359 221.894006 
" style="fill:none;stroke:#64b5cd;stroke-width:0.5;"/>
    <path clip-path="url(#peecced8567)" d="M 621.035852 546.126541 
L 621.035852 210.347256 
" style="fill:none;stroke:#64b5cd;stroke-width:0.5;"/>
    <path clip-path="url(#peecced8567)" d="M 878.710103 505.912443 
L 878.710103 170.133158 
" style="fill:none;stroke:#64b5cd;stroke-width:0.5;"/>
    <path clip-path="url(#peecced8567)" d="M 544.88407 558.011218 
L 544.88407 222.231934 
" style="fill:none;stroke:#64b5cd;stroke-width:0.5;"/>
    <path clip-path="url(#peecced8567)" d="M 755.610888 525.124001 
L 755.610888 189.344716 
" style="fill:none;stroke:#64b5cd;stroke-width:0.5;"/>
    <path clip-path="url(#peecced8567)" d="M 371.517763 585.067743 
L 371.517763 249.288458 
" style="fill:none;stroke:#64b5cd;stroke-width:0.5;"/>
    <path clip-path="url(#peecced8567)" d="M 457.331832 571.675115 
L 457.331832 235.89583 
" style="fill:none;stroke:#64b5cd;stroke-width:0.5;"/>
    <path clip-path="url(#peecced8567)" d="M 597.704595 549.767749 
L 597.704595 213.988464 
" style="fill:none;stroke:#64b5cd;stroke-width:0.5;"/>
    <path clip-path="url(#peecced8567)" d="M 340.450856 589.91622 
L 340.450856 254.136935 
" style="fill:none;stroke:#64b5cd;stroke-width:0.5;"/>
    <path clip-path="url(#peecced8567)" d="M 280.525393 599.268526 
L 280.525393 263.489241 
" style="fill:none;stroke:#64b5cd;stroke-width:0.5;"/>
    <path clip-path="url(#peecced8567)" d="M 422.568449 577.100485 
L 422.568449 241.3212 
" style="fill:none;stroke:#64b5cd;stroke-width:0.5;"/>
    <path clip-path="url(#peecced8567)" d="M 500.40232 564.953291 
L 500.40232 229.174007 
" style="fill:none;stroke:#64b5cd;stroke-width:0.5;"/>
    <path clip-path="url(#peecced8567)" d="M 229.778237 607.188414 
L 229.778237 271.409129 
" style="fill:none;stroke:#64b5cd;stroke-width:0.5;"/>
    <path clip-path="url(#peecced8567)" d="M 509.614506 563.515585 
L 509.614506 227.736301 
" style="fill:none;stroke:#64b5cd;stroke-width:0.5;"/>
    <path clip-path="url(#peecced8567)" d="M 298.038147 596.535387 
L 298.038147 260.756102 
" style="fill:none;stroke:#64b5cd;stroke-width:0.5;"/>
    <path clip-path="url(#peecced8567)" d="M 238.171553 605.878505 
L 238.171553 270.099221 
" style="fill:none;stroke:#64b5cd;stroke-width:0.5;"/>
    <path clip-path="url(#peecced8567)" d="M 195.0262 612.612013 
L 195.0262 276.832728 
" style="fill:none;stroke:#64b5cd;stroke-width:0.5;"/>
    <path clip-path="url(#peecced8567)" d="M 421.16901 577.318889 
L 421.16901 241.539604 
" style="fill:none;stroke:#64b5cd;stroke-width:0.5;"/>
    <path clip-path="url(#peecced8567)" d="M 475.894769 568.778078 
L 475.894769 232.998793 
" style="fill:none;stroke:#64b5cd;stroke-width:0.5;"/>
    <path clip-path="url(#peecced8567)" d="M 588.584928 551.191015 
L 588.584928 215.411731 
" style="fill:none;stroke:#64b5cd;stroke-width:0.5;"/>
    <path clip-path="url(#peecced8567)" d="M 365.491283 586.008269 
L 365.491283 250.228985 
" style="fill:none;stroke:#64b5cd;stroke-width:0.5;"/>
    <path clip-path="url(#peecced8567)" d="M 552.321767 556.850449 
L 552.321767 221.071165 
" style="fill:none;stroke:#64b5cd;stroke-width:0.5;"/>
    <path clip-path="url(#peecced8567)" d="M 494.542011 565.867884 
L 494.542011 230.0886 
" style="fill:none;stroke:#64b5cd;stroke-width:0.5;"/>
    <path clip-path="url(#peecced8567)" d="M 634.756294 543.985251 
L 634.756294 208.205967 
" style="fill:none;stroke:#64b5cd;stroke-width:0.5;"/>
    <path clip-path="url(#peecced8567)" d="M 331.62449 591.293712 
L 331.62449 255.514428 
" style="fill:none;stroke:#64b5cd;stroke-width:0.5;"/>
    <path clip-path="url(#peecced8567)" d="M 516.237516 562.481961 
L 516.237516 226.702676 
" style="fill:none;stroke:#64b5cd;stroke-width:0.5;"/>
    <path clip-path="url(#peecced8567)" d="M 587.253536 551.3988 
L 587.253536 215.619516 
" style="fill:none;stroke:#64b5cd;stroke-width:0.5;"/>
    <path clip-path="url(#peecced8567)" d="M 387.263668 582.610348 
L 387.263668 246.831063 
" style="fill:none;stroke:#64b5cd;stroke-width:0.5;"/>
    <path clip-path="url(#peecced8567)" d="M 360.2149 586.831732 
L 360.2149 251.052447 
" style="fill:none;stroke:#64b5cd;stroke-width:0.5;"/>
    <path clip-path="url(#peecced8567)" d="M 260.306224 602.424044 
L 260.306224 266.644759 
" style="fill:none;stroke:#64b5cd;stroke-width:0.5;"/>
    <path clip-path="url(#peecced8567)" d="M 585.134633 551.729488 
L 585.134633 215.950203 
" style="fill:none;stroke:#64b5cd;stroke-width:0.5;"/>
    <path clip-path="url(#peecced8567)" d="M 556.105605 556.259922 
L 556.105605 220.480637 
" style="fill:none;stroke:#64b5cd;stroke-width:0.5;"/>
    <path clip-path="url(#peecced8567)" d="M 464.430749 570.567218 
L 464.430749 234.787933 
" style="fill:none;stroke:#64b5cd;stroke-width:0.5;"/>
    <path clip-path="url(#peecced8567)" d="M 353.413385 587.893214 
L 353.413385 252.11393 
" style="fill:none;stroke:#64b5cd;stroke-width:0.5;"/>
    <path clip-path="url(#peecced8567)" d="M 456.993976 571.727842 
L 456.993976 235.948558 
" style="fill:none;stroke:#64b5cd;stroke-width:0.5;"/>
    <path clip-path="url(#peecced8567)" d="M 670.605276 538.390457 
L 670.605276 202.611172 
" style="fill:none;stroke:#64b5cd;stroke-width:0.5;"/>
    <path clip-path="url(#peecced8567)" d="M 505.958124 564.086221 
L 505.958124 228.306936 
" style="fill:none;stroke:#64b5cd;stroke-width:0.5;"/>
    <path clip-path="url(#peecced8567)" d="M 652.911198 541.151895 
L 652.911198 205.37261 
" style="fill:none;stroke:#64b5cd;stroke-width:0.5;"/>
    <path clip-path="url(#peecced8567)" d="M 685.659137 536.041066 
L 685.659137 200.261782 
" style="fill:none;stroke:#64b5cd;stroke-width:0.5;"/>
    <path clip-path="url(#peecced8567)" d="M 696.155599 534.402929 
L 696.155599 198.623645 
" style="fill:none;stroke:#64b5cd;stroke-width:0.5;"/>
    <path clip-path="url(#peecced8567)" d="M 834.84289 512.758607 
L 834.84289 176.979323 
" style="fill:none;stroke:#64b5cd;stroke-width:0.5;"/>
    <path clip-path="url(#peecced8567)" d="M 193.653763 612.826203 
L 193.653763 277.046918 
" style="fill:none;stroke:#64b5cd;stroke-width:0.5;"/>
    <path clip-path="url(#peecced8567)" d="M 509.864061 563.476638 
L 509.864061 227.697354 
" style="fill:none;stroke:#64b5cd;stroke-width:0.5;"/>
    <path clip-path="url(#peecced8567)" d="M 446.299933 573.396815 
L 446.299933 237.617531 
" style="fill:none;stroke:#64b5cd;stroke-width:0.5;"/>
    <path clip-path="url(#peecced8567)" d="M 575.22454 553.276113 
L 575.22454 217.496828 
" style="fill:none;stroke:#64b5cd;stroke-width:0.5;"/>
    <path clip-path="url(#peecced8567)" d="M 588.934867 551.136402 
L 588.934867 215.357117 
" style="fill:none;stroke:#64b5cd;stroke-width:0.5;"/>
    <path clip-path="url(#peecced8567)" d="M 615.726854 546.955093 
L 615.726854 211.175809 
" style="fill:none;stroke:#64b5cd;stroke-width:0.5;"/>
    <path clip-path="url(#peecced8567)" d="M 441.368374 574.166462 
L 441.368374 238.387178 
" style="fill:none;stroke:#64b5cd;stroke-width:0.5;"/>
    <path clip-path="url(#peecced8567)" d="M 773.778497 522.288661 
L 773.778497 186.509377 
" style="fill:none;stroke:#64b5cd;stroke-width:0.5;"/>
    <path clip-path="url(#peecced8567)" d="M 209.409196 610.367321 
L 209.409196 274.588037 
" style="fill:none;stroke:#64b5cd;stroke-width:0.5;"/>
    <path clip-path="url(#peecced8567)" d="M 593.723397 550.389077 
L 593.723397 214.609792 
" style="fill:none;stroke:#64b5cd;stroke-width:0.5;"/>
    <path clip-path="url(#peecced8567)" d="M 417.850677 577.836767 
L 417.850677 242.057482 
" style="fill:none;stroke:#64b5cd;stroke-width:0.5;"/>
    <path clip-path="url(#peecced8567)" d="M 738.938555 527.725979 
L 738.938555 191.946695 
" style="fill:none;stroke:#64b5cd;stroke-width:0.5;"/>
    <path clip-path="url(#peecced8567)" d="M 671.137682 538.307366 
L 671.137682 202.528082 
" style="fill:none;stroke:#64b5cd;stroke-width:0.5;"/>
    <path clip-path="url(#peecced8567)" d="M 379.26024 583.859408 
L 379.26024 248.080124 
" style="fill:none;stroke:#64b5cd;stroke-width:0.5;"/>
    <path clip-path="url(#peecced8567)" d="M 340.447628 589.916724 
L 340.447628 254.137439 
" style="fill:none;stroke:#64b5cd;stroke-width:0.5;"/>
    <path clip-path="url(#peecced8567)" d="M 709.550668 532.312419 
L 709.550668 196.533135 
" style="fill:none;stroke:#64b5cd;stroke-width:0.5;"/>
    <path clip-path="url(#peecced8567)" d="M 372.810061 584.86606 
L 372.810061 249.086775 
" style="fill:none;stroke:#64b5cd;stroke-width:0.5;"/>
    <path clip-path="url(#peecced8567)" d="M 332.931903 591.08967 
L 332.931903 255.310386 
" style="fill:none;stroke:#64b5cd;stroke-width:0.5;"/>
    <path clip-path="url(#peecced8567)" d="M 476.061033 568.75213 
L 476.061033 232.972845 
" style="fill:none;stroke:#64b5cd;stroke-width:0.5;"/>
    <path clip-path="url(#peecced8567)" d="M 427.195999 576.378283 
L 427.195999 240.598998 
" style="fill:none;stroke:#64b5cd;stroke-width:0.5;"/>
    <path clip-path="url(#peecced8567)" d="M 567.376244 554.500962 
L 567.376244 218.721678 
" style="fill:none;stroke:#64b5cd;stroke-width:0.5;"/>
    <path clip-path="url(#peecced8567)" d="M 684.468154 536.226938 
L 684.468154 200.447653 
" style="fill:none;stroke:#64b5cd;stroke-width:0.5;"/>
    <path clip-path="url(#peecced8567)" d="M 405.785359 579.719748 
L 405.785359 243.940464 
" style="fill:none;stroke:#64b5cd;stroke-width:0.5;"/>
    <path clip-path="url(#peecced8567)" d="M 471.404913 569.47879 
L 471.404913 233.699506 
" style="fill:none;stroke:#64b5cd;stroke-width:0.5;"/>
    <path clip-path="url(#peecced8567)" d="M 378.623455 583.958789 
L 378.623455 248.179504 
" style="fill:none;stroke:#64b5cd;stroke-width:0.5;"/>
    <path clip-path="url(#peecced8567)" d="M 572.071663 553.768169 
L 572.071663 217.988884 
" style="fill:none;stroke:#64b5cd;stroke-width:0.5;"/>
    <path clip-path="url(#peecced8567)" d="M 394.065439 581.548825 
L 394.065439 245.769541 
" style="fill:none;stroke:#64b5cd;stroke-width:0.5;"/>
    <path clip-path="url(#peecced8567)" d="M 381.486993 583.511889 
L 381.486993 247.732604 
" style="fill:none;stroke:#64b5cd;stroke-width:0.5;"/>
    <path clip-path="url(#peecced8567)" d="M 435.142678 575.138079 
L 435.142678 239.358795 
" style="fill:none;stroke:#64b5cd;stroke-width:0.5;"/>
    <path clip-path="url(#peecced8567)" d="M 768.291886 523.144933 
L 768.291886 187.365648 
" style="fill:none;stroke:#64b5cd;stroke-width:0.5;"/>
    <path clip-path="url(#peecced8567)" d="M 408.595127 579.28124 
L 408.595127 243.501956 
" style="fill:none;stroke:#64b5cd;stroke-width:0.5;"/>
    <path clip-path="url(#peecced8567)" d="M 818.760201 515.268563 
L 818.760201 179.489278 
" style="fill:none;stroke:#64b5cd;stroke-width:0.5;"/>
    <path clip-path="url(#peecced8567)" d="M 450.168338 572.79309 
L 450.168338 237.013805 
" style="fill:none;stroke:#64b5cd;stroke-width:0.5;"/>
    <path clip-path="url(#peecced8567)" d="M 631.342571 544.518016 
L 631.342571 208.738732 
" style="fill:none;stroke:#64b5cd;stroke-width:0.5;"/>
    <path clip-path="url(#peecced8567)" d="M 609.235841 547.968117 
L 609.235841 212.188833 
" style="fill:none;stroke:#64b5cd;stroke-width:0.5;"/>
    <path clip-path="url(#peecced8567)" d="M 662.749291 539.616506 
L 662.749291 203.837222 
" style="fill:none;stroke:#64b5cd;stroke-width:0.5;"/>
   </g>
   <g id="line2d_13">
    <path clip-path="url(#peecced8567)" d="M 102.8 623.795455 
L 1135.2 45.704545 
" style="fill:none;stroke:#c44e52;stroke-linecap:round;stroke-width:1.5;"/>
   </g>
   <g id="line2d_14">
    <defs>
     <path d="M 0 3 
C 0.795609 3 1.55874 2.683901 2.12132 2.12132 
C 2.683901 1.55874 3 0.795609 3 0 
C 3 -0.795609 2.683901 -1.55874 2.12132 -2.12132 
C 1.55874 -2.683901 0.795609 -3 0 -3 
C -0.795609 -3 -1.55874 -2.683901 -2.12132 -2.12132 
C -2.683901 -1.55874 -3 -0.795609 -3 0 
C -3 0.795609 -2.683901 1.55874 -2.12132 2.12132 
C -1.55874 2.683901 -0.795609 3 0 3 
z
" id="m17b5b8675d" style="stroke:#8172b3;"/>
    </defs>
    <g clip-path="url(#peecced8567)">
     <use style="fill:#8172b3;stroke:#8172b3;" x="376.561645" xlink:href="#m17b5b8675d" y="395.481305"/>
     <use style="fill:#8172b3;stroke:#8172b3;" x="1135.2" xlink:href="#m17b5b8675d" y="395.481305"/>
     <use style="fill:#8172b3;stroke:#8172b3;" x="233.801393" xlink:href="#m17b5b8675d" y="395.481305"/>
     <use style="fill:#8172b3;stroke:#8172b3;" x="102.8" xlink:href="#m17b5b8675d" y="395.481305"/>
     <use style="fill:#8172b3;stroke:#8172b3;" x="355.291374" xlink:href="#m17b5b8675d" y="395.481305"/>
     <use style="fill:#8172b3;stroke:#8172b3;" x="455.865437" xlink:href="#m17b5b8675d" y="395.481305"/>
     <use style="fill:#8172b3;stroke:#8172b3;" x="560.18366" xlink:href="#m17b5b8675d" y="395.481305"/>
     <use style="fill:#8172b3;stroke:#8172b3;" x="776.060783" xlink:href="#m17b5b8675d" y="395.481305"/>
     <use style="fill:#8172b3;stroke:#8172b3;" x="538.887293" xlink:href="#m17b5b8675d" y="395.481305"/>
     <use style="fill:#8172b3;stroke:#8172b3;" x="670.445633" xlink:href="#m17b5b8675d" y="395.481305"/>
     <use style="fill:#8172b3;stroke:#8172b3;" x="516.89284" xlink:href="#m17b5b8675d" y="395.481305"/>
     <use style="fill:#8172b3;stroke:#8172b3;" x="603.980634" xlink:href="#m17b5b8675d" y="395.481305"/>
     <use style="fill:#8172b3;stroke:#8172b3;" x="283.805775" xlink:href="#m17b5b8675d" y="395.481305"/>
     <use style="fill:#8172b3;stroke:#8172b3;" x="638.535733" xlink:href="#m17b5b8675d" y="395.481305"/>
     <use style="fill:#8172b3;stroke:#8172b3;" x="396.781747" xlink:href="#m17b5b8675d" y="395.481305"/>
     <use style="fill:#8172b3;stroke:#8172b3;" x="873.832584" xlink:href="#m17b5b8675d" y="395.481305"/>
     <use style="fill:#8172b3;stroke:#8172b3;" x="899.72785" xlink:href="#m17b5b8675d" y="395.481305"/>
     <use style="fill:#8172b3;stroke:#8172b3;" x="640.649937" xlink:href="#m17b5b8675d" y="395.481305"/>
     <use style="fill:#8172b3;stroke:#8172b3;" x="468.844775" xlink:href="#m17b5b8675d" y="395.481305"/>
     <use style="fill:#8172b3;stroke:#8172b3;" x="359.048753" xlink:href="#m17b5b8675d" y="395.481305"/>
     <use style="fill:#8172b3;stroke:#8172b3;" x="510.344757" xlink:href="#m17b5b8675d" y="395.481305"/>
     <use style="fill:#8172b3;stroke:#8172b3;" x="430.830124" xlink:href="#m17b5b8675d" y="395.481305"/>
     <use style="fill:#8172b3;stroke:#8172b3;" x="143.103782" xlink:href="#m17b5b8675d" y="395.481305"/>
     <use style="fill:#8172b3;stroke:#8172b3;" x="171.866551" xlink:href="#m17b5b8675d" y="395.481305"/>
     <use style="fill:#8172b3;stroke:#8172b3;" x="994.471206" xlink:href="#m17b5b8675d" y="395.481305"/>
     <use style="fill:#8172b3;stroke:#8172b3;" x="433.27033" xlink:href="#m17b5b8675d" y="395.481305"/>
     <use style="fill:#8172b3;stroke:#8172b3;" x="562.696016" xlink:href="#m17b5b8675d" y="395.481305"/>
     <use style="fill:#8172b3;stroke:#8172b3;" x="813.114864" xlink:href="#m17b5b8675d" y="395.481305"/>
     <use style="fill:#8172b3;stroke:#8172b3;" x="858.365218" xlink:href="#m17b5b8675d" y="395.481305"/>
     <use style="fill:#8172b3;stroke:#8172b3;" x="238.106167" xlink:href="#m17b5b8675d" y="395.481305"/>
     <use style="fill:#8172b3;stroke:#8172b3;" x="659.342714" xlink:href="#m17b5b8675d" y="395.481305"/>
     <use style="fill:#8172b3;stroke:#8172b3;" x="684.6778" xlink:href="#m17b5b8675d" y="395.481305"/>
    </g>
   </g>
   <g id="line2d_15">
    <defs>
     <path d="M 0 3 
C 0.795609 3 1.55874 2.683901 2.12132 2.12132 
C 2.683901 1.55874 3 0.795609 3 0 
C 3 -0.795609 2.683901 -1.55874 2.12132 -2.12132 
C 1.55874 -2.683901 0.795609 -3 0 -3 
C -0.795609 -3 -1.55874 -2.683901 -2.12132 -2.12132 
C -2.683901 -1.55874 -3 -0.795609 -3 0 
C -3 0.795609 -2.683901 1.55874 -2.12132 2.12132 
C -1.55874 2.683901 -0.795609 3 0 3 
z
" id="ma1c123c532" style="stroke:#64b5cd;"/>
    </defs>
    <g clip-path="url(#peecced8567)">
     <use style="fill:#64b5cd;stroke:#64b5cd;" x="568.855801" xlink:href="#ma1c123c532" y="386.380412"/>
     <use style="fill:#64b5cd;stroke:#64b5cd;" x="536.437547" xlink:href="#ma1c123c532" y="391.439788"/>
     <use style="fill:#64b5cd;stroke:#64b5cd;" x="484.549854" xlink:href="#ma1c123c532" y="399.537674"/>
     <use style="fill:#64b5cd;stroke:#64b5cd;" x="523.363073" xlink:href="#ma1c123c532" y="393.480264"/>
     <use style="fill:#64b5cd;stroke:#64b5cd;" x="381.905056" xlink:href="#ma1c123c532" y="415.557001"/>
     <use style="fill:#64b5cd;stroke:#64b5cd;" x="504.109507" xlink:href="#ma1c123c532" y="396.485084"/>
     <use style="fill:#64b5cd;stroke:#64b5cd;" x="553.318656" xlink:href="#ma1c123c532" y="388.805227"/>
     <use style="fill:#64b5cd;stroke:#64b5cd;" x="762.516746" xlink:href="#ma1c123c532" y="356.156592"/>
     <use style="fill:#64b5cd;stroke:#64b5cd;" x="486.794721" xlink:href="#ma1c123c532" y="399.187328"/>
     <use style="fill:#64b5cd;stroke:#64b5cd;" x="700.656506" xlink:href="#ma1c123c532" y="365.81085"/>
     <use style="fill:#64b5cd;stroke:#64b5cd;" x="522.950824" xlink:href="#ma1c123c532" y="393.544602"/>
     <use style="fill:#64b5cd;stroke:#64b5cd;" x="644.371401" xlink:href="#ma1c123c532" y="374.595021"/>
     <use style="fill:#64b5cd;stroke:#64b5cd;" x="794.34604" xlink:href="#ma1c123c532" y="351.189132"/>
     <use style="fill:#64b5cd;stroke:#64b5cd;" x="316.984087" xlink:href="#ma1c123c532" y="425.688934"/>
     <use style="fill:#64b5cd;stroke:#64b5cd;" x="182.695982" xlink:href="#ma1c123c532" y="446.646694"/>
     <use style="fill:#64b5cd;stroke:#64b5cd;" x="646.956805" xlink:href="#ma1c123c532" y="374.191528"/>
     <use style="fill:#64b5cd;stroke:#64b5cd;" x="635.160912" xlink:href="#ma1c123c532" y="376.032462"/>
     <use style="fill:#64b5cd;stroke:#64b5cd;" x="606.970683" xlink:href="#ma1c123c532" y="380.431989"/>
     <use style="fill:#64b5cd;stroke:#64b5cd;" x="478.991554" xlink:href="#ma1c123c532" y="400.405134"/>
     <use style="fill:#64b5cd;stroke:#64b5cd;" x="547.049359" xlink:href="#ma1c123c532" y="389.783649"/>
     <use style="fill:#64b5cd;stroke:#64b5cd;" x="621.035852" xlink:href="#ma1c123c532" y="378.236899"/>
     <use style="fill:#64b5cd;stroke:#64b5cd;" x="878.710103" xlink:href="#ma1c123c532" y="338.0228"/>
     <use style="fill:#64b5cd;stroke:#64b5cd;" x="544.88407" xlink:href="#ma1c123c532" y="390.121576"/>
     <use style="fill:#64b5cd;stroke:#64b5cd;" x="755.610888" xlink:href="#ma1c123c532" y="357.234359"/>
     <use style="fill:#64b5cd;stroke:#64b5cd;" x="371.517763" xlink:href="#ma1c123c532" y="417.178101"/>
     <use style="fill:#64b5cd;stroke:#64b5cd;" x="457.331832" xlink:href="#ma1c123c532" y="403.785472"/>
     <use style="fill:#64b5cd;stroke:#64b5cd;" x="597.704595" xlink:href="#ma1c123c532" y="381.878107"/>
     <use style="fill:#64b5cd;stroke:#64b5cd;" x="340.450856" xlink:href="#ma1c123c532" y="422.026577"/>
     <use style="fill:#64b5cd;stroke:#64b5cd;" x="280.525393" xlink:href="#ma1c123c532" y="431.378884"/>
     <use style="fill:#64b5cd;stroke:#64b5cd;" x="422.568449" xlink:href="#ma1c123c532" y="409.210842"/>
     <use style="fill:#64b5cd;stroke:#64b5cd;" x="500.40232" xlink:href="#ma1c123c532" y="397.063649"/>
     <use style="fill:#64b5cd;stroke:#64b5cd;" x="229.778237" xlink:href="#ma1c123c532" y="439.298771"/>
     <use style="fill:#64b5cd;stroke:#64b5cd;" x="509.614506" xlink:href="#ma1c123c532" y="395.625943"/>
     <use style="fill:#64b5cd;stroke:#64b5cd;" x="298.038147" xlink:href="#ma1c123c532" y="428.645744"/>
     <use style="fill:#64b5cd;stroke:#64b5cd;" x="238.171553" xlink:href="#ma1c123c532" y="437.988863"/>
     <use style="fill:#64b5cd;stroke:#64b5cd;" x="195.0262" xlink:href="#ma1c123c532" y="444.72237"/>
     <use style="fill:#64b5cd;stroke:#64b5cd;" x="421.16901" xlink:href="#ma1c123c532" y="409.429247"/>
     <use style="fill:#64b5cd;stroke:#64b5cd;" x="475.894769" xlink:href="#ma1c123c532" y="400.888436"/>
     <use style="fill:#64b5cd;stroke:#64b5cd;" x="588.584928" xlink:href="#ma1c123c532" y="383.301373"/>
     <use style="fill:#64b5cd;stroke:#64b5cd;" x="365.491283" xlink:href="#ma1c123c532" y="418.118627"/>
     <use style="fill:#64b5cd;stroke:#64b5cd;" x="552.321767" xlink:href="#ma1c123c532" y="388.960807"/>
     <use style="fill:#64b5cd;stroke:#64b5cd;" x="494.542011" xlink:href="#ma1c123c532" y="397.978242"/>
     <use style="fill:#64b5cd;stroke:#64b5cd;" x="634.756294" xlink:href="#ma1c123c532" y="376.095609"/>
     <use style="fill:#64b5cd;stroke:#64b5cd;" x="331.62449" xlink:href="#ma1c123c532" y="423.40407"/>
     <use style="fill:#64b5cd;stroke:#64b5cd;" x="516.237516" xlink:href="#ma1c123c532" y="394.592319"/>
     <use style="fill:#64b5cd;stroke:#64b5cd;" x="587.253536" xlink:href="#ma1c123c532" y="383.509158"/>
     <use style="fill:#64b5cd;stroke:#64b5cd;" x="387.263668" xlink:href="#ma1c123c532" y="414.720706"/>
     <use style="fill:#64b5cd;stroke:#64b5cd;" x="360.2149" xlink:href="#ma1c123c532" y="418.942089"/>
     <use style="fill:#64b5cd;stroke:#64b5cd;" x="260.306224" xlink:href="#ma1c123c532" y="434.534401"/>
     <use style="fill:#64b5cd;stroke:#64b5cd;" x="585.134633" xlink:href="#ma1c123c532" y="383.839846"/>
     <use style="fill:#64b5cd;stroke:#64b5cd;" x="556.105605" xlink:href="#ma1c123c532" y="388.37028"/>
     <use style="fill:#64b5cd;stroke:#64b5cd;" x="464.430749" xlink:href="#ma1c123c532" y="402.677575"/>
     <use style="fill:#64b5cd;stroke:#64b5cd;" x="353.413385" xlink:href="#ma1c123c532" y="420.003572"/>
     <use style="fill:#64b5cd;stroke:#64b5cd;" x="456.993976" xlink:href="#ma1c123c532" y="403.8382"/>
     <use style="fill:#64b5cd;stroke:#64b5cd;" x="670.605276" xlink:href="#ma1c123c532" y="370.500815"/>
     <use style="fill:#64b5cd;stroke:#64b5cd;" x="505.958124" xlink:href="#ma1c123c532" y="396.196579"/>
     <use style="fill:#64b5cd;stroke:#64b5cd;" x="652.911198" xlink:href="#ma1c123c532" y="373.262252"/>
     <use style="fill:#64b5cd;stroke:#64b5cd;" x="685.659137" xlink:href="#ma1c123c532" y="368.151424"/>
     <use style="fill:#64b5cd;stroke:#64b5cd;" x="696.155599" xlink:href="#ma1c123c532" y="366.513287"/>
     <use style="fill:#64b5cd;stroke:#64b5cd;" x="834.84289" xlink:href="#ma1c123c532" y="344.868965"/>
     <use style="fill:#64b5cd;stroke:#64b5cd;" x="193.653763" xlink:href="#ma1c123c532" y="444.936561"/>
     <use style="fill:#64b5cd;stroke:#64b5cd;" x="509.864061" xlink:href="#ma1c123c532" y="395.586996"/>
     <use style="fill:#64b5cd;stroke:#64b5cd;" x="446.299933" xlink:href="#ma1c123c532" y="405.507173"/>
     <use style="fill:#64b5cd;stroke:#64b5cd;" x="575.22454" xlink:href="#ma1c123c532" y="385.386471"/>
     <use style="fill:#64b5cd;stroke:#64b5cd;" x="588.934867" xlink:href="#ma1c123c532" y="383.24676"/>
     <use style="fill:#64b5cd;stroke:#64b5cd;" x="615.726854" xlink:href="#ma1c123c532" y="379.065451"/>
     <use style="fill:#64b5cd;stroke:#64b5cd;" x="441.368374" xlink:href="#ma1c123c532" y="406.27682"/>
     <use style="fill:#64b5cd;stroke:#64b5cd;" x="773.778497" xlink:href="#ma1c123c532" y="354.399019"/>
     <use style="fill:#64b5cd;stroke:#64b5cd;" x="209.409196" xlink:href="#ma1c123c532" y="442.477679"/>
     <use style="fill:#64b5cd;stroke:#64b5cd;" x="593.723397" xlink:href="#ma1c123c532" y="382.499435"/>
     <use style="fill:#64b5cd;stroke:#64b5cd;" x="417.850677" xlink:href="#ma1c123c532" y="409.947124"/>
     <use style="fill:#64b5cd;stroke:#64b5cd;" x="738.938555" xlink:href="#ma1c123c532" y="359.836337"/>
     <use style="fill:#64b5cd;stroke:#64b5cd;" x="671.137682" xlink:href="#ma1c123c532" y="370.417724"/>
     <use style="fill:#64b5cd;stroke:#64b5cd;" x="379.26024" xlink:href="#ma1c123c532" y="415.969766"/>
     <use style="fill:#64b5cd;stroke:#64b5cd;" x="340.447628" xlink:href="#ma1c123c532" y="422.027081"/>
     <use style="fill:#64b5cd;stroke:#64b5cd;" x="709.550668" xlink:href="#ma1c123c532" y="364.422777"/>
     <use style="fill:#64b5cd;stroke:#64b5cd;" x="372.810061" xlink:href="#ma1c123c532" y="416.976417"/>
     <use style="fill:#64b5cd;stroke:#64b5cd;" x="332.931903" xlink:href="#ma1c123c532" y="423.200028"/>
     <use style="fill:#64b5cd;stroke:#64b5cd;" x="476.061033" xlink:href="#ma1c123c532" y="400.862488"/>
     <use style="fill:#64b5cd;stroke:#64b5cd;" x="427.195999" xlink:href="#ma1c123c532" y="408.488641"/>
     <use style="fill:#64b5cd;stroke:#64b5cd;" x="567.376244" xlink:href="#ma1c123c532" y="386.61132"/>
     <use style="fill:#64b5cd;stroke:#64b5cd;" x="684.468154" xlink:href="#ma1c123c532" y="368.337295"/>
     <use style="fill:#64b5cd;stroke:#64b5cd;" x="405.785359" xlink:href="#ma1c123c532" y="411.830106"/>
     <use style="fill:#64b5cd;stroke:#64b5cd;" x="471.404913" xlink:href="#ma1c123c532" y="401.589148"/>
     <use style="fill:#64b5cd;stroke:#64b5cd;" x="378.623455" xlink:href="#ma1c123c532" y="416.069146"/>
     <use style="fill:#64b5cd;stroke:#64b5cd;" x="572.071663" xlink:href="#ma1c123c532" y="385.878527"/>
     <use style="fill:#64b5cd;stroke:#64b5cd;" x="394.065439" xlink:href="#ma1c123c532" y="413.659183"/>
     <use style="fill:#64b5cd;stroke:#64b5cd;" x="381.486993" xlink:href="#ma1c123c532" y="415.622246"/>
     <use style="fill:#64b5cd;stroke:#64b5cd;" x="435.142678" xlink:href="#ma1c123c532" y="407.248437"/>
     <use style="fill:#64b5cd;stroke:#64b5cd;" x="768.291886" xlink:href="#ma1c123c532" y="355.255291"/>
     <use style="fill:#64b5cd;stroke:#64b5cd;" x="408.595127" xlink:href="#ma1c123c532" y="411.391598"/>
     <use style="fill:#64b5cd;stroke:#64b5cd;" x="818.760201" xlink:href="#ma1c123c532" y="347.37892"/>
     <use style="fill:#64b5cd;stroke:#64b5cd;" x="450.168338" xlink:href="#ma1c123c532" y="404.903448"/>
     <use style="fill:#64b5cd;stroke:#64b5cd;" x="631.342571" xlink:href="#ma1c123c532" y="376.628374"/>
     <use style="fill:#64b5cd;stroke:#64b5cd;" x="609.235841" xlink:href="#ma1c123c532" y="380.078475"/>
     <use style="fill:#64b5cd;stroke:#64b5cd;" x="662.749291" xlink:href="#ma1c123c532" y="371.726864"/>
    </g>
   </g>
   <g id="patch_3">
    <path d="M 102.8 652.7 
L 102.8 16.8 
" style="fill:none;stroke:#cccccc;stroke-linecap:square;stroke-linejoin:miter;stroke-width:1.25;"/>
   </g>
   <g id="patch_4">
    <path d="M 1135.2 652.7 
L 1135.2 16.8 
" style="fill:none;stroke:#cccccc;stroke-linecap:square;stroke-linejoin:miter;stroke-width:1.25;"/>
   </g>
   <g id="patch_5">
    <path d="M 102.8 652.7 
L 1135.2 652.7 
" style="fill:none;stroke:#cccccc;stroke-linecap:square;stroke-linejoin:miter;stroke-width:1.25;"/>
   </g>
   <g id="patch_6">
    <path d="M 102.8 16.8 
L 1135.2 16.8 
" style="fill:none;stroke:#cccccc;stroke-linecap:square;stroke-linejoin:miter;stroke-width:1.25;"/>
   </g>
  </g>
 </g>
 <defs>
  <clipPath id="peecced8567">
   <rect height="635.9" width="1032.4" x="102.8" y="16.8"/>
  </clipPath>
 </defs>
</svg>
