<?xml version="1.0" encoding="utf-8" standalone="no"?>
<!DOCTYPE svg PUBLIC "-//W3C//DTD SVG 1.1//EN"
  "http://www.w3.org/Graphics/SVG/1.1/DTD/svg11.dtd">
<!-- Created with matplotlib (https://matplotlib.org/) -->
<svg height="288pt" version="1.1" viewBox="0 0 432 288" width="432pt" xmlns="http://www.w3.org/2000/svg" xmlns:xlink="http://www.w3.org/1999/xlink">
 <defs>
  <style type="text/css">
*{stroke-linecap:butt;stroke-linejoin:round;}
  </style>
 </defs>
 <g id="figure_1">
  <g id="patch_1">
   <path d="M 0 288 
L 432 288 
L 432 0 
L 0 0 
z
" style="fill:#ffffff;"/>
  </g>
  <g id="axes_1">
   <g id="patch_2">
    <path d="M 54 252 
L 388.8 252 
L 388.8 34.56 
L 54 34.56 
z
" style="fill:#ffffff;"/>
   </g>
   <g id="matplotlib.axis_1">
    <g id="xtick_1">
     <g id="line2d_1">
      <path clip-path="url(#pf3ffd03561)" d="M 118.739645 252 
L 118.739645 34.56 
" style="fill:none;stroke:#cccccc;stroke-linecap:round;"/>
     </g>
     <g id="text_1">
      <!-- −2.5 -->
      <defs>
       <path d="M 52.828125 31.203125 
L 5.5625 31.203125 
L 5.5625 39.40625 
L 52.828125 39.40625 
z
" id="ArialMT-8722"/>
       <path d="M 50.34375 8.453125 
L 50.34375 0 
L 3.03125 0 
Q 2.9375 3.171875 4.046875 6.109375 
Q 5.859375 10.9375 9.828125 15.625 
Q 13.8125 20.3125 21.34375 26.46875 
Q 33.015625 36.03125 37.109375 41.625 
Q 41.21875 47.21875 41.21875 52.203125 
Q 41.21875 57.421875 37.46875 61 
Q 33.734375 64.59375 27.734375 64.59375 
Q 21.390625 64.59375 17.578125 60.78125 
Q 13.765625 56.984375 13.71875 50.25 
L 4.6875 51.171875 
Q 5.609375 61.28125 11.65625 66.578125 
Q 17.71875 71.875 27.9375 71.875 
Q 38.234375 71.875 44.234375 66.15625 
Q 50.25 60.453125 50.25 52 
Q 50.25 47.703125 48.484375 43.546875 
Q 46.734375 39.40625 42.65625 34.8125 
Q 38.578125 30.21875 29.109375 22.21875 
Q 21.1875 15.578125 18.9375 13.203125 
Q 16.703125 10.84375 15.234375 8.453125 
z
" id="ArialMT-50"/>
       <path d="M 9.078125 0 
L 9.078125 10.015625 
L 19.09375 10.015625 
L 19.09375 0 
z
" id="ArialMT-46"/>
       <path d="M 4.15625 18.75 
L 13.375 19.53125 
Q 14.40625 12.796875 18.140625 9.390625 
Q 21.875 6 27.15625 6 
Q 33.5 6 37.890625 10.78125 
Q 42.28125 15.578125 42.28125 23.484375 
Q 42.28125 31 38.0625 35.34375 
Q 33.84375 39.703125 27 39.703125 
Q 22.75 39.703125 19.328125 37.765625 
Q 15.921875 35.84375 13.96875 32.765625 
L 5.71875 33.84375 
L 12.640625 70.609375 
L 48.25 70.609375 
L 48.25 62.203125 
L 19.671875 62.203125 
L 15.828125 42.96875 
Q 22.265625 47.46875 29.34375 47.46875 
Q 38.71875 47.46875 45.15625 40.96875 
Q 51.609375 34.46875 51.609375 24.265625 
Q 51.609375 14.546875 45.953125 7.46875 
Q 39.0625 -1.21875 27.15625 -1.21875 
Q 17.390625 -1.21875 11.203125 4.25 
Q 5.03125 9.71875 4.15625 18.75 
z
" id="ArialMT-53"/>
      </defs>
      <g style="fill:#262626;" transform="translate(97.024958 277.247187)scale(0.22 -0.22)">
       <use xlink:href="#ArialMT-8722"/>
       <use x="58.398438" xlink:href="#ArialMT-50"/>
       <use x="114.013672" xlink:href="#ArialMT-46"/>
       <use x="141.796875" xlink:href="#ArialMT-53"/>
      </g>
     </g>
    </g>
    <g id="xtick_2">
     <g id="line2d_2">
      <path clip-path="url(#pf3ffd03561)" d="M 199.073551 252 
L 199.073551 34.56 
" style="fill:none;stroke:#cccccc;stroke-linecap:round;"/>
     </g>
     <g id="text_2">
      <!-- 0.0 -->
      <defs>
       <path d="M 4.15625 35.296875 
Q 4.15625 48 6.765625 55.734375 
Q 9.375 63.484375 14.515625 67.671875 
Q 19.671875 71.875 27.484375 71.875 
Q 33.25 71.875 37.59375 69.546875 
Q 41.9375 67.234375 44.765625 62.859375 
Q 47.609375 58.5 49.21875 52.21875 
Q 50.828125 45.953125 50.828125 35.296875 
Q 50.828125 22.703125 48.234375 14.96875 
Q 45.65625 7.234375 40.5 3 
Q 35.359375 -1.21875 27.484375 -1.21875 
Q 17.140625 -1.21875 11.234375 6.203125 
Q 4.15625 15.140625 4.15625 35.296875 
z
M 13.1875 35.296875 
Q 13.1875 17.671875 17.3125 11.828125 
Q 21.4375 6 27.484375 6 
Q 33.546875 6 37.671875 11.859375 
Q 41.796875 17.71875 41.796875 35.296875 
Q 41.796875 52.984375 37.671875 58.78125 
Q 33.546875 64.59375 27.390625 64.59375 
Q 21.34375 64.59375 17.71875 59.46875 
Q 13.1875 52.9375 13.1875 35.296875 
z
" id="ArialMT-48"/>
      </defs>
      <g style="fill:#262626;" transform="translate(183.783551 277.247187)scale(0.22 -0.22)">
       <use xlink:href="#ArialMT-48"/>
       <use x="55.615234" xlink:href="#ArialMT-46"/>
       <use x="83.398438" xlink:href="#ArialMT-48"/>
      </g>
     </g>
    </g>
    <g id="xtick_3">
     <g id="line2d_3">
      <path clip-path="url(#pf3ffd03561)" d="M 279.407457 252 
L 279.407457 34.56 
" style="fill:none;stroke:#cccccc;stroke-linecap:round;"/>
     </g>
     <g id="text_3">
      <!-- 2.5 -->
      <g style="fill:#262626;" transform="translate(264.117457 277.247187)scale(0.22 -0.22)">
       <use xlink:href="#ArialMT-50"/>
       <use x="55.615234" xlink:href="#ArialMT-46"/>
       <use x="83.398438" xlink:href="#ArialMT-53"/>
      </g>
     </g>
    </g>
    <g id="xtick_4">
     <g id="line2d_4">
      <path clip-path="url(#pf3ffd03561)" d="M 359.741363 252 
L 359.741363 34.56 
" style="fill:none;stroke:#cccccc;stroke-linecap:round;"/>
     </g>
     <g id="text_4">
      <!-- 5.0 -->
      <g style="fill:#262626;" transform="translate(344.451363 277.247187)scale(0.22 -0.22)">
       <use xlink:href="#ArialMT-53"/>
       <use x="55.615234" xlink:href="#ArialMT-46"/>
       <use x="83.398438" xlink:href="#ArialMT-48"/>
      </g>
     </g>
    </g>
    <g id="text_5">
     <!-- Yerr_normalized -->
     <defs>
      <path d="M 27.875 0 
L 27.875 30.328125 
L 0.296875 71.578125 
L 11.8125 71.578125 
L 25.921875 50 
Q 29.828125 43.953125 33.203125 37.890625 
Q 36.421875 43.5 41.015625 50.53125 
L 54.890625 71.578125 
L 65.921875 71.578125 
L 37.359375 30.328125 
L 37.359375 0 
z
" id="ArialMT-89"/>
      <path d="M 42.09375 16.703125 
L 51.171875 15.578125 
Q 49.03125 7.625 43.21875 3.21875 
Q 37.40625 -1.171875 28.375 -1.171875 
Q 17 -1.171875 10.328125 5.828125 
Q 3.65625 12.84375 3.65625 25.484375 
Q 3.65625 38.578125 10.390625 45.796875 
Q 17.140625 53.03125 27.875 53.03125 
Q 38.28125 53.03125 44.875 45.953125 
Q 51.46875 38.875 51.46875 26.03125 
Q 51.46875 25.25 51.421875 23.6875 
L 12.75 23.6875 
Q 13.234375 15.140625 17.578125 10.59375 
Q 21.921875 6.0625 28.421875 6.0625 
Q 33.25 6.0625 36.671875 8.59375 
Q 40.09375 11.140625 42.09375 16.703125 
z
M 13.234375 30.90625 
L 42.1875 30.90625 
Q 41.609375 37.453125 38.875 40.71875 
Q 34.671875 45.796875 27.984375 45.796875 
Q 21.921875 45.796875 17.796875 41.75 
Q 13.671875 37.703125 13.234375 30.90625 
z
" id="ArialMT-101"/>
      <path d="M 6.5 0 
L 6.5 51.859375 
L 14.40625 51.859375 
L 14.40625 44 
Q 17.4375 49.515625 20 51.265625 
Q 22.5625 53.03125 25.640625 53.03125 
Q 30.078125 53.03125 34.671875 50.203125 
L 31.640625 42.046875 
Q 28.421875 43.953125 25.203125 43.953125 
Q 22.3125 43.953125 20.015625 42.21875 
Q 17.71875 40.484375 16.75 37.40625 
Q 15.28125 32.71875 15.28125 27.15625 
L 15.28125 0 
z
" id="ArialMT-114"/>
      <path d="M -1.515625 -19.875 
L -1.515625 -13.53125 
L 56.734375 -13.53125 
L 56.734375 -19.875 
z
" id="ArialMT-95"/>
      <path d="M 6.59375 0 
L 6.59375 51.859375 
L 14.5 51.859375 
L 14.5 44.484375 
Q 20.21875 53.03125 31 53.03125 
Q 35.6875 53.03125 39.625 51.34375 
Q 43.5625 49.65625 45.515625 46.921875 
Q 47.46875 44.1875 48.25 40.4375 
Q 48.734375 37.984375 48.734375 31.890625 
L 48.734375 0 
L 39.9375 0 
L 39.9375 31.546875 
Q 39.9375 36.921875 38.90625 39.578125 
Q 37.890625 42.234375 35.28125 43.8125 
Q 32.671875 45.40625 29.15625 45.40625 
Q 23.53125 45.40625 19.453125 41.84375 
Q 15.375 38.28125 15.375 28.328125 
L 15.375 0 
z
" id="ArialMT-110"/>
      <path d="M 3.328125 25.921875 
Q 3.328125 40.328125 11.328125 47.265625 
Q 18.015625 53.03125 27.640625 53.03125 
Q 38.328125 53.03125 45.109375 46.015625 
Q 51.90625 39.015625 51.90625 26.65625 
Q 51.90625 16.65625 48.90625 10.90625 
Q 45.90625 5.171875 40.15625 2 
Q 34.421875 -1.171875 27.640625 -1.171875 
Q 16.75 -1.171875 10.03125 5.8125 
Q 3.328125 12.796875 3.328125 25.921875 
z
M 12.359375 25.921875 
Q 12.359375 15.96875 16.703125 11.015625 
Q 21.046875 6.0625 27.640625 6.0625 
Q 34.1875 6.0625 38.53125 11.03125 
Q 42.875 16.015625 42.875 26.21875 
Q 42.875 35.84375 38.5 40.796875 
Q 34.125 45.75 27.640625 45.75 
Q 21.046875 45.75 16.703125 40.8125 
Q 12.359375 35.890625 12.359375 25.921875 
z
" id="ArialMT-111"/>
      <path d="M 6.59375 0 
L 6.59375 51.859375 
L 14.453125 51.859375 
L 14.453125 44.578125 
Q 16.890625 48.390625 20.9375 50.703125 
Q 25 53.03125 30.171875 53.03125 
Q 35.9375 53.03125 39.625 50.640625 
Q 43.3125 48.25 44.828125 43.953125 
Q 50.984375 53.03125 60.84375 53.03125 
Q 68.5625 53.03125 72.703125 48.75 
Q 76.859375 44.484375 76.859375 35.59375 
L 76.859375 0 
L 68.109375 0 
L 68.109375 32.671875 
Q 68.109375 37.9375 67.25 40.25 
Q 66.40625 42.578125 64.15625 43.984375 
Q 61.921875 45.40625 58.890625 45.40625 
Q 53.421875 45.40625 49.796875 41.765625 
Q 46.1875 38.140625 46.1875 30.125 
L 46.1875 0 
L 37.40625 0 
L 37.40625 33.6875 
Q 37.40625 39.546875 35.25 42.46875 
Q 33.109375 45.40625 28.21875 45.40625 
Q 24.515625 45.40625 21.359375 43.453125 
Q 18.21875 41.5 16.796875 37.734375 
Q 15.375 33.984375 15.375 26.90625 
L 15.375 0 
z
" id="ArialMT-109"/>
      <path d="M 40.4375 6.390625 
Q 35.546875 2.25 31.03125 0.53125 
Q 26.515625 -1.171875 21.34375 -1.171875 
Q 12.796875 -1.171875 8.203125 3 
Q 3.609375 7.171875 3.609375 13.671875 
Q 3.609375 17.484375 5.34375 20.625 
Q 7.078125 23.78125 9.890625 25.6875 
Q 12.703125 27.59375 16.21875 28.5625 
Q 18.796875 29.25 24.03125 29.890625 
Q 34.671875 31.15625 39.703125 32.90625 
Q 39.75 34.71875 39.75 35.203125 
Q 39.75 40.578125 37.25 42.78125 
Q 33.890625 45.75 27.25 45.75 
Q 21.046875 45.75 18.09375 43.578125 
Q 15.140625 41.40625 13.71875 35.890625 
L 5.125 37.0625 
Q 6.296875 42.578125 8.984375 45.96875 
Q 11.671875 49.359375 16.75 51.1875 
Q 21.828125 53.03125 28.515625 53.03125 
Q 35.15625 53.03125 39.296875 51.46875 
Q 43.453125 49.90625 45.40625 47.53125 
Q 47.359375 45.171875 48.140625 41.546875 
Q 48.578125 39.3125 48.578125 33.453125 
L 48.578125 21.734375 
Q 48.578125 9.46875 49.140625 6.21875 
Q 49.703125 2.984375 51.375 0 
L 42.1875 0 
Q 40.828125 2.734375 40.4375 6.390625 
z
M 39.703125 26.03125 
Q 34.90625 24.078125 25.34375 22.703125 
Q 19.921875 21.921875 17.671875 20.9375 
Q 15.4375 19.96875 14.203125 18.09375 
Q 12.984375 16.21875 12.984375 13.921875 
Q 12.984375 10.40625 15.640625 8.0625 
Q 18.3125 5.71875 23.4375 5.71875 
Q 28.515625 5.71875 32.46875 7.9375 
Q 36.421875 10.15625 38.28125 14.015625 
Q 39.703125 17 39.703125 22.796875 
z
" id="ArialMT-97"/>
      <path d="M 6.390625 0 
L 6.390625 71.578125 
L 15.1875 71.578125 
L 15.1875 0 
z
" id="ArialMT-108"/>
      <path d="M 6.640625 61.46875 
L 6.640625 71.578125 
L 15.4375 71.578125 
L 15.4375 61.46875 
z
M 6.640625 0 
L 6.640625 51.859375 
L 15.4375 51.859375 
L 15.4375 0 
z
" id="ArialMT-105"/>
      <path d="M 1.953125 0 
L 1.953125 7.125 
L 34.96875 45.015625 
Q 29.34375 44.734375 25.046875 44.734375 
L 3.90625 44.734375 
L 3.90625 51.859375 
L 46.296875 51.859375 
L 46.296875 46.046875 
L 18.21875 13.140625 
L 12.796875 7.125 
Q 18.703125 7.5625 23.875 7.5625 
L 47.859375 7.5625 
L 47.859375 0 
z
" id="ArialMT-122"/>
      <path d="M 40.234375 0 
L 40.234375 6.546875 
Q 35.296875 -1.171875 25.734375 -1.171875 
Q 19.53125 -1.171875 14.328125 2.25 
Q 9.125 5.671875 6.265625 11.796875 
Q 3.421875 17.921875 3.421875 25.875 
Q 3.421875 33.640625 6 39.96875 
Q 8.59375 46.296875 13.765625 49.65625 
Q 18.953125 53.03125 25.34375 53.03125 
Q 30.03125 53.03125 33.6875 51.046875 
Q 37.359375 49.078125 39.65625 45.90625 
L 39.65625 71.578125 
L 48.390625 71.578125 
L 48.390625 0 
z
M 12.453125 25.875 
Q 12.453125 15.921875 16.640625 10.984375 
Q 20.84375 6.0625 26.5625 6.0625 
Q 32.328125 6.0625 36.34375 10.765625 
Q 40.375 15.484375 40.375 25.140625 
Q 40.375 35.796875 36.265625 40.765625 
Q 32.171875 45.75 26.171875 45.75 
Q 20.3125 45.75 16.375 40.96875 
Q 12.453125 36.1875 12.453125 25.875 
z
" id="ArialMT-100"/>
     </defs>
     <g style="fill:#262626;" transform="translate(133.385625 302.798437)scale(0.24 -0.24)">
      <use xlink:href="#ArialMT-89"/>
      <use x="66.558594" xlink:href="#ArialMT-101"/>
      <use x="122.173828" xlink:href="#ArialMT-114"/>
      <use x="155.474609" xlink:href="#ArialMT-114"/>
      <use x="188.775391" xlink:href="#ArialMT-95"/>
      <use x="244.390625" xlink:href="#ArialMT-110"/>
      <use x="300.005859" xlink:href="#ArialMT-111"/>
      <use x="355.621094" xlink:href="#ArialMT-114"/>
      <use x="388.921875" xlink:href="#ArialMT-109"/>
      <use x="472.222656" xlink:href="#ArialMT-97"/>
      <use x="527.837891" xlink:href="#ArialMT-108"/>
      <use x="550.054688" xlink:href="#ArialMT-105"/>
      <use x="572.271484" xlink:href="#ArialMT-122"/>
      <use x="622.271484" xlink:href="#ArialMT-101"/>
      <use x="677.886719" xlink:href="#ArialMT-100"/>
     </g>
    </g>
   </g>
   <g id="matplotlib.axis_2">
    <g id="ytick_1">
     <g id="line2d_5">
      <path clip-path="url(#pf3ffd03561)" d="M 54 252 
L 388.8 252 
" style="fill:none;stroke:#cccccc;stroke-linecap:round;"/>
     </g>
     <g id="text_6">
      <!-- 0.0 -->
      <g style="fill:#262626;" transform="translate(13.92 259.873594)scale(0.22 -0.22)">
       <use xlink:href="#ArialMT-48"/>
       <use x="55.615234" xlink:href="#ArialMT-46"/>
       <use x="83.398438" xlink:href="#ArialMT-48"/>
      </g>
     </g>
    </g>
    <g id="ytick_2">
     <g id="line2d_6">
      <path clip-path="url(#pf3ffd03561)" d="M 54 190.703119 
L 388.8 190.703119 
" style="fill:none;stroke:#cccccc;stroke-linecap:round;"/>
     </g>
     <g id="text_7">
      <!-- 0.1 -->
      <defs>
       <path d="M 37.25 0 
L 28.46875 0 
L 28.46875 56 
Q 25.296875 52.984375 20.140625 49.953125 
Q 14.984375 46.921875 10.890625 45.40625 
L 10.890625 53.90625 
Q 18.265625 57.375 23.78125 62.296875 
Q 29.296875 67.234375 31.59375 71.875 
L 37.25 71.875 
z
" id="ArialMT-49"/>
      </defs>
      <g style="fill:#262626;" transform="translate(13.92 198.576713)scale(0.22 -0.22)">
       <use xlink:href="#ArialMT-48"/>
       <use x="55.615234" xlink:href="#ArialMT-46"/>
       <use x="83.398438" xlink:href="#ArialMT-49"/>
      </g>
     </g>
    </g>
    <g id="ytick_3">
     <g id="line2d_7">
      <path clip-path="url(#pf3ffd03561)" d="M 54 129.406239 
L 388.8 129.406239 
" style="fill:none;stroke:#cccccc;stroke-linecap:round;"/>
     </g>
     <g id="text_8">
      <!-- 0.2 -->
      <g style="fill:#262626;" transform="translate(13.92 137.279832)scale(0.22 -0.22)">
       <use xlink:href="#ArialMT-48"/>
       <use x="55.615234" xlink:href="#ArialMT-46"/>
       <use x="83.398438" xlink:href="#ArialMT-50"/>
      </g>
     </g>
    </g>
    <g id="ytick_4">
     <g id="line2d_8">
      <path clip-path="url(#pf3ffd03561)" d="M 54 68.109358 
L 388.8 68.109358 
" style="fill:none;stroke:#cccccc;stroke-linecap:round;"/>
     </g>
     <g id="text_9">
      <!-- 0.3 -->
      <defs>
       <path d="M 4.203125 18.890625 
L 12.984375 20.0625 
Q 14.5 12.59375 18.140625 9.296875 
Q 21.78125 6 27 6 
Q 33.203125 6 37.46875 10.296875 
Q 41.75 14.59375 41.75 20.953125 
Q 41.75 27 37.796875 30.921875 
Q 33.84375 34.859375 27.734375 34.859375 
Q 25.25 34.859375 21.53125 33.890625 
L 22.515625 41.609375 
Q 23.390625 41.5 23.921875 41.5 
Q 29.546875 41.5 34.03125 44.421875 
Q 38.53125 47.359375 38.53125 53.46875 
Q 38.53125 58.296875 35.25 61.46875 
Q 31.984375 64.65625 26.8125 64.65625 
Q 21.6875 64.65625 18.265625 61.421875 
Q 14.84375 58.203125 13.875 51.765625 
L 5.078125 53.328125 
Q 6.6875 62.15625 12.390625 67.015625 
Q 18.109375 71.875 26.609375 71.875 
Q 32.46875 71.875 37.390625 69.359375 
Q 42.328125 66.84375 44.9375 62.5 
Q 47.5625 58.15625 47.5625 53.265625 
Q 47.5625 48.640625 45.0625 44.828125 
Q 42.578125 41.015625 37.703125 38.765625 
Q 44.046875 37.3125 47.5625 32.6875 
Q 51.078125 28.078125 51.078125 21.140625 
Q 51.078125 11.765625 44.234375 5.25 
Q 37.40625 -1.265625 26.953125 -1.265625 
Q 17.53125 -1.265625 11.296875 4.34375 
Q 5.078125 9.96875 4.203125 18.890625 
z
" id="ArialMT-51"/>
      </defs>
      <g style="fill:#262626;" transform="translate(13.92 75.982952)scale(0.22 -0.22)">
       <use xlink:href="#ArialMT-48"/>
       <use x="55.615234" xlink:href="#ArialMT-46"/>
       <use x="83.398438" xlink:href="#ArialMT-51"/>
      </g>
     </g>
    </g>
   </g>
   <g id="patch_3">
    <path clip-path="url(#pf3ffd03561)" d="M 115.139177 252 
L 134.459326 252 
L 134.459326 204.210989 
L 115.139177 204.210989 
z
" style="fill:#4c72b0;opacity:0.4;stroke:#ffffff;stroke-linejoin:miter;"/>
   </g>
   <g id="patch_4">
    <path clip-path="url(#pf3ffd03561)" d="M 134.459326 252 
L 153.779476 252 
L 153.779476 188.281319 
L 134.459326 188.281319 
z
" style="fill:#4c72b0;opacity:0.4;stroke:#ffffff;stroke-linejoin:miter;"/>
   </g>
   <g id="patch_5">
    <path clip-path="url(#pf3ffd03561)" d="M 153.779476 252 
L 173.099626 252 
L 173.099626 108.632967 
L 153.779476 108.632967 
z
" style="fill:#4c72b0;opacity:0.4;stroke:#ffffff;stroke-linejoin:miter;"/>
   </g>
   <g id="patch_6">
    <path clip-path="url(#pf3ffd03561)" d="M 173.099626 252 
L 192.419775 252 
L 192.419775 68.808791 
L 173.099626 68.808791 
z
" style="fill:#4c72b0;opacity:0.4;stroke:#ffffff;stroke-linejoin:miter;"/>
   </g>
   <g id="patch_7">
    <path clip-path="url(#pf3ffd03561)" d="M 192.419775 252 
L 211.739925 252 
L 211.739925 44.914286 
L 192.419775 44.914286 
z
" style="fill:#4c72b0;opacity:0.4;stroke:#ffffff;stroke-linejoin:miter;"/>
   </g>
   <g id="patch_8">
    <path clip-path="url(#pf3ffd03561)" d="M 211.739925 252 
L 231.060075 252 
L 231.060075 76.773626 
L 211.739925 76.773626 
z
" style="fill:#4c72b0;opacity:0.4;stroke:#ffffff;stroke-linejoin:miter;"/>
   </g>
   <g id="patch_9">
    <path clip-path="url(#pf3ffd03561)" d="M 231.060075 252 
L 250.380225 252 
L 250.380225 164.386813 
L 231.060075 164.386813 
z
" style="fill:#4c72b0;opacity:0.4;stroke:#ffffff;stroke-linejoin:miter;"/>
   </g>
   <g id="patch_10">
    <path clip-path="url(#pf3ffd03561)" d="M 250.380225 252 
L 269.700374 252 
L 269.700374 188.281319 
L 250.380225 188.281319 
z
" style="fill:#4c72b0;opacity:0.4;stroke:#ffffff;stroke-linejoin:miter;"/>
   </g>
   <g id="patch_11">
    <path clip-path="url(#pf3ffd03561)" d="M 269.700374 252 
L 289.020524 252 
L 289.020524 220.140659 
L 269.700374 220.140659 
z
" style="fill:#4c72b0;opacity:0.4;stroke:#ffffff;stroke-linejoin:miter;"/>
   </g>
   <g id="patch_12">
    <path clip-path="url(#pf3ffd03561)" d="M 289.020524 252 
L 308.340674 252 
L 308.340674 244.035165 
L 289.020524 244.035165 
z
" style="fill:#4c72b0;opacity:0.4;stroke:#ffffff;stroke-linejoin:miter;"/>
   </g>
   <g id="patch_13">
    <path clip-path="url(#pf3ffd03561)" d="M 308.340674 252 
L 327.660823 252 
L 327.660823 244.035165 
L 308.340674 244.035165 
z
" style="fill:#4c72b0;opacity:0.4;stroke:#ffffff;stroke-linejoin:miter;"/>
   </g>
   <g id="LineCollection_1">
    <path clip-path="url(#pf3ffd03561)" d="M 211.077714 252 
L 211.077714 241.128 
" style="fill:none;stroke:#4c72b0;"/>
    <path clip-path="url(#pf3ffd03561)" d="M 204.404351 252 
L 204.404351 241.128 
" style="fill:none;stroke:#4c72b0;"/>
    <path clip-path="url(#pf3ffd03561)" d="M 193.723163 252 
L 193.723163 241.128 
" style="fill:none;stroke:#4c72b0;"/>
    <path clip-path="url(#pf3ffd03561)" d="M 201.712943 252 
L 201.712943 241.128 
" style="fill:none;stroke:#4c72b0;"/>
    <path clip-path="url(#pf3ffd03561)" d="M 172.593522 252 
L 172.593522 241.128 
" style="fill:none;stroke:#4c72b0;"/>
    <path clip-path="url(#pf3ffd03561)" d="M 197.749558 252 
L 197.749558 241.128 
" style="fill:none;stroke:#4c72b0;"/>
    <path clip-path="url(#pf3ffd03561)" d="M 207.879361 252 
L 207.879361 241.128 
" style="fill:none;stroke:#4c72b0;"/>
    <path clip-path="url(#pf3ffd03561)" d="M 250.943215 252 
L 250.943215 241.128 
" style="fill:none;stroke:#4c72b0;"/>
    <path clip-path="url(#pf3ffd03561)" d="M 194.185274 252 
L 194.185274 241.128 
" style="fill:none;stroke:#4c72b0;"/>
    <path clip-path="url(#pf3ffd03561)" d="M 238.209158 252 
L 238.209158 241.128 
" style="fill:none;stroke:#4c72b0;"/>
    <path clip-path="url(#pf3ffd03561)" d="M 201.628081 252 
L 201.628081 241.128 
" style="fill:none;stroke:#4c72b0;"/>
    <path clip-path="url(#pf3ffd03561)" d="M 226.622755 252 
L 226.622755 241.128 
" style="fill:none;stroke:#4c72b0;"/>
    <path clip-path="url(#pf3ffd03561)" d="M 257.49534 252 
L 257.49534 241.128 
" style="fill:none;stroke:#4c72b0;"/>
    <path clip-path="url(#pf3ffd03561)" d="M 159.229408 252 
L 159.229408 241.128 
" style="fill:none;stroke:#4c72b0;"/>
    <path clip-path="url(#pf3ffd03561)" d="M 131.585927 252 
L 131.585927 241.128 
" style="fill:none;stroke:#4c72b0;"/>
    <path clip-path="url(#pf3ffd03561)" d="M 227.154965 252 
L 227.154965 241.128 
" style="fill:none;stroke:#4c72b0;"/>
    <path clip-path="url(#pf3ffd03561)" d="M 224.726757 252 
L 224.726757 241.128 
" style="fill:none;stroke:#4c72b0;"/>
    <path clip-path="url(#pf3ffd03561)" d="M 218.92374 252 
L 218.92374 241.128 
" style="fill:none;stroke:#4c72b0;"/>
    <path clip-path="url(#pf3ffd03561)" d="M 192.578976 252 
L 192.578976 241.128 
" style="fill:none;stroke:#4c72b0;"/>
    <path clip-path="url(#pf3ffd03561)" d="M 206.588814 252 
L 206.588814 241.128 
" style="fill:none;stroke:#4c72b0;"/>
    <path clip-path="url(#pf3ffd03561)" d="M 221.819084 252 
L 221.819084 241.128 
" style="fill:none;stroke:#4c72b0;"/>
    <path clip-path="url(#pf3ffd03561)" d="M 274.861855 252 
L 274.861855 241.128 
" style="fill:none;stroke:#4c72b0;"/>
    <path clip-path="url(#pf3ffd03561)" d="M 206.143085 252 
L 206.143085 241.128 
" style="fill:none;stroke:#4c72b0;"/>
    <path clip-path="url(#pf3ffd03561)" d="M 249.52163 252 
L 249.52163 241.128 
" style="fill:none;stroke:#4c72b0;"/>
    <path clip-path="url(#pf3ffd03561)" d="M 170.455277 252 
L 170.455277 241.128 
" style="fill:none;stroke:#4c72b0;"/>
    <path clip-path="url(#pf3ffd03561)" d="M 188.120278 252 
L 188.120278 241.128 
" style="fill:none;stroke:#4c72b0;"/>
    <path clip-path="url(#pf3ffd03561)" d="M 217.016297 252 
L 217.016297 241.128 
" style="fill:none;stroke:#4c72b0;"/>
    <path clip-path="url(#pf3ffd03561)" d="M 164.06009 252 
L 164.06009 241.128 
" style="fill:none;stroke:#4c72b0;"/>
    <path clip-path="url(#pf3ffd03561)" d="M 151.724311 252 
L 151.724311 241.128 
" style="fill:none;stroke:#4c72b0;"/>
    <path clip-path="url(#pf3ffd03561)" d="M 180.964164 252 
L 180.964164 241.128 
" style="fill:none;stroke:#4c72b0;"/>
    <path clip-path="url(#pf3ffd03561)" d="M 196.986426 252 
L 196.986426 241.128 
" style="fill:none;stroke:#4c72b0;"/>
    <path clip-path="url(#pf3ffd03561)" d="M 141.277906 252 
L 141.277906 241.128 
" style="fill:none;stroke:#4c72b0;"/>
    <path clip-path="url(#pf3ffd03561)" d="M 198.882773 252 
L 198.882773 241.128 
" style="fill:none;stroke:#4c72b0;"/>
    <path clip-path="url(#pf3ffd03561)" d="M 155.329347 252 
L 155.329347 241.128 
" style="fill:none;stroke:#4c72b0;"/>
    <path clip-path="url(#pf3ffd03561)" d="M 143.005687 252 
L 143.005687 241.128 
" style="fill:none;stroke:#4c72b0;"/>
    <path clip-path="url(#pf3ffd03561)" d="M 134.124128 252 
L 134.124128 241.128 
" style="fill:none;stroke:#4c72b0;"/>
    <path clip-path="url(#pf3ffd03561)" d="M 180.676087 252 
L 180.676087 241.128 
" style="fill:none;stroke:#4c72b0;"/>
    <path clip-path="url(#pf3ffd03561)" d="M 191.941496 252 
L 191.941496 241.128 
" style="fill:none;stroke:#4c72b0;"/>
    <path clip-path="url(#pf3ffd03561)" d="M 215.138995 252 
L 215.138995 241.128 
" style="fill:none;stroke:#4c72b0;"/>
    <path clip-path="url(#pf3ffd03561)" d="M 169.214713 252 
L 169.214713 241.128 
" style="fill:none;stroke:#4c72b0;"/>
    <path clip-path="url(#pf3ffd03561)" d="M 207.67415 252 
L 207.67415 241.128 
" style="fill:none;stroke:#4c72b0;"/>
    <path clip-path="url(#pf3ffd03561)" d="M 195.780069 252 
L 195.780069 241.128 
" style="fill:none;stroke:#4c72b0;"/>
    <path clip-path="url(#pf3ffd03561)" d="M 224.643465 252 
L 224.643465 241.128 
" style="fill:none;stroke:#4c72b0;"/>
    <path clip-path="url(#pf3ffd03561)" d="M 162.243165 252 
L 162.243165 241.128 
" style="fill:none;stroke:#4c72b0;"/>
    <path clip-path="url(#pf3ffd03561)" d="M 200.246133 252 
L 200.246133 241.128 
" style="fill:none;stroke:#4c72b0;"/>
    <path clip-path="url(#pf3ffd03561)" d="M 214.864926 252 
L 214.864926 241.128 
" style="fill:none;stroke:#4c72b0;"/>
    <path clip-path="url(#pf3ffd03561)" d="M 173.696603 252 
L 173.696603 241.128 
" style="fill:none;stroke:#4c72b0;"/>
    <path clip-path="url(#pf3ffd03561)" d="M 168.128559 252 
L 168.128559 241.128 
" style="fill:none;stroke:#4c72b0;"/>
    <path clip-path="url(#pf3ffd03561)" d="M 147.562154 252 
L 147.562154 241.128 
" style="fill:none;stroke:#4c72b0;"/>
    <path clip-path="url(#pf3ffd03561)" d="M 214.428745 252 
L 214.428745 241.128 
" style="fill:none;stroke:#4c72b0;"/>
    <path clip-path="url(#pf3ffd03561)" d="M 208.45306 252 
L 208.45306 241.128 
" style="fill:none;stroke:#4c72b0;"/>
    <path clip-path="url(#pf3ffd03561)" d="M 189.581604 252 
L 189.581604 241.128 
" style="fill:none;stroke:#4c72b0;"/>
    <path clip-path="url(#pf3ffd03561)" d="M 166.728453 252 
L 166.728453 241.128 
" style="fill:none;stroke:#4c72b0;"/>
    <path clip-path="url(#pf3ffd03561)" d="M 188.050729 252 
L 188.050729 241.128 
" style="fill:none;stroke:#4c72b0;"/>
    <path clip-path="url(#pf3ffd03561)" d="M 232.023051 252 
L 232.023051 241.128 
" style="fill:none;stroke:#4c72b0;"/>
    <path clip-path="url(#pf3ffd03561)" d="M 198.130099 252 
L 198.130099 241.128 
" style="fill:none;stroke:#4c72b0;"/>
    <path clip-path="url(#pf3ffd03561)" d="M 228.380689 252 
L 228.380689 241.128 
" style="fill:none;stroke:#4c72b0;"/>
    <path clip-path="url(#pf3ffd03561)" d="M 235.121919 252 
L 235.121919 241.128 
" style="fill:none;stroke:#4c72b0;"/>
    <path clip-path="url(#pf3ffd03561)" d="M 237.282637 252 
L 237.282637 241.128 
" style="fill:none;stroke:#4c72b0;"/>
    <path clip-path="url(#pf3ffd03561)" d="M 265.831699 252 
L 265.831699 241.128 
" style="fill:none;stroke:#4c72b0;"/>
    <path clip-path="url(#pf3ffd03561)" d="M 133.841609 252 
L 133.841609 241.128 
" style="fill:none;stroke:#4c72b0;"/>
    <path clip-path="url(#pf3ffd03561)" d="M 198.934144 252 
L 198.934144 241.128 
" style="fill:none;stroke:#4c72b0;"/>
    <path clip-path="url(#pf3ffd03561)" d="M 185.849339 252 
L 185.849339 241.128 
" style="fill:none;stroke:#4c72b0;"/>
    <path clip-path="url(#pf3ffd03561)" d="M 212.388732 252 
L 212.388732 241.128 
" style="fill:none;stroke:#4c72b0;"/>
    <path clip-path="url(#pf3ffd03561)" d="M 215.211031 252 
L 215.211031 241.128 
" style="fill:none;stroke:#4c72b0;"/>
    <path clip-path="url(#pf3ffd03561)" d="M 220.726216 252 
L 220.726216 241.128 
" style="fill:none;stroke:#4c72b0;"/>
    <path clip-path="url(#pf3ffd03561)" d="M 184.834167 252 
L 184.834167 241.128 
" style="fill:none;stroke:#4c72b0;"/>
    <path clip-path="url(#pf3ffd03561)" d="M 253.26147 252 
L 253.26147 241.128 
" style="fill:none;stroke:#4c72b0;"/>
    <path clip-path="url(#pf3ffd03561)" d="M 137.084897 252 
L 137.084897 241.128 
" style="fill:none;stroke:#4c72b0;"/>
    <path clip-path="url(#pf3ffd03561)" d="M 216.19676 252 
L 216.19676 241.128 
" style="fill:none;stroke:#4c72b0;"/>
    <path clip-path="url(#pf3ffd03561)" d="M 179.993001 252 
L 179.993001 241.128 
" style="fill:none;stroke:#4c72b0;"/>
    <path clip-path="url(#pf3ffd03561)" d="M 246.089596 252 
L 246.089596 241.128 
" style="fill:none;stroke:#4c72b0;"/>
    <path clip-path="url(#pf3ffd03561)" d="M 232.132648 252 
L 232.132648 241.128 
" style="fill:none;stroke:#4c72b0;"/>
    <path clip-path="url(#pf3ffd03561)" d="M 172.049081 252 
L 172.049081 241.128 
" style="fill:none;stroke:#4c72b0;"/>
    <path clip-path="url(#pf3ffd03561)" d="M 164.059426 252 
L 164.059426 241.128 
" style="fill:none;stroke:#4c72b0;"/>
    <path clip-path="url(#pf3ffd03561)" d="M 240.04004 252 
L 240.04004 241.128 
" style="fill:none;stroke:#4c72b0;"/>
    <path clip-path="url(#pf3ffd03561)" d="M 170.721299 252 
L 170.721299 241.128 
" style="fill:none;stroke:#4c72b0;"/>
    <path clip-path="url(#pf3ffd03561)" d="M 162.512298 252 
L 162.512298 241.128 
" style="fill:none;stroke:#4c72b0;"/>
    <path clip-path="url(#pf3ffd03561)" d="M 191.975722 252 
L 191.975722 241.128 
" style="fill:none;stroke:#4c72b0;"/>
    <path clip-path="url(#pf3ffd03561)" d="M 181.916755 252 
L 181.916755 241.128 
" style="fill:none;stroke:#4c72b0;"/>
    <path clip-path="url(#pf3ffd03561)" d="M 210.773145 252 
L 210.773145 241.128 
" style="fill:none;stroke:#4c72b0;"/>
    <path clip-path="url(#pf3ffd03561)" d="M 234.876753 252 
L 234.876753 241.128 
" style="fill:none;stroke:#4c72b0;"/>
    <path clip-path="url(#pf3ffd03561)" d="M 177.509331 252 
L 177.509331 241.128 
" style="fill:none;stroke:#4c72b0;"/>
    <path clip-path="url(#pf3ffd03561)" d="M 191.01725 252 
L 191.01725 241.128 
" style="fill:none;stroke:#4c72b0;"/>
    <path clip-path="url(#pf3ffd03561)" d="M 171.917998 252 
L 171.917998 241.128 
" style="fill:none;stroke:#4c72b0;"/>
    <path clip-path="url(#pf3ffd03561)" d="M 211.739706 252 
L 211.739706 241.128 
" style="fill:none;stroke:#4c72b0;"/>
    <path clip-path="url(#pf3ffd03561)" d="M 175.096762 252 
L 175.096762 241.128 
" style="fill:none;stroke:#4c72b0;"/>
    <path clip-path="url(#pf3ffd03561)" d="M 172.507463 252 
L 172.507463 241.128 
" style="fill:none;stroke:#4c72b0;"/>
    <path clip-path="url(#pf3ffd03561)" d="M 183.552595 252 
L 183.552595 241.128 
" style="fill:none;stroke:#4c72b0;"/>
    <path clip-path="url(#pf3ffd03561)" d="M 252.132039 252 
L 252.132039 241.128 
" style="fill:none;stroke:#4c72b0;"/>
    <path clip-path="url(#pf3ffd03561)" d="M 178.087727 252 
L 178.087727 241.128 
" style="fill:none;stroke:#4c72b0;"/>
    <path clip-path="url(#pf3ffd03561)" d="M 262.521045 252 
L 262.521045 241.128 
" style="fill:none;stroke:#4c72b0;"/>
    <path clip-path="url(#pf3ffd03561)" d="M 186.645658 252 
L 186.645658 241.128 
" style="fill:none;stroke:#4c72b0;"/>
    <path clip-path="url(#pf3ffd03561)" d="M 223.940743 252 
L 223.940743 241.128 
" style="fill:none;stroke:#4c72b0;"/>
    <path clip-path="url(#pf3ffd03561)" d="M 219.390028 252 
L 219.390028 241.128 
" style="fill:none;stroke:#4c72b0;"/>
    <path clip-path="url(#pf3ffd03561)" d="M 230.405881 252 
L 230.405881 241.128 
" style="fill:none;stroke:#4c72b0;"/>
    <path clip-path="url(#pf3ffd03561)" d="M 171.49357 252 
L 171.49357 241.128 
" style="fill:none;stroke:#4c72b0;"/>
    <path clip-path="url(#pf3ffd03561)" d="M 327.660823 252 
L 327.660823 241.128 
" style="fill:none;stroke:#4c72b0;"/>
    <path clip-path="url(#pf3ffd03561)" d="M 142.106081 252 
L 142.106081 241.128 
" style="fill:none;stroke:#4c72b0;"/>
    <path clip-path="url(#pf3ffd03561)" d="M 115.139177 252 
L 115.139177 241.128 
" style="fill:none;stroke:#4c72b0;"/>
    <path clip-path="url(#pf3ffd03561)" d="M 167.115041 252 
L 167.115041 241.128 
" style="fill:none;stroke:#4c72b0;"/>
    <path clip-path="url(#pf3ffd03561)" d="M 187.818417 252 
L 187.818417 241.128 
" style="fill:none;stroke:#4c72b0;"/>
    <path clip-path="url(#pf3ffd03561)" d="M 209.292536 252 
L 209.292536 241.128 
" style="fill:none;stroke:#4c72b0;"/>
    <path clip-path="url(#pf3ffd03561)" d="M 253.731283 252 
L 253.731283 241.128 
" style="fill:none;stroke:#4c72b0;"/>
    <path clip-path="url(#pf3ffd03561)" d="M 204.908636 252 
L 204.908636 241.128 
" style="fill:none;stroke:#4c72b0;"/>
    <path clip-path="url(#pf3ffd03561)" d="M 231.990188 252 
L 231.990188 241.128 
" style="fill:none;stroke:#4c72b0;"/>
    <path clip-path="url(#pf3ffd03561)" d="M 200.381033 252 
L 200.381033 241.128 
" style="fill:none;stroke:#4c72b0;"/>
    <path clip-path="url(#pf3ffd03561)" d="M 218.308233 252 
L 218.308233 241.128 
" style="fill:none;stroke:#4c72b0;"/>
    <path clip-path="url(#pf3ffd03561)" d="M 152.399585 252 
L 152.399585 241.128 
" style="fill:none;stroke:#4c72b0;"/>
    <path clip-path="url(#pf3ffd03561)" d="M 225.421471 252 
L 225.421471 241.128 
" style="fill:none;stroke:#4c72b0;"/>
    <path clip-path="url(#pf3ffd03561)" d="M 175.655919 252 
L 175.655919 241.128 
" style="fill:none;stroke:#4c72b0;"/>
    <path clip-path="url(#pf3ffd03561)" d="M 273.857808 252 
L 273.857808 241.128 
" style="fill:none;stroke:#4c72b0;"/>
    <path clip-path="url(#pf3ffd03561)" d="M 279.188401 252 
L 279.188401 241.128 
" style="fill:none;stroke:#4c72b0;"/>
    <path clip-path="url(#pf3ffd03561)" d="M 225.856684 252 
L 225.856684 241.128 
" style="fill:none;stroke:#4c72b0;"/>
    <path clip-path="url(#pf3ffd03561)" d="M 190.490241 252 
L 190.490241 241.128 
" style="fill:none;stroke:#4c72b0;"/>
    <path clip-path="url(#pf3ffd03561)" d="M 167.888505 252 
L 167.888505 241.128 
" style="fill:none;stroke:#4c72b0;"/>
    <path clip-path="url(#pf3ffd03561)" d="M 199.033096 252 
L 199.033096 241.128 
" style="fill:none;stroke:#4c72b0;"/>
    <path clip-path="url(#pf3ffd03561)" d="M 182.664847 252 
L 182.664847 241.128 
" style="fill:none;stroke:#4c72b0;"/>
    <path clip-path="url(#pf3ffd03561)" d="M 123.435792 252 
L 123.435792 241.128 
" style="fill:none;stroke:#4c72b0;"/>
    <path clip-path="url(#pf3ffd03561)" d="M 129.356667 252 
L 129.356667 241.128 
" style="fill:none;stroke:#4c72b0;"/>
    <path clip-path="url(#pf3ffd03561)" d="M 298.691514 252 
L 298.691514 241.128 
" style="fill:none;stroke:#4c72b0;"/>
    <path clip-path="url(#pf3ffd03561)" d="M 183.167168 252 
L 183.167168 241.128 
" style="fill:none;stroke:#4c72b0;"/>
    <path clip-path="url(#pf3ffd03561)" d="M 209.80971 252 
L 209.80971 241.128 
" style="fill:none;stroke:#4c72b0;"/>
    <path clip-path="url(#pf3ffd03561)" d="M 261.358941 252 
L 261.358941 241.128 
" style="fill:none;stroke:#4c72b0;"/>
    <path clip-path="url(#pf3ffd03561)" d="M 270.673819 252 
L 270.673819 241.128 
" style="fill:none;stroke:#4c72b0;"/>
    <path clip-path="url(#pf3ffd03561)" d="M 142.992227 252 
L 142.992227 241.128 
" style="fill:none;stroke:#4c72b0;"/>
    <path clip-path="url(#pf3ffd03561)" d="M 229.70463 252 
L 229.70463 241.128 
" style="fill:none;stroke:#4c72b0;"/>
    <path clip-path="url(#pf3ffd03561)" d="M 234.919909 252 
L 234.919909 241.128 
" style="fill:none;stroke:#4c72b0;"/>
   </g>
   <g id="line2d_9">
    <path clip-path="url(#pf3ffd03561)" d="M 69.218182 251.910322 
L 76.407874 251.757099 
L 81.201002 251.46613 
L 85.99413 250.894101 
L 88.390694 250.450462 
L 90.787258 249.867219 
L 93.183822 249.11514 
L 95.580387 248.163367 
L 97.976951 246.980684 
L 100.373515 245.537091 
L 102.770079 243.805682 
L 105.166643 241.764718 
L 107.563207 239.399802 
L 109.959771 236.705941 
L 112.356335 233.689258 
L 114.752899 230.368037 
L 117.149463 226.772731 
L 121.942591 218.932931 
L 129.132283 206.301595 
L 138.71854 188.961527 
L 141.115104 184.371296 
L 143.511668 179.527375 
L 145.908232 174.33532 
L 148.304796 168.708949 
L 150.70136 162.583962 
L 153.097924 155.930064 
L 155.494488 148.759643 
L 160.287616 133.149031 
L 167.477309 108.589495 
L 169.873873 100.769903 
L 172.270437 93.401275 
L 174.667001 86.607605 
L 177.063565 80.478328 
L 179.460129 75.067076 
L 181.856693 70.394593 
L 184.253257 66.454756 
L 186.649821 63.222371 
L 189.046385 60.661428 
L 191.442949 58.732716 
L 193.839513 57.400076 
L 196.236077 56.634944 
L 198.632641 56.419146 
L 201.029205 56.746113 
L 203.42577 57.620749 
L 205.822334 59.058148 
L 208.218898 61.081298 
L 210.615462 63.717823 
L 213.012026 66.995806 
L 215.40859 70.938798 
L 217.805154 75.560236 
L 220.201718 80.857712 
L 222.598282 86.807705 
L 224.994846 93.361544 
L 227.39141 100.443408 
L 232.184538 115.759389 
L 239.37423 139.557479 
L 244.167359 154.371016 
L 246.563923 161.156985 
L 248.960487 167.46532 
L 251.357051 173.290827 
L 253.753615 178.658429 
L 256.150179 183.616484 
L 258.546743 188.228392 
L 263.339871 196.68947 
L 268.132999 204.530019 
L 272.926127 212.026424 
L 277.719256 219.186502 
L 282.512384 225.812751 
L 284.908948 228.839958 
L 287.305512 231.634137 
L 289.702076 234.171768 
L 292.09864 236.438409 
L 294.495204 238.429208 
L 296.891768 240.14827 
L 299.288332 241.607232 
L 301.684896 242.823457 
L 304.08146 243.81828 
L 306.478024 244.615598 
L 308.874588 245.240954 
L 311.271152 245.721045 
L 316.064281 246.356507 
L 332.840229 247.876275 
L 340.029921 249.001054 
L 349.616178 250.537575 
L 354.409306 251.109305 
L 359.202434 251.505502 
L 366.392126 251.822677 
L 373.581818 251.916115 
L 373.581818 251.916115 
" style="fill:none;stroke:#4c72b0;stroke-linecap:round;stroke-width:1.5;"/>
   </g>
   <g id="patch_14">
    <path d="M 54 252 
L 54 34.56 
" style="fill:none;stroke:#cccccc;stroke-linecap:square;stroke-linejoin:miter;stroke-width:1.25;"/>
   </g>
   <g id="patch_15">
    <path d="M 388.8 252 
L 388.8 34.56 
" style="fill:none;stroke:#cccccc;stroke-linecap:square;stroke-linejoin:miter;stroke-width:1.25;"/>
   </g>
   <g id="patch_16">
    <path d="M 54 252 
L 388.8 252 
" style="fill:none;stroke:#cccccc;stroke-linecap:square;stroke-linejoin:miter;stroke-width:1.25;"/>
   </g>
   <g id="patch_17">
    <path d="M 54 34.56 
L 388.8 34.56 
" style="fill:none;stroke:#cccccc;stroke-linecap:square;stroke-linejoin:miter;stroke-width:1.25;"/>
   </g>
  </g>
 </g>
 <defs>
  <clipPath id="pf3ffd03561">
   <rect height="217.44" width="334.8" x="54" y="34.56"/>
  </clipPath>
 </defs>
</svg>
