<?xml version="1.0" encoding="utf-8" standalone="no"?>
<!DOCTYPE svg PUBLIC "-//W3C//DTD SVG 1.1//EN"
  "http://www.w3.org/Graphics/SVG/1.1/DTD/svg11.dtd">
<!-- Created with matplotlib (https://matplotlib.org/) -->
<svg height="288pt" version="1.1" viewBox="0 0 432 288" width="432pt" xmlns="http://www.w3.org/2000/svg" xmlns:xlink="http://www.w3.org/1999/xlink">
 <defs>
  <style type="text/css">
*{stroke-linecap:butt;stroke-linejoin:round;}
  </style>
 </defs>
 <g id="figure_1">
  <g id="patch_1">
   <path d="M 0 288 
L 432 288 
L 432 0 
L 0 0 
z
" style="fill:#ffffff;"/>
  </g>
  <g id="axes_1">
   <g id="patch_2">
    <path d="M 54 252 
L 388.8 252 
L 388.8 34.56 
L 54 34.56 
z
" style="fill:#ffffff;"/>
   </g>
   <g id="matplotlib.axis_1">
    <g id="xtick_1">
     <g id="line2d_1">
      <path clip-path="url(#p68c287b646)" d="M 79.984555 252 
L 79.984555 34.56 
" style="fill:none;stroke:#cccccc;stroke-linecap:round;"/>
     </g>
     <g id="text_1">
      <!-- −5.0 -->
      <defs>
       <path d="M 52.828125 31.203125 
L 5.5625 31.203125 
L 5.5625 39.40625 
L 52.828125 39.40625 
z
" id="ArialMT-8722"/>
       <path d="M 4.15625 18.75 
L 13.375 19.53125 
Q 14.40625 12.796875 18.140625 9.390625 
Q 21.875 6 27.15625 6 
Q 33.5 6 37.890625 10.78125 
Q 42.28125 15.578125 42.28125 23.484375 
Q 42.28125 31 38.0625 35.34375 
Q 33.84375 39.703125 27 39.703125 
Q 22.75 39.703125 19.328125 37.765625 
Q 15.921875 35.84375 13.96875 32.765625 
L 5.71875 33.84375 
L 12.640625 70.609375 
L 48.25 70.609375 
L 48.25 62.203125 
L 19.671875 62.203125 
L 15.828125 42.96875 
Q 22.265625 47.46875 29.34375 47.46875 
Q 38.71875 47.46875 45.15625 40.96875 
Q 51.609375 34.46875 51.609375 24.265625 
Q 51.609375 14.546875 45.953125 7.46875 
Q 39.0625 -1.21875 27.15625 -1.21875 
Q 17.390625 -1.21875 11.203125 4.25 
Q 5.03125 9.71875 4.15625 18.75 
z
" id="ArialMT-53"/>
       <path d="M 9.078125 0 
L 9.078125 10.015625 
L 19.09375 10.015625 
L 19.09375 0 
z
" id="ArialMT-46"/>
       <path d="M 4.15625 35.296875 
Q 4.15625 48 6.765625 55.734375 
Q 9.375 63.484375 14.515625 67.671875 
Q 19.671875 71.875 27.484375 71.875 
Q 33.25 71.875 37.59375 69.546875 
Q 41.9375 67.234375 44.765625 62.859375 
Q 47.609375 58.5 49.21875 52.21875 
Q 50.828125 45.953125 50.828125 35.296875 
Q 50.828125 22.703125 48.234375 14.96875 
Q 45.65625 7.234375 40.5 3 
Q 35.359375 -1.21875 27.484375 -1.21875 
Q 17.140625 -1.21875 11.234375 6.203125 
Q 4.15625 15.140625 4.15625 35.296875 
z
M 13.1875 35.296875 
Q 13.1875 17.671875 17.3125 11.828125 
Q 21.4375 6 27.484375 6 
Q 33.546875 6 37.671875 11.859375 
Q 41.796875 17.71875 41.796875 35.296875 
Q 41.796875 52.984375 37.671875 58.78125 
Q 33.546875 64.59375 27.390625 64.59375 
Q 21.34375 64.59375 17.71875 59.46875 
Q 13.1875 52.9375 13.1875 35.296875 
z
" id="ArialMT-48"/>
      </defs>
      <g style="fill:#262626;" transform="translate(58.269867 277.247187)scale(0.22 -0.22)">
       <use xlink:href="#ArialMT-8722"/>
       <use x="58.398438" xlink:href="#ArialMT-53"/>
       <use x="114.013672" xlink:href="#ArialMT-46"/>
       <use x="141.796875" xlink:href="#ArialMT-48"/>
      </g>
     </g>
    </g>
    <g id="xtick_2">
     <g id="line2d_2">
      <path clip-path="url(#p68c287b646)" d="M 160.13577 252 
L 160.13577 34.56 
" style="fill:none;stroke:#cccccc;stroke-linecap:round;"/>
     </g>
     <g id="text_2">
      <!-- −2.5 -->
      <defs>
       <path d="M 50.34375 8.453125 
L 50.34375 0 
L 3.03125 0 
Q 2.9375 3.171875 4.046875 6.109375 
Q 5.859375 10.9375 9.828125 15.625 
Q 13.8125 20.3125 21.34375 26.46875 
Q 33.015625 36.03125 37.109375 41.625 
Q 41.21875 47.21875 41.21875 52.203125 
Q 41.21875 57.421875 37.46875 61 
Q 33.734375 64.59375 27.734375 64.59375 
Q 21.390625 64.59375 17.578125 60.78125 
Q 13.765625 56.984375 13.71875 50.25 
L 4.6875 51.171875 
Q 5.609375 61.28125 11.65625 66.578125 
Q 17.71875 71.875 27.9375 71.875 
Q 38.234375 71.875 44.234375 66.15625 
Q 50.25 60.453125 50.25 52 
Q 50.25 47.703125 48.484375 43.546875 
Q 46.734375 39.40625 42.65625 34.8125 
Q 38.578125 30.21875 29.109375 22.21875 
Q 21.1875 15.578125 18.9375 13.203125 
Q 16.703125 10.84375 15.234375 8.453125 
z
" id="ArialMT-50"/>
      </defs>
      <g style="fill:#262626;" transform="translate(138.421083 277.247187)scale(0.22 -0.22)">
       <use xlink:href="#ArialMT-8722"/>
       <use x="58.398438" xlink:href="#ArialMT-50"/>
       <use x="114.013672" xlink:href="#ArialMT-46"/>
       <use x="141.796875" xlink:href="#ArialMT-53"/>
      </g>
     </g>
    </g>
    <g id="xtick_3">
     <g id="line2d_3">
      <path clip-path="url(#p68c287b646)" d="M 240.286986 252 
L 240.286986 34.56 
" style="fill:none;stroke:#cccccc;stroke-linecap:round;"/>
     </g>
     <g id="text_3">
      <!-- 0.0 -->
      <g style="fill:#262626;" transform="translate(224.996986 277.247187)scale(0.22 -0.22)">
       <use xlink:href="#ArialMT-48"/>
       <use x="55.615234" xlink:href="#ArialMT-46"/>
       <use x="83.398438" xlink:href="#ArialMT-48"/>
      </g>
     </g>
    </g>
    <g id="xtick_4">
     <g id="line2d_4">
      <path clip-path="url(#p68c287b646)" d="M 320.438202 252 
L 320.438202 34.56 
" style="fill:none;stroke:#cccccc;stroke-linecap:round;"/>
     </g>
     <g id="text_4">
      <!-- 2.5 -->
      <g style="fill:#262626;" transform="translate(305.148202 277.247187)scale(0.22 -0.22)">
       <use xlink:href="#ArialMT-50"/>
       <use x="55.615234" xlink:href="#ArialMT-46"/>
       <use x="83.398438" xlink:href="#ArialMT-53"/>
      </g>
     </g>
    </g>
    <g id="text_5">
     <!-- Yerr_normalized -->
     <defs>
      <path d="M 27.875 0 
L 27.875 30.328125 
L 0.296875 71.578125 
L 11.8125 71.578125 
L 25.921875 50 
Q 29.828125 43.953125 33.203125 37.890625 
Q 36.421875 43.5 41.015625 50.53125 
L 54.890625 71.578125 
L 65.921875 71.578125 
L 37.359375 30.328125 
L 37.359375 0 
z
" id="ArialMT-89"/>
      <path d="M 42.09375 16.703125 
L 51.171875 15.578125 
Q 49.03125 7.625 43.21875 3.21875 
Q 37.40625 -1.171875 28.375 -1.171875 
Q 17 -1.171875 10.328125 5.828125 
Q 3.65625 12.84375 3.65625 25.484375 
Q 3.65625 38.578125 10.390625 45.796875 
Q 17.140625 53.03125 27.875 53.03125 
Q 38.28125 53.03125 44.875 45.953125 
Q 51.46875 38.875 51.46875 26.03125 
Q 51.46875 25.25 51.421875 23.6875 
L 12.75 23.6875 
Q 13.234375 15.140625 17.578125 10.59375 
Q 21.921875 6.0625 28.421875 6.0625 
Q 33.25 6.0625 36.671875 8.59375 
Q 40.09375 11.140625 42.09375 16.703125 
z
M 13.234375 30.90625 
L 42.1875 30.90625 
Q 41.609375 37.453125 38.875 40.71875 
Q 34.671875 45.796875 27.984375 45.796875 
Q 21.921875 45.796875 17.796875 41.75 
Q 13.671875 37.703125 13.234375 30.90625 
z
" id="ArialMT-101"/>
      <path d="M 6.5 0 
L 6.5 51.859375 
L 14.40625 51.859375 
L 14.40625 44 
Q 17.4375 49.515625 20 51.265625 
Q 22.5625 53.03125 25.640625 53.03125 
Q 30.078125 53.03125 34.671875 50.203125 
L 31.640625 42.046875 
Q 28.421875 43.953125 25.203125 43.953125 
Q 22.3125 43.953125 20.015625 42.21875 
Q 17.71875 40.484375 16.75 37.40625 
Q 15.28125 32.71875 15.28125 27.15625 
L 15.28125 0 
z
" id="ArialMT-114"/>
      <path d="M -1.515625 -19.875 
L -1.515625 -13.53125 
L 56.734375 -13.53125 
L 56.734375 -19.875 
z
" id="ArialMT-95"/>
      <path d="M 6.59375 0 
L 6.59375 51.859375 
L 14.5 51.859375 
L 14.5 44.484375 
Q 20.21875 53.03125 31 53.03125 
Q 35.6875 53.03125 39.625 51.34375 
Q 43.5625 49.65625 45.515625 46.921875 
Q 47.46875 44.1875 48.25 40.4375 
Q 48.734375 37.984375 48.734375 31.890625 
L 48.734375 0 
L 39.9375 0 
L 39.9375 31.546875 
Q 39.9375 36.921875 38.90625 39.578125 
Q 37.890625 42.234375 35.28125 43.8125 
Q 32.671875 45.40625 29.15625 45.40625 
Q 23.53125 45.40625 19.453125 41.84375 
Q 15.375 38.28125 15.375 28.328125 
L 15.375 0 
z
" id="ArialMT-110"/>
      <path d="M 3.328125 25.921875 
Q 3.328125 40.328125 11.328125 47.265625 
Q 18.015625 53.03125 27.640625 53.03125 
Q 38.328125 53.03125 45.109375 46.015625 
Q 51.90625 39.015625 51.90625 26.65625 
Q 51.90625 16.65625 48.90625 10.90625 
Q 45.90625 5.171875 40.15625 2 
Q 34.421875 -1.171875 27.640625 -1.171875 
Q 16.75 -1.171875 10.03125 5.8125 
Q 3.328125 12.796875 3.328125 25.921875 
z
M 12.359375 25.921875 
Q 12.359375 15.96875 16.703125 11.015625 
Q 21.046875 6.0625 27.640625 6.0625 
Q 34.1875 6.0625 38.53125 11.03125 
Q 42.875 16.015625 42.875 26.21875 
Q 42.875 35.84375 38.5 40.796875 
Q 34.125 45.75 27.640625 45.75 
Q 21.046875 45.75 16.703125 40.8125 
Q 12.359375 35.890625 12.359375 25.921875 
z
" id="ArialMT-111"/>
      <path d="M 6.59375 0 
L 6.59375 51.859375 
L 14.453125 51.859375 
L 14.453125 44.578125 
Q 16.890625 48.390625 20.9375 50.703125 
Q 25 53.03125 30.171875 53.03125 
Q 35.9375 53.03125 39.625 50.640625 
Q 43.3125 48.25 44.828125 43.953125 
Q 50.984375 53.03125 60.84375 53.03125 
Q 68.5625 53.03125 72.703125 48.75 
Q 76.859375 44.484375 76.859375 35.59375 
L 76.859375 0 
L 68.109375 0 
L 68.109375 32.671875 
Q 68.109375 37.9375 67.25 40.25 
Q 66.40625 42.578125 64.15625 43.984375 
Q 61.921875 45.40625 58.890625 45.40625 
Q 53.421875 45.40625 49.796875 41.765625 
Q 46.1875 38.140625 46.1875 30.125 
L 46.1875 0 
L 37.40625 0 
L 37.40625 33.6875 
Q 37.40625 39.546875 35.25 42.46875 
Q 33.109375 45.40625 28.21875 45.40625 
Q 24.515625 45.40625 21.359375 43.453125 
Q 18.21875 41.5 16.796875 37.734375 
Q 15.375 33.984375 15.375 26.90625 
L 15.375 0 
z
" id="ArialMT-109"/>
      <path d="M 40.4375 6.390625 
Q 35.546875 2.25 31.03125 0.53125 
Q 26.515625 -1.171875 21.34375 -1.171875 
Q 12.796875 -1.171875 8.203125 3 
Q 3.609375 7.171875 3.609375 13.671875 
Q 3.609375 17.484375 5.34375 20.625 
Q 7.078125 23.78125 9.890625 25.6875 
Q 12.703125 27.59375 16.21875 28.5625 
Q 18.796875 29.25 24.03125 29.890625 
Q 34.671875 31.15625 39.703125 32.90625 
Q 39.75 34.71875 39.75 35.203125 
Q 39.75 40.578125 37.25 42.78125 
Q 33.890625 45.75 27.25 45.75 
Q 21.046875 45.75 18.09375 43.578125 
Q 15.140625 41.40625 13.71875 35.890625 
L 5.125 37.0625 
Q 6.296875 42.578125 8.984375 45.96875 
Q 11.671875 49.359375 16.75 51.1875 
Q 21.828125 53.03125 28.515625 53.03125 
Q 35.15625 53.03125 39.296875 51.46875 
Q 43.453125 49.90625 45.40625 47.53125 
Q 47.359375 45.171875 48.140625 41.546875 
Q 48.578125 39.3125 48.578125 33.453125 
L 48.578125 21.734375 
Q 48.578125 9.46875 49.140625 6.21875 
Q 49.703125 2.984375 51.375 0 
L 42.1875 0 
Q 40.828125 2.734375 40.4375 6.390625 
z
M 39.703125 26.03125 
Q 34.90625 24.078125 25.34375 22.703125 
Q 19.921875 21.921875 17.671875 20.9375 
Q 15.4375 19.96875 14.203125 18.09375 
Q 12.984375 16.21875 12.984375 13.921875 
Q 12.984375 10.40625 15.640625 8.0625 
Q 18.3125 5.71875 23.4375 5.71875 
Q 28.515625 5.71875 32.46875 7.9375 
Q 36.421875 10.15625 38.28125 14.015625 
Q 39.703125 17 39.703125 22.796875 
z
" id="ArialMT-97"/>
      <path d="M 6.390625 0 
L 6.390625 71.578125 
L 15.1875 71.578125 
L 15.1875 0 
z
" id="ArialMT-108"/>
      <path d="M 6.640625 61.46875 
L 6.640625 71.578125 
L 15.4375 71.578125 
L 15.4375 61.46875 
z
M 6.640625 0 
L 6.640625 51.859375 
L 15.4375 51.859375 
L 15.4375 0 
z
" id="ArialMT-105"/>
      <path d="M 1.953125 0 
L 1.953125 7.125 
L 34.96875 45.015625 
Q 29.34375 44.734375 25.046875 44.734375 
L 3.90625 44.734375 
L 3.90625 51.859375 
L 46.296875 51.859375 
L 46.296875 46.046875 
L 18.21875 13.140625 
L 12.796875 7.125 
Q 18.703125 7.5625 23.875 7.5625 
L 47.859375 7.5625 
L 47.859375 0 
z
" id="ArialMT-122"/>
      <path d="M 40.234375 0 
L 40.234375 6.546875 
Q 35.296875 -1.171875 25.734375 -1.171875 
Q 19.53125 -1.171875 14.328125 2.25 
Q 9.125 5.671875 6.265625 11.796875 
Q 3.421875 17.921875 3.421875 25.875 
Q 3.421875 33.640625 6 39.96875 
Q 8.59375 46.296875 13.765625 49.65625 
Q 18.953125 53.03125 25.34375 53.03125 
Q 30.03125 53.03125 33.6875 51.046875 
Q 37.359375 49.078125 39.65625 45.90625 
L 39.65625 71.578125 
L 48.390625 71.578125 
L 48.390625 0 
z
M 12.453125 25.875 
Q 12.453125 15.921875 16.640625 10.984375 
Q 20.84375 6.0625 26.5625 6.0625 
Q 32.328125 6.0625 36.34375 10.765625 
Q 40.375 15.484375 40.375 25.140625 
Q 40.375 35.796875 36.265625 40.765625 
Q 32.171875 45.75 26.171875 45.75 
Q 20.3125 45.75 16.375 40.96875 
Q 12.453125 36.1875 12.453125 25.875 
z
" id="ArialMT-100"/>
     </defs>
     <g style="fill:#262626;" transform="translate(133.385625 302.798437)scale(0.24 -0.24)">
      <use xlink:href="#ArialMT-89"/>
      <use x="66.558594" xlink:href="#ArialMT-101"/>
      <use x="122.173828" xlink:href="#ArialMT-114"/>
      <use x="155.474609" xlink:href="#ArialMT-114"/>
      <use x="188.775391" xlink:href="#ArialMT-95"/>
      <use x="244.390625" xlink:href="#ArialMT-110"/>
      <use x="300.005859" xlink:href="#ArialMT-111"/>
      <use x="355.621094" xlink:href="#ArialMT-114"/>
      <use x="388.921875" xlink:href="#ArialMT-109"/>
      <use x="472.222656" xlink:href="#ArialMT-97"/>
      <use x="527.837891" xlink:href="#ArialMT-108"/>
      <use x="550.054688" xlink:href="#ArialMT-105"/>
      <use x="572.271484" xlink:href="#ArialMT-122"/>
      <use x="622.271484" xlink:href="#ArialMT-101"/>
      <use x="677.886719" xlink:href="#ArialMT-100"/>
     </g>
    </g>
   </g>
   <g id="matplotlib.axis_2">
    <g id="ytick_1">
     <g id="line2d_5">
      <path clip-path="url(#p68c287b646)" d="M 54 252 
L 388.8 252 
" style="fill:none;stroke:#cccccc;stroke-linecap:round;"/>
     </g>
     <g id="text_6">
      <!-- 0.0 -->
      <g style="fill:#262626;" transform="translate(13.92 259.873594)scale(0.22 -0.22)">
       <use xlink:href="#ArialMT-48"/>
       <use x="55.615234" xlink:href="#ArialMT-46"/>
       <use x="83.398438" xlink:href="#ArialMT-48"/>
      </g>
     </g>
    </g>
    <g id="ytick_2">
     <g id="line2d_6">
      <path clip-path="url(#p68c287b646)" d="M 54 162.716996 
L 388.8 162.716996 
" style="fill:none;stroke:#cccccc;stroke-linecap:round;"/>
     </g>
     <g id="text_7">
      <!-- 0.2 -->
      <g style="fill:#262626;" transform="translate(13.92 170.59059)scale(0.22 -0.22)">
       <use xlink:href="#ArialMT-48"/>
       <use x="55.615234" xlink:href="#ArialMT-46"/>
       <use x="83.398438" xlink:href="#ArialMT-50"/>
      </g>
     </g>
    </g>
    <g id="ytick_3">
     <g id="line2d_7">
      <path clip-path="url(#p68c287b646)" d="M 54 73.433992 
L 388.8 73.433992 
" style="fill:none;stroke:#cccccc;stroke-linecap:round;"/>
     </g>
     <g id="text_8">
      <!-- 0.4 -->
      <defs>
       <path d="M 32.328125 0 
L 32.328125 17.140625 
L 1.265625 17.140625 
L 1.265625 25.203125 
L 33.9375 71.578125 
L 41.109375 71.578125 
L 41.109375 25.203125 
L 50.78125 25.203125 
L 50.78125 17.140625 
L 41.109375 17.140625 
L 41.109375 0 
z
M 32.328125 25.203125 
L 32.328125 57.46875 
L 9.90625 25.203125 
z
" id="ArialMT-52"/>
      </defs>
      <g style="fill:#262626;" transform="translate(13.92 81.307586)scale(0.22 -0.22)">
       <use xlink:href="#ArialMT-48"/>
       <use x="55.615234" xlink:href="#ArialMT-46"/>
       <use x="83.398438" xlink:href="#ArialMT-52"/>
      </g>
     </g>
    </g>
   </g>
   <g id="patch_3">
    <path clip-path="url(#p68c287b646)" d="M 108.01174 252 
L 124.210063 252 
L 124.210063 245.097143 
L 108.01174 245.097143 
z
" style="fill:#4c72b0;opacity:0.4;stroke:#ffffff;stroke-linejoin:miter;"/>
   </g>
   <g id="patch_4">
    <path clip-path="url(#p68c287b646)" d="M 124.210063 252 
L 140.408386 252 
L 140.408386 252 
L 124.210063 252 
z
" style="fill:#4c72b0;opacity:0.4;stroke:#ffffff;stroke-linejoin:miter;"/>
   </g>
   <g id="patch_5">
    <path clip-path="url(#p68c287b646)" d="M 140.408386 252 
L 156.606709 252 
L 156.606709 245.097143 
L 140.408386 245.097143 
z
" style="fill:#4c72b0;opacity:0.4;stroke:#ffffff;stroke-linejoin:miter;"/>
   </g>
   <g id="patch_6">
    <path clip-path="url(#p68c287b646)" d="M 156.606709 252 
L 172.805032 252 
L 172.805032 245.097143 
L 156.606709 245.097143 
z
" style="fill:#4c72b0;opacity:0.4;stroke:#ffffff;stroke-linejoin:miter;"/>
   </g>
   <g id="patch_7">
    <path clip-path="url(#p68c287b646)" d="M 172.805032 252 
L 189.003354 252 
L 189.003354 182.971429 
L 172.805032 182.971429 
z
" style="fill:#4c72b0;opacity:0.4;stroke:#ffffff;stroke-linejoin:miter;"/>
   </g>
   <g id="patch_8">
    <path clip-path="url(#p68c287b646)" d="M 189.003354 252 
L 205.201677 252 
L 205.201677 210.582857 
L 189.003354 210.582857 
z
" style="fill:#4c72b0;opacity:0.4;stroke:#ffffff;stroke-linejoin:miter;"/>
   </g>
   <g id="patch_9">
    <path clip-path="url(#p68c287b646)" d="M 205.201677 252 
L 221.4 252 
L 221.4 120.845714 
L 205.201677 120.845714 
z
" style="fill:#4c72b0;opacity:0.4;stroke:#ffffff;stroke-linejoin:miter;"/>
   </g>
   <g id="patch_10">
    <path clip-path="url(#p68c287b646)" d="M 221.4 252 
L 237.598323 252 
L 237.598323 120.845714 
L 221.4 120.845714 
z
" style="fill:#4c72b0;opacity:0.4;stroke:#ffffff;stroke-linejoin:miter;"/>
   </g>
   <g id="patch_11">
    <path clip-path="url(#p68c287b646)" d="M 237.598323 252 
L 253.796646 252 
L 253.796646 44.914286 
L 237.598323 44.914286 
z
" style="fill:#4c72b0;opacity:0.4;stroke:#ffffff;stroke-linejoin:miter;"/>
   </g>
   <g id="patch_12">
    <path clip-path="url(#p68c287b646)" d="M 253.796646 252 
L 269.994968 252 
L 269.994968 134.651429 
L 253.796646 134.651429 
z
" style="fill:#4c72b0;opacity:0.4;stroke:#ffffff;stroke-linejoin:miter;"/>
   </g>
   <g id="patch_13">
    <path clip-path="url(#p68c287b646)" d="M 269.994968 252 
L 286.193291 252 
L 286.193291 162.262857 
L 269.994968 162.262857 
z
" style="fill:#4c72b0;opacity:0.4;stroke:#ffffff;stroke-linejoin:miter;"/>
   </g>
   <g id="patch_14">
    <path clip-path="url(#p68c287b646)" d="M 286.193291 252 
L 302.391614 252 
L 302.391614 210.582857 
L 286.193291 210.582857 
z
" style="fill:#4c72b0;opacity:0.4;stroke:#ffffff;stroke-linejoin:miter;"/>
   </g>
   <g id="patch_15">
    <path clip-path="url(#p68c287b646)" d="M 302.391614 252 
L 318.589937 252 
L 318.589937 245.097143 
L 302.391614 245.097143 
z
" style="fill:#4c72b0;opacity:0.4;stroke:#ffffff;stroke-linejoin:miter;"/>
   </g>
   <g id="patch_16">
    <path clip-path="url(#p68c287b646)" d="M 318.589937 252 
L 334.78826 252 
L 334.78826 224.388571 
L 318.589937 224.388571 
z
" style="fill:#4c72b0;opacity:0.4;stroke:#ffffff;stroke-linejoin:miter;"/>
   </g>
   <g id="LineCollection_1">
    <path clip-path="url(#p68c287b646)" d="M 260.584259 252 
L 260.584259 241.128 
" style="fill:none;stroke:#4c72b0;"/>
    <path clip-path="url(#p68c287b646)" d="M 228.100414 252 
L 228.100414 241.128 
" style="fill:none;stroke:#4c72b0;"/>
    <path clip-path="url(#p68c287b646)" d="M 225.59678 252 
L 225.59678 241.128 
" style="fill:none;stroke:#4c72b0;"/>
    <path clip-path="url(#p68c287b646)" d="M 242.565972 252 
L 242.565972 241.128 
" style="fill:none;stroke:#4c72b0;"/>
    <path clip-path="url(#p68c287b646)" d="M 215.700485 252 
L 215.700485 241.128 
" style="fill:none;stroke:#4c72b0;"/>
    <path clip-path="url(#p68c287b646)" d="M 258.089117 252 
L 258.089117 241.128 
" style="fill:none;stroke:#4c72b0;"/>
    <path clip-path="url(#p68c287b646)" d="M 241.496031 252 
L 241.496031 241.128 
" style="fill:none;stroke:#4c72b0;"/>
    <path clip-path="url(#p68c287b646)" d="M 320.513207 252 
L 320.513207 241.128 
" style="fill:none;stroke:#4c72b0;"/>
    <path clip-path="url(#p68c287b646)" d="M 212.885195 252 
L 212.885195 241.128 
" style="fill:none;stroke:#4c72b0;"/>
    <path clip-path="url(#p68c287b646)" d="M 300.606361 252 
L 300.606361 241.128 
" style="fill:none;stroke:#4c72b0;"/>
    <path clip-path="url(#p68c287b646)" d="M 203.742435 252 
L 203.742435 241.128 
" style="fill:none;stroke:#4c72b0;"/>
    <path clip-path="url(#p68c287b646)" d="M 245.191851 252 
L 245.191851 241.128 
" style="fill:none;stroke:#4c72b0;"/>
    <path clip-path="url(#p68c287b646)" d="M 277.528998 252 
L 277.528998 241.128 
" style="fill:none;stroke:#4c72b0;"/>
    <path clip-path="url(#p68c287b646)" d="M 247.643206 252 
L 247.643206 241.128 
" style="fill:none;stroke:#4c72b0;"/>
    <path clip-path="url(#p68c287b646)" d="M 174.901338 252 
L 174.901338 241.128 
" style="fill:none;stroke:#4c72b0;"/>
    <path clip-path="url(#p68c287b646)" d="M 275.407389 252 
L 275.407389 241.128 
" style="fill:none;stroke:#4c72b0;"/>
    <path clip-path="url(#p68c287b646)" d="M 276.929293 252 
L 276.929293 241.128 
" style="fill:none;stroke:#4c72b0;"/>
    <path clip-path="url(#p68c287b646)" d="M 264.575354 252 
L 264.575354 241.128 
" style="fill:none;stroke:#4c72b0;"/>
    <path clip-path="url(#p68c287b646)" d="M 238.712832 252 
L 238.712832 241.128 
" style="fill:none;stroke:#4c72b0;"/>
    <path clip-path="url(#p68c287b646)" d="M 233.633061 252 
L 233.633061 241.128 
" style="fill:none;stroke:#4c72b0;"/>
    <path clip-path="url(#p68c287b646)" d="M 285.519263 252 
L 285.519263 241.128 
" style="fill:none;stroke:#4c72b0;"/>
    <path clip-path="url(#p68c287b646)" d="M 268.030068 252 
L 268.030068 241.128 
" style="fill:none;stroke:#4c72b0;"/>
    <path clip-path="url(#p68c287b646)" d="M 242.305824 252 
L 242.305824 241.128 
" style="fill:none;stroke:#4c72b0;"/>
    <path clip-path="url(#p68c287b646)" d="M 262.647005 252 
L 262.647005 241.128 
" style="fill:none;stroke:#4c72b0;"/>
    <path clip-path="url(#p68c287b646)" d="M 228.795363 252 
L 228.795363 241.128 
" style="fill:none;stroke:#4c72b0;"/>
    <path clip-path="url(#p68c287b646)" d="M 222.308004 252 
L 222.308004 241.128 
" style="fill:none;stroke:#4c72b0;"/>
    <path clip-path="url(#p68c287b646)" d="M 237.858154 252 
L 237.858154 241.128 
" style="fill:none;stroke:#4c72b0;"/>
    <path clip-path="url(#p68c287b646)" d="M 222.977626 252 
L 222.977626 241.128 
" style="fill:none;stroke:#4c72b0;"/>
    <path clip-path="url(#p68c287b646)" d="M 208.628733 252 
L 208.628733 241.128 
" style="fill:none;stroke:#4c72b0;"/>
    <path clip-path="url(#p68c287b646)" d="M 178.625294 252 
L 178.625294 241.128 
" style="fill:none;stroke:#4c72b0;"/>
    <path clip-path="url(#p68c287b646)" d="M 247.889523 252 
L 247.889523 241.128 
" style="fill:none;stroke:#4c72b0;"/>
    <path clip-path="url(#p68c287b646)" d="M 187.845055 252 
L 187.845055 241.128 
" style="fill:none;stroke:#4c72b0;"/>
    <path clip-path="url(#p68c287b646)" d="M 221.328322 252 
L 221.328322 241.128 
" style="fill:none;stroke:#4c72b0;"/>
    <path clip-path="url(#p68c287b646)" d="M 175.007356 252 
L 175.007356 241.128 
" style="fill:none;stroke:#4c72b0;"/>
    <path clip-path="url(#p68c287b646)" d="M 209.075094 252 
L 209.075094 241.128 
" style="fill:none;stroke:#4c72b0;"/>
    <path clip-path="url(#p68c287b646)" d="M 181.519417 252 
L 181.519417 241.128 
" style="fill:none;stroke:#4c72b0;"/>
    <path clip-path="url(#p68c287b646)" d="M 219.691374 252 
L 219.691374 241.128 
" style="fill:none;stroke:#4c72b0;"/>
    <path clip-path="url(#p68c287b646)" d="M 251.783075 252 
L 251.783075 241.128 
" style="fill:none;stroke:#4c72b0;"/>
    <path clip-path="url(#p68c287b646)" d="M 275.488047 252 
L 275.488047 241.128 
" style="fill:none;stroke:#4c72b0;"/>
    <path clip-path="url(#p68c287b646)" d="M 214.226629 252 
L 214.226629 241.128 
" style="fill:none;stroke:#4c72b0;"/>
    <path clip-path="url(#p68c287b646)" d="M 259.612477 252 
L 259.612477 241.128 
" style="fill:none;stroke:#4c72b0;"/>
    <path clip-path="url(#p68c287b646)" d="M 233.564163 252 
L 233.564163 241.128 
" style="fill:none;stroke:#4c72b0;"/>
    <path clip-path="url(#p68c287b646)" d="M 279.142015 252 
L 279.142015 241.128 
" style="fill:none;stroke:#4c72b0;"/>
    <path clip-path="url(#p68c287b646)" d="M 229.201153 252 
L 229.201153 241.128 
" style="fill:none;stroke:#4c72b0;"/>
    <path clip-path="url(#p68c287b646)" d="M 281.244134 252 
L 281.244134 241.128 
" style="fill:none;stroke:#4c72b0;"/>
    <path clip-path="url(#p68c287b646)" d="M 249.563201 252 
L 249.563201 241.128 
" style="fill:none;stroke:#4c72b0;"/>
    <path clip-path="url(#p68c287b646)" d="M 260.15653 252 
L 260.15653 241.128 
" style="fill:none;stroke:#4c72b0;"/>
    <path clip-path="url(#p68c287b646)" d="M 214.377048 252 
L 214.377048 241.128 
" style="fill:none;stroke:#4c72b0;"/>
    <path clip-path="url(#p68c287b646)" d="M 208.335812 252 
L 208.335812 241.128 
" style="fill:none;stroke:#4c72b0;"/>
    <path clip-path="url(#p68c287b646)" d="M 262.204625 252 
L 262.204625 241.128 
" style="fill:none;stroke:#4c72b0;"/>
    <path clip-path="url(#p68c287b646)" d="M 233.84656 252 
L 233.84656 241.128 
" style="fill:none;stroke:#4c72b0;"/>
    <path clip-path="url(#p68c287b646)" d="M 218.765175 252 
L 218.765175 241.128 
" style="fill:none;stroke:#4c72b0;"/>
    <path clip-path="url(#p68c287b646)" d="M 223.321206 252 
L 223.321206 241.128 
" style="fill:none;stroke:#4c72b0;"/>
    <path clip-path="url(#p68c287b646)" d="M 248.732592 252 
L 248.732592 241.128 
" style="fill:none;stroke:#4c72b0;"/>
    <path clip-path="url(#p68c287b646)" d="M 248.803975 252 
L 248.803975 241.128 
" style="fill:none;stroke:#4c72b0;"/>
    <path clip-path="url(#p68c287b646)" d="M 171.171111 252 
L 171.171111 241.128 
" style="fill:none;stroke:#4c72b0;"/>
    <path clip-path="url(#p68c287b646)" d="M 260.181139 252 
L 260.181139 241.128 
" style="fill:none;stroke:#4c72b0;"/>
    <path clip-path="url(#p68c287b646)" d="M 243.511259 252 
L 243.511259 241.128 
" style="fill:none;stroke:#4c72b0;"/>
    <path clip-path="url(#p68c287b646)" d="M 239.514753 252 
L 239.514753 241.128 
" style="fill:none;stroke:#4c72b0;"/>
    <path clip-path="url(#p68c287b646)" d="M 278.8001 252 
L 278.8001 241.128 
" style="fill:none;stroke:#4c72b0;"/>
    <path clip-path="url(#p68c287b646)" d="M 186.809471 252 
L 186.809471 241.128 
" style="fill:none;stroke:#4c72b0;"/>
    <path clip-path="url(#p68c287b646)" d="M 211.155439 252 
L 211.155439 241.128 
" style="fill:none;stroke:#4c72b0;"/>
    <path clip-path="url(#p68c287b646)" d="M 234.501928 252 
L 234.501928 241.128 
" style="fill:none;stroke:#4c72b0;"/>
    <path clip-path="url(#p68c287b646)" d="M 239.19728 252 
L 239.19728 241.128 
" style="fill:none;stroke:#4c72b0;"/>
    <path clip-path="url(#p68c287b646)" d="M 220.585582 252 
L 220.585582 241.128 
" style="fill:none;stroke:#4c72b0;"/>
    <path clip-path="url(#p68c287b646)" d="M 266.784754 252 
L 266.784754 241.128 
" style="fill:none;stroke:#4c72b0;"/>
    <path clip-path="url(#p68c287b646)" d="M 189.492316 252 
L 189.492316 241.128 
" style="fill:none;stroke:#4c72b0;"/>
    <path clip-path="url(#p68c287b646)" d="M 277.405934 252 
L 277.405934 241.128 
" style="fill:none;stroke:#4c72b0;"/>
    <path clip-path="url(#p68c287b646)" d="M 184.057064 252 
L 184.057064 241.128 
" style="fill:none;stroke:#4c72b0;"/>
    <path clip-path="url(#p68c287b646)" d="M 246.948243 252 
L 246.948243 241.128 
" style="fill:none;stroke:#4c72b0;"/>
    <path clip-path="url(#p68c287b646)" d="M 242.115151 252 
L 242.115151 241.128 
" style="fill:none;stroke:#4c72b0;"/>
    <path clip-path="url(#p68c287b646)" d="M 317.841161 252 
L 317.841161 241.128 
" style="fill:none;stroke:#4c72b0;"/>
    <path clip-path="url(#p68c287b646)" d="M 297.274297 252 
L 297.274297 241.128 
" style="fill:none;stroke:#4c72b0;"/>
    <path clip-path="url(#p68c287b646)" d="M 205.100447 252 
L 205.100447 241.128 
" style="fill:none;stroke:#4c72b0;"/>
    <path clip-path="url(#p68c287b646)" d="M 251.511077 252 
L 251.511077 241.128 
" style="fill:none;stroke:#4c72b0;"/>
    <path clip-path="url(#p68c287b646)" d="M 276.306936 252 
L 276.306936 241.128 
" style="fill:none;stroke:#4c72b0;"/>
    <path clip-path="url(#p68c287b646)" d="M 218.026451 252 
L 218.026451 241.128 
" style="fill:none;stroke:#4c72b0;"/>
    <path clip-path="url(#p68c287b646)" d="M 232.671797 252 
L 232.671797 241.128 
" style="fill:none;stroke:#4c72b0;"/>
    <path clip-path="url(#p68c287b646)" d="M 238.529319 252 
L 238.529319 241.128 
" style="fill:none;stroke:#4c72b0;"/>
    <path clip-path="url(#p68c287b646)" d="M 258.13156 252 
L 258.13156 241.128 
" style="fill:none;stroke:#4c72b0;"/>
    <path clip-path="url(#p68c287b646)" d="M 237.985227 252 
L 237.985227 241.128 
" style="fill:none;stroke:#4c72b0;"/>
    <path clip-path="url(#p68c287b646)" d="M 252.432789 252 
L 252.432789 241.128 
" style="fill:none;stroke:#4c72b0;"/>
    <path clip-path="url(#p68c287b646)" d="M 216.865582 252 
L 216.865582 241.128 
" style="fill:none;stroke:#4c72b0;"/>
    <path clip-path="url(#p68c287b646)" d="M 257.525945 252 
L 257.525945 241.128 
" style="fill:none;stroke:#4c72b0;"/>
    <path clip-path="url(#p68c287b646)" d="M 204.469625 252 
L 204.469625 241.128 
" style="fill:none;stroke:#4c72b0;"/>
    <path clip-path="url(#p68c287b646)" d="M 238.203623 252 
L 238.203623 241.128 
" style="fill:none;stroke:#4c72b0;"/>
    <path clip-path="url(#p68c287b646)" d="M 236.500197 252 
L 236.500197 241.128 
" style="fill:none;stroke:#4c72b0;"/>
    <path clip-path="url(#p68c287b646)" d="M 264.110561 252 
L 264.110561 241.128 
" style="fill:none;stroke:#4c72b0;"/>
    <path clip-path="url(#p68c287b646)" d="M 219.663544 252 
L 219.663544 241.128 
" style="fill:none;stroke:#4c72b0;"/>
    <path clip-path="url(#p68c287b646)" d="M 293.584974 252 
L 293.584974 241.128 
" style="fill:none;stroke:#4c72b0;"/>
    <path clip-path="url(#p68c287b646)" d="M 226.128095 252 
L 226.128095 241.128 
" style="fill:none;stroke:#4c72b0;"/>
    <path clip-path="url(#p68c287b646)" d="M 319.55971 252 
L 319.55971 241.128 
" style="fill:none;stroke:#4c72b0;"/>
    <path clip-path="url(#p68c287b646)" d="M 218.393971 252 
L 218.393971 241.128 
" style="fill:none;stroke:#4c72b0;"/>
    <path clip-path="url(#p68c287b646)" d="M 250.927194 252 
L 250.927194 241.128 
" style="fill:none;stroke:#4c72b0;"/>
    <path clip-path="url(#p68c287b646)" d="M 265.675271 252 
L 265.675271 241.128 
" style="fill:none;stroke:#4c72b0;"/>
    <path clip-path="url(#p68c287b646)" d="M 241.076345 252 
L 241.076345 241.128 
" style="fill:none;stroke:#4c72b0;"/>
    <path clip-path="url(#p68c287b646)" d="M 108.01174 252 
L 108.01174 241.128 
" style="fill:none;stroke:#4c72b0;"/>
    <path clip-path="url(#p68c287b646)" d="M 262.122519 252 
L 262.122519 241.128 
" style="fill:none;stroke:#4c72b0;"/>
    <path clip-path="url(#p68c287b646)" d="M 183.633793 252 
L 183.633793 241.128 
" style="fill:none;stroke:#4c72b0;"/>
    <path clip-path="url(#p68c287b646)" d="M 208.038351 252 
L 208.038351 241.128 
" style="fill:none;stroke:#4c72b0;"/>
    <path clip-path="url(#p68c287b646)" d="M 202.64609 252 
L 202.64609 241.128 
" style="fill:none;stroke:#4c72b0;"/>
    <path clip-path="url(#p68c287b646)" d="M 230.03919 252 
L 230.03919 241.128 
" style="fill:none;stroke:#4c72b0;"/>
    <path clip-path="url(#p68c287b646)" d="M 225.929041 252 
L 225.929041 241.128 
" style="fill:none;stroke:#4c72b0;"/>
    <path clip-path="url(#p68c287b646)" d="M 250.912847 252 
L 250.912847 241.128 
" style="fill:none;stroke:#4c72b0;"/>
    <path clip-path="url(#p68c287b646)" d="M 224.833909 252 
L 224.833909 241.128 
" style="fill:none;stroke:#4c72b0;"/>
    <path clip-path="url(#p68c287b646)" d="M 255.177932 252 
L 255.177932 241.128 
" style="fill:none;stroke:#4c72b0;"/>
    <path clip-path="url(#p68c287b646)" d="M 233.602879 252 
L 233.602879 241.128 
" style="fill:none;stroke:#4c72b0;"/>
    <path clip-path="url(#p68c287b646)" d="M 246.940174 252 
L 246.940174 241.128 
" style="fill:none;stroke:#4c72b0;"/>
    <path clip-path="url(#p68c287b646)" d="M 217.430784 252 
L 217.430784 241.128 
" style="fill:none;stroke:#4c72b0;"/>
    <path clip-path="url(#p68c287b646)" d="M 252.2271 252 
L 252.2271 241.128 
" style="fill:none;stroke:#4c72b0;"/>
    <path clip-path="url(#p68c287b646)" d="M 220.375705 252 
L 220.375705 241.128 
" style="fill:none;stroke:#4c72b0;"/>
    <path clip-path="url(#p68c287b646)" d="M 328.591038 252 
L 328.591038 241.128 
" style="fill:none;stroke:#4c72b0;"/>
    <path clip-path="url(#p68c287b646)" d="M 262.953936 252 
L 262.953936 241.128 
" style="fill:none;stroke:#4c72b0;"/>
    <path clip-path="url(#p68c287b646)" d="M 154.908356 252 
L 154.908356 241.128 
" style="fill:none;stroke:#4c72b0;"/>
    <path clip-path="url(#p68c287b646)" d="M 290.426444 252 
L 290.426444 241.128 
" style="fill:none;stroke:#4c72b0;"/>
    <path clip-path="url(#p68c287b646)" d="M 187.64988 252 
L 187.64988 241.128 
" style="fill:none;stroke:#4c72b0;"/>
    <path clip-path="url(#p68c287b646)" d="M 252.366244 252 
L 252.366244 241.128 
" style="fill:none;stroke:#4c72b0;"/>
    <path clip-path="url(#p68c287b646)" d="M 249.563099 252 
L 249.563099 241.128 
" style="fill:none;stroke:#4c72b0;"/>
    <path clip-path="url(#p68c287b646)" d="M 276.464477 252 
L 276.464477 241.128 
" style="fill:none;stroke:#4c72b0;"/>
    <path clip-path="url(#p68c287b646)" d="M 246.157322 252 
L 246.157322 241.128 
" style="fill:none;stroke:#4c72b0;"/>
    <path clip-path="url(#p68c287b646)" d="M 300.191007 252 
L 300.191007 241.128 
" style="fill:none;stroke:#4c72b0;"/>
    <path clip-path="url(#p68c287b646)" d="M 193.922427 252 
L 193.922427 241.128 
" style="fill:none;stroke:#4c72b0;"/>
    <path clip-path="url(#p68c287b646)" d="M 277.673324 252 
L 277.673324 241.128 
" style="fill:none;stroke:#4c72b0;"/>
    <path clip-path="url(#p68c287b646)" d="M 334.78826 252 
L 334.78826 241.128 
" style="fill:none;stroke:#4c72b0;"/>
    <path clip-path="url(#p68c287b646)" d="M 183.158059 252 
L 183.158059 241.128 
" style="fill:none;stroke:#4c72b0;"/>
    <path clip-path="url(#p68c287b646)" d="M 279.708756 252 
L 279.708756 241.128 
" style="fill:none;stroke:#4c72b0;"/>
    <path clip-path="url(#p68c287b646)" d="M 235.959719 252 
L 235.959719 241.128 
" style="fill:none;stroke:#4c72b0;"/>
    <path clip-path="url(#p68c287b646)" d="M 287.901631 252 
L 287.901631 241.128 
" style="fill:none;stroke:#4c72b0;"/>
   </g>
   <g id="line2d_8">
    <path clip-path="url(#p68c287b646)" d="M 69.218182 251.930772 
L 76.407874 251.815348 
L 81.201002 251.586988 
L 85.99413 251.178641 
L 90.787258 250.570826 
L 102.770079 248.841046 
L 107.563207 248.573703 
L 112.356335 248.745 
L 117.149463 249.270504 
L 124.339155 250.209578 
L 129.132283 250.556195 
L 131.528848 250.570862 
L 133.925412 250.459301 
L 136.321976 250.211664 
L 138.71854 249.820411 
L 141.115104 249.277964 
L 143.511668 248.574024 
L 145.908232 247.692848 
L 148.304796 246.611011 
L 150.70136 245.296439 
L 153.097924 243.709565 
L 155.494488 241.807307 
L 157.891052 239.55006 
L 160.287616 236.911103 
L 162.68418 233.886921 
L 165.080744 230.506189 
L 169.873873 222.974434 
L 174.667001 215.211517 
L 177.063565 211.574231 
L 179.460129 208.231745 
L 181.856693 205.21537 
L 186.649821 199.919472 
L 189.046385 197.341066 
L 191.442949 194.525209 
L 193.839513 191.240128 
L 196.236077 187.281906 
L 198.632641 182.50796 
L 201.029205 176.861349 
L 203.42577 170.381477 
L 205.822334 163.199433 
L 210.615462 147.588542 
L 215.40859 131.98672 
L 217.805154 124.74243 
L 220.201718 118.064014 
L 222.598282 112.023426 
L 224.994846 106.644632 
L 227.39141 101.923001 
L 229.787974 97.847613 
L 232.184538 94.421029 
L 234.581102 91.672014 
L 236.977666 89.658598 
L 239.37423 88.4613 
L 241.770795 88.16854 
L 244.167359 88.857897 
L 246.563923 90.577442 
L 248.960487 93.33106 
L 251.357051 97.070587 
L 253.753615 101.696166 
L 256.150179 107.064738 
L 258.546743 113.005211 
L 263.339871 125.894399 
L 272.926127 152.215714 
L 284.908948 184.033821 
L 289.702076 196.211353 
L 292.09864 201.918743 
L 294.495204 207.246083 
L 296.891768 212.108401 
L 299.288332 216.438583 
L 301.684896 220.193229 
L 304.08146 223.356439 
L 306.478024 225.941842 
L 308.874588 227.992851 
L 311.271152 229.580651 
L 313.667717 230.799414 
L 316.064281 231.758535 
L 325.650537 235.130557 
L 328.047101 236.236645 
L 330.443665 237.503818 
L 335.236793 240.416156 
L 342.426485 244.970277 
L 344.823049 246.324353 
L 347.219613 247.530984 
L 349.616178 248.570596 
L 352.012742 249.437051 
L 354.409306 250.13579 
L 356.80587 250.681052 
L 361.598998 251.3933 
L 366.392126 251.749092 
L 373.581818 251.925512 
L 373.581818 251.925512 
" style="fill:none;stroke:#4c72b0;stroke-linecap:round;stroke-width:1.5;"/>
   </g>
   <g id="patch_17">
    <path d="M 54 252 
L 54 34.56 
" style="fill:none;stroke:#cccccc;stroke-linecap:square;stroke-linejoin:miter;stroke-width:1.25;"/>
   </g>
   <g id="patch_18">
    <path d="M 388.8 252 
L 388.8 34.56 
" style="fill:none;stroke:#cccccc;stroke-linecap:square;stroke-linejoin:miter;stroke-width:1.25;"/>
   </g>
   <g id="patch_19">
    <path d="M 54 252 
L 388.8 252 
" style="fill:none;stroke:#cccccc;stroke-linecap:square;stroke-linejoin:miter;stroke-width:1.25;"/>
   </g>
   <g id="patch_20">
    <path d="M 54 34.56 
L 388.8 34.56 
" style="fill:none;stroke:#cccccc;stroke-linecap:square;stroke-linejoin:miter;stroke-width:1.25;"/>
   </g>
  </g>
 </g>
 <defs>
  <clipPath id="p68c287b646">
   <rect height="217.44" width="334.8" x="54" y="34.56"/>
  </clipPath>
 </defs>
</svg>
