<?xml version="1.0" encoding="utf-8" standalone="no"?>
<!DOCTYPE svg PUBLIC "-//W3C//DTD SVG 1.1//EN"
  "http://www.w3.org/Graphics/SVG/1.1/DTD/svg11.dtd">
<!-- Created with matplotlib (https://matplotlib.org/) -->
<svg height="720pt" version="1.1" viewBox="0 0 1152 720" width="1152pt" xmlns="http://www.w3.org/2000/svg" xmlns:xlink="http://www.w3.org/1999/xlink">
 <defs>
  <style type="text/css">
*{stroke-linecap:butt;stroke-linejoin:round;}
  </style>
 </defs>
 <g id="figure_1">
  <g id="patch_1">
   <path d="M 0 720 
L 1152 720 
L 1152 0 
L 0 0 
z
" style="fill:#ffffff;"/>
  </g>
  <g id="axes_1">
   <g id="patch_2">
    <path d="M 144 630 
L 1036.8 630 
L 1036.8 86.4 
L 144 86.4 
z
" style="fill:#ffffff;"/>
   </g>
   <g id="matplotlib.axis_1">
    <g id="xtick_1">
     <g id="line2d_1">
      <path clip-path="url(#pdeb7f89c00)" d="M 144 630 
L 144 86.4 
" style="fill:none;stroke:#cccccc;stroke-linecap:round;"/>
     </g>
     <g id="text_1">
      <!-- 0.0 -->
      <defs>
       <path d="M 4.15625 35.296875 
Q 4.15625 48 6.765625 55.734375 
Q 9.375 63.484375 14.515625 67.671875 
Q 19.671875 71.875 27.484375 71.875 
Q 33.25 71.875 37.59375 69.546875 
Q 41.9375 67.234375 44.765625 62.859375 
Q 47.609375 58.5 49.21875 52.21875 
Q 50.828125 45.953125 50.828125 35.296875 
Q 50.828125 22.703125 48.234375 14.96875 
Q 45.65625 7.234375 40.5 3 
Q 35.359375 -1.21875 27.484375 -1.21875 
Q 17.140625 -1.21875 11.234375 6.203125 
Q 4.15625 15.140625 4.15625 35.296875 
z
M 13.1875 35.296875 
Q 13.1875 17.671875 17.3125 11.828125 
Q 21.4375 6 27.484375 6 
Q 33.546875 6 37.671875 11.859375 
Q 41.796875 17.71875 41.796875 35.296875 
Q 41.796875 52.984375 37.671875 58.78125 
Q 33.546875 64.59375 27.390625 64.59375 
Q 21.34375 64.59375 17.71875 59.46875 
Q 13.1875 52.9375 13.1875 35.296875 
z
" id="ArialMT-48"/>
       <path d="M 9.078125 0 
L 9.078125 10.015625 
L 19.09375 10.015625 
L 19.09375 0 
z
" id="ArialMT-46"/>
      </defs>
      <g style="fill:#262626;" transform="translate(128.71 655.247187)scale(0.22 -0.22)">
       <use xlink:href="#ArialMT-48"/>
       <use x="55.615234" xlink:href="#ArialMT-46"/>
       <use x="83.398438" xlink:href="#ArialMT-48"/>
      </g>
     </g>
    </g>
    <g id="xtick_2">
     <g id="line2d_2">
      <path clip-path="url(#pdeb7f89c00)" d="M 322.56 630 
L 322.56 86.4 
" style="fill:none;stroke:#cccccc;stroke-linecap:round;"/>
     </g>
     <g id="text_2">
      <!-- 0.2 -->
      <defs>
       <path d="M 50.34375 8.453125 
L 50.34375 0 
L 3.03125 0 
Q 2.9375 3.171875 4.046875 6.109375 
Q 5.859375 10.9375 9.828125 15.625 
Q 13.8125 20.3125 21.34375 26.46875 
Q 33.015625 36.03125 37.109375 41.625 
Q 41.21875 47.21875 41.21875 52.203125 
Q 41.21875 57.421875 37.46875 61 
Q 33.734375 64.59375 27.734375 64.59375 
Q 21.390625 64.59375 17.578125 60.78125 
Q 13.765625 56.984375 13.71875 50.25 
L 4.6875 51.171875 
Q 5.609375 61.28125 11.65625 66.578125 
Q 17.71875 71.875 27.9375 71.875 
Q 38.234375 71.875 44.234375 66.15625 
Q 50.25 60.453125 50.25 52 
Q 50.25 47.703125 48.484375 43.546875 
Q 46.734375 39.40625 42.65625 34.8125 
Q 38.578125 30.21875 29.109375 22.21875 
Q 21.1875 15.578125 18.9375 13.203125 
Q 16.703125 10.84375 15.234375 8.453125 
z
" id="ArialMT-50"/>
      </defs>
      <g style="fill:#262626;" transform="translate(307.27 655.247187)scale(0.22 -0.22)">
       <use xlink:href="#ArialMT-48"/>
       <use x="55.615234" xlink:href="#ArialMT-46"/>
       <use x="83.398438" xlink:href="#ArialMT-50"/>
      </g>
     </g>
    </g>
    <g id="xtick_3">
     <g id="line2d_3">
      <path clip-path="url(#pdeb7f89c00)" d="M 501.12 630 
L 501.12 86.4 
" style="fill:none;stroke:#cccccc;stroke-linecap:round;"/>
     </g>
     <g id="text_3">
      <!-- 0.4 -->
      <defs>
       <path d="M 32.328125 0 
L 32.328125 17.140625 
L 1.265625 17.140625 
L 1.265625 25.203125 
L 33.9375 71.578125 
L 41.109375 71.578125 
L 41.109375 25.203125 
L 50.78125 25.203125 
L 50.78125 17.140625 
L 41.109375 17.140625 
L 41.109375 0 
z
M 32.328125 25.203125 
L 32.328125 57.46875 
L 9.90625 25.203125 
z
" id="ArialMT-52"/>
      </defs>
      <g style="fill:#262626;" transform="translate(485.83 655.247187)scale(0.22 -0.22)">
       <use xlink:href="#ArialMT-48"/>
       <use x="55.615234" xlink:href="#ArialMT-46"/>
       <use x="83.398438" xlink:href="#ArialMT-52"/>
      </g>
     </g>
    </g>
    <g id="xtick_4">
     <g id="line2d_4">
      <path clip-path="url(#pdeb7f89c00)" d="M 679.68 630 
L 679.68 86.4 
" style="fill:none;stroke:#cccccc;stroke-linecap:round;"/>
     </g>
     <g id="text_4">
      <!-- 0.6 -->
      <defs>
       <path d="M 49.75 54.046875 
L 41.015625 53.375 
Q 39.84375 58.546875 37.703125 60.890625 
Q 34.125 64.65625 28.90625 64.65625 
Q 24.703125 64.65625 21.53125 62.3125 
Q 17.390625 59.28125 14.984375 53.46875 
Q 12.59375 47.65625 12.5 36.921875 
Q 15.671875 41.75 20.265625 44.09375 
Q 24.859375 46.4375 29.890625 46.4375 
Q 38.671875 46.4375 44.84375 39.96875 
Q 51.03125 33.5 51.03125 23.25 
Q 51.03125 16.5 48.125 10.71875 
Q 45.21875 4.9375 40.140625 1.859375 
Q 35.0625 -1.21875 28.609375 -1.21875 
Q 17.625 -1.21875 10.6875 6.859375 
Q 3.765625 14.9375 3.765625 33.5 
Q 3.765625 54.25 11.421875 63.671875 
Q 18.109375 71.875 29.4375 71.875 
Q 37.890625 71.875 43.28125 67.140625 
Q 48.6875 62.40625 49.75 54.046875 
z
M 13.875 23.1875 
Q 13.875 18.65625 15.796875 14.5 
Q 17.71875 10.359375 21.1875 8.171875 
Q 24.65625 6 28.46875 6 
Q 34.03125 6 38.03125 10.484375 
Q 42.046875 14.984375 42.046875 22.703125 
Q 42.046875 30.125 38.078125 34.390625 
Q 34.125 38.671875 28.125 38.671875 
Q 22.171875 38.671875 18.015625 34.390625 
Q 13.875 30.125 13.875 23.1875 
z
" id="ArialMT-54"/>
      </defs>
      <g style="fill:#262626;" transform="translate(664.39 655.247187)scale(0.22 -0.22)">
       <use xlink:href="#ArialMT-48"/>
       <use x="55.615234" xlink:href="#ArialMT-46"/>
       <use x="83.398438" xlink:href="#ArialMT-54"/>
      </g>
     </g>
    </g>
    <g id="xtick_5">
     <g id="line2d_5">
      <path clip-path="url(#pdeb7f89c00)" d="M 858.24 630 
L 858.24 86.4 
" style="fill:none;stroke:#cccccc;stroke-linecap:round;"/>
     </g>
     <g id="text_5">
      <!-- 0.8 -->
      <defs>
       <path d="M 17.671875 38.8125 
Q 12.203125 40.828125 9.5625 44.53125 
Q 6.9375 48.25 6.9375 53.421875 
Q 6.9375 61.234375 12.546875 66.546875 
Q 18.171875 71.875 27.484375 71.875 
Q 36.859375 71.875 42.578125 66.421875 
Q 48.296875 60.984375 48.296875 53.171875 
Q 48.296875 48.1875 45.671875 44.5 
Q 43.0625 40.828125 37.75 38.8125 
Q 44.34375 36.671875 47.78125 31.875 
Q 51.21875 27.09375 51.21875 20.453125 
Q 51.21875 11.28125 44.71875 5.03125 
Q 38.234375 -1.21875 27.640625 -1.21875 
Q 17.046875 -1.21875 10.546875 5.046875 
Q 4.046875 11.328125 4.046875 20.703125 
Q 4.046875 27.6875 7.59375 32.390625 
Q 11.140625 37.109375 17.671875 38.8125 
z
M 15.921875 53.71875 
Q 15.921875 48.640625 19.1875 45.40625 
Q 22.46875 42.1875 27.6875 42.1875 
Q 32.765625 42.1875 36.015625 45.375 
Q 39.265625 48.578125 39.265625 53.21875 
Q 39.265625 58.0625 35.90625 61.359375 
Q 32.5625 64.65625 27.59375 64.65625 
Q 22.5625 64.65625 19.234375 61.421875 
Q 15.921875 58.203125 15.921875 53.71875 
z
M 13.09375 20.65625 
Q 13.09375 16.890625 14.875 13.375 
Q 16.65625 9.859375 20.171875 7.921875 
Q 23.6875 6 27.734375 6 
Q 34.03125 6 38.125 10.046875 
Q 42.234375 14.109375 42.234375 20.359375 
Q 42.234375 26.703125 38.015625 30.859375 
Q 33.796875 35.015625 27.4375 35.015625 
Q 21.234375 35.015625 17.15625 30.90625 
Q 13.09375 26.8125 13.09375 20.65625 
z
" id="ArialMT-56"/>
      </defs>
      <g style="fill:#262626;" transform="translate(842.95 655.247187)scale(0.22 -0.22)">
       <use xlink:href="#ArialMT-48"/>
       <use x="55.615234" xlink:href="#ArialMT-46"/>
       <use x="83.398438" xlink:href="#ArialMT-56"/>
      </g>
     </g>
    </g>
    <g id="xtick_6">
     <g id="line2d_6">
      <path clip-path="url(#pdeb7f89c00)" d="M 1036.8 630 
L 1036.8 86.4 
" style="fill:none;stroke:#cccccc;stroke-linecap:round;"/>
     </g>
     <g id="text_6">
      <!-- 1.0 -->
      <defs>
       <path d="M 37.25 0 
L 28.46875 0 
L 28.46875 56 
Q 25.296875 52.984375 20.140625 49.953125 
Q 14.984375 46.921875 10.890625 45.40625 
L 10.890625 53.90625 
Q 18.265625 57.375 23.78125 62.296875 
Q 29.296875 67.234375 31.59375 71.875 
L 37.25 71.875 
z
" id="ArialMT-49"/>
      </defs>
      <g style="fill:#262626;" transform="translate(1021.51 655.247187)scale(0.22 -0.22)">
       <use xlink:href="#ArialMT-49"/>
       <use x="55.615234" xlink:href="#ArialMT-46"/>
       <use x="83.398438" xlink:href="#ArialMT-48"/>
      </g>
     </g>
    </g>
    <g id="text_7">
     <!-- Simulation Result -->
     <defs>
      <path d="M 4.5 23 
L 13.421875 23.78125 
Q 14.0625 18.40625 16.375 14.96875 
Q 18.703125 11.53125 23.578125 9.40625 
Q 28.46875 7.28125 34.578125 7.28125 
Q 39.984375 7.28125 44.140625 8.890625 
Q 48.296875 10.5 50.3125 13.296875 
Q 52.34375 16.109375 52.34375 19.4375 
Q 52.34375 22.796875 50.390625 25.3125 
Q 48.4375 27.828125 43.953125 29.546875 
Q 41.0625 30.671875 31.203125 33.03125 
Q 21.34375 35.40625 17.390625 37.5 
Q 12.25 40.1875 9.734375 44.15625 
Q 7.234375 48.140625 7.234375 53.078125 
Q 7.234375 58.5 10.296875 63.203125 
Q 13.375 67.921875 19.28125 70.359375 
Q 25.203125 72.796875 32.421875 72.796875 
Q 40.375 72.796875 46.453125 70.234375 
Q 52.546875 67.671875 55.8125 62.6875 
Q 59.078125 57.71875 59.328125 51.421875 
L 50.25 50.734375 
Q 49.515625 57.515625 45.28125 60.984375 
Q 41.0625 64.453125 32.8125 64.453125 
Q 24.21875 64.453125 20.28125 61.296875 
Q 16.359375 58.15625 16.359375 53.71875 
Q 16.359375 49.859375 19.140625 47.359375 
Q 21.875 44.875 33.421875 42.265625 
Q 44.96875 39.65625 49.265625 37.703125 
Q 55.515625 34.8125 58.484375 30.390625 
Q 61.46875 25.984375 61.46875 20.21875 
Q 61.46875 14.5 58.203125 9.4375 
Q 54.9375 4.390625 48.796875 1.578125 
Q 42.671875 -1.21875 35.015625 -1.21875 
Q 25.296875 -1.21875 18.71875 1.609375 
Q 12.15625 4.4375 8.421875 10.125 
Q 4.6875 15.828125 4.5 23 
z
" id="ArialMT-83"/>
      <path d="M 6.640625 61.46875 
L 6.640625 71.578125 
L 15.4375 71.578125 
L 15.4375 61.46875 
z
M 6.640625 0 
L 6.640625 51.859375 
L 15.4375 51.859375 
L 15.4375 0 
z
" id="ArialMT-105"/>
      <path d="M 6.59375 0 
L 6.59375 51.859375 
L 14.453125 51.859375 
L 14.453125 44.578125 
Q 16.890625 48.390625 20.9375 50.703125 
Q 25 53.03125 30.171875 53.03125 
Q 35.9375 53.03125 39.625 50.640625 
Q 43.3125 48.25 44.828125 43.953125 
Q 50.984375 53.03125 60.84375 53.03125 
Q 68.5625 53.03125 72.703125 48.75 
Q 76.859375 44.484375 76.859375 35.59375 
L 76.859375 0 
L 68.109375 0 
L 68.109375 32.671875 
Q 68.109375 37.9375 67.25 40.25 
Q 66.40625 42.578125 64.15625 43.984375 
Q 61.921875 45.40625 58.890625 45.40625 
Q 53.421875 45.40625 49.796875 41.765625 
Q 46.1875 38.140625 46.1875 30.125 
L 46.1875 0 
L 37.40625 0 
L 37.40625 33.6875 
Q 37.40625 39.546875 35.25 42.46875 
Q 33.109375 45.40625 28.21875 45.40625 
Q 24.515625 45.40625 21.359375 43.453125 
Q 18.21875 41.5 16.796875 37.734375 
Q 15.375 33.984375 15.375 26.90625 
L 15.375 0 
z
" id="ArialMT-109"/>
      <path d="M 40.578125 0 
L 40.578125 7.625 
Q 34.515625 -1.171875 24.125 -1.171875 
Q 19.53125 -1.171875 15.546875 0.578125 
Q 11.578125 2.34375 9.640625 5 
Q 7.71875 7.671875 6.9375 11.53125 
Q 6.390625 14.109375 6.390625 19.734375 
L 6.390625 51.859375 
L 15.1875 51.859375 
L 15.1875 23.09375 
Q 15.1875 16.21875 15.71875 13.8125 
Q 16.546875 10.359375 19.234375 8.375 
Q 21.921875 6.390625 25.875 6.390625 
Q 29.828125 6.390625 33.296875 8.421875 
Q 36.765625 10.453125 38.203125 13.9375 
Q 39.65625 17.4375 39.65625 24.078125 
L 39.65625 51.859375 
L 48.4375 51.859375 
L 48.4375 0 
z
" id="ArialMT-117"/>
      <path d="M 6.390625 0 
L 6.390625 71.578125 
L 15.1875 71.578125 
L 15.1875 0 
z
" id="ArialMT-108"/>
      <path d="M 40.4375 6.390625 
Q 35.546875 2.25 31.03125 0.53125 
Q 26.515625 -1.171875 21.34375 -1.171875 
Q 12.796875 -1.171875 8.203125 3 
Q 3.609375 7.171875 3.609375 13.671875 
Q 3.609375 17.484375 5.34375 20.625 
Q 7.078125 23.78125 9.890625 25.6875 
Q 12.703125 27.59375 16.21875 28.5625 
Q 18.796875 29.25 24.03125 29.890625 
Q 34.671875 31.15625 39.703125 32.90625 
Q 39.75 34.71875 39.75 35.203125 
Q 39.75 40.578125 37.25 42.78125 
Q 33.890625 45.75 27.25 45.75 
Q 21.046875 45.75 18.09375 43.578125 
Q 15.140625 41.40625 13.71875 35.890625 
L 5.125 37.0625 
Q 6.296875 42.578125 8.984375 45.96875 
Q 11.671875 49.359375 16.75 51.1875 
Q 21.828125 53.03125 28.515625 53.03125 
Q 35.15625 53.03125 39.296875 51.46875 
Q 43.453125 49.90625 45.40625 47.53125 
Q 47.359375 45.171875 48.140625 41.546875 
Q 48.578125 39.3125 48.578125 33.453125 
L 48.578125 21.734375 
Q 48.578125 9.46875 49.140625 6.21875 
Q 49.703125 2.984375 51.375 0 
L 42.1875 0 
Q 40.828125 2.734375 40.4375 6.390625 
z
M 39.703125 26.03125 
Q 34.90625 24.078125 25.34375 22.703125 
Q 19.921875 21.921875 17.671875 20.9375 
Q 15.4375 19.96875 14.203125 18.09375 
Q 12.984375 16.21875 12.984375 13.921875 
Q 12.984375 10.40625 15.640625 8.0625 
Q 18.3125 5.71875 23.4375 5.71875 
Q 28.515625 5.71875 32.46875 7.9375 
Q 36.421875 10.15625 38.28125 14.015625 
Q 39.703125 17 39.703125 22.796875 
z
" id="ArialMT-97"/>
      <path d="M 25.78125 7.859375 
L 27.046875 0.09375 
Q 23.34375 -0.6875 20.40625 -0.6875 
Q 15.625 -0.6875 12.984375 0.828125 
Q 10.359375 2.34375 9.28125 4.8125 
Q 8.203125 7.28125 8.203125 15.1875 
L 8.203125 45.015625 
L 1.765625 45.015625 
L 1.765625 51.859375 
L 8.203125 51.859375 
L 8.203125 64.703125 
L 16.9375 69.96875 
L 16.9375 51.859375 
L 25.78125 51.859375 
L 25.78125 45.015625 
L 16.9375 45.015625 
L 16.9375 14.703125 
Q 16.9375 10.9375 17.40625 9.859375 
Q 17.875 8.796875 18.921875 8.15625 
Q 19.96875 7.515625 21.921875 7.515625 
Q 23.390625 7.515625 25.78125 7.859375 
z
" id="ArialMT-116"/>
      <path d="M 3.328125 25.921875 
Q 3.328125 40.328125 11.328125 47.265625 
Q 18.015625 53.03125 27.640625 53.03125 
Q 38.328125 53.03125 45.109375 46.015625 
Q 51.90625 39.015625 51.90625 26.65625 
Q 51.90625 16.65625 48.90625 10.90625 
Q 45.90625 5.171875 40.15625 2 
Q 34.421875 -1.171875 27.640625 -1.171875 
Q 16.75 -1.171875 10.03125 5.8125 
Q 3.328125 12.796875 3.328125 25.921875 
z
M 12.359375 25.921875 
Q 12.359375 15.96875 16.703125 11.015625 
Q 21.046875 6.0625 27.640625 6.0625 
Q 34.1875 6.0625 38.53125 11.03125 
Q 42.875 16.015625 42.875 26.21875 
Q 42.875 35.84375 38.5 40.796875 
Q 34.125 45.75 27.640625 45.75 
Q 21.046875 45.75 16.703125 40.8125 
Q 12.359375 35.890625 12.359375 25.921875 
z
" id="ArialMT-111"/>
      <path d="M 6.59375 0 
L 6.59375 51.859375 
L 14.5 51.859375 
L 14.5 44.484375 
Q 20.21875 53.03125 31 53.03125 
Q 35.6875 53.03125 39.625 51.34375 
Q 43.5625 49.65625 45.515625 46.921875 
Q 47.46875 44.1875 48.25 40.4375 
Q 48.734375 37.984375 48.734375 31.890625 
L 48.734375 0 
L 39.9375 0 
L 39.9375 31.546875 
Q 39.9375 36.921875 38.90625 39.578125 
Q 37.890625 42.234375 35.28125 43.8125 
Q 32.671875 45.40625 29.15625 45.40625 
Q 23.53125 45.40625 19.453125 41.84375 
Q 15.375 38.28125 15.375 28.328125 
L 15.375 0 
z
" id="ArialMT-110"/>
      <path id="ArialMT-32"/>
      <path d="M 7.859375 0 
L 7.859375 71.578125 
L 39.59375 71.578125 
Q 49.171875 71.578125 54.140625 69.640625 
Q 59.125 67.71875 62.109375 62.828125 
Q 65.09375 57.953125 65.09375 52.046875 
Q 65.09375 44.4375 60.15625 39.203125 
Q 55.21875 33.984375 44.921875 32.5625 
Q 48.6875 30.765625 50.640625 29 
Q 54.78125 25.203125 58.5 19.484375 
L 70.953125 0 
L 59.03125 0 
L 49.5625 14.890625 
Q 45.40625 21.34375 42.71875 24.75 
Q 40.046875 28.171875 37.921875 29.53125 
Q 35.796875 30.90625 33.59375 31.453125 
Q 31.984375 31.78125 28.328125 31.78125 
L 17.328125 31.78125 
L 17.328125 0 
z
M 17.328125 39.984375 
L 37.703125 39.984375 
Q 44.1875 39.984375 47.84375 41.328125 
Q 51.515625 42.671875 53.421875 45.625 
Q 55.328125 48.578125 55.328125 52.046875 
Q 55.328125 57.125 51.640625 60.390625 
Q 47.953125 63.671875 39.984375 63.671875 
L 17.328125 63.671875 
z
" id="ArialMT-82"/>
      <path d="M 42.09375 16.703125 
L 51.171875 15.578125 
Q 49.03125 7.625 43.21875 3.21875 
Q 37.40625 -1.171875 28.375 -1.171875 
Q 17 -1.171875 10.328125 5.828125 
Q 3.65625 12.84375 3.65625 25.484375 
Q 3.65625 38.578125 10.390625 45.796875 
Q 17.140625 53.03125 27.875 53.03125 
Q 38.28125 53.03125 44.875 45.953125 
Q 51.46875 38.875 51.46875 26.03125 
Q 51.46875 25.25 51.421875 23.6875 
L 12.75 23.6875 
Q 13.234375 15.140625 17.578125 10.59375 
Q 21.921875 6.0625 28.421875 6.0625 
Q 33.25 6.0625 36.671875 8.59375 
Q 40.09375 11.140625 42.09375 16.703125 
z
M 13.234375 30.90625 
L 42.1875 30.90625 
Q 41.609375 37.453125 38.875 40.71875 
Q 34.671875 45.796875 27.984375 45.796875 
Q 21.921875 45.796875 17.796875 41.75 
Q 13.671875 37.703125 13.234375 30.90625 
z
" id="ArialMT-101"/>
      <path d="M 3.078125 15.484375 
L 11.765625 16.84375 
Q 12.5 11.625 15.84375 8.84375 
Q 19.1875 6.0625 25.203125 6.0625 
Q 31.25 6.0625 34.171875 8.515625 
Q 37.109375 10.984375 37.109375 14.3125 
Q 37.109375 17.28125 34.515625 19 
Q 32.71875 20.171875 25.53125 21.96875 
Q 15.875 24.421875 12.140625 26.203125 
Q 8.40625 27.984375 6.46875 31.125 
Q 4.546875 34.28125 4.546875 38.09375 
Q 4.546875 41.546875 6.125 44.5 
Q 7.71875 47.46875 10.453125 49.421875 
Q 12.5 50.921875 16.03125 51.96875 
Q 19.578125 53.03125 23.640625 53.03125 
Q 29.734375 53.03125 34.34375 51.265625 
Q 38.96875 49.515625 41.15625 46.5 
Q 43.359375 43.5 44.1875 38.484375 
L 35.59375 37.3125 
Q 35.015625 41.3125 32.203125 43.546875 
Q 29.390625 45.796875 24.265625 45.796875 
Q 18.21875 45.796875 15.625 43.796875 
Q 13.03125 41.796875 13.03125 39.109375 
Q 13.03125 37.40625 14.109375 36.03125 
Q 15.1875 34.625 17.484375 33.6875 
Q 18.796875 33.203125 25.25 31.453125 
Q 34.578125 28.953125 38.25 27.359375 
Q 41.9375 25.78125 44.03125 22.75 
Q 46.140625 19.734375 46.140625 15.234375 
Q 46.140625 10.84375 43.578125 6.953125 
Q 41.015625 3.078125 36.171875 0.953125 
Q 31.34375 -1.171875 25.25 -1.171875 
Q 15.140625 -1.171875 9.84375 3.03125 
Q 4.546875 7.234375 3.078125 15.484375 
z
" id="ArialMT-115"/>
     </defs>
     <g style="fill:#262626;" transform="translate(497.02875 680.798437)scale(0.24 -0.24)">
      <use xlink:href="#ArialMT-83"/>
      <use x="66.699219" xlink:href="#ArialMT-105"/>
      <use x="88.916016" xlink:href="#ArialMT-109"/>
      <use x="172.216797" xlink:href="#ArialMT-117"/>
      <use x="227.832031" xlink:href="#ArialMT-108"/>
      <use x="250.048828" xlink:href="#ArialMT-97"/>
      <use x="305.664062" xlink:href="#ArialMT-116"/>
      <use x="333.447266" xlink:href="#ArialMT-105"/>
      <use x="355.664062" xlink:href="#ArialMT-111"/>
      <use x="411.279297" xlink:href="#ArialMT-110"/>
      <use x="466.894531" xlink:href="#ArialMT-32"/>
      <use x="494.677734" xlink:href="#ArialMT-82"/>
      <use x="566.894531" xlink:href="#ArialMT-101"/>
      <use x="622.509766" xlink:href="#ArialMT-115"/>
      <use x="672.509766" xlink:href="#ArialMT-117"/>
      <use x="728.125" xlink:href="#ArialMT-108"/>
      <use x="750.341797" xlink:href="#ArialMT-116"/>
     </g>
    </g>
   </g>
   <g id="matplotlib.axis_2">
    <g id="ytick_1">
     <g id="line2d_7">
      <path clip-path="url(#pdeb7f89c00)" d="M 144 598.171543 
L 1036.8 598.171543 
" style="fill:none;stroke:#cccccc;stroke-linecap:round;"/>
     </g>
     <g id="text_8">
      <!-- −0.2 -->
      <defs>
       <path d="M 52.828125 31.203125 
L 5.5625 31.203125 
L 5.5625 39.40625 
L 52.828125 39.40625 
z
" id="ArialMT-8722"/>
      </defs>
      <g style="fill:#262626;" transform="translate(91.070625 606.045137)scale(0.22 -0.22)">
       <use xlink:href="#ArialMT-8722"/>
       <use x="58.398438" xlink:href="#ArialMT-48"/>
       <use x="114.013672" xlink:href="#ArialMT-46"/>
       <use x="141.796875" xlink:href="#ArialMT-50"/>
      </g>
     </g>
    </g>
    <g id="ytick_2">
     <g id="line2d_8">
      <path clip-path="url(#pdeb7f89c00)" d="M 144 535.931697 
L 1036.8 535.931697 
" style="fill:none;stroke:#cccccc;stroke-linecap:round;"/>
     </g>
     <g id="text_9">
      <!-- 0.0 -->
      <g style="fill:#262626;" transform="translate(103.92 543.805291)scale(0.22 -0.22)">
       <use xlink:href="#ArialMT-48"/>
       <use x="55.615234" xlink:href="#ArialMT-46"/>
       <use x="83.398438" xlink:href="#ArialMT-48"/>
      </g>
     </g>
    </g>
    <g id="ytick_3">
     <g id="line2d_9">
      <path clip-path="url(#pdeb7f89c00)" d="M 144 473.691851 
L 1036.8 473.691851 
" style="fill:none;stroke:#cccccc;stroke-linecap:round;"/>
     </g>
     <g id="text_10">
      <!-- 0.2 -->
      <g style="fill:#262626;" transform="translate(103.92 481.565445)scale(0.22 -0.22)">
       <use xlink:href="#ArialMT-48"/>
       <use x="55.615234" xlink:href="#ArialMT-46"/>
       <use x="83.398438" xlink:href="#ArialMT-50"/>
      </g>
     </g>
    </g>
    <g id="ytick_4">
     <g id="line2d_10">
      <path clip-path="url(#pdeb7f89c00)" d="M 144 411.452005 
L 1036.8 411.452005 
" style="fill:none;stroke:#cccccc;stroke-linecap:round;"/>
     </g>
     <g id="text_11">
      <!-- 0.4 -->
      <g style="fill:#262626;" transform="translate(103.92 419.325599)scale(0.22 -0.22)">
       <use xlink:href="#ArialMT-48"/>
       <use x="55.615234" xlink:href="#ArialMT-46"/>
       <use x="83.398438" xlink:href="#ArialMT-52"/>
      </g>
     </g>
    </g>
    <g id="ytick_5">
     <g id="line2d_11">
      <path clip-path="url(#pdeb7f89c00)" d="M 144 349.212159 
L 1036.8 349.212159 
" style="fill:none;stroke:#cccccc;stroke-linecap:round;"/>
     </g>
     <g id="text_12">
      <!-- 0.6 -->
      <g style="fill:#262626;" transform="translate(103.92 357.085753)scale(0.22 -0.22)">
       <use xlink:href="#ArialMT-48"/>
       <use x="55.615234" xlink:href="#ArialMT-46"/>
       <use x="83.398438" xlink:href="#ArialMT-54"/>
      </g>
     </g>
    </g>
    <g id="ytick_6">
     <g id="line2d_12">
      <path clip-path="url(#pdeb7f89c00)" d="M 144 286.972313 
L 1036.8 286.972313 
" style="fill:none;stroke:#cccccc;stroke-linecap:round;"/>
     </g>
     <g id="text_13">
      <!-- 0.8 -->
      <g style="fill:#262626;" transform="translate(103.92 294.845906)scale(0.22 -0.22)">
       <use xlink:href="#ArialMT-48"/>
       <use x="55.615234" xlink:href="#ArialMT-46"/>
       <use x="83.398438" xlink:href="#ArialMT-56"/>
      </g>
     </g>
    </g>
    <g id="ytick_7">
     <g id="line2d_13">
      <path clip-path="url(#pdeb7f89c00)" d="M 144 224.732467 
L 1036.8 224.732467 
" style="fill:none;stroke:#cccccc;stroke-linecap:round;"/>
     </g>
     <g id="text_14">
      <!-- 1.0 -->
      <g style="fill:#262626;" transform="translate(103.92 232.60606)scale(0.22 -0.22)">
       <use xlink:href="#ArialMT-49"/>
       <use x="55.615234" xlink:href="#ArialMT-46"/>
       <use x="83.398438" xlink:href="#ArialMT-48"/>
      </g>
     </g>
    </g>
    <g id="ytick_8">
     <g id="line2d_14">
      <path clip-path="url(#pdeb7f89c00)" d="M 144 162.492621 
L 1036.8 162.492621 
" style="fill:none;stroke:#cccccc;stroke-linecap:round;"/>
     </g>
     <g id="text_15">
      <!-- 1.2 -->
      <g style="fill:#262626;" transform="translate(103.92 170.366214)scale(0.22 -0.22)">
       <use xlink:href="#ArialMT-49"/>
       <use x="55.615234" xlink:href="#ArialMT-46"/>
       <use x="83.398438" xlink:href="#ArialMT-50"/>
      </g>
     </g>
    </g>
    <g id="ytick_9">
     <g id="line2d_15">
      <path clip-path="url(#pdeb7f89c00)" d="M 144 100.252774 
L 1036.8 100.252774 
" style="fill:none;stroke:#cccccc;stroke-linecap:round;"/>
     </g>
     <g id="text_16">
      <!-- 1.4 -->
      <g style="fill:#262626;" transform="translate(103.92 108.126368)scale(0.22 -0.22)">
       <use xlink:href="#ArialMT-49"/>
       <use x="55.615234" xlink:href="#ArialMT-46"/>
       <use x="83.398438" xlink:href="#ArialMT-52"/>
      </g>
     </g>
    </g>
    <g id="text_17">
     <!-- Predicted -->
     <defs>
      <path d="M 7.71875 0 
L 7.71875 71.578125 
L 34.71875 71.578125 
Q 41.84375 71.578125 45.609375 70.90625 
Q 50.875 70.015625 54.4375 67.546875 
Q 58.015625 65.09375 60.1875 60.640625 
Q 62.359375 56.203125 62.359375 50.875 
Q 62.359375 41.75 56.546875 35.421875 
Q 50.734375 29.109375 35.546875 29.109375 
L 17.1875 29.109375 
L 17.1875 0 
z
M 17.1875 37.546875 
L 35.6875 37.546875 
Q 44.875 37.546875 48.734375 40.96875 
Q 52.59375 44.390625 52.59375 50.59375 
Q 52.59375 55.078125 50.3125 58.265625 
Q 48.046875 61.46875 44.34375 62.5 
Q 41.9375 63.140625 35.5 63.140625 
L 17.1875 63.140625 
z
" id="ArialMT-80"/>
      <path d="M 6.5 0 
L 6.5 51.859375 
L 14.40625 51.859375 
L 14.40625 44 
Q 17.4375 49.515625 20 51.265625 
Q 22.5625 53.03125 25.640625 53.03125 
Q 30.078125 53.03125 34.671875 50.203125 
L 31.640625 42.046875 
Q 28.421875 43.953125 25.203125 43.953125 
Q 22.3125 43.953125 20.015625 42.21875 
Q 17.71875 40.484375 16.75 37.40625 
Q 15.28125 32.71875 15.28125 27.15625 
L 15.28125 0 
z
" id="ArialMT-114"/>
      <path d="M 40.234375 0 
L 40.234375 6.546875 
Q 35.296875 -1.171875 25.734375 -1.171875 
Q 19.53125 -1.171875 14.328125 2.25 
Q 9.125 5.671875 6.265625 11.796875 
Q 3.421875 17.921875 3.421875 25.875 
Q 3.421875 33.640625 6 39.96875 
Q 8.59375 46.296875 13.765625 49.65625 
Q 18.953125 53.03125 25.34375 53.03125 
Q 30.03125 53.03125 33.6875 51.046875 
Q 37.359375 49.078125 39.65625 45.90625 
L 39.65625 71.578125 
L 48.390625 71.578125 
L 48.390625 0 
z
M 12.453125 25.875 
Q 12.453125 15.921875 16.640625 10.984375 
Q 20.84375 6.0625 26.5625 6.0625 
Q 32.328125 6.0625 36.34375 10.765625 
Q 40.375 15.484375 40.375 25.140625 
Q 40.375 35.796875 36.265625 40.765625 
Q 32.171875 45.75 26.171875 45.75 
Q 20.3125 45.75 16.375 40.96875 
Q 12.453125 36.1875 12.453125 25.875 
z
" id="ArialMT-100"/>
      <path d="M 40.4375 19 
L 49.078125 17.875 
Q 47.65625 8.9375 41.8125 3.875 
Q 35.984375 -1.171875 27.484375 -1.171875 
Q 16.84375 -1.171875 10.375 5.78125 
Q 3.90625 12.75 3.90625 25.734375 
Q 3.90625 34.125 6.6875 40.421875 
Q 9.46875 46.734375 15.15625 49.875 
Q 20.84375 53.03125 27.546875 53.03125 
Q 35.984375 53.03125 41.359375 48.75 
Q 46.734375 44.484375 48.25 36.625 
L 39.703125 35.296875 
Q 38.484375 40.53125 35.375 43.15625 
Q 32.28125 45.796875 27.875 45.796875 
Q 21.234375 45.796875 17.078125 41.03125 
Q 12.9375 36.28125 12.9375 25.984375 
Q 12.9375 15.53125 16.9375 10.796875 
Q 20.953125 6.0625 27.390625 6.0625 
Q 32.5625 6.0625 36.03125 9.234375 
Q 39.5 12.40625 40.4375 19 
z
" id="ArialMT-99"/>
     </defs>
     <g style="fill:#262626;" transform="translate(82.300625 408.8925)rotate(-90)scale(0.24 -0.24)">
      <use xlink:href="#ArialMT-80"/>
      <use x="66.699219" xlink:href="#ArialMT-114"/>
      <use x="100" xlink:href="#ArialMT-101"/>
      <use x="155.615234" xlink:href="#ArialMT-100"/>
      <use x="211.230469" xlink:href="#ArialMT-105"/>
      <use x="233.447266" xlink:href="#ArialMT-99"/>
      <use x="283.447266" xlink:href="#ArialMT-116"/>
      <use x="311.230469" xlink:href="#ArialMT-101"/>
      <use x="366.845703" xlink:href="#ArialMT-100"/>
     </g>
    </g>
   </g>
   <g id="LineCollection_1">
    <path clip-path="url(#pdeb7f89c00)" d="M 364.224 559.460909 
L 364.224 349.83206 
" style="fill:none;stroke:#64b5cd;stroke-width:0.5;"/>
    <path clip-path="url(#pdeb7f89c00)" d="M 711.124528 451.414552 
L 711.124528 243.830302 
" style="fill:none;stroke:#64b5cd;stroke-width:0.5;"/>
    <path clip-path="url(#pdeb7f89c00)" d="M 766.254545 484.115605 
L 766.254545 274.83028 
" style="fill:none;stroke:#64b5cd;stroke-width:0.5;"/>
    <path clip-path="url(#pdeb7f89c00)" d="M 513.989189 471.201636 
L 513.989189 261.43121 
" style="fill:none;stroke:#64b5cd;stroke-width:0.5;"/>
    <path clip-path="url(#pdeb7f89c00)" d="M 362.24 556.334319 
L 362.24 346.856777 
" style="fill:none;stroke:#64b5cd;stroke-width:0.5;"/>
    <path clip-path="url(#pdeb7f89c00)" d="M 860.1 406.082915 
L 860.1 198.591393 
" style="fill:none;stroke:#64b5cd;stroke-width:0.5;"/>
    <path clip-path="url(#pdeb7f89c00)" d="M 768.96 423.466314 
L 768.96 214.355995 
" style="fill:none;stroke:#64b5cd;stroke-width:0.5;"/>
    <path clip-path="url(#pdeb7f89c00)" d="M 604.8 488.429667 
L 604.8 280.454715 
" style="fill:none;stroke:#64b5cd;stroke-width:0.5;"/>
    <path clip-path="url(#pdeb7f89c00)" d="M 540.8 439.377859 
L 540.8 235.184604 
" style="fill:none;stroke:#64b5cd;stroke-width:0.5;"/>
    <path clip-path="url(#pdeb7f89c00)" d="M 549.818182 521.341124 
L 549.818182 312.008375 
" style="fill:none;stroke:#64b5cd;stroke-width:0.5;"/>
    <path clip-path="url(#pdeb7f89c00)" d="M 947.52 409.92049 
L 947.52 200.145669 
" style="fill:none;stroke:#64b5cd;stroke-width:0.5;"/>
    <path clip-path="url(#pdeb7f89c00)" d="M 917.76 417.114388 
L 917.76 208.418582 
" style="fill:none;stroke:#64b5cd;stroke-width:0.5;"/>
    <path clip-path="url(#pdeb7f89c00)" d="M 1036.8 361.178755 
L 1036.8 154.01556 
" style="fill:none;stroke:#64b5cd;stroke-width:0.5;"/>
    <path clip-path="url(#pdeb7f89c00)" d="M 461.44 479.645883 
L 461.44 270.178439 
" style="fill:none;stroke:#64b5cd;stroke-width:0.5;"/>
    <path clip-path="url(#pdeb7f89c00)" d="M 560.64 488.444818 
L 560.64 279.105612 
" style="fill:none;stroke:#64b5cd;stroke-width:0.5;"/>
    <path clip-path="url(#pdeb7f89c00)" d="M 611.538719 497.806312 
L 611.538719 291.155895 
" style="fill:none;stroke:#64b5cd;stroke-width:0.5;"/>
    <path clip-path="url(#pdeb7f89c00)" d="M 520.251429 517.07535 
L 520.251429 307.512843 
" style="fill:none;stroke:#64b5cd;stroke-width:0.5;"/>
    <path clip-path="url(#pdeb7f89c00)" d="M 387.490909 529.469625 
L 387.490909 319.978414 
" style="fill:none;stroke:#64b5cd;stroke-width:0.5;"/>
    <path clip-path="url(#pdeb7f89c00)" d="M 144 568.394759 
L 144 359.433941 
" style="fill:none;stroke:#64b5cd;stroke-width:0.5;"/>
    <path clip-path="url(#pdeb7f89c00)" d="M 239.657143 565.891921 
L 239.657143 357.676615 
" style="fill:none;stroke:#64b5cd;stroke-width:0.5;"/>
    <path clip-path="url(#pdeb7f89c00)" d="M 556.751759 498.69659 
L 556.751759 289.001789 
" style="fill:none;stroke:#64b5cd;stroke-width:0.5;"/>
    <path clip-path="url(#pdeb7f89c00)" d="M 452.078873 519.40391 
L 452.078873 310.119722 
" style="fill:none;stroke:#64b5cd;stroke-width:0.5;"/>
    <path clip-path="url(#pdeb7f89c00)" d="M 556.751759 520.209235 
L 556.751759 310.76442 
" style="fill:none;stroke:#64b5cd;stroke-width:0.5;"/>
    <path clip-path="url(#pdeb7f89c00)" d="M 1015.743396 327.836225 
L 1015.743396 119.638555 
" style="fill:none;stroke:#64b5cd;stroke-width:0.5;"/>
    <path clip-path="url(#pdeb7f89c00)" d="M 713.321739 449.598413 
L 713.321739 243.7259 
" style="fill:none;stroke:#64b5cd;stroke-width:0.5;"/>
    <path clip-path="url(#pdeb7f89c00)" d="M 957.44 383.340565 
L 957.44 179.621346 
" style="fill:none;stroke:#64b5cd;stroke-width:0.5;"/>
    <path clip-path="url(#pdeb7f89c00)" d="M 828.48 452.554454 
L 828.48 243.031472 
" style="fill:none;stroke:#64b5cd;stroke-width:0.5;"/>
    <path clip-path="url(#pdeb7f89c00)" d="M 441.6 513.80246 
L 441.6 304.072313 
" style="fill:none;stroke:#64b5cd;stroke-width:0.5;"/>
    <path clip-path="url(#pdeb7f89c00)" d="M 661.08 440.659246 
L 661.08 231.001537 
" style="fill:none;stroke:#64b5cd;stroke-width:0.5;"/>
    <path clip-path="url(#pdeb7f89c00)" d="M 277.92 570.223307 
L 277.92 361.381709 
" style="fill:none;stroke:#64b5cd;stroke-width:0.5;"/>
    <path clip-path="url(#pdeb7f89c00)" d="M 858.24 384.610443 
L 858.24 175.817266 
" style="fill:none;stroke:#64b5cd;stroke-width:0.5;"/>
    <path clip-path="url(#pdeb7f89c00)" d="M 729.9 462.490801 
L 729.9 253.61713 
" style="fill:none;stroke:#64b5cd;stroke-width:0.5;"/>
    <path clip-path="url(#pdeb7f89c00)" d="M 759.513993 404.86578 
L 759.513993 196.629901 
" style="fill:none;stroke:#64b5cd;stroke-width:0.5;"/>
    <path clip-path="url(#pdeb7f89c00)" d="M 431.68 522.967345 
L 431.68 313.19557 
" style="fill:none;stroke:#64b5cd;stroke-width:0.5;"/>
    <path clip-path="url(#pdeb7f89c00)" d="M 818.742857 393.628383 
L 818.742857 185.453994 
" style="fill:none;stroke:#64b5cd;stroke-width:0.5;"/>
    <path clip-path="url(#pdeb7f89c00)" d="M 376.128 506.145508 
L 376.128 302.616158 
" style="fill:none;stroke:#64b5cd;stroke-width:0.5;"/>
    <path clip-path="url(#pdeb7f89c00)" d="M 1004.452174 341.64066 
L 1004.452174 132.688679 
" style="fill:none;stroke:#64b5cd;stroke-width:0.5;"/>
    <path clip-path="url(#pdeb7f89c00)" d="M 813.6 444.773592 
L 813.6 237.437036 
" style="fill:none;stroke:#64b5cd;stroke-width:0.5;"/>
    <path clip-path="url(#pdeb7f89c00)" d="M 1036.8 407.875721 
L 1036.8 199.599546 
" style="fill:none;stroke:#64b5cd;stroke-width:0.5;"/>
    <path clip-path="url(#pdeb7f89c00)" d="M 549.219188 539.756078 
L 549.219188 330.922904 
" style="fill:none;stroke:#64b5cd;stroke-width:0.5;"/>
    <path clip-path="url(#pdeb7f89c00)" d="M 318.433613 561.232366 
L 318.433613 351.576587 
" style="fill:none;stroke:#64b5cd;stroke-width:0.5;"/>
    <path clip-path="url(#pdeb7f89c00)" d="M 937.6 361.227545 
L 937.6 152.716328 
" style="fill:none;stroke:#64b5cd;stroke-width:0.5;"/>
    <path clip-path="url(#pdeb7f89c00)" d="M 696.19422 436.89793 
L 696.19422 227.396194 
" style="fill:none;stroke:#64b5cd;stroke-width:0.5;"/>
    <path clip-path="url(#pdeb7f89c00)" d="M 477.497276 511.729615 
L 477.497276 303.657326 
" style="fill:none;stroke:#64b5cd;stroke-width:0.5;"/>
    <path clip-path="url(#pdeb7f89c00)" d="M 528.4 468.698392 
L 528.4 263.814324 
" style="fill:none;stroke:#64b5cd;stroke-width:0.5;"/>
    <path clip-path="url(#pdeb7f89c00)" d="M 579.169811 505.91099 
L 579.169811 301.816843 
" style="fill:none;stroke:#64b5cd;stroke-width:0.5;"/>
    <path clip-path="url(#pdeb7f89c00)" d="M 780.451485 444.105885 
L 780.451485 235.55211 
" style="fill:none;stroke:#64b5cd;stroke-width:0.5;"/>
    <path clip-path="url(#pdeb7f89c00)" d="M 406.588235 548.802727 
L 406.588235 340.141595 
" style="fill:none;stroke:#64b5cd;stroke-width:0.5;"/>
    <path clip-path="url(#pdeb7f89c00)" d="M 408.236771 526.891968 
L 408.236771 318.159119 
" style="fill:none;stroke:#64b5cd;stroke-width:0.5;"/>
    <path clip-path="url(#pdeb7f89c00)" d="M 741.6 411.317444 
L 741.6 203.015957 
" style="fill:none;stroke:#64b5cd;stroke-width:0.5;"/>
    <path clip-path="url(#pdeb7f89c00)" d="M 686.460759 410.350236 
L 686.460759 205.365603 
" style="fill:none;stroke:#64b5cd;stroke-width:0.5;"/>
    <path clip-path="url(#pdeb7f89c00)" d="M 383.531707 543.922737 
L 383.531707 334.993431 
" style="fill:none;stroke:#64b5cd;stroke-width:0.5;"/>
    <path clip-path="url(#pdeb7f89c00)" d="M 560.64 479.232201 
L 560.64 269.582949 
" style="fill:none;stroke:#64b5cd;stroke-width:0.5;"/>
    <path clip-path="url(#pdeb7f89c00)" d="M 377.751273 563.483813 
L 377.751273 353.754292 
" style="fill:none;stroke:#64b5cd;stroke-width:0.5;"/>
    <path clip-path="url(#pdeb7f89c00)" d="M 409.05 540.734221 
L 409.05 331.045255 
" style="fill:none;stroke:#64b5cd;stroke-width:0.5;"/>
    <path clip-path="url(#pdeb7f89c00)" d="M 575.52 491.11529 
L 575.52 284.001865 
" style="fill:none;stroke:#64b5cd;stroke-width:0.5;"/>
    <path clip-path="url(#pdeb7f89c00)" d="M 553.2 494.548592 
L 553.2 284.815562 
" style="fill:none;stroke:#64b5cd;stroke-width:0.5;"/>
    <path clip-path="url(#pdeb7f89c00)" d="M 792.106667 452.57491 
L 792.106667 243.276917 
" style="fill:none;stroke:#64b5cd;stroke-width:0.5;"/>
    <path clip-path="url(#pdeb7f89c00)" d="M 540.8 494.690655 
L 540.8 285.701529 
" style="fill:none;stroke:#64b5cd;stroke-width:0.5;"/>
    <path clip-path="url(#pdeb7f89c00)" d="M 619.561809 462.914316 
L 619.561809 253.258274 
" style="fill:none;stroke:#64b5cd;stroke-width:0.5;"/>
    <path clip-path="url(#pdeb7f89c00)" d="M 322.56 542.219795 
L 322.56 332.467548 
" style="fill:none;stroke:#64b5cd;stroke-width:0.5;"/>
    <path clip-path="url(#pdeb7f89c00)" d="M 848.32 408.160575 
L 848.32 199.528808 
" style="fill:none;stroke:#64b5cd;stroke-width:0.5;"/>
    <path clip-path="url(#pdeb7f89c00)" d="M 264.9 561.047327 
L 264.9 353.302703 
" style="fill:none;stroke:#64b5cd;stroke-width:0.5;"/>
    <path clip-path="url(#pdeb7f89c00)" d="M 975.227586 367.667967 
L 975.227586 158.771631 
" style="fill:none;stroke:#64b5cd;stroke-width:0.5;"/>
    <path clip-path="url(#pdeb7f89c00)" d="M 426.72 533.296281 
L 426.72 323.525376 
" style="fill:none;stroke:#64b5cd;stroke-width:0.5;"/>
    <path clip-path="url(#pdeb7f89c00)" d="M 942.198675 373.327174 
L 942.198675 163.688159 
" style="fill:none;stroke:#64b5cd;stroke-width:0.5;"/>
    <path clip-path="url(#pdeb7f89c00)" d="M 970.522271 326.077556 
L 970.522271 116.566008 
" style="fill:none;stroke:#64b5cd;stroke-width:0.5;"/>
    <path clip-path="url(#pdeb7f89c00)" d="M 365.224779 540.078935 
L 365.224779 330.334386 
" style="fill:none;stroke:#64b5cd;stroke-width:0.5;"/>
    <path clip-path="url(#pdeb7f89c00)" d="M 811.946667 417.702592 
L 811.946667 208.195187 
" style="fill:none;stroke:#64b5cd;stroke-width:0.5;"/>
    <path clip-path="url(#pdeb7f89c00)" d="M 1036.8 399.77583 
L 1036.8 192.297419 
" style="fill:none;stroke:#64b5cd;stroke-width:0.5;"/>
    <path clip-path="url(#pdeb7f89c00)" d="M 904.951899 397.333896 
L 904.951899 189.658163 
" style="fill:none;stroke:#64b5cd;stroke-width:0.5;"/>
    <path clip-path="url(#pdeb7f89c00)" d="M 709.44 418.257664 
L 709.44 208.492891 
" style="fill:none;stroke:#64b5cd;stroke-width:0.5;"/>
    <path clip-path="url(#pdeb7f89c00)" d="M 515.341593 540.05083 
L 515.341593 330.744845 
" style="fill:none;stroke:#64b5cd;stroke-width:0.5;"/>
    <path clip-path="url(#pdeb7f89c00)" d="M 689.161062 466.527566 
L 689.161062 256.800046 
" style="fill:none;stroke:#64b5cd;stroke-width:0.5;"/>
    <path clip-path="url(#pdeb7f89c00)" d="M 679.68 465.563755 
L 679.68 255.918452 
" style="fill:none;stroke:#64b5cd;stroke-width:0.5;"/>
    <path clip-path="url(#pdeb7f89c00)" d="M 454.354286 509.225065 
L 454.354286 299.799092 
" style="fill:none;stroke:#64b5cd;stroke-width:0.5;"/>
    <path clip-path="url(#pdeb7f89c00)" d="M 571.229448 512.28303 
L 571.229448 303.987118 
" style="fill:none;stroke:#64b5cd;stroke-width:0.5;"/>
    <path clip-path="url(#pdeb7f89c00)" d="M 587.819653 466.573977 
L 587.819653 257.953522 
" style="fill:none;stroke:#64b5cd;stroke-width:0.5;"/>
    <path clip-path="url(#pdeb7f89c00)" d="M 474.666667 530.338475 
L 474.666667 324.480285 
" style="fill:none;stroke:#64b5cd;stroke-width:0.5;"/>
    <path clip-path="url(#pdeb7f89c00)" d="M 251.88 547.956091 
L 251.88 338.865005 
" style="fill:none;stroke:#64b5cd;stroke-width:0.5;"/>
    <path clip-path="url(#pdeb7f89c00)" d="M 740.499563 446.457806 
L 740.499563 240.910848 
" style="fill:none;stroke:#64b5cd;stroke-width:0.5;"/>
    <path clip-path="url(#pdeb7f89c00)" d="M 731.722613 425.468036 
L 731.722613 217.327808 
" style="fill:none;stroke:#64b5cd;stroke-width:0.5;"/>
    <path clip-path="url(#pdeb7f89c00)" d="M 389.52 493.12375 
L 389.52 283.514451 
" style="fill:none;stroke:#64b5cd;stroke-width:0.5;"/>
    <path clip-path="url(#pdeb7f89c00)" d="M 536.832 519.799263 
L 536.832 311.300534 
" style="fill:none;stroke:#64b5cd;stroke-width:0.5;"/>
    <path clip-path="url(#pdeb7f89c00)" d="M 249.035294 578.374933 
L 249.035294 368.805958 
" style="fill:none;stroke:#64b5cd;stroke-width:0.5;"/>
    <path clip-path="url(#pdeb7f89c00)" d="M 505.945946 494.197945 
L 505.945946 286.817512 
" style="fill:none;stroke:#64b5cd;stroke-width:0.5;"/>
    <path clip-path="url(#pdeb7f89c00)" d="M 679.68 491.966653 
L 679.68 282.199251 
" style="fill:none;stroke:#64b5cd;stroke-width:0.5;"/>
    <path clip-path="url(#pdeb7f89c00)" d="M 481.816216 521.134216 
L 481.816216 311.766424 
" style="fill:none;stroke:#64b5cd;stroke-width:0.5;"/>
    <path clip-path="url(#pdeb7f89c00)" d="M 798.72 424.101428 
L 798.72 215.007125 
" style="fill:none;stroke:#64b5cd;stroke-width:0.5;"/>
    <path clip-path="url(#pdeb7f89c00)" d="M 868.591304 403.935646 
L 868.591304 196.303674 
" style="fill:none;stroke:#64b5cd;stroke-width:0.5;"/>
    <path clip-path="url(#pdeb7f89c00)" d="M 465.408 536.303736 
L 465.408 326.712483 
" style="fill:none;stroke:#64b5cd;stroke-width:0.5;"/>
    <path clip-path="url(#pdeb7f89c00)" d="M 429.327835 506.305175 
L 429.327835 296.596463 
" style="fill:none;stroke:#64b5cd;stroke-width:0.5;"/>
    <path clip-path="url(#pdeb7f89c00)" d="M 678.998473 444.844433 
L 678.998473 236.694213 
" style="fill:none;stroke:#64b5cd;stroke-width:0.5;"/>
    <path clip-path="url(#pdeb7f89c00)" d="M 873.12 387.762942 
L 873.12 179.170413 
" style="fill:none;stroke:#64b5cd;stroke-width:0.5;"/>
    <path clip-path="url(#pdeb7f89c00)" d="M 657.36 516.355071 
L 657.36 311.576319 
" style="fill:none;stroke:#64b5cd;stroke-width:0.5;"/>
    <path clip-path="url(#pdeb7f89c00)" d="M 813.6 426.63669 
L 813.6 217.661189 
" style="fill:none;stroke:#64b5cd;stroke-width:0.5;"/>
    <path clip-path="url(#pdeb7f89c00)" d="M 353.170286 534.745146 
L 353.170286 326.550068 
" style="fill:none;stroke:#64b5cd;stroke-width:0.5;"/>
    <path clip-path="url(#pdeb7f89c00)" d="M 481.28 519.130754 
L 481.28 311.536371 
" style="fill:none;stroke:#64b5cd;stroke-width:0.5;"/>
    <path clip-path="url(#pdeb7f89c00)" d="M 868.16 420.903018 
L 868.16 212.79859 
" style="fill:none;stroke:#64b5cd;stroke-width:0.5;"/>
    <path clip-path="url(#pdeb7f89c00)" d="M 302.4 582.683014 
L 302.4 373.036096 
" style="fill:none;stroke:#64b5cd;stroke-width:0.5;"/>
    <path clip-path="url(#pdeb7f89c00)" d="M 696.685714 430.111999 
L 696.685714 221.360058 
" style="fill:none;stroke:#64b5cd;stroke-width:0.5;"/>
    <path clip-path="url(#pdeb7f89c00)" d="M 673.728 462.804254 
L 673.728 253.062642 
" style="fill:none;stroke:#64b5cd;stroke-width:0.5;"/>
    <path clip-path="url(#pdeb7f89c00)" d="M 892.509091 467.976872 
L 892.509091 259.561226 
" style="fill:none;stroke:#64b5cd;stroke-width:0.5;"/>
    <path clip-path="url(#pdeb7f89c00)" d="M 392 526.00519 
L 392 316.389119 
" style="fill:none;stroke:#64b5cd;stroke-width:0.5;"/>
    <path clip-path="url(#pdeb7f89c00)" d="M 856.739496 409.343758 
L 856.739496 199.685117 
" style="fill:none;stroke:#64b5cd;stroke-width:0.5;"/>
    <path clip-path="url(#pdeb7f89c00)" d="M 306.327273 537.56911 
L 306.327273 329.421611 
" style="fill:none;stroke:#64b5cd;stroke-width:0.5;"/>
    <path clip-path="url(#pdeb7f89c00)" d="M 702 485.254029 
L 702 277.253922 
" style="fill:none;stroke:#64b5cd;stroke-width:0.5;"/>
    <path clip-path="url(#pdeb7f89c00)" d="M 642.128755 482.82726 
L 642.128755 273.086061 
" style="fill:none;stroke:#64b5cd;stroke-width:0.5;"/>
    <path clip-path="url(#pdeb7f89c00)" d="M 292.8 571.181064 
L 292.8 366.586775 
" style="fill:none;stroke:#64b5cd;stroke-width:0.5;"/>
    <path clip-path="url(#pdeb7f89c00)" d="M 927.68 344.311258 
L 927.68 135.444605 
" style="fill:none;stroke:#64b5cd;stroke-width:0.5;"/>
    <path clip-path="url(#pdeb7f89c00)" d="M 406.588235 522.411875 
L 406.588235 312.866721 
" style="fill:none;stroke:#64b5cd;stroke-width:0.5;"/>
    <path clip-path="url(#pdeb7f89c00)" d="M 304.704 571.913765 
L 304.704 362.241435 
" style="fill:none;stroke:#64b5cd;stroke-width:0.5;"/>
    <path clip-path="url(#pdeb7f89c00)" d="M 593.706667 486.20651 
L 593.706667 276.435201 
" style="fill:none;stroke:#64b5cd;stroke-width:0.5;"/>
    <path clip-path="url(#pdeb7f89c00)" d="M 387.04 562.923201 
L 387.04 354.439287 
" style="fill:none;stroke:#64b5cd;stroke-width:0.5;"/>
    <path clip-path="url(#pdeb7f89c00)" d="M 590.4 515.715268 
L 590.4 306.298238 
" style="fill:none;stroke:#64b5cd;stroke-width:0.5;"/>
    <path clip-path="url(#pdeb7f89c00)" d="M 965.376 414.437533 
L 965.376 205.141638 
" style="fill:none;stroke:#64b5cd;stroke-width:0.5;"/>
    <path clip-path="url(#pdeb7f89c00)" d="M 313.898507 563.129852 
L 313.898507 353.910692 
" style="fill:none;stroke:#64b5cd;stroke-width:0.5;"/>
    <path clip-path="url(#pdeb7f89c00)" d="M 275.940887 567.177668 
L 275.940887 357.433093 
" style="fill:none;stroke:#64b5cd;stroke-width:0.5;"/>
    <path clip-path="url(#pdeb7f89c00)" d="M 697.536 483.625602 
L 697.536 275.002338 
" style="fill:none;stroke:#64b5cd;stroke-width:0.5;"/>
    <path clip-path="url(#pdeb7f89c00)" d="M 1036.8 423.985132 
L 1036.8 217.711842 
" style="fill:none;stroke:#64b5cd;stroke-width:0.5;"/>
    <path clip-path="url(#pdeb7f89c00)" d="M 196.08 568.225151 
L 196.08 358.947973 
" style="fill:none;stroke:#64b5cd;stroke-width:0.5;"/>
    <path clip-path="url(#pdeb7f89c00)" d="M 570.56 450.136506 
L 570.56 240.548782 
" style="fill:none;stroke:#64b5cd;stroke-width:0.5;"/>
    <path clip-path="url(#pdeb7f89c00)" d="M 300.506773 580.305109 
L 300.506773 370.606378 
" style="fill:none;stroke:#64b5cd;stroke-width:0.5;"/>
    <path clip-path="url(#pdeb7f89c00)" d="M 778.88 446.984259 
L 778.88 238.535215 
" style="fill:none;stroke:#64b5cd;stroke-width:0.5;"/>
    <path clip-path="url(#pdeb7f89c00)" d="M 233.28 556.267094 
L 233.28 348.402502 
" style="fill:none;stroke:#64b5cd;stroke-width:0.5;"/>
    <path clip-path="url(#pdeb7f89c00)" d="M 544.22069 514.310379 
L 544.22069 306.027472 
" style="fill:none;stroke:#64b5cd;stroke-width:0.5;"/>
    <path clip-path="url(#pdeb7f89c00)" d="M 956.367568 367.609139 
L 956.367568 158.026523 
" style="fill:none;stroke:#64b5cd;stroke-width:0.5;"/>
    <path clip-path="url(#pdeb7f89c00)" d="M 550.72 445.807339 
L 550.72 237.699979 
" style="fill:none;stroke:#64b5cd;stroke-width:0.5;"/>
    <path clip-path="url(#pdeb7f89c00)" d="M 218.4 566.530498 
L 218.4 356.777988 
" style="fill:none;stroke:#64b5cd;stroke-width:0.5;"/>
    <path clip-path="url(#pdeb7f89c00)" d="M 144 590.60967 
L 144 382.494559 
" style="fill:none;stroke:#64b5cd;stroke-width:0.5;"/>
    <path clip-path="url(#pdeb7f89c00)" d="M 463.145701 512.970798 
L 463.145701 305.169132 
" style="fill:none;stroke:#64b5cd;stroke-width:0.5;"/>
    <path clip-path="url(#pdeb7f89c00)" d="M 879.956757 412.637033 
L 879.956757 207.095995 
" style="fill:none;stroke:#64b5cd;stroke-width:0.5;"/>
    <path clip-path="url(#pdeb7f89c00)" d="M 213.44 569.564696 
L 213.44 360.967306 
" style="fill:none;stroke:#64b5cd;stroke-width:0.5;"/>
    <path clip-path="url(#pdeb7f89c00)" d="M 343.817143 572.693697 
L 343.817143 362.98904 
" style="fill:none;stroke:#64b5cd;stroke-width:0.5;"/>
    <path clip-path="url(#pdeb7f89c00)" d="M 852.288 421.40058 
L 852.288 211.6788 
" style="fill:none;stroke:#64b5cd;stroke-width:0.5;"/>
    <path clip-path="url(#pdeb7f89c00)" d="M 968.992405 427.556386 
L 968.992405 218.686718 
" style="fill:none;stroke:#64b5cd;stroke-width:0.5;"/>
    <path clip-path="url(#pdeb7f89c00)" d="M 144 605.290909 
L 144 396.549218 
" style="fill:none;stroke:#64b5cd;stroke-width:0.5;"/>
    <path clip-path="url(#pdeb7f89c00)" d="M 467.108571 532.738269 
L 467.108571 324.238806 
" style="fill:none;stroke:#64b5cd;stroke-width:0.5;"/>
    <path clip-path="url(#pdeb7f89c00)" d="M 942.821053 373.026271 
L 942.821053 168.744641 
" style="fill:none;stroke:#64b5cd;stroke-width:0.5;"/>
    <path clip-path="url(#pdeb7f89c00)" d="M 144 601.357656 
L 144 391.891265 
" style="fill:none;stroke:#64b5cd;stroke-width:0.5;"/>
    <path clip-path="url(#pdeb7f89c00)" d="M 352.32 559.382512 
L 352.32 351.263369 
" style="fill:none;stroke:#64b5cd;stroke-width:0.5;"/>
    <path clip-path="url(#pdeb7f89c00)" d="M 278.762264 576.188359 
L 278.762264 368.315175 
" style="fill:none;stroke:#64b5cd;stroke-width:0.5;"/>
    <path clip-path="url(#pdeb7f89c00)" d="M 705.188571 476.645158 
L 705.188571 268.401019 
" style="fill:none;stroke:#64b5cd;stroke-width:0.5;"/>
    <path clip-path="url(#pdeb7f89c00)" d="M 851.900592 445.410841 
L 851.900592 236.577181 
" style="fill:none;stroke:#64b5cd;stroke-width:0.5;"/>
    <path clip-path="url(#pdeb7f89c00)" d="M 804.672 430.330985 
L 804.672 221.15093 
" style="fill:none;stroke:#64b5cd;stroke-width:0.5;"/>
    <path clip-path="url(#pdeb7f89c00)" d="M 681.260177 465.252187 
L 681.260177 255.964403 
" style="fill:none;stroke:#64b5cd;stroke-width:0.5;"/>
    <path clip-path="url(#pdeb7f89c00)" d="M 739.2 472.207267 
L 739.2 262.474086 
" style="fill:none;stroke:#64b5cd;stroke-width:0.5;"/>
    <path clip-path="url(#pdeb7f89c00)" d="M 511.04 513.556171 
L 511.04 304.037412 
" style="fill:none;stroke:#64b5cd;stroke-width:0.5;"/>
    <path clip-path="url(#pdeb7f89c00)" d="M 441.6 487.621997 
L 441.6 281.514612 
" style="fill:none;stroke:#64b5cd;stroke-width:0.5;"/>
    <path clip-path="url(#pdeb7f89c00)" d="M 525.891329 491.968836 
L 525.891329 282.676278 
" style="fill:none;stroke:#64b5cd;stroke-width:0.5;"/>
   </g>
   <g id="LineCollection_2">
    <path clip-path="url(#pdeb7f89c00)" d="M 691.388852 439.02595 
L 691.388852 200.863302 
" style="fill:none;stroke:#8172b3;stroke-width:0.5;"/>
    <path clip-path="url(#pdeb7f89c00)" d="M 816.576 426.810155 
L 816.576 191.046606 
" style="fill:none;stroke:#8172b3;stroke-width:0.5;"/>
    <path clip-path="url(#pdeb7f89c00)" d="M 382.08 517.205813 
L 382.08 279.701986 
" style="fill:none;stroke:#8172b3;stroke-width:0.5;"/>
    <path clip-path="url(#pdeb7f89c00)" d="M 791.717647 386.69899 
L 791.717647 149.722894 
" style="fill:none;stroke:#8172b3;stroke-width:0.5;"/>
    <path clip-path="url(#pdeb7f89c00)" d="M 789.162044 416.888786 
L 789.162044 179.002513 
" style="fill:none;stroke:#8172b3;stroke-width:0.5;"/>
    <path clip-path="url(#pdeb7f89c00)" d="M 428.072727 518.976858 
L 428.072727 281.229706 
" style="fill:none;stroke:#8172b3;stroke-width:0.5;"/>
    <path clip-path="url(#pdeb7f89c00)" d="M 340.145455 605.253252 
L 340.145455 370.111857 
" style="fill:none;stroke:#8172b3;stroke-width:0.5;"/>
    <path clip-path="url(#pdeb7f89c00)" d="M 912.107263 514.424229 
L 912.107263 278.210722 
" style="fill:none;stroke:#8172b3;stroke-width:0.5;"/>
    <path clip-path="url(#pdeb7f89c00)" d="M 1036.8 487.984792 
L 1036.8 249.838098 
" style="fill:none;stroke:#8172b3;stroke-width:0.5;"/>
    <path clip-path="url(#pdeb7f89c00)" d="M 878.08 454.05828 
L 878.08 215.697211 
" style="fill:none;stroke:#8172b3;stroke-width:0.5;"/>
    <path clip-path="url(#pdeb7f89c00)" d="M 438.792453 570.633214 
L 438.792453 332.414653 
" style="fill:none;stroke:#8172b3;stroke-width:0.5;"/>
    <path clip-path="url(#pdeb7f89c00)" d="M 640 503.431606 
L 640 267.212105 
" style="fill:none;stroke:#8172b3;stroke-width:0.5;"/>
    <path clip-path="url(#pdeb7f89c00)" d="M 471.36 436.859406 
L 471.36 201.11086 
" style="fill:none;stroke:#8172b3;stroke-width:0.5;"/>
    <path clip-path="url(#pdeb7f89c00)" d="M 891.72 373.015952 
L 891.72 137.824504 
" style="fill:none;stroke:#8172b3;stroke-width:0.5;"/>
    <path clip-path="url(#pdeb7f89c00)" d="M 511.04 492.846349 
L 511.04 260.424285 
" style="fill:none;stroke:#8172b3;stroke-width:0.5;"/>
    <path clip-path="url(#pdeb7f89c00)" d="M 653.117355 470.34807 
L 653.117355 232.455692 
" style="fill:none;stroke:#8172b3;stroke-width:0.5;"/>
    <path clip-path="url(#pdeb7f89c00)" d="M 166.32 558.602774 
L 166.32 324.54083 
" style="fill:none;stroke:#8172b3;stroke-width:0.5;"/>
    <path clip-path="url(#pdeb7f89c00)" d="M 992.16 342.744799 
L 992.16 111.109091 
" style="fill:none;stroke:#8172b3;stroke-width:0.5;"/>
    <path clip-path="url(#pdeb7f89c00)" d="M 163.84 509.83284 
L 163.84 273.313189 
" style="fill:none;stroke:#8172b3;stroke-width:0.5;"/>
    <path clip-path="url(#pdeb7f89c00)" d="M 738 463.948753 
L 738 231.941871 
" style="fill:none;stroke:#8172b3;stroke-width:0.5;"/>
    <path clip-path="url(#pdeb7f89c00)" d="M 594.421622 438.422145 
L 594.421622 215.073153 
" style="fill:none;stroke:#8172b3;stroke-width:0.5;"/>
    <path clip-path="url(#pdeb7f89c00)" d="M 630.08 573.735237 
L 630.08 344.313724 
" style="fill:none;stroke:#8172b3;stroke-width:0.5;"/>
    <path clip-path="url(#pdeb7f89c00)" d="M 768.96 509.953987 
L 768.96 271.687961 
" style="fill:none;stroke:#8172b3;stroke-width:0.5;"/>
    <path clip-path="url(#pdeb7f89c00)" d="M 962.4 444.797282 
L 962.4 224.053392 
" style="fill:none;stroke:#8172b3;stroke-width:0.5;"/>
    <path clip-path="url(#pdeb7f89c00)" d="M 566.592 443.39252 
L 566.592 209.864962 
" style="fill:none;stroke:#8172b3;stroke-width:0.5;"/>
    <path clip-path="url(#pdeb7f89c00)" d="M 703.282759 484.89674 
L 703.282759 248.588561 
" style="fill:none;stroke:#8172b3;stroke-width:0.5;"/>
    <path clip-path="url(#pdeb7f89c00)" d="M 649.92 452.09864 
L 649.92 214.477994 
" style="fill:none;stroke:#8172b3;stroke-width:0.5;"/>
    <path clip-path="url(#pdeb7f89c00)" d="M 597.718033 571.942116 
L 597.718033 333.524065 
" style="fill:none;stroke:#8172b3;stroke-width:0.5;"/>
    <path clip-path="url(#pdeb7f89c00)" d="M 491.2 440.984815 
L 491.2 202.994192 
" style="fill:none;stroke:#8172b3;stroke-width:0.5;"/>
    <path clip-path="url(#pdeb7f89c00)" d="M 709.44 489.45506 
L 709.44 251.148788 
" style="fill:none;stroke:#8172b3;stroke-width:0.5;"/>
    <path clip-path="url(#pdeb7f89c00)" d="M 908.290909 390.889424 
L 908.290909 152.492511 
" style="fill:none;stroke:#8172b3;stroke-width:0.5;"/>
    <path clip-path="url(#pdeb7f89c00)" d="M 507.047303 520.590452 
L 507.047303 282.343558 
" style="fill:none;stroke:#8172b3;stroke-width:0.5;"/>
    <path clip-path="url(#pdeb7f89c00)" d="M 322.56 493.059257 
L 322.56 264.15366 
" style="fill:none;stroke:#8172b3;stroke-width:0.5;"/>
    <path clip-path="url(#pdeb7f89c00)" d="M 679.68 502.647796 
L 679.68 266.095103 
" style="fill:none;stroke:#8172b3;stroke-width:0.5;"/>
    <path clip-path="url(#pdeb7f89c00)" d="M 405.888 519.901505 
L 405.888 282.597045 
" style="fill:none;stroke:#8172b3;stroke-width:0.5;"/>
    <path clip-path="url(#pdeb7f89c00)" d="M 831.521168 434.355962 
L 831.521168 196.672465 
" style="fill:none;stroke:#8172b3;stroke-width:0.5;"/>
    <path clip-path="url(#pdeb7f89c00)" d="M 649.92 524.224561 
L 649.92 288.890851 
" style="fill:none;stroke:#8172b3;stroke-width:0.5;"/>
    <path clip-path="url(#pdeb7f89c00)" d="M 711.3 531.214244 
L 711.3 292.803308 
" style="fill:none;stroke:#8172b3;stroke-width:0.5;"/>
    <path clip-path="url(#pdeb7f89c00)" d="M 666.490909 492.143228 
L 666.490909 253.764189 
" style="fill:none;stroke:#8172b3;stroke-width:0.5;"/>
    <path clip-path="url(#pdeb7f89c00)" d="M 791.28 446.390717 
L 791.28 208.418844 
" style="fill:none;stroke:#8172b3;stroke-width:0.5;"/>
    <path clip-path="url(#pdeb7f89c00)" d="M 334.464 516.044149 
L 334.464 278.443865 
" style="fill:none;stroke:#8172b3;stroke-width:0.5;"/>
    <path clip-path="url(#pdeb7f89c00)" d="M 144 567.767439 
L 144 329.365486 
" style="fill:none;stroke:#8172b3;stroke-width:0.5;"/>
    <path clip-path="url(#pdeb7f89c00)" d="M 443.846038 551.398136 
L 443.846038 314.973602 
" style="fill:none;stroke:#8172b3;stroke-width:0.5;"/>
    <path clip-path="url(#pdeb7f89c00)" d="M 662.94 574.837799 
L 662.94 337.617407 
" style="fill:none;stroke:#8172b3;stroke-width:0.5;"/>
    <path clip-path="url(#pdeb7f89c00)" d="M 792.768 422.810499 
L 792.768 189.769862 
" style="fill:none;stroke:#8172b3;stroke-width:0.5;"/>
    <path clip-path="url(#pdeb7f89c00)" d="M 709.44 527.616599 
L 709.44 305.408713 
" style="fill:none;stroke:#8172b3;stroke-width:0.5;"/>
    <path clip-path="url(#pdeb7f89c00)" d="M 312.64 580.512314 
L 312.64 342.552581 
" style="fill:none;stroke:#8172b3;stroke-width:0.5;"/>
    <path clip-path="url(#pdeb7f89c00)" d="M 355.313609 567.066937 
L 355.313609 329.347208 
" style="fill:none;stroke:#8172b3;stroke-width:0.5;"/>
    <path clip-path="url(#pdeb7f89c00)" d="M 316.8 529.228461 
L 316.8 300.405209 
" style="fill:none;stroke:#8172b3;stroke-width:0.5;"/>
    <path clip-path="url(#pdeb7f89c00)" d="M 161.505882 566.312582 
L 161.505882 328.288265 
" style="fill:none;stroke:#8172b3;stroke-width:0.5;"/>
   </g>
   <g id="line2d_16">
    <path clip-path="url(#pdeb7f89c00)" d="M 144 535.931697 
L 1036.8 224.732467 
" style="fill:none;stroke:#c44e52;stroke-linecap:round;stroke-width:1.5;"/>
   </g>
   <g id="line2d_17">
    <defs>
     <path d="M 0 3 
C 0.795609 3 1.55874 2.683901 2.12132 2.12132 
C 2.683901 1.55874 3 0.795609 3 0 
C 3 -0.795609 2.683901 -1.55874 2.12132 -2.12132 
C 1.55874 -2.683901 0.795609 -3 0 -3 
C -0.795609 -3 -1.55874 -2.683901 -2.12132 -2.12132 
C -2.683901 -1.55874 -3 -0.795609 -3 0 
C -3 0.795609 -2.683901 1.55874 -2.12132 2.12132 
C -1.55874 2.683901 -0.795609 3 0 3 
z
" id="m3aada7a1ae" style="stroke:#64b5cd;"/>
    </defs>
    <g clip-path="url(#pdeb7f89c00)">
     <use style="fill:#64b5cd;stroke:#64b5cd;" x="364.224" xlink:href="#m3aada7a1ae" y="454.646484"/>
     <use style="fill:#64b5cd;stroke:#64b5cd;" x="711.124528" xlink:href="#m3aada7a1ae" y="347.622427"/>
     <use style="fill:#64b5cd;stroke:#64b5cd;" x="766.254545" xlink:href="#m3aada7a1ae" y="379.472942"/>
     <use style="fill:#64b5cd;stroke:#64b5cd;" x="513.989189" xlink:href="#m3aada7a1ae" y="366.316423"/>
     <use style="fill:#64b5cd;stroke:#64b5cd;" x="362.24" xlink:href="#m3aada7a1ae" y="451.595548"/>
     <use style="fill:#64b5cd;stroke:#64b5cd;" x="860.1" xlink:href="#m3aada7a1ae" y="302.337154"/>
     <use style="fill:#64b5cd;stroke:#64b5cd;" x="768.96" xlink:href="#m3aada7a1ae" y="318.911155"/>
     <use style="fill:#64b5cd;stroke:#64b5cd;" x="604.8" xlink:href="#m3aada7a1ae" y="384.442191"/>
     <use style="fill:#64b5cd;stroke:#64b5cd;" x="540.8" xlink:href="#m3aada7a1ae" y="337.281231"/>
     <use style="fill:#64b5cd;stroke:#64b5cd;" x="549.818182" xlink:href="#m3aada7a1ae" y="416.674749"/>
     <use style="fill:#64b5cd;stroke:#64b5cd;" x="947.52" xlink:href="#m3aada7a1ae" y="305.03308"/>
     <use style="fill:#64b5cd;stroke:#64b5cd;" x="917.76" xlink:href="#m3aada7a1ae" y="312.766485"/>
     <use style="fill:#64b5cd;stroke:#64b5cd;" x="1036.8" xlink:href="#m3aada7a1ae" y="257.597158"/>
     <use style="fill:#64b5cd;stroke:#64b5cd;" x="461.44" xlink:href="#m3aada7a1ae" y="374.912161"/>
     <use style="fill:#64b5cd;stroke:#64b5cd;" x="560.64" xlink:href="#m3aada7a1ae" y="383.775215"/>
     <use style="fill:#64b5cd;stroke:#64b5cd;" x="611.538719" xlink:href="#m3aada7a1ae" y="394.481104"/>
     <use style="fill:#64b5cd;stroke:#64b5cd;" x="520.251429" xlink:href="#m3aada7a1ae" y="412.294096"/>
     <use style="fill:#64b5cd;stroke:#64b5cd;" x="387.490909" xlink:href="#m3aada7a1ae" y="424.724019"/>
     <use style="fill:#64b5cd;stroke:#64b5cd;" x="144" xlink:href="#m3aada7a1ae" y="463.91435"/>
     <use style="fill:#64b5cd;stroke:#64b5cd;" x="239.657143" xlink:href="#m3aada7a1ae" y="461.784268"/>
     <use style="fill:#64b5cd;stroke:#64b5cd;" x="556.751759" xlink:href="#m3aada7a1ae" y="393.84919"/>
     <use style="fill:#64b5cd;stroke:#64b5cd;" x="452.078873" xlink:href="#m3aada7a1ae" y="414.761816"/>
     <use style="fill:#64b5cd;stroke:#64b5cd;" x="556.751759" xlink:href="#m3aada7a1ae" y="415.486827"/>
     <use style="fill:#64b5cd;stroke:#64b5cd;" x="1015.743396" xlink:href="#m3aada7a1ae" y="223.73739"/>
     <use style="fill:#64b5cd;stroke:#64b5cd;" x="713.321739" xlink:href="#m3aada7a1ae" y="346.662156"/>
     <use style="fill:#64b5cd;stroke:#64b5cd;" x="957.44" xlink:href="#m3aada7a1ae" y="281.480955"/>
     <use style="fill:#64b5cd;stroke:#64b5cd;" x="828.48" xlink:href="#m3aada7a1ae" y="347.792963"/>
     <use style="fill:#64b5cd;stroke:#64b5cd;" x="441.6" xlink:href="#m3aada7a1ae" y="408.937387"/>
     <use style="fill:#64b5cd;stroke:#64b5cd;" x="661.08" xlink:href="#m3aada7a1ae" y="335.830391"/>
     <use style="fill:#64b5cd;stroke:#64b5cd;" x="277.92" xlink:href="#m3aada7a1ae" y="465.802508"/>
     <use style="fill:#64b5cd;stroke:#64b5cd;" x="858.24" xlink:href="#m3aada7a1ae" y="280.213854"/>
     <use style="fill:#64b5cd;stroke:#64b5cd;" x="729.9" xlink:href="#m3aada7a1ae" y="358.053965"/>
     <use style="fill:#64b5cd;stroke:#64b5cd;" x="759.513993" xlink:href="#m3aada7a1ae" y="300.747841"/>
     <use style="fill:#64b5cd;stroke:#64b5cd;" x="431.68" xlink:href="#m3aada7a1ae" y="418.081457"/>
     <use style="fill:#64b5cd;stroke:#64b5cd;" x="818.742857" xlink:href="#m3aada7a1ae" y="289.541189"/>
     <use style="fill:#64b5cd;stroke:#64b5cd;" x="376.128" xlink:href="#m3aada7a1ae" y="404.380833"/>
     <use style="fill:#64b5cd;stroke:#64b5cd;" x="1004.452174" xlink:href="#m3aada7a1ae" y="237.164669"/>
     <use style="fill:#64b5cd;stroke:#64b5cd;" x="813.6" xlink:href="#m3aada7a1ae" y="341.105314"/>
     <use style="fill:#64b5cd;stroke:#64b5cd;" x="1036.8" xlink:href="#m3aada7a1ae" y="303.737634"/>
     <use style="fill:#64b5cd;stroke:#64b5cd;" x="549.219188" xlink:href="#m3aada7a1ae" y="435.339491"/>
     <use style="fill:#64b5cd;stroke:#64b5cd;" x="318.433613" xlink:href="#m3aada7a1ae" y="456.404476"/>
     <use style="fill:#64b5cd;stroke:#64b5cd;" x="937.6" xlink:href="#m3aada7a1ae" y="256.971937"/>
     <use style="fill:#64b5cd;stroke:#64b5cd;" x="696.19422" xlink:href="#m3aada7a1ae" y="332.147062"/>
     <use style="fill:#64b5cd;stroke:#64b5cd;" x="477.497276" xlink:href="#m3aada7a1ae" y="407.693471"/>
     <use style="fill:#64b5cd;stroke:#64b5cd;" x="528.4" xlink:href="#m3aada7a1ae" y="366.256358"/>
     <use style="fill:#64b5cd;stroke:#64b5cd;" x="579.169811" xlink:href="#m3aada7a1ae" y="403.863917"/>
     <use style="fill:#64b5cd;stroke:#64b5cd;" x="780.451485" xlink:href="#m3aada7a1ae" y="339.828998"/>
     <use style="fill:#64b5cd;stroke:#64b5cd;" x="406.588235" xlink:href="#m3aada7a1ae" y="444.472161"/>
     <use style="fill:#64b5cd;stroke:#64b5cd;" x="408.236771" xlink:href="#m3aada7a1ae" y="422.525544"/>
     <use style="fill:#64b5cd;stroke:#64b5cd;" x="741.6" xlink:href="#m3aada7a1ae" y="307.1667"/>
     <use style="fill:#64b5cd;stroke:#64b5cd;" x="686.460759" xlink:href="#m3aada7a1ae" y="307.857919"/>
     <use style="fill:#64b5cd;stroke:#64b5cd;" x="383.531707" xlink:href="#m3aada7a1ae" y="439.458084"/>
     <use style="fill:#64b5cd;stroke:#64b5cd;" x="560.64" xlink:href="#m3aada7a1ae" y="374.407575"/>
     <use style="fill:#64b5cd;stroke:#64b5cd;" x="377.751273" xlink:href="#m3aada7a1ae" y="458.619053"/>
     <use style="fill:#64b5cd;stroke:#64b5cd;" x="409.05" xlink:href="#m3aada7a1ae" y="435.889738"/>
     <use style="fill:#64b5cd;stroke:#64b5cd;" x="575.52" xlink:href="#m3aada7a1ae" y="387.558578"/>
     <use style="fill:#64b5cd;stroke:#64b5cd;" x="553.2" xlink:href="#m3aada7a1ae" y="389.682077"/>
     <use style="fill:#64b5cd;stroke:#64b5cd;" x="792.106667" xlink:href="#m3aada7a1ae" y="347.925914"/>
     <use style="fill:#64b5cd;stroke:#64b5cd;" x="540.8" xlink:href="#m3aada7a1ae" y="390.196092"/>
     <use style="fill:#64b5cd;stroke:#64b5cd;" x="619.561809" xlink:href="#m3aada7a1ae" y="358.086295"/>
     <use style="fill:#64b5cd;stroke:#64b5cd;" x="322.56" xlink:href="#m3aada7a1ae" y="437.343672"/>
     <use style="fill:#64b5cd;stroke:#64b5cd;" x="848.32" xlink:href="#m3aada7a1ae" y="303.844691"/>
     <use style="fill:#64b5cd;stroke:#64b5cd;" x="264.9" xlink:href="#m3aada7a1ae" y="457.175015"/>
     <use style="fill:#64b5cd;stroke:#64b5cd;" x="975.227586" xlink:href="#m3aada7a1ae" y="263.219799"/>
     <use style="fill:#64b5cd;stroke:#64b5cd;" x="426.72" xlink:href="#m3aada7a1ae" y="428.410828"/>
     <use style="fill:#64b5cd;stroke:#64b5cd;" x="942.198675" xlink:href="#m3aada7a1ae" y="268.507667"/>
     <use style="fill:#64b5cd;stroke:#64b5cd;" x="970.522271" xlink:href="#m3aada7a1ae" y="221.321782"/>
     <use style="fill:#64b5cd;stroke:#64b5cd;" x="365.224779" xlink:href="#m3aada7a1ae" y="435.20666"/>
     <use style="fill:#64b5cd;stroke:#64b5cd;" x="811.946667" xlink:href="#m3aada7a1ae" y="312.94889"/>
     <use style="fill:#64b5cd;stroke:#64b5cd;" x="1036.8" xlink:href="#m3aada7a1ae" y="296.036624"/>
     <use style="fill:#64b5cd;stroke:#64b5cd;" x="904.951899" xlink:href="#m3aada7a1ae" y="293.496029"/>
     <use style="fill:#64b5cd;stroke:#64b5cd;" x="709.44" xlink:href="#m3aada7a1ae" y="313.375277"/>
     <use style="fill:#64b5cd;stroke:#64b5cd;" x="515.341593" xlink:href="#m3aada7a1ae" y="435.397838"/>
     <use style="fill:#64b5cd;stroke:#64b5cd;" x="689.161062" xlink:href="#m3aada7a1ae" y="361.663806"/>
     <use style="fill:#64b5cd;stroke:#64b5cd;" x="679.68" xlink:href="#m3aada7a1ae" y="360.741103"/>
     <use style="fill:#64b5cd;stroke:#64b5cd;" x="454.354286" xlink:href="#m3aada7a1ae" y="404.512078"/>
     <use style="fill:#64b5cd;stroke:#64b5cd;" x="571.229448" xlink:href="#m3aada7a1ae" y="408.135074"/>
     <use style="fill:#64b5cd;stroke:#64b5cd;" x="587.819653" xlink:href="#m3aada7a1ae" y="362.263749"/>
     <use style="fill:#64b5cd;stroke:#64b5cd;" x="474.666667" xlink:href="#m3aada7a1ae" y="427.40938"/>
     <use style="fill:#64b5cd;stroke:#64b5cd;" x="251.88" xlink:href="#m3aada7a1ae" y="443.410548"/>
     <use style="fill:#64b5cd;stroke:#64b5cd;" x="740.499563" xlink:href="#m3aada7a1ae" y="343.684327"/>
     <use style="fill:#64b5cd;stroke:#64b5cd;" x="731.722613" xlink:href="#m3aada7a1ae" y="321.397922"/>
     <use style="fill:#64b5cd;stroke:#64b5cd;" x="389.52" xlink:href="#m3aada7a1ae" y="388.3191"/>
     <use style="fill:#64b5cd;stroke:#64b5cd;" x="536.832" xlink:href="#m3aada7a1ae" y="415.549899"/>
     <use style="fill:#64b5cd;stroke:#64b5cd;" x="249.035294" xlink:href="#m3aada7a1ae" y="473.590446"/>
     <use style="fill:#64b5cd;stroke:#64b5cd;" x="505.945946" xlink:href="#m3aada7a1ae" y="390.507728"/>
     <use style="fill:#64b5cd;stroke:#64b5cd;" x="679.68" xlink:href="#m3aada7a1ae" y="387.082952"/>
     <use style="fill:#64b5cd;stroke:#64b5cd;" x="481.816216" xlink:href="#m3aada7a1ae" y="416.45032"/>
     <use style="fill:#64b5cd;stroke:#64b5cd;" x="798.72" xlink:href="#m3aada7a1ae" y="319.554277"/>
     <use style="fill:#64b5cd;stroke:#64b5cd;" x="868.591304" xlink:href="#m3aada7a1ae" y="300.11966"/>
     <use style="fill:#64b5cd;stroke:#64b5cd;" x="465.408" xlink:href="#m3aada7a1ae" y="431.50811"/>
     <use style="fill:#64b5cd;stroke:#64b5cd;" x="429.327835" xlink:href="#m3aada7a1ae" y="401.450819"/>
     <use style="fill:#64b5cd;stroke:#64b5cd;" x="678.998473" xlink:href="#m3aada7a1ae" y="340.769323"/>
     <use style="fill:#64b5cd;stroke:#64b5cd;" x="873.12" xlink:href="#m3aada7a1ae" y="283.466678"/>
     <use style="fill:#64b5cd;stroke:#64b5cd;" x="657.36" xlink:href="#m3aada7a1ae" y="413.965695"/>
     <use style="fill:#64b5cd;stroke:#64b5cd;" x="813.6" xlink:href="#m3aada7a1ae" y="322.148939"/>
     <use style="fill:#64b5cd;stroke:#64b5cd;" x="353.170286" xlink:href="#m3aada7a1ae" y="430.647607"/>
     <use style="fill:#64b5cd;stroke:#64b5cd;" x="481.28" xlink:href="#m3aada7a1ae" y="415.333563"/>
     <use style="fill:#64b5cd;stroke:#64b5cd;" x="868.16" xlink:href="#m3aada7a1ae" y="316.850804"/>
     <use style="fill:#64b5cd;stroke:#64b5cd;" x="302.4" xlink:href="#m3aada7a1ae" y="477.859555"/>
     <use style="fill:#64b5cd;stroke:#64b5cd;" x="696.685714" xlink:href="#m3aada7a1ae" y="325.736028"/>
     <use style="fill:#64b5cd;stroke:#64b5cd;" x="673.728" xlink:href="#m3aada7a1ae" y="357.933448"/>
     <use style="fill:#64b5cd;stroke:#64b5cd;" x="892.509091" xlink:href="#m3aada7a1ae" y="363.769049"/>
     <use style="fill:#64b5cd;stroke:#64b5cd;" x="392" xlink:href="#m3aada7a1ae" y="421.197155"/>
     <use style="fill:#64b5cd;stroke:#64b5cd;" x="856.739496" xlink:href="#m3aada7a1ae" y="304.514437"/>
     <use style="fill:#64b5cd;stroke:#64b5cd;" x="306.327273" xlink:href="#m3aada7a1ae" y="433.495361"/>
     <use style="fill:#64b5cd;stroke:#64b5cd;" x="702" xlink:href="#m3aada7a1ae" y="381.253976"/>
     <use style="fill:#64b5cd;stroke:#64b5cd;" x="642.128755" xlink:href="#m3aada7a1ae" y="377.956661"/>
     <use style="fill:#64b5cd;stroke:#64b5cd;" x="292.8" xlink:href="#m3aada7a1ae" y="468.883919"/>
     <use style="fill:#64b5cd;stroke:#64b5cd;" x="927.68" xlink:href="#m3aada7a1ae" y="239.877932"/>
     <use style="fill:#64b5cd;stroke:#64b5cd;" x="406.588235" xlink:href="#m3aada7a1ae" y="417.639298"/>
     <use style="fill:#64b5cd;stroke:#64b5cd;" x="304.704" xlink:href="#m3aada7a1ae" y="467.0776"/>
     <use style="fill:#64b5cd;stroke:#64b5cd;" x="593.706667" xlink:href="#m3aada7a1ae" y="381.320856"/>
     <use style="fill:#64b5cd;stroke:#64b5cd;" x="387.04" xlink:href="#m3aada7a1ae" y="458.681244"/>
     <use style="fill:#64b5cd;stroke:#64b5cd;" x="590.4" xlink:href="#m3aada7a1ae" y="411.006753"/>
     <use style="fill:#64b5cd;stroke:#64b5cd;" x="965.376" xlink:href="#m3aada7a1ae" y="309.789585"/>
     <use style="fill:#64b5cd;stroke:#64b5cd;" x="313.898507" xlink:href="#m3aada7a1ae" y="458.520272"/>
     <use style="fill:#64b5cd;stroke:#64b5cd;" x="275.940887" xlink:href="#m3aada7a1ae" y="462.30538"/>
     <use style="fill:#64b5cd;stroke:#64b5cd;" x="697.536" xlink:href="#m3aada7a1ae" y="379.31397"/>
     <use style="fill:#64b5cd;stroke:#64b5cd;" x="1036.8" xlink:href="#m3aada7a1ae" y="320.848487"/>
     <use style="fill:#64b5cd;stroke:#64b5cd;" x="196.08" xlink:href="#m3aada7a1ae" y="463.586562"/>
     <use style="fill:#64b5cd;stroke:#64b5cd;" x="570.56" xlink:href="#m3aada7a1ae" y="345.342644"/>
     <use style="fill:#64b5cd;stroke:#64b5cd;" x="300.506773" xlink:href="#m3aada7a1ae" y="475.455743"/>
     <use style="fill:#64b5cd;stroke:#64b5cd;" x="778.88" xlink:href="#m3aada7a1ae" y="342.759737"/>
     <use style="fill:#64b5cd;stroke:#64b5cd;" x="233.28" xlink:href="#m3aada7a1ae" y="452.334798"/>
     <use style="fill:#64b5cd;stroke:#64b5cd;" x="544.22069" xlink:href="#m3aada7a1ae" y="410.168925"/>
     <use style="fill:#64b5cd;stroke:#64b5cd;" x="956.367568" xlink:href="#m3aada7a1ae" y="262.817831"/>
     <use style="fill:#64b5cd;stroke:#64b5cd;" x="550.72" xlink:href="#m3aada7a1ae" y="341.753659"/>
     <use style="fill:#64b5cd;stroke:#64b5cd;" x="218.4" xlink:href="#m3aada7a1ae" y="461.654243"/>
     <use style="fill:#64b5cd;stroke:#64b5cd;" x="144" xlink:href="#m3aada7a1ae" y="486.552114"/>
     <use style="fill:#64b5cd;stroke:#64b5cd;" x="463.145701" xlink:href="#m3aada7a1ae" y="409.069965"/>
     <use style="fill:#64b5cd;stroke:#64b5cd;" x="879.956757" xlink:href="#m3aada7a1ae" y="309.866514"/>
     <use style="fill:#64b5cd;stroke:#64b5cd;" x="213.44" xlink:href="#m3aada7a1ae" y="465.266001"/>
     <use style="fill:#64b5cd;stroke:#64b5cd;" x="343.817143" xlink:href="#m3aada7a1ae" y="467.841368"/>
     <use style="fill:#64b5cd;stroke:#64b5cd;" x="852.288" xlink:href="#m3aada7a1ae" y="316.53969"/>
     <use style="fill:#64b5cd;stroke:#64b5cd;" x="968.992405" xlink:href="#m3aada7a1ae" y="323.121552"/>
     <use style="fill:#64b5cd;stroke:#64b5cd;" x="144" xlink:href="#m3aada7a1ae" y="500.920063"/>
     <use style="fill:#64b5cd;stroke:#64b5cd;" x="467.108571" xlink:href="#m3aada7a1ae" y="428.488538"/>
     <use style="fill:#64b5cd;stroke:#64b5cd;" x="942.821053" xlink:href="#m3aada7a1ae" y="270.885456"/>
     <use style="fill:#64b5cd;stroke:#64b5cd;" x="144" xlink:href="#m3aada7a1ae" y="496.624461"/>
     <use style="fill:#64b5cd;stroke:#64b5cd;" x="352.32" xlink:href="#m3aada7a1ae" y="455.322941"/>
     <use style="fill:#64b5cd;stroke:#64b5cd;" x="278.762264" xlink:href="#m3aada7a1ae" y="472.251767"/>
     <use style="fill:#64b5cd;stroke:#64b5cd;" x="705.188571" xlink:href="#m3aada7a1ae" y="372.523089"/>
     <use style="fill:#64b5cd;stroke:#64b5cd;" x="851.900592" xlink:href="#m3aada7a1ae" y="340.994011"/>
     <use style="fill:#64b5cd;stroke:#64b5cd;" x="804.672" xlink:href="#m3aada7a1ae" y="325.740957"/>
     <use style="fill:#64b5cd;stroke:#64b5cd;" x="681.260177" xlink:href="#m3aada7a1ae" y="360.608295"/>
     <use style="fill:#64b5cd;stroke:#64b5cd;" x="739.2" xlink:href="#m3aada7a1ae" y="367.340677"/>
     <use style="fill:#64b5cd;stroke:#64b5cd;" x="511.04" xlink:href="#m3aada7a1ae" y="408.796791"/>
     <use style="fill:#64b5cd;stroke:#64b5cd;" x="441.6" xlink:href="#m3aada7a1ae" y="384.568304"/>
     <use style="fill:#64b5cd;stroke:#64b5cd;" x="525.891329" xlink:href="#m3aada7a1ae" y="387.322557"/>
    </g>
   </g>
   <g id="line2d_18">
    <defs>
     <path d="M 0 3 
C 0.795609 3 1.55874 2.683901 2.12132 2.12132 
C 2.683901 1.55874 3 0.795609 3 0 
C 3 -0.795609 2.683901 -1.55874 2.12132 -2.12132 
C 1.55874 -2.683901 0.795609 -3 0 -3 
C -0.795609 -3 -1.55874 -2.683901 -2.12132 -2.12132 
C -2.683901 -1.55874 -3 -0.795609 -3 0 
C -3 0.795609 -2.683901 1.55874 -2.12132 2.12132 
C -1.55874 2.683901 -0.795609 3 0 3 
z
" id="m63e613c333" style="stroke:#8172b3;"/>
    </defs>
    <g clip-path="url(#pdeb7f89c00)">
     <use style="fill:#8172b3;stroke:#8172b3;" x="691.388852" xlink:href="#m63e613c333" y="319.944626"/>
     <use style="fill:#8172b3;stroke:#8172b3;" x="816.576" xlink:href="#m63e613c333" y="308.928381"/>
     <use style="fill:#8172b3;stroke:#8172b3;" x="382.08" xlink:href="#m63e613c333" y="398.4539"/>
     <use style="fill:#8172b3;stroke:#8172b3;" x="791.717647" xlink:href="#m63e613c333" y="268.210942"/>
     <use style="fill:#8172b3;stroke:#8172b3;" x="789.162044" xlink:href="#m63e613c333" y="297.94565"/>
     <use style="fill:#8172b3;stroke:#8172b3;" x="428.072727" xlink:href="#m63e613c333" y="400.103282"/>
     <use style="fill:#8172b3;stroke:#8172b3;" x="340.145455" xlink:href="#m63e613c333" y="487.682554"/>
     <use style="fill:#8172b3;stroke:#8172b3;" x="912.107263" xlink:href="#m63e613c333" y="396.317475"/>
     <use style="fill:#8172b3;stroke:#8172b3;" x="1036.8" xlink:href="#m63e613c333" y="368.911445"/>
     <use style="fill:#8172b3;stroke:#8172b3;" x="878.08" xlink:href="#m63e613c333" y="334.877746"/>
     <use style="fill:#8172b3;stroke:#8172b3;" x="438.792453" xlink:href="#m63e613c333" y="451.523933"/>
     <use style="fill:#8172b3;stroke:#8172b3;" x="640" xlink:href="#m63e613c333" y="385.321855"/>
     <use style="fill:#8172b3;stroke:#8172b3;" x="471.36" xlink:href="#m63e613c333" y="318.985133"/>
     <use style="fill:#8172b3;stroke:#8172b3;" x="891.72" xlink:href="#m63e613c333" y="255.420228"/>
     <use style="fill:#8172b3;stroke:#8172b3;" x="511.04" xlink:href="#m63e613c333" y="376.635317"/>
     <use style="fill:#8172b3;stroke:#8172b3;" x="653.117355" xlink:href="#m63e613c333" y="351.401881"/>
     <use style="fill:#8172b3;stroke:#8172b3;" x="166.32" xlink:href="#m63e613c333" y="441.571802"/>
     <use style="fill:#8172b3;stroke:#8172b3;" x="992.16" xlink:href="#m63e613c333" y="226.926945"/>
     <use style="fill:#8172b3;stroke:#8172b3;" x="163.84" xlink:href="#m63e613c333" y="391.573015"/>
     <use style="fill:#8172b3;stroke:#8172b3;" x="738" xlink:href="#m63e613c333" y="347.945312"/>
     <use style="fill:#8172b3;stroke:#8172b3;" x="594.421622" xlink:href="#m63e613c333" y="326.747649"/>
     <use style="fill:#8172b3;stroke:#8172b3;" x="630.08" xlink:href="#m63e613c333" y="459.024481"/>
     <use style="fill:#8172b3;stroke:#8172b3;" x="768.96" xlink:href="#m63e613c333" y="390.820974"/>
     <use style="fill:#8172b3;stroke:#8172b3;" x="962.4" xlink:href="#m63e613c333" y="334.425337"/>
     <use style="fill:#8172b3;stroke:#8172b3;" x="566.592" xlink:href="#m63e613c333" y="326.628741"/>
     <use style="fill:#8172b3;stroke:#8172b3;" x="703.282759" xlink:href="#m63e613c333" y="366.742651"/>
     <use style="fill:#8172b3;stroke:#8172b3;" x="649.92" xlink:href="#m63e613c333" y="333.288317"/>
     <use style="fill:#8172b3;stroke:#8172b3;" x="597.718033" xlink:href="#m63e613c333" y="452.733091"/>
     <use style="fill:#8172b3;stroke:#8172b3;" x="491.2" xlink:href="#m63e613c333" y="321.989503"/>
     <use style="fill:#8172b3;stroke:#8172b3;" x="709.44" xlink:href="#m63e613c333" y="370.301924"/>
     <use style="fill:#8172b3;stroke:#8172b3;" x="908.290909" xlink:href="#m63e613c333" y="271.690968"/>
     <use style="fill:#8172b3;stroke:#8172b3;" x="507.047303" xlink:href="#m63e613c333" y="401.467005"/>
     <use style="fill:#8172b3;stroke:#8172b3;" x="322.56" xlink:href="#m63e613c333" y="378.606459"/>
     <use style="fill:#8172b3;stroke:#8172b3;" x="679.68" xlink:href="#m63e613c333" y="384.37145"/>
     <use style="fill:#8172b3;stroke:#8172b3;" x="405.888" xlink:href="#m63e613c333" y="401.249275"/>
     <use style="fill:#8172b3;stroke:#8172b3;" x="831.521168" xlink:href="#m63e613c333" y="315.514214"/>
     <use style="fill:#8172b3;stroke:#8172b3;" x="649.92" xlink:href="#m63e613c333" y="406.557706"/>
     <use style="fill:#8172b3;stroke:#8172b3;" x="711.3" xlink:href="#m63e613c333" y="412.008776"/>
     <use style="fill:#8172b3;stroke:#8172b3;" x="666.490909" xlink:href="#m63e613c333" y="372.953708"/>
     <use style="fill:#8172b3;stroke:#8172b3;" x="791.28" xlink:href="#m63e613c333" y="327.40478"/>
     <use style="fill:#8172b3;stroke:#8172b3;" x="334.464" xlink:href="#m63e613c333" y="397.244007"/>
     <use style="fill:#8172b3;stroke:#8172b3;" x="144" xlink:href="#m63e613c333" y="448.566463"/>
     <use style="fill:#8172b3;stroke:#8172b3;" x="443.846038" xlink:href="#m63e613c333" y="433.185869"/>
     <use style="fill:#8172b3;stroke:#8172b3;" x="662.94" xlink:href="#m63e613c333" y="456.227603"/>
     <use style="fill:#8172b3;stroke:#8172b3;" x="792.768" xlink:href="#m63e613c333" y="306.290181"/>
     <use style="fill:#8172b3;stroke:#8172b3;" x="709.44" xlink:href="#m63e613c333" y="416.512656"/>
     <use style="fill:#8172b3;stroke:#8172b3;" x="312.64" xlink:href="#m63e613c333" y="461.532448"/>
     <use style="fill:#8172b3;stroke:#8172b3;" x="355.313609" xlink:href="#m63e613c333" y="448.207073"/>
     <use style="fill:#8172b3;stroke:#8172b3;" x="316.8" xlink:href="#m63e613c333" y="414.816835"/>
     <use style="fill:#8172b3;stroke:#8172b3;" x="161.505882" xlink:href="#m63e613c333" y="447.300424"/>
    </g>
   </g>
   <g id="patch_3">
    <path d="M 144 630 
L 144 86.4 
" style="fill:none;stroke:#cccccc;stroke-linecap:square;stroke-linejoin:miter;stroke-width:1.25;"/>
   </g>
   <g id="patch_4">
    <path d="M 1036.8 630 
L 1036.8 86.4 
" style="fill:none;stroke:#cccccc;stroke-linecap:square;stroke-linejoin:miter;stroke-width:1.25;"/>
   </g>
   <g id="patch_5">
    <path d="M 144 630 
L 1036.8 630 
" style="fill:none;stroke:#cccccc;stroke-linecap:square;stroke-linejoin:miter;stroke-width:1.25;"/>
   </g>
   <g id="patch_6">
    <path d="M 144 86.4 
L 1036.8 86.4 
" style="fill:none;stroke:#cccccc;stroke-linecap:square;stroke-linejoin:miter;stroke-width:1.25;"/>
   </g>
  </g>
 </g>
 <defs>
  <clipPath id="pdeb7f89c00">
   <rect height="543.6" width="892.8" x="144" y="86.4"/>
  </clipPath>
 </defs>
</svg>
