<?xml version="1.0" encoding="utf-8" standalone="no"?>
<!DOCTYPE svg PUBLIC "-//W3C//DTD SVG 1.1//EN"
  "http://www.w3.org/Graphics/SVG/1.1/DTD/svg11.dtd">
<!-- Created with matplotlib (https://matplotlib.org/) -->
<svg height="288pt" version="1.1" viewBox="0 0 432 288" width="432pt" xmlns="http://www.w3.org/2000/svg" xmlns:xlink="http://www.w3.org/1999/xlink">
 <defs>
  <style type="text/css">
*{stroke-linecap:butt;stroke-linejoin:round;}
  </style>
 </defs>
 <g id="figure_1">
  <g id="patch_1">
   <path d="M 0 288 
L 432 288 
L 432 0 
L 0 0 
z
" style="fill:#ffffff;"/>
  </g>
  <g id="axes_1">
   <g id="patch_2">
    <path d="M 54 252 
L 388.8 252 
L 388.8 34.56 
L 54 34.56 
z
" style="fill:#ffffff;"/>
   </g>
   <g id="matplotlib.axis_1">
    <g id="xtick_1">
     <g id="line2d_1">
      <path clip-path="url(#p25807f8424)" d="M 124.761052 252 
L 124.761052 34.56 
" style="fill:none;stroke:#cccccc;stroke-linecap:round;"/>
     </g>
     <g id="text_1">
      <!-- −2 -->
      <defs>
       <path d="M 52.828125 31.203125 
L 5.5625 31.203125 
L 5.5625 39.40625 
L 52.828125 39.40625 
z
" id="ArialMT-8722"/>
       <path d="M 50.34375 8.453125 
L 50.34375 0 
L 3.03125 0 
Q 2.9375 3.171875 4.046875 6.109375 
Q 5.859375 10.9375 9.828125 15.625 
Q 13.8125 20.3125 21.34375 26.46875 
Q 33.015625 36.03125 37.109375 41.625 
Q 41.21875 47.21875 41.21875 52.203125 
Q 41.21875 57.421875 37.46875 61 
Q 33.734375 64.59375 27.734375 64.59375 
Q 21.390625 64.59375 17.578125 60.78125 
Q 13.765625 56.984375 13.71875 50.25 
L 4.6875 51.171875 
Q 5.609375 61.28125 11.65625 66.578125 
Q 17.71875 71.875 27.9375 71.875 
Q 38.234375 71.875 44.234375 66.15625 
Q 50.25 60.453125 50.25 52 
Q 50.25 47.703125 48.484375 43.546875 
Q 46.734375 39.40625 42.65625 34.8125 
Q 38.578125 30.21875 29.109375 22.21875 
Q 21.1875 15.578125 18.9375 13.203125 
Q 16.703125 10.84375 15.234375 8.453125 
z
" id="ArialMT-50"/>
      </defs>
      <g style="fill:#262626;" transform="translate(112.219333 277.247187)scale(0.22 -0.22)">
       <use xlink:href="#ArialMT-8722"/>
       <use x="58.398438" xlink:href="#ArialMT-50"/>
      </g>
     </g>
    </g>
    <g id="xtick_2">
     <g id="line2d_2">
      <path clip-path="url(#p25807f8424)" d="M 209.355433 252 
L 209.355433 34.56 
" style="fill:none;stroke:#cccccc;stroke-linecap:round;"/>
     </g>
     <g id="text_2">
      <!-- 0 -->
      <defs>
       <path d="M 4.15625 35.296875 
Q 4.15625 48 6.765625 55.734375 
Q 9.375 63.484375 14.515625 67.671875 
Q 19.671875 71.875 27.484375 71.875 
Q 33.25 71.875 37.59375 69.546875 
Q 41.9375 67.234375 44.765625 62.859375 
Q 47.609375 58.5 49.21875 52.21875 
Q 50.828125 45.953125 50.828125 35.296875 
Q 50.828125 22.703125 48.234375 14.96875 
Q 45.65625 7.234375 40.5 3 
Q 35.359375 -1.21875 27.484375 -1.21875 
Q 17.140625 -1.21875 11.234375 6.203125 
Q 4.15625 15.140625 4.15625 35.296875 
z
M 13.1875 35.296875 
Q 13.1875 17.671875 17.3125 11.828125 
Q 21.4375 6 27.484375 6 
Q 33.546875 6 37.671875 11.859375 
Q 41.796875 17.71875 41.796875 35.296875 
Q 41.796875 52.984375 37.671875 58.78125 
Q 33.546875 64.59375 27.390625 64.59375 
Q 21.34375 64.59375 17.71875 59.46875 
Q 13.1875 52.9375 13.1875 35.296875 
z
" id="ArialMT-48"/>
      </defs>
      <g style="fill:#262626;" transform="translate(203.238401 277.247187)scale(0.22 -0.22)">
       <use xlink:href="#ArialMT-48"/>
      </g>
     </g>
    </g>
    <g id="xtick_3">
     <g id="line2d_3">
      <path clip-path="url(#p25807f8424)" d="M 293.949813 252 
L 293.949813 34.56 
" style="fill:none;stroke:#cccccc;stroke-linecap:round;"/>
     </g>
     <g id="text_3">
      <!-- 2 -->
      <g style="fill:#262626;" transform="translate(287.832782 277.247187)scale(0.22 -0.22)">
       <use xlink:href="#ArialMT-50"/>
      </g>
     </g>
    </g>
    <g id="xtick_4">
     <g id="line2d_4">
      <path clip-path="url(#p25807f8424)" d="M 378.544194 252 
L 378.544194 34.56 
" style="fill:none;stroke:#cccccc;stroke-linecap:round;"/>
     </g>
     <g id="text_4">
      <!-- 4 -->
      <defs>
       <path d="M 32.328125 0 
L 32.328125 17.140625 
L 1.265625 17.140625 
L 1.265625 25.203125 
L 33.9375 71.578125 
L 41.109375 71.578125 
L 41.109375 25.203125 
L 50.78125 25.203125 
L 50.78125 17.140625 
L 41.109375 17.140625 
L 41.109375 0 
z
M 32.328125 25.203125 
L 32.328125 57.46875 
L 9.90625 25.203125 
z
" id="ArialMT-52"/>
      </defs>
      <g style="fill:#262626;" transform="translate(372.427163 277.247187)scale(0.22 -0.22)">
       <use xlink:href="#ArialMT-52"/>
      </g>
     </g>
    </g>
    <g id="text_5">
     <!-- Yerr_normalized -->
     <defs>
      <path d="M 27.875 0 
L 27.875 30.328125 
L 0.296875 71.578125 
L 11.8125 71.578125 
L 25.921875 50 
Q 29.828125 43.953125 33.203125 37.890625 
Q 36.421875 43.5 41.015625 50.53125 
L 54.890625 71.578125 
L 65.921875 71.578125 
L 37.359375 30.328125 
L 37.359375 0 
z
" id="ArialMT-89"/>
      <path d="M 42.09375 16.703125 
L 51.171875 15.578125 
Q 49.03125 7.625 43.21875 3.21875 
Q 37.40625 -1.171875 28.375 -1.171875 
Q 17 -1.171875 10.328125 5.828125 
Q 3.65625 12.84375 3.65625 25.484375 
Q 3.65625 38.578125 10.390625 45.796875 
Q 17.140625 53.03125 27.875 53.03125 
Q 38.28125 53.03125 44.875 45.953125 
Q 51.46875 38.875 51.46875 26.03125 
Q 51.46875 25.25 51.421875 23.6875 
L 12.75 23.6875 
Q 13.234375 15.140625 17.578125 10.59375 
Q 21.921875 6.0625 28.421875 6.0625 
Q 33.25 6.0625 36.671875 8.59375 
Q 40.09375 11.140625 42.09375 16.703125 
z
M 13.234375 30.90625 
L 42.1875 30.90625 
Q 41.609375 37.453125 38.875 40.71875 
Q 34.671875 45.796875 27.984375 45.796875 
Q 21.921875 45.796875 17.796875 41.75 
Q 13.671875 37.703125 13.234375 30.90625 
z
" id="ArialMT-101"/>
      <path d="M 6.5 0 
L 6.5 51.859375 
L 14.40625 51.859375 
L 14.40625 44 
Q 17.4375 49.515625 20 51.265625 
Q 22.5625 53.03125 25.640625 53.03125 
Q 30.078125 53.03125 34.671875 50.203125 
L 31.640625 42.046875 
Q 28.421875 43.953125 25.203125 43.953125 
Q 22.3125 43.953125 20.015625 42.21875 
Q 17.71875 40.484375 16.75 37.40625 
Q 15.28125 32.71875 15.28125 27.15625 
L 15.28125 0 
z
" id="ArialMT-114"/>
      <path d="M -1.515625 -19.875 
L -1.515625 -13.53125 
L 56.734375 -13.53125 
L 56.734375 -19.875 
z
" id="ArialMT-95"/>
      <path d="M 6.59375 0 
L 6.59375 51.859375 
L 14.5 51.859375 
L 14.5 44.484375 
Q 20.21875 53.03125 31 53.03125 
Q 35.6875 53.03125 39.625 51.34375 
Q 43.5625 49.65625 45.515625 46.921875 
Q 47.46875 44.1875 48.25 40.4375 
Q 48.734375 37.984375 48.734375 31.890625 
L 48.734375 0 
L 39.9375 0 
L 39.9375 31.546875 
Q 39.9375 36.921875 38.90625 39.578125 
Q 37.890625 42.234375 35.28125 43.8125 
Q 32.671875 45.40625 29.15625 45.40625 
Q 23.53125 45.40625 19.453125 41.84375 
Q 15.375 38.28125 15.375 28.328125 
L 15.375 0 
z
" id="ArialMT-110"/>
      <path d="M 3.328125 25.921875 
Q 3.328125 40.328125 11.328125 47.265625 
Q 18.015625 53.03125 27.640625 53.03125 
Q 38.328125 53.03125 45.109375 46.015625 
Q 51.90625 39.015625 51.90625 26.65625 
Q 51.90625 16.65625 48.90625 10.90625 
Q 45.90625 5.171875 40.15625 2 
Q 34.421875 -1.171875 27.640625 -1.171875 
Q 16.75 -1.171875 10.03125 5.8125 
Q 3.328125 12.796875 3.328125 25.921875 
z
M 12.359375 25.921875 
Q 12.359375 15.96875 16.703125 11.015625 
Q 21.046875 6.0625 27.640625 6.0625 
Q 34.1875 6.0625 38.53125 11.03125 
Q 42.875 16.015625 42.875 26.21875 
Q 42.875 35.84375 38.5 40.796875 
Q 34.125 45.75 27.640625 45.75 
Q 21.046875 45.75 16.703125 40.8125 
Q 12.359375 35.890625 12.359375 25.921875 
z
" id="ArialMT-111"/>
      <path d="M 6.59375 0 
L 6.59375 51.859375 
L 14.453125 51.859375 
L 14.453125 44.578125 
Q 16.890625 48.390625 20.9375 50.703125 
Q 25 53.03125 30.171875 53.03125 
Q 35.9375 53.03125 39.625 50.640625 
Q 43.3125 48.25 44.828125 43.953125 
Q 50.984375 53.03125 60.84375 53.03125 
Q 68.5625 53.03125 72.703125 48.75 
Q 76.859375 44.484375 76.859375 35.59375 
L 76.859375 0 
L 68.109375 0 
L 68.109375 32.671875 
Q 68.109375 37.9375 67.25 40.25 
Q 66.40625 42.578125 64.15625 43.984375 
Q 61.921875 45.40625 58.890625 45.40625 
Q 53.421875 45.40625 49.796875 41.765625 
Q 46.1875 38.140625 46.1875 30.125 
L 46.1875 0 
L 37.40625 0 
L 37.40625 33.6875 
Q 37.40625 39.546875 35.25 42.46875 
Q 33.109375 45.40625 28.21875 45.40625 
Q 24.515625 45.40625 21.359375 43.453125 
Q 18.21875 41.5 16.796875 37.734375 
Q 15.375 33.984375 15.375 26.90625 
L 15.375 0 
z
" id="ArialMT-109"/>
      <path d="M 40.4375 6.390625 
Q 35.546875 2.25 31.03125 0.53125 
Q 26.515625 -1.171875 21.34375 -1.171875 
Q 12.796875 -1.171875 8.203125 3 
Q 3.609375 7.171875 3.609375 13.671875 
Q 3.609375 17.484375 5.34375 20.625 
Q 7.078125 23.78125 9.890625 25.6875 
Q 12.703125 27.59375 16.21875 28.5625 
Q 18.796875 29.25 24.03125 29.890625 
Q 34.671875 31.15625 39.703125 32.90625 
Q 39.75 34.71875 39.75 35.203125 
Q 39.75 40.578125 37.25 42.78125 
Q 33.890625 45.75 27.25 45.75 
Q 21.046875 45.75 18.09375 43.578125 
Q 15.140625 41.40625 13.71875 35.890625 
L 5.125 37.0625 
Q 6.296875 42.578125 8.984375 45.96875 
Q 11.671875 49.359375 16.75 51.1875 
Q 21.828125 53.03125 28.515625 53.03125 
Q 35.15625 53.03125 39.296875 51.46875 
Q 43.453125 49.90625 45.40625 47.53125 
Q 47.359375 45.171875 48.140625 41.546875 
Q 48.578125 39.3125 48.578125 33.453125 
L 48.578125 21.734375 
Q 48.578125 9.46875 49.140625 6.21875 
Q 49.703125 2.984375 51.375 0 
L 42.1875 0 
Q 40.828125 2.734375 40.4375 6.390625 
z
M 39.703125 26.03125 
Q 34.90625 24.078125 25.34375 22.703125 
Q 19.921875 21.921875 17.671875 20.9375 
Q 15.4375 19.96875 14.203125 18.09375 
Q 12.984375 16.21875 12.984375 13.921875 
Q 12.984375 10.40625 15.640625 8.0625 
Q 18.3125 5.71875 23.4375 5.71875 
Q 28.515625 5.71875 32.46875 7.9375 
Q 36.421875 10.15625 38.28125 14.015625 
Q 39.703125 17 39.703125 22.796875 
z
" id="ArialMT-97"/>
      <path d="M 6.390625 0 
L 6.390625 71.578125 
L 15.1875 71.578125 
L 15.1875 0 
z
" id="ArialMT-108"/>
      <path d="M 6.640625 61.46875 
L 6.640625 71.578125 
L 15.4375 71.578125 
L 15.4375 61.46875 
z
M 6.640625 0 
L 6.640625 51.859375 
L 15.4375 51.859375 
L 15.4375 0 
z
" id="ArialMT-105"/>
      <path d="M 1.953125 0 
L 1.953125 7.125 
L 34.96875 45.015625 
Q 29.34375 44.734375 25.046875 44.734375 
L 3.90625 44.734375 
L 3.90625 51.859375 
L 46.296875 51.859375 
L 46.296875 46.046875 
L 18.21875 13.140625 
L 12.796875 7.125 
Q 18.703125 7.5625 23.875 7.5625 
L 47.859375 7.5625 
L 47.859375 0 
z
" id="ArialMT-122"/>
      <path d="M 40.234375 0 
L 40.234375 6.546875 
Q 35.296875 -1.171875 25.734375 -1.171875 
Q 19.53125 -1.171875 14.328125 2.25 
Q 9.125 5.671875 6.265625 11.796875 
Q 3.421875 17.921875 3.421875 25.875 
Q 3.421875 33.640625 6 39.96875 
Q 8.59375 46.296875 13.765625 49.65625 
Q 18.953125 53.03125 25.34375 53.03125 
Q 30.03125 53.03125 33.6875 51.046875 
Q 37.359375 49.078125 39.65625 45.90625 
L 39.65625 71.578125 
L 48.390625 71.578125 
L 48.390625 0 
z
M 12.453125 25.875 
Q 12.453125 15.921875 16.640625 10.984375 
Q 20.84375 6.0625 26.5625 6.0625 
Q 32.328125 6.0625 36.34375 10.765625 
Q 40.375 15.484375 40.375 25.140625 
Q 40.375 35.796875 36.265625 40.765625 
Q 32.171875 45.75 26.171875 45.75 
Q 20.3125 45.75 16.375 40.96875 
Q 12.453125 36.1875 12.453125 25.875 
z
" id="ArialMT-100"/>
     </defs>
     <g style="fill:#262626;" transform="translate(133.385625 302.798437)scale(0.24 -0.24)">
      <use xlink:href="#ArialMT-89"/>
      <use x="66.558594" xlink:href="#ArialMT-101"/>
      <use x="122.173828" xlink:href="#ArialMT-114"/>
      <use x="155.474609" xlink:href="#ArialMT-114"/>
      <use x="188.775391" xlink:href="#ArialMT-95"/>
      <use x="244.390625" xlink:href="#ArialMT-110"/>
      <use x="300.005859" xlink:href="#ArialMT-111"/>
      <use x="355.621094" xlink:href="#ArialMT-114"/>
      <use x="388.921875" xlink:href="#ArialMT-109"/>
      <use x="472.222656" xlink:href="#ArialMT-97"/>
      <use x="527.837891" xlink:href="#ArialMT-108"/>
      <use x="550.054688" xlink:href="#ArialMT-105"/>
      <use x="572.271484" xlink:href="#ArialMT-122"/>
      <use x="622.271484" xlink:href="#ArialMT-101"/>
      <use x="677.886719" xlink:href="#ArialMT-100"/>
     </g>
    </g>
   </g>
   <g id="matplotlib.axis_2">
    <g id="ytick_1">
     <g id="line2d_5">
      <path clip-path="url(#p25807f8424)" d="M 54 252 
L 388.8 252 
" style="fill:none;stroke:#cccccc;stroke-linecap:round;"/>
     </g>
     <g id="text_6">
      <!-- 0.0 -->
      <defs>
       <path d="M 9.078125 0 
L 9.078125 10.015625 
L 19.09375 10.015625 
L 19.09375 0 
z
" id="ArialMT-46"/>
      </defs>
      <g style="fill:#262626;" transform="translate(13.92 259.873594)scale(0.22 -0.22)">
       <use xlink:href="#ArialMT-48"/>
       <use x="55.615234" xlink:href="#ArialMT-46"/>
       <use x="83.398438" xlink:href="#ArialMT-48"/>
      </g>
     </g>
    </g>
    <g id="ytick_2">
     <g id="line2d_6">
      <path clip-path="url(#p25807f8424)" d="M 54 157.33456 
L 388.8 157.33456 
" style="fill:none;stroke:#cccccc;stroke-linecap:round;"/>
     </g>
     <g id="text_7">
      <!-- 0.2 -->
      <g style="fill:#262626;" transform="translate(13.92 165.208154)scale(0.22 -0.22)">
       <use xlink:href="#ArialMT-48"/>
       <use x="55.615234" xlink:href="#ArialMT-46"/>
       <use x="83.398438" xlink:href="#ArialMT-50"/>
      </g>
     </g>
    </g>
    <g id="ytick_3">
     <g id="line2d_7">
      <path clip-path="url(#p25807f8424)" d="M 54 62.669121 
L 388.8 62.669121 
" style="fill:none;stroke:#cccccc;stroke-linecap:round;"/>
     </g>
     <g id="text_8">
      <!-- 0.4 -->
      <g style="fill:#262626;" transform="translate(13.92 70.542714)scale(0.22 -0.22)">
       <use xlink:href="#ArialMT-48"/>
       <use x="55.615234" xlink:href="#ArialMT-46"/>
       <use x="83.398438" xlink:href="#ArialMT-52"/>
      </g>
     </g>
    </g>
   </g>
   <g id="patch_3">
    <path clip-path="url(#p25807f8424)" d="M 109.738149 252 
L 125.689842 252 
L 125.689842 239.449351 
L 109.738149 239.449351 
z
" style="fill:#4c72b0;opacity:0.4;stroke:#ffffff;stroke-linejoin:miter;"/>
   </g>
   <g id="patch_4">
    <path clip-path="url(#p25807f8424)" d="M 125.689842 252 
L 141.641535 252 
L 141.641535 208.072727 
L 125.689842 208.072727 
z
" style="fill:#4c72b0;opacity:0.4;stroke:#ffffff;stroke-linejoin:miter;"/>
   </g>
   <g id="patch_5">
    <path clip-path="url(#p25807f8424)" d="M 141.641535 252 
L 157.593228 252 
L 157.593228 145.319481 
L 141.641535 145.319481 
z
" style="fill:#4c72b0;opacity:0.4;stroke:#ffffff;stroke-linejoin:miter;"/>
   </g>
   <g id="patch_6">
    <path clip-path="url(#p25807f8424)" d="M 157.593228 252 
L 173.544921 252 
L 173.544921 157.87013 
L 157.593228 157.87013 
z
" style="fill:#4c72b0;opacity:0.4;stroke:#ffffff;stroke-linejoin:miter;"/>
   </g>
   <g id="patch_7">
    <path clip-path="url(#p25807f8424)" d="M 173.544921 252 
L 189.496614 252 
L 189.496614 113.942857 
L 173.544921 113.942857 
z
" style="fill:#4c72b0;opacity:0.4;stroke:#ffffff;stroke-linejoin:miter;"/>
   </g>
   <g id="patch_8">
    <path clip-path="url(#p25807f8424)" d="M 189.496614 252 
L 205.448307 252 
L 205.448307 44.914286 
L 189.496614 44.914286 
z
" style="fill:#4c72b0;opacity:0.4;stroke:#ffffff;stroke-linejoin:miter;"/>
   </g>
   <g id="patch_9">
    <path clip-path="url(#p25807f8424)" d="M 205.448307 252 
L 221.4 252 
L 221.4 51.18961 
L 205.448307 51.18961 
z
" style="fill:#4c72b0;opacity:0.4;stroke:#ffffff;stroke-linejoin:miter;"/>
   </g>
   <g id="patch_10">
    <path clip-path="url(#p25807f8424)" d="M 221.4 252 
L 237.351693 252 
L 237.351693 88.841558 
L 221.4 88.841558 
z
" style="fill:#4c72b0;opacity:0.4;stroke:#ffffff;stroke-linejoin:miter;"/>
   </g>
   <g id="patch_11">
    <path clip-path="url(#p25807f8424)" d="M 237.351693 252 
L 253.303386 252 
L 253.303386 170.420779 
L 237.351693 170.420779 
z
" style="fill:#4c72b0;opacity:0.4;stroke:#ffffff;stroke-linejoin:miter;"/>
   </g>
   <g id="patch_12">
    <path clip-path="url(#p25807f8424)" d="M 253.303386 252 
L 269.255079 252 
L 269.255079 157.87013 
L 253.303386 157.87013 
z
" style="fill:#4c72b0;opacity:0.4;stroke:#ffffff;stroke-linejoin:miter;"/>
   </g>
   <g id="patch_13">
    <path clip-path="url(#p25807f8424)" d="M 269.255079 252 
L 285.206772 252 
L 285.206772 195.522078 
L 269.255079 195.522078 
z
" style="fill:#4c72b0;opacity:0.4;stroke:#ffffff;stroke-linejoin:miter;"/>
   </g>
   <g id="patch_14">
    <path clip-path="url(#p25807f8424)" d="M 285.206772 252 
L 301.158465 252 
L 301.158465 233.174026 
L 285.206772 233.174026 
z
" style="fill:#4c72b0;opacity:0.4;stroke:#ffffff;stroke-linejoin:miter;"/>
   </g>
   <g id="patch_15">
    <path clip-path="url(#p25807f8424)" d="M 301.158465 252 
L 317.110158 252 
L 317.110158 226.898701 
L 301.158465 226.898701 
z
" style="fill:#4c72b0;opacity:0.4;stroke:#ffffff;stroke-linejoin:miter;"/>
   </g>
   <g id="patch_16">
    <path clip-path="url(#p25807f8424)" d="M 317.110158 252 
L 333.061851 252 
L 333.061851 239.449351 
L 317.110158 239.449351 
z
" style="fill:#4c72b0;opacity:0.4;stroke:#ffffff;stroke-linejoin:miter;"/>
   </g>
   <g id="LineCollection_1">
    <path clip-path="url(#p25807f8424)" d="M 206.13397 252 
L 206.13397 241.128 
" style="fill:none;stroke:#4c72b0;"/>
    <path clip-path="url(#p25807f8424)" d="M 233.914968 252 
L 233.914968 241.128 
" style="fill:none;stroke:#4c72b0;"/>
    <path clip-path="url(#p25807f8424)" d="M 293.164627 252 
L 293.164627 241.128 
" style="fill:none;stroke:#4c72b0;"/>
    <path clip-path="url(#p25807f8424)" d="M 154.888628 252 
L 154.888628 241.128 
" style="fill:none;stroke:#4c72b0;"/>
    <path clip-path="url(#p25807f8424)" d="M 191.427024 252 
L 191.427024 241.128 
" style="fill:none;stroke:#4c72b0;"/>
    <path clip-path="url(#p25807f8424)" d="M 234.152696 252 
L 234.152696 241.128 
" style="fill:none;stroke:#4c72b0;"/>
    <path clip-path="url(#p25807f8424)" d="M 204.310455 252 
L 204.310455 241.128 
" style="fill:none;stroke:#4c72b0;"/>
    <path clip-path="url(#p25807f8424)" d="M 220.741836 252 
L 220.741836 241.128 
" style="fill:none;stroke:#4c72b0;"/>
    <path clip-path="url(#p25807f8424)" d="M 135.44769 252 
L 135.44769 241.128 
" style="fill:none;stroke:#4c72b0;"/>
    <path clip-path="url(#p25807f8424)" d="M 239.185876 252 
L 239.185876 241.128 
" style="fill:none;stroke:#4c72b0;"/>
    <path clip-path="url(#p25807f8424)" d="M 275.683803 252 
L 275.683803 241.128 
" style="fill:none;stroke:#4c72b0;"/>
    <path clip-path="url(#p25807f8424)" d="M 283.854852 252 
L 283.854852 241.128 
" style="fill:none;stroke:#4c72b0;"/>
    <path clip-path="url(#p25807f8424)" d="M 255.101046 252 
L 255.101046 241.128 
" style="fill:none;stroke:#4c72b0;"/>
    <path clip-path="url(#p25807f8424)" d="M 138.820374 252 
L 138.820374 241.128 
" style="fill:none;stroke:#4c72b0;"/>
    <path clip-path="url(#p25807f8424)" d="M 193.500144 252 
L 193.500144 241.128 
" style="fill:none;stroke:#4c72b0;"/>
    <path clip-path="url(#p25807f8424)" d="M 228.557339 252 
L 228.557339 241.128 
" style="fill:none;stroke:#4c72b0;"/>
    <path clip-path="url(#p25807f8424)" d="M 213.239929 252 
L 213.239929 241.128 
" style="fill:none;stroke:#4c72b0;"/>
    <path clip-path="url(#p25807f8424)" d="M 169.765465 252 
L 169.765465 241.128 
" style="fill:none;stroke:#4c72b0;"/>
    <path clip-path="url(#p25807f8424)" d="M 112.228344 252 
L 112.228344 241.128 
" style="fill:none;stroke:#4c72b0;"/>
    <path clip-path="url(#p25807f8424)" d="M 152.821839 252 
L 152.821839 241.128 
" style="fill:none;stroke:#4c72b0;"/>
    <path clip-path="url(#p25807f8424)" d="M 210.83164 252 
L 210.83164 241.128 
" style="fill:none;stroke:#4c72b0;"/>
    <path clip-path="url(#p25807f8424)" d="M 191.436485 252 
L 191.436485 241.128 
" style="fill:none;stroke:#4c72b0;"/>
    <path clip-path="url(#p25807f8424)" d="M 233.845114 252 
L 233.845114 241.128 
" style="fill:none;stroke:#4c72b0;"/>
    <path clip-path="url(#p25807f8424)" d="M 199.322924 252 
L 199.322924 241.128 
" style="fill:none;stroke:#4c72b0;"/>
    <path clip-path="url(#p25807f8424)" d="M 204.295054 252 
L 204.295054 241.128 
" style="fill:none;stroke:#4c72b0;"/>
    <path clip-path="url(#p25807f8424)" d="M 267.875811 252 
L 267.875811 241.128 
" style="fill:none;stroke:#4c72b0;"/>
    <path clip-path="url(#p25807f8424)" d="M 277.810239 252 
L 277.810239 241.128 
" style="fill:none;stroke:#4c72b0;"/>
    <path clip-path="url(#p25807f8424)" d="M 174.819378 252 
L 174.819378 241.128 
" style="fill:none;stroke:#4c72b0;"/>
    <path clip-path="url(#p25807f8424)" d="M 184.330678 252 
L 184.330678 241.128 
" style="fill:none;stroke:#4c72b0;"/>
    <path clip-path="url(#p25807f8424)" d="M 168.523784 252 
L 168.523784 241.128 
" style="fill:none;stroke:#4c72b0;"/>
    <path clip-path="url(#p25807f8424)" d="M 214.662202 252 
L 214.662202 241.128 
" style="fill:none;stroke:#4c72b0;"/>
    <path clip-path="url(#p25807f8424)" d="M 245.297987 252 
L 245.297987 241.128 
" style="fill:none;stroke:#4c72b0;"/>
    <path clip-path="url(#p25807f8424)" d="M 198.159279 252 
L 198.159279 241.128 
" style="fill:none;stroke:#4c72b0;"/>
    <path clip-path="url(#p25807f8424)" d="M 184.853343 252 
L 184.853343 241.128 
" style="fill:none;stroke:#4c72b0;"/>
    <path clip-path="url(#p25807f8424)" d="M 209.167266 252 
L 209.167266 241.128 
" style="fill:none;stroke:#4c72b0;"/>
    <path clip-path="url(#p25807f8424)" d="M 136.342586 252 
L 136.342586 241.128 
" style="fill:none;stroke:#4c72b0;"/>
    <path clip-path="url(#p25807f8424)" d="M 210.338018 252 
L 210.338018 241.128 
" style="fill:none;stroke:#4c72b0;"/>
    <path clip-path="url(#p25807f8424)" d="M 278.192012 252 
L 278.192012 241.128 
" style="fill:none;stroke:#4c72b0;"/>
    <path clip-path="url(#p25807f8424)" d="M 309.220651 252 
L 309.220651 241.128 
" style="fill:none;stroke:#4c72b0;"/>
    <path clip-path="url(#p25807f8424)" d="M 254.803384 252 
L 254.803384 241.128 
" style="fill:none;stroke:#4c72b0;"/>
    <path clip-path="url(#p25807f8424)" d="M 182.704955 252 
L 182.704955 241.128 
" style="fill:none;stroke:#4c72b0;"/>
    <path clip-path="url(#p25807f8424)" d="M 223.052744 252 
L 223.052744 241.128 
" style="fill:none;stroke:#4c72b0;"/>
    <path clip-path="url(#p25807f8424)" d="M 197.003893 252 
L 197.003893 241.128 
" style="fill:none;stroke:#4c72b0;"/>
    <path clip-path="url(#p25807f8424)" d="M 194.099968 252 
L 194.099968 241.128 
" style="fill:none;stroke:#4c72b0;"/>
    <path clip-path="url(#p25807f8424)" d="M 185.655349 252 
L 185.655349 241.128 
" style="fill:none;stroke:#4c72b0;"/>
    <path clip-path="url(#p25807f8424)" d="M 253.070901 252 
L 253.070901 241.128 
" style="fill:none;stroke:#4c72b0;"/>
    <path clip-path="url(#p25807f8424)" d="M 243.451811 252 
L 243.451811 241.128 
" style="fill:none;stroke:#4c72b0;"/>
    <path clip-path="url(#p25807f8424)" d="M 196.584558 252 
L 196.584558 241.128 
" style="fill:none;stroke:#4c72b0;"/>
    <path clip-path="url(#p25807f8424)" d="M 185.90688 252 
L 185.90688 241.128 
" style="fill:none;stroke:#4c72b0;"/>
    <path clip-path="url(#p25807f8424)" d="M 186.248679 252 
L 186.248679 241.128 
" style="fill:none;stroke:#4c72b0;"/>
    <path clip-path="url(#p25807f8424)" d="M 158.134563 252 
L 158.134563 241.128 
" style="fill:none;stroke:#4c72b0;"/>
    <path clip-path="url(#p25807f8424)" d="M 195.376049 252 
L 195.376049 241.128 
" style="fill:none;stroke:#4c72b0;"/>
    <path clip-path="url(#p25807f8424)" d="M 189.464668 252 
L 189.464668 241.128 
" style="fill:none;stroke:#4c72b0;"/>
    <path clip-path="url(#p25807f8424)" d="M 213.044528 252 
L 213.044528 241.128 
" style="fill:none;stroke:#4c72b0;"/>
    <path clip-path="url(#p25807f8424)" d="M 195.425041 252 
L 195.425041 241.128 
" style="fill:none;stroke:#4c72b0;"/>
    <path clip-path="url(#p25807f8424)" d="M 211.887815 252 
L 211.887815 241.128 
" style="fill:none;stroke:#4c72b0;"/>
    <path clip-path="url(#p25807f8424)" d="M 207.028708 252 
L 207.028708 241.128 
" style="fill:none;stroke:#4c72b0;"/>
    <path clip-path="url(#p25807f8424)" d="M 266.390896 252 
L 266.390896 241.128 
" style="fill:none;stroke:#4c72b0;"/>
    <path clip-path="url(#p25807f8424)" d="M 196.49782 252 
L 196.49782 241.128 
" style="fill:none;stroke:#4c72b0;"/>
    <path clip-path="url(#p25807f8424)" d="M 194.433364 252 
L 194.433364 241.128 
" style="fill:none;stroke:#4c72b0;"/>
    <path clip-path="url(#p25807f8424)" d="M 160.844428 252 
L 160.844428 241.128 
" style="fill:none;stroke:#4c72b0;"/>
    <path clip-path="url(#p25807f8424)" d="M 228.523589 252 
L 228.523589 241.128 
" style="fill:none;stroke:#4c72b0;"/>
    <path clip-path="url(#p25807f8424)" d="M 185.758011 252 
L 185.758011 241.128 
" style="fill:none;stroke:#4c72b0;"/>
    <path clip-path="url(#p25807f8424)" d="M 233.772958 252 
L 233.772958 241.128 
" style="fill:none;stroke:#4c72b0;"/>
    <path clip-path="url(#p25807f8424)" d="M 196.540382 252 
L 196.540382 241.128 
" style="fill:none;stroke:#4c72b0;"/>
    <path clip-path="url(#p25807f8424)" d="M 223.96094 252 
L 223.96094 241.128 
" style="fill:none;stroke:#4c72b0;"/>
    <path clip-path="url(#p25807f8424)" d="M 166.44791 252 
L 166.44791 241.128 
" style="fill:none;stroke:#4c72b0;"/>
    <path clip-path="url(#p25807f8424)" d="M 177.870417 252 
L 177.870417 241.128 
" style="fill:none;stroke:#4c72b0;"/>
    <path clip-path="url(#p25807f8424)" d="M 221.72021 252 
L 221.72021 241.128 
" style="fill:none;stroke:#4c72b0;"/>
    <path clip-path="url(#p25807f8424)" d="M 300.909613 252 
L 300.909613 241.128 
" style="fill:none;stroke:#4c72b0;"/>
    <path clip-path="url(#p25807f8424)" d="M 254.629031 252 
L 254.629031 241.128 
" style="fill:none;stroke:#4c72b0;"/>
    <path clip-path="url(#p25807f8424)" d="M 175.566071 252 
L 175.566071 241.128 
" style="fill:none;stroke:#4c72b0;"/>
    <path clip-path="url(#p25807f8424)" d="M 246.352146 252 
L 246.352146 241.128 
" style="fill:none;stroke:#4c72b0;"/>
    <path clip-path="url(#p25807f8424)" d="M 231.824604 252 
L 231.824604 241.128 
" style="fill:none;stroke:#4c72b0;"/>
    <path clip-path="url(#p25807f8424)" d="M 226.514145 252 
L 226.514145 241.128 
" style="fill:none;stroke:#4c72b0;"/>
    <path clip-path="url(#p25807f8424)" d="M 177.66086 252 
L 177.66086 241.128 
" style="fill:none;stroke:#4c72b0;"/>
    <path clip-path="url(#p25807f8424)" d="M 235.649183 252 
L 235.649183 241.128 
" style="fill:none;stroke:#4c72b0;"/>
    <path clip-path="url(#p25807f8424)" d="M 189.105155 252 
L 189.105155 241.128 
" style="fill:none;stroke:#4c72b0;"/>
    <path clip-path="url(#p25807f8424)" d="M 206.89904 252 
L 206.89904 241.128 
" style="fill:none;stroke:#4c72b0;"/>
    <path clip-path="url(#p25807f8424)" d="M 137.120237 252 
L 137.120237 241.128 
" style="fill:none;stroke:#4c72b0;"/>
    <path clip-path="url(#p25807f8424)" d="M 243.442836 252 
L 243.442836 241.128 
" style="fill:none;stroke:#4c72b0;"/>
    <path clip-path="url(#p25807f8424)" d="M 207.132863 252 
L 207.132863 241.128 
" style="fill:none;stroke:#4c72b0;"/>
    <path clip-path="url(#p25807f8424)" d="M 126.444739 252 
L 126.444739 241.128 
" style="fill:none;stroke:#4c72b0;"/>
    <path clip-path="url(#p25807f8424)" d="M 230.336241 252 
L 230.336241 241.128 
" style="fill:none;stroke:#4c72b0;"/>
    <path clip-path="url(#p25807f8424)" d="M 178.172286 252 
L 178.172286 241.128 
" style="fill:none;stroke:#4c72b0;"/>
    <path clip-path="url(#p25807f8424)" d="M 184.243764 252 
L 184.243764 241.128 
" style="fill:none;stroke:#4c72b0;"/>
    <path clip-path="url(#p25807f8424)" d="M 260.691997 252 
L 260.691997 241.128 
" style="fill:none;stroke:#4c72b0;"/>
    <path clip-path="url(#p25807f8424)" d="M 208.044771 252 
L 208.044771 241.128 
" style="fill:none;stroke:#4c72b0;"/>
    <path clip-path="url(#p25807f8424)" d="M 220.954804 252 
L 220.954804 241.128 
" style="fill:none;stroke:#4c72b0;"/>
    <path clip-path="url(#p25807f8424)" d="M 223.646536 252 
L 223.646536 241.128 
" style="fill:none;stroke:#4c72b0;"/>
    <path clip-path="url(#p25807f8424)" d="M 218.510274 252 
L 218.510274 241.128 
" style="fill:none;stroke:#4c72b0;"/>
    <path clip-path="url(#p25807f8424)" d="M 163.907894 252 
L 163.907894 241.128 
" style="fill:none;stroke:#4c72b0;"/>
    <path clip-path="url(#p25807f8424)" d="M 207.784249 252 
L 207.784249 241.128 
" style="fill:none;stroke:#4c72b0;"/>
    <path clip-path="url(#p25807f8424)" d="M 202.322093 252 
L 202.322093 241.128 
" style="fill:none;stroke:#4c72b0;"/>
    <path clip-path="url(#p25807f8424)" d="M 267.119121 252 
L 267.119121 241.128 
" style="fill:none;stroke:#4c72b0;"/>
    <path clip-path="url(#p25807f8424)" d="M 231.490292 252 
L 231.490292 241.128 
" style="fill:none;stroke:#4c72b0;"/>
    <path clip-path="url(#p25807f8424)" d="M 164.577347 252 
L 164.577347 241.128 
" style="fill:none;stroke:#4c72b0;"/>
    <path clip-path="url(#p25807f8424)" d="M 202.160141 252 
L 202.160141 241.128 
" style="fill:none;stroke:#4c72b0;"/>
    <path clip-path="url(#p25807f8424)" d="M 241.187581 252 
L 241.187581 241.128 
" style="fill:none;stroke:#4c72b0;"/>
    <path clip-path="url(#p25807f8424)" d="M 207.070615 252 
L 207.070615 241.128 
" style="fill:none;stroke:#4c72b0;"/>
    <path clip-path="url(#p25807f8424)" d="M 194.988717 252 
L 194.988717 241.128 
" style="fill:none;stroke:#4c72b0;"/>
    <path clip-path="url(#p25807f8424)" d="M 219.535585 252 
L 219.535585 241.128 
" style="fill:none;stroke:#4c72b0;"/>
    <path clip-path="url(#p25807f8424)" d="M 319.575452 252 
L 319.575452 241.128 
" style="fill:none;stroke:#4c72b0;"/>
    <path clip-path="url(#p25807f8424)" d="M 169.550355 252 
L 169.550355 241.128 
" style="fill:none;stroke:#4c72b0;"/>
    <path clip-path="url(#p25807f8424)" d="M 231.259692 252 
L 231.259692 241.128 
" style="fill:none;stroke:#4c72b0;"/>
    <path clip-path="url(#p25807f8424)" d="M 153.255011 252 
L 153.255011 241.128 
" style="fill:none;stroke:#4c72b0;"/>
    <path clip-path="url(#p25807f8424)" d="M 266.511268 252 
L 266.511268 241.128 
" style="fill:none;stroke:#4c72b0;"/>
    <path clip-path="url(#p25807f8424)" d="M 228.569899 252 
L 228.569899 241.128 
" style="fill:none;stroke:#4c72b0;"/>
    <path clip-path="url(#p25807f8424)" d="M 167.203504 252 
L 167.203504 241.128 
" style="fill:none;stroke:#4c72b0;"/>
    <path clip-path="url(#p25807f8424)" d="M 193.695793 252 
L 193.695793 241.128 
" style="fill:none;stroke:#4c72b0;"/>
    <path clip-path="url(#p25807f8424)" d="M 171.065849 252 
L 171.065849 241.128 
" style="fill:none;stroke:#4c72b0;"/>
    <path clip-path="url(#p25807f8424)" d="M 192.232132 252 
L 192.232132 241.128 
" style="fill:none;stroke:#4c72b0;"/>
    <path clip-path="url(#p25807f8424)" d="M 211.808814 252 
L 211.808814 241.128 
" style="fill:none;stroke:#4c72b0;"/>
    <path clip-path="url(#p25807f8424)" d="M 211.119667 252 
L 211.119667 241.128 
" style="fill:none;stroke:#4c72b0;"/>
    <path clip-path="url(#p25807f8424)" d="M 250.421662 252 
L 250.421662 241.128 
" style="fill:none;stroke:#4c72b0;"/>
    <path clip-path="url(#p25807f8424)" d="M 290.496991 252 
L 290.496991 241.128 
" style="fill:none;stroke:#4c72b0;"/>
    <path clip-path="url(#p25807f8424)" d="M 184.602671 252 
L 184.602671 241.128 
" style="fill:none;stroke:#4c72b0;"/>
    <path clip-path="url(#p25807f8424)" d="M 170.914293 252 
L 170.914293 241.128 
" style="fill:none;stroke:#4c72b0;"/>
    <path clip-path="url(#p25807f8424)" d="M 256.46552 252 
L 256.46552 241.128 
" style="fill:none;stroke:#4c72b0;"/>
    <path clip-path="url(#p25807f8424)" d="M 333.061851 252 
L 333.061851 241.128 
" style="fill:none;stroke:#4c72b0;"/>
    <path clip-path="url(#p25807f8424)" d="M 142.255059 252 
L 142.255059 241.128 
" style="fill:none;stroke:#4c72b0;"/>
    <path clip-path="url(#p25807f8424)" d="M 154.365662 252 
L 154.365662 241.128 
" style="fill:none;stroke:#4c72b0;"/>
    <path clip-path="url(#p25807f8424)" d="M 199.833038 252 
L 199.833038 241.128 
" style="fill:none;stroke:#4c72b0;"/>
    <path clip-path="url(#p25807f8424)" d="M 269.516872 252 
L 269.516872 241.128 
" style="fill:none;stroke:#4c72b0;"/>
    <path clip-path="url(#p25807f8424)" d="M 147.450882 252 
L 147.450882 241.128 
" style="fill:none;stroke:#4c72b0;"/>
    <path clip-path="url(#p25807f8424)" d="M 220.333349 252 
L 220.333349 241.128 
" style="fill:none;stroke:#4c72b0;"/>
    <path clip-path="url(#p25807f8424)" d="M 218.03824 252 
L 218.03824 241.128 
" style="fill:none;stroke:#4c72b0;"/>
    <path clip-path="url(#p25807f8424)" d="M 143.994492 252 
L 143.994492 241.128 
" style="fill:none;stroke:#4c72b0;"/>
    <path clip-path="url(#p25807f8424)" d="M 145.444127 252 
L 145.444127 241.128 
" style="fill:none;stroke:#4c72b0;"/>
    <path clip-path="url(#p25807f8424)" d="M 144.793911 252 
L 144.793911 241.128 
" style="fill:none;stroke:#4c72b0;"/>
    <path clip-path="url(#p25807f8424)" d="M 195.413892 252 
L 195.413892 241.128 
" style="fill:none;stroke:#4c72b0;"/>
    <path clip-path="url(#p25807f8424)" d="M 256.706233 252 
L 256.706233 241.128 
" style="fill:none;stroke:#4c72b0;"/>
    <path clip-path="url(#p25807f8424)" d="M 142.401063 252 
L 142.401063 241.128 
" style="fill:none;stroke:#4c72b0;"/>
    <path clip-path="url(#p25807f8424)" d="M 211.677773 252 
L 211.677773 241.128 
" style="fill:none;stroke:#4c72b0;"/>
    <path clip-path="url(#p25807f8424)" d="M 246.819259 252 
L 246.819259 241.128 
" style="fill:none;stroke:#4c72b0;"/>
    <path clip-path="url(#p25807f8424)" d="M 306.508692 252 
L 306.508692 241.128 
" style="fill:none;stroke:#4c72b0;"/>
    <path clip-path="url(#p25807f8424)" d="M 164.64432 252 
L 164.64432 241.128 
" style="fill:none;stroke:#4c72b0;"/>
    <path clip-path="url(#p25807f8424)" d="M 205.351225 252 
L 205.351225 241.128 
" style="fill:none;stroke:#4c72b0;"/>
    <path clip-path="url(#p25807f8424)" d="M 201.104072 252 
L 201.104072 241.128 
" style="fill:none;stroke:#4c72b0;"/>
    <path clip-path="url(#p25807f8424)" d="M 153.517968 252 
L 153.517968 241.128 
" style="fill:none;stroke:#4c72b0;"/>
    <path clip-path="url(#p25807f8424)" d="M 198.878989 252 
L 198.878989 241.128 
" style="fill:none;stroke:#4c72b0;"/>
    <path clip-path="url(#p25807f8424)" d="M 175.053259 252 
L 175.053259 241.128 
" style="fill:none;stroke:#4c72b0;"/>
    <path clip-path="url(#p25807f8424)" d="M 244.239358 252 
L 244.239358 241.128 
" style="fill:none;stroke:#4c72b0;"/>
    <path clip-path="url(#p25807f8424)" d="M 271.901127 252 
L 271.901127 241.128 
" style="fill:none;stroke:#4c72b0;"/>
    <path clip-path="url(#p25807f8424)" d="M 243.758974 252 
L 243.758974 241.128 
" style="fill:none;stroke:#4c72b0;"/>
    <path clip-path="url(#p25807f8424)" d="M 229.037284 252 
L 229.037284 241.128 
" style="fill:none;stroke:#4c72b0;"/>
    <path clip-path="url(#p25807f8424)" d="M 261.229043 252 
L 261.229043 241.128 
" style="fill:none;stroke:#4c72b0;"/>
    <path clip-path="url(#p25807f8424)" d="M 218.267251 252 
L 218.267251 241.128 
" style="fill:none;stroke:#4c72b0;"/>
    <path clip-path="url(#p25807f8424)" d="M 155.763808 252 
L 155.763808 241.128 
" style="fill:none;stroke:#4c72b0;"/>
    <path clip-path="url(#p25807f8424)" d="M 185.239645 252 
L 185.239645 241.128 
" style="fill:none;stroke:#4c72b0;"/>
    <path clip-path="url(#p25807f8424)" d="M 192.983512 252 
L 192.983512 241.128 
" style="fill:none;stroke:#4c72b0;"/>
    <path clip-path="url(#p25807f8424)" d="M 223.828644 252 
L 223.828644 241.128 
" style="fill:none;stroke:#4c72b0;"/>
    <path clip-path="url(#p25807f8424)" d="M 174.325987 252 
L 174.325987 241.128 
" style="fill:none;stroke:#4c72b0;"/>
    <path clip-path="url(#p25807f8424)" d="M 189.952034 252 
L 189.952034 241.128 
" style="fill:none;stroke:#4c72b0;"/>
    <path clip-path="url(#p25807f8424)" d="M 202.183171 252 
L 202.183171 241.128 
" style="fill:none;stroke:#4c72b0;"/>
    <path clip-path="url(#p25807f8424)" d="M 185.580153 252 
L 185.580153 241.128 
" style="fill:none;stroke:#4c72b0;"/>
    <path clip-path="url(#p25807f8424)" d="M 217.668149 252 
L 217.668149 241.128 
" style="fill:none;stroke:#4c72b0;"/>
    <path clip-path="url(#p25807f8424)" d="M 305.257505 252 
L 305.257505 241.128 
" style="fill:none;stroke:#4c72b0;"/>
    <path clip-path="url(#p25807f8424)" d="M 313.295954 252 
L 313.295954 241.128 
" style="fill:none;stroke:#4c72b0;"/>
    <path clip-path="url(#p25807f8424)" d="M 248.296739 252 
L 248.296739 241.128 
" style="fill:none;stroke:#4c72b0;"/>
    <path clip-path="url(#p25807f8424)" d="M 222.40294 252 
L 222.40294 241.128 
" style="fill:none;stroke:#4c72b0;"/>
    <path clip-path="url(#p25807f8424)" d="M 221.053651 252 
L 221.053651 241.128 
" style="fill:none;stroke:#4c72b0;"/>
    <path clip-path="url(#p25807f8424)" d="M 142.338361 252 
L 142.338361 241.128 
" style="fill:none;stroke:#4c72b0;"/>
    <path clip-path="url(#p25807f8424)" d="M 209.516036 252 
L 209.516036 241.128 
" style="fill:none;stroke:#4c72b0;"/>
    <path clip-path="url(#p25807f8424)" d="M 185.702568 252 
L 185.702568 241.128 
" style="fill:none;stroke:#4c72b0;"/>
    <path clip-path="url(#p25807f8424)" d="M 207.135027 252 
L 207.135027 241.128 
" style="fill:none;stroke:#4c72b0;"/>
    <path clip-path="url(#p25807f8424)" d="M 141.086013 252 
L 141.086013 241.128 
" style="fill:none;stroke:#4c72b0;"/>
    <path clip-path="url(#p25807f8424)" d="M 184.019061 252 
L 184.019061 241.128 
" style="fill:none;stroke:#4c72b0;"/>
    <path clip-path="url(#p25807f8424)" d="M 109.738149 252 
L 109.738149 241.128 
" style="fill:none;stroke:#4c72b0;"/>
    <path clip-path="url(#p25807f8424)" d="M 219.749058 252 
L 219.749058 241.128 
" style="fill:none;stroke:#4c72b0;"/>
    <path clip-path="url(#p25807f8424)" d="M 172.628606 252 
L 172.628606 241.128 
" style="fill:none;stroke:#4c72b0;"/>
    <path clip-path="url(#p25807f8424)" d="M 274.444635 252 
L 274.444635 241.128 
" style="fill:none;stroke:#4c72b0;"/>
    <path clip-path="url(#p25807f8424)" d="M 259.914084 252 
L 259.914084 241.128 
" style="fill:none;stroke:#4c72b0;"/>
    <path clip-path="url(#p25807f8424)" d="M 278.69069 252 
L 278.69069 241.128 
" style="fill:none;stroke:#4c72b0;"/>
    <path clip-path="url(#p25807f8424)" d="M 166.007204 252 
L 166.007204 241.128 
" style="fill:none;stroke:#4c72b0;"/>
    <path clip-path="url(#p25807f8424)" d="M 228.313636 252 
L 228.313636 241.128 
" style="fill:none;stroke:#4c72b0;"/>
    <path clip-path="url(#p25807f8424)" d="M 190.875007 252 
L 190.875007 241.128 
" style="fill:none;stroke:#4c72b0;"/>
    <path clip-path="url(#p25807f8424)" d="M 262.392012 252 
L 262.392012 241.128 
" style="fill:none;stroke:#4c72b0;"/>
    <path clip-path="url(#p25807f8424)" d="M 142.469505 252 
L 142.469505 241.128 
" style="fill:none;stroke:#4c72b0;"/>
    <path clip-path="url(#p25807f8424)" d="M 231.771577 252 
L 231.771577 241.128 
" style="fill:none;stroke:#4c72b0;"/>
    <path clip-path="url(#p25807f8424)" d="M 210.961778 252 
L 210.961778 241.128 
" style="fill:none;stroke:#4c72b0;"/>
    <path clip-path="url(#p25807f8424)" d="M 200.108683 252 
L 200.108683 241.128 
" style="fill:none;stroke:#4c72b0;"/>
    <path clip-path="url(#p25807f8424)" d="M 139.407623 252 
L 139.407623 241.128 
" style="fill:none;stroke:#4c72b0;"/>
    <path clip-path="url(#p25807f8424)" d="M 233.827544 252 
L 233.827544 241.128 
" style="fill:none;stroke:#4c72b0;"/>
    <path clip-path="url(#p25807f8424)" d="M 190.106852 252 
L 190.106852 241.128 
" style="fill:none;stroke:#4c72b0;"/>
    <path clip-path="url(#p25807f8424)" d="M 223.217252 252 
L 223.217252 241.128 
" style="fill:none;stroke:#4c72b0;"/>
    <path clip-path="url(#p25807f8424)" d="M 255.548766 252 
L 255.548766 241.128 
" style="fill:none;stroke:#4c72b0;"/>
    <path clip-path="url(#p25807f8424)" d="M 261.283531 252 
L 261.283531 241.128 
" style="fill:none;stroke:#4c72b0;"/>
    <path clip-path="url(#p25807f8424)" d="M 221.868877 252 
L 221.868877 241.128 
" style="fill:none;stroke:#4c72b0;"/>
    <path clip-path="url(#p25807f8424)" d="M 225.820439 252 
L 225.820439 241.128 
" style="fill:none;stroke:#4c72b0;"/>
    <path clip-path="url(#p25807f8424)" d="M 154.728099 252 
L 154.728099 241.128 
" style="fill:none;stroke:#4c72b0;"/>
    <path clip-path="url(#p25807f8424)" d="M 147.28247 252 
L 147.28247 241.128 
" style="fill:none;stroke:#4c72b0;"/>
    <path clip-path="url(#p25807f8424)" d="M 209.73765 252 
L 209.73765 241.128 
" style="fill:none;stroke:#4c72b0;"/>
    <path clip-path="url(#p25807f8424)" d="M 283.138469 252 
L 283.138469 241.128 
" style="fill:none;stroke:#4c72b0;"/>
    <path clip-path="url(#p25807f8424)" d="M 213.884588 252 
L 213.884588 241.128 
" style="fill:none;stroke:#4c72b0;"/>
    <path clip-path="url(#p25807f8424)" d="M 245.665017 252 
L 245.665017 241.128 
" style="fill:none;stroke:#4c72b0;"/>
    <path clip-path="url(#p25807f8424)" d="M 195.376084 252 
L 195.376084 241.128 
" style="fill:none;stroke:#4c72b0;"/>
    <path clip-path="url(#p25807f8424)" d="M 199.175551 252 
L 199.175551 241.128 
" style="fill:none;stroke:#4c72b0;"/>
    <path clip-path="url(#p25807f8424)" d="M 160.385687 252 
L 160.385687 241.128 
" style="fill:none;stroke:#4c72b0;"/>
    <path clip-path="url(#p25807f8424)" d="M 147.541788 252 
L 147.541788 241.128 
" style="fill:none;stroke:#4c72b0;"/>
   </g>
   <g id="line2d_8">
    <path clip-path="url(#p25807f8424)" d="M 69.218182 251.924381 
L 76.407874 251.755704 
L 81.201002 251.442019 
L 85.99413 250.852683 
L 90.787258 249.885817 
L 95.580387 248.480103 
L 100.373515 246.622396 
L 102.770079 245.517254 
L 105.166643 244.27601 
L 107.563207 242.86654 
L 109.959771 241.23798 
L 112.356335 239.320778 
L 114.752899 237.031087 
L 117.149463 234.279842 
L 119.546027 230.985857 
L 121.942591 227.091172 
L 124.339155 222.576023 
L 126.735719 217.470379 
L 129.132283 211.859218 
L 133.925412 199.709281 
L 138.71854 187.59167 
L 141.115104 182.013095 
L 143.511668 176.935825 
L 145.908232 172.422379 
L 148.304796 168.468002 
L 150.70136 165.003818 
L 153.097924 161.907436 
L 160.287616 153.135201 
L 162.68418 149.782864 
L 165.080744 145.948706 
L 167.477309 141.515796 
L 169.873873 136.408958 
L 172.270437 130.602252 
L 174.667001 124.125105 
L 177.063565 117.065992 
L 181.856693 101.842513 
L 186.649821 86.65572 
L 189.046385 79.718511 
L 191.442949 73.540857 
L 193.839513 68.314476 
L 196.236077 64.17361 
L 198.632641 61.189715 
L 201.029205 59.374809 
L 203.42577 58.692157 
L 205.822334 59.071616 
L 208.218898 60.426326 
L 210.615462 62.667442 
L 213.012026 65.7143 
L 215.40859 69.498567 
L 217.805154 73.962232 
L 220.201718 79.050639 
L 222.598282 84.70276 
L 224.994846 90.841504 
L 229.787974 104.154009 
L 236.977666 124.594263 
L 239.37423 130.942011 
L 241.770795 136.865437 
L 244.167359 142.3083 
L 246.563923 147.261712 
L 248.960487 151.761639 
L 251.357051 155.880657 
L 256.150179 163.374255 
L 263.339871 174.255074 
L 268.132999 182.032311 
L 272.926127 190.304677 
L 280.11582 202.817252 
L 282.512384 206.728367 
L 284.908948 210.385232 
L 287.305512 213.727322 
L 289.702076 216.712901 
L 292.09864 219.324077 
L 294.495204 221.569395 
L 296.891768 223.483236 
L 299.288332 225.121802 
L 304.08146 227.862722 
L 311.271152 231.67741 
L 316.064281 234.493319 
L 328.047101 241.899435 
L 332.840229 244.448948 
L 337.633357 246.592434 
L 342.426485 248.323299 
L 347.219613 249.657756 
L 352.012742 250.62171 
L 356.80587 251.260036 
L 361.598998 251.640234 
L 368.78869 251.892068 
L 373.581818 251.93251 
L 373.581818 251.93251 
" style="fill:none;stroke:#4c72b0;stroke-linecap:round;stroke-width:1.5;"/>
   </g>
   <g id="patch_17">
    <path d="M 54 252 
L 54 34.56 
" style="fill:none;stroke:#cccccc;stroke-linecap:square;stroke-linejoin:miter;stroke-width:1.25;"/>
   </g>
   <g id="patch_18">
    <path d="M 388.8 252 
L 388.8 34.56 
" style="fill:none;stroke:#cccccc;stroke-linecap:square;stroke-linejoin:miter;stroke-width:1.25;"/>
   </g>
   <g id="patch_19">
    <path d="M 54 252 
L 388.8 252 
" style="fill:none;stroke:#cccccc;stroke-linecap:square;stroke-linejoin:miter;stroke-width:1.25;"/>
   </g>
   <g id="patch_20">
    <path d="M 54 34.56 
L 388.8 34.56 
" style="fill:none;stroke:#cccccc;stroke-linecap:square;stroke-linejoin:miter;stroke-width:1.25;"/>
   </g>
  </g>
 </g>
 <defs>
  <clipPath id="p25807f8424">
   <rect height="217.44" width="334.8" x="54" y="34.56"/>
  </clipPath>
 </defs>
</svg>
