<?xml version="1.0" encoding="utf-8" standalone="no"?>
<!DOCTYPE svg PUBLIC "-//W3C//DTD SVG 1.1//EN"
  "http://www.w3.org/Graphics/SVG/1.1/DTD/svg11.dtd">
<!-- Created with matplotlib (https://matplotlib.org/) -->
<svg height="720pt" version="1.1" viewBox="0 0 1152 720" width="1152pt" xmlns="http://www.w3.org/2000/svg" xmlns:xlink="http://www.w3.org/1999/xlink">
 <defs>
  <style type="text/css">
*{stroke-linecap:butt;stroke-linejoin:round;}
  </style>
 </defs>
 <g id="figure_1">
  <g id="patch_1">
   <path d="M 0 720 
L 1152 720 
L 1152 0 
L 0 0 
z
" style="fill:#ffffff;"/>
  </g>
  <g id="axes_1">
   <g id="patch_2">
    <path d="M 144 630 
L 1036.8 630 
L 1036.8 86.4 
L 144 86.4 
z
" style="fill:#ffffff;"/>
   </g>
   <g id="matplotlib.axis_1">
    <g id="xtick_1">
     <g id="line2d_1">
      <path clip-path="url(#pbea63881df)" d="M 240.748289 630 
L 240.748289 86.4 
" style="fill:none;stroke:#cccccc;stroke-linecap:round;"/>
     </g>
     <g id="text_1">
      <!-- 0.05 -->
      <defs>
       <path d="M 4.15625 35.296875 
Q 4.15625 48 6.765625 55.734375 
Q 9.375 63.484375 14.515625 67.671875 
Q 19.671875 71.875 27.484375 71.875 
Q 33.25 71.875 37.59375 69.546875 
Q 41.9375 67.234375 44.765625 62.859375 
Q 47.609375 58.5 49.21875 52.21875 
Q 50.828125 45.953125 50.828125 35.296875 
Q 50.828125 22.703125 48.234375 14.96875 
Q 45.65625 7.234375 40.5 3 
Q 35.359375 -1.21875 27.484375 -1.21875 
Q 17.140625 -1.21875 11.234375 6.203125 
Q 4.15625 15.140625 4.15625 35.296875 
z
M 13.1875 35.296875 
Q 13.1875 17.671875 17.3125 11.828125 
Q 21.4375 6 27.484375 6 
Q 33.546875 6 37.671875 11.859375 
Q 41.796875 17.71875 41.796875 35.296875 
Q 41.796875 52.984375 37.671875 58.78125 
Q 33.546875 64.59375 27.390625 64.59375 
Q 21.34375 64.59375 17.71875 59.46875 
Q 13.1875 52.9375 13.1875 35.296875 
z
" id="ArialMT-48"/>
       <path d="M 9.078125 0 
L 9.078125 10.015625 
L 19.09375 10.015625 
L 19.09375 0 
z
" id="ArialMT-46"/>
       <path d="M 4.15625 18.75 
L 13.375 19.53125 
Q 14.40625 12.796875 18.140625 9.390625 
Q 21.875 6 27.15625 6 
Q 33.5 6 37.890625 10.78125 
Q 42.28125 15.578125 42.28125 23.484375 
Q 42.28125 31 38.0625 35.34375 
Q 33.84375 39.703125 27 39.703125 
Q 22.75 39.703125 19.328125 37.765625 
Q 15.921875 35.84375 13.96875 32.765625 
L 5.71875 33.84375 
L 12.640625 70.609375 
L 48.25 70.609375 
L 48.25 62.203125 
L 19.671875 62.203125 
L 15.828125 42.96875 
Q 22.265625 47.46875 29.34375 47.46875 
Q 38.71875 47.46875 45.15625 40.96875 
Q 51.609375 34.46875 51.609375 24.265625 
Q 51.609375 14.546875 45.953125 7.46875 
Q 39.0625 -1.21875 27.15625 -1.21875 
Q 17.390625 -1.21875 11.203125 4.25 
Q 5.03125 9.71875 4.15625 18.75 
z
" id="ArialMT-53"/>
      </defs>
      <g style="fill:#262626;" transform="translate(219.341258 655.247187)scale(0.22 -0.22)">
       <use xlink:href="#ArialMT-48"/>
       <use x="55.615234" xlink:href="#ArialMT-46"/>
       <use x="83.398438" xlink:href="#ArialMT-48"/>
       <use x="139.013672" xlink:href="#ArialMT-53"/>
      </g>
     </g>
    </g>
    <g id="xtick_2">
     <g id="line2d_2">
      <path clip-path="url(#pbea63881df)" d="M 347.680608 630 
L 347.680608 86.4 
" style="fill:none;stroke:#cccccc;stroke-linecap:round;"/>
     </g>
     <g id="text_2">
      <!-- 0.10 -->
      <defs>
       <path d="M 37.25 0 
L 28.46875 0 
L 28.46875 56 
Q 25.296875 52.984375 20.140625 49.953125 
Q 14.984375 46.921875 10.890625 45.40625 
L 10.890625 53.90625 
Q 18.265625 57.375 23.78125 62.296875 
Q 29.296875 67.234375 31.59375 71.875 
L 37.25 71.875 
z
" id="ArialMT-49"/>
      </defs>
      <g style="fill:#262626;" transform="translate(326.273577 655.247187)scale(0.22 -0.22)">
       <use xlink:href="#ArialMT-48"/>
       <use x="55.615234" xlink:href="#ArialMT-46"/>
       <use x="83.398438" xlink:href="#ArialMT-49"/>
       <use x="139.013672" xlink:href="#ArialMT-48"/>
      </g>
     </g>
    </g>
    <g id="xtick_3">
     <g id="line2d_3">
      <path clip-path="url(#pbea63881df)" d="M 454.612928 630 
L 454.612928 86.4 
" style="fill:none;stroke:#cccccc;stroke-linecap:round;"/>
     </g>
     <g id="text_3">
      <!-- 0.15 -->
      <g style="fill:#262626;" transform="translate(433.205897 655.247187)scale(0.22 -0.22)">
       <use xlink:href="#ArialMT-48"/>
       <use x="55.615234" xlink:href="#ArialMT-46"/>
       <use x="83.398438" xlink:href="#ArialMT-49"/>
       <use x="139.013672" xlink:href="#ArialMT-53"/>
      </g>
     </g>
    </g>
    <g id="xtick_4">
     <g id="line2d_4">
      <path clip-path="url(#pbea63881df)" d="M 561.545247 630 
L 561.545247 86.4 
" style="fill:none;stroke:#cccccc;stroke-linecap:round;"/>
     </g>
     <g id="text_4">
      <!-- 0.20 -->
      <defs>
       <path d="M 50.34375 8.453125 
L 50.34375 0 
L 3.03125 0 
Q 2.9375 3.171875 4.046875 6.109375 
Q 5.859375 10.9375 9.828125 15.625 
Q 13.8125 20.3125 21.34375 26.46875 
Q 33.015625 36.03125 37.109375 41.625 
Q 41.21875 47.21875 41.21875 52.203125 
Q 41.21875 57.421875 37.46875 61 
Q 33.734375 64.59375 27.734375 64.59375 
Q 21.390625 64.59375 17.578125 60.78125 
Q 13.765625 56.984375 13.71875 50.25 
L 4.6875 51.171875 
Q 5.609375 61.28125 11.65625 66.578125 
Q 17.71875 71.875 27.9375 71.875 
Q 38.234375 71.875 44.234375 66.15625 
Q 50.25 60.453125 50.25 52 
Q 50.25 47.703125 48.484375 43.546875 
Q 46.734375 39.40625 42.65625 34.8125 
Q 38.578125 30.21875 29.109375 22.21875 
Q 21.1875 15.578125 18.9375 13.203125 
Q 16.703125 10.84375 15.234375 8.453125 
z
" id="ArialMT-50"/>
      </defs>
      <g style="fill:#262626;" transform="translate(540.138216 655.247187)scale(0.22 -0.22)">
       <use xlink:href="#ArialMT-48"/>
       <use x="55.615234" xlink:href="#ArialMT-46"/>
       <use x="83.398438" xlink:href="#ArialMT-50"/>
       <use x="139.013672" xlink:href="#ArialMT-48"/>
      </g>
     </g>
    </g>
    <g id="xtick_5">
     <g id="line2d_5">
      <path clip-path="url(#pbea63881df)" d="M 668.477567 630 
L 668.477567 86.4 
" style="fill:none;stroke:#cccccc;stroke-linecap:round;"/>
     </g>
     <g id="text_5">
      <!-- 0.25 -->
      <g style="fill:#262626;" transform="translate(647.070535 655.247187)scale(0.22 -0.22)">
       <use xlink:href="#ArialMT-48"/>
       <use x="55.615234" xlink:href="#ArialMT-46"/>
       <use x="83.398438" xlink:href="#ArialMT-50"/>
       <use x="139.013672" xlink:href="#ArialMT-53"/>
      </g>
     </g>
    </g>
    <g id="xtick_6">
     <g id="line2d_6">
      <path clip-path="url(#pbea63881df)" d="M 775.409886 630 
L 775.409886 86.4 
" style="fill:none;stroke:#cccccc;stroke-linecap:round;"/>
     </g>
     <g id="text_6">
      <!-- 0.30 -->
      <defs>
       <path d="M 4.203125 18.890625 
L 12.984375 20.0625 
Q 14.5 12.59375 18.140625 9.296875 
Q 21.78125 6 27 6 
Q 33.203125 6 37.46875 10.296875 
Q 41.75 14.59375 41.75 20.953125 
Q 41.75 27 37.796875 30.921875 
Q 33.84375 34.859375 27.734375 34.859375 
Q 25.25 34.859375 21.53125 33.890625 
L 22.515625 41.609375 
Q 23.390625 41.5 23.921875 41.5 
Q 29.546875 41.5 34.03125 44.421875 
Q 38.53125 47.359375 38.53125 53.46875 
Q 38.53125 58.296875 35.25 61.46875 
Q 31.984375 64.65625 26.8125 64.65625 
Q 21.6875 64.65625 18.265625 61.421875 
Q 14.84375 58.203125 13.875 51.765625 
L 5.078125 53.328125 
Q 6.6875 62.15625 12.390625 67.015625 
Q 18.109375 71.875 26.609375 71.875 
Q 32.46875 71.875 37.390625 69.359375 
Q 42.328125 66.84375 44.9375 62.5 
Q 47.5625 58.15625 47.5625 53.265625 
Q 47.5625 48.640625 45.0625 44.828125 
Q 42.578125 41.015625 37.703125 38.765625 
Q 44.046875 37.3125 47.5625 32.6875 
Q 51.078125 28.078125 51.078125 21.140625 
Q 51.078125 11.765625 44.234375 5.25 
Q 37.40625 -1.265625 26.953125 -1.265625 
Q 17.53125 -1.265625 11.296875 4.34375 
Q 5.078125 9.96875 4.203125 18.890625 
z
" id="ArialMT-51"/>
      </defs>
      <g style="fill:#262626;" transform="translate(754.002855 655.247187)scale(0.22 -0.22)">
       <use xlink:href="#ArialMT-48"/>
       <use x="55.615234" xlink:href="#ArialMT-46"/>
       <use x="83.398438" xlink:href="#ArialMT-51"/>
       <use x="139.013672" xlink:href="#ArialMT-48"/>
      </g>
     </g>
    </g>
    <g id="xtick_7">
     <g id="line2d_7">
      <path clip-path="url(#pbea63881df)" d="M 882.342205 630 
L 882.342205 86.4 
" style="fill:none;stroke:#cccccc;stroke-linecap:round;"/>
     </g>
     <g id="text_7">
      <!-- 0.35 -->
      <g style="fill:#262626;" transform="translate(860.935174 655.247187)scale(0.22 -0.22)">
       <use xlink:href="#ArialMT-48"/>
       <use x="55.615234" xlink:href="#ArialMT-46"/>
       <use x="83.398438" xlink:href="#ArialMT-51"/>
       <use x="139.013672" xlink:href="#ArialMT-53"/>
      </g>
     </g>
    </g>
    <g id="xtick_8">
     <g id="line2d_8">
      <path clip-path="url(#pbea63881df)" d="M 989.274525 630 
L 989.274525 86.4 
" style="fill:none;stroke:#cccccc;stroke-linecap:round;"/>
     </g>
     <g id="text_8">
      <!-- 0.40 -->
      <defs>
       <path d="M 32.328125 0 
L 32.328125 17.140625 
L 1.265625 17.140625 
L 1.265625 25.203125 
L 33.9375 71.578125 
L 41.109375 71.578125 
L 41.109375 25.203125 
L 50.78125 25.203125 
L 50.78125 17.140625 
L 41.109375 17.140625 
L 41.109375 0 
z
M 32.328125 25.203125 
L 32.328125 57.46875 
L 9.90625 25.203125 
z
" id="ArialMT-52"/>
      </defs>
      <g style="fill:#262626;" transform="translate(967.867493 655.247187)scale(0.22 -0.22)">
       <use xlink:href="#ArialMT-48"/>
       <use x="55.615234" xlink:href="#ArialMT-46"/>
       <use x="83.398438" xlink:href="#ArialMT-52"/>
       <use x="139.013672" xlink:href="#ArialMT-48"/>
      </g>
     </g>
    </g>
    <g id="text_9">
     <!-- Simulation Result -->
     <defs>
      <path d="M 4.5 23 
L 13.421875 23.78125 
Q 14.0625 18.40625 16.375 14.96875 
Q 18.703125 11.53125 23.578125 9.40625 
Q 28.46875 7.28125 34.578125 7.28125 
Q 39.984375 7.28125 44.140625 8.890625 
Q 48.296875 10.5 50.3125 13.296875 
Q 52.34375 16.109375 52.34375 19.4375 
Q 52.34375 22.796875 50.390625 25.3125 
Q 48.4375 27.828125 43.953125 29.546875 
Q 41.0625 30.671875 31.203125 33.03125 
Q 21.34375 35.40625 17.390625 37.5 
Q 12.25 40.1875 9.734375 44.15625 
Q 7.234375 48.140625 7.234375 53.078125 
Q 7.234375 58.5 10.296875 63.203125 
Q 13.375 67.921875 19.28125 70.359375 
Q 25.203125 72.796875 32.421875 72.796875 
Q 40.375 72.796875 46.453125 70.234375 
Q 52.546875 67.671875 55.8125 62.6875 
Q 59.078125 57.71875 59.328125 51.421875 
L 50.25 50.734375 
Q 49.515625 57.515625 45.28125 60.984375 
Q 41.0625 64.453125 32.8125 64.453125 
Q 24.21875 64.453125 20.28125 61.296875 
Q 16.359375 58.15625 16.359375 53.71875 
Q 16.359375 49.859375 19.140625 47.359375 
Q 21.875 44.875 33.421875 42.265625 
Q 44.96875 39.65625 49.265625 37.703125 
Q 55.515625 34.8125 58.484375 30.390625 
Q 61.46875 25.984375 61.46875 20.21875 
Q 61.46875 14.5 58.203125 9.4375 
Q 54.9375 4.390625 48.796875 1.578125 
Q 42.671875 -1.21875 35.015625 -1.21875 
Q 25.296875 -1.21875 18.71875 1.609375 
Q 12.15625 4.4375 8.421875 10.125 
Q 4.6875 15.828125 4.5 23 
z
" id="ArialMT-83"/>
      <path d="M 6.640625 61.46875 
L 6.640625 71.578125 
L 15.4375 71.578125 
L 15.4375 61.46875 
z
M 6.640625 0 
L 6.640625 51.859375 
L 15.4375 51.859375 
L 15.4375 0 
z
" id="ArialMT-105"/>
      <path d="M 6.59375 0 
L 6.59375 51.859375 
L 14.453125 51.859375 
L 14.453125 44.578125 
Q 16.890625 48.390625 20.9375 50.703125 
Q 25 53.03125 30.171875 53.03125 
Q 35.9375 53.03125 39.625 50.640625 
Q 43.3125 48.25 44.828125 43.953125 
Q 50.984375 53.03125 60.84375 53.03125 
Q 68.5625 53.03125 72.703125 48.75 
Q 76.859375 44.484375 76.859375 35.59375 
L 76.859375 0 
L 68.109375 0 
L 68.109375 32.671875 
Q 68.109375 37.9375 67.25 40.25 
Q 66.40625 42.578125 64.15625 43.984375 
Q 61.921875 45.40625 58.890625 45.40625 
Q 53.421875 45.40625 49.796875 41.765625 
Q 46.1875 38.140625 46.1875 30.125 
L 46.1875 0 
L 37.40625 0 
L 37.40625 33.6875 
Q 37.40625 39.546875 35.25 42.46875 
Q 33.109375 45.40625 28.21875 45.40625 
Q 24.515625 45.40625 21.359375 43.453125 
Q 18.21875 41.5 16.796875 37.734375 
Q 15.375 33.984375 15.375 26.90625 
L 15.375 0 
z
" id="ArialMT-109"/>
      <path d="M 40.578125 0 
L 40.578125 7.625 
Q 34.515625 -1.171875 24.125 -1.171875 
Q 19.53125 -1.171875 15.546875 0.578125 
Q 11.578125 2.34375 9.640625 5 
Q 7.71875 7.671875 6.9375 11.53125 
Q 6.390625 14.109375 6.390625 19.734375 
L 6.390625 51.859375 
L 15.1875 51.859375 
L 15.1875 23.09375 
Q 15.1875 16.21875 15.71875 13.8125 
Q 16.546875 10.359375 19.234375 8.375 
Q 21.921875 6.390625 25.875 6.390625 
Q 29.828125 6.390625 33.296875 8.421875 
Q 36.765625 10.453125 38.203125 13.9375 
Q 39.65625 17.4375 39.65625 24.078125 
L 39.65625 51.859375 
L 48.4375 51.859375 
L 48.4375 0 
z
" id="ArialMT-117"/>
      <path d="M 6.390625 0 
L 6.390625 71.578125 
L 15.1875 71.578125 
L 15.1875 0 
z
" id="ArialMT-108"/>
      <path d="M 40.4375 6.390625 
Q 35.546875 2.25 31.03125 0.53125 
Q 26.515625 -1.171875 21.34375 -1.171875 
Q 12.796875 -1.171875 8.203125 3 
Q 3.609375 7.171875 3.609375 13.671875 
Q 3.609375 17.484375 5.34375 20.625 
Q 7.078125 23.78125 9.890625 25.6875 
Q 12.703125 27.59375 16.21875 28.5625 
Q 18.796875 29.25 24.03125 29.890625 
Q 34.671875 31.15625 39.703125 32.90625 
Q 39.75 34.71875 39.75 35.203125 
Q 39.75 40.578125 37.25 42.78125 
Q 33.890625 45.75 27.25 45.75 
Q 21.046875 45.75 18.09375 43.578125 
Q 15.140625 41.40625 13.71875 35.890625 
L 5.125 37.0625 
Q 6.296875 42.578125 8.984375 45.96875 
Q 11.671875 49.359375 16.75 51.1875 
Q 21.828125 53.03125 28.515625 53.03125 
Q 35.15625 53.03125 39.296875 51.46875 
Q 43.453125 49.90625 45.40625 47.53125 
Q 47.359375 45.171875 48.140625 41.546875 
Q 48.578125 39.3125 48.578125 33.453125 
L 48.578125 21.734375 
Q 48.578125 9.46875 49.140625 6.21875 
Q 49.703125 2.984375 51.375 0 
L 42.1875 0 
Q 40.828125 2.734375 40.4375 6.390625 
z
M 39.703125 26.03125 
Q 34.90625 24.078125 25.34375 22.703125 
Q 19.921875 21.921875 17.671875 20.9375 
Q 15.4375 19.96875 14.203125 18.09375 
Q 12.984375 16.21875 12.984375 13.921875 
Q 12.984375 10.40625 15.640625 8.0625 
Q 18.3125 5.71875 23.4375 5.71875 
Q 28.515625 5.71875 32.46875 7.9375 
Q 36.421875 10.15625 38.28125 14.015625 
Q 39.703125 17 39.703125 22.796875 
z
" id="ArialMT-97"/>
      <path d="M 25.78125 7.859375 
L 27.046875 0.09375 
Q 23.34375 -0.6875 20.40625 -0.6875 
Q 15.625 -0.6875 12.984375 0.828125 
Q 10.359375 2.34375 9.28125 4.8125 
Q 8.203125 7.28125 8.203125 15.1875 
L 8.203125 45.015625 
L 1.765625 45.015625 
L 1.765625 51.859375 
L 8.203125 51.859375 
L 8.203125 64.703125 
L 16.9375 69.96875 
L 16.9375 51.859375 
L 25.78125 51.859375 
L 25.78125 45.015625 
L 16.9375 45.015625 
L 16.9375 14.703125 
Q 16.9375 10.9375 17.40625 9.859375 
Q 17.875 8.796875 18.921875 8.15625 
Q 19.96875 7.515625 21.921875 7.515625 
Q 23.390625 7.515625 25.78125 7.859375 
z
" id="ArialMT-116"/>
      <path d="M 3.328125 25.921875 
Q 3.328125 40.328125 11.328125 47.265625 
Q 18.015625 53.03125 27.640625 53.03125 
Q 38.328125 53.03125 45.109375 46.015625 
Q 51.90625 39.015625 51.90625 26.65625 
Q 51.90625 16.65625 48.90625 10.90625 
Q 45.90625 5.171875 40.15625 2 
Q 34.421875 -1.171875 27.640625 -1.171875 
Q 16.75 -1.171875 10.03125 5.8125 
Q 3.328125 12.796875 3.328125 25.921875 
z
M 12.359375 25.921875 
Q 12.359375 15.96875 16.703125 11.015625 
Q 21.046875 6.0625 27.640625 6.0625 
Q 34.1875 6.0625 38.53125 11.03125 
Q 42.875 16.015625 42.875 26.21875 
Q 42.875 35.84375 38.5 40.796875 
Q 34.125 45.75 27.640625 45.75 
Q 21.046875 45.75 16.703125 40.8125 
Q 12.359375 35.890625 12.359375 25.921875 
z
" id="ArialMT-111"/>
      <path d="M 6.59375 0 
L 6.59375 51.859375 
L 14.5 51.859375 
L 14.5 44.484375 
Q 20.21875 53.03125 31 53.03125 
Q 35.6875 53.03125 39.625 51.34375 
Q 43.5625 49.65625 45.515625 46.921875 
Q 47.46875 44.1875 48.25 40.4375 
Q 48.734375 37.984375 48.734375 31.890625 
L 48.734375 0 
L 39.9375 0 
L 39.9375 31.546875 
Q 39.9375 36.921875 38.90625 39.578125 
Q 37.890625 42.234375 35.28125 43.8125 
Q 32.671875 45.40625 29.15625 45.40625 
Q 23.53125 45.40625 19.453125 41.84375 
Q 15.375 38.28125 15.375 28.328125 
L 15.375 0 
z
" id="ArialMT-110"/>
      <path id="ArialMT-32"/>
      <path d="M 7.859375 0 
L 7.859375 71.578125 
L 39.59375 71.578125 
Q 49.171875 71.578125 54.140625 69.640625 
Q 59.125 67.71875 62.109375 62.828125 
Q 65.09375 57.953125 65.09375 52.046875 
Q 65.09375 44.4375 60.15625 39.203125 
Q 55.21875 33.984375 44.921875 32.5625 
Q 48.6875 30.765625 50.640625 29 
Q 54.78125 25.203125 58.5 19.484375 
L 70.953125 0 
L 59.03125 0 
L 49.5625 14.890625 
Q 45.40625 21.34375 42.71875 24.75 
Q 40.046875 28.171875 37.921875 29.53125 
Q 35.796875 30.90625 33.59375 31.453125 
Q 31.984375 31.78125 28.328125 31.78125 
L 17.328125 31.78125 
L 17.328125 0 
z
M 17.328125 39.984375 
L 37.703125 39.984375 
Q 44.1875 39.984375 47.84375 41.328125 
Q 51.515625 42.671875 53.421875 45.625 
Q 55.328125 48.578125 55.328125 52.046875 
Q 55.328125 57.125 51.640625 60.390625 
Q 47.953125 63.671875 39.984375 63.671875 
L 17.328125 63.671875 
z
" id="ArialMT-82"/>
      <path d="M 42.09375 16.703125 
L 51.171875 15.578125 
Q 49.03125 7.625 43.21875 3.21875 
Q 37.40625 -1.171875 28.375 -1.171875 
Q 17 -1.171875 10.328125 5.828125 
Q 3.65625 12.84375 3.65625 25.484375 
Q 3.65625 38.578125 10.390625 45.796875 
Q 17.140625 53.03125 27.875 53.03125 
Q 38.28125 53.03125 44.875 45.953125 
Q 51.46875 38.875 51.46875 26.03125 
Q 51.46875 25.25 51.421875 23.6875 
L 12.75 23.6875 
Q 13.234375 15.140625 17.578125 10.59375 
Q 21.921875 6.0625 28.421875 6.0625 
Q 33.25 6.0625 36.671875 8.59375 
Q 40.09375 11.140625 42.09375 16.703125 
z
M 13.234375 30.90625 
L 42.1875 30.90625 
Q 41.609375 37.453125 38.875 40.71875 
Q 34.671875 45.796875 27.984375 45.796875 
Q 21.921875 45.796875 17.796875 41.75 
Q 13.671875 37.703125 13.234375 30.90625 
z
" id="ArialMT-101"/>
      <path d="M 3.078125 15.484375 
L 11.765625 16.84375 
Q 12.5 11.625 15.84375 8.84375 
Q 19.1875 6.0625 25.203125 6.0625 
Q 31.25 6.0625 34.171875 8.515625 
Q 37.109375 10.984375 37.109375 14.3125 
Q 37.109375 17.28125 34.515625 19 
Q 32.71875 20.171875 25.53125 21.96875 
Q 15.875 24.421875 12.140625 26.203125 
Q 8.40625 27.984375 6.46875 31.125 
Q 4.546875 34.28125 4.546875 38.09375 
Q 4.546875 41.546875 6.125 44.5 
Q 7.71875 47.46875 10.453125 49.421875 
Q 12.5 50.921875 16.03125 51.96875 
Q 19.578125 53.03125 23.640625 53.03125 
Q 29.734375 53.03125 34.34375 51.265625 
Q 38.96875 49.515625 41.15625 46.5 
Q 43.359375 43.5 44.1875 38.484375 
L 35.59375 37.3125 
Q 35.015625 41.3125 32.203125 43.546875 
Q 29.390625 45.796875 24.265625 45.796875 
Q 18.21875 45.796875 15.625 43.796875 
Q 13.03125 41.796875 13.03125 39.109375 
Q 13.03125 37.40625 14.109375 36.03125 
Q 15.1875 34.625 17.484375 33.6875 
Q 18.796875 33.203125 25.25 31.453125 
Q 34.578125 28.953125 38.25 27.359375 
Q 41.9375 25.78125 44.03125 22.75 
Q 46.140625 19.734375 46.140625 15.234375 
Q 46.140625 10.84375 43.578125 6.953125 
Q 41.015625 3.078125 36.171875 0.953125 
Q 31.34375 -1.171875 25.25 -1.171875 
Q 15.140625 -1.171875 9.84375 3.03125 
Q 4.546875 7.234375 3.078125 15.484375 
z
" id="ArialMT-115"/>
     </defs>
     <g style="fill:#262626;" transform="translate(497.02875 680.798437)scale(0.24 -0.24)">
      <use xlink:href="#ArialMT-83"/>
      <use x="66.699219" xlink:href="#ArialMT-105"/>
      <use x="88.916016" xlink:href="#ArialMT-109"/>
      <use x="172.216797" xlink:href="#ArialMT-117"/>
      <use x="227.832031" xlink:href="#ArialMT-108"/>
      <use x="250.048828" xlink:href="#ArialMT-97"/>
      <use x="305.664062" xlink:href="#ArialMT-116"/>
      <use x="333.447266" xlink:href="#ArialMT-105"/>
      <use x="355.664062" xlink:href="#ArialMT-111"/>
      <use x="411.279297" xlink:href="#ArialMT-110"/>
      <use x="466.894531" xlink:href="#ArialMT-32"/>
      <use x="494.677734" xlink:href="#ArialMT-82"/>
      <use x="566.894531" xlink:href="#ArialMT-101"/>
      <use x="622.509766" xlink:href="#ArialMT-115"/>
      <use x="672.509766" xlink:href="#ArialMT-117"/>
      <use x="728.125" xlink:href="#ArialMT-108"/>
      <use x="750.341797" xlink:href="#ArialMT-116"/>
     </g>
    </g>
   </g>
   <g id="matplotlib.axis_2">
    <g id="ytick_1">
     <g id="line2d_9">
      <path clip-path="url(#pbea63881df)" d="M 144 551.619701 
L 1036.8 551.619701 
" style="fill:none;stroke:#cccccc;stroke-linecap:round;"/>
     </g>
     <g id="text_10">
      <!-- 0.0 -->
      <g style="fill:#262626;" transform="translate(103.92 559.493295)scale(0.22 -0.22)">
       <use xlink:href="#ArialMT-48"/>
       <use x="55.615234" xlink:href="#ArialMT-46"/>
       <use x="83.398438" xlink:href="#ArialMT-48"/>
      </g>
     </g>
    </g>
    <g id="ytick_2">
     <g id="line2d_10">
      <path clip-path="url(#pbea63881df)" d="M 144 465.215219 
L 1036.8 465.215219 
" style="fill:none;stroke:#cccccc;stroke-linecap:round;"/>
     </g>
     <g id="text_11">
      <!-- 0.1 -->
      <g style="fill:#262626;" transform="translate(103.92 473.088812)scale(0.22 -0.22)">
       <use xlink:href="#ArialMT-48"/>
       <use x="55.615234" xlink:href="#ArialMT-46"/>
       <use x="83.398438" xlink:href="#ArialMT-49"/>
      </g>
     </g>
    </g>
    <g id="ytick_3">
     <g id="line2d_11">
      <path clip-path="url(#pbea63881df)" d="M 144 378.810736 
L 1036.8 378.810736 
" style="fill:none;stroke:#cccccc;stroke-linecap:round;"/>
     </g>
     <g id="text_12">
      <!-- 0.2 -->
      <g style="fill:#262626;" transform="translate(103.92 386.68433)scale(0.22 -0.22)">
       <use xlink:href="#ArialMT-48"/>
       <use x="55.615234" xlink:href="#ArialMT-46"/>
       <use x="83.398438" xlink:href="#ArialMT-50"/>
      </g>
     </g>
    </g>
    <g id="ytick_4">
     <g id="line2d_12">
      <path clip-path="url(#pbea63881df)" d="M 144 292.406254 
L 1036.8 292.406254 
" style="fill:none;stroke:#cccccc;stroke-linecap:round;"/>
     </g>
     <g id="text_13">
      <!-- 0.3 -->
      <g style="fill:#262626;" transform="translate(103.92 300.279848)scale(0.22 -0.22)">
       <use xlink:href="#ArialMT-48"/>
       <use x="55.615234" xlink:href="#ArialMT-46"/>
       <use x="83.398438" xlink:href="#ArialMT-51"/>
      </g>
     </g>
    </g>
    <g id="ytick_5">
     <g id="line2d_13">
      <path clip-path="url(#pbea63881df)" d="M 144 206.001772 
L 1036.8 206.001772 
" style="fill:none;stroke:#cccccc;stroke-linecap:round;"/>
     </g>
     <g id="text_14">
      <!-- 0.4 -->
      <g style="fill:#262626;" transform="translate(103.92 213.875365)scale(0.22 -0.22)">
       <use xlink:href="#ArialMT-48"/>
       <use x="55.615234" xlink:href="#ArialMT-46"/>
       <use x="83.398438" xlink:href="#ArialMT-52"/>
      </g>
     </g>
    </g>
    <g id="ytick_6">
     <g id="line2d_14">
      <path clip-path="url(#pbea63881df)" d="M 144 119.597289 
L 1036.8 119.597289 
" style="fill:none;stroke:#cccccc;stroke-linecap:round;"/>
     </g>
     <g id="text_15">
      <!-- 0.5 -->
      <g style="fill:#262626;" transform="translate(103.92 127.470883)scale(0.22 -0.22)">
       <use xlink:href="#ArialMT-48"/>
       <use x="55.615234" xlink:href="#ArialMT-46"/>
       <use x="83.398438" xlink:href="#ArialMT-53"/>
      </g>
     </g>
    </g>
    <g id="text_16">
     <!-- Predicted -->
     <defs>
      <path d="M 7.71875 0 
L 7.71875 71.578125 
L 34.71875 71.578125 
Q 41.84375 71.578125 45.609375 70.90625 
Q 50.875 70.015625 54.4375 67.546875 
Q 58.015625 65.09375 60.1875 60.640625 
Q 62.359375 56.203125 62.359375 50.875 
Q 62.359375 41.75 56.546875 35.421875 
Q 50.734375 29.109375 35.546875 29.109375 
L 17.1875 29.109375 
L 17.1875 0 
z
M 17.1875 37.546875 
L 35.6875 37.546875 
Q 44.875 37.546875 48.734375 40.96875 
Q 52.59375 44.390625 52.59375 50.59375 
Q 52.59375 55.078125 50.3125 58.265625 
Q 48.046875 61.46875 44.34375 62.5 
Q 41.9375 63.140625 35.5 63.140625 
L 17.1875 63.140625 
z
" id="ArialMT-80"/>
      <path d="M 6.5 0 
L 6.5 51.859375 
L 14.40625 51.859375 
L 14.40625 44 
Q 17.4375 49.515625 20 51.265625 
Q 22.5625 53.03125 25.640625 53.03125 
Q 30.078125 53.03125 34.671875 50.203125 
L 31.640625 42.046875 
Q 28.421875 43.953125 25.203125 43.953125 
Q 22.3125 43.953125 20.015625 42.21875 
Q 17.71875 40.484375 16.75 37.40625 
Q 15.28125 32.71875 15.28125 27.15625 
L 15.28125 0 
z
" id="ArialMT-114"/>
      <path d="M 40.234375 0 
L 40.234375 6.546875 
Q 35.296875 -1.171875 25.734375 -1.171875 
Q 19.53125 -1.171875 14.328125 2.25 
Q 9.125 5.671875 6.265625 11.796875 
Q 3.421875 17.921875 3.421875 25.875 
Q 3.421875 33.640625 6 39.96875 
Q 8.59375 46.296875 13.765625 49.65625 
Q 18.953125 53.03125 25.34375 53.03125 
Q 30.03125 53.03125 33.6875 51.046875 
Q 37.359375 49.078125 39.65625 45.90625 
L 39.65625 71.578125 
L 48.390625 71.578125 
L 48.390625 0 
z
M 12.453125 25.875 
Q 12.453125 15.921875 16.640625 10.984375 
Q 20.84375 6.0625 26.5625 6.0625 
Q 32.328125 6.0625 36.34375 10.765625 
Q 40.375 15.484375 40.375 25.140625 
Q 40.375 35.796875 36.265625 40.765625 
Q 32.171875 45.75 26.171875 45.75 
Q 20.3125 45.75 16.375 40.96875 
Q 12.453125 36.1875 12.453125 25.875 
z
" id="ArialMT-100"/>
      <path d="M 40.4375 19 
L 49.078125 17.875 
Q 47.65625 8.9375 41.8125 3.875 
Q 35.984375 -1.171875 27.484375 -1.171875 
Q 16.84375 -1.171875 10.375 5.78125 
Q 3.90625 12.75 3.90625 25.734375 
Q 3.90625 34.125 6.6875 40.421875 
Q 9.46875 46.734375 15.15625 49.875 
Q 20.84375 53.03125 27.546875 53.03125 
Q 35.984375 53.03125 41.359375 48.75 
Q 46.734375 44.484375 48.25 36.625 
L 39.703125 35.296875 
Q 38.484375 40.53125 35.375 43.15625 
Q 32.28125 45.796875 27.875 45.796875 
Q 21.234375 45.796875 17.078125 41.03125 
Q 12.9375 36.28125 12.9375 25.984375 
Q 12.9375 15.53125 16.9375 10.796875 
Q 20.953125 6.0625 27.390625 6.0625 
Q 32.5625 6.0625 36.03125 9.234375 
Q 39.5 12.40625 40.4375 19 
z
" id="ArialMT-99"/>
     </defs>
     <g style="fill:#262626;" transform="translate(95.15 408.8925)rotate(-90)scale(0.24 -0.24)">
      <use xlink:href="#ArialMT-80"/>
      <use x="66.699219" xlink:href="#ArialMT-114"/>
      <use x="100" xlink:href="#ArialMT-101"/>
      <use x="155.615234" xlink:href="#ArialMT-100"/>
      <use x="211.230469" xlink:href="#ArialMT-105"/>
      <use x="233.447266" xlink:href="#ArialMT-99"/>
      <use x="283.447266" xlink:href="#ArialMT-116"/>
      <use x="311.230469" xlink:href="#ArialMT-101"/>
      <use x="366.845703" xlink:href="#ArialMT-100"/>
     </g>
    </g>
   </g>
   <g id="LineCollection_1">
    <path clip-path="url(#pbea63881df)" d="M 366.198599 562.493107 
L 366.198599 383.841906 
" style="fill:none;stroke:#64b5cd;stroke-width:0.5;"/>
    <path clip-path="url(#pbea63881df)" d="M 225.472243 579.789616 
L 225.472243 405.204903 
" style="fill:none;stroke:#64b5cd;stroke-width:0.5;"/>
    <path clip-path="url(#pbea63881df)" d="M 182.826616 572.167616 
L 182.826616 397.227754 
" style="fill:none;stroke:#64b5cd;stroke-width:0.5;"/>
    <path clip-path="url(#pbea63881df)" d="M 742.902461 450.283904 
L 742.902461 265.190091 
" style="fill:none;stroke:#64b5cd;stroke-width:0.5;"/>
    <path clip-path="url(#pbea63881df)" d="M 231.862795 565.884904 
L 231.862795 391.385742 
" style="fill:none;stroke:#64b5cd;stroke-width:0.5;"/>
    <path clip-path="url(#pbea63881df)" d="M 160.465769 604.376717 
L 160.465769 425.511972 
" style="fill:none;stroke:#64b5cd;stroke-width:0.5;"/>
    <path clip-path="url(#pbea63881df)" d="M 436.753196 458.804444 
L 436.753196 271.375301 
" style="fill:none;stroke:#64b5cd;stroke-width:0.5;"/>
    <path clip-path="url(#pbea63881df)" d="M 504.514677 475.175044 
L 504.514677 294.088495 
" style="fill:none;stroke:#64b5cd;stroke-width:0.5;"/>
    <path clip-path="url(#pbea63881df)" d="M 733.825095 472.939139 
L 733.825095 295.523121 
" style="fill:none;stroke:#64b5cd;stroke-width:0.5;"/>
    <path clip-path="url(#pbea63881df)" d="M 351.901621 597.096564 
L 351.901621 424.463459 
" style="fill:none;stroke:#64b5cd;stroke-width:0.5;"/>
    <path clip-path="url(#pbea63881df)" d="M 725.35646 447.827693 
L 725.35646 244.644484 
" style="fill:none;stroke:#64b5cd;stroke-width:0.5;"/>
    <path clip-path="url(#pbea63881df)" d="M 830.856274 399.230352 
L 830.856274 217.607118 
" style="fill:none;stroke:#64b5cd;stroke-width:0.5;"/>
    <path clip-path="url(#pbea63881df)" d="M 404.711179 504.81912 
L 404.711179 326.084691 
" style="fill:none;stroke:#64b5cd;stroke-width:0.5;"/>
    <path clip-path="url(#pbea63881df)" d="M 718.379316 401.785075 
L 718.379316 213.392987 
" style="fill:none;stroke:#64b5cd;stroke-width:0.5;"/>
    <path clip-path="url(#pbea63881df)" d="M 841.21439 420.182716 
L 841.21439 239.278079 
" style="fill:none;stroke:#64b5cd;stroke-width:0.5;"/>
    <path clip-path="url(#pbea63881df)" d="M 497.531342 475.142586 
L 497.531342 284.366464 
" style="fill:none;stroke:#64b5cd;stroke-width:0.5;"/>
    <path clip-path="url(#pbea63881df)" d="M 535.622261 505.044951 
L 535.622261 324.442142 
" style="fill:none;stroke:#64b5cd;stroke-width:0.5;"/>
    <path clip-path="url(#pbea63881df)" d="M 488.096785 497.955573 
L 488.096785 316.596294 
" style="fill:none;stroke:#64b5cd;stroke-width:0.5;"/>
    <path clip-path="url(#pbea63881df)" d="M 523.804429 472.383779 
L 523.804429 281.857549 
" style="fill:none;stroke:#64b5cd;stroke-width:0.5;"/>
    <path clip-path="url(#pbea63881df)" d="M 696.273429 364.953548 
L 696.273429 178.83319 
" style="fill:none;stroke:#64b5cd;stroke-width:0.5;"/>
    <path clip-path="url(#pbea63881df)" d="M 787.291255 455.736484 
L 787.291255 272.522123 
" style="fill:none;stroke:#64b5cd;stroke-width:0.5;"/>
    <path clip-path="url(#pbea63881df)" d="M 396.344418 471.848084 
L 396.344418 292.516406 
" style="fill:none;stroke:#64b5cd;stroke-width:0.5;"/>
    <path clip-path="url(#pbea63881df)" d="M 348.063193 517.284644 
L 348.063193 341.021473 
" style="fill:none;stroke:#64b5cd;stroke-width:0.5;"/>
    <path clip-path="url(#pbea63881df)" d="M 256.024335 572.634865 
L 256.024335 398.2323 
" style="fill:none;stroke:#64b5cd;stroke-width:0.5;"/>
    <path clip-path="url(#pbea63881df)" d="M 374.113317 551.991769 
L 374.113317 376.030178 
" style="fill:none;stroke:#64b5cd;stroke-width:0.5;"/>
    <path clip-path="url(#pbea63881df)" d="M 610.032777 469.649425 
L 610.032777 288.283074 
" style="fill:none;stroke:#64b5cd;stroke-width:0.5;"/>
    <path clip-path="url(#pbea63881df)" d="M 490.257034 484.443669 
L 490.257034 290.738016 
" style="fill:none;stroke:#64b5cd;stroke-width:0.5;"/>
    <path clip-path="url(#pbea63881df)" d="M 290.302291 560.287429 
L 290.302291 377.12303 
" style="fill:none;stroke:#64b5cd;stroke-width:0.5;"/>
    <path clip-path="url(#pbea63881df)" d="M 309.294648 581.651434 
L 309.294648 410.467711 
" style="fill:none;stroke:#64b5cd;stroke-width:0.5;"/>
    <path clip-path="url(#pbea63881df)" d="M 806.598479 433.032014 
L 806.598479 253.543631 
" style="fill:none;stroke:#64b5cd;stroke-width:0.5;"/>
    <path clip-path="url(#pbea63881df)" d="M 290.650038 583.538479 
L 290.650038 397.996234 
" style="fill:none;stroke:#64b5cd;stroke-width:0.5;"/>
    <path clip-path="url(#pbea63881df)" d="M 411.047909 452.977597 
L 411.047909 277.7161 
" style="fill:none;stroke:#64b5cd;stroke-width:0.5;"/>
    <path clip-path="url(#pbea63881df)" d="M 182.592115 597.50258 
L 182.592115 420.469726 
" style="fill:none;stroke:#64b5cd;stroke-width:0.5;"/>
    <path clip-path="url(#pbea63881df)" d="M 454.612928 490.595428 
L 454.612928 307.535706 
" style="fill:none;stroke:#64b5cd;stroke-width:0.5;"/>
    <path clip-path="url(#pbea63881df)" d="M 366.277533 535.032262 
L 366.277533 360.212152 
" style="fill:none;stroke:#64b5cd;stroke-width:0.5;"/>
    <path clip-path="url(#pbea63881df)" d="M 274.576135 569.407931 
L 274.576135 391.854487 
" style="fill:none;stroke:#64b5cd;stroke-width:0.5;"/>
    <path clip-path="url(#pbea63881df)" d="M 219.361825 544.711428 
L 219.361825 371.354364 
" style="fill:none;stroke:#64b5cd;stroke-width:0.5;"/>
    <path clip-path="url(#pbea63881df)" d="M 401.734308 577.576289 
L 401.734308 406.522232 
" style="fill:none;stroke:#64b5cd;stroke-width:0.5;"/>
    <path clip-path="url(#pbea63881df)" d="M 265.424978 562.733931 
L 265.424978 373.495892 
" style="fill:none;stroke:#64b5cd;stroke-width:0.5;"/>
    <path clip-path="url(#pbea63881df)" d="M 811.053992 386.840771 
L 811.053992 199.682471 
" style="fill:none;stroke:#64b5cd;stroke-width:0.5;"/>
    <path clip-path="url(#pbea63881df)" d="M 315.057189 589.830372 
L 315.057189 411.786715 
" style="fill:none;stroke:#64b5cd;stroke-width:0.5;"/>
    <path clip-path="url(#pbea63881df)" d="M 627.349751 419.134986 
L 627.349751 213.025132 
" style="fill:none;stroke:#64b5cd;stroke-width:0.5;"/>
    <path clip-path="url(#pbea63881df)" d="M 556.453232 457.090541 
L 556.453232 282.091671 
" style="fill:none;stroke:#64b5cd;stroke-width:0.5;"/>
    <path clip-path="url(#pbea63881df)" d="M 425.071314 533.485552 
L 425.071314 356.920663 
" style="fill:none;stroke:#64b5cd;stroke-width:0.5;"/>
    <path clip-path="url(#pbea63881df)" d="M 327.312548 536.006142 
L 327.312548 354.966965 
" style="fill:none;stroke:#64b5cd;stroke-width:0.5;"/>
    <path clip-path="url(#pbea63881df)" d="M 429.152852 508.264229 
L 429.152852 332.742901 
" style="fill:none;stroke:#64b5cd;stroke-width:0.5;"/>
    <path clip-path="url(#pbea63881df)" d="M 848.700577 423.802539 
L 848.700577 237.314908 
" style="fill:none;stroke:#64b5cd;stroke-width:0.5;"/>
    <path clip-path="url(#pbea63881df)" d="M 601.14981 474.136494 
L 601.14981 296.507134 
" style="fill:none;stroke:#64b5cd;stroke-width:0.5;"/>
    <path clip-path="url(#pbea63881df)" d="M 604.318175 408.968957 
L 604.318175 223.443588 
" style="fill:none;stroke:#64b5cd;stroke-width:0.5;"/>
    <path clip-path="url(#pbea63881df)" d="M 283.521217 572.389124 
L 283.521217 401.008534 
" style="fill:none;stroke:#64b5cd;stroke-width:0.5;"/>
    <path clip-path="url(#pbea63881df)" d="M 284.506501 556.787511 
L 284.506501 378.926864 
" style="fill:none;stroke:#64b5cd;stroke-width:0.5;"/>
    <path clip-path="url(#pbea63881df)" d="M 531.583534 463.648985 
L 531.583534 285.247511 
" style="fill:none;stroke:#64b5cd;stroke-width:0.5;"/>
    <path clip-path="url(#pbea63881df)" d="M 212.233004 574.35221 
L 212.233004 397.246646 
" style="fill:none;stroke:#64b5cd;stroke-width:0.5;"/>
    <path clip-path="url(#pbea63881df)" d="M 735.805323 487.732066 
L 735.805323 308.725803 
" style="fill:none;stroke:#64b5cd;stroke-width:0.5;"/>
    <path clip-path="url(#pbea63881df)" d="M 347.680608 558.231236 
L 347.680608 381.929975 
" style="fill:none;stroke:#64b5cd;stroke-width:0.5;"/>
    <path clip-path="url(#pbea63881df)" d="M 369.067072 577.137405 
L 369.067072 399.713567 
" style="fill:none;stroke:#64b5cd;stroke-width:0.5;"/>
    <path clip-path="url(#pbea63881df)" d="M 271.639848 582.744259 
L 271.639848 404.380963 
" style="fill:none;stroke:#64b5cd;stroke-width:0.5;"/>
    <path clip-path="url(#pbea63881df)" d="M 220.586825 589.054348 
L 220.586825 407.493962 
" style="fill:none;stroke:#64b5cd;stroke-width:0.5;"/>
    <path clip-path="url(#pbea63881df)" d="M 451.961713 535.54278 
L 451.961713 356.610672 
" style="fill:none;stroke:#64b5cd;stroke-width:0.5;"/>
    <path clip-path="url(#pbea63881df)" d="M 686.799304 450.600862 
L 686.799304 269.521148 
" style="fill:none;stroke:#64b5cd;stroke-width:0.5;"/>
    <path clip-path="url(#pbea63881df)" d="M 459.62538 451.001851 
L 459.62538 269.944606 
" style="fill:none;stroke:#64b5cd;stroke-width:0.5;"/>
    <path clip-path="url(#pbea63881df)" d="M 457.308701 492.7649 
L 457.308701 319.674601 
" style="fill:none;stroke:#64b5cd;stroke-width:0.5;"/>
    <path clip-path="url(#pbea63881df)" d="M 500.950266 462.993985 
L 500.950266 273.425157 
" style="fill:none;stroke:#64b5cd;stroke-width:0.5;"/>
    <path clip-path="url(#pbea63881df)" d="M 536.384701 485.346471 
L 536.384701 299.767714 
" style="fill:none;stroke:#64b5cd;stroke-width:0.5;"/>
    <path clip-path="url(#pbea63881df)" d="M 629.355986 441.509365 
L 629.355986 259.298115 
" style="fill:none;stroke:#64b5cd;stroke-width:0.5;"/>
    <path clip-path="url(#pbea63881df)" d="M 302.656474 591.196151 
L 302.656474 419.104167 
" style="fill:none;stroke:#64b5cd;stroke-width:0.5;"/>
    <path clip-path="url(#pbea63881df)" d="M 376.195894 573.610033 
L 376.195894 398.781255 
" style="fill:none;stroke:#64b5cd;stroke-width:0.5;"/>
    <path clip-path="url(#pbea63881df)" d="M 456.989202 479.057951 
L 456.989202 293.303788 
" style="fill:none;stroke:#64b5cd;stroke-width:0.5;"/>
    <path clip-path="url(#pbea63881df)" d="M 475.089329 470.672384 
L 475.089329 275.898044 
" style="fill:none;stroke:#64b5cd;stroke-width:0.5;"/>
    <path clip-path="url(#pbea63881df)" d="M 860.064639 339.66526 
L 860.064639 144.052391 
" style="fill:none;stroke:#64b5cd;stroke-width:0.5;"/>
    <path clip-path="url(#pbea63881df)" d="M 740.547939 419.730408 
L 740.547939 242.812498 
" style="fill:none;stroke:#64b5cd;stroke-width:0.5;"/>
    <path clip-path="url(#pbea63881df)" d="M 564.948928 448.006055 
L 564.948928 261.554095 
" style="fill:none;stroke:#64b5cd;stroke-width:0.5;"/>
    <path clip-path="url(#pbea63881df)" d="M 455.482296 477.043296 
L 455.482296 299.898983 
" style="fill:none;stroke:#64b5cd;stroke-width:0.5;"/>
    <path clip-path="url(#pbea63881df)" d="M 372.006444 558.651877 
L 372.006444 385.364703 
" style="fill:none;stroke:#64b5cd;stroke-width:0.5;"/>
    <path clip-path="url(#pbea63881df)" d="M 266.208365 600.33642 
L 266.208365 423.348215 
" style="fill:none;stroke:#64b5cd;stroke-width:0.5;"/>
    <path clip-path="url(#pbea63881df)" d="M 883.122733 389.341412 
L 883.122733 193.326994 
" style="fill:none;stroke:#64b5cd;stroke-width:0.5;"/>
    <path clip-path="url(#pbea63881df)" d="M 759.93284 441.431996 
L 759.93284 243.376545 
" style="fill:none;stroke:#64b5cd;stroke-width:0.5;"/>
    <path clip-path="url(#pbea63881df)" d="M 541.650862 445.691443 
L 541.650862 265.562627 
" style="fill:none;stroke:#64b5cd;stroke-width:0.5;"/>
    <path clip-path="url(#pbea63881df)" d="M 771.402201 403.130714 
L 771.402201 188.709959 
" style="fill:none;stroke:#64b5cd;stroke-width:0.5;"/>
    <path clip-path="url(#pbea63881df)" d="M 408.831012 513.040668 
L 408.831012 335.172345 
" style="fill:none;stroke:#64b5cd;stroke-width:0.5;"/>
    <path clip-path="url(#pbea63881df)" d="M 328.670418 565.277365 
L 328.670418 391.75251 
" style="fill:none;stroke:#64b5cd;stroke-width:0.5;"/>
    <path clip-path="url(#pbea63881df)" d="M 340.249019 546.912526 
L 340.249019 365.925537 
" style="fill:none;stroke:#64b5cd;stroke-width:0.5;"/>
    <path clip-path="url(#pbea63881df)" d="M 604.318175 413.36263 
L 604.318175 235.988728 
" style="fill:none;stroke:#64b5cd;stroke-width:0.5;"/>
    <path clip-path="url(#pbea63881df)" d="M 762.448393 431.48823 
L 762.448393 239.922541 
" style="fill:none;stroke:#64b5cd;stroke-width:0.5;"/>
    <path clip-path="url(#pbea63881df)" d="M 323.917871 557.443833 
L 323.917871 385.452497 
" style="fill:none;stroke:#64b5cd;stroke-width:0.5;"/>
    <path clip-path="url(#pbea63881df)" d="M 210.072405 587.067922 
L 210.072405 409.744417 
" style="fill:none;stroke:#64b5cd;stroke-width:0.5;"/>
    <path clip-path="url(#pbea63881df)" d="M 383.324715 474.742886 
L 383.324715 298.847742 
" style="fill:none;stroke:#64b5cd;stroke-width:0.5;"/>
    <path clip-path="url(#pbea63881df)" d="M 832.068055 428.425184 
L 832.068055 252.741552 
" style="fill:none;stroke:#64b5cd;stroke-width:0.5;"/>
    <path clip-path="url(#pbea63881df)" d="M 601.952852 481.932812 
L 601.952852 306.976772 
" style="fill:none;stroke:#64b5cd;stroke-width:0.5;"/>
    <path clip-path="url(#pbea63881df)" d="M 252.629658 592.605707 
L 252.629658 412.161188 
" style="fill:none;stroke:#64b5cd;stroke-width:0.5;"/>
    <path clip-path="url(#pbea63881df)" d="M 430.85019 572.307116 
L 430.85019 398.461168 
" style="fill:none;stroke:#64b5cd;stroke-width:0.5;"/>
    <path clip-path="url(#pbea63881df)" d="M 264.661424 571.763788 
L 264.661424 399.117942 
" style="fill:none;stroke:#64b5cd;stroke-width:0.5;"/>
    <path clip-path="url(#pbea63881df)" d="M 347.680608 559.11225 
L 347.680608 384.736543 
" style="fill:none;stroke:#64b5cd;stroke-width:0.5;"/>
    <path clip-path="url(#pbea63881df)" d="M 637.666559 436.301945 
L 637.666559 255.710779 
" style="fill:none;stroke:#64b5cd;stroke-width:0.5;"/>
    <path clip-path="url(#pbea63881df)" d="M 521.940684 455.49071 
L 521.940684 270.042732 
" style="fill:none;stroke:#64b5cd;stroke-width:0.5;"/>
    <path clip-path="url(#pbea63881df)" d="M 1036.8 396.178793 
L 1036.8 220.782139 
" style="fill:none;stroke:#64b5cd;stroke-width:0.5;"/>
    <path clip-path="url(#pbea63881df)" d="M 213.409605 596.003327 
L 213.409605 422.361412 
" style="fill:none;stroke:#64b5cd;stroke-width:0.5;"/>
    <path clip-path="url(#pbea63881df)" d="M 643.210005 452.583682 
L 643.210005 265.18812 
" style="fill:none;stroke:#64b5cd;stroke-width:0.5;"/>
    <path clip-path="url(#pbea63881df)" d="M 167.363364 580.253378 
L 167.363364 398.003823 
" style="fill:none;stroke:#64b5cd;stroke-width:0.5;"/>
    <path clip-path="url(#pbea63881df)" d="M 495.009582 524.397377 
L 495.009582 349.761429 
" style="fill:none;stroke:#64b5cd;stroke-width:0.5;"/>
    <path clip-path="url(#pbea63881df)" d="M 269.799266 578.300025 
L 269.799266 399.818877 
" style="fill:none;stroke:#64b5cd;stroke-width:0.5;"/>
    <path clip-path="url(#pbea63881df)" d="M 250.377266 566.78035 
L 250.377266 394.690534 
" style="fill:none;stroke:#64b5cd;stroke-width:0.5;"/>
    <path clip-path="url(#pbea63881df)" d="M 672.037231 388.759828 
L 672.037231 192.466433 
" style="fill:none;stroke:#64b5cd;stroke-width:0.5;"/>
    <path clip-path="url(#pbea63881df)" d="M 707.731203 442.772941 
L 707.731203 266.567762 
" style="fill:none;stroke:#64b5cd;stroke-width:0.5;"/>
    <path clip-path="url(#pbea63881df)" d="M 364.875755 521.077053 
L 364.875755 336.878166 
" style="fill:none;stroke:#64b5cd;stroke-width:0.5;"/>
    <path clip-path="url(#pbea63881df)" d="M 949.669962 457.765111 
L 949.669962 274.548485 
" style="fill:none;stroke:#64b5cd;stroke-width:0.5;"/>
    <path clip-path="url(#pbea63881df)" d="M 483.128213 548.863382 
L 483.128213 367.598061 
" style="fill:none;stroke:#64b5cd;stroke-width:0.5;"/>
    <path clip-path="url(#pbea63881df)" d="M 268.471483 564.539265 
L 268.471483 390.913795 
" style="fill:none;stroke:#64b5cd;stroke-width:0.5;"/>
    <path clip-path="url(#pbea63881df)" d="M 268.005547 566.634236 
L 268.005547 394.413382 
" style="fill:none;stroke:#64b5cd;stroke-width:0.5;"/>
    <path clip-path="url(#pbea63881df)" d="M 913.233764 348.586855 
L 913.233764 161.588084 
" style="fill:none;stroke:#64b5cd;stroke-width:0.5;"/>
    <path clip-path="url(#pbea63881df)" d="M 596.124415 485.493924 
L 596.124415 286.551608 
" style="fill:none;stroke:#64b5cd;stroke-width:0.5;"/>
    <path clip-path="url(#pbea63881df)" d="M 322.220532 585.473687 
L 322.220532 412.877655 
" style="fill:none;stroke:#64b5cd;stroke-width:0.5;"/>
    <path clip-path="url(#pbea63881df)" d="M 760.13384 403.031934 
L 760.13384 227.542813 
" style="fill:none;stroke:#64b5cd;stroke-width:0.5;"/>
    <path clip-path="url(#pbea63881df)" d="M 300.155133 578.442669 
L 300.155133 404.754089 
" style="fill:none;stroke:#64b5cd;stroke-width:0.5;"/>
    <path clip-path="url(#pbea63881df)" d="M 437.51015 505.722396 
L 437.51015 326.89661 
" style="fill:none;stroke:#64b5cd;stroke-width:0.5;"/>
    <path clip-path="url(#pbea63881df)" d="M 607.373384 458.978896 
L 607.373384 248.121735 
" style="fill:none;stroke:#64b5cd;stroke-width:0.5;"/>
    <path clip-path="url(#pbea63881df)" d="M 776.193273 372.882399 
L 776.193273 192.647522 
" style="fill:none;stroke:#64b5cd;stroke-width:0.5;"/>
    <path clip-path="url(#pbea63881df)" d="M 323.025972 574.842407 
L 323.025972 395.435656 
" style="fill:none;stroke:#64b5cd;stroke-width:0.5;"/>
    <path clip-path="url(#pbea63881df)" d="M 456.989202 525.039546 
L 456.989202 339.20746 
" style="fill:none;stroke:#64b5cd;stroke-width:0.5;"/>
    <path clip-path="url(#pbea63881df)" d="M 444.129367 465.626648 
L 444.129367 272.557679 
" style="fill:none;stroke:#64b5cd;stroke-width:0.5;"/>
    <path clip-path="url(#pbea63881df)" d="M 703.455428 377.283144 
L 703.455428 196.317506 
" style="fill:none;stroke:#64b5cd;stroke-width:0.5;"/>
    <path clip-path="url(#pbea63881df)" d="M 508.079087 461.025764 
L 508.079087 276.432996 
" style="fill:none;stroke:#64b5cd;stroke-width:0.5;"/>
    <path clip-path="url(#pbea63881df)" d="M 495.349049 456.073564 
L 495.349049 270.146609 
" style="fill:none;stroke:#64b5cd;stroke-width:0.5;"/>
    <path clip-path="url(#pbea63881df)" d="M 316.535273 569.886272 
L 316.535273 395.021558 
" style="fill:none;stroke:#64b5cd;stroke-width:0.5;"/>
    <path clip-path="url(#pbea63881df)" d="M 556.052736 465.838892 
L 556.052736 292.823821 
" style="fill:none;stroke:#64b5cd;stroke-width:0.5;"/>
    <path clip-path="url(#pbea63881df)" d="M 704.121673 400.089721 
L 704.121673 222.50718 
" style="fill:none;stroke:#64b5cd;stroke-width:0.5;"/>
    <path clip-path="url(#pbea63881df)" d="M 312.036502 603.006285 
L 312.036502 417.97027 
" style="fill:none;stroke:#64b5cd;stroke-width:0.5;"/>
    <path clip-path="url(#pbea63881df)" d="M 620.952091 455.596464 
L 620.952091 266.404987 
" style="fill:none;stroke:#64b5cd;stroke-width:0.5;"/>
    <path clip-path="url(#pbea63881df)" d="M 250.469409 550.442312 
L 250.469409 372.854602 
" style="fill:none;stroke:#64b5cd;stroke-width:0.5;"/>
    <path clip-path="url(#pbea63881df)" d="M 463.896441 508.678648 
L 463.896441 323.86705 
" style="fill:none;stroke:#64b5cd;stroke-width:0.5;"/>
    <path clip-path="url(#pbea63881df)" d="M 911.883819 403.706448 
L 911.883819 229.284964 
" style="fill:none;stroke:#64b5cd;stroke-width:0.5;"/>
    <path clip-path="url(#pbea63881df)" d="M 349.054471 568.394554 
L 349.054471 390.845288 
" style="fill:none;stroke:#64b5cd;stroke-width:0.5;"/>
    <path clip-path="url(#pbea63881df)" d="M 580.495278 378.618336 
L 580.495278 202.928544 
" style="fill:none;stroke:#64b5cd;stroke-width:0.5;"/>
    <path clip-path="url(#pbea63881df)" d="M 316.606259 598.950909 
L 316.606259 421.319045 
" style="fill:none;stroke:#64b5cd;stroke-width:0.5;"/>
    <path clip-path="url(#pbea63881df)" d="M 343.225095 560.439983 
L 343.225095 383.669015 
" style="fill:none;stroke:#64b5cd;stroke-width:0.5;"/>
    <path clip-path="url(#pbea63881df)" d="M 718.379316 376.0255 
L 718.379316 198.839445 
" style="fill:none;stroke:#64b5cd;stroke-width:0.5;"/>
    <path clip-path="url(#pbea63881df)" d="M 305.510116 591.440419 
L 305.510116 410.214547 
" style="fill:none;stroke:#64b5cd;stroke-width:0.5;"/>
    <path clip-path="url(#pbea63881df)" d="M 360.367494 567.170464 
L 360.367494 394.707871 
" style="fill:none;stroke:#64b5cd;stroke-width:0.5;"/>
    <path clip-path="url(#pbea63881df)" d="M 514.54203 512.409819 
L 514.54203 335.548495 
" style="fill:none;stroke:#64b5cd;stroke-width:0.5;"/>
    <path clip-path="url(#pbea63881df)" d="M 336.713191 520.96031 
L 336.713191 347.606163 
" style="fill:none;stroke:#64b5cd;stroke-width:0.5;"/>
    <path clip-path="url(#pbea63881df)" d="M 515.304244 457.208032 
L 515.304244 271.12377 
" style="fill:none;stroke:#64b5cd;stroke-width:0.5;"/>
    <path clip-path="url(#pbea63881df)" d="M 250.932319 577.085677 
L 250.932319 400.098959 
" style="fill:none;stroke:#64b5cd;stroke-width:0.5;"/>
    <path clip-path="url(#pbea63881df)" d="M 794.169942 395.328455 
L 794.169942 219.298106 
" style="fill:none;stroke:#64b5cd;stroke-width:0.5;"/>
    <path clip-path="url(#pbea63881df)" d="M 490.257034 466.716853 
L 490.257034 285.510902 
" style="fill:none;stroke:#64b5cd;stroke-width:0.5;"/>
    <path clip-path="url(#pbea63881df)" d="M 523.942673 473.959231 
L 523.942673 275.833334 
" style="fill:none;stroke:#64b5cd;stroke-width:0.5;"/>
    <path clip-path="url(#pbea63881df)" d="M 387.285171 575.700096 
L 387.285171 395.110303 
" style="fill:none;stroke:#64b5cd;stroke-width:0.5;"/>
    <path clip-path="url(#pbea63881df)" d="M 673.569582 454.614081 
L 673.569582 274.090993 
" style="fill:none;stroke:#64b5cd;stroke-width:0.5;"/>
    <path clip-path="url(#pbea63881df)" d="M 289.353889 590.252863 
L 289.353889 414.034836 
" style="fill:none;stroke:#64b5cd;stroke-width:0.5;"/>
    <path clip-path="url(#pbea63881df)" d="M 229.744699 552.235624 
L 229.744699 376.90268 
" style="fill:none;stroke:#64b5cd;stroke-width:0.5;"/>
    <path clip-path="url(#pbea63881df)" d="M 214.08688 594.763622 
L 214.08688 411.483703 
" style="fill:none;stroke:#64b5cd;stroke-width:0.5;"/>
   </g>
   <g id="LineCollection_2">
    <path clip-path="url(#pbea63881df)" d="M 561.545247 420.789691 
L 561.545247 232.87728 
" style="fill:none;stroke:#8172b3;stroke-width:0.5;"/>
    <path clip-path="url(#pbea63881df)" d="M 812.056768 445.810095 
L 812.056768 268.465556 
" style="fill:none;stroke:#8172b3;stroke-width:0.5;"/>
    <path clip-path="url(#pbea63881df)" d="M 144 556.86577 
L 144 382.429855 
" style="fill:none;stroke:#8172b3;stroke-width:0.5;"/>
    <path clip-path="url(#pbea63881df)" d="M 350.177083 524.257806 
L 350.177083 342.988348 
" style="fill:none;stroke:#8172b3;stroke-width:0.5;"/>
    <path clip-path="url(#pbea63881df)" d="M 789.667529 356.092896 
L 789.667529 171.654477 
" style="fill:none;stroke:#8172b3;stroke-width:0.5;"/>
    <path clip-path="url(#pbea63881df)" d="M 517.980228 447.101157 
L 517.980228 249.394774 
" style="fill:none;stroke:#8172b3;stroke-width:0.5;"/>
    <path clip-path="url(#pbea63881df)" d="M 527.997853 460.930085 
L 527.997853 278.397474 
" style="fill:none;stroke:#8172b3;stroke-width:0.5;"/>
    <path clip-path="url(#pbea63881df)" d="M 286.018906 585.001784 
L 286.018906 405.954606 
" style="fill:none;stroke:#8172b3;stroke-width:0.5;"/>
    <path clip-path="url(#pbea63881df)" d="M 253.842042 605.290909 
L 253.842042 415.903264 
" style="fill:none;stroke:#8172b3;stroke-width:0.5;"/>
    <path clip-path="url(#pbea63881df)" d="M 250.377266 599.580037 
L 250.377266 412.723156 
" style="fill:none;stroke:#8172b3;stroke-width:0.5;"/>
    <path clip-path="url(#pbea63881df)" d="M 247.254312 582.827703 
L 247.254312 407.968482 
" style="fill:none;stroke:#8172b3;stroke-width:0.5;"/>
    <path clip-path="url(#pbea63881df)" d="M 239.50489 563.52319 
L 239.50489 390.733427 
" style="fill:none;stroke:#8172b3;stroke-width:0.5;"/>
    <path clip-path="url(#pbea63881df)" d="M 580.305303 362.71702 
L 580.305303 111.109091 
" style="fill:none;stroke:#8172b3;stroke-width:0.5;"/>
    <path clip-path="url(#pbea63881df)" d="M 442.917205 411.91693 
L 442.917205 230.028547 
" style="fill:none;stroke:#8172b3;stroke-width:0.5;"/>
    <path clip-path="url(#pbea63881df)" d="M 291.902802 543.496724 
L 291.902802 368.272728 
" style="fill:none;stroke:#8172b3;stroke-width:0.5;"/>
    <path clip-path="url(#pbea63881df)" d="M 211.713686 559.270713 
L 211.713686 379.959501 
" style="fill:none;stroke:#8172b3;stroke-width:0.5;"/>
    <path clip-path="url(#pbea63881df)" d="M 311.525841 514.310628 
L 311.525841 336.637078 
" style="fill:none;stroke:#8172b3;stroke-width:0.5;"/>
    <path clip-path="url(#pbea63881df)" d="M 998.164972 420.197486 
L 998.164972 233.829915 
" style="fill:none;stroke:#8172b3;stroke-width:0.5;"/>
    <path clip-path="url(#pbea63881df)" d="M 644.714829 503.948004 
L 644.714829 292.323396 
" style="fill:none;stroke:#8172b3;stroke-width:0.5;"/>
    <path clip-path="url(#pbea63881df)" d="M 328.543584 567.082635 
L 328.543584 391.965555 
" style="fill:none;stroke:#8172b3;stroke-width:0.5;"/>
    <path clip-path="url(#pbea63881df)" d="M 766.256147 430.708834 
L 766.256147 241.225356 
" style="fill:none;stroke:#8172b3;stroke-width:0.5;"/>
    <path clip-path="url(#pbea63881df)" d="M 423.162246 576.661062 
L 423.162246 400.979819 
" style="fill:none;stroke:#8172b3;stroke-width:0.5;"/>
    <path clip-path="url(#pbea63881df)" d="M 454.612928 548.3674 
L 454.612928 366.516462 
" style="fill:none;stroke:#8172b3;stroke-width:0.5;"/>
    <path clip-path="url(#pbea63881df)" d="M 314.03898 535.541608 
L 314.03898 359.100498 
" style="fill:none;stroke:#8172b3;stroke-width:0.5;"/>
    <path clip-path="url(#pbea63881df)" d="M 778.674995 444.822301 
L 778.674995 234.373263 
" style="fill:none;stroke:#8172b3;stroke-width:0.5;"/>
    <path clip-path="url(#pbea63881df)" d="M 535.622261 427.623223 
L 535.622261 214.398317 
" style="fill:none;stroke:#8172b3;stroke-width:0.5;"/>
    <path clip-path="url(#pbea63881df)" d="M 626.352713 458.113902 
L 626.352713 282.124369 
" style="fill:none;stroke:#8172b3;stroke-width:0.5;"/>
    <path clip-path="url(#pbea63881df)" d="M 196.193156 559.042352 
L 196.193156 381.820665 
" style="fill:none;stroke:#8172b3;stroke-width:0.5;"/>
    <path clip-path="url(#pbea63881df)" d="M 504.514677 487.69183 
L 504.514677 307.016586 
" style="fill:none;stroke:#8172b3;stroke-width:0.5;"/>
    <path clip-path="url(#pbea63881df)" d="M 205.320864 567.219483 
L 205.320864 390.315232 
" style="fill:none;stroke:#8172b3;stroke-width:0.5;"/>
    <path clip-path="url(#pbea63881df)" d="M 289.854547 578.677566 
L 289.854547 400.995268 
" style="fill:none;stroke:#8172b3;stroke-width:0.5;"/>
    <path clip-path="url(#pbea63881df)" d="M 402.438221 520.901746 
L 402.438221 345.749085 
" style="fill:none;stroke:#8172b3;stroke-width:0.5;"/>
    <path clip-path="url(#pbea63881df)" d="M 546.614246 491.223795 
L 546.614246 311.74729 
" style="fill:none;stroke:#8172b3;stroke-width:0.5;"/>
    <path clip-path="url(#pbea63881df)" d="M 418.968821 452.535504 
L 418.968821 264.76778 
" style="fill:none;stroke:#8172b3;stroke-width:0.5;"/>
    <path clip-path="url(#pbea63881df)" d="M 591.561337 464.944447 
L 591.561337 256.4492 
" style="fill:none;stroke:#8172b3;stroke-width:0.5;"/>
    <path clip-path="url(#pbea63881df)" d="M 440.474763 493.184482 
L 440.474763 307.966165 
" style="fill:none;stroke:#8172b3;stroke-width:0.5;"/>
    <path clip-path="url(#pbea63881df)" d="M 335.100335 564.271092 
L 335.100335 391.159782 
" style="fill:none;stroke:#8172b3;stroke-width:0.5;"/>
    <path clip-path="url(#pbea63881df)" d="M 517.899402 478.172057 
L 517.899402 290.71246 
" style="fill:none;stroke:#8172b3;stroke-width:0.5;"/>
    <path clip-path="url(#pbea63881df)" d="M 714.231004 461.23492 
L 714.231004 272.037314 
" style="fill:none;stroke:#8172b3;stroke-width:0.5;"/>
    <path clip-path="url(#pbea63881df)" d="M 480.777219 476.21821 
L 480.777219 299.131894 
" style="fill:none;stroke:#8172b3;stroke-width:0.5;"/>
    <path clip-path="url(#pbea63881df)" d="M 347.680608 576.092282 
L 347.680608 399.346464 
" style="fill:none;stroke:#8172b3;stroke-width:0.5;"/>
    <path clip-path="url(#pbea63881df)" d="M 454.612928 408.013188 
L 454.612928 233.702551 
" style="fill:none;stroke:#8172b3;stroke-width:0.5;"/>
    <path clip-path="url(#pbea63881df)" d="M 668.477567 500.397042 
L 668.477567 319.225841 
" style="fill:none;stroke:#8172b3;stroke-width:0.5;"/>
    <path clip-path="url(#pbea63881df)" d="M 797.687452 473.46772 
L 797.687452 296.26164 
" style="fill:none;stroke:#8172b3;stroke-width:0.5;"/>
    <path clip-path="url(#pbea63881df)" d="M 284.313308 583.29412 
L 284.313308 405.853845 
" style="fill:none;stroke:#8172b3;stroke-width:0.5;"/>
    <path clip-path="url(#pbea63881df)" d="M 237.223048 583.939149 
L 237.223048 407.240222 
" style="fill:none;stroke:#8172b3;stroke-width:0.5;"/>
    <path clip-path="url(#pbea63881df)" d="M 609.583957 408.002741 
L 609.583957 199.588203 
" style="fill:none;stroke:#8172b3;stroke-width:0.5;"/>
    <path clip-path="url(#pbea63881df)" d="M 363.522433 506.153494 
L 363.522433 188.173387 
" style="fill:none;stroke:#8172b3;stroke-width:0.5;"/>
    <path clip-path="url(#pbea63881df)" d="M 348.812167 559.310513 
L 348.812167 381.790738 
" style="fill:none;stroke:#8172b3;stroke-width:0.5;"/>
    <path clip-path="url(#pbea63881df)" d="M 490.257034 463.265294 
L 490.257034 266.571388 
" style="fill:none;stroke:#8172b3;stroke-width:0.5;"/>
   </g>
   <g id="line2d_15">
    <path clip-path="url(#pbea63881df)" d="M 144 547.505202 
L 1036.8 186.800775 
" style="fill:none;stroke:#c44e52;stroke-linecap:round;stroke-width:1.5;"/>
   </g>
   <g id="line2d_16">
    <defs>
     <path d="M 0 3 
C 0.795609 3 1.55874 2.683901 2.12132 2.12132 
C 2.683901 1.55874 3 0.795609 3 0 
C 3 -0.795609 2.683901 -1.55874 2.12132 -2.12132 
C 1.55874 -2.683901 0.795609 -3 0 -3 
C -0.795609 -3 -1.55874 -2.683901 -2.12132 -2.12132 
C -2.683901 -1.55874 -3 -0.795609 -3 0 
C -3 0.795609 -2.683901 1.55874 -2.12132 2.12132 
C -1.55874 2.683901 -0.795609 3 0 3 
z
" id="m900e3348e4" style="stroke:#64b5cd;"/>
    </defs>
    <g clip-path="url(#pbea63881df)">
     <use style="fill:#64b5cd;stroke:#64b5cd;" x="366.198599" xlink:href="#m900e3348e4" y="473.167506"/>
     <use style="fill:#64b5cd;stroke:#64b5cd;" x="225.472243" xlink:href="#m900e3348e4" y="492.497259"/>
     <use style="fill:#64b5cd;stroke:#64b5cd;" x="182.826616" xlink:href="#m900e3348e4" y="484.697685"/>
     <use style="fill:#64b5cd;stroke:#64b5cd;" x="742.902461" xlink:href="#m900e3348e4" y="357.736997"/>
     <use style="fill:#64b5cd;stroke:#64b5cd;" x="231.862795" xlink:href="#m900e3348e4" y="478.635323"/>
     <use style="fill:#64b5cd;stroke:#64b5cd;" x="160.465769" xlink:href="#m900e3348e4" y="514.944345"/>
     <use style="fill:#64b5cd;stroke:#64b5cd;" x="436.753196" xlink:href="#m900e3348e4" y="365.089872"/>
     <use style="fill:#64b5cd;stroke:#64b5cd;" x="504.514677" xlink:href="#m900e3348e4" y="384.63177"/>
     <use style="fill:#64b5cd;stroke:#64b5cd;" x="733.825095" xlink:href="#m900e3348e4" y="384.23113"/>
     <use style="fill:#64b5cd;stroke:#64b5cd;" x="351.901621" xlink:href="#m900e3348e4" y="510.780012"/>
     <use style="fill:#64b5cd;stroke:#64b5cd;" x="725.35646" xlink:href="#m900e3348e4" y="346.236089"/>
     <use style="fill:#64b5cd;stroke:#64b5cd;" x="830.856274" xlink:href="#m900e3348e4" y="308.418735"/>
     <use style="fill:#64b5cd;stroke:#64b5cd;" x="404.711179" xlink:href="#m900e3348e4" y="415.451906"/>
     <use style="fill:#64b5cd;stroke:#64b5cd;" x="718.379316" xlink:href="#m900e3348e4" y="307.589031"/>
     <use style="fill:#64b5cd;stroke:#64b5cd;" x="841.21439" xlink:href="#m900e3348e4" y="329.730397"/>
     <use style="fill:#64b5cd;stroke:#64b5cd;" x="497.531342" xlink:href="#m900e3348e4" y="379.754525"/>
     <use style="fill:#64b5cd;stroke:#64b5cd;" x="535.622261" xlink:href="#m900e3348e4" y="414.743546"/>
     <use style="fill:#64b5cd;stroke:#64b5cd;" x="488.096785" xlink:href="#m900e3348e4" y="407.275933"/>
     <use style="fill:#64b5cd;stroke:#64b5cd;" x="523.804429" xlink:href="#m900e3348e4" y="377.120664"/>
     <use style="fill:#64b5cd;stroke:#64b5cd;" x="696.273429" xlink:href="#m900e3348e4" y="271.893369"/>
     <use style="fill:#64b5cd;stroke:#64b5cd;" x="787.291255" xlink:href="#m900e3348e4" y="364.129304"/>
     <use style="fill:#64b5cd;stroke:#64b5cd;" x="396.344418" xlink:href="#m900e3348e4" y="382.182245"/>
     <use style="fill:#64b5cd;stroke:#64b5cd;" x="348.063193" xlink:href="#m900e3348e4" y="429.153058"/>
     <use style="fill:#64b5cd;stroke:#64b5cd;" x="256.024335" xlink:href="#m900e3348e4" y="485.433583"/>
     <use style="fill:#64b5cd;stroke:#64b5cd;" x="374.113317" xlink:href="#m900e3348e4" y="464.010973"/>
     <use style="fill:#64b5cd;stroke:#64b5cd;" x="610.032777" xlink:href="#m900e3348e4" y="378.966249"/>
     <use style="fill:#64b5cd;stroke:#64b5cd;" x="490.257034" xlink:href="#m900e3348e4" y="387.590842"/>
     <use style="fill:#64b5cd;stroke:#64b5cd;" x="290.302291" xlink:href="#m900e3348e4" y="468.705229"/>
     <use style="fill:#64b5cd;stroke:#64b5cd;" x="309.294648" xlink:href="#m900e3348e4" y="496.059572"/>
     <use style="fill:#64b5cd;stroke:#64b5cd;" x="806.598479" xlink:href="#m900e3348e4" y="343.287823"/>
     <use style="fill:#64b5cd;stroke:#64b5cd;" x="290.650038" xlink:href="#m900e3348e4" y="490.767357"/>
     <use style="fill:#64b5cd;stroke:#64b5cd;" x="411.047909" xlink:href="#m900e3348e4" y="365.346848"/>
     <use style="fill:#64b5cd;stroke:#64b5cd;" x="182.592115" xlink:href="#m900e3348e4" y="508.986153"/>
     <use style="fill:#64b5cd;stroke:#64b5cd;" x="454.612928" xlink:href="#m900e3348e4" y="399.065567"/>
     <use style="fill:#64b5cd;stroke:#64b5cd;" x="366.277533" xlink:href="#m900e3348e4" y="447.622207"/>
     <use style="fill:#64b5cd;stroke:#64b5cd;" x="274.576135" xlink:href="#m900e3348e4" y="480.631209"/>
     <use style="fill:#64b5cd;stroke:#64b5cd;" x="219.361825" xlink:href="#m900e3348e4" y="458.032896"/>
     <use style="fill:#64b5cd;stroke:#64b5cd;" x="401.734308" xlink:href="#m900e3348e4" y="492.049261"/>
     <use style="fill:#64b5cd;stroke:#64b5cd;" x="265.424978" xlink:href="#m900e3348e4" y="468.114911"/>
     <use style="fill:#64b5cd;stroke:#64b5cd;" x="811.053992" xlink:href="#m900e3348e4" y="293.261621"/>
     <use style="fill:#64b5cd;stroke:#64b5cd;" x="315.057189" xlink:href="#m900e3348e4" y="500.808543"/>
     <use style="fill:#64b5cd;stroke:#64b5cd;" x="627.349751" xlink:href="#m900e3348e4" y="316.080059"/>
     <use style="fill:#64b5cd;stroke:#64b5cd;" x="556.453232" xlink:href="#m900e3348e4" y="369.591106"/>
     <use style="fill:#64b5cd;stroke:#64b5cd;" x="425.071314" xlink:href="#m900e3348e4" y="445.203108"/>
     <use style="fill:#64b5cd;stroke:#64b5cd;" x="327.312548" xlink:href="#m900e3348e4" y="445.486554"/>
     <use style="fill:#64b5cd;stroke:#64b5cd;" x="429.152852" xlink:href="#m900e3348e4" y="420.503565"/>
     <use style="fill:#64b5cd;stroke:#64b5cd;" x="848.700577" xlink:href="#m900e3348e4" y="330.558723"/>
     <use style="fill:#64b5cd;stroke:#64b5cd;" x="601.14981" xlink:href="#m900e3348e4" y="385.321814"/>
     <use style="fill:#64b5cd;stroke:#64b5cd;" x="604.318175" xlink:href="#m900e3348e4" y="316.206273"/>
     <use style="fill:#64b5cd;stroke:#64b5cd;" x="283.521217" xlink:href="#m900e3348e4" y="486.698829"/>
     <use style="fill:#64b5cd;stroke:#64b5cd;" x="284.506501" xlink:href="#m900e3348e4" y="467.857188"/>
     <use style="fill:#64b5cd;stroke:#64b5cd;" x="531.583534" xlink:href="#m900e3348e4" y="374.448248"/>
     <use style="fill:#64b5cd;stroke:#64b5cd;" x="212.233004" xlink:href="#m900e3348e4" y="485.799428"/>
     <use style="fill:#64b5cd;stroke:#64b5cd;" x="735.805323" xlink:href="#m900e3348e4" y="398.228934"/>
     <use style="fill:#64b5cd;stroke:#64b5cd;" x="347.680608" xlink:href="#m900e3348e4" y="470.080606"/>
     <use style="fill:#64b5cd;stroke:#64b5cd;" x="369.067072" xlink:href="#m900e3348e4" y="488.425486"/>
     <use style="fill:#64b5cd;stroke:#64b5cd;" x="271.639848" xlink:href="#m900e3348e4" y="493.562611"/>
     <use style="fill:#64b5cd;stroke:#64b5cd;" x="220.586825" xlink:href="#m900e3348e4" y="498.274155"/>
     <use style="fill:#64b5cd;stroke:#64b5cd;" x="451.961713" xlink:href="#m900e3348e4" y="446.076726"/>
     <use style="fill:#64b5cd;stroke:#64b5cd;" x="686.799304" xlink:href="#m900e3348e4" y="360.061005"/>
     <use style="fill:#64b5cd;stroke:#64b5cd;" x="459.62538" xlink:href="#m900e3348e4" y="360.473228"/>
     <use style="fill:#64b5cd;stroke:#64b5cd;" x="457.308701" xlink:href="#m900e3348e4" y="406.21975"/>
     <use style="fill:#64b5cd;stroke:#64b5cd;" x="500.950266" xlink:href="#m900e3348e4" y="368.209571"/>
     <use style="fill:#64b5cd;stroke:#64b5cd;" x="536.384701" xlink:href="#m900e3348e4" y="392.557093"/>
     <use style="fill:#64b5cd;stroke:#64b5cd;" x="629.355986" xlink:href="#m900e3348e4" y="350.40374"/>
     <use style="fill:#64b5cd;stroke:#64b5cd;" x="302.656474" xlink:href="#m900e3348e4" y="505.150159"/>
     <use style="fill:#64b5cd;stroke:#64b5cd;" x="376.195894" xlink:href="#m900e3348e4" y="486.195644"/>
     <use style="fill:#64b5cd;stroke:#64b5cd;" x="456.989202" xlink:href="#m900e3348e4" y="386.18087"/>
     <use style="fill:#64b5cd;stroke:#64b5cd;" x="475.089329" xlink:href="#m900e3348e4" y="373.285214"/>
     <use style="fill:#64b5cd;stroke:#64b5cd;" x="860.064639" xlink:href="#m900e3348e4" y="241.858825"/>
     <use style="fill:#64b5cd;stroke:#64b5cd;" x="740.547939" xlink:href="#m900e3348e4" y="331.271453"/>
     <use style="fill:#64b5cd;stroke:#64b5cd;" x="564.948928" xlink:href="#m900e3348e4" y="354.780075"/>
     <use style="fill:#64b5cd;stroke:#64b5cd;" x="455.482296" xlink:href="#m900e3348e4" y="388.471139"/>
     <use style="fill:#64b5cd;stroke:#64b5cd;" x="372.006444" xlink:href="#m900e3348e4" y="472.00829"/>
     <use style="fill:#64b5cd;stroke:#64b5cd;" x="266.208365" xlink:href="#m900e3348e4" y="511.842318"/>
     <use style="fill:#64b5cd;stroke:#64b5cd;" x="883.122733" xlink:href="#m900e3348e4" y="291.334203"/>
     <use style="fill:#64b5cd;stroke:#64b5cd;" x="759.93284" xlink:href="#m900e3348e4" y="342.40427"/>
     <use style="fill:#64b5cd;stroke:#64b5cd;" x="541.650862" xlink:href="#m900e3348e4" y="355.627035"/>
     <use style="fill:#64b5cd;stroke:#64b5cd;" x="771.402201" xlink:href="#m900e3348e4" y="295.920337"/>
     <use style="fill:#64b5cd;stroke:#64b5cd;" x="408.831012" xlink:href="#m900e3348e4" y="424.106506"/>
     <use style="fill:#64b5cd;stroke:#64b5cd;" x="328.670418" xlink:href="#m900e3348e4" y="478.514937"/>
     <use style="fill:#64b5cd;stroke:#64b5cd;" x="340.249019" xlink:href="#m900e3348e4" y="456.419031"/>
     <use style="fill:#64b5cd;stroke:#64b5cd;" x="604.318175" xlink:href="#m900e3348e4" y="324.675679"/>
     <use style="fill:#64b5cd;stroke:#64b5cd;" x="762.448393" xlink:href="#m900e3348e4" y="335.705386"/>
     <use style="fill:#64b5cd;stroke:#64b5cd;" x="323.917871" xlink:href="#m900e3348e4" y="471.448165"/>
     <use style="fill:#64b5cd;stroke:#64b5cd;" x="210.072405" xlink:href="#m900e3348e4" y="498.40617"/>
     <use style="fill:#64b5cd;stroke:#64b5cd;" x="383.324715" xlink:href="#m900e3348e4" y="386.795314"/>
     <use style="fill:#64b5cd;stroke:#64b5cd;" x="832.068055" xlink:href="#m900e3348e4" y="340.583368"/>
     <use style="fill:#64b5cd;stroke:#64b5cd;" x="601.952852" xlink:href="#m900e3348e4" y="394.454792"/>
     <use style="fill:#64b5cd;stroke:#64b5cd;" x="252.629658" xlink:href="#m900e3348e4" y="502.383447"/>
     <use style="fill:#64b5cd;stroke:#64b5cd;" x="430.85019" xlink:href="#m900e3348e4" y="485.384142"/>
     <use style="fill:#64b5cd;stroke:#64b5cd;" x="264.661424" xlink:href="#m900e3348e4" y="485.440865"/>
     <use style="fill:#64b5cd;stroke:#64b5cd;" x="347.680608" xlink:href="#m900e3348e4" y="471.924396"/>
     <use style="fill:#64b5cd;stroke:#64b5cd;" x="637.666559" xlink:href="#m900e3348e4" y="346.006362"/>
     <use style="fill:#64b5cd;stroke:#64b5cd;" x="521.940684" xlink:href="#m900e3348e4" y="362.766721"/>
     <use style="fill:#64b5cd;stroke:#64b5cd;" x="1036.8" xlink:href="#m900e3348e4" y="308.480466"/>
     <use style="fill:#64b5cd;stroke:#64b5cd;" x="213.409605" xlink:href="#m900e3348e4" y="509.182369"/>
     <use style="fill:#64b5cd;stroke:#64b5cd;" x="643.210005" xlink:href="#m900e3348e4" y="358.885901"/>
     <use style="fill:#64b5cd;stroke:#64b5cd;" x="167.363364" xlink:href="#m900e3348e4" y="489.1286"/>
     <use style="fill:#64b5cd;stroke:#64b5cd;" x="495.009582" xlink:href="#m900e3348e4" y="437.079403"/>
     <use style="fill:#64b5cd;stroke:#64b5cd;" x="269.799266" xlink:href="#m900e3348e4" y="489.059451"/>
     <use style="fill:#64b5cd;stroke:#64b5cd;" x="250.377266" xlink:href="#m900e3348e4" y="480.735442"/>
     <use style="fill:#64b5cd;stroke:#64b5cd;" x="672.037231" xlink:href="#m900e3348e4" y="290.613131"/>
     <use style="fill:#64b5cd;stroke:#64b5cd;" x="707.731203" xlink:href="#m900e3348e4" y="354.670352"/>
     <use style="fill:#64b5cd;stroke:#64b5cd;" x="364.875755" xlink:href="#m900e3348e4" y="428.977609"/>
     <use style="fill:#64b5cd;stroke:#64b5cd;" x="949.669962" xlink:href="#m900e3348e4" y="366.156798"/>
     <use style="fill:#64b5cd;stroke:#64b5cd;" x="483.128213" xlink:href="#m900e3348e4" y="458.230721"/>
     <use style="fill:#64b5cd;stroke:#64b5cd;" x="268.471483" xlink:href="#m900e3348e4" y="477.72653"/>
     <use style="fill:#64b5cd;stroke:#64b5cd;" x="268.005547" xlink:href="#m900e3348e4" y="480.523809"/>
     <use style="fill:#64b5cd;stroke:#64b5cd;" x="913.233764" xlink:href="#m900e3348e4" y="255.08747"/>
     <use style="fill:#64b5cd;stroke:#64b5cd;" x="596.124415" xlink:href="#m900e3348e4" y="386.022766"/>
     <use style="fill:#64b5cd;stroke:#64b5cd;" x="322.220532" xlink:href="#m900e3348e4" y="499.175671"/>
     <use style="fill:#64b5cd;stroke:#64b5cd;" x="760.13384" xlink:href="#m900e3348e4" y="315.287374"/>
     <use style="fill:#64b5cd;stroke:#64b5cd;" x="300.155133" xlink:href="#m900e3348e4" y="491.598379"/>
     <use style="fill:#64b5cd;stroke:#64b5cd;" x="437.51015" xlink:href="#m900e3348e4" y="416.309503"/>
     <use style="fill:#64b5cd;stroke:#64b5cd;" x="607.373384" xlink:href="#m900e3348e4" y="353.550315"/>
     <use style="fill:#64b5cd;stroke:#64b5cd;" x="776.193273" xlink:href="#m900e3348e4" y="282.76496"/>
     <use style="fill:#64b5cd;stroke:#64b5cd;" x="323.025972" xlink:href="#m900e3348e4" y="485.139032"/>
     <use style="fill:#64b5cd;stroke:#64b5cd;" x="456.989202" xlink:href="#m900e3348e4" y="432.123503"/>
     <use style="fill:#64b5cd;stroke:#64b5cd;" x="444.129367" xlink:href="#m900e3348e4" y="369.092163"/>
     <use style="fill:#64b5cd;stroke:#64b5cd;" x="703.455428" xlink:href="#m900e3348e4" y="286.800325"/>
     <use style="fill:#64b5cd;stroke:#64b5cd;" x="508.079087" xlink:href="#m900e3348e4" y="368.72938"/>
     <use style="fill:#64b5cd;stroke:#64b5cd;" x="495.349049" xlink:href="#m900e3348e4" y="363.110086"/>
     <use style="fill:#64b5cd;stroke:#64b5cd;" x="316.535273" xlink:href="#m900e3348e4" y="482.453915"/>
     <use style="fill:#64b5cd;stroke:#64b5cd;" x="556.052736" xlink:href="#m900e3348e4" y="379.331357"/>
     <use style="fill:#64b5cd;stroke:#64b5cd;" x="704.121673" xlink:href="#m900e3348e4" y="311.29845"/>
     <use style="fill:#64b5cd;stroke:#64b5cd;" x="312.036502" xlink:href="#m900e3348e4" y="510.488278"/>
     <use style="fill:#64b5cd;stroke:#64b5cd;" x="620.952091" xlink:href="#m900e3348e4" y="361.000726"/>
     <use style="fill:#64b5cd;stroke:#64b5cd;" x="250.469409" xlink:href="#m900e3348e4" y="461.648457"/>
     <use style="fill:#64b5cd;stroke:#64b5cd;" x="463.896441" xlink:href="#m900e3348e4" y="416.272849"/>
     <use style="fill:#64b5cd;stroke:#64b5cd;" x="911.883819" xlink:href="#m900e3348e4" y="316.495706"/>
     <use style="fill:#64b5cd;stroke:#64b5cd;" x="349.054471" xlink:href="#m900e3348e4" y="479.619921"/>
     <use style="fill:#64b5cd;stroke:#64b5cd;" x="580.495278" xlink:href="#m900e3348e4" y="290.77344"/>
     <use style="fill:#64b5cd;stroke:#64b5cd;" x="316.606259" xlink:href="#m900e3348e4" y="510.134977"/>
     <use style="fill:#64b5cd;stroke:#64b5cd;" x="343.225095" xlink:href="#m900e3348e4" y="472.054499"/>
     <use style="fill:#64b5cd;stroke:#64b5cd;" x="718.379316" xlink:href="#m900e3348e4" y="287.432473"/>
     <use style="fill:#64b5cd;stroke:#64b5cd;" x="305.510116" xlink:href="#m900e3348e4" y="500.827483"/>
     <use style="fill:#64b5cd;stroke:#64b5cd;" x="360.367494" xlink:href="#m900e3348e4" y="480.939168"/>
     <use style="fill:#64b5cd;stroke:#64b5cd;" x="514.54203" xlink:href="#m900e3348e4" y="423.979157"/>
     <use style="fill:#64b5cd;stroke:#64b5cd;" x="336.713191" xlink:href="#m900e3348e4" y="434.283237"/>
     <use style="fill:#64b5cd;stroke:#64b5cd;" x="515.304244" xlink:href="#m900e3348e4" y="364.165901"/>
     <use style="fill:#64b5cd;stroke:#64b5cd;" x="250.932319" xlink:href="#m900e3348e4" y="488.592318"/>
     <use style="fill:#64b5cd;stroke:#64b5cd;" x="794.169942" xlink:href="#m900e3348e4" y="307.31328"/>
     <use style="fill:#64b5cd;stroke:#64b5cd;" x="490.257034" xlink:href="#m900e3348e4" y="376.113878"/>
     <use style="fill:#64b5cd;stroke:#64b5cd;" x="523.942673" xlink:href="#m900e3348e4" y="374.896283"/>
     <use style="fill:#64b5cd;stroke:#64b5cd;" x="387.285171" xlink:href="#m900e3348e4" y="485.4052"/>
     <use style="fill:#64b5cd;stroke:#64b5cd;" x="673.569582" xlink:href="#m900e3348e4" y="364.352537"/>
     <use style="fill:#64b5cd;stroke:#64b5cd;" x="289.353889" xlink:href="#m900e3348e4" y="502.14385"/>
     <use style="fill:#64b5cd;stroke:#64b5cd;" x="229.744699" xlink:href="#m900e3348e4" y="464.569152"/>
     <use style="fill:#64b5cd;stroke:#64b5cd;" x="214.08688" xlink:href="#m900e3348e4" y="503.123662"/>
    </g>
   </g>
   <g id="line2d_17">
    <defs>
     <path d="M 0 3 
C 0.795609 3 1.55874 2.683901 2.12132 2.12132 
C 2.683901 1.55874 3 0.795609 3 0 
C 3 -0.795609 2.683901 -1.55874 2.12132 -2.12132 
C 1.55874 -2.683901 0.795609 -3 0 -3 
C -0.795609 -3 -1.55874 -2.683901 -2.12132 -2.12132 
C -2.683901 -1.55874 -3 -0.795609 -3 0 
C -3 0.795609 -2.683901 1.55874 -2.12132 2.12132 
C -1.55874 2.683901 -0.795609 3 0 3 
z
" id="m1c6ecedab5" style="stroke:#8172b3;"/>
    </defs>
    <g clip-path="url(#pbea63881df)">
     <use style="fill:#8172b3;stroke:#8172b3;" x="561.545247" xlink:href="#m1c6ecedab5" y="326.833486"/>
     <use style="fill:#8172b3;stroke:#8172b3;" x="812.056768" xlink:href="#m1c6ecedab5" y="357.137826"/>
     <use style="fill:#8172b3;stroke:#8172b3;" x="144" xlink:href="#m1c6ecedab5" y="469.647813"/>
     <use style="fill:#8172b3;stroke:#8172b3;" x="350.177083" xlink:href="#m1c6ecedab5" y="433.623077"/>
     <use style="fill:#8172b3;stroke:#8172b3;" x="789.667529" xlink:href="#m1c6ecedab5" y="263.873687"/>
     <use style="fill:#8172b3;stroke:#8172b3;" x="517.980228" xlink:href="#m1c6ecedab5" y="348.247966"/>
     <use style="fill:#8172b3;stroke:#8172b3;" x="527.997853" xlink:href="#m1c6ecedab5" y="369.663779"/>
     <use style="fill:#8172b3;stroke:#8172b3;" x="286.018906" xlink:href="#m1c6ecedab5" y="495.478195"/>
     <use style="fill:#8172b3;stroke:#8172b3;" x="253.842042" xlink:href="#m1c6ecedab5" y="510.597087"/>
     <use style="fill:#8172b3;stroke:#8172b3;" x="250.377266" xlink:href="#m1c6ecedab5" y="506.151596"/>
     <use style="fill:#8172b3;stroke:#8172b3;" x="247.254312" xlink:href="#m1c6ecedab5" y="495.398093"/>
     <use style="fill:#8172b3;stroke:#8172b3;" x="239.50489" xlink:href="#m1c6ecedab5" y="477.128309"/>
     <use style="fill:#8172b3;stroke:#8172b3;" x="580.305303" xlink:href="#m1c6ecedab5" y="236.913056"/>
     <use style="fill:#8172b3;stroke:#8172b3;" x="442.917205" xlink:href="#m1c6ecedab5" y="320.972738"/>
     <use style="fill:#8172b3;stroke:#8172b3;" x="291.902802" xlink:href="#m1c6ecedab5" y="455.884726"/>
     <use style="fill:#8172b3;stroke:#8172b3;" x="211.713686" xlink:href="#m1c6ecedab5" y="469.615107"/>
     <use style="fill:#8172b3;stroke:#8172b3;" x="311.525841" xlink:href="#m1c6ecedab5" y="425.473853"/>
     <use style="fill:#8172b3;stroke:#8172b3;" x="998.164972" xlink:href="#m1c6ecedab5" y="327.013701"/>
     <use style="fill:#8172b3;stroke:#8172b3;" x="644.714829" xlink:href="#m1c6ecedab5" y="398.1357"/>
     <use style="fill:#8172b3;stroke:#8172b3;" x="328.543584" xlink:href="#m1c6ecedab5" y="479.524095"/>
     <use style="fill:#8172b3;stroke:#8172b3;" x="766.256147" xlink:href="#m1c6ecedab5" y="335.967095"/>
     <use style="fill:#8172b3;stroke:#8172b3;" x="423.162246" xlink:href="#m1c6ecedab5" y="488.82044"/>
     <use style="fill:#8172b3;stroke:#8172b3;" x="454.612928" xlink:href="#m1c6ecedab5" y="457.441931"/>
     <use style="fill:#8172b3;stroke:#8172b3;" x="314.03898" xlink:href="#m1c6ecedab5" y="447.321053"/>
     <use style="fill:#8172b3;stroke:#8172b3;" x="778.674995" xlink:href="#m1c6ecedab5" y="339.597782"/>
     <use style="fill:#8172b3;stroke:#8172b3;" x="535.622261" xlink:href="#m1c6ecedab5" y="321.01077"/>
     <use style="fill:#8172b3;stroke:#8172b3;" x="626.352713" xlink:href="#m1c6ecedab5" y="370.119136"/>
     <use style="fill:#8172b3;stroke:#8172b3;" x="196.193156" xlink:href="#m1c6ecedab5" y="470.431508"/>
     <use style="fill:#8172b3;stroke:#8172b3;" x="504.514677" xlink:href="#m1c6ecedab5" y="397.354208"/>
     <use style="fill:#8172b3;stroke:#8172b3;" x="205.320864" xlink:href="#m1c6ecedab5" y="478.767357"/>
     <use style="fill:#8172b3;stroke:#8172b3;" x="289.854547" xlink:href="#m1c6ecedab5" y="489.836417"/>
     <use style="fill:#8172b3;stroke:#8172b3;" x="402.438221" xlink:href="#m1c6ecedab5" y="433.325415"/>
     <use style="fill:#8172b3;stroke:#8172b3;" x="546.614246" xlink:href="#m1c6ecedab5" y="401.485542"/>
     <use style="fill:#8172b3;stroke:#8172b3;" x="418.968821" xlink:href="#m1c6ecedab5" y="358.651642"/>
     <use style="fill:#8172b3;stroke:#8172b3;" x="591.561337" xlink:href="#m1c6ecedab5" y="360.696823"/>
     <use style="fill:#8172b3;stroke:#8172b3;" x="440.474763" xlink:href="#m1c6ecedab5" y="400.575323"/>
     <use style="fill:#8172b3;stroke:#8172b3;" x="335.100335" xlink:href="#m1c6ecedab5" y="477.715437"/>
     <use style="fill:#8172b3;stroke:#8172b3;" x="517.899402" xlink:href="#m1c6ecedab5" y="384.442258"/>
     <use style="fill:#8172b3;stroke:#8172b3;" x="714.231004" xlink:href="#m1c6ecedab5" y="366.636117"/>
     <use style="fill:#8172b3;stroke:#8172b3;" x="480.777219" xlink:href="#m1c6ecedab5" y="387.675052"/>
     <use style="fill:#8172b3;stroke:#8172b3;" x="347.680608" xlink:href="#m1c6ecedab5" y="487.719373"/>
     <use style="fill:#8172b3;stroke:#8172b3;" x="454.612928" xlink:href="#m1c6ecedab5" y="320.857869"/>
     <use style="fill:#8172b3;stroke:#8172b3;" x="668.477567" xlink:href="#m1c6ecedab5" y="409.811441"/>
     <use style="fill:#8172b3;stroke:#8172b3;" x="797.687452" xlink:href="#m1c6ecedab5" y="384.86468"/>
     <use style="fill:#8172b3;stroke:#8172b3;" x="284.313308" xlink:href="#m1c6ecedab5" y="494.573983"/>
     <use style="fill:#8172b3;stroke:#8172b3;" x="237.223048" xlink:href="#m1c6ecedab5" y="495.589686"/>
     <use style="fill:#8172b3;stroke:#8172b3;" x="609.583957" xlink:href="#m1c6ecedab5" y="303.795472"/>
     <use style="fill:#8172b3;stroke:#8172b3;" x="363.522433" xlink:href="#m1c6ecedab5" y="347.163441"/>
     <use style="fill:#8172b3;stroke:#8172b3;" x="348.812167" xlink:href="#m1c6ecedab5" y="470.550625"/>
     <use style="fill:#8172b3;stroke:#8172b3;" x="490.257034" xlink:href="#m1c6ecedab5" y="364.918341"/>
    </g>
   </g>
   <g id="patch_3">
    <path d="M 144 630 
L 144 86.4 
" style="fill:none;stroke:#cccccc;stroke-linecap:square;stroke-linejoin:miter;stroke-width:1.25;"/>
   </g>
   <g id="patch_4">
    <path d="M 1036.8 630 
L 1036.8 86.4 
" style="fill:none;stroke:#cccccc;stroke-linecap:square;stroke-linejoin:miter;stroke-width:1.25;"/>
   </g>
   <g id="patch_5">
    <path d="M 144 630 
L 1036.8 630 
" style="fill:none;stroke:#cccccc;stroke-linecap:square;stroke-linejoin:miter;stroke-width:1.25;"/>
   </g>
   <g id="patch_6">
    <path d="M 144 86.4 
L 1036.8 86.4 
" style="fill:none;stroke:#cccccc;stroke-linecap:square;stroke-linejoin:miter;stroke-width:1.25;"/>
   </g>
  </g>
 </g>
 <defs>
  <clipPath id="pbea63881df">
   <rect height="543.6" width="892.8" x="144" y="86.4"/>
  </clipPath>
 </defs>
</svg>
