<?xml version="1.0" encoding="utf-8" standalone="no"?>
<!DOCTYPE svg PUBLIC "-//W3C//DTD SVG 1.1//EN"
  "http://www.w3.org/Graphics/SVG/1.1/DTD/svg11.dtd">
<!-- Created with matplotlib (https://matplotlib.org/) -->
<svg height="288pt" version="1.1" viewBox="0 0 432 288" width="432pt" xmlns="http://www.w3.org/2000/svg" xmlns:xlink="http://www.w3.org/1999/xlink">
 <defs>
  <style type="text/css">
*{stroke-linecap:butt;stroke-linejoin:round;}
  </style>
 </defs>
 <g id="figure_1">
  <g id="patch_1">
   <path d="M 0 288 
L 432 288 
L 432 0 
L 0 0 
z
" style="fill:#ffffff;"/>
  </g>
  <g id="axes_1">
   <g id="patch_2">
    <path d="M 54 252 
L 388.8 252 
L 388.8 34.56 
L 54 34.56 
z
" style="fill:#ffffff;"/>
   </g>
   <g id="matplotlib.axis_1">
    <g id="xtick_1">
     <g id="line2d_1">
      <path clip-path="url(#p4ff3184f15)" d="M 71.799981 252 
L 71.799981 34.56 
" style="fill:none;stroke:#cccccc;stroke-linecap:round;"/>
     </g>
     <g id="text_1">
      <!-- −4 -->
      <defs>
       <path d="M 52.828125 31.203125 
L 5.5625 31.203125 
L 5.5625 39.40625 
L 52.828125 39.40625 
z
" id="ArialMT-8722"/>
       <path d="M 32.328125 0 
L 32.328125 17.140625 
L 1.265625 17.140625 
L 1.265625 25.203125 
L 33.9375 71.578125 
L 41.109375 71.578125 
L 41.109375 25.203125 
L 50.78125 25.203125 
L 50.78125 17.140625 
L 41.109375 17.140625 
L 41.109375 0 
z
M 32.328125 25.203125 
L 32.328125 57.46875 
L 9.90625 25.203125 
z
" id="ArialMT-52"/>
      </defs>
      <g style="fill:#262626;" transform="translate(59.258263 277.247187)scale(0.22 -0.22)">
       <use xlink:href="#ArialMT-8722"/>
       <use x="58.398438" xlink:href="#ArialMT-52"/>
      </g>
     </g>
    </g>
    <g id="xtick_2">
     <g id="line2d_2">
      <path clip-path="url(#p4ff3184f15)" d="M 142.536712 252 
L 142.536712 34.56 
" style="fill:none;stroke:#cccccc;stroke-linecap:round;"/>
     </g>
     <g id="text_2">
      <!-- −2 -->
      <defs>
       <path d="M 50.34375 8.453125 
L 50.34375 0 
L 3.03125 0 
Q 2.9375 3.171875 4.046875 6.109375 
Q 5.859375 10.9375 9.828125 15.625 
Q 13.8125 20.3125 21.34375 26.46875 
Q 33.015625 36.03125 37.109375 41.625 
Q 41.21875 47.21875 41.21875 52.203125 
Q 41.21875 57.421875 37.46875 61 
Q 33.734375 64.59375 27.734375 64.59375 
Q 21.390625 64.59375 17.578125 60.78125 
Q 13.765625 56.984375 13.71875 50.25 
L 4.6875 51.171875 
Q 5.609375 61.28125 11.65625 66.578125 
Q 17.71875 71.875 27.9375 71.875 
Q 38.234375 71.875 44.234375 66.15625 
Q 50.25 60.453125 50.25 52 
Q 50.25 47.703125 48.484375 43.546875 
Q 46.734375 39.40625 42.65625 34.8125 
Q 38.578125 30.21875 29.109375 22.21875 
Q 21.1875 15.578125 18.9375 13.203125 
Q 16.703125 10.84375 15.234375 8.453125 
z
" id="ArialMT-50"/>
      </defs>
      <g style="fill:#262626;" transform="translate(129.994993 277.247187)scale(0.22 -0.22)">
       <use xlink:href="#ArialMT-8722"/>
       <use x="58.398438" xlink:href="#ArialMT-50"/>
      </g>
     </g>
    </g>
    <g id="xtick_3">
     <g id="line2d_3">
      <path clip-path="url(#p4ff3184f15)" d="M 213.273442 252 
L 213.273442 34.56 
" style="fill:none;stroke:#cccccc;stroke-linecap:round;"/>
     </g>
     <g id="text_3">
      <!-- 0 -->
      <defs>
       <path d="M 4.15625 35.296875 
Q 4.15625 48 6.765625 55.734375 
Q 9.375 63.484375 14.515625 67.671875 
Q 19.671875 71.875 27.484375 71.875 
Q 33.25 71.875 37.59375 69.546875 
Q 41.9375 67.234375 44.765625 62.859375 
Q 47.609375 58.5 49.21875 52.21875 
Q 50.828125 45.953125 50.828125 35.296875 
Q 50.828125 22.703125 48.234375 14.96875 
Q 45.65625 7.234375 40.5 3 
Q 35.359375 -1.21875 27.484375 -1.21875 
Q 17.140625 -1.21875 11.234375 6.203125 
Q 4.15625 15.140625 4.15625 35.296875 
z
M 13.1875 35.296875 
Q 13.1875 17.671875 17.3125 11.828125 
Q 21.4375 6 27.484375 6 
Q 33.546875 6 37.671875 11.859375 
Q 41.796875 17.71875 41.796875 35.296875 
Q 41.796875 52.984375 37.671875 58.78125 
Q 33.546875 64.59375 27.390625 64.59375 
Q 21.34375 64.59375 17.71875 59.46875 
Q 13.1875 52.9375 13.1875 35.296875 
z
" id="ArialMT-48"/>
      </defs>
      <g style="fill:#262626;" transform="translate(207.156411 277.247187)scale(0.22 -0.22)">
       <use xlink:href="#ArialMT-48"/>
      </g>
     </g>
    </g>
    <g id="xtick_4">
     <g id="line2d_4">
      <path clip-path="url(#p4ff3184f15)" d="M 284.010173 252 
L 284.010173 34.56 
" style="fill:none;stroke:#cccccc;stroke-linecap:round;"/>
     </g>
     <g id="text_4">
      <!-- 2 -->
      <g style="fill:#262626;" transform="translate(277.893142 277.247187)scale(0.22 -0.22)">
       <use xlink:href="#ArialMT-50"/>
      </g>
     </g>
    </g>
    <g id="xtick_5">
     <g id="line2d_5">
      <path clip-path="url(#p4ff3184f15)" d="M 354.746903 252 
L 354.746903 34.56 
" style="fill:none;stroke:#cccccc;stroke-linecap:round;"/>
     </g>
     <g id="text_5">
      <!-- 4 -->
      <g style="fill:#262626;" transform="translate(348.629872 277.247187)scale(0.22 -0.22)">
       <use xlink:href="#ArialMT-52"/>
      </g>
     </g>
    </g>
    <g id="text_6">
     <!-- Yerr_normalized -->
     <defs>
      <path d="M 27.875 0 
L 27.875 30.328125 
L 0.296875 71.578125 
L 11.8125 71.578125 
L 25.921875 50 
Q 29.828125 43.953125 33.203125 37.890625 
Q 36.421875 43.5 41.015625 50.53125 
L 54.890625 71.578125 
L 65.921875 71.578125 
L 37.359375 30.328125 
L 37.359375 0 
z
" id="ArialMT-89"/>
      <path d="M 42.09375 16.703125 
L 51.171875 15.578125 
Q 49.03125 7.625 43.21875 3.21875 
Q 37.40625 -1.171875 28.375 -1.171875 
Q 17 -1.171875 10.328125 5.828125 
Q 3.65625 12.84375 3.65625 25.484375 
Q 3.65625 38.578125 10.390625 45.796875 
Q 17.140625 53.03125 27.875 53.03125 
Q 38.28125 53.03125 44.875 45.953125 
Q 51.46875 38.875 51.46875 26.03125 
Q 51.46875 25.25 51.421875 23.6875 
L 12.75 23.6875 
Q 13.234375 15.140625 17.578125 10.59375 
Q 21.921875 6.0625 28.421875 6.0625 
Q 33.25 6.0625 36.671875 8.59375 
Q 40.09375 11.140625 42.09375 16.703125 
z
M 13.234375 30.90625 
L 42.1875 30.90625 
Q 41.609375 37.453125 38.875 40.71875 
Q 34.671875 45.796875 27.984375 45.796875 
Q 21.921875 45.796875 17.796875 41.75 
Q 13.671875 37.703125 13.234375 30.90625 
z
" id="ArialMT-101"/>
      <path d="M 6.5 0 
L 6.5 51.859375 
L 14.40625 51.859375 
L 14.40625 44 
Q 17.4375 49.515625 20 51.265625 
Q 22.5625 53.03125 25.640625 53.03125 
Q 30.078125 53.03125 34.671875 50.203125 
L 31.640625 42.046875 
Q 28.421875 43.953125 25.203125 43.953125 
Q 22.3125 43.953125 20.015625 42.21875 
Q 17.71875 40.484375 16.75 37.40625 
Q 15.28125 32.71875 15.28125 27.15625 
L 15.28125 0 
z
" id="ArialMT-114"/>
      <path d="M -1.515625 -19.875 
L -1.515625 -13.53125 
L 56.734375 -13.53125 
L 56.734375 -19.875 
z
" id="ArialMT-95"/>
      <path d="M 6.59375 0 
L 6.59375 51.859375 
L 14.5 51.859375 
L 14.5 44.484375 
Q 20.21875 53.03125 31 53.03125 
Q 35.6875 53.03125 39.625 51.34375 
Q 43.5625 49.65625 45.515625 46.921875 
Q 47.46875 44.1875 48.25 40.4375 
Q 48.734375 37.984375 48.734375 31.890625 
L 48.734375 0 
L 39.9375 0 
L 39.9375 31.546875 
Q 39.9375 36.921875 38.90625 39.578125 
Q 37.890625 42.234375 35.28125 43.8125 
Q 32.671875 45.40625 29.15625 45.40625 
Q 23.53125 45.40625 19.453125 41.84375 
Q 15.375 38.28125 15.375 28.328125 
L 15.375 0 
z
" id="ArialMT-110"/>
      <path d="M 3.328125 25.921875 
Q 3.328125 40.328125 11.328125 47.265625 
Q 18.015625 53.03125 27.640625 53.03125 
Q 38.328125 53.03125 45.109375 46.015625 
Q 51.90625 39.015625 51.90625 26.65625 
Q 51.90625 16.65625 48.90625 10.90625 
Q 45.90625 5.171875 40.15625 2 
Q 34.421875 -1.171875 27.640625 -1.171875 
Q 16.75 -1.171875 10.03125 5.8125 
Q 3.328125 12.796875 3.328125 25.921875 
z
M 12.359375 25.921875 
Q 12.359375 15.96875 16.703125 11.015625 
Q 21.046875 6.0625 27.640625 6.0625 
Q 34.1875 6.0625 38.53125 11.03125 
Q 42.875 16.015625 42.875 26.21875 
Q 42.875 35.84375 38.5 40.796875 
Q 34.125 45.75 27.640625 45.75 
Q 21.046875 45.75 16.703125 40.8125 
Q 12.359375 35.890625 12.359375 25.921875 
z
" id="ArialMT-111"/>
      <path d="M 6.59375 0 
L 6.59375 51.859375 
L 14.453125 51.859375 
L 14.453125 44.578125 
Q 16.890625 48.390625 20.9375 50.703125 
Q 25 53.03125 30.171875 53.03125 
Q 35.9375 53.03125 39.625 50.640625 
Q 43.3125 48.25 44.828125 43.953125 
Q 50.984375 53.03125 60.84375 53.03125 
Q 68.5625 53.03125 72.703125 48.75 
Q 76.859375 44.484375 76.859375 35.59375 
L 76.859375 0 
L 68.109375 0 
L 68.109375 32.671875 
Q 68.109375 37.9375 67.25 40.25 
Q 66.40625 42.578125 64.15625 43.984375 
Q 61.921875 45.40625 58.890625 45.40625 
Q 53.421875 45.40625 49.796875 41.765625 
Q 46.1875 38.140625 46.1875 30.125 
L 46.1875 0 
L 37.40625 0 
L 37.40625 33.6875 
Q 37.40625 39.546875 35.25 42.46875 
Q 33.109375 45.40625 28.21875 45.40625 
Q 24.515625 45.40625 21.359375 43.453125 
Q 18.21875 41.5 16.796875 37.734375 
Q 15.375 33.984375 15.375 26.90625 
L 15.375 0 
z
" id="ArialMT-109"/>
      <path d="M 40.4375 6.390625 
Q 35.546875 2.25 31.03125 0.53125 
Q 26.515625 -1.171875 21.34375 -1.171875 
Q 12.796875 -1.171875 8.203125 3 
Q 3.609375 7.171875 3.609375 13.671875 
Q 3.609375 17.484375 5.34375 20.625 
Q 7.078125 23.78125 9.890625 25.6875 
Q 12.703125 27.59375 16.21875 28.5625 
Q 18.796875 29.25 24.03125 29.890625 
Q 34.671875 31.15625 39.703125 32.90625 
Q 39.75 34.71875 39.75 35.203125 
Q 39.75 40.578125 37.25 42.78125 
Q 33.890625 45.75 27.25 45.75 
Q 21.046875 45.75 18.09375 43.578125 
Q 15.140625 41.40625 13.71875 35.890625 
L 5.125 37.0625 
Q 6.296875 42.578125 8.984375 45.96875 
Q 11.671875 49.359375 16.75 51.1875 
Q 21.828125 53.03125 28.515625 53.03125 
Q 35.15625 53.03125 39.296875 51.46875 
Q 43.453125 49.90625 45.40625 47.53125 
Q 47.359375 45.171875 48.140625 41.546875 
Q 48.578125 39.3125 48.578125 33.453125 
L 48.578125 21.734375 
Q 48.578125 9.46875 49.140625 6.21875 
Q 49.703125 2.984375 51.375 0 
L 42.1875 0 
Q 40.828125 2.734375 40.4375 6.390625 
z
M 39.703125 26.03125 
Q 34.90625 24.078125 25.34375 22.703125 
Q 19.921875 21.921875 17.671875 20.9375 
Q 15.4375 19.96875 14.203125 18.09375 
Q 12.984375 16.21875 12.984375 13.921875 
Q 12.984375 10.40625 15.640625 8.0625 
Q 18.3125 5.71875 23.4375 5.71875 
Q 28.515625 5.71875 32.46875 7.9375 
Q 36.421875 10.15625 38.28125 14.015625 
Q 39.703125 17 39.703125 22.796875 
z
" id="ArialMT-97"/>
      <path d="M 6.390625 0 
L 6.390625 71.578125 
L 15.1875 71.578125 
L 15.1875 0 
z
" id="ArialMT-108"/>
      <path d="M 6.640625 61.46875 
L 6.640625 71.578125 
L 15.4375 71.578125 
L 15.4375 61.46875 
z
M 6.640625 0 
L 6.640625 51.859375 
L 15.4375 51.859375 
L 15.4375 0 
z
" id="ArialMT-105"/>
      <path d="M 1.953125 0 
L 1.953125 7.125 
L 34.96875 45.015625 
Q 29.34375 44.734375 25.046875 44.734375 
L 3.90625 44.734375 
L 3.90625 51.859375 
L 46.296875 51.859375 
L 46.296875 46.046875 
L 18.21875 13.140625 
L 12.796875 7.125 
Q 18.703125 7.5625 23.875 7.5625 
L 47.859375 7.5625 
L 47.859375 0 
z
" id="ArialMT-122"/>
      <path d="M 40.234375 0 
L 40.234375 6.546875 
Q 35.296875 -1.171875 25.734375 -1.171875 
Q 19.53125 -1.171875 14.328125 2.25 
Q 9.125 5.671875 6.265625 11.796875 
Q 3.421875 17.921875 3.421875 25.875 
Q 3.421875 33.640625 6 39.96875 
Q 8.59375 46.296875 13.765625 49.65625 
Q 18.953125 53.03125 25.34375 53.03125 
Q 30.03125 53.03125 33.6875 51.046875 
Q 37.359375 49.078125 39.65625 45.90625 
L 39.65625 71.578125 
L 48.390625 71.578125 
L 48.390625 0 
z
M 12.453125 25.875 
Q 12.453125 15.921875 16.640625 10.984375 
Q 20.84375 6.0625 26.5625 6.0625 
Q 32.328125 6.0625 36.34375 10.765625 
Q 40.375 15.484375 40.375 25.140625 
Q 40.375 35.796875 36.265625 40.765625 
Q 32.171875 45.75 26.171875 45.75 
Q 20.3125 45.75 16.375 40.96875 
Q 12.453125 36.1875 12.453125 25.875 
z
" id="ArialMT-100"/>
     </defs>
     <g style="fill:#262626;" transform="translate(133.385625 302.798437)scale(0.24 -0.24)">
      <use xlink:href="#ArialMT-89"/>
      <use x="66.558594" xlink:href="#ArialMT-101"/>
      <use x="122.173828" xlink:href="#ArialMT-114"/>
      <use x="155.474609" xlink:href="#ArialMT-114"/>
      <use x="188.775391" xlink:href="#ArialMT-95"/>
      <use x="244.390625" xlink:href="#ArialMT-110"/>
      <use x="300.005859" xlink:href="#ArialMT-111"/>
      <use x="355.621094" xlink:href="#ArialMT-114"/>
      <use x="388.921875" xlink:href="#ArialMT-109"/>
      <use x="472.222656" xlink:href="#ArialMT-97"/>
      <use x="527.837891" xlink:href="#ArialMT-108"/>
      <use x="550.054688" xlink:href="#ArialMT-105"/>
      <use x="572.271484" xlink:href="#ArialMT-122"/>
      <use x="622.271484" xlink:href="#ArialMT-101"/>
      <use x="677.886719" xlink:href="#ArialMT-100"/>
     </g>
    </g>
   </g>
   <g id="matplotlib.axis_2">
    <g id="ytick_1">
     <g id="line2d_6">
      <path clip-path="url(#p4ff3184f15)" d="M 54 252 
L 388.8 252 
" style="fill:none;stroke:#cccccc;stroke-linecap:round;"/>
     </g>
     <g id="text_7">
      <!-- 0.0 -->
      <defs>
       <path d="M 9.078125 0 
L 9.078125 10.015625 
L 19.09375 10.015625 
L 19.09375 0 
z
" id="ArialMT-46"/>
      </defs>
      <g style="fill:#262626;" transform="translate(13.92 259.873594)scale(0.22 -0.22)">
       <use xlink:href="#ArialMT-48"/>
       <use x="55.615234" xlink:href="#ArialMT-46"/>
       <use x="83.398438" xlink:href="#ArialMT-48"/>
      </g>
     </g>
    </g>
    <g id="ytick_2">
     <g id="line2d_7">
      <path clip-path="url(#p4ff3184f15)" d="M 54 166.201257 
L 388.8 166.201257 
" style="fill:none;stroke:#cccccc;stroke-linecap:round;"/>
     </g>
     <g id="text_8">
      <!-- 0.2 -->
      <g style="fill:#262626;" transform="translate(13.92 174.074851)scale(0.22 -0.22)">
       <use xlink:href="#ArialMT-48"/>
       <use x="55.615234" xlink:href="#ArialMT-46"/>
       <use x="83.398438" xlink:href="#ArialMT-50"/>
      </g>
     </g>
    </g>
    <g id="ytick_3">
     <g id="line2d_8">
      <path clip-path="url(#p4ff3184f15)" d="M 54 80.402514 
L 388.8 80.402514 
" style="fill:none;stroke:#cccccc;stroke-linecap:round;"/>
     </g>
     <g id="text_9">
      <!-- 0.4 -->
      <g style="fill:#262626;" transform="translate(13.92 88.276108)scale(0.22 -0.22)">
       <use xlink:href="#ArialMT-48"/>
       <use x="55.615234" xlink:href="#ArialMT-46"/>
       <use x="83.398438" xlink:href="#ArialMT-52"/>
      </g>
     </g>
    </g>
   </g>
   <g id="patch_3">
    <path clip-path="url(#p4ff3184f15)" d="M 103.071788 252 
L 116.992754 252 
L 116.992754 241.100752 
L 103.071788 241.100752 
z
" style="fill:#4c72b0;opacity:0.4;stroke:#ffffff;stroke-linejoin:miter;"/>
   </g>
   <g id="patch_4">
    <path clip-path="url(#p4ff3184f15)" d="M 116.992754 252 
L 130.91372 252 
L 130.91372 252 
L 116.992754 252 
z
" style="fill:#4c72b0;opacity:0.4;stroke:#ffffff;stroke-linejoin:miter;"/>
   </g>
   <g id="patch_5">
    <path clip-path="url(#p4ff3184f15)" d="M 130.91372 252 
L 144.834687 252 
L 144.834687 241.100752 
L 130.91372 241.100752 
z
" style="fill:#4c72b0;opacity:0.4;stroke:#ffffff;stroke-linejoin:miter;"/>
   </g>
   <g id="patch_6">
    <path clip-path="url(#p4ff3184f15)" d="M 144.834687 252 
L 158.755653 252 
L 158.755653 219.302256 
L 144.834687 219.302256 
z
" style="fill:#4c72b0;opacity:0.4;stroke:#ffffff;stroke-linejoin:miter;"/>
   </g>
   <g id="patch_7">
    <path clip-path="url(#p4ff3184f15)" d="M 158.755653 252 
L 172.676619 252 
L 172.676619 197.503759 
L 158.755653 197.503759 
z
" style="fill:#4c72b0;opacity:0.4;stroke:#ffffff;stroke-linejoin:miter;"/>
   </g>
   <g id="patch_8">
    <path clip-path="url(#p4ff3184f15)" d="M 172.676619 252 
L 186.597585 252 
L 186.597585 115.759398 
L 172.676619 115.759398 
z
" style="fill:#4c72b0;opacity:0.4;stroke:#ffffff;stroke-linejoin:miter;"/>
   </g>
   <g id="patch_9">
    <path clip-path="url(#p4ff3184f15)" d="M 186.597585 252 
L 200.518551 252 
L 200.518551 44.914286 
L 186.597585 44.914286 
z
" style="fill:#4c72b0;opacity:0.4;stroke:#ffffff;stroke-linejoin:miter;"/>
   </g>
   <g id="patch_10">
    <path clip-path="url(#p4ff3184f15)" d="M 200.518551 252 
L 214.439517 252 
L 214.439517 50.36391 
L 200.518551 50.36391 
z
" style="fill:#4c72b0;opacity:0.4;stroke:#ffffff;stroke-linejoin:miter;"/>
   </g>
   <g id="patch_11">
    <path clip-path="url(#p4ff3184f15)" d="M 214.439517 252 
L 228.360483 252 
L 228.360483 121.209023 
L 214.439517 121.209023 
z
" style="fill:#4c72b0;opacity:0.4;stroke:#ffffff;stroke-linejoin:miter;"/>
   </g>
   <g id="patch_12">
    <path clip-path="url(#p4ff3184f15)" d="M 228.360483 252 
L 242.281449 252 
L 242.281449 132.108271 
L 228.360483 132.108271 
z
" style="fill:#4c72b0;opacity:0.4;stroke:#ffffff;stroke-linejoin:miter;"/>
   </g>
   <g id="patch_13">
    <path clip-path="url(#p4ff3184f15)" d="M 242.281449 252 
L 256.202415 252 
L 256.202415 202.953383 
L 242.281449 202.953383 
z
" style="fill:#4c72b0;opacity:0.4;stroke:#ffffff;stroke-linejoin:miter;"/>
   </g>
   <g id="patch_14">
    <path clip-path="url(#p4ff3184f15)" d="M 256.202415 252 
L 270.123381 252 
L 270.123381 208.403008 
L 256.202415 208.403008 
z
" style="fill:#4c72b0;opacity:0.4;stroke:#ffffff;stroke-linejoin:miter;"/>
   </g>
   <g id="patch_15">
    <path clip-path="url(#p4ff3184f15)" d="M 270.123381 252 
L 284.044347 252 
L 284.044347 213.852632 
L 270.123381 213.852632 
z
" style="fill:#4c72b0;opacity:0.4;stroke:#ffffff;stroke-linejoin:miter;"/>
   </g>
   <g id="patch_16">
    <path clip-path="url(#p4ff3184f15)" d="M 284.044347 252 
L 297.965313 252 
L 297.965313 219.302256 
L 284.044347 219.302256 
z
" style="fill:#4c72b0;opacity:0.4;stroke:#ffffff;stroke-linejoin:miter;"/>
   </g>
   <g id="patch_17">
    <path clip-path="url(#p4ff3184f15)" d="M 297.965313 252 
L 311.88628 252 
L 311.88628 241.100752 
L 297.965313 241.100752 
z
" style="fill:#4c72b0;opacity:0.4;stroke:#ffffff;stroke-linejoin:miter;"/>
   </g>
   <g id="patch_18">
    <path clip-path="url(#p4ff3184f15)" d="M 311.88628 252 
L 325.807246 252 
L 325.807246 252 
L 311.88628 252 
z
" style="fill:#4c72b0;opacity:0.4;stroke:#ffffff;stroke-linejoin:miter;"/>
   </g>
   <g id="patch_19">
    <path clip-path="url(#p4ff3184f15)" d="M 325.807246 252 
L 339.728212 252 
L 339.728212 241.100752 
L 325.807246 241.100752 
z
" style="fill:#4c72b0;opacity:0.4;stroke:#ffffff;stroke-linejoin:miter;"/>
   </g>
   <g id="LineCollection_1">
    <path clip-path="url(#p4ff3184f15)" d="M 205.28542 252 
L 205.28542 241.128 
" style="fill:none;stroke:#4c72b0;"/>
    <path clip-path="url(#p4ff3184f15)" d="M 168.249301 252 
L 168.249301 241.128 
" style="fill:none;stroke:#4c72b0;"/>
    <path clip-path="url(#p4ff3184f15)" d="M 182.721919 252 
L 182.721919 241.128 
" style="fill:none;stroke:#4c72b0;"/>
    <path clip-path="url(#p4ff3184f15)" d="M 261.213412 252 
L 261.213412 241.128 
" style="fill:none;stroke:#4c72b0;"/>
    <path clip-path="url(#p4ff3184f15)" d="M 184.051019 252 
L 184.051019 241.128 
" style="fill:none;stroke:#4c72b0;"/>
    <path clip-path="url(#p4ff3184f15)" d="M 168.324035 252 
L 168.324035 241.128 
" style="fill:none;stroke:#4c72b0;"/>
    <path clip-path="url(#p4ff3184f15)" d="M 205.33529 252 
L 205.33529 241.128 
" style="fill:none;stroke:#4c72b0;"/>
    <path clip-path="url(#p4ff3184f15)" d="M 186.274206 252 
L 186.274206 241.128 
" style="fill:none;stroke:#4c72b0;"/>
    <path clip-path="url(#p4ff3184f15)" d="M 292.843412 252 
L 292.843412 241.128 
" style="fill:none;stroke:#4c72b0;"/>
    <path clip-path="url(#p4ff3184f15)" d="M 215.70602 252 
L 215.70602 241.128 
" style="fill:none;stroke:#4c72b0;"/>
    <path clip-path="url(#p4ff3184f15)" d="M 204.350916 252 
L 204.350916 241.128 
" style="fill:none;stroke:#4c72b0;"/>
    <path clip-path="url(#p4ff3184f15)" d="M 272.833329 252 
L 272.833329 241.128 
" style="fill:none;stroke:#4c72b0;"/>
    <path clip-path="url(#p4ff3184f15)" d="M 213.990958 252 
L 213.990958 241.128 
" style="fill:none;stroke:#4c72b0;"/>
    <path clip-path="url(#p4ff3184f15)" d="M 227.541448 252 
L 227.541448 241.128 
" style="fill:none;stroke:#4c72b0;"/>
    <path clip-path="url(#p4ff3184f15)" d="M 279.02502 252 
L 279.02502 241.128 
" style="fill:none;stroke:#4c72b0;"/>
    <path clip-path="url(#p4ff3184f15)" d="M 153.325182 252 
L 153.325182 241.128 
" style="fill:none;stroke:#4c72b0;"/>
    <path clip-path="url(#p4ff3184f15)" d="M 250.116846 252 
L 250.116846 241.128 
" style="fill:none;stroke:#4c72b0;"/>
    <path clip-path="url(#p4ff3184f15)" d="M 205.083203 252 
L 205.083203 241.128 
" style="fill:none;stroke:#4c72b0;"/>
    <path clip-path="url(#p4ff3184f15)" d="M 215.48713 252 
L 215.48713 241.128 
" style="fill:none;stroke:#4c72b0;"/>
    <path clip-path="url(#p4ff3184f15)" d="M 169.048059 252 
L 169.048059 241.128 
" style="fill:none;stroke:#4c72b0;"/>
    <path clip-path="url(#p4ff3184f15)" d="M 286.067277 252 
L 286.067277 241.128 
" style="fill:none;stroke:#4c72b0;"/>
    <path clip-path="url(#p4ff3184f15)" d="M 200.276602 252 
L 200.276602 241.128 
" style="fill:none;stroke:#4c72b0;"/>
    <path clip-path="url(#p4ff3184f15)" d="M 192.784915 252 
L 192.784915 241.128 
" style="fill:none;stroke:#4c72b0;"/>
    <path clip-path="url(#p4ff3184f15)" d="M 200.999706 252 
L 200.999706 241.128 
" style="fill:none;stroke:#4c72b0;"/>
    <path clip-path="url(#p4ff3184f15)" d="M 206.190784 252 
L 206.190784 241.128 
" style="fill:none;stroke:#4c72b0;"/>
    <path clip-path="url(#p4ff3184f15)" d="M 213.729828 252 
L 213.729828 241.128 
" style="fill:none;stroke:#4c72b0;"/>
    <path clip-path="url(#p4ff3184f15)" d="M 195.980355 252 
L 195.980355 241.128 
" style="fill:none;stroke:#4c72b0;"/>
    <path clip-path="url(#p4ff3184f15)" d="M 199.193591 252 
L 199.193591 241.128 
" style="fill:none;stroke:#4c72b0;"/>
    <path clip-path="url(#p4ff3184f15)" d="M 209.921345 252 
L 209.921345 241.128 
" style="fill:none;stroke:#4c72b0;"/>
    <path clip-path="url(#p4ff3184f15)" d="M 293.625984 252 
L 293.625984 241.128 
" style="fill:none;stroke:#4c72b0;"/>
    <path clip-path="url(#p4ff3184f15)" d="M 191.699486 252 
L 191.699486 241.128 
" style="fill:none;stroke:#4c72b0;"/>
    <path clip-path="url(#p4ff3184f15)" d="M 174.5944 252 
L 174.5944 241.128 
" style="fill:none;stroke:#4c72b0;"/>
    <path clip-path="url(#p4ff3184f15)" d="M 182.997742 252 
L 182.997742 241.128 
" style="fill:none;stroke:#4c72b0;"/>
    <path clip-path="url(#p4ff3184f15)" d="M 216.513314 252 
L 216.513314 241.128 
" style="fill:none;stroke:#4c72b0;"/>
    <path clip-path="url(#p4ff3184f15)" d="M 192.366465 252 
L 192.366465 241.128 
" style="fill:none;stroke:#4c72b0;"/>
    <path clip-path="url(#p4ff3184f15)" d="M 195.437375 252 
L 195.437375 241.128 
" style="fill:none;stroke:#4c72b0;"/>
    <path clip-path="url(#p4ff3184f15)" d="M 165.315185 252 
L 165.315185 241.128 
" style="fill:none;stroke:#4c72b0;"/>
    <path clip-path="url(#p4ff3184f15)" d="M 230.966257 252 
L 230.966257 241.128 
" style="fill:none;stroke:#4c72b0;"/>
    <path clip-path="url(#p4ff3184f15)" d="M 198.762763 252 
L 198.762763 241.128 
" style="fill:none;stroke:#4c72b0;"/>
    <path clip-path="url(#p4ff3184f15)" d="M 211.263184 252 
L 211.263184 241.128 
" style="fill:none;stroke:#4c72b0;"/>
    <path clip-path="url(#p4ff3184f15)" d="M 216.189526 252 
L 216.189526 241.128 
" style="fill:none;stroke:#4c72b0;"/>
    <path clip-path="url(#p4ff3184f15)" d="M 114.07026 252 
L 114.07026 241.128 
" style="fill:none;stroke:#4c72b0;"/>
    <path clip-path="url(#p4ff3184f15)" d="M 230.138216 252 
L 230.138216 241.128 
" style="fill:none;stroke:#4c72b0;"/>
    <path clip-path="url(#p4ff3184f15)" d="M 212.611216 252 
L 212.611216 241.128 
" style="fill:none;stroke:#4c72b0;"/>
    <path clip-path="url(#p4ff3184f15)" d="M 184.536228 252 
L 184.536228 241.128 
" style="fill:none;stroke:#4c72b0;"/>
    <path clip-path="url(#p4ff3184f15)" d="M 213.785062 252 
L 213.785062 241.128 
" style="fill:none;stroke:#4c72b0;"/>
    <path clip-path="url(#p4ff3184f15)" d="M 267.781295 252 
L 267.781295 241.128 
" style="fill:none;stroke:#4c72b0;"/>
    <path clip-path="url(#p4ff3184f15)" d="M 233.978102 252 
L 233.978102 241.128 
" style="fill:none;stroke:#4c72b0;"/>
    <path clip-path="url(#p4ff3184f15)" d="M 216.950384 252 
L 216.950384 241.128 
" style="fill:none;stroke:#4c72b0;"/>
    <path clip-path="url(#p4ff3184f15)" d="M 198.274987 252 
L 198.274987 241.128 
" style="fill:none;stroke:#4c72b0;"/>
    <path clip-path="url(#p4ff3184f15)" d="M 191.876335 252 
L 191.876335 241.128 
" style="fill:none;stroke:#4c72b0;"/>
    <path clip-path="url(#p4ff3184f15)" d="M 225.800876 252 
L 225.800876 241.128 
" style="fill:none;stroke:#4c72b0;"/>
    <path clip-path="url(#p4ff3184f15)" d="M 189.073732 252 
L 189.073732 241.128 
" style="fill:none;stroke:#4c72b0;"/>
    <path clip-path="url(#p4ff3184f15)" d="M 284.756843 252 
L 284.756843 241.128 
" style="fill:none;stroke:#4c72b0;"/>
    <path clip-path="url(#p4ff3184f15)" d="M 213.765191 252 
L 213.765191 241.128 
" style="fill:none;stroke:#4c72b0;"/>
    <path clip-path="url(#p4ff3184f15)" d="M 230.271769 252 
L 230.271769 241.128 
" style="fill:none;stroke:#4c72b0;"/>
    <path clip-path="url(#p4ff3184f15)" d="M 208.632379 252 
L 208.632379 241.128 
" style="fill:none;stroke:#4c72b0;"/>
    <path clip-path="url(#p4ff3184f15)" d="M 179.799686 252 
L 179.799686 241.128 
" style="fill:none;stroke:#4c72b0;"/>
    <path clip-path="url(#p4ff3184f15)" d="M 228.808829 252 
L 228.808829 241.128 
" style="fill:none;stroke:#4c72b0;"/>
    <path clip-path="url(#p4ff3184f15)" d="M 229.104604 252 
L 229.104604 241.128 
" style="fill:none;stroke:#4c72b0;"/>
    <path clip-path="url(#p4ff3184f15)" d="M 181.883113 252 
L 181.883113 241.128 
" style="fill:none;stroke:#4c72b0;"/>
    <path clip-path="url(#p4ff3184f15)" d="M 203.049997 252 
L 203.049997 241.128 
" style="fill:none;stroke:#4c72b0;"/>
    <path clip-path="url(#p4ff3184f15)" d="M 227.30481 252 
L 227.30481 241.128 
" style="fill:none;stroke:#4c72b0;"/>
    <path clip-path="url(#p4ff3184f15)" d="M 211.545533 252 
L 211.545533 241.128 
" style="fill:none;stroke:#4c72b0;"/>
    <path clip-path="url(#p4ff3184f15)" d="M 248.555815 252 
L 248.555815 241.128 
" style="fill:none;stroke:#4c72b0;"/>
    <path clip-path="url(#p4ff3184f15)" d="M 212.941118 252 
L 212.941118 241.128 
" style="fill:none;stroke:#4c72b0;"/>
    <path clip-path="url(#p4ff3184f15)" d="M 219.160956 252 
L 219.160956 241.128 
" style="fill:none;stroke:#4c72b0;"/>
    <path clip-path="url(#p4ff3184f15)" d="M 187.917557 252 
L 187.917557 241.128 
" style="fill:none;stroke:#4c72b0;"/>
    <path clip-path="url(#p4ff3184f15)" d="M 139.033226 252 
L 139.033226 241.128 
" style="fill:none;stroke:#4c72b0;"/>
    <path clip-path="url(#p4ff3184f15)" d="M 198.746414 252 
L 198.746414 241.128 
" style="fill:none;stroke:#4c72b0;"/>
    <path clip-path="url(#p4ff3184f15)" d="M 256.788232 252 
L 256.788232 241.128 
" style="fill:none;stroke:#4c72b0;"/>
    <path clip-path="url(#p4ff3184f15)" d="M 181.458898 252 
L 181.458898 241.128 
" style="fill:none;stroke:#4c72b0;"/>
    <path clip-path="url(#p4ff3184f15)" d="M 216.250745 252 
L 216.250745 241.128 
" style="fill:none;stroke:#4c72b0;"/>
    <path clip-path="url(#p4ff3184f15)" d="M 216.984001 252 
L 216.984001 241.128 
" style="fill:none;stroke:#4c72b0;"/>
    <path clip-path="url(#p4ff3184f15)" d="M 196.849719 252 
L 196.849719 241.128 
" style="fill:none;stroke:#4c72b0;"/>
    <path clip-path="url(#p4ff3184f15)" d="M 244.46736 252 
L 244.46736 241.128 
" style="fill:none;stroke:#4c72b0;"/>
    <path clip-path="url(#p4ff3184f15)" d="M 266.309704 252 
L 266.309704 241.128 
" style="fill:none;stroke:#4c72b0;"/>
    <path clip-path="url(#p4ff3184f15)" d="M 217.655203 252 
L 217.655203 241.128 
" style="fill:none;stroke:#4c72b0;"/>
    <path clip-path="url(#p4ff3184f15)" d="M 169.354454 252 
L 169.354454 241.128 
" style="fill:none;stroke:#4c72b0;"/>
    <path clip-path="url(#p4ff3184f15)" d="M 200.820833 252 
L 200.820833 241.128 
" style="fill:none;stroke:#4c72b0;"/>
    <path clip-path="url(#p4ff3184f15)" d="M 213.617426 252 
L 213.617426 241.128 
" style="fill:none;stroke:#4c72b0;"/>
    <path clip-path="url(#p4ff3184f15)" d="M 197.462165 252 
L 197.462165 241.128 
" style="fill:none;stroke:#4c72b0;"/>
    <path clip-path="url(#p4ff3184f15)" d="M 221.609255 252 
L 221.609255 241.128 
" style="fill:none;stroke:#4c72b0;"/>
    <path clip-path="url(#p4ff3184f15)" d="M 231.081289 252 
L 231.081289 241.128 
" style="fill:none;stroke:#4c72b0;"/>
    <path clip-path="url(#p4ff3184f15)" d="M 198.295199 252 
L 198.295199 241.128 
" style="fill:none;stroke:#4c72b0;"/>
    <path clip-path="url(#p4ff3184f15)" d="M 184.735597 252 
L 184.735597 241.128 
" style="fill:none;stroke:#4c72b0;"/>
    <path clip-path="url(#p4ff3184f15)" d="M 194.468261 252 
L 194.468261 241.128 
" style="fill:none;stroke:#4c72b0;"/>
    <path clip-path="url(#p4ff3184f15)" d="M 290.408153 252 
L 290.408153 241.128 
" style="fill:none;stroke:#4c72b0;"/>
    <path clip-path="url(#p4ff3184f15)" d="M 244.168218 252 
L 244.168218 241.128 
" style="fill:none;stroke:#4c72b0;"/>
    <path clip-path="url(#p4ff3184f15)" d="M 187.758931 252 
L 187.758931 241.128 
" style="fill:none;stroke:#4c72b0;"/>
    <path clip-path="url(#p4ff3184f15)" d="M 233.559234 252 
L 233.559234 241.128 
" style="fill:none;stroke:#4c72b0;"/>
    <path clip-path="url(#p4ff3184f15)" d="M 193.26169 252 
L 193.26169 241.128 
" style="fill:none;stroke:#4c72b0;"/>
    <path clip-path="url(#p4ff3184f15)" d="M 202.970562 252 
L 202.970562 241.128 
" style="fill:none;stroke:#4c72b0;"/>
    <path clip-path="url(#p4ff3184f15)" d="M 247.43786 252 
L 247.43786 241.128 
" style="fill:none;stroke:#4c72b0;"/>
    <path clip-path="url(#p4ff3184f15)" d="M 231.026844 252 
L 231.026844 241.128 
" style="fill:none;stroke:#4c72b0;"/>
    <path clip-path="url(#p4ff3184f15)" d="M 335.513085 252 
L 335.513085 241.128 
" style="fill:none;stroke:#4c72b0;"/>
    <path clip-path="url(#p4ff3184f15)" d="M 184.135546 252 
L 184.135546 241.128 
" style="fill:none;stroke:#4c72b0;"/>
    <path clip-path="url(#p4ff3184f15)" d="M 190.411941 252 
L 190.411941 241.128 
" style="fill:none;stroke:#4c72b0;"/>
    <path clip-path="url(#p4ff3184f15)" d="M 158.588599 252 
L 158.588599 241.128 
" style="fill:none;stroke:#4c72b0;"/>
    <path clip-path="url(#p4ff3184f15)" d="M 232.740933 252 
L 232.740933 241.128 
" style="fill:none;stroke:#4c72b0;"/>
    <path clip-path="url(#p4ff3184f15)" d="M 184.975075 252 
L 184.975075 241.128 
" style="fill:none;stroke:#4c72b0;"/>
    <path clip-path="url(#p4ff3184f15)" d="M 188.01929 252 
L 188.01929 241.128 
" style="fill:none;stroke:#4c72b0;"/>
    <path clip-path="url(#p4ff3184f15)" d="M 158.411519 252 
L 158.411519 241.128 
" style="fill:none;stroke:#4c72b0;"/>
    <path clip-path="url(#p4ff3184f15)" d="M 261.482335 252 
L 261.482335 241.128 
" style="fill:none;stroke:#4c72b0;"/>
    <path clip-path="url(#p4ff3184f15)" d="M 182.300768 252 
L 182.300768 241.128 
" style="fill:none;stroke:#4c72b0;"/>
    <path clip-path="url(#p4ff3184f15)" d="M 339.728212 252 
L 339.728212 241.128 
" style="fill:none;stroke:#4c72b0;"/>
    <path clip-path="url(#p4ff3184f15)" d="M 237.929453 252 
L 237.929453 241.128 
" style="fill:none;stroke:#4c72b0;"/>
    <path clip-path="url(#p4ff3184f15)" d="M 188.751016 252 
L 188.751016 241.128 
" style="fill:none;stroke:#4c72b0;"/>
    <path clip-path="url(#p4ff3184f15)" d="M 192.93004 252 
L 192.93004 241.128 
" style="fill:none;stroke:#4c72b0;"/>
    <path clip-path="url(#p4ff3184f15)" d="M 282.118985 252 
L 282.118985 241.128 
" style="fill:none;stroke:#4c72b0;"/>
    <path clip-path="url(#p4ff3184f15)" d="M 174.077378 252 
L 174.077378 241.128 
" style="fill:none;stroke:#4c72b0;"/>
    <path clip-path="url(#p4ff3184f15)" d="M 206.792019 252 
L 206.792019 241.128 
" style="fill:none;stroke:#4c72b0;"/>
    <path clip-path="url(#p4ff3184f15)" d="M 253.60561 252 
L 253.60561 241.128 
" style="fill:none;stroke:#4c72b0;"/>
    <path clip-path="url(#p4ff3184f15)" d="M 210.422186 252 
L 210.422186 241.128 
" style="fill:none;stroke:#4c72b0;"/>
    <path clip-path="url(#p4ff3184f15)" d="M 230.760425 252 
L 230.760425 241.128 
" style="fill:none;stroke:#4c72b0;"/>
    <path clip-path="url(#p4ff3184f15)" d="M 234.21998 252 
L 234.21998 241.128 
" style="fill:none;stroke:#4c72b0;"/>
    <path clip-path="url(#p4ff3184f15)" d="M 234.109762 252 
L 234.109762 241.128 
" style="fill:none;stroke:#4c72b0;"/>
    <path clip-path="url(#p4ff3184f15)" d="M 217.49876 252 
L 217.49876 241.128 
" style="fill:none;stroke:#4c72b0;"/>
    <path clip-path="url(#p4ff3184f15)" d="M 232.151386 252 
L 232.151386 241.128 
" style="fill:none;stroke:#4c72b0;"/>
    <path clip-path="url(#p4ff3184f15)" d="M 176.730987 252 
L 176.730987 241.128 
" style="fill:none;stroke:#4c72b0;"/>
    <path clip-path="url(#p4ff3184f15)" d="M 198.360498 252 
L 198.360498 241.128 
" style="fill:none;stroke:#4c72b0;"/>
    <path clip-path="url(#p4ff3184f15)" d="M 204.643462 252 
L 204.643462 241.128 
" style="fill:none;stroke:#4c72b0;"/>
    <path clip-path="url(#p4ff3184f15)" d="M 207.317681 252 
L 207.317681 241.128 
" style="fill:none;stroke:#4c72b0;"/>
    <path clip-path="url(#p4ff3184f15)" d="M 211.52257 252 
L 211.52257 241.128 
" style="fill:none;stroke:#4c72b0;"/>
    <path clip-path="url(#p4ff3184f15)" d="M 221.645381 252 
L 221.645381 241.128 
" style="fill:none;stroke:#4c72b0;"/>
    <path clip-path="url(#p4ff3184f15)" d="M 235.461748 252 
L 235.461748 241.128 
" style="fill:none;stroke:#4c72b0;"/>
    <path clip-path="url(#p4ff3184f15)" d="M 213.379331 252 
L 213.379331 241.128 
" style="fill:none;stroke:#4c72b0;"/>
    <path clip-path="url(#p4ff3184f15)" d="M 261.966081 252 
L 261.966081 241.128 
" style="fill:none;stroke:#4c72b0;"/>
    <path clip-path="url(#p4ff3184f15)" d="M 171.75193 252 
L 171.75193 241.128 
" style="fill:none;stroke:#4c72b0;"/>
    <path clip-path="url(#p4ff3184f15)" d="M 178.269731 252 
L 178.269731 241.128 
" style="fill:none;stroke:#4c72b0;"/>
    <path clip-path="url(#p4ff3184f15)" d="M 295.916246 252 
L 295.916246 241.128 
" style="fill:none;stroke:#4c72b0;"/>
    <path clip-path="url(#p4ff3184f15)" d="M 214.943117 252 
L 214.943117 241.128 
" style="fill:none;stroke:#4c72b0;"/>
    <path clip-path="url(#p4ff3184f15)" d="M 207.654286 252 
L 207.654286 241.128 
" style="fill:none;stroke:#4c72b0;"/>
    <path clip-path="url(#p4ff3184f15)" d="M 207.483988 252 
L 207.483988 241.128 
" style="fill:none;stroke:#4c72b0;"/>
    <path clip-path="url(#p4ff3184f15)" d="M 189.352463 252 
L 189.352463 241.128 
" style="fill:none;stroke:#4c72b0;"/>
    <path clip-path="url(#p4ff3184f15)" d="M 229.128573 252 
L 229.128573 241.128 
" style="fill:none;stroke:#4c72b0;"/>
    <path clip-path="url(#p4ff3184f15)" d="M 199.690733 252 
L 199.690733 241.128 
" style="fill:none;stroke:#4c72b0;"/>
    <path clip-path="url(#p4ff3184f15)" d="M 216.169418 252 
L 216.169418 241.128 
" style="fill:none;stroke:#4c72b0;"/>
    <path clip-path="url(#p4ff3184f15)" d="M 229.953468 252 
L 229.953468 241.128 
" style="fill:none;stroke:#4c72b0;"/>
    <path clip-path="url(#p4ff3184f15)" d="M 192.887722 252 
L 192.887722 241.128 
" style="fill:none;stroke:#4c72b0;"/>
    <path clip-path="url(#p4ff3184f15)" d="M 201.814965 252 
L 201.814965 241.128 
" style="fill:none;stroke:#4c72b0;"/>
    <path clip-path="url(#p4ff3184f15)" d="M 201.561275 252 
L 201.561275 241.128 
" style="fill:none;stroke:#4c72b0;"/>
    <path clip-path="url(#p4ff3184f15)" d="M 273.921314 252 
L 273.921314 241.128 
" style="fill:none;stroke:#4c72b0;"/>
    <path clip-path="url(#p4ff3184f15)" d="M 207.374535 252 
L 207.374535 241.128 
" style="fill:none;stroke:#4c72b0;"/>
    <path clip-path="url(#p4ff3184f15)" d="M 144.941979 252 
L 144.941979 241.128 
" style="fill:none;stroke:#4c72b0;"/>
    <path clip-path="url(#p4ff3184f15)" d="M 211.771998 252 
L 211.771998 241.128 
" style="fill:none;stroke:#4c72b0;"/>
    <path clip-path="url(#p4ff3184f15)" d="M 252.055019 252 
L 252.055019 241.128 
" style="fill:none;stroke:#4c72b0;"/>
    <path clip-path="url(#p4ff3184f15)" d="M 219.905268 252 
L 219.905268 241.128 
" style="fill:none;stroke:#4c72b0;"/>
    <path clip-path="url(#p4ff3184f15)" d="M 156.779335 252 
L 156.779335 241.128 
" style="fill:none;stroke:#4c72b0;"/>
    <path clip-path="url(#p4ff3184f15)" d="M 186.350378 252 
L 186.350378 241.128 
" style="fill:none;stroke:#4c72b0;"/>
    <path clip-path="url(#p4ff3184f15)" d="M 208.398172 252 
L 208.398172 241.128 
" style="fill:none;stroke:#4c72b0;"/>
    <path clip-path="url(#p4ff3184f15)" d="M 278.932818 252 
L 278.932818 241.128 
" style="fill:none;stroke:#4c72b0;"/>
    <path clip-path="url(#p4ff3184f15)" d="M 160.809437 252 
L 160.809437 241.128 
" style="fill:none;stroke:#4c72b0;"/>
    <path clip-path="url(#p4ff3184f15)" d="M 195.043042 252 
L 195.043042 241.128 
" style="fill:none;stroke:#4c72b0;"/>
    <path clip-path="url(#p4ff3184f15)" d="M 198.033302 252 
L 198.033302 241.128 
" style="fill:none;stroke:#4c72b0;"/>
    <path clip-path="url(#p4ff3184f15)" d="M 237.497003 252 
L 237.497003 241.128 
" style="fill:none;stroke:#4c72b0;"/>
    <path clip-path="url(#p4ff3184f15)" d="M 219.886621 252 
L 219.886621 241.128 
" style="fill:none;stroke:#4c72b0;"/>
    <path clip-path="url(#p4ff3184f15)" d="M 195.233596 252 
L 195.233596 241.128 
" style="fill:none;stroke:#4c72b0;"/>
    <path clip-path="url(#p4ff3184f15)" d="M 192.833654 252 
L 192.833654 241.128 
" style="fill:none;stroke:#4c72b0;"/>
    <path clip-path="url(#p4ff3184f15)" d="M 188.526003 252 
L 188.526003 241.128 
" style="fill:none;stroke:#4c72b0;"/>
    <path clip-path="url(#p4ff3184f15)" d="M 177.065191 252 
L 177.065191 241.128 
" style="fill:none;stroke:#4c72b0;"/>
    <path clip-path="url(#p4ff3184f15)" d="M 173.064774 252 
L 173.064774 241.128 
" style="fill:none;stroke:#4c72b0;"/>
    <path clip-path="url(#p4ff3184f15)" d="M 103.071788 252 
L 103.071788 241.128 
" style="fill:none;stroke:#4c72b0;"/>
    <path clip-path="url(#p4ff3184f15)" d="M 148.857411 252 
L 148.857411 241.128 
" style="fill:none;stroke:#4c72b0;"/>
    <path clip-path="url(#p4ff3184f15)" d="M 173.680971 252 
L 173.680971 241.128 
" style="fill:none;stroke:#4c72b0;"/>
    <path clip-path="url(#p4ff3184f15)" d="M 159.924193 252 
L 159.924193 241.128 
" style="fill:none;stroke:#4c72b0;"/>
    <path clip-path="url(#p4ff3184f15)" d="M 195.80897 252 
L 195.80897 241.128 
" style="fill:none;stroke:#4c72b0;"/>
    <path clip-path="url(#p4ff3184f15)" d="M 299.547689 252 
L 299.547689 241.128 
" style="fill:none;stroke:#4c72b0;"/>
    <path clip-path="url(#p4ff3184f15)" d="M 265.352087 252 
L 265.352087 241.128 
" style="fill:none;stroke:#4c72b0;"/>
    <path clip-path="url(#p4ff3184f15)" d="M 203.874434 252 
L 203.874434 241.128 
" style="fill:none;stroke:#4c72b0;"/>
    <path clip-path="url(#p4ff3184f15)" d="M 259.937391 252 
L 259.937391 241.128 
" style="fill:none;stroke:#4c72b0;"/>
    <path clip-path="url(#p4ff3184f15)" d="M 220.187963 252 
L 220.187963 241.128 
" style="fill:none;stroke:#4c72b0;"/>
    <path clip-path="url(#p4ff3184f15)" d="M 228.501128 252 
L 228.501128 241.128 
" style="fill:none;stroke:#4c72b0;"/>
    <path clip-path="url(#p4ff3184f15)" d="M 175.879145 252 
L 175.879145 241.128 
" style="fill:none;stroke:#4c72b0;"/>
    <path clip-path="url(#p4ff3184f15)" d="M 242.627978 252 
L 242.627978 241.128 
" style="fill:none;stroke:#4c72b0;"/>
    <path clip-path="url(#p4ff3184f15)" d="M 223.227959 252 
L 223.227959 241.128 
" style="fill:none;stroke:#4c72b0;"/>
    <path clip-path="url(#p4ff3184f15)" d="M 248.403802 252 
L 248.403802 241.128 
" style="fill:none;stroke:#4c72b0;"/>
    <path clip-path="url(#p4ff3184f15)" d="M 164.25541 252 
L 164.25541 241.128 
" style="fill:none;stroke:#4c72b0;"/>
    <path clip-path="url(#p4ff3184f15)" d="M 221.246126 252 
L 221.246126 241.128 
" style="fill:none;stroke:#4c72b0;"/>
    <path clip-path="url(#p4ff3184f15)" d="M 173.478644 252 
L 173.478644 241.128 
" style="fill:none;stroke:#4c72b0;"/>
    <path clip-path="url(#p4ff3184f15)" d="M 200.063319 252 
L 200.063319 241.128 
" style="fill:none;stroke:#4c72b0;"/>
    <path clip-path="url(#p4ff3184f15)" d="M 193.814628 252 
L 193.814628 241.128 
" style="fill:none;stroke:#4c72b0;"/>
    <path clip-path="url(#p4ff3184f15)" d="M 235.498584 252 
L 235.498584 241.128 
" style="fill:none;stroke:#4c72b0;"/>
    <path clip-path="url(#p4ff3184f15)" d="M 184.808905 252 
L 184.808905 241.128 
" style="fill:none;stroke:#4c72b0;"/>
    <path clip-path="url(#p4ff3184f15)" d="M 216.740532 252 
L 216.740532 241.128 
" style="fill:none;stroke:#4c72b0;"/>
    <path clip-path="url(#p4ff3184f15)" d="M 187.181459 252 
L 187.181459 241.128 
" style="fill:none;stroke:#4c72b0;"/>
    <path clip-path="url(#p4ff3184f15)" d="M 198.407356 252 
L 198.407356 241.128 
" style="fill:none;stroke:#4c72b0;"/>
    <path clip-path="url(#p4ff3184f15)" d="M 209.50208 252 
L 209.50208 241.128 
" style="fill:none;stroke:#4c72b0;"/>
    <path clip-path="url(#p4ff3184f15)" d="M 276.010616 252 
L 276.010616 241.128 
" style="fill:none;stroke:#4c72b0;"/>
    <path clip-path="url(#p4ff3184f15)" d="M 213.490611 252 
L 213.490611 241.128 
" style="fill:none;stroke:#4c72b0;"/>
    <path clip-path="url(#p4ff3184f15)" d="M 218.201663 252 
L 218.201663 241.128 
" style="fill:none;stroke:#4c72b0;"/>
    <path clip-path="url(#p4ff3184f15)" d="M 180.701036 252 
L 180.701036 241.128 
" style="fill:none;stroke:#4c72b0;"/>
    <path clip-path="url(#p4ff3184f15)" d="M 281.896068 252 
L 281.896068 241.128 
" style="fill:none;stroke:#4c72b0;"/>
    <path clip-path="url(#p4ff3184f15)" d="M 308.202467 252 
L 308.202467 241.128 
" style="fill:none;stroke:#4c72b0;"/>
    <path clip-path="url(#p4ff3184f15)" d="M 195.095407 252 
L 195.095407 241.128 
" style="fill:none;stroke:#4c72b0;"/>
    <path clip-path="url(#p4ff3184f15)" d="M 179.435919 252 
L 179.435919 241.128 
" style="fill:none;stroke:#4c72b0;"/>
    <path clip-path="url(#p4ff3184f15)" d="M 144.532156 252 
L 144.532156 241.128 
" style="fill:none;stroke:#4c72b0;"/>
    <path clip-path="url(#p4ff3184f15)" d="M 162.334886 252 
L 162.334886 241.128 
" style="fill:none;stroke:#4c72b0;"/>
    <path clip-path="url(#p4ff3184f15)" d="M 211.839197 252 
L 211.839197 241.128 
" style="fill:none;stroke:#4c72b0;"/>
    <path clip-path="url(#p4ff3184f15)" d="M 235.420926 252 
L 235.420926 241.128 
" style="fill:none;stroke:#4c72b0;"/>
   </g>
   <g id="line2d_9">
    <path clip-path="url(#p4ff3184f15)" d="M 69.218182 251.946508 
L 76.407874 251.817287 
L 81.201002 251.541051 
L 85.99413 251.012175 
L 90.787258 250.186248 
L 102.770079 247.689235 
L 105.166643 247.376756 
L 107.563207 247.19029 
L 112.356335 247.178083 
L 119.546027 247.457831 
L 121.942591 247.352871 
L 124.339155 247.013402 
L 126.735719 246.368444 
L 129.132283 245.364891 
L 131.528848 243.971694 
L 133.925412 242.179695 
L 136.321976 239.997075 
L 138.71854 237.44158 
L 141.115104 234.531552 
L 143.511668 231.278135 
L 145.908232 227.68041 
L 148.304796 223.724078 
L 150.70136 219.382988 
L 153.097924 214.621916 
L 155.494488 209.399072 
L 157.891052 203.667656 
L 160.287616 197.377076 
L 162.68418 190.475444 
L 165.080744 182.915141 
L 167.477309 174.662384 
L 169.873873 165.710226 
L 172.270437 156.092811 
L 177.063565 135.272488 
L 184.253257 103.109956 
L 186.649821 93.219706 
L 189.046385 84.206204 
L 191.442949 76.293679 
L 193.839513 69.647555 
L 196.236077 64.372254 
L 198.632641 60.521302 
L 201.029205 58.115843 
L 203.42577 57.164185 
L 205.822334 57.673947 
L 208.218898 59.650934 
L 210.615462 63.084521 
L 213.012026 67.926 
L 215.40859 74.070645 
L 217.805154 81.353615 
L 220.201718 89.56399 
L 222.598282 98.472683 
L 227.39141 117.551031 
L 236.977666 156.461228 
L 239.37423 165.485954 
L 241.770795 173.869079 
L 244.167359 181.43487 
L 246.563923 188.053836 
L 248.960487 193.664345 
L 251.357051 198.27928 
L 253.753615 201.976943 
L 256.150179 204.880603 
L 258.546743 207.133719 
L 260.943307 208.877776 
L 263.339871 210.237514 
L 265.736435 211.315309 
L 268.132999 212.193612 
L 272.926127 213.627279 
L 277.719256 215.079769 
L 280.11582 215.989219 
L 282.512384 217.108648 
L 284.908948 218.487651 
L 287.305512 220.154477 
L 289.702076 222.111947 
L 292.09864 224.33663 
L 296.891768 229.378744 
L 304.08146 237.271625 
L 306.478024 239.659605 
L 308.874588 241.80601 
L 311.271152 243.657525 
L 313.667717 245.176194 
L 316.064281 246.340741 
L 318.460845 247.148138 
L 320.857409 247.615485 
L 323.253973 247.781494 
L 325.650537 247.70638 
L 330.443665 247.159094 
L 335.236793 246.680153 
L 337.633357 246.651763 
L 340.029921 246.813673 
L 342.426485 247.163382 
L 347.219613 248.28164 
L 354.409306 250.175705 
L 359.202434 251.084211 
L 363.995562 251.61245 
L 368.78869 251.858625 
L 373.581818 251.942132 
L 373.581818 251.942132 
" style="fill:none;stroke:#4c72b0;stroke-linecap:round;stroke-width:1.5;"/>
   </g>
   <g id="patch_20">
    <path d="M 54 252 
L 54 34.56 
" style="fill:none;stroke:#cccccc;stroke-linecap:square;stroke-linejoin:miter;stroke-width:1.25;"/>
   </g>
   <g id="patch_21">
    <path d="M 388.8 252 
L 388.8 34.56 
" style="fill:none;stroke:#cccccc;stroke-linecap:square;stroke-linejoin:miter;stroke-width:1.25;"/>
   </g>
   <g id="patch_22">
    <path d="M 54 252 
L 388.8 252 
" style="fill:none;stroke:#cccccc;stroke-linecap:square;stroke-linejoin:miter;stroke-width:1.25;"/>
   </g>
   <g id="patch_23">
    <path d="M 54 34.56 
L 388.8 34.56 
" style="fill:none;stroke:#cccccc;stroke-linecap:square;stroke-linejoin:miter;stroke-width:1.25;"/>
   </g>
  </g>
 </g>
 <defs>
  <clipPath id="p4ff3184f15">
   <rect height="217.44" width="334.8" x="54" y="34.56"/>
  </clipPath>
 </defs>
</svg>
