<?xml version="1.0" encoding="utf-8" standalone="no"?>
<!DOCTYPE svg PUBLIC "-//W3C//DTD SVG 1.1//EN"
  "http://www.w3.org/Graphics/SVG/1.1/DTD/svg11.dtd">
<!-- Created with matplotlib (https://matplotlib.org/) -->
<svg height="720pt" version="1.1" viewBox="0 0 1152 720" width="1152pt" xmlns="http://www.w3.org/2000/svg" xmlns:xlink="http://www.w3.org/1999/xlink">
 <defs>
  <style type="text/css">
*{stroke-linecap:butt;stroke-linejoin:round;}
  </style>
 </defs>
 <g id="figure_1">
  <g id="patch_1">
   <path d="M 0 720 
L 1152 720 
L 1152 0 
L 0 0 
z
" style="fill:#ffffff;"/>
  </g>
  <g id="axes_1">
   <g id="patch_2">
    <path d="M 144 630 
L 1036.8 630 
L 1036.8 86.4 
L 144 86.4 
z
" style="fill:#ffffff;"/>
   </g>
   <g id="matplotlib.axis_1">
    <g id="xtick_1">
     <g id="line2d_1">
      <path clip-path="url(#pfaf47fdc8d)" d="M 239.400973 630 
L 239.400973 86.4 
" style="fill:none;stroke:#cccccc;stroke-linecap:round;"/>
     </g>
     <g id="line2d_2"/>
     <g id="text_1">
      <!-- 0.050 -->
      <defs>
       <path d="M 4.15625 35.296875 
Q 4.15625 48 6.765625 55.734375 
Q 9.375 63.484375 14.515625 67.671875 
Q 19.671875 71.875 27.484375 71.875 
Q 33.25 71.875 37.59375 69.546875 
Q 41.9375 67.234375 44.765625 62.859375 
Q 47.609375 58.5 49.21875 52.21875 
Q 50.828125 45.953125 50.828125 35.296875 
Q 50.828125 22.703125 48.234375 14.96875 
Q 45.65625 7.234375 40.5 3 
Q 35.359375 -1.21875 27.484375 -1.21875 
Q 17.140625 -1.21875 11.234375 6.203125 
Q 4.15625 15.140625 4.15625 35.296875 
z
M 13.1875 35.296875 
Q 13.1875 17.671875 17.3125 11.828125 
Q 21.4375 6 27.484375 6 
Q 33.546875 6 37.671875 11.859375 
Q 41.796875 17.71875 41.796875 35.296875 
Q 41.796875 52.984375 37.671875 58.78125 
Q 33.546875 64.59375 27.390625 64.59375 
Q 21.34375 64.59375 17.71875 59.46875 
Q 13.1875 52.9375 13.1875 35.296875 
z
" id="ArialMT-48"/>
       <path d="M 9.078125 0 
L 9.078125 10.015625 
L 19.09375 10.015625 
L 19.09375 0 
z
" id="ArialMT-46"/>
       <path d="M 4.15625 18.75 
L 13.375 19.53125 
Q 14.40625 12.796875 18.140625 9.390625 
Q 21.875 6 27.15625 6 
Q 33.5 6 37.890625 10.78125 
Q 42.28125 15.578125 42.28125 23.484375 
Q 42.28125 31 38.0625 35.34375 
Q 33.84375 39.703125 27 39.703125 
Q 22.75 39.703125 19.328125 37.765625 
Q 15.921875 35.84375 13.96875 32.765625 
L 5.71875 33.84375 
L 12.640625 70.609375 
L 48.25 70.609375 
L 48.25 62.203125 
L 19.671875 62.203125 
L 15.828125 42.96875 
Q 22.265625 47.46875 29.34375 47.46875 
Q 38.71875 47.46875 45.15625 40.96875 
Q 51.609375 34.46875 51.609375 24.265625 
Q 51.609375 14.546875 45.953125 7.46875 
Q 39.0625 -1.21875 27.15625 -1.21875 
Q 17.390625 -1.21875 11.203125 4.25 
Q 5.03125 9.71875 4.15625 18.75 
z
" id="ArialMT-53"/>
      </defs>
      <g style="fill:#262626;" transform="translate(214.379098 651.315625)scale(0.2 -0.2)">
       <use xlink:href="#ArialMT-48"/>
       <use x="55.615234" xlink:href="#ArialMT-46"/>
       <use x="83.398438" xlink:href="#ArialMT-48"/>
       <use x="139.013672" xlink:href="#ArialMT-53"/>
       <use x="194.628906" xlink:href="#ArialMT-48"/>
      </g>
     </g>
    </g>
    <g id="xtick_2">
     <g id="line2d_3">
      <path clip-path="url(#pfaf47fdc8d)" d="M 342.015191 630 
L 342.015191 86.4 
" style="fill:none;stroke:#cccccc;stroke-linecap:round;"/>
     </g>
     <g id="line2d_4"/>
     <g id="text_2">
      <!-- 0.075 -->
      <defs>
       <path d="M 4.734375 62.203125 
L 4.734375 70.65625 
L 51.078125 70.65625 
L 51.078125 63.8125 
Q 44.234375 56.546875 37.515625 44.484375 
Q 30.8125 32.421875 27.15625 19.671875 
Q 24.515625 10.6875 23.78125 0 
L 14.75 0 
Q 14.890625 8.453125 18.0625 20.40625 
Q 21.234375 32.375 27.171875 43.484375 
Q 33.109375 54.59375 39.796875 62.203125 
z
" id="ArialMT-55"/>
      </defs>
      <g style="fill:#262626;" transform="translate(316.993316 651.315625)scale(0.2 -0.2)">
       <use xlink:href="#ArialMT-48"/>
       <use x="55.615234" xlink:href="#ArialMT-46"/>
       <use x="83.398438" xlink:href="#ArialMT-48"/>
       <use x="139.013672" xlink:href="#ArialMT-55"/>
       <use x="194.628906" xlink:href="#ArialMT-53"/>
      </g>
     </g>
    </g>
    <g id="xtick_3">
     <g id="line2d_5">
      <path clip-path="url(#pfaf47fdc8d)" d="M 444.629409 630 
L 444.629409 86.4 
" style="fill:none;stroke:#cccccc;stroke-linecap:round;"/>
     </g>
     <g id="line2d_6"/>
     <g id="text_3">
      <!-- 0.100 -->
      <defs>
       <path d="M 37.25 0 
L 28.46875 0 
L 28.46875 56 
Q 25.296875 52.984375 20.140625 49.953125 
Q 14.984375 46.921875 10.890625 45.40625 
L 10.890625 53.90625 
Q 18.265625 57.375 23.78125 62.296875 
Q 29.296875 67.234375 31.59375 71.875 
L 37.25 71.875 
z
" id="ArialMT-49"/>
      </defs>
      <g style="fill:#262626;" transform="translate(419.607534 651.315625)scale(0.2 -0.2)">
       <use xlink:href="#ArialMT-48"/>
       <use x="55.615234" xlink:href="#ArialMT-46"/>
       <use x="83.398438" xlink:href="#ArialMT-49"/>
       <use x="139.013672" xlink:href="#ArialMT-48"/>
       <use x="194.628906" xlink:href="#ArialMT-48"/>
      </g>
     </g>
    </g>
    <g id="xtick_4">
     <g id="line2d_7">
      <path clip-path="url(#pfaf47fdc8d)" d="M 547.243627 630 
L 547.243627 86.4 
" style="fill:none;stroke:#cccccc;stroke-linecap:round;"/>
     </g>
     <g id="line2d_8"/>
     <g id="text_4">
      <!-- 0.125 -->
      <defs>
       <path d="M 50.34375 8.453125 
L 50.34375 0 
L 3.03125 0 
Q 2.9375 3.171875 4.046875 6.109375 
Q 5.859375 10.9375 9.828125 15.625 
Q 13.8125 20.3125 21.34375 26.46875 
Q 33.015625 36.03125 37.109375 41.625 
Q 41.21875 47.21875 41.21875 52.203125 
Q 41.21875 57.421875 37.46875 61 
Q 33.734375 64.59375 27.734375 64.59375 
Q 21.390625 64.59375 17.578125 60.78125 
Q 13.765625 56.984375 13.71875 50.25 
L 4.6875 51.171875 
Q 5.609375 61.28125 11.65625 66.578125 
Q 17.71875 71.875 27.9375 71.875 
Q 38.234375 71.875 44.234375 66.15625 
Q 50.25 60.453125 50.25 52 
Q 50.25 47.703125 48.484375 43.546875 
Q 46.734375 39.40625 42.65625 34.8125 
Q 38.578125 30.21875 29.109375 22.21875 
Q 21.1875 15.578125 18.9375 13.203125 
Q 16.703125 10.84375 15.234375 8.453125 
z
" id="ArialMT-50"/>
      </defs>
      <g style="fill:#262626;" transform="translate(522.221752 651.315625)scale(0.2 -0.2)">
       <use xlink:href="#ArialMT-48"/>
       <use x="55.615234" xlink:href="#ArialMT-46"/>
       <use x="83.398438" xlink:href="#ArialMT-49"/>
       <use x="139.013672" xlink:href="#ArialMT-50"/>
       <use x="194.628906" xlink:href="#ArialMT-53"/>
      </g>
     </g>
    </g>
    <g id="xtick_5">
     <g id="line2d_9">
      <path clip-path="url(#pfaf47fdc8d)" d="M 649.857845 630 
L 649.857845 86.4 
" style="fill:none;stroke:#cccccc;stroke-linecap:round;"/>
     </g>
     <g id="line2d_10"/>
     <g id="text_5">
      <!-- 0.150 -->
      <g style="fill:#262626;" transform="translate(624.83597 651.315625)scale(0.2 -0.2)">
       <use xlink:href="#ArialMT-48"/>
       <use x="55.615234" xlink:href="#ArialMT-46"/>
       <use x="83.398438" xlink:href="#ArialMT-49"/>
       <use x="139.013672" xlink:href="#ArialMT-53"/>
       <use x="194.628906" xlink:href="#ArialMT-48"/>
      </g>
     </g>
    </g>
    <g id="xtick_6">
     <g id="line2d_11">
      <path clip-path="url(#pfaf47fdc8d)" d="M 752.472063 630 
L 752.472063 86.4 
" style="fill:none;stroke:#cccccc;stroke-linecap:round;"/>
     </g>
     <g id="line2d_12"/>
     <g id="text_6">
      <!-- 0.175 -->
      <g style="fill:#262626;" transform="translate(727.450188 651.315625)scale(0.2 -0.2)">
       <use xlink:href="#ArialMT-48"/>
       <use x="55.615234" xlink:href="#ArialMT-46"/>
       <use x="83.398438" xlink:href="#ArialMT-49"/>
       <use x="139.013672" xlink:href="#ArialMT-55"/>
       <use x="194.628906" xlink:href="#ArialMT-53"/>
      </g>
     </g>
    </g>
    <g id="xtick_7">
     <g id="line2d_13">
      <path clip-path="url(#pfaf47fdc8d)" d="M 855.08628 630 
L 855.08628 86.4 
" style="fill:none;stroke:#cccccc;stroke-linecap:round;"/>
     </g>
     <g id="line2d_14"/>
     <g id="text_7">
      <!-- 0.200 -->
      <g style="fill:#262626;" transform="translate(830.064405 651.315625)scale(0.2 -0.2)">
       <use xlink:href="#ArialMT-48"/>
       <use x="55.615234" xlink:href="#ArialMT-46"/>
       <use x="83.398438" xlink:href="#ArialMT-50"/>
       <use x="139.013672" xlink:href="#ArialMT-48"/>
       <use x="194.628906" xlink:href="#ArialMT-48"/>
      </g>
     </g>
    </g>
    <g id="xtick_8">
     <g id="line2d_15">
      <path clip-path="url(#pfaf47fdc8d)" d="M 957.700498 630 
L 957.700498 86.4 
" style="fill:none;stroke:#cccccc;stroke-linecap:round;"/>
     </g>
     <g id="line2d_16"/>
     <g id="text_8">
      <!-- 0.225 -->
      <g style="fill:#262626;" transform="translate(932.678623 651.315625)scale(0.2 -0.2)">
       <use xlink:href="#ArialMT-48"/>
       <use x="55.615234" xlink:href="#ArialMT-46"/>
       <use x="83.398438" xlink:href="#ArialMT-50"/>
       <use x="139.013672" xlink:href="#ArialMT-50"/>
       <use x="194.628906" xlink:href="#ArialMT-53"/>
      </g>
     </g>
    </g>
    <g id="text_9">
     <!-- Simulation Result -->
     <defs>
      <path d="M 4.5 23 
L 13.421875 23.78125 
Q 14.0625 18.40625 16.375 14.96875 
Q 18.703125 11.53125 23.578125 9.40625 
Q 28.46875 7.28125 34.578125 7.28125 
Q 39.984375 7.28125 44.140625 8.890625 
Q 48.296875 10.5 50.3125 13.296875 
Q 52.34375 16.109375 52.34375 19.4375 
Q 52.34375 22.796875 50.390625 25.3125 
Q 48.4375 27.828125 43.953125 29.546875 
Q 41.0625 30.671875 31.203125 33.03125 
Q 21.34375 35.40625 17.390625 37.5 
Q 12.25 40.1875 9.734375 44.15625 
Q 7.234375 48.140625 7.234375 53.078125 
Q 7.234375 58.5 10.296875 63.203125 
Q 13.375 67.921875 19.28125 70.359375 
Q 25.203125 72.796875 32.421875 72.796875 
Q 40.375 72.796875 46.453125 70.234375 
Q 52.546875 67.671875 55.8125 62.6875 
Q 59.078125 57.71875 59.328125 51.421875 
L 50.25 50.734375 
Q 49.515625 57.515625 45.28125 60.984375 
Q 41.0625 64.453125 32.8125 64.453125 
Q 24.21875 64.453125 20.28125 61.296875 
Q 16.359375 58.15625 16.359375 53.71875 
Q 16.359375 49.859375 19.140625 47.359375 
Q 21.875 44.875 33.421875 42.265625 
Q 44.96875 39.65625 49.265625 37.703125 
Q 55.515625 34.8125 58.484375 30.390625 
Q 61.46875 25.984375 61.46875 20.21875 
Q 61.46875 14.5 58.203125 9.4375 
Q 54.9375 4.390625 48.796875 1.578125 
Q 42.671875 -1.21875 35.015625 -1.21875 
Q 25.296875 -1.21875 18.71875 1.609375 
Q 12.15625 4.4375 8.421875 10.125 
Q 4.6875 15.828125 4.5 23 
z
" id="ArialMT-83"/>
      <path d="M 6.640625 61.46875 
L 6.640625 71.578125 
L 15.4375 71.578125 
L 15.4375 61.46875 
z
M 6.640625 0 
L 6.640625 51.859375 
L 15.4375 51.859375 
L 15.4375 0 
z
" id="ArialMT-105"/>
      <path d="M 6.59375 0 
L 6.59375 51.859375 
L 14.453125 51.859375 
L 14.453125 44.578125 
Q 16.890625 48.390625 20.9375 50.703125 
Q 25 53.03125 30.171875 53.03125 
Q 35.9375 53.03125 39.625 50.640625 
Q 43.3125 48.25 44.828125 43.953125 
Q 50.984375 53.03125 60.84375 53.03125 
Q 68.5625 53.03125 72.703125 48.75 
Q 76.859375 44.484375 76.859375 35.59375 
L 76.859375 0 
L 68.109375 0 
L 68.109375 32.671875 
Q 68.109375 37.9375 67.25 40.25 
Q 66.40625 42.578125 64.15625 43.984375 
Q 61.921875 45.40625 58.890625 45.40625 
Q 53.421875 45.40625 49.796875 41.765625 
Q 46.1875 38.140625 46.1875 30.125 
L 46.1875 0 
L 37.40625 0 
L 37.40625 33.6875 
Q 37.40625 39.546875 35.25 42.46875 
Q 33.109375 45.40625 28.21875 45.40625 
Q 24.515625 45.40625 21.359375 43.453125 
Q 18.21875 41.5 16.796875 37.734375 
Q 15.375 33.984375 15.375 26.90625 
L 15.375 0 
z
" id="ArialMT-109"/>
      <path d="M 40.578125 0 
L 40.578125 7.625 
Q 34.515625 -1.171875 24.125 -1.171875 
Q 19.53125 -1.171875 15.546875 0.578125 
Q 11.578125 2.34375 9.640625 5 
Q 7.71875 7.671875 6.9375 11.53125 
Q 6.390625 14.109375 6.390625 19.734375 
L 6.390625 51.859375 
L 15.1875 51.859375 
L 15.1875 23.09375 
Q 15.1875 16.21875 15.71875 13.8125 
Q 16.546875 10.359375 19.234375 8.375 
Q 21.921875 6.390625 25.875 6.390625 
Q 29.828125 6.390625 33.296875 8.421875 
Q 36.765625 10.453125 38.203125 13.9375 
Q 39.65625 17.4375 39.65625 24.078125 
L 39.65625 51.859375 
L 48.4375 51.859375 
L 48.4375 0 
z
" id="ArialMT-117"/>
      <path d="M 6.390625 0 
L 6.390625 71.578125 
L 15.1875 71.578125 
L 15.1875 0 
z
" id="ArialMT-108"/>
      <path d="M 40.4375 6.390625 
Q 35.546875 2.25 31.03125 0.53125 
Q 26.515625 -1.171875 21.34375 -1.171875 
Q 12.796875 -1.171875 8.203125 3 
Q 3.609375 7.171875 3.609375 13.671875 
Q 3.609375 17.484375 5.34375 20.625 
Q 7.078125 23.78125 9.890625 25.6875 
Q 12.703125 27.59375 16.21875 28.5625 
Q 18.796875 29.25 24.03125 29.890625 
Q 34.671875 31.15625 39.703125 32.90625 
Q 39.75 34.71875 39.75 35.203125 
Q 39.75 40.578125 37.25 42.78125 
Q 33.890625 45.75 27.25 45.75 
Q 21.046875 45.75 18.09375 43.578125 
Q 15.140625 41.40625 13.71875 35.890625 
L 5.125 37.0625 
Q 6.296875 42.578125 8.984375 45.96875 
Q 11.671875 49.359375 16.75 51.1875 
Q 21.828125 53.03125 28.515625 53.03125 
Q 35.15625 53.03125 39.296875 51.46875 
Q 43.453125 49.90625 45.40625 47.53125 
Q 47.359375 45.171875 48.140625 41.546875 
Q 48.578125 39.3125 48.578125 33.453125 
L 48.578125 21.734375 
Q 48.578125 9.46875 49.140625 6.21875 
Q 49.703125 2.984375 51.375 0 
L 42.1875 0 
Q 40.828125 2.734375 40.4375 6.390625 
z
M 39.703125 26.03125 
Q 34.90625 24.078125 25.34375 22.703125 
Q 19.921875 21.921875 17.671875 20.9375 
Q 15.4375 19.96875 14.203125 18.09375 
Q 12.984375 16.21875 12.984375 13.921875 
Q 12.984375 10.40625 15.640625 8.0625 
Q 18.3125 5.71875 23.4375 5.71875 
Q 28.515625 5.71875 32.46875 7.9375 
Q 36.421875 10.15625 38.28125 14.015625 
Q 39.703125 17 39.703125 22.796875 
z
" id="ArialMT-97"/>
      <path d="M 25.78125 7.859375 
L 27.046875 0.09375 
Q 23.34375 -0.6875 20.40625 -0.6875 
Q 15.625 -0.6875 12.984375 0.828125 
Q 10.359375 2.34375 9.28125 4.8125 
Q 8.203125 7.28125 8.203125 15.1875 
L 8.203125 45.015625 
L 1.765625 45.015625 
L 1.765625 51.859375 
L 8.203125 51.859375 
L 8.203125 64.703125 
L 16.9375 69.96875 
L 16.9375 51.859375 
L 25.78125 51.859375 
L 25.78125 45.015625 
L 16.9375 45.015625 
L 16.9375 14.703125 
Q 16.9375 10.9375 17.40625 9.859375 
Q 17.875 8.796875 18.921875 8.15625 
Q 19.96875 7.515625 21.921875 7.515625 
Q 23.390625 7.515625 25.78125 7.859375 
z
" id="ArialMT-116"/>
      <path d="M 3.328125 25.921875 
Q 3.328125 40.328125 11.328125 47.265625 
Q 18.015625 53.03125 27.640625 53.03125 
Q 38.328125 53.03125 45.109375 46.015625 
Q 51.90625 39.015625 51.90625 26.65625 
Q 51.90625 16.65625 48.90625 10.90625 
Q 45.90625 5.171875 40.15625 2 
Q 34.421875 -1.171875 27.640625 -1.171875 
Q 16.75 -1.171875 10.03125 5.8125 
Q 3.328125 12.796875 3.328125 25.921875 
z
M 12.359375 25.921875 
Q 12.359375 15.96875 16.703125 11.015625 
Q 21.046875 6.0625 27.640625 6.0625 
Q 34.1875 6.0625 38.53125 11.03125 
Q 42.875 16.015625 42.875 26.21875 
Q 42.875 35.84375 38.5 40.796875 
Q 34.125 45.75 27.640625 45.75 
Q 21.046875 45.75 16.703125 40.8125 
Q 12.359375 35.890625 12.359375 25.921875 
z
" id="ArialMT-111"/>
      <path d="M 6.59375 0 
L 6.59375 51.859375 
L 14.5 51.859375 
L 14.5 44.484375 
Q 20.21875 53.03125 31 53.03125 
Q 35.6875 53.03125 39.625 51.34375 
Q 43.5625 49.65625 45.515625 46.921875 
Q 47.46875 44.1875 48.25 40.4375 
Q 48.734375 37.984375 48.734375 31.890625 
L 48.734375 0 
L 39.9375 0 
L 39.9375 31.546875 
Q 39.9375 36.921875 38.90625 39.578125 
Q 37.890625 42.234375 35.28125 43.8125 
Q 32.671875 45.40625 29.15625 45.40625 
Q 23.53125 45.40625 19.453125 41.84375 
Q 15.375 38.28125 15.375 28.328125 
L 15.375 0 
z
" id="ArialMT-110"/>
      <path id="ArialMT-32"/>
      <path d="M 7.859375 0 
L 7.859375 71.578125 
L 39.59375 71.578125 
Q 49.171875 71.578125 54.140625 69.640625 
Q 59.125 67.71875 62.109375 62.828125 
Q 65.09375 57.953125 65.09375 52.046875 
Q 65.09375 44.4375 60.15625 39.203125 
Q 55.21875 33.984375 44.921875 32.5625 
Q 48.6875 30.765625 50.640625 29 
Q 54.78125 25.203125 58.5 19.484375 
L 70.953125 0 
L 59.03125 0 
L 49.5625 14.890625 
Q 45.40625 21.34375 42.71875 24.75 
Q 40.046875 28.171875 37.921875 29.53125 
Q 35.796875 30.90625 33.59375 31.453125 
Q 31.984375 31.78125 28.328125 31.78125 
L 17.328125 31.78125 
L 17.328125 0 
z
M 17.328125 39.984375 
L 37.703125 39.984375 
Q 44.1875 39.984375 47.84375 41.328125 
Q 51.515625 42.671875 53.421875 45.625 
Q 55.328125 48.578125 55.328125 52.046875 
Q 55.328125 57.125 51.640625 60.390625 
Q 47.953125 63.671875 39.984375 63.671875 
L 17.328125 63.671875 
z
" id="ArialMT-82"/>
      <path d="M 42.09375 16.703125 
L 51.171875 15.578125 
Q 49.03125 7.625 43.21875 3.21875 
Q 37.40625 -1.171875 28.375 -1.171875 
Q 17 -1.171875 10.328125 5.828125 
Q 3.65625 12.84375 3.65625 25.484375 
Q 3.65625 38.578125 10.390625 45.796875 
Q 17.140625 53.03125 27.875 53.03125 
Q 38.28125 53.03125 44.875 45.953125 
Q 51.46875 38.875 51.46875 26.03125 
Q 51.46875 25.25 51.421875 23.6875 
L 12.75 23.6875 
Q 13.234375 15.140625 17.578125 10.59375 
Q 21.921875 6.0625 28.421875 6.0625 
Q 33.25 6.0625 36.671875 8.59375 
Q 40.09375 11.140625 42.09375 16.703125 
z
M 13.234375 30.90625 
L 42.1875 30.90625 
Q 41.609375 37.453125 38.875 40.71875 
Q 34.671875 45.796875 27.984375 45.796875 
Q 21.921875 45.796875 17.796875 41.75 
Q 13.671875 37.703125 13.234375 30.90625 
z
" id="ArialMT-101"/>
      <path d="M 3.078125 15.484375 
L 11.765625 16.84375 
Q 12.5 11.625 15.84375 8.84375 
Q 19.1875 6.0625 25.203125 6.0625 
Q 31.25 6.0625 34.171875 8.515625 
Q 37.109375 10.984375 37.109375 14.3125 
Q 37.109375 17.28125 34.515625 19 
Q 32.71875 20.171875 25.53125 21.96875 
Q 15.875 24.421875 12.140625 26.203125 
Q 8.40625 27.984375 6.46875 31.125 
Q 4.546875 34.28125 4.546875 38.09375 
Q 4.546875 41.546875 6.125 44.5 
Q 7.71875 47.46875 10.453125 49.421875 
Q 12.5 50.921875 16.03125 51.96875 
Q 19.578125 53.03125 23.640625 53.03125 
Q 29.734375 53.03125 34.34375 51.265625 
Q 38.96875 49.515625 41.15625 46.5 
Q 43.359375 43.5 44.1875 38.484375 
L 35.59375 37.3125 
Q 35.015625 41.3125 32.203125 43.546875 
Q 29.390625 45.796875 24.265625 45.796875 
Q 18.21875 45.796875 15.625 43.796875 
Q 13.03125 41.796875 13.03125 39.109375 
Q 13.03125 37.40625 14.109375 36.03125 
Q 15.1875 34.625 17.484375 33.6875 
Q 18.796875 33.203125 25.25 31.453125 
Q 34.578125 28.953125 38.25 27.359375 
Q 41.9375 25.78125 44.03125 22.75 
Q 46.140625 19.734375 46.140625 15.234375 
Q 46.140625 10.84375 43.578125 6.953125 
Q 41.015625 3.078125 36.171875 0.953125 
Q 31.34375 -1.171875 25.25 -1.171875 
Q 15.140625 -1.171875 9.84375 3.03125 
Q 4.546875 7.234375 3.078125 15.484375 
z
" id="ArialMT-115"/>
     </defs>
     <g style="fill:#262626;" transform="translate(504.809687 675.037812)scale(0.22 -0.22)">
      <use xlink:href="#ArialMT-83"/>
      <use x="66.699219" xlink:href="#ArialMT-105"/>
      <use x="88.916016" xlink:href="#ArialMT-109"/>
      <use x="172.216797" xlink:href="#ArialMT-117"/>
      <use x="227.832031" xlink:href="#ArialMT-108"/>
      <use x="250.048828" xlink:href="#ArialMT-97"/>
      <use x="305.664062" xlink:href="#ArialMT-116"/>
      <use x="333.447266" xlink:href="#ArialMT-105"/>
      <use x="355.664062" xlink:href="#ArialMT-111"/>
      <use x="411.279297" xlink:href="#ArialMT-110"/>
      <use x="466.894531" xlink:href="#ArialMT-32"/>
      <use x="494.677734" xlink:href="#ArialMT-82"/>
      <use x="566.894531" xlink:href="#ArialMT-101"/>
      <use x="622.509766" xlink:href="#ArialMT-115"/>
      <use x="672.509766" xlink:href="#ArialMT-117"/>
      <use x="728.125" xlink:href="#ArialMT-108"/>
      <use x="750.341797" xlink:href="#ArialMT-116"/>
     </g>
    </g>
   </g>
   <g id="matplotlib.axis_2">
    <g id="ytick_1">
     <g id="line2d_17">
      <path clip-path="url(#pfaf47fdc8d)" d="M 144 589.950032 
L 1036.8 589.950032 
" style="fill:none;stroke:#cccccc;stroke-linecap:round;"/>
     </g>
     <g id="line2d_18"/>
     <g id="text_10">
      <!-- 0.00 -->
      <g style="fill:#262626;" transform="translate(98.078125 597.107844)scale(0.2 -0.2)">
       <use xlink:href="#ArialMT-48"/>
       <use x="55.615234" xlink:href="#ArialMT-46"/>
       <use x="83.398438" xlink:href="#ArialMT-48"/>
       <use x="139.013672" xlink:href="#ArialMT-48"/>
      </g>
     </g>
    </g>
    <g id="ytick_2">
     <g id="line2d_19">
      <path clip-path="url(#pfaf47fdc8d)" d="M 144 521.959764 
L 1036.8 521.959764 
" style="fill:none;stroke:#cccccc;stroke-linecap:round;"/>
     </g>
     <g id="line2d_20"/>
     <g id="text_11">
      <!-- 0.05 -->
      <g style="fill:#262626;" transform="translate(98.078125 529.117577)scale(0.2 -0.2)">
       <use xlink:href="#ArialMT-48"/>
       <use x="55.615234" xlink:href="#ArialMT-46"/>
       <use x="83.398438" xlink:href="#ArialMT-48"/>
       <use x="139.013672" xlink:href="#ArialMT-53"/>
      </g>
     </g>
    </g>
    <g id="ytick_3">
     <g id="line2d_21">
      <path clip-path="url(#pfaf47fdc8d)" d="M 144 453.969496 
L 1036.8 453.969496 
" style="fill:none;stroke:#cccccc;stroke-linecap:round;"/>
     </g>
     <g id="line2d_22"/>
     <g id="text_12">
      <!-- 0.10 -->
      <g style="fill:#262626;" transform="translate(98.078125 461.127309)scale(0.2 -0.2)">
       <use xlink:href="#ArialMT-48"/>
       <use x="55.615234" xlink:href="#ArialMT-46"/>
       <use x="83.398438" xlink:href="#ArialMT-49"/>
       <use x="139.013672" xlink:href="#ArialMT-48"/>
      </g>
     </g>
    </g>
    <g id="ytick_4">
     <g id="line2d_23">
      <path clip-path="url(#pfaf47fdc8d)" d="M 144 385.979229 
L 1036.8 385.979229 
" style="fill:none;stroke:#cccccc;stroke-linecap:round;"/>
     </g>
     <g id="line2d_24"/>
     <g id="text_13">
      <!-- 0.15 -->
      <g style="fill:#262626;" transform="translate(98.078125 393.137041)scale(0.2 -0.2)">
       <use xlink:href="#ArialMT-48"/>
       <use x="55.615234" xlink:href="#ArialMT-46"/>
       <use x="83.398438" xlink:href="#ArialMT-49"/>
       <use x="139.013672" xlink:href="#ArialMT-53"/>
      </g>
     </g>
    </g>
    <g id="ytick_5">
     <g id="line2d_25">
      <path clip-path="url(#pfaf47fdc8d)" d="M 144 317.988961 
L 1036.8 317.988961 
" style="fill:none;stroke:#cccccc;stroke-linecap:round;"/>
     </g>
     <g id="line2d_26"/>
     <g id="text_14">
      <!-- 0.20 -->
      <g style="fill:#262626;" transform="translate(98.078125 325.146773)scale(0.2 -0.2)">
       <use xlink:href="#ArialMT-48"/>
       <use x="55.615234" xlink:href="#ArialMT-46"/>
       <use x="83.398438" xlink:href="#ArialMT-50"/>
       <use x="139.013672" xlink:href="#ArialMT-48"/>
      </g>
     </g>
    </g>
    <g id="ytick_6">
     <g id="line2d_27">
      <path clip-path="url(#pfaf47fdc8d)" d="M 144 249.998693 
L 1036.8 249.998693 
" style="fill:none;stroke:#cccccc;stroke-linecap:round;"/>
     </g>
     <g id="line2d_28"/>
     <g id="text_15">
      <!-- 0.25 -->
      <g style="fill:#262626;" transform="translate(98.078125 257.156505)scale(0.2 -0.2)">
       <use xlink:href="#ArialMT-48"/>
       <use x="55.615234" xlink:href="#ArialMT-46"/>
       <use x="83.398438" xlink:href="#ArialMT-50"/>
       <use x="139.013672" xlink:href="#ArialMT-53"/>
      </g>
     </g>
    </g>
    <g id="ytick_7">
     <g id="line2d_29">
      <path clip-path="url(#pfaf47fdc8d)" d="M 144 182.008425 
L 1036.8 182.008425 
" style="fill:none;stroke:#cccccc;stroke-linecap:round;"/>
     </g>
     <g id="line2d_30"/>
     <g id="text_16">
      <!-- 0.30 -->
      <defs>
       <path d="M 4.203125 18.890625 
L 12.984375 20.0625 
Q 14.5 12.59375 18.140625 9.296875 
Q 21.78125 6 27 6 
Q 33.203125 6 37.46875 10.296875 
Q 41.75 14.59375 41.75 20.953125 
Q 41.75 27 37.796875 30.921875 
Q 33.84375 34.859375 27.734375 34.859375 
Q 25.25 34.859375 21.53125 33.890625 
L 22.515625 41.609375 
Q 23.390625 41.5 23.921875 41.5 
Q 29.546875 41.5 34.03125 44.421875 
Q 38.53125 47.359375 38.53125 53.46875 
Q 38.53125 58.296875 35.25 61.46875 
Q 31.984375 64.65625 26.8125 64.65625 
Q 21.6875 64.65625 18.265625 61.421875 
Q 14.84375 58.203125 13.875 51.765625 
L 5.078125 53.328125 
Q 6.6875 62.15625 12.390625 67.015625 
Q 18.109375 71.875 26.609375 71.875 
Q 32.46875 71.875 37.390625 69.359375 
Q 42.328125 66.84375 44.9375 62.5 
Q 47.5625 58.15625 47.5625 53.265625 
Q 47.5625 48.640625 45.0625 44.828125 
Q 42.578125 41.015625 37.703125 38.765625 
Q 44.046875 37.3125 47.5625 32.6875 
Q 51.078125 28.078125 51.078125 21.140625 
Q 51.078125 11.765625 44.234375 5.25 
Q 37.40625 -1.265625 26.953125 -1.265625 
Q 17.53125 -1.265625 11.296875 4.34375 
Q 5.078125 9.96875 4.203125 18.890625 
z
" id="ArialMT-51"/>
      </defs>
      <g style="fill:#262626;" transform="translate(98.078125 189.166238)scale(0.2 -0.2)">
       <use xlink:href="#ArialMT-48"/>
       <use x="55.615234" xlink:href="#ArialMT-46"/>
       <use x="83.398438" xlink:href="#ArialMT-51"/>
       <use x="139.013672" xlink:href="#ArialMT-48"/>
      </g>
     </g>
    </g>
    <g id="ytick_8">
     <g id="line2d_31">
      <path clip-path="url(#pfaf47fdc8d)" d="M 144 114.018157 
L 1036.8 114.018157 
" style="fill:none;stroke:#cccccc;stroke-linecap:round;"/>
     </g>
     <g id="line2d_32"/>
     <g id="text_17">
      <!-- 0.35 -->
      <g style="fill:#262626;" transform="translate(98.078125 121.17597)scale(0.2 -0.2)">
       <use xlink:href="#ArialMT-48"/>
       <use x="55.615234" xlink:href="#ArialMT-46"/>
       <use x="83.398438" xlink:href="#ArialMT-51"/>
       <use x="139.013672" xlink:href="#ArialMT-53"/>
      </g>
     </g>
    </g>
    <g id="text_18">
     <!-- Predicted -->
     <defs>
      <path d="M 7.71875 0 
L 7.71875 71.578125 
L 34.71875 71.578125 
Q 41.84375 71.578125 45.609375 70.90625 
Q 50.875 70.015625 54.4375 67.546875 
Q 58.015625 65.09375 60.1875 60.640625 
Q 62.359375 56.203125 62.359375 50.875 
Q 62.359375 41.75 56.546875 35.421875 
Q 50.734375 29.109375 35.546875 29.109375 
L 17.1875 29.109375 
L 17.1875 0 
z
M 17.1875 37.546875 
L 35.6875 37.546875 
Q 44.875 37.546875 48.734375 40.96875 
Q 52.59375 44.390625 52.59375 50.59375 
Q 52.59375 55.078125 50.3125 58.265625 
Q 48.046875 61.46875 44.34375 62.5 
Q 41.9375 63.140625 35.5 63.140625 
L 17.1875 63.140625 
z
" id="ArialMT-80"/>
      <path d="M 6.5 0 
L 6.5 51.859375 
L 14.40625 51.859375 
L 14.40625 44 
Q 17.4375 49.515625 20 51.265625 
Q 22.5625 53.03125 25.640625 53.03125 
Q 30.078125 53.03125 34.671875 50.203125 
L 31.640625 42.046875 
Q 28.421875 43.953125 25.203125 43.953125 
Q 22.3125 43.953125 20.015625 42.21875 
Q 17.71875 40.484375 16.75 37.40625 
Q 15.28125 32.71875 15.28125 27.15625 
L 15.28125 0 
z
" id="ArialMT-114"/>
      <path d="M 40.234375 0 
L 40.234375 6.546875 
Q 35.296875 -1.171875 25.734375 -1.171875 
Q 19.53125 -1.171875 14.328125 2.25 
Q 9.125 5.671875 6.265625 11.796875 
Q 3.421875 17.921875 3.421875 25.875 
Q 3.421875 33.640625 6 39.96875 
Q 8.59375 46.296875 13.765625 49.65625 
Q 18.953125 53.03125 25.34375 53.03125 
Q 30.03125 53.03125 33.6875 51.046875 
Q 37.359375 49.078125 39.65625 45.90625 
L 39.65625 71.578125 
L 48.390625 71.578125 
L 48.390625 0 
z
M 12.453125 25.875 
Q 12.453125 15.921875 16.640625 10.984375 
Q 20.84375 6.0625 26.5625 6.0625 
Q 32.328125 6.0625 36.34375 10.765625 
Q 40.375 15.484375 40.375 25.140625 
Q 40.375 35.796875 36.265625 40.765625 
Q 32.171875 45.75 26.171875 45.75 
Q 20.3125 45.75 16.375 40.96875 
Q 12.453125 36.1875 12.453125 25.875 
z
" id="ArialMT-100"/>
      <path d="M 40.4375 19 
L 49.078125 17.875 
Q 47.65625 8.9375 41.8125 3.875 
Q 35.984375 -1.171875 27.484375 -1.171875 
Q 16.84375 -1.171875 10.375 5.78125 
Q 3.90625 12.75 3.90625 25.734375 
Q 3.90625 34.125 6.6875 40.421875 
Q 9.46875 46.734375 15.15625 49.875 
Q 20.84375 53.03125 27.546875 53.03125 
Q 35.984375 53.03125 41.359375 48.75 
Q 46.734375 44.484375 48.25 36.625 
L 39.703125 35.296875 
Q 38.484375 40.53125 35.375 43.15625 
Q 32.28125 45.796875 27.875 45.796875 
Q 21.234375 45.796875 17.078125 41.03125 
Q 12.9375 36.28125 12.9375 25.984375 
Q 12.9375 15.53125 16.9375 10.796875 
Q 20.953125 6.0625 27.390625 6.0625 
Q 32.5625 6.0625 36.03125 9.234375 
Q 39.5 12.40625 40.4375 19 
z
" id="ArialMT-99"/>
     </defs>
     <g style="fill:#262626;" transform="translate(89.705625 404.668125)rotate(-90)scale(0.22 -0.22)">
      <use xlink:href="#ArialMT-80"/>
      <use x="66.699219" xlink:href="#ArialMT-114"/>
      <use x="100" xlink:href="#ArialMT-101"/>
      <use x="155.615234" xlink:href="#ArialMT-100"/>
      <use x="211.230469" xlink:href="#ArialMT-105"/>
      <use x="233.447266" xlink:href="#ArialMT-99"/>
      <use x="283.447266" xlink:href="#ArialMT-116"/>
      <use x="311.230469" xlink:href="#ArialMT-101"/>
      <use x="366.845703" xlink:href="#ArialMT-100"/>
     </g>
    </g>
   </g>
   <g id="LineCollection_1">
    <path clip-path="url(#pfaf47fdc8d)" d="M 366.52628 494.734257 
L 366.52628 466.847636 
" style="fill:none;stroke:#00bfbf;stroke-width:0.5;"/>
    <path clip-path="url(#pfaf47fdc8d)" d="M 237.369009 523.376356 
L 237.369009 501.067068 
" style="fill:none;stroke:#00bfbf;stroke-width:0.5;"/>
    <path clip-path="url(#pfaf47fdc8d)" d="M 264.703109 528.83175 
L 264.703109 503.52929 
" style="fill:none;stroke:#00bfbf;stroke-width:0.5;"/>
    <path clip-path="url(#pfaf47fdc8d)" d="M 191.422014 553.759396 
L 191.422014 524.203115 
" style="fill:none;stroke:#00bfbf;stroke-width:0.5;"/>
    <path clip-path="url(#pfaf47fdc8d)" d="M 291.096576 522.295485 
L 291.096576 491.115238 
" style="fill:none;stroke:#00bfbf;stroke-width:0.5;"/>
    <path clip-path="url(#pfaf47fdc8d)" d="M 256.503343 526.327211 
L 256.503343 503.338547 
" style="fill:none;stroke:#00bfbf;stroke-width:0.5;"/>
    <path clip-path="url(#pfaf47fdc8d)" d="M 280.180706 524.521717 
L 280.180706 494.033596 
" style="fill:none;stroke:#00bfbf;stroke-width:0.5;"/>
    <path clip-path="url(#pfaf47fdc8d)" d="M 296.445299 517.469032 
L 296.445299 489.636087 
" style="fill:none;stroke:#00bfbf;stroke-width:0.5;"/>
    <path clip-path="url(#pfaf47fdc8d)" d="M 264.253197 529.847228 
L 264.253197 495.501175 
" style="fill:none;stroke:#00bfbf;stroke-width:0.5;"/>
    <path clip-path="url(#pfaf47fdc8d)" d="M 238.059611 543.006705 
L 238.059611 501.797689 
" style="fill:none;stroke:#00bfbf;stroke-width:0.5;"/>
    <path clip-path="url(#pfaf47fdc8d)" d="M 325.621204 509.199888 
L 325.621204 487.121299 
" style="fill:none;stroke:#00bfbf;stroke-width:0.5;"/>
    <path clip-path="url(#pfaf47fdc8d)" d="M 243.767536 530.791781 
L 243.767536 502.202313 
" style="fill:none;stroke:#00bfbf;stroke-width:0.5;"/>
    <path clip-path="url(#pfaf47fdc8d)" d="M 247.015618 532.294252 
L 247.015618 511.916413 
" style="fill:none;stroke:#00bfbf;stroke-width:0.5;"/>
    <path clip-path="url(#pfaf47fdc8d)" d="M 320.146587 505.592032 
L 320.146587 483.074609 
" style="fill:none;stroke:#00bfbf;stroke-width:0.5;"/>
    <path clip-path="url(#pfaf47fdc8d)" d="M 410.863818 476.667568 
L 410.863818 459.766768 
" style="fill:none;stroke:#00bfbf;stroke-width:0.5;"/>
    <path clip-path="url(#pfaf47fdc8d)" d="M 225.613697 544.086504 
L 225.613697 507.818553 
" style="fill:none;stroke:#00bfbf;stroke-width:0.5;"/>
    <path clip-path="url(#pfaf47fdc8d)" d="M 281.243664 528.169 
L 281.243664 488.618528 
" style="fill:none;stroke:#00bfbf;stroke-width:0.5;"/>
    <path clip-path="url(#pfaf47fdc8d)" d="M 278.176853 518.621626 
L 278.176853 502.931432 
" style="fill:none;stroke:#00bfbf;stroke-width:0.5;"/>
    <path clip-path="url(#pfaf47fdc8d)" d="M 266.256391 525.844339 
L 266.256391 493.547153 
" style="fill:none;stroke:#00bfbf;stroke-width:0.5;"/>
    <path clip-path="url(#pfaf47fdc8d)" d="M 206.668337 551.640569 
L 206.668337 520.303808 
" style="fill:none;stroke:#00bfbf;stroke-width:0.5;"/>
    <path clip-path="url(#pfaf47fdc8d)" d="M 341.915275 503.846538 
L 341.915275 470.828666 
" style="fill:none;stroke:#00bfbf;stroke-width:0.5;"/>
   </g>
   <g id="LineCollection_2">
    <path clip-path="url(#pfaf47fdc8d)" d="M 357.261552 514.120565 
L 357.261552 492.162911 
" style="fill:none;stroke:#bf00bf;stroke-width:0.5;"/>
    <path clip-path="url(#pfaf47fdc8d)" d="M 917.205578 319.501601 
L 917.205578 287.285693 
" style="fill:none;stroke:#bf00bf;stroke-width:0.5;"/>
    <path clip-path="url(#pfaf47fdc8d)" d="M 369.359381 540.658023 
L 369.359381 408.456279 
" style="fill:none;stroke:#bf00bf;stroke-width:0.5;"/>
    <path clip-path="url(#pfaf47fdc8d)" d="M 502.91673 543.729703 
L 502.91673 369.01195 
" style="fill:none;stroke:#bf00bf;stroke-width:0.5;"/>
    <path clip-path="url(#pfaf47fdc8d)" d="M 202.024611 571.437353 
L 202.024611 526.406049 
" style="fill:none;stroke:#bf00bf;stroke-width:0.5;"/>
    <path clip-path="url(#pfaf47fdc8d)" d="M 349.244584 524.192809 
L 349.244584 451.317779 
" style="fill:none;stroke:#bf00bf;stroke-width:0.5;"/>
    <path clip-path="url(#pfaf47fdc8d)" d="M 493.613974 605.290909 
L 493.613974 270.782847 
" style="fill:none;stroke:#bf00bf;stroke-width:0.5;"/>
    <path clip-path="url(#pfaf47fdc8d)" d="M 187.796354 528.417896 
L 187.796354 501.92407 
" style="fill:none;stroke:#bf00bf;stroke-width:0.5;"/>
    <path clip-path="url(#pfaf47fdc8d)" d="M 1036.8 171.801787 
L 1036.8 111.109091 
" style="fill:none;stroke:#bf00bf;stroke-width:0.5;"/>
    <path clip-path="url(#pfaf47fdc8d)" d="M 896.198277 298.920184 
L 896.198277 179.771917 
" style="fill:none;stroke:#bf00bf;stroke-width:0.5;"/>
    <path clip-path="url(#pfaf47fdc8d)" d="M 364.891618 532.373148 
L 364.891618 449.244335 
" style="fill:none;stroke:#bf00bf;stroke-width:0.5;"/>
    <path clip-path="url(#pfaf47fdc8d)" d="M 144 549.356297 
L 144 462.365465 
" style="fill:none;stroke:#bf00bf;stroke-width:0.5;"/>
    <path clip-path="url(#pfaf47fdc8d)" d="M 254.449605 513.753854 
L 254.449605 486.336569 
" style="fill:none;stroke:#bf00bf;stroke-width:0.5;"/>
    <path clip-path="url(#pfaf47fdc8d)" d="M 210.006507 528.890401 
L 210.006507 451.931746 
" style="fill:none;stroke:#bf00bf;stroke-width:0.5;"/>
    <path clip-path="url(#pfaf47fdc8d)" d="M 257.525519 578.198718 
L 257.525519 479.946919 
" style="fill:none;stroke:#bf00bf;stroke-width:0.5;"/>
    <path clip-path="url(#pfaf47fdc8d)" d="M 540.017274 584.306191 
L 540.017274 237.982462 
" style="fill:none;stroke:#bf00bf;stroke-width:0.5;"/>
    <path clip-path="url(#pfaf47fdc8d)" d="M 233.902781 557.722918 
L 233.902781 486.044059 
" style="fill:none;stroke:#bf00bf;stroke-width:0.5;"/>
    <path clip-path="url(#pfaf47fdc8d)" d="M 997.096654 175.920035 
L 997.096654 114.040697 
" style="fill:none;stroke:#bf00bf;stroke-width:0.5;"/>
    <path clip-path="url(#pfaf47fdc8d)" d="M 486.587223 468.472557 
L 486.587223 447.747825 
" style="fill:none;stroke:#bf00bf;stroke-width:0.5;"/>
   </g>
   <g id="line2d_33">
    <path clip-path="url(#pfaf47fdc8d)" d="M 144 553.565217 
L 1036.8 257.788899 
" style="fill:none;stroke:#ff0000;stroke-linecap:round;stroke-width:1.75;"/>
   </g>
   <g id="line2d_34">
    <defs>
     <path d="M 0 3.5 
C 0.928211 3.5 1.81853 3.131218 2.474874 2.474874 
C 3.131218 1.81853 3.5 0.928211 3.5 0 
C 3.5 -0.928211 3.131218 -1.81853 2.474874 -2.474874 
C 1.81853 -3.131218 0.928211 -3.5 0 -3.5 
C -0.928211 -3.5 -1.81853 -3.131218 -2.474874 -2.474874 
C -3.131218 -1.81853 -3.5 -0.928211 -3.5 0 
C -3.5 0.928211 -3.131218 1.81853 -2.474874 2.474874 
C -1.81853 3.131218 -0.928211 3.5 0 3.5 
z
" id="m2b6f20515f"/>
    </defs>
    <g clip-path="url(#pfaf47fdc8d)">
     <use style="fill:#00bfbf;" x="446.11837" xlink:href="#m2b6f20515f" y="444.509041"/>
     <use style="fill:#00bfbf;" x="366.52628" xlink:href="#m2b6f20515f" y="480.790947"/>
     <use style="fill:#00bfbf;" x="292.089782" xlink:href="#m2b6f20515f" y="506.818688"/>
     <use style="fill:#00bfbf;" x="237.369009" xlink:href="#m2b6f20515f" y="512.221712"/>
     <use style="fill:#00bfbf;" x="340.564814" xlink:href="#m2b6f20515f" y="481.002821"/>
     <use style="fill:#00bfbf;" x="380.029659" xlink:href="#m2b6f20515f" y="463.398443"/>
     <use style="fill:#00bfbf;" x="581.19155" xlink:href="#m2b6f20515f" y="406.358898"/>
     <use style="fill:#00bfbf;" x="324.16924" xlink:href="#m2b6f20515f" y="496.359883"/>
     <use style="fill:#00bfbf;" x="248.225984" xlink:href="#m2b6f20515f" y="517.831893"/>
     <use style="fill:#00bfbf;" x="426.152806" xlink:href="#m2b6f20515f" y="460.722955"/>
     <use style="fill:#00bfbf;" x="406.66808" xlink:href="#m2b6f20515f" y="466.156001"/>
     <use style="fill:#00bfbf;" x="261.735896" xlink:href="#m2b6f20515f" y="510.274803"/>
     <use style="fill:#00bfbf;" x="264.703109" xlink:href="#m2b6f20515f" y="516.18052"/>
     <use style="fill:#00bfbf;" x="274.793242" xlink:href="#m2b6f20515f" y="513.434464"/>
     <use style="fill:#00bfbf;" x="191.422014" xlink:href="#m2b6f20515f" y="538.981256"/>
     <use style="fill:#00bfbf;" x="268.657857" xlink:href="#m2b6f20515f" y="514.280877"/>
     <use style="fill:#00bfbf;" x="306.983751" xlink:href="#m2b6f20515f" y="504.903765"/>
     <use style="fill:#00bfbf;" x="262.100341" xlink:href="#m2b6f20515f" y="506.046949"/>
     <use style="fill:#00bfbf;" x="511.573184" xlink:href="#m2b6f20515f" y="434.825291"/>
     <use style="fill:#00bfbf;" x="224.897899" xlink:href="#m2b6f20515f" y="527.600649"/>
     <use style="fill:#00bfbf;" x="313.276233" xlink:href="#m2b6f20515f" y="500.347805"/>
     <use style="fill:#00bfbf;" x="291.096576" xlink:href="#m2b6f20515f" y="506.705361"/>
     <use style="fill:#00bfbf;" x="256.503343" xlink:href="#m2b6f20515f" y="514.832879"/>
     <use style="fill:#00bfbf;" x="275.508554" xlink:href="#m2b6f20515f" y="512.29222"/>
     <use style="fill:#00bfbf;" x="259.868499" xlink:href="#m2b6f20515f" y="516.13769"/>
     <use style="fill:#00bfbf;" x="296.674025" xlink:href="#m2b6f20515f" y="503.344847"/>
     <use style="fill:#00bfbf;" x="213.934671" xlink:href="#m2b6f20515f" y="526.391946"/>
     <use style="fill:#00bfbf;" x="761.585825" xlink:href="#m2b6f20515f" y="354.085895"/>
     <use style="fill:#00bfbf;" x="296.27782" xlink:href="#m2b6f20515f" y="510.85811"/>
     <use style="fill:#00bfbf;" x="473.947757" xlink:href="#m2b6f20515f" y="451.088148"/>
     <use style="fill:#00bfbf;" x="265.827649" xlink:href="#m2b6f20515f" y="507.768122"/>
     <use style="fill:#00bfbf;" x="304.825804" xlink:href="#m2b6f20515f" y="499.52033"/>
     <use style="fill:#00bfbf;" x="280.180706" xlink:href="#m2b6f20515f" y="509.277656"/>
     <use style="fill:#00bfbf;" x="254.285673" xlink:href="#m2b6f20515f" y="516.105537"/>
     <use style="fill:#00bfbf;" x="435.46202" xlink:href="#m2b6f20515f" y="456.72117"/>
     <use style="fill:#00bfbf;" x="332.328893" xlink:href="#m2b6f20515f" y="486.030126"/>
     <use style="fill:#00bfbf;" x="361.149752" xlink:href="#m2b6f20515f" y="474.761159"/>
     <use style="fill:#00bfbf;" x="296.445299" xlink:href="#m2b6f20515f" y="503.55256"/>
     <use style="fill:#00bfbf;" x="539.200232" xlink:href="#m2b6f20515f" y="426.364766"/>
     <use style="fill:#00bfbf;" x="605.822609" xlink:href="#m2b6f20515f" y="402.845584"/>
     <use style="fill:#00bfbf;" x="807.471135" xlink:href="#m2b6f20515f" y="334.862204"/>
     <use style="fill:#00bfbf;" x="281.14062" xlink:href="#m2b6f20515f" y="507.779268"/>
     <use style="fill:#00bfbf;" x="294.529611" xlink:href="#m2b6f20515f" y="503.572348"/>
     <use style="fill:#00bfbf;" x="264.253197" xlink:href="#m2b6f20515f" y="512.674202"/>
     <use style="fill:#00bfbf;" x="273.043485" xlink:href="#m2b6f20515f" y="505.979757"/>
     <use style="fill:#00bfbf;" x="238.059611" xlink:href="#m2b6f20515f" y="522.402197"/>
     <use style="fill:#00bfbf;" x="459.695782" xlink:href="#m2b6f20515f" y="452.914103"/>
     <use style="fill:#00bfbf;" x="700.302649" xlink:href="#m2b6f20515f" y="366.879847"/>
     <use style="fill:#00bfbf;" x="403.223672" xlink:href="#m2b6f20515f" y="458.715293"/>
     <use style="fill:#00bfbf;" x="358.965314" xlink:href="#m2b6f20515f" y="490.002369"/>
     <use style="fill:#00bfbf;" x="301.578233" xlink:href="#m2b6f20515f" y="502.186601"/>
     <use style="fill:#00bfbf;" x="396.985314" xlink:href="#m2b6f20515f" y="469.922192"/>
     <use style="fill:#00bfbf;" x="287.433161" xlink:href="#m2b6f20515f" y="508.482127"/>
     <use style="fill:#00bfbf;" x="402.295292" xlink:href="#m2b6f20515f" y="456.90786"/>
     <use style="fill:#00bfbf;" x="325.621204" xlink:href="#m2b6f20515f" y="498.160594"/>
     <use style="fill:#00bfbf;" x="243.001472" xlink:href="#m2b6f20515f" y="514.65137"/>
     <use style="fill:#00bfbf;" x="259.66238" xlink:href="#m2b6f20515f" y="518.271201"/>
     <use style="fill:#00bfbf;" x="387.291311" xlink:href="#m2b6f20515f" y="476.677833"/>
     <use style="fill:#00bfbf;" x="297.912079" xlink:href="#m2b6f20515f" y="509.314846"/>
     <use style="fill:#00bfbf;" x="243.767536" xlink:href="#m2b6f20515f" y="516.497047"/>
     <use style="fill:#00bfbf;" x="908.485159" xlink:href="#m2b6f20515f" y="299.698422"/>
     <use style="fill:#00bfbf;" x="247.015618" xlink:href="#m2b6f20515f" y="522.105332"/>
     <use style="fill:#00bfbf;" x="418.246742" xlink:href="#m2b6f20515f" y="462.727694"/>
     <use style="fill:#00bfbf;" x="309.041207" xlink:href="#m2b6f20515f" y="501.777605"/>
     <use style="fill:#00bfbf;" x="293.98189" xlink:href="#m2b6f20515f" y="503.87602"/>
     <use style="fill:#00bfbf;" x="320.146587" xlink:href="#m2b6f20515f" y="494.33332"/>
     <use style="fill:#00bfbf;" x="314.294763" xlink:href="#m2b6f20515f" y="506.861855"/>
     <use style="fill:#00bfbf;" x="338.13002" xlink:href="#m2b6f20515f" y="487.781268"/>
     <use style="fill:#00bfbf;" x="406.717482" xlink:href="#m2b6f20515f" y="472.12949"/>
     <use style="fill:#00bfbf;" x="191.422014" xlink:href="#m2b6f20515f" y="536.653414"/>
     <use style="fill:#00bfbf;" x="531.696018" xlink:href="#m2b6f20515f" y="427.576208"/>
     <use style="fill:#00bfbf;" x="240.991892" xlink:href="#m2b6f20515f" y="514.623716"/>
     <use style="fill:#00bfbf;" x="417.068312" xlink:href="#m2b6f20515f" y="464.435133"/>
     <use style="fill:#00bfbf;" x="553.255369" xlink:href="#m2b6f20515f" y="420.716207"/>
     <use style="fill:#00bfbf;" x="386.145082" xlink:href="#m2b6f20515f" y="475.590706"/>
     <use style="fill:#00bfbf;" x="373.313012" xlink:href="#m2b6f20515f" y="482.073044"/>
     <use style="fill:#00bfbf;" x="336.715865" xlink:href="#m2b6f20515f" y="492.984091"/>
     <use style="fill:#00bfbf;" x="288.875686" xlink:href="#m2b6f20515f" y="500.923929"/>
     <use style="fill:#00bfbf;" x="292.406993" xlink:href="#m2b6f20515f" y="505.520345"/>
     <use style="fill:#00bfbf;" x="327.216473" xlink:href="#m2b6f20515f" y="498.521784"/>
     <use style="fill:#00bfbf;" x="315.099987" xlink:href="#m2b6f20515f" y="488.706221"/>
     <use style="fill:#00bfbf;" x="395.194074" xlink:href="#m2b6f20515f" y="468.578925"/>
     <use style="fill:#00bfbf;" x="558.909336" xlink:href="#m2b6f20515f" y="421.673781"/>
     <use style="fill:#00bfbf;" x="272.523544" xlink:href="#m2b6f20515f" y="506.395966"/>
     <use style="fill:#00bfbf;" x="249.432506" xlink:href="#m2b6f20515f" y="505.006766"/>
     <use style="fill:#00bfbf;" x="276.390911" xlink:href="#m2b6f20515f" y="515.841477"/>
     <use style="fill:#00bfbf;" x="354.702849" xlink:href="#m2b6f20515f" y="482.126601"/>
     <use style="fill:#00bfbf;" x="372.693669" xlink:href="#m2b6f20515f" y="465.444471"/>
     <use style="fill:#00bfbf;" x="410.863818" xlink:href="#m2b6f20515f" y="468.217168"/>
     <use style="fill:#00bfbf;" x="265.641795" xlink:href="#m2b6f20515f" y="507.413329"/>
     <use style="fill:#00bfbf;" x="299.983787" xlink:href="#m2b6f20515f" y="495.094536"/>
     <use style="fill:#00bfbf;" x="225.613697" xlink:href="#m2b6f20515f" y="525.952529"/>
     <use style="fill:#00bfbf;" x="279.745025" xlink:href="#m2b6f20515f" y="510.769472"/>
     <use style="fill:#00bfbf;" x="416.704571" xlink:href="#m2b6f20515f" y="466.167673"/>
     <use style="fill:#00bfbf;" x="457.383719" xlink:href="#m2b6f20515f" y="449.937236"/>
     <use style="fill:#00bfbf;" x="301.774322" xlink:href="#m2b6f20515f" y="502.55832"/>
     <use style="fill:#00bfbf;" x="412.943741" xlink:href="#m2b6f20515f" y="464.960008"/>
     <use style="fill:#00bfbf;" x="468.801275" xlink:href="#m2b6f20515f" y="449.238624"/>
     <use style="fill:#00bfbf;" x="212.189768" xlink:href="#m2b6f20515f" y="518.167639"/>
     <use style="fill:#00bfbf;" x="281.243664" xlink:href="#m2b6f20515f" y="508.393764"/>
     <use style="fill:#00bfbf;" x="302.741086" xlink:href="#m2b6f20515f" y="504.606435"/>
     <use style="fill:#00bfbf;" x="374.551407" xlink:href="#m2b6f20515f" y="477.069541"/>
     <use style="fill:#00bfbf;" x="297.285917" xlink:href="#m2b6f20515f" y="502.659579"/>
     <use style="fill:#00bfbf;" x="256.041117" xlink:href="#m2b6f20515f" y="515.103908"/>
     <use style="fill:#00bfbf;" x="389.098008" xlink:href="#m2b6f20515f" y="476.861516"/>
     <use style="fill:#00bfbf;" x="605.914815" xlink:href="#m2b6f20515f" y="407.31843"/>
     <use style="fill:#00bfbf;" x="339.051094" xlink:href="#m2b6f20515f" y="493.990896"/>
     <use style="fill:#00bfbf;" x="353.350483" xlink:href="#m2b6f20515f" y="485.291817"/>
     <use style="fill:#00bfbf;" x="438.95489" xlink:href="#m2b6f20515f" y="462.112775"/>
     <use style="fill:#00bfbf;" x="342.015191" xlink:href="#m2b6f20515f" y="485.083033"/>
     <use style="fill:#00bfbf;" x="284.880672" xlink:href="#m2b6f20515f" y="512.035945"/>
     <use style="fill:#00bfbf;" x="278.176853" xlink:href="#m2b6f20515f" y="510.776529"/>
     <use style="fill:#00bfbf;" x="266.256391" xlink:href="#m2b6f20515f" y="509.695746"/>
     <use style="fill:#00bfbf;" x="443.478749" xlink:href="#m2b6f20515f" y="452.945517"/>
     <use style="fill:#00bfbf;" x="230.580788" xlink:href="#m2b6f20515f" y="519.339047"/>
     <use style="fill:#00bfbf;" x="446.253373" xlink:href="#m2b6f20515f" y="457.304255"/>
     <use style="fill:#00bfbf;" x="381.258272" xlink:href="#m2b6f20515f" y="481.04522"/>
     <use style="fill:#00bfbf;" x="338.610295" xlink:href="#m2b6f20515f" y="497.29909"/>
     <use style="fill:#00bfbf;" x="268.266723" xlink:href="#m2b6f20515f" y="514.116891"/>
     <use style="fill:#00bfbf;" x="206.668337" xlink:href="#m2b6f20515f" y="535.972188"/>
     <use style="fill:#00bfbf;" x="281.351824" xlink:href="#m2b6f20515f" y="515.164033"/>
     <use style="fill:#00bfbf;" x="292.793737" xlink:href="#m2b6f20515f" y="499.263177"/>
     <use style="fill:#00bfbf;" x="319.838492" xlink:href="#m2b6f20515f" y="493.320859"/>
     <use style="fill:#00bfbf;" x="816.983207" xlink:href="#m2b6f20515f" y="329.845097"/>
     <use style="fill:#00bfbf;" x="341.915275" xlink:href="#m2b6f20515f" y="487.337602"/>
     <use style="fill:#00bfbf;" x="299.433781" xlink:href="#m2b6f20515f" y="501.79197"/>
     <use style="fill:#00bfbf;" x="952.439593" xlink:href="#m2b6f20515f" y="291.242849"/>
     <use style="fill:#00bfbf;" x="348.278031" xlink:href="#m2b6f20515f" y="476.338216"/>
     <use style="fill:#00bfbf;" x="209.083136" xlink:href="#m2b6f20515f" y="532.953597"/>
     <use style="fill:#00bfbf;" x="365.411432" xlink:href="#m2b6f20515f" y="478.141198"/>
     <use style="fill:#00bfbf;" x="354.213473" xlink:href="#m2b6f20515f" y="486.10217"/>
     <use style="fill:#00bfbf;" x="426.604899" xlink:href="#m2b6f20515f" y="459.770905"/>
     <use style="fill:#00bfbf;" x="196.770994" xlink:href="#m2b6f20515f" y="539.362308"/>
     <use style="fill:#00bfbf;" x="345.856365" xlink:href="#m2b6f20515f" y="484.294989"/>
     <use style="fill:#00bfbf;" x="372.073902" xlink:href="#m2b6f20515f" y="478.013256"/>
     <use style="fill:#00bfbf;" x="337.87381" xlink:href="#m2b6f20515f" y="489.549757"/>
     <use style="fill:#00bfbf;" x="613.4281" xlink:href="#m2b6f20515f" y="398.763658"/>
     <use style="fill:#00bfbf;" x="230.146641" xlink:href="#m2b6f20515f" y="520.639735"/>
     <use style="fill:#00bfbf;" x="426.01164" xlink:href="#m2b6f20515f" y="458.033432"/>
     <use style="fill:#00bfbf;" x="382.394071" xlink:href="#m2b6f20515f" y="475.559704"/>
     <use style="fill:#00bfbf;" x="238.490645" xlink:href="#m2b6f20515f" y="523.504198"/>
     <use style="fill:#00bfbf;" x="161.077078" xlink:href="#m2b6f20515f" y="543.360181"/>
     <use style="fill:#00bfbf;" x="348.651932" xlink:href="#m2b6f20515f" y="490.673348"/>
     <use style="fill:#00bfbf;" x="536.963514" xlink:href="#m2b6f20515f" y="426.173345"/>
     <use style="fill:#00bfbf;" x="664.783549" xlink:href="#m2b6f20515f" y="384.088937"/>
     <use style="fill:#00bfbf;" x="438.156734" xlink:href="#m2b6f20515f" y="464.647756"/>
     <use style="fill:#00bfbf;" x="297.44538" xlink:href="#m2b6f20515f" y="493.313577"/>
     <use style="fill:#00bfbf;" x="287.325436" xlink:href="#m2b6f20515f" y="509.088012"/>
     <use style="fill:#00bfbf;" x="345.956782" xlink:href="#m2b6f20515f" y="485.528161"/>
     <use style="fill:#00bfbf;" x="296.565058" xlink:href="#m2b6f20515f" y="499.144874"/>
    </g>
   </g>
   <g id="line2d_35">
    <defs>
     <path d="M 0 3.5 
C 0.928211 3.5 1.81853 3.131218 2.474874 2.474874 
C 3.131218 1.81853 3.5 0.928211 3.5 0 
C 3.5 -0.928211 3.131218 -1.81853 2.474874 -2.474874 
C 1.81853 -3.131218 0.928211 -3.5 0 -3.5 
C -0.928211 -3.5 -1.81853 -3.131218 -2.474874 -2.474874 
C -3.131218 -1.81853 -3.5 -0.928211 -3.5 0 
C -3.5 0.928211 -3.131218 1.81853 -2.474874 2.474874 
C -1.81853 3.131218 -0.928211 3.5 0 3.5 
z
" id="md9e40c2f70"/>
    </defs>
    <g clip-path="url(#pfaf47fdc8d)">
     <use style="fill:#bf00bf;" x="409.708111" xlink:href="#md9e40c2f70" y="499.463827"/>
     <use style="fill:#bf00bf;" x="327.49032" xlink:href="#md9e40c2f70" y="499.141552"/>
     <use style="fill:#bf00bf;" x="357.261552" xlink:href="#md9e40c2f70" y="503.141738"/>
     <use style="fill:#bf00bf;" x="288.163327" xlink:href="#md9e40c2f70" y="479.960497"/>
     <use style="fill:#bf00bf;" x="917.205578" xlink:href="#md9e40c2f70" y="303.393647"/>
     <use style="fill:#bf00bf;" x="535.749163" xlink:href="#md9e40c2f70" y="470.41274"/>
     <use style="fill:#bf00bf;" x="492.38393" xlink:href="#md9e40c2f70" y="458.100826"/>
     <use style="fill:#bf00bf;" x="413.820298" xlink:href="#md9e40c2f70" y="474.32655"/>
     <use style="fill:#bf00bf;" x="369.359381" xlink:href="#md9e40c2f70" y="474.557151"/>
     <use style="fill:#bf00bf;" x="256.874513" xlink:href="#md9e40c2f70" y="515.844249"/>
     <use style="fill:#bf00bf;" x="314.353279" xlink:href="#md9e40c2f70" y="476.671308"/>
     <use style="fill:#bf00bf;" x="309.444486" xlink:href="#md9e40c2f70" y="491.164486"/>
     <use style="fill:#bf00bf;" x="233.29872" xlink:href="#md9e40c2f70" y="471.302487"/>
     <use style="fill:#bf00bf;" x="329.047165" xlink:href="#md9e40c2f70" y="502.37524"/>
     <use style="fill:#bf00bf;" x="424.655401" xlink:href="#md9e40c2f70" y="470.864606"/>
     <use style="fill:#bf00bf;" x="789.514618" xlink:href="#md9e40c2f70" y="398.707765"/>
     <use style="fill:#bf00bf;" x="502.91673" xlink:href="#md9e40c2f70" y="456.370827"/>
     <use style="fill:#bf00bf;" x="202.024611" xlink:href="#md9e40c2f70" y="548.921701"/>
     <use style="fill:#bf00bf;" x="295.020488" xlink:href="#md9e40c2f70" y="504.391692"/>
     <use style="fill:#bf00bf;" x="789.427533" xlink:href="#md9e40c2f70" y="314.59506"/>
     <use style="fill:#bf00bf;" x="406.5986" xlink:href="#md9e40c2f70" y="488.434753"/>
     <use style="fill:#bf00bf;" x="349.244584" xlink:href="#md9e40c2f70" y="487.755294"/>
     <use style="fill:#bf00bf;" x="493.613974" xlink:href="#md9e40c2f70" y="438.036878"/>
     <use style="fill:#bf00bf;" x="400.744083" xlink:href="#md9e40c2f70" y="434.312428"/>
     <use style="fill:#bf00bf;" x="187.796354" xlink:href="#md9e40c2f70" y="515.170983"/>
     <use style="fill:#bf00bf;" x="404.478281" xlink:href="#md9e40c2f70" y="480.332813"/>
     <use style="fill:#bf00bf;" x="1036.8" xlink:href="#md9e40c2f70" y="141.455439"/>
     <use style="fill:#bf00bf;" x="849.318736" xlink:href="#md9e40c2f70" y="335.110436"/>
     <use style="fill:#bf00bf;" x="317.246242" xlink:href="#md9e40c2f70" y="456.794939"/>
     <use style="fill:#bf00bf;" x="472.778764" xlink:href="#md9e40c2f70" y="464.434738"/>
     <use style="fill:#bf00bf;" x="896.198277" xlink:href="#md9e40c2f70" y="239.34605"/>
     <use style="fill:#bf00bf;" x="364.891618" xlink:href="#md9e40c2f70" y="490.808742"/>
     <use style="fill:#bf00bf;" x="305.101166" xlink:href="#md9e40c2f70" y="501.216724"/>
     <use style="fill:#bf00bf;" x="302.745265" xlink:href="#md9e40c2f70" y="505.115542"/>
     <use style="fill:#bf00bf;" x="373.245605" xlink:href="#md9e40c2f70" y="485.317017"/>
     <use style="fill:#bf00bf;" x="144" xlink:href="#md9e40c2f70" y="505.860881"/>
     <use style="fill:#bf00bf;" x="254.449605" xlink:href="#md9e40c2f70" y="500.045212"/>
     <use style="fill:#bf00bf;" x="408.562521" xlink:href="#md9e40c2f70" y="482.04408"/>
     <use style="fill:#bf00bf;" x="342.967644" xlink:href="#md9e40c2f70" y="487.742042"/>
     <use style="fill:#bf00bf;" x="210.006507" xlink:href="#md9e40c2f70" y="490.411074"/>
     <use style="fill:#bf00bf;" x="326.197189" xlink:href="#md9e40c2f70" y="469.682645"/>
     <use style="fill:#bf00bf;" x="257.525519" xlink:href="#md9e40c2f70" y="529.072819"/>
     <use style="fill:#bf00bf;" x="515.529665" xlink:href="#md9e40c2f70" y="417.651098"/>
     <use style="fill:#bf00bf;" x="286.951748" xlink:href="#md9e40c2f70" y="494.045282"/>
     <use style="fill:#bf00bf;" x="540.017274" xlink:href="#md9e40c2f70" y="411.144327"/>
     <use style="fill:#bf00bf;" x="233.902781" xlink:href="#md9e40c2f70" y="521.883488"/>
     <use style="fill:#bf00bf;" x="341.174091" xlink:href="#md9e40c2f70" y="463.777299"/>
     <use style="fill:#bf00bf;" x="997.096654" xlink:href="#md9e40c2f70" y="144.980366"/>
     <use style="fill:#bf00bf;" x="307.92596" xlink:href="#md9e40c2f70" y="475.043781"/>
     <use style="fill:#bf00bf;" x="486.587223" xlink:href="#md9e40c2f70" y="458.110191"/>
    </g>
   </g>
   <g id="patch_3">
    <path d="M 144 630 
L 144 86.4 
" style="fill:none;stroke:#cccccc;stroke-linecap:square;stroke-linejoin:miter;"/>
   </g>
   <g id="patch_4">
    <path d="M 1036.8 630 
L 1036.8 86.4 
" style="fill:none;stroke:#cccccc;stroke-linecap:square;stroke-linejoin:miter;"/>
   </g>
   <g id="patch_5">
    <path d="M 144 630 
L 1036.8 630 
" style="fill:none;stroke:#cccccc;stroke-linecap:square;stroke-linejoin:miter;"/>
   </g>
   <g id="patch_6">
    <path d="M 144 86.4 
L 1036.8 86.4 
" style="fill:none;stroke:#cccccc;stroke-linecap:square;stroke-linejoin:miter;"/>
   </g>
  </g>
 </g>
 <defs>
  <clipPath id="pfaf47fdc8d">
   <rect height="543.6" width="892.8" x="144" y="86.4"/>
  </clipPath>
 </defs>
</svg>
