<?xml version="1.0" encoding="utf-8" standalone="no"?>
<!DOCTYPE svg PUBLIC "-//W3C//DTD SVG 1.1//EN"
  "http://www.w3.org/Graphics/SVG/1.1/DTD/svg11.dtd">
<!-- Created with matplotlib (https://matplotlib.org/) -->
<svg height="576pt" version="1.1" viewBox="0 0 864 576" width="864pt" xmlns="http://www.w3.org/2000/svg" xmlns:xlink="http://www.w3.org/1999/xlink">
 <defs>
  <style type="text/css">
*{stroke-linecap:butt;stroke-linejoin:round;}
  </style>
 </defs>
 <g id="figure_1">
  <g id="patch_1">
   <path d="M 0 576 
L 864 576 
L 864 0 
L 0 0 
z
" style="fill:#ffffff;"/>
  </g>
  <g id="axes_1">
   <g id="patch_2">
    <path d="M 72.425 508.7 
L 437.9125 508.7 
L 437.9125 34.8 
L 72.425 34.8 
z
" style="fill:#ffffff;"/>
   </g>
   <g id="matplotlib.axis_1">
    <g id="xtick_1">
     <g id="line2d_1">
      <path clip-path="url(#p21886f3893)" d="M 74.938858 508.7 
L 74.938858 34.8 
" style="fill:none;stroke:#cccccc;stroke-linecap:round;"/>
     </g>
     <g id="text_1">
      <!-- 0.0 -->
      <defs>
       <path d="M 4.15625 35.296875 
Q 4.15625 48 6.765625 55.734375 
Q 9.375 63.484375 14.515625 67.671875 
Q 19.671875 71.875 27.484375 71.875 
Q 33.25 71.875 37.59375 69.546875 
Q 41.9375 67.234375 44.765625 62.859375 
Q 47.609375 58.5 49.21875 52.21875 
Q 50.828125 45.953125 50.828125 35.296875 
Q 50.828125 22.703125 48.234375 14.96875 
Q 45.65625 7.234375 40.5 3 
Q 35.359375 -1.21875 27.484375 -1.21875 
Q 17.140625 -1.21875 11.234375 6.203125 
Q 4.15625 15.140625 4.15625 35.296875 
z
M 13.1875 35.296875 
Q 13.1875 17.671875 17.3125 11.828125 
Q 21.4375 6 27.484375 6 
Q 33.546875 6 37.671875 11.859375 
Q 41.796875 17.71875 41.796875 35.296875 
Q 41.796875 52.984375 37.671875 58.78125 
Q 33.546875 64.59375 27.390625 64.59375 
Q 21.34375 64.59375 17.71875 59.46875 
Q 13.1875 52.9375 13.1875 35.296875 
z
" id="ArialMT-48"/>
       <path d="M 9.078125 0 
L 9.078125 10.015625 
L 19.09375 10.015625 
L 19.09375 0 
z
" id="ArialMT-46"/>
      </defs>
      <g style="fill:#262626;" transform="translate(59.648858 533.947187)scale(0.22 -0.22)">
       <use xlink:href="#ArialMT-48"/>
       <use x="55.615234" xlink:href="#ArialMT-46"/>
       <use x="83.398438" xlink:href="#ArialMT-48"/>
      </g>
     </g>
    </g>
    <g id="xtick_2">
     <g id="line2d_2">
      <path clip-path="url(#p21886f3893)" d="M 197.359162 508.7 
L 197.359162 34.8 
" style="fill:none;stroke:#cccccc;stroke-linecap:round;"/>
     </g>
     <g id="text_2">
      <!-- 0.2 -->
      <defs>
       <path d="M 50.34375 8.453125 
L 50.34375 0 
L 3.03125 0 
Q 2.9375 3.171875 4.046875 6.109375 
Q 5.859375 10.9375 9.828125 15.625 
Q 13.8125 20.3125 21.34375 26.46875 
Q 33.015625 36.03125 37.109375 41.625 
Q 41.21875 47.21875 41.21875 52.203125 
Q 41.21875 57.421875 37.46875 61 
Q 33.734375 64.59375 27.734375 64.59375 
Q 21.390625 64.59375 17.578125 60.78125 
Q 13.765625 56.984375 13.71875 50.25 
L 4.6875 51.171875 
Q 5.609375 61.28125 11.65625 66.578125 
Q 17.71875 71.875 27.9375 71.875 
Q 38.234375 71.875 44.234375 66.15625 
Q 50.25 60.453125 50.25 52 
Q 50.25 47.703125 48.484375 43.546875 
Q 46.734375 39.40625 42.65625 34.8125 
Q 38.578125 30.21875 29.109375 22.21875 
Q 21.1875 15.578125 18.9375 13.203125 
Q 16.703125 10.84375 15.234375 8.453125 
z
" id="ArialMT-50"/>
      </defs>
      <g style="fill:#262626;" transform="translate(182.069162 533.947187)scale(0.22 -0.22)">
       <use xlink:href="#ArialMT-48"/>
       <use x="55.615234" xlink:href="#ArialMT-46"/>
       <use x="83.398438" xlink:href="#ArialMT-50"/>
      </g>
     </g>
    </g>
    <g id="xtick_3">
     <g id="line2d_3">
      <path clip-path="url(#p21886f3893)" d="M 319.779466 508.7 
L 319.779466 34.8 
" style="fill:none;stroke:#cccccc;stroke-linecap:round;"/>
     </g>
     <g id="text_3">
      <!-- 0.4 -->
      <defs>
       <path d="M 32.328125 0 
L 32.328125 17.140625 
L 1.265625 17.140625 
L 1.265625 25.203125 
L 33.9375 71.578125 
L 41.109375 71.578125 
L 41.109375 25.203125 
L 50.78125 25.203125 
L 50.78125 17.140625 
L 41.109375 17.140625 
L 41.109375 0 
z
M 32.328125 25.203125 
L 32.328125 57.46875 
L 9.90625 25.203125 
z
" id="ArialMT-52"/>
      </defs>
      <g style="fill:#262626;" transform="translate(304.489466 533.947187)scale(0.22 -0.22)">
       <use xlink:href="#ArialMT-48"/>
       <use x="55.615234" xlink:href="#ArialMT-46"/>
       <use x="83.398438" xlink:href="#ArialMT-52"/>
      </g>
     </g>
    </g>
    <g id="text_4">
     <!-- Simulation Result -->
     <defs>
      <path d="M 4.5 23 
L 13.421875 23.78125 
Q 14.0625 18.40625 16.375 14.96875 
Q 18.703125 11.53125 23.578125 9.40625 
Q 28.46875 7.28125 34.578125 7.28125 
Q 39.984375 7.28125 44.140625 8.890625 
Q 48.296875 10.5 50.3125 13.296875 
Q 52.34375 16.109375 52.34375 19.4375 
Q 52.34375 22.796875 50.390625 25.3125 
Q 48.4375 27.828125 43.953125 29.546875 
Q 41.0625 30.671875 31.203125 33.03125 
Q 21.34375 35.40625 17.390625 37.5 
Q 12.25 40.1875 9.734375 44.15625 
Q 7.234375 48.140625 7.234375 53.078125 
Q 7.234375 58.5 10.296875 63.203125 
Q 13.375 67.921875 19.28125 70.359375 
Q 25.203125 72.796875 32.421875 72.796875 
Q 40.375 72.796875 46.453125 70.234375 
Q 52.546875 67.671875 55.8125 62.6875 
Q 59.078125 57.71875 59.328125 51.421875 
L 50.25 50.734375 
Q 49.515625 57.515625 45.28125 60.984375 
Q 41.0625 64.453125 32.8125 64.453125 
Q 24.21875 64.453125 20.28125 61.296875 
Q 16.359375 58.15625 16.359375 53.71875 
Q 16.359375 49.859375 19.140625 47.359375 
Q 21.875 44.875 33.421875 42.265625 
Q 44.96875 39.65625 49.265625 37.703125 
Q 55.515625 34.8125 58.484375 30.390625 
Q 61.46875 25.984375 61.46875 20.21875 
Q 61.46875 14.5 58.203125 9.4375 
Q 54.9375 4.390625 48.796875 1.578125 
Q 42.671875 -1.21875 35.015625 -1.21875 
Q 25.296875 -1.21875 18.71875 1.609375 
Q 12.15625 4.4375 8.421875 10.125 
Q 4.6875 15.828125 4.5 23 
z
" id="ArialMT-83"/>
      <path d="M 6.640625 61.46875 
L 6.640625 71.578125 
L 15.4375 71.578125 
L 15.4375 61.46875 
z
M 6.640625 0 
L 6.640625 51.859375 
L 15.4375 51.859375 
L 15.4375 0 
z
" id="ArialMT-105"/>
      <path d="M 6.59375 0 
L 6.59375 51.859375 
L 14.453125 51.859375 
L 14.453125 44.578125 
Q 16.890625 48.390625 20.9375 50.703125 
Q 25 53.03125 30.171875 53.03125 
Q 35.9375 53.03125 39.625 50.640625 
Q 43.3125 48.25 44.828125 43.953125 
Q 50.984375 53.03125 60.84375 53.03125 
Q 68.5625 53.03125 72.703125 48.75 
Q 76.859375 44.484375 76.859375 35.59375 
L 76.859375 0 
L 68.109375 0 
L 68.109375 32.671875 
Q 68.109375 37.9375 67.25 40.25 
Q 66.40625 42.578125 64.15625 43.984375 
Q 61.921875 45.40625 58.890625 45.40625 
Q 53.421875 45.40625 49.796875 41.765625 
Q 46.1875 38.140625 46.1875 30.125 
L 46.1875 0 
L 37.40625 0 
L 37.40625 33.6875 
Q 37.40625 39.546875 35.25 42.46875 
Q 33.109375 45.40625 28.21875 45.40625 
Q 24.515625 45.40625 21.359375 43.453125 
Q 18.21875 41.5 16.796875 37.734375 
Q 15.375 33.984375 15.375 26.90625 
L 15.375 0 
z
" id="ArialMT-109"/>
      <path d="M 40.578125 0 
L 40.578125 7.625 
Q 34.515625 -1.171875 24.125 -1.171875 
Q 19.53125 -1.171875 15.546875 0.578125 
Q 11.578125 2.34375 9.640625 5 
Q 7.71875 7.671875 6.9375 11.53125 
Q 6.390625 14.109375 6.390625 19.734375 
L 6.390625 51.859375 
L 15.1875 51.859375 
L 15.1875 23.09375 
Q 15.1875 16.21875 15.71875 13.8125 
Q 16.546875 10.359375 19.234375 8.375 
Q 21.921875 6.390625 25.875 6.390625 
Q 29.828125 6.390625 33.296875 8.421875 
Q 36.765625 10.453125 38.203125 13.9375 
Q 39.65625 17.4375 39.65625 24.078125 
L 39.65625 51.859375 
L 48.4375 51.859375 
L 48.4375 0 
z
" id="ArialMT-117"/>
      <path d="M 6.390625 0 
L 6.390625 71.578125 
L 15.1875 71.578125 
L 15.1875 0 
z
" id="ArialMT-108"/>
      <path d="M 40.4375 6.390625 
Q 35.546875 2.25 31.03125 0.53125 
Q 26.515625 -1.171875 21.34375 -1.171875 
Q 12.796875 -1.171875 8.203125 3 
Q 3.609375 7.171875 3.609375 13.671875 
Q 3.609375 17.484375 5.34375 20.625 
Q 7.078125 23.78125 9.890625 25.6875 
Q 12.703125 27.59375 16.21875 28.5625 
Q 18.796875 29.25 24.03125 29.890625 
Q 34.671875 31.15625 39.703125 32.90625 
Q 39.75 34.71875 39.75 35.203125 
Q 39.75 40.578125 37.25 42.78125 
Q 33.890625 45.75 27.25 45.75 
Q 21.046875 45.75 18.09375 43.578125 
Q 15.140625 41.40625 13.71875 35.890625 
L 5.125 37.0625 
Q 6.296875 42.578125 8.984375 45.96875 
Q 11.671875 49.359375 16.75 51.1875 
Q 21.828125 53.03125 28.515625 53.03125 
Q 35.15625 53.03125 39.296875 51.46875 
Q 43.453125 49.90625 45.40625 47.53125 
Q 47.359375 45.171875 48.140625 41.546875 
Q 48.578125 39.3125 48.578125 33.453125 
L 48.578125 21.734375 
Q 48.578125 9.46875 49.140625 6.21875 
Q 49.703125 2.984375 51.375 0 
L 42.1875 0 
Q 40.828125 2.734375 40.4375 6.390625 
z
M 39.703125 26.03125 
Q 34.90625 24.078125 25.34375 22.703125 
Q 19.921875 21.921875 17.671875 20.9375 
Q 15.4375 19.96875 14.203125 18.09375 
Q 12.984375 16.21875 12.984375 13.921875 
Q 12.984375 10.40625 15.640625 8.0625 
Q 18.3125 5.71875 23.4375 5.71875 
Q 28.515625 5.71875 32.46875 7.9375 
Q 36.421875 10.15625 38.28125 14.015625 
Q 39.703125 17 39.703125 22.796875 
z
" id="ArialMT-97"/>
      <path d="M 25.78125 7.859375 
L 27.046875 0.09375 
Q 23.34375 -0.6875 20.40625 -0.6875 
Q 15.625 -0.6875 12.984375 0.828125 
Q 10.359375 2.34375 9.28125 4.8125 
Q 8.203125 7.28125 8.203125 15.1875 
L 8.203125 45.015625 
L 1.765625 45.015625 
L 1.765625 51.859375 
L 8.203125 51.859375 
L 8.203125 64.703125 
L 16.9375 69.96875 
L 16.9375 51.859375 
L 25.78125 51.859375 
L 25.78125 45.015625 
L 16.9375 45.015625 
L 16.9375 14.703125 
Q 16.9375 10.9375 17.40625 9.859375 
Q 17.875 8.796875 18.921875 8.15625 
Q 19.96875 7.515625 21.921875 7.515625 
Q 23.390625 7.515625 25.78125 7.859375 
z
" id="ArialMT-116"/>
      <path d="M 3.328125 25.921875 
Q 3.328125 40.328125 11.328125 47.265625 
Q 18.015625 53.03125 27.640625 53.03125 
Q 38.328125 53.03125 45.109375 46.015625 
Q 51.90625 39.015625 51.90625 26.65625 
Q 51.90625 16.65625 48.90625 10.90625 
Q 45.90625 5.171875 40.15625 2 
Q 34.421875 -1.171875 27.640625 -1.171875 
Q 16.75 -1.171875 10.03125 5.8125 
Q 3.328125 12.796875 3.328125 25.921875 
z
M 12.359375 25.921875 
Q 12.359375 15.96875 16.703125 11.015625 
Q 21.046875 6.0625 27.640625 6.0625 
Q 34.1875 6.0625 38.53125 11.03125 
Q 42.875 16.015625 42.875 26.21875 
Q 42.875 35.84375 38.5 40.796875 
Q 34.125 45.75 27.640625 45.75 
Q 21.046875 45.75 16.703125 40.8125 
Q 12.359375 35.890625 12.359375 25.921875 
z
" id="ArialMT-111"/>
      <path d="M 6.59375 0 
L 6.59375 51.859375 
L 14.5 51.859375 
L 14.5 44.484375 
Q 20.21875 53.03125 31 53.03125 
Q 35.6875 53.03125 39.625 51.34375 
Q 43.5625 49.65625 45.515625 46.921875 
Q 47.46875 44.1875 48.25 40.4375 
Q 48.734375 37.984375 48.734375 31.890625 
L 48.734375 0 
L 39.9375 0 
L 39.9375 31.546875 
Q 39.9375 36.921875 38.90625 39.578125 
Q 37.890625 42.234375 35.28125 43.8125 
Q 32.671875 45.40625 29.15625 45.40625 
Q 23.53125 45.40625 19.453125 41.84375 
Q 15.375 38.28125 15.375 28.328125 
L 15.375 0 
z
" id="ArialMT-110"/>
      <path id="ArialMT-32"/>
      <path d="M 7.859375 0 
L 7.859375 71.578125 
L 39.59375 71.578125 
Q 49.171875 71.578125 54.140625 69.640625 
Q 59.125 67.71875 62.109375 62.828125 
Q 65.09375 57.953125 65.09375 52.046875 
Q 65.09375 44.4375 60.15625 39.203125 
Q 55.21875 33.984375 44.921875 32.5625 
Q 48.6875 30.765625 50.640625 29 
Q 54.78125 25.203125 58.5 19.484375 
L 70.953125 0 
L 59.03125 0 
L 49.5625 14.890625 
Q 45.40625 21.34375 42.71875 24.75 
Q 40.046875 28.171875 37.921875 29.53125 
Q 35.796875 30.90625 33.59375 31.453125 
Q 31.984375 31.78125 28.328125 31.78125 
L 17.328125 31.78125 
L 17.328125 0 
z
M 17.328125 39.984375 
L 37.703125 39.984375 
Q 44.1875 39.984375 47.84375 41.328125 
Q 51.515625 42.671875 53.421875 45.625 
Q 55.328125 48.578125 55.328125 52.046875 
Q 55.328125 57.125 51.640625 60.390625 
Q 47.953125 63.671875 39.984375 63.671875 
L 17.328125 63.671875 
z
" id="ArialMT-82"/>
      <path d="M 42.09375 16.703125 
L 51.171875 15.578125 
Q 49.03125 7.625 43.21875 3.21875 
Q 37.40625 -1.171875 28.375 -1.171875 
Q 17 -1.171875 10.328125 5.828125 
Q 3.65625 12.84375 3.65625 25.484375 
Q 3.65625 38.578125 10.390625 45.796875 
Q 17.140625 53.03125 27.875 53.03125 
Q 38.28125 53.03125 44.875 45.953125 
Q 51.46875 38.875 51.46875 26.03125 
Q 51.46875 25.25 51.421875 23.6875 
L 12.75 23.6875 
Q 13.234375 15.140625 17.578125 10.59375 
Q 21.921875 6.0625 28.421875 6.0625 
Q 33.25 6.0625 36.671875 8.59375 
Q 40.09375 11.140625 42.09375 16.703125 
z
M 13.234375 30.90625 
L 42.1875 30.90625 
Q 41.609375 37.453125 38.875 40.71875 
Q 34.671875 45.796875 27.984375 45.796875 
Q 21.921875 45.796875 17.796875 41.75 
Q 13.671875 37.703125 13.234375 30.90625 
z
" id="ArialMT-101"/>
      <path d="M 3.078125 15.484375 
L 11.765625 16.84375 
Q 12.5 11.625 15.84375 8.84375 
Q 19.1875 6.0625 25.203125 6.0625 
Q 31.25 6.0625 34.171875 8.515625 
Q 37.109375 10.984375 37.109375 14.3125 
Q 37.109375 17.28125 34.515625 19 
Q 32.71875 20.171875 25.53125 21.96875 
Q 15.875 24.421875 12.140625 26.203125 
Q 8.40625 27.984375 6.46875 31.125 
Q 4.546875 34.28125 4.546875 38.09375 
Q 4.546875 41.546875 6.125 44.5 
Q 7.71875 47.46875 10.453125 49.421875 
Q 12.5 50.921875 16.03125 51.96875 
Q 19.578125 53.03125 23.640625 53.03125 
Q 29.734375 53.03125 34.34375 51.265625 
Q 38.96875 49.515625 41.15625 46.5 
Q 43.359375 43.5 44.1875 38.484375 
L 35.59375 37.3125 
Q 35.015625 41.3125 32.203125 43.546875 
Q 29.390625 45.796875 24.265625 45.796875 
Q 18.21875 45.796875 15.625 43.796875 
Q 13.03125 41.796875 13.03125 39.109375 
Q 13.03125 37.40625 14.109375 36.03125 
Q 15.1875 34.625 17.484375 33.6875 
Q 18.796875 33.203125 25.25 31.453125 
Q 34.578125 28.953125 38.25 27.359375 
Q 41.9375 25.78125 44.03125 22.75 
Q 46.140625 19.734375 46.140625 15.234375 
Q 46.140625 10.84375 43.578125 6.953125 
Q 41.015625 3.078125 36.171875 0.953125 
Q 31.34375 -1.171875 25.25 -1.171875 
Q 15.140625 -1.171875 9.84375 3.03125 
Q 4.546875 7.234375 3.078125 15.484375 
z
" id="ArialMT-115"/>
     </defs>
     <g style="fill:#262626;" transform="translate(161.7975 559.498437)scale(0.24 -0.24)">
      <use xlink:href="#ArialMT-83"/>
      <use x="66.699219" xlink:href="#ArialMT-105"/>
      <use x="88.916016" xlink:href="#ArialMT-109"/>
      <use x="172.216797" xlink:href="#ArialMT-117"/>
      <use x="227.832031" xlink:href="#ArialMT-108"/>
      <use x="250.048828" xlink:href="#ArialMT-97"/>
      <use x="305.664062" xlink:href="#ArialMT-116"/>
      <use x="333.447266" xlink:href="#ArialMT-105"/>
      <use x="355.664062" xlink:href="#ArialMT-111"/>
      <use x="411.279297" xlink:href="#ArialMT-110"/>
      <use x="466.894531" xlink:href="#ArialMT-32"/>
      <use x="494.677734" xlink:href="#ArialMT-82"/>
      <use x="566.894531" xlink:href="#ArialMT-101"/>
      <use x="622.509766" xlink:href="#ArialMT-115"/>
      <use x="672.509766" xlink:href="#ArialMT-117"/>
      <use x="728.125" xlink:href="#ArialMT-108"/>
      <use x="750.341797" xlink:href="#ArialMT-116"/>
     </g>
    </g>
   </g>
   <g id="matplotlib.axis_2">
    <g id="ytick_1">
     <g id="line2d_4">
      <path clip-path="url(#p21886f3893)" d="M 72.425 487.159091 
L 437.9125 487.159091 
" style="fill:none;stroke:#cccccc;stroke-linecap:round;"/>
     </g>
     <g id="text_5">
      <!-- −3 -->
      <defs>
       <path d="M 52.828125 31.203125 
L 5.5625 31.203125 
L 5.5625 39.40625 
L 52.828125 39.40625 
z
" id="ArialMT-8722"/>
       <path d="M 4.203125 18.890625 
L 12.984375 20.0625 
Q 14.5 12.59375 18.140625 9.296875 
Q 21.78125 6 27 6 
Q 33.203125 6 37.46875 10.296875 
Q 41.75 14.59375 41.75 20.953125 
Q 41.75 27 37.796875 30.921875 
Q 33.84375 34.859375 27.734375 34.859375 
Q 25.25 34.859375 21.53125 33.890625 
L 22.515625 41.609375 
Q 23.390625 41.5 23.921875 41.5 
Q 29.546875 41.5 34.03125 44.421875 
Q 38.53125 47.359375 38.53125 53.46875 
Q 38.53125 58.296875 35.25 61.46875 
Q 31.984375 64.65625 26.8125 64.65625 
Q 21.6875 64.65625 18.265625 61.421875 
Q 14.84375 58.203125 13.875 51.765625 
L 5.078125 53.328125 
Q 6.6875 62.15625 12.390625 67.015625 
Q 18.109375 71.875 26.609375 71.875 
Q 32.46875 71.875 37.390625 69.359375 
Q 42.328125 66.84375 44.9375 62.5 
Q 47.5625 58.15625 47.5625 53.265625 
Q 47.5625 48.640625 45.0625 44.828125 
Q 42.578125 41.015625 37.703125 38.765625 
Q 44.046875 37.3125 47.5625 32.6875 
Q 51.078125 28.078125 51.078125 21.140625 
Q 51.078125 11.765625 44.234375 5.25 
Q 37.40625 -1.265625 26.953125 -1.265625 
Q 17.53125 -1.265625 11.296875 4.34375 
Q 5.078125 9.96875 4.203125 18.890625 
z
" id="ArialMT-51"/>
      </defs>
      <g style="fill:#262626;" transform="translate(37.841562 495.032685)scale(0.22 -0.22)">
       <use xlink:href="#ArialMT-8722"/>
       <use x="58.398438" xlink:href="#ArialMT-51"/>
      </g>
     </g>
    </g>
    <g id="ytick_2">
     <g id="line2d_5">
      <path clip-path="url(#p21886f3893)" d="M 72.425 426.662871 
L 437.9125 426.662871 
" style="fill:none;stroke:#cccccc;stroke-linecap:round;"/>
     </g>
     <g id="text_6">
      <!-- −2 -->
      <g style="fill:#262626;" transform="translate(37.841562 434.536465)scale(0.22 -0.22)">
       <use xlink:href="#ArialMT-8722"/>
       <use x="58.398438" xlink:href="#ArialMT-50"/>
      </g>
     </g>
    </g>
    <g id="ytick_3">
     <g id="line2d_6">
      <path clip-path="url(#p21886f3893)" d="M 72.425 366.166651 
L 437.9125 366.166651 
" style="fill:none;stroke:#cccccc;stroke-linecap:round;"/>
     </g>
     <g id="text_7">
      <!-- −1 -->
      <defs>
       <path d="M 37.25 0 
L 28.46875 0 
L 28.46875 56 
Q 25.296875 52.984375 20.140625 49.953125 
Q 14.984375 46.921875 10.890625 45.40625 
L 10.890625 53.90625 
Q 18.265625 57.375 23.78125 62.296875 
Q 29.296875 67.234375 31.59375 71.875 
L 37.25 71.875 
z
" id="ArialMT-49"/>
      </defs>
      <g style="fill:#262626;" transform="translate(37.841562 374.040245)scale(0.22 -0.22)">
       <use xlink:href="#ArialMT-8722"/>
       <use x="58.398438" xlink:href="#ArialMT-49"/>
      </g>
     </g>
    </g>
    <g id="ytick_4">
     <g id="line2d_7">
      <path clip-path="url(#p21886f3893)" d="M 72.425 305.670432 
L 437.9125 305.670432 
" style="fill:none;stroke:#cccccc;stroke-linecap:round;"/>
     </g>
     <g id="text_8">
      <!-- 0 -->
      <g style="fill:#262626;" transform="translate(50.690937 313.544025)scale(0.22 -0.22)">
       <use xlink:href="#ArialMT-48"/>
      </g>
     </g>
    </g>
    <g id="ytick_5">
     <g id="line2d_8">
      <path clip-path="url(#p21886f3893)" d="M 72.425 245.174212 
L 437.9125 245.174212 
" style="fill:none;stroke:#cccccc;stroke-linecap:round;"/>
     </g>
     <g id="text_9">
      <!-- 1 -->
      <g style="fill:#262626;" transform="translate(50.690937 253.047806)scale(0.22 -0.22)">
       <use xlink:href="#ArialMT-49"/>
      </g>
     </g>
    </g>
    <g id="ytick_6">
     <g id="line2d_9">
      <path clip-path="url(#p21886f3893)" d="M 72.425 184.677992 
L 437.9125 184.677992 
" style="fill:none;stroke:#cccccc;stroke-linecap:round;"/>
     </g>
     <g id="text_10">
      <!-- 2 -->
      <g style="fill:#262626;" transform="translate(50.690937 192.551586)scale(0.22 -0.22)">
       <use xlink:href="#ArialMT-50"/>
      </g>
     </g>
    </g>
    <g id="ytick_7">
     <g id="line2d_10">
      <path clip-path="url(#p21886f3893)" d="M 72.425 124.181772 
L 437.9125 124.181772 
" style="fill:none;stroke:#cccccc;stroke-linecap:round;"/>
     </g>
     <g id="text_11">
      <!-- 3 -->
      <g style="fill:#262626;" transform="translate(50.690937 132.055366)scale(0.22 -0.22)">
       <use xlink:href="#ArialMT-51"/>
      </g>
     </g>
    </g>
    <g id="ytick_8">
     <g id="line2d_11">
      <path clip-path="url(#p21886f3893)" d="M 72.425 63.685553 
L 437.9125 63.685553 
" style="fill:none;stroke:#cccccc;stroke-linecap:round;"/>
     </g>
     <g id="text_12">
      <!-- 4 -->
      <g style="fill:#262626;" transform="translate(50.690937 71.559146)scale(0.22 -0.22)">
       <use xlink:href="#ArialMT-52"/>
      </g>
     </g>
    </g>
    <g id="text_13">
     <!-- Z-Score -->
     <defs>
      <path d="M 2 0 
L 2 8.796875 
L 38.671875 54.640625 
Q 42.578125 59.515625 46.09375 63.140625 
L 6.15625 63.140625 
L 6.15625 71.578125 
L 57.421875 71.578125 
L 57.421875 63.140625 
L 17.234375 13.484375 
L 12.890625 8.453125 
L 58.59375 8.453125 
L 58.59375 0 
z
" id="ArialMT-90"/>
      <path d="M 3.171875 21.484375 
L 3.171875 30.328125 
L 30.171875 30.328125 
L 30.171875 21.484375 
z
" id="ArialMT-45"/>
      <path d="M 40.4375 19 
L 49.078125 17.875 
Q 47.65625 8.9375 41.8125 3.875 
Q 35.984375 -1.171875 27.484375 -1.171875 
Q 16.84375 -1.171875 10.375 5.78125 
Q 3.90625 12.75 3.90625 25.734375 
Q 3.90625 34.125 6.6875 40.421875 
Q 9.46875 46.734375 15.15625 49.875 
Q 20.84375 53.03125 27.546875 53.03125 
Q 35.984375 53.03125 41.359375 48.75 
Q 46.734375 44.484375 48.25 36.625 
L 39.703125 35.296875 
Q 38.484375 40.53125 35.375 43.15625 
Q 32.28125 45.796875 27.875 45.796875 
Q 21.234375 45.796875 17.078125 41.03125 
Q 12.9375 36.28125 12.9375 25.984375 
Q 12.9375 15.53125 16.9375 10.796875 
Q 20.953125 6.0625 27.390625 6.0625 
Q 32.5625 6.0625 36.03125 9.234375 
Q 39.5 12.40625 40.4375 19 
z
" id="ArialMT-99"/>
      <path d="M 6.5 0 
L 6.5 51.859375 
L 14.40625 51.859375 
L 14.40625 44 
Q 17.4375 49.515625 20 51.265625 
Q 22.5625 53.03125 25.640625 53.03125 
Q 30.078125 53.03125 34.671875 50.203125 
L 31.640625 42.046875 
Q 28.421875 43.953125 25.203125 43.953125 
Q 22.3125 43.953125 20.015625 42.21875 
Q 17.71875 40.484375 16.75 37.40625 
Q 15.28125 32.71875 15.28125 27.15625 
L 15.28125 0 
z
" id="ArialMT-114"/>
     </defs>
     <g style="fill:#262626;" transform="translate(29.071562 314.42125)rotate(-90)scale(0.24 -0.24)">
      <use xlink:href="#ArialMT-90"/>
      <use x="61.083984" xlink:href="#ArialMT-45"/>
      <use x="94.384766" xlink:href="#ArialMT-83"/>
      <use x="161.083984" xlink:href="#ArialMT-99"/>
      <use x="211.083984" xlink:href="#ArialMT-111"/>
      <use x="266.699219" xlink:href="#ArialMT-114"/>
      <use x="300" xlink:href="#ArialMT-101"/>
     </g>
    </g>
   </g>
   <g id="PathCollection_1">
    <defs>
     <path d="M 0 1.25 
C 0.331504 1.25 0.649475 1.118292 0.883883 0.883883 
C 1.118292 0.649475 1.25 0.331504 1.25 0 
C 1.25 -0.331504 1.118292 -0.649475 0.883883 -0.883883 
C 0.649475 -1.118292 0.331504 -1.25 0 -1.25 
C -0.331504 -1.25 -0.649475 -1.118292 -0.883883 -0.883883 
C -1.118292 -0.649475 -1.25 -0.331504 -1.25 0 
C -1.25 0.331504 -1.118292 0.649475 -0.883883 0.883883 
C -0.649475 1.118292 -0.331504 1.25 0 1.25 
z
" id="m02bd9ab289" style="stroke:#1a1a1a;stroke-opacity:0.5;"/>
    </defs>
    <g clip-path="url(#p21886f3893)">
     <use style="fill:#1a1a1a;fill-opacity:0.5;stroke:#1a1a1a;stroke-opacity:0.5;" x="193.278485" xlink:href="#m02bd9ab289" y="359.134171"/>
     <use style="fill:#1a1a1a;fill-opacity:0.5;stroke:#1a1a1a;stroke-opacity:0.5;" x="124.984894" xlink:href="#m02bd9ab289" y="318.721542"/>
     <use style="fill:#1a1a1a;fill-opacity:0.5;stroke:#1a1a1a;stroke-opacity:0.5;" x="74.938858" xlink:href="#m02bd9ab289" y="387.340916"/>
     <use style="fill:#1a1a1a;fill-opacity:0.5;stroke:#1a1a1a;stroke-opacity:0.5;" x="284.487126" xlink:href="#m02bd9ab289" y="211.30618"/>
     <use style="fill:#1a1a1a;fill-opacity:0.5;stroke:#1a1a1a;stroke-opacity:0.5;" x="357.18567" xlink:href="#m02bd9ab289" y="203.903953"/>
     <use style="fill:#1a1a1a;fill-opacity:0.5;stroke:#1a1a1a;stroke-opacity:0.5;" x="145.07549" xlink:href="#m02bd9ab289" y="309.25304"/>
     <use style="fill:#1a1a1a;fill-opacity:0.5;stroke:#1a1a1a;stroke-opacity:0.5;" x="149.751266" xlink:href="#m02bd9ab289" y="325.555035"/>
     <use style="fill:#1a1a1a;fill-opacity:0.5;stroke:#1a1a1a;stroke-opacity:0.5;" x="153.919699" xlink:href="#m02bd9ab289" y="321.24179"/>
     <use style="fill:#1a1a1a;fill-opacity:0.5;stroke:#1a1a1a;stroke-opacity:0.5;" x="221.16311" xlink:href="#m02bd9ab289" y="246.990551"/>
     <use style="fill:#1a1a1a;fill-opacity:0.5;stroke:#1a1a1a;stroke-opacity:0.5;" x="194.473835" xlink:href="#m02bd9ab289" y="336.954845"/>
     <use style="fill:#1a1a1a;fill-opacity:0.5;stroke:#1a1a1a;stroke-opacity:0.5;" x="99.422919" xlink:href="#m02bd9ab289" y="356.84628"/>
     <use style="fill:#1a1a1a;fill-opacity:0.5;stroke:#1a1a1a;stroke-opacity:0.5;" x="129.347882" xlink:href="#m02bd9ab289" y="337.642922"/>
     <use style="fill:#1a1a1a;fill-opacity:0.5;stroke:#1a1a1a;stroke-opacity:0.5;" x="74.938858" xlink:href="#m02bd9ab289" y="365.212078"/>
     <use style="fill:#1a1a1a;fill-opacity:0.5;stroke:#1a1a1a;stroke-opacity:0.5;" x="346.983978" xlink:href="#m02bd9ab289" y="155.948024"/>
     <use style="fill:#1a1a1a;fill-opacity:0.5;stroke:#1a1a1a;stroke-opacity:0.5;" x="192.258316" xlink:href="#m02bd9ab289" y="351.294275"/>
     <use style="fill:#1a1a1a;fill-opacity:0.5;stroke:#1a1a1a;stroke-opacity:0.5;" x="207.930275" xlink:href="#m02bd9ab289" y="319.589961"/>
     <use style="fill:#1a1a1a;fill-opacity:0.5;stroke:#1a1a1a;stroke-opacity:0.5;" x="175.498393" xlink:href="#m02bd9ab289" y="307.208331"/>
     <use style="fill:#1a1a1a;fill-opacity:0.5;stroke:#1a1a1a;stroke-opacity:0.5;" x="168.840796" xlink:href="#m02bd9ab289" y="287.722006"/>
     <use style="fill:#1a1a1a;fill-opacity:0.5;stroke:#1a1a1a;stroke-opacity:0.5;" x="74.938858" xlink:href="#m02bd9ab289" y="445.418939"/>
     <use style="fill:#1a1a1a;fill-opacity:0.5;stroke:#1a1a1a;stroke-opacity:0.5;" x="93.156165" xlink:href="#m02bd9ab289" y="368.447049"/>
     <use style="fill:#1a1a1a;fill-opacity:0.5;stroke:#1a1a1a;stroke-opacity:0.5;" x="154.911921" xlink:href="#m02bd9ab289" y="324.958742"/>
     <use style="fill:#1a1a1a;fill-opacity:0.5;stroke:#1a1a1a;stroke-opacity:0.5;" x="288.312275" xlink:href="#m02bd9ab289" y="203.022244"/>
     <use style="fill:#1a1a1a;fill-opacity:0.5;stroke:#1a1a1a;stroke-opacity:0.5;" x="204.126113" xlink:href="#m02bd9ab289" y="272.78418"/>
     <use style="fill:#1a1a1a;fill-opacity:0.5;stroke:#1a1a1a;stroke-opacity:0.5;" x="83.600672" xlink:href="#m02bd9ab289" y="353.855758"/>
     <use style="fill:#1a1a1a;fill-opacity:0.5;stroke:#1a1a1a;stroke-opacity:0.5;" x="212.439924" xlink:href="#m02bd9ab289" y="246.563664"/>
     <use style="fill:#1a1a1a;fill-opacity:0.5;stroke:#1a1a1a;stroke-opacity:0.5;" x="129.347882" xlink:href="#m02bd9ab289" y="375.881347"/>
     <use style="fill:#1a1a1a;fill-opacity:0.5;stroke:#1a1a1a;stroke-opacity:0.5;" x="115.745626" xlink:href="#m02bd9ab289" y="373.913092"/>
     <use style="fill:#1a1a1a;fill-opacity:0.5;stroke:#1a1a1a;stroke-opacity:0.5;" x="299.376082" xlink:href="#m02bd9ab289" y="314.001676"/>
     <use style="fill:#1a1a1a;fill-opacity:0.5;stroke:#1a1a1a;stroke-opacity:0.5;" x="171.854932" xlink:href="#m02bd9ab289" y="302.541463"/>
     <use style="fill:#1a1a1a;fill-opacity:0.5;stroke:#1a1a1a;stroke-opacity:0.5;" x="278.972698" xlink:href="#m02bd9ab289" y="222.162918"/>
     <use style="fill:#1a1a1a;fill-opacity:0.5;stroke:#1a1a1a;stroke-opacity:0.5;" x="123.165038" xlink:href="#m02bd9ab289" y="307.491384"/>
     <use style="fill:#1a1a1a;fill-opacity:0.5;stroke:#1a1a1a;stroke-opacity:0.5;" x="262.394949" xlink:href="#m02bd9ab289" y="243.158751"/>
     <use style="fill:#1a1a1a;fill-opacity:0.5;stroke:#1a1a1a;stroke-opacity:0.5;" x="118.809615" xlink:href="#m02bd9ab289" y="309.665525"/>
     <use style="fill:#1a1a1a;fill-opacity:0.5;stroke:#1a1a1a;stroke-opacity:0.5;" x="278.972698" xlink:href="#m02bd9ab289" y="244.412852"/>
     <use style="fill:#1a1a1a;fill-opacity:0.5;stroke:#1a1a1a;stroke-opacity:0.5;" x="173.66491" xlink:href="#m02bd9ab289" y="297.450345"/>
     <use style="fill:#1a1a1a;fill-opacity:0.5;stroke:#1a1a1a;stroke-opacity:0.5;" x="246.327284" xlink:href="#m02bd9ab289" y="252.401153"/>
     <use style="fill:#1a1a1a;fill-opacity:0.5;stroke:#1a1a1a;stroke-opacity:0.5;" x="88.245413" xlink:href="#m02bd9ab289" y="350.303795"/>
     <use style="fill:#1a1a1a;fill-opacity:0.5;stroke:#1a1a1a;stroke-opacity:0.5;" x="90.241396" xlink:href="#m02bd9ab289" y="391.598992"/>
     <use style="fill:#1a1a1a;fill-opacity:0.5;stroke:#1a1a1a;stroke-opacity:0.5;" x="74.938858" xlink:href="#m02bd9ab289" y="358.578574"/>
     <use style="fill:#1a1a1a;fill-opacity:0.5;stroke:#1a1a1a;stroke-opacity:0.5;" x="144.957851" xlink:href="#m02bd9ab289" y="323.542945"/>
     <use style="fill:#1a1a1a;fill-opacity:0.5;stroke:#1a1a1a;stroke-opacity:0.5;" x="107.087047" xlink:href="#m02bd9ab289" y="353.144751"/>
     <use style="fill:#1a1a1a;fill-opacity:0.5;stroke:#1a1a1a;stroke-opacity:0.5;" x="108.944498" xlink:href="#m02bd9ab289" y="364.654452"/>
     <use style="fill:#1a1a1a;fill-opacity:0.5;stroke:#1a1a1a;stroke-opacity:0.5;" x="174.007312" xlink:href="#m02bd9ab289" y="282.339325"/>
     <use style="fill:#1a1a1a;fill-opacity:0.5;stroke:#1a1a1a;stroke-opacity:0.5;" x="282.148322" xlink:href="#m02bd9ab289" y="219.015637"/>
     <use style="fill:#1a1a1a;fill-opacity:0.5;stroke:#1a1a1a;stroke-opacity:0.5;" x="217.337475" xlink:href="#m02bd9ab289" y="281.501153"/>
     <use style="fill:#1a1a1a;fill-opacity:0.5;stroke:#1a1a1a;stroke-opacity:0.5;" x="180.805473" xlink:href="#m02bd9ab289" y="343.588126"/>
     <use style="fill:#1a1a1a;fill-opacity:0.5;stroke:#1a1a1a;stroke-opacity:0.5;" x="211.298107" xlink:href="#m02bd9ab289" y="267.417244"/>
     <use style="fill:#1a1a1a;fill-opacity:0.5;stroke:#1a1a1a;stroke-opacity:0.5;" x="213.423365" xlink:href="#m02bd9ab289" y="293.030865"/>
     <use style="fill:#1a1a1a;fill-opacity:0.5;stroke:#1a1a1a;stroke-opacity:0.5;" x="217.671051" xlink:href="#m02bd9ab289" y="268.700255"/>
     <use style="fill:#1a1a1a;fill-opacity:0.5;stroke:#1a1a1a;stroke-opacity:0.5;" x="163.792304" xlink:href="#m02bd9ab289" y="333.617856"/>
     <use style="fill:#1a1a1a;fill-opacity:0.5;stroke:#1a1a1a;stroke-opacity:0.5;" x="160.168183" xlink:href="#m02bd9ab289" y="312.639139"/>
     <use style="fill:#1a1a1a;fill-opacity:0.5;stroke:#1a1a1a;stroke-opacity:0.5;" x="74.938858" xlink:href="#m02bd9ab289" y="409.059312"/>
     <use style="fill:#1a1a1a;fill-opacity:0.5;stroke:#1a1a1a;stroke-opacity:0.5;" x="278.972698" xlink:href="#m02bd9ab289" y="226.742743"/>
     <use style="fill:#1a1a1a;fill-opacity:0.5;stroke:#1a1a1a;stroke-opacity:0.5;" x="97.197095" xlink:href="#m02bd9ab289" y="369.069458"/>
     <use style="fill:#1a1a1a;fill-opacity:0.5;stroke:#1a1a1a;stroke-opacity:0.5;" x="74.938858" xlink:href="#m02bd9ab289" y="387.90666"/>
     <use style="fill:#1a1a1a;fill-opacity:0.5;stroke:#1a1a1a;stroke-opacity:0.5;" x="238.16593" xlink:href="#m02bd9ab289" y="261.926305"/>
     <use style="fill:#1a1a1a;fill-opacity:0.5;stroke:#1a1a1a;stroke-opacity:0.5;" x="222.863392" xlink:href="#m02bd9ab289" y="308.640996"/>
     <use style="fill:#1a1a1a;fill-opacity:0.5;stroke:#1a1a1a;stroke-opacity:0.5;" x="233.631845" xlink:href="#m02bd9ab289" y="268.702337"/>
     <use style="fill:#1a1a1a;fill-opacity:0.5;stroke:#1a1a1a;stroke-opacity:0.5;" x="142.950138" xlink:href="#m02bd9ab289" y="320.277999"/>
     <use style="fill:#1a1a1a;fill-opacity:0.5;stroke:#1a1a1a;stroke-opacity:0.5;" x="234.884984" xlink:href="#m02bd9ab289" y="271.937331"/>
     <use style="fill:#1a1a1a;fill-opacity:0.5;stroke:#1a1a1a;stroke-opacity:0.5;" x="238.16593" xlink:href="#m02bd9ab289" y="322.26608"/>
     <use style="fill:#1a1a1a;fill-opacity:0.5;stroke:#1a1a1a;stroke-opacity:0.5;" x="183.756906" xlink:href="#m02bd9ab289" y="296.407689"/>
     <use style="fill:#1a1a1a;fill-opacity:0.5;stroke:#1a1a1a;stroke-opacity:0.5;" x="170.57972" xlink:href="#m02bd9ab289" y="405.395571"/>
     <use style="fill:#1a1a1a;fill-opacity:0.5;stroke:#1a1a1a;stroke-opacity:0.5;" x="117.152756" xlink:href="#m02bd9ab289" y="332.215161"/>
     <use style="fill:#1a1a1a;fill-opacity:0.5;stroke:#1a1a1a;stroke-opacity:0.5;" x="205.010431" xlink:href="#m02bd9ab289" y="267.439049"/>
     <use style="fill:#1a1a1a;fill-opacity:0.5;stroke:#1a1a1a;stroke-opacity:0.5;" x="123.582687" xlink:href="#m02bd9ab289" y="329.215917"/>
     <use style="fill:#1a1a1a;fill-opacity:0.5;stroke:#1a1a1a;stroke-opacity:0.5;" x="115.032844" xlink:href="#m02bd9ab289" y="328.73893"/>
     <use style="fill:#1a1a1a;fill-opacity:0.5;stroke:#1a1a1a;stroke-opacity:0.5;" x="242.860514" xlink:href="#m02bd9ab289" y="227.314102"/>
     <use style="fill:#1a1a1a;fill-opacity:0.5;stroke:#1a1a1a;stroke-opacity:0.5;" x="145.217181" xlink:href="#m02bd9ab289" y="308.414674"/>
     <use style="fill:#1a1a1a;fill-opacity:0.5;stroke:#1a1a1a;stroke-opacity:0.5;" x="74.938858" xlink:href="#m02bd9ab289" y="394.825736"/>
     <use style="fill:#1a1a1a;fill-opacity:0.5;stroke:#1a1a1a;stroke-opacity:0.5;" x="157.585477" xlink:href="#m02bd9ab289" y="322.378459"/>
     <use style="fill:#1a1a1a;fill-opacity:0.5;stroke:#1a1a1a;stroke-opacity:0.5;" x="151.451548" xlink:href="#m02bd9ab289" y="302.323761"/>
     <use style="fill:#1a1a1a;fill-opacity:0.5;stroke:#1a1a1a;stroke-opacity:0.5;" x="74.938858" xlink:href="#m02bd9ab289" y="369.045134"/>
     <use style="fill:#1a1a1a;fill-opacity:0.5;stroke:#1a1a1a;stroke-opacity:0.5;" x="204.942721" xlink:href="#m02bd9ab289" y="265.098938"/>
     <use style="fill:#1a1a1a;fill-opacity:0.5;stroke:#1a1a1a;stroke-opacity:0.5;" x="170.15465" xlink:href="#m02bd9ab289" y="310.218023"/>
     <use style="fill:#1a1a1a;fill-opacity:0.5;stroke:#1a1a1a;stroke-opacity:0.5;" x="229.421623" xlink:href="#m02bd9ab289" y="275.319391"/>
     <use style="fill:#1a1a1a;fill-opacity:0.5;stroke:#1a1a1a;stroke-opacity:0.5;" x="138.777667" xlink:href="#m02bd9ab289" y="340.019839"/>
     <use style="fill:#1a1a1a;fill-opacity:0.5;stroke:#1a1a1a;stroke-opacity:0.5;" x="195.236266" xlink:href="#m02bd9ab289" y="276.608115"/>
     <use style="fill:#1a1a1a;fill-opacity:0.5;stroke:#1a1a1a;stroke-opacity:0.5;" x="224.563674" xlink:href="#m02bd9ab289" y="265.941353"/>
     <use style="fill:#1a1a1a;fill-opacity:0.5;stroke:#1a1a1a;stroke-opacity:0.5;" x="187.15747" xlink:href="#m02bd9ab289" y="296.363531"/>
     <use style="fill:#1a1a1a;fill-opacity:0.5;stroke:#1a1a1a;stroke-opacity:0.5;" x="240.660667" xlink:href="#m02bd9ab289" y="266.923634"/>
     <use style="fill:#1a1a1a;fill-opacity:0.5;stroke:#1a1a1a;stroke-opacity:0.5;" x="157.987808" xlink:href="#m02bd9ab289" y="315.650492"/>
     <use style="fill:#1a1a1a;fill-opacity:0.5;stroke:#1a1a1a;stroke-opacity:0.5;" x="207.560854" xlink:href="#m02bd9ab289" y="313.293864"/>
     <use style="fill:#1a1a1a;fill-opacity:0.5;stroke:#1a1a1a;stroke-opacity:0.5;" x="185.117132" xlink:href="#m02bd9ab289" y="293.0106"/>
     <use style="fill:#1a1a1a;fill-opacity:0.5;stroke:#1a1a1a;stroke-opacity:0.5;" x="416.99559" xlink:href="#m02bd9ab289" y="133.488287"/>
     <use style="fill:#1a1a1a;fill-opacity:0.5;stroke:#1a1a1a;stroke-opacity:0.5;" x="182.470206" xlink:href="#m02bd9ab289" y="302.890127"/>
     <use style="fill:#1a1a1a;fill-opacity:0.5;stroke:#1a1a1a;stroke-opacity:0.5;" x="248.367622" xlink:href="#m02bd9ab289" y="244.720771"/>
     <use style="fill:#1a1a1a;fill-opacity:0.5;stroke:#1a1a1a;stroke-opacity:0.5;" x="220.51976" xlink:href="#m02bd9ab289" y="294.909971"/>
     <use style="fill:#1a1a1a;fill-opacity:0.5;stroke:#1a1a1a;stroke-opacity:0.5;" x="146.350702" xlink:href="#m02bd9ab289" y="315.409611"/>
     <use style="fill:#1a1a1a;fill-opacity:0.5;stroke:#1a1a1a;stroke-opacity:0.5;" x="110.423004" xlink:href="#m02bd9ab289" y="336.250728"/>
     <use style="fill:#1a1a1a;fill-opacity:0.5;stroke:#1a1a1a;stroke-opacity:0.5;" x="115.745626" xlink:href="#m02bd9ab289" y="384.923919"/>
     <use style="fill:#1a1a1a;fill-opacity:0.5;stroke:#1a1a1a;stroke-opacity:0.5;" x="201.145357" xlink:href="#m02bd9ab289" y="322.949638"/>
     <use style="fill:#1a1a1a;fill-opacity:0.5;stroke:#1a1a1a;stroke-opacity:0.5;" x="210.442248" xlink:href="#m02bd9ab289" y="261.334615"/>
     <use style="fill:#1a1a1a;fill-opacity:0.5;stroke:#1a1a1a;stroke-opacity:0.5;" x="139.549574" xlink:href="#m02bd9ab289" y="326.49637"/>
     <use style="fill:#1a1a1a;fill-opacity:0.5;stroke:#1a1a1a;stroke-opacity:0.5;" x="136.14901" xlink:href="#m02bd9ab289" y="360.555054"/>
     <use style="fill:#1a1a1a;fill-opacity:0.5;stroke:#1a1a1a;stroke-opacity:0.5;" x="139.680365" xlink:href="#m02bd9ab289" y="321.896494"/>
     <use style="fill:#1a1a1a;fill-opacity:0.5;stroke:#1a1a1a;stroke-opacity:0.5;" x="197.359162" xlink:href="#m02bd9ab289" y="292.852267"/>
     <use style="fill:#1a1a1a;fill-opacity:0.5;stroke:#1a1a1a;stroke-opacity:0.5;" x="326.580594" xlink:href="#m02bd9ab289" y="190.197365"/>
     <use style="fill:#1a1a1a;fill-opacity:0.5;stroke:#1a1a1a;stroke-opacity:0.5;" x="163.353522" xlink:href="#m02bd9ab289" y="294.865202"/>
     <use style="fill:#1a1a1a;fill-opacity:0.5;stroke:#1a1a1a;stroke-opacity:0.5;" x="153.919699" xlink:href="#m02bd9ab289" y="357.353487"/>
     <use style="fill:#1a1a1a;fill-opacity:0.5;stroke:#1a1a1a;stroke-opacity:0.5;" x="156.552394" xlink:href="#m02bd9ab289" y="309.288905"/>
     <use style="fill:#1a1a1a;fill-opacity:0.5;stroke:#1a1a1a;stroke-opacity:0.5;" x="197.359162" xlink:href="#m02bd9ab289" y="302.779538"/>
     <use style="fill:#1a1a1a;fill-opacity:0.5;stroke:#1a1a1a;stroke-opacity:0.5;" x="105.853076" xlink:href="#m02bd9ab289" y="366.552687"/>
     <use style="fill:#1a1a1a;fill-opacity:0.5;stroke:#1a1a1a;stroke-opacity:0.5;" x="299.376082" xlink:href="#m02bd9ab289" y="216.668852"/>
     <use style="fill:#1a1a1a;fill-opacity:0.5;stroke:#1a1a1a;stroke-opacity:0.5;" x="167.525642" xlink:href="#m02bd9ab289" y="293.795185"/>
     <use style="fill:#1a1a1a;fill-opacity:0.5;stroke:#1a1a1a;stroke-opacity:0.5;" x="358.225512" xlink:href="#m02bd9ab289" y="154.617194"/>
     <use style="fill:#1a1a1a;fill-opacity:0.5;stroke:#1a1a1a;stroke-opacity:0.5;" x="288.081352" xlink:href="#m02bd9ab289" y="295.939582"/>
     <use style="fill:#1a1a1a;fill-opacity:0.5;stroke:#1a1a1a;stroke-opacity:0.5;" x="182.647709" xlink:href="#m02bd9ab289" y="309.006844"/>
     <use style="fill:#1a1a1a;fill-opacity:0.5;stroke:#1a1a1a;stroke-opacity:0.5;" x="278.972698" xlink:href="#m02bd9ab289" y="213.997841"/>
     <use style="fill:#1a1a1a;fill-opacity:0.5;stroke:#1a1a1a;stroke-opacity:0.5;" x="108.944498" xlink:href="#m02bd9ab289" y="332.167666"/>
     <use style="fill:#1a1a1a;fill-opacity:0.5;stroke:#1a1a1a;stroke-opacity:0.5;" x="139.749607" xlink:href="#m02bd9ab289" y="382.307739"/>
     <use style="fill:#1a1a1a;fill-opacity:0.5;stroke:#1a1a1a;stroke-opacity:0.5;" x="368.747588" xlink:href="#m02bd9ab289" y="328.206066"/>
     <use style="fill:#1a1a1a;fill-opacity:0.5;stroke:#1a1a1a;stroke-opacity:0.5;" x="213.228461" xlink:href="#m02bd9ab289" y="277.455175"/>
     <use style="fill:#1a1a1a;fill-opacity:0.5;stroke:#1a1a1a;stroke-opacity:0.5;" x="183.756906" xlink:href="#m02bd9ab289" y="346.412042"/>
     <use style="fill:#1a1a1a;fill-opacity:0.5;stroke:#1a1a1a;stroke-opacity:0.5;" x="74.938858" xlink:href="#m02bd9ab289" y="377.060036"/>
     <use style="fill:#1a1a1a;fill-opacity:0.5;stroke:#1a1a1a;stroke-opacity:0.5;" x="111.664949" xlink:href="#m02bd9ab289" y="369.368148"/>
     <use style="fill:#1a1a1a;fill-opacity:0.5;stroke:#1a1a1a;stroke-opacity:0.5;" x="205.124629" xlink:href="#m02bd9ab289" y="269.134865"/>
     <use style="fill:#1a1a1a;fill-opacity:0.5;stroke:#1a1a1a;stroke-opacity:0.5;" x="153.336097" xlink:href="#m02bd9ab289" y="301.288929"/>
     <use style="fill:#1a1a1a;fill-opacity:0.5;stroke:#1a1a1a;stroke-opacity:0.5;" x="225.9239" xlink:href="#m02bd9ab289" y="288.790467"/>
     <use style="fill:#1a1a1a;fill-opacity:0.5;stroke:#1a1a1a;stroke-opacity:0.5;" x="74.938858" xlink:href="#m02bd9ab289" y="415.216787"/>
     <use style="fill:#1a1a1a;fill-opacity:0.5;stroke:#1a1a1a;stroke-opacity:0.5;" x="182.056624" xlink:href="#m02bd9ab289" y="349.07388"/>
     <use style="fill:#1a1a1a;fill-opacity:0.5;stroke:#1a1a1a;stroke-opacity:0.5;" x="197.359162" xlink:href="#m02bd9ab289" y="265.660311"/>
     <use style="fill:#1a1a1a;fill-opacity:0.5;stroke:#1a1a1a;stroke-opacity:0.5;" x="74.938858" xlink:href="#m02bd9ab289" y="373.06"/>
     <use style="fill:#1a1a1a;fill-opacity:0.5;stroke:#1a1a1a;stroke-opacity:0.5;" x="214.361982" xlink:href="#m02bd9ab289" y="322.449654"/>
     <use style="fill:#1a1a1a;fill-opacity:0.5;stroke:#1a1a1a;stroke-opacity:0.5;" x="421.796386" xlink:href="#m02bd9ab289" y="75.050602"/>
     <use style="fill:#1a1a1a;fill-opacity:0.5;stroke:#1a1a1a;stroke-opacity:0.5;" x="141.77753" xlink:href="#m02bd9ab289" y="376.182401"/>
     <use style="fill:#1a1a1a;fill-opacity:0.5;stroke:#1a1a1a;stroke-opacity:0.5;" x="130.083139" xlink:href="#m02bd9ab289" y="324.315466"/>
     <use style="fill:#1a1a1a;fill-opacity:0.5;stroke:#1a1a1a;stroke-opacity:0.5;" x="170.15465" xlink:href="#m02bd9ab289" y="280.266373"/>
     <use style="fill:#1a1a1a;fill-opacity:0.5;stroke:#1a1a1a;stroke-opacity:0.5;" x="365.68708" xlink:href="#m02bd9ab289" y="190.860523"/>
     <use style="fill:#1a1a1a;fill-opacity:0.5;stroke:#1a1a1a;stroke-opacity:0.5;" x="227.964238" xlink:href="#m02bd9ab289" y="305.41492"/>
     <use style="fill:#1a1a1a;fill-opacity:0.5;stroke:#1a1a1a;stroke-opacity:0.5;" x="315.9019" xlink:href="#m02bd9ab289" y="198.718981"/>
     <use style="fill:#1a1a1a;fill-opacity:0.5;stroke:#1a1a1a;stroke-opacity:0.5;" x="165.926922" xlink:href="#m02bd9ab289" y="363.820547"/>
     <use style="fill:#1a1a1a;fill-opacity:0.5;stroke:#1a1a1a;stroke-opacity:0.5;" x="197.359162" xlink:href="#m02bd9ab289" y="287.418669"/>
     <use style="fill:#1a1a1a;fill-opacity:0.5;stroke:#1a1a1a;stroke-opacity:0.5;" x="112.830857" xlink:href="#m02bd9ab289" y="362.607465"/>
     <use style="fill:#1a1a1a;fill-opacity:0.5;stroke:#1a1a1a;stroke-opacity:0.5;" x="160.633071" xlink:href="#m02bd9ab289" y="313.168137"/>
     <use style="fill:#1a1a1a;fill-opacity:0.5;stroke:#1a1a1a;stroke-opacity:0.5;" x="121.427581" xlink:href="#m02bd9ab289" y="404.652145"/>
     <use style="fill:#1a1a1a;fill-opacity:0.5;stroke:#1a1a1a;stroke-opacity:0.5;" x="74.938858" xlink:href="#m02bd9ab289" y="378.805105"/>
     <use style="fill:#1a1a1a;fill-opacity:0.5;stroke:#1a1a1a;stroke-opacity:0.5;" x="133.234241" xlink:href="#m02bd9ab289" y="305.259373"/>
     <use style="fill:#1a1a1a;fill-opacity:0.5;stroke:#1a1a1a;stroke-opacity:0.5;" x="109.455861" xlink:href="#m02bd9ab289" y="349.414122"/>
     <use style="fill:#1a1a1a;fill-opacity:0.5;stroke:#1a1a1a;stroke-opacity:0.5;" x="82.40351" xlink:href="#m02bd9ab289" y="387.529369"/>
     <use style="fill:#1a1a1a;fill-opacity:0.5;stroke:#1a1a1a;stroke-opacity:0.5;" x="119.826303" xlink:href="#m02bd9ab289" y="341.431443"/>
     <use style="fill:#1a1a1a;fill-opacity:0.5;stroke:#1a1a1a;stroke-opacity:0.5;" x="178.880625" xlink:href="#m02bd9ab289" y="286.788381"/>
     <use style="fill:#1a1a1a;fill-opacity:0.5;stroke:#1a1a1a;stroke-opacity:0.5;" x="192.987008" xlink:href="#m02bd9ab289" y="301.992714"/>
     <use style="fill:#1a1a1a;fill-opacity:0.5;stroke:#1a1a1a;stroke-opacity:0.5;" x="201.705445" xlink:href="#m02bd9ab289" y="297.47342"/>
     <use style="fill:#1a1a1a;fill-opacity:0.5;stroke:#1a1a1a;stroke-opacity:0.5;" x="136.14901" xlink:href="#m02bd9ab289" y="359.339156"/>
     <use style="fill:#1a1a1a;fill-opacity:0.5;stroke:#1a1a1a;stroke-opacity:0.5;" x="174.247364" xlink:href="#m02bd9ab289" y="312.620141"/>
     <use style="fill:#1a1a1a;fill-opacity:0.5;stroke:#1a1a1a;stroke-opacity:0.5;" x="149.751266" xlink:href="#m02bd9ab289" y="336.920718"/>
     <use style="fill:#1a1a1a;fill-opacity:0.5;stroke:#1a1a1a;stroke-opacity:0.5;" x="435.398642" xlink:href="#m02bd9ab289" y="180.271157"/>
     <use style="fill:#1a1a1a;fill-opacity:0.5;stroke:#1a1a1a;stroke-opacity:0.5;" x="242.246607" xlink:href="#m02bd9ab289" y="232.6841"/>
     <use style="fill:#1a1a1a;fill-opacity:0.5;stroke:#1a1a1a;stroke-opacity:0.5;" x="273.075766" xlink:href="#m02bd9ab289" y="231.287857"/>
    </g>
   </g>
   <g id="patch_3">
    <path clip-path="url(#p21886f3893)" d="M 74.938858 426.662871 
L 437.9125 426.662871 
L 437.9125 184.677992 
L 74.938858 184.677992 
z
" style="fill:#55a868;opacity:0.05;stroke:#55a868;stroke-linejoin:miter;"/>
   </g>
   <g id="patch_4">
    <path clip-path="url(#p21886f3893)" d="M 74.938858 487.159091 
L 437.9125 487.159091 
L 437.9125 426.662871 
L 74.938858 426.662871 
z
" style="fill:#ffa500;opacity:0.05;stroke:#ffa500;stroke-linejoin:miter;"/>
   </g>
   <g id="patch_5">
    <path clip-path="url(#p21886f3893)" d="M 74.938858 184.677992 
L 437.9125 184.677992 
L 437.9125 124.181772 
L 74.938858 124.181772 
z
" style="fill:#ffa500;opacity:0.05;stroke:#ffa500;stroke-linejoin:miter;"/>
   </g>
   <g id="patch_6">
    <path clip-path="url(#p21886f3893)" d="M 74.938858 464.128632 
L 437.9125 464.128632 
L 437.9125 487.159091 
L 74.938858 487.159091 
z
" style="fill:#c44e52;opacity:0.05;stroke:#c44e52;stroke-linejoin:miter;"/>
   </g>
   <g id="patch_7">
    <path clip-path="url(#p21886f3893)" d="M 74.938858 124.181772 
L 437.9125 124.181772 
L 437.9125 56.340909 
L 74.938858 56.340909 
z
" style="fill:#c44e52;opacity:0.05;stroke:#c44e52;stroke-linejoin:miter;"/>
   </g>
   <g id="line2d_12">
    <path clip-path="url(#p21886f3893)" d="M 224.841271 464.128632 
L 224.841271 56.340909 
" style="fill:none;stroke:#ccb974;stroke-linecap:round;stroke-width:2;"/>
   </g>
   <g id="patch_8">
    <path d="M 72.425 508.7 
L 72.425 34.8 
" style="fill:none;stroke:#cccccc;stroke-linecap:square;stroke-linejoin:miter;stroke-width:1.25;"/>
   </g>
   <g id="patch_9">
    <path d="M 437.9125 508.7 
L 437.9125 34.8 
" style="fill:none;stroke:#cccccc;stroke-linecap:square;stroke-linejoin:miter;stroke-width:1.25;"/>
   </g>
   <g id="patch_10">
    <path d="M 72.425 508.7 
L 437.9125 508.7 
" style="fill:none;stroke:#cccccc;stroke-linecap:square;stroke-linejoin:miter;stroke-width:1.25;"/>
   </g>
   <g id="patch_11">
    <path d="M 72.425 34.8 
L 437.9125 34.8 
" style="fill:none;stroke:#cccccc;stroke-linecap:square;stroke-linejoin:miter;stroke-width:1.25;"/>
   </g>
   <g id="text_14">
    <!-- Train -->
    <defs>
     <path d="M 25.921875 0 
L 25.921875 63.140625 
L 2.34375 63.140625 
L 2.34375 71.578125 
L 59.078125 71.578125 
L 59.078125 63.140625 
L 35.40625 63.140625 
L 35.40625 0 
z
" id="ArialMT-84"/>
    </defs>
    <g style="fill:#262626;" transform="translate(227.836875 28.8)scale(0.24 -0.24)">
     <use xlink:href="#ArialMT-84"/>
     <use x="61.037109" xlink:href="#ArialMT-114"/>
     <use x="94.337891" xlink:href="#ArialMT-97"/>
     <use x="149.953125" xlink:href="#ArialMT-105"/>
     <use x="172.169922" xlink:href="#ArialMT-110"/>
    </g>
   </g>
   <g id="legend_1">
    <g id="patch_12">
     <path d="M 87.825 114.639375 
L 309.842813 114.639375 
Q 314.242813 114.639375 314.242813 110.239375 
L 314.242813 50.2 
Q 314.242813 45.8 309.842813 45.8 
L 87.825 45.8 
Q 83.425 45.8 83.425 50.2 
L 83.425 110.239375 
Q 83.425 114.639375 87.825 114.639375 
z
" style="fill:#ffffff;opacity:0.8;stroke:#cccccc;stroke-linejoin:miter;"/>
    </g>
    <g id="line2d_13">
     <path d="M 92.225 62.647187 
L 136.225 62.647187 
" style="fill:none;stroke:#ccb974;stroke-linecap:round;stroke-width:2;"/>
    </g>
    <g id="line2d_14"/>
    <g id="text_15">
     <!-- Observed Data -->
     <defs>
      <path d="M 4.828125 34.859375 
Q 4.828125 52.6875 14.390625 62.765625 
Q 23.96875 72.859375 39.109375 72.859375 
Q 49.03125 72.859375 56.984375 68.109375 
Q 64.9375 63.375 69.109375 54.90625 
Q 73.296875 46.4375 73.296875 35.6875 
Q 73.296875 24.8125 68.890625 16.21875 
Q 64.5 7.625 56.4375 3.203125 
Q 48.390625 -1.21875 39.0625 -1.21875 
Q 28.953125 -1.21875 20.984375 3.65625 
Q 13.03125 8.546875 8.921875 16.984375 
Q 4.828125 25.4375 4.828125 34.859375 
z
M 14.59375 34.71875 
Q 14.59375 21.78125 21.546875 14.328125 
Q 28.515625 6.890625 39.015625 6.890625 
Q 49.703125 6.890625 56.609375 14.40625 
Q 63.53125 21.921875 63.53125 35.75 
Q 63.53125 44.484375 60.578125 51 
Q 57.625 57.515625 51.921875 61.109375 
Q 46.234375 64.703125 39.15625 64.703125 
Q 29.109375 64.703125 21.84375 57.78125 
Q 14.59375 50.875 14.59375 34.71875 
z
" id="ArialMT-79"/>
      <path d="M 14.703125 0 
L 6.546875 0 
L 6.546875 71.578125 
L 15.328125 71.578125 
L 15.328125 46.046875 
Q 20.90625 53.03125 29.546875 53.03125 
Q 34.328125 53.03125 38.59375 51.09375 
Q 42.875 49.171875 45.625 45.671875 
Q 48.390625 42.1875 49.953125 37.25 
Q 51.515625 32.328125 51.515625 26.703125 
Q 51.515625 13.375 44.921875 6.09375 
Q 38.328125 -1.171875 29.109375 -1.171875 
Q 19.921875 -1.171875 14.703125 6.5 
z
M 14.59375 26.3125 
Q 14.59375 17 17.140625 12.84375 
Q 21.296875 6.0625 28.375 6.0625 
Q 34.125 6.0625 38.328125 11.0625 
Q 42.53125 16.0625 42.53125 25.984375 
Q 42.53125 36.140625 38.5 40.96875 
Q 34.46875 45.796875 28.765625 45.796875 
Q 23 45.796875 18.796875 40.796875 
Q 14.59375 35.796875 14.59375 26.3125 
z
" id="ArialMT-98"/>
      <path d="M 21 0 
L 1.265625 51.859375 
L 10.546875 51.859375 
L 21.6875 20.796875 
Q 23.484375 15.765625 25 10.359375 
Q 26.171875 14.453125 28.265625 20.21875 
L 39.796875 51.859375 
L 48.828125 51.859375 
L 29.203125 0 
z
" id="ArialMT-118"/>
      <path d="M 40.234375 0 
L 40.234375 6.546875 
Q 35.296875 -1.171875 25.734375 -1.171875 
Q 19.53125 -1.171875 14.328125 2.25 
Q 9.125 5.671875 6.265625 11.796875 
Q 3.421875 17.921875 3.421875 25.875 
Q 3.421875 33.640625 6 39.96875 
Q 8.59375 46.296875 13.765625 49.65625 
Q 18.953125 53.03125 25.34375 53.03125 
Q 30.03125 53.03125 33.6875 51.046875 
Q 37.359375 49.078125 39.65625 45.90625 
L 39.65625 71.578125 
L 48.390625 71.578125 
L 48.390625 0 
z
M 12.453125 25.875 
Q 12.453125 15.921875 16.640625 10.984375 
Q 20.84375 6.0625 26.5625 6.0625 
Q 32.328125 6.0625 36.34375 10.765625 
Q 40.375 15.484375 40.375 25.140625 
Q 40.375 35.796875 36.265625 40.765625 
Q 32.171875 45.75 26.171875 45.75 
Q 20.3125 45.75 16.375 40.96875 
Q 12.453125 36.1875 12.453125 25.875 
z
" id="ArialMT-100"/>
      <path d="M 7.71875 0 
L 7.71875 71.578125 
L 32.375 71.578125 
Q 40.71875 71.578125 45.125 70.5625 
Q 51.265625 69.140625 55.609375 65.4375 
Q 61.28125 60.640625 64.078125 53.1875 
Q 66.890625 45.75 66.890625 36.1875 
Q 66.890625 28.03125 64.984375 21.734375 
Q 63.09375 15.4375 60.109375 11.296875 
Q 57.125 7.171875 53.578125 4.796875 
Q 50.046875 2.4375 45.046875 1.21875 
Q 40.046875 0 33.546875 0 
z
M 17.1875 8.453125 
L 32.46875 8.453125 
Q 39.546875 8.453125 43.578125 9.765625 
Q 47.609375 11.078125 50 13.484375 
Q 53.375 16.84375 55.25 22.53125 
Q 57.125 28.21875 57.125 36.328125 
Q 57.125 47.5625 53.4375 53.59375 
Q 49.75 59.625 44.484375 61.671875 
Q 40.671875 63.140625 32.234375 63.140625 
L 17.1875 63.140625 
z
" id="ArialMT-68"/>
     </defs>
     <g style="fill:#262626;" transform="translate(153.825 70.347187)scale(0.22 -0.22)">
      <use xlink:href="#ArialMT-79"/>
      <use x="77.783203" xlink:href="#ArialMT-98"/>
      <use x="133.398438" xlink:href="#ArialMT-115"/>
      <use x="183.398438" xlink:href="#ArialMT-101"/>
      <use x="239.013672" xlink:href="#ArialMT-114"/>
      <use x="272.314453" xlink:href="#ArialMT-118"/>
      <use x="322.314453" xlink:href="#ArialMT-101"/>
      <use x="377.929688" xlink:href="#ArialMT-100"/>
      <use x="433.544922" xlink:href="#ArialMT-32"/>
      <use x="461.328125" xlink:href="#ArialMT-68"/>
      <use x="533.544922" xlink:href="#ArialMT-97"/>
      <use x="589.160156" xlink:href="#ArialMT-116"/>
      <use x="616.943359" xlink:href="#ArialMT-97"/>
     </g>
    </g>
    <g id="PathCollection_2">
     <g>
      <use style="fill:#1a1a1a;fill-opacity:0.5;stroke:#1a1a1a;stroke-opacity:0.5;" x="114.225" xlink:href="#m02bd9ab289" y="95.691875"/>
     </g>
    </g>
    <g id="text_16">
     <!-- Not Implausible -->
     <defs>
      <path d="M 7.625 0 
L 7.625 71.578125 
L 17.328125 71.578125 
L 54.9375 15.375 
L 54.9375 71.578125 
L 64.015625 71.578125 
L 64.015625 0 
L 54.296875 0 
L 16.703125 56.25 
L 16.703125 0 
z
" id="ArialMT-78"/>
      <path d="M 9.328125 0 
L 9.328125 71.578125 
L 18.796875 71.578125 
L 18.796875 0 
z
" id="ArialMT-73"/>
      <path d="M 6.59375 -19.875 
L 6.59375 51.859375 
L 14.59375 51.859375 
L 14.59375 45.125 
Q 17.4375 49.078125 21 51.046875 
Q 24.5625 53.03125 29.640625 53.03125 
Q 36.28125 53.03125 41.359375 49.609375 
Q 46.4375 46.1875 49.015625 39.953125 
Q 51.609375 33.734375 51.609375 26.3125 
Q 51.609375 18.359375 48.75 11.984375 
Q 45.90625 5.609375 40.453125 2.21875 
Q 35.015625 -1.171875 29 -1.171875 
Q 24.609375 -1.171875 21.109375 0.6875 
Q 17.625 2.546875 15.375 5.375 
L 15.375 -19.875 
z
M 14.546875 25.640625 
Q 14.546875 15.625 18.59375 10.84375 
Q 22.65625 6.0625 28.421875 6.0625 
Q 34.28125 6.0625 38.453125 11.015625 
Q 42.625 15.96875 42.625 26.375 
Q 42.625 36.28125 38.546875 41.203125 
Q 34.46875 46.140625 28.8125 46.140625 
Q 23.1875 46.140625 18.859375 40.890625 
Q 14.546875 35.640625 14.546875 25.640625 
z
" id="ArialMT-112"/>
     </defs>
     <g style="fill:#262626;" transform="translate(153.825 101.466875)scale(0.22 -0.22)">
      <use xlink:href="#ArialMT-78"/>
      <use x="72.216797" xlink:href="#ArialMT-111"/>
      <use x="127.832031" xlink:href="#ArialMT-116"/>
      <use x="155.615234" xlink:href="#ArialMT-32"/>
      <use x="183.398438" xlink:href="#ArialMT-73"/>
      <use x="211.181641" xlink:href="#ArialMT-109"/>
      <use x="294.482422" xlink:href="#ArialMT-112"/>
      <use x="350.097656" xlink:href="#ArialMT-108"/>
      <use x="372.314453" xlink:href="#ArialMT-97"/>
      <use x="427.929688" xlink:href="#ArialMT-117"/>
      <use x="483.544922" xlink:href="#ArialMT-115"/>
      <use x="533.544922" xlink:href="#ArialMT-105"/>
      <use x="555.761719" xlink:href="#ArialMT-98"/>
      <use x="611.376953" xlink:href="#ArialMT-108"/>
      <use x="633.59375" xlink:href="#ArialMT-101"/>
     </g>
    </g>
   </g>
  </g>
  <g id="axes_2">
   <g id="patch_13">
    <path d="M 481.7125 508.7 
L 847.2 508.7 
L 847.2 34.8 
L 481.7125 34.8 
z
" style="fill:#ffffff;"/>
   </g>
   <g id="matplotlib.axis_3">
    <g id="xtick_4">
     <g id="line2d_15">
      <path clip-path="url(#p5426dea635)" d="M 484.226358 508.7 
L 484.226358 34.8 
" style="fill:none;stroke:#cccccc;stroke-linecap:round;"/>
     </g>
     <g id="text_17">
      <!-- 0.0 -->
      <g style="fill:#262626;" transform="translate(468.936358 533.947187)scale(0.22 -0.22)">
       <use xlink:href="#ArialMT-48"/>
       <use x="55.615234" xlink:href="#ArialMT-46"/>
       <use x="83.398438" xlink:href="#ArialMT-48"/>
      </g>
     </g>
    </g>
    <g id="xtick_5">
     <g id="line2d_16">
      <path clip-path="url(#p5426dea635)" d="M 606.646662 508.7 
L 606.646662 34.8 
" style="fill:none;stroke:#cccccc;stroke-linecap:round;"/>
     </g>
     <g id="text_18">
      <!-- 0.2 -->
      <g style="fill:#262626;" transform="translate(591.356662 533.947187)scale(0.22 -0.22)">
       <use xlink:href="#ArialMT-48"/>
       <use x="55.615234" xlink:href="#ArialMT-46"/>
       <use x="83.398438" xlink:href="#ArialMT-50"/>
      </g>
     </g>
    </g>
    <g id="xtick_6">
     <g id="line2d_17">
      <path clip-path="url(#p5426dea635)" d="M 729.066966 508.7 
L 729.066966 34.8 
" style="fill:none;stroke:#cccccc;stroke-linecap:round;"/>
     </g>
     <g id="text_19">
      <!-- 0.4 -->
      <g style="fill:#262626;" transform="translate(713.776966 533.947187)scale(0.22 -0.22)">
       <use xlink:href="#ArialMT-48"/>
       <use x="55.615234" xlink:href="#ArialMT-46"/>
       <use x="83.398438" xlink:href="#ArialMT-52"/>
      </g>
     </g>
    </g>
    <g id="text_20">
     <!-- Simulation Result -->
     <g style="fill:#262626;" transform="translate(571.085 559.498437)scale(0.24 -0.24)">
      <use xlink:href="#ArialMT-83"/>
      <use x="66.699219" xlink:href="#ArialMT-105"/>
      <use x="88.916016" xlink:href="#ArialMT-109"/>
      <use x="172.216797" xlink:href="#ArialMT-117"/>
      <use x="227.832031" xlink:href="#ArialMT-108"/>
      <use x="250.048828" xlink:href="#ArialMT-97"/>
      <use x="305.664062" xlink:href="#ArialMT-116"/>
      <use x="333.447266" xlink:href="#ArialMT-105"/>
      <use x="355.664062" xlink:href="#ArialMT-111"/>
      <use x="411.279297" xlink:href="#ArialMT-110"/>
      <use x="466.894531" xlink:href="#ArialMT-32"/>
      <use x="494.677734" xlink:href="#ArialMT-82"/>
      <use x="566.894531" xlink:href="#ArialMT-101"/>
      <use x="622.509766" xlink:href="#ArialMT-115"/>
      <use x="672.509766" xlink:href="#ArialMT-117"/>
      <use x="728.125" xlink:href="#ArialMT-108"/>
      <use x="750.341797" xlink:href="#ArialMT-116"/>
     </g>
    </g>
   </g>
   <g id="matplotlib.axis_4">
    <g id="ytick_9">
     <g id="line2d_18">
      <path clip-path="url(#p5426dea635)" d="M 481.7125 487.159091 
L 847.2 487.159091 
" style="fill:none;stroke:#cccccc;stroke-linecap:round;"/>
     </g>
    </g>
    <g id="ytick_10">
     <g id="line2d_19">
      <path clip-path="url(#p5426dea635)" d="M 481.7125 426.662871 
L 847.2 426.662871 
" style="fill:none;stroke:#cccccc;stroke-linecap:round;"/>
     </g>
    </g>
    <g id="ytick_11">
     <g id="line2d_20">
      <path clip-path="url(#p5426dea635)" d="M 481.7125 366.166651 
L 847.2 366.166651 
" style="fill:none;stroke:#cccccc;stroke-linecap:round;"/>
     </g>
    </g>
    <g id="ytick_12">
     <g id="line2d_21">
      <path clip-path="url(#p5426dea635)" d="M 481.7125 305.670432 
L 847.2 305.670432 
" style="fill:none;stroke:#cccccc;stroke-linecap:round;"/>
     </g>
    </g>
    <g id="ytick_13">
     <g id="line2d_22">
      <path clip-path="url(#p5426dea635)" d="M 481.7125 245.174212 
L 847.2 245.174212 
" style="fill:none;stroke:#cccccc;stroke-linecap:round;"/>
     </g>
    </g>
    <g id="ytick_14">
     <g id="line2d_23">
      <path clip-path="url(#p5426dea635)" d="M 481.7125 184.677992 
L 847.2 184.677992 
" style="fill:none;stroke:#cccccc;stroke-linecap:round;"/>
     </g>
    </g>
    <g id="ytick_15">
     <g id="line2d_24">
      <path clip-path="url(#p5426dea635)" d="M 481.7125 124.181772 
L 847.2 124.181772 
" style="fill:none;stroke:#cccccc;stroke-linecap:round;"/>
     </g>
    </g>
    <g id="ytick_16">
     <g id="line2d_25">
      <path clip-path="url(#p5426dea635)" d="M 481.7125 63.685553 
L 847.2 63.685553 
" style="fill:none;stroke:#cccccc;stroke-linecap:round;"/>
     </g>
    </g>
    <g id="text_21">
     <!-- Z-Score -->
     <g style="fill:#262626;" transform="translate(472.9425 314.42125)rotate(-90)scale(0.24 -0.24)">
      <use xlink:href="#ArialMT-90"/>
      <use x="61.083984" xlink:href="#ArialMT-45"/>
      <use x="94.384766" xlink:href="#ArialMT-83"/>
      <use x="161.083984" xlink:href="#ArialMT-99"/>
      <use x="211.083984" xlink:href="#ArialMT-111"/>
      <use x="266.699219" xlink:href="#ArialMT-114"/>
      <use x="300" xlink:href="#ArialMT-101"/>
     </g>
    </g>
   </g>
   <g id="PathCollection_3">
    <g clip-path="url(#p5426dea635)">
     <use style="fill:#1a1a1a;fill-opacity:0.5;stroke:#1a1a1a;stroke-opacity:0.5;" x="640.763796" xlink:href="#m02bd9ab289" y="229.593764"/>
     <use style="fill:#1a1a1a;fill-opacity:0.5;stroke:#1a1a1a;stroke-opacity:0.5;" x="590.323955" xlink:href="#m02bd9ab289" y="283.920529"/>
     <use style="fill:#1a1a1a;fill-opacity:0.5;stroke:#1a1a1a;stroke-opacity:0.5;" x="684.859634" xlink:href="#m02bd9ab289" y="232.2034"/>
     <use style="fill:#1a1a1a;fill-opacity:0.5;stroke:#1a1a1a;stroke-opacity:0.5;" x="548.236974" xlink:href="#m02bd9ab289" y="326.967096"/>
     <use style="fill:#1a1a1a;fill-opacity:0.5;stroke:#1a1a1a;stroke-opacity:0.5;" x="537.84109" xlink:href="#m02bd9ab289" y="316.968848"/>
     <use style="fill:#1a1a1a;fill-opacity:0.5;stroke:#1a1a1a;stroke-opacity:0.5;" x="697.534463" xlink:href="#m02bd9ab289" y="198.125011"/>
     <use style="fill:#1a1a1a;fill-opacity:0.5;stroke:#1a1a1a;stroke-opacity:0.5;" x="576.969012" xlink:href="#m02bd9ab289" y="316.966524"/>
     <use style="fill:#1a1a1a;fill-opacity:0.5;stroke:#1a1a1a;stroke-opacity:0.5;" x="569.715397" xlink:href="#m02bd9ab289" y="357.651233"/>
     <use style="fill:#1a1a1a;fill-opacity:0.5;stroke:#1a1a1a;stroke-opacity:0.5;" x="484.226358" xlink:href="#m02bd9ab289" y="422.561024"/>
     <use style="fill:#1a1a1a;fill-opacity:0.5;stroke:#1a1a1a;stroke-opacity:0.5;" x="593.044406" xlink:href="#m02bd9ab289" y="300.249007"/>
     <use style="fill:#1a1a1a;fill-opacity:0.5;stroke:#1a1a1a;stroke-opacity:0.5;" x="692.109893" xlink:href="#m02bd9ab289" y="253.464628"/>
     <use style="fill:#1a1a1a;fill-opacity:0.5;stroke:#1a1a1a;stroke-opacity:0.5;" x="582.842714" xlink:href="#m02bd9ab289" y="290.847903"/>
     <use style="fill:#1a1a1a;fill-opacity:0.5;stroke:#1a1a1a;stroke-opacity:0.5;" x="599.845534" xlink:href="#m02bd9ab289" y="314.766389"/>
     <use style="fill:#1a1a1a;fill-opacity:0.5;stroke:#1a1a1a;stroke-opacity:0.5;" x="555.638202" xlink:href="#m02bd9ab289" y="307.525829"/>
     <use style="fill:#1a1a1a;fill-opacity:0.5;stroke:#1a1a1a;stroke-opacity:0.5;" x="633.851174" xlink:href="#m02bd9ab289" y="281.749728"/>
     <use style="fill:#1a1a1a;fill-opacity:0.5;stroke:#1a1a1a;stroke-opacity:0.5;" x="646.104446" xlink:href="#m02bd9ab289" y="258.63605"/>
     <use style="fill:#1a1a1a;fill-opacity:0.5;stroke:#1a1a1a;stroke-opacity:0.5;" x="698.46189" xlink:href="#m02bd9ab289" y="223.159331"/>
     <use style="fill:#1a1a1a;fill-opacity:0.5;stroke:#1a1a1a;stroke-opacity:0.5;" x="514.831434" xlink:href="#m02bd9ab289" y="328.115698"/>
     <use style="fill:#1a1a1a;fill-opacity:0.5;stroke:#1a1a1a;stroke-opacity:0.5;" x="552.237638" xlink:href="#m02bd9ab289" y="325.262035"/>
     <use style="fill:#1a1a1a;fill-opacity:0.5;stroke:#1a1a1a;stroke-opacity:0.5;" x="600.229469" xlink:href="#m02bd9ab289" y="357.85042"/>
     <use style="fill:#1a1a1a;fill-opacity:0.5;stroke:#1a1a1a;stroke-opacity:0.5;" x="649.659201" xlink:href="#m02bd9ab289" y="229.240906"/>
     <use style="fill:#1a1a1a;fill-opacity:0.5;stroke:#1a1a1a;stroke-opacity:0.5;" x="555.638202" xlink:href="#m02bd9ab289" y="334.102796"/>
     <use style="fill:#1a1a1a;fill-opacity:0.5;stroke:#1a1a1a;stroke-opacity:0.5;" x="535.234818" xlink:href="#m02bd9ab289" y="325.02678"/>
     <use style="fill:#1a1a1a;fill-opacity:0.5;stroke:#1a1a1a;stroke-opacity:0.5;" x="535.234818" xlink:href="#m02bd9ab289" y="367.117261"/>
     <use style="fill:#1a1a1a;fill-opacity:0.5;stroke:#1a1a1a;stroke-opacity:0.5;" x="647.45343" xlink:href="#m02bd9ab289" y="265.20315"/>
     <use style="fill:#1a1a1a;fill-opacity:0.5;stroke:#1a1a1a;stroke-opacity:0.5;" x="639.01065" xlink:href="#m02bd9ab289" y="265.203963"/>
     <use style="fill:#1a1a1a;fill-opacity:0.5;stroke:#1a1a1a;stroke-opacity:0.5;" x="613.44779" xlink:href="#m02bd9ab289" y="286.989282"/>
     <use style="fill:#1a1a1a;fill-opacity:0.5;stroke:#1a1a1a;stroke-opacity:0.5;" x="484.226358" xlink:href="#m02bd9ab289" y="348.58237"/>
     <use style="fill:#1a1a1a;fill-opacity:0.5;stroke:#1a1a1a;stroke-opacity:0.5;" x="627.050046" xlink:href="#m02bd9ab289" y="270.33793"/>
     <use style="fill:#1a1a1a;fill-opacity:0.5;stroke:#1a1a1a;stroke-opacity:0.5;" x="552.237638" xlink:href="#m02bd9ab289" y="305.9085"/>
     <use style="fill:#1a1a1a;fill-opacity:0.5;stroke:#1a1a1a;stroke-opacity:0.5;" x="521.32342" xlink:href="#m02bd9ab289" y="334.461114"/>
     <use style="fill:#1a1a1a;fill-opacity:0.5;stroke:#1a1a1a;stroke-opacity:0.5;" x="651.85582" xlink:href="#m02bd9ab289" y="300.853489"/>
     <use style="fill:#1a1a1a;fill-opacity:0.5;stroke:#1a1a1a;stroke-opacity:0.5;" x="708.663582" xlink:href="#m02bd9ab289" y="250.723598"/>
     <use style="fill:#1a1a1a;fill-opacity:0.5;stroke:#1a1a1a;stroke-opacity:0.5;" x="639.491134" xlink:href="#m02bd9ab289" y="248.251065"/>
     <use style="fill:#1a1a1a;fill-opacity:0.5;stroke:#1a1a1a;stroke-opacity:0.5;" x="512.791095" xlink:href="#m02bd9ab289" y="334.354559"/>
     <use style="fill:#1a1a1a;fill-opacity:0.5;stroke:#1a1a1a;stroke-opacity:0.5;" x="557.946614" xlink:href="#m02bd9ab289" y="303.355373"/>
     <use style="fill:#1a1a1a;fill-opacity:0.5;stroke:#1a1a1a;stroke-opacity:0.5;" x="565.839894" xlink:href="#m02bd9ab289" y="378.151352"/>
     <use style="fill:#1a1a1a;fill-opacity:0.5;stroke:#1a1a1a;stroke-opacity:0.5;" x="662.755968" xlink:href="#m02bd9ab289" y="279.585116"/>
     <use style="fill:#1a1a1a;fill-opacity:0.5;stroke:#1a1a1a;stroke-opacity:0.5;" x="651.163136" xlink:href="#m02bd9ab289" y="240.032643"/>
     <use style="fill:#1a1a1a;fill-opacity:0.5;stroke:#1a1a1a;stroke-opacity:0.5;" x="568.390317" xlink:href="#m02bd9ab289" y="312.774844"/>
     <use style="fill:#1a1a1a;fill-opacity:0.5;stroke:#1a1a1a;stroke-opacity:0.5;" x="610.727339" xlink:href="#m02bd9ab289" y="342.553372"/>
     <use style="fill:#1a1a1a;fill-opacity:0.5;stroke:#1a1a1a;stroke-opacity:0.5;" x="704.341683" xlink:href="#m02bd9ab289" y="223.482628"/>
     <use style="fill:#1a1a1a;fill-opacity:0.5;stroke:#1a1a1a;stroke-opacity:0.5;" x="673.631357" xlink:href="#m02bd9ab289" y="276.937669"/>
     <use style="fill:#1a1a1a;fill-opacity:0.5;stroke:#1a1a1a;stroke-opacity:0.5;" x="564.564682" xlink:href="#m02bd9ab289" y="418.054761"/>
     <use style="fill:#1a1a1a;fill-opacity:0.5;stroke:#1a1a1a;stroke-opacity:0.5;" x="553.597863" xlink:href="#m02bd9ab289" y="306.808054"/>
     <use style="fill:#1a1a1a;fill-opacity:0.5;stroke:#1a1a1a;stroke-opacity:0.5;" x="591.344124" xlink:href="#m02bd9ab289" y="275.632315"/>
     <use style="fill:#1a1a1a;fill-opacity:0.5;stroke:#1a1a1a;stroke-opacity:0.5;" x="545.43651" xlink:href="#m02bd9ab289" y="343.235732"/>
     <use style="fill:#1a1a1a;fill-opacity:0.5;stroke:#1a1a1a;stroke-opacity:0.5;" x="520.445383" xlink:href="#m02bd9ab289" y="348.538474"/>
     <use style="fill:#1a1a1a;fill-opacity:0.5;stroke:#1a1a1a;stroke-opacity:0.5;" x="701.423672" xlink:href="#m02bd9ab289" y="207.793038"/>
     <use style="fill:#1a1a1a;fill-opacity:0.5;stroke:#1a1a1a;stroke-opacity:0.5;" x="508.230339" xlink:href="#m02bd9ab289" y="350.194996"/>
    </g>
   </g>
   <g id="patch_14">
    <path clip-path="url(#p5426dea635)" d="M 484.226358 426.662871 
L 847.2 426.662871 
L 847.2 184.677992 
L 484.226358 184.677992 
z
" style="fill:#55a868;opacity:0.05;stroke:#55a868;stroke-linejoin:miter;"/>
   </g>
   <g id="patch_15">
    <path clip-path="url(#p5426dea635)" d="M 484.226358 487.159091 
L 847.2 487.159091 
L 847.2 426.662871 
L 484.226358 426.662871 
z
" style="fill:#ffa500;opacity:0.05;stroke:#ffa500;stroke-linejoin:miter;"/>
   </g>
   <g id="patch_16">
    <path clip-path="url(#p5426dea635)" d="M 484.226358 184.677992 
L 847.2 184.677992 
L 847.2 124.181772 
L 484.226358 124.181772 
z
" style="fill:#ffa500;opacity:0.05;stroke:#ffa500;stroke-linejoin:miter;"/>
   </g>
   <g id="patch_17">
    <path clip-path="url(#p5426dea635)" d="M 484.226358 464.128632 
L 847.2 464.128632 
L 847.2 487.159091 
L 484.226358 487.159091 
z
" style="fill:#c44e52;opacity:0.05;stroke:#c44e52;stroke-linejoin:miter;"/>
   </g>
   <g id="patch_18">
    <path clip-path="url(#p5426dea635)" d="M 484.226358 124.181772 
L 847.2 124.181772 
L 847.2 56.340909 
L 484.226358 56.340909 
z
" style="fill:#c44e52;opacity:0.05;stroke:#c44e52;stroke-linejoin:miter;"/>
   </g>
   <g id="line2d_26">
    <path clip-path="url(#p5426dea635)" d="M 634.128771 464.128632 
L 634.128771 56.340909 
" style="fill:none;stroke:#ccb974;stroke-linecap:round;stroke-width:2;"/>
   </g>
   <g id="patch_19">
    <path d="M 481.7125 508.7 
L 481.7125 34.8 
" style="fill:none;stroke:#cccccc;stroke-linecap:square;stroke-linejoin:miter;stroke-width:1.25;"/>
   </g>
   <g id="patch_20">
    <path d="M 847.2 508.7 
L 847.2 34.8 
" style="fill:none;stroke:#cccccc;stroke-linecap:square;stroke-linejoin:miter;stroke-width:1.25;"/>
   </g>
   <g id="patch_21">
    <path d="M 481.7125 508.7 
L 847.2 508.7 
" style="fill:none;stroke:#cccccc;stroke-linecap:square;stroke-linejoin:miter;stroke-width:1.25;"/>
   </g>
   <g id="patch_22">
    <path d="M 481.7125 34.8 
L 847.2 34.8 
" style="fill:none;stroke:#cccccc;stroke-linecap:square;stroke-linejoin:miter;stroke-width:1.25;"/>
   </g>
   <g id="text_22">
    <!-- Test -->
    <g style="fill:#262626;" transform="translate(641.140625 28.8)scale(0.24 -0.24)">
     <use xlink:href="#ArialMT-84"/>
     <use x="60.912109" xlink:href="#ArialMT-101"/>
     <use x="116.527344" xlink:href="#ArialMT-115"/>
     <use x="166.527344" xlink:href="#ArialMT-116"/>
    </g>
   </g>
   <g id="legend_2">
    <g id="patch_23">
     <path d="M 609.782188 114.639375 
L 831.8 114.639375 
Q 836.2 114.639375 836.2 110.239375 
L 836.2 50.2 
Q 836.2 45.8 831.8 45.8 
L 609.782188 45.8 
Q 605.382188 45.8 605.382188 50.2 
L 605.382188 110.239375 
Q 605.382188 114.639375 609.782188 114.639375 
z
" style="fill:#ffffff;opacity:0.8;stroke:#cccccc;stroke-linejoin:miter;"/>
    </g>
    <g id="line2d_27">
     <path d="M 614.182188 62.647187 
L 658.182188 62.647187 
" style="fill:none;stroke:#ccb974;stroke-linecap:round;stroke-width:2;"/>
    </g>
    <g id="line2d_28"/>
    <g id="text_23">
     <!-- Observed Data -->
     <g style="fill:#262626;" transform="translate(675.782188 70.347187)scale(0.22 -0.22)">
      <use xlink:href="#ArialMT-79"/>
      <use x="77.783203" xlink:href="#ArialMT-98"/>
      <use x="133.398438" xlink:href="#ArialMT-115"/>
      <use x="183.398438" xlink:href="#ArialMT-101"/>
      <use x="239.013672" xlink:href="#ArialMT-114"/>
      <use x="272.314453" xlink:href="#ArialMT-118"/>
      <use x="322.314453" xlink:href="#ArialMT-101"/>
      <use x="377.929688" xlink:href="#ArialMT-100"/>
      <use x="433.544922" xlink:href="#ArialMT-32"/>
      <use x="461.328125" xlink:href="#ArialMT-68"/>
      <use x="533.544922" xlink:href="#ArialMT-97"/>
      <use x="589.160156" xlink:href="#ArialMT-116"/>
      <use x="616.943359" xlink:href="#ArialMT-97"/>
     </g>
    </g>
    <g id="PathCollection_4">
     <g>
      <use style="fill:#1a1a1a;fill-opacity:0.5;stroke:#1a1a1a;stroke-opacity:0.5;" x="636.182188" xlink:href="#m02bd9ab289" y="95.691875"/>
     </g>
    </g>
    <g id="text_24">
     <!-- Not Implausible -->
     <g style="fill:#262626;" transform="translate(675.782188 101.466875)scale(0.22 -0.22)">
      <use xlink:href="#ArialMT-78"/>
      <use x="72.216797" xlink:href="#ArialMT-111"/>
      <use x="127.832031" xlink:href="#ArialMT-116"/>
      <use x="155.615234" xlink:href="#ArialMT-32"/>
      <use x="183.398438" xlink:href="#ArialMT-73"/>
      <use x="211.181641" xlink:href="#ArialMT-109"/>
      <use x="294.482422" xlink:href="#ArialMT-112"/>
      <use x="350.097656" xlink:href="#ArialMT-108"/>
      <use x="372.314453" xlink:href="#ArialMT-97"/>
      <use x="427.929688" xlink:href="#ArialMT-117"/>
      <use x="483.544922" xlink:href="#ArialMT-115"/>
      <use x="533.544922" xlink:href="#ArialMT-105"/>
      <use x="555.761719" xlink:href="#ArialMT-98"/>
      <use x="611.376953" xlink:href="#ArialMT-108"/>
      <use x="633.59375" xlink:href="#ArialMT-101"/>
     </g>
    </g>
   </g>
  </g>
 </g>
 <defs>
  <clipPath id="p21886f3893">
   <rect height="473.9" width="365.4875" x="72.425" y="34.8"/>
  </clipPath>
  <clipPath id="p5426dea635">
   <rect height="473.9" width="365.4875" x="481.7125" y="34.8"/>
  </clipPath>
 </defs>
</svg>
