<?xml version="1.0" encoding="utf-8" standalone="no"?>
<!DOCTYPE svg PUBLIC "-//W3C//DTD SVG 1.1//EN"
  "http://www.w3.org/Graphics/SVG/1.1/DTD/svg11.dtd">
<!-- Created with matplotlib (https://matplotlib.org/) -->
<svg height="576pt" version="1.1" viewBox="0 0 864 576" width="864pt" xmlns="http://www.w3.org/2000/svg" xmlns:xlink="http://www.w3.org/1999/xlink">
 <defs>
  <style type="text/css">
*{stroke-linecap:butt;stroke-linejoin:round;}
  </style>
 </defs>
 <g id="figure_1">
  <g id="patch_1">
   <path d="M 0 576 
L 864 576 
L 864 0 
L 0 0 
z
" style="fill:#ffffff;"/>
  </g>
  <g id="axes_1">
   <g id="patch_2">
    <path d="M 72.425 508.7 
L 429.908521 508.7 
L 429.908521 34.8 
L 72.425 34.8 
z
" style="fill:#ffffff;"/>
   </g>
   <g id="matplotlib.axis_1">
    <g id="xtick_1">
     <g id="line2d_1">
      <path clip-path="url(#pe172dde38f)" d="M 72.750418 508.7 
L 72.750418 34.8 
" style="fill:none;stroke:#cccccc;stroke-linecap:round;"/>
     </g>
     <g id="text_1">
      <!-- 0.00 -->
      <defs>
       <path d="M 4.15625 35.296875 
Q 4.15625 48 6.765625 55.734375 
Q 9.375 63.484375 14.515625 67.671875 
Q 19.671875 71.875 27.484375 71.875 
Q 33.25 71.875 37.59375 69.546875 
Q 41.9375 67.234375 44.765625 62.859375 
Q 47.609375 58.5 49.21875 52.21875 
Q 50.828125 45.953125 50.828125 35.296875 
Q 50.828125 22.703125 48.234375 14.96875 
Q 45.65625 7.234375 40.5 3 
Q 35.359375 -1.21875 27.484375 -1.21875 
Q 17.140625 -1.21875 11.234375 6.203125 
Q 4.15625 15.140625 4.15625 35.296875 
z
M 13.1875 35.296875 
Q 13.1875 17.671875 17.3125 11.828125 
Q 21.4375 6 27.484375 6 
Q 33.546875 6 37.671875 11.859375 
Q 41.796875 17.71875 41.796875 35.296875 
Q 41.796875 52.984375 37.671875 58.78125 
Q 33.546875 64.59375 27.390625 64.59375 
Q 21.34375 64.59375 17.71875 59.46875 
Q 13.1875 52.9375 13.1875 35.296875 
z
" id="ArialMT-48"/>
       <path d="M 9.078125 0 
L 9.078125 10.015625 
L 19.09375 10.015625 
L 19.09375 0 
z
" id="ArialMT-46"/>
      </defs>
      <g style="fill:#262626;" transform="translate(51.343386 533.947187)scale(0.22 -0.22)">
       <use xlink:href="#ArialMT-48"/>
       <use x="55.615234" xlink:href="#ArialMT-46"/>
       <use x="83.398438" xlink:href="#ArialMT-48"/>
       <use x="139.013672" xlink:href="#ArialMT-48"/>
      </g>
     </g>
    </g>
    <g id="xtick_2">
     <g id="line2d_2">
      <path clip-path="url(#pe172dde38f)" d="M 161.674072 508.7 
L 161.674072 34.8 
" style="fill:none;stroke:#cccccc;stroke-linecap:round;"/>
     </g>
     <g id="text_2">
      <!-- 0.25 -->
      <defs>
       <path d="M 50.34375 8.453125 
L 50.34375 0 
L 3.03125 0 
Q 2.9375 3.171875 4.046875 6.109375 
Q 5.859375 10.9375 9.828125 15.625 
Q 13.8125 20.3125 21.34375 26.46875 
Q 33.015625 36.03125 37.109375 41.625 
Q 41.21875 47.21875 41.21875 52.203125 
Q 41.21875 57.421875 37.46875 61 
Q 33.734375 64.59375 27.734375 64.59375 
Q 21.390625 64.59375 17.578125 60.78125 
Q 13.765625 56.984375 13.71875 50.25 
L 4.6875 51.171875 
Q 5.609375 61.28125 11.65625 66.578125 
Q 17.71875 71.875 27.9375 71.875 
Q 38.234375 71.875 44.234375 66.15625 
Q 50.25 60.453125 50.25 52 
Q 50.25 47.703125 48.484375 43.546875 
Q 46.734375 39.40625 42.65625 34.8125 
Q 38.578125 30.21875 29.109375 22.21875 
Q 21.1875 15.578125 18.9375 13.203125 
Q 16.703125 10.84375 15.234375 8.453125 
z
" id="ArialMT-50"/>
       <path d="M 4.15625 18.75 
L 13.375 19.53125 
Q 14.40625 12.796875 18.140625 9.390625 
Q 21.875 6 27.15625 6 
Q 33.5 6 37.890625 10.78125 
Q 42.28125 15.578125 42.28125 23.484375 
Q 42.28125 31 38.0625 35.34375 
Q 33.84375 39.703125 27 39.703125 
Q 22.75 39.703125 19.328125 37.765625 
Q 15.921875 35.84375 13.96875 32.765625 
L 5.71875 33.84375 
L 12.640625 70.609375 
L 48.25 70.609375 
L 48.25 62.203125 
L 19.671875 62.203125 
L 15.828125 42.96875 
Q 22.265625 47.46875 29.34375 47.46875 
Q 38.71875 47.46875 45.15625 40.96875 
Q 51.609375 34.46875 51.609375 24.265625 
Q 51.609375 14.546875 45.953125 7.46875 
Q 39.0625 -1.21875 27.15625 -1.21875 
Q 17.390625 -1.21875 11.203125 4.25 
Q 5.03125 9.71875 4.15625 18.75 
z
" id="ArialMT-53"/>
      </defs>
      <g style="fill:#262626;" transform="translate(140.267041 533.947187)scale(0.22 -0.22)">
       <use xlink:href="#ArialMT-48"/>
       <use x="55.615234" xlink:href="#ArialMT-46"/>
       <use x="83.398438" xlink:href="#ArialMT-50"/>
       <use x="139.013672" xlink:href="#ArialMT-53"/>
      </g>
     </g>
    </g>
    <g id="xtick_3">
     <g id="line2d_3">
      <path clip-path="url(#pe172dde38f)" d="M 250.597726 508.7 
L 250.597726 34.8 
" style="fill:none;stroke:#cccccc;stroke-linecap:round;"/>
     </g>
     <g id="text_3">
      <!-- 0.50 -->
      <g style="fill:#262626;" transform="translate(229.190695 533.947187)scale(0.22 -0.22)">
       <use xlink:href="#ArialMT-48"/>
       <use x="55.615234" xlink:href="#ArialMT-46"/>
       <use x="83.398438" xlink:href="#ArialMT-53"/>
       <use x="139.013672" xlink:href="#ArialMT-48"/>
      </g>
     </g>
    </g>
    <g id="xtick_4">
     <g id="line2d_4">
      <path clip-path="url(#pe172dde38f)" d="M 339.521381 508.7 
L 339.521381 34.8 
" style="fill:none;stroke:#cccccc;stroke-linecap:round;"/>
     </g>
     <g id="text_4">
      <!-- 0.75 -->
      <defs>
       <path d="M 4.734375 62.203125 
L 4.734375 70.65625 
L 51.078125 70.65625 
L 51.078125 63.8125 
Q 44.234375 56.546875 37.515625 44.484375 
Q 30.8125 32.421875 27.15625 19.671875 
Q 24.515625 10.6875 23.78125 0 
L 14.75 0 
Q 14.890625 8.453125 18.0625 20.40625 
Q 21.234375 32.375 27.171875 43.484375 
Q 33.109375 54.59375 39.796875 62.203125 
z
" id="ArialMT-55"/>
      </defs>
      <g style="fill:#262626;" transform="translate(318.114349 533.947187)scale(0.22 -0.22)">
       <use xlink:href="#ArialMT-48"/>
       <use x="55.615234" xlink:href="#ArialMT-46"/>
       <use x="83.398438" xlink:href="#ArialMT-55"/>
       <use x="139.013672" xlink:href="#ArialMT-53"/>
      </g>
     </g>
    </g>
    <g id="xtick_5">
     <g id="line2d_5">
      <path clip-path="url(#pe172dde38f)" d="M 428.445035 508.7 
L 428.445035 34.8 
" style="fill:none;stroke:#cccccc;stroke-linecap:round;"/>
     </g>
     <g id="text_5">
      <!-- 1.00 -->
      <defs>
       <path d="M 37.25 0 
L 28.46875 0 
L 28.46875 56 
Q 25.296875 52.984375 20.140625 49.953125 
Q 14.984375 46.921875 10.890625 45.40625 
L 10.890625 53.90625 
Q 18.265625 57.375 23.78125 62.296875 
Q 29.296875 67.234375 31.59375 71.875 
L 37.25 71.875 
z
" id="ArialMT-49"/>
      </defs>
      <g style="fill:#262626;" transform="translate(407.038004 533.947187)scale(0.22 -0.22)">
       <use xlink:href="#ArialMT-49"/>
       <use x="55.615234" xlink:href="#ArialMT-46"/>
       <use x="83.398438" xlink:href="#ArialMT-48"/>
       <use x="139.013672" xlink:href="#ArialMT-48"/>
      </g>
     </g>
    </g>
    <g id="text_6">
     <!-- Simulation Result -->
     <defs>
      <path d="M 4.5 23 
L 13.421875 23.78125 
Q 14.0625 18.40625 16.375 14.96875 
Q 18.703125 11.53125 23.578125 9.40625 
Q 28.46875 7.28125 34.578125 7.28125 
Q 39.984375 7.28125 44.140625 8.890625 
Q 48.296875 10.5 50.3125 13.296875 
Q 52.34375 16.109375 52.34375 19.4375 
Q 52.34375 22.796875 50.390625 25.3125 
Q 48.4375 27.828125 43.953125 29.546875 
Q 41.0625 30.671875 31.203125 33.03125 
Q 21.34375 35.40625 17.390625 37.5 
Q 12.25 40.1875 9.734375 44.15625 
Q 7.234375 48.140625 7.234375 53.078125 
Q 7.234375 58.5 10.296875 63.203125 
Q 13.375 67.921875 19.28125 70.359375 
Q 25.203125 72.796875 32.421875 72.796875 
Q 40.375 72.796875 46.453125 70.234375 
Q 52.546875 67.671875 55.8125 62.6875 
Q 59.078125 57.71875 59.328125 51.421875 
L 50.25 50.734375 
Q 49.515625 57.515625 45.28125 60.984375 
Q 41.0625 64.453125 32.8125 64.453125 
Q 24.21875 64.453125 20.28125 61.296875 
Q 16.359375 58.15625 16.359375 53.71875 
Q 16.359375 49.859375 19.140625 47.359375 
Q 21.875 44.875 33.421875 42.265625 
Q 44.96875 39.65625 49.265625 37.703125 
Q 55.515625 34.8125 58.484375 30.390625 
Q 61.46875 25.984375 61.46875 20.21875 
Q 61.46875 14.5 58.203125 9.4375 
Q 54.9375 4.390625 48.796875 1.578125 
Q 42.671875 -1.21875 35.015625 -1.21875 
Q 25.296875 -1.21875 18.71875 1.609375 
Q 12.15625 4.4375 8.421875 10.125 
Q 4.6875 15.828125 4.5 23 
z
" id="ArialMT-83"/>
      <path d="M 6.640625 61.46875 
L 6.640625 71.578125 
L 15.4375 71.578125 
L 15.4375 61.46875 
z
M 6.640625 0 
L 6.640625 51.859375 
L 15.4375 51.859375 
L 15.4375 0 
z
" id="ArialMT-105"/>
      <path d="M 6.59375 0 
L 6.59375 51.859375 
L 14.453125 51.859375 
L 14.453125 44.578125 
Q 16.890625 48.390625 20.9375 50.703125 
Q 25 53.03125 30.171875 53.03125 
Q 35.9375 53.03125 39.625 50.640625 
Q 43.3125 48.25 44.828125 43.953125 
Q 50.984375 53.03125 60.84375 53.03125 
Q 68.5625 53.03125 72.703125 48.75 
Q 76.859375 44.484375 76.859375 35.59375 
L 76.859375 0 
L 68.109375 0 
L 68.109375 32.671875 
Q 68.109375 37.9375 67.25 40.25 
Q 66.40625 42.578125 64.15625 43.984375 
Q 61.921875 45.40625 58.890625 45.40625 
Q 53.421875 45.40625 49.796875 41.765625 
Q 46.1875 38.140625 46.1875 30.125 
L 46.1875 0 
L 37.40625 0 
L 37.40625 33.6875 
Q 37.40625 39.546875 35.25 42.46875 
Q 33.109375 45.40625 28.21875 45.40625 
Q 24.515625 45.40625 21.359375 43.453125 
Q 18.21875 41.5 16.796875 37.734375 
Q 15.375 33.984375 15.375 26.90625 
L 15.375 0 
z
" id="ArialMT-109"/>
      <path d="M 40.578125 0 
L 40.578125 7.625 
Q 34.515625 -1.171875 24.125 -1.171875 
Q 19.53125 -1.171875 15.546875 0.578125 
Q 11.578125 2.34375 9.640625 5 
Q 7.71875 7.671875 6.9375 11.53125 
Q 6.390625 14.109375 6.390625 19.734375 
L 6.390625 51.859375 
L 15.1875 51.859375 
L 15.1875 23.09375 
Q 15.1875 16.21875 15.71875 13.8125 
Q 16.546875 10.359375 19.234375 8.375 
Q 21.921875 6.390625 25.875 6.390625 
Q 29.828125 6.390625 33.296875 8.421875 
Q 36.765625 10.453125 38.203125 13.9375 
Q 39.65625 17.4375 39.65625 24.078125 
L 39.65625 51.859375 
L 48.4375 51.859375 
L 48.4375 0 
z
" id="ArialMT-117"/>
      <path d="M 6.390625 0 
L 6.390625 71.578125 
L 15.1875 71.578125 
L 15.1875 0 
z
" id="ArialMT-108"/>
      <path d="M 40.4375 6.390625 
Q 35.546875 2.25 31.03125 0.53125 
Q 26.515625 -1.171875 21.34375 -1.171875 
Q 12.796875 -1.171875 8.203125 3 
Q 3.609375 7.171875 3.609375 13.671875 
Q 3.609375 17.484375 5.34375 20.625 
Q 7.078125 23.78125 9.890625 25.6875 
Q 12.703125 27.59375 16.21875 28.5625 
Q 18.796875 29.25 24.03125 29.890625 
Q 34.671875 31.15625 39.703125 32.90625 
Q 39.75 34.71875 39.75 35.203125 
Q 39.75 40.578125 37.25 42.78125 
Q 33.890625 45.75 27.25 45.75 
Q 21.046875 45.75 18.09375 43.578125 
Q 15.140625 41.40625 13.71875 35.890625 
L 5.125 37.0625 
Q 6.296875 42.578125 8.984375 45.96875 
Q 11.671875 49.359375 16.75 51.1875 
Q 21.828125 53.03125 28.515625 53.03125 
Q 35.15625 53.03125 39.296875 51.46875 
Q 43.453125 49.90625 45.40625 47.53125 
Q 47.359375 45.171875 48.140625 41.546875 
Q 48.578125 39.3125 48.578125 33.453125 
L 48.578125 21.734375 
Q 48.578125 9.46875 49.140625 6.21875 
Q 49.703125 2.984375 51.375 0 
L 42.1875 0 
Q 40.828125 2.734375 40.4375 6.390625 
z
M 39.703125 26.03125 
Q 34.90625 24.078125 25.34375 22.703125 
Q 19.921875 21.921875 17.671875 20.9375 
Q 15.4375 19.96875 14.203125 18.09375 
Q 12.984375 16.21875 12.984375 13.921875 
Q 12.984375 10.40625 15.640625 8.0625 
Q 18.3125 5.71875 23.4375 5.71875 
Q 28.515625 5.71875 32.46875 7.9375 
Q 36.421875 10.15625 38.28125 14.015625 
Q 39.703125 17 39.703125 22.796875 
z
" id="ArialMT-97"/>
      <path d="M 25.78125 7.859375 
L 27.046875 0.09375 
Q 23.34375 -0.6875 20.40625 -0.6875 
Q 15.625 -0.6875 12.984375 0.828125 
Q 10.359375 2.34375 9.28125 4.8125 
Q 8.203125 7.28125 8.203125 15.1875 
L 8.203125 45.015625 
L 1.765625 45.015625 
L 1.765625 51.859375 
L 8.203125 51.859375 
L 8.203125 64.703125 
L 16.9375 69.96875 
L 16.9375 51.859375 
L 25.78125 51.859375 
L 25.78125 45.015625 
L 16.9375 45.015625 
L 16.9375 14.703125 
Q 16.9375 10.9375 17.40625 9.859375 
Q 17.875 8.796875 18.921875 8.15625 
Q 19.96875 7.515625 21.921875 7.515625 
Q 23.390625 7.515625 25.78125 7.859375 
z
" id="ArialMT-116"/>
      <path d="M 3.328125 25.921875 
Q 3.328125 40.328125 11.328125 47.265625 
Q 18.015625 53.03125 27.640625 53.03125 
Q 38.328125 53.03125 45.109375 46.015625 
Q 51.90625 39.015625 51.90625 26.65625 
Q 51.90625 16.65625 48.90625 10.90625 
Q 45.90625 5.171875 40.15625 2 
Q 34.421875 -1.171875 27.640625 -1.171875 
Q 16.75 -1.171875 10.03125 5.8125 
Q 3.328125 12.796875 3.328125 25.921875 
z
M 12.359375 25.921875 
Q 12.359375 15.96875 16.703125 11.015625 
Q 21.046875 6.0625 27.640625 6.0625 
Q 34.1875 6.0625 38.53125 11.03125 
Q 42.875 16.015625 42.875 26.21875 
Q 42.875 35.84375 38.5 40.796875 
Q 34.125 45.75 27.640625 45.75 
Q 21.046875 45.75 16.703125 40.8125 
Q 12.359375 35.890625 12.359375 25.921875 
z
" id="ArialMT-111"/>
      <path d="M 6.59375 0 
L 6.59375 51.859375 
L 14.5 51.859375 
L 14.5 44.484375 
Q 20.21875 53.03125 31 53.03125 
Q 35.6875 53.03125 39.625 51.34375 
Q 43.5625 49.65625 45.515625 46.921875 
Q 47.46875 44.1875 48.25 40.4375 
Q 48.734375 37.984375 48.734375 31.890625 
L 48.734375 0 
L 39.9375 0 
L 39.9375 31.546875 
Q 39.9375 36.921875 38.90625 39.578125 
Q 37.890625 42.234375 35.28125 43.8125 
Q 32.671875 45.40625 29.15625 45.40625 
Q 23.53125 45.40625 19.453125 41.84375 
Q 15.375 38.28125 15.375 28.328125 
L 15.375 0 
z
" id="ArialMT-110"/>
      <path id="ArialMT-32"/>
      <path d="M 7.859375 0 
L 7.859375 71.578125 
L 39.59375 71.578125 
Q 49.171875 71.578125 54.140625 69.640625 
Q 59.125 67.71875 62.109375 62.828125 
Q 65.09375 57.953125 65.09375 52.046875 
Q 65.09375 44.4375 60.15625 39.203125 
Q 55.21875 33.984375 44.921875 32.5625 
Q 48.6875 30.765625 50.640625 29 
Q 54.78125 25.203125 58.5 19.484375 
L 70.953125 0 
L 59.03125 0 
L 49.5625 14.890625 
Q 45.40625 21.34375 42.71875 24.75 
Q 40.046875 28.171875 37.921875 29.53125 
Q 35.796875 30.90625 33.59375 31.453125 
Q 31.984375 31.78125 28.328125 31.78125 
L 17.328125 31.78125 
L 17.328125 0 
z
M 17.328125 39.984375 
L 37.703125 39.984375 
Q 44.1875 39.984375 47.84375 41.328125 
Q 51.515625 42.671875 53.421875 45.625 
Q 55.328125 48.578125 55.328125 52.046875 
Q 55.328125 57.125 51.640625 60.390625 
Q 47.953125 63.671875 39.984375 63.671875 
L 17.328125 63.671875 
z
" id="ArialMT-82"/>
      <path d="M 42.09375 16.703125 
L 51.171875 15.578125 
Q 49.03125 7.625 43.21875 3.21875 
Q 37.40625 -1.171875 28.375 -1.171875 
Q 17 -1.171875 10.328125 5.828125 
Q 3.65625 12.84375 3.65625 25.484375 
Q 3.65625 38.578125 10.390625 45.796875 
Q 17.140625 53.03125 27.875 53.03125 
Q 38.28125 53.03125 44.875 45.953125 
Q 51.46875 38.875 51.46875 26.03125 
Q 51.46875 25.25 51.421875 23.6875 
L 12.75 23.6875 
Q 13.234375 15.140625 17.578125 10.59375 
Q 21.921875 6.0625 28.421875 6.0625 
Q 33.25 6.0625 36.671875 8.59375 
Q 40.09375 11.140625 42.09375 16.703125 
z
M 13.234375 30.90625 
L 42.1875 30.90625 
Q 41.609375 37.453125 38.875 40.71875 
Q 34.671875 45.796875 27.984375 45.796875 
Q 21.921875 45.796875 17.796875 41.75 
Q 13.671875 37.703125 13.234375 30.90625 
z
" id="ArialMT-101"/>
      <path d="M 3.078125 15.484375 
L 11.765625 16.84375 
Q 12.5 11.625 15.84375 8.84375 
Q 19.1875 6.0625 25.203125 6.0625 
Q 31.25 6.0625 34.171875 8.515625 
Q 37.109375 10.984375 37.109375 14.3125 
Q 37.109375 17.28125 34.515625 19 
Q 32.71875 20.171875 25.53125 21.96875 
Q 15.875 24.421875 12.140625 26.203125 
Q 8.40625 27.984375 6.46875 31.125 
Q 4.546875 34.28125 4.546875 38.09375 
Q 4.546875 41.546875 6.125 44.5 
Q 7.71875 47.46875 10.453125 49.421875 
Q 12.5 50.921875 16.03125 51.96875 
Q 19.578125 53.03125 23.640625 53.03125 
Q 29.734375 53.03125 34.34375 51.265625 
Q 38.96875 49.515625 41.15625 46.5 
Q 43.359375 43.5 44.1875 38.484375 
L 35.59375 37.3125 
Q 35.015625 41.3125 32.203125 43.546875 
Q 29.390625 45.796875 24.265625 45.796875 
Q 18.21875 45.796875 15.625 43.796875 
Q 13.03125 41.796875 13.03125 39.109375 
Q 13.03125 37.40625 14.109375 36.03125 
Q 15.1875 34.625 17.484375 33.6875 
Q 18.796875 33.203125 25.25 31.453125 
Q 34.578125 28.953125 38.25 27.359375 
Q 41.9375 25.78125 44.03125 22.75 
Q 46.140625 19.734375 46.140625 15.234375 
Q 46.140625 10.84375 43.578125 6.953125 
Q 41.015625 3.078125 36.171875 0.953125 
Q 31.34375 -1.171875 25.25 -1.171875 
Q 15.140625 -1.171875 9.84375 3.03125 
Q 4.546875 7.234375 3.078125 15.484375 
z
" id="ArialMT-115"/>
     </defs>
     <g style="fill:#262626;" transform="translate(157.79551 559.498437)scale(0.24 -0.24)">
      <use xlink:href="#ArialMT-83"/>
      <use x="66.699219" xlink:href="#ArialMT-105"/>
      <use x="88.916016" xlink:href="#ArialMT-109"/>
      <use x="172.216797" xlink:href="#ArialMT-117"/>
      <use x="227.832031" xlink:href="#ArialMT-108"/>
      <use x="250.048828" xlink:href="#ArialMT-97"/>
      <use x="305.664062" xlink:href="#ArialMT-116"/>
      <use x="333.447266" xlink:href="#ArialMT-105"/>
      <use x="355.664062" xlink:href="#ArialMT-111"/>
      <use x="411.279297" xlink:href="#ArialMT-110"/>
      <use x="466.894531" xlink:href="#ArialMT-32"/>
      <use x="494.677734" xlink:href="#ArialMT-82"/>
      <use x="566.894531" xlink:href="#ArialMT-101"/>
      <use x="622.509766" xlink:href="#ArialMT-115"/>
      <use x="672.509766" xlink:href="#ArialMT-117"/>
      <use x="728.125" xlink:href="#ArialMT-108"/>
      <use x="750.341797" xlink:href="#ArialMT-116"/>
     </g>
    </g>
   </g>
   <g id="matplotlib.axis_2">
    <g id="ytick_1">
     <g id="line2d_6">
      <path clip-path="url(#pe172dde38f)" d="M 72.425 502.261852 
L 429.908521 502.261852 
" style="fill:none;stroke:#cccccc;stroke-linecap:round;"/>
     </g>
     <g id="text_7">
      <!-- −5 -->
      <defs>
       <path d="M 52.828125 31.203125 
L 5.5625 31.203125 
L 5.5625 39.40625 
L 52.828125 39.40625 
z
" id="ArialMT-8722"/>
      </defs>
      <g style="fill:#262626;" transform="translate(37.841562 510.135445)scale(0.22 -0.22)">
       <use xlink:href="#ArialMT-8722"/>
       <use x="58.398438" xlink:href="#ArialMT-53"/>
      </g>
     </g>
    </g>
    <g id="ytick_2">
     <g id="line2d_7">
      <path clip-path="url(#pe172dde38f)" d="M 72.425 446.521734 
L 429.908521 446.521734 
" style="fill:none;stroke:#cccccc;stroke-linecap:round;"/>
     </g>
     <g id="text_8">
      <!-- −4 -->
      <defs>
       <path d="M 32.328125 0 
L 32.328125 17.140625 
L 1.265625 17.140625 
L 1.265625 25.203125 
L 33.9375 71.578125 
L 41.109375 71.578125 
L 41.109375 25.203125 
L 50.78125 25.203125 
L 50.78125 17.140625 
L 41.109375 17.140625 
L 41.109375 0 
z
M 32.328125 25.203125 
L 32.328125 57.46875 
L 9.90625 25.203125 
z
" id="ArialMT-52"/>
      </defs>
      <g style="fill:#262626;" transform="translate(37.841562 454.395328)scale(0.22 -0.22)">
       <use xlink:href="#ArialMT-8722"/>
       <use x="58.398438" xlink:href="#ArialMT-52"/>
      </g>
     </g>
    </g>
    <g id="ytick_3">
     <g id="line2d_8">
      <path clip-path="url(#pe172dde38f)" d="M 72.425 390.781616 
L 429.908521 390.781616 
" style="fill:none;stroke:#cccccc;stroke-linecap:round;"/>
     </g>
     <g id="text_9">
      <!-- −3 -->
      <defs>
       <path d="M 4.203125 18.890625 
L 12.984375 20.0625 
Q 14.5 12.59375 18.140625 9.296875 
Q 21.78125 6 27 6 
Q 33.203125 6 37.46875 10.296875 
Q 41.75 14.59375 41.75 20.953125 
Q 41.75 27 37.796875 30.921875 
Q 33.84375 34.859375 27.734375 34.859375 
Q 25.25 34.859375 21.53125 33.890625 
L 22.515625 41.609375 
Q 23.390625 41.5 23.921875 41.5 
Q 29.546875 41.5 34.03125 44.421875 
Q 38.53125 47.359375 38.53125 53.46875 
Q 38.53125 58.296875 35.25 61.46875 
Q 31.984375 64.65625 26.8125 64.65625 
Q 21.6875 64.65625 18.265625 61.421875 
Q 14.84375 58.203125 13.875 51.765625 
L 5.078125 53.328125 
Q 6.6875 62.15625 12.390625 67.015625 
Q 18.109375 71.875 26.609375 71.875 
Q 32.46875 71.875 37.390625 69.359375 
Q 42.328125 66.84375 44.9375 62.5 
Q 47.5625 58.15625 47.5625 53.265625 
Q 47.5625 48.640625 45.0625 44.828125 
Q 42.578125 41.015625 37.703125 38.765625 
Q 44.046875 37.3125 47.5625 32.6875 
Q 51.078125 28.078125 51.078125 21.140625 
Q 51.078125 11.765625 44.234375 5.25 
Q 37.40625 -1.265625 26.953125 -1.265625 
Q 17.53125 -1.265625 11.296875 4.34375 
Q 5.078125 9.96875 4.203125 18.890625 
z
" id="ArialMT-51"/>
      </defs>
      <g style="fill:#262626;" transform="translate(37.841562 398.65521)scale(0.22 -0.22)">
       <use xlink:href="#ArialMT-8722"/>
       <use x="58.398438" xlink:href="#ArialMT-51"/>
      </g>
     </g>
    </g>
    <g id="ytick_4">
     <g id="line2d_9">
      <path clip-path="url(#pe172dde38f)" d="M 72.425 335.041498 
L 429.908521 335.041498 
" style="fill:none;stroke:#cccccc;stroke-linecap:round;"/>
     </g>
     <g id="text_10">
      <!-- −2 -->
      <g style="fill:#262626;" transform="translate(37.841562 342.915092)scale(0.22 -0.22)">
       <use xlink:href="#ArialMT-8722"/>
       <use x="58.398438" xlink:href="#ArialMT-50"/>
      </g>
     </g>
    </g>
    <g id="ytick_5">
     <g id="line2d_10">
      <path clip-path="url(#pe172dde38f)" d="M 72.425 279.30138 
L 429.908521 279.30138 
" style="fill:none;stroke:#cccccc;stroke-linecap:round;"/>
     </g>
     <g id="text_11">
      <!-- −1 -->
      <g style="fill:#262626;" transform="translate(37.841562 287.174974)scale(0.22 -0.22)">
       <use xlink:href="#ArialMT-8722"/>
       <use x="58.398438" xlink:href="#ArialMT-49"/>
      </g>
     </g>
    </g>
    <g id="ytick_6">
     <g id="line2d_11">
      <path clip-path="url(#pe172dde38f)" d="M 72.425 223.561263 
L 429.908521 223.561263 
" style="fill:none;stroke:#cccccc;stroke-linecap:round;"/>
     </g>
     <g id="text_12">
      <!-- 0 -->
      <g style="fill:#262626;" transform="translate(50.690937 231.434856)scale(0.22 -0.22)">
       <use xlink:href="#ArialMT-48"/>
      </g>
     </g>
    </g>
    <g id="ytick_7">
     <g id="line2d_12">
      <path clip-path="url(#pe172dde38f)" d="M 72.425 167.821145 
L 429.908521 167.821145 
" style="fill:none;stroke:#cccccc;stroke-linecap:round;"/>
     </g>
     <g id="text_13">
      <!-- 1 -->
      <g style="fill:#262626;" transform="translate(50.690937 175.694738)scale(0.22 -0.22)">
       <use xlink:href="#ArialMT-49"/>
      </g>
     </g>
    </g>
    <g id="ytick_8">
     <g id="line2d_13">
      <path clip-path="url(#pe172dde38f)" d="M 72.425 112.081027 
L 429.908521 112.081027 
" style="fill:none;stroke:#cccccc;stroke-linecap:round;"/>
     </g>
     <g id="text_14">
      <!-- 2 -->
      <g style="fill:#262626;" transform="translate(50.690937 119.954621)scale(0.22 -0.22)">
       <use xlink:href="#ArialMT-50"/>
      </g>
     </g>
    </g>
    <g id="ytick_9">
     <g id="line2d_14">
      <path clip-path="url(#pe172dde38f)" d="M 72.425 56.340909 
L 429.908521 56.340909 
" style="fill:none;stroke:#cccccc;stroke-linecap:round;"/>
     </g>
     <g id="text_15">
      <!-- 3 -->
      <g style="fill:#262626;" transform="translate(50.690937 64.214503)scale(0.22 -0.22)">
       <use xlink:href="#ArialMT-51"/>
      </g>
     </g>
    </g>
    <g id="text_16">
     <!-- Z-Score -->
     <defs>
      <path d="M 2 0 
L 2 8.796875 
L 38.671875 54.640625 
Q 42.578125 59.515625 46.09375 63.140625 
L 6.15625 63.140625 
L 6.15625 71.578125 
L 57.421875 71.578125 
L 57.421875 63.140625 
L 17.234375 13.484375 
L 12.890625 8.453125 
L 58.59375 8.453125 
L 58.59375 0 
z
" id="ArialMT-90"/>
      <path d="M 3.171875 21.484375 
L 3.171875 30.328125 
L 30.171875 30.328125 
L 30.171875 21.484375 
z
" id="ArialMT-45"/>
      <path d="M 40.4375 19 
L 49.078125 17.875 
Q 47.65625 8.9375 41.8125 3.875 
Q 35.984375 -1.171875 27.484375 -1.171875 
Q 16.84375 -1.171875 10.375 5.78125 
Q 3.90625 12.75 3.90625 25.734375 
Q 3.90625 34.125 6.6875 40.421875 
Q 9.46875 46.734375 15.15625 49.875 
Q 20.84375 53.03125 27.546875 53.03125 
Q 35.984375 53.03125 41.359375 48.75 
Q 46.734375 44.484375 48.25 36.625 
L 39.703125 35.296875 
Q 38.484375 40.53125 35.375 43.15625 
Q 32.28125 45.796875 27.875 45.796875 
Q 21.234375 45.796875 17.078125 41.03125 
Q 12.9375 36.28125 12.9375 25.984375 
Q 12.9375 15.53125 16.9375 10.796875 
Q 20.953125 6.0625 27.390625 6.0625 
Q 32.5625 6.0625 36.03125 9.234375 
Q 39.5 12.40625 40.4375 19 
z
" id="ArialMT-99"/>
      <path d="M 6.5 0 
L 6.5 51.859375 
L 14.40625 51.859375 
L 14.40625 44 
Q 17.4375 49.515625 20 51.265625 
Q 22.5625 53.03125 25.640625 53.03125 
Q 30.078125 53.03125 34.671875 50.203125 
L 31.640625 42.046875 
Q 28.421875 43.953125 25.203125 43.953125 
Q 22.3125 43.953125 20.015625 42.21875 
Q 17.71875 40.484375 16.75 37.40625 
Q 15.28125 32.71875 15.28125 27.15625 
L 15.28125 0 
z
" id="ArialMT-114"/>
     </defs>
     <g style="fill:#262626;" transform="translate(29.071562 314.42125)rotate(-90)scale(0.24 -0.24)">
      <use xlink:href="#ArialMT-90"/>
      <use x="61.083984" xlink:href="#ArialMT-45"/>
      <use x="94.384766" xlink:href="#ArialMT-83"/>
      <use x="161.083984" xlink:href="#ArialMT-99"/>
      <use x="211.083984" xlink:href="#ArialMT-111"/>
      <use x="266.699219" xlink:href="#ArialMT-114"/>
      <use x="300" xlink:href="#ArialMT-101"/>
     </g>
    </g>
   </g>
   <g id="PathCollection_1">
    <defs>
     <path d="M -2.5 2.5 
L 2.5 -2.5 
M -2.5 -2.5 
L 2.5 2.5 
" id="m5b803c2bb9" style="stroke:#c44e52;stroke-opacity:0.5;"/>
    </defs>
    <g clip-path="url(#pe172dde38f)">
     <use style="fill:#c44e52;fill-opacity:0.5;stroke:#c44e52;stroke-opacity:0.5;" x="425.790597" xlink:href="#m5b803c2bb9" y="197.56206"/>
     <use style="fill:#c44e52;fill-opacity:0.5;stroke:#c44e52;stroke-opacity:0.5;" x="400.779898" xlink:href="#m5b803c2bb9" y="206.522974"/>
     <use style="fill:#c44e52;fill-opacity:0.5;stroke:#c44e52;stroke-opacity:0.5;" x="359.600915" xlink:href="#m5b803c2bb9" y="254.955095"/>
     <use style="fill:#c44e52;fill-opacity:0.5;stroke:#c44e52;stroke-opacity:0.5;" x="374.154804" xlink:href="#m5b803c2bb9" y="230.421357"/>
     <use style="fill:#c44e52;fill-opacity:0.5;stroke:#c44e52;stroke-opacity:0.5;" x="395.548423" xlink:href="#m5b803c2bb9" y="212.839001"/>
     <use style="fill:#c44e52;fill-opacity:0.5;stroke:#c44e52;stroke-opacity:0.5;" x="390.504276" xlink:href="#m5b803c2bb9" y="230.189742"/>
     <use style="fill:#c44e52;fill-opacity:0.5;stroke:#c44e52;stroke-opacity:0.5;" x="403.133433" xlink:href="#m5b803c2bb9" y="204.335402"/>
    </g>
   </g>
   <g id="PathCollection_2">
    <defs>
     <path d="M 0 1.25 
C 0.331504 1.25 0.649475 1.118292 0.883883 0.883883 
C 1.118292 0.649475 1.25 0.331504 1.25 0 
C 1.25 -0.331504 1.118292 -0.649475 0.883883 -0.883883 
C 0.649475 -1.118292 0.331504 -1.25 0 -1.25 
C -0.331504 -1.25 -0.649475 -1.118292 -0.883883 -0.883883 
C -1.118292 -0.649475 -1.25 -0.331504 -1.25 0 
C -1.25 0.331504 -1.118292 0.649475 -0.883883 0.883883 
C -0.649475 1.118292 -0.331504 1.25 0 1.25 
z
" id="m6ef9e68c0c" style="stroke:#1a1a1a;stroke-opacity:0.5;"/>
    </defs>
    <g clip-path="url(#pe172dde38f)">
     <use style="fill:#1a1a1a;fill-opacity:0.5;stroke:#1a1a1a;stroke-opacity:0.5;" x="248.903942" xlink:href="#m6ef9e68c0c" y="262.261021"/>
     <use style="fill:#1a1a1a;fill-opacity:0.5;stroke:#1a1a1a;stroke-opacity:0.5;" x="218.980427" xlink:href="#m6ef9e68c0c" y="321.416681"/>
     <use style="fill:#1a1a1a;fill-opacity:0.5;stroke:#1a1a1a;stroke-opacity:0.5;" x="155.745828" xlink:href="#m6ef9e68c0c" y="322.867936"/>
     <use style="fill:#1a1a1a;fill-opacity:0.5;stroke:#1a1a1a;stroke-opacity:0.5;" x="376.644848" xlink:href="#m6ef9e68c0c" y="191.733147"/>
     <use style="fill:#1a1a1a;fill-opacity:0.5;stroke:#1a1a1a;stroke-opacity:0.5;" x="428.445035" xlink:href="#m6ef9e68c0c" y="122.490793"/>
     <use style="fill:#1a1a1a;fill-opacity:0.5;stroke:#1a1a1a;stroke-opacity:0.5;" x="281.982545" xlink:href="#m6ef9e68c0c" y="285.092237"/>
     <use style="fill:#1a1a1a;fill-opacity:0.5;stroke:#1a1a1a;stroke-opacity:0.5;" x="395.839695" xlink:href="#m6ef9e68c0c" y="190.443975"/>
     <use style="fill:#1a1a1a;fill-opacity:0.5;stroke:#1a1a1a;stroke-opacity:0.5;" x="248.621645" xlink:href="#m6ef9e68c0c" y="276.474851"/>
     <use style="fill:#1a1a1a;fill-opacity:0.5;stroke:#1a1a1a;stroke-opacity:0.5;" x="333.593137" xlink:href="#m6ef9e68c0c" y="216.308771"/>
     <use style="fill:#1a1a1a;fill-opacity:0.5;stroke:#1a1a1a;stroke-opacity:0.5;" x="300.394973" xlink:href="#m6ef9e68c0c" y="222.09121"/>
     <use style="fill:#1a1a1a;fill-opacity:0.5;stroke:#1a1a1a;stroke-opacity:0.5;" x="233.998644" xlink:href="#m6ef9e68c0c" y="308.969447"/>
     <use style="fill:#1a1a1a;fill-opacity:0.5;stroke:#1a1a1a;stroke-opacity:0.5;" x="353.066043" xlink:href="#m6ef9e68c0c" y="218.127106"/>
     <use style="fill:#1a1a1a;fill-opacity:0.5;stroke:#1a1a1a;stroke-opacity:0.5;" x="329.118991" xlink:href="#m6ef9e68c0c" y="246.06047"/>
     <use style="fill:#1a1a1a;fill-opacity:0.5;stroke:#1a1a1a;stroke-opacity:0.5;" x="279.913217" xlink:href="#m6ef9e68c0c" y="273.542211"/>
     <use style="fill:#1a1a1a;fill-opacity:0.5;stroke:#1a1a1a;stroke-opacity:0.5;" x="378.054964" xlink:href="#m6ef9e68c0c" y="204.860868"/>
     <use style="fill:#1a1a1a;fill-opacity:0.5;stroke:#1a1a1a;stroke-opacity:0.5;" x="278.236159" xlink:href="#m6ef9e68c0c" y="282.424578"/>
     <use style="fill:#1a1a1a;fill-opacity:0.5;stroke:#1a1a1a;stroke-opacity:0.5;" x="301.411243" xlink:href="#m6ef9e68c0c" y="163.052479"/>
     <use style="fill:#1a1a1a;fill-opacity:0.5;stroke:#1a1a1a;stroke-opacity:0.5;" x="359.194755" xlink:href="#m6ef9e68c0c" y="211.842846"/>
     <use style="fill:#1a1a1a;fill-opacity:0.5;stroke:#1a1a1a;stroke-opacity:0.5;" x="350.192219" xlink:href="#m6ef9e68c0c" y="182.012367"/>
     <use style="fill:#1a1a1a;fill-opacity:0.5;stroke:#1a1a1a;stroke-opacity:0.5;" x="399.650709" xlink:href="#m6ef9e68c0c" y="186.285219"/>
     <use style="fill:#1a1a1a;fill-opacity:0.5;stroke:#1a1a1a;stroke-opacity:0.5;" x="319.153393" xlink:href="#m6ef9e68c0c" y="124.181595"/>
     <use style="fill:#1a1a1a;fill-opacity:0.5;stroke:#1a1a1a;stroke-opacity:0.5;" x="258.008031" xlink:href="#m6ef9e68c0c" y="237.864311"/>
     <use style="fill:#1a1a1a;fill-opacity:0.5;stroke:#1a1a1a;stroke-opacity:0.5;" x="314.326345" xlink:href="#m6ef9e68c0c" y="148.989048"/>
     <use style="fill:#1a1a1a;fill-opacity:0.5;stroke:#1a1a1a;stroke-opacity:0.5;" x="309.880162" xlink:href="#m6ef9e68c0c" y="234.622298"/>
     <use style="fill:#1a1a1a;fill-opacity:0.5;stroke:#1a1a1a;stroke-opacity:0.5;" x="369.162599" xlink:href="#m6ef9e68c0c" y="174.51924"/>
     <use style="fill:#1a1a1a;fill-opacity:0.5;stroke:#1a1a1a;stroke-opacity:0.5;" x="315.883447" xlink:href="#m6ef9e68c0c" y="198.046894"/>
     <use style="fill:#1a1a1a;fill-opacity:0.5;stroke:#1a1a1a;stroke-opacity:0.5;" x="371.785715" xlink:href="#m6ef9e68c0c" y="199.113048"/>
     <use style="fill:#1a1a1a;fill-opacity:0.5;stroke:#1a1a1a;stroke-opacity:0.5;" x="317.784487" xlink:href="#m6ef9e68c0c" y="213.835017"/>
     <use style="fill:#1a1a1a;fill-opacity:0.5;stroke:#1a1a1a;stroke-opacity:0.5;" x="294.071513" xlink:href="#m6ef9e68c0c" y="217.245185"/>
     <use style="fill:#1a1a1a;fill-opacity:0.5;stroke:#1a1a1a;stroke-opacity:0.5;" x="366.791301" xlink:href="#m6ef9e68c0c" y="235.66196"/>
     <use style="fill:#1a1a1a;fill-opacity:0.5;stroke:#1a1a1a;stroke-opacity:0.5;" x="188.943993" xlink:href="#m6ef9e68c0c" y="264.2762"/>
     <use style="fill:#1a1a1a;fill-opacity:0.5;stroke:#1a1a1a;stroke-opacity:0.5;" x="348.413746" xlink:href="#m6ef9e68c0c" y="244.830083"/>
     <use style="fill:#1a1a1a;fill-opacity:0.5;stroke:#1a1a1a;stroke-opacity:0.5;" x="214.369571" xlink:href="#m6ef9e68c0c" y="259.044513"/>
     <use style="fill:#1a1a1a;fill-opacity:0.5;stroke:#1a1a1a;stroke-opacity:0.5;" x="269.428618" xlink:href="#m6ef9e68c0c" y="238.985307"/>
     <use style="fill:#1a1a1a;fill-opacity:0.5;stroke:#1a1a1a;stroke-opacity:0.5;" x="313.940603" xlink:href="#m6ef9e68c0c" y="245.703472"/>
     <use style="fill:#1a1a1a;fill-opacity:0.5;stroke:#1a1a1a;stroke-opacity:0.5;" x="179.458803" xlink:href="#m6ef9e68c0c" y="292.564653"/>
     <use style="fill:#1a1a1a;fill-opacity:0.5;stroke:#1a1a1a;stroke-opacity:0.5;" x="386.94733" xlink:href="#m6ef9e68c0c" y="168.340929"/>
     <use style="fill:#1a1a1a;fill-opacity:0.5;stroke:#1a1a1a;stroke-opacity:0.5;" x="232.392884" xlink:href="#m6ef9e68c0c" y="231.465521"/>
     <use style="fill:#1a1a1a;fill-opacity:0.5;stroke:#1a1a1a;stroke-opacity:0.5;" x="326.818001" xlink:href="#m6ef9e68c0c" y="195.021045"/>
     <use style="fill:#1a1a1a;fill-opacity:0.5;stroke:#1a1a1a;stroke-opacity:0.5;" x="261.52689" xlink:href="#m6ef9e68c0c" y="214.487152"/>
     <use style="fill:#1a1a1a;fill-opacity:0.5;stroke:#1a1a1a;stroke-opacity:0.5;" x="260.040946" xlink:href="#m6ef9e68c0c" y="236.951296"/>
     <use style="fill:#1a1a1a;fill-opacity:0.5;stroke:#1a1a1a;stroke-opacity:0.5;" x="222.201937" xlink:href="#m6ef9e68c0c" y="247.222484"/>
     <use style="fill:#1a1a1a;fill-opacity:0.5;stroke:#1a1a1a;stroke-opacity:0.5;" x="232.812995" xlink:href="#m6ef9e68c0c" y="245.15216"/>
     <use style="fill:#1a1a1a;fill-opacity:0.5;stroke:#1a1a1a;stroke-opacity:0.5;" x="369.162599" xlink:href="#m6ef9e68c0c" y="167.636525"/>
     <use style="fill:#1a1a1a;fill-opacity:0.5;stroke:#1a1a1a;stroke-opacity:0.5;" x="378.183839" xlink:href="#m6ef9e68c0c" y="192.87499"/>
     <use style="fill:#1a1a1a;fill-opacity:0.5;stroke:#1a1a1a;stroke-opacity:0.5;" x="271.346579" xlink:href="#m6ef9e68c0c" y="238.403992"/>
     <use style="fill:#1a1a1a;fill-opacity:0.5;stroke:#1a1a1a;stroke-opacity:0.5;" x="392.875573" xlink:href="#m6ef9e68c0c" y="153.599803"/>
     <use style="fill:#1a1a1a;fill-opacity:0.5;stroke:#1a1a1a;stroke-opacity:0.5;" x="286.167188" xlink:href="#m6ef9e68c0c" y="208.818592"/>
     <use style="fill:#1a1a1a;fill-opacity:0.5;stroke:#1a1a1a;stroke-opacity:0.5;" x="401.851045" xlink:href="#m6ef9e68c0c" y="179.848763"/>
     <use style="fill:#1a1a1a;fill-opacity:0.5;stroke:#1a1a1a;stroke-opacity:0.5;" x="203.171777" xlink:href="#m6ef9e68c0c" y="251.923571"/>
     <use style="fill:#1a1a1a;fill-opacity:0.5;stroke:#1a1a1a;stroke-opacity:0.5;" x="372.456067" xlink:href="#m6ef9e68c0c" y="201.768826"/>
     <use style="fill:#1a1a1a;fill-opacity:0.5;stroke:#1a1a1a;stroke-opacity:0.5;" x="175.47257" xlink:href="#m6ef9e68c0c" y="309.207877"/>
     <use style="fill:#1a1a1a;fill-opacity:0.5;stroke:#1a1a1a;stroke-opacity:0.5;" x="396.591786" xlink:href="#m6ef9e68c0c" y="206.001319"/>
     <use style="fill:#1a1a1a;fill-opacity:0.5;stroke:#1a1a1a;stroke-opacity:0.5;" x="398.803817" xlink:href="#m6ef9e68c0c" y="158.938338"/>
     <use style="fill:#1a1a1a;fill-opacity:0.5;stroke:#1a1a1a;stroke-opacity:0.5;" x="72.750418" xlink:href="#m6ef9e68c0c" y="357.313054"/>
     <use style="fill:#1a1a1a;fill-opacity:0.5;stroke:#1a1a1a;stroke-opacity:0.5;" x="354.34199" xlink:href="#m6ef9e68c0c" y="214.508413"/>
     <use style="fill:#1a1a1a;fill-opacity:0.5;stroke:#1a1a1a;stroke-opacity:0.5;" x="383.277464" xlink:href="#m6ef9e68c0c" y="88.832418"/>
     <use style="fill:#1a1a1a;fill-opacity:0.5;stroke:#1a1a1a;stroke-opacity:0.5;" x="291.974447" xlink:href="#m6ef9e68c0c" y="258.431184"/>
     <use style="fill:#1a1a1a;fill-opacity:0.5;stroke:#1a1a1a;stroke-opacity:0.5;" x="219.212907" xlink:href="#m6ef9e68c0c" y="224.189852"/>
     <use style="fill:#1a1a1a;fill-opacity:0.5;stroke:#1a1a1a;stroke-opacity:0.5;" x="292.095432" xlink:href="#m6ef9e68c0c" y="242.70179"/>
     <use style="fill:#1a1a1a;fill-opacity:0.5;stroke:#1a1a1a;stroke-opacity:0.5;" x="193.686587" xlink:href="#m6ef9e68c0c" y="319.447753"/>
     <use style="fill:#1a1a1a;fill-opacity:0.5;stroke:#1a1a1a;stroke-opacity:0.5;" x="205.543075" xlink:href="#m6ef9e68c0c" y="261.316084"/>
     <use style="fill:#1a1a1a;fill-opacity:0.5;stroke:#1a1a1a;stroke-opacity:0.5;" x="322.884052" xlink:href="#m6ef9e68c0c" y="197.468161"/>
     <use style="fill:#1a1a1a;fill-opacity:0.5;stroke:#1a1a1a;stroke-opacity:0.5;" x="262.454213" xlink:href="#m6ef9e68c0c" y="265.529051"/>
     <use style="fill:#1a1a1a;fill-opacity:0.5;stroke:#1a1a1a;stroke-opacity:0.5;" x="250.597726" xlink:href="#m6ef9e68c0c" y="218.521184"/>
     <use style="fill:#1a1a1a;fill-opacity:0.5;stroke:#1a1a1a;stroke-opacity:0.5;" x="256.52597" xlink:href="#m6ef9e68c0c" y="275.458545"/>
     <use style="fill:#1a1a1a;fill-opacity:0.5;stroke:#1a1a1a;stroke-opacity:0.5;" x="396.109161" xlink:href="#m6ef9e68c0c" y="106.914413"/>
     <use style="fill:#1a1a1a;fill-opacity:0.5;stroke:#1a1a1a;stroke-opacity:0.5;" x="428.445035" xlink:href="#m6ef9e68c0c" y="122.242286"/>
     <use style="fill:#1a1a1a;fill-opacity:0.5;stroke:#1a1a1a;stroke-opacity:0.5;" x="252.079787" xlink:href="#m6ef9e68c0c" y="173.295559"/>
     <use style="fill:#1a1a1a;fill-opacity:0.5;stroke:#1a1a1a;stroke-opacity:0.5;" x="203.171777" xlink:href="#m6ef9e68c0c" y="262.368158"/>
     <use style="fill:#1a1a1a;fill-opacity:0.5;stroke:#1a1a1a;stroke-opacity:0.5;" x="233.998644" xlink:href="#m6ef9e68c0c" y="294.150466"/>
     <use style="fill:#1a1a1a;fill-opacity:0.5;stroke:#1a1a1a;stroke-opacity:0.5;" x="311.183073" xlink:href="#m6ef9e68c0c" y="282.465844"/>
     <use style="fill:#1a1a1a;fill-opacity:0.5;stroke:#1a1a1a;stroke-opacity:0.5;" x="255.111617" xlink:href="#m6ef9e68c0c" y="243.594557"/>
     <use style="fill:#1a1a1a;fill-opacity:0.5;stroke:#1a1a1a;stroke-opacity:0.5;" x="72.750418" xlink:href="#m6ef9e68c0c" y="467.998925"/>
     <use style="fill:#1a1a1a;fill-opacity:0.5;stroke:#1a1a1a;stroke-opacity:0.5;" x="294.482127" xlink:href="#m6ef9e68c0c" y="180.752742"/>
     <use style="fill:#1a1a1a;fill-opacity:0.5;stroke:#1a1a1a;stroke-opacity:0.5;" x="384.506288" xlink:href="#m6ef9e68c0c" y="204.675858"/>
     <use style="fill:#1a1a1a;fill-opacity:0.5;stroke:#1a1a1a;stroke-opacity:0.5;" x="351.697649" xlink:href="#m6ef9e68c0c" y="167.752762"/>
     <use style="fill:#1a1a1a;fill-opacity:0.5;stroke:#1a1a1a;stroke-opacity:0.5;" x="384.971248" xlink:href="#m6ef9e68c0c" y="182.767737"/>
     <use style="fill:#1a1a1a;fill-opacity:0.5;stroke:#1a1a1a;stroke-opacity:0.5;" x="388.132978" xlink:href="#m6ef9e68c0c" y="175.899646"/>
     <use style="fill:#1a1a1a;fill-opacity:0.5;stroke:#1a1a1a;stroke-opacity:0.5;" x="292.050858" xlink:href="#m6ef9e68c0c" y="147.385907"/>
     <use style="fill:#1a1a1a;fill-opacity:0.5;stroke:#1a1a1a;stroke-opacity:0.5;" x="250.597726" xlink:href="#m6ef9e68c0c" y="213.625136"/>
     <use style="fill:#1a1a1a;fill-opacity:0.5;stroke:#1a1a1a;stroke-opacity:0.5;" x="232.289915" xlink:href="#m6ef9e68c0c" y="224.660387"/>
     <use style="fill:#1a1a1a;fill-opacity:0.5;stroke:#1a1a1a;stroke-opacity:0.5;" x="314.004158" xlink:href="#m6ef9e68c0c" y="163.530798"/>
     <use style="fill:#1a1a1a;fill-opacity:0.5;stroke:#1a1a1a;stroke-opacity:0.5;" x="216.070593" xlink:href="#m6ef9e68c0c" y="236.385264"/>
     <use style="fill:#1a1a1a;fill-opacity:0.5;stroke:#1a1a1a;stroke-opacity:0.5;" x="298.023675" xlink:href="#m6ef9e68c0c" y="246.852025"/>
     <use style="fill:#1a1a1a;fill-opacity:0.5;stroke:#1a1a1a;stroke-opacity:0.5;" x="272.616917" xlink:href="#m6ef9e68c0c" y="195.826569"/>
     <use style="fill:#1a1a1a;fill-opacity:0.5;stroke:#1a1a1a;stroke-opacity:0.5;" x="348.126896" xlink:href="#m6ef9e68c0c" y="217.227229"/>
     <use style="fill:#1a1a1a;fill-opacity:0.5;stroke:#1a1a1a;stroke-opacity:0.5;" x="387.64852" xlink:href="#m6ef9e68c0c" y="193.823967"/>
     <use style="fill:#1a1a1a;fill-opacity:0.5;stroke:#1a1a1a;stroke-opacity:0.5;" x="383.088003" xlink:href="#m6ef9e68c0c" y="219.026586"/>
     <use style="fill:#1a1a1a;fill-opacity:0.5;stroke:#1a1a1a;stroke-opacity:0.5;" x="289.13131" xlink:href="#m6ef9e68c0c" y="265.187903"/>
     <use style="fill:#1a1a1a;fill-opacity:0.5;stroke:#1a1a1a;stroke-opacity:0.5;" x="365.775031" xlink:href="#m6ef9e68c0c" y="137.235171"/>
     <use style="fill:#1a1a1a;fill-opacity:0.5;stroke:#1a1a1a;stroke-opacity:0.5;" x="339.521381" xlink:href="#m6ef9e68c0c" y="140.144878"/>
     <use style="fill:#1a1a1a;fill-opacity:0.5;stroke:#1a1a1a;stroke-opacity:0.5;" x="279.634022" xlink:href="#m6ef9e68c0c" y="202.784088"/>
     <use style="fill:#1a1a1a;fill-opacity:0.5;stroke:#1a1a1a;stroke-opacity:0.5;" x="289.13131" xlink:href="#m6ef9e68c0c" y="264.605778"/>
     <use style="fill:#1a1a1a;fill-opacity:0.5;stroke:#1a1a1a;stroke-opacity:0.5;" x="243.029756" xlink:href="#m6ef9e68c0c" y="246.481568"/>
     <use style="fill:#1a1a1a;fill-opacity:0.5;stroke:#1a1a1a;stroke-opacity:0.5;" x="360.785733" xlink:href="#m6ef9e68c0c" y="98.520526"/>
     <use style="fill:#1a1a1a;fill-opacity:0.5;stroke:#1a1a1a;stroke-opacity:0.5;" x="338.995205" xlink:href="#m6ef9e68c0c" y="236.31017"/>
     <use style="fill:#1a1a1a;fill-opacity:0.5;stroke:#1a1a1a;stroke-opacity:0.5;" x="301.975838" xlink:href="#m6ef9e68c0c" y="210.147673"/>
     <use style="fill:#1a1a1a;fill-opacity:0.5;stroke:#1a1a1a;stroke-opacity:0.5;" x="371.533896" xlink:href="#m6ef9e68c0c" y="167.840019"/>
     <use style="fill:#1a1a1a;fill-opacity:0.5;stroke:#1a1a1a;stroke-opacity:0.5;" x="367.468815" xlink:href="#m6ef9e68c0c" y="200.321186"/>
     <use style="fill:#1a1a1a;fill-opacity:0.5;stroke:#1a1a1a;stroke-opacity:0.5;" x="334.841188" xlink:href="#m6ef9e68c0c" y="184.562711"/>
     <use style="fill:#1a1a1a;fill-opacity:0.5;stroke:#1a1a1a;stroke-opacity:0.5;" x="389.911451" xlink:href="#m6ef9e68c0c" y="152.556023"/>
     <use style="fill:#1a1a1a;fill-opacity:0.5;stroke:#1a1a1a;stroke-opacity:0.5;" x="313.473037" xlink:href="#m6ef9e68c0c" y="139.673056"/>
     <use style="fill:#1a1a1a;fill-opacity:0.5;stroke:#1a1a1a;stroke-opacity:0.5;" x="167.602316" xlink:href="#m6ef9e68c0c" y="279.754121"/>
     <use style="fill:#1a1a1a;fill-opacity:0.5;stroke:#1a1a1a;stroke-opacity:0.5;" x="296.706288" xlink:href="#m6ef9e68c0c" y="211.933937"/>
     <use style="fill:#1a1a1a;fill-opacity:0.5;stroke:#1a1a1a;stroke-opacity:0.5;" x="283.532413" xlink:href="#m6ef9e68c0c" y="208.473277"/>
     <use style="fill:#1a1a1a;fill-opacity:0.5;stroke:#1a1a1a;stroke-opacity:0.5;" x="309.880162" xlink:href="#m6ef9e68c0c" y="225.514253"/>
     <use style="fill:#1a1a1a;fill-opacity:0.5;stroke:#1a1a1a;stroke-opacity:0.5;" x="382.501147" xlink:href="#m6ef9e68c0c" y="167.917413"/>
     <use style="fill:#1a1a1a;fill-opacity:0.5;stroke:#1a1a1a;stroke-opacity:0.5;" x="293.606553" xlink:href="#m6ef9e68c0c" y="207.193566"/>
     <use style="fill:#1a1a1a;fill-opacity:0.5;stroke:#1a1a1a;stroke-opacity:0.5;" x="253.175223" xlink:href="#m6ef9e68c0c" y="203.264702"/>
     <use style="fill:#1a1a1a;fill-opacity:0.5;stroke:#1a1a1a;stroke-opacity:0.5;" x="306.728937" xlink:href="#m6ef9e68c0c" y="253.216431"/>
     <use style="fill:#1a1a1a;fill-opacity:0.5;stroke:#1a1a1a;stroke-opacity:0.5;" x="399.246223" xlink:href="#m6ef9e68c0c" y="176.520481"/>
     <use style="fill:#1a1a1a;fill-opacity:0.5;stroke:#1a1a1a;stroke-opacity:0.5;" x="291.783419" xlink:href="#m6ef9e68c0c" y="248.973493"/>
     <use style="fill:#1a1a1a;fill-opacity:0.5;stroke:#1a1a1a;stroke-opacity:0.5;" x="183.665943" xlink:href="#m6ef9e68c0c" y="281.386807"/>
     <use style="fill:#1a1a1a;fill-opacity:0.5;stroke:#1a1a1a;stroke-opacity:0.5;" x="357.306111" xlink:href="#m6ef9e68c0c" y="210.031182"/>
     <use style="fill:#1a1a1a;fill-opacity:0.5;stroke:#1a1a1a;stroke-opacity:0.5;" x="224.66166" xlink:href="#m6ef9e68c0c" y="260.335649"/>
     <use style="fill:#1a1a1a;fill-opacity:0.5;stroke:#1a1a1a;stroke-opacity:0.5;" x="314.622757" xlink:href="#m6ef9e68c0c" y="212.129947"/>
     <use style="fill:#1a1a1a;fill-opacity:0.5;stroke:#1a1a1a;stroke-opacity:0.5;" x="224.908671" xlink:href="#m6ef9e68c0c" y="220.752488"/>
     <use style="fill:#1a1a1a;fill-opacity:0.5;stroke:#1a1a1a;stroke-opacity:0.5;" x="363.317851" xlink:href="#m6ef9e68c0c" y="127.15589"/>
     <use style="fill:#1a1a1a;fill-opacity:0.5;stroke:#1a1a1a;stroke-opacity:0.5;" x="171.836775" xlink:href="#m6ef9e68c0c" y="270.973706"/>
     <use style="fill:#1a1a1a;fill-opacity:0.5;stroke:#1a1a1a;stroke-opacity:0.5;" x="203.171777" xlink:href="#m6ef9e68c0c" y="270.301253"/>
     <use style="fill:#1a1a1a;fill-opacity:0.5;stroke:#1a1a1a;stroke-opacity:0.5;" x="275.692745" xlink:href="#m6ef9e68c0c" y="287.458854"/>
     <use style="fill:#1a1a1a;fill-opacity:0.5;stroke:#1a1a1a;stroke-opacity:0.5;" x="220.956508" xlink:href="#m6ef9e68c0c" y="253.773003"/>
     <use style="fill:#1a1a1a;fill-opacity:0.5;stroke:#1a1a1a;stroke-opacity:0.5;" x="294.636107" xlink:href="#m6ef9e68c0c" y="204.294425"/>
     <use style="fill:#1a1a1a;fill-opacity:0.5;stroke:#1a1a1a;stroke-opacity:0.5;" x="255.906601" xlink:href="#m6ef9e68c0c" y="235.302748"/>
     <use style="fill:#1a1a1a;fill-opacity:0.5;stroke:#1a1a1a;stroke-opacity:0.5;" x="132.032854" xlink:href="#m6ef9e68c0c" y="325.323155"/>
     <use style="fill:#1a1a1a;fill-opacity:0.5;stroke:#1a1a1a;stroke-opacity:0.5;" x="254.492193" xlink:href="#m6ef9e68c0c" y="190.018171"/>
     <use style="fill:#1a1a1a;fill-opacity:0.5;stroke:#1a1a1a;stroke-opacity:0.5;" x="382.450041" xlink:href="#m6ef9e68c0c" y="156.873162"/>
     <use style="fill:#1a1a1a;fill-opacity:0.5;stroke:#1a1a1a;stroke-opacity:0.5;" x="217.992386" xlink:href="#m6ef9e68c0c" y="229.417083"/>
     <use style="fill:#1a1a1a;fill-opacity:0.5;stroke:#1a1a1a;stroke-opacity:0.5;" x="75.121715" xlink:href="#m6ef9e68c0c" y="376.955136"/>
     <use style="fill:#1a1a1a;fill-opacity:0.5;stroke:#1a1a1a;stroke-opacity:0.5;" x="237.584509" xlink:href="#m6ef9e68c0c" y="245.192612"/>
     <use style="fill:#1a1a1a;fill-opacity:0.5;stroke:#1a1a1a;stroke-opacity:0.5;" x="254.131116" xlink:href="#m6ef9e68c0c" y="227.560907"/>
     <use style="fill:#1a1a1a;fill-opacity:0.5;stroke:#1a1a1a;stroke-opacity:0.5;" x="359.677409" xlink:href="#m6ef9e68c0c" y="199.458167"/>
     <use style="fill:#1a1a1a;fill-opacity:0.5;stroke:#1a1a1a;stroke-opacity:0.5;" x="365.210436" xlink:href="#m6ef9e68c0c" y="224.607152"/>
     <use style="fill:#1a1a1a;fill-opacity:0.5;stroke:#1a1a1a;stroke-opacity:0.5;" x="315.808406" xlink:href="#m6ef9e68c0c" y="223.588058"/>
     <use style="fill:#1a1a1a;fill-opacity:0.5;stroke:#1a1a1a;stroke-opacity:0.5;" x="181.636525" xlink:href="#m6ef9e68c0c" y="348.612519"/>
     <use style="fill:#1a1a1a;fill-opacity:0.5;stroke:#1a1a1a;stroke-opacity:0.5;" x="231.942414" xlink:href="#m6ef9e68c0c" y="236.7159"/>
     <use style="fill:#1a1a1a;fill-opacity:0.5;stroke:#1a1a1a;stroke-opacity:0.5;" x="210.632039" xlink:href="#m6ef9e68c0c" y="318.473415"/>
     <use style="fill:#1a1a1a;fill-opacity:0.5;stroke:#1a1a1a;stroke-opacity:0.5;" x="409.358982" xlink:href="#m6ef9e68c0c" y="186.183151"/>
     <use style="fill:#1a1a1a;fill-opacity:0.5;stroke:#1a1a1a;stroke-opacity:0.5;" x="346.731407" xlink:href="#m6ef9e68c0c" y="218.887193"/>
     <use style="fill:#1a1a1a;fill-opacity:0.5;stroke:#1a1a1a;stroke-opacity:0.5;" x="241.705361" xlink:href="#m6ef9e68c0c" y="280.482745"/>
     <use style="fill:#1a1a1a;fill-opacity:0.5;stroke:#1a1a1a;stroke-opacity:0.5;" x="171.426989" xlink:href="#m6ef9e68c0c" y="298.461919"/>
     <use style="fill:#1a1a1a;fill-opacity:0.5;stroke:#1a1a1a;stroke-opacity:0.5;" x="353.749165" xlink:href="#m6ef9e68c0c" y="174.937911"/>
    </g>
   </g>
   <g id="patch_3">
    <path clip-path="url(#pe172dde38f)" d="M 72.750418 335.041498 
L 429.908521 335.041498 
L 429.908521 112.081027 
L 72.750418 112.081027 
z
" style="fill:#55a868;opacity:0.05;stroke:#55a868;stroke-linejoin:miter;"/>
   </g>
   <g id="patch_4">
    <path clip-path="url(#pe172dde38f)" d="M 72.750418 390.781616 
L 429.908521 390.781616 
L 429.908521 335.041498 
L 72.750418 335.041498 
z
" style="fill:#ffa500;opacity:0.05;stroke:#ffa500;stroke-linejoin:miter;"/>
   </g>
   <g id="patch_5">
    <path clip-path="url(#pe172dde38f)" d="M 72.750418 112.081027 
L 429.908521 112.081027 
L 429.908521 56.340909 
L 72.750418 56.340909 
z
" style="fill:#ffa500;opacity:0.05;stroke:#ffa500;stroke-linejoin:miter;"/>
   </g>
   <g id="patch_6">
    <path clip-path="url(#pe172dde38f)" d="M 72.750418 487.159091 
L 429.908521 487.159091 
L 429.908521 390.781616 
L 72.750418 390.781616 
z
" style="fill:#c44e52;opacity:0.05;stroke:#c44e52;stroke-linejoin:miter;"/>
   </g>
   <g id="patch_7">
    <path clip-path="url(#pe172dde38f)" d="M 72.750418 56.340909 
L 429.908521 56.340909 
L 429.908521 69.672253 
L 72.750418 69.672253 
z
" style="fill:#c44e52;opacity:0.05;stroke:#c44e52;stroke-linejoin:miter;"/>
   </g>
   <g id="line2d_15">
    <path clip-path="url(#pe172dde38f)" d="M 195.54975 487.159091 
L 195.54975 69.672253 
" style="fill:none;stroke:#ccb974;stroke-linecap:round;stroke-width:2;"/>
   </g>
   <g id="patch_8">
    <path d="M 72.425 508.7 
L 72.425 34.8 
" style="fill:none;stroke:#cccccc;stroke-linecap:square;stroke-linejoin:miter;stroke-width:1.25;"/>
   </g>
   <g id="patch_9">
    <path d="M 429.908521 508.7 
L 429.908521 34.8 
" style="fill:none;stroke:#cccccc;stroke-linecap:square;stroke-linejoin:miter;stroke-width:1.25;"/>
   </g>
   <g id="patch_10">
    <path d="M 72.425 508.7 
L 429.908521 508.7 
" style="fill:none;stroke:#cccccc;stroke-linecap:square;stroke-linejoin:miter;stroke-width:1.25;"/>
   </g>
   <g id="patch_11">
    <path d="M 72.425 34.8 
L 429.908521 34.8 
" style="fill:none;stroke:#cccccc;stroke-linecap:square;stroke-linejoin:miter;stroke-width:1.25;"/>
   </g>
   <g id="text_17">
    <!-- Train -->
    <defs>
     <path d="M 25.921875 0 
L 25.921875 63.140625 
L 2.34375 63.140625 
L 2.34375 71.578125 
L 59.078125 71.578125 
L 59.078125 63.140625 
L 35.40625 63.140625 
L 35.40625 0 
z
" id="ArialMT-84"/>
    </defs>
    <g style="fill:#262626;" transform="translate(223.834885 28.8)scale(0.24 -0.24)">
     <use xlink:href="#ArialMT-84"/>
     <use x="61.037109" xlink:href="#ArialMT-114"/>
     <use x="94.337891" xlink:href="#ArialMT-97"/>
     <use x="149.953125" xlink:href="#ArialMT-105"/>
     <use x="172.169922" xlink:href="#ArialMT-110"/>
    </g>
   </g>
   <g id="legend_1">
    <g id="patch_12">
     <path d="M 87.825 497.7 
L 309.842813 497.7 
Q 314.242813 497.7 314.242813 493.3 
L 314.242813 402.140937 
Q 314.242813 397.740937 309.842813 397.740937 
L 87.825 397.740937 
Q 83.425 397.740937 83.425 402.140937 
L 83.425 493.3 
Q 83.425 497.7 87.825 497.7 
z
" style="fill:#ffffff;opacity:0.8;stroke:#cccccc;stroke-linejoin:miter;"/>
    </g>
    <g id="line2d_16">
     <path d="M 92.225 414.588125 
L 136.225 414.588125 
" style="fill:none;stroke:#ccb974;stroke-linecap:round;stroke-width:2;"/>
    </g>
    <g id="line2d_17"/>
    <g id="text_18">
     <!-- Observed Data -->
     <defs>
      <path d="M 4.828125 34.859375 
Q 4.828125 52.6875 14.390625 62.765625 
Q 23.96875 72.859375 39.109375 72.859375 
Q 49.03125 72.859375 56.984375 68.109375 
Q 64.9375 63.375 69.109375 54.90625 
Q 73.296875 46.4375 73.296875 35.6875 
Q 73.296875 24.8125 68.890625 16.21875 
Q 64.5 7.625 56.4375 3.203125 
Q 48.390625 -1.21875 39.0625 -1.21875 
Q 28.953125 -1.21875 20.984375 3.65625 
Q 13.03125 8.546875 8.921875 16.984375 
Q 4.828125 25.4375 4.828125 34.859375 
z
M 14.59375 34.71875 
Q 14.59375 21.78125 21.546875 14.328125 
Q 28.515625 6.890625 39.015625 6.890625 
Q 49.703125 6.890625 56.609375 14.40625 
Q 63.53125 21.921875 63.53125 35.75 
Q 63.53125 44.484375 60.578125 51 
Q 57.625 57.515625 51.921875 61.109375 
Q 46.234375 64.703125 39.15625 64.703125 
Q 29.109375 64.703125 21.84375 57.78125 
Q 14.59375 50.875 14.59375 34.71875 
z
" id="ArialMT-79"/>
      <path d="M 14.703125 0 
L 6.546875 0 
L 6.546875 71.578125 
L 15.328125 71.578125 
L 15.328125 46.046875 
Q 20.90625 53.03125 29.546875 53.03125 
Q 34.328125 53.03125 38.59375 51.09375 
Q 42.875 49.171875 45.625 45.671875 
Q 48.390625 42.1875 49.953125 37.25 
Q 51.515625 32.328125 51.515625 26.703125 
Q 51.515625 13.375 44.921875 6.09375 
Q 38.328125 -1.171875 29.109375 -1.171875 
Q 19.921875 -1.171875 14.703125 6.5 
z
M 14.59375 26.3125 
Q 14.59375 17 17.140625 12.84375 
Q 21.296875 6.0625 28.375 6.0625 
Q 34.125 6.0625 38.328125 11.0625 
Q 42.53125 16.0625 42.53125 25.984375 
Q 42.53125 36.140625 38.5 40.96875 
Q 34.46875 45.796875 28.765625 45.796875 
Q 23 45.796875 18.796875 40.796875 
Q 14.59375 35.796875 14.59375 26.3125 
z
" id="ArialMT-98"/>
      <path d="M 21 0 
L 1.265625 51.859375 
L 10.546875 51.859375 
L 21.6875 20.796875 
Q 23.484375 15.765625 25 10.359375 
Q 26.171875 14.453125 28.265625 20.21875 
L 39.796875 51.859375 
L 48.828125 51.859375 
L 29.203125 0 
z
" id="ArialMT-118"/>
      <path d="M 40.234375 0 
L 40.234375 6.546875 
Q 35.296875 -1.171875 25.734375 -1.171875 
Q 19.53125 -1.171875 14.328125 2.25 
Q 9.125 5.671875 6.265625 11.796875 
Q 3.421875 17.921875 3.421875 25.875 
Q 3.421875 33.640625 6 39.96875 
Q 8.59375 46.296875 13.765625 49.65625 
Q 18.953125 53.03125 25.34375 53.03125 
Q 30.03125 53.03125 33.6875 51.046875 
Q 37.359375 49.078125 39.65625 45.90625 
L 39.65625 71.578125 
L 48.390625 71.578125 
L 48.390625 0 
z
M 12.453125 25.875 
Q 12.453125 15.921875 16.640625 10.984375 
Q 20.84375 6.0625 26.5625 6.0625 
Q 32.328125 6.0625 36.34375 10.765625 
Q 40.375 15.484375 40.375 25.140625 
Q 40.375 35.796875 36.265625 40.765625 
Q 32.171875 45.75 26.171875 45.75 
Q 20.3125 45.75 16.375 40.96875 
Q 12.453125 36.1875 12.453125 25.875 
z
" id="ArialMT-100"/>
      <path d="M 7.71875 0 
L 7.71875 71.578125 
L 32.375 71.578125 
Q 40.71875 71.578125 45.125 70.5625 
Q 51.265625 69.140625 55.609375 65.4375 
Q 61.28125 60.640625 64.078125 53.1875 
Q 66.890625 45.75 66.890625 36.1875 
Q 66.890625 28.03125 64.984375 21.734375 
Q 63.09375 15.4375 60.109375 11.296875 
Q 57.125 7.171875 53.578125 4.796875 
Q 50.046875 2.4375 45.046875 1.21875 
Q 40.046875 0 33.546875 0 
z
M 17.1875 8.453125 
L 32.46875 8.453125 
Q 39.546875 8.453125 43.578125 9.765625 
Q 47.609375 11.078125 50 13.484375 
Q 53.375 16.84375 55.25 22.53125 
Q 57.125 28.21875 57.125 36.328125 
Q 57.125 47.5625 53.4375 53.59375 
Q 49.75 59.625 44.484375 61.671875 
Q 40.671875 63.140625 32.234375 63.140625 
L 17.1875 63.140625 
z
" id="ArialMT-68"/>
     </defs>
     <g style="fill:#262626;" transform="translate(153.825 422.288125)scale(0.22 -0.22)">
      <use xlink:href="#ArialMT-79"/>
      <use x="77.783203" xlink:href="#ArialMT-98"/>
      <use x="133.398438" xlink:href="#ArialMT-115"/>
      <use x="183.398438" xlink:href="#ArialMT-101"/>
      <use x="239.013672" xlink:href="#ArialMT-114"/>
      <use x="272.314453" xlink:href="#ArialMT-118"/>
      <use x="322.314453" xlink:href="#ArialMT-101"/>
      <use x="377.929688" xlink:href="#ArialMT-100"/>
      <use x="433.544922" xlink:href="#ArialMT-32"/>
      <use x="461.328125" xlink:href="#ArialMT-68"/>
      <use x="533.544922" xlink:href="#ArialMT-97"/>
      <use x="589.160156" xlink:href="#ArialMT-116"/>
      <use x="616.943359" xlink:href="#ArialMT-97"/>
     </g>
    </g>
    <g id="PathCollection_3">
     <g>
      <use style="fill:#c44e52;fill-opacity:0.5;stroke:#c44e52;stroke-opacity:0.5;" x="114.225" xlink:href="#m5b803c2bb9" y="447.632812"/>
     </g>
    </g>
    <g id="text_19">
     <!-- Implausible -->
     <defs>
      <path d="M 9.328125 0 
L 9.328125 71.578125 
L 18.796875 71.578125 
L 18.796875 0 
z
" id="ArialMT-73"/>
      <path d="M 6.59375 -19.875 
L 6.59375 51.859375 
L 14.59375 51.859375 
L 14.59375 45.125 
Q 17.4375 49.078125 21 51.046875 
Q 24.5625 53.03125 29.640625 53.03125 
Q 36.28125 53.03125 41.359375 49.609375 
Q 46.4375 46.1875 49.015625 39.953125 
Q 51.609375 33.734375 51.609375 26.3125 
Q 51.609375 18.359375 48.75 11.984375 
Q 45.90625 5.609375 40.453125 2.21875 
Q 35.015625 -1.171875 29 -1.171875 
Q 24.609375 -1.171875 21.109375 0.6875 
Q 17.625 2.546875 15.375 5.375 
L 15.375 -19.875 
z
M 14.546875 25.640625 
Q 14.546875 15.625 18.59375 10.84375 
Q 22.65625 6.0625 28.421875 6.0625 
Q 34.28125 6.0625 38.453125 11.015625 
Q 42.625 15.96875 42.625 26.375 
Q 42.625 36.28125 38.546875 41.203125 
Q 34.46875 46.140625 28.8125 46.140625 
Q 23.1875 46.140625 18.859375 40.890625 
Q 14.546875 35.640625 14.546875 25.640625 
z
" id="ArialMT-112"/>
     </defs>
     <g style="fill:#262626;" transform="translate(153.825 453.407812)scale(0.22 -0.22)">
      <use xlink:href="#ArialMT-73"/>
      <use x="27.783203" xlink:href="#ArialMT-109"/>
      <use x="111.083984" xlink:href="#ArialMT-112"/>
      <use x="166.699219" xlink:href="#ArialMT-108"/>
      <use x="188.916016" xlink:href="#ArialMT-97"/>
      <use x="244.53125" xlink:href="#ArialMT-117"/>
      <use x="300.146484" xlink:href="#ArialMT-115"/>
      <use x="350.146484" xlink:href="#ArialMT-105"/>
      <use x="372.363281" xlink:href="#ArialMT-98"/>
      <use x="427.978516" xlink:href="#ArialMT-108"/>
      <use x="450.195312" xlink:href="#ArialMT-101"/>
     </g>
    </g>
    <g id="PathCollection_4">
     <g>
      <use style="fill:#1a1a1a;fill-opacity:0.5;stroke:#1a1a1a;stroke-opacity:0.5;" x="114.225" xlink:href="#m6ef9e68c0c" y="478.7525"/>
     </g>
    </g>
    <g id="text_20">
     <!-- Not Implausible -->
     <defs>
      <path d="M 7.625 0 
L 7.625 71.578125 
L 17.328125 71.578125 
L 54.9375 15.375 
L 54.9375 71.578125 
L 64.015625 71.578125 
L 64.015625 0 
L 54.296875 0 
L 16.703125 56.25 
L 16.703125 0 
z
" id="ArialMT-78"/>
     </defs>
     <g style="fill:#262626;" transform="translate(153.825 484.5275)scale(0.22 -0.22)">
      <use xlink:href="#ArialMT-78"/>
      <use x="72.216797" xlink:href="#ArialMT-111"/>
      <use x="127.832031" xlink:href="#ArialMT-116"/>
      <use x="155.615234" xlink:href="#ArialMT-32"/>
      <use x="183.398438" xlink:href="#ArialMT-73"/>
      <use x="211.181641" xlink:href="#ArialMT-109"/>
      <use x="294.482422" xlink:href="#ArialMT-112"/>
      <use x="350.097656" xlink:href="#ArialMT-108"/>
      <use x="372.314453" xlink:href="#ArialMT-97"/>
      <use x="427.929688" xlink:href="#ArialMT-117"/>
      <use x="483.544922" xlink:href="#ArialMT-115"/>
      <use x="533.544922" xlink:href="#ArialMT-105"/>
      <use x="555.761719" xlink:href="#ArialMT-98"/>
      <use x="611.376953" xlink:href="#ArialMT-108"/>
      <use x="633.59375" xlink:href="#ArialMT-101"/>
     </g>
    </g>
   </g>
  </g>
  <g id="axes_2">
   <g id="patch_13">
    <path d="M 481.7125 508.7 
L 839.196021 508.7 
L 839.196021 34.8 
L 481.7125 34.8 
z
" style="fill:#ffffff;"/>
   </g>
   <g id="matplotlib.axis_3">
    <g id="xtick_6">
     <g id="line2d_18">
      <path clip-path="url(#p2a76e53a84)" d="M 482.037918 508.7 
L 482.037918 34.8 
" style="fill:none;stroke:#cccccc;stroke-linecap:round;"/>
     </g>
     <g id="text_21">
      <!-- 0.00 -->
      <g style="fill:#262626;" transform="translate(460.630886 533.947187)scale(0.22 -0.22)">
       <use xlink:href="#ArialMT-48"/>
       <use x="55.615234" xlink:href="#ArialMT-46"/>
       <use x="83.398438" xlink:href="#ArialMT-48"/>
       <use x="139.013672" xlink:href="#ArialMT-48"/>
      </g>
     </g>
    </g>
    <g id="xtick_7">
     <g id="line2d_19">
      <path clip-path="url(#p2a76e53a84)" d="M 570.961572 508.7 
L 570.961572 34.8 
" style="fill:none;stroke:#cccccc;stroke-linecap:round;"/>
     </g>
     <g id="text_22">
      <!-- 0.25 -->
      <g style="fill:#262626;" transform="translate(549.554541 533.947187)scale(0.22 -0.22)">
       <use xlink:href="#ArialMT-48"/>
       <use x="55.615234" xlink:href="#ArialMT-46"/>
       <use x="83.398438" xlink:href="#ArialMT-50"/>
       <use x="139.013672" xlink:href="#ArialMT-53"/>
      </g>
     </g>
    </g>
    <g id="xtick_8">
     <g id="line2d_20">
      <path clip-path="url(#p2a76e53a84)" d="M 659.885226 508.7 
L 659.885226 34.8 
" style="fill:none;stroke:#cccccc;stroke-linecap:round;"/>
     </g>
     <g id="text_23">
      <!-- 0.50 -->
      <g style="fill:#262626;" transform="translate(638.478195 533.947187)scale(0.22 -0.22)">
       <use xlink:href="#ArialMT-48"/>
       <use x="55.615234" xlink:href="#ArialMT-46"/>
       <use x="83.398438" xlink:href="#ArialMT-53"/>
       <use x="139.013672" xlink:href="#ArialMT-48"/>
      </g>
     </g>
    </g>
    <g id="xtick_9">
     <g id="line2d_21">
      <path clip-path="url(#p2a76e53a84)" d="M 748.808881 508.7 
L 748.808881 34.8 
" style="fill:none;stroke:#cccccc;stroke-linecap:round;"/>
     </g>
     <g id="text_24">
      <!-- 0.75 -->
      <g style="fill:#262626;" transform="translate(727.401849 533.947187)scale(0.22 -0.22)">
       <use xlink:href="#ArialMT-48"/>
       <use x="55.615234" xlink:href="#ArialMT-46"/>
       <use x="83.398438" xlink:href="#ArialMT-55"/>
       <use x="139.013672" xlink:href="#ArialMT-53"/>
      </g>
     </g>
    </g>
    <g id="xtick_10">
     <g id="line2d_22">
      <path clip-path="url(#p2a76e53a84)" d="M 837.732535 508.7 
L 837.732535 34.8 
" style="fill:none;stroke:#cccccc;stroke-linecap:round;"/>
     </g>
     <g id="text_25">
      <!-- 1.00 -->
      <g style="fill:#262626;" transform="translate(816.325504 533.947187)scale(0.22 -0.22)">
       <use xlink:href="#ArialMT-49"/>
       <use x="55.615234" xlink:href="#ArialMT-46"/>
       <use x="83.398438" xlink:href="#ArialMT-48"/>
       <use x="139.013672" xlink:href="#ArialMT-48"/>
      </g>
     </g>
    </g>
    <g id="text_26">
     <!-- Simulation Result -->
     <g style="fill:#262626;" transform="translate(567.08301 559.498437)scale(0.24 -0.24)">
      <use xlink:href="#ArialMT-83"/>
      <use x="66.699219" xlink:href="#ArialMT-105"/>
      <use x="88.916016" xlink:href="#ArialMT-109"/>
      <use x="172.216797" xlink:href="#ArialMT-117"/>
      <use x="227.832031" xlink:href="#ArialMT-108"/>
      <use x="250.048828" xlink:href="#ArialMT-97"/>
      <use x="305.664062" xlink:href="#ArialMT-116"/>
      <use x="333.447266" xlink:href="#ArialMT-105"/>
      <use x="355.664062" xlink:href="#ArialMT-111"/>
      <use x="411.279297" xlink:href="#ArialMT-110"/>
      <use x="466.894531" xlink:href="#ArialMT-32"/>
      <use x="494.677734" xlink:href="#ArialMT-82"/>
      <use x="566.894531" xlink:href="#ArialMT-101"/>
      <use x="622.509766" xlink:href="#ArialMT-115"/>
      <use x="672.509766" xlink:href="#ArialMT-117"/>
      <use x="728.125" xlink:href="#ArialMT-108"/>
      <use x="750.341797" xlink:href="#ArialMT-116"/>
     </g>
    </g>
   </g>
   <g id="matplotlib.axis_4">
    <g id="ytick_10">
     <g id="line2d_23">
      <path clip-path="url(#p2a76e53a84)" d="M 481.7125 502.261852 
L 839.196021 502.261852 
" style="fill:none;stroke:#cccccc;stroke-linecap:round;"/>
     </g>
    </g>
    <g id="ytick_11">
     <g id="line2d_24">
      <path clip-path="url(#p2a76e53a84)" d="M 481.7125 446.521734 
L 839.196021 446.521734 
" style="fill:none;stroke:#cccccc;stroke-linecap:round;"/>
     </g>
    </g>
    <g id="ytick_12">
     <g id="line2d_25">
      <path clip-path="url(#p2a76e53a84)" d="M 481.7125 390.781616 
L 839.196021 390.781616 
" style="fill:none;stroke:#cccccc;stroke-linecap:round;"/>
     </g>
    </g>
    <g id="ytick_13">
     <g id="line2d_26">
      <path clip-path="url(#p2a76e53a84)" d="M 481.7125 335.041498 
L 839.196021 335.041498 
" style="fill:none;stroke:#cccccc;stroke-linecap:round;"/>
     </g>
    </g>
    <g id="ytick_14">
     <g id="line2d_27">
      <path clip-path="url(#p2a76e53a84)" d="M 481.7125 279.30138 
L 839.196021 279.30138 
" style="fill:none;stroke:#cccccc;stroke-linecap:round;"/>
     </g>
    </g>
    <g id="ytick_15">
     <g id="line2d_28">
      <path clip-path="url(#p2a76e53a84)" d="M 481.7125 223.561263 
L 839.196021 223.561263 
" style="fill:none;stroke:#cccccc;stroke-linecap:round;"/>
     </g>
    </g>
    <g id="ytick_16">
     <g id="line2d_29">
      <path clip-path="url(#p2a76e53a84)" d="M 481.7125 167.821145 
L 839.196021 167.821145 
" style="fill:none;stroke:#cccccc;stroke-linecap:round;"/>
     </g>
    </g>
    <g id="ytick_17">
     <g id="line2d_30">
      <path clip-path="url(#p2a76e53a84)" d="M 481.7125 112.081027 
L 839.196021 112.081027 
" style="fill:none;stroke:#cccccc;stroke-linecap:round;"/>
     </g>
    </g>
    <g id="ytick_18">
     <g id="line2d_31">
      <path clip-path="url(#p2a76e53a84)" d="M 481.7125 56.340909 
L 839.196021 56.340909 
" style="fill:none;stroke:#cccccc;stroke-linecap:round;"/>
     </g>
    </g>
    <g id="text_27">
     <!-- Z-Score -->
     <g style="fill:#262626;" transform="translate(472.9425 314.42125)rotate(-90)scale(0.24 -0.24)">
      <use xlink:href="#ArialMT-90"/>
      <use x="61.083984" xlink:href="#ArialMT-45"/>
      <use x="94.384766" xlink:href="#ArialMT-83"/>
      <use x="161.083984" xlink:href="#ArialMT-99"/>
      <use x="211.083984" xlink:href="#ArialMT-111"/>
      <use x="266.699219" xlink:href="#ArialMT-114"/>
      <use x="300" xlink:href="#ArialMT-101"/>
     </g>
    </g>
   </g>
   <g id="PathCollection_5">
    <g clip-path="url(#p2a76e53a84)">
     <use style="fill:#1a1a1a;fill-opacity:0.5;stroke:#1a1a1a;stroke-opacity:0.5;" x="757.414396" xlink:href="#m6ef9e68c0c" y="205.3477"/>
     <use style="fill:#1a1a1a;fill-opacity:0.5;stroke:#1a1a1a;stroke-opacity:0.5;" x="731.02415" xlink:href="#m6ef9e68c0c" y="172.319793"/>
     <use style="fill:#1a1a1a;fill-opacity:0.5;stroke:#1a1a1a;stroke-opacity:0.5;" x="693.083391" xlink:href="#m6ef9e68c0c" y="235.323628"/>
     <use style="fill:#1a1a1a;fill-opacity:0.5;stroke:#1a1a1a;stroke-opacity:0.5;" x="759.575422" xlink:href="#m6ef9e68c0c" y="217.659149"/>
     <use style="fill:#1a1a1a;fill-opacity:0.5;stroke:#1a1a1a;stroke-opacity:0.5;" x="667.714982" xlink:href="#m6ef9e68c0c" y="195.905305"/>
     <use style="fill:#1a1a1a;fill-opacity:0.5;stroke:#1a1a1a;stroke-opacity:0.5;" x="659.885226" xlink:href="#m6ef9e68c0c" y="252.534561"/>
     <use style="fill:#1a1a1a;fill-opacity:0.5;stroke:#1a1a1a;stroke-opacity:0.5;" x="612.459277" xlink:href="#m6ef9e68c0c" y="281.192514"/>
     <use style="fill:#1a1a1a;fill-opacity:0.5;stroke:#1a1a1a;stroke-opacity:0.5;" x="699.40685" xlink:href="#m6ef9e68c0c" y="189.071206"/>
     <use style="fill:#1a1a1a;fill-opacity:0.5;stroke:#1a1a1a;stroke-opacity:0.5;" x="760.665368" xlink:href="#m6ef9e68c0c" y="196.195411"/>
     <use style="fill:#1a1a1a;fill-opacity:0.5;stroke:#1a1a1a;stroke-opacity:0.5;" x="670.346833" xlink:href="#m6ef9e68c0c" y="213.605313"/>
     <use style="fill:#1a1a1a;fill-opacity:0.5;stroke:#1a1a1a;stroke-opacity:0.5;" x="704.939878" xlink:href="#m6ef9e68c0c" y="287.120858"/>
     <use style="fill:#1a1a1a;fill-opacity:0.5;stroke:#1a1a1a;stroke-opacity:0.5;" x="635.919986" xlink:href="#m6ef9e68c0c" y="306.614054"/>
     <use style="fill:#1a1a1a;fill-opacity:0.5;stroke:#1a1a1a;stroke-opacity:0.5;" x="778.450099" xlink:href="#m6ef9e68c0c" y="173.890536"/>
     <use style="fill:#1a1a1a;fill-opacity:0.5;stroke:#1a1a1a;stroke-opacity:0.5;" x="665.81347" xlink:href="#m6ef9e68c0c" y="260.06051"/>
     <use style="fill:#1a1a1a;fill-opacity:0.5;stroke:#1a1a1a;stroke-opacity:0.5;" x="764.273864" xlink:href="#m6ef9e68c0c" y="174.30963"/>
     <use style="fill:#1a1a1a;fill-opacity:0.5;stroke:#1a1a1a;stroke-opacity:0.5;" x="625.377539" xlink:href="#m6ef9e68c0c" y="228.211257"/>
     <use style="fill:#1a1a1a;fill-opacity:0.5;stroke:#1a1a1a;stroke-opacity:0.5;" x="557.250876" xlink:href="#m6ef9e68c0c" y="298.308465"/>
     <use style="fill:#1a1a1a;fill-opacity:0.5;stroke:#1a1a1a;stroke-opacity:0.5;" x="800.212006" xlink:href="#m6ef9e68c0c" y="133.530216"/>
     <use style="fill:#1a1a1a;fill-opacity:0.5;stroke:#1a1a1a;stroke-opacity:0.5;" x="738.928475" xlink:href="#m6ef9e68c0c" y="228.295067"/>
     <use style="fill:#1a1a1a;fill-opacity:0.5;stroke:#1a1a1a;stroke-opacity:0.5;" x="666.335647" xlink:href="#m6ef9e68c0c" y="234.499946"/>
     <use style="fill:#1a1a1a;fill-opacity:0.5;stroke:#1a1a1a;stroke-opacity:0.5;" x="694.307286" xlink:href="#m6ef9e68c0c" y="227.872033"/>
     <use style="fill:#1a1a1a;fill-opacity:0.5;stroke:#1a1a1a;stroke-opacity:0.5;" x="675.693876" xlink:href="#m6ef9e68c0c" y="254.076864"/>
     <use style="fill:#1a1a1a;fill-opacity:0.5;stroke:#1a1a1a;stroke-opacity:0.5;" x="570.961572" xlink:href="#m6ef9e68c0c" y="301.420062"/>
     <use style="fill:#1a1a1a;fill-opacity:0.5;stroke:#1a1a1a;stroke-opacity:0.5;" x="699.40685" xlink:href="#m6ef9e68c0c" y="248.650539"/>
     <use style="fill:#1a1a1a;fill-opacity:0.5;stroke:#1a1a1a;stroke-opacity:0.5;" x="757.701246" xlink:href="#m6ef9e68c0c" y="145.551287"/>
     <use style="fill:#1a1a1a;fill-opacity:0.5;stroke:#1a1a1a;stroke-opacity:0.5;" x="799.791776" xlink:href="#m6ef9e68c0c" y="201.393531"/>
     <use style="fill:#1a1a1a;fill-opacity:0.5;stroke:#1a1a1a;stroke-opacity:0.5;" x="596.275605" xlink:href="#m6ef9e68c0c" y="245.025464"/>
     <use style="fill:#1a1a1a;fill-opacity:0.5;stroke:#1a1a1a;stroke-opacity:0.5;" x="653.956983" xlink:href="#m6ef9e68c0c" y="239.14243"/>
     <use style="fill:#1a1a1a;fill-opacity:0.5;stroke:#1a1a1a;stroke-opacity:0.5;" x="692.490566" xlink:href="#m6ef9e68c0c" y="241.201297"/>
     <use style="fill:#1a1a1a;fill-opacity:0.5;stroke:#1a1a1a;stroke-opacity:0.5;" x="796.23483" xlink:href="#m6ef9e68c0c" y="212.558286"/>
     <use style="fill:#1a1a1a;fill-opacity:0.5;stroke:#1a1a1a;stroke-opacity:0.5;" x="612.529434" xlink:href="#m6ef9e68c0c" y="257.938134"/>
     <use style="fill:#1a1a1a;fill-opacity:0.5;stroke:#1a1a1a;stroke-opacity:0.5;" x="565.033328" xlink:href="#m6ef9e68c0c" y="375.80729"/>
     <use style="fill:#1a1a1a;fill-opacity:0.5;stroke:#1a1a1a;stroke-opacity:0.5;" x="824.410639" xlink:href="#m6ef9e68c0c" y="165.457594"/>
     <use style="fill:#1a1a1a;fill-opacity:0.5;stroke:#1a1a1a;stroke-opacity:0.5;" x="561.081166" xlink:href="#m6ef9e68c0c" y="293.872735"/>
     <use style="fill:#1a1a1a;fill-opacity:0.5;stroke:#1a1a1a;stroke-opacity:0.5;" x="697.939891" xlink:href="#m6ef9e68c0c" y="186.130085"/>
     <use style="fill:#1a1a1a;fill-opacity:0.5;stroke:#1a1a1a;stroke-opacity:0.5;" x="695.454688" xlink:href="#m6ef9e68c0c" y="186.379926"/>
     <use style="fill:#1a1a1a;fill-opacity:0.5;stroke:#1a1a1a;stroke-opacity:0.5;" x="837.732535" xlink:href="#m6ef9e68c0c" y="128.584692"/>
     <use style="fill:#1a1a1a;fill-opacity:0.5;stroke:#1a1a1a;stroke-opacity:0.5;" x="563.128918" xlink:href="#m6ef9e68c0c" y="305.438581"/>
     <use style="fill:#1a1a1a;fill-opacity:0.5;stroke:#1a1a1a;stroke-opacity:0.5;" x="742.880637" xlink:href="#m6ef9e68c0c" y="209.067779"/>
     <use style="fill:#1a1a1a;fill-opacity:0.5;stroke:#1a1a1a;stroke-opacity:0.5;" x="690.548555" xlink:href="#m6ef9e68c0c" y="223.619151"/>
     <use style="fill:#1a1a1a;fill-opacity:0.5;stroke:#1a1a1a;stroke-opacity:0.5;" x="772.842301" xlink:href="#m6ef9e68c0c" y="166.242853"/>
     <use style="fill:#1a1a1a;fill-opacity:0.5;stroke:#1a1a1a;stroke-opacity:0.5;" x="778.450099" xlink:href="#m6ef9e68c0c" y="128.852536"/>
     <use style="fill:#1a1a1a;fill-opacity:0.5;stroke:#1a1a1a;stroke-opacity:0.5;" x="695.454688" xlink:href="#m6ef9e68c0c" y="302.952257"/>
     <use style="fill:#1a1a1a;fill-opacity:0.5;stroke:#1a1a1a;stroke-opacity:0.5;" x="643.561077" xlink:href="#m6ef9e68c0c" y="224.572222"/>
     <use style="fill:#1a1a1a;fill-opacity:0.5;stroke:#1a1a1a;stroke-opacity:0.5;" x="634.478468" xlink:href="#m6ef9e68c0c" y="221.42968"/>
     <use style="fill:#1a1a1a;fill-opacity:0.5;stroke:#1a1a1a;stroke-opacity:0.5;" x="648.028739" xlink:href="#m6ef9e68c0c" y="259.119513"/>
     <use style="fill:#1a1a1a;fill-opacity:0.5;stroke:#1a1a1a;stroke-opacity:0.5;" x="758.007879" xlink:href="#m6ef9e68c0c" y="182.001569"/>
     <use style="fill:#1a1a1a;fill-opacity:0.5;stroke:#1a1a1a;stroke-opacity:0.5;" x="825.876048" xlink:href="#m6ef9e68c0c" y="139.901605"/>
     <use style="fill:#1a1a1a;fill-opacity:0.5;stroke:#1a1a1a;stroke-opacity:0.5;" x="788.100728" xlink:href="#m6ef9e68c0c" y="118.466357"/>
     <use style="fill:#1a1a1a;fill-opacity:0.5;stroke:#1a1a1a;stroke-opacity:0.5;" x="576.470117" xlink:href="#m6ef9e68c0c" y="286.024689"/>
    </g>
   </g>
   <g id="patch_14">
    <path clip-path="url(#p2a76e53a84)" d="M 482.037918 335.041498 
L 839.196021 335.041498 
L 839.196021 112.081027 
L 482.037918 112.081027 
z
" style="fill:#55a868;opacity:0.05;stroke:#55a868;stroke-linejoin:miter;"/>
   </g>
   <g id="patch_15">
    <path clip-path="url(#p2a76e53a84)" d="M 482.037918 390.781616 
L 839.196021 390.781616 
L 839.196021 335.041498 
L 482.037918 335.041498 
z
" style="fill:#ffa500;opacity:0.05;stroke:#ffa500;stroke-linejoin:miter;"/>
   </g>
   <g id="patch_16">
    <path clip-path="url(#p2a76e53a84)" d="M 482.037918 112.081027 
L 839.196021 112.081027 
L 839.196021 56.340909 
L 482.037918 56.340909 
z
" style="fill:#ffa500;opacity:0.05;stroke:#ffa500;stroke-linejoin:miter;"/>
   </g>
   <g id="patch_17">
    <path clip-path="url(#p2a76e53a84)" d="M 482.037918 487.159091 
L 839.196021 487.159091 
L 839.196021 390.781616 
L 482.037918 390.781616 
z
" style="fill:#c44e52;opacity:0.05;stroke:#c44e52;stroke-linejoin:miter;"/>
   </g>
   <g id="patch_18">
    <path clip-path="url(#p2a76e53a84)" d="M 482.037918 56.340909 
L 839.196021 56.340909 
L 839.196021 69.672253 
L 482.037918 69.672253 
z
" style="fill:#c44e52;opacity:0.05;stroke:#c44e52;stroke-linejoin:miter;"/>
   </g>
   <g id="line2d_32">
    <path clip-path="url(#p2a76e53a84)" d="M 604.83725 487.159091 
L 604.83725 69.672253 
" style="fill:none;stroke:#ccb974;stroke-linecap:round;stroke-width:2;"/>
   </g>
   <g id="patch_19">
    <path d="M 481.7125 508.7 
L 481.7125 34.8 
" style="fill:none;stroke:#cccccc;stroke-linecap:square;stroke-linejoin:miter;stroke-width:1.25;"/>
   </g>
   <g id="patch_20">
    <path d="M 839.196021 508.7 
L 839.196021 34.8 
" style="fill:none;stroke:#cccccc;stroke-linecap:square;stroke-linejoin:miter;stroke-width:1.25;"/>
   </g>
   <g id="patch_21">
    <path d="M 481.7125 508.7 
L 839.196021 508.7 
" style="fill:none;stroke:#cccccc;stroke-linecap:square;stroke-linejoin:miter;stroke-width:1.25;"/>
   </g>
   <g id="patch_22">
    <path d="M 481.7125 34.8 
L 839.196021 34.8 
" style="fill:none;stroke:#cccccc;stroke-linecap:square;stroke-linejoin:miter;stroke-width:1.25;"/>
   </g>
   <g id="text_28">
    <!-- Test -->
    <g style="fill:#262626;" transform="translate(637.138635 28.8)scale(0.24 -0.24)">
     <use xlink:href="#ArialMT-84"/>
     <use x="60.912109" xlink:href="#ArialMT-101"/>
     <use x="116.527344" xlink:href="#ArialMT-115"/>
     <use x="166.527344" xlink:href="#ArialMT-116"/>
    </g>
   </g>
   <g id="legend_2">
    <g id="patch_23">
     <path d="M 497.1125 497.7 
L 719.130313 497.7 
Q 723.530313 497.7 723.530313 493.3 
L 723.530313 433.260625 
Q 723.530313 428.860625 719.130313 428.860625 
L 497.1125 428.860625 
Q 492.7125 428.860625 492.7125 433.260625 
L 492.7125 493.3 
Q 492.7125 497.7 497.1125 497.7 
z
" style="fill:#ffffff;opacity:0.8;stroke:#cccccc;stroke-linejoin:miter;"/>
    </g>
    <g id="line2d_33">
     <path d="M 501.5125 445.707812 
L 545.5125 445.707812 
" style="fill:none;stroke:#ccb974;stroke-linecap:round;stroke-width:2;"/>
    </g>
    <g id="line2d_34"/>
    <g id="text_29">
     <!-- Observed Data -->
     <g style="fill:#262626;" transform="translate(563.1125 453.407812)scale(0.22 -0.22)">
      <use xlink:href="#ArialMT-79"/>
      <use x="77.783203" xlink:href="#ArialMT-98"/>
      <use x="133.398438" xlink:href="#ArialMT-115"/>
      <use x="183.398438" xlink:href="#ArialMT-101"/>
      <use x="239.013672" xlink:href="#ArialMT-114"/>
      <use x="272.314453" xlink:href="#ArialMT-118"/>
      <use x="322.314453" xlink:href="#ArialMT-101"/>
      <use x="377.929688" xlink:href="#ArialMT-100"/>
      <use x="433.544922" xlink:href="#ArialMT-32"/>
      <use x="461.328125" xlink:href="#ArialMT-68"/>
      <use x="533.544922" xlink:href="#ArialMT-97"/>
      <use x="589.160156" xlink:href="#ArialMT-116"/>
      <use x="616.943359" xlink:href="#ArialMT-97"/>
     </g>
    </g>
    <g id="PathCollection_6">
     <g>
      <use style="fill:#1a1a1a;fill-opacity:0.5;stroke:#1a1a1a;stroke-opacity:0.5;" x="523.5125" xlink:href="#m6ef9e68c0c" y="478.7525"/>
     </g>
    </g>
    <g id="text_30">
     <!-- Not Implausible -->
     <g style="fill:#262626;" transform="translate(563.1125 484.5275)scale(0.22 -0.22)">
      <use xlink:href="#ArialMT-78"/>
      <use x="72.216797" xlink:href="#ArialMT-111"/>
      <use x="127.832031" xlink:href="#ArialMT-116"/>
      <use x="155.615234" xlink:href="#ArialMT-32"/>
      <use x="183.398438" xlink:href="#ArialMT-73"/>
      <use x="211.181641" xlink:href="#ArialMT-109"/>
      <use x="294.482422" xlink:href="#ArialMT-112"/>
      <use x="350.097656" xlink:href="#ArialMT-108"/>
      <use x="372.314453" xlink:href="#ArialMT-97"/>
      <use x="427.929688" xlink:href="#ArialMT-117"/>
      <use x="483.544922" xlink:href="#ArialMT-115"/>
      <use x="533.544922" xlink:href="#ArialMT-105"/>
      <use x="555.761719" xlink:href="#ArialMT-98"/>
      <use x="611.376953" xlink:href="#ArialMT-108"/>
      <use x="633.59375" xlink:href="#ArialMT-101"/>
     </g>
    </g>
   </g>
  </g>
 </g>
 <defs>
  <clipPath id="pe172dde38f">
   <rect height="473.9" width="357.483521" x="72.425" y="34.8"/>
  </clipPath>
  <clipPath id="p2a76e53a84">
   <rect height="473.9" width="357.483521" x="481.7125" y="34.8"/>
  </clipPath>
 </defs>
</svg>
