<?xml version="1.0" encoding="utf-8" standalone="no"?>
<!DOCTYPE svg PUBLIC "-//W3C//DTD SVG 1.1//EN"
  "http://www.w3.org/Graphics/SVG/1.1/DTD/svg11.dtd">
<!-- Created with matplotlib (https://matplotlib.org/) -->
<svg height="720pt" version="1.1" viewBox="0 0 1152 720" width="1152pt" xmlns="http://www.w3.org/2000/svg" xmlns:xlink="http://www.w3.org/1999/xlink">
 <defs>
  <style type="text/css">
*{stroke-linecap:butt;stroke-linejoin:round;}
  </style>
 </defs>
 <g id="figure_1">
  <g id="patch_1">
   <path d="M 0 720 
L 1152 720 
L 1152 0 
L 0 0 
z
" style="fill:#ffffff;"/>
  </g>
  <g id="axes_1">
   <g id="patch_2">
    <path d="M 144 630 
L 1036.8 630 
L 1036.8 86.4 
L 144 86.4 
z
" style="fill:#ffffff;"/>
   </g>
   <g id="matplotlib.axis_1">
    <g id="xtick_1">
     <g id="line2d_1">
      <path clip-path="url(#p168a425f32)" d="M 144 630 
L 144 86.4 
" style="fill:none;stroke:#cccccc;stroke-linecap:round;"/>
     </g>
     <g id="text_1">
      <!-- 0.0 -->
      <defs>
       <path d="M 4.15625 35.296875 
Q 4.15625 48 6.765625 55.734375 
Q 9.375 63.484375 14.515625 67.671875 
Q 19.671875 71.875 27.484375 71.875 
Q 33.25 71.875 37.59375 69.546875 
Q 41.9375 67.234375 44.765625 62.859375 
Q 47.609375 58.5 49.21875 52.21875 
Q 50.828125 45.953125 50.828125 35.296875 
Q 50.828125 22.703125 48.234375 14.96875 
Q 45.65625 7.234375 40.5 3 
Q 35.359375 -1.21875 27.484375 -1.21875 
Q 17.140625 -1.21875 11.234375 6.203125 
Q 4.15625 15.140625 4.15625 35.296875 
z
M 13.1875 35.296875 
Q 13.1875 17.671875 17.3125 11.828125 
Q 21.4375 6 27.484375 6 
Q 33.546875 6 37.671875 11.859375 
Q 41.796875 17.71875 41.796875 35.296875 
Q 41.796875 52.984375 37.671875 58.78125 
Q 33.546875 64.59375 27.390625 64.59375 
Q 21.34375 64.59375 17.71875 59.46875 
Q 13.1875 52.9375 13.1875 35.296875 
z
" id="ArialMT-48"/>
       <path d="M 9.078125 0 
L 9.078125 10.015625 
L 19.09375 10.015625 
L 19.09375 0 
z
" id="ArialMT-46"/>
      </defs>
      <g style="fill:#262626;" transform="translate(128.71 655.247187)scale(0.22 -0.22)">
       <use xlink:href="#ArialMT-48"/>
       <use x="55.615234" xlink:href="#ArialMT-46"/>
       <use x="83.398438" xlink:href="#ArialMT-48"/>
      </g>
     </g>
    </g>
    <g id="xtick_2">
     <g id="line2d_2">
      <path clip-path="url(#p168a425f32)" d="M 336.711608 630 
L 336.711608 86.4 
" style="fill:none;stroke:#cccccc;stroke-linecap:round;"/>
     </g>
     <g id="text_2">
      <!-- 0.2 -->
      <defs>
       <path d="M 50.34375 8.453125 
L 50.34375 0 
L 3.03125 0 
Q 2.9375 3.171875 4.046875 6.109375 
Q 5.859375 10.9375 9.828125 15.625 
Q 13.8125 20.3125 21.34375 26.46875 
Q 33.015625 36.03125 37.109375 41.625 
Q 41.21875 47.21875 41.21875 52.203125 
Q 41.21875 57.421875 37.46875 61 
Q 33.734375 64.59375 27.734375 64.59375 
Q 21.390625 64.59375 17.578125 60.78125 
Q 13.765625 56.984375 13.71875 50.25 
L 4.6875 51.171875 
Q 5.609375 61.28125 11.65625 66.578125 
Q 17.71875 71.875 27.9375 71.875 
Q 38.234375 71.875 44.234375 66.15625 
Q 50.25 60.453125 50.25 52 
Q 50.25 47.703125 48.484375 43.546875 
Q 46.734375 39.40625 42.65625 34.8125 
Q 38.578125 30.21875 29.109375 22.21875 
Q 21.1875 15.578125 18.9375 13.203125 
Q 16.703125 10.84375 15.234375 8.453125 
z
" id="ArialMT-50"/>
      </defs>
      <g style="fill:#262626;" transform="translate(321.421608 655.247187)scale(0.22 -0.22)">
       <use xlink:href="#ArialMT-48"/>
       <use x="55.615234" xlink:href="#ArialMT-46"/>
       <use x="83.398438" xlink:href="#ArialMT-50"/>
      </g>
     </g>
    </g>
    <g id="xtick_3">
     <g id="line2d_3">
      <path clip-path="url(#p168a425f32)" d="M 529.423217 630 
L 529.423217 86.4 
" style="fill:none;stroke:#cccccc;stroke-linecap:round;"/>
     </g>
     <g id="text_3">
      <!-- 0.4 -->
      <defs>
       <path d="M 32.328125 0 
L 32.328125 17.140625 
L 1.265625 17.140625 
L 1.265625 25.203125 
L 33.9375 71.578125 
L 41.109375 71.578125 
L 41.109375 25.203125 
L 50.78125 25.203125 
L 50.78125 17.140625 
L 41.109375 17.140625 
L 41.109375 0 
z
M 32.328125 25.203125 
L 32.328125 57.46875 
L 9.90625 25.203125 
z
" id="ArialMT-52"/>
      </defs>
      <g style="fill:#262626;" transform="translate(514.133217 655.247187)scale(0.22 -0.22)">
       <use xlink:href="#ArialMT-48"/>
       <use x="55.615234" xlink:href="#ArialMT-46"/>
       <use x="83.398438" xlink:href="#ArialMT-52"/>
      </g>
     </g>
    </g>
    <g id="xtick_4">
     <g id="line2d_4">
      <path clip-path="url(#p168a425f32)" d="M 722.134825 630 
L 722.134825 86.4 
" style="fill:none;stroke:#cccccc;stroke-linecap:round;"/>
     </g>
     <g id="text_4">
      <!-- 0.6 -->
      <defs>
       <path d="M 49.75 54.046875 
L 41.015625 53.375 
Q 39.84375 58.546875 37.703125 60.890625 
Q 34.125 64.65625 28.90625 64.65625 
Q 24.703125 64.65625 21.53125 62.3125 
Q 17.390625 59.28125 14.984375 53.46875 
Q 12.59375 47.65625 12.5 36.921875 
Q 15.671875 41.75 20.265625 44.09375 
Q 24.859375 46.4375 29.890625 46.4375 
Q 38.671875 46.4375 44.84375 39.96875 
Q 51.03125 33.5 51.03125 23.25 
Q 51.03125 16.5 48.125 10.71875 
Q 45.21875 4.9375 40.140625 1.859375 
Q 35.0625 -1.21875 28.609375 -1.21875 
Q 17.625 -1.21875 10.6875 6.859375 
Q 3.765625 14.9375 3.765625 33.5 
Q 3.765625 54.25 11.421875 63.671875 
Q 18.109375 71.875 29.4375 71.875 
Q 37.890625 71.875 43.28125 67.140625 
Q 48.6875 62.40625 49.75 54.046875 
z
M 13.875 23.1875 
Q 13.875 18.65625 15.796875 14.5 
Q 17.71875 10.359375 21.1875 8.171875 
Q 24.65625 6 28.46875 6 
Q 34.03125 6 38.03125 10.484375 
Q 42.046875 14.984375 42.046875 22.703125 
Q 42.046875 30.125 38.078125 34.390625 
Q 34.125 38.671875 28.125 38.671875 
Q 22.171875 38.671875 18.015625 34.390625 
Q 13.875 30.125 13.875 23.1875 
z
" id="ArialMT-54"/>
      </defs>
      <g style="fill:#262626;" transform="translate(706.844825 655.247187)scale(0.22 -0.22)">
       <use xlink:href="#ArialMT-48"/>
       <use x="55.615234" xlink:href="#ArialMT-46"/>
       <use x="83.398438" xlink:href="#ArialMT-54"/>
      </g>
     </g>
    </g>
    <g id="xtick_5">
     <g id="line2d_5">
      <path clip-path="url(#p168a425f32)" d="M 914.846434 630 
L 914.846434 86.4 
" style="fill:none;stroke:#cccccc;stroke-linecap:round;"/>
     </g>
     <g id="text_5">
      <!-- 0.8 -->
      <defs>
       <path d="M 17.671875 38.8125 
Q 12.203125 40.828125 9.5625 44.53125 
Q 6.9375 48.25 6.9375 53.421875 
Q 6.9375 61.234375 12.546875 66.546875 
Q 18.171875 71.875 27.484375 71.875 
Q 36.859375 71.875 42.578125 66.421875 
Q 48.296875 60.984375 48.296875 53.171875 
Q 48.296875 48.1875 45.671875 44.5 
Q 43.0625 40.828125 37.75 38.8125 
Q 44.34375 36.671875 47.78125 31.875 
Q 51.21875 27.09375 51.21875 20.453125 
Q 51.21875 11.28125 44.71875 5.03125 
Q 38.234375 -1.21875 27.640625 -1.21875 
Q 17.046875 -1.21875 10.546875 5.046875 
Q 4.046875 11.328125 4.046875 20.703125 
Q 4.046875 27.6875 7.59375 32.390625 
Q 11.140625 37.109375 17.671875 38.8125 
z
M 15.921875 53.71875 
Q 15.921875 48.640625 19.1875 45.40625 
Q 22.46875 42.1875 27.6875 42.1875 
Q 32.765625 42.1875 36.015625 45.375 
Q 39.265625 48.578125 39.265625 53.21875 
Q 39.265625 58.0625 35.90625 61.359375 
Q 32.5625 64.65625 27.59375 64.65625 
Q 22.5625 64.65625 19.234375 61.421875 
Q 15.921875 58.203125 15.921875 53.71875 
z
M 13.09375 20.65625 
Q 13.09375 16.890625 14.875 13.375 
Q 16.65625 9.859375 20.171875 7.921875 
Q 23.6875 6 27.734375 6 
Q 34.03125 6 38.125 10.046875 
Q 42.234375 14.109375 42.234375 20.359375 
Q 42.234375 26.703125 38.015625 30.859375 
Q 33.796875 35.015625 27.4375 35.015625 
Q 21.234375 35.015625 17.15625 30.90625 
Q 13.09375 26.8125 13.09375 20.65625 
z
" id="ArialMT-56"/>
      </defs>
      <g style="fill:#262626;" transform="translate(899.556434 655.247187)scale(0.22 -0.22)">
       <use xlink:href="#ArialMT-48"/>
       <use x="55.615234" xlink:href="#ArialMT-46"/>
       <use x="83.398438" xlink:href="#ArialMT-56"/>
      </g>
     </g>
    </g>
    <g id="text_6">
     <!-- Simulation Result -->
     <defs>
      <path d="M 4.5 23 
L 13.421875 23.78125 
Q 14.0625 18.40625 16.375 14.96875 
Q 18.703125 11.53125 23.578125 9.40625 
Q 28.46875 7.28125 34.578125 7.28125 
Q 39.984375 7.28125 44.140625 8.890625 
Q 48.296875 10.5 50.3125 13.296875 
Q 52.34375 16.109375 52.34375 19.4375 
Q 52.34375 22.796875 50.390625 25.3125 
Q 48.4375 27.828125 43.953125 29.546875 
Q 41.0625 30.671875 31.203125 33.03125 
Q 21.34375 35.40625 17.390625 37.5 
Q 12.25 40.1875 9.734375 44.15625 
Q 7.234375 48.140625 7.234375 53.078125 
Q 7.234375 58.5 10.296875 63.203125 
Q 13.375 67.921875 19.28125 70.359375 
Q 25.203125 72.796875 32.421875 72.796875 
Q 40.375 72.796875 46.453125 70.234375 
Q 52.546875 67.671875 55.8125 62.6875 
Q 59.078125 57.71875 59.328125 51.421875 
L 50.25 50.734375 
Q 49.515625 57.515625 45.28125 60.984375 
Q 41.0625 64.453125 32.8125 64.453125 
Q 24.21875 64.453125 20.28125 61.296875 
Q 16.359375 58.15625 16.359375 53.71875 
Q 16.359375 49.859375 19.140625 47.359375 
Q 21.875 44.875 33.421875 42.265625 
Q 44.96875 39.65625 49.265625 37.703125 
Q 55.515625 34.8125 58.484375 30.390625 
Q 61.46875 25.984375 61.46875 20.21875 
Q 61.46875 14.5 58.203125 9.4375 
Q 54.9375 4.390625 48.796875 1.578125 
Q 42.671875 -1.21875 35.015625 -1.21875 
Q 25.296875 -1.21875 18.71875 1.609375 
Q 12.15625 4.4375 8.421875 10.125 
Q 4.6875 15.828125 4.5 23 
z
" id="ArialMT-83"/>
      <path d="M 6.640625 61.46875 
L 6.640625 71.578125 
L 15.4375 71.578125 
L 15.4375 61.46875 
z
M 6.640625 0 
L 6.640625 51.859375 
L 15.4375 51.859375 
L 15.4375 0 
z
" id="ArialMT-105"/>
      <path d="M 6.59375 0 
L 6.59375 51.859375 
L 14.453125 51.859375 
L 14.453125 44.578125 
Q 16.890625 48.390625 20.9375 50.703125 
Q 25 53.03125 30.171875 53.03125 
Q 35.9375 53.03125 39.625 50.640625 
Q 43.3125 48.25 44.828125 43.953125 
Q 50.984375 53.03125 60.84375 53.03125 
Q 68.5625 53.03125 72.703125 48.75 
Q 76.859375 44.484375 76.859375 35.59375 
L 76.859375 0 
L 68.109375 0 
L 68.109375 32.671875 
Q 68.109375 37.9375 67.25 40.25 
Q 66.40625 42.578125 64.15625 43.984375 
Q 61.921875 45.40625 58.890625 45.40625 
Q 53.421875 45.40625 49.796875 41.765625 
Q 46.1875 38.140625 46.1875 30.125 
L 46.1875 0 
L 37.40625 0 
L 37.40625 33.6875 
Q 37.40625 39.546875 35.25 42.46875 
Q 33.109375 45.40625 28.21875 45.40625 
Q 24.515625 45.40625 21.359375 43.453125 
Q 18.21875 41.5 16.796875 37.734375 
Q 15.375 33.984375 15.375 26.90625 
L 15.375 0 
z
" id="ArialMT-109"/>
      <path d="M 40.578125 0 
L 40.578125 7.625 
Q 34.515625 -1.171875 24.125 -1.171875 
Q 19.53125 -1.171875 15.546875 0.578125 
Q 11.578125 2.34375 9.640625 5 
Q 7.71875 7.671875 6.9375 11.53125 
Q 6.390625 14.109375 6.390625 19.734375 
L 6.390625 51.859375 
L 15.1875 51.859375 
L 15.1875 23.09375 
Q 15.1875 16.21875 15.71875 13.8125 
Q 16.546875 10.359375 19.234375 8.375 
Q 21.921875 6.390625 25.875 6.390625 
Q 29.828125 6.390625 33.296875 8.421875 
Q 36.765625 10.453125 38.203125 13.9375 
Q 39.65625 17.4375 39.65625 24.078125 
L 39.65625 51.859375 
L 48.4375 51.859375 
L 48.4375 0 
z
" id="ArialMT-117"/>
      <path d="M 6.390625 0 
L 6.390625 71.578125 
L 15.1875 71.578125 
L 15.1875 0 
z
" id="ArialMT-108"/>
      <path d="M 40.4375 6.390625 
Q 35.546875 2.25 31.03125 0.53125 
Q 26.515625 -1.171875 21.34375 -1.171875 
Q 12.796875 -1.171875 8.203125 3 
Q 3.609375 7.171875 3.609375 13.671875 
Q 3.609375 17.484375 5.34375 20.625 
Q 7.078125 23.78125 9.890625 25.6875 
Q 12.703125 27.59375 16.21875 28.5625 
Q 18.796875 29.25 24.03125 29.890625 
Q 34.671875 31.15625 39.703125 32.90625 
Q 39.75 34.71875 39.75 35.203125 
Q 39.75 40.578125 37.25 42.78125 
Q 33.890625 45.75 27.25 45.75 
Q 21.046875 45.75 18.09375 43.578125 
Q 15.140625 41.40625 13.71875 35.890625 
L 5.125 37.0625 
Q 6.296875 42.578125 8.984375 45.96875 
Q 11.671875 49.359375 16.75 51.1875 
Q 21.828125 53.03125 28.515625 53.03125 
Q 35.15625 53.03125 39.296875 51.46875 
Q 43.453125 49.90625 45.40625 47.53125 
Q 47.359375 45.171875 48.140625 41.546875 
Q 48.578125 39.3125 48.578125 33.453125 
L 48.578125 21.734375 
Q 48.578125 9.46875 49.140625 6.21875 
Q 49.703125 2.984375 51.375 0 
L 42.1875 0 
Q 40.828125 2.734375 40.4375 6.390625 
z
M 39.703125 26.03125 
Q 34.90625 24.078125 25.34375 22.703125 
Q 19.921875 21.921875 17.671875 20.9375 
Q 15.4375 19.96875 14.203125 18.09375 
Q 12.984375 16.21875 12.984375 13.921875 
Q 12.984375 10.40625 15.640625 8.0625 
Q 18.3125 5.71875 23.4375 5.71875 
Q 28.515625 5.71875 32.46875 7.9375 
Q 36.421875 10.15625 38.28125 14.015625 
Q 39.703125 17 39.703125 22.796875 
z
" id="ArialMT-97"/>
      <path d="M 25.78125 7.859375 
L 27.046875 0.09375 
Q 23.34375 -0.6875 20.40625 -0.6875 
Q 15.625 -0.6875 12.984375 0.828125 
Q 10.359375 2.34375 9.28125 4.8125 
Q 8.203125 7.28125 8.203125 15.1875 
L 8.203125 45.015625 
L 1.765625 45.015625 
L 1.765625 51.859375 
L 8.203125 51.859375 
L 8.203125 64.703125 
L 16.9375 69.96875 
L 16.9375 51.859375 
L 25.78125 51.859375 
L 25.78125 45.015625 
L 16.9375 45.015625 
L 16.9375 14.703125 
Q 16.9375 10.9375 17.40625 9.859375 
Q 17.875 8.796875 18.921875 8.15625 
Q 19.96875 7.515625 21.921875 7.515625 
Q 23.390625 7.515625 25.78125 7.859375 
z
" id="ArialMT-116"/>
      <path d="M 3.328125 25.921875 
Q 3.328125 40.328125 11.328125 47.265625 
Q 18.015625 53.03125 27.640625 53.03125 
Q 38.328125 53.03125 45.109375 46.015625 
Q 51.90625 39.015625 51.90625 26.65625 
Q 51.90625 16.65625 48.90625 10.90625 
Q 45.90625 5.171875 40.15625 2 
Q 34.421875 -1.171875 27.640625 -1.171875 
Q 16.75 -1.171875 10.03125 5.8125 
Q 3.328125 12.796875 3.328125 25.921875 
z
M 12.359375 25.921875 
Q 12.359375 15.96875 16.703125 11.015625 
Q 21.046875 6.0625 27.640625 6.0625 
Q 34.1875 6.0625 38.53125 11.03125 
Q 42.875 16.015625 42.875 26.21875 
Q 42.875 35.84375 38.5 40.796875 
Q 34.125 45.75 27.640625 45.75 
Q 21.046875 45.75 16.703125 40.8125 
Q 12.359375 35.890625 12.359375 25.921875 
z
" id="ArialMT-111"/>
      <path d="M 6.59375 0 
L 6.59375 51.859375 
L 14.5 51.859375 
L 14.5 44.484375 
Q 20.21875 53.03125 31 53.03125 
Q 35.6875 53.03125 39.625 51.34375 
Q 43.5625 49.65625 45.515625 46.921875 
Q 47.46875 44.1875 48.25 40.4375 
Q 48.734375 37.984375 48.734375 31.890625 
L 48.734375 0 
L 39.9375 0 
L 39.9375 31.546875 
Q 39.9375 36.921875 38.90625 39.578125 
Q 37.890625 42.234375 35.28125 43.8125 
Q 32.671875 45.40625 29.15625 45.40625 
Q 23.53125 45.40625 19.453125 41.84375 
Q 15.375 38.28125 15.375 28.328125 
L 15.375 0 
z
" id="ArialMT-110"/>
      <path id="ArialMT-32"/>
      <path d="M 7.859375 0 
L 7.859375 71.578125 
L 39.59375 71.578125 
Q 49.171875 71.578125 54.140625 69.640625 
Q 59.125 67.71875 62.109375 62.828125 
Q 65.09375 57.953125 65.09375 52.046875 
Q 65.09375 44.4375 60.15625 39.203125 
Q 55.21875 33.984375 44.921875 32.5625 
Q 48.6875 30.765625 50.640625 29 
Q 54.78125 25.203125 58.5 19.484375 
L 70.953125 0 
L 59.03125 0 
L 49.5625 14.890625 
Q 45.40625 21.34375 42.71875 24.75 
Q 40.046875 28.171875 37.921875 29.53125 
Q 35.796875 30.90625 33.59375 31.453125 
Q 31.984375 31.78125 28.328125 31.78125 
L 17.328125 31.78125 
L 17.328125 0 
z
M 17.328125 39.984375 
L 37.703125 39.984375 
Q 44.1875 39.984375 47.84375 41.328125 
Q 51.515625 42.671875 53.421875 45.625 
Q 55.328125 48.578125 55.328125 52.046875 
Q 55.328125 57.125 51.640625 60.390625 
Q 47.953125 63.671875 39.984375 63.671875 
L 17.328125 63.671875 
z
" id="ArialMT-82"/>
      <path d="M 42.09375 16.703125 
L 51.171875 15.578125 
Q 49.03125 7.625 43.21875 3.21875 
Q 37.40625 -1.171875 28.375 -1.171875 
Q 17 -1.171875 10.328125 5.828125 
Q 3.65625 12.84375 3.65625 25.484375 
Q 3.65625 38.578125 10.390625 45.796875 
Q 17.140625 53.03125 27.875 53.03125 
Q 38.28125 53.03125 44.875 45.953125 
Q 51.46875 38.875 51.46875 26.03125 
Q 51.46875 25.25 51.421875 23.6875 
L 12.75 23.6875 
Q 13.234375 15.140625 17.578125 10.59375 
Q 21.921875 6.0625 28.421875 6.0625 
Q 33.25 6.0625 36.671875 8.59375 
Q 40.09375 11.140625 42.09375 16.703125 
z
M 13.234375 30.90625 
L 42.1875 30.90625 
Q 41.609375 37.453125 38.875 40.71875 
Q 34.671875 45.796875 27.984375 45.796875 
Q 21.921875 45.796875 17.796875 41.75 
Q 13.671875 37.703125 13.234375 30.90625 
z
" id="ArialMT-101"/>
      <path d="M 3.078125 15.484375 
L 11.765625 16.84375 
Q 12.5 11.625 15.84375 8.84375 
Q 19.1875 6.0625 25.203125 6.0625 
Q 31.25 6.0625 34.171875 8.515625 
Q 37.109375 10.984375 37.109375 14.3125 
Q 37.109375 17.28125 34.515625 19 
Q 32.71875 20.171875 25.53125 21.96875 
Q 15.875 24.421875 12.140625 26.203125 
Q 8.40625 27.984375 6.46875 31.125 
Q 4.546875 34.28125 4.546875 38.09375 
Q 4.546875 41.546875 6.125 44.5 
Q 7.71875 47.46875 10.453125 49.421875 
Q 12.5 50.921875 16.03125 51.96875 
Q 19.578125 53.03125 23.640625 53.03125 
Q 29.734375 53.03125 34.34375 51.265625 
Q 38.96875 49.515625 41.15625 46.5 
Q 43.359375 43.5 44.1875 38.484375 
L 35.59375 37.3125 
Q 35.015625 41.3125 32.203125 43.546875 
Q 29.390625 45.796875 24.265625 45.796875 
Q 18.21875 45.796875 15.625 43.796875 
Q 13.03125 41.796875 13.03125 39.109375 
Q 13.03125 37.40625 14.109375 36.03125 
Q 15.1875 34.625 17.484375 33.6875 
Q 18.796875 33.203125 25.25 31.453125 
Q 34.578125 28.953125 38.25 27.359375 
Q 41.9375 25.78125 44.03125 22.75 
Q 46.140625 19.734375 46.140625 15.234375 
Q 46.140625 10.84375 43.578125 6.953125 
Q 41.015625 3.078125 36.171875 0.953125 
Q 31.34375 -1.171875 25.25 -1.171875 
Q 15.140625 -1.171875 9.84375 3.03125 
Q 4.546875 7.234375 3.078125 15.484375 
z
" id="ArialMT-115"/>
     </defs>
     <g style="fill:#262626;" transform="translate(497.02875 680.798437)scale(0.24 -0.24)">
      <use xlink:href="#ArialMT-83"/>
      <use x="66.699219" xlink:href="#ArialMT-105"/>
      <use x="88.916016" xlink:href="#ArialMT-109"/>
      <use x="172.216797" xlink:href="#ArialMT-117"/>
      <use x="227.832031" xlink:href="#ArialMT-108"/>
      <use x="250.048828" xlink:href="#ArialMT-97"/>
      <use x="305.664062" xlink:href="#ArialMT-116"/>
      <use x="333.447266" xlink:href="#ArialMT-105"/>
      <use x="355.664062" xlink:href="#ArialMT-111"/>
      <use x="411.279297" xlink:href="#ArialMT-110"/>
      <use x="466.894531" xlink:href="#ArialMT-32"/>
      <use x="494.677734" xlink:href="#ArialMT-82"/>
      <use x="566.894531" xlink:href="#ArialMT-101"/>
      <use x="622.509766" xlink:href="#ArialMT-115"/>
      <use x="672.509766" xlink:href="#ArialMT-117"/>
      <use x="728.125" xlink:href="#ArialMT-108"/>
      <use x="750.341797" xlink:href="#ArialMT-116"/>
     </g>
    </g>
   </g>
   <g id="matplotlib.axis_2">
    <g id="ytick_1">
     <g id="line2d_6">
      <path clip-path="url(#p168a425f32)" d="M 144 584.107064 
L 1036.8 584.107064 
" style="fill:none;stroke:#cccccc;stroke-linecap:round;"/>
     </g>
     <g id="text_7">
      <!-- −0.25 -->
      <defs>
       <path d="M 52.828125 31.203125 
L 5.5625 31.203125 
L 5.5625 39.40625 
L 52.828125 39.40625 
z
" id="ArialMT-8722"/>
       <path d="M 4.15625 18.75 
L 13.375 19.53125 
Q 14.40625 12.796875 18.140625 9.390625 
Q 21.875 6 27.15625 6 
Q 33.5 6 37.890625 10.78125 
Q 42.28125 15.578125 42.28125 23.484375 
Q 42.28125 31 38.0625 35.34375 
Q 33.84375 39.703125 27 39.703125 
Q 22.75 39.703125 19.328125 37.765625 
Q 15.921875 35.84375 13.96875 32.765625 
L 5.71875 33.84375 
L 12.640625 70.609375 
L 48.25 70.609375 
L 48.25 62.203125 
L 19.671875 62.203125 
L 15.828125 42.96875 
Q 22.265625 47.46875 29.34375 47.46875 
Q 38.71875 47.46875 45.15625 40.96875 
Q 51.609375 34.46875 51.609375 24.265625 
Q 51.609375 14.546875 45.953125 7.46875 
Q 39.0625 -1.21875 27.15625 -1.21875 
Q 17.390625 -1.21875 11.203125 4.25 
Q 5.03125 9.71875 4.15625 18.75 
z
" id="ArialMT-53"/>
      </defs>
      <g style="fill:#262626;" transform="translate(78.836562 591.980658)scale(0.22 -0.22)">
       <use xlink:href="#ArialMT-8722"/>
       <use x="58.398438" xlink:href="#ArialMT-48"/>
       <use x="114.013672" xlink:href="#ArialMT-46"/>
       <use x="141.796875" xlink:href="#ArialMT-50"/>
       <use x="197.412109" xlink:href="#ArialMT-53"/>
      </g>
     </g>
    </g>
    <g id="ytick_2">
     <g id="line2d_7">
      <path clip-path="url(#p168a425f32)" d="M 144 515.205264 
L 1036.8 515.205264 
" style="fill:none;stroke:#cccccc;stroke-linecap:round;"/>
     </g>
     <g id="text_8">
      <!-- 0.00 -->
      <g style="fill:#262626;" transform="translate(91.685937 523.078858)scale(0.22 -0.22)">
       <use xlink:href="#ArialMT-48"/>
       <use x="55.615234" xlink:href="#ArialMT-46"/>
       <use x="83.398438" xlink:href="#ArialMT-48"/>
       <use x="139.013672" xlink:href="#ArialMT-48"/>
      </g>
     </g>
    </g>
    <g id="ytick_3">
     <g id="line2d_8">
      <path clip-path="url(#p168a425f32)" d="M 144 446.303465 
L 1036.8 446.303465 
" style="fill:none;stroke:#cccccc;stroke-linecap:round;"/>
     </g>
     <g id="text_9">
      <!-- 0.25 -->
      <g style="fill:#262626;" transform="translate(91.685937 454.177059)scale(0.22 -0.22)">
       <use xlink:href="#ArialMT-48"/>
       <use x="55.615234" xlink:href="#ArialMT-46"/>
       <use x="83.398438" xlink:href="#ArialMT-50"/>
       <use x="139.013672" xlink:href="#ArialMT-53"/>
      </g>
     </g>
    </g>
    <g id="ytick_4">
     <g id="line2d_9">
      <path clip-path="url(#p168a425f32)" d="M 144 377.401666 
L 1036.8 377.401666 
" style="fill:none;stroke:#cccccc;stroke-linecap:round;"/>
     </g>
     <g id="text_10">
      <!-- 0.50 -->
      <g style="fill:#262626;" transform="translate(91.685937 385.275259)scale(0.22 -0.22)">
       <use xlink:href="#ArialMT-48"/>
       <use x="55.615234" xlink:href="#ArialMT-46"/>
       <use x="83.398438" xlink:href="#ArialMT-53"/>
       <use x="139.013672" xlink:href="#ArialMT-48"/>
      </g>
     </g>
    </g>
    <g id="ytick_5">
     <g id="line2d_10">
      <path clip-path="url(#p168a425f32)" d="M 144 308.499866 
L 1036.8 308.499866 
" style="fill:none;stroke:#cccccc;stroke-linecap:round;"/>
     </g>
     <g id="text_11">
      <!-- 0.75 -->
      <defs>
       <path d="M 4.734375 62.203125 
L 4.734375 70.65625 
L 51.078125 70.65625 
L 51.078125 63.8125 
Q 44.234375 56.546875 37.515625 44.484375 
Q 30.8125 32.421875 27.15625 19.671875 
Q 24.515625 10.6875 23.78125 0 
L 14.75 0 
Q 14.890625 8.453125 18.0625 20.40625 
Q 21.234375 32.375 27.171875 43.484375 
Q 33.109375 54.59375 39.796875 62.203125 
z
" id="ArialMT-55"/>
      </defs>
      <g style="fill:#262626;" transform="translate(91.685937 316.37346)scale(0.22 -0.22)">
       <use xlink:href="#ArialMT-48"/>
       <use x="55.615234" xlink:href="#ArialMT-46"/>
       <use x="83.398438" xlink:href="#ArialMT-55"/>
       <use x="139.013672" xlink:href="#ArialMT-53"/>
      </g>
     </g>
    </g>
    <g id="ytick_6">
     <g id="line2d_11">
      <path clip-path="url(#p168a425f32)" d="M 144 239.598067 
L 1036.8 239.598067 
" style="fill:none;stroke:#cccccc;stroke-linecap:round;"/>
     </g>
     <g id="text_12">
      <!-- 1.00 -->
      <defs>
       <path d="M 37.25 0 
L 28.46875 0 
L 28.46875 56 
Q 25.296875 52.984375 20.140625 49.953125 
Q 14.984375 46.921875 10.890625 45.40625 
L 10.890625 53.90625 
Q 18.265625 57.375 23.78125 62.296875 
Q 29.296875 67.234375 31.59375 71.875 
L 37.25 71.875 
z
" id="ArialMT-49"/>
      </defs>
      <g style="fill:#262626;" transform="translate(91.685937 247.471661)scale(0.22 -0.22)">
       <use xlink:href="#ArialMT-49"/>
       <use x="55.615234" xlink:href="#ArialMT-46"/>
       <use x="83.398438" xlink:href="#ArialMT-48"/>
       <use x="139.013672" xlink:href="#ArialMT-48"/>
      </g>
     </g>
    </g>
    <g id="ytick_7">
     <g id="line2d_12">
      <path clip-path="url(#p168a425f32)" d="M 144 170.696268 
L 1036.8 170.696268 
" style="fill:none;stroke:#cccccc;stroke-linecap:round;"/>
     </g>
     <g id="text_13">
      <!-- 1.25 -->
      <g style="fill:#262626;" transform="translate(91.685937 178.569861)scale(0.22 -0.22)">
       <use xlink:href="#ArialMT-49"/>
       <use x="55.615234" xlink:href="#ArialMT-46"/>
       <use x="83.398438" xlink:href="#ArialMT-50"/>
       <use x="139.013672" xlink:href="#ArialMT-53"/>
      </g>
     </g>
    </g>
    <g id="ytick_8">
     <g id="line2d_13">
      <path clip-path="url(#p168a425f32)" d="M 144 101.794468 
L 1036.8 101.794468 
" style="fill:none;stroke:#cccccc;stroke-linecap:round;"/>
     </g>
     <g id="text_14">
      <!-- 1.50 -->
      <g style="fill:#262626;" transform="translate(91.685937 109.668062)scale(0.22 -0.22)">
       <use xlink:href="#ArialMT-49"/>
       <use x="55.615234" xlink:href="#ArialMT-46"/>
       <use x="83.398438" xlink:href="#ArialMT-53"/>
       <use x="139.013672" xlink:href="#ArialMT-48"/>
      </g>
     </g>
    </g>
    <g id="text_15">
     <!-- Predicted -->
     <defs>
      <path d="M 7.71875 0 
L 7.71875 71.578125 
L 34.71875 71.578125 
Q 41.84375 71.578125 45.609375 70.90625 
Q 50.875 70.015625 54.4375 67.546875 
Q 58.015625 65.09375 60.1875 60.640625 
Q 62.359375 56.203125 62.359375 50.875 
Q 62.359375 41.75 56.546875 35.421875 
Q 50.734375 29.109375 35.546875 29.109375 
L 17.1875 29.109375 
L 17.1875 0 
z
M 17.1875 37.546875 
L 35.6875 37.546875 
Q 44.875 37.546875 48.734375 40.96875 
Q 52.59375 44.390625 52.59375 50.59375 
Q 52.59375 55.078125 50.3125 58.265625 
Q 48.046875 61.46875 44.34375 62.5 
Q 41.9375 63.140625 35.5 63.140625 
L 17.1875 63.140625 
z
" id="ArialMT-80"/>
      <path d="M 6.5 0 
L 6.5 51.859375 
L 14.40625 51.859375 
L 14.40625 44 
Q 17.4375 49.515625 20 51.265625 
Q 22.5625 53.03125 25.640625 53.03125 
Q 30.078125 53.03125 34.671875 50.203125 
L 31.640625 42.046875 
Q 28.421875 43.953125 25.203125 43.953125 
Q 22.3125 43.953125 20.015625 42.21875 
Q 17.71875 40.484375 16.75 37.40625 
Q 15.28125 32.71875 15.28125 27.15625 
L 15.28125 0 
z
" id="ArialMT-114"/>
      <path d="M 40.234375 0 
L 40.234375 6.546875 
Q 35.296875 -1.171875 25.734375 -1.171875 
Q 19.53125 -1.171875 14.328125 2.25 
Q 9.125 5.671875 6.265625 11.796875 
Q 3.421875 17.921875 3.421875 25.875 
Q 3.421875 33.640625 6 39.96875 
Q 8.59375 46.296875 13.765625 49.65625 
Q 18.953125 53.03125 25.34375 53.03125 
Q 30.03125 53.03125 33.6875 51.046875 
Q 37.359375 49.078125 39.65625 45.90625 
L 39.65625 71.578125 
L 48.390625 71.578125 
L 48.390625 0 
z
M 12.453125 25.875 
Q 12.453125 15.921875 16.640625 10.984375 
Q 20.84375 6.0625 26.5625 6.0625 
Q 32.328125 6.0625 36.34375 10.765625 
Q 40.375 15.484375 40.375 25.140625 
Q 40.375 35.796875 36.265625 40.765625 
Q 32.171875 45.75 26.171875 45.75 
Q 20.3125 45.75 16.375 40.96875 
Q 12.453125 36.1875 12.453125 25.875 
z
" id="ArialMT-100"/>
      <path d="M 40.4375 19 
L 49.078125 17.875 
Q 47.65625 8.9375 41.8125 3.875 
Q 35.984375 -1.171875 27.484375 -1.171875 
Q 16.84375 -1.171875 10.375 5.78125 
Q 3.90625 12.75 3.90625 25.734375 
Q 3.90625 34.125 6.6875 40.421875 
Q 9.46875 46.734375 15.15625 49.875 
Q 20.84375 53.03125 27.546875 53.03125 
Q 35.984375 53.03125 41.359375 48.75 
Q 46.734375 44.484375 48.25 36.625 
L 39.703125 35.296875 
Q 38.484375 40.53125 35.375 43.15625 
Q 32.28125 45.796875 27.875 45.796875 
Q 21.234375 45.796875 17.078125 41.03125 
Q 12.9375 36.28125 12.9375 25.984375 
Q 12.9375 15.53125 16.9375 10.796875 
Q 20.953125 6.0625 27.390625 6.0625 
Q 32.5625 6.0625 36.03125 9.234375 
Q 39.5 12.40625 40.4375 19 
z
" id="ArialMT-99"/>
     </defs>
     <g style="fill:#262626;" transform="translate(70.066563 408.8925)rotate(-90)scale(0.24 -0.24)">
      <use xlink:href="#ArialMT-80"/>
      <use x="66.699219" xlink:href="#ArialMT-114"/>
      <use x="100" xlink:href="#ArialMT-101"/>
      <use x="155.615234" xlink:href="#ArialMT-100"/>
      <use x="211.230469" xlink:href="#ArialMT-105"/>
      <use x="233.447266" xlink:href="#ArialMT-99"/>
      <use x="283.447266" xlink:href="#ArialMT-116"/>
      <use x="311.230469" xlink:href="#ArialMT-101"/>
      <use x="366.845703" xlink:href="#ArialMT-100"/>
     </g>
    </g>
   </g>
   <g id="LineCollection_1">
    <path clip-path="url(#p168a425f32)" d="M 374.031386 519.18364 
L 374.031386 387.992836 
" style="fill:none;stroke:#64b5cd;stroke-width:0.5;"/>
    <path clip-path="url(#p168a425f32)" d="M 453.715085 498.541578 
L 453.715085 365.167136 
" style="fill:none;stroke:#64b5cd;stroke-width:0.5;"/>
    <path clip-path="url(#p168a425f32)" d="M 459.346268 489.353956 
L 459.346268 360.725621 
" style="fill:none;stroke:#64b5cd;stroke-width:0.5;"/>
    <path clip-path="url(#p168a425f32)" d="M 232.326154 528.24675 
L 232.326154 399.796194 
" style="fill:none;stroke:#64b5cd;stroke-width:0.5;"/>
    <path clip-path="url(#p168a425f32)" d="M 144 583.50343 
L 144 452.098658 
" style="fill:none;stroke:#64b5cd;stroke-width:0.5;"/>
    <path clip-path="url(#p168a425f32)" d="M 316.343715 532.818546 
L 316.343715 394.938907 
" style="fill:none;stroke:#64b5cd;stroke-width:0.5;"/>
    <path clip-path="url(#p168a425f32)" d="M 801.360709 424.139779 
L 801.360709 302.77143 
" style="fill:none;stroke:#64b5cd;stroke-width:0.5;"/>
    <path clip-path="url(#p168a425f32)" d="M 465.186014 506.715686 
L 465.186014 380.806919 
" style="fill:none;stroke:#64b5cd;stroke-width:0.5;"/>
    <path clip-path="url(#p168a425f32)" d="M 636.80011 444.040564 
L 636.80011 314.346237 
" style="fill:none;stroke:#64b5cd;stroke-width:0.5;"/>
    <path clip-path="url(#p168a425f32)" d="M 501.319441 505.345568 
L 501.319441 376.668713 
" style="fill:none;stroke:#64b5cd;stroke-width:0.5;"/>
    <path clip-path="url(#p168a425f32)" d="M 395.595711 501.30677 
L 395.595711 368.082456 
" style="fill:none;stroke:#64b5cd;stroke-width:0.5;"/>
    <path clip-path="url(#p168a425f32)" d="M 752.562974 399.832084 
L 752.562974 269.65115 
" style="fill:none;stroke:#64b5cd;stroke-width:0.5;"/>
    <path clip-path="url(#p168a425f32)" d="M 426.476299 515.803001 
L 426.476299 373.899162 
" style="fill:none;stroke:#64b5cd;stroke-width:0.5;"/>
    <path clip-path="url(#p168a425f32)" d="M 208.237203 574.816916 
L 208.237203 437.058161 
" style="fill:none;stroke:#64b5cd;stroke-width:0.5;"/>
    <path clip-path="url(#p168a425f32)" d="M 210.209398 551.520676 
L 210.209398 418.826197 
" style="fill:none;stroke:#64b5cd;stroke-width:0.5;"/>
    <path clip-path="url(#p168a425f32)" d="M 301.534093 503.185683 
L 301.534093 374.826167 
" style="fill:none;stroke:#64b5cd;stroke-width:0.5;"/>
    <path clip-path="url(#p168a425f32)" d="M 158.051888 568.88281 
L 158.051888 442.176653 
" style="fill:none;stroke:#64b5cd;stroke-width:0.5;"/>
    <path clip-path="url(#p168a425f32)" d="M 412.993287 523.570313 
L 412.993287 397.073551 
" style="fill:none;stroke:#64b5cd;stroke-width:0.5;"/>
    <path clip-path="url(#p168a425f32)" d="M 920.475467 409.211986 
L 920.475467 276.864284 
" style="fill:none;stroke:#64b5cd;stroke-width:0.5;"/>
    <path clip-path="url(#p168a425f32)" d="M 144 587.630528 
L 144 452.935904 
" style="fill:none;stroke:#64b5cd;stroke-width:0.5;"/>
    <path clip-path="url(#p168a425f32)" d="M 338.286908 509.529954 
L 338.286908 385.990648 
" style="fill:none;stroke:#64b5cd;stroke-width:0.5;"/>
    <path clip-path="url(#p168a425f32)" d="M 761.390894 422.025318 
L 761.390894 297.410503 
" style="fill:none;stroke:#64b5cd;stroke-width:0.5;"/>
    <path clip-path="url(#p168a425f32)" d="M 406.662881 502.793075 
L 406.662881 378.843752 
" style="fill:none;stroke:#64b5cd;stroke-width:0.5;"/>
    <path clip-path="url(#p168a425f32)" d="M 165.412401 572.685209 
L 165.412401 445.59254 
" style="fill:none;stroke:#64b5cd;stroke-width:0.5;"/>
    <path clip-path="url(#p168a425f32)" d="M 213.590303 564.41212 
L 213.590303 426.762298 
" style="fill:none;stroke:#64b5cd;stroke-width:0.5;"/>
    <path clip-path="url(#p168a425f32)" d="M 162.59498 557.266113 
L 162.59498 428.805715 
" style="fill:none;stroke:#64b5cd;stroke-width:0.5;"/>
    <path clip-path="url(#p168a425f32)" d="M 453.453192 510.274723 
L 453.453192 384.295822 
" style="fill:none;stroke:#64b5cd;stroke-width:0.5;"/>
    <path clip-path="url(#p168a425f32)" d="M 759.305791 414.058735 
L 759.305791 278.427685 
" style="fill:none;stroke:#64b5cd;stroke-width:0.5;"/>
    <path clip-path="url(#p168a425f32)" d="M 146.67655 544.780329 
L 146.67655 421.83286 
" style="fill:none;stroke:#64b5cd;stroke-width:0.5;"/>
    <path clip-path="url(#p168a425f32)" d="M 153.521325 569.693711 
L 153.521325 442.138791 
" style="fill:none;stroke:#64b5cd;stroke-width:0.5;"/>
    <path clip-path="url(#p168a425f32)" d="M 644.374001 412.534202 
L 644.374001 284.411337 
" style="fill:none;stroke:#64b5cd;stroke-width:0.5;"/>
    <path clip-path="url(#p168a425f32)" d="M 345.090374 521.756973 
L 345.090374 386.270808 
" style="fill:none;stroke:#64b5cd;stroke-width:0.5;"/>
    <path clip-path="url(#p168a425f32)" d="M 920.392091 373.322948 
L 920.392091 233.390755 
" style="fill:none;stroke:#64b5cd;stroke-width:0.5;"/>
    <path clip-path="url(#p168a425f32)" d="M 233.990614 544.788779 
L 233.990614 415.132108 
" style="fill:none;stroke:#64b5cd;stroke-width:0.5;"/>
    <path clip-path="url(#p168a425f32)" d="M 727.720669 431.519483 
L 727.720669 303.021879 
" style="fill:none;stroke:#64b5cd;stroke-width:0.5;"/>
    <path clip-path="url(#p168a425f32)" d="M 194.713581 561.17897 
L 194.713581 438.714224 
" style="fill:none;stroke:#64b5cd;stroke-width:0.5;"/>
    <path clip-path="url(#p168a425f32)" d="M 308.607832 526.20691 
L 308.607832 399.022304 
" style="fill:none;stroke:#64b5cd;stroke-width:0.5;"/>
    <path clip-path="url(#p168a425f32)" d="M 160.059301 569.812312 
L 160.059301 444.76675 
" style="fill:none;stroke:#64b5cd;stroke-width:0.5;"/>
    <path clip-path="url(#p168a425f32)" d="M 645.889579 429.470464 
L 645.889579 299.350288 
" style="fill:none;stroke:#64b5cd;stroke-width:0.5;"/>
    <path clip-path="url(#p168a425f32)" d="M 428.730459 495.25057 
L 428.730459 364.271159 
" style="fill:none;stroke:#64b5cd;stroke-width:0.5;"/>
    <path clip-path="url(#p168a425f32)" d="M 818.490629 442.911159 
L 818.490629 309.249235 
" style="fill:none;stroke:#64b5cd;stroke-width:0.5;"/>
    <path clip-path="url(#p168a425f32)" d="M 148.941323 577.382604 
L 148.941323 437.886003 
" style="fill:none;stroke:#64b5cd;stroke-width:0.5;"/>
    <path clip-path="url(#p168a425f32)" d="M 349.064917 538.898095 
L 349.064917 408.41524 
" style="fill:none;stroke:#64b5cd;stroke-width:0.5;"/>
    <path clip-path="url(#p168a425f32)" d="M 531.376375 502.902393 
L 531.376375 377.080212 
" style="fill:none;stroke:#64b5cd;stroke-width:0.5;"/>
    <path clip-path="url(#p168a425f32)" d="M 617.400255 482.377914 
L 617.400255 348.14012 
" style="fill:none;stroke:#64b5cd;stroke-width:0.5;"/>
    <path clip-path="url(#p168a425f32)" d="M 274.799734 533.089448 
L 274.799734 399.447157 
" style="fill:none;stroke:#64b5cd;stroke-width:0.5;"/>
    <path clip-path="url(#p168a425f32)" d="M 186.824802 556.107278 
L 186.824802 419.461968 
" style="fill:none;stroke:#64b5cd;stroke-width:0.5;"/>
    <path clip-path="url(#p168a425f32)" d="M 546.829427 494.888259 
L 546.829427 358.745315 
" style="fill:none;stroke:#64b5cd;stroke-width:0.5;"/>
    <path clip-path="url(#p168a425f32)" d="M 287.589042 541.816368 
L 287.589042 409.282845 
" style="fill:none;stroke:#64b5cd;stroke-width:0.5;"/>
    <path clip-path="url(#p168a425f32)" d="M 144 583.332816 
L 144 444.019311 
" style="fill:none;stroke:#64b5cd;stroke-width:0.5;"/>
    <path clip-path="url(#p168a425f32)" d="M 347.94965 522.962964 
L 347.94965 387.89693 
" style="fill:none;stroke:#64b5cd;stroke-width:0.5;"/>
    <path clip-path="url(#p168a425f32)" d="M 162.353487 574.48484 
L 162.353487 440.707346 
" style="fill:none;stroke:#64b5cd;stroke-width:0.5;"/>
    <path clip-path="url(#p168a425f32)" d="M 525.050506 447.20643 
L 525.050506 311.818891 
" style="fill:none;stroke:#64b5cd;stroke-width:0.5;"/>
    <path clip-path="url(#p168a425f32)" d="M 188.816653 566.693175 
L 188.816653 433.069922 
" style="fill:none;stroke:#64b5cd;stroke-width:0.5;"/>
    <path clip-path="url(#p168a425f32)" d="M 196.470982 520.360425 
L 196.470982 396.072224 
" style="fill:none;stroke:#64b5cd;stroke-width:0.5;"/>
    <path clip-path="url(#p168a425f32)" d="M 802.715564 404.889951 
L 802.715564 271.86534 
" style="fill:none;stroke:#64b5cd;stroke-width:0.5;"/>
    <path clip-path="url(#p168a425f32)" d="M 488.994208 468.09177 
L 488.994208 336.915494 
" style="fill:none;stroke:#64b5cd;stroke-width:0.5;"/>
    <path clip-path="url(#p168a425f32)" d="M 243.072303 535.822624 
L 243.072303 410.040974 
" style="fill:none;stroke:#64b5cd;stroke-width:0.5;"/>
    <path clip-path="url(#p168a425f32)" d="M 497.304615 456.35691 
L 497.304615 326.167891 
" style="fill:none;stroke:#64b5cd;stroke-width:0.5;"/>
    <path clip-path="url(#p168a425f32)" d="M 589.609425 460.451654 
L 589.609425 331.587972 
" style="fill:none;stroke:#64b5cd;stroke-width:0.5;"/>
    <path clip-path="url(#p168a425f32)" d="M 268.33007 534.301325 
L 268.33007 396.020502 
" style="fill:none;stroke:#64b5cd;stroke-width:0.5;"/>
    <path clip-path="url(#p168a425f32)" d="M 204.458544 543.506917 
L 204.458544 408.705372 
" style="fill:none;stroke:#64b5cd;stroke-width:0.5;"/>
    <path clip-path="url(#p168a425f32)" d="M 176.958726 563.889729 
L 176.958726 433.69492 
" style="fill:none;stroke:#64b5cd;stroke-width:0.5;"/>
    <path clip-path="url(#p168a425f32)" d="M 257.650436 556.122913 
L 257.650436 421.220473 
" style="fill:none;stroke:#64b5cd;stroke-width:0.5;"/>
    <path clip-path="url(#p168a425f32)" d="M 513.155354 450.981095 
L 513.155354 323.157557 
" style="fill:none;stroke:#64b5cd;stroke-width:0.5;"/>
    <path clip-path="url(#p168a425f32)" d="M 316.946315 522.265157 
L 316.946315 388.761282 
" style="fill:none;stroke:#64b5cd;stroke-width:0.5;"/>
    <path clip-path="url(#p168a425f32)" d="M 557.763159 438.084867 
L 557.763159 306.629866 
" style="fill:none;stroke:#64b5cd;stroke-width:0.5;"/>
    <path clip-path="url(#p168a425f32)" d="M 165.452127 581.404686 
L 165.452127 454.879828 
" style="fill:none;stroke:#64b5cd;stroke-width:0.5;"/>
    <path clip-path="url(#p168a425f32)" d="M 473.337943 484.031569 
L 473.337943 352.729071 
" style="fill:none;stroke:#64b5cd;stroke-width:0.5;"/>
    <path clip-path="url(#p168a425f32)" d="M 525.408392 464.558528 
L 525.408392 334.02816 
" style="fill:none;stroke:#64b5cd;stroke-width:0.5;"/>
    <path clip-path="url(#p168a425f32)" d="M 708.082937 438.040244 
L 708.082937 305.727701 
" style="fill:none;stroke:#64b5cd;stroke-width:0.5;"/>
    <path clip-path="url(#p168a425f32)" d="M 713.448325 441.496122 
L 713.448325 305.104019 
" style="fill:none;stroke:#64b5cd;stroke-width:0.5;"/>
    <path clip-path="url(#p168a425f32)" d="M 683.293726 440.809317 
L 683.293726 302.554661 
" style="fill:none;stroke:#64b5cd;stroke-width:0.5;"/>
    <path clip-path="url(#p168a425f32)" d="M 488.127872 524.338934 
L 488.127872 397.059839 
" style="fill:none;stroke:#64b5cd;stroke-width:0.5;"/>
    <path clip-path="url(#p168a425f32)" d="M 291.745566 491.582104 
L 291.745566 370.974039 
" style="fill:none;stroke:#64b5cd;stroke-width:0.5;"/>
    <path clip-path="url(#p168a425f32)" d="M 327.534865 513.824163 
L 327.534865 386.965759 
" style="fill:none;stroke:#64b5cd;stroke-width:0.5;"/>
    <path clip-path="url(#p168a425f32)" d="M 303.196546 507.496168 
L 303.196546 382.662605 
" style="fill:none;stroke:#64b5cd;stroke-width:0.5;"/>
    <path clip-path="url(#p168a425f32)" d="M 1002.280404 389.236817 
L 1002.280404 260.691311 
" style="fill:none;stroke:#64b5cd;stroke-width:0.5;"/>
    <path clip-path="url(#p168a425f32)" d="M 791.594565 416.160497 
L 791.594565 286.346494 
" style="fill:none;stroke:#64b5cd;stroke-width:0.5;"/>
    <path clip-path="url(#p168a425f32)" d="M 338.65819 525.316333 
L 338.65819 394.587051 
" style="fill:none;stroke:#64b5cd;stroke-width:0.5;"/>
    <path clip-path="url(#p168a425f32)" d="M 243.453537 549.060378 
L 243.453537 415.883424 
" style="fill:none;stroke:#64b5cd;stroke-width:0.5;"/>
    <path clip-path="url(#p168a425f32)" d="M 920.514422 379.061209 
L 920.514422 248.748254 
" style="fill:none;stroke:#64b5cd;stroke-width:0.5;"/>
    <path clip-path="url(#p168a425f32)" d="M 394.525091 523.717004 
L 394.525091 394.286136 
" style="fill:none;stroke:#64b5cd;stroke-width:0.5;"/>
    <path clip-path="url(#p168a425f32)" d="M 282.357052 545.323406 
L 282.357052 413.577626 
" style="fill:none;stroke:#64b5cd;stroke-width:0.5;"/>
    <path clip-path="url(#p168a425f32)" d="M 617.749371 445.103127 
L 617.749371 308.460397 
" style="fill:none;stroke:#64b5cd;stroke-width:0.5;"/>
    <path clip-path="url(#p168a425f32)" d="M 173.64794 551.430735 
L 173.64794 413.337643 
" style="fill:none;stroke:#64b5cd;stroke-width:0.5;"/>
    <path clip-path="url(#p168a425f32)" d="M 245.511968 530.564695 
L 245.511968 405.206959 
" style="fill:none;stroke:#64b5cd;stroke-width:0.5;"/>
    <path clip-path="url(#p168a425f32)" d="M 596.830925 493.357978 
L 596.830925 359.687428 
" style="fill:none;stroke:#64b5cd;stroke-width:0.5;"/>
    <path clip-path="url(#p168a425f32)" d="M 225.396456 535.454345 
L 225.396456 407.688384 
" style="fill:none;stroke:#64b5cd;stroke-width:0.5;"/>
    <path clip-path="url(#p168a425f32)" d="M 792.211774 470.204439 
L 792.211774 348.651614 
" style="fill:none;stroke:#64b5cd;stroke-width:0.5;"/>
    <path clip-path="url(#p168a425f32)" d="M 443.773613 506.07727 
L 443.773613 371.523355 
" style="fill:none;stroke:#64b5cd;stroke-width:0.5;"/>
    <path clip-path="url(#p168a425f32)" d="M 301.960335 539.92801 
L 301.960335 406.717745 
" style="fill:none;stroke:#64b5cd;stroke-width:0.5;"/>
    <path clip-path="url(#p168a425f32)" d="M 873.859263 426.856354 
L 873.859263 299.006026 
" style="fill:none;stroke:#64b5cd;stroke-width:0.5;"/>
    <path clip-path="url(#p168a425f32)" d="M 255.05945 555.046385 
L 255.05945 427.395995 
" style="fill:none;stroke:#64b5cd;stroke-width:0.5;"/>
    <path clip-path="url(#p168a425f32)" d="M 720.122171 412.970855 
L 720.122171 290.414599 
" style="fill:none;stroke:#64b5cd;stroke-width:0.5;"/>
    <path clip-path="url(#p168a425f32)" d="M 258.199472 570.038468 
L 258.199472 436.076972 
" style="fill:none;stroke:#64b5cd;stroke-width:0.5;"/>
    <path clip-path="url(#p168a425f32)" d="M 857.454179 386.931733 
L 857.454179 263.635769 
" style="fill:none;stroke:#64b5cd;stroke-width:0.5;"/>
    <path clip-path="url(#p168a425f32)" d="M 575.593706 444.097039 
L 575.593706 312.391631 
" style="fill:none;stroke:#64b5cd;stroke-width:0.5;"/>
    <path clip-path="url(#p168a425f32)" d="M 609.760793 482.510001 
L 609.760793 358.708838 
" style="fill:none;stroke:#64b5cd;stroke-width:0.5;"/>
    <path clip-path="url(#p168a425f32)" d="M 144 577.966008 
L 144 445.295785 
" style="fill:none;stroke:#64b5cd;stroke-width:0.5;"/>
    <path clip-path="url(#p168a425f32)" d="M 554.404351 457.771362 
L 554.404351 324.847728 
" style="fill:none;stroke:#64b5cd;stroke-width:0.5;"/>
    <path clip-path="url(#p168a425f32)" d="M 287.463086 507.582811 
L 287.463086 384.728981 
" style="fill:none;stroke:#64b5cd;stroke-width:0.5;"/>
    <path clip-path="url(#p168a425f32)" d="M 176.118601 557.330337 
L 176.118601 427.432483 
" style="fill:none;stroke:#64b5cd;stroke-width:0.5;"/>
    <path clip-path="url(#p168a425f32)" d="M 1014.583143 353.939882 
L 1014.583143 220.508912 
" style="fill:none;stroke:#64b5cd;stroke-width:0.5;"/>
    <path clip-path="url(#p168a425f32)" d="M 748.265213 459.058224 
L 748.265213 319.097809 
" style="fill:none;stroke:#64b5cd;stroke-width:0.5;"/>
    <path clip-path="url(#p168a425f32)" d="M 199.672242 572.67781 
L 199.672242 448.293977 
" style="fill:none;stroke:#64b5cd;stroke-width:0.5;"/>
    <path clip-path="url(#p168a425f32)" d="M 619.74169 397.701687 
L 619.74169 273.293876 
" style="fill:none;stroke:#64b5cd;stroke-width:0.5;"/>
    <path clip-path="url(#p168a425f32)" d="M 925.00896 308.676562 
L 925.00896 179.13439 
" style="fill:none;stroke:#64b5cd;stroke-width:0.5;"/>
    <path clip-path="url(#p168a425f32)" d="M 167.358983 508.522063 
L 167.358983 387.482948 
" style="fill:none;stroke:#64b5cd;stroke-width:0.5;"/>
    <path clip-path="url(#p168a425f32)" d="M 515.620181 474.551426 
L 515.620181 347.198313 
" style="fill:none;stroke:#64b5cd;stroke-width:0.5;"/>
    <path clip-path="url(#p168a425f32)" d="M 345.471227 487.84542 
L 345.471227 364.969825 
" style="fill:none;stroke:#64b5cd;stroke-width:0.5;"/>
    <path clip-path="url(#p168a425f32)" d="M 244.699713 548.273263 
L 244.699713 408.405517 
" style="fill:none;stroke:#64b5cd;stroke-width:0.5;"/>
    <path clip-path="url(#p168a425f32)" d="M 343.637818 496.988956 
L 343.637818 371.89861 
" style="fill:none;stroke:#64b5cd;stroke-width:0.5;"/>
    <path clip-path="url(#p168a425f32)" d="M 183.734352 569.24054 
L 183.734352 437.287144 
" style="fill:none;stroke:#64b5cd;stroke-width:0.5;"/>
    <path clip-path="url(#p168a425f32)" d="M 206.095963 564.914462 
L 206.095963 436.555098 
" style="fill:none;stroke:#64b5cd;stroke-width:0.5;"/>
    <path clip-path="url(#p168a425f32)" d="M 187.170163 535.907877 
L 187.170163 410.271118 
" style="fill:none;stroke:#64b5cd;stroke-width:0.5;"/>
    <path clip-path="url(#p168a425f32)" d="M 280.031724 553.851263 
L 280.031724 422.524979 
" style="fill:none;stroke:#64b5cd;stroke-width:0.5;"/>
    <path clip-path="url(#p168a425f32)" d="M 675.964336 364.245081 
L 675.964336 229.947034 
" style="fill:none;stroke:#64b5cd;stroke-width:0.5;"/>
    <path clip-path="url(#p168a425f32)" d="M 634.343981 449.928891 
L 634.343981 327.718005 
" style="fill:none;stroke:#64b5cd;stroke-width:0.5;"/>
    <path clip-path="url(#p168a425f32)" d="M 236.577145 565.134356 
L 236.577145 436.981555 
" style="fill:none;stroke:#64b5cd;stroke-width:0.5;"/>
    <path clip-path="url(#p168a425f32)" d="M 541.658874 487.280625 
L 541.658874 360.984167 
" style="fill:none;stroke:#64b5cd;stroke-width:0.5;"/>
    <path clip-path="url(#p168a425f32)" d="M 702.369532 433.787964 
L 702.369532 298.117208 
" style="fill:none;stroke:#64b5cd;stroke-width:0.5;"/>
    <path clip-path="url(#p168a425f32)" d="M 691.00801 439.018264 
L 691.00801 316.73085 
" style="fill:none;stroke:#64b5cd;stroke-width:0.5;"/>
    <path clip-path="url(#p168a425f32)" d="M 197.531002 563.66039 
L 197.531002 427.614103 
" style="fill:none;stroke:#64b5cd;stroke-width:0.5;"/>
    <path clip-path="url(#p168a425f32)" d="M 656.199723 422.275438 
L 656.199723 291.378629 
" style="fill:none;stroke:#64b5cd;stroke-width:0.5;"/>
    <path clip-path="url(#p168a425f32)" d="M 226.590689 541.987726 
L 226.590689 415.235385 
" style="fill:none;stroke:#64b5cd;stroke-width:0.5;"/>
    <path clip-path="url(#p168a425f32)" d="M 144 583.168653 
L 144 443.711988 
" style="fill:none;stroke:#64b5cd;stroke-width:0.5;"/>
    <path clip-path="url(#p168a425f32)" d="M 919.434805 351.116402 
L 919.434805 225.948618 
" style="fill:none;stroke:#64b5cd;stroke-width:0.5;"/>
    <path clip-path="url(#p168a425f32)" d="M 240.545108 560.141847 
L 240.545108 430.64922 
" style="fill:none;stroke:#64b5cd;stroke-width:0.5;"/>
    <path clip-path="url(#p168a425f32)" d="M 144 573.268023 
L 144 439.17493 
" style="fill:none;stroke:#64b5cd;stroke-width:0.5;"/>
    <path clip-path="url(#p168a425f32)" d="M 1021.908438 353.980007 
L 1021.908438 224.975712 
" style="fill:none;stroke:#64b5cd;stroke-width:0.5;"/>
    <path clip-path="url(#p168a425f32)" d="M 749.873617 411.476423 
L 749.873617 280.97178 
" style="fill:none;stroke:#64b5cd;stroke-width:0.5;"/>
    <path clip-path="url(#p168a425f32)" d="M 305.119541 537.290517 
L 305.119541 412.975761 
" style="fill:none;stroke:#64b5cd;stroke-width:0.5;"/>
    <path clip-path="url(#p168a425f32)" d="M 786.372028 350.501373 
L 786.372028 225.184292 
" style="fill:none;stroke:#64b5cd;stroke-width:0.5;"/>
    <path clip-path="url(#p168a425f32)" d="M 260.626622 556.389462 
L 260.626622 418.000452 
" style="fill:none;stroke:#64b5cd;stroke-width:0.5;"/>
    <path clip-path="url(#p168a425f32)" d="M 144 579.239841 
L 144 451.466835 
" style="fill:none;stroke:#64b5cd;stroke-width:0.5;"/>
    <path clip-path="url(#p168a425f32)" d="M 144 577.465195 
L 144 446.395276 
" style="fill:none;stroke:#64b5cd;stroke-width:0.5;"/>
    <path clip-path="url(#p168a425f32)" d="M 336.711608 515.017259 
L 336.711608 385.774763 
" style="fill:none;stroke:#64b5cd;stroke-width:0.5;"/>
    <path clip-path="url(#p168a425f32)" d="M 171.177278 560.79833 
L 171.177278 434.479415 
" style="fill:none;stroke:#64b5cd;stroke-width:0.5;"/>
    <path clip-path="url(#p168a425f32)" d="M 217.68385 541.420919 
L 217.68385 412.412225 
" style="fill:none;stroke:#64b5cd;stroke-width:0.5;"/>
    <path clip-path="url(#p168a425f32)" d="M 186.824802 573.236291 
L 186.824802 442.159787 
" style="fill:none;stroke:#64b5cd;stroke-width:0.5;"/>
    <path clip-path="url(#p168a425f32)" d="M 426.937109 518.074299 
L 426.937109 389.586804 
" style="fill:none;stroke:#64b5cd;stroke-width:0.5;"/>
    <path clip-path="url(#p168a425f32)" d="M 368.83021 534.573926 
L 368.83021 392.370152 
" style="fill:none;stroke:#64b5cd;stroke-width:0.5;"/>
    <path clip-path="url(#p168a425f32)" d="M 501.319441 476.848354 
L 501.319441 346.959962 
" style="fill:none;stroke:#64b5cd;stroke-width:0.5;"/>
    <path clip-path="url(#p168a425f32)" d="M 400.73216 478.010954 
L 400.73216 349.928723 
" style="fill:none;stroke:#64b5cd;stroke-width:0.5;"/>
    <path clip-path="url(#p168a425f32)" d="M 365.61835 522.000265 
L 365.61835 394.743088 
" style="fill:none;stroke:#64b5cd;stroke-width:0.5;"/>
    <path clip-path="url(#p168a425f32)" d="M 940.386526 337.580162 
L 940.386526 208.954604 
" style="fill:none;stroke:#64b5cd;stroke-width:0.5;"/>
    <path clip-path="url(#p168a425f32)" d="M 222.028241 551.446876 
L 222.028241 424.434916 
" style="fill:none;stroke:#64b5cd;stroke-width:0.5;"/>
    <path clip-path="url(#p168a425f32)" d="M 710.286372 471.111099 
L 710.286372 342.037528 
" style="fill:none;stroke:#64b5cd;stroke-width:0.5;"/>
    <path clip-path="url(#p168a425f32)" d="M 174.111189 573.783574 
L 174.111189 437.611603 
" style="fill:none;stroke:#64b5cd;stroke-width:0.5;"/>
   </g>
   <g id="LineCollection_2">
    <path clip-path="url(#p168a425f32)" d="M 431.230474 452.443158 
L 431.230474 319.689171 
" style="fill:none;stroke:#8172b3;stroke-width:0.5;"/>
    <path clip-path="url(#p168a425f32)" d="M 325.233488 550.638885 
L 325.233488 417.179873 
" style="fill:none;stroke:#8172b3;stroke-width:0.5;"/>
    <path clip-path="url(#p168a425f32)" d="M 144 598.173466 
L 144 432.535906 
" style="fill:none;stroke:#8172b3;stroke-width:0.5;"/>
    <path clip-path="url(#p168a425f32)" d="M 656.226022 498.010207 
L 656.226022 364.651923 
" style="fill:none;stroke:#8172b3;stroke-width:0.5;"/>
    <path clip-path="url(#p168a425f32)" d="M 697.607893 349.73645 
L 697.607893 205.016038 
" style="fill:none;stroke:#8172b3;stroke-width:0.5;"/>
    <path clip-path="url(#p168a425f32)" d="M 144 577.612508 
L 144 432.533471 
" style="fill:none;stroke:#8172b3;stroke-width:0.5;"/>
    <path clip-path="url(#p168a425f32)" d="M 217.413946 605.290909 
L 217.413946 431.773855 
" style="fill:none;stroke:#8172b3;stroke-width:0.5;"/>
    <path clip-path="url(#p168a425f32)" d="M 724.605487 438.497324 
L 724.605487 279.470201 
" style="fill:none;stroke:#8172b3;stroke-width:0.5;"/>
    <path clip-path="url(#p168a425f32)" d="M 494.798909 465.275802 
L 494.798909 341.712776 
" style="fill:none;stroke:#8172b3;stroke-width:0.5;"/>
    <path clip-path="url(#p168a425f32)" d="M 726.14965 449.918795 
L 726.14965 313.459274 
" style="fill:none;stroke:#8172b3;stroke-width:0.5;"/>
    <path clip-path="url(#p168a425f32)" d="M 148.014825 579.835084 
L 148.014825 447.24716 
" style="fill:none;stroke:#8172b3;stroke-width:0.5;"/>
    <path clip-path="url(#p168a425f32)" d="M 585.065301 472.795809 
L 585.065301 327.112395 
" style="fill:none;stroke:#8172b3;stroke-width:0.5;"/>
    <path clip-path="url(#p168a425f32)" d="M 255.47044 534.304997 
L 255.47044 407.468461 
" style="fill:none;stroke:#8172b3;stroke-width:0.5;"/>
    <path clip-path="url(#p168a425f32)" d="M 516.841726 517.062978 
L 516.841726 357.945262 
" style="fill:none;stroke:#8172b3;stroke-width:0.5;"/>
    <path clip-path="url(#p168a425f32)" d="M 254.619956 553.503044 
L 254.619956 406.510379 
" style="fill:none;stroke:#8172b3;stroke-width:0.5;"/>
    <path clip-path="url(#p168a425f32)" d="M 176.118601 602.908351 
L 176.118601 459.635438 
" style="fill:none;stroke:#8172b3;stroke-width:0.5;"/>
    <path clip-path="url(#p168a425f32)" d="M 611.854772 445.135025 
L 611.854772 312.570111 
" style="fill:none;stroke:#8172b3;stroke-width:0.5;"/>
    <path clip-path="url(#p168a425f32)" d="M 194.854452 552.668435 
L 194.854452 426.443406 
" style="fill:none;stroke:#8172b3;stroke-width:0.5;"/>
    <path clip-path="url(#p168a425f32)" d="M 202.884103 569.10122 
L 202.884103 393.212546 
" style="fill:none;stroke:#8172b3;stroke-width:0.5;"/>
    <path clip-path="url(#p168a425f32)" d="M 712.097762 464.549798 
L 712.097762 333.424927 
" style="fill:none;stroke:#8172b3;stroke-width:0.5;"/>
    <path clip-path="url(#p168a425f32)" d="M 185.069687 499.408875 
L 185.069687 374.442434 
" style="fill:none;stroke:#8172b3;stroke-width:0.5;"/>
    <path clip-path="url(#p168a425f32)" d="M 292.011988 532.628277 
L 292.011988 406.133582 
" style="fill:none;stroke:#8172b3;stroke-width:0.5;"/>
    <path clip-path="url(#p168a425f32)" d="M 145.603258 562.101277 
L 145.603258 431.047776 
" style="fill:none;stroke:#8172b3;stroke-width:0.5;"/>
    <path clip-path="url(#p168a425f32)" d="M 439.08965 551.738865 
L 439.08965 404.346402 
" style="fill:none;stroke:#8172b3;stroke-width:0.5;"/>
    <path clip-path="url(#p168a425f32)" d="M 406.975329 552.338178 
L 406.975329 386.353986 
" style="fill:none;stroke:#8172b3;stroke-width:0.5;"/>
    <path clip-path="url(#p168a425f32)" d="M 165.899046 577.880691 
L 165.899046 440.557086 
" style="fill:none;stroke:#8172b3;stroke-width:0.5;"/>
    <path clip-path="url(#p168a425f32)" d="M 174.111189 564.153433 
L 174.111189 401.275332 
" style="fill:none;stroke:#8172b3;stroke-width:0.5;"/>
    <path clip-path="url(#p168a425f32)" d="M 1026.316874 320.066323 
L 1026.316874 178.404614 
" style="fill:none;stroke:#8172b3;stroke-width:0.5;"/>
    <path clip-path="url(#p168a425f32)" d="M 1017.041983 416.642425 
L 1017.041983 273.497618 
" style="fill:none;stroke:#8172b3;stroke-width:0.5;"/>
    <path clip-path="url(#p168a425f32)" d="M 1008.525688 469.877705 
L 1008.525688 337.957507 
" style="fill:none;stroke:#8172b3;stroke-width:0.5;"/>
    <path clip-path="url(#p168a425f32)" d="M 348.47598 570.678834 
L 348.47598 430.682703 
" style="fill:none;stroke:#8172b3;stroke-width:0.5;"/>
    <path clip-path="url(#p168a425f32)" d="M 368.83021 583.497437 
L 368.83021 437.608842 
" style="fill:none;stroke:#8172b3;stroke-width:0.5;"/>
    <path clip-path="url(#p168a425f32)" d="M 570.189134 430.87093 
L 570.189134 295.403253 
" style="fill:none;stroke:#8172b3;stroke-width:0.5;"/>
    <path clip-path="url(#p168a425f32)" d="M 331.250146 516.235699 
L 331.250146 386.957445 
" style="fill:none;stroke:#8172b3;stroke-width:0.5;"/>
    <path clip-path="url(#p168a425f32)" d="M 498.886474 472.001749 
L 498.886474 336.35025 
" style="fill:none;stroke:#8172b3;stroke-width:0.5;"/>
    <path clip-path="url(#p168a425f32)" d="M 171.741594 580.401347 
L 171.741594 434.425466 
" style="fill:none;stroke:#8172b3;stroke-width:0.5;"/>
    <path clip-path="url(#p168a425f32)" d="M 690.016224 425.955302 
L 690.016224 298.823683 
" style="fill:none;stroke:#8172b3;stroke-width:0.5;"/>
    <path clip-path="url(#p168a425f32)" d="M 315.451609 496.548769 
L 315.451609 373.550296 
" style="fill:none;stroke:#8172b3;stroke-width:0.5;"/>
    <path clip-path="url(#p168a425f32)" d="M 231.411384 547.552223 
L 231.411384 404.373784 
" style="fill:none;stroke:#8172b3;stroke-width:0.5;"/>
    <path clip-path="url(#p168a425f32)" d="M 294.436927 528.325036 
L 294.436927 396.88212 
" style="fill:none;stroke:#8172b3;stroke-width:0.5;"/>
    <path clip-path="url(#p168a425f32)" d="M 727.076148 438.477362 
L 727.076148 300.746213 
" style="fill:none;stroke:#8172b3;stroke-width:0.5;"/>
    <path clip-path="url(#p168a425f32)" d="M 170.765501 565.605178 
L 170.765501 429.37064 
" style="fill:none;stroke:#8172b3;stroke-width:0.5;"/>
    <path clip-path="url(#p168a425f32)" d="M 924.346302 329.812265 
L 924.346302 195.47498 
" style="fill:none;stroke:#8172b3;stroke-width:0.5;"/>
    <path clip-path="url(#p168a425f32)" d="M 233.218337 492.774807 
L 233.218337 353.794587 
" style="fill:none;stroke:#8172b3;stroke-width:0.5;"/>
    <path clip-path="url(#p168a425f32)" d="M 144 566.057738 
L 144 417.608956 
" style="fill:none;stroke:#8172b3;stroke-width:0.5;"/>
    <path clip-path="url(#p168a425f32)" d="M 500.737138 538.315721 
L 500.737138 359.887014 
" style="fill:none;stroke:#8172b3;stroke-width:0.5;"/>
    <path clip-path="url(#p168a425f32)" d="M 348.222321 563.82107 
L 348.222321 421.048313 
" style="fill:none;stroke:#8172b3;stroke-width:0.5;"/>
    <path clip-path="url(#p168a425f32)" d="M 1036.8 257.200749 
L 1036.8 111.109091 
" style="fill:none;stroke:#8172b3;stroke-width:0.5;"/>
    <path clip-path="url(#p168a425f32)" d="M 433.067413 475.847185 
L 433.067413 344.329287 
" style="fill:none;stroke:#8172b3;stroke-width:0.5;"/>
    <path clip-path="url(#p168a425f32)" d="M 876.888086 402.793229 
L 876.888086 269.832436 
" style="fill:none;stroke:#8172b3;stroke-width:0.5;"/>
   </g>
   <g id="line2d_14">
    <path clip-path="url(#p168a425f32)" d="M 144 515.205264 
L 1036.8 259.83704 
" style="fill:none;stroke:#c44e52;stroke-linecap:round;stroke-width:1.5;"/>
   </g>
   <g id="line2d_15">
    <defs>
     <path d="M 0 3 
C 0.795609 3 1.55874 2.683901 2.12132 2.12132 
C 2.683901 1.55874 3 0.795609 3 0 
C 3 -0.795609 2.683901 -1.55874 2.12132 -2.12132 
C 1.55874 -2.683901 0.795609 -3 0 -3 
C -0.795609 -3 -1.55874 -2.683901 -2.12132 -2.12132 
C -2.683901 -1.55874 -3 -0.795609 -3 0 
C -3 0.795609 -2.683901 1.55874 -2.12132 2.12132 
C -1.55874 2.683901 -0.795609 3 0 3 
z
" id="me60fd0f3e3" style="stroke:#64b5cd;"/>
    </defs>
    <g clip-path="url(#p168a425f32)">
     <use style="fill:#64b5cd;stroke:#64b5cd;" x="374.031386" xlink:href="#me60fd0f3e3" y="453.588238"/>
     <use style="fill:#64b5cd;stroke:#64b5cd;" x="453.715085" xlink:href="#me60fd0f3e3" y="431.854357"/>
     <use style="fill:#64b5cd;stroke:#64b5cd;" x="459.346268" xlink:href="#me60fd0f3e3" y="425.039788"/>
     <use style="fill:#64b5cd;stroke:#64b5cd;" x="232.326154" xlink:href="#me60fd0f3e3" y="464.021472"/>
     <use style="fill:#64b5cd;stroke:#64b5cd;" x="144" xlink:href="#me60fd0f3e3" y="517.801044"/>
     <use style="fill:#64b5cd;stroke:#64b5cd;" x="316.343715" xlink:href="#me60fd0f3e3" y="463.878726"/>
     <use style="fill:#64b5cd;stroke:#64b5cd;" x="801.360709" xlink:href="#me60fd0f3e3" y="363.455604"/>
     <use style="fill:#64b5cd;stroke:#64b5cd;" x="465.186014" xlink:href="#me60fd0f3e3" y="443.761303"/>
     <use style="fill:#64b5cd;stroke:#64b5cd;" x="636.80011" xlink:href="#me60fd0f3e3" y="379.193401"/>
     <use style="fill:#64b5cd;stroke:#64b5cd;" x="501.319441" xlink:href="#me60fd0f3e3" y="441.00714"/>
     <use style="fill:#64b5cd;stroke:#64b5cd;" x="395.595711" xlink:href="#me60fd0f3e3" y="434.694613"/>
     <use style="fill:#64b5cd;stroke:#64b5cd;" x="752.562974" xlink:href="#me60fd0f3e3" y="334.741617"/>
     <use style="fill:#64b5cd;stroke:#64b5cd;" x="426.476299" xlink:href="#me60fd0f3e3" y="444.851081"/>
     <use style="fill:#64b5cd;stroke:#64b5cd;" x="208.237203" xlink:href="#me60fd0f3e3" y="505.937538"/>
     <use style="fill:#64b5cd;stroke:#64b5cd;" x="210.209398" xlink:href="#me60fd0f3e3" y="485.173436"/>
     <use style="fill:#64b5cd;stroke:#64b5cd;" x="301.534093" xlink:href="#me60fd0f3e3" y="439.005925"/>
     <use style="fill:#64b5cd;stroke:#64b5cd;" x="158.051888" xlink:href="#me60fd0f3e3" y="505.529732"/>
     <use style="fill:#64b5cd;stroke:#64b5cd;" x="412.993287" xlink:href="#me60fd0f3e3" y="460.321932"/>
     <use style="fill:#64b5cd;stroke:#64b5cd;" x="920.475467" xlink:href="#me60fd0f3e3" y="343.038135"/>
     <use style="fill:#64b5cd;stroke:#64b5cd;" x="144" xlink:href="#me60fd0f3e3" y="520.283216"/>
     <use style="fill:#64b5cd;stroke:#64b5cd;" x="338.286908" xlink:href="#me60fd0f3e3" y="447.760301"/>
     <use style="fill:#64b5cd;stroke:#64b5cd;" x="761.390894" xlink:href="#me60fd0f3e3" y="359.717911"/>
     <use style="fill:#64b5cd;stroke:#64b5cd;" x="406.662881" xlink:href="#me60fd0f3e3" y="440.818414"/>
     <use style="fill:#64b5cd;stroke:#64b5cd;" x="165.412401" xlink:href="#me60fd0f3e3" y="509.138874"/>
     <use style="fill:#64b5cd;stroke:#64b5cd;" x="213.590303" xlink:href="#me60fd0f3e3" y="495.587209"/>
     <use style="fill:#64b5cd;stroke:#64b5cd;" x="162.59498" xlink:href="#me60fd0f3e3" y="493.035914"/>
     <use style="fill:#64b5cd;stroke:#64b5cd;" x="453.453192" xlink:href="#me60fd0f3e3" y="447.285273"/>
     <use style="fill:#64b5cd;stroke:#64b5cd;" x="759.305791" xlink:href="#me60fd0f3e3" y="346.24321"/>
     <use style="fill:#64b5cd;stroke:#64b5cd;" x="146.67655" xlink:href="#me60fd0f3e3" y="483.306595"/>
     <use style="fill:#64b5cd;stroke:#64b5cd;" x="153.521325" xlink:href="#me60fd0f3e3" y="505.916251"/>
     <use style="fill:#64b5cd;stroke:#64b5cd;" x="644.374001" xlink:href="#me60fd0f3e3" y="348.47277"/>
     <use style="fill:#64b5cd;stroke:#64b5cd;" x="345.090374" xlink:href="#me60fd0f3e3" y="454.013891"/>
     <use style="fill:#64b5cd;stroke:#64b5cd;" x="920.392091" xlink:href="#me60fd0f3e3" y="303.356852"/>
     <use style="fill:#64b5cd;stroke:#64b5cd;" x="233.990614" xlink:href="#me60fd0f3e3" y="479.960443"/>
     <use style="fill:#64b5cd;stroke:#64b5cd;" x="727.720669" xlink:href="#me60fd0f3e3" y="367.270681"/>
     <use style="fill:#64b5cd;stroke:#64b5cd;" x="194.713581" xlink:href="#me60fd0f3e3" y="499.946597"/>
     <use style="fill:#64b5cd;stroke:#64b5cd;" x="308.607832" xlink:href="#me60fd0f3e3" y="462.614607"/>
     <use style="fill:#64b5cd;stroke:#64b5cd;" x="160.059301" xlink:href="#me60fd0f3e3" y="507.289531"/>
     <use style="fill:#64b5cd;stroke:#64b5cd;" x="645.889579" xlink:href="#me60fd0f3e3" y="364.410376"/>
     <use style="fill:#64b5cd;stroke:#64b5cd;" x="428.730459" xlink:href="#me60fd0f3e3" y="429.760865"/>
     <use style="fill:#64b5cd;stroke:#64b5cd;" x="818.490629" xlink:href="#me60fd0f3e3" y="376.080197"/>
     <use style="fill:#64b5cd;stroke:#64b5cd;" x="148.941323" xlink:href="#me60fd0f3e3" y="507.634304"/>
     <use style="fill:#64b5cd;stroke:#64b5cd;" x="349.064917" xlink:href="#me60fd0f3e3" y="473.656667"/>
     <use style="fill:#64b5cd;stroke:#64b5cd;" x="531.376375" xlink:href="#me60fd0f3e3" y="439.991302"/>
     <use style="fill:#64b5cd;stroke:#64b5cd;" x="617.400255" xlink:href="#me60fd0f3e3" y="415.259017"/>
     <use style="fill:#64b5cd;stroke:#64b5cd;" x="274.799734" xlink:href="#me60fd0f3e3" y="466.268303"/>
     <use style="fill:#64b5cd;stroke:#64b5cd;" x="186.824802" xlink:href="#me60fd0f3e3" y="487.784623"/>
     <use style="fill:#64b5cd;stroke:#64b5cd;" x="546.829427" xlink:href="#me60fd0f3e3" y="426.816787"/>
     <use style="fill:#64b5cd;stroke:#64b5cd;" x="287.589042" xlink:href="#me60fd0f3e3" y="475.549607"/>
     <use style="fill:#64b5cd;stroke:#64b5cd;" x="144" xlink:href="#me60fd0f3e3" y="513.676064"/>
     <use style="fill:#64b5cd;stroke:#64b5cd;" x="347.94965" xlink:href="#me60fd0f3e3" y="455.429947"/>
     <use style="fill:#64b5cd;stroke:#64b5cd;" x="162.353487" xlink:href="#me60fd0f3e3" y="507.596093"/>
     <use style="fill:#64b5cd;stroke:#64b5cd;" x="525.050506" xlink:href="#me60fd0f3e3" y="379.512661"/>
     <use style="fill:#64b5cd;stroke:#64b5cd;" x="188.816653" xlink:href="#me60fd0f3e3" y="499.881549"/>
     <use style="fill:#64b5cd;stroke:#64b5cd;" x="196.470982" xlink:href="#me60fd0f3e3" y="458.216324"/>
     <use style="fill:#64b5cd;stroke:#64b5cd;" x="802.715564" xlink:href="#me60fd0f3e3" y="338.377645"/>
     <use style="fill:#64b5cd;stroke:#64b5cd;" x="488.994208" xlink:href="#me60fd0f3e3" y="402.503632"/>
     <use style="fill:#64b5cd;stroke:#64b5cd;" x="243.072303" xlink:href="#me60fd0f3e3" y="472.931799"/>
     <use style="fill:#64b5cd;stroke:#64b5cd;" x="497.304615" xlink:href="#me60fd0f3e3" y="391.2624"/>
     <use style="fill:#64b5cd;stroke:#64b5cd;" x="589.609425" xlink:href="#me60fd0f3e3" y="396.019813"/>
     <use style="fill:#64b5cd;stroke:#64b5cd;" x="268.33007" xlink:href="#me60fd0f3e3" y="465.160914"/>
     <use style="fill:#64b5cd;stroke:#64b5cd;" x="204.458544" xlink:href="#me60fd0f3e3" y="476.106145"/>
     <use style="fill:#64b5cd;stroke:#64b5cd;" x="176.958726" xlink:href="#me60fd0f3e3" y="498.792325"/>
     <use style="fill:#64b5cd;stroke:#64b5cd;" x="257.650436" xlink:href="#me60fd0f3e3" y="488.671693"/>
     <use style="fill:#64b5cd;stroke:#64b5cd;" x="513.155354" xlink:href="#me60fd0f3e3" y="387.069326"/>
     <use style="fill:#64b5cd;stroke:#64b5cd;" x="316.946315" xlink:href="#me60fd0f3e3" y="455.51322"/>
     <use style="fill:#64b5cd;stroke:#64b5cd;" x="557.763159" xlink:href="#me60fd0f3e3" y="372.357366"/>
     <use style="fill:#64b5cd;stroke:#64b5cd;" x="165.452127" xlink:href="#me60fd0f3e3" y="518.142257"/>
     <use style="fill:#64b5cd;stroke:#64b5cd;" x="473.337943" xlink:href="#me60fd0f3e3" y="418.38032"/>
     <use style="fill:#64b5cd;stroke:#64b5cd;" x="525.408392" xlink:href="#me60fd0f3e3" y="399.293344"/>
     <use style="fill:#64b5cd;stroke:#64b5cd;" x="708.082937" xlink:href="#me60fd0f3e3" y="371.883972"/>
     <use style="fill:#64b5cd;stroke:#64b5cd;" x="713.448325" xlink:href="#me60fd0f3e3" y="373.300071"/>
     <use style="fill:#64b5cd;stroke:#64b5cd;" x="683.293726" xlink:href="#me60fd0f3e3" y="371.681989"/>
     <use style="fill:#64b5cd;stroke:#64b5cd;" x="488.127872" xlink:href="#me60fd0f3e3" y="460.699387"/>
     <use style="fill:#64b5cd;stroke:#64b5cd;" x="291.745566" xlink:href="#me60fd0f3e3" y="431.278072"/>
     <use style="fill:#64b5cd;stroke:#64b5cd;" x="327.534865" xlink:href="#me60fd0f3e3" y="450.394961"/>
     <use style="fill:#64b5cd;stroke:#64b5cd;" x="303.196546" xlink:href="#me60fd0f3e3" y="445.079386"/>
     <use style="fill:#64b5cd;stroke:#64b5cd;" x="1002.280404" xlink:href="#me60fd0f3e3" y="324.964064"/>
     <use style="fill:#64b5cd;stroke:#64b5cd;" x="791.594565" xlink:href="#me60fd0f3e3" y="351.253495"/>
     <use style="fill:#64b5cd;stroke:#64b5cd;" x="338.65819" xlink:href="#me60fd0f3e3" y="459.951692"/>
     <use style="fill:#64b5cd;stroke:#64b5cd;" x="243.453537" xlink:href="#me60fd0f3e3" y="482.471901"/>
     <use style="fill:#64b5cd;stroke:#64b5cd;" x="920.514422" xlink:href="#me60fd0f3e3" y="313.904731"/>
     <use style="fill:#64b5cd;stroke:#64b5cd;" x="394.525091" xlink:href="#me60fd0f3e3" y="459.00157"/>
     <use style="fill:#64b5cd;stroke:#64b5cd;" x="282.357052" xlink:href="#me60fd0f3e3" y="479.450516"/>
     <use style="fill:#64b5cd;stroke:#64b5cd;" x="617.749371" xlink:href="#me60fd0f3e3" y="376.781762"/>
     <use style="fill:#64b5cd;stroke:#64b5cd;" x="173.64794" xlink:href="#me60fd0f3e3" y="482.384189"/>
     <use style="fill:#64b5cd;stroke:#64b5cd;" x="245.511968" xlink:href="#me60fd0f3e3" y="467.885827"/>
     <use style="fill:#64b5cd;stroke:#64b5cd;" x="596.830925" xlink:href="#me60fd0f3e3" y="426.522703"/>
     <use style="fill:#64b5cd;stroke:#64b5cd;" x="225.396456" xlink:href="#me60fd0f3e3" y="471.571364"/>
     <use style="fill:#64b5cd;stroke:#64b5cd;" x="792.211774" xlink:href="#me60fd0f3e3" y="409.428027"/>
     <use style="fill:#64b5cd;stroke:#64b5cd;" x="443.773613" xlink:href="#me60fd0f3e3" y="438.800312"/>
     <use style="fill:#64b5cd;stroke:#64b5cd;" x="301.960335" xlink:href="#me60fd0f3e3" y="473.322877"/>
     <use style="fill:#64b5cd;stroke:#64b5cd;" x="873.859263" xlink:href="#me60fd0f3e3" y="362.93119"/>
     <use style="fill:#64b5cd;stroke:#64b5cd;" x="255.05945" xlink:href="#me60fd0f3e3" y="491.22119"/>
     <use style="fill:#64b5cd;stroke:#64b5cd;" x="720.122171" xlink:href="#me60fd0f3e3" y="351.692727"/>
     <use style="fill:#64b5cd;stroke:#64b5cd;" x="258.199472" xlink:href="#me60fd0f3e3" y="503.05772"/>
     <use style="fill:#64b5cd;stroke:#64b5cd;" x="857.454179" xlink:href="#me60fd0f3e3" y="325.283751"/>
     <use style="fill:#64b5cd;stroke:#64b5cd;" x="575.593706" xlink:href="#me60fd0f3e3" y="378.244335"/>
     <use style="fill:#64b5cd;stroke:#64b5cd;" x="609.760793" xlink:href="#me60fd0f3e3" y="420.60942"/>
     <use style="fill:#64b5cd;stroke:#64b5cd;" x="144" xlink:href="#me60fd0f3e3" y="511.630897"/>
     <use style="fill:#64b5cd;stroke:#64b5cd;" x="554.404351" xlink:href="#me60fd0f3e3" y="391.309545"/>
     <use style="fill:#64b5cd;stroke:#64b5cd;" x="287.463086" xlink:href="#me60fd0f3e3" y="446.155896"/>
     <use style="fill:#64b5cd;stroke:#64b5cd;" x="176.118601" xlink:href="#me60fd0f3e3" y="492.38141"/>
     <use style="fill:#64b5cd;stroke:#64b5cd;" x="1014.583143" xlink:href="#me60fd0f3e3" y="287.224397"/>
     <use style="fill:#64b5cd;stroke:#64b5cd;" x="748.265213" xlink:href="#me60fd0f3e3" y="389.078016"/>
     <use style="fill:#64b5cd;stroke:#64b5cd;" x="199.672242" xlink:href="#me60fd0f3e3" y="510.485893"/>
     <use style="fill:#64b5cd;stroke:#64b5cd;" x="619.74169" xlink:href="#me60fd0f3e3" y="335.497782"/>
     <use style="fill:#64b5cd;stroke:#64b5cd;" x="925.00896" xlink:href="#me60fd0f3e3" y="243.905476"/>
     <use style="fill:#64b5cd;stroke:#64b5cd;" x="167.358983" xlink:href="#me60fd0f3e3" y="448.002505"/>
     <use style="fill:#64b5cd;stroke:#64b5cd;" x="515.620181" xlink:href="#me60fd0f3e3" y="410.874869"/>
     <use style="fill:#64b5cd;stroke:#64b5cd;" x="345.471227" xlink:href="#me60fd0f3e3" y="426.407622"/>
     <use style="fill:#64b5cd;stroke:#64b5cd;" x="244.699713" xlink:href="#me60fd0f3e3" y="478.33939"/>
     <use style="fill:#64b5cd;stroke:#64b5cd;" x="343.637818" xlink:href="#me60fd0f3e3" y="434.443783"/>
     <use style="fill:#64b5cd;stroke:#64b5cd;" x="183.734352" xlink:href="#me60fd0f3e3" y="503.263842"/>
     <use style="fill:#64b5cd;stroke:#64b5cd;" x="206.095963" xlink:href="#me60fd0f3e3" y="500.73478"/>
     <use style="fill:#64b5cd;stroke:#64b5cd;" x="187.170163" xlink:href="#me60fd0f3e3" y="473.089498"/>
     <use style="fill:#64b5cd;stroke:#64b5cd;" x="280.031724" xlink:href="#me60fd0f3e3" y="488.188121"/>
     <use style="fill:#64b5cd;stroke:#64b5cd;" x="675.964336" xlink:href="#me60fd0f3e3" y="297.096058"/>
     <use style="fill:#64b5cd;stroke:#64b5cd;" x="634.343981" xlink:href="#me60fd0f3e3" y="388.823448"/>
     <use style="fill:#64b5cd;stroke:#64b5cd;" x="236.577145" xlink:href="#me60fd0f3e3" y="501.057956"/>
     <use style="fill:#64b5cd;stroke:#64b5cd;" x="541.658874" xlink:href="#me60fd0f3e3" y="424.132396"/>
     <use style="fill:#64b5cd;stroke:#64b5cd;" x="702.369532" xlink:href="#me60fd0f3e3" y="365.952586"/>
     <use style="fill:#64b5cd;stroke:#64b5cd;" x="691.00801" xlink:href="#me60fd0f3e3" y="377.874557"/>
     <use style="fill:#64b5cd;stroke:#64b5cd;" x="197.531002" xlink:href="#me60fd0f3e3" y="495.637246"/>
     <use style="fill:#64b5cd;stroke:#64b5cd;" x="656.199723" xlink:href="#me60fd0f3e3" y="356.827034"/>
     <use style="fill:#64b5cd;stroke:#64b5cd;" x="226.590689" xlink:href="#me60fd0f3e3" y="478.611555"/>
     <use style="fill:#64b5cd;stroke:#64b5cd;" x="144" xlink:href="#me60fd0f3e3" y="513.440321"/>
     <use style="fill:#64b5cd;stroke:#64b5cd;" x="919.434805" xlink:href="#me60fd0f3e3" y="288.53251"/>
     <use style="fill:#64b5cd;stroke:#64b5cd;" x="240.545108" xlink:href="#me60fd0f3e3" y="495.395533"/>
     <use style="fill:#64b5cd;stroke:#64b5cd;" x="144" xlink:href="#me60fd0f3e3" y="506.221477"/>
     <use style="fill:#64b5cd;stroke:#64b5cd;" x="1021.908438" xlink:href="#me60fd0f3e3" y="289.47786"/>
     <use style="fill:#64b5cd;stroke:#64b5cd;" x="749.873617" xlink:href="#me60fd0f3e3" y="346.224101"/>
     <use style="fill:#64b5cd;stroke:#64b5cd;" x="305.119541" xlink:href="#me60fd0f3e3" y="475.133139"/>
     <use style="fill:#64b5cd;stroke:#64b5cd;" x="786.372028" xlink:href="#me60fd0f3e3" y="287.842833"/>
     <use style="fill:#64b5cd;stroke:#64b5cd;" x="260.626622" xlink:href="#me60fd0f3e3" y="487.194957"/>
     <use style="fill:#64b5cd;stroke:#64b5cd;" x="144" xlink:href="#me60fd0f3e3" y="515.353338"/>
     <use style="fill:#64b5cd;stroke:#64b5cd;" x="144" xlink:href="#me60fd0f3e3" y="511.930235"/>
     <use style="fill:#64b5cd;stroke:#64b5cd;" x="336.711608" xlink:href="#me60fd0f3e3" y="450.396011"/>
     <use style="fill:#64b5cd;stroke:#64b5cd;" x="171.177278" xlink:href="#me60fd0f3e3" y="497.638872"/>
     <use style="fill:#64b5cd;stroke:#64b5cd;" x="217.68385" xlink:href="#me60fd0f3e3" y="476.916572"/>
     <use style="fill:#64b5cd;stroke:#64b5cd;" x="186.824802" xlink:href="#me60fd0f3e3" y="507.698039"/>
     <use style="fill:#64b5cd;stroke:#64b5cd;" x="426.937109" xlink:href="#me60fd0f3e3" y="453.830552"/>
     <use style="fill:#64b5cd;stroke:#64b5cd;" x="368.83021" xlink:href="#me60fd0f3e3" y="463.472039"/>
     <use style="fill:#64b5cd;stroke:#64b5cd;" x="501.319441" xlink:href="#me60fd0f3e3" y="411.904158"/>
     <use style="fill:#64b5cd;stroke:#64b5cd;" x="400.73216" xlink:href="#me60fd0f3e3" y="413.969839"/>
     <use style="fill:#64b5cd;stroke:#64b5cd;" x="365.61835" xlink:href="#me60fd0f3e3" y="458.371676"/>
     <use style="fill:#64b5cd;stroke:#64b5cd;" x="940.386526" xlink:href="#me60fd0f3e3" y="273.267383"/>
     <use style="fill:#64b5cd;stroke:#64b5cd;" x="222.028241" xlink:href="#me60fd0f3e3" y="487.940896"/>
     <use style="fill:#64b5cd;stroke:#64b5cd;" x="710.286372" xlink:href="#me60fd0f3e3" y="406.574314"/>
     <use style="fill:#64b5cd;stroke:#64b5cd;" x="174.111189" xlink:href="#me60fd0f3e3" y="505.697589"/>
    </g>
   </g>
   <g id="line2d_16">
    <defs>
     <path d="M 0 3 
C 0.795609 3 1.55874 2.683901 2.12132 2.12132 
C 2.683901 1.55874 3 0.795609 3 0 
C 3 -0.795609 2.683901 -1.55874 2.12132 -2.12132 
C 1.55874 -2.683901 0.795609 -3 0 -3 
C -0.795609 -3 -1.55874 -2.683901 -2.12132 -2.12132 
C -2.683901 -1.55874 -3 -0.795609 -3 0 
C -3 0.795609 -2.683901 1.55874 -2.12132 2.12132 
C -1.55874 2.683901 -0.795609 3 0 3 
z
" id="mc87aafb82a" style="stroke:#8172b3;"/>
    </defs>
    <g clip-path="url(#p168a425f32)">
     <use style="fill:#8172b3;stroke:#8172b3;" x="431.230474" xlink:href="#mc87aafb82a" y="386.066164"/>
     <use style="fill:#8172b3;stroke:#8172b3;" x="325.233488" xlink:href="#mc87aafb82a" y="483.909379"/>
     <use style="fill:#8172b3;stroke:#8172b3;" x="144" xlink:href="#mc87aafb82a" y="515.354686"/>
     <use style="fill:#8172b3;stroke:#8172b3;" x="656.226022" xlink:href="#mc87aafb82a" y="431.331065"/>
     <use style="fill:#8172b3;stroke:#8172b3;" x="697.607893" xlink:href="#mc87aafb82a" y="277.376244"/>
     <use style="fill:#8172b3;stroke:#8172b3;" x="144" xlink:href="#mc87aafb82a" y="505.07299"/>
     <use style="fill:#8172b3;stroke:#8172b3;" x="217.413946" xlink:href="#mc87aafb82a" y="518.532382"/>
     <use style="fill:#8172b3;stroke:#8172b3;" x="724.605487" xlink:href="#mc87aafb82a" y="358.983763"/>
     <use style="fill:#8172b3;stroke:#8172b3;" x="494.798909" xlink:href="#mc87aafb82a" y="403.494289"/>
     <use style="fill:#8172b3;stroke:#8172b3;" x="726.14965" xlink:href="#mc87aafb82a" y="381.689034"/>
     <use style="fill:#8172b3;stroke:#8172b3;" x="148.014825" xlink:href="#mc87aafb82a" y="513.541122"/>
     <use style="fill:#8172b3;stroke:#8172b3;" x="585.065301" xlink:href="#mc87aafb82a" y="399.954102"/>
     <use style="fill:#8172b3;stroke:#8172b3;" x="255.47044" xlink:href="#mc87aafb82a" y="470.886729"/>
     <use style="fill:#8172b3;stroke:#8172b3;" x="516.841726" xlink:href="#mc87aafb82a" y="437.50412"/>
     <use style="fill:#8172b3;stroke:#8172b3;" x="254.619956" xlink:href="#mc87aafb82a" y="480.006712"/>
     <use style="fill:#8172b3;stroke:#8172b3;" x="176.118601" xlink:href="#mc87aafb82a" y="531.271895"/>
     <use style="fill:#8172b3;stroke:#8172b3;" x="611.854772" xlink:href="#mc87aafb82a" y="378.852568"/>
     <use style="fill:#8172b3;stroke:#8172b3;" x="194.854452" xlink:href="#mc87aafb82a" y="489.555921"/>
     <use style="fill:#8172b3;stroke:#8172b3;" x="202.884103" xlink:href="#mc87aafb82a" y="481.156883"/>
     <use style="fill:#8172b3;stroke:#8172b3;" x="712.097762" xlink:href="#mc87aafb82a" y="398.987362"/>
     <use style="fill:#8172b3;stroke:#8172b3;" x="185.069687" xlink:href="#mc87aafb82a" y="436.925654"/>
     <use style="fill:#8172b3;stroke:#8172b3;" x="292.011988" xlink:href="#mc87aafb82a" y="469.38093"/>
     <use style="fill:#8172b3;stroke:#8172b3;" x="145.603258" xlink:href="#mc87aafb82a" y="496.574526"/>
     <use style="fill:#8172b3;stroke:#8172b3;" x="439.08965" xlink:href="#mc87aafb82a" y="478.042634"/>
     <use style="fill:#8172b3;stroke:#8172b3;" x="406.975329" xlink:href="#mc87aafb82a" y="469.346082"/>
     <use style="fill:#8172b3;stroke:#8172b3;" x="165.899046" xlink:href="#mc87aafb82a" y="509.218888"/>
     <use style="fill:#8172b3;stroke:#8172b3;" x="174.111189" xlink:href="#mc87aafb82a" y="482.714383"/>
     <use style="fill:#8172b3;stroke:#8172b3;" x="1026.316874" xlink:href="#mc87aafb82a" y="249.235468"/>
     <use style="fill:#8172b3;stroke:#8172b3;" x="1017.041983" xlink:href="#mc87aafb82a" y="345.070022"/>
     <use style="fill:#8172b3;stroke:#8172b3;" x="1008.525688" xlink:href="#mc87aafb82a" y="403.917606"/>
     <use style="fill:#8172b3;stroke:#8172b3;" x="348.47598" xlink:href="#mc87aafb82a" y="500.680769"/>
     <use style="fill:#8172b3;stroke:#8172b3;" x="368.83021" xlink:href="#mc87aafb82a" y="510.553139"/>
     <use style="fill:#8172b3;stroke:#8172b3;" x="570.189134" xlink:href="#mc87aafb82a" y="363.137092"/>
     <use style="fill:#8172b3;stroke:#8172b3;" x="331.250146" xlink:href="#mc87aafb82a" y="451.596572"/>
     <use style="fill:#8172b3;stroke:#8172b3;" x="498.886474" xlink:href="#mc87aafb82a" y="404.176"/>
     <use style="fill:#8172b3;stroke:#8172b3;" x="171.741594" xlink:href="#mc87aafb82a" y="507.413407"/>
     <use style="fill:#8172b3;stroke:#8172b3;" x="690.016224" xlink:href="#mc87aafb82a" y="362.389493"/>
     <use style="fill:#8172b3;stroke:#8172b3;" x="315.451609" xlink:href="#mc87aafb82a" y="435.049532"/>
     <use style="fill:#8172b3;stroke:#8172b3;" x="231.411384" xlink:href="#mc87aafb82a" y="475.963004"/>
     <use style="fill:#8172b3;stroke:#8172b3;" x="294.436927" xlink:href="#mc87aafb82a" y="462.603578"/>
     <use style="fill:#8172b3;stroke:#8172b3;" x="727.076148" xlink:href="#mc87aafb82a" y="369.611787"/>
     <use style="fill:#8172b3;stroke:#8172b3;" x="170.765501" xlink:href="#mc87aafb82a" y="497.487909"/>
     <use style="fill:#8172b3;stroke:#8172b3;" x="924.346302" xlink:href="#mc87aafb82a" y="262.643622"/>
     <use style="fill:#8172b3;stroke:#8172b3;" x="233.218337" xlink:href="#mc87aafb82a" y="423.284697"/>
     <use style="fill:#8172b3;stroke:#8172b3;" x="144" xlink:href="#mc87aafb82a" y="491.833347"/>
     <use style="fill:#8172b3;stroke:#8172b3;" x="500.737138" xlink:href="#mc87aafb82a" y="449.101367"/>
     <use style="fill:#8172b3;stroke:#8172b3;" x="348.222321" xlink:href="#mc87aafb82a" y="492.434692"/>
     <use style="fill:#8172b3;stroke:#8172b3;" x="1036.8" xlink:href="#mc87aafb82a" y="184.15492"/>
     <use style="fill:#8172b3;stroke:#8172b3;" x="433.067413" xlink:href="#mc87aafb82a" y="410.088236"/>
     <use style="fill:#8172b3;stroke:#8172b3;" x="876.888086" xlink:href="#mc87aafb82a" y="336.312832"/>
    </g>
   </g>
   <g id="patch_3">
    <path d="M 144 630 
L 144 86.4 
" style="fill:none;stroke:#cccccc;stroke-linecap:square;stroke-linejoin:miter;stroke-width:1.25;"/>
   </g>
   <g id="patch_4">
    <path d="M 1036.8 630 
L 1036.8 86.4 
" style="fill:none;stroke:#cccccc;stroke-linecap:square;stroke-linejoin:miter;stroke-width:1.25;"/>
   </g>
   <g id="patch_5">
    <path d="M 144 630 
L 1036.8 630 
" style="fill:none;stroke:#cccccc;stroke-linecap:square;stroke-linejoin:miter;stroke-width:1.25;"/>
   </g>
   <g id="patch_6">
    <path d="M 144 86.4 
L 1036.8 86.4 
" style="fill:none;stroke:#cccccc;stroke-linecap:square;stroke-linejoin:miter;stroke-width:1.25;"/>
   </g>
  </g>
 </g>
 <defs>
  <clipPath id="p168a425f32">
   <rect height="543.6" width="892.8" x="144" y="86.4"/>
  </clipPath>
 </defs>
</svg>
