<?xml version="1.0" encoding="utf-8" standalone="no"?>
<!DOCTYPE svg PUBLIC "-//W3C//DTD SVG 1.1//EN"
  "http://www.w3.org/Graphics/SVG/1.1/DTD/svg11.dtd">
<!-- Created with matplotlib (https://matplotlib.org/) -->
<svg height="288pt" version="1.1" viewBox="0 0 432 288" width="432pt" xmlns="http://www.w3.org/2000/svg" xmlns:xlink="http://www.w3.org/1999/xlink">
 <defs>
  <style type="text/css">
*{stroke-linecap:butt;stroke-linejoin:round;}
  </style>
 </defs>
 <g id="figure_1">
  <g id="patch_1">
   <path d="M 0 288 
L 432 288 
L 432 0 
L 0 0 
z
" style="fill:#ffffff;"/>
  </g>
  <g id="axes_1">
   <g id="patch_2">
    <path d="M 54 252 
L 388.8 252 
L 388.8 34.56 
L 54 34.56 
z
" style="fill:#ffffff;"/>
   </g>
   <g id="matplotlib.axis_1">
    <g id="xtick_1">
     <g id="line2d_1">
      <path clip-path="url(#p5a5efcdf33)" d="M 71.937557 252 
L 71.937557 34.56 
" style="fill:none;stroke:#cccccc;stroke-linecap:round;"/>
     </g>
     <g id="text_1">
      <!-- −5.0 -->
      <defs>
       <path d="M 52.828125 31.203125 
L 5.5625 31.203125 
L 5.5625 39.40625 
L 52.828125 39.40625 
z
" id="ArialMT-8722"/>
       <path d="M 4.15625 18.75 
L 13.375 19.53125 
Q 14.40625 12.796875 18.140625 9.390625 
Q 21.875 6 27.15625 6 
Q 33.5 6 37.890625 10.78125 
Q 42.28125 15.578125 42.28125 23.484375 
Q 42.28125 31 38.0625 35.34375 
Q 33.84375 39.703125 27 39.703125 
Q 22.75 39.703125 19.328125 37.765625 
Q 15.921875 35.84375 13.96875 32.765625 
L 5.71875 33.84375 
L 12.640625 70.609375 
L 48.25 70.609375 
L 48.25 62.203125 
L 19.671875 62.203125 
L 15.828125 42.96875 
Q 22.265625 47.46875 29.34375 47.46875 
Q 38.71875 47.46875 45.15625 40.96875 
Q 51.609375 34.46875 51.609375 24.265625 
Q 51.609375 14.546875 45.953125 7.46875 
Q 39.0625 -1.21875 27.15625 -1.21875 
Q 17.390625 -1.21875 11.203125 4.25 
Q 5.03125 9.71875 4.15625 18.75 
z
" id="ArialMT-53"/>
       <path d="M 9.078125 0 
L 9.078125 10.015625 
L 19.09375 10.015625 
L 19.09375 0 
z
" id="ArialMT-46"/>
       <path d="M 4.15625 35.296875 
Q 4.15625 48 6.765625 55.734375 
Q 9.375 63.484375 14.515625 67.671875 
Q 19.671875 71.875 27.484375 71.875 
Q 33.25 71.875 37.59375 69.546875 
Q 41.9375 67.234375 44.765625 62.859375 
Q 47.609375 58.5 49.21875 52.21875 
Q 50.828125 45.953125 50.828125 35.296875 
Q 50.828125 22.703125 48.234375 14.96875 
Q 45.65625 7.234375 40.5 3 
Q 35.359375 -1.21875 27.484375 -1.21875 
Q 17.140625 -1.21875 11.234375 6.203125 
Q 4.15625 15.140625 4.15625 35.296875 
z
M 13.1875 35.296875 
Q 13.1875 17.671875 17.3125 11.828125 
Q 21.4375 6 27.484375 6 
Q 33.546875 6 37.671875 11.859375 
Q 41.796875 17.71875 41.796875 35.296875 
Q 41.796875 52.984375 37.671875 58.78125 
Q 33.546875 64.59375 27.390625 64.59375 
Q 21.34375 64.59375 17.71875 59.46875 
Q 13.1875 52.9375 13.1875 35.296875 
z
" id="ArialMT-48"/>
      </defs>
      <g style="fill:#262626;" transform="translate(50.222869 277.247187)scale(0.22 -0.22)">
       <use xlink:href="#ArialMT-8722"/>
       <use x="58.398438" xlink:href="#ArialMT-53"/>
       <use x="114.013672" xlink:href="#ArialMT-46"/>
       <use x="141.796875" xlink:href="#ArialMT-48"/>
      </g>
     </g>
    </g>
    <g id="xtick_2">
     <g id="line2d_2">
      <path clip-path="url(#p5a5efcdf33)" d="M 152.060527 252 
L 152.060527 34.56 
" style="fill:none;stroke:#cccccc;stroke-linecap:round;"/>
     </g>
     <g id="text_2">
      <!-- −2.5 -->
      <defs>
       <path d="M 50.34375 8.453125 
L 50.34375 0 
L 3.03125 0 
Q 2.9375 3.171875 4.046875 6.109375 
Q 5.859375 10.9375 9.828125 15.625 
Q 13.8125 20.3125 21.34375 26.46875 
Q 33.015625 36.03125 37.109375 41.625 
Q 41.21875 47.21875 41.21875 52.203125 
Q 41.21875 57.421875 37.46875 61 
Q 33.734375 64.59375 27.734375 64.59375 
Q 21.390625 64.59375 17.578125 60.78125 
Q 13.765625 56.984375 13.71875 50.25 
L 4.6875 51.171875 
Q 5.609375 61.28125 11.65625 66.578125 
Q 17.71875 71.875 27.9375 71.875 
Q 38.234375 71.875 44.234375 66.15625 
Q 50.25 60.453125 50.25 52 
Q 50.25 47.703125 48.484375 43.546875 
Q 46.734375 39.40625 42.65625 34.8125 
Q 38.578125 30.21875 29.109375 22.21875 
Q 21.1875 15.578125 18.9375 13.203125 
Q 16.703125 10.84375 15.234375 8.453125 
z
" id="ArialMT-50"/>
      </defs>
      <g style="fill:#262626;" transform="translate(130.345839 277.247187)scale(0.22 -0.22)">
       <use xlink:href="#ArialMT-8722"/>
       <use x="58.398438" xlink:href="#ArialMT-50"/>
       <use x="114.013672" xlink:href="#ArialMT-46"/>
       <use x="141.796875" xlink:href="#ArialMT-53"/>
      </g>
     </g>
    </g>
    <g id="xtick_3">
     <g id="line2d_3">
      <path clip-path="url(#p5a5efcdf33)" d="M 232.183496 252 
L 232.183496 34.56 
" style="fill:none;stroke:#cccccc;stroke-linecap:round;"/>
     </g>
     <g id="text_3">
      <!-- 0.0 -->
      <g style="fill:#262626;" transform="translate(216.893496 277.247187)scale(0.22 -0.22)">
       <use xlink:href="#ArialMT-48"/>
       <use x="55.615234" xlink:href="#ArialMT-46"/>
       <use x="83.398438" xlink:href="#ArialMT-48"/>
      </g>
     </g>
    </g>
    <g id="xtick_4">
     <g id="line2d_4">
      <path clip-path="url(#p5a5efcdf33)" d="M 312.306466 252 
L 312.306466 34.56 
" style="fill:none;stroke:#cccccc;stroke-linecap:round;"/>
     </g>
     <g id="text_4">
      <!-- 2.5 -->
      <g style="fill:#262626;" transform="translate(297.016466 277.247187)scale(0.22 -0.22)">
       <use xlink:href="#ArialMT-50"/>
       <use x="55.615234" xlink:href="#ArialMT-46"/>
       <use x="83.398438" xlink:href="#ArialMT-53"/>
      </g>
     </g>
    </g>
    <g id="text_5">
     <!-- Yerr_normalized -->
     <defs>
      <path d="M 27.875 0 
L 27.875 30.328125 
L 0.296875 71.578125 
L 11.8125 71.578125 
L 25.921875 50 
Q 29.828125 43.953125 33.203125 37.890625 
Q 36.421875 43.5 41.015625 50.53125 
L 54.890625 71.578125 
L 65.921875 71.578125 
L 37.359375 30.328125 
L 37.359375 0 
z
" id="ArialMT-89"/>
      <path d="M 42.09375 16.703125 
L 51.171875 15.578125 
Q 49.03125 7.625 43.21875 3.21875 
Q 37.40625 -1.171875 28.375 -1.171875 
Q 17 -1.171875 10.328125 5.828125 
Q 3.65625 12.84375 3.65625 25.484375 
Q 3.65625 38.578125 10.390625 45.796875 
Q 17.140625 53.03125 27.875 53.03125 
Q 38.28125 53.03125 44.875 45.953125 
Q 51.46875 38.875 51.46875 26.03125 
Q 51.46875 25.25 51.421875 23.6875 
L 12.75 23.6875 
Q 13.234375 15.140625 17.578125 10.59375 
Q 21.921875 6.0625 28.421875 6.0625 
Q 33.25 6.0625 36.671875 8.59375 
Q 40.09375 11.140625 42.09375 16.703125 
z
M 13.234375 30.90625 
L 42.1875 30.90625 
Q 41.609375 37.453125 38.875 40.71875 
Q 34.671875 45.796875 27.984375 45.796875 
Q 21.921875 45.796875 17.796875 41.75 
Q 13.671875 37.703125 13.234375 30.90625 
z
" id="ArialMT-101"/>
      <path d="M 6.5 0 
L 6.5 51.859375 
L 14.40625 51.859375 
L 14.40625 44 
Q 17.4375 49.515625 20 51.265625 
Q 22.5625 53.03125 25.640625 53.03125 
Q 30.078125 53.03125 34.671875 50.203125 
L 31.640625 42.046875 
Q 28.421875 43.953125 25.203125 43.953125 
Q 22.3125 43.953125 20.015625 42.21875 
Q 17.71875 40.484375 16.75 37.40625 
Q 15.28125 32.71875 15.28125 27.15625 
L 15.28125 0 
z
" id="ArialMT-114"/>
      <path d="M -1.515625 -19.875 
L -1.515625 -13.53125 
L 56.734375 -13.53125 
L 56.734375 -19.875 
z
" id="ArialMT-95"/>
      <path d="M 6.59375 0 
L 6.59375 51.859375 
L 14.5 51.859375 
L 14.5 44.484375 
Q 20.21875 53.03125 31 53.03125 
Q 35.6875 53.03125 39.625 51.34375 
Q 43.5625 49.65625 45.515625 46.921875 
Q 47.46875 44.1875 48.25 40.4375 
Q 48.734375 37.984375 48.734375 31.890625 
L 48.734375 0 
L 39.9375 0 
L 39.9375 31.546875 
Q 39.9375 36.921875 38.90625 39.578125 
Q 37.890625 42.234375 35.28125 43.8125 
Q 32.671875 45.40625 29.15625 45.40625 
Q 23.53125 45.40625 19.453125 41.84375 
Q 15.375 38.28125 15.375 28.328125 
L 15.375 0 
z
" id="ArialMT-110"/>
      <path d="M 3.328125 25.921875 
Q 3.328125 40.328125 11.328125 47.265625 
Q 18.015625 53.03125 27.640625 53.03125 
Q 38.328125 53.03125 45.109375 46.015625 
Q 51.90625 39.015625 51.90625 26.65625 
Q 51.90625 16.65625 48.90625 10.90625 
Q 45.90625 5.171875 40.15625 2 
Q 34.421875 -1.171875 27.640625 -1.171875 
Q 16.75 -1.171875 10.03125 5.8125 
Q 3.328125 12.796875 3.328125 25.921875 
z
M 12.359375 25.921875 
Q 12.359375 15.96875 16.703125 11.015625 
Q 21.046875 6.0625 27.640625 6.0625 
Q 34.1875 6.0625 38.53125 11.03125 
Q 42.875 16.015625 42.875 26.21875 
Q 42.875 35.84375 38.5 40.796875 
Q 34.125 45.75 27.640625 45.75 
Q 21.046875 45.75 16.703125 40.8125 
Q 12.359375 35.890625 12.359375 25.921875 
z
" id="ArialMT-111"/>
      <path d="M 6.59375 0 
L 6.59375 51.859375 
L 14.453125 51.859375 
L 14.453125 44.578125 
Q 16.890625 48.390625 20.9375 50.703125 
Q 25 53.03125 30.171875 53.03125 
Q 35.9375 53.03125 39.625 50.640625 
Q 43.3125 48.25 44.828125 43.953125 
Q 50.984375 53.03125 60.84375 53.03125 
Q 68.5625 53.03125 72.703125 48.75 
Q 76.859375 44.484375 76.859375 35.59375 
L 76.859375 0 
L 68.109375 0 
L 68.109375 32.671875 
Q 68.109375 37.9375 67.25 40.25 
Q 66.40625 42.578125 64.15625 43.984375 
Q 61.921875 45.40625 58.890625 45.40625 
Q 53.421875 45.40625 49.796875 41.765625 
Q 46.1875 38.140625 46.1875 30.125 
L 46.1875 0 
L 37.40625 0 
L 37.40625 33.6875 
Q 37.40625 39.546875 35.25 42.46875 
Q 33.109375 45.40625 28.21875 45.40625 
Q 24.515625 45.40625 21.359375 43.453125 
Q 18.21875 41.5 16.796875 37.734375 
Q 15.375 33.984375 15.375 26.90625 
L 15.375 0 
z
" id="ArialMT-109"/>
      <path d="M 40.4375 6.390625 
Q 35.546875 2.25 31.03125 0.53125 
Q 26.515625 -1.171875 21.34375 -1.171875 
Q 12.796875 -1.171875 8.203125 3 
Q 3.609375 7.171875 3.609375 13.671875 
Q 3.609375 17.484375 5.34375 20.625 
Q 7.078125 23.78125 9.890625 25.6875 
Q 12.703125 27.59375 16.21875 28.5625 
Q 18.796875 29.25 24.03125 29.890625 
Q 34.671875 31.15625 39.703125 32.90625 
Q 39.75 34.71875 39.75 35.203125 
Q 39.75 40.578125 37.25 42.78125 
Q 33.890625 45.75 27.25 45.75 
Q 21.046875 45.75 18.09375 43.578125 
Q 15.140625 41.40625 13.71875 35.890625 
L 5.125 37.0625 
Q 6.296875 42.578125 8.984375 45.96875 
Q 11.671875 49.359375 16.75 51.1875 
Q 21.828125 53.03125 28.515625 53.03125 
Q 35.15625 53.03125 39.296875 51.46875 
Q 43.453125 49.90625 45.40625 47.53125 
Q 47.359375 45.171875 48.140625 41.546875 
Q 48.578125 39.3125 48.578125 33.453125 
L 48.578125 21.734375 
Q 48.578125 9.46875 49.140625 6.21875 
Q 49.703125 2.984375 51.375 0 
L 42.1875 0 
Q 40.828125 2.734375 40.4375 6.390625 
z
M 39.703125 26.03125 
Q 34.90625 24.078125 25.34375 22.703125 
Q 19.921875 21.921875 17.671875 20.9375 
Q 15.4375 19.96875 14.203125 18.09375 
Q 12.984375 16.21875 12.984375 13.921875 
Q 12.984375 10.40625 15.640625 8.0625 
Q 18.3125 5.71875 23.4375 5.71875 
Q 28.515625 5.71875 32.46875 7.9375 
Q 36.421875 10.15625 38.28125 14.015625 
Q 39.703125 17 39.703125 22.796875 
z
" id="ArialMT-97"/>
      <path d="M 6.390625 0 
L 6.390625 71.578125 
L 15.1875 71.578125 
L 15.1875 0 
z
" id="ArialMT-108"/>
      <path d="M 6.640625 61.46875 
L 6.640625 71.578125 
L 15.4375 71.578125 
L 15.4375 61.46875 
z
M 6.640625 0 
L 6.640625 51.859375 
L 15.4375 51.859375 
L 15.4375 0 
z
" id="ArialMT-105"/>
      <path d="M 1.953125 0 
L 1.953125 7.125 
L 34.96875 45.015625 
Q 29.34375 44.734375 25.046875 44.734375 
L 3.90625 44.734375 
L 3.90625 51.859375 
L 46.296875 51.859375 
L 46.296875 46.046875 
L 18.21875 13.140625 
L 12.796875 7.125 
Q 18.703125 7.5625 23.875 7.5625 
L 47.859375 7.5625 
L 47.859375 0 
z
" id="ArialMT-122"/>
      <path d="M 40.234375 0 
L 40.234375 6.546875 
Q 35.296875 -1.171875 25.734375 -1.171875 
Q 19.53125 -1.171875 14.328125 2.25 
Q 9.125 5.671875 6.265625 11.796875 
Q 3.421875 17.921875 3.421875 25.875 
Q 3.421875 33.640625 6 39.96875 
Q 8.59375 46.296875 13.765625 49.65625 
Q 18.953125 53.03125 25.34375 53.03125 
Q 30.03125 53.03125 33.6875 51.046875 
Q 37.359375 49.078125 39.65625 45.90625 
L 39.65625 71.578125 
L 48.390625 71.578125 
L 48.390625 0 
z
M 12.453125 25.875 
Q 12.453125 15.921875 16.640625 10.984375 
Q 20.84375 6.0625 26.5625 6.0625 
Q 32.328125 6.0625 36.34375 10.765625 
Q 40.375 15.484375 40.375 25.140625 
Q 40.375 35.796875 36.265625 40.765625 
Q 32.171875 45.75 26.171875 45.75 
Q 20.3125 45.75 16.375 40.96875 
Q 12.453125 36.1875 12.453125 25.875 
z
" id="ArialMT-100"/>
     </defs>
     <g style="fill:#262626;" transform="translate(133.385625 302.798437)scale(0.24 -0.24)">
      <use xlink:href="#ArialMT-89"/>
      <use x="66.558594" xlink:href="#ArialMT-101"/>
      <use x="122.173828" xlink:href="#ArialMT-114"/>
      <use x="155.474609" xlink:href="#ArialMT-114"/>
      <use x="188.775391" xlink:href="#ArialMT-95"/>
      <use x="244.390625" xlink:href="#ArialMT-110"/>
      <use x="300.005859" xlink:href="#ArialMT-111"/>
      <use x="355.621094" xlink:href="#ArialMT-114"/>
      <use x="388.921875" xlink:href="#ArialMT-109"/>
      <use x="472.222656" xlink:href="#ArialMT-97"/>
      <use x="527.837891" xlink:href="#ArialMT-108"/>
      <use x="550.054688" xlink:href="#ArialMT-105"/>
      <use x="572.271484" xlink:href="#ArialMT-122"/>
      <use x="622.271484" xlink:href="#ArialMT-101"/>
      <use x="677.886719" xlink:href="#ArialMT-100"/>
     </g>
    </g>
   </g>
   <g id="matplotlib.axis_2">
    <g id="ytick_1">
     <g id="line2d_5">
      <path clip-path="url(#p5a5efcdf33)" d="M 54 252 
L 388.8 252 
" style="fill:none;stroke:#cccccc;stroke-linecap:round;"/>
     </g>
     <g id="text_6">
      <!-- 0.0 -->
      <g style="fill:#262626;" transform="translate(13.92 259.873594)scale(0.22 -0.22)">
       <use xlink:href="#ArialMT-48"/>
       <use x="55.615234" xlink:href="#ArialMT-46"/>
       <use x="83.398438" xlink:href="#ArialMT-48"/>
      </g>
     </g>
    </g>
    <g id="ytick_2">
     <g id="line2d_6">
      <path clip-path="url(#p5a5efcdf33)" d="M 54 166.003157 
L 388.8 166.003157 
" style="fill:none;stroke:#cccccc;stroke-linecap:round;"/>
     </g>
     <g id="text_7">
      <!-- 0.2 -->
      <g style="fill:#262626;" transform="translate(13.92 173.876751)scale(0.22 -0.22)">
       <use xlink:href="#ArialMT-48"/>
       <use x="55.615234" xlink:href="#ArialMT-46"/>
       <use x="83.398438" xlink:href="#ArialMT-50"/>
      </g>
     </g>
    </g>
    <g id="ytick_3">
     <g id="line2d_7">
      <path clip-path="url(#p5a5efcdf33)" d="M 54 80.006314 
L 388.8 80.006314 
" style="fill:none;stroke:#cccccc;stroke-linecap:round;"/>
     </g>
     <g id="text_8">
      <!-- 0.4 -->
      <defs>
       <path d="M 32.328125 0 
L 32.328125 17.140625 
L 1.265625 17.140625 
L 1.265625 25.203125 
L 33.9375 71.578125 
L 41.109375 71.578125 
L 41.109375 25.203125 
L 50.78125 25.203125 
L 50.78125 17.140625 
L 41.109375 17.140625 
L 41.109375 0 
z
M 32.328125 25.203125 
L 32.328125 57.46875 
L 9.90625 25.203125 
z
" id="ArialMT-52"/>
      </defs>
      <g style="fill:#262626;" transform="translate(13.92 87.879907)scale(0.22 -0.22)">
       <use xlink:href="#ArialMT-48"/>
       <use x="55.615234" xlink:href="#ArialMT-46"/>
       <use x="83.398438" xlink:href="#ArialMT-52"/>
      </g>
     </g>
    </g>
   </g>
   <g id="patch_3">
    <path clip-path="url(#p5a5efcdf33)" d="M 102.616088 252 
L 116.590666 252 
L 116.590666 247.069388 
L 102.616088 247.069388 
z
" style="fill:#4c72b0;opacity:0.4;stroke:#ffffff;stroke-linejoin:miter;"/>
   </g>
   <g id="patch_4">
    <path clip-path="url(#p5a5efcdf33)" d="M 116.590666 252 
L 130.565244 252 
L 130.565244 252 
L 116.590666 252 
z
" style="fill:#4c72b0;opacity:0.4;stroke:#ffffff;stroke-linejoin:miter;"/>
   </g>
   <g id="patch_5">
    <path clip-path="url(#p5a5efcdf33)" d="M 130.565244 252 
L 144.539822 252 
L 144.539822 247.069388 
L 130.565244 247.069388 
z
" style="fill:#4c72b0;opacity:0.4;stroke:#ffffff;stroke-linejoin:miter;"/>
   </g>
   <g id="patch_6">
    <path clip-path="url(#p5a5efcdf33)" d="M 144.539822 252 
L 158.5144 252 
L 158.5144 242.138776 
L 144.539822 242.138776 
z
" style="fill:#4c72b0;opacity:0.4;stroke:#ffffff;stroke-linejoin:miter;"/>
   </g>
   <g id="patch_7">
    <path clip-path="url(#p5a5efcdf33)" d="M 158.5144 252 
L 172.488978 252 
L 172.488978 252 
L 158.5144 252 
z
" style="fill:#4c72b0;opacity:0.4;stroke:#ffffff;stroke-linejoin:miter;"/>
   </g>
   <g id="patch_8">
    <path clip-path="url(#p5a5efcdf33)" d="M 172.488978 252 
L 186.463555 252 
L 186.463555 207.62449 
L 172.488978 207.62449 
z
" style="fill:#4c72b0;opacity:0.4;stroke:#ffffff;stroke-linejoin:miter;"/>
   </g>
   <g id="patch_9">
    <path clip-path="url(#p5a5efcdf33)" d="M 186.463555 252 
L 200.438133 252 
L 200.438133 163.24898 
L 186.463555 163.24898 
z
" style="fill:#4c72b0;opacity:0.4;stroke:#ffffff;stroke-linejoin:miter;"/>
   </g>
   <g id="patch_10">
    <path clip-path="url(#p5a5efcdf33)" d="M 200.438133 252 
L 214.412711 252 
L 214.412711 109.012245 
L 200.438133 109.012245 
z
" style="fill:#4c72b0;opacity:0.4;stroke:#ffffff;stroke-linejoin:miter;"/>
   </g>
   <g id="patch_11">
    <path clip-path="url(#p5a5efcdf33)" d="M 214.412711 252 
L 228.387289 252 
L 228.387289 64.636735 
L 214.412711 64.636735 
z
" style="fill:#4c72b0;opacity:0.4;stroke:#ffffff;stroke-linejoin:miter;"/>
   </g>
   <g id="patch_12">
    <path clip-path="url(#p5a5efcdf33)" d="M 228.387289 252 
L 242.361867 252 
L 242.361867 44.914286 
L 228.387289 44.914286 
z
" style="fill:#4c72b0;opacity:0.4;stroke:#ffffff;stroke-linejoin:miter;"/>
   </g>
   <g id="patch_13">
    <path clip-path="url(#p5a5efcdf33)" d="M 242.361867 252 
L 256.336445 252 
L 256.336445 163.24898 
L 242.361867 163.24898 
z
" style="fill:#4c72b0;opacity:0.4;stroke:#ffffff;stroke-linejoin:miter;"/>
   </g>
   <g id="patch_14">
    <path clip-path="url(#p5a5efcdf33)" d="M 256.336445 252 
L 270.311022 252 
L 270.311022 168.179592 
L 256.336445 168.179592 
z
" style="fill:#4c72b0;opacity:0.4;stroke:#ffffff;stroke-linejoin:miter;"/>
   </g>
   <g id="patch_15">
    <path clip-path="url(#p5a5efcdf33)" d="M 270.311022 252 
L 284.2856 252 
L 284.2856 202.693878 
L 270.311022 202.693878 
z
" style="fill:#4c72b0;opacity:0.4;stroke:#ffffff;stroke-linejoin:miter;"/>
   </g>
   <g id="patch_16">
    <path clip-path="url(#p5a5efcdf33)" d="M 284.2856 252 
L 298.260178 252 
L 298.260178 212.555102 
L 284.2856 212.555102 
z
" style="fill:#4c72b0;opacity:0.4;stroke:#ffffff;stroke-linejoin:miter;"/>
   </g>
   <g id="patch_17">
    <path clip-path="url(#p5a5efcdf33)" d="M 298.260178 252 
L 312.234756 252 
L 312.234756 237.208163 
L 298.260178 237.208163 
z
" style="fill:#4c72b0;opacity:0.4;stroke:#ffffff;stroke-linejoin:miter;"/>
   </g>
   <g id="patch_18">
    <path clip-path="url(#p5a5efcdf33)" d="M 312.234756 252 
L 326.209334 252 
L 326.209334 237.208163 
L 312.234756 237.208163 
z
" style="fill:#4c72b0;opacity:0.4;stroke:#ffffff;stroke-linejoin:miter;"/>
   </g>
   <g id="patch_19">
    <path clip-path="url(#p5a5efcdf33)" d="M 326.209334 252 
L 340.183912 252 
L 340.183912 247.069388 
L 326.209334 247.069388 
z
" style="fill:#4c72b0;opacity:0.4;stroke:#ffffff;stroke-linejoin:miter;"/>
   </g>
   <g id="LineCollection_1">
    <path clip-path="url(#p5a5efcdf33)" d="M 225.906259 252 
L 225.906259 241.128 
" style="fill:none;stroke:#4c72b0;"/>
    <path clip-path="url(#p5a5efcdf33)" d="M 248.351544 252 
L 248.351544 241.128 
" style="fill:none;stroke:#4c72b0;"/>
    <path clip-path="url(#p5a5efcdf33)" d="M 231.22263 252 
L 231.22263 241.128 
" style="fill:none;stroke:#4c72b0;"/>
    <path clip-path="url(#p5a5efcdf33)" d="M 204.076004 252 
L 204.076004 241.128 
" style="fill:none;stroke:#4c72b0;"/>
    <path clip-path="url(#p5a5efcdf33)" d="M 210.00505 252 
L 210.00505 241.128 
" style="fill:none;stroke:#4c72b0;"/>
    <path clip-path="url(#p5a5efcdf33)" d="M 230.928714 252 
L 230.928714 241.128 
" style="fill:none;stroke:#4c72b0;"/>
    <path clip-path="url(#p5a5efcdf33)" d="M 262.437224 252 
L 262.437224 241.128 
" style="fill:none;stroke:#4c72b0;"/>
    <path clip-path="url(#p5a5efcdf33)" d="M 264.904963 252 
L 264.904963 241.128 
" style="fill:none;stroke:#4c72b0;"/>
    <path clip-path="url(#p5a5efcdf33)" d="M 256.668775 252 
L 256.668775 241.128 
" style="fill:none;stroke:#4c72b0;"/>
    <path clip-path="url(#p5a5efcdf33)" d="M 238.293809 252 
L 238.293809 241.128 
" style="fill:none;stroke:#4c72b0;"/>
    <path clip-path="url(#p5a5efcdf33)" d="M 222.62107 252 
L 222.62107 241.128 
" style="fill:none;stroke:#4c72b0;"/>
    <path clip-path="url(#p5a5efcdf33)" d="M 223.944883 252 
L 223.944883 241.128 
" style="fill:none;stroke:#4c72b0;"/>
    <path clip-path="url(#p5a5efcdf33)" d="M 261.84308 252 
L 261.84308 241.128 
" style="fill:none;stroke:#4c72b0;"/>
    <path clip-path="url(#p5a5efcdf33)" d="M 229.676783 252 
L 229.676783 241.128 
" style="fill:none;stroke:#4c72b0;"/>
    <path clip-path="url(#p5a5efcdf33)" d="M 218.316633 252 
L 218.316633 241.128 
" style="fill:none;stroke:#4c72b0;"/>
    <path clip-path="url(#p5a5efcdf33)" d="M 240.544466 252 
L 240.544466 241.128 
" style="fill:none;stroke:#4c72b0;"/>
    <path clip-path="url(#p5a5efcdf33)" d="M 210.62282 252 
L 210.62282 241.128 
" style="fill:none;stroke:#4c72b0;"/>
    <path clip-path="url(#p5a5efcdf33)" d="M 236.494218 252 
L 236.494218 241.128 
" style="fill:none;stroke:#4c72b0;"/>
    <path clip-path="url(#p5a5efcdf33)" d="M 323.353248 252 
L 323.353248 241.128 
" style="fill:none;stroke:#4c72b0;"/>
    <path clip-path="url(#p5a5efcdf33)" d="M 231.270687 252 
L 231.270687 241.128 
" style="fill:none;stroke:#4c72b0;"/>
    <path clip-path="url(#p5a5efcdf33)" d="M 207.45532 252 
L 207.45532 241.128 
" style="fill:none;stroke:#4c72b0;"/>
    <path clip-path="url(#p5a5efcdf33)" d="M 287.110446 252 
L 287.110446 241.128 
" style="fill:none;stroke:#4c72b0;"/>
    <path clip-path="url(#p5a5efcdf33)" d="M 214.682613 252 
L 214.682613 241.128 
" style="fill:none;stroke:#4c72b0;"/>
    <path clip-path="url(#p5a5efcdf33)" d="M 216.367472 252 
L 216.367472 241.128 
" style="fill:none;stroke:#4c72b0;"/>
    <path clip-path="url(#p5a5efcdf33)" d="M 210.647436 252 
L 210.647436 241.128 
" style="fill:none;stroke:#4c72b0;"/>
    <path clip-path="url(#p5a5efcdf33)" d="M 195.094822 252 
L 195.094822 241.128 
" style="fill:none;stroke:#4c72b0;"/>
    <path clip-path="url(#p5a5efcdf33)" d="M 217.96572 252 
L 217.96572 241.128 
" style="fill:none;stroke:#4c72b0;"/>
    <path clip-path="url(#p5a5efcdf33)" d="M 260.4407 252 
L 260.4407 241.128 
" style="fill:none;stroke:#4c72b0;"/>
    <path clip-path="url(#p5a5efcdf33)" d="M 201.414967 252 
L 201.414967 241.128 
" style="fill:none;stroke:#4c72b0;"/>
    <path clip-path="url(#p5a5efcdf33)" d="M 197.581052 252 
L 197.581052 241.128 
" style="fill:none;stroke:#4c72b0;"/>
    <path clip-path="url(#p5a5efcdf33)" d="M 247.536433 252 
L 247.536433 241.128 
" style="fill:none;stroke:#4c72b0;"/>
    <path clip-path="url(#p5a5efcdf33)" d="M 233.756045 252 
L 233.756045 241.128 
" style="fill:none;stroke:#4c72b0;"/>
    <path clip-path="url(#p5a5efcdf33)" d="M 275.72556 252 
L 275.72556 241.128 
" style="fill:none;stroke:#4c72b0;"/>
    <path clip-path="url(#p5a5efcdf33)" d="M 210.26379 252 
L 210.26379 241.128 
" style="fill:none;stroke:#4c72b0;"/>
    <path clip-path="url(#p5a5efcdf33)" d="M 271.012799 252 
L 271.012799 241.128 
" style="fill:none;stroke:#4c72b0;"/>
    <path clip-path="url(#p5a5efcdf33)" d="M 202.574386 252 
L 202.574386 241.128 
" style="fill:none;stroke:#4c72b0;"/>
    <path clip-path="url(#p5a5efcdf33)" d="M 225.486765 252 
L 225.486765 241.128 
" style="fill:none;stroke:#4c72b0;"/>
    <path clip-path="url(#p5a5efcdf33)" d="M 205.546747 252 
L 205.546747 241.128 
" style="fill:none;stroke:#4c72b0;"/>
    <path clip-path="url(#p5a5efcdf33)" d="M 195.973499 252 
L 195.973499 241.128 
" style="fill:none;stroke:#4c72b0;"/>
    <path clip-path="url(#p5a5efcdf33)" d="M 235.729285 252 
L 235.729285 241.128 
" style="fill:none;stroke:#4c72b0;"/>
    <path clip-path="url(#p5a5efcdf33)" d="M 305.919403 252 
L 305.919403 241.128 
" style="fill:none;stroke:#4c72b0;"/>
    <path clip-path="url(#p5a5efcdf33)" d="M 232.521528 252 
L 232.521528 241.128 
" style="fill:none;stroke:#4c72b0;"/>
    <path clip-path="url(#p5a5efcdf33)" d="M 243.622767 252 
L 243.622767 241.128 
" style="fill:none;stroke:#4c72b0;"/>
    <path clip-path="url(#p5a5efcdf33)" d="M 254.799731 252 
L 254.799731 241.128 
" style="fill:none;stroke:#4c72b0;"/>
    <path clip-path="url(#p5a5efcdf33)" d="M 291.630689 252 
L 291.630689 241.128 
" style="fill:none;stroke:#4c72b0;"/>
    <path clip-path="url(#p5a5efcdf33)" d="M 214.522916 252 
L 214.522916 241.128 
" style="fill:none;stroke:#4c72b0;"/>
    <path clip-path="url(#p5a5efcdf33)" d="M 229.163894 252 
L 229.163894 241.128 
" style="fill:none;stroke:#4c72b0;"/>
    <path clip-path="url(#p5a5efcdf33)" d="M 288.958218 252 
L 288.958218 241.128 
" style="fill:none;stroke:#4c72b0;"/>
    <path clip-path="url(#p5a5efcdf33)" d="M 209.594941 252 
L 209.594941 241.128 
" style="fill:none;stroke:#4c72b0;"/>
    <path clip-path="url(#p5a5efcdf33)" d="M 231.941755 252 
L 231.941755 241.128 
" style="fill:none;stroke:#4c72b0;"/>
    <path clip-path="url(#p5a5efcdf33)" d="M 260.52085 252 
L 260.52085 241.128 
" style="fill:none;stroke:#4c72b0;"/>
    <path clip-path="url(#p5a5efcdf33)" d="M 232.074528 252 
L 232.074528 241.128 
" style="fill:none;stroke:#4c72b0;"/>
    <path clip-path="url(#p5a5efcdf33)" d="M 236.990221 252 
L 236.990221 241.128 
" style="fill:none;stroke:#4c72b0;"/>
    <path clip-path="url(#p5a5efcdf33)" d="M 228.76732 252 
L 228.76732 241.128 
" style="fill:none;stroke:#4c72b0;"/>
    <path clip-path="url(#p5a5efcdf33)" d="M 198.040216 252 
L 198.040216 241.128 
" style="fill:none;stroke:#4c72b0;"/>
    <path clip-path="url(#p5a5efcdf33)" d="M 280.109539 252 
L 280.109539 241.128 
" style="fill:none;stroke:#4c72b0;"/>
    <path clip-path="url(#p5a5efcdf33)" d="M 224.637312 252 
L 224.637312 241.128 
" style="fill:none;stroke:#4c72b0;"/>
    <path clip-path="url(#p5a5efcdf33)" d="M 185.424434 252 
L 185.424434 241.128 
" style="fill:none;stroke:#4c72b0;"/>
    <path clip-path="url(#p5a5efcdf33)" d="M 226.869231 252 
L 226.869231 241.128 
" style="fill:none;stroke:#4c72b0;"/>
    <path clip-path="url(#p5a5efcdf33)" d="M 210.3701 252 
L 210.3701 241.128 
" style="fill:none;stroke:#4c72b0;"/>
    <path clip-path="url(#p5a5efcdf33)" d="M 204.991601 252 
L 204.991601 241.128 
" style="fill:none;stroke:#4c72b0;"/>
    <path clip-path="url(#p5a5efcdf33)" d="M 204.707956 252 
L 204.707956 241.128 
" style="fill:none;stroke:#4c72b0;"/>
    <path clip-path="url(#p5a5efcdf33)" d="M 232.079982 252 
L 232.079982 241.128 
" style="fill:none;stroke:#4c72b0;"/>
    <path clip-path="url(#p5a5efcdf33)" d="M 234.498883 252 
L 234.498883 241.128 
" style="fill:none;stroke:#4c72b0;"/>
    <path clip-path="url(#p5a5efcdf33)" d="M 226.917923 252 
L 226.917923 241.128 
" style="fill:none;stroke:#4c72b0;"/>
    <path clip-path="url(#p5a5efcdf33)" d="M 216.463339 252 
L 216.463339 241.128 
" style="fill:none;stroke:#4c72b0;"/>
    <path clip-path="url(#p5a5efcdf33)" d="M 228.288168 252 
L 228.288168 241.128 
" style="fill:none;stroke:#4c72b0;"/>
    <path clip-path="url(#p5a5efcdf33)" d="M 212.539549 252 
L 212.539549 241.128 
" style="fill:none;stroke:#4c72b0;"/>
    <path clip-path="url(#p5a5efcdf33)" d="M 253.706276 252 
L 253.706276 241.128 
" style="fill:none;stroke:#4c72b0;"/>
    <path clip-path="url(#p5a5efcdf33)" d="M 213.381396 252 
L 213.381396 241.128 
" style="fill:none;stroke:#4c72b0;"/>
    <path clip-path="url(#p5a5efcdf33)" d="M 256.585885 252 
L 256.585885 241.128 
" style="fill:none;stroke:#4c72b0;"/>
    <path clip-path="url(#p5a5efcdf33)" d="M 241.756603 252 
L 241.756603 241.128 
" style="fill:none;stroke:#4c72b0;"/>
    <path clip-path="url(#p5a5efcdf33)" d="M 251.348154 252 
L 251.348154 241.128 
" style="fill:none;stroke:#4c72b0;"/>
    <path clip-path="url(#p5a5efcdf33)" d="M 263.468523 252 
L 263.468523 241.128 
" style="fill:none;stroke:#4c72b0;"/>
    <path clip-path="url(#p5a5efcdf33)" d="M 195.532865 252 
L 195.532865 241.128 
" style="fill:none;stroke:#4c72b0;"/>
    <path clip-path="url(#p5a5efcdf33)" d="M 202.87665 252 
L 202.87665 241.128 
" style="fill:none;stroke:#4c72b0;"/>
    <path clip-path="url(#p5a5efcdf33)" d="M 185.302785 252 
L 185.302785 241.128 
" style="fill:none;stroke:#4c72b0;"/>
    <path clip-path="url(#p5a5efcdf33)" d="M 322.755629 252 
L 322.755629 241.128 
" style="fill:none;stroke:#4c72b0;"/>
    <path clip-path="url(#p5a5efcdf33)" d="M 251.04079 252 
L 251.04079 241.128 
" style="fill:none;stroke:#4c72b0;"/>
    <path clip-path="url(#p5a5efcdf33)" d="M 254.767961 252 
L 254.767961 241.128 
" style="fill:none;stroke:#4c72b0;"/>
    <path clip-path="url(#p5a5efcdf33)" d="M 222.229862 252 
L 222.229862 241.128 
" style="fill:none;stroke:#4c72b0;"/>
    <path clip-path="url(#p5a5efcdf33)" d="M 253.925177 252 
L 253.925177 241.128 
" style="fill:none;stroke:#4c72b0;"/>
    <path clip-path="url(#p5a5efcdf33)" d="M 247.93375 252 
L 247.93375 241.128 
" style="fill:none;stroke:#4c72b0;"/>
    <path clip-path="url(#p5a5efcdf33)" d="M 239.292393 252 
L 239.292393 241.128 
" style="fill:none;stroke:#4c72b0;"/>
    <path clip-path="url(#p5a5efcdf33)" d="M 266.637735 252 
L 266.637735 241.128 
" style="fill:none;stroke:#4c72b0;"/>
    <path clip-path="url(#p5a5efcdf33)" d="M 209.283238 252 
L 209.283238 241.128 
" style="fill:none;stroke:#4c72b0;"/>
    <path clip-path="url(#p5a5efcdf33)" d="M 219.669871 252 
L 219.669871 241.128 
" style="fill:none;stroke:#4c72b0;"/>
    <path clip-path="url(#p5a5efcdf33)" d="M 294.729131 252 
L 294.729131 241.128 
" style="fill:none;stroke:#4c72b0;"/>
    <path clip-path="url(#p5a5efcdf33)" d="M 206.369508 252 
L 206.369508 241.128 
" style="fill:none;stroke:#4c72b0;"/>
    <path clip-path="url(#p5a5efcdf33)" d="M 283.433248 252 
L 283.433248 241.128 
" style="fill:none;stroke:#4c72b0;"/>
    <path clip-path="url(#p5a5efcdf33)" d="M 239.334028 252 
L 239.334028 241.128 
" style="fill:none;stroke:#4c72b0;"/>
    <path clip-path="url(#p5a5efcdf33)" d="M 234.696973 252 
L 234.696973 241.128 
" style="fill:none;stroke:#4c72b0;"/>
    <path clip-path="url(#p5a5efcdf33)" d="M 297.433577 252 
L 297.433577 241.128 
" style="fill:none;stroke:#4c72b0;"/>
    <path clip-path="url(#p5a5efcdf33)" d="M 216.154678 252 
L 216.154678 241.128 
" style="fill:none;stroke:#4c72b0;"/>
    <path clip-path="url(#p5a5efcdf33)" d="M 230.865843 252 
L 230.865843 241.128 
" style="fill:none;stroke:#4c72b0;"/>
    <path clip-path="url(#p5a5efcdf33)" d="M 235.655462 252 
L 235.655462 241.128 
" style="fill:none;stroke:#4c72b0;"/>
    <path clip-path="url(#p5a5efcdf33)" d="M 272.442162 252 
L 272.442162 241.128 
" style="fill:none;stroke:#4c72b0;"/>
    <path clip-path="url(#p5a5efcdf33)" d="M 216.691492 252 
L 216.691492 241.128 
" style="fill:none;stroke:#4c72b0;"/>
    <path clip-path="url(#p5a5efcdf33)" d="M 259.645375 252 
L 259.645375 241.128 
" style="fill:none;stroke:#4c72b0;"/>
    <path clip-path="url(#p5a5efcdf33)" d="M 227.509049 252 
L 227.509049 241.128 
" style="fill:none;stroke:#4c72b0;"/>
    <path clip-path="url(#p5a5efcdf33)" d="M 228.790851 252 
L 228.790851 241.128 
" style="fill:none;stroke:#4c72b0;"/>
    <path clip-path="url(#p5a5efcdf33)" d="M 197.067368 252 
L 197.067368 241.128 
" style="fill:none;stroke:#4c72b0;"/>
    <path clip-path="url(#p5a5efcdf33)" d="M 212.620011 252 
L 212.620011 241.128 
" style="fill:none;stroke:#4c72b0;"/>
    <path clip-path="url(#p5a5efcdf33)" d="M 287.394885 252 
L 287.394885 241.128 
" style="fill:none;stroke:#4c72b0;"/>
    <path clip-path="url(#p5a5efcdf33)" d="M 308.940601 252 
L 308.940601 241.128 
" style="fill:none;stroke:#4c72b0;"/>
    <path clip-path="url(#p5a5efcdf33)" d="M 206.00543 252 
L 206.00543 241.128 
" style="fill:none;stroke:#4c72b0;"/>
    <path clip-path="url(#p5a5efcdf33)" d="M 188.791395 252 
L 188.791395 241.128 
" style="fill:none;stroke:#4c72b0;"/>
    <path clip-path="url(#p5a5efcdf33)" d="M 181.057266 252 
L 181.057266 241.128 
" style="fill:none;stroke:#4c72b0;"/>
    <path clip-path="url(#p5a5efcdf33)" d="M 174.882717 252 
L 174.882717 241.128 
" style="fill:none;stroke:#4c72b0;"/>
    <path clip-path="url(#p5a5efcdf33)" d="M 216.904069 252 
L 216.904069 241.128 
" style="fill:none;stroke:#4c72b0;"/>
    <path clip-path="url(#p5a5efcdf33)" d="M 185.298308 252 
L 185.298308 241.128 
" style="fill:none;stroke:#4c72b0;"/>
    <path clip-path="url(#p5a5efcdf33)" d="M 238.85994 252 
L 238.85994 241.128 
" style="fill:none;stroke:#4c72b0;"/>
    <path clip-path="url(#p5a5efcdf33)" d="M 225.341649 252 
L 225.341649 241.128 
" style="fill:none;stroke:#4c72b0;"/>
    <path clip-path="url(#p5a5efcdf33)" d="M 238.077504 252 
L 238.077504 241.128 
" style="fill:none;stroke:#4c72b0;"/>
    <path clip-path="url(#p5a5efcdf33)" d="M 236.879887 252 
L 236.879887 241.128 
" style="fill:none;stroke:#4c72b0;"/>
    <path clip-path="url(#p5a5efcdf33)" d="M 182.857822 252 
L 182.857822 241.128 
" style="fill:none;stroke:#4c72b0;"/>
    <path clip-path="url(#p5a5efcdf33)" d="M 228.799276 252 
L 228.799276 241.128 
" style="fill:none;stroke:#4c72b0;"/>
    <path clip-path="url(#p5a5efcdf33)" d="M 102.616088 252 
L 102.616088 241.128 
" style="fill:none;stroke:#4c72b0;"/>
    <path clip-path="url(#p5a5efcdf33)" d="M 249.651844 252 
L 249.651844 241.128 
" style="fill:none;stroke:#4c72b0;"/>
    <path clip-path="url(#p5a5efcdf33)" d="M 221.969029 252 
L 221.969029 241.128 
" style="fill:none;stroke:#4c72b0;"/>
    <path clip-path="url(#p5a5efcdf33)" d="M 228.11223 252 
L 228.11223 241.128 
" style="fill:none;stroke:#4c72b0;"/>
    <path clip-path="url(#p5a5efcdf33)" d="M 256.073696 252 
L 256.073696 241.128 
" style="fill:none;stroke:#4c72b0;"/>
    <path clip-path="url(#p5a5efcdf33)" d="M 231.619228 252 
L 231.619228 241.128 
" style="fill:none;stroke:#4c72b0;"/>
    <path clip-path="url(#p5a5efcdf33)" d="M 211.324352 252 
L 211.324352 241.128 
" style="fill:none;stroke:#4c72b0;"/>
    <path clip-path="url(#p5a5efcdf33)" d="M 195.589651 252 
L 195.589651 241.128 
" style="fill:none;stroke:#4c72b0;"/>
    <path clip-path="url(#p5a5efcdf33)" d="M 215.534797 252 
L 215.534797 241.128 
" style="fill:none;stroke:#4c72b0;"/>
    <path clip-path="url(#p5a5efcdf33)" d="M 221.031208 252 
L 221.031208 241.128 
" style="fill:none;stroke:#4c72b0;"/>
    <path clip-path="url(#p5a5efcdf33)" d="M 220.635029 252 
L 220.635029 241.128 
" style="fill:none;stroke:#4c72b0;"/>
    <path clip-path="url(#p5a5efcdf33)" d="M 220.391229 252 
L 220.391229 241.128 
" style="fill:none;stroke:#4c72b0;"/>
    <path clip-path="url(#p5a5efcdf33)" d="M 230.191839 252 
L 230.191839 241.128 
" style="fill:none;stroke:#4c72b0;"/>
    <path clip-path="url(#p5a5efcdf33)" d="M 313.29633 252 
L 313.29633 241.128 
" style="fill:none;stroke:#4c72b0;"/>
    <path clip-path="url(#p5a5efcdf33)" d="M 250.083608 252 
L 250.083608 241.128 
" style="fill:none;stroke:#4c72b0;"/>
    <path clip-path="url(#p5a5efcdf33)" d="M 223.800058 252 
L 223.800058 241.128 
" style="fill:none;stroke:#4c72b0;"/>
    <path clip-path="url(#p5a5efcdf33)" d="M 182.121852 252 
L 182.121852 241.128 
" style="fill:none;stroke:#4c72b0;"/>
    <path clip-path="url(#p5a5efcdf33)" d="M 221.338929 252 
L 221.338929 241.128 
" style="fill:none;stroke:#4c72b0;"/>
    <path clip-path="url(#p5a5efcdf33)" d="M 210.697655 252 
L 210.697655 241.128 
" style="fill:none;stroke:#4c72b0;"/>
    <path clip-path="url(#p5a5efcdf33)" d="M 231.546155 252 
L 231.546155 241.128 
" style="fill:none;stroke:#4c72b0;"/>
    <path clip-path="url(#p5a5efcdf33)" d="M 234.755509 252 
L 234.755509 241.128 
" style="fill:none;stroke:#4c72b0;"/>
    <path clip-path="url(#p5a5efcdf33)" d="M 218.944603 252 
L 218.944603 241.128 
" style="fill:none;stroke:#4c72b0;"/>
    <path clip-path="url(#p5a5efcdf33)" d="M 192.645273 252 
L 192.645273 241.128 
" style="fill:none;stroke:#4c72b0;"/>
    <path clip-path="url(#p5a5efcdf33)" d="M 240.775858 252 
L 240.775858 241.128 
" style="fill:none;stroke:#4c72b0;"/>
    <path clip-path="url(#p5a5efcdf33)" d="M 253.650131 252 
L 253.650131 241.128 
" style="fill:none;stroke:#4c72b0;"/>
    <path clip-path="url(#p5a5efcdf33)" d="M 263.447574 252 
L 263.447574 241.128 
" style="fill:none;stroke:#4c72b0;"/>
    <path clip-path="url(#p5a5efcdf33)" d="M 266.231603 252 
L 266.231603 241.128 
" style="fill:none;stroke:#4c72b0;"/>
    <path clip-path="url(#p5a5efcdf33)" d="M 186.521399 252 
L 186.521399 241.128 
" style="fill:none;stroke:#4c72b0;"/>
    <path clip-path="url(#p5a5efcdf33)" d="M 216.513122 252 
L 216.513122 241.128 
" style="fill:none;stroke:#4c72b0;"/>
    <path clip-path="url(#p5a5efcdf33)" d="M 232.956094 252 
L 232.956094 241.128 
" style="fill:none;stroke:#4c72b0;"/>
    <path clip-path="url(#p5a5efcdf33)" d="M 213.323713 252 
L 213.323713 241.128 
" style="fill:none;stroke:#4c72b0;"/>
    <path clip-path="url(#p5a5efcdf33)" d="M 307.398669 252 
L 307.398669 241.128 
" style="fill:none;stroke:#4c72b0;"/>
    <path clip-path="url(#p5a5efcdf33)" d="M 226.895336 252 
L 226.895336 241.128 
" style="fill:none;stroke:#4c72b0;"/>
    <path clip-path="url(#p5a5efcdf33)" d="M 193.414233 252 
L 193.414233 241.128 
" style="fill:none;stroke:#4c72b0;"/>
    <path clip-path="url(#p5a5efcdf33)" d="M 226.474381 252 
L 226.474381 241.128 
" style="fill:none;stroke:#4c72b0;"/>
    <path clip-path="url(#p5a5efcdf33)" d="M 218.850458 252 
L 218.850458 241.128 
" style="fill:none;stroke:#4c72b0;"/>
    <path clip-path="url(#p5a5efcdf33)" d="M 257.581726 252 
L 257.581726 241.128 
" style="fill:none;stroke:#4c72b0;"/>
    <path clip-path="url(#p5a5efcdf33)" d="M 184.481906 252 
L 184.481906 241.128 
" style="fill:none;stroke:#4c72b0;"/>
    <path clip-path="url(#p5a5efcdf33)" d="M 208.179096 252 
L 208.179096 241.128 
" style="fill:none;stroke:#4c72b0;"/>
    <path clip-path="url(#p5a5efcdf33)" d="M 245.384286 252 
L 245.384286 241.128 
" style="fill:none;stroke:#4c72b0;"/>
    <path clip-path="url(#p5a5efcdf33)" d="M 276.207975 252 
L 276.207975 241.128 
" style="fill:none;stroke:#4c72b0;"/>
    <path clip-path="url(#p5a5efcdf33)" d="M 232.488912 252 
L 232.488912 241.128 
" style="fill:none;stroke:#4c72b0;"/>
    <path clip-path="url(#p5a5efcdf33)" d="M 278.093781 252 
L 278.093781 241.128 
" style="fill:none;stroke:#4c72b0;"/>
    <path clip-path="url(#p5a5efcdf33)" d="M 196.081211 252 
L 196.081211 241.128 
" style="fill:none;stroke:#4c72b0;"/>
    <path clip-path="url(#p5a5efcdf33)" d="M 282.069324 252 
L 282.069324 241.128 
" style="fill:none;stroke:#4c72b0;"/>
    <path clip-path="url(#p5a5efcdf33)" d="M 194.204776 252 
L 194.204776 241.128 
" style="fill:none;stroke:#4c72b0;"/>
    <path clip-path="url(#p5a5efcdf33)" d="M 291.634963 252 
L 291.634963 241.128 
" style="fill:none;stroke:#4c72b0;"/>
    <path clip-path="url(#p5a5efcdf33)" d="M 248.47092 252 
L 248.47092 241.128 
" style="fill:none;stroke:#4c72b0;"/>
    <path clip-path="url(#p5a5efcdf33)" d="M 233.563973 252 
L 233.563973 241.128 
" style="fill:none;stroke:#4c72b0;"/>
    <path clip-path="url(#p5a5efcdf33)" d="M 223.530049 252 
L 223.530049 241.128 
" style="fill:none;stroke:#4c72b0;"/>
    <path clip-path="url(#p5a5efcdf33)" d="M 198.984935 252 
L 198.984935 241.128 
" style="fill:none;stroke:#4c72b0;"/>
    <path clip-path="url(#p5a5efcdf33)" d="M 240.11346 252 
L 240.11346 241.128 
" style="fill:none;stroke:#4c72b0;"/>
    <path clip-path="url(#p5a5efcdf33)" d="M 270.52712 252 
L 270.52712 241.128 
" style="fill:none;stroke:#4c72b0;"/>
    <path clip-path="url(#p5a5efcdf33)" d="M 158.360448 252 
L 158.360448 241.128 
" style="fill:none;stroke:#4c72b0;"/>
    <path clip-path="url(#p5a5efcdf33)" d="M 207.46664 252 
L 207.46664 241.128 
" style="fill:none;stroke:#4c72b0;"/>
    <path clip-path="url(#p5a5efcdf33)" d="M 198.807432 252 
L 198.807432 241.128 
" style="fill:none;stroke:#4c72b0;"/>
    <path clip-path="url(#p5a5efcdf33)" d="M 257.171586 252 
L 257.171586 241.128 
" style="fill:none;stroke:#4c72b0;"/>
    <path clip-path="url(#p5a5efcdf33)" d="M 269.406284 252 
L 269.406284 241.128 
" style="fill:none;stroke:#4c72b0;"/>
    <path clip-path="url(#p5a5efcdf33)" d="M 218.338566 252 
L 218.338566 241.128 
" style="fill:none;stroke:#4c72b0;"/>
    <path clip-path="url(#p5a5efcdf33)" d="M 233.657332 252 
L 233.657332 241.128 
" style="fill:none;stroke:#4c72b0;"/>
    <path clip-path="url(#p5a5efcdf33)" d="M 222.920118 252 
L 222.920118 241.128 
" style="fill:none;stroke:#4c72b0;"/>
    <path clip-path="url(#p5a5efcdf33)" d="M 279.879423 252 
L 279.879423 241.128 
" style="fill:none;stroke:#4c72b0;"/>
    <path clip-path="url(#p5a5efcdf33)" d="M 340.183912 252 
L 340.183912 241.128 
" style="fill:none;stroke:#4c72b0;"/>
    <path clip-path="url(#p5a5efcdf33)" d="M 235.079167 252 
L 235.079167 241.128 
" style="fill:none;stroke:#4c72b0;"/>
    <path clip-path="url(#p5a5efcdf33)" d="M 251.95155 252 
L 251.95155 241.128 
" style="fill:none;stroke:#4c72b0;"/>
    <path clip-path="url(#p5a5efcdf33)" d="M 241.877134 252 
L 241.877134 241.128 
" style="fill:none;stroke:#4c72b0;"/>
    <path clip-path="url(#p5a5efcdf33)" d="M 208.353517 252 
L 208.353517 241.128 
" style="fill:none;stroke:#4c72b0;"/>
    <path clip-path="url(#p5a5efcdf33)" d="M 256.780325 252 
L 256.780325 241.128 
" style="fill:none;stroke:#4c72b0;"/>
    <path clip-path="url(#p5a5efcdf33)" d="M 237.262006 252 
L 237.262006 241.128 
" style="fill:none;stroke:#4c72b0;"/>
    <path clip-path="url(#p5a5efcdf33)" d="M 249.239467 252 
L 249.239467 241.128 
" style="fill:none;stroke:#4c72b0;"/>
    <path clip-path="url(#p5a5efcdf33)" d="M 203.578262 252 
L 203.578262 241.128 
" style="fill:none;stroke:#4c72b0;"/>
    <path clip-path="url(#p5a5efcdf33)" d="M 204.281075 252 
L 204.281075 241.128 
" style="fill:none;stroke:#4c72b0;"/>
    <path clip-path="url(#p5a5efcdf33)" d="M 207.16304 252 
L 207.16304 241.128 
" style="fill:none;stroke:#4c72b0;"/>
    <path clip-path="url(#p5a5efcdf33)" d="M 198.492639 252 
L 198.492639 241.128 
" style="fill:none;stroke:#4c72b0;"/>
    <path clip-path="url(#p5a5efcdf33)" d="M 215.843559 252 
L 215.843559 241.128 
" style="fill:none;stroke:#4c72b0;"/>
    <path clip-path="url(#p5a5efcdf33)" d="M 154.167796 252 
L 154.167796 241.128 
" style="fill:none;stroke:#4c72b0;"/>
    <path clip-path="url(#p5a5efcdf33)" d="M 177.918708 252 
L 177.918708 241.128 
" style="fill:none;stroke:#4c72b0;"/>
    <path clip-path="url(#p5a5efcdf33)" d="M 194.46821 252 
L 194.46821 241.128 
" style="fill:none;stroke:#4c72b0;"/>
    <path clip-path="url(#p5a5efcdf33)" d="M 289.279463 252 
L 289.279463 241.128 
" style="fill:none;stroke:#4c72b0;"/>
    <path clip-path="url(#p5a5efcdf33)" d="M 240.897285 252 
L 240.897285 241.128 
" style="fill:none;stroke:#4c72b0;"/>
    <path clip-path="url(#p5a5efcdf33)" d="M 141.142197 252 
L 141.142197 241.128 
" style="fill:none;stroke:#4c72b0;"/>
    <path clip-path="url(#p5a5efcdf33)" d="M 194.462558 252 
L 194.462558 241.128 
" style="fill:none;stroke:#4c72b0;"/>
    <path clip-path="url(#p5a5efcdf33)" d="M 262.305033 252 
L 262.305033 241.128 
" style="fill:none;stroke:#4c72b0;"/>
   </g>
   <g id="line2d_8">
    <path clip-path="url(#p5a5efcdf33)" d="M 69.218182 251.956432 
L 76.407874 251.839995 
L 81.201002 251.605862 
L 85.99413 251.184764 
L 100.373515 249.589775 
L 105.166643 249.59278 
L 109.959771 249.967822 
L 117.149463 250.68332 
L 121.942591 250.831435 
L 124.339155 250.734828 
L 126.735719 250.516471 
L 131.528848 249.749653 
L 136.321976 248.672 
L 145.908232 246.362252 
L 155.494488 244.327903 
L 157.891052 243.610214 
L 160.287616 242.609582 
L 162.68418 241.182372 
L 165.080744 239.178515 
L 167.477309 236.460388 
L 169.873873 232.921347 
L 172.270437 228.499336 
L 174.667001 223.18232 
L 177.063565 217.004778 
L 179.460129 210.03727 
L 181.856693 202.372966 
L 184.253257 194.115417 
L 189.046385 176.244142 
L 196.236077 147.66251 
L 201.029205 128.781448 
L 205.822334 111.168914 
L 208.218898 103.105313 
L 210.615462 95.652607 
L 213.012026 88.889588 
L 215.40859 82.906169 
L 217.805154 77.82267 
L 220.201718 73.804765 
L 222.598282 71.064589 
L 224.994846 69.840464 
L 227.39141 70.353976 
L 229.787974 72.751944 
L 232.184538 77.048911 
L 234.581102 83.089462 
L 236.977666 90.546358 
L 239.37423 98.96065 
L 244.167359 116.631914 
L 246.563923 125.039508 
L 248.960487 132.836701 
L 251.357051 139.99158 
L 253.753615 146.607112 
L 258.546743 158.917017 
L 265.736435 176.693396 
L 268.132999 182.326193 
L 270.529563 187.612154 
L 272.926127 192.440104 
L 275.322691 196.752083 
L 277.719256 200.556696 
L 280.11582 203.923975 
L 282.512384 206.965272 
L 287.305512 212.551307 
L 296.891768 223.330364 
L 299.288332 225.82035 
L 301.684896 228.118157 
L 304.08146 230.19325 
L 306.478024 232.044033 
L 308.874588 233.694448 
L 313.667717 236.558723 
L 318.460845 239.102626 
L 323.253973 241.479652 
L 328.047101 243.652339 
L 332.840229 245.520421 
L 337.633357 247.059804 
L 342.426485 248.347471 
L 347.219613 249.465104 
L 352.012742 250.411934 
L 356.80587 251.130378 
L 361.598998 251.592334 
L 366.392126 251.837184 
L 373.581818 251.956312 
L 373.581818 251.956312 
" style="fill:none;stroke:#4c72b0;stroke-linecap:round;stroke-width:1.5;"/>
   </g>
   <g id="patch_20">
    <path d="M 54 252 
L 54 34.56 
" style="fill:none;stroke:#cccccc;stroke-linecap:square;stroke-linejoin:miter;stroke-width:1.25;"/>
   </g>
   <g id="patch_21">
    <path d="M 388.8 252 
L 388.8 34.56 
" style="fill:none;stroke:#cccccc;stroke-linecap:square;stroke-linejoin:miter;stroke-width:1.25;"/>
   </g>
   <g id="patch_22">
    <path d="M 54 252 
L 388.8 252 
" style="fill:none;stroke:#cccccc;stroke-linecap:square;stroke-linejoin:miter;stroke-width:1.25;"/>
   </g>
   <g id="patch_23">
    <path d="M 54 34.56 
L 388.8 34.56 
" style="fill:none;stroke:#cccccc;stroke-linecap:square;stroke-linejoin:miter;stroke-width:1.25;"/>
   </g>
  </g>
 </g>
 <defs>
  <clipPath id="p5a5efcdf33">
   <rect height="217.44" width="334.8" x="54" y="34.56"/>
  </clipPath>
 </defs>
</svg>
