<?xml version="1.0" encoding="utf-8" standalone="no"?>
<!DOCTYPE svg PUBLIC "-//W3C//DTD SVG 1.1//EN"
  "http://www.w3.org/Graphics/SVG/1.1/DTD/svg11.dtd">
<!-- Created with matplotlib (https://matplotlib.org/) -->
<svg height="720pt" version="1.1" viewBox="0 0 1152 720" width="1152pt" xmlns="http://www.w3.org/2000/svg" xmlns:xlink="http://www.w3.org/1999/xlink">
 <defs>
  <style type="text/css">
*{stroke-linecap:butt;stroke-linejoin:round;}
  </style>
 </defs>
 <g id="figure_1">
  <g id="patch_1">
   <path d="M 0 720 
L 1152 720 
L 1152 0 
L 0 0 
z
" style="fill:#ffffff;"/>
  </g>
  <g id="axes_1">
   <g id="patch_2">
    <path d="M 144 630 
L 1036.8 630 
L 1036.8 86.4 
L 144 86.4 
z
" style="fill:#ffffff;"/>
   </g>
   <g id="matplotlib.axis_1">
    <g id="xtick_1">
     <g id="line2d_1">
      <path clip-path="url(#pea96bf88e8)" d="M 144 630 
L 144 86.4 
" style="fill:none;stroke:#cccccc;stroke-linecap:round;"/>
     </g>
     <g id="text_1">
      <!-- 0.0 -->
      <defs>
       <path d="M 4.15625 35.296875 
Q 4.15625 48 6.765625 55.734375 
Q 9.375 63.484375 14.515625 67.671875 
Q 19.671875 71.875 27.484375 71.875 
Q 33.25 71.875 37.59375 69.546875 
Q 41.9375 67.234375 44.765625 62.859375 
Q 47.609375 58.5 49.21875 52.21875 
Q 50.828125 45.953125 50.828125 35.296875 
Q 50.828125 22.703125 48.234375 14.96875 
Q 45.65625 7.234375 40.5 3 
Q 35.359375 -1.21875 27.484375 -1.21875 
Q 17.140625 -1.21875 11.234375 6.203125 
Q 4.15625 15.140625 4.15625 35.296875 
z
M 13.1875 35.296875 
Q 13.1875 17.671875 17.3125 11.828125 
Q 21.4375 6 27.484375 6 
Q 33.546875 6 37.671875 11.859375 
Q 41.796875 17.71875 41.796875 35.296875 
Q 41.796875 52.984375 37.671875 58.78125 
Q 33.546875 64.59375 27.390625 64.59375 
Q 21.34375 64.59375 17.71875 59.46875 
Q 13.1875 52.9375 13.1875 35.296875 
z
" id="ArialMT-48"/>
       <path d="M 9.078125 0 
L 9.078125 10.015625 
L 19.09375 10.015625 
L 19.09375 0 
z
" id="ArialMT-46"/>
      </defs>
      <g style="fill:#262626;" transform="translate(128.71 655.247187)scale(0.22 -0.22)">
       <use xlink:href="#ArialMT-48"/>
       <use x="55.615234" xlink:href="#ArialMT-46"/>
       <use x="83.398438" xlink:href="#ArialMT-48"/>
      </g>
     </g>
    </g>
    <g id="xtick_2">
     <g id="line2d_2">
      <path clip-path="url(#pea96bf88e8)" d="M 322.56 630 
L 322.56 86.4 
" style="fill:none;stroke:#cccccc;stroke-linecap:round;"/>
     </g>
     <g id="text_2">
      <!-- 0.2 -->
      <defs>
       <path d="M 50.34375 8.453125 
L 50.34375 0 
L 3.03125 0 
Q 2.9375 3.171875 4.046875 6.109375 
Q 5.859375 10.9375 9.828125 15.625 
Q 13.8125 20.3125 21.34375 26.46875 
Q 33.015625 36.03125 37.109375 41.625 
Q 41.21875 47.21875 41.21875 52.203125 
Q 41.21875 57.421875 37.46875 61 
Q 33.734375 64.59375 27.734375 64.59375 
Q 21.390625 64.59375 17.578125 60.78125 
Q 13.765625 56.984375 13.71875 50.25 
L 4.6875 51.171875 
Q 5.609375 61.28125 11.65625 66.578125 
Q 17.71875 71.875 27.9375 71.875 
Q 38.234375 71.875 44.234375 66.15625 
Q 50.25 60.453125 50.25 52 
Q 50.25 47.703125 48.484375 43.546875 
Q 46.734375 39.40625 42.65625 34.8125 
Q 38.578125 30.21875 29.109375 22.21875 
Q 21.1875 15.578125 18.9375 13.203125 
Q 16.703125 10.84375 15.234375 8.453125 
z
" id="ArialMT-50"/>
      </defs>
      <g style="fill:#262626;" transform="translate(307.27 655.247187)scale(0.22 -0.22)">
       <use xlink:href="#ArialMT-48"/>
       <use x="55.615234" xlink:href="#ArialMT-46"/>
       <use x="83.398438" xlink:href="#ArialMT-50"/>
      </g>
     </g>
    </g>
    <g id="xtick_3">
     <g id="line2d_3">
      <path clip-path="url(#pea96bf88e8)" d="M 501.12 630 
L 501.12 86.4 
" style="fill:none;stroke:#cccccc;stroke-linecap:round;"/>
     </g>
     <g id="text_3">
      <!-- 0.4 -->
      <defs>
       <path d="M 32.328125 0 
L 32.328125 17.140625 
L 1.265625 17.140625 
L 1.265625 25.203125 
L 33.9375 71.578125 
L 41.109375 71.578125 
L 41.109375 25.203125 
L 50.78125 25.203125 
L 50.78125 17.140625 
L 41.109375 17.140625 
L 41.109375 0 
z
M 32.328125 25.203125 
L 32.328125 57.46875 
L 9.90625 25.203125 
z
" id="ArialMT-52"/>
      </defs>
      <g style="fill:#262626;" transform="translate(485.83 655.247187)scale(0.22 -0.22)">
       <use xlink:href="#ArialMT-48"/>
       <use x="55.615234" xlink:href="#ArialMT-46"/>
       <use x="83.398438" xlink:href="#ArialMT-52"/>
      </g>
     </g>
    </g>
    <g id="xtick_4">
     <g id="line2d_4">
      <path clip-path="url(#pea96bf88e8)" d="M 679.68 630 
L 679.68 86.4 
" style="fill:none;stroke:#cccccc;stroke-linecap:round;"/>
     </g>
     <g id="text_4">
      <!-- 0.6 -->
      <defs>
       <path d="M 49.75 54.046875 
L 41.015625 53.375 
Q 39.84375 58.546875 37.703125 60.890625 
Q 34.125 64.65625 28.90625 64.65625 
Q 24.703125 64.65625 21.53125 62.3125 
Q 17.390625 59.28125 14.984375 53.46875 
Q 12.59375 47.65625 12.5 36.921875 
Q 15.671875 41.75 20.265625 44.09375 
Q 24.859375 46.4375 29.890625 46.4375 
Q 38.671875 46.4375 44.84375 39.96875 
Q 51.03125 33.5 51.03125 23.25 
Q 51.03125 16.5 48.125 10.71875 
Q 45.21875 4.9375 40.140625 1.859375 
Q 35.0625 -1.21875 28.609375 -1.21875 
Q 17.625 -1.21875 10.6875 6.859375 
Q 3.765625 14.9375 3.765625 33.5 
Q 3.765625 54.25 11.421875 63.671875 
Q 18.109375 71.875 29.4375 71.875 
Q 37.890625 71.875 43.28125 67.140625 
Q 48.6875 62.40625 49.75 54.046875 
z
M 13.875 23.1875 
Q 13.875 18.65625 15.796875 14.5 
Q 17.71875 10.359375 21.1875 8.171875 
Q 24.65625 6 28.46875 6 
Q 34.03125 6 38.03125 10.484375 
Q 42.046875 14.984375 42.046875 22.703125 
Q 42.046875 30.125 38.078125 34.390625 
Q 34.125 38.671875 28.125 38.671875 
Q 22.171875 38.671875 18.015625 34.390625 
Q 13.875 30.125 13.875 23.1875 
z
" id="ArialMT-54"/>
      </defs>
      <g style="fill:#262626;" transform="translate(664.39 655.247187)scale(0.22 -0.22)">
       <use xlink:href="#ArialMT-48"/>
       <use x="55.615234" xlink:href="#ArialMT-46"/>
       <use x="83.398438" xlink:href="#ArialMT-54"/>
      </g>
     </g>
    </g>
    <g id="xtick_5">
     <g id="line2d_5">
      <path clip-path="url(#pea96bf88e8)" d="M 858.24 630 
L 858.24 86.4 
" style="fill:none;stroke:#cccccc;stroke-linecap:round;"/>
     </g>
     <g id="text_5">
      <!-- 0.8 -->
      <defs>
       <path d="M 17.671875 38.8125 
Q 12.203125 40.828125 9.5625 44.53125 
Q 6.9375 48.25 6.9375 53.421875 
Q 6.9375 61.234375 12.546875 66.546875 
Q 18.171875 71.875 27.484375 71.875 
Q 36.859375 71.875 42.578125 66.421875 
Q 48.296875 60.984375 48.296875 53.171875 
Q 48.296875 48.1875 45.671875 44.5 
Q 43.0625 40.828125 37.75 38.8125 
Q 44.34375 36.671875 47.78125 31.875 
Q 51.21875 27.09375 51.21875 20.453125 
Q 51.21875 11.28125 44.71875 5.03125 
Q 38.234375 -1.21875 27.640625 -1.21875 
Q 17.046875 -1.21875 10.546875 5.046875 
Q 4.046875 11.328125 4.046875 20.703125 
Q 4.046875 27.6875 7.59375 32.390625 
Q 11.140625 37.109375 17.671875 38.8125 
z
M 15.921875 53.71875 
Q 15.921875 48.640625 19.1875 45.40625 
Q 22.46875 42.1875 27.6875 42.1875 
Q 32.765625 42.1875 36.015625 45.375 
Q 39.265625 48.578125 39.265625 53.21875 
Q 39.265625 58.0625 35.90625 61.359375 
Q 32.5625 64.65625 27.59375 64.65625 
Q 22.5625 64.65625 19.234375 61.421875 
Q 15.921875 58.203125 15.921875 53.71875 
z
M 13.09375 20.65625 
Q 13.09375 16.890625 14.875 13.375 
Q 16.65625 9.859375 20.171875 7.921875 
Q 23.6875 6 27.734375 6 
Q 34.03125 6 38.125 10.046875 
Q 42.234375 14.109375 42.234375 20.359375 
Q 42.234375 26.703125 38.015625 30.859375 
Q 33.796875 35.015625 27.4375 35.015625 
Q 21.234375 35.015625 17.15625 30.90625 
Q 13.09375 26.8125 13.09375 20.65625 
z
" id="ArialMT-56"/>
      </defs>
      <g style="fill:#262626;" transform="translate(842.95 655.247187)scale(0.22 -0.22)">
       <use xlink:href="#ArialMT-48"/>
       <use x="55.615234" xlink:href="#ArialMT-46"/>
       <use x="83.398438" xlink:href="#ArialMT-56"/>
      </g>
     </g>
    </g>
    <g id="xtick_6">
     <g id="line2d_6">
      <path clip-path="url(#pea96bf88e8)" d="M 1036.8 630 
L 1036.8 86.4 
" style="fill:none;stroke:#cccccc;stroke-linecap:round;"/>
     </g>
     <g id="text_6">
      <!-- 1.0 -->
      <defs>
       <path d="M 37.25 0 
L 28.46875 0 
L 28.46875 56 
Q 25.296875 52.984375 20.140625 49.953125 
Q 14.984375 46.921875 10.890625 45.40625 
L 10.890625 53.90625 
Q 18.265625 57.375 23.78125 62.296875 
Q 29.296875 67.234375 31.59375 71.875 
L 37.25 71.875 
z
" id="ArialMT-49"/>
      </defs>
      <g style="fill:#262626;" transform="translate(1021.51 655.247187)scale(0.22 -0.22)">
       <use xlink:href="#ArialMT-49"/>
       <use x="55.615234" xlink:href="#ArialMT-46"/>
       <use x="83.398438" xlink:href="#ArialMT-48"/>
      </g>
     </g>
    </g>
    <g id="text_7">
     <!-- Simulation Result -->
     <defs>
      <path d="M 4.5 23 
L 13.421875 23.78125 
Q 14.0625 18.40625 16.375 14.96875 
Q 18.703125 11.53125 23.578125 9.40625 
Q 28.46875 7.28125 34.578125 7.28125 
Q 39.984375 7.28125 44.140625 8.890625 
Q 48.296875 10.5 50.3125 13.296875 
Q 52.34375 16.109375 52.34375 19.4375 
Q 52.34375 22.796875 50.390625 25.3125 
Q 48.4375 27.828125 43.953125 29.546875 
Q 41.0625 30.671875 31.203125 33.03125 
Q 21.34375 35.40625 17.390625 37.5 
Q 12.25 40.1875 9.734375 44.15625 
Q 7.234375 48.140625 7.234375 53.078125 
Q 7.234375 58.5 10.296875 63.203125 
Q 13.375 67.921875 19.28125 70.359375 
Q 25.203125 72.796875 32.421875 72.796875 
Q 40.375 72.796875 46.453125 70.234375 
Q 52.546875 67.671875 55.8125 62.6875 
Q 59.078125 57.71875 59.328125 51.421875 
L 50.25 50.734375 
Q 49.515625 57.515625 45.28125 60.984375 
Q 41.0625 64.453125 32.8125 64.453125 
Q 24.21875 64.453125 20.28125 61.296875 
Q 16.359375 58.15625 16.359375 53.71875 
Q 16.359375 49.859375 19.140625 47.359375 
Q 21.875 44.875 33.421875 42.265625 
Q 44.96875 39.65625 49.265625 37.703125 
Q 55.515625 34.8125 58.484375 30.390625 
Q 61.46875 25.984375 61.46875 20.21875 
Q 61.46875 14.5 58.203125 9.4375 
Q 54.9375 4.390625 48.796875 1.578125 
Q 42.671875 -1.21875 35.015625 -1.21875 
Q 25.296875 -1.21875 18.71875 1.609375 
Q 12.15625 4.4375 8.421875 10.125 
Q 4.6875 15.828125 4.5 23 
z
" id="ArialMT-83"/>
      <path d="M 6.640625 61.46875 
L 6.640625 71.578125 
L 15.4375 71.578125 
L 15.4375 61.46875 
z
M 6.640625 0 
L 6.640625 51.859375 
L 15.4375 51.859375 
L 15.4375 0 
z
" id="ArialMT-105"/>
      <path d="M 6.59375 0 
L 6.59375 51.859375 
L 14.453125 51.859375 
L 14.453125 44.578125 
Q 16.890625 48.390625 20.9375 50.703125 
Q 25 53.03125 30.171875 53.03125 
Q 35.9375 53.03125 39.625 50.640625 
Q 43.3125 48.25 44.828125 43.953125 
Q 50.984375 53.03125 60.84375 53.03125 
Q 68.5625 53.03125 72.703125 48.75 
Q 76.859375 44.484375 76.859375 35.59375 
L 76.859375 0 
L 68.109375 0 
L 68.109375 32.671875 
Q 68.109375 37.9375 67.25 40.25 
Q 66.40625 42.578125 64.15625 43.984375 
Q 61.921875 45.40625 58.890625 45.40625 
Q 53.421875 45.40625 49.796875 41.765625 
Q 46.1875 38.140625 46.1875 30.125 
L 46.1875 0 
L 37.40625 0 
L 37.40625 33.6875 
Q 37.40625 39.546875 35.25 42.46875 
Q 33.109375 45.40625 28.21875 45.40625 
Q 24.515625 45.40625 21.359375 43.453125 
Q 18.21875 41.5 16.796875 37.734375 
Q 15.375 33.984375 15.375 26.90625 
L 15.375 0 
z
" id="ArialMT-109"/>
      <path d="M 40.578125 0 
L 40.578125 7.625 
Q 34.515625 -1.171875 24.125 -1.171875 
Q 19.53125 -1.171875 15.546875 0.578125 
Q 11.578125 2.34375 9.640625 5 
Q 7.71875 7.671875 6.9375 11.53125 
Q 6.390625 14.109375 6.390625 19.734375 
L 6.390625 51.859375 
L 15.1875 51.859375 
L 15.1875 23.09375 
Q 15.1875 16.21875 15.71875 13.8125 
Q 16.546875 10.359375 19.234375 8.375 
Q 21.921875 6.390625 25.875 6.390625 
Q 29.828125 6.390625 33.296875 8.421875 
Q 36.765625 10.453125 38.203125 13.9375 
Q 39.65625 17.4375 39.65625 24.078125 
L 39.65625 51.859375 
L 48.4375 51.859375 
L 48.4375 0 
z
" id="ArialMT-117"/>
      <path d="M 6.390625 0 
L 6.390625 71.578125 
L 15.1875 71.578125 
L 15.1875 0 
z
" id="ArialMT-108"/>
      <path d="M 40.4375 6.390625 
Q 35.546875 2.25 31.03125 0.53125 
Q 26.515625 -1.171875 21.34375 -1.171875 
Q 12.796875 -1.171875 8.203125 3 
Q 3.609375 7.171875 3.609375 13.671875 
Q 3.609375 17.484375 5.34375 20.625 
Q 7.078125 23.78125 9.890625 25.6875 
Q 12.703125 27.59375 16.21875 28.5625 
Q 18.796875 29.25 24.03125 29.890625 
Q 34.671875 31.15625 39.703125 32.90625 
Q 39.75 34.71875 39.75 35.203125 
Q 39.75 40.578125 37.25 42.78125 
Q 33.890625 45.75 27.25 45.75 
Q 21.046875 45.75 18.09375 43.578125 
Q 15.140625 41.40625 13.71875 35.890625 
L 5.125 37.0625 
Q 6.296875 42.578125 8.984375 45.96875 
Q 11.671875 49.359375 16.75 51.1875 
Q 21.828125 53.03125 28.515625 53.03125 
Q 35.15625 53.03125 39.296875 51.46875 
Q 43.453125 49.90625 45.40625 47.53125 
Q 47.359375 45.171875 48.140625 41.546875 
Q 48.578125 39.3125 48.578125 33.453125 
L 48.578125 21.734375 
Q 48.578125 9.46875 49.140625 6.21875 
Q 49.703125 2.984375 51.375 0 
L 42.1875 0 
Q 40.828125 2.734375 40.4375 6.390625 
z
M 39.703125 26.03125 
Q 34.90625 24.078125 25.34375 22.703125 
Q 19.921875 21.921875 17.671875 20.9375 
Q 15.4375 19.96875 14.203125 18.09375 
Q 12.984375 16.21875 12.984375 13.921875 
Q 12.984375 10.40625 15.640625 8.0625 
Q 18.3125 5.71875 23.4375 5.71875 
Q 28.515625 5.71875 32.46875 7.9375 
Q 36.421875 10.15625 38.28125 14.015625 
Q 39.703125 17 39.703125 22.796875 
z
" id="ArialMT-97"/>
      <path d="M 25.78125 7.859375 
L 27.046875 0.09375 
Q 23.34375 -0.6875 20.40625 -0.6875 
Q 15.625 -0.6875 12.984375 0.828125 
Q 10.359375 2.34375 9.28125 4.8125 
Q 8.203125 7.28125 8.203125 15.1875 
L 8.203125 45.015625 
L 1.765625 45.015625 
L 1.765625 51.859375 
L 8.203125 51.859375 
L 8.203125 64.703125 
L 16.9375 69.96875 
L 16.9375 51.859375 
L 25.78125 51.859375 
L 25.78125 45.015625 
L 16.9375 45.015625 
L 16.9375 14.703125 
Q 16.9375 10.9375 17.40625 9.859375 
Q 17.875 8.796875 18.921875 8.15625 
Q 19.96875 7.515625 21.921875 7.515625 
Q 23.390625 7.515625 25.78125 7.859375 
z
" id="ArialMT-116"/>
      <path d="M 3.328125 25.921875 
Q 3.328125 40.328125 11.328125 47.265625 
Q 18.015625 53.03125 27.640625 53.03125 
Q 38.328125 53.03125 45.109375 46.015625 
Q 51.90625 39.015625 51.90625 26.65625 
Q 51.90625 16.65625 48.90625 10.90625 
Q 45.90625 5.171875 40.15625 2 
Q 34.421875 -1.171875 27.640625 -1.171875 
Q 16.75 -1.171875 10.03125 5.8125 
Q 3.328125 12.796875 3.328125 25.921875 
z
M 12.359375 25.921875 
Q 12.359375 15.96875 16.703125 11.015625 
Q 21.046875 6.0625 27.640625 6.0625 
Q 34.1875 6.0625 38.53125 11.03125 
Q 42.875 16.015625 42.875 26.21875 
Q 42.875 35.84375 38.5 40.796875 
Q 34.125 45.75 27.640625 45.75 
Q 21.046875 45.75 16.703125 40.8125 
Q 12.359375 35.890625 12.359375 25.921875 
z
" id="ArialMT-111"/>
      <path d="M 6.59375 0 
L 6.59375 51.859375 
L 14.5 51.859375 
L 14.5 44.484375 
Q 20.21875 53.03125 31 53.03125 
Q 35.6875 53.03125 39.625 51.34375 
Q 43.5625 49.65625 45.515625 46.921875 
Q 47.46875 44.1875 48.25 40.4375 
Q 48.734375 37.984375 48.734375 31.890625 
L 48.734375 0 
L 39.9375 0 
L 39.9375 31.546875 
Q 39.9375 36.921875 38.90625 39.578125 
Q 37.890625 42.234375 35.28125 43.8125 
Q 32.671875 45.40625 29.15625 45.40625 
Q 23.53125 45.40625 19.453125 41.84375 
Q 15.375 38.28125 15.375 28.328125 
L 15.375 0 
z
" id="ArialMT-110"/>
      <path id="ArialMT-32"/>
      <path d="M 7.859375 0 
L 7.859375 71.578125 
L 39.59375 71.578125 
Q 49.171875 71.578125 54.140625 69.640625 
Q 59.125 67.71875 62.109375 62.828125 
Q 65.09375 57.953125 65.09375 52.046875 
Q 65.09375 44.4375 60.15625 39.203125 
Q 55.21875 33.984375 44.921875 32.5625 
Q 48.6875 30.765625 50.640625 29 
Q 54.78125 25.203125 58.5 19.484375 
L 70.953125 0 
L 59.03125 0 
L 49.5625 14.890625 
Q 45.40625 21.34375 42.71875 24.75 
Q 40.046875 28.171875 37.921875 29.53125 
Q 35.796875 30.90625 33.59375 31.453125 
Q 31.984375 31.78125 28.328125 31.78125 
L 17.328125 31.78125 
L 17.328125 0 
z
M 17.328125 39.984375 
L 37.703125 39.984375 
Q 44.1875 39.984375 47.84375 41.328125 
Q 51.515625 42.671875 53.421875 45.625 
Q 55.328125 48.578125 55.328125 52.046875 
Q 55.328125 57.125 51.640625 60.390625 
Q 47.953125 63.671875 39.984375 63.671875 
L 17.328125 63.671875 
z
" id="ArialMT-82"/>
      <path d="M 42.09375 16.703125 
L 51.171875 15.578125 
Q 49.03125 7.625 43.21875 3.21875 
Q 37.40625 -1.171875 28.375 -1.171875 
Q 17 -1.171875 10.328125 5.828125 
Q 3.65625 12.84375 3.65625 25.484375 
Q 3.65625 38.578125 10.390625 45.796875 
Q 17.140625 53.03125 27.875 53.03125 
Q 38.28125 53.03125 44.875 45.953125 
Q 51.46875 38.875 51.46875 26.03125 
Q 51.46875 25.25 51.421875 23.6875 
L 12.75 23.6875 
Q 13.234375 15.140625 17.578125 10.59375 
Q 21.921875 6.0625 28.421875 6.0625 
Q 33.25 6.0625 36.671875 8.59375 
Q 40.09375 11.140625 42.09375 16.703125 
z
M 13.234375 30.90625 
L 42.1875 30.90625 
Q 41.609375 37.453125 38.875 40.71875 
Q 34.671875 45.796875 27.984375 45.796875 
Q 21.921875 45.796875 17.796875 41.75 
Q 13.671875 37.703125 13.234375 30.90625 
z
" id="ArialMT-101"/>
      <path d="M 3.078125 15.484375 
L 11.765625 16.84375 
Q 12.5 11.625 15.84375 8.84375 
Q 19.1875 6.0625 25.203125 6.0625 
Q 31.25 6.0625 34.171875 8.515625 
Q 37.109375 10.984375 37.109375 14.3125 
Q 37.109375 17.28125 34.515625 19 
Q 32.71875 20.171875 25.53125 21.96875 
Q 15.875 24.421875 12.140625 26.203125 
Q 8.40625 27.984375 6.46875 31.125 
Q 4.546875 34.28125 4.546875 38.09375 
Q 4.546875 41.546875 6.125 44.5 
Q 7.71875 47.46875 10.453125 49.421875 
Q 12.5 50.921875 16.03125 51.96875 
Q 19.578125 53.03125 23.640625 53.03125 
Q 29.734375 53.03125 34.34375 51.265625 
Q 38.96875 49.515625 41.15625 46.5 
Q 43.359375 43.5 44.1875 38.484375 
L 35.59375 37.3125 
Q 35.015625 41.3125 32.203125 43.546875 
Q 29.390625 45.796875 24.265625 45.796875 
Q 18.21875 45.796875 15.625 43.796875 
Q 13.03125 41.796875 13.03125 39.109375 
Q 13.03125 37.40625 14.109375 36.03125 
Q 15.1875 34.625 17.484375 33.6875 
Q 18.796875 33.203125 25.25 31.453125 
Q 34.578125 28.953125 38.25 27.359375 
Q 41.9375 25.78125 44.03125 22.75 
Q 46.140625 19.734375 46.140625 15.234375 
Q 46.140625 10.84375 43.578125 6.953125 
Q 41.015625 3.078125 36.171875 0.953125 
Q 31.34375 -1.171875 25.25 -1.171875 
Q 15.140625 -1.171875 9.84375 3.03125 
Q 4.546875 7.234375 3.078125 15.484375 
z
" id="ArialMT-115"/>
     </defs>
     <g style="fill:#262626;" transform="translate(497.02875 680.798437)scale(0.24 -0.24)">
      <use xlink:href="#ArialMT-83"/>
      <use x="66.699219" xlink:href="#ArialMT-105"/>
      <use x="88.916016" xlink:href="#ArialMT-109"/>
      <use x="172.216797" xlink:href="#ArialMT-117"/>
      <use x="227.832031" xlink:href="#ArialMT-108"/>
      <use x="250.048828" xlink:href="#ArialMT-97"/>
      <use x="305.664062" xlink:href="#ArialMT-116"/>
      <use x="333.447266" xlink:href="#ArialMT-105"/>
      <use x="355.664062" xlink:href="#ArialMT-111"/>
      <use x="411.279297" xlink:href="#ArialMT-110"/>
      <use x="466.894531" xlink:href="#ArialMT-32"/>
      <use x="494.677734" xlink:href="#ArialMT-82"/>
      <use x="566.894531" xlink:href="#ArialMT-101"/>
      <use x="622.509766" xlink:href="#ArialMT-115"/>
      <use x="672.509766" xlink:href="#ArialMT-117"/>
      <use x="728.125" xlink:href="#ArialMT-108"/>
      <use x="750.341797" xlink:href="#ArialMT-116"/>
     </g>
    </g>
   </g>
   <g id="matplotlib.axis_2">
    <g id="ytick_1">
     <g id="line2d_7">
      <path clip-path="url(#pea96bf88e8)" d="M 144 587.264251 
L 1036.8 587.264251 
" style="fill:none;stroke:#cccccc;stroke-linecap:round;"/>
     </g>
     <g id="text_8">
      <!-- 0.0 -->
      <g style="fill:#262626;" transform="translate(103.92 595.137845)scale(0.22 -0.22)">
       <use xlink:href="#ArialMT-48"/>
       <use x="55.615234" xlink:href="#ArialMT-46"/>
       <use x="83.398438" xlink:href="#ArialMT-48"/>
      </g>
     </g>
    </g>
    <g id="ytick_2">
     <g id="line2d_8">
      <path clip-path="url(#pea96bf88e8)" d="M 144 513.834794 
L 1036.8 513.834794 
" style="fill:none;stroke:#cccccc;stroke-linecap:round;"/>
     </g>
     <g id="text_9">
      <!-- 0.2 -->
      <g style="fill:#262626;" transform="translate(103.92 521.708387)scale(0.22 -0.22)">
       <use xlink:href="#ArialMT-48"/>
       <use x="55.615234" xlink:href="#ArialMT-46"/>
       <use x="83.398438" xlink:href="#ArialMT-50"/>
      </g>
     </g>
    </g>
    <g id="ytick_3">
     <g id="line2d_9">
      <path clip-path="url(#pea96bf88e8)" d="M 144 440.405336 
L 1036.8 440.405336 
" style="fill:none;stroke:#cccccc;stroke-linecap:round;"/>
     </g>
     <g id="text_10">
      <!-- 0.4 -->
      <g style="fill:#262626;" transform="translate(103.92 448.278929)scale(0.22 -0.22)">
       <use xlink:href="#ArialMT-48"/>
       <use x="55.615234" xlink:href="#ArialMT-46"/>
       <use x="83.398438" xlink:href="#ArialMT-52"/>
      </g>
     </g>
    </g>
    <g id="ytick_4">
     <g id="line2d_10">
      <path clip-path="url(#pea96bf88e8)" d="M 144 366.975878 
L 1036.8 366.975878 
" style="fill:none;stroke:#cccccc;stroke-linecap:round;"/>
     </g>
     <g id="text_11">
      <!-- 0.6 -->
      <g style="fill:#262626;" transform="translate(103.92 374.849471)scale(0.22 -0.22)">
       <use xlink:href="#ArialMT-48"/>
       <use x="55.615234" xlink:href="#ArialMT-46"/>
       <use x="83.398438" xlink:href="#ArialMT-54"/>
      </g>
     </g>
    </g>
    <g id="ytick_5">
     <g id="line2d_11">
      <path clip-path="url(#pea96bf88e8)" d="M 144 293.54642 
L 1036.8 293.54642 
" style="fill:none;stroke:#cccccc;stroke-linecap:round;"/>
     </g>
     <g id="text_12">
      <!-- 0.8 -->
      <g style="fill:#262626;" transform="translate(103.92 301.420013)scale(0.22 -0.22)">
       <use xlink:href="#ArialMT-48"/>
       <use x="55.615234" xlink:href="#ArialMT-46"/>
       <use x="83.398438" xlink:href="#ArialMT-56"/>
      </g>
     </g>
    </g>
    <g id="ytick_6">
     <g id="line2d_12">
      <path clip-path="url(#pea96bf88e8)" d="M 144 220.116962 
L 1036.8 220.116962 
" style="fill:none;stroke:#cccccc;stroke-linecap:round;"/>
     </g>
     <g id="text_13">
      <!-- 1.0 -->
      <g style="fill:#262626;" transform="translate(103.92 227.990556)scale(0.22 -0.22)">
       <use xlink:href="#ArialMT-49"/>
       <use x="55.615234" xlink:href="#ArialMT-46"/>
       <use x="83.398438" xlink:href="#ArialMT-48"/>
      </g>
     </g>
    </g>
    <g id="ytick_7">
     <g id="line2d_13">
      <path clip-path="url(#pea96bf88e8)" d="M 144 146.687504 
L 1036.8 146.687504 
" style="fill:none;stroke:#cccccc;stroke-linecap:round;"/>
     </g>
     <g id="text_14">
      <!-- 1.2 -->
      <g style="fill:#262626;" transform="translate(103.92 154.561098)scale(0.22 -0.22)">
       <use xlink:href="#ArialMT-49"/>
       <use x="55.615234" xlink:href="#ArialMT-46"/>
       <use x="83.398438" xlink:href="#ArialMT-50"/>
      </g>
     </g>
    </g>
    <g id="text_15">
     <!-- Predicted -->
     <defs>
      <path d="M 7.71875 0 
L 7.71875 71.578125 
L 34.71875 71.578125 
Q 41.84375 71.578125 45.609375 70.90625 
Q 50.875 70.015625 54.4375 67.546875 
Q 58.015625 65.09375 60.1875 60.640625 
Q 62.359375 56.203125 62.359375 50.875 
Q 62.359375 41.75 56.546875 35.421875 
Q 50.734375 29.109375 35.546875 29.109375 
L 17.1875 29.109375 
L 17.1875 0 
z
M 17.1875 37.546875 
L 35.6875 37.546875 
Q 44.875 37.546875 48.734375 40.96875 
Q 52.59375 44.390625 52.59375 50.59375 
Q 52.59375 55.078125 50.3125 58.265625 
Q 48.046875 61.46875 44.34375 62.5 
Q 41.9375 63.140625 35.5 63.140625 
L 17.1875 63.140625 
z
" id="ArialMT-80"/>
      <path d="M 6.5 0 
L 6.5 51.859375 
L 14.40625 51.859375 
L 14.40625 44 
Q 17.4375 49.515625 20 51.265625 
Q 22.5625 53.03125 25.640625 53.03125 
Q 30.078125 53.03125 34.671875 50.203125 
L 31.640625 42.046875 
Q 28.421875 43.953125 25.203125 43.953125 
Q 22.3125 43.953125 20.015625 42.21875 
Q 17.71875 40.484375 16.75 37.40625 
Q 15.28125 32.71875 15.28125 27.15625 
L 15.28125 0 
z
" id="ArialMT-114"/>
      <path d="M 40.234375 0 
L 40.234375 6.546875 
Q 35.296875 -1.171875 25.734375 -1.171875 
Q 19.53125 -1.171875 14.328125 2.25 
Q 9.125 5.671875 6.265625 11.796875 
Q 3.421875 17.921875 3.421875 25.875 
Q 3.421875 33.640625 6 39.96875 
Q 8.59375 46.296875 13.765625 49.65625 
Q 18.953125 53.03125 25.34375 53.03125 
Q 30.03125 53.03125 33.6875 51.046875 
Q 37.359375 49.078125 39.65625 45.90625 
L 39.65625 71.578125 
L 48.390625 71.578125 
L 48.390625 0 
z
M 12.453125 25.875 
Q 12.453125 15.921875 16.640625 10.984375 
Q 20.84375 6.0625 26.5625 6.0625 
Q 32.328125 6.0625 36.34375 10.765625 
Q 40.375 15.484375 40.375 25.140625 
Q 40.375 35.796875 36.265625 40.765625 
Q 32.171875 45.75 26.171875 45.75 
Q 20.3125 45.75 16.375 40.96875 
Q 12.453125 36.1875 12.453125 25.875 
z
" id="ArialMT-100"/>
      <path d="M 40.4375 19 
L 49.078125 17.875 
Q 47.65625 8.9375 41.8125 3.875 
Q 35.984375 -1.171875 27.484375 -1.171875 
Q 16.84375 -1.171875 10.375 5.78125 
Q 3.90625 12.75 3.90625 25.734375 
Q 3.90625 34.125 6.6875 40.421875 
Q 9.46875 46.734375 15.15625 49.875 
Q 20.84375 53.03125 27.546875 53.03125 
Q 35.984375 53.03125 41.359375 48.75 
Q 46.734375 44.484375 48.25 36.625 
L 39.703125 35.296875 
Q 38.484375 40.53125 35.375 43.15625 
Q 32.28125 45.796875 27.875 45.796875 
Q 21.234375 45.796875 17.078125 41.03125 
Q 12.9375 36.28125 12.9375 25.984375 
Q 12.9375 15.53125 16.9375 10.796875 
Q 20.953125 6.0625 27.390625 6.0625 
Q 32.5625 6.0625 36.03125 9.234375 
Q 39.5 12.40625 40.4375 19 
z
" id="ArialMT-99"/>
     </defs>
     <g style="fill:#262626;" transform="translate(95.15 408.8925)rotate(-90)scale(0.24 -0.24)">
      <use xlink:href="#ArialMT-80"/>
      <use x="66.699219" xlink:href="#ArialMT-114"/>
      <use x="100" xlink:href="#ArialMT-101"/>
      <use x="155.615234" xlink:href="#ArialMT-100"/>
      <use x="211.230469" xlink:href="#ArialMT-105"/>
      <use x="233.447266" xlink:href="#ArialMT-99"/>
      <use x="283.447266" xlink:href="#ArialMT-116"/>
      <use x="311.230469" xlink:href="#ArialMT-101"/>
      <use x="366.845703" xlink:href="#ArialMT-100"/>
     </g>
    </g>
   </g>
   <g id="LineCollection_1">
    <path clip-path="url(#pea96bf88e8)" d="M 603.58481 417.368421 
L 603.58481 378.870625 
" style="fill:none;stroke:#64b5cd;stroke-width:0.5;"/>
    <path clip-path="url(#pea96bf88e8)" d="M 364.898969 514.820114 
L 364.898969 476.073866 
" style="fill:none;stroke:#64b5cd;stroke-width:0.5;"/>
    <path clip-path="url(#pea96bf88e8)" d="M 828.48 325.311002 
L 828.48 286.551338 
" style="fill:none;stroke:#64b5cd;stroke-width:0.5;"/>
    <path clip-path="url(#pea96bf88e8)" d="M 367.2 514.198884 
L 367.2 475.442407 
" style="fill:none;stroke:#64b5cd;stroke-width:0.5;"/>
    <path clip-path="url(#pea96bf88e8)" d="M 724.32 367.630908 
L 724.32 328.872604 
" style="fill:none;stroke:#64b5cd;stroke-width:0.5;"/>
    <path clip-path="url(#pea96bf88e8)" d="M 458.2656 477.031282 
L 458.2656 438.279208 
" style="fill:none;stroke:#64b5cd;stroke-width:0.5;"/>
    <path clip-path="url(#pea96bf88e8)" d="M 773.211429 347.479204 
L 773.211429 308.719509 
" style="fill:none;stroke:#64b5cd;stroke-width:0.5;"/>
    <path clip-path="url(#pea96bf88e8)" d="M 458.204292 476.861117 
L 458.204292 438.105371 
" style="fill:none;stroke:#64b5cd;stroke-width:0.5;"/>
    <path clip-path="url(#pea96bf88e8)" d="M 844.678481 318.886801 
L 844.678481 280.127103 
" style="fill:none;stroke:#64b5cd;stroke-width:0.5;"/>
    <path clip-path="url(#pea96bf88e8)" d="M 326.027184 530.452083 
L 326.027184 491.692807 
" style="fill:none;stroke:#64b5cd;stroke-width:0.5;"/>
    <path clip-path="url(#pea96bf88e8)" d="M 471.36 470.550361 
L 471.36 431.818323 
" style="fill:none;stroke:#64b5cd;stroke-width:0.5;"/>
    <path clip-path="url(#pea96bf88e8)" d="M 932.64 282.353965 
L 932.64 243.598771 
" style="fill:none;stroke:#64b5cd;stroke-width:0.5;"/>
    <path clip-path="url(#pea96bf88e8)" d="M 483.264 466.477645 
L 483.264 427.718716 
" style="fill:none;stroke:#64b5cd;stroke-width:0.5;"/>
    <path clip-path="url(#pea96bf88e8)" d="M 827.483254 326.263277 
L 827.483254 287.5065 
" style="fill:none;stroke:#64b5cd;stroke-width:0.5;"/>
    <path clip-path="url(#pea96bf88e8)" d="M 1036.8 240.604867 
L 1036.8 201.845333 
" style="fill:none;stroke:#64b5cd;stroke-width:0.5;"/>
    <path clip-path="url(#pea96bf88e8)" d="M 520.96 451.704173 
L 520.96 412.944568 
" style="fill:none;stroke:#64b5cd;stroke-width:0.5;"/>
    <path clip-path="url(#pea96bf88e8)" d="M 1036.8 239.893865 
L 1036.8 201.134682 
" style="fill:none;stroke:#64b5cd;stroke-width:0.5;"/>
    <path clip-path="url(#pea96bf88e8)" d="M 712.941176 372.834198 
L 712.941176 334.079982 
" style="fill:none;stroke:#64b5cd;stroke-width:0.5;"/>
    <path clip-path="url(#pea96bf88e8)" d="M 646.2 399.860522 
L 646.2 361.115945 
" style="fill:none;stroke:#64b5cd;stroke-width:0.5;"/>
    <path clip-path="url(#pea96bf88e8)" d="M 322.56 532.623654 
L 322.56 493.896855 
" style="fill:none;stroke:#64b5cd;stroke-width:0.5;"/>
    <path clip-path="url(#pea96bf88e8)" d="M 947.52 276.4225 
L 947.52 237.672327 
" style="fill:none;stroke:#64b5cd;stroke-width:0.5;"/>
    <path clip-path="url(#pea96bf88e8)" d="M 783.84 344.415348 
L 783.84 305.656908 
" style="fill:none;stroke:#64b5cd;stroke-width:0.5;"/>
    <path clip-path="url(#pea96bf88e8)" d="M 679.68 385.667152 
L 679.68 346.907958 
" style="fill:none;stroke:#64b5cd;stroke-width:0.5;"/>
    <path clip-path="url(#pea96bf88e8)" d="M 725.672727 367.293368 
L 725.672727 328.535822 
" style="fill:none;stroke:#64b5cd;stroke-width:0.5;"/>
    <path clip-path="url(#pea96bf88e8)" d="M 763.558719 352.098185 
L 763.558719 313.338404 
" style="fill:none;stroke:#64b5cd;stroke-width:0.5;"/>
    <path clip-path="url(#pea96bf88e8)" d="M 861.986014 312.068085 
L 861.986014 273.312486 
" style="fill:none;stroke:#64b5cd;stroke-width:0.5;"/>
    <path clip-path="url(#pea96bf88e8)" d="M 798.72 337.338958 
L 798.72 298.580235 
" style="fill:none;stroke:#64b5cd;stroke-width:0.5;"/>
    <path clip-path="url(#pea96bf88e8)" d="M 716.482443 371.084579 
L 716.482443 332.324873 
" style="fill:none;stroke:#64b5cd;stroke-width:0.5;"/>
    <path clip-path="url(#pea96bf88e8)" d="M 873.12 306.686874 
L 873.12 267.940523 
" style="fill:none;stroke:#64b5cd;stroke-width:0.5;"/>
    <path clip-path="url(#pea96bf88e8)" d="M 902.362934 295.468435 
L 902.362934 256.710823 
" style="fill:none;stroke:#64b5cd;stroke-width:0.5;"/>
    <path clip-path="url(#pea96bf88e8)" d="M 713.16 372.981776 
L 713.16 334.243311 
" style="fill:none;stroke:#64b5cd;stroke-width:0.5;"/>
    <path clip-path="url(#pea96bf88e8)" d="M 821.571429 328.51838 
L 821.571429 289.759478 
" style="fill:none;stroke:#64b5cd;stroke-width:0.5;"/>
    <path clip-path="url(#pea96bf88e8)" d="M 675.428571 388.413634 
L 675.428571 349.682124 
" style="fill:none;stroke:#64b5cd;stroke-width:0.5;"/>
    <path clip-path="url(#pea96bf88e8)" d="M 756.967164 355.337501 
L 756.967164 316.592846 
" style="fill:none;stroke:#64b5cd;stroke-width:0.5;"/>
    <path clip-path="url(#pea96bf88e8)" d="M 852.288 316.376486 
L 852.288 277.63936 
" style="fill:none;stroke:#64b5cd;stroke-width:0.5;"/>
    <path clip-path="url(#pea96bf88e8)" d="M 551.582609 439.042632 
L 551.582609 400.337991 
" style="fill:none;stroke:#64b5cd;stroke-width:0.5;"/>
    <path clip-path="url(#pea96bf88e8)" d="M 663.447273 392.504752 
L 663.447273 353.74979 
" style="fill:none;stroke:#64b5cd;stroke-width:0.5;"/>
    <path clip-path="url(#pea96bf88e8)" d="M 501.12 458.736056 
L 501.12 419.977142 
" style="fill:none;stroke:#64b5cd;stroke-width:0.5;"/>
    <path clip-path="url(#pea96bf88e8)" d="M 987.2 261.417835 
L 987.2 222.658059 
" style="fill:none;stroke:#64b5cd;stroke-width:0.5;"/>
    <path clip-path="url(#pea96bf88e8)" d="M 696.247423 379.860052 
L 696.247423 341.100306 
" style="fill:none;stroke:#64b5cd;stroke-width:0.5;"/>
    <path clip-path="url(#pea96bf88e8)" d="M 840.384 320.48975 
L 840.384 281.733799 
" style="fill:none;stroke:#64b5cd;stroke-width:0.5;"/>
    <path clip-path="url(#pea96bf88e8)" d="M 790.956522 340.566813 
L 790.956522 301.80929 
" style="fill:none;stroke:#64b5cd;stroke-width:0.5;"/>
    <path clip-path="url(#pea96bf88e8)" d="M 562.844444 434.767923 
L 562.844444 396.008426 
" style="fill:none;stroke:#64b5cd;stroke-width:0.5;"/>
    <path clip-path="url(#pea96bf88e8)" d="M 821.04 328.771006 
L 821.04 290.012463 
" style="fill:none;stroke:#64b5cd;stroke-width:0.5;"/>
    <path clip-path="url(#pea96bf88e8)" d="M 193.6 584.62282 
L 193.6 545.864448 
" style="fill:none;stroke:#64b5cd;stroke-width:0.5;"/>
    <path clip-path="url(#pea96bf88e8)" d="M 847.290566 317.329863 
L 847.290566 278.570561 
" style="fill:none;stroke:#64b5cd;stroke-width:0.5;"/>
    <path clip-path="url(#pea96bf88e8)" d="M 1036.8 240.996368 
L 1036.8 202.249486 
" style="fill:none;stroke:#64b5cd;stroke-width:0.5;"/>
    <path clip-path="url(#pea96bf88e8)" d="M 874.680307 306.334492 
L 874.680307 267.578365 
" style="fill:none;stroke:#64b5cd;stroke-width:0.5;"/>
    <path clip-path="url(#pea96bf88e8)" d="M 488.589474 464.814158 
L 488.589474 426.057418 
" style="fill:none;stroke:#64b5cd;stroke-width:0.5;"/>
    <path clip-path="url(#pea96bf88e8)" d="M 465.408 473.556168 
L 465.408 434.797879 
" style="fill:none;stroke:#64b5cd;stroke-width:0.5;"/>
    <path clip-path="url(#pea96bf88e8)" d="M 537.882353 444.074467 
L 537.882353 405.320057 
" style="fill:none;stroke:#64b5cd;stroke-width:0.5;"/>
    <path clip-path="url(#pea96bf88e8)" d="M 624.738462 409.03458 
L 624.738462 370.278219 
" style="fill:none;stroke:#64b5cd;stroke-width:0.5;"/>
    <path clip-path="url(#pea96bf88e8)" d="M 751.264865 356.964109 
L 751.264865 318.223024 
" style="fill:none;stroke:#64b5cd;stroke-width:0.5;"/>
    <path clip-path="url(#pea96bf88e8)" d="M 983.867194 261.73841 
L 983.867194 222.981556 
" style="fill:none;stroke:#64b5cd;stroke-width:0.5;"/>
    <path clip-path="url(#pea96bf88e8)" d="M 945.786408 277.282967 
L 945.786408 238.523358 
" style="fill:none;stroke:#64b5cd;stroke-width:0.5;"/>
    <path clip-path="url(#pea96bf88e8)" d="M 791.075229 340.94606 
L 791.075229 302.186361 
" style="fill:none;stroke:#64b5cd;stroke-width:0.5;"/>
    <path clip-path="url(#pea96bf88e8)" d="M 336.295385 526.907846 
L 336.295385 488.150337 
" style="fill:none;stroke:#64b5cd;stroke-width:0.5;"/>
    <path clip-path="url(#pea96bf88e8)" d="M 874.472727 307.730185 
L 874.472727 268.99083 
" style="fill:none;stroke:#64b5cd;stroke-width:0.5;"/>
    <path clip-path="url(#pea96bf88e8)" d="M 144 604.511451 
L 144 565.757196 
" style="fill:none;stroke:#64b5cd;stroke-width:0.5;"/>
    <path clip-path="url(#pea96bf88e8)" d="M 755.733333 354.93616 
L 755.733333 316.177748 
" style="fill:none;stroke:#64b5cd;stroke-width:0.5;"/>
    <path clip-path="url(#pea96bf88e8)" d="M 694.56 380.953469 
L 694.56 342.206749 
" style="fill:none;stroke:#64b5cd;stroke-width:0.5;"/>
    <path clip-path="url(#pea96bf88e8)" d="M 617.730612 411.864909 
L 617.730612 373.10556 
" style="fill:none;stroke:#64b5cd;stroke-width:0.5;"/>
    <path clip-path="url(#pea96bf88e8)" d="M 640 401.677945 
L 640 362.95666 
" style="fill:none;stroke:#64b5cd;stroke-width:0.5;"/>
    <path clip-path="url(#pea96bf88e8)" d="M 837.344681 321.668489 
L 837.344681 282.90905 
" style="fill:none;stroke:#64b5cd;stroke-width:0.5;"/>
    <path clip-path="url(#pea96bf88e8)" d="M 897.3 297.713282 
L 897.3 258.966565 
" style="fill:none;stroke:#64b5cd;stroke-width:0.5;"/>
    <path clip-path="url(#pea96bf88e8)" d="M 798.72 337.856698 
L 798.72 299.097005 
" style="fill:none;stroke:#64b5cd;stroke-width:0.5;"/>
    <path clip-path="url(#pea96bf88e8)" d="M 947.52 276.583951 
L 947.52 237.83059 
" style="fill:none;stroke:#64b5cd;stroke-width:0.5;"/>
    <path clip-path="url(#pea96bf88e8)" d="M 739.2 362.788673 
L 739.2 324.038702 
" style="fill:none;stroke:#64b5cd;stroke-width:0.5;"/>
    <path clip-path="url(#pea96bf88e8)" d="M 515.569942 453.344369 
L 515.569942 414.585937 
" style="fill:none;stroke:#64b5cd;stroke-width:0.5;"/>
    <path clip-path="url(#pea96bf88e8)" d="M 508.56 456.476359 
L 508.56 417.719769 
" style="fill:none;stroke:#64b5cd;stroke-width:0.5;"/>
    <path clip-path="url(#pea96bf88e8)" d="M 546.162162 440.56917 
L 546.162162 401.809437 
" style="fill:none;stroke:#64b5cd;stroke-width:0.5;"/>
    <path clip-path="url(#pea96bf88e8)" d="M 590.4 423.196897 
L 590.4 384.443431 
" style="fill:none;stroke:#64b5cd;stroke-width:0.5;"/>
    <path clip-path="url(#pea96bf88e8)" d="M 603.301734 418.17855 
L 603.301734 379.42957 
" style="fill:none;stroke:#64b5cd;stroke-width:0.5;"/>
    <path clip-path="url(#pea96bf88e8)" d="M 706.133333 375.847661 
L 706.133333 337.087938 
" style="fill:none;stroke:#64b5cd;stroke-width:0.5;"/>
    <path clip-path="url(#pea96bf88e8)" d="M 191.489362 585.969682 
L 191.489362 547.222896 
" style="fill:none;stroke:#64b5cd;stroke-width:0.5;"/>
    <path clip-path="url(#pea96bf88e8)" d="M 724.32 368.617078 
L 724.32 329.861516 
" style="fill:none;stroke:#64b5cd;stroke-width:0.5;"/>
    <path clip-path="url(#pea96bf88e8)" d="M 646.2 400.180355 
L 646.2 361.420687 
" style="fill:none;stroke:#64b5cd;stroke-width:0.5;"/>
    <path clip-path="url(#pea96bf88e8)" d="M 783.84 343.509658 
L 783.84 304.750028 
" style="fill:none;stroke:#64b5cd;stroke-width:0.5;"/>
    <path clip-path="url(#pea96bf88e8)" d="M 608.745205 414.75444 
L 608.745205 376.004188 
" style="fill:none;stroke:#64b5cd;stroke-width:0.5;"/>
    <path clip-path="url(#pea96bf88e8)" d="M 437.88 485.148695 
L 437.88 446.390906 
" style="fill:none;stroke:#64b5cd;stroke-width:0.5;"/>
    <path clip-path="url(#pea96bf88e8)" d="M 565.6 433.253797 
L 565.6 394.495355 
" style="fill:none;stroke:#64b5cd;stroke-width:0.5;"/>
    <path clip-path="url(#pea96bf88e8)" d="M 655.095652 396.420042 
L 655.095652 357.660452 
" style="fill:none;stroke:#64b5cd;stroke-width:0.5;"/>
    <path clip-path="url(#pea96bf88e8)" d="M 536.290909 445.044712 
L 536.290909 406.284918 
" style="fill:none;stroke:#64b5cd;stroke-width:0.5;"/>
    <path clip-path="url(#pea96bf88e8)" d="M 345.125275 523.123306 
L 345.125275 484.366969 
" style="fill:none;stroke:#64b5cd;stroke-width:0.5;"/>
    <path clip-path="url(#pea96bf88e8)" d="M 602.464865 418.406808 
L 602.464865 379.647089 
" style="fill:none;stroke:#64b5cd;stroke-width:0.5;"/>
    <path clip-path="url(#pea96bf88e8)" d="M 493.68 463.223106 
L 493.68 424.474748 
" style="fill:none;stroke:#64b5cd;stroke-width:0.5;"/>
    <path clip-path="url(#pea96bf88e8)" d="M 749.828571 357.417418 
L 749.828571 318.66417 
" style="fill:none;stroke:#64b5cd;stroke-width:0.5;"/>
    <path clip-path="url(#pea96bf88e8)" d="M 649.92 398.256798 
L 649.92 359.499315 
" style="fill:none;stroke:#64b5cd;stroke-width:0.5;"/>
    <path clip-path="url(#pea96bf88e8)" d="M 144 605.290909 
L 144 566.53518 
" style="fill:none;stroke:#64b5cd;stroke-width:0.5;"/>
    <path clip-path="url(#pea96bf88e8)" d="M 885.389474 301.979462 
L 885.389474 263.221898 
" style="fill:none;stroke:#64b5cd;stroke-width:0.5;"/>
    <path clip-path="url(#pea96bf88e8)" d="M 692.210526 381.303813 
L 692.210526 342.809951 
" style="fill:none;stroke:#64b5cd;stroke-width:0.5;"/>
    <path clip-path="url(#pea96bf88e8)" d="M 600.32 419.305499 
L 600.32 380.54781 
" style="fill:none;stroke:#64b5cd;stroke-width:0.5;"/>
    <path clip-path="url(#pea96bf88e8)" d="M 559.613793 435.593318 
L 559.613793 396.835061 
" style="fill:none;stroke:#64b5cd;stroke-width:0.5;"/>
    <path clip-path="url(#pea96bf88e8)" d="M 861.546667 311.74172 
L 861.546667 272.981987 
" style="fill:none;stroke:#64b5cd;stroke-width:0.5;"/>
    <path clip-path="url(#pea96bf88e8)" d="M 823.476106 327.38543 
L 823.476106 288.626792 
" style="fill:none;stroke:#64b5cd;stroke-width:0.5;"/>
    <path clip-path="url(#pea96bf88e8)" d="M 689.6 382.384597 
L 689.6 343.628302 
" style="fill:none;stroke:#64b5cd;stroke-width:0.5;"/>
    <path clip-path="url(#pea96bf88e8)" d="M 971.328 266.778516 
L 971.328 228.018782 
" style="fill:none;stroke:#64b5cd;stroke-width:0.5;"/>
    <path clip-path="url(#pea96bf88e8)" d="M 637.165714 404.195107 
L 637.165714 365.442964 
" style="fill:none;stroke:#64b5cd;stroke-width:0.5;"/>
    <path clip-path="url(#pea96bf88e8)" d="M 774.211765 348.557641 
L 774.211765 309.830934 
" style="fill:none;stroke:#64b5cd;stroke-width:0.5;"/>
    <path clip-path="url(#pea96bf88e8)" d="M 1036.8 241.388943 
L 1036.8 202.629543 
" style="fill:none;stroke:#64b5cd;stroke-width:0.5;"/>
    <path clip-path="url(#pea96bf88e8)" d="M 957.44 273.23241 
L 957.44 234.77201 
" style="fill:none;stroke:#64b5cd;stroke-width:0.5;"/>
    <path clip-path="url(#pea96bf88e8)" d="M 581.289796 426.69713 
L 581.289796 387.939566 
" style="fill:none;stroke:#64b5cd;stroke-width:0.5;"/>
    <path clip-path="url(#pea96bf88e8)" d="M 678.085714 386.19981 
L 678.085714 347.459504 
" style="fill:none;stroke:#64b5cd;stroke-width:0.5;"/>
    <path clip-path="url(#pea96bf88e8)" d="M 620.16 409.170441 
L 620.16 370.43166 
" style="fill:none;stroke:#64b5cd;stroke-width:0.5;"/>
    <path clip-path="url(#pea96bf88e8)" d="M 1036.8 240.547819 
L 1036.8 201.788347 
" style="fill:none;stroke:#64b5cd;stroke-width:0.5;"/>
    <path clip-path="url(#pea96bf88e8)" d="M 750.825 357.99406 
L 750.825 319.238387 
" style="fill:none;stroke:#64b5cd;stroke-width:0.5;"/>
    <path clip-path="url(#pea96bf88e8)" d="M 811.2 332.725572 
L 811.2 293.97141 
" style="fill:none;stroke:#64b5cd;stroke-width:0.5;"/>
    <path clip-path="url(#pea96bf88e8)" d="M 751.526627 356.878711 
L 751.526627 318.12371 
" style="fill:none;stroke:#64b5cd;stroke-width:0.5;"/>
    <path clip-path="url(#pea96bf88e8)" d="M 545.76 441.207461 
L 545.76 402.449658 
" style="fill:none;stroke:#64b5cd;stroke-width:0.5;"/>
    <path clip-path="url(#pea96bf88e8)" d="M 654.171429 396.624134 
L 654.171429 357.864374 
" style="fill:none;stroke:#64b5cd;stroke-width:0.5;"/>
    <path clip-path="url(#pea96bf88e8)" d="M 778.88 345.744673 
L 778.88 306.986711 
" style="fill:none;stroke:#64b5cd;stroke-width:0.5;"/>
    <path clip-path="url(#pea96bf88e8)" d="M 951.771429 275.29688 
L 951.771429 236.537266 
" style="fill:none;stroke:#64b5cd;stroke-width:0.5;"/>
    <path clip-path="url(#pea96bf88e8)" d="M 773.658947 348.224094 
L 773.658947 309.464536 
" style="fill:none;stroke:#64b5cd;stroke-width:0.5;"/>
    <path clip-path="url(#pea96bf88e8)" d="M 716.88 371.499251 
L 716.88 332.752003 
" style="fill:none;stroke:#64b5cd;stroke-width:0.5;"/>
    <path clip-path="url(#pea96bf88e8)" d="M 958.68 272.690892 
L 958.68 233.931987 
" style="fill:none;stroke:#64b5cd;stroke-width:0.5;"/>
    <path clip-path="url(#pea96bf88e8)" d="M 384.132414 506.647559 
L 384.132414 467.95023 
" style="fill:none;stroke:#64b5cd;stroke-width:0.5;"/>
    <path clip-path="url(#pea96bf88e8)" d="M 996.447458 256.928979 
L 996.447458 218.177683 
" style="fill:none;stroke:#64b5cd;stroke-width:0.5;"/>
    <path clip-path="url(#pea96bf88e8)" d="M 352.32 519.18588 
L 352.32 480.446568 
" style="fill:none;stroke:#64b5cd;stroke-width:0.5;"/>
    <path clip-path="url(#pea96bf88e8)" d="M 566.592 433.0545 
L 566.592 394.296255 
" style="fill:none;stroke:#64b5cd;stroke-width:0.5;"/>
    <path clip-path="url(#pea96bf88e8)" d="M 764.821192 351.765761 
L 764.821192 313.007376 
" style="fill:none;stroke:#64b5cd;stroke-width:0.5;"/>
    <path clip-path="url(#pea96bf88e8)" d="M 352.32 519.752377 
L 352.32 480.992816 
" style="fill:none;stroke:#64b5cd;stroke-width:0.5;"/>
    <path clip-path="url(#pea96bf88e8)" d="M 192.259459 585.301068 
L 192.259459 546.541448 
" style="fill:none;stroke:#64b5cd;stroke-width:0.5;"/>
    <path clip-path="url(#pea96bf88e8)" d="M 714.050704 372.541612 
L 714.050704 333.782063 
" style="fill:none;stroke:#64b5cd;stroke-width:0.5;"/>
    <path clip-path="url(#pea96bf88e8)" d="M 939.310345 279.922237 
L 939.310345 241.164586 
" style="fill:none;stroke:#64b5cd;stroke-width:0.5;"/>
    <path clip-path="url(#pea96bf88e8)" d="M 543.410526 441.352747 
L 543.410526 402.59313 
" style="fill:none;stroke:#64b5cd;stroke-width:0.5;"/>
    <path clip-path="url(#pea96bf88e8)" d="M 553.2 438.072124 
L 553.2 399.312461 
" style="fill:none;stroke:#64b5cd;stroke-width:0.5;"/>
    <path clip-path="url(#pea96bf88e8)" d="M 914.453333 290.304259 
L 914.453333 251.548039 
" style="fill:none;stroke:#64b5cd;stroke-width:0.5;"/>
    <path clip-path="url(#pea96bf88e8)" d="M 434.269951 486.814333 
L 434.269951 448.066382 
" style="fill:none;stroke:#64b5cd;stroke-width:0.5;"/>
    <path clip-path="url(#pea96bf88e8)" d="M 824.872727 327.214895 
L 824.872727 288.455956 
" style="fill:none;stroke:#64b5cd;stroke-width:0.5;"/>
    <path clip-path="url(#pea96bf88e8)" d="M 813.6 331.140391 
L 813.6 292.381293 
" style="fill:none;stroke:#64b5cd;stroke-width:0.5;"/>
    <path clip-path="url(#pea96bf88e8)" d="M 728.119149 366.844605 
L 728.119149 328.085042 
" style="fill:none;stroke:#64b5cd;stroke-width:0.5;"/>
    <path clip-path="url(#pea96bf88e8)" d="M 545.76 441.566019 
L 545.76 402.838821 
" style="fill:none;stroke:#64b5cd;stroke-width:0.5;"/>
    <path clip-path="url(#pea96bf88e8)" d="M 746.64 359.541607 
L 746.64 320.782202 
" style="fill:none;stroke:#64b5cd;stroke-width:0.5;"/>
    <path clip-path="url(#pea96bf88e8)" d="M 544.22069 442.01289 
L 544.22069 403.254422 
" style="fill:none;stroke:#64b5cd;stroke-width:0.5;"/>
    <path clip-path="url(#pea96bf88e8)" d="M 690.940541 381.689662 
L 690.940541 342.930166 
" style="fill:none;stroke:#64b5cd;stroke-width:0.5;"/>
    <path clip-path="url(#pea96bf88e8)" d="M 948.694737 276.627594 
L 948.694737 237.879229 
" style="fill:none;stroke:#64b5cd;stroke-width:0.5;"/>
    <path clip-path="url(#pea96bf88e8)" d="M 960.585366 271.151714 
L 960.585366 232.421243 
" style="fill:none;stroke:#64b5cd;stroke-width:0.5;"/>
    <path clip-path="url(#pea96bf88e8)" d="M 540.429851 443.862874 
L 540.429851 405.11823 
" style="fill:none;stroke:#64b5cd;stroke-width:0.5;"/>
    <path clip-path="url(#pea96bf88e8)" d="M 788.8 342.7277 
L 788.8 303.973369 
" style="fill:none;stroke:#64b5cd;stroke-width:0.5;"/>
    <path clip-path="url(#pea96bf88e8)" d="M 563.15493 434.384483 
L 563.15493 395.625837 
" style="fill:none;stroke:#64b5cd;stroke-width:0.5;"/>
    <path clip-path="url(#pea96bf88e8)" d="M 322.56 531.902853 
L 322.56 493.143126 
" style="fill:none;stroke:#64b5cd;stroke-width:0.5;"/>
    <path clip-path="url(#pea96bf88e8)" d="M 885.811765 301.94711 
L 885.811765 263.187356 
" style="fill:none;stroke:#64b5cd;stroke-width:0.5;"/>
    <path clip-path="url(#pea96bf88e8)" d="M 532.850174 446.240095 
L 532.850174 407.49569 
" style="fill:none;stroke:#64b5cd;stroke-width:0.5;"/>
    <path clip-path="url(#pea96bf88e8)" d="M 439.2 484.703614 
L 439.2 445.943884 
" style="fill:none;stroke:#64b5cd;stroke-width:0.5;"/>
    <path clip-path="url(#pea96bf88e8)" d="M 367.2 514.021963 
L 367.2 475.267104 
" style="fill:none;stroke:#64b5cd;stroke-width:0.5;"/>
    <path clip-path="url(#pea96bf88e8)" d="M 843.36 319.305015 
L 843.36 280.545433 
" style="fill:none;stroke:#64b5cd;stroke-width:0.5;"/>
    <path clip-path="url(#pea96bf88e8)" d="M 607.405714 415.657838 
L 607.405714 376.898069 
" style="fill:none;stroke:#64b5cd;stroke-width:0.5;"/>
    <path clip-path="url(#pea96bf88e8)" d="M 944.441379 276.932788 
L 944.441379 238.45483 
" style="fill:none;stroke:#64b5cd;stroke-width:0.5;"/>
    <path clip-path="url(#pea96bf88e8)" d="M 449.04 480.72125 
L 449.04 441.96173 
" style="fill:none;stroke:#64b5cd;stroke-width:0.5;"/>
    <path clip-path="url(#pea96bf88e8)" d="M 600.32 418.774274 
L 600.32 380.01476 
" style="fill:none;stroke:#64b5cd;stroke-width:0.5;"/>
   </g>
   <g id="LineCollection_2">
    <path clip-path="url(#pea96bf88e8)" d="M 760.349239 454.274276 
L 760.349239 175.595576 
" style="fill:none;stroke:#8172b3;stroke-width:0.5;"/>
    <path clip-path="url(#pea96bf88e8)" d="M 954.228902 417.478823 
L 954.228902 143.646203 
" style="fill:none;stroke:#8172b3;stroke-width:0.5;"/>
    <path clip-path="url(#pea96bf88e8)" d="M 560.64 559.672168 
L 560.64 279.794162 
" style="fill:none;stroke:#8172b3;stroke-width:0.5;"/>
    <path clip-path="url(#pea96bf88e8)" d="M 693.415385 590.98899 
L 693.415385 318.883325 
" style="fill:none;stroke:#8172b3;stroke-width:0.5;"/>
    <path clip-path="url(#pea96bf88e8)" d="M 706.464 446.67171 
L 706.464 181.51308 
" style="fill:none;stroke:#8172b3;stroke-width:0.5;"/>
    <path clip-path="url(#pea96bf88e8)" d="M 652.309489 466.977116 
L 652.309489 191.246189 
" style="fill:none;stroke:#8172b3;stroke-width:0.5;"/>
    <path clip-path="url(#pea96bf88e8)" d="M 441.6 552.039449 
L 441.6 299.783215 
" style="fill:none;stroke:#8172b3;stroke-width:0.5;"/>
    <path clip-path="url(#pea96bf88e8)" d="M 340.416 471.396329 
L 340.416 195.243444 
" style="fill:none;stroke:#8172b3;stroke-width:0.5;"/>
    <path clip-path="url(#pea96bf88e8)" d="M 929.877844 417.026545 
L 929.877844 156.362074 
" style="fill:none;stroke:#8172b3;stroke-width:0.5;"/>
    <path clip-path="url(#pea96bf88e8)" d="M 673.728 432.09829 
L 673.728 153.010974 
" style="fill:none;stroke:#8172b3;stroke-width:0.5;"/>
    <path clip-path="url(#pea96bf88e8)" d="M 943.8 436.965547 
L 943.8 164.119753 
" style="fill:none;stroke:#8172b3;stroke-width:0.5;"/>
    <path clip-path="url(#pea96bf88e8)" d="M 840.384 475.752973 
L 840.384 196.972276 
" style="fill:none;stroke:#8172b3;stroke-width:0.5;"/>
    <path clip-path="url(#pea96bf88e8)" d="M 916.759664 423.640341 
L 916.759664 144.779074 
" style="fill:none;stroke:#8172b3;stroke-width:0.5;"/>
    <path clip-path="url(#pea96bf88e8)" d="M 400.68 542.549017 
L 400.68 267.862381 
" style="fill:none;stroke:#8172b3;stroke-width:0.5;"/>
    <path clip-path="url(#pea96bf88e8)" d="M 501.12 548.030355 
L 501.12 268.371904 
" style="fill:none;stroke:#8172b3;stroke-width:0.5;"/>
    <path clip-path="url(#pea96bf88e8)" d="M 731.76 498.042534 
L 731.76 219.475103 
" style="fill:none;stroke:#8172b3;stroke-width:0.5;"/>
    <path clip-path="url(#pea96bf88e8)" d="M 511.04 543.961577 
L 511.04 264.790994 
" style="fill:none;stroke:#8172b3;stroke-width:0.5;"/>
    <path clip-path="url(#pea96bf88e8)" d="M 466.213534 495.3994 
L 466.213534 219.444606 
" style="fill:none;stroke:#8172b3;stroke-width:0.5;"/>
    <path clip-path="url(#pea96bf88e8)" d="M 807.456881 459.627154 
L 807.456881 212.212666 
" style="fill:none;stroke:#8172b3;stroke-width:0.5;"/>
    <path clip-path="url(#pea96bf88e8)" d="M 792.768 388.46666 
L 792.768 111.109091 
" style="fill:none;stroke:#8172b3;stroke-width:0.5;"/>
    <path clip-path="url(#pea96bf88e8)" d="M 877.737931 478.192335 
L 877.737931 202.762886 
" style="fill:none;stroke:#8172b3;stroke-width:0.5;"/>
    <path clip-path="url(#pea96bf88e8)" d="M 644.96 545.605344 
L 644.96 277.465435 
" style="fill:none;stroke:#8172b3;stroke-width:0.5;"/>
    <path clip-path="url(#pea96bf88e8)" d="M 491.2 538.489718 
L 491.2 259.622446 
" style="fill:none;stroke:#8172b3;stroke-width:0.5;"/>
    <path clip-path="url(#pea96bf88e8)" d="M 834.432 487.302876 
L 834.432 207.911168 
" style="fill:none;stroke:#8172b3;stroke-width:0.5;"/>
    <path clip-path="url(#pea96bf88e8)" d="M 571.323077 545.470035 
L 571.323077 282.650557 
" style="fill:none;stroke:#8172b3;stroke-width:0.5;"/>
    <path clip-path="url(#pea96bf88e8)" d="M 968.777143 405.254041 
L 968.777143 125.378028 
" style="fill:none;stroke:#8172b3;stroke-width:0.5;"/>
    <path clip-path="url(#pea96bf88e8)" d="M 679.68 491.69457 
L 679.68 216.082704 
" style="fill:none;stroke:#8172b3;stroke-width:0.5;"/>
    <path clip-path="url(#pea96bf88e8)" d="M 831.263309 467.300818 
L 831.263309 188.652754 
" style="fill:none;stroke:#8172b3;stroke-width:0.5;"/>
    <path clip-path="url(#pea96bf88e8)" d="M 535.131429 506.925362 
L 535.131429 234.295708 
" style="fill:none;stroke:#8172b3;stroke-width:0.5;"/>
    <path clip-path="url(#pea96bf88e8)" d="M 828.48 467.753958 
L 828.48 208.843014 
" style="fill:none;stroke:#8172b3;stroke-width:0.5;"/>
    <path clip-path="url(#pea96bf88e8)" d="M 659.307383 461.240178 
L 659.307383 184.350539 
" style="fill:none;stroke:#8172b3;stroke-width:0.5;"/>
    <path clip-path="url(#pea96bf88e8)" d="M 874.472727 499.654198 
L 874.472727 250.624174 
" style="fill:none;stroke:#8172b3;stroke-width:0.5;"/>
    <path clip-path="url(#pea96bf88e8)" d="M 658.422857 511.666846 
L 658.422857 233.103643 
" style="fill:none;stroke:#8172b3;stroke-width:0.5;"/>
    <path clip-path="url(#pea96bf88e8)" d="M 1036.8 463.645159 
L 1036.8 188.639149 
" style="fill:none;stroke:#8172b3;stroke-width:0.5;"/>
    <path clip-path="url(#pea96bf88e8)" d="M 768.96 477.84915 
L 768.96 201.153245 
" style="fill:none;stroke:#8172b3;stroke-width:0.5;"/>
    <path clip-path="url(#pea96bf88e8)" d="M 886.74958 491.07175 
L 886.74958 221.437418 
" style="fill:none;stroke:#8172b3;stroke-width:0.5;"/>
    <path clip-path="url(#pea96bf88e8)" d="M 757.056 544.975059 
L 757.056 265.689397 
" style="fill:none;stroke:#8172b3;stroke-width:0.5;"/>
    <path clip-path="url(#pea96bf88e8)" d="M 799.65 527.013003 
L 799.65 248.56735 
" style="fill:none;stroke:#8172b3;stroke-width:0.5;"/>
    <path clip-path="url(#pea96bf88e8)" d="M 804.672 535.94889 
L 804.672 257.687921 
" style="fill:none;stroke:#8172b3;stroke-width:0.5;"/>
    <path clip-path="url(#pea96bf88e8)" d="M 471.36 459.283985 
L 471.36 179.718367 
" style="fill:none;stroke:#8172b3;stroke-width:0.5;"/>
    <path clip-path="url(#pea96bf88e8)" d="M 456.48 471.085593 
L 456.48 216.625234 
" style="fill:none;stroke:#8172b3;stroke-width:0.5;"/>
    <path clip-path="url(#pea96bf88e8)" d="M 929.664 495.255227 
L 929.664 226.937579 
" style="fill:none;stroke:#8172b3;stroke-width:0.5;"/>
    <path clip-path="url(#pea96bf88e8)" d="M 322.56 537.300839 
L 322.56 257.413998 
" style="fill:none;stroke:#8172b3;stroke-width:0.5;"/>
    <path clip-path="url(#pea96bf88e8)" d="M 608.256 452.582592 
L 608.256 178.658215 
" style="fill:none;stroke:#8172b3;stroke-width:0.5;"/>
    <path clip-path="url(#pea96bf88e8)" d="M 905.918325 443.379355 
L 905.918325 170.61856 
" style="fill:none;stroke:#8172b3;stroke-width:0.5;"/>
    <path clip-path="url(#pea96bf88e8)" d="M 905.505882 384.170236 
L 905.505882 124.966086 
" style="fill:none;stroke:#8172b3;stroke-width:0.5;"/>
    <path clip-path="url(#pea96bf88e8)" d="M 475.611429 524.086496 
L 475.611429 256.852763 
" style="fill:none;stroke:#8172b3;stroke-width:0.5;"/>
    <path clip-path="url(#pea96bf88e8)" d="M 560.192481 533.503427 
L 560.192481 255.851081 
" style="fill:none;stroke:#8172b3;stroke-width:0.5;"/>
    <path clip-path="url(#pea96bf88e8)" d="M 471.36 501.642548 
L 471.36 225.083031 
" style="fill:none;stroke:#8172b3;stroke-width:0.5;"/>
    <path clip-path="url(#pea96bf88e8)" d="M 847.08 459.976383 
L 847.08 185.637126 
" style="fill:none;stroke:#8172b3;stroke-width:0.5;"/>
   </g>
   <g id="line2d_14">
    <path clip-path="url(#pea96bf88e8)" d="M 144 587.264251 
L 1036.8 220.116962 
" style="fill:none;stroke:#c44e52;stroke-linecap:round;stroke-width:1.5;"/>
   </g>
   <g id="line2d_15">
    <defs>
     <path d="M 0 3 
C 0.795609 3 1.55874 2.683901 2.12132 2.12132 
C 2.683901 1.55874 3 0.795609 3 0 
C 3 -0.795609 2.683901 -1.55874 2.12132 -2.12132 
C 1.55874 -2.683901 0.795609 -3 0 -3 
C -0.795609 -3 -1.55874 -2.683901 -2.12132 -2.12132 
C -2.683901 -1.55874 -3 -0.795609 -3 0 
C -3 0.795609 -2.683901 1.55874 -2.12132 2.12132 
C -1.55874 2.683901 -0.795609 3 0 3 
z
" id="m36a899aaf4" style="stroke:#64b5cd;"/>
    </defs>
    <g clip-path="url(#pea96bf88e8)">
     <use style="fill:#64b5cd;stroke:#64b5cd;" x="603.58481" xlink:href="#m36a899aaf4" y="398.119523"/>
     <use style="fill:#64b5cd;stroke:#64b5cd;" x="364.898969" xlink:href="#m36a899aaf4" y="495.44699"/>
     <use style="fill:#64b5cd;stroke:#64b5cd;" x="828.48" xlink:href="#m36a899aaf4" y="305.93117"/>
     <use style="fill:#64b5cd;stroke:#64b5cd;" x="367.2" xlink:href="#m36a899aaf4" y="494.820646"/>
     <use style="fill:#64b5cd;stroke:#64b5cd;" x="724.32" xlink:href="#m36a899aaf4" y="348.251756"/>
     <use style="fill:#64b5cd;stroke:#64b5cd;" x="458.2656" xlink:href="#m36a899aaf4" y="457.655245"/>
     <use style="fill:#64b5cd;stroke:#64b5cd;" x="773.211429" xlink:href="#m36a899aaf4" y="328.099357"/>
     <use style="fill:#64b5cd;stroke:#64b5cd;" x="458.204292" xlink:href="#m36a899aaf4" y="457.483244"/>
     <use style="fill:#64b5cd;stroke:#64b5cd;" x="844.678481" xlink:href="#m36a899aaf4" y="299.506952"/>
     <use style="fill:#64b5cd;stroke:#64b5cd;" x="326.027184" xlink:href="#m36a899aaf4" y="511.072445"/>
     <use style="fill:#64b5cd;stroke:#64b5cd;" x="471.36" xlink:href="#m36a899aaf4" y="451.184342"/>
     <use style="fill:#64b5cd;stroke:#64b5cd;" x="932.64" xlink:href="#m36a899aaf4" y="262.976368"/>
     <use style="fill:#64b5cd;stroke:#64b5cd;" x="483.264" xlink:href="#m36a899aaf4" y="447.09818"/>
     <use style="fill:#64b5cd;stroke:#64b5cd;" x="827.483254" xlink:href="#m36a899aaf4" y="306.884889"/>
     <use style="fill:#64b5cd;stroke:#64b5cd;" x="1036.8" xlink:href="#m36a899aaf4" y="221.2251"/>
     <use style="fill:#64b5cd;stroke:#64b5cd;" x="520.96" xlink:href="#m36a899aaf4" y="432.324371"/>
     <use style="fill:#64b5cd;stroke:#64b5cd;" x="1036.8" xlink:href="#m36a899aaf4" y="220.514273"/>
     <use style="fill:#64b5cd;stroke:#64b5cd;" x="712.941176" xlink:href="#m36a899aaf4" y="353.45709"/>
     <use style="fill:#64b5cd;stroke:#64b5cd;" x="646.2" xlink:href="#m36a899aaf4" y="380.488233"/>
     <use style="fill:#64b5cd;stroke:#64b5cd;" x="322.56" xlink:href="#m36a899aaf4" y="513.260255"/>
     <use style="fill:#64b5cd;stroke:#64b5cd;" x="947.52" xlink:href="#m36a899aaf4" y="257.047414"/>
     <use style="fill:#64b5cd;stroke:#64b5cd;" x="783.84" xlink:href="#m36a899aaf4" y="325.036128"/>
     <use style="fill:#64b5cd;stroke:#64b5cd;" x="679.68" xlink:href="#m36a899aaf4" y="366.287555"/>
     <use style="fill:#64b5cd;stroke:#64b5cd;" x="725.672727" xlink:href="#m36a899aaf4" y="347.914595"/>
     <use style="fill:#64b5cd;stroke:#64b5cd;" x="763.558719" xlink:href="#m36a899aaf4" y="332.718294"/>
     <use style="fill:#64b5cd;stroke:#64b5cd;" x="861.986014" xlink:href="#m36a899aaf4" y="292.690285"/>
     <use style="fill:#64b5cd;stroke:#64b5cd;" x="798.72" xlink:href="#m36a899aaf4" y="317.959596"/>
     <use style="fill:#64b5cd;stroke:#64b5cd;" x="716.482443" xlink:href="#m36a899aaf4" y="351.704726"/>
     <use style="fill:#64b5cd;stroke:#64b5cd;" x="873.12" xlink:href="#m36a899aaf4" y="287.313698"/>
     <use style="fill:#64b5cd;stroke:#64b5cd;" x="902.362934" xlink:href="#m36a899aaf4" y="276.089629"/>
     <use style="fill:#64b5cd;stroke:#64b5cd;" x="713.16" xlink:href="#m36a899aaf4" y="353.612543"/>
     <use style="fill:#64b5cd;stroke:#64b5cd;" x="821.571429" xlink:href="#m36a899aaf4" y="309.138929"/>
     <use style="fill:#64b5cd;stroke:#64b5cd;" x="675.428571" xlink:href="#m36a899aaf4" y="369.047879"/>
     <use style="fill:#64b5cd;stroke:#64b5cd;" x="756.967164" xlink:href="#m36a899aaf4" y="335.965173"/>
     <use style="fill:#64b5cd;stroke:#64b5cd;" x="852.288" xlink:href="#m36a899aaf4" y="297.007923"/>
     <use style="fill:#64b5cd;stroke:#64b5cd;" x="551.582609" xlink:href="#m36a899aaf4" y="419.690312"/>
     <use style="fill:#64b5cd;stroke:#64b5cd;" x="663.447273" xlink:href="#m36a899aaf4" y="373.127271"/>
     <use style="fill:#64b5cd;stroke:#64b5cd;" x="501.12" xlink:href="#m36a899aaf4" y="439.356599"/>
     <use style="fill:#64b5cd;stroke:#64b5cd;" x="987.2" xlink:href="#m36a899aaf4" y="242.037947"/>
     <use style="fill:#64b5cd;stroke:#64b5cd;" x="696.247423" xlink:href="#m36a899aaf4" y="360.480179"/>
     <use style="fill:#64b5cd;stroke:#64b5cd;" x="840.384" xlink:href="#m36a899aaf4" y="301.111775"/>
     <use style="fill:#64b5cd;stroke:#64b5cd;" x="790.956522" xlink:href="#m36a899aaf4" y="321.188051"/>
     <use style="fill:#64b5cd;stroke:#64b5cd;" x="562.844444" xlink:href="#m36a899aaf4" y="415.388175"/>
     <use style="fill:#64b5cd;stroke:#64b5cd;" x="821.04" xlink:href="#m36a899aaf4" y="309.391735"/>
     <use style="fill:#64b5cd;stroke:#64b5cd;" x="193.6" xlink:href="#m36a899aaf4" y="565.243634"/>
     <use style="fill:#64b5cd;stroke:#64b5cd;" x="847.290566" xlink:href="#m36a899aaf4" y="297.950212"/>
     <use style="fill:#64b5cd;stroke:#64b5cd;" x="1036.8" xlink:href="#m36a899aaf4" y="221.622927"/>
     <use style="fill:#64b5cd;stroke:#64b5cd;" x="874.680307" xlink:href="#m36a899aaf4" y="286.956429"/>
     <use style="fill:#64b5cd;stroke:#64b5cd;" x="488.589474" xlink:href="#m36a899aaf4" y="445.435788"/>
     <use style="fill:#64b5cd;stroke:#64b5cd;" x="465.408" xlink:href="#m36a899aaf4" y="454.177023"/>
     <use style="fill:#64b5cd;stroke:#64b5cd;" x="537.882353" xlink:href="#m36a899aaf4" y="424.697262"/>
     <use style="fill:#64b5cd;stroke:#64b5cd;" x="624.738462" xlink:href="#m36a899aaf4" y="389.656399"/>
     <use style="fill:#64b5cd;stroke:#64b5cd;" x="751.264865" xlink:href="#m36a899aaf4" y="337.593566"/>
     <use style="fill:#64b5cd;stroke:#64b5cd;" x="983.867194" xlink:href="#m36a899aaf4" y="242.359983"/>
     <use style="fill:#64b5cd;stroke:#64b5cd;" x="945.786408" xlink:href="#m36a899aaf4" y="257.903162"/>
     <use style="fill:#64b5cd;stroke:#64b5cd;" x="791.075229" xlink:href="#m36a899aaf4" y="321.56621"/>
     <use style="fill:#64b5cd;stroke:#64b5cd;" x="336.295385" xlink:href="#m36a899aaf4" y="507.529092"/>
     <use style="fill:#64b5cd;stroke:#64b5cd;" x="874.472727" xlink:href="#m36a899aaf4" y="288.360508"/>
     <use style="fill:#64b5cd;stroke:#64b5cd;" x="144" xlink:href="#m36a899aaf4" y="585.134324"/>
     <use style="fill:#64b5cd;stroke:#64b5cd;" x="755.733333" xlink:href="#m36a899aaf4" y="335.556954"/>
     <use style="fill:#64b5cd;stroke:#64b5cd;" x="694.56" xlink:href="#m36a899aaf4" y="361.580109"/>
     <use style="fill:#64b5cd;stroke:#64b5cd;" x="617.730612" xlink:href="#m36a899aaf4" y="392.485235"/>
     <use style="fill:#64b5cd;stroke:#64b5cd;" x="640" xlink:href="#m36a899aaf4" y="382.317302"/>
     <use style="fill:#64b5cd;stroke:#64b5cd;" x="837.344681" xlink:href="#m36a899aaf4" y="302.288769"/>
     <use style="fill:#64b5cd;stroke:#64b5cd;" x="897.3" xlink:href="#m36a899aaf4" y="278.339924"/>
     <use style="fill:#64b5cd;stroke:#64b5cd;" x="798.72" xlink:href="#m36a899aaf4" y="318.476851"/>
     <use style="fill:#64b5cd;stroke:#64b5cd;" x="947.52" xlink:href="#m36a899aaf4" y="257.20727"/>
     <use style="fill:#64b5cd;stroke:#64b5cd;" x="739.2" xlink:href="#m36a899aaf4" y="343.413688"/>
     <use style="fill:#64b5cd;stroke:#64b5cd;" x="515.569942" xlink:href="#m36a899aaf4" y="433.965153"/>
     <use style="fill:#64b5cd;stroke:#64b5cd;" x="508.56" xlink:href="#m36a899aaf4" y="437.098064"/>
     <use style="fill:#64b5cd;stroke:#64b5cd;" x="546.162162" xlink:href="#m36a899aaf4" y="421.189304"/>
     <use style="fill:#64b5cd;stroke:#64b5cd;" x="590.4" xlink:href="#m36a899aaf4" y="403.820164"/>
     <use style="fill:#64b5cd;stroke:#64b5cd;" x="603.301734" xlink:href="#m36a899aaf4" y="398.80406"/>
     <use style="fill:#64b5cd;stroke:#64b5cd;" x="706.133333" xlink:href="#m36a899aaf4" y="356.467799"/>
     <use style="fill:#64b5cd;stroke:#64b5cd;" x="191.489362" xlink:href="#m36a899aaf4" y="566.596289"/>
     <use style="fill:#64b5cd;stroke:#64b5cd;" x="724.32" xlink:href="#m36a899aaf4" y="349.239297"/>
     <use style="fill:#64b5cd;stroke:#64b5cd;" x="646.2" xlink:href="#m36a899aaf4" y="380.800521"/>
     <use style="fill:#64b5cd;stroke:#64b5cd;" x="783.84" xlink:href="#m36a899aaf4" y="324.129843"/>
     <use style="fill:#64b5cd;stroke:#64b5cd;" x="608.745205" xlink:href="#m36a899aaf4" y="395.379314"/>
     <use style="fill:#64b5cd;stroke:#64b5cd;" x="437.88" xlink:href="#m36a899aaf4" y="465.7698"/>
     <use style="fill:#64b5cd;stroke:#64b5cd;" x="565.6" xlink:href="#m36a899aaf4" y="413.874576"/>
     <use style="fill:#64b5cd;stroke:#64b5cd;" x="655.095652" xlink:href="#m36a899aaf4" y="377.040247"/>
     <use style="fill:#64b5cd;stroke:#64b5cd;" x="536.290909" xlink:href="#m36a899aaf4" y="425.664815"/>
     <use style="fill:#64b5cd;stroke:#64b5cd;" x="345.125275" xlink:href="#m36a899aaf4" y="503.745138"/>
     <use style="fill:#64b5cd;stroke:#64b5cd;" x="602.464865" xlink:href="#m36a899aaf4" y="399.026948"/>
     <use style="fill:#64b5cd;stroke:#64b5cd;" x="493.68" xlink:href="#m36a899aaf4" y="443.848927"/>
     <use style="fill:#64b5cd;stroke:#64b5cd;" x="749.828571" xlink:href="#m36a899aaf4" y="338.040794"/>
     <use style="fill:#64b5cd;stroke:#64b5cd;" x="649.92" xlink:href="#m36a899aaf4" y="378.878057"/>
     <use style="fill:#64b5cd;stroke:#64b5cd;" x="144" xlink:href="#m36a899aaf4" y="585.913045"/>
     <use style="fill:#64b5cd;stroke:#64b5cd;" x="885.389474" xlink:href="#m36a899aaf4" y="282.60068"/>
     <use style="fill:#64b5cd;stroke:#64b5cd;" x="692.210526" xlink:href="#m36a899aaf4" y="362.056882"/>
     <use style="fill:#64b5cd;stroke:#64b5cd;" x="600.32" xlink:href="#m36a899aaf4" y="399.926655"/>
     <use style="fill:#64b5cd;stroke:#64b5cd;" x="559.613793" xlink:href="#m36a899aaf4" y="416.214189"/>
     <use style="fill:#64b5cd;stroke:#64b5cd;" x="861.546667" xlink:href="#m36a899aaf4" y="292.361854"/>
     <use style="fill:#64b5cd;stroke:#64b5cd;" x="823.476106" xlink:href="#m36a899aaf4" y="308.006111"/>
     <use style="fill:#64b5cd;stroke:#64b5cd;" x="689.6" xlink:href="#m36a899aaf4" y="363.006449"/>
     <use style="fill:#64b5cd;stroke:#64b5cd;" x="971.328" xlink:href="#m36a899aaf4" y="247.398649"/>
     <use style="fill:#64b5cd;stroke:#64b5cd;" x="637.165714" xlink:href="#m36a899aaf4" y="384.819035"/>
     <use style="fill:#64b5cd;stroke:#64b5cd;" x="774.211765" xlink:href="#m36a899aaf4" y="329.194288"/>
     <use style="fill:#64b5cd;stroke:#64b5cd;" x="1036.8" xlink:href="#m36a899aaf4" y="222.009243"/>
     <use style="fill:#64b5cd;stroke:#64b5cd;" x="957.44" xlink:href="#m36a899aaf4" y="254.00221"/>
     <use style="fill:#64b5cd;stroke:#64b5cd;" x="581.289796" xlink:href="#m36a899aaf4" y="407.318348"/>
     <use style="fill:#64b5cd;stroke:#64b5cd;" x="678.085714" xlink:href="#m36a899aaf4" y="366.829657"/>
     <use style="fill:#64b5cd;stroke:#64b5cd;" x="620.16" xlink:href="#m36a899aaf4" y="389.801051"/>
     <use style="fill:#64b5cd;stroke:#64b5cd;" x="1036.8" xlink:href="#m36a899aaf4" y="221.168083"/>
     <use style="fill:#64b5cd;stroke:#64b5cd;" x="750.825" xlink:href="#m36a899aaf4" y="338.616224"/>
     <use style="fill:#64b5cd;stroke:#64b5cd;" x="811.2" xlink:href="#m36a899aaf4" y="313.348491"/>
     <use style="fill:#64b5cd;stroke:#64b5cd;" x="751.526627" xlink:href="#m36a899aaf4" y="337.501211"/>
     <use style="fill:#64b5cd;stroke:#64b5cd;" x="545.76" xlink:href="#m36a899aaf4" y="421.828559"/>
     <use style="fill:#64b5cd;stroke:#64b5cd;" x="654.171429" xlink:href="#m36a899aaf4" y="377.244254"/>
     <use style="fill:#64b5cd;stroke:#64b5cd;" x="778.88" xlink:href="#m36a899aaf4" y="326.365692"/>
     <use style="fill:#64b5cd;stroke:#64b5cd;" x="951.771429" xlink:href="#m36a899aaf4" y="255.917073"/>
     <use style="fill:#64b5cd;stroke:#64b5cd;" x="773.658947" xlink:href="#m36a899aaf4" y="328.844315"/>
     <use style="fill:#64b5cd;stroke:#64b5cd;" x="716.88" xlink:href="#m36a899aaf4" y="352.125627"/>
     <use style="fill:#64b5cd;stroke:#64b5cd;" x="958.68" xlink:href="#m36a899aaf4" y="253.311439"/>
     <use style="fill:#64b5cd;stroke:#64b5cd;" x="384.132414" xlink:href="#m36a899aaf4" y="487.298895"/>
     <use style="fill:#64b5cd;stroke:#64b5cd;" x="996.447458" xlink:href="#m36a899aaf4" y="237.553331"/>
     <use style="fill:#64b5cd;stroke:#64b5cd;" x="352.32" xlink:href="#m36a899aaf4" y="499.816224"/>
     <use style="fill:#64b5cd;stroke:#64b5cd;" x="566.592" xlink:href="#m36a899aaf4" y="413.675378"/>
     <use style="fill:#64b5cd;stroke:#64b5cd;" x="764.821192" xlink:href="#m36a899aaf4" y="332.386568"/>
     <use style="fill:#64b5cd;stroke:#64b5cd;" x="352.32" xlink:href="#m36a899aaf4" y="500.372596"/>
     <use style="fill:#64b5cd;stroke:#64b5cd;" x="192.259459" xlink:href="#m36a899aaf4" y="565.921258"/>
     <use style="fill:#64b5cd;stroke:#64b5cd;" x="714.050704" xlink:href="#m36a899aaf4" y="353.161838"/>
     <use style="fill:#64b5cd;stroke:#64b5cd;" x="939.310345" xlink:href="#m36a899aaf4" y="260.543411"/>
     <use style="fill:#64b5cd;stroke:#64b5cd;" x="543.410526" xlink:href="#m36a899aaf4" y="421.972939"/>
     <use style="fill:#64b5cd;stroke:#64b5cd;" x="553.2" xlink:href="#m36a899aaf4" y="418.692292"/>
     <use style="fill:#64b5cd;stroke:#64b5cd;" x="914.453333" xlink:href="#m36a899aaf4" y="270.926149"/>
     <use style="fill:#64b5cd;stroke:#64b5cd;" x="434.269951" xlink:href="#m36a899aaf4" y="467.440357"/>
     <use style="fill:#64b5cd;stroke:#64b5cd;" x="824.872727" xlink:href="#m36a899aaf4" y="307.835426"/>
     <use style="fill:#64b5cd;stroke:#64b5cd;" x="813.6" xlink:href="#m36a899aaf4" y="311.760842"/>
     <use style="fill:#64b5cd;stroke:#64b5cd;" x="728.119149" xlink:href="#m36a899aaf4" y="347.464823"/>
     <use style="fill:#64b5cd;stroke:#64b5cd;" x="545.76" xlink:href="#m36a899aaf4" y="422.20242"/>
     <use style="fill:#64b5cd;stroke:#64b5cd;" x="746.64" xlink:href="#m36a899aaf4" y="340.161905"/>
     <use style="fill:#64b5cd;stroke:#64b5cd;" x="544.22069" xlink:href="#m36a899aaf4" y="422.633656"/>
     <use style="fill:#64b5cd;stroke:#64b5cd;" x="690.940541" xlink:href="#m36a899aaf4" y="362.309914"/>
     <use style="fill:#64b5cd;stroke:#64b5cd;" x="948.694737" xlink:href="#m36a899aaf4" y="257.253411"/>
     <use style="fill:#64b5cd;stroke:#64b5cd;" x="960.585366" xlink:href="#m36a899aaf4" y="251.786478"/>
     <use style="fill:#64b5cd;stroke:#64b5cd;" x="540.429851" xlink:href="#m36a899aaf4" y="424.490552"/>
     <use style="fill:#64b5cd;stroke:#64b5cd;" x="788.8" xlink:href="#m36a899aaf4" y="323.350535"/>
     <use style="fill:#64b5cd;stroke:#64b5cd;" x="563.15493" xlink:href="#m36a899aaf4" y="415.00516"/>
     <use style="fill:#64b5cd;stroke:#64b5cd;" x="322.56" xlink:href="#m36a899aaf4" y="512.522989"/>
     <use style="fill:#64b5cd;stroke:#64b5cd;" x="885.811765" xlink:href="#m36a899aaf4" y="282.567233"/>
     <use style="fill:#64b5cd;stroke:#64b5cd;" x="532.850174" xlink:href="#m36a899aaf4" y="426.867893"/>
     <use style="fill:#64b5cd;stroke:#64b5cd;" x="439.2" xlink:href="#m36a899aaf4" y="465.323749"/>
     <use style="fill:#64b5cd;stroke:#64b5cd;" x="367.2" xlink:href="#m36a899aaf4" y="494.644533"/>
     <use style="fill:#64b5cd;stroke:#64b5cd;" x="843.36" xlink:href="#m36a899aaf4" y="299.925224"/>
     <use style="fill:#64b5cd;stroke:#64b5cd;" x="607.405714" xlink:href="#m36a899aaf4" y="396.277953"/>
     <use style="fill:#64b5cd;stroke:#64b5cd;" x="944.441379" xlink:href="#m36a899aaf4" y="257.693809"/>
     <use style="fill:#64b5cd;stroke:#64b5cd;" x="449.04" xlink:href="#m36a899aaf4" y="461.34149"/>
     <use style="fill:#64b5cd;stroke:#64b5cd;" x="600.32" xlink:href="#m36a899aaf4" y="399.394517"/>
    </g>
   </g>
   <g id="line2d_16">
    <defs>
     <path d="M 0 3 
C 0.795609 3 1.55874 2.683901 2.12132 2.12132 
C 2.683901 1.55874 3 0.795609 3 0 
C 3 -0.795609 2.683901 -1.55874 2.12132 -2.12132 
C 1.55874 -2.683901 0.795609 -3 0 -3 
C -0.795609 -3 -1.55874 -2.683901 -2.12132 -2.12132 
C -2.683901 -1.55874 -3 -0.795609 -3 0 
C -3 0.795609 -2.683901 1.55874 -2.12132 2.12132 
C -1.55874 2.683901 -0.795609 3 0 3 
z
" id="md89367269f" style="stroke:#8172b3;"/>
    </defs>
    <g clip-path="url(#pea96bf88e8)">
     <use style="fill:#8172b3;stroke:#8172b3;" x="760.349239" xlink:href="#md89367269f" y="314.934926"/>
     <use style="fill:#8172b3;stroke:#8172b3;" x="954.228902" xlink:href="#md89367269f" y="280.562513"/>
     <use style="fill:#8172b3;stroke:#8172b3;" x="560.64" xlink:href="#md89367269f" y="419.733165"/>
     <use style="fill:#8172b3;stroke:#8172b3;" x="693.415385" xlink:href="#md89367269f" y="454.936157"/>
     <use style="fill:#8172b3;stroke:#8172b3;" x="706.464" xlink:href="#md89367269f" y="314.092395"/>
     <use style="fill:#8172b3;stroke:#8172b3;" x="652.309489" xlink:href="#md89367269f" y="329.111653"/>
     <use style="fill:#8172b3;stroke:#8172b3;" x="441.6" xlink:href="#md89367269f" y="425.911332"/>
     <use style="fill:#8172b3;stroke:#8172b3;" x="340.416" xlink:href="#md89367269f" y="333.319887"/>
     <use style="fill:#8172b3;stroke:#8172b3;" x="929.877844" xlink:href="#md89367269f" y="286.694309"/>
     <use style="fill:#8172b3;stroke:#8172b3;" x="673.728" xlink:href="#md89367269f" y="292.554632"/>
     <use style="fill:#8172b3;stroke:#8172b3;" x="943.8" xlink:href="#md89367269f" y="300.54265"/>
     <use style="fill:#8172b3;stroke:#8172b3;" x="840.384" xlink:href="#md89367269f" y="336.362625"/>
     <use style="fill:#8172b3;stroke:#8172b3;" x="916.759664" xlink:href="#md89367269f" y="284.209708"/>
     <use style="fill:#8172b3;stroke:#8172b3;" x="400.68" xlink:href="#md89367269f" y="405.205699"/>
     <use style="fill:#8172b3;stroke:#8172b3;" x="501.12" xlink:href="#md89367269f" y="408.201129"/>
     <use style="fill:#8172b3;stroke:#8172b3;" x="731.76" xlink:href="#md89367269f" y="358.758818"/>
     <use style="fill:#8172b3;stroke:#8172b3;" x="511.04" xlink:href="#md89367269f" y="404.376286"/>
     <use style="fill:#8172b3;stroke:#8172b3;" x="466.213534" xlink:href="#md89367269f" y="357.422003"/>
     <use style="fill:#8172b3;stroke:#8172b3;" x="807.456881" xlink:href="#md89367269f" y="335.91991"/>
     <use style="fill:#8172b3;stroke:#8172b3;" x="792.768" xlink:href="#md89367269f" y="249.787875"/>
     <use style="fill:#8172b3;stroke:#8172b3;" x="877.737931" xlink:href="#md89367269f" y="340.477611"/>
     <use style="fill:#8172b3;stroke:#8172b3;" x="644.96" xlink:href="#md89367269f" y="411.53539"/>
     <use style="fill:#8172b3;stroke:#8172b3;" x="491.2" xlink:href="#md89367269f" y="399.056082"/>
     <use style="fill:#8172b3;stroke:#8172b3;" x="834.432" xlink:href="#md89367269f" y="347.607022"/>
     <use style="fill:#8172b3;stroke:#8172b3;" x="571.323077" xlink:href="#md89367269f" y="414.060296"/>
     <use style="fill:#8172b3;stroke:#8172b3;" x="968.777143" xlink:href="#md89367269f" y="265.316034"/>
     <use style="fill:#8172b3;stroke:#8172b3;" x="679.68" xlink:href="#md89367269f" y="353.888637"/>
     <use style="fill:#8172b3;stroke:#8172b3;" x="831.263309" xlink:href="#md89367269f" y="327.976786"/>
     <use style="fill:#8172b3;stroke:#8172b3;" x="535.131429" xlink:href="#md89367269f" y="370.610535"/>
     <use style="fill:#8172b3;stroke:#8172b3;" x="828.48" xlink:href="#md89367269f" y="338.298486"/>
     <use style="fill:#8172b3;stroke:#8172b3;" x="659.307383" xlink:href="#md89367269f" y="322.795358"/>
     <use style="fill:#8172b3;stroke:#8172b3;" x="874.472727" xlink:href="#md89367269f" y="375.139186"/>
     <use style="fill:#8172b3;stroke:#8172b3;" x="658.422857" xlink:href="#md89367269f" y="372.385244"/>
     <use style="fill:#8172b3;stroke:#8172b3;" x="1036.8" xlink:href="#md89367269f" y="326.142154"/>
     <use style="fill:#8172b3;stroke:#8172b3;" x="768.96" xlink:href="#md89367269f" y="339.501197"/>
     <use style="fill:#8172b3;stroke:#8172b3;" x="886.74958" xlink:href="#md89367269f" y="356.254584"/>
     <use style="fill:#8172b3;stroke:#8172b3;" x="757.056" xlink:href="#md89367269f" y="405.332228"/>
     <use style="fill:#8172b3;stroke:#8172b3;" x="799.65" xlink:href="#md89367269f" y="387.790177"/>
     <use style="fill:#8172b3;stroke:#8172b3;" x="804.672" xlink:href="#md89367269f" y="396.818405"/>
     <use style="fill:#8172b3;stroke:#8172b3;" x="471.36" xlink:href="#md89367269f" y="319.501176"/>
     <use style="fill:#8172b3;stroke:#8172b3;" x="456.48" xlink:href="#md89367269f" y="343.855414"/>
     <use style="fill:#8172b3;stroke:#8172b3;" x="929.664" xlink:href="#md89367269f" y="361.096403"/>
     <use style="fill:#8172b3;stroke:#8172b3;" x="322.56" xlink:href="#md89367269f" y="397.357418"/>
     <use style="fill:#8172b3;stroke:#8172b3;" x="608.256" xlink:href="#md89367269f" y="315.620404"/>
     <use style="fill:#8172b3;stroke:#8172b3;" x="905.918325" xlink:href="#md89367269f" y="306.998958"/>
     <use style="fill:#8172b3;stroke:#8172b3;" x="905.505882" xlink:href="#md89367269f" y="254.568161"/>
     <use style="fill:#8172b3;stroke:#8172b3;" x="475.611429" xlink:href="#md89367269f" y="390.46963"/>
     <use style="fill:#8172b3;stroke:#8172b3;" x="560.192481" xlink:href="#md89367269f" y="394.677254"/>
     <use style="fill:#8172b3;stroke:#8172b3;" x="471.36" xlink:href="#md89367269f" y="363.362789"/>
     <use style="fill:#8172b3;stroke:#8172b3;" x="847.08" xlink:href="#md89367269f" y="322.806754"/>
    </g>
   </g>
   <g id="patch_3">
    <path d="M 144 630 
L 144 86.4 
" style="fill:none;stroke:#cccccc;stroke-linecap:square;stroke-linejoin:miter;stroke-width:1.25;"/>
   </g>
   <g id="patch_4">
    <path d="M 1036.8 630 
L 1036.8 86.4 
" style="fill:none;stroke:#cccccc;stroke-linecap:square;stroke-linejoin:miter;stroke-width:1.25;"/>
   </g>
   <g id="patch_5">
    <path d="M 144 630 
L 1036.8 630 
" style="fill:none;stroke:#cccccc;stroke-linecap:square;stroke-linejoin:miter;stroke-width:1.25;"/>
   </g>
   <g id="patch_6">
    <path d="M 144 86.4 
L 1036.8 86.4 
" style="fill:none;stroke:#cccccc;stroke-linecap:square;stroke-linejoin:miter;stroke-width:1.25;"/>
   </g>
  </g>
 </g>
 <defs>
  <clipPath id="pea96bf88e8">
   <rect height="543.6" width="892.8" x="144" y="86.4"/>
  </clipPath>
 </defs>
</svg>
