<?xml version="1.0" encoding="utf-8" standalone="no"?>
<!DOCTYPE svg PUBLIC "-//W3C//DTD SVG 1.1//EN"
  "http://www.w3.org/Graphics/SVG/1.1/DTD/svg11.dtd">
<!-- Created with matplotlib (https://matplotlib.org/) -->
<svg height="288pt" version="1.1" viewBox="0 0 432 288" width="432pt" xmlns="http://www.w3.org/2000/svg" xmlns:xlink="http://www.w3.org/1999/xlink">
 <defs>
  <style type="text/css">
*{stroke-linecap:butt;stroke-linejoin:round;}
  </style>
 </defs>
 <g id="figure_1">
  <g id="patch_1">
   <path d="M 0 288 
L 432 288 
L 432 0 
L 0 0 
z
" style="fill:#ffffff;"/>
  </g>
  <g id="axes_1">
   <g id="patch_2">
    <path d="M 54 252 
L 388.8 252 
L 388.8 34.56 
L 54 34.56 
z
" style="fill:#ffffff;"/>
   </g>
   <g id="matplotlib.axis_1">
    <g id="xtick_1">
     <g id="line2d_1">
      <path clip-path="url(#p315b8efa6f)" d="M 73.332083 252 
L 73.332083 34.56 
" style="fill:none;stroke:#cccccc;stroke-linecap:round;"/>
     </g>
     <g id="text_1">
      <!-- −4 -->
      <defs>
       <path d="M 52.828125 31.203125 
L 5.5625 31.203125 
L 5.5625 39.40625 
L 52.828125 39.40625 
z
" id="ArialMT-8722"/>
       <path d="M 32.328125 0 
L 32.328125 17.140625 
L 1.265625 17.140625 
L 1.265625 25.203125 
L 33.9375 71.578125 
L 41.109375 71.578125 
L 41.109375 25.203125 
L 50.78125 25.203125 
L 50.78125 17.140625 
L 41.109375 17.140625 
L 41.109375 0 
z
M 32.328125 25.203125 
L 32.328125 57.46875 
L 9.90625 25.203125 
z
" id="ArialMT-52"/>
      </defs>
      <g style="fill:#262626;" transform="translate(60.790364 277.247187)scale(0.22 -0.22)">
       <use xlink:href="#ArialMT-8722"/>
       <use x="58.398438" xlink:href="#ArialMT-52"/>
      </g>
     </g>
    </g>
    <g id="xtick_2">
     <g id="line2d_2">
      <path clip-path="url(#p315b8efa6f)" d="M 149.860907 252 
L 149.860907 34.56 
" style="fill:none;stroke:#cccccc;stroke-linecap:round;"/>
     </g>
     <g id="text_2">
      <!-- −2 -->
      <defs>
       <path d="M 50.34375 8.453125 
L 50.34375 0 
L 3.03125 0 
Q 2.9375 3.171875 4.046875 6.109375 
Q 5.859375 10.9375 9.828125 15.625 
Q 13.8125 20.3125 21.34375 26.46875 
Q 33.015625 36.03125 37.109375 41.625 
Q 41.21875 47.21875 41.21875 52.203125 
Q 41.21875 57.421875 37.46875 61 
Q 33.734375 64.59375 27.734375 64.59375 
Q 21.390625 64.59375 17.578125 60.78125 
Q 13.765625 56.984375 13.71875 50.25 
L 4.6875 51.171875 
Q 5.609375 61.28125 11.65625 66.578125 
Q 17.71875 71.875 27.9375 71.875 
Q 38.234375 71.875 44.234375 66.15625 
Q 50.25 60.453125 50.25 52 
Q 50.25 47.703125 48.484375 43.546875 
Q 46.734375 39.40625 42.65625 34.8125 
Q 38.578125 30.21875 29.109375 22.21875 
Q 21.1875 15.578125 18.9375 13.203125 
Q 16.703125 10.84375 15.234375 8.453125 
z
" id="ArialMT-50"/>
      </defs>
      <g style="fill:#262626;" transform="translate(137.319188 277.247187)scale(0.22 -0.22)">
       <use xlink:href="#ArialMT-8722"/>
       <use x="58.398438" xlink:href="#ArialMT-50"/>
      </g>
     </g>
    </g>
    <g id="xtick_3">
     <g id="line2d_3">
      <path clip-path="url(#p315b8efa6f)" d="M 226.389731 252 
L 226.389731 34.56 
" style="fill:none;stroke:#cccccc;stroke-linecap:round;"/>
     </g>
     <g id="text_3">
      <!-- 0 -->
      <defs>
       <path d="M 4.15625 35.296875 
Q 4.15625 48 6.765625 55.734375 
Q 9.375 63.484375 14.515625 67.671875 
Q 19.671875 71.875 27.484375 71.875 
Q 33.25 71.875 37.59375 69.546875 
Q 41.9375 67.234375 44.765625 62.859375 
Q 47.609375 58.5 49.21875 52.21875 
Q 50.828125 45.953125 50.828125 35.296875 
Q 50.828125 22.703125 48.234375 14.96875 
Q 45.65625 7.234375 40.5 3 
Q 35.359375 -1.21875 27.484375 -1.21875 
Q 17.140625 -1.21875 11.234375 6.203125 
Q 4.15625 15.140625 4.15625 35.296875 
z
M 13.1875 35.296875 
Q 13.1875 17.671875 17.3125 11.828125 
Q 21.4375 6 27.484375 6 
Q 33.546875 6 37.671875 11.859375 
Q 41.796875 17.71875 41.796875 35.296875 
Q 41.796875 52.984375 37.671875 58.78125 
Q 33.546875 64.59375 27.390625 64.59375 
Q 21.34375 64.59375 17.71875 59.46875 
Q 13.1875 52.9375 13.1875 35.296875 
z
" id="ArialMT-48"/>
      </defs>
      <g style="fill:#262626;" transform="translate(220.2727 277.247187)scale(0.22 -0.22)">
       <use xlink:href="#ArialMT-48"/>
      </g>
     </g>
    </g>
    <g id="xtick_4">
     <g id="line2d_4">
      <path clip-path="url(#p315b8efa6f)" d="M 302.918555 252 
L 302.918555 34.56 
" style="fill:none;stroke:#cccccc;stroke-linecap:round;"/>
     </g>
     <g id="text_4">
      <!-- 2 -->
      <g style="fill:#262626;" transform="translate(296.801524 277.247187)scale(0.22 -0.22)">
       <use xlink:href="#ArialMT-50"/>
      </g>
     </g>
    </g>
    <g id="xtick_5">
     <g id="line2d_5">
      <path clip-path="url(#p315b8efa6f)" d="M 379.447379 252 
L 379.447379 34.56 
" style="fill:none;stroke:#cccccc;stroke-linecap:round;"/>
     </g>
     <g id="text_5">
      <!-- 4 -->
      <g style="fill:#262626;" transform="translate(373.330348 277.247187)scale(0.22 -0.22)">
       <use xlink:href="#ArialMT-52"/>
      </g>
     </g>
    </g>
    <g id="text_6">
     <!-- Yerr_normalized -->
     <defs>
      <path d="M 27.875 0 
L 27.875 30.328125 
L 0.296875 71.578125 
L 11.8125 71.578125 
L 25.921875 50 
Q 29.828125 43.953125 33.203125 37.890625 
Q 36.421875 43.5 41.015625 50.53125 
L 54.890625 71.578125 
L 65.921875 71.578125 
L 37.359375 30.328125 
L 37.359375 0 
z
" id="ArialMT-89"/>
      <path d="M 42.09375 16.703125 
L 51.171875 15.578125 
Q 49.03125 7.625 43.21875 3.21875 
Q 37.40625 -1.171875 28.375 -1.171875 
Q 17 -1.171875 10.328125 5.828125 
Q 3.65625 12.84375 3.65625 25.484375 
Q 3.65625 38.578125 10.390625 45.796875 
Q 17.140625 53.03125 27.875 53.03125 
Q 38.28125 53.03125 44.875 45.953125 
Q 51.46875 38.875 51.46875 26.03125 
Q 51.46875 25.25 51.421875 23.6875 
L 12.75 23.6875 
Q 13.234375 15.140625 17.578125 10.59375 
Q 21.921875 6.0625 28.421875 6.0625 
Q 33.25 6.0625 36.671875 8.59375 
Q 40.09375 11.140625 42.09375 16.703125 
z
M 13.234375 30.90625 
L 42.1875 30.90625 
Q 41.609375 37.453125 38.875 40.71875 
Q 34.671875 45.796875 27.984375 45.796875 
Q 21.921875 45.796875 17.796875 41.75 
Q 13.671875 37.703125 13.234375 30.90625 
z
" id="ArialMT-101"/>
      <path d="M 6.5 0 
L 6.5 51.859375 
L 14.40625 51.859375 
L 14.40625 44 
Q 17.4375 49.515625 20 51.265625 
Q 22.5625 53.03125 25.640625 53.03125 
Q 30.078125 53.03125 34.671875 50.203125 
L 31.640625 42.046875 
Q 28.421875 43.953125 25.203125 43.953125 
Q 22.3125 43.953125 20.015625 42.21875 
Q 17.71875 40.484375 16.75 37.40625 
Q 15.28125 32.71875 15.28125 27.15625 
L 15.28125 0 
z
" id="ArialMT-114"/>
      <path d="M -1.515625 -19.875 
L -1.515625 -13.53125 
L 56.734375 -13.53125 
L 56.734375 -19.875 
z
" id="ArialMT-95"/>
      <path d="M 6.59375 0 
L 6.59375 51.859375 
L 14.5 51.859375 
L 14.5 44.484375 
Q 20.21875 53.03125 31 53.03125 
Q 35.6875 53.03125 39.625 51.34375 
Q 43.5625 49.65625 45.515625 46.921875 
Q 47.46875 44.1875 48.25 40.4375 
Q 48.734375 37.984375 48.734375 31.890625 
L 48.734375 0 
L 39.9375 0 
L 39.9375 31.546875 
Q 39.9375 36.921875 38.90625 39.578125 
Q 37.890625 42.234375 35.28125 43.8125 
Q 32.671875 45.40625 29.15625 45.40625 
Q 23.53125 45.40625 19.453125 41.84375 
Q 15.375 38.28125 15.375 28.328125 
L 15.375 0 
z
" id="ArialMT-110"/>
      <path d="M 3.328125 25.921875 
Q 3.328125 40.328125 11.328125 47.265625 
Q 18.015625 53.03125 27.640625 53.03125 
Q 38.328125 53.03125 45.109375 46.015625 
Q 51.90625 39.015625 51.90625 26.65625 
Q 51.90625 16.65625 48.90625 10.90625 
Q 45.90625 5.171875 40.15625 2 
Q 34.421875 -1.171875 27.640625 -1.171875 
Q 16.75 -1.171875 10.03125 5.8125 
Q 3.328125 12.796875 3.328125 25.921875 
z
M 12.359375 25.921875 
Q 12.359375 15.96875 16.703125 11.015625 
Q 21.046875 6.0625 27.640625 6.0625 
Q 34.1875 6.0625 38.53125 11.03125 
Q 42.875 16.015625 42.875 26.21875 
Q 42.875 35.84375 38.5 40.796875 
Q 34.125 45.75 27.640625 45.75 
Q 21.046875 45.75 16.703125 40.8125 
Q 12.359375 35.890625 12.359375 25.921875 
z
" id="ArialMT-111"/>
      <path d="M 6.59375 0 
L 6.59375 51.859375 
L 14.453125 51.859375 
L 14.453125 44.578125 
Q 16.890625 48.390625 20.9375 50.703125 
Q 25 53.03125 30.171875 53.03125 
Q 35.9375 53.03125 39.625 50.640625 
Q 43.3125 48.25 44.828125 43.953125 
Q 50.984375 53.03125 60.84375 53.03125 
Q 68.5625 53.03125 72.703125 48.75 
Q 76.859375 44.484375 76.859375 35.59375 
L 76.859375 0 
L 68.109375 0 
L 68.109375 32.671875 
Q 68.109375 37.9375 67.25 40.25 
Q 66.40625 42.578125 64.15625 43.984375 
Q 61.921875 45.40625 58.890625 45.40625 
Q 53.421875 45.40625 49.796875 41.765625 
Q 46.1875 38.140625 46.1875 30.125 
L 46.1875 0 
L 37.40625 0 
L 37.40625 33.6875 
Q 37.40625 39.546875 35.25 42.46875 
Q 33.109375 45.40625 28.21875 45.40625 
Q 24.515625 45.40625 21.359375 43.453125 
Q 18.21875 41.5 16.796875 37.734375 
Q 15.375 33.984375 15.375 26.90625 
L 15.375 0 
z
" id="ArialMT-109"/>
      <path d="M 40.4375 6.390625 
Q 35.546875 2.25 31.03125 0.53125 
Q 26.515625 -1.171875 21.34375 -1.171875 
Q 12.796875 -1.171875 8.203125 3 
Q 3.609375 7.171875 3.609375 13.671875 
Q 3.609375 17.484375 5.34375 20.625 
Q 7.078125 23.78125 9.890625 25.6875 
Q 12.703125 27.59375 16.21875 28.5625 
Q 18.796875 29.25 24.03125 29.890625 
Q 34.671875 31.15625 39.703125 32.90625 
Q 39.75 34.71875 39.75 35.203125 
Q 39.75 40.578125 37.25 42.78125 
Q 33.890625 45.75 27.25 45.75 
Q 21.046875 45.75 18.09375 43.578125 
Q 15.140625 41.40625 13.71875 35.890625 
L 5.125 37.0625 
Q 6.296875 42.578125 8.984375 45.96875 
Q 11.671875 49.359375 16.75 51.1875 
Q 21.828125 53.03125 28.515625 53.03125 
Q 35.15625 53.03125 39.296875 51.46875 
Q 43.453125 49.90625 45.40625 47.53125 
Q 47.359375 45.171875 48.140625 41.546875 
Q 48.578125 39.3125 48.578125 33.453125 
L 48.578125 21.734375 
Q 48.578125 9.46875 49.140625 6.21875 
Q 49.703125 2.984375 51.375 0 
L 42.1875 0 
Q 40.828125 2.734375 40.4375 6.390625 
z
M 39.703125 26.03125 
Q 34.90625 24.078125 25.34375 22.703125 
Q 19.921875 21.921875 17.671875 20.9375 
Q 15.4375 19.96875 14.203125 18.09375 
Q 12.984375 16.21875 12.984375 13.921875 
Q 12.984375 10.40625 15.640625 8.0625 
Q 18.3125 5.71875 23.4375 5.71875 
Q 28.515625 5.71875 32.46875 7.9375 
Q 36.421875 10.15625 38.28125 14.015625 
Q 39.703125 17 39.703125 22.796875 
z
" id="ArialMT-97"/>
      <path d="M 6.390625 0 
L 6.390625 71.578125 
L 15.1875 71.578125 
L 15.1875 0 
z
" id="ArialMT-108"/>
      <path d="M 6.640625 61.46875 
L 6.640625 71.578125 
L 15.4375 71.578125 
L 15.4375 61.46875 
z
M 6.640625 0 
L 6.640625 51.859375 
L 15.4375 51.859375 
L 15.4375 0 
z
" id="ArialMT-105"/>
      <path d="M 1.953125 0 
L 1.953125 7.125 
L 34.96875 45.015625 
Q 29.34375 44.734375 25.046875 44.734375 
L 3.90625 44.734375 
L 3.90625 51.859375 
L 46.296875 51.859375 
L 46.296875 46.046875 
L 18.21875 13.140625 
L 12.796875 7.125 
Q 18.703125 7.5625 23.875 7.5625 
L 47.859375 7.5625 
L 47.859375 0 
z
" id="ArialMT-122"/>
      <path d="M 40.234375 0 
L 40.234375 6.546875 
Q 35.296875 -1.171875 25.734375 -1.171875 
Q 19.53125 -1.171875 14.328125 2.25 
Q 9.125 5.671875 6.265625 11.796875 
Q 3.421875 17.921875 3.421875 25.875 
Q 3.421875 33.640625 6 39.96875 
Q 8.59375 46.296875 13.765625 49.65625 
Q 18.953125 53.03125 25.34375 53.03125 
Q 30.03125 53.03125 33.6875 51.046875 
Q 37.359375 49.078125 39.65625 45.90625 
L 39.65625 71.578125 
L 48.390625 71.578125 
L 48.390625 0 
z
M 12.453125 25.875 
Q 12.453125 15.921875 16.640625 10.984375 
Q 20.84375 6.0625 26.5625 6.0625 
Q 32.328125 6.0625 36.34375 10.765625 
Q 40.375 15.484375 40.375 25.140625 
Q 40.375 35.796875 36.265625 40.765625 
Q 32.171875 45.75 26.171875 45.75 
Q 20.3125 45.75 16.375 40.96875 
Q 12.453125 36.1875 12.453125 25.875 
z
" id="ArialMT-100"/>
     </defs>
     <g style="fill:#262626;" transform="translate(133.385625 302.798437)scale(0.24 -0.24)">
      <use xlink:href="#ArialMT-89"/>
      <use x="66.558594" xlink:href="#ArialMT-101"/>
      <use x="122.173828" xlink:href="#ArialMT-114"/>
      <use x="155.474609" xlink:href="#ArialMT-114"/>
      <use x="188.775391" xlink:href="#ArialMT-95"/>
      <use x="244.390625" xlink:href="#ArialMT-110"/>
      <use x="300.005859" xlink:href="#ArialMT-111"/>
      <use x="355.621094" xlink:href="#ArialMT-114"/>
      <use x="388.921875" xlink:href="#ArialMT-109"/>
      <use x="472.222656" xlink:href="#ArialMT-97"/>
      <use x="527.837891" xlink:href="#ArialMT-108"/>
      <use x="550.054688" xlink:href="#ArialMT-105"/>
      <use x="572.271484" xlink:href="#ArialMT-122"/>
      <use x="622.271484" xlink:href="#ArialMT-101"/>
      <use x="677.886719" xlink:href="#ArialMT-100"/>
     </g>
    </g>
   </g>
   <g id="matplotlib.axis_2">
    <g id="ytick_1">
     <g id="line2d_6">
      <path clip-path="url(#p315b8efa6f)" d="M 54 252 
L 388.8 252 
" style="fill:none;stroke:#cccccc;stroke-linecap:round;"/>
     </g>
     <g id="text_7">
      <!-- 0.0 -->
      <defs>
       <path d="M 9.078125 0 
L 9.078125 10.015625 
L 19.09375 10.015625 
L 19.09375 0 
z
" id="ArialMT-46"/>
      </defs>
      <g style="fill:#262626;" transform="translate(13.92 259.873594)scale(0.22 -0.22)">
       <use xlink:href="#ArialMT-48"/>
       <use x="55.615234" xlink:href="#ArialMT-46"/>
       <use x="83.398438" xlink:href="#ArialMT-48"/>
      </g>
     </g>
    </g>
    <g id="ytick_2">
     <g id="line2d_7">
      <path clip-path="url(#p315b8efa6f)" d="M 54 164.561655 
L 388.8 164.561655 
" style="fill:none;stroke:#cccccc;stroke-linecap:round;"/>
     </g>
     <g id="text_8">
      <!-- 0.2 -->
      <g style="fill:#262626;" transform="translate(13.92 172.435249)scale(0.22 -0.22)">
       <use xlink:href="#ArialMT-48"/>
       <use x="55.615234" xlink:href="#ArialMT-46"/>
       <use x="83.398438" xlink:href="#ArialMT-50"/>
      </g>
     </g>
    </g>
    <g id="ytick_3">
     <g id="line2d_8">
      <path clip-path="url(#p315b8efa6f)" d="M 54 77.123311 
L 388.8 77.123311 
" style="fill:none;stroke:#cccccc;stroke-linecap:round;"/>
     </g>
     <g id="text_9">
      <!-- 0.4 -->
      <g style="fill:#262626;" transform="translate(13.92 84.996905)scale(0.22 -0.22)">
       <use xlink:href="#ArialMT-48"/>
       <use x="55.615234" xlink:href="#ArialMT-46"/>
       <use x="83.398438" xlink:href="#ArialMT-52"/>
      </g>
     </g>
    </g>
   </g>
   <g id="patch_3">
    <path clip-path="url(#p315b8efa6f)" d="M 106.285058 252 
L 121.633717 252 
L 121.633717 246.550376 
L 106.285058 246.550376 
z
" style="fill:#4c72b0;opacity:0.4;stroke:#ffffff;stroke-linejoin:miter;"/>
   </g>
   <g id="patch_4">
    <path clip-path="url(#p315b8efa6f)" d="M 121.633717 252 
L 136.982376 252 
L 136.982376 241.100752 
L 121.633717 241.100752 
z
" style="fill:#4c72b0;opacity:0.4;stroke:#ffffff;stroke-linejoin:miter;"/>
   </g>
   <g id="patch_5">
    <path clip-path="url(#p315b8efa6f)" d="M 136.982376 252 
L 152.331035 252 
L 152.331035 208.403008 
L 136.982376 208.403008 
z
" style="fill:#4c72b0;opacity:0.4;stroke:#ffffff;stroke-linejoin:miter;"/>
   </g>
   <g id="patch_6">
    <path clip-path="url(#p315b8efa6f)" d="M 152.331035 252 
L 167.679694 252 
L 167.679694 224.75188 
L 152.331035 224.75188 
z
" style="fill:#4c72b0;opacity:0.4;stroke:#ffffff;stroke-linejoin:miter;"/>
   </g>
   <g id="patch_7">
    <path clip-path="url(#p315b8efa6f)" d="M 167.679694 252 
L 183.028353 252 
L 183.028353 202.953383 
L 167.679694 202.953383 
z
" style="fill:#4c72b0;opacity:0.4;stroke:#ffffff;stroke-linejoin:miter;"/>
   </g>
   <g id="patch_8">
    <path clip-path="url(#p315b8efa6f)" d="M 183.028353 252 
L 198.377012 252 
L 198.377012 164.806015 
L 183.028353 164.806015 
z
" style="fill:#4c72b0;opacity:0.4;stroke:#ffffff;stroke-linejoin:miter;"/>
   </g>
   <g id="patch_9">
    <path clip-path="url(#p315b8efa6f)" d="M 198.377012 252 
L 213.725671 252 
L 213.725671 132.108271 
L 198.377012 132.108271 
z
" style="fill:#4c72b0;opacity:0.4;stroke:#ffffff;stroke-linejoin:miter;"/>
   </g>
   <g id="patch_10">
    <path clip-path="url(#p315b8efa6f)" d="M 213.725671 252 
L 229.074329 252 
L 229.074329 44.914286 
L 213.725671 44.914286 
z
" style="fill:#4c72b0;opacity:0.4;stroke:#ffffff;stroke-linejoin:miter;"/>
   </g>
   <g id="patch_11">
    <path clip-path="url(#p315b8efa6f)" d="M 229.074329 252 
L 244.422988 252 
L 244.422988 72.162406 
L 229.074329 72.162406 
z
" style="fill:#4c72b0;opacity:0.4;stroke:#ffffff;stroke-linejoin:miter;"/>
   </g>
   <g id="patch_12">
    <path clip-path="url(#p315b8efa6f)" d="M 244.422988 252 
L 259.771647 252 
L 259.771647 99.410526 
L 244.422988 99.410526 
z
" style="fill:#4c72b0;opacity:0.4;stroke:#ffffff;stroke-linejoin:miter;"/>
   </g>
   <g id="patch_13">
    <path clip-path="url(#p315b8efa6f)" d="M 259.771647 252 
L 275.120306 252 
L 275.120306 126.658647 
L 259.771647 126.658647 
z
" style="fill:#4c72b0;opacity:0.4;stroke:#ffffff;stroke-linejoin:miter;"/>
   </g>
   <g id="patch_14">
    <path clip-path="url(#p315b8efa6f)" d="M 275.120306 252 
L 290.468965 252 
L 290.468965 186.604511 
L 275.120306 186.604511 
z
" style="fill:#4c72b0;opacity:0.4;stroke:#ffffff;stroke-linejoin:miter;"/>
   </g>
   <g id="patch_15">
    <path clip-path="url(#p315b8efa6f)" d="M 290.468965 252 
L 305.817624 252 
L 305.817624 246.550376 
L 290.468965 246.550376 
z
" style="fill:#4c72b0;opacity:0.4;stroke:#ffffff;stroke-linejoin:miter;"/>
   </g>
   <g id="patch_16">
    <path clip-path="url(#p315b8efa6f)" d="M 305.817624 252 
L 321.166283 252 
L 321.166283 246.550376 
L 305.817624 246.550376 
z
" style="fill:#4c72b0;opacity:0.4;stroke:#ffffff;stroke-linejoin:miter;"/>
   </g>
   <g id="patch_17">
    <path clip-path="url(#p315b8efa6f)" d="M 321.166283 252 
L 336.514942 252 
L 336.514942 246.550376 
L 321.166283 246.550376 
z
" style="fill:#4c72b0;opacity:0.4;stroke:#ffffff;stroke-linejoin:miter;"/>
   </g>
   <g id="LineCollection_1">
    <path clip-path="url(#p315b8efa6f)" d="M 233.997967 252 
L 233.997967 241.128 
" style="fill:none;stroke:#4c72b0;"/>
    <path clip-path="url(#p315b8efa6f)" d="M 170.984139 252 
L 170.984139 241.128 
" style="fill:none;stroke:#4c72b0;"/>
    <path clip-path="url(#p315b8efa6f)" d="M 234.126245 252 
L 234.126245 241.128 
" style="fill:none;stroke:#4c72b0;"/>
    <path clip-path="url(#p315b8efa6f)" d="M 193.322795 252 
L 193.322795 241.128 
" style="fill:none;stroke:#4c72b0;"/>
    <path clip-path="url(#p315b8efa6f)" d="M 205.732264 252 
L 205.732264 241.128 
" style="fill:none;stroke:#4c72b0;"/>
    <path clip-path="url(#p315b8efa6f)" d="M 199.98427 252 
L 199.98427 241.128 
" style="fill:none;stroke:#4c72b0;"/>
    <path clip-path="url(#p315b8efa6f)" d="M 202.42515 252 
L 202.42515 241.128 
" style="fill:none;stroke:#4c72b0;"/>
    <path clip-path="url(#p315b8efa6f)" d="M 203.612171 252 
L 203.612171 241.128 
" style="fill:none;stroke:#4c72b0;"/>
    <path clip-path="url(#p315b8efa6f)" d="M 249.342803 252 
L 249.342803 241.128 
" style="fill:none;stroke:#4c72b0;"/>
    <path clip-path="url(#p315b8efa6f)" d="M 148.199452 252 
L 148.199452 241.128 
" style="fill:none;stroke:#4c72b0;"/>
    <path clip-path="url(#p315b8efa6f)" d="M 151.652445 252 
L 151.652445 241.128 
" style="fill:none;stroke:#4c72b0;"/>
    <path clip-path="url(#p315b8efa6f)" d="M 230.491009 252 
L 230.491009 241.128 
" style="fill:none;stroke:#4c72b0;"/>
    <path clip-path="url(#p315b8efa6f)" d="M 184.626118 252 
L 184.626118 241.128 
" style="fill:none;stroke:#4c72b0;"/>
    <path clip-path="url(#p315b8efa6f)" d="M 259.916653 252 
L 259.916653 241.128 
" style="fill:none;stroke:#4c72b0;"/>
    <path clip-path="url(#p315b8efa6f)" d="M 289.300857 252 
L 289.300857 241.128 
" style="fill:none;stroke:#4c72b0;"/>
    <path clip-path="url(#p315b8efa6f)" d="M 230.536357 252 
L 230.536357 241.128 
" style="fill:none;stroke:#4c72b0;"/>
    <path clip-path="url(#p315b8efa6f)" d="M 250.820207 252 
L 250.820207 241.128 
" style="fill:none;stroke:#4c72b0;"/>
    <path clip-path="url(#p315b8efa6f)" d="M 246.247154 252 
L 246.247154 241.128 
" style="fill:none;stroke:#4c72b0;"/>
    <path clip-path="url(#p315b8efa6f)" d="M 222.440917 252 
L 222.440917 241.128 
" style="fill:none;stroke:#4c72b0;"/>
    <path clip-path="url(#p315b8efa6f)" d="M 169.314036 252 
L 169.314036 241.128 
" style="fill:none;stroke:#4c72b0;"/>
    <path clip-path="url(#p315b8efa6f)" d="M 238.089873 252 
L 238.089873 241.128 
" style="fill:none;stroke:#4c72b0;"/>
    <path clip-path="url(#p315b8efa6f)" d="M 278.461303 252 
L 278.461303 241.128 
" style="fill:none;stroke:#4c72b0;"/>
    <path clip-path="url(#p315b8efa6f)" d="M 190.956886 252 
L 190.956886 241.128 
" style="fill:none;stroke:#4c72b0;"/>
    <path clip-path="url(#p315b8efa6f)" d="M 220.161877 252 
L 220.161877 241.128 
" style="fill:none;stroke:#4c72b0;"/>
    <path clip-path="url(#p315b8efa6f)" d="M 240.417564 252 
L 240.417564 241.128 
" style="fill:none;stroke:#4c72b0;"/>
    <path clip-path="url(#p315b8efa6f)" d="M 267.623399 252 
L 267.623399 241.128 
" style="fill:none;stroke:#4c72b0;"/>
    <path clip-path="url(#p315b8efa6f)" d="M 224.058288 252 
L 224.058288 241.128 
" style="fill:none;stroke:#4c72b0;"/>
    <path clip-path="url(#p315b8efa6f)" d="M 219.11343 252 
L 219.11343 241.128 
" style="fill:none;stroke:#4c72b0;"/>
    <path clip-path="url(#p315b8efa6f)" d="M 218.988561 252 
L 218.988561 241.128 
" style="fill:none;stroke:#4c72b0;"/>
    <path clip-path="url(#p315b8efa6f)" d="M 267.848014 252 
L 267.848014 241.128 
" style="fill:none;stroke:#4c72b0;"/>
    <path clip-path="url(#p315b8efa6f)" d="M 213.850847 252 
L 213.850847 241.128 
" style="fill:none;stroke:#4c72b0;"/>
    <path clip-path="url(#p315b8efa6f)" d="M 260.246372 252 
L 260.246372 241.128 
" style="fill:none;stroke:#4c72b0;"/>
    <path clip-path="url(#p315b8efa6f)" d="M 266.660919 252 
L 266.660919 241.128 
" style="fill:none;stroke:#4c72b0;"/>
    <path clip-path="url(#p315b8efa6f)" d="M 266.80679 252 
L 266.80679 241.128 
" style="fill:none;stroke:#4c72b0;"/>
    <path clip-path="url(#p315b8efa6f)" d="M 278.168983 252 
L 278.168983 241.128 
" style="fill:none;stroke:#4c72b0;"/>
    <path clip-path="url(#p315b8efa6f)" d="M 210.654855 252 
L 210.654855 241.128 
" style="fill:none;stroke:#4c72b0;"/>
    <path clip-path="url(#p315b8efa6f)" d="M 176.089069 252 
L 176.089069 241.128 
" style="fill:none;stroke:#4c72b0;"/>
    <path clip-path="url(#p315b8efa6f)" d="M 168.612728 252 
L 168.612728 241.128 
" style="fill:none;stroke:#4c72b0;"/>
    <path clip-path="url(#p315b8efa6f)" d="M 314.123044 252 
L 314.123044 241.128 
" style="fill:none;stroke:#4c72b0;"/>
    <path clip-path="url(#p315b8efa6f)" d="M 244.913972 252 
L 244.913972 241.128 
" style="fill:none;stroke:#4c72b0;"/>
    <path clip-path="url(#p315b8efa6f)" d="M 242.192624 252 
L 242.192624 241.128 
" style="fill:none;stroke:#4c72b0;"/>
    <path clip-path="url(#p315b8efa6f)" d="M 226.692035 252 
L 226.692035 241.128 
" style="fill:none;stroke:#4c72b0;"/>
    <path clip-path="url(#p315b8efa6f)" d="M 248.650407 252 
L 248.650407 241.128 
" style="fill:none;stroke:#4c72b0;"/>
    <path clip-path="url(#p315b8efa6f)" d="M 257.884009 252 
L 257.884009 241.128 
" style="fill:none;stroke:#4c72b0;"/>
    <path clip-path="url(#p315b8efa6f)" d="M 136.209441 252 
L 136.209441 241.128 
" style="fill:none;stroke:#4c72b0;"/>
    <path clip-path="url(#p315b8efa6f)" d="M 218.880445 252 
L 218.880445 241.128 
" style="fill:none;stroke:#4c72b0;"/>
    <path clip-path="url(#p315b8efa6f)" d="M 296.007804 252 
L 296.007804 241.128 
" style="fill:none;stroke:#4c72b0;"/>
    <path clip-path="url(#p315b8efa6f)" d="M 240.559842 252 
L 240.559842 241.128 
" style="fill:none;stroke:#4c72b0;"/>
    <path clip-path="url(#p315b8efa6f)" d="M 220.748794 252 
L 220.748794 241.128 
" style="fill:none;stroke:#4c72b0;"/>
    <path clip-path="url(#p315b8efa6f)" d="M 168.574852 252 
L 168.574852 241.128 
" style="fill:none;stroke:#4c72b0;"/>
    <path clip-path="url(#p315b8efa6f)" d="M 204.0962 252 
L 204.0962 241.128 
" style="fill:none;stroke:#4c72b0;"/>
    <path clip-path="url(#p315b8efa6f)" d="M 238.49718 252 
L 238.49718 241.128 
" style="fill:none;stroke:#4c72b0;"/>
    <path clip-path="url(#p315b8efa6f)" d="M 215.08417 252 
L 215.08417 241.128 
" style="fill:none;stroke:#4c72b0;"/>
    <path clip-path="url(#p315b8efa6f)" d="M 248.64945 252 
L 248.64945 241.128 
" style="fill:none;stroke:#4c72b0;"/>
    <path clip-path="url(#p315b8efa6f)" d="M 247.379467 252 
L 247.379467 241.128 
" style="fill:none;stroke:#4c72b0;"/>
    <path clip-path="url(#p315b8efa6f)" d="M 249.243823 252 
L 249.243823 241.128 
" style="fill:none;stroke:#4c72b0;"/>
    <path clip-path="url(#p315b8efa6f)" d="M 185.048224 252 
L 185.048224 241.128 
" style="fill:none;stroke:#4c72b0;"/>
    <path clip-path="url(#p315b8efa6f)" d="M 272.231715 252 
L 272.231715 241.128 
" style="fill:none;stroke:#4c72b0;"/>
    <path clip-path="url(#p315b8efa6f)" d="M 106.285058 252 
L 106.285058 241.128 
" style="fill:none;stroke:#4c72b0;"/>
    <path clip-path="url(#p315b8efa6f)" d="M 222.7226 252 
L 222.7226 241.128 
" style="fill:none;stroke:#4c72b0;"/>
    <path clip-path="url(#p315b8efa6f)" d="M 258.106653 252 
L 258.106653 241.128 
" style="fill:none;stroke:#4c72b0;"/>
    <path clip-path="url(#p315b8efa6f)" d="M 223.278147 252 
L 223.278147 241.128 
" style="fill:none;stroke:#4c72b0;"/>
    <path clip-path="url(#p315b8efa6f)" d="M 200.194726 252 
L 200.194726 241.128 
" style="fill:none;stroke:#4c72b0;"/>
    <path clip-path="url(#p315b8efa6f)" d="M 233.87826 252 
L 233.87826 241.128 
" style="fill:none;stroke:#4c72b0;"/>
    <path clip-path="url(#p315b8efa6f)" d="M 263.422483 252 
L 263.422483 241.128 
" style="fill:none;stroke:#4c72b0;"/>
    <path clip-path="url(#p315b8efa6f)" d="M 251.626585 252 
L 251.626585 241.128 
" style="fill:none;stroke:#4c72b0;"/>
    <path clip-path="url(#p315b8efa6f)" d="M 249.551268 252 
L 249.551268 241.128 
" style="fill:none;stroke:#4c72b0;"/>
    <path clip-path="url(#p315b8efa6f)" d="M 262.978008 252 
L 262.978008 241.128 
" style="fill:none;stroke:#4c72b0;"/>
    <path clip-path="url(#p315b8efa6f)" d="M 197.686569 252 
L 197.686569 241.128 
" style="fill:none;stroke:#4c72b0;"/>
    <path clip-path="url(#p315b8efa6f)" d="M 219.43867 252 
L 219.43867 241.128 
" style="fill:none;stroke:#4c72b0;"/>
    <path clip-path="url(#p315b8efa6f)" d="M 186.716176 252 
L 186.716176 241.128 
" style="fill:none;stroke:#4c72b0;"/>
    <path clip-path="url(#p315b8efa6f)" d="M 242.223614 252 
L 242.223614 241.128 
" style="fill:none;stroke:#4c72b0;"/>
    <path clip-path="url(#p315b8efa6f)" d="M 239.038034 252 
L 239.038034 241.128 
" style="fill:none;stroke:#4c72b0;"/>
    <path clip-path="url(#p315b8efa6f)" d="M 247.824418 252 
L 247.824418 241.128 
" style="fill:none;stroke:#4c72b0;"/>
    <path clip-path="url(#p315b8efa6f)" d="M 149.968483 252 
L 149.968483 241.128 
" style="fill:none;stroke:#4c72b0;"/>
    <path clip-path="url(#p315b8efa6f)" d="M 260.913782 252 
L 260.913782 241.128 
" style="fill:none;stroke:#4c72b0;"/>
    <path clip-path="url(#p315b8efa6f)" d="M 228.216802 252 
L 228.216802 241.128 
" style="fill:none;stroke:#4c72b0;"/>
    <path clip-path="url(#p315b8efa6f)" d="M 228.276595 252 
L 228.276595 241.128 
" style="fill:none;stroke:#4c72b0;"/>
    <path clip-path="url(#p315b8efa6f)" d="M 191.797617 252 
L 191.797617 241.128 
" style="fill:none;stroke:#4c72b0;"/>
    <path clip-path="url(#p315b8efa6f)" d="M 193.257101 252 
L 193.257101 241.128 
" style="fill:none;stroke:#4c72b0;"/>
    <path clip-path="url(#p315b8efa6f)" d="M 226.51589 252 
L 226.51589 241.128 
" style="fill:none;stroke:#4c72b0;"/>
    <path clip-path="url(#p315b8efa6f)" d="M 225.475597 252 
L 225.475597 241.128 
" style="fill:none;stroke:#4c72b0;"/>
    <path clip-path="url(#p315b8efa6f)" d="M 210.226762 252 
L 210.226762 241.128 
" style="fill:none;stroke:#4c72b0;"/>
    <path clip-path="url(#p315b8efa6f)" d="M 184.575947 252 
L 184.575947 241.128 
" style="fill:none;stroke:#4c72b0;"/>
    <path clip-path="url(#p315b8efa6f)" d="M 242.518962 252 
L 242.518962 241.128 
" style="fill:none;stroke:#4c72b0;"/>
    <path clip-path="url(#p315b8efa6f)" d="M 226.485181 252 
L 226.485181 241.128 
" style="fill:none;stroke:#4c72b0;"/>
    <path clip-path="url(#p315b8efa6f)" d="M 205.704076 252 
L 205.704076 241.128 
" style="fill:none;stroke:#4c72b0;"/>
    <path clip-path="url(#p315b8efa6f)" d="M 214.382623 252 
L 214.382623 241.128 
" style="fill:none;stroke:#4c72b0;"/>
    <path clip-path="url(#p315b8efa6f)" d="M 138.821709 252 
L 138.821709 241.128 
" style="fill:none;stroke:#4c72b0;"/>
    <path clip-path="url(#p315b8efa6f)" d="M 237.608105 252 
L 237.608105 241.128 
" style="fill:none;stroke:#4c72b0;"/>
    <path clip-path="url(#p315b8efa6f)" d="M 250.437771 252 
L 250.437771 241.128 
" style="fill:none;stroke:#4c72b0;"/>
    <path clip-path="url(#p315b8efa6f)" d="M 244.142444 252 
L 244.142444 241.128 
" style="fill:none;stroke:#4c72b0;"/>
    <path clip-path="url(#p315b8efa6f)" d="M 217.889788 252 
L 217.889788 241.128 
" style="fill:none;stroke:#4c72b0;"/>
    <path clip-path="url(#p315b8efa6f)" d="M 236.127524 252 
L 236.127524 241.128 
" style="fill:none;stroke:#4c72b0;"/>
    <path clip-path="url(#p315b8efa6f)" d="M 238.322274 252 
L 238.322274 241.128 
" style="fill:none;stroke:#4c72b0;"/>
    <path clip-path="url(#p315b8efa6f)" d="M 237.796827 252 
L 237.796827 241.128 
" style="fill:none;stroke:#4c72b0;"/>
    <path clip-path="url(#p315b8efa6f)" d="M 245.475818 252 
L 245.475818 241.128 
" style="fill:none;stroke:#4c72b0;"/>
    <path clip-path="url(#p315b8efa6f)" d="M 222.600664 252 
L 222.600664 241.128 
" style="fill:none;stroke:#4c72b0;"/>
    <path clip-path="url(#p315b8efa6f)" d="M 266.414933 252 
L 266.414933 241.128 
" style="fill:none;stroke:#4c72b0;"/>
    <path clip-path="url(#p315b8efa6f)" d="M 336.514942 252 
L 336.514942 241.128 
" style="fill:none;stroke:#4c72b0;"/>
    <path clip-path="url(#p315b8efa6f)" d="M 281.06205 252 
L 281.06205 241.128 
" style="fill:none;stroke:#4c72b0;"/>
    <path clip-path="url(#p315b8efa6f)" d="M 218.630851 252 
L 218.630851 241.128 
" style="fill:none;stroke:#4c72b0;"/>
    <path clip-path="url(#p315b8efa6f)" d="M 203.636347 252 
L 203.636347 241.128 
" style="fill:none;stroke:#4c72b0;"/>
    <path clip-path="url(#p315b8efa6f)" d="M 168.401381 252 
L 168.401381 241.128 
" style="fill:none;stroke:#4c72b0;"/>
    <path clip-path="url(#p315b8efa6f)" d="M 287.367777 252 
L 287.367777 241.128 
" style="fill:none;stroke:#4c72b0;"/>
    <path clip-path="url(#p315b8efa6f)" d="M 279.889141 252 
L 279.889141 241.128 
" style="fill:none;stroke:#4c72b0;"/>
    <path clip-path="url(#p315b8efa6f)" d="M 245.566191 252 
L 245.566191 241.128 
" style="fill:none;stroke:#4c72b0;"/>
    <path clip-path="url(#p315b8efa6f)" d="M 232.287309 252 
L 232.287309 241.128 
" style="fill:none;stroke:#4c72b0;"/>
    <path clip-path="url(#p315b8efa6f)" d="M 218.972794 252 
L 218.972794 241.128 
" style="fill:none;stroke:#4c72b0;"/>
    <path clip-path="url(#p315b8efa6f)" d="M 214.032189 252 
L 214.032189 241.128 
" style="fill:none;stroke:#4c72b0;"/>
    <path clip-path="url(#p315b8efa6f)" d="M 233.107108 252 
L 233.107108 241.128 
" style="fill:none;stroke:#4c72b0;"/>
    <path clip-path="url(#p315b8efa6f)" d="M 274.741956 252 
L 274.741956 241.128 
" style="fill:none;stroke:#4c72b0;"/>
    <path clip-path="url(#p315b8efa6f)" d="M 261.895726 252 
L 261.895726 241.128 
" style="fill:none;stroke:#4c72b0;"/>
    <path clip-path="url(#p315b8efa6f)" d="M 247.50086 252 
L 247.50086 241.128 
" style="fill:none;stroke:#4c72b0;"/>
    <path clip-path="url(#p315b8efa6f)" d="M 284.854015 252 
L 284.854015 241.128 
" style="fill:none;stroke:#4c72b0;"/>
    <path clip-path="url(#p315b8efa6f)" d="M 187.105843 252 
L 187.105843 241.128 
" style="fill:none;stroke:#4c72b0;"/>
    <path clip-path="url(#p315b8efa6f)" d="M 272.528658 252 
L 272.528658 241.128 
" style="fill:none;stroke:#4c72b0;"/>
    <path clip-path="url(#p315b8efa6f)" d="M 126.139499 252 
L 126.139499 241.128 
" style="fill:none;stroke:#4c72b0;"/>
    <path clip-path="url(#p315b8efa6f)" d="M 233.837087 252 
L 233.837087 241.128 
" style="fill:none;stroke:#4c72b0;"/>
    <path clip-path="url(#p315b8efa6f)" d="M 252.181647 252 
L 252.181647 241.128 
" style="fill:none;stroke:#4c72b0;"/>
    <path clip-path="url(#p315b8efa6f)" d="M 157.521899 252 
L 157.521899 241.128 
" style="fill:none;stroke:#4c72b0;"/>
    <path clip-path="url(#p315b8efa6f)" d="M 141.327696 252 
L 141.327696 241.128 
" style="fill:none;stroke:#4c72b0;"/>
    <path clip-path="url(#p315b8efa6f)" d="M 247.280603 252 
L 247.280603 241.128 
" style="fill:none;stroke:#4c72b0;"/>
    <path clip-path="url(#p315b8efa6f)" d="M 244.422845 252 
L 244.422845 241.128 
" style="fill:none;stroke:#4c72b0;"/>
    <path clip-path="url(#p315b8efa6f)" d="M 166.045811 252 
L 166.045811 241.128 
" style="fill:none;stroke:#4c72b0;"/>
    <path clip-path="url(#p315b8efa6f)" d="M 208.140572 252 
L 208.140572 241.128 
" style="fill:none;stroke:#4c72b0;"/>
    <path clip-path="url(#p315b8efa6f)" d="M 263.763181 252 
L 263.763181 241.128 
" style="fill:none;stroke:#4c72b0;"/>
    <path clip-path="url(#p315b8efa6f)" d="M 206.462169 252 
L 206.462169 241.128 
" style="fill:none;stroke:#4c72b0;"/>
    <path clip-path="url(#p315b8efa6f)" d="M 255.453273 252 
L 255.453273 241.128 
" style="fill:none;stroke:#4c72b0;"/>
    <path clip-path="url(#p315b8efa6f)" d="M 218.510205 252 
L 218.510205 241.128 
" style="fill:none;stroke:#4c72b0;"/>
    <path clip-path="url(#p315b8efa6f)" d="M 248.733482 252 
L 248.733482 241.128 
" style="fill:none;stroke:#4c72b0;"/>
    <path clip-path="url(#p315b8efa6f)" d="M 234.651118 252 
L 234.651118 241.128 
" style="fill:none;stroke:#4c72b0;"/>
    <path clip-path="url(#p315b8efa6f)" d="M 267.219552 252 
L 267.219552 241.128 
" style="fill:none;stroke:#4c72b0;"/>
    <path clip-path="url(#p315b8efa6f)" d="M 223.146236 252 
L 223.146236 241.128 
" style="fill:none;stroke:#4c72b0;"/>
    <path clip-path="url(#p315b8efa6f)" d="M 222.463822 252 
L 222.463822 241.128 
" style="fill:none;stroke:#4c72b0;"/>
    <path clip-path="url(#p315b8efa6f)" d="M 264.179095 252 
L 264.179095 241.128 
" style="fill:none;stroke:#4c72b0;"/>
    <path clip-path="url(#p315b8efa6f)" d="M 213.588492 252 
L 213.588492 241.128 
" style="fill:none;stroke:#4c72b0;"/>
    <path clip-path="url(#p315b8efa6f)" d="M 216.391291 252 
L 216.391291 241.128 
" style="fill:none;stroke:#4c72b0;"/>
    <path clip-path="url(#p315b8efa6f)" d="M 287.229391 252 
L 287.229391 241.128 
" style="fill:none;stroke:#4c72b0;"/>
    <path clip-path="url(#p315b8efa6f)" d="M 232.522086 252 
L 232.522086 241.128 
" style="fill:none;stroke:#4c72b0;"/>
    <path clip-path="url(#p315b8efa6f)" d="M 150.277624 252 
L 150.277624 241.128 
" style="fill:none;stroke:#4c72b0;"/>
    <path clip-path="url(#p315b8efa6f)" d="M 246.980075 252 
L 246.980075 241.128 
" style="fill:none;stroke:#4c72b0;"/>
    <path clip-path="url(#p315b8efa6f)" d="M 217.613943 252 
L 217.613943 241.128 
" style="fill:none;stroke:#4c72b0;"/>
    <path clip-path="url(#p315b8efa6f)" d="M 194.968357 252 
L 194.968357 241.128 
" style="fill:none;stroke:#4c72b0;"/>
    <path clip-path="url(#p315b8efa6f)" d="M 164.37877 252 
L 164.37877 241.128 
" style="fill:none;stroke:#4c72b0;"/>
    <path clip-path="url(#p315b8efa6f)" d="M 240.168542 252 
L 240.168542 241.128 
" style="fill:none;stroke:#4c72b0;"/>
    <path clip-path="url(#p315b8efa6f)" d="M 202.148217 252 
L 202.148217 241.128 
" style="fill:none;stroke:#4c72b0;"/>
    <path clip-path="url(#p315b8efa6f)" d="M 261.988093 252 
L 261.988093 241.128 
" style="fill:none;stroke:#4c72b0;"/>
    <path clip-path="url(#p315b8efa6f)" d="M 197.753245 252 
L 197.753245 241.128 
" style="fill:none;stroke:#4c72b0;"/>
    <path clip-path="url(#p315b8efa6f)" d="M 214.401793 252 
L 214.401793 241.128 
" style="fill:none;stroke:#4c72b0;"/>
    <path clip-path="url(#p315b8efa6f)" d="M 212.926494 252 
L 212.926494 241.128 
" style="fill:none;stroke:#4c72b0;"/>
    <path clip-path="url(#p315b8efa6f)" d="M 239.266562 252 
L 239.266562 241.128 
" style="fill:none;stroke:#4c72b0;"/>
    <path clip-path="url(#p315b8efa6f)" d="M 228.389341 252 
L 228.389341 241.128 
" style="fill:none;stroke:#4c72b0;"/>
    <path clip-path="url(#p315b8efa6f)" d="M 270.588683 252 
L 270.588683 241.128 
" style="fill:none;stroke:#4c72b0;"/>
    <path clip-path="url(#p315b8efa6f)" d="M 210.479 252 
L 210.479 241.128 
" style="fill:none;stroke:#4c72b0;"/>
    <path clip-path="url(#p315b8efa6f)" d="M 200.387461 252 
L 200.387461 241.128 
" style="fill:none;stroke:#4c72b0;"/>
    <path clip-path="url(#p315b8efa6f)" d="M 214.982108 252 
L 214.982108 241.128 
" style="fill:none;stroke:#4c72b0;"/>
    <path clip-path="url(#p315b8efa6f)" d="M 139.384203 252 
L 139.384203 241.128 
" style="fill:none;stroke:#4c72b0;"/>
    <path clip-path="url(#p315b8efa6f)" d="M 235.232945 252 
L 235.232945 241.128 
" style="fill:none;stroke:#4c72b0;"/>
    <path clip-path="url(#p315b8efa6f)" d="M 186.664554 252 
L 186.664554 241.128 
" style="fill:none;stroke:#4c72b0;"/>
    <path clip-path="url(#p315b8efa6f)" d="M 252.241651 252 
L 252.241651 241.128 
" style="fill:none;stroke:#4c72b0;"/>
    <path clip-path="url(#p315b8efa6f)" d="M 249.292707 252 
L 249.292707 241.128 
" style="fill:none;stroke:#4c72b0;"/>
    <path clip-path="url(#p315b8efa6f)" d="M 235.818044 252 
L 235.818044 241.128 
" style="fill:none;stroke:#4c72b0;"/>
    <path clip-path="url(#p315b8efa6f)" d="M 192.145502 252 
L 192.145502 241.128 
" style="fill:none;stroke:#4c72b0;"/>
    <path clip-path="url(#p315b8efa6f)" d="M 209.670369 252 
L 209.670369 241.128 
" style="fill:none;stroke:#4c72b0;"/>
    <path clip-path="url(#p315b8efa6f)" d="M 236.224079 252 
L 236.224079 241.128 
" style="fill:none;stroke:#4c72b0;"/>
    <path clip-path="url(#p315b8efa6f)" d="M 210.388711 252 
L 210.388711 241.128 
" style="fill:none;stroke:#4c72b0;"/>
    <path clip-path="url(#p315b8efa6f)" d="M 170.293521 252 
L 170.293521 241.128 
" style="fill:none;stroke:#4c72b0;"/>
    <path clip-path="url(#p315b8efa6f)" d="M 248.573839 252 
L 248.573839 241.128 
" style="fill:none;stroke:#4c72b0;"/>
    <path clip-path="url(#p315b8efa6f)" d="M 198.661109 252 
L 198.661109 241.128 
" style="fill:none;stroke:#4c72b0;"/>
    <path clip-path="url(#p315b8efa6f)" d="M 256.643186 252 
L 256.643186 241.128 
" style="fill:none;stroke:#4c72b0;"/>
    <path clip-path="url(#p315b8efa6f)" d="M 239.256908 252 
L 239.256908 241.128 
" style="fill:none;stroke:#4c72b0;"/>
    <path clip-path="url(#p315b8efa6f)" d="M 202.399322 252 
L 202.399322 241.128 
" style="fill:none;stroke:#4c72b0;"/>
    <path clip-path="url(#p315b8efa6f)" d="M 250.557063 252 
L 250.557063 241.128 
" style="fill:none;stroke:#4c72b0;"/>
    <path clip-path="url(#p315b8efa6f)" d="M 220.705188 252 
L 220.705188 241.128 
" style="fill:none;stroke:#4c72b0;"/>
    <path clip-path="url(#p315b8efa6f)" d="M 236.38938 252 
L 236.38938 241.128 
" style="fill:none;stroke:#4c72b0;"/>
    <path clip-path="url(#p315b8efa6f)" d="M 225.093191 252 
L 225.093191 241.128 
" style="fill:none;stroke:#4c72b0;"/>
    <path clip-path="url(#p315b8efa6f)" d="M 230.225291 252 
L 230.225291 241.128 
" style="fill:none;stroke:#4c72b0;"/>
    <path clip-path="url(#p315b8efa6f)" d="M 195.955715 252 
L 195.955715 241.128 
" style="fill:none;stroke:#4c72b0;"/>
    <path clip-path="url(#p315b8efa6f)" d="M 264.177847 252 
L 264.177847 241.128 
" style="fill:none;stroke:#4c72b0;"/>
    <path clip-path="url(#p315b8efa6f)" d="M 211.61664 252 
L 211.61664 241.128 
" style="fill:none;stroke:#4c72b0;"/>
    <path clip-path="url(#p315b8efa6f)" d="M 283.819537 252 
L 283.819537 241.128 
" style="fill:none;stroke:#4c72b0;"/>
    <path clip-path="url(#p315b8efa6f)" d="M 226.420926 252 
L 226.420926 241.128 
" style="fill:none;stroke:#4c72b0;"/>
    <path clip-path="url(#p315b8efa6f)" d="M 283.362593 252 
L 283.362593 241.128 
" style="fill:none;stroke:#4c72b0;"/>
    <path clip-path="url(#p315b8efa6f)" d="M 221.530244 252 
L 221.530244 241.128 
" style="fill:none;stroke:#4c72b0;"/>
    <path clip-path="url(#p315b8efa6f)" d="M 276.479606 252 
L 276.479606 241.128 
" style="fill:none;stroke:#4c72b0;"/>
    <path clip-path="url(#p315b8efa6f)" d="M 269.198296 252 
L 269.198296 241.128 
" style="fill:none;stroke:#4c72b0;"/>
    <path clip-path="url(#p315b8efa6f)" d="M 256.207144 252 
L 256.207144 241.128 
" style="fill:none;stroke:#4c72b0;"/>
    <path clip-path="url(#p315b8efa6f)" d="M 269.93597 252 
L 269.93597 241.128 
" style="fill:none;stroke:#4c72b0;"/>
    <path clip-path="url(#p315b8efa6f)" d="M 153.929397 252 
L 153.929397 241.128 
" style="fill:none;stroke:#4c72b0;"/>
    <path clip-path="url(#p315b8efa6f)" d="M 145.798563 252 
L 145.798563 241.128 
" style="fill:none;stroke:#4c72b0;"/>
    <path clip-path="url(#p315b8efa6f)" d="M 275.225751 252 
L 275.225751 241.128 
" style="fill:none;stroke:#4c72b0;"/>
    <path clip-path="url(#p315b8efa6f)" d="M 162.715686 252 
L 162.715686 241.128 
" style="fill:none;stroke:#4c72b0;"/>
    <path clip-path="url(#p315b8efa6f)" d="M 178.587827 252 
L 178.587827 241.128 
" style="fill:none;stroke:#4c72b0;"/>
    <path clip-path="url(#p315b8efa6f)" d="M 270.774102 252 
L 270.774102 241.128 
" style="fill:none;stroke:#4c72b0;"/>
    <path clip-path="url(#p315b8efa6f)" d="M 218.662146 252 
L 218.662146 241.128 
" style="fill:none;stroke:#4c72b0;"/>
    <path clip-path="url(#p315b8efa6f)" d="M 186.737695 252 
L 186.737695 241.128 
" style="fill:none;stroke:#4c72b0;"/>
    <path clip-path="url(#p315b8efa6f)" d="M 218.524569 252 
L 218.524569 241.128 
" style="fill:none;stroke:#4c72b0;"/>
    <path clip-path="url(#p315b8efa6f)" d="M 182.557786 252 
L 182.557786 241.128 
" style="fill:none;stroke:#4c72b0;"/>
    <path clip-path="url(#p315b8efa6f)" d="M 243.38272 252 
L 243.38272 241.128 
" style="fill:none;stroke:#4c72b0;"/>
   </g>
   <g id="line2d_9">
    <path clip-path="url(#p315b8efa6f)" d="M 69.218182 251.9497 
L 76.407874 251.844798 
L 81.201002 251.64115 
L 85.99413 251.271142 
L 90.787258 250.708577 
L 97.976951 249.59244 
L 107.563207 247.924914 
L 112.356335 246.833521 
L 114.752899 246.093407 
L 117.149463 245.156984 
L 119.546027 243.979296 
L 121.942591 242.527942 
L 124.339155 240.789184 
L 126.735719 238.772099 
L 129.132283 236.510014 
L 133.925412 231.491377 
L 138.71854 226.337889 
L 141.115104 223.904381 
L 143.511668 221.640698 
L 145.908232 219.571777 
L 148.304796 217.695459 
L 153.097924 214.400422 
L 162.68418 208.292052 
L 165.080744 206.58604 
L 167.477309 204.711874 
L 169.873873 202.609809 
L 172.270437 200.211616 
L 174.667001 197.445543 
L 177.063565 194.244719 
L 179.460129 190.556336 
L 181.856693 186.348461 
L 184.253257 181.61216 
L 186.649821 176.358397 
L 189.046385 170.611206 
L 191.442949 164.400153 
L 193.839513 157.75551 
L 196.236077 150.708713 
L 201.029205 135.583663 
L 210.615462 104.014624 
L 213.012026 96.825319 
L 215.40859 90.30891 
L 217.805154 84.616126 
L 220.201718 79.838238 
L 222.598282 76.001445 
L 224.994846 73.076341 
L 227.39141 71.000284 
L 229.787974 69.706332 
L 232.184538 69.150185 
L 234.581102 69.326925 
L 236.977666 70.272405 
L 239.37423 72.048861 
L 241.770795 74.71924 
L 244.167359 78.318261 
L 246.563923 82.829234 
L 248.960487 88.173845 
L 251.357051 94.218072 
L 253.753615 100.792475 
L 258.546743 114.849022 
L 270.529563 151.26092 
L 277.719256 173.97178 
L 284.908948 196.753203 
L 287.305512 203.961854 
L 289.702076 210.793056 
L 292.09864 217.139183 
L 294.495204 222.90691 
L 296.891768 228.025388 
L 299.288332 232.452877 
L 301.684896 236.180602 
L 304.08146 239.232821 
L 306.478024 241.662782 
L 308.874588 243.54517 
L 311.271152 244.966459 
L 313.667717 246.015095 
L 316.064281 246.773354 
L 318.460845 247.312215 
L 320.857409 247.689657 
L 325.650537 248.136238 
L 337.633357 248.870432 
L 342.426485 249.402931 
L 356.80587 251.280048 
L 361.598998 251.643576 
L 368.78869 251.900866 
L 373.581818 251.94973 
L 373.581818 251.94973 
" style="fill:none;stroke:#4c72b0;stroke-linecap:round;stroke-width:1.5;"/>
   </g>
   <g id="patch_18">
    <path d="M 54 252 
L 54 34.56 
" style="fill:none;stroke:#cccccc;stroke-linecap:square;stroke-linejoin:miter;stroke-width:1.25;"/>
   </g>
   <g id="patch_19">
    <path d="M 388.8 252 
L 388.8 34.56 
" style="fill:none;stroke:#cccccc;stroke-linecap:square;stroke-linejoin:miter;stroke-width:1.25;"/>
   </g>
   <g id="patch_20">
    <path d="M 54 252 
L 388.8 252 
" style="fill:none;stroke:#cccccc;stroke-linecap:square;stroke-linejoin:miter;stroke-width:1.25;"/>
   </g>
   <g id="patch_21">
    <path d="M 54 34.56 
L 388.8 34.56 
" style="fill:none;stroke:#cccccc;stroke-linecap:square;stroke-linejoin:miter;stroke-width:1.25;"/>
   </g>
  </g>
 </g>
 <defs>
  <clipPath id="p315b8efa6f">
   <rect height="217.44" width="334.8" x="54" y="34.56"/>
  </clipPath>
 </defs>
</svg>
